<svg width="2000" height="3000" xmlns="http://www.w3.org/2000/svg" xmlns:xlink="http://www.w3.org/1999/xlink" >
  <g transform="rotate(30) translate(1000 0)">    <path d="M700.2894093331236 981.7628787687523 L715.1579863071333 985.6429257480622 L713.698535194851 1003.4364357739807 L713.4987402893245 1039.439477736432 L698.3492829917282 1039.7559514129503 L696.6701811300169 1070.8193358530766 L712.1331945040765 1167.4631694410427 L701.2126017196607 1182.7519993391263 L615.4462567029384 1201.250622774079 L573.6883924898706 1222.8495180568361 L559.4274652158049 1213.3422332075968 L521.7550445531316 1105.034023802251 L537.5482113347374 1062.9189123846313 L582.3958144259933 1038.0035773339987 L600.7639076477744 1046.352710616669 L636.7829604290165 1027.8806363237077 L651.2560840365467 1033.7895224739354 L672.2021903630804 1049.7384315874122 L692.7284928895716 1034.0418473024467 L697.0141443693478 982.6140295468906 L724.3264665959259 864.2606332322252 L790.2197116252552 868.8578363738038 L822.9999999999649 877.8461538461576 L788.4087347924407 871.5227545951927 L791.4881987108657 829.9499916945492 L786.9642107117159 808.8380476983922 L810.72751854947 703.3883691677852 L762.6468397338471 689.2469930455377 L726.9662733556714 866.1631346705742 Z" stroke="red" stroke-width="0.5" fill="none" />
  </g>
</svg>
