<svg width="1049.9999999998977" height="1849.9999999999961" xmlns="http://www.w3.org/2000/svg" xmlns:xlink="http://www.w3.org/1999/xlink" >
  <g transform="translate(524.9999999999488 924.9999999999981) rotate(30) scale(10000 -10000) translate(-106.8125 6.592499999999999)">
    <path d="M106.76 -6.5 L106.865 -6.5 L106.865 -6.685 L106.76 -6.685 Z" fill="none" stroke="black" stroke-width="0.0005" transform="translate(106.8125 -6.592499999999999) rotate(30) translate(-106.8125 6.592499999999999)" />
    <path d="M106.7896462994065 -6.596092730132905 L106.78838221149626 -6.595703780006676 L106.78804914527775 -6.595745413283987 L106.78457382912917 -6.595397881669128 L106.78262190537603 -6.594519515980209 L106.78073432169776 -6.5964070996584665 L106.77949527668831 -6.596200592156889 L106.77927495029147 -6.596216329756664 L106.77206192871604 -6.587824130704649 L106.77169968212986 -6.585970752741582 L106.7710215203721 -6.584950570097312 L106.7672741776504 -6.5803889752695355 L106.76354893635033 -6.580620251907669 L106.75325296874794 -6.576316619825651 L106.75123348477135 -6.573583029659374 L106.755373 -6.571011 L106.75152051522866 -6.573634970340623 L106.75338103125206 -6.576153380174353 L106.76358306364966 -6.58041774809233 L106.76736382234961 -6.580183024730465 L106.77118247962792 -6.5848314299027395 L106.77188831787014 -6.585893247258426 L106.77224807128394 -6.58773386929534 L106.77936104970854 -6.596009670243336 L106.77950472331169 -6.59599940784311 L106.78066567830223 -6.596192900341535 L106.78257809462399 -6.594280484019793 L106.78462617087082 -6.595202118330871 L106.78733021793208 -6.595472523036998 L106.78630978795586 -6.5930234910940335 L106.7878518246497 -6.592894988036212 L106.78848333104713 -6.595421013625977 L106.78972685029674 -6.595803634933548 L106.79363769514828 -6.596781346146429 L106.79457346973183 -6.594285947256963 L106.79729099096443 -6.592776213238852 L106.79839475350329 -6.593277923483788 L106.80080451023176 -6.5920420996106115 L106.8019061012046 -6.59249184189287 L106.8030502329864 -6.593363013532942 L106.80459108379459 -6.595828374826044 L106.80541045645762 -6.600949453970014 L106.80481778452942 -6.60177919466951 L106.79966685439426 -6.602890179600621 L106.7990725366508 -6.603187338472349 L106.79986727279282 -6.604688506740631 L106.8026448928127 -6.60806133105049 L106.8066447790539 -6.611661228667561 L106.81044409847686 -6.616260404811161 L106.81489311802007 -6.6201797791706545 L106.81259473314714 -6.620945907461634 L106.81249363914195 -6.623675445601654 L106.81026118757754 -6.623979870814983 L106.81007527531203 -6.624723519877017 L106.80934189146734 -6.625212442440131 L106.80880381156027 -6.624539842556285 L106.80850704679523 -6.621868959670899 L106.80782113912602 -6.621574999241234 L106.80681345171524 -6.618854243232142 L106.80441801439983 -6.616358996028581 L106.80370983285266 -6.6150070130749095 L106.80196536504155 -6.612457406274068 L106.79988980952953 -6.611469046506437 L106.79629936250362 -6.60837727267855 L106.79465367312949 -6.607828709553843 L106.7952189777307 -6.605906673909768 L106.79626443754684 -6.604576088689206 L106.79584120889243 -6.603729631380369 L106.77004143231558 -6.584214151130276 L106.79483495879897 -6.597389894981023 Z" stroke="orange" stroke-width="0.0001" fill="none" />
  </g>
</svg>
