<svg width="3500" height="2500" xmlns="http://www.w3.org/2000/svg" xmlns:xlink="http://www.w3.org/1999/xlink" >
  <path d="M1170.8288186659388 788.3719113837129 L1185.5059726140382 792.2020053422897 L1183.9481944311103 811.1943110668508 L1183.740610433972 848.6009473738666 L1168.5219805052327 848.9188660735526 L1166.926635782559 878.4327434467699 L1186.1534136718178 998.6001052559146 L1196.4046457332245 1020.3839733863374 L1373.0107445451977 913.5988903838211 L1204.1509800536687 1031.8007255280593 L1290.0648566739646 1148.2941175555873 L1312.6469480703663 1202.4911369072545 L1339.6291125707194 1275.942584713431 L1341.5751407701036 1279.8346411120533 L1336.7499999999666 1284.6597818819905 L1330.911498746943 1278.8212806289268 L1309.8302115904658 1203.530969355734 L1287.433490350409 1149.778838379393 L1224.6482708787453 1063.6316767787368 L1213.438060050862 1068.436052847822 L1204.039590207202 1062.1704062853955 L1192.7678427515787 1063.7806559219189 L1179.112146362229 1042.5384615384726 L1167.858344616377 1042.5384615384726 L1155.9838992559435 990.587763086589 L1099.862467562076 1002.528493234215 L1042.342100926348 1032.2804070113402 L1026.9262285056157 1022.003158730901 L988.9102309748665 912.7071658300902 L1005.0874444061009 869.5679300137983 L1051.078246658932 844.0174843177307 L1069.474558922323 852.37944443746 L1105.4617871673854 833.9236910956228 L1120.75684307122 840.1681443628373 L1140.9502347436273 855.5439169983038 L1160.038915612347 840.9466904515418 L1164.2782887383873 790.0742129414152 L1203.457057895534 620.2995465937978 L1230.9851969269657 495.18673654892604 L1197.182546709712 674.1724231945713 Z" stroke="purple" stroke-width="0.5" fill="none" />
</svg>
