<svg width="3500" height="2500" xmlns="http://www.w3.org/2000/svg" xmlns:xlink="http://www.w3.org/1999/xlink" >
  <path d="M1053.1824322332996 854.8600608298375 L1069.7106512748178 862.3728876669057 L1105.8888267382372 843.8192086180719 L1121.5907590347028 850.2297757350553 L1138.3767473978423 863.0110630354161 L1161.1831284594841 899.5012727338859 L1173.3284234323094 975.4093663134167 L1165.1333839703425 986.8824215598638 L1088.2514079566618 1003.4648085432208 L1077.794024880916 1008.6935000810938 L1090.5045459462315 1032.7022620933535 L1132.3366960952085 1083.4984444171914 L1192.335842904697 1137.4976765455526 L1249.3307385766173 1206.491497622232 L1314.1983851505047 1263.6368053183746 L1281.2104986035422 1274.632767500713 L1279.7022935644975 1315.3543035508699 L1246.45890683162 1319.8874926508474 L1243.5645648403693 1331.4648606159974 L1233.0588731763469 1338.468655058497 L1231.7500000001046 1337.1597818821215 L1231.7500000001046 1336.9989608362011 L1243.3967637193177 1341.3664972308793 L1247.6326703879436 1351.9562639023243 L1236.7648254665653 1350.1449564154589 L1235.3713203434324 1351.538461538472 L1240.5357475872593 1356.7028887820854 L1248.8035761643346 1378.199243083097 L1222.55521646224 1382.831306559961 L1220.9154521536902 1392.6698924126313 L1209.5925582746504 1387.817223607416 L1203.6176682602218 1393.7921136218047 L1140.6579111336157 1369.2224523041164 L1113.640601778343 1313.6868719624263 L1099.6495041745648 1307.468606360781 L1101.1402644153634 1292.5610039535795 L1077.2500000000919 1282.5384615384728 L1104.3597355848078 1290.5159191233506 L1102.6506399377213 1307.606875594457 L1081.167896223647 1315.8694693306252 L1072.3612479807798 1302.6594969665107 L1061.8104454378852 1310.1957844971803 L1044.331316559308 1281.5935736047902 L1039.7057580969715 1258.4657812938794 L1049.201934042614 1226.8118614756486 L1081.5326390927282 1232.9700910090169 L1089.7228875265341 1228.8749667922073 L1113.6733713053814 1192.9492411237763 L1142.6447187190547 1174.1178653047637 L1124.2402378118754 1147.2190085940238 L1092.9235714716156 1132.3063103367472 L1038.9952187772167 1085.8680066275717 L1015.4025484713003 1078.0037831923241 L1023.3923329803929 1050.8385158613266 L1039.4832816012922 1030.3591267074087 L1034.5791796066096 1018.8738717350922 L1034.54162740249 1018.7848520071697 L998.0996157091937 916.2970300753582 L938.8472455491836 901.4839375353956 L919.616586222034 895.5668115885363 L906.8041280504957 897.1683688599653 L890.573409669031 858.2146447437278 L909.199899946671 856.6624372205735 L907.6894206707209 814.3690174970998 L954.5625309835515 819.217959943267 L938.0168293024838 897.4340042544594 L965.1683234494612 904.2218777912171 L978.5675009810291 852.1139651685851 L1003.7499999999966 850.4351319006344 L1003.7499999999966 859.8925635046618 L999.6704019660996 868.0517595723626 L1012.8416287496833 877.2716183207219 Z" stroke="blue" stroke-width="0.5" fill="none" />
</svg>
