<svg width="1049.9999999998977" height="1849.9999999999961" xmlns="http://www.w3.org/2000/svg" xmlns:xlink="http://www.w3.org/1999/xlink" >
  <g transform="translate(524.9999999999488 924.9999999999981) rotate(30) scale(10000 -10000) translate(-106.8125 6.592499999999999)">
    <path d="M106.76 -6.5 L106.865 -6.5 L106.865 -6.685 L106.76 -6.685 Z" fill="none" stroke="black" stroke-width="0.0025" transform="translate(106.8125 -6.592499999999999) rotate(30) translate(-106.8125 6.592499999999999)" />
    <path d="M106.81380830717052 -6.600131076291507 L106.8172 -6.5982 L106.81407062944966 -6.600926826122643 L106.81337195928657 -6.605617897217725 L106.81075660528288 -6.607642687414133 L106.81249972079527 -6.610257360682699 L106.80001592504286 -6.603385546507061 L106.79624258241415 -6.605337275452948 L106.79454765384699 -6.604207323074863 L106.79199886551659 -6.59687955662493 L106.79352526538445 -6.59280915697731 L106.79720990964424 -6.590762132388542 L106.79834753503283 -6.5912792348379 L106.80071910231757 -6.5900629961061234 L106.80138342000058 -6.590334214515017 L106.80320186167971 -6.591718823215857 L106.80663544804935 -6.5972125614072645 L106.80721460561917 -6.600832296218618 L106.80596754842013 -6.6025781762972615 L106.80665011187297 -6.603455757879491 L106.83114635458567 -6.588644076239254 L106.80827804601887 -6.604651892236049 L106.81027416353443 -6.607004459307958 L106.81262804071343 -6.605182102782267 L106.81328211208212 -6.600790480735335 L106.8126 -6.599 L106.8126 -6.599 Z" stroke="yellow" stroke-width="0.0005" fill="none" />
    <text x="106.81380830717052" y="-6.600131076291507" fill="black" text-anchor="middle" transform="translate(106.81380830717052 -6.600131076291507) scale(0.00002 -0.00002) translate(-106.81380830717052 6.600131076291507) translate(106.8125 -6.592499999999999) rotate(-30) translate(-106.8125 6.592499999999999)">06</text>
    <text x="106.8172" y="-6.5982" fill="black" text-anchor="middle" transform="translate(106.8172 -6.5982) scale(0.00002 -0.00002) translate(-106.8172 6.5982) translate(106.8125 -6.592499999999999) rotate(-30) translate(-106.8125 6.592499999999999)">06</text>
    <text x="106.81407062944966" y="-6.600926826122643" fill="black" text-anchor="middle" transform="translate(106.81407062944966 -6.600926826122643) scale(0.00002 -0.00002) translate(-106.81407062944966 6.600926826122643) translate(106.8125 -6.592499999999999) rotate(-30) translate(-106.8125 6.592499999999999)">06</text>
    <text x="106.81337195928657" y="-6.605617897217725" fill="black" text-anchor="middle" transform="translate(106.81337195928657 -6.605617897217725) scale(0.00002 -0.00002) translate(-106.81337195928657 6.605617897217725) translate(106.8125 -6.592499999999999) rotate(-30) translate(-106.8125 6.592499999999999)">06</text>
    <text x="106.81249972079527" y="-6.610257360682699" fill="black" text-anchor="middle" transform="translate(106.81249972079527 -6.610257360682699) scale(0.00002 -0.00002) translate(-106.81249972079527 6.610257360682699) translate(106.8125 -6.592499999999999) rotate(-30) translate(-106.8125 6.592499999999999)">06</text>
    <text x="106.80001592504286" y="-6.603385546507061" fill="black" text-anchor="middle" transform="translate(106.80001592504286 -6.603385546507061) scale(0.00002 -0.00002) translate(-106.80001592504286 6.603385546507061) translate(106.8125 -6.592499999999999) rotate(-30) translate(-106.8125 6.592499999999999)">06</text>
    <text x="106.79624258241415" y="-6.605337275452948" fill="black" text-anchor="middle" transform="translate(106.79624258241415 -6.605337275452948) scale(0.00002 -0.00002) translate(-106.79624258241415 6.605337275452948) translate(106.8125 -6.592499999999999) rotate(-30) translate(-106.8125 6.592499999999999)">06</text>
    <text x="106.79454765384699" y="-6.604207323074863" fill="black" text-anchor="middle" transform="translate(106.79454765384699 -6.604207323074863) scale(0.00002 -0.00002) translate(-106.79454765384699 6.604207323074863) translate(106.8125 -6.592499999999999) rotate(-30) translate(-106.8125 6.592499999999999)">06</text>
    <text x="106.79199886551659" y="-6.59687955662493" fill="black" text-anchor="middle" transform="translate(106.79199886551659 -6.59687955662493) scale(0.00002 -0.00002) translate(-106.79199886551659 6.59687955662493) translate(106.8125 -6.592499999999999) rotate(-30) translate(-106.8125 6.592499999999999)">06</text>
    <text x="106.79352526538445" y="-6.59280915697731" fill="black" text-anchor="middle" transform="translate(106.79352526538445 -6.59280915697731) scale(0.00002 -0.00002) translate(-106.79352526538445 6.59280915697731) translate(106.8125 -6.592499999999999) rotate(-30) translate(-106.8125 6.592499999999999)">06</text>
    <text x="106.79720990964424" y="-6.590762132388542" fill="black" text-anchor="middle" transform="translate(106.79720990964424 -6.590762132388542) scale(0.00002 -0.00002) translate(-106.79720990964424 6.590762132388542) translate(106.8125 -6.592499999999999) rotate(-30) translate(-106.8125 6.592499999999999)">06</text>
    <text x="106.80071910231757" y="-6.5900629961061234" fill="black" text-anchor="middle" transform="translate(106.80071910231757 -6.5900629961061234) scale(0.00002 -0.00002) translate(-106.80071910231757 6.5900629961061234) translate(106.8125 -6.592499999999999) rotate(-30) translate(-106.8125 6.592499999999999)">06</text>
    <text x="106.80138342000058" y="-6.590334214515017" fill="black" text-anchor="middle" transform="translate(106.80138342000058 -6.590334214515017) scale(0.00002 -0.00002) translate(-106.80138342000058 6.590334214515017) translate(106.8125 -6.592499999999999) rotate(-30) translate(-106.8125 6.592499999999999)">06</text>
    <text x="106.80320186167971" y="-6.591718823215857" fill="black" text-anchor="middle" transform="translate(106.80320186167971 -6.591718823215857) scale(0.00002 -0.00002) translate(-106.80320186167971 6.591718823215857) translate(106.8125 -6.592499999999999) rotate(-30) translate(-106.8125 6.592499999999999)">06</text>
    <text x="106.80663544804935" y="-6.5972125614072645" fill="black" text-anchor="middle" transform="translate(106.80663544804935 -6.5972125614072645) scale(0.00002 -0.00002) translate(-106.80663544804935 6.5972125614072645) translate(106.8125 -6.592499999999999) rotate(-30) translate(-106.8125 6.592499999999999)">06</text>
    <text x="106.80721460561917" y="-6.600832296218618" fill="black" text-anchor="middle" transform="translate(106.80721460561917 -6.600832296218618) scale(0.00002 -0.00002) translate(-106.80721460561917 6.600832296218618) translate(106.8125 -6.592499999999999) rotate(-30) translate(-106.8125 6.592499999999999)">06</text>
    <text x="106.80596754842013" y="-6.6025781762972615" fill="black" text-anchor="middle" transform="translate(106.80596754842013 -6.6025781762972615) scale(0.00002 -0.00002) translate(-106.80596754842013 6.6025781762972615) translate(106.8125 -6.592499999999999) rotate(-30) translate(-106.8125 6.592499999999999)">06</text>
    <text x="106.80665011187297" y="-6.603455757879491" fill="black" text-anchor="middle" transform="translate(106.80665011187297 -6.603455757879491) scale(0.00002 -0.00002) translate(-106.80665011187297 6.603455757879491) translate(106.8125 -6.592499999999999) rotate(-30) translate(-106.8125 6.592499999999999)">06</text>
    <text x="106.83114635458567" y="-6.588644076239254" fill="black" text-anchor="middle" transform="translate(106.83114635458567 -6.588644076239254) scale(0.00002 -0.00002) translate(-106.83114635458567 6.588644076239254) translate(106.8125 -6.592499999999999) rotate(-30) translate(-106.8125 6.592499999999999)">06</text>
    <text x="106.80827804601887" y="-6.604651892236049" fill="black" text-anchor="middle" transform="translate(106.80827804601887 -6.604651892236049) scale(0.00002 -0.00002) translate(-106.80827804601887 6.604651892236049) translate(106.8125 -6.592499999999999) rotate(-30) translate(-106.8125 6.592499999999999)">06</text>
    <text x="106.81027416353443" y="-6.607004459307958" fill="black" text-anchor="middle" transform="translate(106.81027416353443 -6.607004459307958) scale(0.00002 -0.00002) translate(-106.81027416353443 6.607004459307958) translate(106.8125 -6.592499999999999) rotate(-30) translate(-106.8125 6.592499999999999)">06</text>
    <text x="106.8126" y="-6.599" fill="black" text-anchor="middle" transform="translate(106.8126 -6.599) scale(0.00002 -0.00002) translate(-106.8126 6.599) translate(106.8125 -6.592499999999999) rotate(-30) translate(-106.8125 6.592499999999999)">06</text>
  </g>
</svg>
