<svg width="1450.0000000001023" height="1550.0000000000025" xmlns="http://www.w3.org/2000/svg" xmlns:xlink="http://www.w3.org/1999/xlink" >
  <g transform="translate(725.0000000000512 775.0000000000013) rotate(0) scale(10000 -10000) translate(-106.7975 6.592499999999999)">
    <path d="M106.725 -6.515 L106.87 -6.515 L106.87 -6.67 L106.725 -6.67 Z" fill="none" stroke="black" stroke-width="0.0005" transform="translate(106.7975 -6.592499999999999) rotate(0) translate(-106.7975 6.592499999999999)" />
    <path d="M106.81319197850786 -6.5998228374360925 L106.81319197850786 -6.5998228374360925 L106.81371353839631 -6.60062888453644 L106.81538025141676 -6.599438375236126 L106.81543256285418 -6.599339564743193 L106.8172 -6.5982 L106.81550812381937 -6.599531373347121 L106.81550812381937 -6.599531373347121 L106.81379265736243 -6.600756706530658 L106.81345627458295 -6.603015276621414 L106.81339208894374 -6.603106820074048 L106.81304649491084 -6.605427237152216 L106.81148060865966 -6.606639536185381 L106.81148060865966 -6.606639536185381 L106.80996744016761 -6.607811021469538 L106.81021386750491 -6.608180662475472 L106.81031094003926 -6.608236132495094 L106.8105 -6.6087 L106.81011679497057 -6.608305470019623 L106.81011679497057 -6.608305470019623 L106.80982228758492 -6.6078637089411565 L106.80926464466096 -6.607306066017178 L106.80922928932188 -6.607200000000001 L106.80866226659435 -6.606632977272479 L106.807860228414 -6.605580302160763 L106.807860228414 -6.605580302160763 L106.8070653008834 -6.60453695977685 L106.80692226499019 -6.604441602514718 L106.80692226499019 -6.604441602514718 L106.80676253466979 -6.604335115634451 L106.8060066907207 -6.603024986122674 L106.8060066907207 -6.603024986122674 L106.80526848988147 -6.6017454380013305 L106.80504109974683 -6.601707539645557 L106.80498356010128 -6.601444501265869 L106.80469184832735 -6.601395882636883 L106.804548507125 -6.6014317179374675 L106.80437873218747 -6.601577239312489 L106.8042767894809 -6.601602724989137 L106.80212659453242 -6.602091405659242 L106.80204016230203 -6.602162324412389 L106.79989438971654 -6.60265 L106.79974999999999 -6.60265 L106.79974999999999 -6.60265 L106.79958819660112 -6.60265 L106.79926708203932 -6.6028105572809 L106.79904347524158 -6.6028105572808995 L106.79872964761039 -6.602967471096494 L106.79792646081405 -6.603419263669432 L106.79792646081405 -6.603419263669432 L106.79713509428646 -6.603864407341205 L106.79689429139856 -6.603960728496367 L106.79689429139856 -6.603960728496367 L106.79671755245585 -6.6040314240734554 L106.79648320502943 -6.603875192455848 L106.79648320502943 -6.603875192455848 L106.79622512367105 -6.60370313821693 L106.79505810055076 -6.600347946746094 L106.79507247332809 -6.600237071035177 L106.79391264181042 -6.59690255542187 L106.79430215349134 -6.595863857606075 L106.79427874526192 -6.595641479426402 L106.79468071779523 -6.594569552670889 L106.79595485642932 -6.593861697874171 L106.79601799001037 -6.593769425717247 L106.7973022522589 -6.593055946690285 L106.7978293098528 -6.593295518323872 L106.7978293098528 -6.593295518323872 L106.79840102537096 -6.593555389013955 L106.79962236067978 -6.59294472135955 L106.79962236067978 -6.59294472135955 L106.80080227783485 -6.592354762782013 L106.80123500663163 -6.592527854300727 L106.80130928476692 -6.592611417202905 L106.80175127477962 -6.592788213207987 L106.802250746026 -6.5931514650235465 L106.80230221104955 -6.5932507189975285 L106.80278822987526 -6.593604187234401 L106.8035228002544 -6.5947794998410005 L106.8035228002544 -6.5947794998410005 L106.80425668715405 -6.595953718880453 L106.80461238627993 -6.598176838417187 L106.80493824168848 -6.598631061107868 L106.80529901504559 -6.600885894589915 L106.8053120173673 -6.600989913163527 L106.80538643820805 -6.601585279889555 L106.80539672043 -6.601667537665038 L106.80613661855861 -6.602950027754651 L106.80613661855861 -6.602950027754651 L106.80683560847454 -6.604161610275607 L106.80889825806611 -6.602914426801641 L106.80889825806611 -6.602914426801641 L106.81360579432327 -6.600068009529868 L106.80915734623444 -6.603181923192051 L106.80915734623444 -6.603181923192051 L106.80724264362283 -6.604522215020177 L106.80797954317201 -6.6054893956784735 L106.80797954317201 -6.6054893956784735 L106.80877546681137 -6.606534045455127 L106.80926464466094 -6.607023223304704 L106.80958284271249 -6.6071292893218825 L106.80992107285849 -6.607467519467882 L106.81113881196023 -6.606524753711695 L106.81157753608187 -6.606438029176021 L106.81295350508918 -6.6053727628477805 L106.8133005454911 -6.603042634434845 L106.8133005454911 -6.603042634434845 L106.81364776401026 -6.6007113100919 L106.81310802149216 -6.599877162563907 L106.81310802149216 -6.599877162563907 L106.81257901074608 -6.5990135812819535 L106.8126 -6.599 L106.8126 -6.599 L106.81262098925393 -6.598986418718047 Z" stroke="#968417" stroke-width="0.0001" fill="none" />
    <ellipse 
      cx="106.8137" cy="-12.6007"
      rx="15" ry="15" transform="translate(106.8137 -6.6007) scale(0.00001 -0.00001) translate(-106.8137 6.6007) translate(106.7975 -6.592499999999999) rotate(0) translate(-106.7975 6.592499999999999)"
      fill="white" stroke="black" stroke-width="2"/>
    <text x="106.8137" y="-6.6007" fill="black" text-anchor="middle" transform="translate(106.8137 -6.6007) scale(0.00001 -0.00001) translate(-106.8137 6.6007) translate(106.7975 -6.592499999999999) rotate(0) translate(-106.7975 6.592499999999999)">06</text>
    <ellipse 
      cx="106.8172" cy="-12.5982"
      rx="15" ry="15" transform="translate(106.8172 -6.5982) scale(0.00001 -0.00001) translate(-106.8172 6.5982) translate(106.7975 -6.592499999999999) rotate(0) translate(-106.7975 6.592499999999999)"
      fill="white" stroke="black" stroke-width="2"/>
    <text x="106.8172" y="-6.5982" fill="black" text-anchor="middle" transform="translate(106.8172 -6.5982) scale(0.00001 -0.00001) translate(-106.8172 6.5982) translate(106.7975 -6.592499999999999) rotate(0) translate(-106.7975 6.592499999999999)">06</text>
    <ellipse 
      cx="106.813" cy="-12.6054"
      rx="15" ry="15" transform="translate(106.813 -6.6054) scale(0.00001 -0.00001) translate(-106.813 6.6054) translate(106.7975 -6.592499999999999) rotate(0) translate(-106.7975 6.592499999999999)"
      fill="white" stroke="black" stroke-width="2"/>
    <text x="106.813" y="-6.6054" fill="black" text-anchor="middle" transform="translate(106.813 -6.6054) scale(0.00001 -0.00001) translate(-106.813 6.6054) translate(106.7975 -6.592499999999999) rotate(0) translate(-106.7975 6.592499999999999)">06</text>
    <ellipse 
      cx="106.8099" cy="-12.607800000000001"
      rx="15" ry="15" transform="translate(106.8099 -6.6078) scale(0.00001 -0.00001) translate(-106.8099 6.6078) translate(106.7975 -6.592499999999999) rotate(0) translate(-106.7975 6.592499999999999)"
      fill="white" stroke="black" stroke-width="2"/>
    <text x="106.8099" y="-6.6078" fill="black" text-anchor="middle" transform="translate(106.8099 -6.6078) scale(0.00001 -0.00001) translate(-106.8099 6.6078) translate(106.7975 -6.592499999999999) rotate(0) translate(-106.7975 6.592499999999999)">06</text>
    <ellipse 
      cx="106.8105" cy="-12.608699999999999"
      rx="15" ry="15" transform="translate(106.8105 -6.6087) scale(0.00001 -0.00001) translate(-106.8105 6.6087) translate(106.7975 -6.592499999999999) rotate(0) translate(-106.7975 6.592499999999999)"
      fill="white" stroke="black" stroke-width="2"/>
    <text x="106.8105" y="-6.6087" fill="black" text-anchor="middle" transform="translate(106.8105 -6.6087) scale(0.00001 -0.00001) translate(-106.8105 6.6087) translate(106.7975 -6.592499999999999) rotate(0) translate(-106.7975 6.592499999999999)">06</text>
    <ellipse 
      cx="106.8087" cy="-12.6066"
      rx="15" ry="15" transform="translate(106.8087 -6.6066) scale(0.00001 -0.00001) translate(-106.8087 6.6066) translate(106.7975 -6.592499999999999) rotate(0) translate(-106.7975 6.592499999999999)"
      fill="white" stroke="black" stroke-width="2"/>
    <text x="106.8087" y="-6.6066" fill="black" text-anchor="middle" transform="translate(106.8087 -6.6066) scale(0.00001 -0.00001) translate(-106.8087 6.6066) translate(106.7975 -6.592499999999999) rotate(0) translate(-106.7975 6.592499999999999)">06</text>
    <ellipse 
      cx="106.8071" cy="-12.6045"
      rx="15" ry="15" transform="translate(106.8071 -6.6045) scale(0.00001 -0.00001) translate(-106.8071 6.6045) translate(106.7975 -6.592499999999999) rotate(0) translate(-106.7975 6.592499999999999)"
      fill="white" stroke="black" stroke-width="2"/>
    <text x="106.8071" y="-6.6045" fill="black" text-anchor="middle" transform="translate(106.8071 -6.6045) scale(0.00001 -0.00001) translate(-106.8071 6.6045) translate(106.7975 -6.592499999999999) rotate(0) translate(-106.7975 6.592499999999999)">06</text>
    <ellipse 
      cx="106.8068" cy="-12.6043"
      rx="15" ry="15" transform="translate(106.8068 -6.6043) scale(0.00001 -0.00001) translate(-106.8068 6.6043) translate(106.7975 -6.592499999999999) rotate(0) translate(-106.7975 6.592499999999999)"
      fill="white" stroke="black" stroke-width="2"/>
    <text x="106.8068" y="-6.6043" fill="black" text-anchor="middle" transform="translate(106.8068 -6.6043) scale(0.00001 -0.00001) translate(-106.8068 6.6043) translate(106.7975 -6.592499999999999) rotate(0) translate(-106.7975 6.592499999999999)">06</text>
    <ellipse 
      cx="106.8053" cy="-12.601700000000001"
      rx="15" ry="15" transform="translate(106.8053 -6.6017) scale(0.00001 -0.00001) translate(-106.8053 6.6017) translate(106.7975 -6.592499999999999) rotate(0) translate(-106.7975 6.592499999999999)"
      fill="white" stroke="black" stroke-width="2"/>
    <text x="106.8053" y="-6.6017" fill="black" text-anchor="middle" transform="translate(106.8053 -6.6017) scale(0.00001 -0.00001) translate(-106.8053 6.6017) translate(106.7975 -6.592499999999999) rotate(0) translate(-106.7975 6.592499999999999)">06</text>
    <ellipse 
      cx="106.8047" cy="-12.601600000000001"
      rx="15" ry="15" transform="translate(106.8047 -6.6016) scale(0.00001 -0.00001) translate(-106.8047 6.6016) translate(106.7975 -6.592499999999999) rotate(0) translate(-106.7975 6.592499999999999)"
      fill="white" stroke="black" stroke-width="2"/>
    <text x="106.8047" y="-6.6016" fill="black" text-anchor="middle" transform="translate(106.8047 -6.6016) scale(0.00001 -0.00001) translate(-106.8047 6.6016) translate(106.7975 -6.592499999999999) rotate(0) translate(-106.7975 6.592499999999999)">06</text>
    <ellipse 
      cx="106.8043" cy="-12.601700000000001"
      rx="15" ry="15" transform="translate(106.8043 -6.6017) scale(0.00001 -0.00001) translate(-106.8043 6.6017) translate(106.7975 -6.592499999999999) rotate(0) translate(-106.7975 6.592499999999999)"
      fill="white" stroke="black" stroke-width="2"/>
    <text x="106.8043" y="-6.6017" fill="black" text-anchor="middle" transform="translate(106.8043 -6.6017) scale(0.00001 -0.00001) translate(-106.8043 6.6017) translate(106.7975 -6.592499999999999) rotate(0) translate(-106.7975 6.592499999999999)">06</text>
    <ellipse 
      cx="106.7999" cy="-12.602699999999999"
      rx="15" ry="15" transform="translate(106.7999 -6.6027) scale(0.00001 -0.00001) translate(-106.7999 6.6027) translate(106.7975 -6.592499999999999) rotate(0) translate(-106.7975 6.592499999999999)"
      fill="white" stroke="black" stroke-width="2"/>
    <text x="106.7999" y="-6.6027" fill="black" text-anchor="middle" transform="translate(106.7999 -6.6027) scale(0.00001 -0.00001) translate(-106.7999 6.6027) translate(106.7975 -6.592499999999999) rotate(0) translate(-106.7975 6.592499999999999)">06</text>
    <ellipse 
      cx="106.7996" cy="-12.602699999999999"
      rx="15" ry="15" transform="translate(106.7996 -6.6027) scale(0.00001 -0.00001) translate(-106.7996 6.6027) translate(106.7975 -6.592499999999999) rotate(0) translate(-106.7975 6.592499999999999)"
      fill="white" stroke="black" stroke-width="2"/>
    <text x="106.7996" y="-6.6027" fill="black" text-anchor="middle" transform="translate(106.7996 -6.6027) scale(0.00001 -0.00001) translate(-106.7996 6.6027) translate(106.7975 -6.592499999999999) rotate(0) translate(-106.7975 6.592499999999999)">06</text>
    <ellipse 
      cx="106.7988" cy="-12.603100000000001"
      rx="15" ry="15" transform="translate(106.7988 -6.6031) scale(0.00001 -0.00001) translate(-106.7988 6.6031) translate(106.7975 -6.592499999999999) rotate(0) translate(-106.7975 6.592499999999999)"
      fill="white" stroke="black" stroke-width="2"/>
    <text x="106.7988" y="-6.6031" fill="black" text-anchor="middle" transform="translate(106.7988 -6.6031) scale(0.00001 -0.00001) translate(-106.7988 6.6031) translate(106.7975 -6.592499999999999) rotate(0) translate(-106.7975 6.592499999999999)">06</text>
    <ellipse 
      cx="106.7972" cy="-12.604"
      rx="15" ry="15" transform="translate(106.7972 -6.604) scale(0.00001 -0.00001) translate(-106.7972 6.604) translate(106.7975 -6.592499999999999) rotate(0) translate(-106.7975 6.592499999999999)"
      fill="white" stroke="black" stroke-width="2"/>
    <text x="106.7972" y="-6.604" fill="black" text-anchor="middle" transform="translate(106.7972 -6.604) scale(0.00001 -0.00001) translate(-106.7972 6.604) translate(106.7975 -6.592499999999999) rotate(0) translate(-106.7975 6.592499999999999)">06</text>
    <ellipse 
      cx="106.7967" cy="-12.604199999999999"
      rx="15" ry="15" transform="translate(106.7967 -6.6042) scale(0.00001 -0.00001) translate(-106.7967 6.6042) translate(106.7975 -6.592499999999999) rotate(0) translate(-106.7975 6.592499999999999)"
      fill="white" stroke="black" stroke-width="2"/>
    <text x="106.7967" y="-6.6042" fill="black" text-anchor="middle" transform="translate(106.7967 -6.6042) scale(0.00001 -0.00001) translate(-106.7967 6.6042) translate(106.7975 -6.592499999999999) rotate(0) translate(-106.7975 6.592499999999999)">06</text>
    <ellipse 
      cx="106.7961" cy="-12.6038"
      rx="15" ry="15" transform="translate(106.7961 -6.6038) scale(0.00001 -0.00001) translate(-106.7961 6.6038) translate(106.7975 -6.592499999999999) rotate(0) translate(-106.7975 6.592499999999999)"
      fill="white" stroke="black" stroke-width="2"/>
    <text x="106.7961" y="-6.6038" fill="black" text-anchor="middle" transform="translate(106.7961 -6.6038) scale(0.00001 -0.00001) translate(-106.7961 6.6038) translate(106.7975 -6.592499999999999) rotate(0) translate(-106.7975 6.592499999999999)">06</text>
    <ellipse 
      cx="106.7937" cy="-12.5969"
      rx="15" ry="15" transform="translate(106.7937 -6.5969) scale(0.00001 -0.00001) translate(-106.7937 6.5969) translate(106.7975 -6.592499999999999) rotate(0) translate(-106.7975 6.592499999999999)"
      fill="white" stroke="black" stroke-width="2"/>
    <text x="106.7937" y="-6.5969" fill="black" text-anchor="middle" transform="translate(106.7937 -6.5969) scale(0.00001 -0.00001) translate(-106.7937 6.5969) translate(106.7975 -6.592499999999999) rotate(0) translate(-106.7975 6.592499999999999)">06</text>
    <ellipse 
      cx="106.7946" cy="-12.5945"
      rx="15" ry="15" transform="translate(106.7946 -6.5945) scale(0.00001 -0.00001) translate(-106.7946 6.5945) translate(106.7975 -6.592499999999999) rotate(0) translate(-106.7975 6.592499999999999)"
      fill="white" stroke="black" stroke-width="2"/>
    <text x="106.7946" y="-6.5945" fill="black" text-anchor="middle" transform="translate(106.7946 -6.5945) scale(0.00001 -0.00001) translate(-106.7946 6.5945) translate(106.7975 -6.592499999999999) rotate(0) translate(-106.7975 6.592499999999999)">06</text>
    <ellipse 
      cx="106.7973" cy="-12.593"
      rx="15" ry="15" transform="translate(106.7973 -6.593) scale(0.00001 -0.00001) translate(-106.7973 6.593) translate(106.7975 -6.592499999999999) rotate(0) translate(-106.7975 6.592499999999999)"
      fill="white" stroke="black" stroke-width="2"/>
    <text x="106.7973" y="-6.593" fill="black" text-anchor="middle" transform="translate(106.7973 -6.593) scale(0.00001 -0.00001) translate(-106.7973 6.593) translate(106.7975 -6.592499999999999) rotate(0) translate(-106.7975 6.592499999999999)">06</text>
    <ellipse 
      cx="106.7984" cy="-12.593499999999999"
      rx="15" ry="15" transform="translate(106.7984 -6.5935) scale(0.00001 -0.00001) translate(-106.7984 6.5935) translate(106.7975 -6.592499999999999) rotate(0) translate(-106.7975 6.592499999999999)"
      fill="white" stroke="black" stroke-width="2"/>
    <text x="106.7984" y="-6.5935" fill="black" text-anchor="middle" transform="translate(106.7984 -6.5935) scale(0.00001 -0.00001) translate(-106.7984 6.5935) translate(106.7975 -6.592499999999999) rotate(0) translate(-106.7975 6.592499999999999)">06</text>
    <ellipse 
      cx="106.8008" cy="-12.5923"
      rx="15" ry="15" transform="translate(106.8008 -6.5923) scale(0.00001 -0.00001) translate(-106.8008 6.5923) translate(106.7975 -6.592499999999999) rotate(0) translate(-106.7975 6.592499999999999)"
      fill="white" stroke="black" stroke-width="2"/>
    <text x="106.8008" y="-6.5923" fill="black" text-anchor="middle" transform="translate(106.8008 -6.5923) scale(0.00001 -0.00001) translate(-106.8008 6.5923) translate(106.7975 -6.592499999999999) rotate(0) translate(-106.7975 6.592499999999999)">06</text>
    <ellipse 
      cx="106.8018" cy="-12.5927"
      rx="15" ry="15" transform="translate(106.8018 -6.5927) scale(0.00001 -0.00001) translate(-106.8018 6.5927) translate(106.7975 -6.592499999999999) rotate(0) translate(-106.7975 6.592499999999999)"
      fill="white" stroke="black" stroke-width="2"/>
    <text x="106.8018" y="-6.5927" fill="black" text-anchor="middle" transform="translate(106.8018 -6.5927) scale(0.00001 -0.00001) translate(-106.8018 6.5927) translate(106.7975 -6.592499999999999) rotate(0) translate(-106.7975 6.592499999999999)">06</text>
    <ellipse 
      cx="106.8029" cy="-12.593499999999999"
      rx="15" ry="15" transform="translate(106.8029 -6.5935) scale(0.00001 -0.00001) translate(-106.8029 6.5935) translate(106.7975 -6.592499999999999) rotate(0) translate(-106.7975 6.592499999999999)"
      fill="white" stroke="black" stroke-width="2"/>
    <text x="106.8029" y="-6.5935" fill="black" text-anchor="middle" transform="translate(106.8029 -6.5935) scale(0.00001 -0.00001) translate(-106.8029 6.5935) translate(106.7975 -6.592499999999999) rotate(0) translate(-106.7975 6.592499999999999)">06</text>
    <ellipse 
      cx="106.8044" cy="-12.5959"
      rx="15" ry="15" transform="translate(106.8044 -6.5959) scale(0.00001 -0.00001) translate(-106.8044 6.5959) translate(106.7975 -6.592499999999999) rotate(0) translate(-106.7975 6.592499999999999)"
      fill="white" stroke="black" stroke-width="2"/>
    <text x="106.8044" y="-6.5959" fill="black" text-anchor="middle" transform="translate(106.8044 -6.5959) scale(0.00001 -0.00001) translate(-106.8044 6.5959) translate(106.7975 -6.592499999999999) rotate(0) translate(-106.7975 6.592499999999999)">06</text>
    <ellipse 
      cx="106.8052" cy="-12.6009"
      rx="15" ry="15" transform="translate(106.8052 -6.6009) scale(0.00001 -0.00001) translate(-106.8052 6.6009) translate(106.7975 -6.592499999999999) rotate(0) translate(-106.7975 6.592499999999999)"
      fill="white" stroke="black" stroke-width="2"/>
    <text x="106.8052" y="-6.6009" fill="black" text-anchor="middle" transform="translate(106.8052 -6.6009) scale(0.00001 -0.00001) translate(-106.8052 6.6009) translate(106.7975 -6.592499999999999) rotate(0) translate(-106.7975 6.592499999999999)">06</text>
    <ellipse 
      cx="106.8111" cy="-12.601700000000001"
      rx="15" ry="15" transform="translate(106.8111 -6.6017) scale(0.00001 -0.00001) translate(-106.8111 6.6017) translate(106.7975 -6.592499999999999) rotate(0) translate(-106.7975 6.592499999999999)"
      fill="white" stroke="black" stroke-width="2"/>
    <text x="106.8111" y="-6.6017" fill="black" text-anchor="middle" transform="translate(106.8111 -6.6017) scale(0.00001 -0.00001) translate(-106.8111 6.6017) translate(106.7975 -6.592499999999999) rotate(0) translate(-106.7975 6.592499999999999)">06</text>
    <ellipse 
      cx="106.8126" cy="-12.599"
      rx="15" ry="15" transform="translate(106.8126 -6.599) scale(0.00001 -0.00001) translate(-106.8126 6.599) translate(106.7975 -6.592499999999999) rotate(0) translate(-106.7975 6.592499999999999)"
      fill="white" stroke="black" stroke-width="2"/>
    <text x="106.8126" y="-6.599" fill="black" text-anchor="middle" transform="translate(106.8126 -6.599) scale(0.00001 -0.00001) translate(-106.8126 6.599) translate(106.7975 -6.592499999999999) rotate(0) translate(-106.7975 6.592499999999999)">06</text>
    <line x1="106.81264197850786" y1="-6.598972837436093" x2="106.81319197850786" y2="-6.5998228374360925" style="stroke:rgb(255,0,0);stroke-width:.00002" />
    <line x1="106.81319197850786" y1="-6.5998228374360925" x2="106.81374197850785" y2="-6.600672837436092" style="stroke:rgb(0,0,255);stroke-width:.00002" />
    <circle cx="106.8126" cy="-6.599" fill="rgb(255,0,0)" r=".0001" />
    <text x="106.8126" y="-6.599" stroke="rgb(0,0,0)" transform="translate(106.8126 -6.599),scale(0.00001 -0.00001),translate(-106.8126 6.599),translate(106.7975 -6.592499999999999),rotate(0),translate(-106.7975 6.592499999999999)" >ciheuleut-tegallega</text>
    <line x1="106.81367093809031" y1="-6.60065931332644" x2="106.81538025141676" y2="-6.599438375236126" style="stroke:rgb(255,0,0);stroke-width:.00002" />
    <line x1="106.81543256285418" y1="-6.599339564743193" x2="106.81714187618063" y2="-6.598118626652879" style="stroke:rgb(0,0,255);stroke-width:.00002" />
    <circle cx="106.8137" cy="-6.6007" fill="rgb(255,0,0)" r=".0001" />
    <text x="106.8137" y="-6.6007" stroke="rgb(0,0,0)" transform="translate(106.8137 -6.6007),scale(0.00001 -0.00001),translate(-106.8137 6.6007),translate(106.7975 -6.592499999999999),rotate(0),translate(-106.7975 6.592499999999999)" >ciheuleut-binamarga</text>
    <line x1="106.81725812381937" y1="-6.598281373347121" x2="106.81550812381937" y2="-6.599531373347121" style="stroke:rgb(255,0,0);stroke-width:.00002" />
    <line x1="106.81550812381937" y1="-6.599531373347121" x2="106.81375812381937" y2="-6.600781373347121" style="stroke:rgb(0,0,255);stroke-width:.00002" />
    <circle cx="106.8172" cy="-6.5982" fill="rgb(255,0,0)" r=".0001" />
    <text x="106.8172" y="-6.5982" stroke="rgb(0,0,0)" transform="translate(106.8172 -6.5982),scale(0.00001 -0.00001),translate(-106.8172 6.5982),translate(106.7975 -6.592499999999999),rotate(0),translate(-106.7975 6.592499999999999)" >padi-jagung</text>
    <line x1="106.81379890901779" y1="-6.600714731130308" x2="106.81345627458295" y2="-6.603015276621414" style="stroke:rgb(255,0,0);stroke-width:.00002" />
    <line x1="106.81339208894374" y1="-6.603106820074048" x2="106.8130494545089" y2="-6.605407365565155" style="stroke:rgb(0,0,255);stroke-width:.00002" />
    <circle cx="106.8137" cy="-6.6007" fill="rgb(255,0,0)" r=".0001" />
    <text x="106.8137" y="-6.6007" stroke="rgb(0,0,0)" transform="translate(106.8137 -6.6007),scale(0.00001 -0.00001),translate(-106.8137 6.6007),translate(106.7975 -6.592499999999999),rotate(0),translate(-106.7975 6.592499999999999)" >ciheuleut-binamarga</text>
    <line x1="106.81303060865966" y1="-6.605439536185381" x2="106.81148060865966" y2="-6.606639536185381" style="stroke:rgb(255,0,0);stroke-width:.00002" />
    <line x1="106.81148060865966" y1="-6.606639536185381" x2="106.80993060865966" y2="-6.607839536185381" style="stroke:rgb(0,0,255);stroke-width:.00002" />
    <circle cx="106.813" cy="-6.6054" fill="rgb(255,0,0)" r=".0001" />
    <text x="106.813" y="-6.6054" stroke="rgb(0,0,0)" transform="translate(106.813 -6.6054),scale(0.00001 -0.00001),translate(-106.813 6.6054),translate(106.7975 -6.592499999999999),rotate(0),translate(-106.7975 6.592499999999999)" >ciheuleut-pakuanindah</text>
    <line x1="106.80994160251471" y1="-6.607772264990189" x2="106.81021386750491" y2="-6.608180662475472" style="stroke:rgb(255,0,0);stroke-width:.00002" />
    <line x1="106.81031094003926" y1="-6.608236132495094" x2="106.81058320502945" y2="-6.608644529980377" style="stroke:rgb(0,0,255);stroke-width:.00002" />
    <circle cx="106.8099" cy="-6.6078" fill="rgb(255,0,0)" r=".0001" />
    <text x="106.8099" y="-6.6078" stroke="rgb(0,0,0)" transform="translate(106.8099 -6.6078),scale(0.00001 -0.00001),translate(-106.8099 6.6078),translate(106.7975 -6.592499999999999),rotate(0),translate(-106.7975 6.592499999999999)" >pajajaran-ciheuleut</text>
    <line x1="106.81041679497056" y1="-6.608755470019623" x2="106.81011679497057" y2="-6.608305470019623" style="stroke:rgb(255,0,0);stroke-width:.00002" />
    <line x1="106.81011679497057" y1="-6.608305470019623" x2="106.80981679497056" y2="-6.607855470019623" style="stroke:rgb(0,0,255);stroke-width:.00002" />
    <circle cx="106.8105" cy="-6.6087" fill="rgb(255,0,0)" r=".0001" />
    <text x="106.8105" y="-6.6087" stroke="rgb(0,0,0)" transform="translate(106.8105 -6.6087),scale(0.00001 -0.00001),translate(-106.8105 6.6087),translate(106.7975 -6.592499999999999),rotate(0),translate(-106.7975 6.592499999999999)" >pajajaran-michelle-bakery</text>
    <line x1="106.80982928932188" y1="-6.607870710678118" x2="106.80926464466096" y2="-6.607306066017178" style="stroke:rgb(255,0,0);stroke-width:.00002" />
    <line x1="106.80922928932188" y1="-6.607200000000001" x2="106.80866464466094" y2="-6.606635355339059" style="stroke:rgb(0,0,255);stroke-width:.00002" />
    <circle cx="106.8099" cy="-6.6078" fill="rgb(255,0,0)" r=".0001" />
    <text x="106.8099" y="-6.6078" stroke="rgb(0,0,0)" transform="translate(106.8099 -6.6078),scale(0.00001 -0.00001),translate(-106.8099 6.6078),translate(106.7975 -6.592499999999999),rotate(0),translate(-106.7975 6.592499999999999)" >pajajaran-ciheuleut</text>
    <line x1="106.808660228414" y1="-6.606630302160763" x2="106.807860228414" y2="-6.605580302160763" style="stroke:rgb(255,0,0);stroke-width:.00002" />
    <line x1="106.807860228414" y1="-6.605580302160763" x2="106.807060228414" y2="-6.604530302160763" style="stroke:rgb(0,0,255);stroke-width:.00002" />
    <circle cx="106.8087" cy="-6.6066" fill="rgb(255,0,0)" r=".0001" />
    <text x="106.8087" y="-6.6066" stroke="rgb(0,0,0)" transform="translate(106.8087 -6.6066),scale(0.00001 -0.00001),translate(-106.8087 6.6066),translate(106.7975 -6.592499999999999),rotate(0),translate(-106.7975 6.592499999999999)" >bangka-1</text>
    <line x1="106.8070722649902" y1="-6.6045416025147174" x2="106.80692226499019" y2="-6.604441602514718" style="stroke:rgb(255,0,0);stroke-width:.00002" />
    <line x1="106.80692226499019" y1="-6.604441602514718" x2="106.80677226499019" y2="-6.604341602514718" style="stroke:rgb(0,0,255);stroke-width:.00002" />
    <circle cx="106.8071" cy="-6.6045" fill="rgb(255,0,0)" r=".0001" />
    <text x="106.8071" y="-6.6045" stroke="rgb(0,0,0)" transform="translate(106.8071 -6.6045),scale(0.00001 -0.00001),translate(-106.8071 6.6045),translate(106.7975 -6.592499999999999),rotate(0),translate(-106.7975 6.592499999999999)" >tol-3</text>
    <line x1="106.80675669072069" y1="-6.604324986122674" x2="106.8060066907207" y2="-6.603024986122674" style="stroke:rgb(255,0,0);stroke-width:.00002" />
    <line x1="106.8060066907207" y1="-6.603024986122674" x2="106.8052566907207" y2="-6.601724986122674" style="stroke:rgb(0,0,255);stroke-width:.00002" />
    <circle cx="106.8068" cy="-6.6043" fill="rgb(255,0,0)" r=".0001" />
    <text x="106.8068" y="-6.6043" stroke="rgb(0,0,0)" transform="translate(106.8068 -6.6043),scale(0.00001 -0.00001),translate(-106.8068 6.6043),translate(106.7975 -6.592499999999999),rotate(0),translate(-106.7975 6.592499999999999)" >tol-1</text>
    <line x1="106.80529178005064" y1="-6.601749319696192" x2="106.80504109974683" y2="-6.601707539645557" style="stroke:rgb(255,0,0);stroke-width:.00002" />
    <line x1="106.80498356010128" y1="-6.601444501265869" x2="106.80473287979746" y2="-6.6014027212152335" style="stroke:rgb(0,0,255);stroke-width:.00002" />
    <circle cx="106.8053" cy="-6.6017" fill="rgb(255,0,0)" r=".0001" />
    <text x="106.8053" y="-6.6017" stroke="rgb(0,0,0)" transform="translate(106.8053 -6.6017),scale(0.00001 -0.00001),translate(-106.8053 6.6017),translate(106.7975 -6.592499999999999),rotate(0),translate(-106.7975 6.592499999999999)" >pajajaran-otista</text>
    <line x1="106.804651492875" y1="-6.601405971499971" x2="106.804548507125" y2="-6.6014317179374675" style="stroke:rgb(255,0,0);stroke-width:.00002" />
    <line x1="106.80437873218747" y1="-6.601577239312489" x2="106.8042757464375" y2="-6.601602985749985" style="stroke:rgb(0,0,255);stroke-width:.00002" />
    <circle cx="106.8047" cy="-6.6016" fill="rgb(255,0,0)" r=".0001" />
    <text x="106.8047" y="-6.6016" stroke="rgb(0,0,0)" transform="translate(106.8047 -6.6016),scale(0.00001 -0.00001),translate(-106.8047 6.6016),translate(106.7975 -6.592499999999999),rotate(0),translate(-106.7975 6.592499999999999)" >kb-botani-2</text>
    <line x1="106.80427783788964" y1="-6.601602486714421" x2="106.80212659453242" y2="-6.602091405659242" style="stroke:rgb(255,0,0);stroke-width:.00002" />
    <line x1="106.80204016230203" y1="-6.602162324412389" x2="106.79988891894482" y2="-6.60265124335721" style="stroke:rgb(0,0,255);stroke-width:.00002" />
    <circle cx="106.8043" cy="-6.6017" fill="rgb(255,0,0)" r=".0001" />
    <text x="106.8043" y="-6.6017" stroke="rgb(0,0,0)" transform="translate(106.8043 -6.6017),scale(0.00001 -0.00001),translate(-106.8043 6.6017),translate(106.7975 -6.592499999999999),rotate(0),translate(-106.7975 6.592499999999999)" >bangka-otista</text>
    <line x1="106.7999" y1="-6.60265" x2="106.79974999999999" y2="-6.60265" style="stroke:rgb(255,0,0);stroke-width:.00002" />
    <line x1="106.79974999999999" y1="-6.60265" x2="106.7996" y2="-6.60265" style="stroke:rgb(0,0,255);stroke-width:.00002" />
    <circle cx="106.7999" cy="-6.6027" fill="rgb(255,0,0)" r=".0001" />
    <text x="106.7999" y="-6.6027" stroke="rgb(0,0,0)" transform="translate(106.7999 -6.6027),scale(0.00001 -0.00001),translate(-106.7999 6.6027),translate(106.7975 -6.592499999999999),rotate(0),translate(-106.7975 6.592499999999999)" >otista-roda</text>
    <line x1="106.79957763932022" y1="-6.60265527864045" x2="106.79926708203932" y2="-6.6028105572809" style="stroke:rgb(255,0,0);stroke-width:.00002" />
    <line x1="106.79904347524158" y1="-6.6028105572808995" x2="106.79873291796068" y2="-6.60296583592135" style="stroke:rgb(0,0,255);stroke-width:.00002" />
    <circle cx="106.7996" cy="-6.6027" fill="rgb(255,0,0)" r=".0001" />
    <text x="106.7996" y="-6.6027" stroke="rgb(0,0,0)" transform="translate(106.7996 -6.6027),scale(0.00001 -0.00001),translate(-106.7996 6.6027),translate(106.7975 -6.592499999999999),rotate(0),translate(-106.7975 6.592499999999999)" >kb-otista</text>
    <line x1="106.79872646081405" y1="-6.602969263669432" x2="106.79792646081405" y2="-6.603419263669432" style="stroke:rgb(255,0,0);stroke-width:.00002" />
    <line x1="106.79792646081405" y1="-6.603419263669432" x2="106.79712646081406" y2="-6.603869263669432" style="stroke:rgb(0,0,255);stroke-width:.00002" />
    <circle cx="106.7988" cy="-6.6031" fill="rgb(255,0,0)" r=".0001" />
    <text x="106.7988" y="-6.6031" stroke="rgb(0,0,0)" transform="translate(106.7988 -6.6031),scale(0.00001 -0.00001),translate(-106.7988 6.6031),translate(106.7975 -6.592499999999999),rotate(0),translate(-106.7975 6.592499999999999)" >kb-suryakencana</text>
    <line x1="106.79714429139855" y1="-6.603860728496367" x2="106.79689429139856" y2="-6.603960728496367" style="stroke:rgb(255,0,0);stroke-width:.00002" />
    <line x1="106.79689429139856" y1="-6.603960728496367" x2="106.79664429139855" y2="-6.604060728496367" style="stroke:rgb(0,0,255);stroke-width:.00002" />
    <circle cx="106.7972" cy="-6.604" fill="rgb(255,0,0)" r=".0001" />
    <text x="106.7972" y="-6.604" stroke="rgb(0,0,0)" transform="translate(106.7972 -6.604),scale(0.00001 -0.00001),translate(-106.7972 6.604),translate(106.7975 -6.592499999999999),rotate(0),translate(-106.7975 6.592499999999999)" >cincau-kb</text>
    <line x1="106.79678320502943" y1="-6.6040751924558485" x2="106.79648320502943" y2="-6.603875192455848" style="stroke:rgb(255,0,0);stroke-width:.00002" />
    <line x1="106.79648320502943" y1="-6.603875192455848" x2="106.79618320502942" y2="-6.6036751924558486" style="stroke:rgb(0,0,255);stroke-width:.00002" />
    <circle cx="106.7967" cy="-6.6042" fill="rgb(255,0,0)" r=".0001" />
    <text x="106.7967" y="-6.6042" stroke="rgb(0,0,0)" transform="translate(106.7967 -6.6042),scale(0.00001 -0.00001),translate(-106.7967 6.6042),translate(106.7975 -6.592499999999999),rotate(0),translate(-106.7975 6.592499999999999)" >kb-btm-1</text>
    <line x1="106.79624167451951" y1="-6.603750721906259" x2="106.79505810055076" y2="-6.600347946746094" style="stroke:rgb(255,0,0);stroke-width:.00002" />
    <line x1="106.79507247332809" y1="-6.600237071035177" x2="106.79388889935935" y2="-6.596834295875012" style="stroke:rgb(0,0,255);stroke-width:.00002" />
    <circle cx="106.7961" cy="-6.6038" fill="rgb(255,0,0)" r=".0001" />
    <text x="106.7961" y="-6.6038" stroke="rgb(0,0,0)" transform="translate(106.7961 -6.6038),scale(0.00001 -0.00001),translate(-106.7961 6.6038),translate(106.7975 -6.592499999999999),rotate(0),translate(-106.7975 6.592499999999999)" >kb-btm-2</text>
    <line x1="106.79388726583551" y1="-6.5969702246883175" x2="106.79430215349134" y2="-6.595863857606075" style="stroke:rgb(255,0,0);stroke-width:.00002" />
    <line x1="106.79427874526192" y1="-6.595641479426402" x2="106.79469363291776" y2="-6.594535112344159" style="stroke:rgb(0,0,255);stroke-width:.00002" />
    <circle cx="106.7937" cy="-6.5969" fill="rgb(255,0,0)" r=".0001" />
    <text x="106.7937" y="-6.5969" stroke="rgb(0,0,0)" transform="translate(106.7937 -6.5969),scale(0.00001 -0.00001),translate(-106.7937 6.5969),translate(106.7975 -6.592499999999999),rotate(0),translate(-106.7975 6.592499999999999)" >kb-muslihat</text>
    <line x1="106.79464856429313" y1="-6.594587415727612" x2="106.79595485642932" y2="-6.593861697874171" style="stroke:rgb(255,0,0);stroke-width:.00002" />
    <line x1="106.79601799001037" y1="-6.593769425717247" x2="106.79732428214656" y2="-6.5930437078638064" style="stroke:rgb(0,0,255);stroke-width:.00002" />
    <circle cx="106.7946" cy="-6.5945" fill="rgb(255,0,0)" r=".0001" />
    <text x="106.7946" y="-6.5945" stroke="rgb(0,0,0)" transform="translate(106.7946 -6.5945),scale(0.00001 -0.00001),translate(-106.7946 6.5945),translate(106.7975 -6.592499999999999),rotate(0),translate(-106.7975 6.592499999999999)" >kb-gedong-sawah</text>
    <line x1="106.7972793098528" y1="-6.593045518323873" x2="106.7978293098528" y2="-6.593295518323872" style="stroke:rgb(255,0,0);stroke-width:.00002" />
    <line x1="106.7978293098528" y1="-6.593295518323872" x2="106.79837930985279" y2="-6.5935455183238725" style="stroke:rgb(0,0,255);stroke-width:.00002" />
    <circle cx="106.7973" cy="-6.593" fill="rgb(255,0,0)" r=".0001" />
    <text x="106.7973" y="-6.593" stroke="rgb(0,0,0)" transform="translate(106.7973 -6.593),scale(0.00001 -0.00001),translate(-106.7973 6.593),translate(106.7975 -6.592499999999999),rotate(0),translate(-106.7975 6.592499999999999)" >kb-polisi-militer</text>
    <line x1="106.79842236067978" y1="-6.5935447213595495" x2="106.79962236067978" y2="-6.59294472135955" style="stroke:rgb(255,0,0);stroke-width:.00002" />
    <line x1="106.79962236067978" y1="-6.59294472135955" x2="106.80082236067977" y2="-6.59234472135955" style="stroke:rgb(0,0,255);stroke-width:.00002" />
    <circle cx="106.7984" cy="-6.5935" fill="rgb(255,0,0)" r=".0001" />
    <text x="106.7984" y="-6.5935" stroke="rgb(0,0,0)" transform="translate(106.7984 -6.5935),scale(0.00001 -0.00001),translate(-106.7984 6.5935),translate(106.7975 -6.592499999999999),rotate(0),translate(-106.7975 6.592499999999999)" >kb-jalak-harupat</text>
    <line x1="106.80078143046617" y1="-6.592346423834544" x2="106.80123500663163" y2="-6.592527854300727" style="stroke:rgb(255,0,0);stroke-width:.00002" />
    <line x1="106.80130928476692" y1="-6.592611417202905" x2="106.80176286093237" y2="-6.592792847669088" style="stroke:rgb(0,0,255);stroke-width:.00002" />
    <circle cx="106.8008" cy="-6.5923" fill="rgb(255,0,0)" r=".0001" />
    <text x="106.8008" y="-6.5923" stroke="rgb(0,0,0)" transform="translate(106.8008 -6.5923),scale(0.00001 -0.00001),translate(-106.8008 6.5923),translate(106.7975 -6.592499999999999),rotate(0),translate(-106.7975 6.592499999999999)" >kb-sempur</text>
    <line x1="106.80174118283023" y1="-6.59278087360843" x2="106.802250746026" y2="-6.5931514650235465" style="stroke:rgb(255,0,0);stroke-width:.00002" />
    <line x1="106.80230221104955" y1="-6.5932507189975285" x2="106.80281177424534" y2="-6.593621310412645" style="stroke:rgb(0,0,255);stroke-width:.00002" />
    <circle cx="106.8018" cy="-6.5927" fill="rgb(255,0,0)" r=".0001" />
    <text x="106.8018" y="-6.5927" stroke="rgb(0,0,0)" transform="translate(106.8018 -6.5927),scale(0.00001 -0.00001),translate(-106.8018 6.5927),translate(106.7975 -6.592499999999999),rotate(0),translate(-106.7975 6.592499999999999)" >kb-salak</text>
    <line x1="106.80277280025439" y1="-6.593579499841001" x2="106.8035228002544" y2="-6.5947794998410005" style="stroke:rgb(255,0,0);stroke-width:.00002" />
    <line x1="106.8035228002544" y1="-6.5947794998410005" x2="106.8042728002544" y2="-6.595979499841001" style="stroke:rgb(0,0,255);stroke-width:.00002" />
    <circle cx="106.8029" cy="-6.5935" fill="rgb(255,0,0)" r=".0001" />
    <text x="106.8029" y="-6.5935" stroke="rgb(0,0,0)" transform="translate(106.8029 -6.5935),scale(0.00001 -0.00001),translate(-106.8029 6.5935),translate(106.7975 -6.592499999999999),rotate(0),translate(-106.7975 6.592499999999999)" >kb-pangrango</text>
    <line x1="106.80425188390521" y1="-6.595923698575167" x2="106.80461238627993" y2="-6.598176838417187" style="stroke:rgb(255,0,0);stroke-width:.00002" />
    <line x1="106.80493824168848" y1="-6.598631061107868" x2="106.8052987440632" y2="-6.600884200949889" style="stroke:rgb(0,0,255);stroke-width:.00002" />
    <circle cx="106.8044" cy="-6.5959" fill="rgb(255,0,0)" r=".0001" />
    <text x="106.8044" y="-6.5959" stroke="rgb(0,0,0)" transform="translate(106.8044 -6.5959),scale(0.00001 -0.00001),translate(-106.8044 6.5959),translate(106.7975 -6.592499999999999),rotate(0),translate(-106.7975 6.592499999999999)" >kb-astrid</text>
    <line x1="106.80529922778767" y1="-6.600887596526541" x2="106.8053120173673" y2="-6.600989913163527" style="stroke:rgb(255,0,0);stroke-width:.00002" />
    <line x1="106.80538643820805" y1="-6.601585279889555" x2="106.80539922778767" y2="-6.601687596526541" style="stroke:rgb(0,0,255);stroke-width:.00002" />
    <circle cx="106.8052" cy="-6.6009" fill="rgb(255,0,0)" r=".0001" />
    <text x="106.8052" y="-6.6009" stroke="rgb(0,0,0)" transform="translate(106.8052 -6.6009),scale(0.00001 -0.00001),translate(-106.8052 6.6009),translate(106.7975 -6.592499999999999),rotate(0),translate(-106.7975 6.592499999999999)" >kb-botani-1</text>
    <line x1="106.80538661855861" y1="-6.601650027754651" x2="106.80613661855861" y2="-6.602950027754651" style="stroke:rgb(255,0,0);stroke-width:.00002" />
    <line x1="106.80613661855861" y1="-6.602950027754651" x2="106.80688661855861" y2="-6.604250027754651" style="stroke:rgb(0,0,255);stroke-width:.00002" />
    <circle cx="106.8053" cy="-6.6017" fill="rgb(255,0,0)" r=".0001" />
    <text x="106.8053" y="-6.6017" stroke="rgb(0,0,0)" transform="translate(106.8053 -6.6017),scale(0.00001 -0.00001),translate(-106.8053 6.6017),translate(106.7975 -6.592499999999999),rotate(0),translate(-106.7975 6.592499999999999)" >pajajaran-otista</text>
    <line x1="106.80674825806611" y1="-6.604214426801642" x2="106.80889825806611" y2="-6.602914426801641" style="stroke:rgb(255,0,0);stroke-width:.00002" />
    <line x1="106.80889825806611" y1="-6.602914426801641" x2="106.81104825806611" y2="-6.601614426801642" style="stroke:rgb(0,0,255);stroke-width:.00002" />
    <circle cx="106.8068" cy="-6.6043" fill="rgb(255,0,0)" r=".0001" />
    <text x="106.8068" y="-6.6043" stroke="rgb(0,0,0)" transform="translate(106.8068 -6.6043),scale(0.00001 -0.00001),translate(-106.8068 6.6043),translate(106.7975 -6.592499999999999),rotate(0),translate(-106.7975 6.592499999999999)" >tol-1</text>
    <line x1="106.81115734623444" y1="-6.601781923192052" x2="106.80915734623444" y2="-6.603181923192051" style="stroke:rgb(255,0,0);stroke-width:.00002" />
    <line x1="106.80915734623444" y1="-6.603181923192051" x2="106.80715734623445" y2="-6.604581923192051" style="stroke:rgb(0,0,255);stroke-width:.00002" />
    <circle cx="106.8111" cy="-6.6017" fill="rgb(255,0,0)" r=".0001" />
    <text x="106.8111" y="-6.6017" stroke="rgb(0,0,0)" transform="translate(106.8111 -6.6017),scale(0.00001 -0.00001),translate(-106.8111 6.6017),translate(106.7975 -6.592499999999999),rotate(0),translate(-106.7975 6.592499999999999)" >tol-2</text>
    <line x1="106.80717954317201" y1="-6.604439395678473" x2="106.80797954317201" y2="-6.6054893956784735" style="stroke:rgb(255,0,0);stroke-width:.00002" />
    <line x1="106.80797954317201" y1="-6.6054893956784735" x2="106.80877954317201" y2="-6.606539395678474" style="stroke:rgb(0,0,255);stroke-width:.00002" />
    <circle cx="106.8071" cy="-6.6045" fill="rgb(255,0,0)" r=".0001" />
    <text x="106.8071" y="-6.6045" stroke="rgb(0,0,0)" transform="translate(106.8071 -6.6045),scale(0.00001 -0.00001),translate(-106.8071 6.6045),translate(106.7975 -6.592499999999999),rotate(0),translate(-106.7975 6.592499999999999)" >tol-3</text>
    <line x1="106.80877071067812" y1="-6.606529289321882" x2="106.80926464466094" y2="-6.607023223304704" style="stroke:rgb(255,0,0);stroke-width:.00002" />
    <line x1="106.80958284271249" y1="-6.6071292893218825" x2="106.8100767766953" y2="-6.607623223304704" style="stroke:rgb(0,0,255);stroke-width:.00002" />
    <circle cx="106.8087" cy="-6.6066" fill="rgb(255,0,0)" r=".0001" />
    <text x="106.8087" y="-6.6066" stroke="rgb(0,0,0)" transform="translate(106.8087 -6.6066),scale(0.00001 -0.00001),translate(-106.8087 6.6066),translate(106.7975 -6.592499999999999),rotate(0),translate(-106.7975 6.592499999999999)" >bangka-1</text>
    <line x1="106.80974695670174" y1="-6.607602319073097" x2="106.81113881196023" y2="-6.606524753711695" style="stroke:rgb(255,0,0);stroke-width:.00002" />
    <line x1="106.81157753608187" y1="-6.606438029176021" x2="106.81296939134035" y2="-6.60536046381462" style="stroke:rgb(0,0,255);stroke-width:.00002" />
    <circle cx="106.8099" cy="-6.6078" fill="rgb(255,0,0)" r=".0001" />
    <text x="106.8099" y="-6.6078" stroke="rgb(0,0,0)" transform="translate(106.8099 -6.6078),scale(0.00001 -0.00001),translate(-106.8099 6.6078),translate(106.7975 -6.592499999999999),rotate(0),translate(-106.7975 6.592499999999999)" >pajajaran-ciheuleut</text>
    <line x1="106.8129505454911" y1="-6.605392634434846" x2="106.8133005454911" y2="-6.603042634434845" style="stroke:rgb(255,0,0);stroke-width:.00002" />
    <line x1="106.8133005454911" y1="-6.603042634434845" x2="106.8136505454911" y2="-6.6006926344348456" style="stroke:rgb(0,0,255);stroke-width:.00002" />
    <circle cx="106.813" cy="-6.6054" fill="rgb(255,0,0)" r=".0001" />
    <text x="106.813" y="-6.6054" stroke="rgb(0,0,0)" transform="translate(106.813 -6.6054),scale(0.00001 -0.00001),translate(-106.813 6.6054),translate(106.7975 -6.592499999999999),rotate(0),translate(-106.7975 6.592499999999999)" >ciheuleut-pakuanindah</text>
    <line x1="106.81365802149215" y1="-6.600727162563907" x2="106.81310802149216" y2="-6.599877162563907" style="stroke:rgb(255,0,0);stroke-width:.00002" />
    <line x1="106.81310802149216" y1="-6.599877162563907" x2="106.81255802149215" y2="-6.599027162563908" style="stroke:rgb(0,0,255);stroke-width:.00002" />
    <circle cx="106.8137" cy="-6.6007" fill="rgb(255,0,0)" r=".0001" />
    <text x="106.8137" y="-6.6007" stroke="rgb(0,0,0)" transform="translate(106.8137 -6.6007),scale(0.00001 -0.00001),translate(-106.8137 6.6007),translate(106.7975 -6.592499999999999),rotate(0),translate(-106.7975 6.592499999999999)" >ciheuleut-binamarga</text>
    <line x1="106.8126" y1="-6.599" x2="106.8126" y2="-6.599" style="stroke:rgb(255,0,0);stroke-width:.00002" />
    <line x1="106.8126" y1="-6.599" x2="106.8126" y2="-6.599" style="stroke:rgb(0,0,255);stroke-width:.00002" />
    <circle cx="106.8126" cy="-6.599" fill="rgb(255,0,0)" r=".0001" />
    <text x="106.8126" y="-6.599" stroke="rgb(0,0,0)" transform="translate(106.8126 -6.599),scale(0.00001 -0.00001),translate(-106.8126 6.599),translate(106.7975 -6.592499999999999),rotate(0),translate(-106.7975 6.592499999999999)" >ciheuleut-tegallega</text>
  </g>
</svg>
