<svg width="1049.9999999998977" height="1849.9999999999961" xmlns="http://www.w3.org/2000/svg" xmlns:xlink="http://www.w3.org/1999/xlink" >
  <g transform="translate(524.9999999999488 924.9999999999981) rotate(30) scale(10000 -10000) translate(-106.8125 6.592499999999999)">
    <path d="M106.76 -6.5 L106.865 -6.5 L106.865 -6.685 L106.76 -6.685 Z" fill="none" stroke="black" stroke-width="0.0001" transform="translate(106.8125 -6.592499999999999) rotate(30) translate(-106.8125 6.592499999999999)" />
    <text x="106.79729549548222" y="-6.592888106619426" fill="black" transform="translate(106.79729549548222 -6.592888106619426) scale(0.00002 -0.00002) rotate(-30) translate(-106.79729549548222 6.592888106619426)">01</text>
    <text x="106.79839737675165" y="-6.593388961741894" fill="black" transform="translate(106.79839737675165 -6.593388961741894) scale(0.00002 -0.00002) rotate(-30) translate(-106.79839737675165 6.593388961741894)">01</text>
    <text x="106.8008092551159" y="-6.592152049805307" fill="black" transform="translate(106.8008092551159 -6.592152049805307) scale(0.00002 -0.00002) rotate(-30) translate(-106.8008092551159 6.592152049805307)">01</text>
    <text x="106.8018560506023" y="-6.592579420946434" fill="black" transform="translate(106.8018560506023 -6.592579420946434) scale(0.00002 -0.00002) rotate(-30) translate(-106.8018560506023 6.592579420946434)">01</text>
    <text x="106.80297511649319" y="-6.59343150676647" fill="black" transform="translate(106.80297511649319 -6.59343150676647) scale(0.00002 -0.00002) rotate(-30) translate(-106.80297511649319 6.59343150676647)">01</text>
    <text x="106.8044955418973" y="-6.595864187413023" fill="black" transform="translate(106.8044955418973 -6.595864187413023) scale(0.00002 -0.00002) rotate(-30) translate(-106.8044955418973 6.595864187413023)">01</text>
    <text x="106.80530522822882" y="-6.60092472698499" fill="black" transform="translate(106.80530522822882 -6.60092472698499) scale(0.00002 -0.00002) rotate(-30) translate(-106.80530522822882 6.60092472698499)">01</text>
    <text x="106.8047588922647" y="-6.601689597334759" fill="black" transform="translate(106.8047588922647 -6.601689597334759) scale(0.00002 -0.00002) rotate(-30) translate(-106.8047588922647 6.601689597334759)">01</text>
    <text x="106.79963342719711" y="-6.602795089800318" fill="black" transform="translate(106.79963342719711 -6.602795089800318) scale(0.00002 -0.00002) rotate(-30) translate(-106.79963342719711 6.602795089800318)">01</text>
    <text x="106.79893626832539" y="-6.603143669236175" fill="black" transform="translate(106.79893626832539 -6.603143669236175) scale(0.00002 -0.00002) rotate(-30) translate(-106.79893626832539 6.603143669236175)">01</text>
    <text x="106.79978363639641" y="-6.604744253370316" fill="black" transform="translate(106.79978363639641 -6.604744253370316) scale(0.00002 -0.00002) rotate(-30) translate(-106.79978363639641 6.604744253370316)">01</text>
    <text x="106.80257244640637" y="-6.60813066552527" fill="black" transform="translate(106.80257244640637 -6.60813066552527) scale(0.00002 -0.00002) rotate(-30) translate(-106.80257244640637 6.60813066552527)">01</text>
    <text x="106.80657238952699" y="-6.611730614333831" fill="black" transform="translate(106.80657238952699 -6.611730614333831) scale(0.00002 -0.00002) rotate(-30) translate(-106.80657238952699 6.611730614333831)">01</text>
    <text x="106.81037204923847" y="-6.616330202405604" fill="black" transform="translate(106.81037204923847 -6.616330202405604) scale(0.00002 -0.00002) rotate(-30) translate(-106.81037204923847 6.616330202405604)">01</text>
    <text x="106.81469655901003" y="-6.620139889585327" fill="black" transform="translate(106.81469655901003 -6.620139889585327) scale(0.00002 -0.00002) rotate(-30) translate(-106.81469655901003 6.620139889585327)">01</text>
    <text x="106.81249736657357" y="-6.620872953730817" fill="black" transform="translate(106.81249736657357 -6.620872953730817) scale(0.00002 -0.00002) rotate(-30) translate(-106.81249736657357 6.620872953730817)">01</text>
    <text x="106.81239681957096" y="-6.623587722800827" fill="black" transform="translate(106.81239681957096 -6.623587722800827) scale(0.00002 -0.00002) rotate(-30) translate(-106.81239681957096 6.623587722800827)">01</text>
    <text x="106.81018059378877" y="-6.623889935407491" fill="black" transform="translate(106.81018059378877 -6.623889935407491) scale(0.00002 -0.00002) rotate(-30) translate(-106.81018059378877 6.623889935407491)">01</text>
    <text x="106.80998763765601" y="-6.624661759938504" fill="black" transform="translate(106.80998763765601 -6.624661759938504) scale(0.00002 -0.00002) rotate(-30) translate(-106.80998763765601 6.624661759938504)">01</text>
    <text x="106.80928725821175" y="-6.625128679568" fill="black" transform="translate(106.80928725821175 -6.625128679568) scale(0.00002 -0.00002) rotate(-30) translate(-106.80928725821175 6.625128679568)">01</text>
    <text x="106.8092" y="-6.625041421356245" fill="black" transform="translate(106.8092 -6.625041421356245) scale(0.00002 -0.00002) rotate(-30) translate(-106.8092 6.625041421356245)">01</text>
    <text x="106.8092" y="-6.625030699953182" fill="black" transform="translate(106.8092 -6.625030699953182) scale(0.00002 -0.00002) rotate(-30) translate(-106.8092 6.625030699953182)">01</text>
    <text x="106.80997645091462" y="-6.625321869046161" fill="black" transform="translate(106.80997645091462 -6.625321869046161) scale(0.00002 -0.00002) rotate(-30) translate(-106.80997645091462 6.625321869046161)">01</text>
    <text x="106.81025884469253" y="-6.626027853490923" fill="black" transform="translate(106.81025884469253 -6.626027853490923) scale(0.00002 -0.00002) rotate(-30) translate(-106.81025884469253 6.626027853490923)">01</text>
    <text x="106.80953432169777" y="-6.625907099658465" fill="black" transform="translate(106.80953432169777 -6.625907099658465) scale(0.00002 -0.00002) rotate(-30) translate(-106.80953432169777 6.625907099658465)">01</text>
    <text x="106.80944142135624" y="-6.626000000000001" fill="black" transform="translate(106.80944142135624 -6.626000000000001) scale(0.00002 -0.00002) rotate(-30) translate(-106.80944142135624 6.626000000000001)">01</text>
    <text x="106.80978571650581" y="-6.626344295149568" fill="black" transform="translate(106.80978571650581 -6.626344295149568) scale(0.00002 -0.00002) rotate(-30) translate(-106.80978571650581 6.626344295149568)">01</text>
    <text x="106.81033690507762" y="-6.62777738543631" fill="black" transform="translate(106.81033690507762 -6.62777738543631) scale(0.00002 -0.00002) rotate(-30) translate(-106.81033690507762 6.62777738543631)">01</text>
    <text x="106.80858701443081" y="-6.628086189668099" fill="black" transform="translate(106.80858701443081 -6.628086189668099) scale(0.00002 -0.00002) rotate(-30) translate(-106.80858701443081 6.628086189668099)">01</text>
    <text x="106.80847769681024" y="-6.628742095391611" fill="black" transform="translate(106.80847769681024 -6.628742095391611) scale(0.00002 -0.00002) rotate(-30) translate(-106.80847769681024 6.628742095391611)">01</text>
    <text x="106.80772283721831" y="-6.62841858413793" fill="black" transform="translate(106.80772283721831 -6.62841858413793) scale(0.00002 -0.00002) rotate(-30) translate(-106.80772283721831 6.62841858413793)">01</text>
    <text x="106.80732451121735" y="-6.628816910138887" fill="black" transform="translate(106.80732451121735 -6.628816910138887) scale(0.00002 -0.00002) rotate(-30) translate(-106.80732451121735 6.628816910138887)">01</text>
    <text x="106.80312719407559" y="-6.627178932717712" fill="black" transform="translate(106.80312719407559 -6.627178932717712) scale(0.00002 -0.00002) rotate(-30) translate(-106.80312719407559 6.627178932717712)">01</text>
    <text x="106.80132604011855" y="-6.623476560694934" fill="black" transform="translate(106.80132604011855 -6.623476560694934) scale(0.00002 -0.00002) rotate(-30) translate(-106.80132604011855 6.623476560694934)">01</text>
    <text x="106.8003933002783" y="-6.623062009654821" fill="black" transform="translate(106.8003933002783 -6.623062009654821) scale(0.00002 -0.00002) rotate(-30) translate(-106.8003933002783 6.623062009654821)">01</text>
    <text x="106.80049268429435" y="-6.622068169494341" fill="black" transform="translate(106.80049268429435 -6.622068169494341) scale(0.00002 -0.00002) rotate(-30) translate(-106.80049268429435 6.622068169494341)">01</text>
    <text x="106.7989" y="-6.6214" fill="black" transform="translate(106.7989 -6.6214) scale(0.00002 -0.00002) rotate(-30) translate(-106.7989 6.6214)">01</text>
    <text x="106.80070731570565" y="-6.621931830505662" fill="black" transform="translate(106.80070731570565 -6.621931830505662) scale(0.00002 -0.00002) rotate(-30) translate(-106.80070731570565 6.621931830505662)">01</text>
    <text x="106.80059337599585" y="-6.62307122760373" fill="black" transform="translate(106.80059337599585 -6.62307122760373) scale(0.00002 -0.00002) rotate(-30) translate(-106.80059337599585 6.62307122760373)">01</text>
    <text x="106.79916119308157" y="-6.623622067186144" fill="black" transform="translate(106.79916119308157 -6.623622067186144) scale(0.00002 -0.00002) rotate(-30) translate(-106.79916119308157 6.623622067186144)">01</text>
    <text x="106.79857408319872" y="-6.622741402361867" fill="black" transform="translate(106.79857408319872 -6.622741402361867) scale(0.00002 -0.00002) rotate(-30) translate(-106.79857408319872 6.622741402361867)">01</text>
    <text x="106.79787069636252" y="-6.623243821530583" fill="black" transform="translate(106.79787069636252 -6.623243821530583) scale(0.00002 -0.00002) rotate(-30) translate(-106.79787069636252 6.623243821530583)">01</text>
    <text x="106.79670542110397" y="-6.621337007471103" fill="black" transform="translate(106.79670542110397 -6.621337007471103) scale(0.00002 -0.00002) rotate(-30) translate(-106.79670542110397 6.621337007471103)">01</text>
    <text x="106.7963970505398" y="-6.6197951546503635" fill="black" transform="translate(106.7963970505398 -6.6197951546503635) scale(0.00002 -0.00002) rotate(-30) translate(-106.7963970505398 6.6197951546503635)">01</text>
    <text x="106.79703012893617" y="-6.6176848933291454" fill="black" transform="translate(106.79703012893617 -6.6176848933291454) scale(0.00002 -0.00002) rotate(-30) translate(-106.79703012893617 6.6176848933291454)">01</text>
    <text x="106.79918550927285" y="-6.6180954419647025" fill="black" transform="translate(106.79918550927285 -6.6180954419647025) scale(0.00002 -0.00002) rotate(-30) translate(-106.79918550927285 6.6180954419647025)">01</text>
    <text x="106.79973152583509" y="-6.617822433683585" fill="black" transform="translate(106.79973152583509 -6.617822433683585) scale(0.00002 -0.00002) rotate(-30) translate(-106.79973152583509 6.617822433683585)">01</text>
    <text x="106.80132822475368" y="-6.615427385305693" fill="black" transform="translate(106.80132822475368 -6.615427385305693) scale(0.00002 -0.00002) rotate(-30) translate(-106.80132822475368 6.615427385305693)">01</text>
    <text x="106.8032596479146" y="-6.6141719602510864" fill="black" transform="translate(106.8032596479146 -6.6141719602510864) scale(0.00002 -0.00002) rotate(-30) translate(-106.8032596479146 6.6141719602510864)">01</text>
    <text x="106.80203268252079" y="-6.61237870313704" fill="black" transform="translate(106.80203268252079 -6.61237870313704) scale(0.00002 -0.00002) rotate(-30) translate(-106.80203268252079 6.61237870313704)">01</text>
    <text x="106.79994490476477" y="-6.611384523253227" fill="black" transform="translate(106.79994490476477 -6.611384523253227) scale(0.00002 -0.00002) rotate(-30) translate(-106.79994490476477 6.611384523253227)">01</text>
    <text x="106.7963496812518" y="-6.608288636339271" fill="black" transform="translate(106.7963496812518 -6.608288636339271) scale(0.00002 -0.00002) rotate(-30) translate(-106.7963496812518 6.608288636339271)">01</text>
    <text x="106.79477683656475" y="-6.607764354776926" fill="black" transform="translate(106.79477683656475 -6.607764354776926) scale(0.00002 -0.00002) rotate(-30) translate(-106.79477683656475 6.607764354776926)">01</text>
    <text x="106.79530948886536" y="-6.6059533369548555" fill="black" transform="translate(106.79530948886536 -6.6059533369548555) scale(0.00002 -0.00002) rotate(-30) translate(-106.79530948886536 6.6059533369548555)">01</text>
    <text x="106.79638221877342" y="-6.604588044344597" fill="black" transform="translate(106.79638221877342 -6.604588044344597) scale(0.00002 -0.00002) rotate(-30) translate(-106.79638221877342 6.604588044344597)">01</text>
    <text x="106.79600767074996" y="-6.6038389482976845" fill="black" transform="translate(106.79600767074996 -6.6038389482976845) scale(0.00002 -0.00002) rotate(-30) translate(-106.79600767074996 6.6038389482976845)">01</text>
    <text x="106.79362330771394" y="-6.596983904569126" fill="black" transform="translate(106.79362330771394 -6.596983904569126) scale(0.00002 -0.00002) rotate(-30) translate(-106.79362330771394 6.596983904569126)">01</text>
    <text x="106.78967314970332" y="-6.595996365066472" fill="black" transform="translate(106.78967314970332 -6.595996365066472) scale(0.00002 -0.00002) rotate(-30) translate(-106.78967314970332 6.595996365066472)">01</text>
    <text x="106.78839110574813" y="-6.595601890003337" fill="black" transform="translate(106.78839110574813 -6.595601890003337) scale(0.00002 -0.00002) rotate(-30) translate(-106.78839110574813 6.595601890003337)">01</text>
    <text x="106.78753694187003" y="-6.5957086604881" fill="black" transform="translate(106.78753694187003 -6.5957086604881) scale(0.00002 -0.00002) rotate(-30) translate(-106.78753694187003 6.5957086604881)">01</text>
    <text x="106.78645489397793" y="-6.593111745547017" fill="black" transform="translate(106.78645489397793 -6.593111745547017) scale(0.00002 -0.00002) rotate(-30) translate(-106.78645489397793 6.593111745547017)">01</text>
    <text x="106.78769665999644" y="-6.593008265045474" fill="black" transform="translate(106.78769665999644 -6.593008265045474) scale(0.00002 -0.00002) rotate(-30) translate(-106.78769665999644 6.593008265045474)">01</text>
    <text x="106.78759596137805" y="-6.5901887037305755" fill="black" transform="translate(106.78759596137805 -6.5901887037305755) scale(0.00002 -0.00002) rotate(-30) translate(-106.78759596137805 6.5901887037305755)">01</text>
    <text x="106.7907208353989" y="-6.590511966560321" fill="black" transform="translate(106.7907208353989 -6.590511966560321) scale(0.00002 -0.00002) rotate(-30) translate(-106.7907208353989 6.590511966560321)">01</text>
    <text x="106.78961778862016" y="-6.5957263695144" fill="black" transform="translate(106.78961778862016 -6.5957263695144) scale(0.00002 -0.00002) rotate(-30) translate(-106.78961778862016 6.5957263695144)">01</text>
    <text x="106.79142788822996" y="-6.596178894416851" fill="black" transform="translate(106.79142788822996 -6.596178894416851) scale(0.00002 -0.00002) rotate(-30) translate(-106.79142788822996 6.596178894416851)">01</text>
    <text x="106.79232116673207" y="-6.592705033575341" fill="black" transform="translate(106.79232116673207 -6.592705033575341) scale(0.00002 -0.00002) rotate(-30) translate(-106.79232116673207 6.592705033575341)">01</text>
    <text x="106.794" y="-6.592593111357478" fill="black" transform="translate(106.794 -6.592593111357478) scale(0.00002 -0.00002) rotate(-30) translate(-106.794 6.592593111357478)">01</text>
    <text x="106.794" y="-6.593223606797746" fill="black" transform="translate(106.794 -6.593223606797746) scale(0.00002 -0.00002) rotate(-30) translate(-106.794 6.593223606797746)">01</text>
    <text x="106.79372802679775" y="-6.593767553202263" fill="black" transform="translate(106.79372802679775 -6.593767553202263) scale(0.00002 -0.00002) rotate(-30) translate(-106.79372802679775 6.593767553202263)">01</text>
    <text x="106.79460610858331" y="-6.594382210452153" fill="black" transform="translate(106.79460610858331 -6.594382210452153) scale(0.00002 -0.00002) rotate(-30) translate(-106.79460610858331 6.594382210452153)">01</text>
    <path d="M106.79729549548222 -6.592888106619426 L106.79839737675165 -6.593388961741894 L106.8008092551159 -6.592152049805307 L106.8018560506023 -6.592579420946434 L106.80297511649319 -6.59343150676647 L106.8044955418973 -6.595864187413023 L106.80530522822882 -6.60092472698499 L106.8047588922647 -6.601689597334759 L106.79963342719711 -6.602795089800318 L106.79893626832539 -6.603143669236175 L106.79978363639641 -6.604744253370316 L106.80257244640637 -6.60813066552527 L106.80657238952699 -6.611730614333831 L106.81037204923847 -6.616330202405604 L106.81469655901003 -6.620139889585327 L106.81249736657357 -6.620872953730817 L106.81239681957096 -6.623587722800827 L106.81018059378877 -6.623889935407491 L106.80998763765601 -6.624661759938504 L106.80928725821175 -6.625128679568 L106.8092 -6.625041421356245 L106.8092 -6.625030699953182 L106.80997645091462 -6.625321869046161 L106.81025884469253 -6.626027853490923 L106.80953432169777 -6.625907099658465 L106.80944142135624 -6.626000000000001 L106.80978571650581 -6.626344295149568 L106.81033690507762 -6.62777738543631 L106.80858701443081 -6.628086189668099 L106.80847769681024 -6.628742095391611 L106.80772283721831 -6.62841858413793 L106.80732451121735 -6.628816910138887 L106.80312719407559 -6.627178932717712 L106.80132604011855 -6.623476560694934 L106.8003933002783 -6.623062009654821 L106.80049268429435 -6.622068169494341 L106.7989 -6.6214 L106.80070731570565 -6.621931830505662 L106.80059337599585 -6.62307122760373 L106.79916119308157 -6.623622067186144 L106.79857408319872 -6.622741402361867 L106.79787069636252 -6.623243821530583 L106.79670542110397 -6.621337007471103 L106.7963970505398 -6.6197951546503635 L106.79703012893617 -6.6176848933291454 L106.79918550927285 -6.6180954419647025 L106.79973152583509 -6.617822433683585 L106.80132822475368 -6.615427385305693 L106.8032596479146 -6.6141719602510864 L106.80203268252079 -6.61237870313704 L106.79994490476477 -6.611384523253227 L106.7963496812518 -6.608288636339271 L106.79477683656475 -6.607764354776926 L106.79530948886536 -6.6059533369548555 L106.79638221877342 -6.604588044344597 L106.79600767074996 -6.6038389482976845 L106.79362330771394 -6.596983904569126 L106.78967314970332 -6.595996365066472 L106.78839110574813 -6.595601890003337 L106.78753694187003 -6.5957086604881 L106.78645489397793 -6.593111745547017 L106.78769665999644 -6.593008265045474 L106.78759596137805 -6.5901887037305755 L106.7907208353989 -6.590511966560321 L106.78961778862016 -6.5957263695144 L106.79142788822996 -6.596178894416851 L106.79232116673207 -6.592705033575341 L106.794 -6.592593111357478 L106.794 -6.593223606797746 L106.79372802679775 -6.593767553202263 L106.79460610858331 -6.594382210452153 Z" stroke="blue" stroke-width="0.00002" fill="none" />
  </g>
</svg>
