<svg width="1049.9999999998977" height="1849.9999999999961" xmlns="http://www.w3.org/2000/svg" xmlns:xlink="http://www.w3.org/1999/xlink" >
  <g transform="translate(524.9999999999488 924.9999999999981) rotate(30) scale(10000 -10000) translate(-106.8125 6.592499999999999)">
    <path d="M106.76 -6.5 L106.865 -6.5 L106.865 -6.685 L106.76 -6.685 Z" fill="none" stroke="black" stroke-width="0.001" transform="translate(106.8125 -6.592499999999999) rotate(30) translate(-106.8125 6.592499999999999)" />
    <path d="M106.81375415358526 -6.6004155381457466 L106.8172 -6.5982 L106.81388531472483 -6.600813413061327 L106.8131859796433 -6.605508948608863 L106.81032830264144 -6.607721343707066 L106.81149986039763 -6.6094786803413434 L106.79980796252143 -6.603042773253528 L106.79647129120708 -6.604768637726476 L106.79504814853115 -6.603819875942536 L106.79273957595532 -6.597182729787039 L106.79406263269223 -6.593654578488651 L106.79725495482212 -6.5918810661942695 L106.79837376751641 -6.592389617418948 L106.80076655115877 -6.591162498053061 L106.80159471000027 -6.591500607257502 L106.80305093083987 -6.592609411607959 L106.80551772402467 -6.596556280703616 L106.80620730280958 -6.600866148109309 L106.80533377421007 -6.602089088148631 L106.80672505593648 -6.6038778789397465 L106.82112317729278 -6.595172038119659 L106.80768902300943 -6.604575946118022 L106.81008708176721 -6.607402229653979 L106.81281402035673 -6.605291051391133 L106.81349105604106 -6.600745240367676 L106.81251604298429 -6.599054325127815 L106.81268395701572 -6.598945674872185 Z" stroke="yellow" stroke-width="0.0002" fill="none" />
    <circle 
      cx="106.81375415358526" cy="-12.600415538145747"
      r="15" transform="translate(106.81375415358526 -6.6004155381457466) scale(0.00001 -0.00001) translate(-106.81375415358526 6.6004155381457466) translate(106.8125 -6.592499999999999) rotate(-30) translate(-106.8125 6.592499999999999)"
      fill="white" stroke="black" stroke-width="2"/>
    <circle 
      cx="106.81388531472483" cy="-12.600813413061328"
      r="15" transform="translate(106.81388531472483 -6.600813413061327) scale(0.00001 -0.00001) translate(-106.81388531472483 6.600813413061327) translate(106.8125 -6.592499999999999) rotate(-30) translate(-106.8125 6.592499999999999)"
      fill="white" stroke="black" stroke-width="2"/>
    <circle 
      cx="106.81032830264144" cy="-12.607721343707066"
      r="15" transform="translate(106.81032830264144 -6.607721343707066) scale(0.00001 -0.00001) translate(-106.81032830264144 6.607721343707066) translate(106.8125 -6.592499999999999) rotate(-30) translate(-106.8125 6.592499999999999)"
      fill="white" stroke="black" stroke-width="2"/>
    <circle 
      cx="106.81149986039763" cy="-12.609478680341343"
      r="15" transform="translate(106.81149986039763 -6.6094786803413434) scale(0.00001 -0.00001) translate(-106.81149986039763 6.6094786803413434) translate(106.8125 -6.592499999999999) rotate(-30) translate(-106.8125 6.592499999999999)"
      fill="white" stroke="black" stroke-width="2"/>
    <circle 
      cx="106.79980796252143" cy="-12.603042773253527"
      r="15" transform="translate(106.79980796252143 -6.603042773253528) scale(0.00001 -0.00001) translate(-106.79980796252143 6.603042773253528) translate(106.8125 -6.592499999999999) rotate(-30) translate(-106.8125 6.592499999999999)"
      fill="white" stroke="black" stroke-width="2"/>
    <circle 
      cx="106.79647129120708" cy="-12.604768637726476"
      r="15" transform="translate(106.79647129120708 -6.604768637726476) scale(0.00001 -0.00001) translate(-106.79647129120708 6.604768637726476) translate(106.8125 -6.592499999999999) rotate(-30) translate(-106.8125 6.592499999999999)"
      fill="white" stroke="black" stroke-width="2"/>
    <circle 
      cx="106.79504814853115" cy="-12.603819875942536"
      r="15" transform="translate(106.79504814853115 -6.603819875942536) scale(0.00001 -0.00001) translate(-106.79504814853115 6.603819875942536) translate(106.8125 -6.592499999999999) rotate(-30) translate(-106.8125 6.592499999999999)"
      fill="white" stroke="black" stroke-width="2"/>
    <circle 
      cx="106.79273957595532" cy="-12.59718272978704"
      r="15" transform="translate(106.79273957595532 -6.597182729787039) scale(0.00001 -0.00001) translate(-106.79273957595532 6.597182729787039) translate(106.8125 -6.592499999999999) rotate(-30) translate(-106.8125 6.592499999999999)"
      fill="white" stroke="black" stroke-width="2"/>
    <circle 
      cx="106.79406263269223" cy="-12.59365457848865"
      r="15" transform="translate(106.79406263269223 -6.593654578488651) scale(0.00001 -0.00001) translate(-106.79406263269223 6.593654578488651) translate(106.8125 -6.592499999999999) rotate(-30) translate(-106.8125 6.592499999999999)"
      fill="white" stroke="black" stroke-width="2"/>
    <circle 
      cx="106.79725495482212" cy="-12.591881066194269"
      r="15" transform="translate(106.79725495482212 -6.5918810661942695) scale(0.00001 -0.00001) translate(-106.79725495482212 6.5918810661942695) translate(106.8125 -6.592499999999999) rotate(-30) translate(-106.8125 6.592499999999999)"
      fill="white" stroke="black" stroke-width="2"/>
    <circle 
      cx="106.80159471000027" cy="-12.591500607257501"
      r="15" transform="translate(106.80159471000027 -6.591500607257502) scale(0.00001 -0.00001) translate(-106.80159471000027 6.591500607257502) translate(106.8125 -6.592499999999999) rotate(-30) translate(-106.8125 6.592499999999999)"
      fill="white" stroke="black" stroke-width="2"/>
    <circle 
      cx="106.80305093083987" cy="-12.59260941160796"
      r="15" transform="translate(106.80305093083987 -6.592609411607959) scale(0.00001 -0.00001) translate(-106.80305093083987 6.592609411607959) translate(106.8125 -6.592499999999999) rotate(-30) translate(-106.8125 6.592499999999999)"
      fill="white" stroke="black" stroke-width="2"/>
    <circle 
      cx="106.80551772402467" cy="-12.596556280703616"
      r="15" transform="translate(106.80551772402467 -6.596556280703616) scale(0.00001 -0.00001) translate(-106.80551772402467 6.596556280703616) translate(106.8125 -6.592499999999999) rotate(-30) translate(-106.8125 6.592499999999999)"
      fill="white" stroke="black" stroke-width="2"/>
    <circle 
      cx="106.80620730280958" cy="-12.600866148109308"
      r="15" transform="translate(106.80620730280958 -6.600866148109309) scale(0.00001 -0.00001) translate(-106.80620730280958 6.600866148109309) translate(106.8125 -6.592499999999999) rotate(-30) translate(-106.8125 6.592499999999999)"
      fill="white" stroke="black" stroke-width="2"/>
    <circle 
      cx="106.80533377421007" cy="-12.602089088148631"
      r="15" transform="translate(106.80533377421007 -6.602089088148631) scale(0.00001 -0.00001) translate(-106.80533377421007 6.602089088148631) translate(106.8125 -6.592499999999999) rotate(-30) translate(-106.8125 6.592499999999999)"
      fill="white" stroke="black" stroke-width="2"/>
    <circle 
      cx="106.80672505593648" cy="-12.603877878939747"
      r="15" transform="translate(106.80672505593648 -6.6038778789397465) scale(0.00001 -0.00001) translate(-106.80672505593648 6.6038778789397465) translate(106.8125 -6.592499999999999) rotate(-30) translate(-106.8125 6.592499999999999)"
      fill="white" stroke="black" stroke-width="2"/>
    <circle 
      cx="106.80768902300943" cy="-12.604575946118022"
      r="15" transform="translate(106.80768902300943 -6.604575946118022) scale(0.00001 -0.00001) translate(-106.80768902300943 6.604575946118022) translate(106.8125 -6.592499999999999) rotate(-30) translate(-106.8125 6.592499999999999)"
      fill="white" stroke="black" stroke-width="2"/>
    <circle 
      cx="106.81008708176721" cy="-12.607402229653978"
      r="15" transform="translate(106.81008708176721 -6.607402229653979) scale(0.00001 -0.00001) translate(-106.81008708176721 6.607402229653979) translate(106.8125 -6.592499999999999) rotate(-30) translate(-106.8125 6.592499999999999)"
      fill="white" stroke="black" stroke-width="2"/>
    <circle 
      cx="106.81375415358526" cy="-12.600415538145747"
      r="15" transform="translate(106.81375415358526 -6.6004155381457466) scale(0.00001 -0.00001) translate(-106.81375415358526 6.6004155381457466) translate(106.8125 -6.592499999999999) rotate(-30) translate(-106.8125 6.592499999999999)"
      fill="white" stroke="none"/>
    <circle 
      cx="106.81388531472483" cy="-12.600813413061328"
      r="15" transform="translate(106.81388531472483 -6.600813413061327) scale(0.00001 -0.00001) translate(-106.81388531472483 6.600813413061327) translate(106.8125 -6.592499999999999) rotate(-30) translate(-106.8125 6.592499999999999)"
      fill="white" stroke="none"/>
    <circle 
      cx="106.81032830264144" cy="-12.607721343707066"
      r="15" transform="translate(106.81032830264144 -6.607721343707066) scale(0.00001 -0.00001) translate(-106.81032830264144 6.607721343707066) translate(106.8125 -6.592499999999999) rotate(-30) translate(-106.8125 6.592499999999999)"
      fill="white" stroke="none"/>
    <circle 
      cx="106.81149986039763" cy="-12.609478680341343"
      r="15" transform="translate(106.81149986039763 -6.6094786803413434) scale(0.00001 -0.00001) translate(-106.81149986039763 6.6094786803413434) translate(106.8125 -6.592499999999999) rotate(-30) translate(-106.8125 6.592499999999999)"
      fill="white" stroke="none"/>
    <circle 
      cx="106.79980796252143" cy="-12.603042773253527"
      r="15" transform="translate(106.79980796252143 -6.603042773253528) scale(0.00001 -0.00001) translate(-106.79980796252143 6.603042773253528) translate(106.8125 -6.592499999999999) rotate(-30) translate(-106.8125 6.592499999999999)"
      fill="white" stroke="none"/>
    <circle 
      cx="106.79647129120708" cy="-12.604768637726476"
      r="15" transform="translate(106.79647129120708 -6.604768637726476) scale(0.00001 -0.00001) translate(-106.79647129120708 6.604768637726476) translate(106.8125 -6.592499999999999) rotate(-30) translate(-106.8125 6.592499999999999)"
      fill="white" stroke="none"/>
    <circle 
      cx="106.79504814853115" cy="-12.603819875942536"
      r="15" transform="translate(106.79504814853115 -6.603819875942536) scale(0.00001 -0.00001) translate(-106.79504814853115 6.603819875942536) translate(106.8125 -6.592499999999999) rotate(-30) translate(-106.8125 6.592499999999999)"
      fill="white" stroke="none"/>
    <circle 
      cx="106.79273957595532" cy="-12.59718272978704"
      r="15" transform="translate(106.79273957595532 -6.597182729787039) scale(0.00001 -0.00001) translate(-106.79273957595532 6.597182729787039) translate(106.8125 -6.592499999999999) rotate(-30) translate(-106.8125 6.592499999999999)"
      fill="white" stroke="none"/>
    <circle 
      cx="106.79406263269223" cy="-12.59365457848865"
      r="15" transform="translate(106.79406263269223 -6.593654578488651) scale(0.00001 -0.00001) translate(-106.79406263269223 6.593654578488651) translate(106.8125 -6.592499999999999) rotate(-30) translate(-106.8125 6.592499999999999)"
      fill="white" stroke="none"/>
    <circle 
      cx="106.79725495482212" cy="-12.591881066194269"
      r="15" transform="translate(106.79725495482212 -6.5918810661942695) scale(0.00001 -0.00001) translate(-106.79725495482212 6.5918810661942695) translate(106.8125 -6.592499999999999) rotate(-30) translate(-106.8125 6.592499999999999)"
      fill="white" stroke="none"/>
    <circle 
      cx="106.80159471000027" cy="-12.591500607257501"
      r="15" transform="translate(106.80159471000027 -6.591500607257502) scale(0.00001 -0.00001) translate(-106.80159471000027 6.591500607257502) translate(106.8125 -6.592499999999999) rotate(-30) translate(-106.8125 6.592499999999999)"
      fill="white" stroke="none"/>
    <circle 
      cx="106.80305093083987" cy="-12.59260941160796"
      r="15" transform="translate(106.80305093083987 -6.592609411607959) scale(0.00001 -0.00001) translate(-106.80305093083987 6.592609411607959) translate(106.8125 -6.592499999999999) rotate(-30) translate(-106.8125 6.592499999999999)"
      fill="white" stroke="none"/>
    <circle 
      cx="106.80551772402467" cy="-12.596556280703616"
      r="15" transform="translate(106.80551772402467 -6.596556280703616) scale(0.00001 -0.00001) translate(-106.80551772402467 6.596556280703616) translate(106.8125 -6.592499999999999) rotate(-30) translate(-106.8125 6.592499999999999)"
      fill="white" stroke="none"/>
    <circle 
      cx="106.80620730280958" cy="-12.600866148109308"
      r="15" transform="translate(106.80620730280958 -6.600866148109309) scale(0.00001 -0.00001) translate(-106.80620730280958 6.600866148109309) translate(106.8125 -6.592499999999999) rotate(-30) translate(-106.8125 6.592499999999999)"
      fill="white" stroke="none"/>
    <circle 
      cx="106.80533377421007" cy="-12.602089088148631"
      r="15" transform="translate(106.80533377421007 -6.602089088148631) scale(0.00001 -0.00001) translate(-106.80533377421007 6.602089088148631) translate(106.8125 -6.592499999999999) rotate(-30) translate(-106.8125 6.592499999999999)"
      fill="white" stroke="none"/>
    <circle 
      cx="106.80672505593648" cy="-12.603877878939747"
      r="15" transform="translate(106.80672505593648 -6.6038778789397465) scale(0.00001 -0.00001) translate(-106.80672505593648 6.6038778789397465) translate(106.8125 -6.592499999999999) rotate(-30) translate(-106.8125 6.592499999999999)"
      fill="white" stroke="none"/>
    <circle 
      cx="106.80768902300943" cy="-12.604575946118022"
      r="15" transform="translate(106.80768902300943 -6.604575946118022) scale(0.00001 -0.00001) translate(-106.80768902300943 6.604575946118022) translate(106.8125 -6.592499999999999) rotate(-30) translate(-106.8125 6.592499999999999)"
      fill="white" stroke="none"/>
    <circle 
      cx="106.81008708176721" cy="-12.607402229653978"
      r="15" transform="translate(106.81008708176721 -6.607402229653979) scale(0.00001 -0.00001) translate(-106.81008708176721 6.607402229653979) translate(106.8125 -6.592499999999999) rotate(-30) translate(-106.8125 6.592499999999999)"
      fill="white" stroke="none"/>
    <text x="106.81375415358526" y="-6.6004155381457466" fill="black" text-anchor="middle" transform="translate(106.81375415358526 -6.6004155381457466) scale(0.00001 -0.00001) translate(-106.81375415358526 6.6004155381457466) translate(106.8125 -6.592499999999999) rotate(-30) translate(-106.8125 6.592499999999999)">06</text>
    <text x="106.81388531472483" y="-6.600813413061327" fill="black" text-anchor="middle" transform="translate(106.81388531472483 -6.600813413061327) scale(0.00001 -0.00001) translate(-106.81388531472483 6.600813413061327) translate(106.8125 -6.592499999999999) rotate(-30) translate(-106.8125 6.592499999999999)">06</text>
    <text x="106.81032830264144" y="-6.607721343707066" fill="black" text-anchor="middle" transform="translate(106.81032830264144 -6.607721343707066) scale(0.00001 -0.00001) translate(-106.81032830264144 6.607721343707066) translate(106.8125 -6.592499999999999) rotate(-30) translate(-106.8125 6.592499999999999)">06</text>
    <text x="106.81149986039763" y="-6.6094786803413434" fill="black" text-anchor="middle" transform="translate(106.81149986039763 -6.6094786803413434) scale(0.00001 -0.00001) translate(-106.81149986039763 6.6094786803413434) translate(106.8125 -6.592499999999999) rotate(-30) translate(-106.8125 6.592499999999999)">06</text>
    <text x="106.79980796252143" y="-6.603042773253528" fill="black" text-anchor="middle" transform="translate(106.79980796252143 -6.603042773253528) scale(0.00001 -0.00001) translate(-106.79980796252143 6.603042773253528) translate(106.8125 -6.592499999999999) rotate(-30) translate(-106.8125 6.592499999999999)">06</text>
    <text x="106.79647129120708" y="-6.604768637726476" fill="black" text-anchor="middle" transform="translate(106.79647129120708 -6.604768637726476) scale(0.00001 -0.00001) translate(-106.79647129120708 6.604768637726476) translate(106.8125 -6.592499999999999) rotate(-30) translate(-106.8125 6.592499999999999)">06</text>
    <text x="106.79504814853115" y="-6.603819875942536" fill="black" text-anchor="middle" transform="translate(106.79504814853115 -6.603819875942536) scale(0.00001 -0.00001) translate(-106.79504814853115 6.603819875942536) translate(106.8125 -6.592499999999999) rotate(-30) translate(-106.8125 6.592499999999999)">06</text>
    <text x="106.79273957595532" y="-6.597182729787039" fill="black" text-anchor="middle" transform="translate(106.79273957595532 -6.597182729787039) scale(0.00001 -0.00001) translate(-106.79273957595532 6.597182729787039) translate(106.8125 -6.592499999999999) rotate(-30) translate(-106.8125 6.592499999999999)">06</text>
    <text x="106.79406263269223" y="-6.593654578488651" fill="black" text-anchor="middle" transform="translate(106.79406263269223 -6.593654578488651) scale(0.00001 -0.00001) translate(-106.79406263269223 6.593654578488651) translate(106.8125 -6.592499999999999) rotate(-30) translate(-106.8125 6.592499999999999)">06</text>
    <text x="106.79725495482212" y="-6.5918810661942695" fill="black" text-anchor="middle" transform="translate(106.79725495482212 -6.5918810661942695) scale(0.00001 -0.00001) translate(-106.79725495482212 6.5918810661942695) translate(106.8125 -6.592499999999999) rotate(-30) translate(-106.8125 6.592499999999999)">06</text>
    <text x="106.80159471000027" y="-6.591500607257502" fill="black" text-anchor="middle" transform="translate(106.80159471000027 -6.591500607257502) scale(0.00001 -0.00001) translate(-106.80159471000027 6.591500607257502) translate(106.8125 -6.592499999999999) rotate(-30) translate(-106.8125 6.592499999999999)">06</text>
    <text x="106.80305093083987" y="-6.592609411607959" fill="black" text-anchor="middle" transform="translate(106.80305093083987 -6.592609411607959) scale(0.00001 -0.00001) translate(-106.80305093083987 6.592609411607959) translate(106.8125 -6.592499999999999) rotate(-30) translate(-106.8125 6.592499999999999)">06</text>
    <text x="106.80551772402467" y="-6.596556280703616" fill="black" text-anchor="middle" transform="translate(106.80551772402467 -6.596556280703616) scale(0.00001 -0.00001) translate(-106.80551772402467 6.596556280703616) translate(106.8125 -6.592499999999999) rotate(-30) translate(-106.8125 6.592499999999999)">06</text>
    <text x="106.80620730280958" y="-6.600866148109309" fill="black" text-anchor="middle" transform="translate(106.80620730280958 -6.600866148109309) scale(0.00001 -0.00001) translate(-106.80620730280958 6.600866148109309) translate(106.8125 -6.592499999999999) rotate(-30) translate(-106.8125 6.592499999999999)">06</text>
    <text x="106.80533377421007" y="-6.602089088148631" fill="black" text-anchor="middle" transform="translate(106.80533377421007 -6.602089088148631) scale(0.00001 -0.00001) translate(-106.80533377421007 6.602089088148631) translate(106.8125 -6.592499999999999) rotate(-30) translate(-106.8125 6.592499999999999)">06</text>
    <text x="106.80672505593648" y="-6.6038778789397465" fill="black" text-anchor="middle" transform="translate(106.80672505593648 -6.6038778789397465) scale(0.00001 -0.00001) translate(-106.80672505593648 6.6038778789397465) translate(106.8125 -6.592499999999999) rotate(-30) translate(-106.8125 6.592499999999999)">06</text>
    <text x="106.80768902300943" y="-6.604575946118022" fill="black" text-anchor="middle" transform="translate(106.80768902300943 -6.604575946118022) scale(0.00001 -0.00001) translate(-106.80768902300943 6.604575946118022) translate(106.8125 -6.592499999999999) rotate(-30) translate(-106.8125 6.592499999999999)">06</text>
    <text x="106.81008708176721" y="-6.607402229653979" fill="black" text-anchor="middle" transform="translate(106.81008708176721 -6.607402229653979) scale(0.00001 -0.00001) translate(-106.81008708176721 6.607402229653979) translate(106.8125 -6.592499999999999) rotate(-30) translate(-106.8125 6.592499999999999)">06</text>
    <line x1="106.8126" y1="-6.599" x2="106.8137" y2="-6.6007" style="stroke:rgb(255,0,0);stroke-width:.00002" />
    <line x1="106.8137" y1="-6.6007" x2="106.8172" y2="-6.5982" style="stroke:rgb(255,0,0);stroke-width:.00002" />
    <line x1="106.8172" y1="-6.5982" x2="106.8137" y2="-6.6007" style="stroke:rgb(255,0,0);stroke-width:.00002" />
    <line x1="106.8137" y1="-6.6007" x2="106.813" y2="-6.6054" style="stroke:rgb(255,0,0);stroke-width:.00002" />
    <line x1="106.813" y1="-6.6054" x2="106.8099" y2="-6.6078" style="stroke:rgb(255,0,0);stroke-width:.00002" />
    <line x1="106.8099" y1="-6.6078" x2="106.8105" y2="-6.6087" style="stroke:rgb(255,0,0);stroke-width:.00002" />
    <line x1="106.8105" y1="-6.6087" x2="106.7996" y2="-6.6027" style="stroke:rgb(255,0,0);stroke-width:.00002" />
    <line x1="106.7996" y1="-6.6027" x2="106.7967" y2="-6.6042" style="stroke:rgb(255,0,0);stroke-width:.00002" />
    <line x1="106.7967" y1="-6.6042" x2="106.7961" y2="-6.6038" style="stroke:rgb(255,0,0);stroke-width:.00002" />
    <line x1="106.7961" y1="-6.6038" x2="106.7937" y2="-6.5969" style="stroke:rgb(255,0,0);stroke-width:.00002" />
    <line x1="106.7937" y1="-6.5969" x2="106.7946" y2="-6.5945" style="stroke:rgb(255,0,0);stroke-width:.00002" />
    <line x1="106.7946" y1="-6.5945" x2="106.7973" y2="-6.593" style="stroke:rgb(255,0,0);stroke-width:.00002" />
    <line x1="106.7973" y1="-6.593" x2="106.7984" y2="-6.5935" style="stroke:rgb(255,0,0);stroke-width:.00002" />
    <line x1="106.7984" y1="-6.5935" x2="106.800814" y2="-6.592262" style="stroke:rgb(255,0,0);stroke-width:.00002" />
    <line x1="106.800814" y1="-6.592262" x2="106.801806" y2="-6.592667" style="stroke:rgb(255,0,0);stroke-width:.00002" />
    <line x1="106.801806" y1="-6.592667" x2="106.8029" y2="-6.5935" style="stroke:rgb(255,0,0);stroke-width:.00002" />
    <line x1="106.8029" y1="-6.5935" x2="106.8044" y2="-6.5959" style="stroke:rgb(255,0,0);stroke-width:.00002" />
    <line x1="106.8044" y1="-6.5959" x2="106.8052" y2="-6.6009" style="stroke:rgb(255,0,0);stroke-width:.00002" />
    <line x1="106.8052" y1="-6.6009" x2="106.8047" y2="-6.6016" style="stroke:rgb(255,0,0);stroke-width:.00002" />
    <line x1="106.8047" y1="-6.6016" x2="106.8068" y2="-6.6043" style="stroke:rgb(255,0,0);stroke-width:.00002" />
    <line x1="106.8068" y1="-6.6043" x2="106.8111" y2="-6.6017" style="stroke:rgb(255,0,0);stroke-width:.00002" />
    <line x1="106.8111" y1="-6.6017" x2="106.8071" y2="-6.6045" style="stroke:rgb(255,0,0);stroke-width:.00002" />
    <line x1="106.8071" y1="-6.6045" x2="106.8099" y2="-6.6078" style="stroke:rgb(255,0,0);stroke-width:.00002" />
    <line x1="106.8099" y1="-6.6078" x2="106.813" y2="-6.6054" style="stroke:rgb(255,0,0);stroke-width:.00002" />
    <line x1="106.813" y1="-6.6054" x2="106.8137" y2="-6.6007" style="stroke:rgb(255,0,0);stroke-width:.00002" />
    <line x1="106.8137" y1="-6.6007" x2="106.8126" y2="-6.599" style="stroke:rgb(255,0,0);stroke-width:.00002" />
    <line x1="106.8126" y1="-6.599" x2="106.8126" y2="-6.599" style="stroke:rgb(255,0,0);stroke-width:.00002" />
  </g>
</svg>
