<svg width="1049.9999999998977" height="1849.9999999999961" xmlns="http://www.w3.org/2000/svg" xmlns:xlink="http://www.w3.org/1999/xlink" >
  <g transform="translate(524.9999999999488 924.9999999999981) rotate(30) scale(10000 -10000) translate(-106.8125 6.592499999999999)">
    <path d="M106.76 -6.5 L106.865 -6.5 L106.865 -6.685 L106.76 -6.685 Z" fill="none" stroke="black" stroke-width="0.001" transform="translate(106.8125 -6.592499999999999) rotate(30) translate(-106.8125 6.592499999999999)" />
    <path d="M106.80537717582213 -6.588311126646033 L106.80630247393846 -6.588552588903484 L106.80630414858472 -6.5916112898403005 L106.80629834002502 -6.592657992294851 L106.8054613852212 -6.592828124054751 L106.80577831023722 -6.595791820005547 L106.8055965287148 -6.60079408315623 L106.80702903766382 -6.6034603579971485 L106.74174293230108 -6.642935677518802 L106.80739263297465 -6.6045598304088 L106.81317531422316 -6.612400754135597 L106.81468625974297 -6.616027023383172 L106.81648388167612 -6.620920549756732 L106.81664335210266 -6.621239490609813 L106.8162 -6.6216828427124685 L106.81572153316628 -6.621204375878751 L106.81431069487874 -6.616165667708981 L106.81282542402391 -6.6126010176573615 L106.80857281139693 -6.607089696435936 L106.80795840800678 -6.607353012174573 L106.8073052786943 -6.606917592632921 L106.80650237903352 -6.607032292584462 L106.80558161951494 -6.6056 L106.80483394298811 -6.6056 L106.80373126375692 -6.602816174032365 L106.7998745045783 -6.603733993895601 L106.7996936231912 -6.603975169078398 L106.79925570682705 -6.60399406079294 L106.7977855785734 -6.605025995099621 L106.7970955115072 -6.605109719910664 L106.79501410746802 -6.604939587452226 L106.79223389538241 -6.596946477706101 L106.79326738562813 -6.593364562810813 L106.79729128771446 -6.59145819765538 L106.79836327452297 -6.591945464386528 L106.80086893823014 -6.590660455409949 L106.80255020349426 -6.591743187509213 L106.8030753617573 -6.592685191056008 L106.80421782520581 -6.591969459698807 L106.80450412751529 -6.588533831985152 L106.80650451416143 -6.580757390122878 L106.79989210502765 -6.616579080005717 L106.80709100622799 -6.580884528220671 Z" stroke="purple" stroke-width="0.0002" fill="none" />
    <circle 
      cx="106.80630414858472" cy="-12.591611289840301"
      r="15" transform="translate(106.80630414858472 -6.5916112898403005) scale(0.00001 -0.00001) translate(-106.80630414858472 6.5916112898403005) translate(106.8125 -6.592499999999999) rotate(-30) translate(-106.8125 6.592499999999999)"
      fill="white" stroke="black" stroke-width="2"/>
    <circle 
      cx="106.8054613852212" cy="-12.592828124054751"
      r="15" transform="translate(106.8054613852212 -6.592828124054751) scale(0.00001 -0.00001) translate(-106.8054613852212 6.592828124054751) translate(106.8125 -6.592499999999999) rotate(-30) translate(-106.8125 6.592499999999999)"
      fill="white" stroke="black" stroke-width="2"/>
    <circle 
      cx="106.80577831023722" cy="-12.595791820005548"
      r="15" transform="translate(106.80577831023722 -6.595791820005547) scale(0.00001 -0.00001) translate(-106.80577831023722 6.595791820005547) translate(106.8125 -6.592499999999999) rotate(-30) translate(-106.8125 6.592499999999999)"
      fill="white" stroke="black" stroke-width="2"/>
    <circle 
      cx="106.8055965287148" cy="-12.60079408315623"
      r="15" transform="translate(106.8055965287148 -6.60079408315623) scale(0.00001 -0.00001) translate(-106.8055965287148 6.60079408315623) translate(106.8125 -6.592499999999999) rotate(-30) translate(-106.8125 6.592499999999999)"
      fill="white" stroke="black" stroke-width="2"/>
    <circle 
      cx="106.80702903766382" cy="-12.603460357997148"
      r="15" transform="translate(106.80702903766382 -6.6034603579971485) scale(0.00001 -0.00001) translate(-106.80702903766382 6.6034603579971485) translate(106.8125 -6.592499999999999) rotate(-30) translate(-106.8125 6.592499999999999)"
      fill="white" stroke="black" stroke-width="2"/>
    <circle 
      cx="106.80739263297465" cy="-12.6045598304088"
      r="15" transform="translate(106.80739263297465 -6.6045598304088) scale(0.00001 -0.00001) translate(-106.80739263297465 6.6045598304088) translate(106.8125 -6.592499999999999) rotate(-30) translate(-106.8125 6.592499999999999)"
      fill="white" stroke="black" stroke-width="2"/>
    <circle 
      cx="106.81317531422316" cy="-12.612400754135596"
      r="15" transform="translate(106.81317531422316 -6.612400754135597) scale(0.00001 -0.00001) translate(-106.81317531422316 6.612400754135597) translate(106.8125 -6.592499999999999) rotate(-30) translate(-106.8125 6.592499999999999)"
      fill="white" stroke="black" stroke-width="2"/>
    <circle 
      cx="106.81468625974297" cy="-12.616027023383172"
      r="15" transform="translate(106.81468625974297 -6.616027023383172) scale(0.00001 -0.00001) translate(-106.81468625974297 6.616027023383172) translate(106.8125 -6.592499999999999) rotate(-30) translate(-106.8125 6.592499999999999)"
      fill="white" stroke="black" stroke-width="2"/>
    <circle 
      cx="106.81572153316628" cy="-12.62120437587875"
      r="15" transform="translate(106.81572153316628 -6.621204375878751) scale(0.00001 -0.00001) translate(-106.81572153316628 6.621204375878751) translate(106.8125 -6.592499999999999) rotate(-30) translate(-106.8125 6.592499999999999)"
      fill="white" stroke="black" stroke-width="2"/>
    <circle 
      cx="106.81431069487874" cy="-12.61616566770898"
      r="15" transform="translate(106.81431069487874 -6.616165667708981) scale(0.00001 -0.00001) translate(-106.81431069487874 6.616165667708981) translate(106.8125 -6.592499999999999) rotate(-30) translate(-106.8125 6.592499999999999)"
      fill="white" stroke="black" stroke-width="2"/>
    <circle 
      cx="106.81282542402391" cy="-12.612601017657362"
      r="15" transform="translate(106.81282542402391 -6.6126010176573615) scale(0.00001 -0.00001) translate(-106.81282542402391 6.6126010176573615) translate(106.8125 -6.592499999999999) rotate(-30) translate(-106.8125 6.592499999999999)"
      fill="white" stroke="black" stroke-width="2"/>
    <circle 
      cx="106.80857281139693" cy="-12.607089696435935"
      r="15" transform="translate(106.80857281139693 -6.607089696435936) scale(0.00001 -0.00001) translate(-106.80857281139693 6.607089696435936) translate(106.8125 -6.592499999999999) rotate(-30) translate(-106.8125 6.592499999999999)"
      fill="white" stroke="black" stroke-width="2"/>
    <circle 
      cx="106.80373126375692" cy="-12.602816174032366"
      r="15" transform="translate(106.80373126375692 -6.602816174032365) scale(0.00001 -0.00001) translate(-106.80373126375692 6.602816174032365) translate(106.8125 -6.592499999999999) rotate(-30) translate(-106.8125 6.592499999999999)"
      fill="white" stroke="black" stroke-width="2"/>
    <circle 
      cx="106.7998745045783" cy="-12.6037339938956"
      r="15" transform="translate(106.7998745045783 -6.603733993895601) scale(0.00001 -0.00001) translate(-106.7998745045783 6.603733993895601) translate(106.8125 -6.592499999999999) rotate(-30) translate(-106.8125 6.592499999999999)"
      fill="white" stroke="black" stroke-width="2"/>
    <circle 
      cx="106.7996936231912" cy="-12.603975169078398"
      r="15" transform="translate(106.7996936231912 -6.603975169078398) scale(0.00001 -0.00001) translate(-106.7996936231912 6.603975169078398) translate(106.8125 -6.592499999999999) rotate(-30) translate(-106.8125 6.592499999999999)"
      fill="white" stroke="black" stroke-width="2"/>
    <circle 
      cx="106.79925570682705" cy="-12.603994060792939"
      r="15" transform="translate(106.79925570682705 -6.60399406079294) scale(0.00001 -0.00001) translate(-106.79925570682705 6.60399406079294) translate(106.8125 -6.592499999999999) rotate(-30) translate(-106.8125 6.592499999999999)"
      fill="white" stroke="black" stroke-width="2"/>
    <circle 
      cx="106.7977855785734" cy="-12.60502599509962"
      r="15" transform="translate(106.7977855785734 -6.605025995099621) scale(0.00001 -0.00001) translate(-106.7977855785734 6.605025995099621) translate(106.8125 -6.592499999999999) rotate(-30) translate(-106.8125 6.592499999999999)"
      fill="white" stroke="black" stroke-width="2"/>
    <circle 
      cx="106.7970955115072" cy="-12.605109719910665"
      r="15" transform="translate(106.7970955115072 -6.605109719910664) scale(0.00001 -0.00001) translate(-106.7970955115072 6.605109719910664) translate(106.8125 -6.592499999999999) rotate(-30) translate(-106.8125 6.592499999999999)"
      fill="white" stroke="black" stroke-width="2"/>
    <circle 
      cx="106.79501410746802" cy="-12.604939587452225"
      r="15" transform="translate(106.79501410746802 -6.604939587452226) scale(0.00001 -0.00001) translate(-106.79501410746802 6.604939587452226) translate(106.8125 -6.592499999999999) rotate(-30) translate(-106.8125 6.592499999999999)"
      fill="white" stroke="black" stroke-width="2"/>
    <circle 
      cx="106.79223389538241" cy="-12.596946477706101"
      r="15" transform="translate(106.79223389538241 -6.596946477706101) scale(0.00001 -0.00001) translate(-106.79223389538241 6.596946477706101) translate(106.8125 -6.592499999999999) rotate(-30) translate(-106.8125 6.592499999999999)"
      fill="white" stroke="black" stroke-width="2"/>
    <circle 
      cx="106.79326738562813" cy="-12.593364562810812"
      r="15" transform="translate(106.79326738562813 -6.593364562810813) scale(0.00001 -0.00001) translate(-106.79326738562813 6.593364562810813) translate(106.8125 -6.592499999999999) rotate(-30) translate(-106.8125 6.592499999999999)"
      fill="white" stroke="black" stroke-width="2"/>
    <circle 
      cx="106.79729128771446" cy="-12.591458197655381"
      r="15" transform="translate(106.79729128771446 -6.59145819765538) scale(0.00001 -0.00001) translate(-106.79729128771446 6.59145819765538) translate(106.8125 -6.592499999999999) rotate(-30) translate(-106.8125 6.592499999999999)"
      fill="white" stroke="black" stroke-width="2"/>
    <circle 
      cx="106.80255020349426" cy="-12.591743187509213"
      r="15" transform="translate(106.80255020349426 -6.591743187509213) scale(0.00001 -0.00001) translate(-106.80255020349426 6.591743187509213) translate(106.8125 -6.592499999999999) rotate(-30) translate(-106.8125 6.592499999999999)"
      fill="white" stroke="black" stroke-width="2"/>
    <circle 
      cx="106.8030753617573" cy="-12.592685191056008"
      r="15" transform="translate(106.8030753617573 -6.592685191056008) scale(0.00001 -0.00001) translate(-106.8030753617573 6.592685191056008) translate(106.8125 -6.592499999999999) rotate(-30) translate(-106.8125 6.592499999999999)"
      fill="white" stroke="black" stroke-width="2"/>
    <circle 
      cx="106.80421782520581" cy="-12.591969459698806"
      r="15" transform="translate(106.80421782520581 -6.591969459698807) scale(0.00001 -0.00001) translate(-106.80421782520581 6.591969459698807) translate(106.8125 -6.592499999999999) rotate(-30) translate(-106.8125 6.592499999999999)"
      fill="white" stroke="black" stroke-width="2"/>
    <circle 
      cx="106.80650451416143" cy="-12.580757390122878"
      r="15" transform="translate(106.80650451416143 -6.580757390122878) scale(0.00001 -0.00001) translate(-106.80650451416143 6.580757390122878) translate(106.8125 -6.592499999999999) rotate(-30) translate(-106.8125 6.592499999999999)"
      fill="white" stroke="black" stroke-width="2"/>
    <circle 
      cx="106.79989210502765" cy="-12.616579080005717"
      r="15" transform="translate(106.79989210502765 -6.616579080005717) scale(0.00001 -0.00001) translate(-106.79989210502765 6.616579080005717) translate(106.8125 -6.592499999999999) rotate(-30) translate(-106.8125 6.592499999999999)"
      fill="white" stroke="black" stroke-width="2"/>
    <circle 
      cx="106.80709100622799" cy="-12.580884528220672"
      r="15" transform="translate(106.80709100622799 -6.580884528220671) scale(0.00001 -0.00001) translate(-106.80709100622799 6.580884528220671) translate(106.8125 -6.592499999999999) rotate(-30) translate(-106.8125 6.592499999999999)"
      fill="white" stroke="black" stroke-width="2"/>
    <circle 
      cx="106.80630414858472" cy="-12.591611289840301"
      r="15" transform="translate(106.80630414858472 -6.5916112898403005) scale(0.00001 -0.00001) translate(-106.80630414858472 6.5916112898403005) translate(106.8125 -6.592499999999999) rotate(-30) translate(-106.8125 6.592499999999999)"
      fill="white" stroke="none"/>
    <circle 
      cx="106.8054613852212" cy="-12.592828124054751"
      r="15" transform="translate(106.8054613852212 -6.592828124054751) scale(0.00001 -0.00001) translate(-106.8054613852212 6.592828124054751) translate(106.8125 -6.592499999999999) rotate(-30) translate(-106.8125 6.592499999999999)"
      fill="white" stroke="none"/>
    <circle 
      cx="106.80577831023722" cy="-12.595791820005548"
      r="15" transform="translate(106.80577831023722 -6.595791820005547) scale(0.00001 -0.00001) translate(-106.80577831023722 6.595791820005547) translate(106.8125 -6.592499999999999) rotate(-30) translate(-106.8125 6.592499999999999)"
      fill="white" stroke="none"/>
    <circle 
      cx="106.8055965287148" cy="-12.60079408315623"
      r="15" transform="translate(106.8055965287148 -6.60079408315623) scale(0.00001 -0.00001) translate(-106.8055965287148 6.60079408315623) translate(106.8125 -6.592499999999999) rotate(-30) translate(-106.8125 6.592499999999999)"
      fill="white" stroke="none"/>
    <circle 
      cx="106.80702903766382" cy="-12.603460357997148"
      r="15" transform="translate(106.80702903766382 -6.6034603579971485) scale(0.00001 -0.00001) translate(-106.80702903766382 6.6034603579971485) translate(106.8125 -6.592499999999999) rotate(-30) translate(-106.8125 6.592499999999999)"
      fill="white" stroke="none"/>
    <circle 
      cx="106.80739263297465" cy="-12.6045598304088"
      r="15" transform="translate(106.80739263297465 -6.6045598304088) scale(0.00001 -0.00001) translate(-106.80739263297465 6.6045598304088) translate(106.8125 -6.592499999999999) rotate(-30) translate(-106.8125 6.592499999999999)"
      fill="white" stroke="none"/>
    <circle 
      cx="106.81317531422316" cy="-12.612400754135596"
      r="15" transform="translate(106.81317531422316 -6.612400754135597) scale(0.00001 -0.00001) translate(-106.81317531422316 6.612400754135597) translate(106.8125 -6.592499999999999) rotate(-30) translate(-106.8125 6.592499999999999)"
      fill="white" stroke="none"/>
    <circle 
      cx="106.81468625974297" cy="-12.616027023383172"
      r="15" transform="translate(106.81468625974297 -6.616027023383172) scale(0.00001 -0.00001) translate(-106.81468625974297 6.616027023383172) translate(106.8125 -6.592499999999999) rotate(-30) translate(-106.8125 6.592499999999999)"
      fill="white" stroke="none"/>
    <circle 
      cx="106.81572153316628" cy="-12.62120437587875"
      r="15" transform="translate(106.81572153316628 -6.621204375878751) scale(0.00001 -0.00001) translate(-106.81572153316628 6.621204375878751) translate(106.8125 -6.592499999999999) rotate(-30) translate(-106.8125 6.592499999999999)"
      fill="white" stroke="none"/>
    <circle 
      cx="106.81431069487874" cy="-12.61616566770898"
      r="15" transform="translate(106.81431069487874 -6.616165667708981) scale(0.00001 -0.00001) translate(-106.81431069487874 6.616165667708981) translate(106.8125 -6.592499999999999) rotate(-30) translate(-106.8125 6.592499999999999)"
      fill="white" stroke="none"/>
    <circle 
      cx="106.81282542402391" cy="-12.612601017657362"
      r="15" transform="translate(106.81282542402391 -6.6126010176573615) scale(0.00001 -0.00001) translate(-106.81282542402391 6.6126010176573615) translate(106.8125 -6.592499999999999) rotate(-30) translate(-106.8125 6.592499999999999)"
      fill="white" stroke="none"/>
    <circle 
      cx="106.80857281139693" cy="-12.607089696435935"
      r="15" transform="translate(106.80857281139693 -6.607089696435936) scale(0.00001 -0.00001) translate(-106.80857281139693 6.607089696435936) translate(106.8125 -6.592499999999999) rotate(-30) translate(-106.8125 6.592499999999999)"
      fill="white" stroke="none"/>
    <circle 
      cx="106.80373126375692" cy="-12.602816174032366"
      r="15" transform="translate(106.80373126375692 -6.602816174032365) scale(0.00001 -0.00001) translate(-106.80373126375692 6.602816174032365) translate(106.8125 -6.592499999999999) rotate(-30) translate(-106.8125 6.592499999999999)"
      fill="white" stroke="none"/>
    <circle 
      cx="106.7998745045783" cy="-12.6037339938956"
      r="15" transform="translate(106.7998745045783 -6.603733993895601) scale(0.00001 -0.00001) translate(-106.7998745045783 6.603733993895601) translate(106.8125 -6.592499999999999) rotate(-30) translate(-106.8125 6.592499999999999)"
      fill="white" stroke="none"/>
    <circle 
      cx="106.7996936231912" cy="-12.603975169078398"
      r="15" transform="translate(106.7996936231912 -6.603975169078398) scale(0.00001 -0.00001) translate(-106.7996936231912 6.603975169078398) translate(106.8125 -6.592499999999999) rotate(-30) translate(-106.8125 6.592499999999999)"
      fill="white" stroke="none"/>
    <circle 
      cx="106.79925570682705" cy="-12.603994060792939"
      r="15" transform="translate(106.79925570682705 -6.60399406079294) scale(0.00001 -0.00001) translate(-106.79925570682705 6.60399406079294) translate(106.8125 -6.592499999999999) rotate(-30) translate(-106.8125 6.592499999999999)"
      fill="white" stroke="none"/>
    <circle 
      cx="106.7977855785734" cy="-12.60502599509962"
      r="15" transform="translate(106.7977855785734 -6.605025995099621) scale(0.00001 -0.00001) translate(-106.7977855785734 6.605025995099621) translate(106.8125 -6.592499999999999) rotate(-30) translate(-106.8125 6.592499999999999)"
      fill="white" stroke="none"/>
    <circle 
      cx="106.7970955115072" cy="-12.605109719910665"
      r="15" transform="translate(106.7970955115072 -6.605109719910664) scale(0.00001 -0.00001) translate(-106.7970955115072 6.605109719910664) translate(106.8125 -6.592499999999999) rotate(-30) translate(-106.8125 6.592499999999999)"
      fill="white" stroke="none"/>
    <circle 
      cx="106.79501410746802" cy="-12.604939587452225"
      r="15" transform="translate(106.79501410746802 -6.604939587452226) scale(0.00001 -0.00001) translate(-106.79501410746802 6.604939587452226) translate(106.8125 -6.592499999999999) rotate(-30) translate(-106.8125 6.592499999999999)"
      fill="white" stroke="none"/>
    <circle 
      cx="106.79223389538241" cy="-12.596946477706101"
      r="15" transform="translate(106.79223389538241 -6.596946477706101) scale(0.00001 -0.00001) translate(-106.79223389538241 6.596946477706101) translate(106.8125 -6.592499999999999) rotate(-30) translate(-106.8125 6.592499999999999)"
      fill="white" stroke="none"/>
    <circle 
      cx="106.79326738562813" cy="-12.593364562810812"
      r="15" transform="translate(106.79326738562813 -6.593364562810813) scale(0.00001 -0.00001) translate(-106.79326738562813 6.593364562810813) translate(106.8125 -6.592499999999999) rotate(-30) translate(-106.8125 6.592499999999999)"
      fill="white" stroke="none"/>
    <circle 
      cx="106.79729128771446" cy="-12.591458197655381"
      r="15" transform="translate(106.79729128771446 -6.59145819765538) scale(0.00001 -0.00001) translate(-106.79729128771446 6.59145819765538) translate(106.8125 -6.592499999999999) rotate(-30) translate(-106.8125 6.592499999999999)"
      fill="white" stroke="none"/>
    <circle 
      cx="106.80255020349426" cy="-12.591743187509213"
      r="15" transform="translate(106.80255020349426 -6.591743187509213) scale(0.00001 -0.00001) translate(-106.80255020349426 6.591743187509213) translate(106.8125 -6.592499999999999) rotate(-30) translate(-106.8125 6.592499999999999)"
      fill="white" stroke="none"/>
    <circle 
      cx="106.8030753617573" cy="-12.592685191056008"
      r="15" transform="translate(106.8030753617573 -6.592685191056008) scale(0.00001 -0.00001) translate(-106.8030753617573 6.592685191056008) translate(106.8125 -6.592499999999999) rotate(-30) translate(-106.8125 6.592499999999999)"
      fill="white" stroke="none"/>
    <circle 
      cx="106.80421782520581" cy="-12.591969459698806"
      r="15" transform="translate(106.80421782520581 -6.591969459698807) scale(0.00001 -0.00001) translate(-106.80421782520581 6.591969459698807) translate(106.8125 -6.592499999999999) rotate(-30) translate(-106.8125 6.592499999999999)"
      fill="white" stroke="none"/>
    <circle 
      cx="106.80650451416143" cy="-12.580757390122878"
      r="15" transform="translate(106.80650451416143 -6.580757390122878) scale(0.00001 -0.00001) translate(-106.80650451416143 6.580757390122878) translate(106.8125 -6.592499999999999) rotate(-30) translate(-106.8125 6.592499999999999)"
      fill="white" stroke="none"/>
    <circle 
      cx="106.79989210502765" cy="-12.616579080005717"
      r="15" transform="translate(106.79989210502765 -6.616579080005717) scale(0.00001 -0.00001) translate(-106.79989210502765 6.616579080005717) translate(106.8125 -6.592499999999999) rotate(-30) translate(-106.8125 6.592499999999999)"
      fill="white" stroke="none"/>
    <circle 
      cx="106.80709100622799" cy="-12.580884528220672"
      r="15" transform="translate(106.80709100622799 -6.580884528220671) scale(0.00001 -0.00001) translate(-106.80709100622799 6.580884528220671) translate(106.8125 -6.592499999999999) rotate(-30) translate(-106.8125 6.592499999999999)"
      fill="white" stroke="none"/>
    <text x="106.80630414858472" y="-6.5916112898403005" fill="black" text-anchor="middle" transform="translate(106.80630414858472 -6.5916112898403005) scale(0.00001 -0.00001) translate(-106.80630414858472 6.5916112898403005) translate(106.8125 -6.592499999999999) rotate(-30) translate(-106.8125 6.592499999999999)">09</text>
    <text x="106.8054613852212" y="-6.592828124054751" fill="black" text-anchor="middle" transform="translate(106.8054613852212 -6.592828124054751) scale(0.00001 -0.00001) translate(-106.8054613852212 6.592828124054751) translate(106.8125 -6.592499999999999) rotate(-30) translate(-106.8125 6.592499999999999)">09</text>
    <text x="106.80577831023722" y="-6.595791820005547" fill="black" text-anchor="middle" transform="translate(106.80577831023722 -6.595791820005547) scale(0.00001 -0.00001) translate(-106.80577831023722 6.595791820005547) translate(106.8125 -6.592499999999999) rotate(-30) translate(-106.8125 6.592499999999999)">09</text>
    <text x="106.8055965287148" y="-6.60079408315623" fill="black" text-anchor="middle" transform="translate(106.8055965287148 -6.60079408315623) scale(0.00001 -0.00001) translate(-106.8055965287148 6.60079408315623) translate(106.8125 -6.592499999999999) rotate(-30) translate(-106.8125 6.592499999999999)">09</text>
    <text x="106.80702903766382" y="-6.6034603579971485" fill="black" text-anchor="middle" transform="translate(106.80702903766382 -6.6034603579971485) scale(0.00001 -0.00001) translate(-106.80702903766382 6.6034603579971485) translate(106.8125 -6.592499999999999) rotate(-30) translate(-106.8125 6.592499999999999)">09</text>
    <text x="106.80739263297465" y="-6.6045598304088" fill="black" text-anchor="middle" transform="translate(106.80739263297465 -6.6045598304088) scale(0.00001 -0.00001) translate(-106.80739263297465 6.6045598304088) translate(106.8125 -6.592499999999999) rotate(-30) translate(-106.8125 6.592499999999999)">09</text>
    <text x="106.81317531422316" y="-6.612400754135597" fill="black" text-anchor="middle" transform="translate(106.81317531422316 -6.612400754135597) scale(0.00001 -0.00001) translate(-106.81317531422316 6.612400754135597) translate(106.8125 -6.592499999999999) rotate(-30) translate(-106.8125 6.592499999999999)">09</text>
    <text x="106.81468625974297" y="-6.616027023383172" fill="black" text-anchor="middle" transform="translate(106.81468625974297 -6.616027023383172) scale(0.00001 -0.00001) translate(-106.81468625974297 6.616027023383172) translate(106.8125 -6.592499999999999) rotate(-30) translate(-106.8125 6.592499999999999)">09</text>
    <text x="106.81572153316628" y="-6.621204375878751" fill="black" text-anchor="middle" transform="translate(106.81572153316628 -6.621204375878751) scale(0.00001 -0.00001) translate(-106.81572153316628 6.621204375878751) translate(106.8125 -6.592499999999999) rotate(-30) translate(-106.8125 6.592499999999999)">09</text>
    <text x="106.81431069487874" y="-6.616165667708981" fill="black" text-anchor="middle" transform="translate(106.81431069487874 -6.616165667708981) scale(0.00001 -0.00001) translate(-106.81431069487874 6.616165667708981) translate(106.8125 -6.592499999999999) rotate(-30) translate(-106.8125 6.592499999999999)">09</text>
    <text x="106.81282542402391" y="-6.6126010176573615" fill="black" text-anchor="middle" transform="translate(106.81282542402391 -6.6126010176573615) scale(0.00001 -0.00001) translate(-106.81282542402391 6.6126010176573615) translate(106.8125 -6.592499999999999) rotate(-30) translate(-106.8125 6.592499999999999)">09</text>
    <text x="106.80857281139693" y="-6.607089696435936" fill="black" text-anchor="middle" transform="translate(106.80857281139693 -6.607089696435936) scale(0.00001 -0.00001) translate(-106.80857281139693 6.607089696435936) translate(106.8125 -6.592499999999999) rotate(-30) translate(-106.8125 6.592499999999999)">09</text>
    <text x="106.80373126375692" y="-6.602816174032365" fill="black" text-anchor="middle" transform="translate(106.80373126375692 -6.602816174032365) scale(0.00001 -0.00001) translate(-106.80373126375692 6.602816174032365) translate(106.8125 -6.592499999999999) rotate(-30) translate(-106.8125 6.592499999999999)">09</text>
    <text x="106.7998745045783" y="-6.603733993895601" fill="black" text-anchor="middle" transform="translate(106.7998745045783 -6.603733993895601) scale(0.00001 -0.00001) translate(-106.7998745045783 6.603733993895601) translate(106.8125 -6.592499999999999) rotate(-30) translate(-106.8125 6.592499999999999)">09</text>
    <text x="106.7996936231912" y="-6.603975169078398" fill="black" text-anchor="middle" transform="translate(106.7996936231912 -6.603975169078398) scale(0.00001 -0.00001) translate(-106.7996936231912 6.603975169078398) translate(106.8125 -6.592499999999999) rotate(-30) translate(-106.8125 6.592499999999999)">09</text>
    <text x="106.79925570682705" y="-6.60399406079294" fill="black" text-anchor="middle" transform="translate(106.79925570682705 -6.60399406079294) scale(0.00001 -0.00001) translate(-106.79925570682705 6.60399406079294) translate(106.8125 -6.592499999999999) rotate(-30) translate(-106.8125 6.592499999999999)">09</text>
    <text x="106.7977855785734" y="-6.605025995099621" fill="black" text-anchor="middle" transform="translate(106.7977855785734 -6.605025995099621) scale(0.00001 -0.00001) translate(-106.7977855785734 6.605025995099621) translate(106.8125 -6.592499999999999) rotate(-30) translate(-106.8125 6.592499999999999)">09</text>
    <text x="106.7970955115072" y="-6.605109719910664" fill="black" text-anchor="middle" transform="translate(106.7970955115072 -6.605109719910664) scale(0.00001 -0.00001) translate(-106.7970955115072 6.605109719910664) translate(106.8125 -6.592499999999999) rotate(-30) translate(-106.8125 6.592499999999999)">09</text>
    <text x="106.79501410746802" y="-6.604939587452226" fill="black" text-anchor="middle" transform="translate(106.79501410746802 -6.604939587452226) scale(0.00001 -0.00001) translate(-106.79501410746802 6.604939587452226) translate(106.8125 -6.592499999999999) rotate(-30) translate(-106.8125 6.592499999999999)">09</text>
    <text x="106.79223389538241" y="-6.596946477706101" fill="black" text-anchor="middle" transform="translate(106.79223389538241 -6.596946477706101) scale(0.00001 -0.00001) translate(-106.79223389538241 6.596946477706101) translate(106.8125 -6.592499999999999) rotate(-30) translate(-106.8125 6.592499999999999)">09</text>
    <text x="106.79326738562813" y="-6.593364562810813" fill="black" text-anchor="middle" transform="translate(106.79326738562813 -6.593364562810813) scale(0.00001 -0.00001) translate(-106.79326738562813 6.593364562810813) translate(106.8125 -6.592499999999999) rotate(-30) translate(-106.8125 6.592499999999999)">09</text>
    <text x="106.79729128771446" y="-6.59145819765538" fill="black" text-anchor="middle" transform="translate(106.79729128771446 -6.59145819765538) scale(0.00001 -0.00001) translate(-106.79729128771446 6.59145819765538) translate(106.8125 -6.592499999999999) rotate(-30) translate(-106.8125 6.592499999999999)">09</text>
    <text x="106.80255020349426" y="-6.591743187509213" fill="black" text-anchor="middle" transform="translate(106.80255020349426 -6.591743187509213) scale(0.00001 -0.00001) translate(-106.80255020349426 6.591743187509213) translate(106.8125 -6.592499999999999) rotate(-30) translate(-106.8125 6.592499999999999)">09</text>
    <text x="106.8030753617573" y="-6.592685191056008" fill="black" text-anchor="middle" transform="translate(106.8030753617573 -6.592685191056008) scale(0.00001 -0.00001) translate(-106.8030753617573 6.592685191056008) translate(106.8125 -6.592499999999999) rotate(-30) translate(-106.8125 6.592499999999999)">09</text>
    <text x="106.80421782520581" y="-6.591969459698807" fill="black" text-anchor="middle" transform="translate(106.80421782520581 -6.591969459698807) scale(0.00001 -0.00001) translate(-106.80421782520581 6.591969459698807) translate(106.8125 -6.592499999999999) rotate(-30) translate(-106.8125 6.592499999999999)">09</text>
    <text x="106.80650451416143" y="-6.580757390122878" fill="black" text-anchor="middle" transform="translate(106.80650451416143 -6.580757390122878) scale(0.00001 -0.00001) translate(-106.80650451416143 6.580757390122878) translate(106.8125 -6.592499999999999) rotate(-30) translate(-106.8125 6.592499999999999)">09</text>
    <text x="106.79989210502765" y="-6.616579080005717" fill="black" text-anchor="middle" transform="translate(106.79989210502765 -6.616579080005717) scale(0.00001 -0.00001) translate(-106.79989210502765 6.616579080005717) translate(106.8125 -6.592499999999999) rotate(-30) translate(-106.8125 6.592499999999999)">09</text>
    <text x="106.80709100622799" y="-6.580884528220671" fill="black" text-anchor="middle" transform="translate(106.80709100622799 -6.580884528220671) scale(0.00001 -0.00001) translate(-106.80709100622799 6.580884528220671) translate(106.8125 -6.592499999999999) rotate(-30) translate(-106.8125 6.592499999999999)">09</text>
    <line x1="106.8067" y1="-6.5808" x2="106.8049" y2="-6.5886" style="stroke:rgb(255,0,0);stroke-width:.00002" />
    <line x1="106.80708975647829" y1="-6.5808899438026796" x2="106.80528975647829" y2="-6.588689943802679" style="stroke:rgb(0,0,0);stroke-width:.00002" />
    <circle cx="106.8067" cy="-6.5808" fill="rgb(255,0,0)" r=".0001" />
    <text x="106.8067" y="-6.5808" stroke="rgb(0,0,0)" transform="translate(106.8067 -6.5808),scale(0.00001 -0.00001),translate(-106.8067 6.5808),translate(106.8125 -6.592499999999999),rotate(-30),translate(-106.8125 6.592499999999999)" >pajajaran-sobana</text>
    <line x1="106.8049" y1="-6.5886" x2="106.805904" y2="-6.588862" style="stroke:rgb(255,0,0);stroke-width:.00002" />
    <line x1="106.8050010001441" y1="-6.588212961279854" x2="106.8060050001441" y2="-6.5884749612798545" style="stroke:rgb(0,0,0);stroke-width:.00002" />
    <circle cx="106.8049" cy="-6.5886" fill="rgb(255,0,0)" r=".0001" />
    <text x="106.8049" y="-6.5886" stroke="rgb(0,0,0)" transform="translate(106.8049 -6.5886),scale(0.00001 -0.00001),translate(-106.8049 6.5886),translate(106.8125 -6.592499999999999),rotate(-30),translate(-106.8125 6.592499999999999)" >salak-pajajaran</text>
    <line x1="106.805904" y1="-6.588862" x2="106.805706" y2="-6.591276" style="stroke:rgb(255,0,0);stroke-width:.00002" />
    <line x1="106.80630266124447" y1="-6.588894698809613" x2="106.80630399186671" y2="-6.5913250482144194" style="stroke:rgb(0,0,0);stroke-width:.00002" />
    <circle cx="106.805904" cy="-6.588862" fill="rgb(255,0,0)" r=".0001" />
    <text x="106.805904" y="-6.588862" stroke="rgb(0,0,0)" transform="translate(106.805904 -6.588862),scale(0.00001 -0.00001),translate(-106.805904 6.588862),translate(106.8125 -6.592499999999999),rotate(-30),translate(-106.8125 6.592499999999999)" >lodaya-N</text>
    <line x1="106.805706" y1="-6.591276" x2="106.805701" y2="-6.592177" style="stroke:rgb(255,0,0);stroke-width:.00002" />
    <line x1="106.8063059907615" y1="-6.5912793295824725" x2="106.8063009907615" y2="-6.592180329582473" style="stroke:rgb(0,0,0);stroke-width:.00002" />
    <circle cx="106.805706" cy="-6.591276" fill="rgb(255,0,0)" r=".0001" />
    <text x="106.805706" y="-6.591276" stroke="rgb(0,0,0)" transform="translate(106.805706 -6.591276),scale(0.00001 -0.00001),translate(-106.805706 6.591276),translate(106.8125 -6.592499999999999),rotate(-30),translate(-106.8125 6.592499999999999)" >lodaya-M</text>
    <line x1="106.805701" y1="-6.592177" x2="106.8046" y2="-6.5922" style="stroke:rgb(255,0,0);stroke-width:.00002" />
    <line x1="106.80571353132594" y1="-6.592776869123952" x2="106.80461670843457" y2="-6.592999825498602" style="stroke:rgb(0,0,0);stroke-width:.00002" />
    <circle cx="106.805701" cy="-6.592177" fill="rgb(255,0,0)" r=".0001" />
    <text x="106.805701" y="-6.592177" stroke="rgb(0,0,0)" transform="translate(106.805701 -6.592177),scale(0.00001 -0.00001),translate(-106.805701 6.592177),translate(106.8125 -6.592499999999999),rotate(-30),translate(-106.8125 6.592499999999999)" >lodaya-S</text>
    <line x1="106.8046" y1="-6.5922" x2="106.8044" y2="-6.5959" style="stroke:rgb(255,0,0);stroke-width:.00002" />
    <line x1="106.80539883381861" y1="-6.5922431802064105" x2="106.80579795918258" y2="-6.595975565361218" style="stroke:rgb(0,0,0);stroke-width:.00002" />
    <circle cx="106.8046" cy="-6.5922" fill="rgb(255,0,0)" r=".0001" />
    <text x="106.8046" y="-6.5922" stroke="rgb(0,0,0)" transform="translate(106.8046 -6.5922),scale(0.00001 -0.00001),translate(-106.8046 6.5922),translate(106.8125 -6.592499999999999),rotate(-30),translate(-106.8125 6.592499999999999)" >pangrango-pajajaran</text>
    <line x1="106.8044" y1="-6.5959" x2="106.8052" y2="-6.6009" style="stroke:rgb(255,0,0);stroke-width:.00002" />
    <line x1="106.80578241688468" y1="-6.595678813298451" x2="106.80559497625276" y2="-6.600836803799558" style="stroke:rgb(0,0,0);stroke-width:.00002" />
    <circle cx="106.8044" cy="-6.5959" fill="rgb(255,0,0)" r=".0001" />
    <text x="106.8044" y="-6.5959" stroke="rgb(0,0,0)" transform="translate(106.8044 -6.5959),scale(0.00001 -0.00001),translate(-106.8044 6.5959),translate(106.8125 -6.592499999999999),rotate(-30),translate(-106.8125 6.592499999999999)" >kb-astrid</text>
    <line x1="106.8052" y1="-6.6009" x2="106.8068" y2="-6.6043" style="stroke:rgb(255,0,0);stroke-width:.00002" />
    <line x1="106.80556192748088" y1="-6.600729681185468" x2="106.80734289122131" y2="-6.604044521778203" style="stroke:rgb(0,0,0);stroke-width:.00002" />
    <circle cx="106.8052" cy="-6.6009" fill="rgb(255,0,0)" r=".0001" />
    <text x="106.8052" y="-6.6009" stroke="rgb(0,0,0)" transform="translate(106.8052 -6.6009),scale(0.00001 -0.00001),translate(-106.8052 6.6009),translate(106.8125 -6.592499999999999),rotate(-30),translate(-106.8125 6.592499999999999)" >kb-botani-1</text>
    <line x1="106.8068" y1="-6.6043" x2="106.8111" y2="-6.6017" style="stroke:rgb(255,0,0);stroke-width:.00002" />
    <line x1="106.80648954839666" y1="-6.603786560809852" x2="106.81078954839666" y2="-6.601186560809852" style="stroke:rgb(0,0,0);stroke-width:.00002" />
    <circle cx="106.8068" cy="-6.6043" fill="rgb(255,0,0)" r=".0001" />
    <text x="106.8068" y="-6.6043" stroke="rgb(0,0,0)" transform="translate(106.8068 -6.6043),scale(0.00001 -0.00001),translate(-106.8068 6.6043),translate(106.8125 -6.592499999999999),rotate(-30),translate(-106.8125 6.592499999999999)" >tol-1</text>
    <line x1="106.8111" y1="-6.6017" x2="106.8071" y2="-6.6045" style="stroke:rgb(255,0,0);stroke-width:.00002" />
    <line x1="106.81144407740662" y1="-6.602191539152312" x2="106.80721469246888" y2="-6.604663846384104" style="stroke:rgb(0,0,0);stroke-width:.00002" />
    <circle cx="106.8111" cy="-6.6017" fill="rgb(255,0,0)" r=".0001" />
    <text x="106.8111" y="-6.6017" stroke="rgb(0,0,0)" transform="translate(106.8111 -6.6017),scale(0.00001 -0.00001),translate(-106.8111 6.6017),translate(106.8125 -6.592499999999999),rotate(-30),translate(-106.8125 6.592499999999999)" >tol-2</text>
    <line x1="106.8071" y1="-6.6045" x2="106.813" y2="-6.6125" style="stroke:rgb(255,0,0);stroke-width:.00002" />
    <line x1="106.80726096058174" y1="-6.604381291570963" x2="106.81316096058174" y2="-6.612381291570963" style="stroke:rgb(0,0,0);stroke-width:.00002" />
    <circle cx="106.8071" cy="-6.6045" fill="rgb(255,0,0)" r=".0001" />
    <text x="106.8071" y="-6.6045" stroke="rgb(0,0,0)" transform="translate(106.8071 -6.6045),scale(0.00001 -0.00001),translate(-106.8071 6.6045),translate(106.8125 -6.592499999999999),rotate(-30),translate(-106.8125 6.592499999999999)" >tol-3</text>
    <line x1="106.813" y1="-6.6125" x2="106.8145" y2="-6.6161" style="stroke:rgb(255,0,0);stroke-width:.00002" />
    <line x1="106.81318461538461" y1="-6.612423076923077" x2="106.8146846153846" y2="-6.616023076923078" style="stroke:rgb(0,0,0);stroke-width:.00002" />
    <circle cx="106.813" cy="-6.6125" fill="rgb(255,0,0)" r=".0001" />
    <text x="106.813" y="-6.6125" stroke="rgb(0,0,0)" transform="translate(106.813 -6.6125),scale(0.00001 -0.00001),translate(-106.813 6.6125),translate(106.8125 -6.592499999999999),rotate(-30),translate(-106.8125 6.592499999999999)" >pajajaran-pjjindah</text>
    <line x1="106.8145" y1="-6.6161" x2="106.8163" y2="-6.621" style="stroke:rgb(255,0,0);stroke-width:.00002" />
    <line x1="106.8146877339519" y1="-6.616031036507464" x2="106.8164877339519" y2="-6.620931036507464" style="stroke:rgb(0,0,0);stroke-width:.00002" />
    <circle cx="106.8145" cy="-6.6161" fill="rgb(255,0,0)" r=".0001" />
    <text x="106.8145" y="-6.6161" stroke="rgb(0,0,0)" transform="translate(106.8145 -6.6161),scale(0.00001 -0.00001),translate(-106.8145 6.6161),translate(106.8125 -6.592499999999999),rotate(-30),translate(-106.8125 6.592499999999999)" >pajajaran-durian</text>
    <line x1="106.8163" y1="-6.621" x2="106.8164" y2="-6.6212" style="stroke:rgb(255,0,0);stroke-width:.00002" />
    <line x1="106.8164788854382" y1="-6.620910557280898" x2="106.8165788854382" y2="-6.621110557280898" style="stroke:rgb(0,0,0);stroke-width:.00002" />
    <circle cx="106.8163" cy="-6.621" fill="rgb(255,0,0)" r=".0001" />
    <text x="106.8163" y="-6.621" stroke="rgb(0,0,0)" transform="translate(106.8163 -6.621),scale(0.00001 -0.00001),translate(-106.8163 6.621),translate(106.8125 -6.592499999999999),rotate(-30),translate(-106.8125 6.592499999999999)" >lippo-n</text>
    <line x1="106.8164" y1="-6.6212" x2="106.8162" y2="-6.6214" style="stroke:rgb(255,0,0);stroke-width:.00002" />
    <line x1="106.81654142135623" y1="-6.62134142135624" x2="106.81634142135623" y2="-6.62154142135624" style="stroke:rgb(0,0,0);stroke-width:.00002" />
    <circle cx="106.8164" cy="-6.6212" fill="rgb(255,0,0)" r=".0001" />
    <text x="106.8164" y="-6.6212" stroke="rgb(0,0,0)" transform="translate(106.8164 -6.6212),scale(0.00001 -0.00001),translate(-106.8164 6.6212),translate(106.8125 -6.592499999999999),rotate(-30),translate(-106.8125 6.592499999999999)" >lippo-e</text>
    <line x1="106.8162" y1="-6.6214" x2="106.8159" y2="-6.6211" style="stroke:rgb(255,0,0);stroke-width:.00002" />
    <line x1="106.81605857864376" y1="-6.621541421356237" x2="106.81575857864377" y2="-6.6212414213562365" style="stroke:rgb(0,0,0);stroke-width:.00002" />
    <circle cx="106.8162" cy="-6.6214" fill="rgb(255,0,0)" r=".0001" />
    <text x="106.8162" y="-6.6214" stroke="rgb(0,0,0)" transform="translate(106.8162 -6.6214),scale(0.00001 -0.00001),translate(-106.8162 6.6214),translate(106.8125 -6.592499999999999),rotate(-30),translate(-106.8125 6.592499999999999)" >lippo-s</text>
    <line x1="106.8159" y1="-6.6211" x2="106.8145" y2="-6.6161" style="stroke:rgb(255,0,0);stroke-width:.00002" />
    <line x1="106.81570740719606" y1="-6.621153925985104" x2="106.81430740719605" y2="-6.616153925985104" style="stroke:rgb(0,0,0);stroke-width:.00002" />
    <circle cx="106.8159" cy="-6.6211" fill="rgb(255,0,0)" r=".0001" />
    <text x="106.8159" y="-6.6211" stroke="rgb(0,0,0)" transform="translate(106.8159 -6.6211),scale(0.00001 -0.00001),translate(-106.8159 6.6211),translate(106.8125 -6.592499999999999),rotate(-30),translate(-106.8125 6.592499999999999)" >lippo-w</text>
    <line x1="106.8145" y1="-6.6161" x2="106.813" y2="-6.6125" style="stroke:rgb(255,0,0);stroke-width:.00002" />
    <line x1="106.81431538461538" y1="-6.616176923076923" x2="106.81281538461539" y2="-6.612576923076922" style="stroke:rgb(0,0,0);stroke-width:.00002" />
    <circle cx="106.8145" cy="-6.6161" fill="rgb(255,0,0)" r=".0001" />
    <text x="106.8145" y="-6.6161" stroke="rgb(0,0,0)" transform="translate(106.8145 -6.6161),scale(0.00001 -0.00001),translate(-106.8145 6.6161),translate(106.8125 -6.592499999999999),rotate(-30),translate(-106.8125 6.592499999999999)" >pajajaran-durian</text>
    <line x1="106.813" y1="-6.6125" x2="106.8087" y2="-6.6066" style="stroke:rgb(255,0,0);stroke-width:.00002" />
    <line x1="106.81283837132868" y1="-6.612617797167232" x2="106.80837674265736" y2="-6.6068355943344645" style="stroke:rgb(0,0,0);stroke-width:.00002" />
    <circle cx="106.813" cy="-6.6125" fill="rgb(255,0,0)" r=".0001" />
    <text x="106.813" y="-6.6125" stroke="rgb(0,0,0)" transform="translate(106.813 -6.6125),scale(0.00001 -0.00001),translate(-106.813 6.6125),translate(106.8125 -6.592499999999999),rotate(-30),translate(-106.8125 6.592499999999999)" >pajajaran-pjjindah</text>
    <line x1="106.8087" y1="-6.6066" x2="106.808" y2="-6.6069" style="stroke:rgb(255,0,0);stroke-width:.00002" />
    <line x1="106.80885756771943" y1="-6.606967658012007" x2="106.80815756771943" y2="-6.607267658012007" style="stroke:rgb(0,0,0);stroke-width:.00002" />
    <circle cx="106.8087" cy="-6.6066" fill="rgb(255,0,0)" r=".0001" />
    <text x="106.8087" y="-6.6066" stroke="rgb(0,0,0)" transform="translate(106.8087 -6.6066),scale(0.00001 -0.00001),translate(-106.8087 6.6066),translate(106.8125 -6.592499999999999),rotate(-30),translate(-106.8125 6.592499999999999)" >bangka-1</text>
    <line x1="106.808" y1="-6.6069" x2="106.8074" y2="-6.6065" style="stroke:rgb(255,0,0);stroke-width:.00002" />
    <line x1="106.80777811992152" y1="-6.607232820117736" x2="106.80717811992152" y2="-6.606832820117735" style="stroke:rgb(0,0,0);stroke-width:.00002" />
    <circle cx="106.808" cy="-6.6069" fill="rgb(255,0,0)" r=".0001" />
    <text x="106.808" y="-6.6069" stroke="rgb(0,0,0)" transform="translate(106.808 -6.6069),scale(0.00001 -0.00001),translate(-106.808 6.6069),translate(106.8125 -6.592499999999999),rotate(-30),translate(-106.8125 6.592499999999999)" >bangka-2</text>
    <line x1="106.8074" y1="-6.6065" x2="106.8067" y2="-6.6066" style="stroke:rgb(255,0,0);stroke-width:.00002" />
    <line x1="106.80745656854249" y1="-6.606895979797464" x2="106.8067565685425" y2="-6.606995979797465" style="stroke:rgb(0,0,0);stroke-width:.00002" />
    <circle cx="106.8074" cy="-6.6065" fill="rgb(255,0,0)" r=".0001" />
    <text x="106.8074" y="-6.6065" stroke="rgb(0,0,0)" transform="translate(106.8074 -6.6065),scale(0.00001 -0.00001),translate(-106.8074 6.6065),translate(106.8125 -6.592499999999999),rotate(-30),translate(-106.8125 6.592499999999999)" >bangka-3</text>
    <line x1="106.8067" y1="-6.6066" x2="106.8058" y2="-6.6052" style="stroke:rgb(255,0,0);stroke-width:.00002" />
    <line x1="106.80636352860985" y1="-6.606816303036526" x2="106.80546352860985" y2="-6.605416303036526" style="stroke:rgb(0,0,0);stroke-width:.00002" />
    <circle cx="106.8067" cy="-6.6066" fill="rgb(255,0,0)" r=".0001" />
    <text x="106.8067" y="-6.6066" stroke="rgb(0,0,0)" transform="translate(106.8067 -6.6066),scale(0.00001 -0.00001),translate(-106.8067 6.6066),translate(106.8125 -6.592499999999999),rotate(-30),translate(-106.8125 6.592499999999999)" >bangka-5</text>
    <line x1="106.8058" y1="-6.6052" x2="106.8051" y2="-6.6052" style="stroke:rgb(255,0,0);stroke-width:.00002" />
    <line x1="106.8058" y1="-6.6056" x2="106.8051" y2="-6.6056" style="stroke:rgb(0,0,0);stroke-width:.00002" />
    <circle cx="106.8058" cy="-6.6052" fill="rgb(255,0,0)" r=".0001" />
    <text x="106.8058" y="-6.6052" stroke="rgb(0,0,0)" transform="translate(106.8058 -6.6052),scale(0.00001 -0.00001),translate(-106.8058 6.6052),translate(106.8125 -6.592499999999999),rotate(-30),translate(-106.8125 6.592499999999999)" >bangka-6</text>
    <line x1="106.8051" y1="-6.6052" x2="106.804329" y2="-6.601646" style="stroke:rgb(255,0,0);stroke-width:.00002" />
    <line x1="106.80470909276117" y1="-6.605284802892835" x2="106.80335173190294" y2="-6.601858007232087" style="stroke:rgb(0,0,0);stroke-width:.00002" />
    <circle cx="106.8051" cy="-6.6052" fill="rgb(255,0,0)" r=".0001" />
    <text x="106.8051" y="-6.6052" stroke="rgb(0,0,0)" transform="translate(106.8051 -6.6052),scale(0.00001 -0.00001),translate(-106.8051 6.6052),translate(106.8125 -6.592499999999999),rotate(-30),translate(-106.8125 6.592499999999999)" >bangka-7</text>
    <line x1="106.804329" y1="-6.601646" x2="106.7999" y2="-6.6027" style="stroke:rgb(255,0,0);stroke-width:.00002" />
    <line x1="106.8045605116433" y1="-6.602618832133008" x2="106.8001315116433" y2="-6.603672832133008" style="stroke:rgb(0,0,0);stroke-width:.00002" />
    <circle cx="106.804329" cy="-6.601646" fill="rgb(255,0,0)" r=".0001" />
    <text x="106.804329" y="-6.601646" stroke="rgb(0,0,0)" transform="translate(106.804329 -6.601646),scale(0.00001 -0.00001),translate(-106.804329 6.601646),translate(106.8125 -6.592499999999999),rotate(-30),translate(-106.8125 6.592499999999999)" >bangka-otista</text>
    <line x1="106.7999" y1="-6.6027" x2="106.7996" y2="-6.6027" style="stroke:rgb(255,0,0);stroke-width:.00002" />
    <line x1="106.7999" y1="-6.6037" x2="106.7996" y2="-6.6041" style="stroke:rgb(0,0,0);stroke-width:.00002" />
    <circle cx="106.7999" cy="-6.6027" fill="rgb(255,0,0)" r=".0001" />
    <text x="106.7999" y="-6.6027" stroke="rgb(0,0,0)" transform="translate(106.7999 -6.6027),scale(0.00001 -0.00001),translate(-106.7999 6.6027),translate(106.8125 -6.592499999999999),rotate(-30),translate(-106.8125 6.592499999999999)" >otista-roda</text>
    <line x1="106.7996" y1="-6.6027" x2="106.7988" y2="-6.6031" style="stroke:rgb(255,0,0);stroke-width:.00002" />
    <line x1="106.8002260990337" y1="-6.6039521980673985" x2="106.7992472135955" y2="-6.603994427190999" style="stroke:rgb(0,0,0);stroke-width:.00002" />
    <circle cx="106.7996" cy="-6.6027" fill="rgb(255,0,0)" r=".0001" />
    <text x="106.7996" y="-6.6027" stroke="rgb(0,0,0)" transform="translate(106.7996 -6.6027),scale(0.00001 -0.00001),translate(-106.7996 6.6027),translate(106.8125 -6.592499999999999),rotate(-30),translate(-106.8125 6.592499999999999)" >kb-otista</text>
    <line x1="106.7988" y1="-6.6031" x2="106.797256" y2="-6.603941" style="stroke:rgb(255,0,0);stroke-width:.00002" />
    <line x1="106.79927833399735" y1="-6.603978177992764" x2="106.79783000079684" y2="-6.604994813591317" style="stroke:rgb(0,0,0);stroke-width:.00002" />
    <circle cx="106.7988" cy="-6.6031" fill="rgb(255,0,0)" r=".0001" />
    <text x="106.7988" y="-6.6031" stroke="rgb(0,0,0)" transform="translate(106.7988 -6.6031),scale(0.00001 -0.00001),translate(-106.7988 6.6031),translate(106.8125 -6.592499999999999),rotate(-30),translate(-106.8125 6.592499999999999)" >kb-suryakencana</text>
    <line x1="106.797256" y1="-6.603941" x2="106.7967" y2="-6.6042" style="stroke:rgb(255,0,0);stroke-width:.00002" />
    <line x1="106.7977627127149" y1="-6.605028769380231" x2="106.79712226059574" y2="-6.605106474483526" style="stroke:rgb(0,0,0);stroke-width:.00002" />
    <circle cx="106.797256" cy="-6.603941" fill="rgb(255,0,0)" r=".0001" />
    <text x="106.797256" y="-6.603941" stroke="rgb(0,0,0)" transform="translate(106.797256 -6.603941),scale(0.00001 -0.00001),translate(-106.797256 6.603941),translate(106.8125 -6.592499999999999),rotate(-30),translate(-106.8125 6.592499999999999)" >cincau-kb</text>
    <line x1="106.7967" y1="-6.6042" x2="106.7961" y2="-6.6038" style="stroke:rgb(255,0,0);stroke-width:.00002" />
    <line x1="106.79614529980378" y1="-6.60503205029434" x2="106.79532341972529" y2="-6.6049648704120765" style="stroke:rgb(0,0,0);stroke-width:.00002" />
    <circle cx="106.7967" cy="-6.6042" fill="rgb(255,0,0)" r=".0001" />
    <text x="106.7967" y="-6.6042" stroke="rgb(0,0,0)" transform="translate(106.7967 -6.6042),scale(0.00001 -0.00001),translate(-106.7967 6.6042),translate(106.8125 -6.592499999999999),rotate(-30),translate(-106.8125 6.592499999999999)" >kb-btm-1</text>
    <line x1="106.7961" y1="-6.6038" x2="106.7937" y2="-6.5969" style="stroke:rgb(255,0,0);stroke-width:.00002" />
    <line x1="106.7947777044846" y1="-6.604259928874916" x2="106.79237770448461" y2="-6.5973599288749165" style="stroke:rgb(0,0,0);stroke-width:.00002" />
    <circle cx="106.7961" cy="-6.6038" fill="rgb(255,0,0)" r=".0001" />
    <text x="106.7961" y="-6.6038" stroke="rgb(0,0,0)" transform="translate(106.7961 -6.6038),scale(0.00001 -0.00001),translate(-106.7961 6.6038),translate(106.8125 -6.592499999999999),rotate(-30),translate(-106.8125 6.592499999999999)" >kb-btm-2</text>
    <line x1="106.7937" y1="-6.5969" x2="106.7946" y2="-6.5945" style="stroke:rgb(255,0,0);stroke-width:.00002" />
    <line x1="106.79238913915141" y1="-6.596408427181776" x2="106.79310187331589" y2="-6.593938202493458" style="stroke:rgb(0,0,0);stroke-width:.00002" />
    <circle cx="106.7937" cy="-6.5969" fill="rgb(255,0,0)" r=".0001" />
    <text x="106.7937" y="-6.5969" stroke="rgb(0,0,0)" transform="translate(106.7937 -6.5969),scale(0.00001 -0.00001),translate(-106.7937 6.5969),translate(106.8125 -6.592499999999999),rotate(-30),translate(-106.8125 6.592499999999999)" >kb-muslihat</text>
    <line x1="106.7946" y1="-6.5945" x2="106.7973" y2="-6.593" style="stroke:rgb(255,0,0);stroke-width:.00002" />
    <line x1="106.79382297131012" y1="-6.593101348358205" x2="106.79662009989636" y2="-6.591776179813429" style="stroke:rgb(0,0,0);stroke-width:.00002" />
    <circle cx="106.7946" cy="-6.5945" fill="rgb(255,0,0)" r=".0001" />
    <text x="106.7946" y="-6.5945" stroke="rgb(0,0,0)" transform="translate(106.7946 -6.5945),scale(0.00001 -0.00001),translate(-106.7946 6.5945),translate(106.8125 -6.592499999999999),rotate(-30),translate(-106.8125 6.592499999999999)" >kb-gedong-sawah</text>
    <line x1="106.7973" y1="-6.593" x2="106.7984" y2="-6.5935" style="stroke:rgb(255,0,0);stroke-width:.00002" />
    <line x1="106.79787932412204" y1="-6.591725486931553" x2="106.79897932412203" y2="-6.592225486931553" style="stroke:rgb(0,0,0);stroke-width:.00002" />
    <circle cx="106.7973" cy="-6.593" fill="rgb(255,0,0)" r=".0001" />
    <text x="106.7973" y="-6.593" stroke="rgb(0,0,0)" transform="translate(106.7973 -6.593),scale(0.00001 -0.00001),translate(-106.7973 6.593),translate(106.8125 -6.592499999999999),rotate(-30),translate(-106.8125 6.592499999999999)" >kb-polisi-militer</text>
    <line x1="106.7984" y1="-6.5935" x2="106.800814" y2="-6.592262" style="stroke:rgb(255,0,0);stroke-width:.00002" />
    <line x1="106.79776113574002" y1="-6.592254266297588" x2="106.80017513574002" y2="-6.591016266297588" style="stroke:rgb(0,0,0);stroke-width:.00002" />
    <circle cx="106.7984" cy="-6.5935" fill="rgb(255,0,0)" r=".0001" />
    <text x="106.7984" y="-6.5935" stroke="rgb(0,0,0)" transform="translate(106.7984 -6.5935),scale(0.00001 -0.00001),translate(-106.7984 6.5935),translate(106.8125 -6.592499999999999),rotate(-30),translate(-106.8125 6.592499999999999)" >kb-jalak-harupat</text>
    <line x1="106.800814" y1="-6.592262" x2="106.801806" y2="-6.592667" style="stroke:rgb(255,0,0);stroke-width:.00002" />
    <line x1="106.8013431700804" y1="-6.5909658599512335" x2="106.80225957435462" y2="-6.591556022815343" style="stroke:rgb(0,0,0);stroke-width:.00002" />
    <circle cx="106.800814" cy="-6.592262" fill="rgb(255,0,0)" r=".0001" />
    <text x="106.800814" y="-6.592262" stroke="rgb(0,0,0)" transform="translate(106.800814 -6.592262),scale(0.00001 -0.00001),translate(-106.800814 6.592262),translate(106.8125 -6.592499999999999),rotate(-30),translate(-106.8125 6.592499999999999)" >kb-sempur</text>
    <line x1="106.801806" y1="-6.592667" x2="106.8029" y2="-6.5935" style="stroke:rgb(255,0,0);stroke-width:.00002" />
    <line x1="106.80253296259298" y1="-6.591712261612583" x2="106.80326348129648" y2="-6.593022630806292" style="stroke:rgb(0,0,0);stroke-width:.00002" />
    <circle cx="106.801806" cy="-6.592667" fill="rgb(255,0,0)" r=".0001" />
    <text x="106.801806" y="-6.592667" stroke="rgb(0,0,0)" transform="translate(106.801806 -6.592667),scale(0.00001 -0.00001),translate(-106.801806 6.592667),translate(106.8125 -6.592499999999999),rotate(-30),translate(-106.8125 6.592499999999999)" >kb-salak</text>
    <line x1="106.8029" y1="-6.5935" x2="106.8046" y2="-6.5922" style="stroke:rgb(255,0,0);stroke-width:.00002" />
    <line x1="106.80253552993545" y1="-6.593023385300214" x2="106.80435701995697" y2="-6.59188225686681" style="stroke:rgb(0,0,0);stroke-width:.00002" />
    <circle cx="106.8029" cy="-6.5935" fill="rgb(255,0,0)" r=".0001" />
    <text x="106.8029" y="-6.5935" stroke="rgb(0,0,0)" transform="translate(106.8029 -6.5935),scale(0.00001 -0.00001),translate(-106.8029 6.5935),translate(106.8125 -6.592499999999999),rotate(-30),translate(-106.8125 6.592499999999999)" >kb-pangrango</text>
    <line x1="106.8046" y1="-6.5922" x2="106.8049" y2="-6.5886" style="stroke:rgb(255,0,0);stroke-width:.00002" />
    <line x1="106.8042013816967" y1="-6.592166781808057" x2="106.80450138169671" y2="-6.588566781808057" style="stroke:rgb(0,0,0);stroke-width:.00002" />
    <circle cx="106.8046" cy="-6.5922" fill="rgb(255,0,0)" r=".0001" />
    <text x="106.8046" y="-6.5922" stroke="rgb(0,0,0)" transform="translate(106.8046 -6.5922),scale(0.00001 -0.00001),translate(-106.8046 6.5922),translate(106.8125 -6.592499999999999),rotate(-30),translate(-106.8125 6.592499999999999)" >pangrango-pajajaran</text>
    <line x1="106.8049" y1="-6.5886" x2="106.8067" y2="-6.5808" style="stroke:rgb(255,0,0);stroke-width:.00002" />
    <line x1="106.80451024352172" y1="-6.58851005619732" x2="106.80650512176086" y2="-6.58075502809866" style="stroke:rgb(0,0,0);stroke-width:.00002" />
    <circle cx="106.8049" cy="-6.5886" fill="rgb(255,0,0)" r=".0001" />
    <text x="106.8049" y="-6.5886" stroke="rgb(0,0,0)" transform="translate(106.8049 -6.5886),scale(0.00001 -0.00001),translate(-106.8049 6.5886),translate(106.8125 -6.592499999999999),rotate(-30),translate(-106.8125 6.592499999999999)" >salak-pajajaran</text>
    <line x1="106.8067" y1="-6.5808" x2="106.8091" y2="-6.5689" style="stroke:rgb(255,0,0);stroke-width:.00002" />
    <line x1="106.80650394748618" y1="-6.580760459997211" x2="106.80870789497234" y2="-6.568820919994422" style="stroke:rgb(0,0,0);stroke-width:.00002" />
    <circle cx="106.8067" cy="-6.5808" fill="rgb(255,0,0)" r=".0001" />
    <text x="106.8067" y="-6.5808" stroke="rgb(0,0,0)" transform="translate(106.8067 -6.5808),scale(0.00001 -0.00001),translate(-106.8067 6.5808),translate(106.8125 -6.592499999999999),rotate(-30),translate(-106.8125 6.592499999999999)" >pajajaran-sobana</text>
    <line x1="106.8091" y1="-6.5689" x2="106.8067" y2="-6.5808" style="stroke:rgb(255,0,0);stroke-width:.00002" />
    <line x1="106.80949210502766" y1="-6.568979080005579" x2="106.80709210502766" y2="-6.5808790800055785" style="stroke:rgb(0,0,0);stroke-width:.00002" />
    <circle cx="106.8091" cy="-6.5689" fill="rgb(255,0,0)" r=".0001" />
    <text x="106.8091" y="-6.5689" stroke="rgb(0,0,0)" transform="translate(106.8091 -6.5689),scale(0.00001 -0.00001),translate(-106.8091 6.5689),translate(106.8125 -6.592499999999999),rotate(-30),translate(-106.8125 6.592499999999999)" >pajajaran-jambudua</text>
  </g>
</svg>
