<svg width="1049.9999999998977" height="1849.9999999999961" xmlns="http://www.w3.org/2000/svg" xmlns:xlink="http://www.w3.org/1999/xlink" >
  <g transform="translate(524.9999999999488 924.9999999999981) rotate(30) scale(10000 -10000) translate(-106.8125 6.592499999999999)">
    <path d="M106.76 -6.5 L106.865 -6.5 L106.865 -6.685 L106.76 -6.685 Z" fill="none" stroke="black" stroke-width="0.001" transform="translate(106.8125 -6.592499999999999) rotate(30) translate(-106.8125 6.592499999999999)" />
    <path d="M106.81331791403144 -6.599741349744369 L106.81331791403144 -6.599741349744369 L106.81375415358526 -6.6004155381457466 L106.81533375236125 -6.599287253305759 L106.81533375236125 -6.599287253305759 L106.8172 -6.5982 L106.81556624763874 -6.599612746694241 L106.81556624763874 -6.599612746694241 L106.81388531472483 -6.600813413061327 L106.81354781803557 -6.6030794622606175 L106.81354781803557 -6.6030794622606175 L106.8131859796433 -6.605508948608862 L106.81173057938013 -6.606635710102925 L106.81153672453569 -6.607038724121644 L106.81043952134092 -6.607888171756287 L106.8104218800785 -6.607861709862641 L106.81047735009813 -6.608305470019621 L106.81556452943951 -6.615936239032065 L106.80774128349043 -6.605280360622844 L106.80774128349043 -6.605280360622844 L106.80520540629293 -6.60182629574326 L106.80522140547137 -6.601825935106041 L106.80443062273606 -6.6022438617329975 L106.80440606945479 -6.602244415188109 L106.80225340698597 -6.602756699279805 L106.80225340698597 -6.602756699279805 L106.79997040993688 -6.6033 L106.80014999999999 -6.6033 L106.79934999999999 -6.6037 L106.79983606797752 -6.6037 L106.80000498447191 -6.603615541752798 L106.7991105572809 -6.6036155417528 L106.79907774986069 -6.603631945462904 L106.79849063599697 -6.603951739996187 L106.79823503159933 -6.604318709193682 L106.79761659346514 -6.60465556571626 L106.79749710337329 -6.604711227467672 L106.79705006146074 -6.6046988368092645 L106.79664772135915 -6.6048862578278245 L106.7964 -6.604721110255093 L106.79551247968605 -6.60461017021585 L106.79526584219303 -6.604445745220449 L106.79402120732829 -6.600867419984281 L106.79407869843764 -6.600423917140611 L106.7928494327583 -6.5968897783124545 L106.79333071196963 -6.595606367082243 L106.79328389551075 -6.595161610722897 L106.79379282204765 -6.593804473291199 L106.79546435706882 -6.5928758427238785 L106.79546435706882 -6.5928758427238785 L106.79725495482212 -6.59188106619427 L106.79826380294432 -6.5923396335225375 L106.79826380294432 -6.5923396335225375 L106.79837376751641 -6.592389617418947 L106.79915066838574 -6.591991190212563 L106.79915066838574 -6.591991190212563 L106.80076655115877 -6.591162498053059 L106.80150281576474 -6.591463089953682 L106.8017975457672 -6.591799444269333 L106.8022064048184 -6.591966367571489 L106.80267851866408 -6.592325847309558 L106.80287560436105 -6.592727291238456 L106.80335069895916 -6.593089040598807 L106.80394679940642 -6.594042801314395 L106.80470999788001 -6.594509200381596 L106.80535541897294 -6.595541874130282 L106.8057558425317 -6.598044521372509 L106.80562155060575 -6.598471095725499 L106.80604182583048 -6.601097815880036 L106.80594972969318 -6.601226750472254 L106.804764003778 -6.601854487721468 L106.804949414996 -6.601594912016275 L106.80578508232075 -6.602669341433821 L106.80618852900965 -6.6028622941980695 L106.80689738473535 -6.603773680131124 L106.80874303226443 -6.602657707206568 L106.80874303226443 -6.602657707206568 L106.82112317729278 -6.595172038119663 L106.80932938493774 -6.603427692768207 L106.80932938493774 -6.603427692768207 L106.80768902300944 -6.604575946118021 L106.80867560816452 -6.605738707193647 L106.80878189731672 -6.606173106337436 L106.80992877813648 -6.607524787303582 L106.81132756536141 -6.606441855258478 L106.81132756536141 -6.606441855258478 L106.81281402035673 -6.605291051391133 L106.81315218196443 -6.603020537739382 L106.81315218196443 -6.603020537739382 L106.81349105604106 -6.600745240367675 L106.81298208596857 -6.599958650255631 L106.81298208596857 -6.599958650255631 L106.81251604298429 -6.599054325127815 L106.8126 -6.599 L106.8126 -6.599 L106.81268395701572 -6.598945674872185 Z" stroke="yellow" stroke-width="0.0002" fill="none" />



    <line x1="106.8126" y1="-6.599" x2="106.8137" y2="-6.6007" style="stroke:rgb(255,0,0);stroke-width:.00002" />
    <line x1="106.81276791403144" y1="-6.5988913497443695" x2="106.81331791403144" y2="-6.599741349744369" style="stroke:rgb(0,0,0);stroke-width:.00002" />
    <line x1="106.81331791403144" y1="-6.599741349744369" x2="106.81331791403144" y2="-6.599741349744369" style="stroke:rgb(0,0,0);stroke-width:.00002" />
    <line x1="106.81331791403144" y1="-6.599741349744369" x2="106.81386791403143" y2="-6.600591349744369" style="stroke:rgb(0,0,0);stroke-width:.00002" />
    <circle cx="106.8126" cy="-6.599" fill="rgb(255,0,0)" r=".0001" />
    <text x="106.8126" y="-6.599" stroke="rgb(0,0,0)" transform="translate(106.8126 -6.599),scale(0.00001 -0.00001),translate(-106.8126 6.599),translate(106.8125 -6.592499999999999),rotate(-30),translate(-106.8125 6.592499999999999)" >ciheuleut-tegallega</text>
    <line x1="106.8137" y1="-6.6007" x2="106.8172" y2="-6.5982" style="stroke:rgb(255,0,0);stroke-width:.00002" />
    <line x1="106.81358375236125" y1="-6.600537253305759" x2="106.81533375236125" y2="-6.599287253305759" style="stroke:rgb(0,0,0);stroke-width:.00002" />
    <line x1="106.81533375236125" y1="-6.599287253305759" x2="106.81533375236125" y2="-6.599287253305759" style="stroke:rgb(0,0,0);stroke-width:.00002" />
    <line x1="106.81533375236125" y1="-6.599287253305759" x2="106.81708375236126" y2="-6.598037253305759" style="stroke:rgb(0,0,0);stroke-width:.00002" />
    <circle cx="106.8137" cy="-6.6007" fill="rgb(255,0,0)" r=".0001" />
    <text x="106.8137" y="-6.6007" stroke="rgb(0,0,0)" transform="translate(106.8137 -6.6007),scale(0.00001 -0.00001),translate(-106.8137 6.6007),translate(106.8125 -6.592499999999999),rotate(-30),translate(-106.8125 6.592499999999999)" >ciheuleut-binamarga</text>
    <line x1="106.8172" y1="-6.5982" x2="106.8137" y2="-6.6007" style="stroke:rgb(255,0,0);stroke-width:.00002" />
    <line x1="106.81731624763874" y1="-6.598362746694241" x2="106.81556624763874" y2="-6.599612746694241" style="stroke:rgb(0,0,0);stroke-width:.00002" />
    <line x1="106.81556624763874" y1="-6.599612746694241" x2="106.81556624763874" y2="-6.599612746694241" style="stroke:rgb(0,0,0);stroke-width:.00002" />
    <line x1="106.81556624763874" y1="-6.599612746694241" x2="106.81381624763874" y2="-6.600862746694241" style="stroke:rgb(0,0,0);stroke-width:.00002" />
    <circle cx="106.8172" cy="-6.5982" fill="rgb(255,0,0)" r=".0001" />
    <text x="106.8172" y="-6.5982" stroke="rgb(0,0,0)" transform="translate(106.8172 -6.5982),scale(0.00001 -0.00001),translate(-106.8172 6.5982),translate(106.8125 -6.592499999999999),rotate(-30),translate(-106.8125 6.592499999999999)" >padi-jagung</text>
    <line x1="106.8137" y1="-6.6007" x2="106.813" y2="-6.6054" style="stroke:rgb(255,0,0);stroke-width:.00002" />
    <line x1="106.81389781803557" y1="-6.600729462260618" x2="106.81354781803557" y2="-6.6030794622606175" style="stroke:rgb(0,0,0);stroke-width:.00002" />
    <line x1="106.81354781803557" y1="-6.6030794622606175" x2="106.81354781803557" y2="-6.6030794622606175" style="stroke:rgb(0,0,0);stroke-width:.00002" />
    <line x1="106.81354781803557" y1="-6.6030794622606175" x2="106.81319781803558" y2="-6.605429462260618" style="stroke:rgb(0,0,0);stroke-width:.00002" />
    <circle cx="106.8137" cy="-6.6007" fill="rgb(255,0,0)" r=".0001" />
    <text x="106.8137" y="-6.6007" stroke="rgb(0,0,0)" transform="translate(106.8137 -6.6007),scale(0.00001 -0.00001),translate(-106.8137 6.6007),translate(106.8125 -6.592499999999999),rotate(-30),translate(-106.8125 6.592499999999999)" >ciheuleut-binamarga</text>
    <line x1="106.813" y1="-6.6054" x2="106.8099" y2="-6.6078" style="stroke:rgb(255,0,0);stroke-width:.00002" />
    <line x1="106.8131224346386" y1="-6.605558144741523" x2="106.81173057938013" y2="-6.606635710102925" style="stroke:rgb(0,0,0);stroke-width:.00002" />
    <line x1="106.81173057938013" y1="-6.606635710102925" x2="106.81153672453569" y2="-6.607038724121644" style="stroke:rgb(0,0,0);stroke-width:.00002" />
    <line x1="106.81153672453569" y1="-6.607038724121644" x2="106.8101448692772" y2="-6.608116289483045" style="stroke:rgb(0,0,0);stroke-width:.00002" />
    <circle cx="106.813" cy="-6.6054" fill="rgb(255,0,0)" r=".0001" />
    <text x="106.813" y="-6.6054" stroke="rgb(0,0,0)" transform="translate(106.813 -6.6054),scale(0.00001 -0.00001),translate(-106.813 6.6054),translate(106.8125 -6.592499999999999),rotate(-30),translate(-106.8125 6.592499999999999)" >ciheuleut-pakuanindah</text>
    <line x1="106.8099" y1="-6.6078" x2="106.8105" y2="-6.6087" style="stroke:rgb(255,0,0);stroke-width:.00002" />
    <line x1="106.81023282011773" y1="-6.6075781199215085" x2="106.8104218800785" y2="-6.607861709862641" style="stroke:rgb(0,0,0);stroke-width:.00002" />
    <line x1="106.8104218800785" y1="-6.607861709862641" x2="106.81047735009813" y2="-6.608305470019621" style="stroke:rgb(0,0,0);stroke-width:.00002" />
    <line x1="106.81047735009813" y1="-6.608305470019621" x2="106.81066641005887" y2="-6.608589059960754" style="stroke:rgb(0,0,0);stroke-width:.00002" />
    <circle cx="106.8099" cy="-6.6078" fill="rgb(255,0,0)" r=".0001" />
    <text x="106.8099" y="-6.6078" stroke="rgb(0,0,0)" transform="translate(106.8099 -6.6078),scale(0.00001 -0.00001),translate(-106.8099 6.6078),translate(106.8125 -6.592499999999999),rotate(-30),translate(-106.8125 6.592499999999999)" >pajajaran-ciheuleut</text>
    <line x1="106.8105" y1="-6.6087" x2="106.805305" y2="-6.601624" style="stroke:rgb(255,0,0);stroke-width:.00002" />
    <line x1="106.81033878349042" y1="-6.608818360622844" x2="106.80774128349043" y2="-6.605280360622844" style="stroke:rgb(0,0,0);stroke-width:.00002" />
    <line x1="106.80774128349043" y1="-6.605280360622844" x2="106.80774128349043" y2="-6.605280360622844" style="stroke:rgb(0,0,0);stroke-width:.00002" />
    <line x1="106.80774128349043" y1="-6.605280360622844" x2="106.80514378349042" y2="-6.601742360622844" style="stroke:rgb(0,0,0);stroke-width:.00002" />
    <circle cx="106.8105" cy="-6.6087" fill="rgb(255,0,0)" r=".0001" />
    <text x="106.8105" y="-6.6087" stroke="rgb(0,0,0)" transform="translate(106.8105 -6.6087),scale(0.00001 -0.00001),translate(-106.8105 6.6087),translate(106.8125 -6.592499999999999),rotate(-30),translate(-106.8125 6.592499999999999)" >pajajaran-michelle-bakery</text>
    <line x1="106.805305" y1="-6.601624" x2="106.804329" y2="-6.601646" style="stroke:rgb(255,0,0);stroke-width:.00002" />
    <line x1="106.80530950705186" y1="-6.60182394920976" x2="106.80522140547137" y2="-6.601825935106041" style="stroke:rgb(0,0,0);stroke-width:.00002" />
    <line x1="106.80522140547137" y1="-6.601825935106041" x2="106.80443062273606" y2="-6.6022438617329975" style="stroke:rgb(0,0,0);stroke-width:.00002" />
    <line x1="106.80443062273606" y1="-6.6022438617329975" x2="106.80434252115558" y2="-6.602245847629279" style="stroke:rgb(0,0,0);stroke-width:.00002" />
    <circle cx="106.805305" cy="-6.601624" fill="rgb(255,0,0)" r=".0001" />
    <text x="106.805305" y="-6.601624" stroke="rgb(0,0,0)" transform="translate(106.805305 -6.601624),scale(0.00001 -0.00001),translate(-106.805305 6.601624),translate(106.8125 -6.592499999999999),rotate(-30),translate(-106.8125 6.592499999999999)" >pajajaran-otista</text>
    <line x1="106.804329" y1="-6.601646" x2="106.7999" y2="-6.6027" style="stroke:rgb(255,0,0);stroke-width:.00002" />
    <line x1="106.80446790698598" y1="-6.602229699279805" x2="106.80225340698597" y2="-6.602756699279805" style="stroke:rgb(0,0,0);stroke-width:.00002" />
    <line x1="106.80225340698597" y1="-6.602756699279805" x2="106.80225340698597" y2="-6.602756699279805" style="stroke:rgb(0,0,0);stroke-width:.00002" />
    <line x1="106.80225340698597" y1="-6.602756699279805" x2="106.80003890698598" y2="-6.603283699279805" style="stroke:rgb(0,0,0);stroke-width:.00002" />
    <circle cx="106.804329" cy="-6.601646" fill="rgb(255,0,0)" r=".0001" />
    <text x="106.804329" y="-6.601646" stroke="rgb(0,0,0)" transform="translate(106.804329 -6.601646),scale(0.00001 -0.00001),translate(-106.804329 6.601646),translate(106.8125 -6.592499999999999),rotate(-30),translate(-106.8125 6.592499999999999)" >bangka-otista</text>
    <line x1="106.7999" y1="-6.6027" x2="106.7996" y2="-6.6027" style="stroke:rgb(255,0,0);stroke-width:.00002" />
    <line x1="106.7999" y1="-6.6033" x2="106.80014999999999" y2="-6.6033" style="stroke:rgb(0,0,0);stroke-width:.00002" />
    <line x1="106.80014999999999" y1="-6.6033" x2="106.79934999999999" y2="-6.6037" style="stroke:rgb(0,0,0);stroke-width:.00002" />
    <line x1="106.79934999999999" y1="-6.6037" x2="106.7996" y2="-6.6037" style="stroke:rgb(0,0,0);stroke-width:.00002" />
    <circle cx="106.7999" cy="-6.6027" fill="rgb(255,0,0)" r=".0001" />
    <text x="106.7999" y="-6.6027" stroke="rgb(0,0,0)" transform="translate(106.7999 -6.6027),scale(0.00001 -0.00001),translate(-106.7999 6.6027),translate(106.8125 -6.592499999999999),rotate(-30),translate(-106.8125 6.592499999999999)" >otista-roda</text>
    <line x1="106.7996" y1="-6.6027" x2="106.7988" y2="-6.6031" style="stroke:rgb(255,0,0);stroke-width:.00002" />
    <line x1="106.8000472135955" y1="-6.603594427190998" x2="106.80000498447191" y2="-6.603615541752798" style="stroke:rgb(0,0,0);stroke-width:.00002" />
    <line x1="106.80000498447191" y1="-6.603615541752798" x2="106.7991105572809" y2="-6.6036155417528" style="stroke:rgb(0,0,0);stroke-width:.00002" />
    <line x1="106.7991105572809" y1="-6.6036155417528" x2="106.7990683281573" y2="-6.6036366563146" style="stroke:rgb(0,0,0);stroke-width:.00002" />
    <circle cx="106.7996" cy="-6.6027" fill="rgb(255,0,0)" r=".0001" />
    <text x="106.7996" y="-6.6027" stroke="rgb(0,0,0)" transform="translate(106.7996 -6.6027),scale(0.00001 -0.00001),translate(-106.7996 6.6027),translate(106.8125 -6.592499999999999),rotate(-30),translate(-106.8125 6.592499999999999)" >kb-otista</text>
    <line x1="106.7988" y1="-6.6031" x2="106.797256" y2="-6.603941" style="stroke:rgb(255,0,0);stroke-width:.00002" />
    <line x1="106.79908700039842" y1="-6.603626906795658" x2="106.79849063599697" y2="-6.603951739996187" style="stroke:rgb(0,0,0);stroke-width:.00002" />
    <line x1="106.79849063599697" y1="-6.603951739996187" x2="106.79823503159933" y2="-6.604318709193682" style="stroke:rgb(0,0,0);stroke-width:.00002" />
    <line x1="106.79823503159933" y1="-6.604318709193682" x2="106.79763866719789" y2="-6.604643542394211" style="stroke:rgb(0,0,0);stroke-width:.00002" />
    <circle cx="106.7988" cy="-6.6031" fill="rgb(255,0,0)" r=".0001" />
    <text x="106.7988" y="-6.6031" stroke="rgb(0,0,0)" transform="translate(106.7988 -6.6031),scale(0.00001 -0.00001),translate(-106.7988 6.6031),translate(106.8125 -6.592499999999999),rotate(-30),translate(-106.8125 6.592499999999999)" >kb-suryakencana</text>
    <line x1="106.797256" y1="-6.603941" x2="106.7967" y2="-6.6042" style="stroke:rgb(255,0,0);stroke-width:.00002" />
    <line x1="106.79759380847659" y1="-6.604666179586821" x2="106.79749710337329" y2="-6.604711227467672" style="stroke:rgb(0,0,0);stroke-width:.00002" />
    <line x1="106.79749710337329" y1="-6.604711227467672" x2="106.79705006146074" y2="-6.6046988368092645" style="stroke:rgb(0,0,0);stroke-width:.00002" />
    <line x1="106.79705006146074" y1="-6.6046988368092645" x2="106.79695335635745" y2="-6.604743884690116" style="stroke:rgb(0,0,0);stroke-width:.00002" />
    <circle cx="106.797256" cy="-6.603941" fill="rgb(255,0,0)" r=".0001" />
    <text x="106.797256" y="-6.603941" stroke="rgb(0,0,0)" transform="translate(106.797256 -6.603941),scale(0.00001 -0.00001),translate(-106.797256 6.603941),translate(106.8125 -6.592499999999999),rotate(-30),translate(-106.8125 6.592499999999999)" >cincau-kb</text>
    <line x1="106.7967" y1="-6.6042" x2="106.7961" y2="-6.6038" style="stroke:rgb(255,0,0);stroke-width:.00002" />
    <line x1="106.79636717988227" y1="-6.604699230176604" x2="106.7964" y2="-6.604721110255093" style="stroke:rgb(0,0,0);stroke-width:.00002" />
    <line x1="106.7964" y1="-6.604721110255093" x2="106.79551247968605" y2="-6.60461017021585" style="stroke:rgb(0,0,0);stroke-width:.00002" />
    <line x1="106.79551247968605" y1="-6.60461017021585" x2="106.79554529980378" y2="-6.60463205029434" style="stroke:rgb(0,0,0);stroke-width:.00002" />
    <circle cx="106.7967" cy="-6.6042" fill="rgb(255,0,0)" r=".0001" />
    <text x="106.7967" y="-6.6042" stroke="rgb(0,0,0)" transform="translate(106.7967 -6.6042),scale(0.00001 -0.00001),translate(-106.7967 6.6042),translate(106.8125 -6.592499999999999),rotate(-30),translate(-106.8125 6.592499999999999)" >kb-btm-1</text>
    <line x1="106.7961" y1="-6.6038" x2="106.7937" y2="-6.5969" style="stroke:rgb(255,0,0);stroke-width:.00002" />
    <line x1="106.79515550320329" y1="-6.60412852062494" x2="106.79402120732829" y2="-6.600867419984281" style="stroke:rgb(0,0,0);stroke-width:.00002" />
    <line x1="106.79402120732829" y1="-6.600867419984281" x2="106.79407869843764" y2="-6.600423917140611" style="stroke:rgb(0,0,0);stroke-width:.00002" />
    <line x1="106.79407869843764" y1="-6.600423917140611" x2="106.79294440256264" y2="-6.597162816499952" style="stroke:rgb(0,0,0);stroke-width:.00002" />
    <circle cx="106.7961" cy="-6.6038" fill="rgb(255,0,0)" r=".0001" />
    <text x="106.7961" y="-6.6038" stroke="rgb(0,0,0)" transform="translate(106.7961 -6.6038),scale(0.00001 -0.00001),translate(-106.7961 6.6038),translate(106.8125 -6.592499999999999),rotate(-30),translate(-106.8125 6.592499999999999)" >kb-btm-2</text>
    <line x1="106.7937" y1="-6.5969" x2="106.7946" y2="-6.5945" style="stroke:rgb(255,0,0);stroke-width:.00002" />
    <line x1="106.79295093665795" y1="-6.596619101246729" x2="106.79333071196963" y2="-6.595606367082243" style="stroke:rgb(0,0,0);stroke-width:.00002" />
    <line x1="106.79333071196963" y1="-6.595606367082243" x2="106.79328389551075" y2="-6.595161610722897" style="stroke:rgb(0,0,0);stroke-width:.00002" />
    <line x1="106.79328389551075" y1="-6.595161610722897" x2="106.79366367082244" y2="-6.594148876558411" style="stroke:rgb(0,0,0);stroke-width:.00002" />
    <circle cx="106.7937" cy="-6.5969" fill="rgb(255,0,0)" r=".0001" />
    <text x="106.7937" y="-6.5969" stroke="rgb(0,0,0)" transform="translate(106.7937 -6.5969),scale(0.00001 -0.00001),translate(-106.7937 6.5969),translate(106.8125 -6.592499999999999),rotate(-30),translate(-106.8125 6.592499999999999)" >kb-muslihat</text>
    <line x1="106.7946" y1="-6.5945" x2="106.7973" y2="-6.593" style="stroke:rgb(255,0,0);stroke-width:.00002" />
    <line x1="106.79411435706882" y1="-6.5936258427238785" x2="106.79546435706882" y2="-6.5928758427238785" style="stroke:rgb(0,0,0);stroke-width:.00002" />
    <line x1="106.79546435706882" y1="-6.5928758427238785" x2="106.79546435706882" y2="-6.5928758427238785" style="stroke:rgb(0,0,0);stroke-width:.00002" />
    <line x1="106.79546435706882" y1="-6.5928758427238785" x2="106.79681435706883" y2="-6.5921258427238785" style="stroke:rgb(0,0,0);stroke-width:.00002" />
    <circle cx="106.7946" cy="-6.5945" fill="rgb(255,0,0)" r=".0001" />
    <text x="106.7946" y="-6.5945" stroke="rgb(0,0,0)" transform="translate(106.7946 -6.5945),scale(0.00001 -0.00001),translate(-106.7946 6.5945),translate(106.8125 -6.592499999999999),rotate(-30),translate(-106.8125 6.592499999999999)" >kb-gedong-sawah</text>
    <line x1="106.7973" y1="-6.593" x2="106.7984" y2="-6.5935" style="stroke:rgb(255,0,0);stroke-width:.00002" />
    <line x1="106.79771380294432" y1="-6.592089633522538" x2="106.79826380294432" y2="-6.5923396335225375" style="stroke:rgb(0,0,0);stroke-width:.00002" />
    <line x1="106.79826380294432" y1="-6.5923396335225375" x2="106.79826380294432" y2="-6.5923396335225375" style="stroke:rgb(0,0,0);stroke-width:.00002" />
    <line x1="106.79826380294432" y1="-6.5923396335225375" x2="106.79881380294431" y2="-6.592589633522538" style="stroke:rgb(0,0,0);stroke-width:.00002" />
    <circle cx="106.7973" cy="-6.593" fill="rgb(255,0,0)" r=".0001" />
    <text x="106.7973" y="-6.593" stroke="rgb(0,0,0)" transform="translate(106.7973 -6.593),scale(0.00001 -0.00001),translate(-106.7973 6.593),translate(106.8125 -6.592499999999999),rotate(-30),translate(-106.8125 6.592499999999999)" >kb-polisi-militer</text>
    <line x1="106.7984" y1="-6.5935" x2="106.800814" y2="-6.592262" style="stroke:rgb(255,0,0);stroke-width:.00002" />
    <line x1="106.79794366838573" y1="-6.592610190212563" x2="106.79915066838574" y2="-6.591991190212563" style="stroke:rgb(0,0,0);stroke-width:.00002" />
    <line x1="106.79915066838574" y1="-6.591991190212563" x2="106.79915066838574" y2="-6.591991190212563" style="stroke:rgb(0,0,0);stroke-width:.00002" />
    <line x1="106.79915066838574" y1="-6.591991190212563" x2="106.80035766838573" y2="-6.591372190212563" style="stroke:rgb(0,0,0);stroke-width:.00002" />
    <circle cx="106.7984" cy="-6.5935" fill="rgb(255,0,0)" r=".0001" />
    <text x="106.7984" y="-6.5935" stroke="rgb(0,0,0)" transform="translate(106.7984 -6.5935),scale(0.00001 -0.00001),translate(-106.7984 6.5935),translate(106.8125 -6.592499999999999),rotate(-30),translate(-106.8125 6.592499999999999)" >kb-jalak-harupat</text>
    <line x1="106.800814" y1="-6.592262" x2="106.801806" y2="-6.592667" style="stroke:rgb(255,0,0);stroke-width:.00002" />
    <line x1="106.80119197862885" y1="-6.591336185679452" x2="106.80150281576474" y2="-6.591463089953682" style="stroke:rgb(0,0,0);stroke-width:.00002" />
    <line x1="106.80150281576474" y1="-6.591463089953682" x2="106.8017975457672" y2="-6.591799444269333" style="stroke:rgb(0,0,0);stroke-width:.00002" />
    <line x1="106.8017975457672" y1="-6.591799444269333" x2="106.80210838290309" y2="-6.591926348543562" style="stroke:rgb(0,0,0);stroke-width:.00002" />
    <circle cx="106.800814" cy="-6.592262" fill="rgb(255,0,0)" r=".0001" />
    <text x="106.800814" y="-6.592262" stroke="rgb(0,0,0)" transform="translate(106.800814 -6.592262),scale(0.00001 -0.00001),translate(-106.800814 6.592262),translate(106.8125 -6.592499999999999),rotate(-30),translate(-106.8125 6.592499999999999)" >kb-sempur</text>
    <line x1="106.801806" y1="-6.592667" x2="106.8029" y2="-6.5935" style="stroke:rgb(255,0,0);stroke-width:.00002" />
    <line x1="106.80229064172865" y1="-6.592030507741722" x2="106.80267851866408" y2="-6.592325847309558" style="stroke:rgb(0,0,0);stroke-width:.00002" />
    <line x1="106.80267851866408" y1="-6.592325847309558" x2="106.80287560436105" y2="-6.592727291238456" style="stroke:rgb(0,0,0);stroke-width:.00002" />
    <line x1="106.80287560436105" y1="-6.592727291238456" x2="106.80326348129648" y2="-6.593022630806292" style="stroke:rgb(0,0,0);stroke-width:.00002" />
    <circle cx="106.801806" cy="-6.592667" fill="rgb(255,0,0)" r=".0001" />
    <text x="106.801806" y="-6.592667" stroke="rgb(0,0,0)" transform="translate(106.801806 -6.592667),scale(0.00001 -0.00001),translate(-106.801806 6.592667),translate(106.8125 -6.592499999999999),rotate(-30),translate(-106.8125 6.592499999999999)" >kb-salak</text>
    <line x1="106.8029" y1="-6.5935" x2="106.8044" y2="-6.5959" style="stroke:rgb(255,0,0);stroke-width:.00002" />
    <line x1="106.8034087989824" y1="-6.593182000635997" x2="106.80394679940642" y2="-6.594042801314395" style="stroke:rgb(0,0,0);stroke-width:.00002" />
    <line x1="106.80394679940642" y1="-6.594042801314395" x2="106.80470999788001" y2="-6.594509200381596" style="stroke:rgb(0,0,0);stroke-width:.00002" />
    <line x1="106.80470999788001" y1="-6.594509200381596" x2="106.80524799830401" y2="-6.595370001059996" style="stroke:rgb(0,0,0);stroke-width:.00002" />
    <circle cx="106.8029" cy="-6.5935" fill="rgb(255,0,0)" r=".0001" />
    <text x="106.8029" y="-6.5935" stroke="rgb(0,0,0)" transform="translate(106.8029 -6.5935),scale(0.00001 -0.00001),translate(-106.8029 6.5935),translate(106.8125 -6.592499999999999),rotate(-30),translate(-106.8125 6.592499999999999)" >kb-pangrango</text>
    <line x1="106.8044" y1="-6.5959" x2="106.8052" y2="-6.6009" style="stroke:rgb(255,0,0);stroke-width:.00002" />
    <line x1="106.80538744063192" y1="-6.595742009498894" x2="106.8057558425317" y2="-6.598044521372509" style="stroke:rgb(0,0,0);stroke-width:.00002" />
    <line x1="106.8057558425317" y1="-6.598044521372509" x2="106.80562155060575" y2="-6.598471095725499" style="stroke:rgb(0,0,0);stroke-width:.00002" />
    <line x1="106.80562155060575" y1="-6.598471095725499" x2="106.80598995250553" y2="-6.600773607599115" style="stroke:rgb(0,0,0);stroke-width:.00002" />
    <circle cx="106.8044" cy="-6.5959" fill="rgb(255,0,0)" r=".0001" />
    <text x="106.8044" y="-6.5959" stroke="rgb(0,0,0)" transform="translate(106.8044 -6.5959),scale(0.00001 -0.00001),translate(-106.8044 6.5959),translate(106.8125 -6.592499999999999),rotate(-30),translate(-106.8125 6.592499999999999)" >kb-astrid</text>
    <line x1="106.8052" y1="-6.6009" x2="106.8047" y2="-6.6016" style="stroke:rgb(255,0,0);stroke-width:.00002" />
    <line x1="106.80585098677696" y1="-6.601364990554977" x2="106.80594972969318" y2="-6.601226750472254" style="stroke:rgb(0,0,0);stroke-width:.00002" />
    <line x1="106.80594972969318" y1="-6.601226750472254" x2="106.804764003778" y2="-6.601854487721468" style="stroke:rgb(0,0,0);stroke-width:.00002" />
    <line x1="106.804764003778" y1="-6.601854487721468" x2="106.80486274669424" y2="-6.601716247638745" style="stroke:rgb(0,0,0);stroke-width:.00002" />
    <circle cx="106.8052" cy="-6.6009" fill="rgb(255,0,0)" r=".0001" />
    <text x="106.8052" y="-6.6009" stroke="rgb(0,0,0)" transform="translate(106.8052 -6.6009),scale(0.00001 -0.00001),translate(-106.8052 6.6009),translate(106.8125 -6.592499999999999),rotate(-30),translate(-106.8125 6.592499999999999)" >kb-botani-1</text>
    <line x1="106.8047" y1="-6.6016" x2="106.8068" y2="-6.6043" style="stroke:rgb(255,0,0);stroke-width:.00002" />
    <line x1="106.80485787044347" y1="-6.601477211877297" x2="106.80578508232075" y2="-6.602669341433821" style="stroke:rgb(0,0,0);stroke-width:.00002" />
    <line x1="106.80578508232075" y1="-6.602669341433821" x2="106.80618852900965" y2="-6.6028622941980695" style="stroke:rgb(0,0,0);stroke-width:.00002" />
    <line x1="106.80618852900965" y1="-6.6028622941980695" x2="106.80711574088694" y2="-6.604054423754595" style="stroke:rgb(0,0,0);stroke-width:.00002" />
    <circle cx="106.8047" cy="-6.6016" fill="rgb(255,0,0)" r=".0001" />
    <text x="106.8047" y="-6.6016" stroke="rgb(0,0,0)" transform="translate(106.8047 -6.6016),scale(0.00001 -0.00001),translate(-106.8047 6.6016),translate(106.8125 -6.592499999999999),rotate(-30),translate(-106.8125 6.592499999999999)" >kb-botani-2</text>
    <line x1="106.8068" y1="-6.6043" x2="106.8111" y2="-6.6017" style="stroke:rgb(255,0,0);stroke-width:.00002" />
    <line x1="106.80659303226443" y1="-6.603957707206568" x2="106.80874303226443" y2="-6.602657707206568" style="stroke:rgb(0,0,0);stroke-width:.00002" />
    <line x1="106.80874303226443" y1="-6.602657707206568" x2="106.80874303226443" y2="-6.602657707206568" style="stroke:rgb(0,0,0);stroke-width:.00002" />
    <line x1="106.80874303226443" y1="-6.602657707206568" x2="106.81089303226443" y2="-6.601357707206568" style="stroke:rgb(0,0,0);stroke-width:.00002" />
    <circle cx="106.8068" cy="-6.6043" fill="rgb(255,0,0)" r=".0001" />
    <text x="106.8068" y="-6.6043" stroke="rgb(0,0,0)" transform="translate(106.8068 -6.6043),scale(0.00001 -0.00001),translate(-106.8068 6.6043),translate(106.8125 -6.592499999999999),rotate(-30),translate(-106.8125 6.592499999999999)" >tol-1</text>
    <line x1="106.8111" y1="-6.6017" x2="106.8071" y2="-6.6045" style="stroke:rgb(255,0,0);stroke-width:.00002" />
    <line x1="106.81132938493774" y1="-6.602027692768208" x2="106.80932938493774" y2="-6.603427692768207" style="stroke:rgb(0,0,0);stroke-width:.00002" />
    <line x1="106.80932938493774" y1="-6.603427692768207" x2="106.80932938493774" y2="-6.603427692768207" style="stroke:rgb(0,0,0);stroke-width:.00002" />
    <line x1="106.80932938493774" y1="-6.603427692768207" x2="106.80732938493774" y2="-6.6048276927682075" style="stroke:rgb(0,0,0);stroke-width:.00002" />
    <circle cx="106.8111" cy="-6.6017" fill="rgb(255,0,0)" r=".0001" />
    <text x="106.8111" y="-6.6017" stroke="rgb(0,0,0)" transform="translate(106.8111 -6.6017),scale(0.00001 -0.00001),translate(-106.8111 6.6017),translate(106.8125 -6.592499999999999),rotate(-30),translate(-106.8125 6.592499999999999)" >tol-2</text>
    <line x1="106.8071" y1="-6.6045" x2="106.8099" y2="-6.6078" style="stroke:rgb(255,0,0);stroke-width:.00002" />
    <line x1="106.80740500365415" y1="-6.6042412090207225" x2="106.80867560816452" y2="-6.605738707193647" style="stroke:rgb(0,0,0);stroke-width:.00002" />
    <line x1="106.80867560816452" y1="-6.605738707193647" x2="106.80878189731672" y2="-6.606173106337436" style="stroke:rgb(0,0,0);stroke-width:.00002" />
    <line x1="106.80878189731672" y1="-6.606173106337436" x2="106.81005250182707" y2="-6.6076706045103615" style="stroke:rgb(0,0,0);stroke-width:.00002" />
    <circle cx="106.8071" cy="-6.6045" fill="rgb(255,0,0)" r=".0001" />
    <text x="106.8071" y="-6.6045" stroke="rgb(0,0,0)" transform="translate(106.8071 -6.6045),scale(0.00001 -0.00001),translate(-106.8071 6.6045),translate(106.8125 -6.592499999999999),rotate(-30),translate(-106.8125 6.592499999999999)" >tol-3</text>
    <line x1="106.8099" y1="-6.6078" x2="106.813" y2="-6.6054" style="stroke:rgb(255,0,0);stroke-width:.00002" />
    <line x1="106.8097775653614" y1="-6.6076418552584775" x2="106.81132756536141" y2="-6.606441855258478" style="stroke:rgb(0,0,0);stroke-width:.00002" />
    <line x1="106.81132756536141" y1="-6.606441855258478" x2="106.81132756536141" y2="-6.606441855258478" style="stroke:rgb(0,0,0);stroke-width:.00002" />
    <line x1="106.81132756536141" y1="-6.606441855258478" x2="106.8128775653614" y2="-6.605241855258478" style="stroke:rgb(0,0,0);stroke-width:.00002" />
    <circle cx="106.8099" cy="-6.6078" fill="rgb(255,0,0)" r=".0001" />
    <text x="106.8099" y="-6.6078" stroke="rgb(0,0,0)" transform="translate(106.8099 -6.6078),scale(0.00001 -0.00001),translate(-106.8099 6.6078),translate(106.8125 -6.592499999999999),rotate(-30),translate(-106.8125 6.592499999999999)" >pajajaran-ciheuleut</text>
    <line x1="106.813" y1="-6.6054" x2="106.8137" y2="-6.6007" style="stroke:rgb(255,0,0);stroke-width:.00002" />
    <line x1="106.81280218196443" y1="-6.6053705377393825" x2="106.81315218196443" y2="-6.603020537739382" style="stroke:rgb(0,0,0);stroke-width:.00002" />
    <line x1="106.81315218196443" y1="-6.603020537739382" x2="106.81315218196443" y2="-6.603020537739382" style="stroke:rgb(0,0,0);stroke-width:.00002" />
    <line x1="106.81315218196443" y1="-6.603020537739382" x2="106.81350218196442" y2="-6.600670537739382" style="stroke:rgb(0,0,0);stroke-width:.00002" />
    <circle cx="106.813" cy="-6.6054" fill="rgb(255,0,0)" r=".0001" />
    <text x="106.813" y="-6.6054" stroke="rgb(0,0,0)" transform="translate(106.813 -6.6054),scale(0.00001 -0.00001),translate(-106.813 6.6054),translate(106.8125 -6.592499999999999),rotate(-30),translate(-106.8125 6.592499999999999)" >ciheuleut-pakuanindah</text>
    <line x1="106.8137" y1="-6.6007" x2="106.8126" y2="-6.599" style="stroke:rgb(255,0,0);stroke-width:.00002" />
    <line x1="106.81353208596856" y1="-6.6008086502556305" x2="106.81298208596857" y2="-6.599958650255631" style="stroke:rgb(0,0,0);stroke-width:.00002" />
    <line x1="106.81298208596857" y1="-6.599958650255631" x2="106.81298208596857" y2="-6.599958650255631" style="stroke:rgb(0,0,0);stroke-width:.00002" />
    <line x1="106.81298208596857" y1="-6.599958650255631" x2="106.81243208596857" y2="-6.599108650255631" style="stroke:rgb(0,0,0);stroke-width:.00002" />
    <circle cx="106.8137" cy="-6.6007" fill="rgb(255,0,0)" r=".0001" />
    <text x="106.8137" y="-6.6007" stroke="rgb(0,0,0)" transform="translate(106.8137 -6.6007),scale(0.00001 -0.00001),translate(-106.8137 6.6007),translate(106.8125 -6.592499999999999),rotate(-30),translate(-106.8125 6.592499999999999)" >ciheuleut-binamarga</text>
    <line x1="106.8126" y1="-6.599" x2="106.8126" y2="-6.599" style="stroke:rgb(255,0,0);stroke-width:.00002" />
    <line x1="106.8126" y1="-6.599" x2="106.8126" y2="-6.599" style="stroke:rgb(0,0,0);stroke-width:.00002" />
    <line x1="106.8126" y1="-6.599" x2="106.8126" y2="-6.599" style="stroke:rgb(0,0,0);stroke-width:.00002" />
    <line x1="106.8126" y1="-6.599" x2="106.8126" y2="-6.599" style="stroke:rgb(0,0,0);stroke-width:.00002" />
    <circle cx="106.8126" cy="-6.599" fill="rgb(255,0,0)" r=".0001" />
    <text x="106.8126" y="-6.599" stroke="rgb(0,0,0)" transform="translate(106.8126 -6.599),scale(0.00001 -0.00001),translate(-106.8126 6.599),translate(106.8125 -6.592499999999999),rotate(-30),translate(-106.8125 6.592499999999999)" >ciheuleut-tegallega</text>
  </g>
</svg>
