<svg width="2500" height="1500" xmlns="http://www.w3.org/2000/svg" xmlns:xlink="http://www.w3.org/1999/xlink" >
  <path d="M738.8161070868193 462.70183173398686 L730.251548608507 279.99125086243674 L725.7300805856914 177.50464234613997 L760.6640338081405 124.3442787466995 L783.2119885016908 109.31230895108371 L797.9869348330482 90.10487871998077 L809.2302110413385 69.22450861899006 L865.4474800238177 108.72853547148713 L887.6325956740772 99.85448921138595 L915.4398975585565 106.39738377245169 L912.5792709602365 112.11863696917158 L903.7927572652649 110.36133423021988 L890.7338998808001 104.55739761489485 L863.1973163647899 116.15174856911307 L848.4418792528459 135.333816814611 L754.0485605579761 259.6932684284446 L734.7594637971611 302.7227919716833 L739.3054521679687 457.28639657625286 L689.8785851520728 446.80190963347616 L692.7500000000464 489.8731323586756 L692.7500000000464 475.6312808554395 L689.8368835891233 481.457513677299 L683.2352813738396 488.05911589278253 L676.7500000001547 492.9230769230728 L671.5399175830328 492.9230769230728 L662.3615242284586 490.3006788217755 L655.5312067104779 520.3540759007839 L680.0121400530657 527.0306940851175 L695.0089782631608 487.03912552484167 Z" stroke="lightgrey" stroke-width="0.5" fill="none" />
</svg>
