<svg width="1049.9999999998977" height="1849.9999999999961" xmlns="http://www.w3.org/2000/svg" xmlns:xlink="http://www.w3.org/1999/xlink" >
  <g transform="translate(524.9999999999488 924.9999999999981) rotate(30) scale(10000 -10000) translate(-106.8125 6.592499999999999)">
    <path d="M106.76 -6.5 L106.865 -6.5 L106.865 -6.685 L106.76 -6.685 Z" fill="none" stroke="black" stroke-width="0.001" transform="translate(106.8125 -6.592499999999999) rotate(30) translate(-106.8125 6.592499999999999)" />
    <path d="M106.79286417100016 -6.596691042750043 L106.79053582899982 -6.596108957249957 L106.7897 -6.5959 L106.78905 -6.595700000000001 L106.78905 -6.595700000000001 L106.7884 -6.5955 L106.788 -6.59555 L106.788 -6.59555 L106.7876 -6.5956 L106.78629900743805 -6.595469900743804 L106.78590099256196 -6.595430099256196 L106.7846 -6.5953 L106.7836 -6.59485 L106.7836 -6.59485 L106.7826 -6.5944 L106.78165 -6.59535 L106.78165 -6.59535 L106.7807 -6.5963 L106.7801 -6.5962 L106.7801 -6.5962 L106.7795 -6.5961 L106.779409 -6.596106499999999 L106.779409 -6.596106499999999 L106.779318 -6.596113 L106.7757365 -6.591946 L106.7757365 -6.591946 L106.772155 -6.587779 L106.7719745 -6.5868555 L106.7719745 -6.5868555 L106.771794 -6.585932 L106.77144799999999 -6.585411499999999 L106.77144799999999 -6.585411499999999 L106.771102 -6.584891 L106.7692105 -6.5825885 L106.7692105 -6.5825885 L106.767319 -6.580286 L106.7654425 -6.5804025 L106.7654425 -6.5804025 L106.763566 -6.580519 L106.7584415 -6.578377 L106.7584415 -6.578377 L106.753317 -6.576235 L106.752347 -6.574922 L106.752347 -6.574922 L106.751377 -6.573609 L106.753207322782 -6.572419015368464 L106.75354267721801 -6.572200984631536 L106.755373 -6.571011 L106.75354267721801 -6.572200984631536 L106.753207322782 -6.572419015368464 L106.751377 -6.573609 L106.752347 -6.574922 L106.752347 -6.574922 L106.753317 -6.576235 L106.7584415 -6.578377 L106.7584415 -6.578377 L106.763566 -6.580519 L106.7654425 -6.5804025 L106.7654425 -6.5804025 L106.767319 -6.580286 L106.7692105 -6.5825885 L106.7692105 -6.5825885 L106.771102 -6.584891 L106.77144799999999 -6.585411499999999 L106.77144799999999 -6.585411499999999 L106.771794 -6.585932 L106.7719745 -6.5868555 L106.7719745 -6.5868555 L106.772155 -6.587779 L106.77560613651038 -6.591794324818861 L106.77586686348961 -6.592097675181139 L106.779318 -6.596113 L106.77920950826004 -6.596120749409997 L106.77960849173996 -6.596092250590002 L106.7795 -6.5961 L106.7801 -6.5962 L106.7801 -6.5962 L106.7807 -6.5963 L106.78165 -6.59535 L106.78165 -6.59535 L106.7826 -6.5944 L106.7836 -6.59485 L106.7836 -6.59485 L106.7846 -6.5953 L106.7861 -6.59545 L106.7861 -6.59545 L106.7876 -6.5956 L106.78717692307693 -6.5945846153846155 L106.78702307692309 -6.594215384615385 L106.7866 -6.5932 L106.78700069084836 -6.59316660909597 L106.78739930915167 -6.593133390904029 L106.7878 -6.5931 L106.7881 -6.5943000000000005 L106.7881 -6.5943000000000005 L106.7884 -6.5955 L106.78905 -6.595700000000001 L106.78905 -6.595700000000001 L106.7897 -6.5959 L106.79169999999999 -6.5964 L106.79169999999999 -6.5964 L106.7937 -6.5969 L106.79407977531169 -6.595887265835514 L106.79422022468832 -6.595512734164486 L106.7946 -6.5945 L106.79507584272389 -6.594235642931178 L106.79682415727612 -6.593264357068822 L106.7973 -6.593 L106.79693963352256 -6.592836197055696 L106.79876036647747 -6.593663802944302 L106.7984 -6.5935 L106.79960700000001 -6.592881 L106.79960700000001 -6.592881 L106.800814 -6.592262 L106.80131 -6.5924645 L106.80131 -6.5924645 L106.801806 -6.592667 L106.802353 -6.5930835 L106.802353 -6.5930835 L106.8029 -6.5935 L106.80365 -6.5947 L106.80365 -6.5947 L106.8044 -6.5959 L106.8048 -6.5984 L106.8048 -6.5984 L106.8052 -6.6009 L106.80506624763873 -6.601087253305759 L106.80483375236125 -6.601412746694241 L106.8047 -6.6016 L106.80471298016874 -6.601598390599024 L106.80431601983125 -6.601647609400976 L106.804329 -6.601646 L106.80230906642659 -6.602126697671339 L106.80191993357339 -6.602219302328661 L106.7999 -6.6027 L106.79974999999999 -6.6027 L106.79974999999999 -6.6027 L106.7996 -6.6027 L106.8004521980674 -6.602273900966297 L106.7979478019326 -6.603526099033703 L106.7988 -6.6031 L106.79868853473549 -6.602889454500384 L106.79981146526451 -6.605010545499616 L106.7997 -6.6048 L106.80109999999999 -6.6065000000000005 L106.80109999999999 -6.6065000000000005 L106.8025 -6.6082 L106.80449999999999 -6.609999999999999 L106.80449999999999 -6.609999999999999 L106.8065 -6.6118 L106.8084 -6.6141 L106.8084 -6.6141 L106.8103 -6.6164 L106.8124 -6.61825 L106.8124 -6.61825 L106.8145 -6.6201 L106.81344999999999 -6.62045 L106.81344999999999 -6.62045 L106.8124 -6.6208 L106.81235 -6.6221499999999995 L106.81235 -6.6221499999999995 L106.8123 -6.6235 L106.8112 -6.62365 L106.8112 -6.62365 L106.8101 -6.6238 L106.81 -6.6242 L106.81 -6.6242 L106.8099 -6.6246 L106.80976641005886 -6.624689059960756 L106.80943358994112 -6.6249109400392445 L106.8093 -6.625 L106.8091 -6.624750000000001 L106.8091 -6.624750000000001 L106.8089 -6.6245 L106.80875 -6.623150000000001 L106.80875 -6.623150000000001 L106.8086 -6.6218 L106.80825 -6.621650000000001 L106.80825 -6.621650000000001 L106.8079 -6.6215 L106.8074 -6.620150000000001 L106.8074 -6.620150000000001 L106.8069 -6.6188 L106.8057 -6.61755 L106.8057 -6.61755 L106.8045 -6.6163 L106.80395 -6.61525 L106.80395 -6.61525 L106.8034 -6.6142 L106.80297587356624 -6.613580122904501 L106.80252412643377 -6.612919877095501 L106.8021 -6.6123 L106.80123057210376 -6.6118859867160795 L106.80086942789625 -6.611714013283922 L106.8 -6.6113 L106.79820000000001 -6.60975 L106.79820000000001 -6.60975 L106.7964 -6.6082 L106.79565 -6.607950000000001 L106.79565 -6.607950000000001 L106.7949 -6.6077 L106.79515 -6.60685 L106.79515 -6.60685 L106.7954 -6.606 L106.79595 -6.6053 L106.79595 -6.6053 L106.7965 -6.6046 L106.7963 -6.6042 L106.7963 -6.6042 L106.7961 -6.6038 L106.79529422474992 -6.6014833961560475 L106.79450577525007 -6.599216603843952 L106.7937 -6.5969 Z" stroke="orange" stroke-width="0.0002" fill="none" />
    <circle 
      cx="106.755373" cy="-12.571011"
      r="15" transform="translate(106.755373 -6.571011) scale(0.00001 -0.00001) translate(-106.755373 6.571011) translate(106.8125 -6.592499999999999) rotate(-30) translate(-106.8125 6.592499999999999)"
      fill="white" stroke="black" stroke-width="2"/>
    <circle 
      cx="106.755373" cy="-12.571011"
      r="15" transform="translate(106.755373 -6.571011) scale(0.00001 -0.00001) translate(-106.755373 6.571011) translate(106.8125 -6.592499999999999) rotate(-30) translate(-106.8125 6.592499999999999)"
      fill="white" stroke="none"/>
    <text x="106.755373" y="-6.571011" fill="black" text-anchor="middle" transform="translate(106.755373 -6.571011) scale(0.00001 -0.00001) translate(-106.755373 6.571011) translate(106.8125 -6.592499999999999) rotate(-30) translate(-106.8125 6.592499999999999)">02</text>
    <line x1="106.7937" y1="-6.5969" x2="106.7897" y2="-6.5959" style="stroke:rgb(255,0,0);stroke-width:.00002" />
    <line x1="106.7937" y1="-6.5969" x2="106.79286417100016" y2="-6.596691042750043" style="stroke:rgb(0,0,0);stroke-width:.00002" />
    <line x1="106.79286417100016" y1="-6.596691042750043" x2="106.79053582899982" y2="-6.596108957249957" style="stroke:rgb(0,0,0);stroke-width:.00002" />
    <line x1="106.79053582899982" y1="-6.596108957249957" x2="106.7897" y2="-6.5959" style="stroke:rgb(0,0,0);stroke-width:.00002" />
    <circle cx="106.7937" cy="-6.5969" fill="rgb(255,0,0)" r=".0001" />
    <text x="106.7937" y="-6.5969" stroke="rgb(0,0,0)" transform="translate(106.7937 -6.5969),scale(0.00001 -0.00001),translate(-106.7937 6.5969),translate(106.8125 -6.592499999999999),rotate(-30),translate(-106.8125 6.592499999999999)" >kb-muslihat</text>
    <line x1="106.7897" y1="-6.5959" x2="106.7884" y2="-6.5955" style="stroke:rgb(255,0,0);stroke-width:.00002" />
    <line x1="106.7897" y1="-6.5959" x2="106.78905" y2="-6.595700000000001" style="stroke:rgb(0,0,0);stroke-width:.00002" />
    <line x1="106.78905" y1="-6.595700000000001" x2="106.78905" y2="-6.595700000000001" style="stroke:rgb(0,0,0);stroke-width:.00002" />
    <line x1="106.78905" y1="-6.595700000000001" x2="106.7884" y2="-6.5955" style="stroke:rgb(0,0,0);stroke-width:.00002" />
    <circle cx="106.7897" cy="-6.5959" fill="rgb(255,0,0)" r=".0001" />
    <text x="106.7897" y="-6.5959" stroke="rgb(0,0,0)" transform="translate(106.7897 -6.5959),scale(0.00001 -0.00001),translate(-106.7897 6.5959),translate(106.8125 -6.592499999999999),rotate(-30),translate(-106.8125 6.592499999999999)" >stasiun-paledang</text>
    <line x1="106.7884" y1="-6.5955" x2="106.7876" y2="-6.5956" style="stroke:rgb(255,0,0);stroke-width:.00002" />
    <line x1="106.7884" y1="-6.5955" x2="106.788" y2="-6.59555" style="stroke:rgb(0,0,0);stroke-width:.00002" />
    <line x1="106.788" y1="-6.59555" x2="106.788" y2="-6.59555" style="stroke:rgb(0,0,0);stroke-width:.00002" />
    <line x1="106.788" y1="-6.59555" x2="106.7876" y2="-6.5956" style="stroke:rgb(0,0,0);stroke-width:.00002" />
    <circle cx="106.7884" cy="-6.5955" fill="rgb(255,0,0)" r=".0001" />
    <text x="106.7884" y="-6.5955" stroke="rgb(0,0,0)" transform="translate(106.7884 -6.5955),scale(0.00001 -0.00001),translate(-106.7884 6.5955),translate(106.8125 -6.592499999999999),rotate(-30),translate(-106.8125 6.592499999999999)" >veteran-merdeka</text>
    <line x1="106.7876" y1="-6.5956" x2="106.7846" y2="-6.5953" style="stroke:rgb(255,0,0);stroke-width:.00002" />
    <line x1="106.7876" y1="-6.5956" x2="106.78629900743805" y2="-6.595469900743804" style="stroke:rgb(0,0,0);stroke-width:.00002" />
    <line x1="106.78629900743805" y1="-6.595469900743804" x2="106.78590099256196" y2="-6.595430099256196" style="stroke:rgb(0,0,0);stroke-width:.00002" />
    <line x1="106.78590099256196" y1="-6.595430099256196" x2="106.7846" y2="-6.5953" style="stroke:rgb(0,0,0);stroke-width:.00002" />
    <circle cx="106.7876" cy="-6.5956" fill="rgb(255,0,0)" r=".0001" />
    <text x="106.7876" y="-6.5956" stroke="rgb(0,0,0)" transform="translate(106.7876 -6.5956),scale(0.00001 -0.00001),translate(-106.7876 6.5956),translate(106.8125 -6.592499999999999),rotate(-30),translate(-106.8125 6.592499999999999)" >veteran-kemerdekaan</text>
    <line x1="106.7846" y1="-6.5953" x2="106.7826" y2="-6.5944" style="stroke:rgb(255,0,0);stroke-width:.00002" />
    <line x1="106.7846" y1="-6.5953" x2="106.7836" y2="-6.59485" style="stroke:rgb(0,0,0);stroke-width:.00002" />
    <line x1="106.7836" y1="-6.59485" x2="106.7836" y2="-6.59485" style="stroke:rgb(0,0,0);stroke-width:.00002" />
    <line x1="106.7836" y1="-6.59485" x2="106.7826" y2="-6.5944" style="stroke:rgb(0,0,0);stroke-width:.00002" />
    <circle cx="106.7846" cy="-6.5953" fill="rgb(255,0,0)" r=".0001" />
    <text x="106.7846" y="-6.5953" stroke="rgb(0,0,0)" transform="translate(106.7846 -6.5953),scale(0.00001 -0.00001),translate(-106.7846 6.5953),translate(106.8125 -6.592499999999999),rotate(-30),translate(-106.8125 6.592499999999999)" >veteran</text>
    <line x1="106.7826" y1="-6.5944" x2="106.7807" y2="-6.5963" style="stroke:rgb(255,0,0);stroke-width:.00002" />
    <line x1="106.7826" y1="-6.5944" x2="106.78165" y2="-6.59535" style="stroke:rgb(0,0,0);stroke-width:.00002" />
    <line x1="106.78165" y1="-6.59535" x2="106.78165" y2="-6.59535" style="stroke:rgb(0,0,0);stroke-width:.00002" />
    <line x1="106.78165" y1="-6.59535" x2="106.7807" y2="-6.5963" style="stroke:rgb(0,0,0);stroke-width:.00002" />
    <circle cx="106.7826" cy="-6.5944" fill="rgb(255,0,0)" r=".0001" />
    <text x="106.7826" y="-6.5944" stroke="rgb(0,0,0)" transform="translate(106.7826 -6.5944),scale(0.00001 -0.00001),translate(-106.7826 6.5944),translate(106.8125 -6.592499999999999),rotate(-30),translate(-106.8125 6.592499999999999)" >veteran-gnbatu</text>
    <line x1="106.7807" y1="-6.5963" x2="106.7795" y2="-6.5961" style="stroke:rgb(255,0,0);stroke-width:.00002" />
    <line x1="106.7807" y1="-6.5963" x2="106.7801" y2="-6.5962" style="stroke:rgb(0,0,0);stroke-width:.00002" />
    <line x1="106.7801" y1="-6.5962" x2="106.7801" y2="-6.5962" style="stroke:rgb(0,0,0);stroke-width:.00002" />
    <line x1="106.7801" y1="-6.5962" x2="106.7795" y2="-6.5961" style="stroke:rgb(0,0,0);stroke-width:.00002" />
    <circle cx="106.7807" cy="-6.5963" fill="rgb(255,0,0)" r=".0001" />
    <text x="106.7807" y="-6.5963" stroke="rgb(0,0,0)" transform="translate(106.7807 -6.5963),scale(0.00001 -0.00001),translate(-106.7807 6.5963),translate(106.8125 -6.592499999999999),rotate(-30),translate(-106.8125 6.592499999999999)" >gnbatu-1</text>
    <line x1="106.7795" y1="-6.5961" x2="106.779318" y2="-6.596113" style="stroke:rgb(255,0,0);stroke-width:.00002" />
    <line x1="106.7795" y1="-6.5961" x2="106.779409" y2="-6.596106499999999" style="stroke:rgb(0,0,0);stroke-width:.00002" />
    <line x1="106.779409" y1="-6.596106499999999" x2="106.779409" y2="-6.596106499999999" style="stroke:rgb(0,0,0);stroke-width:.00002" />
    <line x1="106.779409" y1="-6.596106499999999" x2="106.779318" y2="-6.596113" style="stroke:rgb(0,0,0);stroke-width:.00002" />
    <circle cx="106.7795" cy="-6.5961" fill="rgb(255,0,0)" r=".0001" />
    <text x="106.7795" y="-6.5961" stroke="rgb(0,0,0)" transform="translate(106.7795 -6.5961),scale(0.00001 -0.00001),translate(-106.7795 6.5961),translate(106.8125 -6.592499999999999),rotate(-30),translate(-106.8125 6.592499999999999)" >gnbatu-2</text>
    <line x1="106.779318" y1="-6.596113" x2="106.772155" y2="-6.587779" style="stroke:rgb(255,0,0);stroke-width:.00002" />
    <line x1="106.779318" y1="-6.596113" x2="106.7757365" y2="-6.591946" style="stroke:rgb(0,0,0);stroke-width:.00002" />
    <line x1="106.7757365" y1="-6.591946" x2="106.7757365" y2="-6.591946" style="stroke:rgb(0,0,0);stroke-width:.00002" />
    <line x1="106.7757365" y1="-6.591946" x2="106.772155" y2="-6.587779" style="stroke:rgb(0,0,0);stroke-width:.00002" />
    <circle cx="106.779318" cy="-6.596113" fill="rgb(255,0,0)" r=".0001" />
    <text x="106.779318" y="-6.596113" stroke="rgb(0,0,0)" transform="translate(106.779318 -6.596113),scale(0.00001 -0.00001),translate(-106.779318 6.596113),translate(106.8125 -6.592499999999999),rotate(-30),translate(-106.8125 6.592499999999999)" >abdullah-batu</text>
    <line x1="106.772155" y1="-6.587779" x2="106.771794" y2="-6.585932" style="stroke:rgb(255,0,0);stroke-width:.00002" />
    <line x1="106.772155" y1="-6.587779" x2="106.7719745" y2="-6.5868555" style="stroke:rgb(0,0,0);stroke-width:.00002" />
    <line x1="106.7719745" y1="-6.5868555" x2="106.7719745" y2="-6.5868555" style="stroke:rgb(0,0,0);stroke-width:.00002" />
    <line x1="106.7719745" y1="-6.5868555" x2="106.771794" y2="-6.585932" style="stroke:rgb(0,0,0);stroke-width:.00002" />
    <circle cx="106.772155" cy="-6.587779" fill="rgb(255,0,0)" r=".0001" />
    <text x="106.772155" y="-6.587779" stroke="rgb(0,0,0)" transform="translate(106.772155 -6.587779),scale(0.00001 -0.00001),translate(-106.772155 6.587779),translate(106.8125 -6.592499999999999),rotate(-30),translate(-106.8125 6.592499999999999)" >sind-barang-1</text>
    <line x1="106.771794" y1="-6.585932" x2="106.771102" y2="-6.584891" style="stroke:rgb(255,0,0);stroke-width:.00002" />
    <line x1="106.771794" y1="-6.585932" x2="106.77144799999999" y2="-6.585411499999999" style="stroke:rgb(0,0,0);stroke-width:.00002" />
    <line x1="106.77144799999999" y1="-6.585411499999999" x2="106.77144799999999" y2="-6.585411499999999" style="stroke:rgb(0,0,0);stroke-width:.00002" />
    <line x1="106.77144799999999" y1="-6.585411499999999" x2="106.771102" y2="-6.584891" style="stroke:rgb(0,0,0);stroke-width:.00002" />
    <circle cx="106.771794" cy="-6.585932" fill="rgb(255,0,0)" r=".0001" />
    <text x="106.771794" y="-6.585932" stroke="rgb(0,0,0)" transform="translate(106.771794 -6.585932),scale(0.00001 -0.00001),translate(-106.771794 6.585932),translate(106.8125 -6.592499999999999),rotate(-30),translate(-106.8125 6.592499999999999)" >sind-barang-2</text>
    <line x1="106.771102" y1="-6.584891" x2="106.767319" y2="-6.580286" style="stroke:rgb(255,0,0);stroke-width:.00002" />
    <line x1="106.771102" y1="-6.584891" x2="106.7692105" y2="-6.5825885" style="stroke:rgb(0,0,0);stroke-width:.00002" />
    <line x1="106.7692105" y1="-6.5825885" x2="106.7692105" y2="-6.5825885" style="stroke:rgb(0,0,0);stroke-width:.00002" />
    <line x1="106.7692105" y1="-6.5825885" x2="106.767319" y2="-6.580286" style="stroke:rgb(0,0,0);stroke-width:.00002" />
    <circle cx="106.771102" cy="-6.584891" fill="rgb(255,0,0)" r=".0001" />
    <text x="106.771102" y="-6.584891" stroke="rgb(0,0,0)" transform="translate(106.771102 -6.584891),scale(0.00001 -0.00001),translate(-106.771102 6.584891),translate(106.8125 -6.592499999999999),rotate(-30),translate(-106.8125 6.592499999999999)" >sind-barang-darulquran</text>
    <line x1="106.767319" y1="-6.580286" x2="106.763566" y2="-6.580519" style="stroke:rgb(255,0,0);stroke-width:.00002" />
    <line x1="106.767319" y1="-6.580286" x2="106.7654425" y2="-6.5804025" style="stroke:rgb(0,0,0);stroke-width:.00002" />
    <line x1="106.7654425" y1="-6.5804025" x2="106.7654425" y2="-6.5804025" style="stroke:rgb(0,0,0);stroke-width:.00002" />
    <line x1="106.7654425" y1="-6.5804025" x2="106.763566" y2="-6.580519" style="stroke:rgb(0,0,0);stroke-width:.00002" />
    <circle cx="106.767319" cy="-6.580286" fill="rgb(255,0,0)" r=".0001" />
    <text x="106.767319" y="-6.580286" stroke="rgb(0,0,0)" transform="translate(106.767319 -6.580286),scale(0.00001 -0.00001),translate(-106.767319 6.580286),translate(106.8125 -6.592499999999999),rotate(-30),translate(-106.8125 6.592499999999999)" >sind-barang-3</text>
    <line x1="106.763566" y1="-6.580519" x2="106.753317" y2="-6.576235" style="stroke:rgb(255,0,0);stroke-width:.00002" />
    <line x1="106.763566" y1="-6.580519" x2="106.7584415" y2="-6.578377" style="stroke:rgb(0,0,0);stroke-width:.00002" />
    <line x1="106.7584415" y1="-6.578377" x2="106.7584415" y2="-6.578377" style="stroke:rgb(0,0,0);stroke-width:.00002" />
    <line x1="106.7584415" y1="-6.578377" x2="106.753317" y2="-6.576235" style="stroke:rgb(0,0,0);stroke-width:.00002" />
    <circle cx="106.763566" cy="-6.580519" fill="rgb(255,0,0)" r=".0001" />
    <text x="106.763566" y="-6.580519" stroke="rgb(0,0,0)" transform="translate(106.763566 -6.580519),scale(0.00001 -0.00001),translate(-106.763566 6.580519),translate(106.8125 -6.592499999999999),rotate(-30),translate(-106.8125 6.592499999999999)" >sind-barang-4</text>
    <line x1="106.753317" y1="-6.576235" x2="106.751377" y2="-6.573609" style="stroke:rgb(255,0,0);stroke-width:.00002" />
    <line x1="106.753317" y1="-6.576235" x2="106.752347" y2="-6.574922" style="stroke:rgb(0,0,0);stroke-width:.00002" />
    <line x1="106.752347" y1="-6.574922" x2="106.752347" y2="-6.574922" style="stroke:rgb(0,0,0);stroke-width:.00002" />
    <line x1="106.752347" y1="-6.574922" x2="106.751377" y2="-6.573609" style="stroke:rgb(0,0,0);stroke-width:.00002" />
    <circle cx="106.753317" cy="-6.576235" fill="rgb(255,0,0)" r=".0001" />
    <text x="106.753317" y="-6.576235" stroke="rgb(0,0,0)" transform="translate(106.753317 -6.576235),scale(0.00001 -0.00001),translate(-106.753317 6.576235),translate(106.8125 -6.592499999999999),rotate(-30),translate(-106.8125 6.592499999999999)" >sind-barang-adjie</text>
    <line x1="106.751377" y1="-6.573609" x2="106.755373" y2="-6.571011" style="stroke:rgb(255,0,0);stroke-width:.00002" />
    <line x1="106.751377" y1="-6.573609" x2="106.753207322782" y2="-6.572419015368464" style="stroke:rgb(0,0,0);stroke-width:.00002" />
    <line x1="106.753207322782" y1="-6.572419015368464" x2="106.75354267721801" y2="-6.572200984631536" style="stroke:rgb(0,0,0);stroke-width:.00002" />
    <line x1="106.75354267721801" y1="-6.572200984631536" x2="106.755373" y2="-6.571011" style="stroke:rgb(0,0,0);stroke-width:.00002" />
    <circle cx="106.751377" cy="-6.573609" fill="rgb(255,0,0)" r=".0001" />
    <text x="106.751377" y="-6.573609" stroke="rgb(0,0,0)" transform="translate(106.751377 -6.573609),scale(0.00001 -0.00001),translate(-106.751377 6.573609),translate(106.8125 -6.592499999999999),rotate(-30),translate(-106.8125 6.592499999999999)" >adjie-ciampea</text>
    <line x1="106.755373" y1="-6.571011" x2="106.751377" y2="-6.573609" style="stroke:rgb(255,0,0);stroke-width:.00002" />
    <line x1="106.755373" y1="-6.571011" x2="106.75354267721801" y2="-6.572200984631536" style="stroke:rgb(0,0,0);stroke-width:.00002" />
    <line x1="106.75354267721801" y1="-6.572200984631536" x2="106.753207322782" y2="-6.572419015368464" style="stroke:rgb(0,0,0);stroke-width:.00002" />
    <line x1="106.753207322782" y1="-6.572419015368464" x2="106.751377" y2="-6.573609" style="stroke:rgb(0,0,0);stroke-width:.00002" />
    <circle cx="106.755373" cy="-6.571011" fill="rgb(255,0,0)" r=".0001" />
    <text x="106.755373" y="-6.571011" stroke="rgb(0,0,0)" transform="translate(106.755373 -6.571011),scale(0.00001 -0.00001),translate(-106.755373 6.571011),translate(106.8125 -6.592499999999999),rotate(-30),translate(-106.8125 6.592499999999999)" >bubulak</text>
    <line x1="106.751377" y1="-6.573609" x2="106.753317" y2="-6.576235" style="stroke:rgb(255,0,0);stroke-width:.00002" />
    <line x1="106.751377" y1="-6.573609" x2="106.752347" y2="-6.574922" style="stroke:rgb(0,0,0);stroke-width:.00002" />
    <line x1="106.752347" y1="-6.574922" x2="106.752347" y2="-6.574922" style="stroke:rgb(0,0,0);stroke-width:.00002" />
    <line x1="106.752347" y1="-6.574922" x2="106.753317" y2="-6.576235" style="stroke:rgb(0,0,0);stroke-width:.00002" />
    <circle cx="106.751377" cy="-6.573609" fill="rgb(255,0,0)" r=".0001" />
    <text x="106.751377" y="-6.573609" stroke="rgb(0,0,0)" transform="translate(106.751377 -6.573609),scale(0.00001 -0.00001),translate(-106.751377 6.573609),translate(106.8125 -6.592499999999999),rotate(-30),translate(-106.8125 6.592499999999999)" >adjie-ciampea</text>
    <line x1="106.753317" y1="-6.576235" x2="106.763566" y2="-6.580519" style="stroke:rgb(255,0,0);stroke-width:.00002" />
    <line x1="106.753317" y1="-6.576235" x2="106.7584415" y2="-6.578377" style="stroke:rgb(0,0,0);stroke-width:.00002" />
    <line x1="106.7584415" y1="-6.578377" x2="106.7584415" y2="-6.578377" style="stroke:rgb(0,0,0);stroke-width:.00002" />
    <line x1="106.7584415" y1="-6.578377" x2="106.763566" y2="-6.580519" style="stroke:rgb(0,0,0);stroke-width:.00002" />
    <circle cx="106.753317" cy="-6.576235" fill="rgb(255,0,0)" r=".0001" />
    <text x="106.753317" y="-6.576235" stroke="rgb(0,0,0)" transform="translate(106.753317 -6.576235),scale(0.00001 -0.00001),translate(-106.753317 6.576235),translate(106.8125 -6.592499999999999),rotate(-30),translate(-106.8125 6.592499999999999)" >sind-barang-adjie</text>
    <line x1="106.763566" y1="-6.580519" x2="106.767319" y2="-6.580286" style="stroke:rgb(255,0,0);stroke-width:.00002" />
    <line x1="106.763566" y1="-6.580519" x2="106.7654425" y2="-6.5804025" style="stroke:rgb(0,0,0);stroke-width:.00002" />
    <line x1="106.7654425" y1="-6.5804025" x2="106.7654425" y2="-6.5804025" style="stroke:rgb(0,0,0);stroke-width:.00002" />
    <line x1="106.7654425" y1="-6.5804025" x2="106.767319" y2="-6.580286" style="stroke:rgb(0,0,0);stroke-width:.00002" />
    <circle cx="106.763566" cy="-6.580519" fill="rgb(255,0,0)" r=".0001" />
    <text x="106.763566" y="-6.580519" stroke="rgb(0,0,0)" transform="translate(106.763566 -6.580519),scale(0.00001 -0.00001),translate(-106.763566 6.580519),translate(106.8125 -6.592499999999999),rotate(-30),translate(-106.8125 6.592499999999999)" >sind-barang-4</text>
    <line x1="106.767319" y1="-6.580286" x2="106.771102" y2="-6.584891" style="stroke:rgb(255,0,0);stroke-width:.00002" />
    <line x1="106.767319" y1="-6.580286" x2="106.7692105" y2="-6.5825885" style="stroke:rgb(0,0,0);stroke-width:.00002" />
    <line x1="106.7692105" y1="-6.5825885" x2="106.7692105" y2="-6.5825885" style="stroke:rgb(0,0,0);stroke-width:.00002" />
    <line x1="106.7692105" y1="-6.5825885" x2="106.771102" y2="-6.584891" style="stroke:rgb(0,0,0);stroke-width:.00002" />
    <circle cx="106.767319" cy="-6.580286" fill="rgb(255,0,0)" r=".0001" />
    <text x="106.767319" y="-6.580286" stroke="rgb(0,0,0)" transform="translate(106.767319 -6.580286),scale(0.00001 -0.00001),translate(-106.767319 6.580286),translate(106.8125 -6.592499999999999),rotate(-30),translate(-106.8125 6.592499999999999)" >sind-barang-3</text>
    <line x1="106.771102" y1="-6.584891" x2="106.771794" y2="-6.585932" style="stroke:rgb(255,0,0);stroke-width:.00002" />
    <line x1="106.771102" y1="-6.584891" x2="106.77144799999999" y2="-6.585411499999999" style="stroke:rgb(0,0,0);stroke-width:.00002" />
    <line x1="106.77144799999999" y1="-6.585411499999999" x2="106.77144799999999" y2="-6.585411499999999" style="stroke:rgb(0,0,0);stroke-width:.00002" />
    <line x1="106.77144799999999" y1="-6.585411499999999" x2="106.771794" y2="-6.585932" style="stroke:rgb(0,0,0);stroke-width:.00002" />
    <circle cx="106.771102" cy="-6.584891" fill="rgb(255,0,0)" r=".0001" />
    <text x="106.771102" y="-6.584891" stroke="rgb(0,0,0)" transform="translate(106.771102 -6.584891),scale(0.00001 -0.00001),translate(-106.771102 6.584891),translate(106.8125 -6.592499999999999),rotate(-30),translate(-106.8125 6.592499999999999)" >sind-barang-darulquran</text>
    <line x1="106.771794" y1="-6.585932" x2="106.772155" y2="-6.587779" style="stroke:rgb(255,0,0);stroke-width:.00002" />
    <line x1="106.771794" y1="-6.585932" x2="106.7719745" y2="-6.5868555" style="stroke:rgb(0,0,0);stroke-width:.00002" />
    <line x1="106.7719745" y1="-6.5868555" x2="106.7719745" y2="-6.5868555" style="stroke:rgb(0,0,0);stroke-width:.00002" />
    <line x1="106.7719745" y1="-6.5868555" x2="106.772155" y2="-6.587779" style="stroke:rgb(0,0,0);stroke-width:.00002" />
    <circle cx="106.771794" cy="-6.585932" fill="rgb(255,0,0)" r=".0001" />
    <text x="106.771794" y="-6.585932" stroke="rgb(0,0,0)" transform="translate(106.771794 -6.585932),scale(0.00001 -0.00001),translate(-106.771794 6.585932),translate(106.8125 -6.592499999999999),rotate(-30),translate(-106.8125 6.592499999999999)" >sind-barang-2</text>
    <line x1="106.772155" y1="-6.587779" x2="106.779318" y2="-6.596113" style="stroke:rgb(255,0,0);stroke-width:.00002" />
    <line x1="106.772155" y1="-6.587779" x2="106.77560613651038" y2="-6.591794324818861" style="stroke:rgb(0,0,0);stroke-width:.00002" />
    <line x1="106.77560613651038" y1="-6.591794324818861" x2="106.77586686348961" y2="-6.592097675181139" style="stroke:rgb(0,0,0);stroke-width:.00002" />
    <line x1="106.77586686348961" y1="-6.592097675181139" x2="106.779318" y2="-6.596113" style="stroke:rgb(0,0,0);stroke-width:.00002" />
    <circle cx="106.772155" cy="-6.587779" fill="rgb(255,0,0)" r=".0001" />
    <text x="106.772155" y="-6.587779" stroke="rgb(0,0,0)" transform="translate(106.772155 -6.587779),scale(0.00001 -0.00001),translate(-106.772155 6.587779),translate(106.8125 -6.592499999999999),rotate(-30),translate(-106.8125 6.592499999999999)" >sind-barang-1</text>
    <line x1="106.779318" y1="-6.596113" x2="106.7795" y2="-6.5961" style="stroke:rgb(255,0,0);stroke-width:.00002" />
    <line x1="106.779318" y1="-6.596113" x2="106.77920950826004" y2="-6.596120749409997" style="stroke:rgb(0,0,0);stroke-width:.00002" />
    <line x1="106.77920950826004" y1="-6.596120749409997" x2="106.77960849173996" y2="-6.596092250590002" style="stroke:rgb(0,0,0);stroke-width:.00002" />
    <line x1="106.77960849173996" y1="-6.596092250590002" x2="106.7795" y2="-6.5961" style="stroke:rgb(0,0,0);stroke-width:.00002" />
    <circle cx="106.779318" cy="-6.596113" fill="rgb(255,0,0)" r=".0001" />
    <text x="106.779318" y="-6.596113" stroke="rgb(0,0,0)" transform="translate(106.779318 -6.596113),scale(0.00001 -0.00001),translate(-106.779318 6.596113),translate(106.8125 -6.592499999999999),rotate(-30),translate(-106.8125 6.592499999999999)" >abdullah-batu</text>
    <line x1="106.7795" y1="-6.5961" x2="106.7807" y2="-6.5963" style="stroke:rgb(255,0,0);stroke-width:.00002" />
    <line x1="106.7795" y1="-6.5961" x2="106.7801" y2="-6.5962" style="stroke:rgb(0,0,0);stroke-width:.00002" />
    <line x1="106.7801" y1="-6.5962" x2="106.7801" y2="-6.5962" style="stroke:rgb(0,0,0);stroke-width:.00002" />
    <line x1="106.7801" y1="-6.5962" x2="106.7807" y2="-6.5963" style="stroke:rgb(0,0,0);stroke-width:.00002" />
    <circle cx="106.7795" cy="-6.5961" fill="rgb(255,0,0)" r=".0001" />
    <text x="106.7795" y="-6.5961" stroke="rgb(0,0,0)" transform="translate(106.7795 -6.5961),scale(0.00001 -0.00001),translate(-106.7795 6.5961),translate(106.8125 -6.592499999999999),rotate(-30),translate(-106.8125 6.592499999999999)" >gnbatu-2</text>
    <line x1="106.7807" y1="-6.5963" x2="106.7826" y2="-6.5944" style="stroke:rgb(255,0,0);stroke-width:.00002" />
    <line x1="106.7807" y1="-6.5963" x2="106.78165" y2="-6.59535" style="stroke:rgb(0,0,0);stroke-width:.00002" />
    <line x1="106.78165" y1="-6.59535" x2="106.78165" y2="-6.59535" style="stroke:rgb(0,0,0);stroke-width:.00002" />
    <line x1="106.78165" y1="-6.59535" x2="106.7826" y2="-6.5944" style="stroke:rgb(0,0,0);stroke-width:.00002" />
    <circle cx="106.7807" cy="-6.5963" fill="rgb(255,0,0)" r=".0001" />
    <text x="106.7807" y="-6.5963" stroke="rgb(0,0,0)" transform="translate(106.7807 -6.5963),scale(0.00001 -0.00001),translate(-106.7807 6.5963),translate(106.8125 -6.592499999999999),rotate(-30),translate(-106.8125 6.592499999999999)" >gnbatu-1</text>
    <line x1="106.7826" y1="-6.5944" x2="106.7846" y2="-6.5953" style="stroke:rgb(255,0,0);stroke-width:.00002" />
    <line x1="106.7826" y1="-6.5944" x2="106.7836" y2="-6.59485" style="stroke:rgb(0,0,0);stroke-width:.00002" />
    <line x1="106.7836" y1="-6.59485" x2="106.7836" y2="-6.59485" style="stroke:rgb(0,0,0);stroke-width:.00002" />
    <line x1="106.7836" y1="-6.59485" x2="106.7846" y2="-6.5953" style="stroke:rgb(0,0,0);stroke-width:.00002" />
    <circle cx="106.7826" cy="-6.5944" fill="rgb(255,0,0)" r=".0001" />
    <text x="106.7826" y="-6.5944" stroke="rgb(0,0,0)" transform="translate(106.7826 -6.5944),scale(0.00001 -0.00001),translate(-106.7826 6.5944),translate(106.8125 -6.592499999999999),rotate(-30),translate(-106.8125 6.592499999999999)" >veteran-gnbatu</text>
    <line x1="106.7846" y1="-6.5953" x2="106.7876" y2="-6.5956" style="stroke:rgb(255,0,0);stroke-width:.00002" />
    <line x1="106.7846" y1="-6.5953" x2="106.7861" y2="-6.59545" style="stroke:rgb(0,0,0);stroke-width:.00002" />
    <line x1="106.7861" y1="-6.59545" x2="106.7861" y2="-6.59545" style="stroke:rgb(0,0,0);stroke-width:.00002" />
    <line x1="106.7861" y1="-6.59545" x2="106.7876" y2="-6.5956" style="stroke:rgb(0,0,0);stroke-width:.00002" />
    <circle cx="106.7846" cy="-6.5953" fill="rgb(255,0,0)" r=".0001" />
    <text x="106.7846" y="-6.5953" stroke="rgb(0,0,0)" transform="translate(106.7846 -6.5953),scale(0.00001 -0.00001),translate(-106.7846 6.5953),translate(106.8125 -6.592499999999999),rotate(-30),translate(-106.8125 6.592499999999999)" >veteran</text>
    <line x1="106.7876" y1="-6.5956" x2="106.7866" y2="-6.5932" style="stroke:rgb(255,0,0);stroke-width:.00002" />
    <line x1="106.7876" y1="-6.5956" x2="106.78717692307693" y2="-6.5945846153846155" style="stroke:rgb(0,0,0);stroke-width:.00002" />
    <line x1="106.78717692307693" y1="-6.5945846153846155" x2="106.78702307692309" y2="-6.594215384615385" style="stroke:rgb(0,0,0);stroke-width:.00002" />
    <line x1="106.78702307692309" y1="-6.594215384615385" x2="106.7866" y2="-6.5932" style="stroke:rgb(0,0,0);stroke-width:.00002" />
    <circle cx="106.7876" cy="-6.5956" fill="rgb(255,0,0)" r=".0001" />
    <text x="106.7876" y="-6.5956" stroke="rgb(0,0,0)" transform="translate(106.7876 -6.5956),scale(0.00001 -0.00001),translate(-106.7876 6.5956),translate(106.8125 -6.592499999999999),rotate(-30),translate(-106.8125 6.592499999999999)" >veteran-kemerdekaan</text>
    <line x1="106.7866" y1="-6.5932" x2="106.7878" y2="-6.5931" style="stroke:rgb(255,0,0);stroke-width:.00002" />
    <line x1="106.7866" y1="-6.5932" x2="106.78700069084836" y2="-6.59316660909597" style="stroke:rgb(0,0,0);stroke-width:.00002" />
    <line x1="106.78700069084836" y1="-6.59316660909597" x2="106.78739930915167" y2="-6.593133390904029" style="stroke:rgb(0,0,0);stroke-width:.00002" />
    <line x1="106.78739930915167" y1="-6.593133390904029" x2="106.7878" y2="-6.5931" style="stroke:rgb(0,0,0);stroke-width:.00002" />
    <circle cx="106.7866" cy="-6.5932" fill="rgb(255,0,0)" r=".0001" />
    <text x="106.7866" y="-6.5932" stroke="rgb(0,0,0)" transform="translate(106.7866 -6.5932),scale(0.00001 -0.00001),translate(-106.7866 6.5932),translate(106.8125 -6.592499999999999),rotate(-30),translate(-106.8125 6.592499999999999)" >kemerdekaan</text>
    <line x1="106.7878" y1="-6.5931" x2="106.7884" y2="-6.5955" style="stroke:rgb(255,0,0);stroke-width:.00002" />
    <line x1="106.7878" y1="-6.5931" x2="106.7881" y2="-6.5943000000000005" style="stroke:rgb(0,0,0);stroke-width:.00002" />
    <line x1="106.7881" y1="-6.5943000000000005" x2="106.7881" y2="-6.5943000000000005" style="stroke:rgb(0,0,0);stroke-width:.00002" />
    <line x1="106.7881" y1="-6.5943000000000005" x2="106.7884" y2="-6.5955" style="stroke:rgb(0,0,0);stroke-width:.00002" />
    <circle cx="106.7878" cy="-6.5931" fill="rgb(255,0,0)" r=".0001" />
    <text x="106.7878" y="-6.5931" stroke="rgb(0,0,0)" transform="translate(106.7878 -6.5931),scale(0.00001 -0.00001),translate(-106.7878 6.5931),translate(106.8125 -6.592499999999999),rotate(-30),translate(-106.8125 6.592499999999999)" >merdeka</text>
    <line x1="106.7884" y1="-6.5955" x2="106.7897" y2="-6.5959" style="stroke:rgb(255,0,0);stroke-width:.00002" />
    <line x1="106.7884" y1="-6.5955" x2="106.78905" y2="-6.595700000000001" style="stroke:rgb(0,0,0);stroke-width:.00002" />
    <line x1="106.78905" y1="-6.595700000000001" x2="106.78905" y2="-6.595700000000001" style="stroke:rgb(0,0,0);stroke-width:.00002" />
    <line x1="106.78905" y1="-6.595700000000001" x2="106.7897" y2="-6.5959" style="stroke:rgb(0,0,0);stroke-width:.00002" />
    <circle cx="106.7884" cy="-6.5955" fill="rgb(255,0,0)" r=".0001" />
    <text x="106.7884" y="-6.5955" stroke="rgb(0,0,0)" transform="translate(106.7884 -6.5955),scale(0.00001 -0.00001),translate(-106.7884 6.5955),translate(106.8125 -6.592499999999999),rotate(-30),translate(-106.8125 6.592499999999999)" >veteran-merdeka</text>
    <line x1="106.7897" y1="-6.5959" x2="106.7937" y2="-6.5969" style="stroke:rgb(255,0,0);stroke-width:.00002" />
    <line x1="106.7897" y1="-6.5959" x2="106.79169999999999" y2="-6.5964" style="stroke:rgb(0,0,0);stroke-width:.00002" />
    <line x1="106.79169999999999" y1="-6.5964" x2="106.79169999999999" y2="-6.5964" style="stroke:rgb(0,0,0);stroke-width:.00002" />
    <line x1="106.79169999999999" y1="-6.5964" x2="106.7937" y2="-6.5969" style="stroke:rgb(0,0,0);stroke-width:.00002" />
    <circle cx="106.7897" cy="-6.5959" fill="rgb(255,0,0)" r=".0001" />
    <text x="106.7897" y="-6.5959" stroke="rgb(0,0,0)" transform="translate(106.7897 -6.5959),scale(0.00001 -0.00001),translate(-106.7897 6.5959),translate(106.8125 -6.592499999999999),rotate(-30),translate(-106.8125 6.592499999999999)" >stasiun-paledang</text>
    <line x1="106.7937" y1="-6.5969" x2="106.7946" y2="-6.5945" style="stroke:rgb(255,0,0);stroke-width:.00002" />
    <line x1="106.7937" y1="-6.5969" x2="106.79407977531169" y2="-6.595887265835514" style="stroke:rgb(0,0,0);stroke-width:.00002" />
    <line x1="106.79407977531169" y1="-6.595887265835514" x2="106.79422022468832" y2="-6.595512734164486" style="stroke:rgb(0,0,0);stroke-width:.00002" />
    <line x1="106.79422022468832" y1="-6.595512734164486" x2="106.7946" y2="-6.5945" style="stroke:rgb(0,0,0);stroke-width:.00002" />
    <circle cx="106.7937" cy="-6.5969" fill="rgb(255,0,0)" r=".0001" />
    <text x="106.7937" y="-6.5969" stroke="rgb(0,0,0)" transform="translate(106.7937 -6.5969),scale(0.00001 -0.00001),translate(-106.7937 6.5969),translate(106.8125 -6.592499999999999),rotate(-30),translate(-106.8125 6.592499999999999)" >kb-muslihat</text>
    <line x1="106.7946" y1="-6.5945" x2="106.7973" y2="-6.593" style="stroke:rgb(255,0,0);stroke-width:.00002" />
    <line x1="106.7946" y1="-6.5945" x2="106.79507584272389" y2="-6.594235642931178" style="stroke:rgb(0,0,0);stroke-width:.00002" />
    <line x1="106.79507584272389" y1="-6.594235642931178" x2="106.79682415727612" y2="-6.593264357068822" style="stroke:rgb(0,0,0);stroke-width:.00002" />
    <line x1="106.79682415727612" y1="-6.593264357068822" x2="106.7973" y2="-6.593" style="stroke:rgb(0,0,0);stroke-width:.00002" />
    <circle cx="106.7946" cy="-6.5945" fill="rgb(255,0,0)" r=".0001" />
    <text x="106.7946" y="-6.5945" stroke="rgb(0,0,0)" transform="translate(106.7946 -6.5945),scale(0.00001 -0.00001),translate(-106.7946 6.5945),translate(106.8125 -6.592499999999999),rotate(-30),translate(-106.8125 6.592499999999999)" >kb-gedong-sawah</text>
    <line x1="106.7973" y1="-6.593" x2="106.7984" y2="-6.5935" style="stroke:rgb(255,0,0);stroke-width:.00002" />
    <line x1="106.7973" y1="-6.593" x2="106.79693963352256" y2="-6.592836197055696" style="stroke:rgb(0,0,0);stroke-width:.00002" />
    <line x1="106.79693963352256" y1="-6.592836197055696" x2="106.79876036647747" y2="-6.593663802944302" style="stroke:rgb(0,0,0);stroke-width:.00002" />
    <line x1="106.79876036647747" y1="-6.593663802944302" x2="106.7984" y2="-6.5935" style="stroke:rgb(0,0,0);stroke-width:.00002" />
    <circle cx="106.7973" cy="-6.593" fill="rgb(255,0,0)" r=".0001" />
    <text x="106.7973" y="-6.593" stroke="rgb(0,0,0)" transform="translate(106.7973 -6.593),scale(0.00001 -0.00001),translate(-106.7973 6.593),translate(106.8125 -6.592499999999999),rotate(-30),translate(-106.8125 6.592499999999999)" >kb-polisi-militer</text>
    <line x1="106.7984" y1="-6.5935" x2="106.800814" y2="-6.592262" style="stroke:rgb(255,0,0);stroke-width:.00002" />
    <line x1="106.7984" y1="-6.5935" x2="106.79960700000001" y2="-6.592881" style="stroke:rgb(0,0,0);stroke-width:.00002" />
    <line x1="106.79960700000001" y1="-6.592881" x2="106.79960700000001" y2="-6.592881" style="stroke:rgb(0,0,0);stroke-width:.00002" />
    <line x1="106.79960700000001" y1="-6.592881" x2="106.800814" y2="-6.592262" style="stroke:rgb(0,0,0);stroke-width:.00002" />
    <circle cx="106.7984" cy="-6.5935" fill="rgb(255,0,0)" r=".0001" />
    <text x="106.7984" y="-6.5935" stroke="rgb(0,0,0)" transform="translate(106.7984 -6.5935),scale(0.00001 -0.00001),translate(-106.7984 6.5935),translate(106.8125 -6.592499999999999),rotate(-30),translate(-106.8125 6.592499999999999)" >kb-jalak-harupat</text>
    <line x1="106.800814" y1="-6.592262" x2="106.801806" y2="-6.592667" style="stroke:rgb(255,0,0);stroke-width:.00002" />
    <line x1="106.800814" y1="-6.592262" x2="106.80131" y2="-6.5924645" style="stroke:rgb(0,0,0);stroke-width:.00002" />
    <line x1="106.80131" y1="-6.5924645" x2="106.80131" y2="-6.5924645" style="stroke:rgb(0,0,0);stroke-width:.00002" />
    <line x1="106.80131" y1="-6.5924645" x2="106.801806" y2="-6.592667" style="stroke:rgb(0,0,0);stroke-width:.00002" />
    <circle cx="106.800814" cy="-6.592262" fill="rgb(255,0,0)" r=".0001" />
    <text x="106.800814" y="-6.592262" stroke="rgb(0,0,0)" transform="translate(106.800814 -6.592262),scale(0.00001 -0.00001),translate(-106.800814 6.592262),translate(106.8125 -6.592499999999999),rotate(-30),translate(-106.8125 6.592499999999999)" >kb-sempur</text>
    <line x1="106.801806" y1="-6.592667" x2="106.8029" y2="-6.5935" style="stroke:rgb(255,0,0);stroke-width:.00002" />
    <line x1="106.801806" y1="-6.592667" x2="106.802353" y2="-6.5930835" style="stroke:rgb(0,0,0);stroke-width:.00002" />
    <line x1="106.802353" y1="-6.5930835" x2="106.802353" y2="-6.5930835" style="stroke:rgb(0,0,0);stroke-width:.00002" />
    <line x1="106.802353" y1="-6.5930835" x2="106.8029" y2="-6.5935" style="stroke:rgb(0,0,0);stroke-width:.00002" />
    <circle cx="106.801806" cy="-6.592667" fill="rgb(255,0,0)" r=".0001" />
    <text x="106.801806" y="-6.592667" stroke="rgb(0,0,0)" transform="translate(106.801806 -6.592667),scale(0.00001 -0.00001),translate(-106.801806 6.592667),translate(106.8125 -6.592499999999999),rotate(-30),translate(-106.8125 6.592499999999999)" >kb-salak</text>
    <line x1="106.8029" y1="-6.5935" x2="106.8044" y2="-6.5959" style="stroke:rgb(255,0,0);stroke-width:.00002" />
    <line x1="106.8029" y1="-6.5935" x2="106.80365" y2="-6.5947" style="stroke:rgb(0,0,0);stroke-width:.00002" />
    <line x1="106.80365" y1="-6.5947" x2="106.80365" y2="-6.5947" style="stroke:rgb(0,0,0);stroke-width:.00002" />
    <line x1="106.80365" y1="-6.5947" x2="106.8044" y2="-6.5959" style="stroke:rgb(0,0,0);stroke-width:.00002" />
    <circle cx="106.8029" cy="-6.5935" fill="rgb(255,0,0)" r=".0001" />
    <text x="106.8029" y="-6.5935" stroke="rgb(0,0,0)" transform="translate(106.8029 -6.5935),scale(0.00001 -0.00001),translate(-106.8029 6.5935),translate(106.8125 -6.592499999999999),rotate(-30),translate(-106.8125 6.592499999999999)" >kb-pangrango</text>
    <line x1="106.8044" y1="-6.5959" x2="106.8052" y2="-6.6009" style="stroke:rgb(255,0,0);stroke-width:.00002" />
    <line x1="106.8044" y1="-6.5959" x2="106.8048" y2="-6.5984" style="stroke:rgb(0,0,0);stroke-width:.00002" />
    <line x1="106.8048" y1="-6.5984" x2="106.8048" y2="-6.5984" style="stroke:rgb(0,0,0);stroke-width:.00002" />
    <line x1="106.8048" y1="-6.5984" x2="106.8052" y2="-6.6009" style="stroke:rgb(0,0,0);stroke-width:.00002" />
    <circle cx="106.8044" cy="-6.5959" fill="rgb(255,0,0)" r=".0001" />
    <text x="106.8044" y="-6.5959" stroke="rgb(0,0,0)" transform="translate(106.8044 -6.5959),scale(0.00001 -0.00001),translate(-106.8044 6.5959),translate(106.8125 -6.592499999999999),rotate(-30),translate(-106.8125 6.592499999999999)" >kb-astrid</text>
    <line x1="106.8052" y1="-6.6009" x2="106.8047" y2="-6.6016" style="stroke:rgb(255,0,0);stroke-width:.00002" />
    <line x1="106.8052" y1="-6.6009" x2="106.80506624763873" y2="-6.601087253305759" style="stroke:rgb(0,0,0);stroke-width:.00002" />
    <line x1="106.80506624763873" y1="-6.601087253305759" x2="106.80483375236125" y2="-6.601412746694241" style="stroke:rgb(0,0,0);stroke-width:.00002" />
    <line x1="106.80483375236125" y1="-6.601412746694241" x2="106.8047" y2="-6.6016" style="stroke:rgb(0,0,0);stroke-width:.00002" />
    <circle cx="106.8052" cy="-6.6009" fill="rgb(255,0,0)" r=".0001" />
    <text x="106.8052" y="-6.6009" stroke="rgb(0,0,0)" transform="translate(106.8052 -6.6009),scale(0.00001 -0.00001),translate(-106.8052 6.6009),translate(106.8125 -6.592499999999999),rotate(-30),translate(-106.8125 6.592499999999999)" >kb-botani-1</text>
    <line x1="106.8047" y1="-6.6016" x2="106.804329" y2="-6.601646" style="stroke:rgb(255,0,0);stroke-width:.00002" />
    <line x1="106.8047" y1="-6.6016" x2="106.80471298016874" y2="-6.601598390599024" style="stroke:rgb(0,0,0);stroke-width:.00002" />
    <line x1="106.80471298016874" y1="-6.601598390599024" x2="106.80431601983125" y2="-6.601647609400976" style="stroke:rgb(0,0,0);stroke-width:.00002" />
    <line x1="106.80431601983125" y1="-6.601647609400976" x2="106.804329" y2="-6.601646" style="stroke:rgb(0,0,0);stroke-width:.00002" />
    <circle cx="106.8047" cy="-6.6016" fill="rgb(255,0,0)" r=".0001" />
    <text x="106.8047" y="-6.6016" stroke="rgb(0,0,0)" transform="translate(106.8047 -6.6016),scale(0.00001 -0.00001),translate(-106.8047 6.6016),translate(106.8125 -6.592499999999999),rotate(-30),translate(-106.8125 6.592499999999999)" >kb-botani-2</text>
    <line x1="106.804329" y1="-6.601646" x2="106.7999" y2="-6.6027" style="stroke:rgb(255,0,0);stroke-width:.00002" />
    <line x1="106.804329" y1="-6.601646" x2="106.80230906642659" y2="-6.602126697671339" style="stroke:rgb(0,0,0);stroke-width:.00002" />
    <line x1="106.80230906642659" y1="-6.602126697671339" x2="106.80191993357339" y2="-6.602219302328661" style="stroke:rgb(0,0,0);stroke-width:.00002" />
    <line x1="106.80191993357339" y1="-6.602219302328661" x2="106.7999" y2="-6.6027" style="stroke:rgb(0,0,0);stroke-width:.00002" />
    <circle cx="106.804329" cy="-6.601646" fill="rgb(255,0,0)" r=".0001" />
    <text x="106.804329" y="-6.601646" stroke="rgb(0,0,0)" transform="translate(106.804329 -6.601646),scale(0.00001 -0.00001),translate(-106.804329 6.601646),translate(106.8125 -6.592499999999999),rotate(-30),translate(-106.8125 6.592499999999999)" >bangka-otista</text>
    <line x1="106.7999" y1="-6.6027" x2="106.7996" y2="-6.6027" style="stroke:rgb(255,0,0);stroke-width:.00002" />
    <line x1="106.7999" y1="-6.6027" x2="106.79974999999999" y2="-6.6027" style="stroke:rgb(0,0,0);stroke-width:.00002" />
    <line x1="106.79974999999999" y1="-6.6027" x2="106.79974999999999" y2="-6.6027" style="stroke:rgb(0,0,0);stroke-width:.00002" />
    <line x1="106.79974999999999" y1="-6.6027" x2="106.7996" y2="-6.6027" style="stroke:rgb(0,0,0);stroke-width:.00002" />
    <circle cx="106.7999" cy="-6.6027" fill="rgb(255,0,0)" r=".0001" />
    <text x="106.7999" y="-6.6027" stroke="rgb(0,0,0)" transform="translate(106.7999 -6.6027),scale(0.00001 -0.00001),translate(-106.7999 6.6027),translate(106.8125 -6.592499999999999),rotate(-30),translate(-106.8125 6.592499999999999)" >otista-roda</text>
    <line x1="106.7996" y1="-6.6027" x2="106.7988" y2="-6.6031" style="stroke:rgb(255,0,0);stroke-width:.00002" />
    <line x1="106.7996" y1="-6.6027" x2="106.8004521980674" y2="-6.602273900966297" style="stroke:rgb(0,0,0);stroke-width:.00002" />
    <line x1="106.8004521980674" y1="-6.602273900966297" x2="106.7979478019326" y2="-6.603526099033703" style="stroke:rgb(0,0,0);stroke-width:.00002" />
    <line x1="106.7979478019326" y1="-6.603526099033703" x2="106.7988" y2="-6.6031" style="stroke:rgb(0,0,0);stroke-width:.00002" />
    <circle cx="106.7996" cy="-6.6027" fill="rgb(255,0,0)" r=".0001" />
    <text x="106.7996" y="-6.6027" stroke="rgb(0,0,0)" transform="translate(106.7996 -6.6027),scale(0.00001 -0.00001),translate(-106.7996 6.6027),translate(106.8125 -6.592499999999999),rotate(-30),translate(-106.8125 6.592499999999999)" >kb-otista</text>
    <line x1="106.7988" y1="-6.6031" x2="106.7997" y2="-6.6048" style="stroke:rgb(255,0,0);stroke-width:.00002" />
    <line x1="106.7988" y1="-6.6031" x2="106.79868853473549" y2="-6.602889454500384" style="stroke:rgb(0,0,0);stroke-width:.00002" />
    <line x1="106.79868853473549" y1="-6.602889454500384" x2="106.79981146526451" y2="-6.605010545499616" style="stroke:rgb(0,0,0);stroke-width:.00002" />
    <line x1="106.79981146526451" y1="-6.605010545499616" x2="106.7997" y2="-6.6048" style="stroke:rgb(0,0,0);stroke-width:.00002" />
    <circle cx="106.7988" cy="-6.6031" fill="rgb(255,0,0)" r=".0001" />
    <text x="106.7988" y="-6.6031" stroke="rgb(0,0,0)" transform="translate(106.7988 -6.6031),scale(0.00001 -0.00001),translate(-106.7988 6.6031),translate(106.8125 -6.592499999999999),rotate(-30),translate(-106.8125 6.592499999999999)" >kb-suryakencana</text>
    <line x1="106.7997" y1="-6.6048" x2="106.8025" y2="-6.6082" style="stroke:rgb(255,0,0);stroke-width:.00002" />
    <line x1="106.7997" y1="-6.6048" x2="106.80109999999999" y2="-6.6065000000000005" style="stroke:rgb(0,0,0);stroke-width:.00002" />
    <line x1="106.80109999999999" y1="-6.6065000000000005" x2="106.80109999999999" y2="-6.6065000000000005" style="stroke:rgb(0,0,0);stroke-width:.00002" />
    <line x1="106.80109999999999" y1="-6.6065000000000005" x2="106.8025" y2="-6.6082" style="stroke:rgb(0,0,0);stroke-width:.00002" />
    <circle cx="106.7997" cy="-6.6048" fill="rgb(255,0,0)" r=".0001" />
    <text x="106.7997" y="-6.6048" stroke="rgb(0,0,0)" transform="translate(106.7997 -6.6048),scale(0.00001 -0.00001),translate(-106.7997 6.6048),translate(106.8125 -6.592499999999999),rotate(-30),translate(-106.8125 6.592499999999999)" >suryakencana-1</text>
    <line x1="106.8025" y1="-6.6082" x2="106.8065" y2="-6.6118" style="stroke:rgb(255,0,0);stroke-width:.00002" />
    <line x1="106.8025" y1="-6.6082" x2="106.80449999999999" y2="-6.609999999999999" style="stroke:rgb(0,0,0);stroke-width:.00002" />
    <line x1="106.80449999999999" y1="-6.609999999999999" x2="106.80449999999999" y2="-6.609999999999999" style="stroke:rgb(0,0,0);stroke-width:.00002" />
    <line x1="106.80449999999999" y1="-6.609999999999999" x2="106.8065" y2="-6.6118" style="stroke:rgb(0,0,0);stroke-width:.00002" />
    <circle cx="106.8025" cy="-6.6082" fill="rgb(255,0,0)" r=".0001" />
    <text x="106.8025" y="-6.6082" stroke="rgb(0,0,0)" transform="translate(106.8025 -6.6082),scale(0.00001 -0.00001),translate(-106.8025 6.6082),translate(106.8125 -6.592499999999999),rotate(-30),translate(-106.8125 6.592499999999999)" >suryakencana-2</text>
    <line x1="106.8065" y1="-6.6118" x2="106.8103" y2="-6.6164" style="stroke:rgb(255,0,0);stroke-width:.00002" />
    <line x1="106.8065" y1="-6.6118" x2="106.8084" y2="-6.6141" style="stroke:rgb(0,0,0);stroke-width:.00002" />
    <line x1="106.8084" y1="-6.6141" x2="106.8084" y2="-6.6141" style="stroke:rgb(0,0,0);stroke-width:.00002" />
    <line x1="106.8084" y1="-6.6141" x2="106.8103" y2="-6.6164" style="stroke:rgb(0,0,0);stroke-width:.00002" />
    <circle cx="106.8065" cy="-6.6118" fill="rgb(255,0,0)" r=".0001" />
    <text x="106.8065" y="-6.6118" stroke="rgb(0,0,0)" transform="translate(106.8065 -6.6118),scale(0.00001 -0.00001),translate(-106.8065 6.6118),translate(106.8125 -6.592499999999999),rotate(-30),translate(-106.8125 6.592499999999999)" >siliwangi-1</text>
    <line x1="106.8103" y1="-6.6164" x2="106.8145" y2="-6.6201" style="stroke:rgb(255,0,0);stroke-width:.00002" />
    <line x1="106.8103" y1="-6.6164" x2="106.8124" y2="-6.61825" style="stroke:rgb(0,0,0);stroke-width:.00002" />
    <line x1="106.8124" y1="-6.61825" x2="106.8124" y2="-6.61825" style="stroke:rgb(0,0,0);stroke-width:.00002" />
    <line x1="106.8124" y1="-6.61825" x2="106.8145" y2="-6.6201" style="stroke:rgb(0,0,0);stroke-width:.00002" />
    <circle cx="106.8103" cy="-6.6164" fill="rgb(255,0,0)" r=".0001" />
    <text x="106.8103" y="-6.6164" stroke="rgb(0,0,0)" transform="translate(106.8103 -6.6164),scale(0.00001 -0.00001),translate(-106.8103 6.6164),translate(106.8125 -6.592499999999999),rotate(-30),translate(-106.8125 6.592499999999999)" >siliwangi-2</text>
    <line x1="106.8145" y1="-6.6201" x2="106.8124" y2="-6.6208" style="stroke:rgb(255,0,0);stroke-width:.00002" />
    <line x1="106.8145" y1="-6.6201" x2="106.81344999999999" y2="-6.62045" style="stroke:rgb(0,0,0);stroke-width:.00002" />
    <line x1="106.81344999999999" y1="-6.62045" x2="106.81344999999999" y2="-6.62045" style="stroke:rgb(0,0,0);stroke-width:.00002" />
    <line x1="106.81344999999999" y1="-6.62045" x2="106.8124" y2="-6.6208" style="stroke:rgb(0,0,0);stroke-width:.00002" />
    <circle cx="106.8145" cy="-6.6201" fill="rgb(255,0,0)" r=".0001" />
    <text x="106.8145" y="-6.6201" stroke="rgb(0,0,0)" transform="translate(106.8145 -6.6201),scale(0.00001 -0.00001),translate(-106.8145 6.6201),translate(106.8125 -6.592499999999999),rotate(-30),translate(-106.8125 6.592499999999999)" >siliwangi-lawanggintung</text>
    <line x1="106.8124" y1="-6.6208" x2="106.8123" y2="-6.6235" style="stroke:rgb(255,0,0);stroke-width:.00002" />
    <line x1="106.8124" y1="-6.6208" x2="106.81235" y2="-6.6221499999999995" style="stroke:rgb(0,0,0);stroke-width:.00002" />
    <line x1="106.81235" y1="-6.6221499999999995" x2="106.81235" y2="-6.6221499999999995" style="stroke:rgb(0,0,0);stroke-width:.00002" />
    <line x1="106.81235" y1="-6.6221499999999995" x2="106.8123" y2="-6.6235" style="stroke:rgb(0,0,0);stroke-width:.00002" />
    <circle cx="106.8124" cy="-6.6208" fill="rgb(255,0,0)" r=".0001" />
    <text x="106.8124" y="-6.6208" stroke="rgb(0,0,0)" transform="translate(106.8124 -6.6208),scale(0.00001 -0.00001),translate(-106.8124 6.6208),translate(106.8125 -6.592499999999999),rotate(-30),translate(-106.8125 6.592499999999999)" >lawanggintung-1</text>
    <line x1="106.8123" y1="-6.6235" x2="106.8101" y2="-6.6238" style="stroke:rgb(255,0,0);stroke-width:.00002" />
    <line x1="106.8123" y1="-6.6235" x2="106.8112" y2="-6.62365" style="stroke:rgb(0,0,0);stroke-width:.00002" />
    <line x1="106.8112" y1="-6.62365" x2="106.8112" y2="-6.62365" style="stroke:rgb(0,0,0);stroke-width:.00002" />
    <line x1="106.8112" y1="-6.62365" x2="106.8101" y2="-6.6238" style="stroke:rgb(0,0,0);stroke-width:.00002" />
    <circle cx="106.8123" cy="-6.6235" fill="rgb(255,0,0)" r=".0001" />
    <text x="106.8123" y="-6.6235" stroke="rgb(0,0,0)" transform="translate(106.8123 -6.6235),scale(0.00001 -0.00001),translate(-106.8123 6.6235),translate(106.8125 -6.592499999999999),rotate(-30),translate(-106.8125 6.592499999999999)" >lawanggintung-2</text>
    <line x1="106.8101" y1="-6.6238" x2="106.8099" y2="-6.6246" style="stroke:rgb(255,0,0);stroke-width:.00002" />
    <line x1="106.8101" y1="-6.6238" x2="106.81" y2="-6.6242" style="stroke:rgb(0,0,0);stroke-width:.00002" />
    <line x1="106.81" y1="-6.6242" x2="106.81" y2="-6.6242" style="stroke:rgb(0,0,0);stroke-width:.00002" />
    <line x1="106.81" y1="-6.6242" x2="106.8099" y2="-6.6246" style="stroke:rgb(0,0,0);stroke-width:.00002" />
    <circle cx="106.8101" cy="-6.6238" fill="rgb(255,0,0)" r=".0001" />
    <text x="106.8101" y="-6.6238" stroke="rgb(0,0,0)" transform="translate(106.8101 -6.6238),scale(0.00001 -0.00001),translate(-106.8101 6.6238),translate(106.8125 -6.592499999999999),rotate(-30),translate(-106.8125 6.592499999999999)" >lawanggintung-3</text>
    <line x1="106.8099" y1="-6.6246" x2="106.8093" y2="-6.625" style="stroke:rgb(255,0,0);stroke-width:.00002" />
    <line x1="106.8099" y1="-6.6246" x2="106.80976641005886" y2="-6.624689059960756" style="stroke:rgb(0,0,0);stroke-width:.00002" />
    <line x1="106.80976641005886" y1="-6.624689059960756" x2="106.80943358994112" y2="-6.6249109400392445" style="stroke:rgb(0,0,0);stroke-width:.00002" />
    <line x1="106.80943358994112" y1="-6.6249109400392445" x2="106.8093" y2="-6.625" style="stroke:rgb(0,0,0);stroke-width:.00002" />
    <circle cx="106.8099" cy="-6.6246" fill="rgb(255,0,0)" r=".0001" />
    <text x="106.8099" y="-6.6246" stroke="rgb(0,0,0)" transform="translate(106.8099 -6.6246),scale(0.00001 -0.00001),translate(-106.8099 6.6246),translate(106.8125 -6.592499999999999),rotate(-30),translate(-106.8125 6.592499999999999)" >lawanggintung-4</text>
    <line x1="106.8093" y1="-6.625" x2="106.8089" y2="-6.6245" style="stroke:rgb(255,0,0);stroke-width:.00002" />
    <line x1="106.8093" y1="-6.625" x2="106.8091" y2="-6.624750000000001" style="stroke:rgb(0,0,0);stroke-width:.00002" />
    <line x1="106.8091" y1="-6.624750000000001" x2="106.8091" y2="-6.624750000000001" style="stroke:rgb(0,0,0);stroke-width:.00002" />
    <line x1="106.8091" y1="-6.624750000000001" x2="106.8089" y2="-6.6245" style="stroke:rgb(0,0,0);stroke-width:.00002" />
    <circle cx="106.8093" cy="-6.625" fill="rgb(255,0,0)" r=".0001" />
    <text x="106.8093" y="-6.625" stroke="rgb(0,0,0)" transform="translate(106.8093 -6.625),scale(0.00001 -0.00001),translate(-106.8093 6.625),translate(106.8125 -6.592499999999999),rotate(-30),translate(-106.8125 6.592499999999999)" >lawanggintung-5</text>
    <line x1="106.8089" y1="-6.6245" x2="106.8086" y2="-6.6218" style="stroke:rgb(255,0,0);stroke-width:.00002" />
    <line x1="106.8089" y1="-6.6245" x2="106.80875" y2="-6.623150000000001" style="stroke:rgb(0,0,0);stroke-width:.00002" />
    <line x1="106.80875" y1="-6.623150000000001" x2="106.80875" y2="-6.623150000000001" style="stroke:rgb(0,0,0);stroke-width:.00002" />
    <line x1="106.80875" y1="-6.623150000000001" x2="106.8086" y2="-6.6218" style="stroke:rgb(0,0,0);stroke-width:.00002" />
    <circle cx="106.8089" cy="-6.6245" fill="rgb(255,0,0)" r=".0001" />
    <text x="106.8089" y="-6.6245" stroke="rgb(0,0,0)" transform="translate(106.8089 -6.6245),scale(0.00001 -0.00001),translate(-106.8089 6.6245),translate(106.8125 -6.592499999999999),rotate(-30),translate(-106.8125 6.592499999999999)" >batutulis-1</text>
    <line x1="106.8086" y1="-6.6218" x2="106.8079" y2="-6.6215" style="stroke:rgb(255,0,0);stroke-width:.00002" />
    <line x1="106.8086" y1="-6.6218" x2="106.80825" y2="-6.621650000000001" style="stroke:rgb(0,0,0);stroke-width:.00002" />
    <line x1="106.80825" y1="-6.621650000000001" x2="106.80825" y2="-6.621650000000001" style="stroke:rgb(0,0,0);stroke-width:.00002" />
    <line x1="106.80825" y1="-6.621650000000001" x2="106.8079" y2="-6.6215" style="stroke:rgb(0,0,0);stroke-width:.00002" />
    <circle cx="106.8086" cy="-6.6218" fill="rgb(255,0,0)" r=".0001" />
    <text x="106.8086" y="-6.6218" stroke="rgb(0,0,0)" transform="translate(106.8086 -6.6218),scale(0.00001 -0.00001),translate(-106.8086 6.6218),translate(106.8125 -6.592499999999999),rotate(-30),translate(-106.8125 6.592499999999999)" >batutulis-2</text>
    <line x1="106.8079" y1="-6.6215" x2="106.8069" y2="-6.6188" style="stroke:rgb(255,0,0);stroke-width:.00002" />
    <line x1="106.8079" y1="-6.6215" x2="106.8074" y2="-6.620150000000001" style="stroke:rgb(0,0,0);stroke-width:.00002" />
    <line x1="106.8074" y1="-6.620150000000001" x2="106.8074" y2="-6.620150000000001" style="stroke:rgb(0,0,0);stroke-width:.00002" />
    <line x1="106.8074" y1="-6.620150000000001" x2="106.8069" y2="-6.6188" style="stroke:rgb(0,0,0);stroke-width:.00002" />
    <circle cx="106.8079" cy="-6.6215" fill="rgb(255,0,0)" r=".0001" />
    <text x="106.8079" y="-6.6215" stroke="rgb(0,0,0)" transform="translate(106.8079 -6.6215),scale(0.00001 -0.00001),translate(-106.8079 6.6215),translate(106.8125 -6.592499999999999),rotate(-30),translate(-106.8125 6.592499999999999)" >batutulis-3</text>
    <line x1="106.8069" y1="-6.6188" x2="106.8045" y2="-6.6163" style="stroke:rgb(255,0,0);stroke-width:.00002" />
    <line x1="106.8069" y1="-6.6188" x2="106.8057" y2="-6.61755" style="stroke:rgb(0,0,0);stroke-width:.00002" />
    <line x1="106.8057" y1="-6.61755" x2="106.8057" y2="-6.61755" style="stroke:rgb(0,0,0);stroke-width:.00002" />
    <line x1="106.8057" y1="-6.61755" x2="106.8045" y2="-6.6163" style="stroke:rgb(0,0,0);stroke-width:.00002" />
    <circle cx="106.8069" cy="-6.6188" fill="rgb(255,0,0)" r=".0001" />
    <text x="106.8069" y="-6.6188" stroke="rgb(0,0,0)" transform="translate(106.8069 -6.6188),scale(0.00001 -0.00001),translate(-106.8069 6.6188),translate(106.8125 -6.592499999999999),rotate(-30),translate(-106.8125 6.592499999999999)" >batutulis-pahlawan</text>
    <line x1="106.8045" y1="-6.6163" x2="106.8034" y2="-6.6142" style="stroke:rgb(255,0,0);stroke-width:.00002" />
    <line x1="106.8045" y1="-6.6163" x2="106.80395" y2="-6.61525" style="stroke:rgb(0,0,0);stroke-width:.00002" />
    <line x1="106.80395" y1="-6.61525" x2="106.80395" y2="-6.61525" style="stroke:rgb(0,0,0);stroke-width:.00002" />
    <line x1="106.80395" y1="-6.61525" x2="106.8034" y2="-6.6142" style="stroke:rgb(0,0,0);stroke-width:.00002" />
    <circle cx="106.8045" cy="-6.6163" fill="rgb(255,0,0)" r=".0001" />
    <text x="106.8045" y="-6.6163" stroke="rgb(0,0,0)" transform="translate(106.8045 -6.6163),scale(0.00001 -0.00001),translate(-106.8045 6.6163),translate(106.8125 -6.592499999999999),rotate(-30),translate(-106.8125 6.592499999999999)" >pahlawan-1</text>
    <line x1="106.8034" y1="-6.6142" x2="106.8021" y2="-6.6123" style="stroke:rgb(255,0,0);stroke-width:.00002" />
    <line x1="106.8034" y1="-6.6142" x2="106.80297587356624" y2="-6.613580122904501" style="stroke:rgb(0,0,0);stroke-width:.00002" />
    <line x1="106.80297587356624" y1="-6.613580122904501" x2="106.80252412643377" y2="-6.612919877095501" style="stroke:rgb(0,0,0);stroke-width:.00002" />
    <line x1="106.80252412643377" y1="-6.612919877095501" x2="106.8021" y2="-6.6123" style="stroke:rgb(0,0,0);stroke-width:.00002" />
    <circle cx="106.8034" cy="-6.6142" fill="rgb(255,0,0)" r=".0001" />
    <text x="106.8034" y="-6.6142" stroke="rgb(0,0,0)" transform="translate(106.8034 -6.6142),scale(0.00001 -0.00001),translate(-106.8034 6.6142),translate(106.8125 -6.592499999999999),rotate(-30),translate(-106.8125 6.592499999999999)" >dreded-pahlawan</text>
    <line x1="106.8021" y1="-6.6123" x2="106.8" y2="-6.6113" style="stroke:rgb(255,0,0);stroke-width:.00002" />
    <line x1="106.8021" y1="-6.6123" x2="106.80123057210376" y2="-6.6118859867160795" style="stroke:rgb(0,0,0);stroke-width:.00002" />
    <line x1="106.80123057210376" y1="-6.6118859867160795" x2="106.80086942789625" y2="-6.611714013283922" style="stroke:rgb(0,0,0);stroke-width:.00002" />
    <line x1="106.80086942789625" y1="-6.611714013283922" x2="106.8" y2="-6.6113" style="stroke:rgb(0,0,0);stroke-width:.00002" />
    <circle cx="106.8021" cy="-6.6123" fill="rgb(255,0,0)" r=".0001" />
    <text x="106.8021" y="-6.6123" stroke="rgb(0,0,0)" transform="translate(106.8021 -6.6123),scale(0.00001 -0.00001),translate(-106.8021 6.6123),translate(106.8125 -6.592499999999999),rotate(-30),translate(-106.8125 6.592499999999999)" >pahlawan-ggaut</text>
    <line x1="106.8" y1="-6.6113" x2="106.7964" y2="-6.6082" style="stroke:rgb(255,0,0);stroke-width:.00002" />
    <line x1="106.8" y1="-6.6113" x2="106.79820000000001" y2="-6.60975" style="stroke:rgb(0,0,0);stroke-width:.00002" />
    <line x1="106.79820000000001" y1="-6.60975" x2="106.79820000000001" y2="-6.60975" style="stroke:rgb(0,0,0);stroke-width:.00002" />
    <line x1="106.79820000000001" y1="-6.60975" x2="106.7964" y2="-6.6082" style="stroke:rgb(0,0,0);stroke-width:.00002" />
    <circle cx="106.8" cy="-6.6113" fill="rgb(255,0,0)" r=".0001" />
    <text x="106.8" y="-6.6113" stroke="rgb(0,0,0)" transform="translate(106.8 -6.6113),scale(0.00001 -0.00001),translate(-106.8 6.6113),translate(106.8125 -6.592499999999999),rotate(-30),translate(-106.8125 6.592499999999999)" >pahlawan-3</text>
    <line x1="106.7964" y1="-6.6082" x2="106.7949" y2="-6.6077" style="stroke:rgb(255,0,0);stroke-width:.00002" />
    <line x1="106.7964" y1="-6.6082" x2="106.79565" y2="-6.607950000000001" style="stroke:rgb(0,0,0);stroke-width:.00002" />
    <line x1="106.79565" y1="-6.607950000000001" x2="106.79565" y2="-6.607950000000001" style="stroke:rgb(0,0,0);stroke-width:.00002" />
    <line x1="106.79565" y1="-6.607950000000001" x2="106.7949" y2="-6.6077" style="stroke:rgb(0,0,0);stroke-width:.00002" />
    <circle cx="106.7964" cy="-6.6082" fill="rgb(255,0,0)" r=".0001" />
    <text x="106.7964" y="-6.6082" stroke="rgb(0,0,0)" transform="translate(106.7964 -6.6082),scale(0.00001 -0.00001),translate(-106.7964 6.6082),translate(106.8125 -6.592499999999999),rotate(-30),translate(-106.8125 6.592499999999999)" >pahlawan-4</text>
    <line x1="106.7949" y1="-6.6077" x2="106.7954" y2="-6.606" style="stroke:rgb(255,0,0);stroke-width:.00002" />
    <line x1="106.7949" y1="-6.6077" x2="106.79515" y2="-6.60685" style="stroke:rgb(0,0,0);stroke-width:.00002" />
    <line x1="106.79515" y1="-6.60685" x2="106.79515" y2="-6.60685" style="stroke:rgb(0,0,0);stroke-width:.00002" />
    <line x1="106.79515" y1="-6.60685" x2="106.7954" y2="-6.606" style="stroke:rgb(0,0,0);stroke-width:.00002" />
    <circle cx="106.7949" cy="-6.6077" fill="rgb(255,0,0)" r=".0001" />
    <text x="106.7949" y="-6.6077" stroke="rgb(0,0,0)" transform="translate(106.7949 -6.6077),scale(0.00001 -0.00001),translate(-106.7949 6.6077),translate(106.8125 -6.592499999999999),rotate(-30),translate(-106.8125 6.592499999999999)" >pahlawan-empang</text>
    <line x1="106.7954" y1="-6.606" x2="106.7965" y2="-6.6046" style="stroke:rgb(255,0,0);stroke-width:.00002" />
    <line x1="106.7954" y1="-6.606" x2="106.79595" y2="-6.6053" style="stroke:rgb(0,0,0);stroke-width:.00002" />
    <line x1="106.79595" y1="-6.6053" x2="106.79595" y2="-6.6053" style="stroke:rgb(0,0,0);stroke-width:.00002" />
    <line x1="106.79595" y1="-6.6053" x2="106.7965" y2="-6.6046" style="stroke:rgb(0,0,0);stroke-width:.00002" />
    <circle cx="106.7954" cy="-6.606" fill="rgb(255,0,0)" r=".0001" />
    <text x="106.7954" y="-6.606" stroke="rgb(0,0,0)" transform="translate(106.7954 -6.606),scale(0.00001 -0.00001),translate(-106.7954 6.606),translate(106.8125 -6.592499999999999),rotate(-30),translate(-106.8125 6.592499999999999)" >halte-empang</text>
    <line x1="106.7965" y1="-6.6046" x2="106.7961" y2="-6.6038" style="stroke:rgb(255,0,0);stroke-width:.00002" />
    <line x1="106.7965" y1="-6.6046" x2="106.7963" y2="-6.6042" style="stroke:rgb(0,0,0);stroke-width:.00002" />
    <line x1="106.7963" y1="-6.6042" x2="106.7963" y2="-6.6042" style="stroke:rgb(0,0,0);stroke-width:.00002" />
    <line x1="106.7963" y1="-6.6042" x2="106.7961" y2="-6.6038" style="stroke:rgb(0,0,0);stroke-width:.00002" />
    <circle cx="106.7965" cy="-6.6046" fill="rgb(255,0,0)" r=".0001" />
    <text x="106.7965" y="-6.6046" stroke="rgb(0,0,0)" transform="translate(106.7965 -6.6046),scale(0.00001 -0.00001),translate(-106.7965 6.6046),translate(106.8125 -6.592499999999999),rotate(-30),translate(-106.8125 6.592499999999999)" >btm-3</text>
    <line x1="106.7961" y1="-6.6038" x2="106.7937" y2="-6.5969" style="stroke:rgb(255,0,0);stroke-width:.00002" />
    <line x1="106.7961" y1="-6.6038" x2="106.79529422474992" y2="-6.6014833961560475" style="stroke:rgb(0,0,0);stroke-width:.00002" />
    <line x1="106.79529422474992" y1="-6.6014833961560475" x2="106.79450577525007" y2="-6.599216603843952" style="stroke:rgb(0,0,0);stroke-width:.00002" />
    <line x1="106.79450577525007" y1="-6.599216603843952" x2="106.7937" y2="-6.5969" style="stroke:rgb(0,0,0);stroke-width:.00002" />
    <circle cx="106.7961" cy="-6.6038" fill="rgb(255,0,0)" r=".0001" />
    <text x="106.7961" y="-6.6038" stroke="rgb(0,0,0)" transform="translate(106.7961 -6.6038),scale(0.00001 -0.00001),translate(-106.7961 6.6038),translate(106.8125 -6.592499999999999),rotate(-30),translate(-106.8125 6.592499999999999)" >kb-btm-2</text>
  </g>
</svg>
