<svg width="2000" height="3000" xmlns="http://www.w3.org/2000/svg" xmlns:xlink="http://www.w3.org/1999/xlink" >
  <g transform="rotate(30) translate(1000 0)">    <path d="M1433.4093923783087 1007.2638460088208 L1408.7398487723135 967.3278781356661 L1418.6404409398533 956.44415024239 L1351.6780188029288 935.6229319896721 L1280.0527033241592 958.1961187049611 L1244.6720462911287 986.8562591125092 L1172.4610032880632 990.2699264989275 L1159.405604024002 1004.7709063044459 L904.4374847254488 995.395759060704 L904.0595292782427 1009.0312286573728 L877.1142397430509 1017.2478786760837 L874.7920474392146 1004.4127582750658 L876.0921458949866 1016.5704357248014 L866.1254917915784 1018.2152593594825 L859.5002414775621 1027.4194661717213 L841.7594505522885 1033.3747448875915 L753.8112929321272 1030.2992106934591 L747.8959048227551 1024.234444096734 L711.1204797265458 1024.4255998449244 L712.0827979469624 1024.2881258134591 L712.0068701446769 1037.9703157913052 L696.9265854780105 1038.2853444446423 L694.7801207534354 1077.9949418511055 L708.9763476397337 1166.721359890896 L698.1501519116762 1181.8780339102193 L609.3344160678527 1201.0343690921973 L573.8809756164898 1219.3723555326037 L561.9299386366094 1211.40499754615 L525.7155592654783 1107.288656853642 L541.1805121202207 1066.0487825743467 L584.2297289329679 1042.1325510117892 L600.8426050984639 1049.6838583598485 L636.9253069527048 1031.1791421645462 L649.7545659678394 1036.4168940809734 L670.9687787819973 1052.5699464341094 L693.432867346786 1035.391525766824 L709.0551906708242 1033.9713145555636 L710.260631509172 1022.895382676254 L711.0061016120994 1022.1761639778433 L749.154095177218 1021.227863595597 L755.1187070681209 1027.3430969988424 L841.3205494478149 1030.357562804722 L857.6297585226911 1024.882841520593 L864.4145082084975 1015.4570483328259 L872.8078541052042 1014.0718719675231 L863.0079525608636 922.4295494172715 L879.4657602569345 1013.3944290162407 L901.1204707218212 1006.7910790349717 L901.5225152747774 992.2865486316109 L1158.1143959759997 1001.7214013878602 L1171.0689967117105 987.3323811934039 L1243.5479537089122 983.906048579812 L1278.6072966758156 955.5061889873381 L1351.6719811971002 932.4793757026214 L1424.029559060145 954.9781574499235 L1412.4801512276977 967.6744295566393 L1435.270607621675 1004.5684616834857 L1524.5533104135943 1021.8528102565513 L1602.3850000001262 994.1261538461573 L1524.8166895863592 1024.9594974357685 Z" stroke="pink" stroke-width="0.5" fill="none" />
  </g>
</svg>
