<svg width="1049.9999999998977" height="1849.9999999999961" xmlns="http://www.w3.org/2000/svg" xmlns:xlink="http://www.w3.org/1999/xlink" >
  <g transform="translate(524.9999999999488 924.9999999999981) rotate(30) scale(10000 -10000) translate(-106.8125 6.592499999999999)">
    <path d="M106.76 -6.5 L106.865 -6.5 L106.865 -6.685 L106.76 -6.685 Z" fill="none" stroke="black" stroke-width="0.0005" transform="translate(106.8125 -6.592499999999999) rotate(30) translate(-106.8125 6.592499999999999)" />
    <path d="M106.85389395949188 -6.5902278461441774 L106.85224932325148 -6.587565448285967 L106.85290936272932 -6.586839866426415 L106.84844520125353 -6.5854517852095675 L106.84367018022161 -6.58695666432392 L106.84131146975274 -6.58886734035109 L106.8364974002192 -6.589094918176851 L106.83562704026826 -6.590061650163886 L106.81862916564836 -6.589436640347636 L106.81860396861855 -6.590345671654081 L106.81680761598287 -6.590893448321995 L106.81665280316261 -6.590037773628594 L106.816739476393 -6.590848285458576 L106.8160750327861 -6.590957940367555 L106.81563334943183 -6.5915715541550375 L106.81445063003682 -6.5919685727360955 L106.8085874195288 -6.591763537123153 L106.80819306032151 -6.591359219350038 L106.8057413653151 -6.591371963066584 L106.80580551986313 -6.591362798131153 L106.80580045800964 -6.592274944129676 L106.80479510569853 -6.592295946039899 L106.80465200805023 -6.594943252533663 L106.80559842317598 -6.600858347069649 L106.80487667679411 -6.601868792004271 L106.79895562773785 -6.6031458810164025 L106.7965920650411 -6.604368413445763 L106.79579532924244 -6.603837256246666 L106.79338103728436 -6.5968961668671655 L106.79441203414135 -6.5941468419152125 L106.79728198192886 -6.592552426477709 L106.79838950700656 -6.593055846967579 L106.80079502046351 -6.591822199221226 L106.80165030439785 -6.592171382682321 L106.80306458525213 -6.593248252839197 L106.80456219115645 -6.592103024794711 L106.80560367937805 -6.592008344047294 L106.80568404210061 -6.591269948588673 L106.80573374010747 -6.591222000675446 L106.80827693967848 -6.5911587806499625 L106.8086745804712 -6.5915664628768456 L106.81442136996318 -6.591767427263904 L106.81550865056818 -6.591402445844962 L106.8159609672139 -6.5907740596324444 L106.81652052360701 -6.590681714541424 L106.81586719683739 -6.5845722263714075 L106.81696438401713 -6.590636551678005 L106.81840803138145 -6.590196328345921 L106.81843483435165 -6.5892293596523634 L106.83554095973173 -6.589858349836113 L106.83640459978078 -6.58889908182315 L106.84123653024726 -6.58867065964891 L106.84357381977838 -6.586777335676079 L106.84844479874647 -6.585242214790431 L106.85326863727067 -6.586742133573584 L106.85249867674851 -6.587588551714032 L106.85401804050811 -6.590048153855822 L106.85997022069424 -6.591200443760693 L106.865159 -6.589352 L106.85998777930575 -6.591407556239307 Z" stroke="pink" stroke-width="0.0001" fill="none" />
  </g>
</svg>
