<svg width="1500" height="1500" xmlns="http://www.w3.org/2000/svg" xmlns:xlink="http://www.w3.org/1999/xlink" >
  <path d="M343.96688281147584 501.3164819664522 L336.68931647372006 497.6041322441434 L334.867891490047 497.9867378309131 L316.5050900277664 494.7260271426109 L307.39857028237236 487.24893316151395 L298.90585112610756 504.61331945840016 L292.95585104127576 502.2808703093198 L264.1772745452031 441.6455843383901 L293.8316842298294 498.63807841232403 L298.30069641296075 500.29867496522974 L306.99179733916924 483.335962742605 L317.02166583809935 491.2280070101192 L330.04246240252985 493.4636594360783 L324.69106379915047 473.98064136598987 L334.18527941289136 472.91544357589925 L337.7919652766857 493.3350447529369 L344.7764176941957 496.6791039447083 L370.58221223249325 506.1702567622343 L377.860660168021 483.78120599018246 L404.95132971574014 472.02541149348997 L419.6398725555667 475.6824123585443 L503.38593540639846 466.91500505504763 L521.1341005663162 469.8192446005253 L523.6704195589872 466.829944122394 L523.1089399424537 462.0971645653664 L516.8267066242482 453.9715344724809 L519.4096821549267 449.9036857318315 L527.9963326391262 446.84478184191687 L535.4469788841599 444.46200506185573 L547.3029451653254 443.87237935847133 L555.4039334501745 445.77197703506516 L552.7122734972183 468.80406257705613 L551.3778803436788 489.8757840895562 L560.4292722826964 624.7094090338621 L570.0655492285482 655.8882944472703 L611.608991613545 587.0232895369237 L573.0135297146751 659.2546006200373 L591.1019205572718 684.6708024229517 L600.0995902978692 699.5348869635409 L582.80181292545 677.3286244869423 L578.2232981258463 679.48954105959 L573.9378296685211 676.4549674775385 L568.6293879516517 677.2331448084757 L561.5837617363853 666.0858494237126 L555.5279766462547 666.0858494237126 L548.3533602481557 629.1482152896216 L493.6030653833895 639.7265630162631 L372.64602863767186 671.1096043607141 L405.12305032197287 654.6757686567269 L398.30094280115213 657.3691113620539 L388.82102365502817 651.227742932269 L369.77972523401803 511.5592532976747 Z" stroke="blue" stroke-width="0.5" fill="none" />
</svg>
