<svg width="1049.9999999998977" height="1849.9999999999961" xmlns="http://www.w3.org/2000/svg" xmlns:xlink="http://www.w3.org/1999/xlink" >
  <g transform="translate(524.9999999999488 924.9999999999981) rotate(30) scale(10000 -10000) translate(-106.8125 6.592499999999999)">
    <path d="M106.76 -6.5 L106.865 -6.5 L106.865 -6.685 L106.76 -6.685 Z" fill="none" stroke="black" stroke-width="0.001" transform="translate(106.8125 -6.592499999999999) rotate(30) translate(-106.8125 6.592499999999999)" />
    <path d="M106.80599487823915 -6.58474497190134 L106.80599487823915 -6.58474497190134 L106.80513858791107 -6.588455563323018 L106.80545250007205 -6.588537480639927 L106.80545250007205 -6.588537480639927 L106.80611706484093 -6.588710902920257 L106.80600433062223 -6.590085349404807 L106.80600433062223 -6.590085349404807 L106.80590595456486 -6.591284742346709 L106.80610460370181 -6.591528722801151 L106.80610238398017 -6.591928716642148 L106.80609883203857 -6.592568776518702 L106.80515885421728 -6.5925884127493015 L106.80515885421728 -6.5925884127493015 L106.80497938600364 -6.592592161858215 L106.80510992041556 -6.593882676700153 L106.80508833031234 -6.594282093609463 L106.80500258186095 -6.595868439960554 L106.80572424443147 -6.5978470332461265 L106.80585063683236 -6.59863698575166 L106.80625228228811 -6.601147269850201 L106.8056707353602 -6.60127324952775 L106.80520574480522 -6.601924236304715 L106.8050351732061 -6.602163036543568 L106.80458832820293 -6.602218440506224 L106.80458832820293 -6.602218440506224 L106.80443569160384 -6.602237365798834 L106.80249427574122 -6.602904963377746 L106.80210514288802 -6.602997568035068 L106.79999387991585 -6.6034999999999995 L106.79974999999999 -6.6034999999999995 L106.79974999999999 -6.6034999999999995 L106.799788854382 -6.6034999999999995 L106.7995577708764 -6.6036155417527995 L106.7995577708764 -6.6036155417527995 L106.79917033314744 -6.6038092606172825 L106.79841066719789 -6.604223042394211 L106.79841066719789 -6.604223042394211 L106.79761659346514 -6.604655565716256 L106.79731580847658 -6.604795679586821 L106.79731580847658 -6.604795679586821 L106.79663029514548 -6.605115010437111 L106.79595623984302 -6.6046656402354715 L106.79595623984302 -6.6046656402354715 L106.79543267375446 -6.604316596176442 L106.79439900604697 -6.6007360117343055 L106.79426759779699 -6.600358213015623 L106.79306207456872 -6.596892333734345 L106.79382228478786 -6.59600430698271 L106.79410318354113 -6.595255243640654 L106.79443856440953 -6.594360894658242 L106.79585287141377 -6.593575168544776 L106.79585287141377 -6.593575168544776 L106.79729099096443 -6.592776213238851 L106.79743619705572 -6.591743757282742 L106.79925693001063 -6.5925713631713485 L106.79836852101968 -6.592167540902742 L106.79905940206288 -6.591813228255076 L106.79905940206288 -6.591813228255076 L106.80075706139054 -6.5909425976636715 L106.80150281576474 -6.591463089953682 L106.80187314149296 -6.591614281405223 L106.80230650602303 -6.591791209464374 L106.802882876896 -6.591727317683687 L106.80351936915429 -6.592211959412341 L106.80289817475509 -6.5917389658707135 L106.802712662124 -6.59313970697438 L106.80430137778994 -6.5919248067592395 L106.80421611272611 -6.591990009455102 L106.80453408175238 -6.590582700055677 L106.80456729994431 -6.59018408175238 L106.8047018859159 -6.588569050093492 L106.80560512176086 -6.58465502809866 L106.80560512176086 -6.58465502809866 L106.80654352887944 -6.580588597251475 L106.80886391965258 -6.580750484979832 L106.80886391965258 -6.580750484979832 L106.81102929488338 -6.580901557670354 L106.81214432422072 -6.581154973428842 L106.81214432422072 -6.581154973428842 L106.8132 -6.5816 L106.81205567577928 -6.581545026571159 L106.81205567577928 -6.581545026571159 L106.81078783130563 -6.581256880099875 L106.81090054644912 -6.5797352256628985 L106.81090054644912 -6.5797352256628985 L106.81099842649476 -6.5784138450464855 L106.81085443951717 -6.577741905817746 L106.81085443951717 -6.577741905817746 L106.81069522809487 -6.576998919180346 L106.81150489277235 -6.57340603217405 L106.81150489277235 -6.57340603217405 L106.81226366913992 -6.570038962042881 L106.8107435667352 -6.569591873100314 L106.8107435667352 -6.569591873100314 L106.80925291196449 -6.5691534452265765 L106.80809605251383 -6.574889540002789 L106.80809605251383 -6.574889540002789 L106.80689550311399 -6.580842264110335 Z" stroke="red" stroke-width="0.0002" fill="none" />
    <circle 
      cx="106.8132" cy="-12.5816"
      r="15" transform="translate(106.8132 -6.5816) scale(0.00001 -0.00001) translate(-106.8132 6.5816) translate(106.8125 -6.592499999999999) rotate(-30) translate(-106.8125 6.592499999999999)"
      fill="white" stroke="black" stroke-width="2"/>
    <circle 
      cx="106.8132" cy="-12.5816"
      r="15" transform="translate(106.8132 -6.5816) scale(0.00001 -0.00001) translate(-106.8132 6.5816) translate(106.8125 -6.592499999999999) rotate(-30) translate(-106.8125 6.592499999999999)"
      fill="white" stroke="none"/>
    <text x="106.8132" y="-6.5816" fill="black" text-anchor="middle" transform="translate(106.8132 -6.5816) scale(0.00001 -0.00001) translate(-106.8132 6.5816) translate(106.8125 -6.592499999999999) rotate(-30) translate(-106.8125 6.592499999999999)">08</text>
    <line x1="106.8067" y1="-6.5808" x2="106.8049" y2="-6.5886" style="stroke:rgb(255,0,0);stroke-width:.00002" />
    <line x1="106.8067" y1="-6.5808" x2="106.8058" y2="-6.5847" style="stroke:rgb(0,0,0);stroke-width:.00002" />
    <line x1="106.8058" y1="-6.5847" x2="106.8058" y2="-6.5847" style="stroke:rgb(0,0,0);stroke-width:.00002" />
    <line x1="106.8058" y1="-6.5847" x2="106.8049" y2="-6.5886" style="stroke:rgb(0,0,0);stroke-width:.00002" />
    <circle cx="106.8067" cy="-6.5808" fill="rgb(255,0,0)" r=".0001" />
    <text x="106.8067" y="-6.5808" stroke="rgb(0,0,0)" transform="translate(106.8067 -6.5808),scale(0.00001 -0.00001),translate(-106.8067 6.5808),translate(106.8125 -6.592499999999999),rotate(-30),translate(-106.8125 6.592499999999999)" >pajajaran-sobana</text>
    <line x1="106.8049" y1="-6.5886" x2="106.805904" y2="-6.588862" style="stroke:rgb(255,0,0);stroke-width:.00002" />
    <line x1="106.8049" y1="-6.5886" x2="106.805402" y2="-6.588730999999999" style="stroke:rgb(0,0,0);stroke-width:.00002" />
    <line x1="106.805402" y1="-6.588730999999999" x2="106.805402" y2="-6.588730999999999" style="stroke:rgb(0,0,0);stroke-width:.00002" />
    <line x1="106.805402" y1="-6.588730999999999" x2="106.805904" y2="-6.588862" style="stroke:rgb(0,0,0);stroke-width:.00002" />
    <circle cx="106.8049" cy="-6.5886" fill="rgb(255,0,0)" r=".0001" />
    <text x="106.8049" y="-6.5886" stroke="rgb(0,0,0)" transform="translate(106.8049 -6.5886),scale(0.00001 -0.00001),translate(-106.8049 6.5886),translate(106.8125 -6.592499999999999),rotate(-30),translate(-106.8125 6.592499999999999)" >salak-pajajaran</text>
    <line x1="106.805904" y1="-6.588862" x2="106.805706" y2="-6.591276" style="stroke:rgb(255,0,0);stroke-width:.00002" />
    <line x1="106.805904" y1="-6.588862" x2="106.80580499999999" y2="-6.590069" style="stroke:rgb(0,0,0);stroke-width:.00002" />
    <line x1="106.80580499999999" y1="-6.590069" x2="106.80580499999999" y2="-6.590069" style="stroke:rgb(0,0,0);stroke-width:.00002" />
    <line x1="106.80580499999999" y1="-6.590069" x2="106.805706" y2="-6.591276" style="stroke:rgb(0,0,0);stroke-width:.00002" />
    <circle cx="106.805904" cy="-6.588862" fill="rgb(255,0,0)" r=".0001" />
    <text x="106.805904" y="-6.588862" stroke="rgb(0,0,0)" transform="translate(106.805904 -6.588862),scale(0.00001 -0.00001),translate(-106.805904 6.588862),translate(106.8125 -6.592499999999999),rotate(-30),translate(-106.8125 6.592499999999999)" >lodaya-N</text>
    <line x1="106.805706" y1="-6.591276" x2="106.805701" y2="-6.592177" style="stroke:rgb(255,0,0);stroke-width:.00002" />
    <line x1="106.805706" y1="-6.591276" x2="106.80570460986081" y2="-6.591526503079502" style="stroke:rgb(0,0,0);stroke-width:.00002" />
    <line x1="106.80570460986081" y1="-6.591526503079502" x2="106.80570239013917" y2="-6.5919264969204985" style="stroke:rgb(0,0,0);stroke-width:.00002" />
    <line x1="106.80570239013917" y1="-6.5919264969204985" x2="106.805701" y2="-6.592177" style="stroke:rgb(0,0,0);stroke-width:.00002" />
    <circle cx="106.805706" cy="-6.591276" fill="rgb(255,0,0)" r=".0001" />
    <text x="106.805706" y="-6.591276" stroke="rgb(0,0,0)" transform="translate(106.805706 -6.591276),scale(0.00001 -0.00001),translate(-106.805706 6.591276),translate(106.8125 -6.592499999999999),rotate(-30),translate(-106.8125 6.592499999999999)" >lodaya-M</text>
    <line x1="106.805701" y1="-6.592177" x2="106.8046" y2="-6.5922" style="stroke:rgb(255,0,0);stroke-width:.00002" />
    <line x1="106.805701" y1="-6.592177" x2="106.8051505" y2="-6.592188500000001" style="stroke:rgb(0,0,0);stroke-width:.00002" />
    <line x1="106.8051505" y1="-6.592188500000001" x2="106.8051505" y2="-6.592188500000001" style="stroke:rgb(0,0,0);stroke-width:.00002" />
    <line x1="106.8051505" y1="-6.592188500000001" x2="106.8046" y2="-6.5922" style="stroke:rgb(0,0,0);stroke-width:.00002" />
    <circle cx="106.805701" cy="-6.592177" fill="rgb(255,0,0)" r=".0001" />
    <text x="106.805701" y="-6.592177" stroke="rgb(0,0,0)" transform="translate(106.805701 -6.592177),scale(0.00001 -0.00001),translate(-106.805701 6.592177),translate(106.8125 -6.592499999999999),rotate(-30),translate(-106.8125 6.592499999999999)" >lodaya-S</text>
    <line x1="106.8046" y1="-6.5922" x2="106.8044" y2="-6.5959" style="stroke:rgb(255,0,0);stroke-width:.00002" />
    <line x1="106.8046" y1="-6.5922" x2="106.8045107950516" y2="-6.593850291545345" style="stroke:rgb(0,0,0);stroke-width:.00002" />
    <line x1="106.8045107950516" y1="-6.593850291545345" x2="106.80448920494838" y2="-6.594249708454655" style="stroke:rgb(0,0,0);stroke-width:.00002" />
    <line x1="106.80448920494838" y1="-6.594249708454655" x2="106.8044" y2="-6.5959" style="stroke:rgb(0,0,0);stroke-width:.00002" />
    <circle cx="106.8046" cy="-6.5922" fill="rgb(255,0,0)" r=".0001" />
    <text x="106.8046" y="-6.5922" stroke="rgb(0,0,0)" transform="translate(106.8046 -6.5922),scale(0.00001 -0.00001),translate(-106.8046 6.5922),translate(106.8125 -6.592499999999999),rotate(-30),translate(-106.8125 6.592499999999999)" >pangrango-pajajaran</text>
    <line x1="106.8044" y1="-6.5959" x2="106.8052" y2="-6.6009" style="stroke:rgb(255,0,0);stroke-width:.00002" />
    <line x1="106.8044" y1="-6.5959" x2="106.80473680379956" y2="-6.598005023747233" style="stroke:rgb(0,0,0);stroke-width:.00002" />
    <line x1="106.80473680379956" y1="-6.598005023747233" x2="106.80486319620044" y2="-6.5987949762527665" style="stroke:rgb(0,0,0);stroke-width:.00002" />
    <line x1="106.80486319620044" y1="-6.5987949762527665" x2="106.8052" y2="-6.6009" style="stroke:rgb(0,0,0);stroke-width:.00002" />
    <circle cx="106.8044" cy="-6.5959" fill="rgb(255,0,0)" r=".0001" />
    <text x="106.8044" y="-6.5959" stroke="rgb(0,0,0)" transform="translate(106.8044 -6.5959),scale(0.00001 -0.00001),translate(-106.8044 6.5959),translate(106.8125 -6.592499999999999),rotate(-30),translate(-106.8125 6.592499999999999)" >kb-astrid</text>
    <line x1="106.8052" y1="-6.6009" x2="106.8047" y2="-6.6016" style="stroke:rgb(255,0,0);stroke-width:.00002" />
    <line x1="106.8052" y1="-6.6009" x2="106.80518249527748" y2="-6.600924506611518" style="stroke:rgb(0,0,0);stroke-width:.00002" />
    <line x1="106.80518249527748" y1="-6.600924506611518" x2="106.8047175047225" y2="-6.6015754933884825" style="stroke:rgb(0,0,0);stroke-width:.00002" />
    <line x1="106.8047175047225" y1="-6.6015754933884825" x2="106.8047" y2="-6.6016" style="stroke:rgb(0,0,0);stroke-width:.00002" />
    <circle cx="106.8052" cy="-6.6009" fill="rgb(255,0,0)" r=".0001" />
    <text x="106.8052" y="-6.6009" stroke="rgb(0,0,0)" transform="translate(106.8052 -6.6009),scale(0.00001 -0.00001),translate(-106.8052 6.6009),translate(106.8125 -6.592499999999999),rotate(-30),translate(-106.8125 6.592499999999999)" >kb-botani-1</text>
    <line x1="106.8047" y1="-6.6016" x2="106.804329" y2="-6.601646" style="stroke:rgb(255,0,0);stroke-width:.00002" />
    <line x1="106.8047" y1="-6.6016" x2="106.8045145" y2="-6.601623" style="stroke:rgb(0,0,0);stroke-width:.00002" />
    <line x1="106.8045145" y1="-6.601623" x2="106.8045145" y2="-6.601623" style="stroke:rgb(0,0,0);stroke-width:.00002" />
    <line x1="106.8045145" y1="-6.601623" x2="106.804329" y2="-6.601646" style="stroke:rgb(0,0,0);stroke-width:.00002" />
    <circle cx="106.8047" cy="-6.6016" fill="rgb(255,0,0)" r=".0001" />
    <text x="106.8047" y="-6.6016" stroke="rgb(0,0,0)" transform="translate(106.8047 -6.6016),scale(0.00001 -0.00001),translate(-106.8047 6.6016),translate(106.8125 -6.592499999999999),rotate(-30),translate(-106.8125 6.592499999999999)" >kb-botani-2</text>
    <line x1="106.804329" y1="-6.601646" x2="106.7999" y2="-6.6027" style="stroke:rgb(255,0,0);stroke-width:.00002" />
    <line x1="106.804329" y1="-6.601646" x2="106.80230906642659" y2="-6.602126697671339" style="stroke:rgb(0,0,0);stroke-width:.00002" />
    <line x1="106.80230906642659" y1="-6.602126697671339" x2="106.80191993357339" y2="-6.602219302328661" style="stroke:rgb(0,0,0);stroke-width:.00002" />
    <line x1="106.80191993357339" y1="-6.602219302328661" x2="106.7999" y2="-6.6027" style="stroke:rgb(0,0,0);stroke-width:.00002" />
    <circle cx="106.804329" cy="-6.601646" fill="rgb(255,0,0)" r=".0001" />
    <text x="106.804329" y="-6.601646" stroke="rgb(0,0,0)" transform="translate(106.804329 -6.601646),scale(0.00001 -0.00001),translate(-106.804329 6.601646),translate(106.8125 -6.592499999999999),rotate(-30),translate(-106.8125 6.592499999999999)" >bangka-otista</text>
    <line x1="106.7999" y1="-6.6027" x2="106.7996" y2="-6.6027" style="stroke:rgb(255,0,0);stroke-width:.00002" />
    <line x1="106.7999" y1="-6.6027" x2="106.79974999999999" y2="-6.6027" style="stroke:rgb(0,0,0);stroke-width:.00002" />
    <line x1="106.79974999999999" y1="-6.6027" x2="106.79974999999999" y2="-6.6027" style="stroke:rgb(0,0,0);stroke-width:.00002" />
    <line x1="106.79974999999999" y1="-6.6027" x2="106.7996" y2="-6.6027" style="stroke:rgb(0,0,0);stroke-width:.00002" />
    <circle cx="106.7999" cy="-6.6027" fill="rgb(255,0,0)" r=".0001" />
    <text x="106.7999" y="-6.6027" stroke="rgb(0,0,0)" transform="translate(106.7999 -6.6027),scale(0.00001 -0.00001),translate(-106.7999 6.6027),translate(106.8125 -6.592499999999999),rotate(-30),translate(-106.8125 6.592499999999999)" >otista-roda</text>
    <line x1="106.7996" y1="-6.6027" x2="106.7988" y2="-6.6031" style="stroke:rgb(255,0,0);stroke-width:.00002" />
    <line x1="106.7996" y1="-6.6027" x2="106.7992" y2="-6.6029" style="stroke:rgb(0,0,0);stroke-width:.00002" />
    <line x1="106.7992" y1="-6.6029" x2="106.7992" y2="-6.6029" style="stroke:rgb(0,0,0);stroke-width:.00002" />
    <line x1="106.7992" y1="-6.6029" x2="106.7988" y2="-6.6031" style="stroke:rgb(0,0,0);stroke-width:.00002" />
    <circle cx="106.7996" cy="-6.6027" fill="rgb(255,0,0)" r=".0001" />
    <text x="106.7996" y="-6.6027" stroke="rgb(0,0,0)" transform="translate(106.7996 -6.6027),scale(0.00001 -0.00001),translate(-106.7996 6.6027),translate(106.8125 -6.592499999999999),rotate(-30),translate(-106.8125 6.592499999999999)" >kb-otista</text>
    <line x1="106.7988" y1="-6.6031" x2="106.797256" y2="-6.603941" style="stroke:rgb(255,0,0);stroke-width:.00002" />
    <line x1="106.7988" y1="-6.6031" x2="106.798028" y2="-6.6035205" style="stroke:rgb(0,0,0);stroke-width:.00002" />
    <line x1="106.798028" y1="-6.6035205" x2="106.798028" y2="-6.6035205" style="stroke:rgb(0,0,0);stroke-width:.00002" />
    <line x1="106.798028" y1="-6.6035205" x2="106.797256" y2="-6.603941" style="stroke:rgb(0,0,0);stroke-width:.00002" />
    <circle cx="106.7988" cy="-6.6031" fill="rgb(255,0,0)" r=".0001" />
    <text x="106.7988" y="-6.6031" stroke="rgb(0,0,0)" transform="translate(106.7988 -6.6031),scale(0.00001 -0.00001),translate(-106.7988 6.6031),translate(106.8125 -6.592499999999999),rotate(-30),translate(-106.8125 6.592499999999999)" >kb-suryakencana</text>
    <line x1="106.797256" y1="-6.603941" x2="106.7967" y2="-6.6042" style="stroke:rgb(255,0,0);stroke-width:.00002" />
    <line x1="106.797256" y1="-6.603941" x2="106.796978" y2="-6.6040705" style="stroke:rgb(0,0,0);stroke-width:.00002" />
    <line x1="106.796978" y1="-6.6040705" x2="106.796978" y2="-6.6040705" style="stroke:rgb(0,0,0);stroke-width:.00002" />
    <line x1="106.796978" y1="-6.6040705" x2="106.7967" y2="-6.6042" style="stroke:rgb(0,0,0);stroke-width:.00002" />
    <circle cx="106.797256" cy="-6.603941" fill="rgb(255,0,0)" r=".0001" />
    <text x="106.797256" y="-6.603941" stroke="rgb(0,0,0)" transform="translate(106.797256 -6.603941),scale(0.00001 -0.00001),translate(-106.797256 6.603941),translate(106.8125 -6.592499999999999),rotate(-30),translate(-106.8125 6.592499999999999)" >cincau-kb</text>
    <line x1="106.7967" y1="-6.6042" x2="106.7961" y2="-6.6038" style="stroke:rgb(255,0,0);stroke-width:.00002" />
    <line x1="106.7967" y1="-6.6042" x2="106.7964" y2="-6.603999999999999" style="stroke:rgb(0,0,0);stroke-width:.00002" />
    <line x1="106.7964" y1="-6.603999999999999" x2="106.7964" y2="-6.603999999999999" style="stroke:rgb(0,0,0);stroke-width:.00002" />
    <line x1="106.7964" y1="-6.603999999999999" x2="106.7961" y2="-6.6038" style="stroke:rgb(0,0,0);stroke-width:.00002" />
    <circle cx="106.7967" cy="-6.6042" fill="rgb(255,0,0)" r=".0001" />
    <text x="106.7967" y="-6.6042" stroke="rgb(0,0,0)" transform="translate(106.7967 -6.6042),scale(0.00001 -0.00001),translate(-106.7967 6.6042),translate(106.8125 -6.592499999999999),rotate(-30),translate(-106.8125 6.592499999999999)" >kb-btm-1</text>
    <line x1="106.7961" y1="-6.6038" x2="106.7937" y2="-6.5969" style="stroke:rgb(255,0,0);stroke-width:.00002" />
    <line x1="106.7961" y1="-6.6038" x2="106.79496570412499" y2="-6.600538899359341" style="stroke:rgb(0,0,0);stroke-width:.00002" />
    <line x1="106.79496570412499" y1="-6.600538899359341" x2="106.794834295875" y2="-6.600161100640658" style="stroke:rgb(0,0,0);stroke-width:.00002" />
    <line x1="106.794834295875" y1="-6.600161100640658" x2="106.7937" y2="-6.5969" style="stroke:rgb(0,0,0);stroke-width:.00002" />
    <circle cx="106.7961" cy="-6.6038" fill="rgb(255,0,0)" r=".0001" />
    <text x="106.7961" y="-6.6038" stroke="rgb(0,0,0)" transform="translate(106.7961 -6.6038),scale(0.00001 -0.00001),translate(-106.7961 6.6038),translate(106.8125 -6.592499999999999),rotate(-30),translate(-106.8125 6.592499999999999)" >kb-btm-2</text>
    <line x1="106.7937" y1="-6.5969" x2="106.7946" y2="-6.5945" style="stroke:rgb(255,0,0);stroke-width:.00002" />
    <line x1="106.7937" y1="-6.5969" x2="106.79400955062337" y2="-6.596074531671028" style="stroke:rgb(0,0,0);stroke-width:.00002" />
    <line x1="106.79400955062337" y1="-6.596074531671028" x2="106.79429044937663" y2="-6.595325468328972" style="stroke:rgb(0,0,0);stroke-width:.00002" />
    <line x1="106.79429044937663" y1="-6.595325468328972" x2="106.7946" y2="-6.5945" style="stroke:rgb(0,0,0);stroke-width:.00002" />
    <circle cx="106.7937" cy="-6.5969" fill="rgb(255,0,0)" r=".0001" />
    <text x="106.7937" y="-6.5969" stroke="rgb(0,0,0)" transform="translate(106.7937 -6.5969),scale(0.00001 -0.00001),translate(-106.7937 6.5969),translate(106.8125 -6.592499999999999),rotate(-30),translate(-106.8125 6.592499999999999)" >kb-muslihat</text>
    <line x1="106.7946" y1="-6.5945" x2="106.7973" y2="-6.593" style="stroke:rgb(255,0,0);stroke-width:.00002" />
    <line x1="106.7946" y1="-6.5945" x2="106.79595" y2="-6.59375" style="stroke:rgb(0,0,0);stroke-width:.00002" />
    <line x1="106.79595" y1="-6.59375" x2="106.79595" y2="-6.59375" style="stroke:rgb(0,0,0);stroke-width:.00002" />
    <line x1="106.79595" y1="-6.59375" x2="106.7973" y2="-6.593" style="stroke:rgb(0,0,0);stroke-width:.00002" />
    <circle cx="106.7946" cy="-6.5945" fill="rgb(255,0,0)" r=".0001" />
    <text x="106.7946" y="-6.5945" stroke="rgb(0,0,0)" transform="translate(106.7946 -6.5945),scale(0.00001 -0.00001),translate(-106.7946 6.5945),translate(106.8125 -6.592499999999999),rotate(-30),translate(-106.8125 6.592499999999999)" >kb-gedong-sawah</text>
    <line x1="106.7973" y1="-6.593" x2="106.7984" y2="-6.5935" style="stroke:rgb(255,0,0);stroke-width:.00002" />
    <line x1="106.7973" y1="-6.593" x2="106.79693963352256" y2="-6.592836197055696" style="stroke:rgb(0,0,0);stroke-width:.00002" />
    <line x1="106.79693963352256" y1="-6.592836197055696" x2="106.79876036647747" y2="-6.593663802944302" style="stroke:rgb(0,0,0);stroke-width:.00002" />
    <line x1="106.79876036647747" y1="-6.593663802944302" x2="106.7984" y2="-6.5935" style="stroke:rgb(0,0,0);stroke-width:.00002" />
    <circle cx="106.7973" cy="-6.593" fill="rgb(255,0,0)" r=".0001" />
    <text x="106.7973" y="-6.593" stroke="rgb(0,0,0)" transform="translate(106.7973 -6.593),scale(0.00001 -0.00001),translate(-106.7973 6.593),translate(106.8125 -6.592499999999999),rotate(-30),translate(-106.8125 6.592499999999999)" >kb-polisi-militer</text>
    <line x1="106.7984" y1="-6.5935" x2="106.800814" y2="-6.592262" style="stroke:rgb(255,0,0);stroke-width:.00002" />
    <line x1="106.7984" y1="-6.5935" x2="106.79960700000001" y2="-6.592881" style="stroke:rgb(0,0,0);stroke-width:.00002" />
    <line x1="106.79960700000001" y1="-6.592881" x2="106.79960700000001" y2="-6.592881" style="stroke:rgb(0,0,0);stroke-width:.00002" />
    <line x1="106.79960700000001" y1="-6.592881" x2="106.800814" y2="-6.592262" style="stroke:rgb(0,0,0);stroke-width:.00002" />
    <circle cx="106.7984" cy="-6.5935" fill="rgb(255,0,0)" r=".0001" />
    <text x="106.7984" y="-6.5935" stroke="rgb(0,0,0)" transform="translate(106.7984 -6.5935),scale(0.00001 -0.00001),translate(-106.7984 6.5935),translate(106.8125 -6.592499999999999),rotate(-30),translate(-106.8125 6.592499999999999)" >kb-jalak-harupat</text>
    <line x1="106.800814" y1="-6.592262" x2="106.801806" y2="-6.592667" style="stroke:rgb(255,0,0);stroke-width:.00002" />
    <line x1="106.800814" y1="-6.592262" x2="106.80112483713589" y2="-6.592388904274229" style="stroke:rgb(0,0,0);stroke-width:.00002" />
    <line x1="106.80112483713589" y1="-6.592388904274229" x2="106.80149516286411" y2="-6.592540095725771" style="stroke:rgb(0,0,0);stroke-width:.00002" />
    <line x1="106.80149516286411" y1="-6.592540095725771" x2="106.801806" y2="-6.592667" style="stroke:rgb(0,0,0);stroke-width:.00002" />
    <circle cx="106.800814" cy="-6.592262" fill="rgb(255,0,0)" r=".0001" />
    <text x="106.800814" y="-6.592262" stroke="rgb(0,0,0)" transform="translate(106.800814 -6.592262),scale(0.00001 -0.00001),translate(-106.800814 6.592262),translate(106.8125 -6.592499999999999),rotate(-30),translate(-106.8125 6.592499999999999)" >kb-sempur</text>
    <line x1="106.801806" y1="-6.592667" x2="106.8029" y2="-6.5935" style="stroke:rgb(255,0,0);stroke-width:.00002" />
    <line x1="106.801806" y1="-6.592667" x2="106.80203475387086" y2="-6.5928411791356725" style="stroke:rgb(0,0,0);stroke-width:.00002" />
    <line x1="106.80203475387086" y1="-6.5928411791356725" x2="106.80267124612914" y2="-6.593325820864327" style="stroke:rgb(0,0,0);stroke-width:.00002" />
    <line x1="106.80267124612914" y1="-6.593325820864327" x2="106.8029" y2="-6.5935" style="stroke:rgb(0,0,0);stroke-width:.00002" />
    <circle cx="106.801806" cy="-6.592667" fill="rgb(255,0,0)" r=".0001" />
    <text x="106.801806" y="-6.592667" stroke="rgb(0,0,0)" transform="translate(106.801806 -6.592667),scale(0.00001 -0.00001),translate(-106.801806 6.592667),translate(106.8125 -6.592499999999999),rotate(-30),translate(-106.8125 6.592499999999999)" >kb-salak</text>
    <line x1="106.8029" y1="-6.5935" x2="106.8046" y2="-6.5922" style="stroke:rgb(255,0,0);stroke-width:.00002" />
    <line x1="106.8029" y1="-6.5935" x2="106.80295564216702" y2="-6.593457450107571" style="stroke:rgb(0,0,0);stroke-width:.00002" />
    <line x1="106.80295564216702" y1="-6.593457450107571" x2="106.80454435783297" y2="-6.59224254989243" style="stroke:rgb(0,0,0);stroke-width:.00002" />
    <line x1="106.80454435783297" y1="-6.59224254989243" x2="106.8046" y2="-6.5922" style="stroke:rgb(0,0,0);stroke-width:.00002" />
    <circle cx="106.8029" cy="-6.5935" fill="rgb(255,0,0)" r=".0001" />
    <text x="106.8029" y="-6.5935" stroke="rgb(0,0,0)" transform="translate(106.8029 -6.5935),scale(0.00001 -0.00001),translate(-106.8029 6.5935),translate(106.8125 -6.592499999999999),rotate(-30),translate(-106.8125 6.592499999999999)" >kb-pangrango</text>
    <line x1="106.8046" y1="-6.5922" x2="106.8049" y2="-6.5886" style="stroke:rgb(255,0,0);stroke-width:.00002" />
    <line x1="106.8046" y1="-6.5922" x2="106.80473339090403" y2="-6.590599309151648" style="stroke:rgb(0,0,0);stroke-width:.00002" />
    <line x1="106.80473339090403" y1="-6.590599309151648" x2="106.80476660909596" y2="-6.590200690848351" style="stroke:rgb(0,0,0);stroke-width:.00002" />
    <line x1="106.80476660909596" y1="-6.590200690848351" x2="106.8049" y2="-6.5886" style="stroke:rgb(0,0,0);stroke-width:.00002" />
    <circle cx="106.8046" cy="-6.5922" fill="rgb(255,0,0)" r=".0001" />
    <text x="106.8046" y="-6.5922" stroke="rgb(0,0,0)" transform="translate(106.8046 -6.5922),scale(0.00001 -0.00001),translate(-106.8046 6.5922),translate(106.8125 -6.592499999999999),rotate(-30),translate(-106.8125 6.592499999999999)" >pangrango-pajajaran</text>
    <line x1="106.8049" y1="-6.5886" x2="106.8067" y2="-6.5808" style="stroke:rgb(255,0,0);stroke-width:.00002" />
    <line x1="106.8049" y1="-6.5886" x2="106.8058" y2="-6.5847" style="stroke:rgb(0,0,0);stroke-width:.00002" />
    <line x1="106.8058" y1="-6.5847" x2="106.8058" y2="-6.5847" style="stroke:rgb(0,0,0);stroke-width:.00002" />
    <line x1="106.8058" y1="-6.5847" x2="106.8067" y2="-6.5808" style="stroke:rgb(0,0,0);stroke-width:.00002" />
    <circle cx="106.8049" cy="-6.5886" fill="rgb(255,0,0)" r=".0001" />
    <text x="106.8049" y="-6.5886" stroke="rgb(0,0,0)" transform="translate(106.8049 -6.5886),scale(0.00001 -0.00001),translate(-106.8049 6.5886),translate(106.8125 -6.592499999999999),rotate(-30),translate(-106.8125 6.592499999999999)" >salak-pajajaran</text>
    <line x1="106.8067" y1="-6.5808" x2="106.811" y2="-6.5811" style="stroke:rgb(255,0,0);stroke-width:.00002" />
    <line x1="106.8067" y1="-6.5808" x2="106.80885" y2="-6.58095" style="stroke:rgb(0,0,0);stroke-width:.00002" />
    <line x1="106.80885" y1="-6.58095" x2="106.80885" y2="-6.58095" style="stroke:rgb(0,0,0);stroke-width:.00002" />
    <line x1="106.80885" y1="-6.58095" x2="106.811" y2="-6.5811" style="stroke:rgb(0,0,0);stroke-width:.00002" />
    <circle cx="106.8067" cy="-6.5808" fill="rgb(255,0,0)" r=".0001" />
    <text x="106.8067" y="-6.5808" stroke="rgb(0,0,0)" transform="translate(106.8067 -6.5808),scale(0.00001 -0.00001),translate(-106.8067 6.5808),translate(106.8125 -6.592499999999999),rotate(-30),translate(-106.8125 6.592499999999999)" >pajajaran-sobana</text>
    <line x1="106.811" y1="-6.5811" x2="106.8132" y2="-6.5816" style="stroke:rgb(255,0,0);stroke-width:.00002" />
    <line x1="106.811" y1="-6.5811" x2="106.8121" y2="-6.5813500000000005" style="stroke:rgb(0,0,0);stroke-width:.00002" />
    <line x1="106.8121" y1="-6.5813500000000005" x2="106.8121" y2="-6.5813500000000005" style="stroke:rgb(0,0,0);stroke-width:.00002" />
    <line x1="106.8121" y1="-6.5813500000000005" x2="106.8132" y2="-6.5816" style="stroke:rgb(0,0,0);stroke-width:.00002" />
    <circle cx="106.811" cy="-6.5811" fill="rgb(255,0,0)" r=".0001" />
    <text x="106.811" y="-6.5811" stroke="rgb(0,0,0)" transform="translate(106.811 -6.5811),scale(0.00001 -0.00001),translate(-106.811 6.5811),translate(106.8125 -6.592499999999999),rotate(-30),translate(-106.8125 6.592499999999999)" >sobana-sungai</text>
    <line x1="106.8132" y1="-6.5816" x2="106.811" y2="-6.5811" style="stroke:rgb(255,0,0);stroke-width:.00002" />
    <line x1="106.8132" y1="-6.5816" x2="106.8121" y2="-6.5813500000000005" style="stroke:rgb(0,0,0);stroke-width:.00002" />
    <line x1="106.8121" y1="-6.5813500000000005" x2="106.8121" y2="-6.5813500000000005" style="stroke:rgb(0,0,0);stroke-width:.00002" />
    <line x1="106.8121" y1="-6.5813500000000005" x2="106.811" y2="-6.5811" style="stroke:rgb(0,0,0);stroke-width:.00002" />
    <circle cx="106.8132" cy="-6.5816" fill="rgb(255,0,0)" r=".0001" />
    <text x="106.8132" y="-6.5816" stroke="rgb(0,0,0)" transform="translate(106.8132 -6.5816),scale(0.00001 -0.00001),translate(-106.8132 6.5816),translate(106.8125 -6.592499999999999),rotate(-30),translate(-106.8125 6.592499999999999)" >sobana-palapuhraya</text>
    <line x1="106.811" y1="-6.5811" x2="106.8112" y2="-6.5784" style="stroke:rgb(255,0,0);stroke-width:.00002" />
    <line x1="106.811" y1="-6.5811" x2="106.81110000000001" y2="-6.579750000000001" style="stroke:rgb(0,0,0);stroke-width:.00002" />
    <line x1="106.81110000000001" y1="-6.579750000000001" x2="106.81110000000001" y2="-6.579750000000001" style="stroke:rgb(0,0,0);stroke-width:.00002" />
    <line x1="106.81110000000001" y1="-6.579750000000001" x2="106.8112" y2="-6.5784" style="stroke:rgb(0,0,0);stroke-width:.00002" />
    <circle cx="106.811" cy="-6.5811" fill="rgb(255,0,0)" r=".0001" />
    <text x="106.811" y="-6.5811" stroke="rgb(0,0,0)" transform="translate(106.811 -6.5811),scale(0.00001 -0.00001),translate(-106.811 6.5811),translate(106.8125 -6.592499999999999),rotate(-30),translate(-106.8125 6.592499999999999)" >sobana-sungai</text>
    <line x1="106.8112" y1="-6.5784" x2="106.8109" y2="-6.577" style="stroke:rgb(255,0,0);stroke-width:.00002" />
    <line x1="106.8112" y1="-6.5784" x2="106.81105" y2="-6.5777" style="stroke:rgb(0,0,0);stroke-width:.00002" />
    <line x1="106.81105" y1="-6.5777" x2="106.81105" y2="-6.5777" style="stroke:rgb(0,0,0);stroke-width:.00002" />
    <line x1="106.81105" y1="-6.5777" x2="106.8109" y2="-6.577" style="stroke:rgb(0,0,0);stroke-width:.00002" />
    <circle cx="106.8112" cy="-6.5784" fill="rgb(255,0,0)" r=".0001" />
    <text x="106.8112" y="-6.5784" stroke="rgb(0,0,0)" transform="translate(106.8112 -6.5784),scale(0.00001 -0.00001),translate(-106.8112 6.5784),translate(106.8125 -6.592499999999999),rotate(-30),translate(-106.8125 6.592499999999999)" >ciparigi-1</text>
    <line x1="106.8109" y1="-6.577" x2="106.8125" y2="-6.5699" style="stroke:rgb(255,0,0);stroke-width:.00002" />
    <line x1="106.8109" y1="-6.577" x2="106.8117" y2="-6.573449999999999" style="stroke:rgb(0,0,0);stroke-width:.00002" />
    <line x1="106.8117" y1="-6.573449999999999" x2="106.8117" y2="-6.573449999999999" style="stroke:rgb(0,0,0);stroke-width:.00002" />
    <line x1="106.8117" y1="-6.573449999999999" x2="106.8125" y2="-6.5699" style="stroke:rgb(0,0,0);stroke-width:.00002" />
    <circle cx="106.8109" cy="-6.577" fill="rgb(255,0,0)" r=".0001" />
    <text x="106.8109" y="-6.577" stroke="rgb(0,0,0)" transform="translate(106.8109 -6.577),scale(0.00001 -0.00001),translate(-106.8109 6.577),translate(106.8125 -6.592499999999999),rotate(-30),translate(-106.8125 6.592499999999999)" >ciparigi-2</text>
    <line x1="106.8125" y1="-6.5699" x2="106.8091" y2="-6.5689" style="stroke:rgb(255,0,0);stroke-width:.00002" />
    <line x1="106.8125" y1="-6.5699" x2="106.8108" y2="-6.5694" style="stroke:rgb(0,0,0);stroke-width:.00002" />
    <line x1="106.8108" y1="-6.5694" x2="106.8108" y2="-6.5694" style="stroke:rgb(0,0,0);stroke-width:.00002" />
    <line x1="106.8108" y1="-6.5694" x2="106.8091" y2="-6.5689" style="stroke:rgb(0,0,0);stroke-width:.00002" />
    <circle cx="106.8125" cy="-6.5699" fill="rgb(255,0,0)" r=".0001" />
    <text x="106.8125" y="-6.5699" stroke="rgb(0,0,0)" transform="translate(106.8125 -6.5699),scale(0.00001 -0.00001),translate(-106.8125 6.5699),translate(106.8125 -6.592499999999999),rotate(-30),translate(-106.8125 6.592499999999999)" >ciparigi-3</text>
    <line x1="106.8091" y1="-6.5689" x2="106.8067" y2="-6.5808" style="stroke:rgb(255,0,0);stroke-width:.00002" />
    <line x1="106.8091" y1="-6.5689" x2="106.8079" y2="-6.57485" style="stroke:rgb(0,0,0);stroke-width:.00002" />
    <line x1="106.8079" y1="-6.57485" x2="106.8079" y2="-6.57485" style="stroke:rgb(0,0,0);stroke-width:.00002" />
    <line x1="106.8079" y1="-6.57485" x2="106.8067" y2="-6.5808" style="stroke:rgb(0,0,0);stroke-width:.00002" />
    <circle cx="106.8091" cy="-6.5689" fill="rgb(255,0,0)" r=".0001" />
    <text x="106.8091" y="-6.5689" stroke="rgb(0,0,0)" transform="translate(106.8091 -6.5689),scale(0.00001 -0.00001),translate(-106.8091 6.5689),translate(106.8125 -6.592499999999999),rotate(-30),translate(-106.8125 6.592499999999999)" >pajajaran-jambudua</text>
  </g>
</svg>
