<svg width="3500" height="3500" xmlns="http://www.w3.org/2000/svg" xmlns:xlink="http://www.w3.org/1999/xlink" >
  <path d="M1169.0394093331236 1174.0705710764446 L1183.9079863071333 1177.9506180557546 L1182.448535194851 1195.7441280816731 L1182.2487402893244 1231.7471700441245 L1167.0992829917282 1232.0636437206426 L1165.4201811300168 1263.127028160769 L1180.8831945040765 1359.7708617487351 L1169.9626017196606 1375.0596916468187 L1084.1962567029384 1393.5583150817713 L1042.4383924898707 1415.1572103645285 L1028.177465215805 1405.6499255152892 L990.5050445531316 1297.3417161099435 L1006.2982113347374 1255.2266046923237 L1051.1458144259932 1230.311269641691 L1069.5139076477744 1238.6604029243613 L1105.5329604290164 1220.1883286314 L1120.0060840365468 1226.0972147816278 L1140.9521903630803 1242.0461238951045 L1161.4784928895715 1226.3495396101391 L1165.7641443693478 1174.921721854583 L1193.076466595926 1056.5683255399176 L1258.969711625255 1061.1655286814962 L1291.749999999965 1070.1538461538498 L1257.1587347924406 1063.8304469028851 L1260.2381987108656 1022.2576840022416 L1255.7142107117159 1001.1457400060846 L1279.47751854947 895.6960614754776 L1231.3968397338472 881.5546853532301 L1195.7162733556715 1058.4708269782666 Z" stroke="red" stroke-width="0.5" fill="none" />
</svg>
