<svg width="3500" height="3500" xmlns="http://www.w3.org/2000/svg" xmlns:xlink="http://www.w3.org/1999/xlink" >
  <path d="M1053.1824322332996 1239.475445445222 L1069.7106512748178 1246.9882722822904 L1105.8888267382372 1228.4345932334566 L1121.5907590347028 1234.84516035044 L1138.3767473978423 1247.6264476508006 L1161.1831284594841 1284.1166573492706 L1173.3284234323094 1360.0247509288015 L1165.1333839703425 1371.4978061752486 L1088.2514079566618 1388.0801931586054 L1077.794024880916 1393.3088846964783 L1090.5045459462315 1417.3176467087383 L1132.3366960952085 1468.1138290325762 L1192.335842904697 1522.1130611609371 L1249.3307385766173 1591.1068822376164 L1314.1983851505047 1648.2521899337592 L1281.2104986035422 1659.2481521160978 L1279.7022935644975 1699.9696881662544 L1246.45890683162 1704.5028772662322 L1243.5645648403693 1716.0802452313822 L1233.0588731763469 1723.0840396738815 L1231.7500000001046 1721.775166497506 L1231.7500000001046 1721.6143454515857 L1243.3967637193177 1725.981881846264 L1247.6326703879436 1736.571648517709 L1236.7648254665653 1734.7603410308436 L1235.3713203434324 1736.1538461538566 L1240.5357475872593 1741.31827339747 L1248.8035761643346 1762.8146276984817 L1222.55521646224 1767.4466911753454 L1220.9154521536902 1777.285277028016 L1209.5925582746504 1772.4326082228008 L1203.6176682602218 1778.4074982371894 L1140.6579111336157 1753.8378369195011 L1113.640601778343 1698.302256577811 L1099.6495041745648 1692.0839909761658 L1101.1402644153634 1677.1763885689643 L1077.2500000000919 1667.1538461538576 L1104.3597355848078 1675.1313037387354 L1102.6506399377213 1692.2222602098418 L1081.167896223647 1700.4848539460097 L1072.3612479807798 1687.2748815818954 L1061.8104454378852 1694.8111691125648 L1044.331316559308 1666.2089582201747 L1039.7057580969715 1643.081165909264 L1049.201934042614 1611.4272460910333 L1081.5326390927282 1617.5854756244016 L1089.7228875265341 1613.490351407592 L1113.6733713053814 1577.564625739161 L1142.6447187190547 1558.7332499201482 L1124.2402378118754 1531.8343932094085 L1092.9235714716156 1516.9216949521317 L1038.9952187772167 1470.4833912429565 L1015.4025484713003 1462.6191678077087 L1023.3923329803929 1435.4539004767112 L1039.4832816012922 1414.9745113227932 L1034.5791796066096 1403.4892563504768 L1034.54162740249 1403.4002366225543 L998.0996157091937 1300.912414690743 L938.8472455491836 1286.0993221507804 L919.616586222034 1280.182196203921 L906.8041280504957 1281.7837534753498 L890.573409669031 1242.8300293591126 L909.199899946671 1241.277821835958 L907.6894206707209 1198.9844021124845 L954.5625309835515 1203.8333445586518 L938.0168293024838 1282.049388869844 L965.1683234494612 1288.8372624066017 L978.5675009810291 1236.7293497839696 L1003.7499999999966 1235.050516516019 L1003.7499999999966 1244.5079481200464 L999.6704019660996 1252.6671441877472 L1012.8416287496833 1261.8870029361067 Z" stroke="blue" stroke-width="0.5" fill="none" />
</svg>
