<svg width="1500" height="1500" xmlns="http://www.w3.org/2000/svg" xmlns:xlink="http://www.w3.org/1999/xlink" >
  <path d="M426.31610708681933 462.70183173398686 L417.75154860850705 279.99125086243674 L413.23008058569144 177.50464234613997 L448.1640338081405 124.3442787466995 L470.7119885016908 109.31230895108371 L485.48693483304817 90.10487871998077 L496.7302110413385 69.22450861899006 L552.9474800238177 108.72853547148713 L575.1325956740772 99.85448921138595 L602.9398975585565 106.39738377245169 L600.0792709602365 112.11863696917158 L591.2927572652649 110.36133423021988 L578.2338998808001 104.55739761489485 L550.6973163647899 116.15174856911307 L535.9418792528459 135.333816814611 L441.5485605579761 259.6932684284446 L422.25946379716106 302.7227919716833 L426.8054521679687 457.28639657625286 L377.3785851520728 446.80190963347616 L380.2500000000464 489.8731323586756 L380.2500000000464 475.6312808554395 L377.3368835891233 481.457513677299 L370.7352813738396 488.05911589278253 L364.2500000001547 492.9230769230728 L359.0399175830328 492.9230769230728 L349.8615242284586 490.3006788217755 L343.03120671047793 520.3540759007839 L367.51214005306565 527.0306940851175 L382.50897826316077 487.03912552484167 Z" stroke="lightgrey" stroke-width="0.5" fill="none" />
</svg>
