<svg width="1049.9999999998977" height="1849.9999999999961" xmlns="http://www.w3.org/2000/svg" xmlns:xlink="http://www.w3.org/1999/xlink" >
  <g transform="translate(524.9999999999488 924.9999999999981) rotate(30) scale(10000 -10000) translate(-106.8125 6.592499999999999)">
    <path d="M106.76 -6.5 L106.865 -6.5 L106.865 -6.685 L106.76 -6.685 Z" fill="none" stroke="black" stroke-width="0.0005" transform="translate(106.8125 -6.592499999999999) rotate(30) translate(-106.8125 6.592499999999999)" />
    <text x="106.81372707679263" y="-6.600557769072873" fill="black" transform="translate(106.81372707679263 -6.600557769072873) scale(0.0001 -0.0001) rotate(-30) translate(-106.81372707679263 6.600557769072873)">06</text>
    <text x="106.8172" y="-6.5982" fill="black" transform="translate(106.8172 -6.5982) scale(0.0001 -0.0001) rotate(-30) translate(-106.8172 6.5982)">06</text>
    <text x="106.81379265736243" y="-6.600756706530658" fill="black" transform="translate(106.81379265736243 -6.600756706530658) scale(0.0001 -0.0001) rotate(-30) translate(-106.81379265736243 6.600756706530658)">06</text>
    <text x="106.81309298982164" y="-6.605454474304431" fill="black" transform="translate(106.81309298982164 -6.605454474304431) scale(0.0001 -0.0001) rotate(-30) translate(-106.81309298982164 6.605454474304431)">06</text>
    <text x="106.81011415132072" y="-6.6077606718535336" fill="black" transform="translate(106.81011415132072 -6.6077606718535336) scale(0.0001 -0.0001) rotate(-30) translate(-106.81011415132072 6.6077606718535336)">06</text>
    <text x="106.81099993019883" y="-6.609089340170677" fill="black" transform="translate(106.81099993019883 -6.609089340170677) scale(0.0001 -0.0001) rotate(-30) translate(-106.81099993019883 6.609089340170677)">06</text>
    <text x="106.79970398126072" y="-6.602871386626766" fill="black" transform="translate(106.79970398126072 -6.602871386626766) scale(0.0001 -0.0001) rotate(-30) translate(-106.79970398126072 6.602871386626766)">06</text>
    <text x="106.79658564560354" y="-6.604484318863238" fill="black" transform="translate(106.79658564560354 -6.604484318863238) scale(0.0001 -0.0001) rotate(-30) translate(-106.79658564560354 6.604484318863238)">06</text>
    <text x="106.79571191346173" y="-6.603901830768703" fill="black" transform="translate(106.79571191346173 -6.603901830768703) scale(0.0001 -0.0001) rotate(-30) translate(-106.79571191346173 6.603901830768703)">06</text>
    <text x="106.79327471637914" y="-6.596894889156237" fill="black" transform="translate(106.79327471637914 -6.596894889156237) scale(0.0001 -0.0001) rotate(-30) translate(-106.79327471637914 6.596894889156237)">06</text>
    <text x="106.79433131634612" y="-6.594077289244325" fill="black" transform="translate(106.79433131634612 -6.594077289244325) scale(0.0001 -0.0001) rotate(-30) translate(-106.79433131634612 6.594077289244325)">06</text>
    <text x="106.79727747741106" y="-6.592440533097133" fill="black" transform="translate(106.79727747741106 -6.592440533097133) scale(0.0001 -0.0001) rotate(-30) translate(-106.79727747741106 6.592440533097133)">06</text>
    <text x="106.79838688375821" y="-6.592944808709475" fill="black" transform="translate(106.79838688375821 -6.592944808709475) scale(0.0001 -0.0001) rotate(-30) translate(-106.79838688375821 6.592944808709475)">06</text>
    <text x="106.80079027557939" y="-6.591712249026532" fill="black" transform="translate(106.80079027557939 -6.591712249026532) scale(0.0001 -0.0001) rotate(-30) translate(-106.80079027557939 6.591712249026532)">06</text>
    <text x="106.80170035500016" y="-6.592083803628763" fill="black" transform="translate(106.80170035500016 -6.592083803628763) scale(0.0001 -0.0001) rotate(-30) translate(-106.80170035500016 6.592083803628763)">06</text>
    <text x="106.8029754654199" y="-6.593054705803949" fill="black" transform="translate(106.8029754654199 -6.593054705803949) scale(0.0001 -0.0001) rotate(-30) translate(-106.8029754654199 6.593054705803949)">06</text>
    <text x="106.80495886201234" y="-6.5962281403518235" fill="black" transform="translate(106.80495886201234 -6.5962281403518235) scale(0.0001 -0.0001) rotate(-30) translate(-106.80495886201234 6.5962281403518235)">06</text>
    <text x="106.8057036514048" y="-6.6008830740546625" fill="black" transform="translate(106.8057036514048 -6.6008830740546625) scale(0.0001 -0.0001) rotate(-30) translate(-106.8057036514048 6.6008830740546625)">06</text>
    <text x="106.80501688710503" y="-6.601844544074316" fill="black" transform="translate(106.80501688710503 -6.601844544074316) scale(0.0001 -0.0001) rotate(-30) translate(-106.80501688710503 6.601844544074316)">06</text>
    <text x="106.80676252796825" y="-6.604088939469876" fill="black" transform="translate(106.80676252796825 -6.604088939469876) scale(0.0001 -0.0001) rotate(-30) translate(-106.80676252796825 6.604088939469876)">06</text>
    <text x="106.81611158864635" y="-6.598436019059862" fill="black" transform="translate(106.81611158864635 -6.598436019059862) scale(0.0001 -0.0001) rotate(-30) translate(-106.81611158864635 6.598436019059862)">06</text>
    <text x="106.80739451150473" y="-6.604537973059011" fill="black" transform="translate(106.80739451150473 -6.604537973059011) scale(0.0001 -0.0001) rotate(-30) translate(-106.80739451150473 6.604537973059011)">06</text>
    <text x="106.80999354088361" y="-6.607601114826986" fill="black" transform="translate(106.80999354088361 -6.607601114826986) scale(0.0001 -0.0001) rotate(-30) translate(-106.80999354088361 6.607601114826986)">06</text>
    <text x="106.81290701017835" y="-6.605345525695573" fill="black" transform="translate(106.81290701017835 -6.605345525695573) scale(0.0001 -0.0001) rotate(-30) translate(-106.81290701017835 6.605345525695573)">06</text>
    <text x="106.81359552802053" y="-6.600722620183839" fill="black" transform="translate(106.81359552802053 -6.600722620183839) scale(0.0001 -0.0001) rotate(-30) translate(-106.81359552802053 6.600722620183839)">06</text>
    <text x="106.8126" y="-6.599" fill="black" transform="translate(106.8126 -6.599) scale(0.0001 -0.0001) rotate(-30) translate(-106.8126 6.599)">06</text>
    <text x="106.8126" y="-6.599" fill="black" transform="translate(106.8126 -6.599) scale(0.0001 -0.0001) rotate(-30) translate(-106.8126 6.599)">06</text>
    <path d="M106.81372707679263 -6.600557769072873 L106.8172 -6.5982 L106.81379265736243 -6.600756706530658 L106.81309298982164 -6.605454474304431 L106.81011415132072 -6.6077606718535336 L106.81099993019883 -6.609089340170677 L106.79970398126072 -6.602871386626766 L106.79658564560354 -6.604484318863238 L106.79571191346173 -6.603901830768703 L106.79327471637914 -6.596894889156237 L106.79433131634612 -6.594077289244325 L106.79727747741106 -6.592440533097133 L106.79838688375821 -6.592944808709475 L106.80079027557939 -6.591712249026532 L106.80170035500016 -6.592083803628763 L106.8029754654199 -6.593054705803949 L106.80495886201234 -6.5962281403518235 L106.8057036514048 -6.6008830740546625 L106.80501688710503 -6.601844544074316 L106.80676252796825 -6.604088939469876 L106.81611158864635 -6.598436019059862 L106.80739451150473 -6.604537973059011 L106.80999354088361 -6.607601114826986 L106.81290701017835 -6.605345525695573 L106.81359552802053 -6.600722620183839 L106.8126 -6.599 L106.8126 -6.599 Z" stroke="yellow" stroke-width="0.0001" fill="none" />
  </g>
</svg>
