<svg width="3500" height="3500" xmlns="http://www.w3.org/2000/svg" xmlns:xlink="http://www.w3.org/1999/xlink" >
  <path d="M1902.1593923783087 1199.5715383165132 L1877.4898487723135 1159.6355704433586 L1887.3904409398533 1148.7518425500823 L1820.4280188029288 1127.9306242973644 L1748.8027033241592 1150.5038110126534 L1713.4220462911287 1179.1639514202016 L1641.2110032880632 1182.5776188066197 L1628.155604024002 1197.0785986121382 L1373.187484725449 1187.7034513683964 L1372.8095292782427 1201.3389209650652 L1345.8642397430508 1209.555570983776 L1343.5420474392145 1196.720450582758 L1344.8421458949865 1208.8781280324938 L1334.8754917915785 1210.5229516671748 L1328.2502414775622 1219.7271584794137 L1310.5094505522884 1225.682437195284 L1222.5612929321273 1222.6069030011515 L1216.6459048227553 1216.5421364044264 L1179.870479726546 1216.7332921526167 L1180.8327979469623 1216.5958181211515 L1180.756870144677 1230.2780080989976 L1165.6765854780106 1230.5930367523347 L1163.5301207534353 1270.302634158798 L1177.7263476397338 1359.0290521985885 L1166.9001519116762 1374.1857262179117 L1078.0844160678525 1393.3420613998896 L1042.6309756164896 1411.680047840296 L1030.6799386366094 1403.7126898538424 L994.4655592654783 1299.5963491613343 L1009.9305121202207 1258.356474882039 L1052.9797289329679 1234.4402433194816 L1069.592605098464 1241.9915506675409 L1105.675306952705 1223.4868344722386 L1118.5045659678394 1228.7245863886658 L1139.7187787819973 1244.8776387418018 L1162.182867346786 1227.6992180745165 L1177.8051906708242 1226.279006863256 L1179.010631509172 1215.2030749839464 L1179.7561016120994 1214.4838562855357 L1217.904095177218 1213.5355559032894 L1223.8687070681208 1219.6507893065348 L1310.0705494478148 1222.6652551124143 L1326.3797585226912 1217.1905338282854 L1333.1645082084974 1207.7647406405183 L1341.5578541052041 1206.3795642752154 L1331.7579525608635 1114.737241724964 L1348.2157602569346 1205.7021213239332 L1369.8704707218212 1199.0987713426641 L1370.2725152747776 1184.5942409393033 L1626.8643959759997 1194.0290936955525 L1639.8189967117105 1179.6400735010964 L1712.2979537089122 1176.2137408875044 L1747.3572966758156 1147.8138812950303 L1820.4219811971002 1124.7870680103138 L1892.779559060145 1147.2858497576158 L1881.2301512276977 1159.9821218643317 L1904.020607621675 1196.876153991178 L1993.3033104135943 1214.1605025642436 L2071.135000000126 1186.4338461538496 L1993.5666895863592 1217.267189743461 Z" stroke="pink" stroke-width="0.5" fill="none" />
</svg>
