<svg width="1049.9999999998977" height="1849.9999999999961" xmlns="http://www.w3.org/2000/svg" xmlns:xlink="http://www.w3.org/1999/xlink" >
  <g transform="translate(524.9999999999488 924.9999999999981) rotate(30) scale(10000 -10000) translate(-106.8125 6.592499999999999)">
    <path d="M106.76 -6.5 L106.865 -6.5 L106.865 -6.685 L106.76 -6.685 Z" fill="none" stroke="black" stroke-width="0.0025" transform="translate(106.8125 -6.592499999999999) rotate(30) translate(-106.8125 6.592499999999999)" />
    <path d="M106.79678429522315 -6.590541001282875 L106.7963004129618 -6.580218179707456 L106.79599468815616 -6.573288417446153 L106.7984104090155 -6.569612320486273 L106.79992319693379 -6.56860379520742 L106.80086318262222 -6.567381813812437 L106.80176138961106 -6.565713715118913 L106.80565266133966 -6.5684481222795625 L106.80706869217973 -6.567881709943542 L106.80938397268226 -6.568426481826493 L106.80892113892267 -6.569352149345622 L106.80807806860413 -6.5691835352819155 L106.80729570663492 -6.56883581885115 L106.80565261769722 -6.569527645772288 L106.80471783447047 -6.570742863967054 L106.79844628281536 -6.579005384401583 L106.79720252367925 -6.581779924012898 L106.79751478724476 -6.592396885240851 L106.79423428937383 -6.591701022056104 L106.79469999999999 -6.598686681449256 L106.79469999999999 -6.593388854381991 L106.79482316895705 -6.59314251646786 L106.79366274169976 -6.5943029437251885 L106.79313333333334 -6.5947 L106.79264397802214 -6.5947 L106.7922964064609 -6.594600693839648 L106.7919749884561 -6.59601493306072 L106.79190323734747 -6.595995364576544 L106.7932023942035 -6.5925309462937935 Z" stroke="lightgrey" stroke-width="0.0005" fill="none" />
    <circle 
      cx="106.79678429522315" cy="-12.590541001282876"
      r="15" transform="translate(106.79678429522315 -6.590541001282875) scale(0.000014999999999999999 -0.000014999999999999999) translate(-106.79678429522315 6.590541001282875) translate(106.8125 -6.592499999999999) rotate(-30) translate(-106.8125 6.592499999999999)"
      fill="white" stroke="black" stroke-width="2"/>
    <circle 
      cx="106.79720252367925" cy="-12.5817799240129"
      r="15" transform="translate(106.79720252367925 -6.581779924012898) scale(0.000014999999999999999 -0.000014999999999999999) translate(-106.79720252367925 6.581779924012898) translate(106.8125 -6.592499999999999) rotate(-30) translate(-106.8125 6.592499999999999)"
      fill="white" stroke="black" stroke-width="2"/>
    <circle 
      cx="106.79469999999999" cy="-12.598686681449255"
      r="15" transform="translate(106.79469999999999 -6.598686681449256) scale(0.000014999999999999999 -0.000014999999999999999) translate(-106.79469999999999 6.598686681449256) translate(106.8125 -6.592499999999999) rotate(-30) translate(-106.8125 6.592499999999999)"
      fill="white" stroke="black" stroke-width="2"/>
    <circle 
      cx="106.79482316895705" cy="-12.59314251646786"
      r="15" transform="translate(106.79482316895705 -6.59314251646786) scale(0.000014999999999999999 -0.000014999999999999999) translate(-106.79482316895705 6.59314251646786) translate(106.8125 -6.592499999999999) rotate(-30) translate(-106.8125 6.592499999999999)"
      fill="white" stroke="black" stroke-width="2"/>
    <circle 
      cx="106.79190323734747" cy="-12.595995364576545"
      r="15" transform="translate(106.79190323734747 -6.595995364576544) scale(0.000014999999999999999 -0.000014999999999999999) translate(-106.79190323734747 6.595995364576544) translate(106.8125 -6.592499999999999) rotate(-30) translate(-106.8125 6.592499999999999)"
      fill="white" stroke="black" stroke-width="2"/>
    <circle 
      cx="106.7932023942035" cy="-12.592530946293794"
      r="15" transform="translate(106.7932023942035 -6.5925309462937935) scale(0.000014999999999999999 -0.000014999999999999999) translate(-106.7932023942035 6.5925309462937935) translate(106.8125 -6.592499999999999) rotate(-30) translate(-106.8125 6.592499999999999)"
      fill="white" stroke="black" stroke-width="2"/>
    <circle 
      cx="106.79678429522315" cy="-12.590541001282876"
      r="15" transform="translate(106.79678429522315 -6.590541001282875) scale(0.000014999999999999999 -0.000014999999999999999) translate(-106.79678429522315 6.590541001282875) translate(106.8125 -6.592499999999999) rotate(-30) translate(-106.8125 6.592499999999999)"
      fill="white" stroke="none"/>
    <circle 
      cx="106.79720252367925" cy="-12.5817799240129"
      r="15" transform="translate(106.79720252367925 -6.581779924012898) scale(0.000014999999999999999 -0.000014999999999999999) translate(-106.79720252367925 6.581779924012898) translate(106.8125 -6.592499999999999) rotate(-30) translate(-106.8125 6.592499999999999)"
      fill="white" stroke="none"/>
    <circle 
      cx="106.79469999999999" cy="-12.598686681449255"
      r="15" transform="translate(106.79469999999999 -6.598686681449256) scale(0.000014999999999999999 -0.000014999999999999999) translate(-106.79469999999999 6.598686681449256) translate(106.8125 -6.592499999999999) rotate(-30) translate(-106.8125 6.592499999999999)"
      fill="white" stroke="none"/>
    <circle 
      cx="106.79482316895705" cy="-12.59314251646786"
      r="15" transform="translate(106.79482316895705 -6.59314251646786) scale(0.000014999999999999999 -0.000014999999999999999) translate(-106.79482316895705 6.59314251646786) translate(106.8125 -6.592499999999999) rotate(-30) translate(-106.8125 6.592499999999999)"
      fill="white" stroke="none"/>
    <circle 
      cx="106.79190323734747" cy="-12.595995364576545"
      r="15" transform="translate(106.79190323734747 -6.595995364576544) scale(0.000014999999999999999 -0.000014999999999999999) translate(-106.79190323734747 6.595995364576544) translate(106.8125 -6.592499999999999) rotate(-30) translate(-106.8125 6.592499999999999)"
      fill="white" stroke="none"/>
    <circle 
      cx="106.7932023942035" cy="-12.592530946293794"
      r="15" transform="translate(106.7932023942035 -6.5925309462937935) scale(0.000014999999999999999 -0.000014999999999999999) translate(-106.7932023942035 6.5925309462937935) translate(106.8125 -6.592499999999999) rotate(-30) translate(-106.8125 6.592499999999999)"
      fill="white" stroke="none"/>
    <text x="106.79678429522315" y="-6.590541001282875" fill="black" text-anchor="middle" transform="translate(106.79678429522315 -6.590541001282875) scale(0.000014999999999999999 -0.000014999999999999999) translate(-106.79678429522315 6.590541001282875) translate(106.8125 -6.592499999999999) rotate(-30) translate(-106.8125 6.592499999999999)">07</text>
    <text x="106.79720252367925" y="-6.581779924012898" fill="black" text-anchor="middle" transform="translate(106.79720252367925 -6.581779924012898) scale(0.000014999999999999999 -0.000014999999999999999) translate(-106.79720252367925 6.581779924012898) translate(106.8125 -6.592499999999999) rotate(-30) translate(-106.8125 6.592499999999999)">07</text>
    <text x="106.79469999999999" y="-6.598686681449256" fill="black" text-anchor="middle" transform="translate(106.79469999999999 -6.598686681449256) scale(0.000014999999999999999 -0.000014999999999999999) translate(-106.79469999999999 6.598686681449256) translate(106.8125 -6.592499999999999) rotate(-30) translate(-106.8125 6.592499999999999)">07</text>
    <text x="106.79482316895705" y="-6.59314251646786" fill="black" text-anchor="middle" transform="translate(106.79482316895705 -6.59314251646786) scale(0.000014999999999999999 -0.000014999999999999999) translate(-106.79482316895705 6.59314251646786) translate(106.8125 -6.592499999999999) rotate(-30) translate(-106.8125 6.592499999999999)">07</text>
    <text x="106.79190323734747" y="-6.595995364576544" fill="black" text-anchor="middle" transform="translate(106.79190323734747 -6.595995364576544) scale(0.000014999999999999999 -0.000014999999999999999) translate(-106.79190323734747 6.595995364576544) translate(106.8125 -6.592499999999999) rotate(-30) translate(-106.8125 6.592499999999999)">07</text>
    <text x="106.7932023942035" y="-6.5925309462937935" fill="black" text-anchor="middle" transform="translate(106.7932023942035 -6.5925309462937935) scale(0.000014999999999999999 -0.000014999999999999999) translate(-106.7932023942035 6.5925309462937935) translate(106.8125 -6.592499999999999) rotate(-30) translate(-106.8125 6.592499999999999)">07</text>
    <line x1="106.7946" y1="-6.5945" x2="106.7973" y2="-6.593" style="stroke:rgb(255,0,0);stroke-width:.00002" />
    <line x1="106.7973" y1="-6.593" x2="106.7967" y2="-6.5802" style="stroke:rgb(255,0,0);stroke-width:.00002" />
    <line x1="106.7967" y1="-6.5802" x2="106.7964" y2="-6.5734" style="stroke:rgb(255,0,0);stroke-width:.00002" />
    <line x1="106.7964" y1="-6.5734" x2="106.7987" y2="-6.5699" style="stroke:rgb(255,0,0);stroke-width:.00002" />
    <line x1="106.7987" y1="-6.5699" x2="106.8002" y2="-6.5689" style="stroke:rgb(255,0,0);stroke-width:.00002" />
    <line x1="106.8002" y1="-6.5689" x2="106.8012" y2="-6.5676" style="stroke:rgb(255,0,0);stroke-width:.00002" />
    <line x1="106.8012" y1="-6.5676" x2="106.8019" y2="-6.5663" style="stroke:rgb(255,0,0);stroke-width:.00002" />
    <line x1="106.8019" y1="-6.5663" x2="106.8056" y2="-6.5689" style="stroke:rgb(255,0,0);stroke-width:.00002" />
    <line x1="106.8056" y1="-6.5689" x2="106.8071" y2="-6.5683" style="stroke:rgb(255,0,0);stroke-width:.00002" />
    <line x1="106.8071" y1="-6.5683" x2="106.8088" y2="-6.5687" style="stroke:rgb(255,0,0);stroke-width:.00002" />
    <line x1="106.8088" y1="-6.5687" x2="106.8087" y2="-6.5689" style="stroke:rgb(255,0,0);stroke-width:.00002" />
    <line x1="106.8087" y1="-6.5689" x2="106.8082" y2="-6.5688" style="stroke:rgb(255,0,0);stroke-width:.00002" />
    <line x1="106.8082" y1="-6.5688" x2="106.8073" y2="-6.5684" style="stroke:rgb(255,0,0);stroke-width:.00002" />
    <line x1="106.8073" y1="-6.5684" x2="106.8054" y2="-6.5692" style="stroke:rgb(255,0,0);stroke-width:.00002" />
    <line x1="106.8054" y1="-6.5692" x2="106.8044" y2="-6.5705" style="stroke:rgb(255,0,0);stroke-width:.00002" />
    <line x1="106.8044" y1="-6.5705" x2="106.7981" y2="-6.5788" style="stroke:rgb(255,0,0);stroke-width:.00002" />
    <line x1="106.7981" y1="-6.5788" x2="106.7968" y2="-6.5817" style="stroke:rgb(255,0,0);stroke-width:.00002" />
    <line x1="106.7968" y1="-6.5817" x2="106.7971" y2="-6.5919" style="stroke:rgb(255,0,0);stroke-width:.00002" />
    <line x1="106.7971" y1="-6.5919" x2="106.7938" y2="-6.5912" style="stroke:rgb(255,0,0);stroke-width:.00002" />
    <line x1="106.7938" y1="-6.5912" x2="106.7939" y2="-6.5927" style="stroke:rgb(255,0,0);stroke-width:.00002" />
    <line x1="106.7939" y1="-6.5927" x2="106.7939" y2="-6.5932" style="stroke:rgb(255,0,0);stroke-width:.00002" />
    <line x1="106.7939" y1="-6.5932" x2="106.7936" y2="-6.5938" style="stroke:rgb(255,0,0);stroke-width:.00002" />
    <line x1="106.7936" y1="-6.5938" x2="106.7934" y2="-6.594" style="stroke:rgb(255,0,0);stroke-width:.00002" />
    <line x1="106.7934" y1="-6.594" x2="106.793" y2="-6.5943" style="stroke:rgb(255,0,0);stroke-width:.00002" />
    <line x1="106.793" y1="-6.5943" x2="106.7927" y2="-6.5943" style="stroke:rgb(255,0,0);stroke-width:.00002" />
    <line x1="106.7927" y1="-6.5943" x2="106.792" y2="-6.5941" style="stroke:rgb(255,0,0);stroke-width:.00002" />
    <line x1="106.792" y1="-6.5941" x2="106.7915" y2="-6.5963" style="stroke:rgb(255,0,0);stroke-width:.00002" />
    <line x1="106.7915" y1="-6.5963" x2="106.7937" y2="-6.5969" style="stroke:rgb(255,0,0);stroke-width:.00002" />
    <line x1="106.7937" y1="-6.5969" x2="106.7946" y2="-6.5945" style="stroke:rgb(255,0,0);stroke-width:.00002" />
  </g>
</svg>
