<svg width="1450.0000000001023" height="1550.0000000000025" xmlns="http://www.w3.org/2000/svg" xmlns:xlink="http://www.w3.org/1999/xlink" >
  <g transform="translate(725.0000000000512 775.0000000000013) rotate(0) scale(10000 -10000) translate(-106.7975 6.592499999999999)">
    <path d="M106.725 -6.515 L106.87 -6.515 L106.87 -6.67 L106.725 -6.67 Z" fill="none" stroke="black" stroke-width="0.001" transform="translate(106.7975 -6.592499999999999) rotate(0) translate(-106.7975 6.592499999999999)" />
    <path d="M106.79441536833748 -6.5934586142412925 L106.79651334580016 -6.5922930712064645 L106.79618794202506 -6.592473851081526 L106.79736099689438 -6.594453516907838 L106.79664545514157 -6.590518037267443 L106.79690198770317 -6.591928966356213 L106.79685122325306 -6.591472086305216 L106.79685122325306 -6.591472086305216 L106.7968004808039 -6.5910154042627696 L106.79675018876833 -6.589858687444856 L106.79675018876833 -6.589858687444856 L106.79670006206968 -6.588705773376061 L106.79665002040505 -6.585202856851357 L106.79665002040505 -6.585202856851357 L106.79660006879156 -6.581706243907045 L106.79640023185054 -6.5775596273806975 L106.79640023185054 -6.5775596273806975 L106.79619688896196 -6.573340262442591 L106.79748725330576 -6.5715337523612565 L106.79748725330576 -6.5715337523612565 L106.79875451643349 -6.569759583982436 L106.79942805784783 -6.569241475202179 L106.79942805784783 -6.569241475202179 L106.8000573807003 -6.568757380700288 L106.80054147520218 -6.568128057847831 L106.80054147520218 -6.568128057847831 L106.8010315913111 -6.567490906906219 L106.80137390578001 -6.566855180035392 L106.80137390578001 -6.566855180035392 L106.80183069480553 -6.566006857559465 L106.80386498910335 -6.567436361660628 L106.80386498910335 -6.567436361660628 L106.80563245348735 -6.568678363660205 L106.80613675444678 -6.568510263340389 L106.80613675444678 -6.568510263340389 L106.80675164144198 -6.56830530100866 L106.80706712020253 -6.5682527212152335 L106.80706712020253 -6.5682527212152335 L106.80741239705475 -6.568195175073199 L106.8083064332648 -6.568458126899686 L106.8083064332648 -6.568458126899686 L106.8091 -6.5689 L106.8081935667352 -6.568841873100314 L106.8081935667352 -6.568841873100314 L106.80738760294525 -6.5686048249268 L106.80713287979745 -6.568647278784767 L106.80713287979745 -6.568647278784767 L106.80684835855801 -6.56869469899134 L106.8062632455532 -6.56888973665961 L106.8062632455532 -6.56888973665961 L106.8057283456716 -6.5690680366201475 L106.80566641005886 -6.569160940039243 L106.80566641005886 -6.569160940039243 L106.805562653691 -6.569316574591048 L106.80505852479783 -6.569971942152171 L106.80505852479783 -6.569971942152171 L106.80455891723417 -6.570621431984921 L106.80140930638014 -6.574770919300576 L106.80140930638014 -6.574770919300576 L106.79827314140766 -6.578902692200814 L106.7976325018649 -6.580331811180818 L106.7976325018649 -6.580331811180818 L106.79700061200204 -6.581741411644149 L106.79744422508217 -6.584791470256011 L106.79745565248759 -6.5855913886358515 L106.79749981379096 -6.588682679872355 L106.79713243634195 -6.589441690091802 L106.79716718612137 -6.590240935018486 L106.7971995191961 -6.590984595737178 L106.79724877674694 -6.591427913694784 L106.79724877674694 -6.591427913694784 L106.79732935307942 -6.59215310068707 L106.79540849915833 -6.591745646825021 L106.79540849915833 -6.591745646825021 L106.79401714468692 -6.591450511028055 L106.79404955703157 -6.591936696197896 L106.79404955703157 -6.591936696197896 L106.7941 -6.5926933407244155 L106.79429999999999 -6.59275 L106.79429999999999 -6.5931500000000005 L106.79429999999999 -6.593294427191017 L106.79401832815729 -6.593410557280899 L106.79383944271909 -6.593768328157299 L106.79376437088304 -6.593918471829445 L106.79364142135624 -6.594041421356234 L106.79364142135624 -6.594041421356234 L106.79353137084996 -6.594151471862531 L106.79332000000001 -6.59431 L106.79332000000001 -6.59431 L106.79306666666666 -6.5945 L106.79285 -6.5945 L106.79285 -6.5945 L106.79267198901107 -6.5945 L106.79229505577442 -6.594392304789528 L106.79229505577442 -6.594392304789528 L106.79214820323045 -6.594350346919824 L106.79194502657117 -6.595244324220718 L106.79194502657117 -6.595244324220718 L106.79173749422806 -6.596157466530366 L106.79205622402803 -6.597073611330426 L106.79282803508501 -6.59728410525506 L106.79406976563986 -6.597622759042739 L106.79419681645888 -6.596144756359346 L106.79447771521214 -6.59539569301729 L106.79476143559047 -6.594639105341759 Z" stroke="lightgrey" stroke-width="0.0002" fill="none" />
    <circle 
      cx="106.8091" cy="-12.5689"
      r="15" transform="translate(106.8091 -6.5689) scale(0.00001 -0.00001) translate(-106.8091 6.5689) translate(106.7975 -6.592499999999999) rotate(0) translate(-106.7975 6.592499999999999)"
      fill="white" stroke="black" stroke-width="2"/>
    <circle 
      cx="106.8091" cy="-12.5689"
      r="15" transform="translate(106.8091 -6.5689) scale(0.00001 -0.00001) translate(-106.8091 6.5689) translate(106.7975 -6.592499999999999) rotate(0) translate(-106.7975 6.592499999999999)"
      fill="white" stroke="none"/>
    <text x="106.8091" y="-6.5689" fill="black" text-anchor="middle" transform="translate(106.8091 -6.5689) scale(0.00001 -0.00001) translate(-106.8091 6.5689) translate(106.7975 -6.592499999999999) rotate(0) translate(-106.7975 6.592499999999999)">07</text>
    <line x1="106.7946" y1="-6.5945" x2="106.7973" y2="-6.593" style="stroke:rgb(255,0,0);stroke-width:.00002" />
    <line x1="106.7946" y1="-6.5945" x2="106.79490101126866" y2="-6.594332771517414" style="stroke:rgb(0,0,0);stroke-width:.00002" />
    <line x1="106.79490101126866" y1="-6.594332771517414" x2="106.79699898873135" y2="-6.593167228482586" style="stroke:rgb(0,0,0);stroke-width:.00002" />
    <line x1="106.79699898873135" y1="-6.593167228482586" x2="106.7973" y2="-6.593" style="stroke:rgb(0,0,0);stroke-width:.00002" />
    <circle cx="106.7946" cy="-6.5945" fill="rgb(255,0,0)" r=".0001" />
    <text x="106.7946" y="-6.5945" stroke="rgb(0,0,0)" transform="translate(106.7946 -6.5945),scale(0.00001 -0.00001),translate(-106.7946 6.5945),translate(106.7975 -6.592499999999999),rotate(0),translate(-106.7975 6.592499999999999)" >kb-gedong-sawah</text>
    <line x1="106.7973" y1="-6.593" x2="106.7971" y2="-6.5919" style="stroke:rgb(255,0,0);stroke-width:.00002" />
    <line x1="106.7973" y1="-6.593" x2="106.79755777087641" y2="-6.594417739820197" style="stroke:rgb(0,0,0);stroke-width:.00002" />
    <line x1="106.79755777087641" y1="-6.594417739820197" x2="106.7968422291236" y2="-6.590482260179802" style="stroke:rgb(0,0,0);stroke-width:.00002" />
    <line x1="106.7968422291236" y1="-6.590482260179802" x2="106.7971" y2="-6.5919" style="stroke:rgb(0,0,0);stroke-width:.00002" />
    <circle cx="106.7973" cy="-6.593" fill="rgb(255,0,0)" r=".0001" />
    <text x="106.7973" y="-6.593" stroke="rgb(0,0,0)" transform="translate(106.7973 -6.593),scale(0.00001 -0.00001),translate(-106.7973 6.593),translate(106.7975 -6.592499999999999),rotate(0),translate(-106.7975 6.592499999999999)" >kb-polisi-militer</text>
    <line x1="106.7971" y1="-6.5919" x2="106.797" y2="-6.591" style="stroke:rgb(255,0,0);stroke-width:.00002" />
    <line x1="106.7971" y1="-6.5919" x2="106.79705" y2="-6.59145" style="stroke:rgb(0,0,0);stroke-width:.00002" />
    <line x1="106.79705" y1="-6.59145" x2="106.79705" y2="-6.59145" style="stroke:rgb(0,0,0);stroke-width:.00002" />
    <line x1="106.79705" y1="-6.59145" x2="106.797" y2="-6.591" style="stroke:rgb(0,0,0);stroke-width:.00002" />
    <circle cx="106.7971" cy="-6.5919" fill="rgb(255,0,0)" r=".0001" />
    <text x="106.7971" y="-6.5919" stroke="rgb(0,0,0)" transform="translate(106.7971 -6.5919),scale(0.00001 -0.00001),translate(-106.7971 6.5919),translate(106.7975 -6.592499999999999),rotate(0),translate(-106.7975 6.592499999999999)" >sudirman-pengadilan</text>
    <line x1="106.797" y1="-6.591" x2="106.7969" y2="-6.5887" style="stroke:rgb(255,0,0);stroke-width:.00002" />
    <line x1="106.797" y1="-6.591" x2="106.79695" y2="-6.58985" style="stroke:rgb(0,0,0);stroke-width:.00002" />
    <line x1="106.79695" y1="-6.58985" x2="106.79695" y2="-6.58985" style="stroke:rgb(0,0,0);stroke-width:.00002" />
    <line x1="106.79695" y1="-6.58985" x2="106.7969" y2="-6.5887" style="stroke:rgb(0,0,0);stroke-width:.00002" />
    <circle cx="106.797" cy="-6.591" fill="rgb(255,0,0)" r=".0001" />
    <text x="106.797" y="-6.591" stroke="rgb(0,0,0)" transform="translate(106.797 -6.591),scale(0.00001 -0.00001),translate(-106.797 6.591),translate(106.7975 -6.592499999999999),rotate(0),translate(-106.7975 6.592499999999999)" >ggbaru-sudirman</text>
    <line x1="106.7969" y1="-6.5887" x2="106.7968" y2="-6.5817" style="stroke:rgb(255,0,0);stroke-width:.00002" />
    <line x1="106.7969" y1="-6.5887" x2="106.79685" y2="-6.5852" style="stroke:rgb(0,0,0);stroke-width:.00002" />
    <line x1="106.79685" y1="-6.5852" x2="106.79685" y2="-6.5852" style="stroke:rgb(0,0,0);stroke-width:.00002" />
    <line x1="106.79685" y1="-6.5852" x2="106.7968" y2="-6.5817" style="stroke:rgb(0,0,0);stroke-width:.00002" />
    <circle cx="106.7969" cy="-6.5887" fill="rgb(255,0,0)" r=".0001" />
    <text x="106.7969" y="-6.5887" stroke="rgb(0,0,0)" transform="translate(106.7969 -6.5887),scale(0.00001 -0.00001),translate(-106.7969 6.5887),translate(106.7975 -6.592499999999999),rotate(0),translate(-106.7975 6.592499999999999)" >sudirman-sawojajar</text>
    <line x1="106.7968" y1="-6.5817" x2="106.7964" y2="-6.5734" style="stroke:rgb(255,0,0);stroke-width:.00002" />
    <line x1="106.7968" y1="-6.5817" x2="106.79660000000001" y2="-6.5775500000000005" style="stroke:rgb(0,0,0);stroke-width:.00002" />
    <line x1="106.79660000000001" y1="-6.5775500000000005" x2="106.79660000000001" y2="-6.5775500000000005" style="stroke:rgb(0,0,0);stroke-width:.00002" />
    <line x1="106.79660000000001" y1="-6.5775500000000005" x2="106.7964" y2="-6.5734" style="stroke:rgb(0,0,0);stroke-width:.00002" />
    <circle cx="106.7968" cy="-6.5817" fill="rgb(255,0,0)" r=".0001" />
    <text x="106.7968" y="-6.5817" stroke="rgb(0,0,0)" transform="translate(106.7968 -6.5817),scale(0.00001 -0.00001),translate(-106.7968 6.5817),translate(106.7975 -6.592499999999999),rotate(0),translate(-106.7975 6.592499999999999)" >sudirman-airmancur</text>
    <line x1="106.7964" y1="-6.5734" x2="106.7989" y2="-6.5699" style="stroke:rgb(255,0,0);stroke-width:.00002" />
    <line x1="106.7964" y1="-6.5734" x2="106.79765" y2="-6.57165" style="stroke:rgb(0,0,0);stroke-width:.00002" />
    <line x1="106.79765" y1="-6.57165" x2="106.79765" y2="-6.57165" style="stroke:rgb(0,0,0);stroke-width:.00002" />
    <line x1="106.79765" y1="-6.57165" x2="106.7989" y2="-6.5699" style="stroke:rgb(0,0,0);stroke-width:.00002" />
    <circle cx="106.7964" cy="-6.5734" fill="rgb(255,0,0)" r=".0001" />
    <text x="106.7964" y="-6.5734" stroke="rgb(0,0,0)" transform="translate(106.7964 -6.5734),scale(0.00001 -0.00001),translate(-106.7964 6.5734),translate(106.7975 -6.592499999999999),rotate(0),translate(-106.7975 6.592499999999999)" >pemuda-hewan</text>
    <line x1="106.7989" y1="-6.5699" x2="106.8002" y2="-6.5689" style="stroke:rgb(255,0,0);stroke-width:.00002" />
    <line x1="106.7989" y1="-6.5699" x2="106.79955000000001" y2="-6.5694" style="stroke:rgb(0,0,0);stroke-width:.00002" />
    <line x1="106.79955000000001" y1="-6.5694" x2="106.79955000000001" y2="-6.5694" style="stroke:rgb(0,0,0);stroke-width:.00002" />
    <line x1="106.79955000000001" y1="-6.5694" x2="106.8002" y2="-6.5689" style="stroke:rgb(0,0,0);stroke-width:.00002" />
    <circle cx="106.7989" cy="-6.5699" fill="rgb(255,0,0)" r=".0001" />
    <text x="106.7989" y="-6.5699" stroke="rgb(0,0,0)" transform="translate(106.7989 -6.5699),scale(0.00001 -0.00001),translate(-106.7989 6.5699),translate(106.7975 -6.592499999999999),rotate(0),translate(-106.7975 6.592499999999999)" >pemuda-pedes</text>
    <line x1="106.8002" y1="-6.5689" x2="106.8012" y2="-6.5676" style="stroke:rgb(255,0,0);stroke-width:.00002" />
    <line x1="106.8002" y1="-6.5689" x2="106.8007" y2="-6.56825" style="stroke:rgb(0,0,0);stroke-width:.00002" />
    <line x1="106.8007" y1="-6.56825" x2="106.8007" y2="-6.56825" style="stroke:rgb(0,0,0);stroke-width:.00002" />
    <line x1="106.8007" y1="-6.56825" x2="106.8012" y2="-6.5676" style="stroke:rgb(0,0,0);stroke-width:.00002" />
    <circle cx="106.8002" cy="-6.5689" fill="rgb(255,0,0)" r=".0001" />
    <text x="106.8002" y="-6.5689" stroke="rgb(0,0,0)" transform="translate(106.8002 -6.5689),scale(0.00001 -0.00001),translate(-106.8002 6.5689),translate(106.7975 -6.592499999999999),rotate(0),translate(-106.7975 6.592499999999999)" >line-07-4</text>
    <line x1="106.8012" y1="-6.5676" x2="106.8019" y2="-6.5663" style="stroke:rgb(255,0,0);stroke-width:.00002" />
    <line x1="106.8012" y1="-6.5676" x2="106.80154999999999" y2="-6.56695" style="stroke:rgb(0,0,0);stroke-width:.00002" />
    <line x1="106.80154999999999" y1="-6.56695" x2="106.80154999999999" y2="-6.56695" style="stroke:rgb(0,0,0);stroke-width:.00002" />
    <line x1="106.80154999999999" y1="-6.56695" x2="106.8019" y2="-6.5663" style="stroke:rgb(0,0,0);stroke-width:.00002" />
    <circle cx="106.8012" cy="-6.5676" fill="rgb(255,0,0)" r=".0001" />
    <text x="106.8012" y="-6.5676" stroke="rgb(0,0,0)" transform="translate(106.8012 -6.5676),scale(0.00001 -0.00001),translate(-106.8012 6.5676),translate(106.7975 -6.592499999999999),rotate(0),translate(-106.7975 6.592499999999999)" >line-07-5</text>
    <line x1="106.8019" y1="-6.5663" x2="106.8056" y2="-6.5689" style="stroke:rgb(255,0,0);stroke-width:.00002" />
    <line x1="106.8019" y1="-6.5663" x2="106.80375000000001" y2="-6.5676000000000005" style="stroke:rgb(0,0,0);stroke-width:.00002" />
    <line x1="106.80375000000001" y1="-6.5676000000000005" x2="106.80375000000001" y2="-6.5676000000000005" style="stroke:rgb(0,0,0);stroke-width:.00002" />
    <line x1="106.80375000000001" y1="-6.5676000000000005" x2="106.8056" y2="-6.5689" style="stroke:rgb(0,0,0);stroke-width:.00002" />
    <circle cx="106.8019" cy="-6.5663" fill="rgb(255,0,0)" r=".0001" />
    <text x="106.8019" y="-6.5663" stroke="rgb(0,0,0)" transform="translate(106.8019 -6.5663),scale(0.00001 -0.00001),translate(-106.8019 6.5663),translate(106.7975 -6.592499999999999),rotate(0),translate(-106.7975 6.592499999999999)" >line-07-6</text>
    <line x1="106.8056" y1="-6.5689" x2="106.8068" y2="-6.5685" style="stroke:rgb(255,0,0);stroke-width:.00002" />
    <line x1="106.8056" y1="-6.5689" x2="106.80619999999999" y2="-6.5687" style="stroke:rgb(0,0,0);stroke-width:.00002" />
    <line x1="106.80619999999999" y1="-6.5687" x2="106.80619999999999" y2="-6.5687" style="stroke:rgb(0,0,0);stroke-width:.00002" />
    <line x1="106.80619999999999" y1="-6.5687" x2="106.8068" y2="-6.5685" style="stroke:rgb(0,0,0);stroke-width:.00002" />
    <circle cx="106.8056" cy="-6.5689" fill="rgb(255,0,0)" r=".0001" />
    <text x="106.8056" y="-6.5689" stroke="rgb(0,0,0)" transform="translate(106.8056 -6.5689),scale(0.00001 -0.00001),translate(-106.8056 6.5689),translate(106.7975 -6.592499999999999),rotate(0),translate(-106.7975 6.592499999999999)" >line-07-7</text>
    <line x1="106.8068" y1="-6.5685" x2="106.8074" y2="-6.5684" style="stroke:rgb(255,0,0);stroke-width:.00002" />
    <line x1="106.8068" y1="-6.5685" x2="106.80709999999999" y2="-6.56845" style="stroke:rgb(0,0,0);stroke-width:.00002" />
    <line x1="106.80709999999999" y1="-6.56845" x2="106.80709999999999" y2="-6.56845" style="stroke:rgb(0,0,0);stroke-width:.00002" />
    <line x1="106.80709999999999" y1="-6.56845" x2="106.8074" y2="-6.5684" style="stroke:rgb(0,0,0);stroke-width:.00002" />
    <circle cx="106.8068" cy="-6.5685" fill="rgb(255,0,0)" r=".0001" />
    <text x="106.8068" y="-6.5685" stroke="rgb(0,0,0)" transform="translate(106.8068 -6.5685),scale(0.00001 -0.00001),translate(-106.8068 6.5685),translate(106.7975 -6.592499999999999),rotate(0),translate(-106.7975 6.592499999999999)" >jambudua-yani</text>
    <line x1="106.8074" y1="-6.5684" x2="106.8091" y2="-6.5689" style="stroke:rgb(255,0,0);stroke-width:.00002" />
    <line x1="106.8074" y1="-6.5684" x2="106.80825" y2="-6.56865" style="stroke:rgb(0,0,0);stroke-width:.00002" />
    <line x1="106.80825" y1="-6.56865" x2="106.80825" y2="-6.56865" style="stroke:rgb(0,0,0);stroke-width:.00002" />
    <line x1="106.80825" y1="-6.56865" x2="106.8091" y2="-6.5689" style="stroke:rgb(0,0,0);stroke-width:.00002" />
    <circle cx="106.8074" cy="-6.5684" fill="rgb(255,0,0)" r=".0001" />
    <text x="106.8074" y="-6.5684" stroke="rgb(0,0,0)" transform="translate(106.8074 -6.5684),scale(0.00001 -0.00001),translate(-106.8074 6.5684),translate(106.7975 -6.592499999999999),rotate(0),translate(-106.7975 6.592499999999999)" >yani-sungai</text>
    <line x1="106.8091" y1="-6.5689" x2="106.8074" y2="-6.5684" style="stroke:rgb(255,0,0);stroke-width:.00002" />
    <line x1="106.8091" y1="-6.5689" x2="106.80825" y2="-6.56865" style="stroke:rgb(0,0,0);stroke-width:.00002" />
    <line x1="106.80825" y1="-6.56865" x2="106.80825" y2="-6.56865" style="stroke:rgb(0,0,0);stroke-width:.00002" />
    <line x1="106.80825" y1="-6.56865" x2="106.8074" y2="-6.5684" style="stroke:rgb(0,0,0);stroke-width:.00002" />
    <circle cx="106.8091" cy="-6.5689" fill="rgb(255,0,0)" r=".0001" />
    <text x="106.8091" y="-6.5689" stroke="rgb(0,0,0)" transform="translate(106.8091 -6.5689),scale(0.00001 -0.00001),translate(-106.8091 6.5689),translate(106.7975 -6.592499999999999),rotate(0),translate(-106.7975 6.592499999999999)" >pajajaran-jambudua</text>
    <line x1="106.8074" y1="-6.5684" x2="106.8068" y2="-6.5685" style="stroke:rgb(255,0,0);stroke-width:.00002" />
    <line x1="106.8074" y1="-6.5684" x2="106.80709999999999" y2="-6.56845" style="stroke:rgb(0,0,0);stroke-width:.00002" />
    <line x1="106.80709999999999" y1="-6.56845" x2="106.80709999999999" y2="-6.56845" style="stroke:rgb(0,0,0);stroke-width:.00002" />
    <line x1="106.80709999999999" y1="-6.56845" x2="106.8068" y2="-6.5685" style="stroke:rgb(0,0,0);stroke-width:.00002" />
    <circle cx="106.8074" cy="-6.5684" fill="rgb(255,0,0)" r=".0001" />
    <text x="106.8074" y="-6.5684" stroke="rgb(0,0,0)" transform="translate(106.8074 -6.5684),scale(0.00001 -0.00001),translate(-106.8074 6.5684),translate(106.7975 -6.592499999999999),rotate(0),translate(-106.7975 6.592499999999999)" >yani-sungai</text>
    <line x1="106.8068" y1="-6.5685" x2="106.8056" y2="-6.5689" style="stroke:rgb(255,0,0);stroke-width:.00002" />
    <line x1="106.8068" y1="-6.5685" x2="106.80619999999999" y2="-6.5687" style="stroke:rgb(0,0,0);stroke-width:.00002" />
    <line x1="106.80619999999999" y1="-6.5687" x2="106.80619999999999" y2="-6.5687" style="stroke:rgb(0,0,0);stroke-width:.00002" />
    <line x1="106.80619999999999" y1="-6.5687" x2="106.8056" y2="-6.5689" style="stroke:rgb(0,0,0);stroke-width:.00002" />
    <circle cx="106.8068" cy="-6.5685" fill="rgb(255,0,0)" r=".0001" />
    <text x="106.8068" y="-6.5685" stroke="rgb(0,0,0)" transform="translate(106.8068 -6.5685),scale(0.00001 -0.00001),translate(-106.8068 6.5685),translate(106.7975 -6.592499999999999),rotate(0),translate(-106.7975 6.592499999999999)" >jambudua-yani</text>
    <line x1="106.8056" y1="-6.5689" x2="106.8054" y2="-6.5692" style="stroke:rgb(255,0,0);stroke-width:.00002" />
    <line x1="106.8056" y1="-6.5689" x2="106.8055" y2="-6.569050000000001" style="stroke:rgb(0,0,0);stroke-width:.00002" />
    <line x1="106.8055" y1="-6.569050000000001" x2="106.8055" y2="-6.569050000000001" style="stroke:rgb(0,0,0);stroke-width:.00002" />
    <line x1="106.8055" y1="-6.569050000000001" x2="106.8054" y2="-6.5692" style="stroke:rgb(0,0,0);stroke-width:.00002" />
    <circle cx="106.8056" cy="-6.5689" fill="rgb(255,0,0)" r=".0001" />
    <text x="106.8056" y="-6.5689" stroke="rgb(0,0,0)" transform="translate(106.8056 -6.5689),scale(0.00001 -0.00001),translate(-106.8056 6.5689),translate(106.7975 -6.592499999999999),rotate(0),translate(-106.7975 6.592499999999999)" >line-07-7</text>
    <line x1="106.8054" y1="-6.5692" x2="106.8044" y2="-6.5705" style="stroke:rgb(255,0,0);stroke-width:.00002" />
    <line x1="106.8054" y1="-6.5692" x2="106.8049" y2="-6.569850000000001" style="stroke:rgb(0,0,0);stroke-width:.00002" />
    <line x1="106.8049" y1="-6.569850000000001" x2="106.8049" y2="-6.569850000000001" style="stroke:rgb(0,0,0);stroke-width:.00002" />
    <line x1="106.8049" y1="-6.569850000000001" x2="106.8044" y2="-6.5705" style="stroke:rgb(0,0,0);stroke-width:.00002" />
    <circle cx="106.8054" cy="-6.5692" fill="rgb(255,0,0)" r=".0001" />
    <text x="106.8054" y="-6.5692" stroke="rgb(0,0,0)" transform="translate(106.8054 -6.5692),scale(0.00001 -0.00001),translate(-106.8054 6.5692),translate(106.7975 -6.592499999999999),rotate(0),translate(-106.7975 6.592499999999999)" >yani-2</text>
    <line x1="106.8044" y1="-6.5705" x2="106.7981" y2="-6.5788" style="stroke:rgb(255,0,0);stroke-width:.00002" />
    <line x1="106.8044" y1="-6.5705" x2="106.80125000000001" y2="-6.57465" style="stroke:rgb(0,0,0);stroke-width:.00002" />
    <line x1="106.80125000000001" y1="-6.57465" x2="106.80125000000001" y2="-6.57465" style="stroke:rgb(0,0,0);stroke-width:.00002" />
    <line x1="106.80125000000001" y1="-6.57465" x2="106.7981" y2="-6.5788" style="stroke:rgb(0,0,0);stroke-width:.00002" />
    <circle cx="106.8044" cy="-6.5705" fill="rgb(255,0,0)" r=".0001" />
    <text x="106.8044" y="-6.5705" stroke="rgb(0,0,0)" transform="translate(106.8044 -6.5705),scale(0.00001 -0.00001),translate(-106.8044 6.5705),translate(106.7975 -6.592499999999999),rotate(0),translate(-106.7975 6.592499999999999)" >yani-3</text>
    <line x1="106.7981" y1="-6.5788" x2="106.7968" y2="-6.5817" style="stroke:rgb(255,0,0);stroke-width:.00002" />
    <line x1="106.7981" y1="-6.5788" x2="106.79745" y2="-6.5802499999999995" style="stroke:rgb(0,0,0);stroke-width:.00002" />
    <line x1="106.79745" y1="-6.5802499999999995" x2="106.79745" y2="-6.5802499999999995" style="stroke:rgb(0,0,0);stroke-width:.00002" />
    <line x1="106.79745" y1="-6.5802499999999995" x2="106.7968" y2="-6.5817" style="stroke:rgb(0,0,0);stroke-width:.00002" />
    <circle cx="106.7981" cy="-6.5788" fill="rgb(255,0,0)" r=".0001" />
    <text x="106.7981" y="-6.5788" stroke="rgb(0,0,0)" transform="translate(106.7981 -6.5788),scale(0.00001 -0.00001),translate(-106.7981 6.5788),translate(106.7975 -6.592499999999999),rotate(0),translate(-106.7975 6.592499999999999)" >yani-4</text>
    <line x1="106.7968" y1="-6.5817" x2="106.7969" y2="-6.5887" style="stroke:rgb(255,0,0);stroke-width:.00002" />
    <line x1="106.7968" y1="-6.5817" x2="106.7968442862973" y2="-6.58480004081008" style="stroke:rgb(0,0,0);stroke-width:.00002" />
    <line x1="106.7968442862973" y1="-6.58480004081008" x2="106.79685571370271" y2="-6.585599959189921" style="stroke:rgb(0,0,0);stroke-width:.00002" />
    <line x1="106.79685571370271" y1="-6.585599959189921" x2="106.7969" y2="-6.5887" style="stroke:rgb(0,0,0);stroke-width:.00002" />
    <circle cx="106.7968" cy="-6.5817" fill="rgb(255,0,0)" r=".0001" />
    <text x="106.7968" y="-6.5817" stroke="rgb(0,0,0)" transform="translate(106.7968 -6.5817),scale(0.00001 -0.00001),translate(-106.7968 6.5817),translate(106.7975 -6.592499999999999),rotate(0),translate(-106.7975 6.592499999999999)" >sudirman-airmancur</text>
    <line x1="106.7969" y1="-6.5887" x2="106.797" y2="-6.591" style="stroke:rgb(255,0,0);stroke-width:.00002" />
    <line x1="106.7969" y1="-6.5887" x2="106.79693262511029" y2="-6.589450377536658" style="stroke:rgb(0,0,0);stroke-width:.00002" />
    <line x1="106.79693262511029" y1="-6.589450377536658" x2="106.7969673748897" y2="-6.590249622463342" style="stroke:rgb(0,0,0);stroke-width:.00002" />
    <line x1="106.7969673748897" y1="-6.590249622463342" x2="106.797" y2="-6.591" style="stroke:rgb(0,0,0);stroke-width:.00002" />
    <circle cx="106.7969" cy="-6.5887" fill="rgb(255,0,0)" r=".0001" />
    <text x="106.7969" y="-6.5887" stroke="rgb(0,0,0)" transform="translate(106.7969 -6.5887),scale(0.00001 -0.00001),translate(-106.7969 6.5887),translate(106.7975 -6.592499999999999),rotate(0),translate(-106.7975 6.592499999999999)" >sudirman-sawojajar</text>
    <line x1="106.797" y1="-6.591" x2="106.7971" y2="-6.5919" style="stroke:rgb(255,0,0);stroke-width:.00002" />
    <line x1="106.797" y1="-6.591" x2="106.79705" y2="-6.59145" style="stroke:rgb(0,0,0);stroke-width:.00002" />
    <line x1="106.79705" y1="-6.59145" x2="106.79705" y2="-6.59145" style="stroke:rgb(0,0,0);stroke-width:.00002" />
    <line x1="106.79705" y1="-6.59145" x2="106.7971" y2="-6.5919" style="stroke:rgb(0,0,0);stroke-width:.00002" />
    <circle cx="106.797" cy="-6.591" fill="rgb(255,0,0)" r=".0001" />
    <text x="106.797" y="-6.591" stroke="rgb(0,0,0)" transform="translate(106.797 -6.591),scale(0.00001 -0.00001),translate(-106.797 6.591),translate(106.7975 -6.592499999999999),rotate(0),translate(-106.7975 6.592499999999999)" >ggbaru-sudirman</text>
    <line x1="106.7971" y1="-6.5919" x2="106.7938" y2="-6.5912" style="stroke:rgb(255,0,0);stroke-width:.00002" />
    <line x1="106.7971" y1="-6.5919" x2="106.79545" y2="-6.59155" style="stroke:rgb(0,0,0);stroke-width:.00002" />
    <line x1="106.79545" y1="-6.59155" x2="106.79545" y2="-6.59155" style="stroke:rgb(0,0,0);stroke-width:.00002" />
    <line x1="106.79545" y1="-6.59155" x2="106.7938" y2="-6.5912" style="stroke:rgb(0,0,0);stroke-width:.00002" />
    <circle cx="106.7971" cy="-6.5919" fill="rgb(255,0,0)" r=".0001" />
    <text x="106.7971" y="-6.5919" stroke="rgb(0,0,0)" transform="translate(106.7971 -6.5919),scale(0.00001 -0.00001),translate(-106.7971 6.5919),translate(106.7975 -6.592499999999999),rotate(0),translate(-106.7975 6.592499999999999)" >sudirman-pengadilan</text>
    <line x1="106.7938" y1="-6.5912" x2="106.7939" y2="-6.5927" style="stroke:rgb(255,0,0);stroke-width:.00002" />
    <line x1="106.7938" y1="-6.5912" x2="106.79384999999999" y2="-6.59195" style="stroke:rgb(0,0,0);stroke-width:.00002" />
    <line x1="106.79384999999999" y1="-6.59195" x2="106.79384999999999" y2="-6.59195" style="stroke:rgb(0,0,0);stroke-width:.00002" />
    <line x1="106.79384999999999" y1="-6.59195" x2="106.7939" y2="-6.5927" style="stroke:rgb(0,0,0);stroke-width:.00002" />
    <circle cx="106.7938" cy="-6.5912" fill="rgb(255,0,0)" r=".0001" />
    <text x="106.7938" y="-6.5912" stroke="rgb(0,0,0)" transform="translate(106.7938 -6.5912),scale(0.00001 -0.00001),translate(-106.7938 6.5912),translate(106.7975 -6.592499999999999),rotate(0),translate(-106.7975 6.592499999999999)" >pengadilan-gedongsawah</text>
    <line x1="106.7939" y1="-6.5927" x2="106.7939" y2="-6.5932" style="stroke:rgb(255,0,0);stroke-width:.00002" />
    <line x1="106.7939" y1="-6.5927" x2="106.7939" y2="-6.59275" style="stroke:rgb(0,0,0);stroke-width:.00002" />
    <line x1="106.7939" y1="-6.59275" x2="106.7939" y2="-6.5931500000000005" style="stroke:rgb(0,0,0);stroke-width:.00002" />
    <line x1="106.7939" y1="-6.5931500000000005" x2="106.7939" y2="-6.5932" style="stroke:rgb(0,0,0);stroke-width:.00002" />
    <circle cx="106.7939" cy="-6.5927" fill="rgb(255,0,0)" r=".0001" />
    <text x="106.7939" y="-6.5927" stroke="rgb(0,0,0)" transform="translate(106.7939 -6.5927),scale(0.00001 -0.00001),translate(-106.7939 6.5927),translate(106.7975 -6.592499999999999),rotate(0),translate(-106.7975 6.592499999999999)" >mekah-gedongsawah</text>
    <line x1="106.7939" y1="-6.5932" x2="106.7936" y2="-6.5938" style="stroke:rgb(255,0,0);stroke-width:.00002" />
    <line x1="106.7939" y1="-6.5932" x2="106.79383944271909" y2="-6.5933211145618005" style="stroke:rgb(0,0,0);stroke-width:.00002" />
    <line x1="106.79383944271909" y1="-6.5933211145618005" x2="106.79366055728089" y2="-6.593678885438201" style="stroke:rgb(0,0,0);stroke-width:.00002" />
    <line x1="106.79366055728089" y1="-6.593678885438201" x2="106.7936" y2="-6.5938" style="stroke:rgb(0,0,0);stroke-width:.00002" />
    <circle cx="106.7939" cy="-6.5932" fill="rgb(255,0,0)" r=".0001" />
    <text x="106.7939" y="-6.5932" stroke="rgb(0,0,0)" transform="translate(106.7939 -6.5932),scale(0.00001 -0.00001),translate(-106.7939 6.5932),translate(106.7975 -6.592499999999999),rotate(0),translate(-106.7975 6.592499999999999)" >gedongsawah-1</text>
    <line x1="106.7936" y1="-6.5938" x2="106.7934" y2="-6.594" style="stroke:rgb(255,0,0);stroke-width:.00002" />
    <line x1="106.7936" y1="-6.5938" x2="106.7935" y2="-6.5939" style="stroke:rgb(0,0,0);stroke-width:.00002" />
    <line x1="106.7935" y1="-6.5939" x2="106.7935" y2="-6.5939" style="stroke:rgb(0,0,0);stroke-width:.00002" />
    <line x1="106.7935" y1="-6.5939" x2="106.7934" y2="-6.594" style="stroke:rgb(0,0,0);stroke-width:.00002" />
    <circle cx="106.7936" cy="-6.5938" fill="rgb(255,0,0)" r=".0001" />
    <text x="106.7936" y="-6.5938" stroke="rgb(0,0,0)" transform="translate(106.7936 -6.5938),scale(0.00001 -0.00001),translate(-106.7936 6.5938),translate(106.7975 -6.592499999999999),rotate(0),translate(-106.7975 6.592499999999999)" >gedongsawah-crossing</text>
    <line x1="106.7934" y1="-6.594" x2="106.793" y2="-6.5943" style="stroke:rgb(255,0,0);stroke-width:.00002" />
    <line x1="106.7934" y1="-6.594" x2="106.79320000000001" y2="-6.59415" style="stroke:rgb(0,0,0);stroke-width:.00002" />
    <line x1="106.79320000000001" y1="-6.59415" x2="106.79320000000001" y2="-6.59415" style="stroke:rgb(0,0,0);stroke-width:.00002" />
    <line x1="106.79320000000001" y1="-6.59415" x2="106.793" y2="-6.5943" style="stroke:rgb(0,0,0);stroke-width:.00002" />
    <circle cx="106.7934" cy="-6.594" fill="rgb(255,0,0)" r=".0001" />
    <text x="106.7934" y="-6.594" stroke="rgb(0,0,0)" transform="translate(106.7934 -6.594),scale(0.00001 -0.00001),translate(-106.7934 6.594),translate(106.7975 -6.592499999999999),rotate(0),translate(-106.7975 6.592499999999999)" >gedongsawah-2</text>
    <line x1="106.793" y1="-6.5943" x2="106.7927" y2="-6.5943" style="stroke:rgb(255,0,0);stroke-width:.00002" />
    <line x1="106.793" y1="-6.5943" x2="106.79285" y2="-6.5943" style="stroke:rgb(0,0,0);stroke-width:.00002" />
    <line x1="106.79285" y1="-6.5943" x2="106.79285" y2="-6.5943" style="stroke:rgb(0,0,0);stroke-width:.00002" />
    <line x1="106.79285" y1="-6.5943" x2="106.7927" y2="-6.5943" style="stroke:rgb(0,0,0);stroke-width:.00002" />
    <circle cx="106.793" cy="-6.5943" fill="rgb(255,0,0)" r=".0001" />
    <text x="106.793" y="-6.5943" stroke="rgb(0,0,0)" transform="translate(106.793 -6.5943),scale(0.00001 -0.00001),translate(-106.793 6.5943),translate(106.7975 -6.592499999999999),rotate(0),translate(-106.7975 6.592499999999999)" >gedongsawah-3</text>
    <line x1="106.7927" y1="-6.5943" x2="106.792" y2="-6.5941" style="stroke:rgb(255,0,0);stroke-width:.00002" />
    <line x1="106.7927" y1="-6.5943" x2="106.79235" y2="-6.5942" style="stroke:rgb(0,0,0);stroke-width:.00002" />
    <line x1="106.79235" y1="-6.5942" x2="106.79235" y2="-6.5942" style="stroke:rgb(0,0,0);stroke-width:.00002" />
    <line x1="106.79235" y1="-6.5942" x2="106.792" y2="-6.5941" style="stroke:rgb(0,0,0);stroke-width:.00002" />
    <circle cx="106.7927" cy="-6.5943" fill="rgb(255,0,0)" r=".0001" />
    <text x="106.7927" y="-6.5943" stroke="rgb(0,0,0)" transform="translate(106.7927 -6.5943),scale(0.00001 -0.00001),translate(-106.7927 6.5943),translate(106.7975 -6.592499999999999),rotate(0),translate(-106.7975 6.592499999999999)" >gedongsawah-4</text>
    <line x1="106.792" y1="-6.5941" x2="106.7915" y2="-6.5963" style="stroke:rgb(255,0,0);stroke-width:.00002" />
    <line x1="106.792" y1="-6.5941" x2="106.79175000000001" y2="-6.5952" style="stroke:rgb(0,0,0);stroke-width:.00002" />
    <line x1="106.79175000000001" y1="-6.5952" x2="106.79175000000001" y2="-6.5952" style="stroke:rgb(0,0,0);stroke-width:.00002" />
    <line x1="106.79175000000001" y1="-6.5952" x2="106.7915" y2="-6.5963" style="stroke:rgb(0,0,0);stroke-width:.00002" />
    <circle cx="106.792" cy="-6.5941" fill="rgb(255,0,0)" r=".0001" />
    <text x="106.792" y="-6.5941" stroke="rgb(0,0,0)" transform="translate(106.792 -6.5941),scale(0.00001 -0.00001),translate(-106.792 6.5941),translate(106.7975 -6.592499999999999),rotate(0),translate(-106.7975 6.592499999999999)" >gedongsawah-dewisartika</text>
    <line x1="106.7915" y1="-6.5963" x2="106.7937" y2="-6.5969" style="stroke:rgb(255,0,0);stroke-width:.00002" />
    <line x1="106.7915" y1="-6.5963" x2="106.7922140944715" y2="-6.596494753037684" style="stroke:rgb(0,0,0);stroke-width:.00002" />
    <line x1="106.7922140944715" y1="-6.596494753037684" x2="106.79298590552848" y2="-6.596705246962317" style="stroke:rgb(0,0,0);stroke-width:.00002" />
    <line x1="106.79298590552848" y1="-6.596705246962317" x2="106.7937" y2="-6.5969" style="stroke:rgb(0,0,0);stroke-width:.00002" />
    <circle cx="106.7915" cy="-6.5963" fill="rgb(255,0,0)" r=".0001" />
    <text x="106.7915" y="-6.5963" stroke="rgb(0,0,0)" transform="translate(106.7915 -6.5963),scale(0.00001 -0.00001),translate(-106.7915 6.5963),translate(106.7975 -6.592499999999999),rotate(0),translate(-106.7975 6.592499999999999)" >muslihat-dewisartika</text>
    <line x1="106.7937" y1="-6.5969" x2="106.7946" y2="-6.5945" style="stroke:rgb(255,0,0);stroke-width:.00002" />
    <line x1="106.7937" y1="-6.5969" x2="106.79400955062337" y2="-6.596074531671028" style="stroke:rgb(0,0,0);stroke-width:.00002" />
    <line x1="106.79400955062337" y1="-6.596074531671028" x2="106.79429044937663" y2="-6.595325468328972" style="stroke:rgb(0,0,0);stroke-width:.00002" />
    <line x1="106.79429044937663" y1="-6.595325468328972" x2="106.7946" y2="-6.5945" style="stroke:rgb(0,0,0);stroke-width:.00002" />
    <circle cx="106.7937" cy="-6.5969" fill="rgb(255,0,0)" r=".0001" />
    <text x="106.7937" y="-6.5969" stroke="rgb(0,0,0)" transform="translate(106.7937 -6.5969),scale(0.00001 -0.00001),translate(-106.7937 6.5969),translate(106.7975 -6.592499999999999),rotate(0),translate(-106.7975 6.592499999999999)" >kb-muslihat</text>
  </g>
</svg>
