<svg width="1049.9999999998977" height="1849.9999999999961" xmlns="http://www.w3.org/2000/svg" xmlns:xlink="http://www.w3.org/1999/xlink" >
  <g transform="translate(524.9999999999488 924.9999999999981) rotate(30) scale(10000 -10000) translate(-106.8125 6.592499999999999)">
    <path d="M106.76 -6.5 L106.865 -6.5 L106.865 -6.685 L106.76 -6.685 Z" fill="none" stroke="black" stroke-width="0.001" transform="translate(106.8125 -6.592499999999999) rotate(30) translate(-106.8125 6.592499999999999)" />
    <path d="M106.8058 -6.5847 L106.8058 -6.5847 L106.8049 -6.5886 L106.805402 -6.588730999999999 L106.805402 -6.588730999999999 L106.805904 -6.588862 L106.80580499999999 -6.590069 L106.80580499999999 -6.590069 L106.805706 -6.591276 L106.80570460986081 -6.591526503079502 L106.80570239013917 -6.5919264969204985 L106.805701 -6.592177 L106.8051505 -6.592188500000001 L106.8051505 -6.592188500000001 L106.8046 -6.5922 L106.8045107950516 -6.593850291545345 L106.80448920494838 -6.594249708454655 L106.8044 -6.5959 L106.80461041139867 -6.5972150712417 L106.80498958860133 -6.5995849287583 L106.8052 -6.6009 L106.80531872474187 -6.601152290076478 L106.80668127525813 -6.604047709923523 L106.8068 -6.6043 L106.80877885360329 -6.603103483867781 L106.8091211463967 -6.602896516132218 L106.8111 -6.6017 L106.80942769276821 -6.602870615062254 L106.80877230723179 -6.603329384937745 L106.8071 -6.6045 L106.81005 -6.608499999999999 L106.81005 -6.608499999999999 L106.813 -6.6125 L106.81375 -6.6143 L106.81375 -6.6143 L106.8145 -6.6161 L106.8154 -6.618550000000001 L106.8154 -6.618550000000001 L106.8163 -6.621 L106.81635 -6.6211 L106.81635 -6.6211 L106.8164 -6.6212 L106.8163 -6.6213 L106.8163 -6.6213 L106.8162 -6.6214 L106.81604999999999 -6.62125 L106.81604999999999 -6.62125 L106.8159 -6.6211 L106.8152 -6.618600000000001 L106.8152 -6.618600000000001 L106.8145 -6.6161 L106.81375 -6.6143 L106.81375 -6.6143 L106.813 -6.6125 L106.81085 -6.6095500000000005 L106.81085 -6.6095500000000005 L106.8087 -6.6066 L106.80853382900601 -6.606671216140284 L106.808166170994 -6.606828783859716 L106.808 -6.6069 L106.80770000000001 -6.6067 L106.80770000000001 -6.6067 L106.8074 -6.6065 L106.80705 -6.60655 L106.80705 -6.60655 L106.8067 -6.6066 L106.80625 -6.6059 L106.80625 -6.6059 L106.8058 -6.6052 L106.80545000000001 -6.6052 L106.80545000000001 -6.6052 L106.8051 -6.6052 L106.80471449999999 -6.603422999999999 L106.80471449999999 -6.603422999999999 L106.804329 -6.601646 L106.80269819927979 -6.602034093014018 L106.80153080072019 -6.602311906985982 L106.7999 -6.6027 L106.79974999999999 -6.6027 L106.79974999999999 -6.6027 L106.7996 -6.6027 L106.7992 -6.6029 L106.7992 -6.6029 L106.7988 -6.6031 L106.798028 -6.6035205 L106.798028 -6.6035205 L106.797256 -6.603941 L106.796978 -6.6040705 L106.796978 -6.6040705 L106.7967 -6.6042 L106.7964 -6.603999999999999 L106.7964 -6.603999999999999 L106.7961 -6.6038 L106.79496570412499 -6.600538899359341 L106.794834295875 -6.600161100640658 L106.7937 -6.5969 L106.79393932593504 -6.596261797506541 L106.79436067406496 -6.595138202493459 L106.7946 -6.5945 L106.79577516854478 -6.593847128586235 L106.79612483145523 -6.593652871413765 L106.7973 -6.593 L106.79766792670452 -6.593167239411139 L106.7980320732955 -6.59333276058886 L106.7984 -6.5935 L106.79960700000001 -6.592881 L106.79960700000001 -6.592881 L106.800814 -6.592262 L106.80112483713589 -6.592388904274229 L106.80149516286411 -6.592540095725771 L106.801806 -6.592667 L106.80203475387086 -6.5928411791356725 L106.80267124612914 -6.593325820864327 L106.8029 -6.5935 L106.80295564216702 -6.593457450107571 L106.80454435783297 -6.59224254989243 L106.8046 -6.5922 L106.80473339090403 -6.590599309151648 L106.80476660909596 -6.590200690848351 L106.8049 -6.5886 L106.8058 -6.5847 L106.8058 -6.5847 L106.8067 -6.5808 L106.80786045999722 -6.57504605251383 L106.80793954000279 -6.574653947486169 L106.8091 -6.5689 L106.80793954000279 -6.574653947486169 L106.80786045999722 -6.57504605251383 L106.8067 -6.5808 Z" stroke="purple" stroke-width="0.0002" fill="none" />
    <circle 
      cx="106.8091" cy="-12.5689"
      r="15" transform="translate(106.8091 -6.5689) scale(0.00001 -0.00001) translate(-106.8091 6.5689) translate(106.8125 -6.592499999999999) rotate(-30) translate(-106.8125 6.592499999999999)"
      fill="white" stroke="black" stroke-width="2"/>
    <circle 
      cx="106.8091" cy="-12.5689"
      r="15" transform="translate(106.8091 -6.5689) scale(0.00001 -0.00001) translate(-106.8091 6.5689) translate(106.8125 -6.592499999999999) rotate(-30) translate(-106.8125 6.592499999999999)"
      fill="white" stroke="none"/>
    <text x="106.8091" y="-6.5689" fill="black" text-anchor="middle" transform="translate(106.8091 -6.5689) scale(0.00001 -0.00001) translate(-106.8091 6.5689) translate(106.8125 -6.592499999999999) rotate(-30) translate(-106.8125 6.592499999999999)">09</text>
    <line x1="106.8067" y1="-6.5808" x2="106.8049" y2="-6.5886" style="stroke:rgb(255,0,0);stroke-width:.00002" />
    <line x1="106.8067" y1="-6.5808" x2="106.8058" y2="-6.5847" style="stroke:rgb(0,0,0);stroke-width:.00002" />
    <line x1="106.8058" y1="-6.5847" x2="106.8058" y2="-6.5847" style="stroke:rgb(0,0,0);stroke-width:.00002" />
    <line x1="106.8058" y1="-6.5847" x2="106.8049" y2="-6.5886" style="stroke:rgb(0,0,0);stroke-width:.00002" />
    <circle cx="106.8067" cy="-6.5808" fill="rgb(255,0,0)" r=".0001" />
    <text x="106.8067" y="-6.5808" stroke="rgb(0,0,0)" transform="translate(106.8067 -6.5808),scale(0.00001 -0.00001),translate(-106.8067 6.5808),translate(106.8125 -6.592499999999999),rotate(-30),translate(-106.8125 6.592499999999999)" >pajajaran-sobana</text>
    <line x1="106.8049" y1="-6.5886" x2="106.805904" y2="-6.588862" style="stroke:rgb(255,0,0);stroke-width:.00002" />
    <line x1="106.8049" y1="-6.5886" x2="106.805402" y2="-6.588730999999999" style="stroke:rgb(0,0,0);stroke-width:.00002" />
    <line x1="106.805402" y1="-6.588730999999999" x2="106.805402" y2="-6.588730999999999" style="stroke:rgb(0,0,0);stroke-width:.00002" />
    <line x1="106.805402" y1="-6.588730999999999" x2="106.805904" y2="-6.588862" style="stroke:rgb(0,0,0);stroke-width:.00002" />
    <circle cx="106.8049" cy="-6.5886" fill="rgb(255,0,0)" r=".0001" />
    <text x="106.8049" y="-6.5886" stroke="rgb(0,0,0)" transform="translate(106.8049 -6.5886),scale(0.00001 -0.00001),translate(-106.8049 6.5886),translate(106.8125 -6.592499999999999),rotate(-30),translate(-106.8125 6.592499999999999)" >salak-pajajaran</text>
    <line x1="106.805904" y1="-6.588862" x2="106.805706" y2="-6.591276" style="stroke:rgb(255,0,0);stroke-width:.00002" />
    <line x1="106.805904" y1="-6.588862" x2="106.80580499999999" y2="-6.590069" style="stroke:rgb(0,0,0);stroke-width:.00002" />
    <line x1="106.80580499999999" y1="-6.590069" x2="106.80580499999999" y2="-6.590069" style="stroke:rgb(0,0,0);stroke-width:.00002" />
    <line x1="106.80580499999999" y1="-6.590069" x2="106.805706" y2="-6.591276" style="stroke:rgb(0,0,0);stroke-width:.00002" />
    <circle cx="106.805904" cy="-6.588862" fill="rgb(255,0,0)" r=".0001" />
    <text x="106.805904" y="-6.588862" stroke="rgb(0,0,0)" transform="translate(106.805904 -6.588862),scale(0.00001 -0.00001),translate(-106.805904 6.588862),translate(106.8125 -6.592499999999999),rotate(-30),translate(-106.8125 6.592499999999999)" >lodaya-N</text>
    <line x1="106.805706" y1="-6.591276" x2="106.805701" y2="-6.592177" style="stroke:rgb(255,0,0);stroke-width:.00002" />
    <line x1="106.805706" y1="-6.591276" x2="106.80570460986081" y2="-6.591526503079502" style="stroke:rgb(0,0,0);stroke-width:.00002" />
    <line x1="106.80570460986081" y1="-6.591526503079502" x2="106.80570239013917" y2="-6.5919264969204985" style="stroke:rgb(0,0,0);stroke-width:.00002" />
    <line x1="106.80570239013917" y1="-6.5919264969204985" x2="106.805701" y2="-6.592177" style="stroke:rgb(0,0,0);stroke-width:.00002" />
    <circle cx="106.805706" cy="-6.591276" fill="rgb(255,0,0)" r=".0001" />
    <text x="106.805706" y="-6.591276" stroke="rgb(0,0,0)" transform="translate(106.805706 -6.591276),scale(0.00001 -0.00001),translate(-106.805706 6.591276),translate(106.8125 -6.592499999999999),rotate(-30),translate(-106.8125 6.592499999999999)" >lodaya-M</text>
    <line x1="106.805701" y1="-6.592177" x2="106.8046" y2="-6.5922" style="stroke:rgb(255,0,0);stroke-width:.00002" />
    <line x1="106.805701" y1="-6.592177" x2="106.8051505" y2="-6.592188500000001" style="stroke:rgb(0,0,0);stroke-width:.00002" />
    <line x1="106.8051505" y1="-6.592188500000001" x2="106.8051505" y2="-6.592188500000001" style="stroke:rgb(0,0,0);stroke-width:.00002" />
    <line x1="106.8051505" y1="-6.592188500000001" x2="106.8046" y2="-6.5922" style="stroke:rgb(0,0,0);stroke-width:.00002" />
    <circle cx="106.805701" cy="-6.592177" fill="rgb(255,0,0)" r=".0001" />
    <text x="106.805701" y="-6.592177" stroke="rgb(0,0,0)" transform="translate(106.805701 -6.592177),scale(0.00001 -0.00001),translate(-106.805701 6.592177),translate(106.8125 -6.592499999999999),rotate(-30),translate(-106.8125 6.592499999999999)" >lodaya-S</text>
    <line x1="106.8046" y1="-6.5922" x2="106.8044" y2="-6.5959" style="stroke:rgb(255,0,0);stroke-width:.00002" />
    <line x1="106.8046" y1="-6.5922" x2="106.8045107950516" y2="-6.593850291545345" style="stroke:rgb(0,0,0);stroke-width:.00002" />
    <line x1="106.8045107950516" y1="-6.593850291545345" x2="106.80448920494838" y2="-6.594249708454655" style="stroke:rgb(0,0,0);stroke-width:.00002" />
    <line x1="106.80448920494838" y1="-6.594249708454655" x2="106.8044" y2="-6.5959" style="stroke:rgb(0,0,0);stroke-width:.00002" />
    <circle cx="106.8046" cy="-6.5922" fill="rgb(255,0,0)" r=".0001" />
    <text x="106.8046" y="-6.5922" stroke="rgb(0,0,0)" transform="translate(106.8046 -6.5922),scale(0.00001 -0.00001),translate(-106.8046 6.5922),translate(106.8125 -6.592499999999999),rotate(-30),translate(-106.8125 6.592499999999999)" >pangrango-pajajaran</text>
    <line x1="106.8044" y1="-6.5959" x2="106.8052" y2="-6.6009" style="stroke:rgb(255,0,0);stroke-width:.00002" />
    <line x1="106.8044" y1="-6.5959" x2="106.80461041139867" y2="-6.5972150712417" style="stroke:rgb(0,0,0);stroke-width:.00002" />
    <line x1="106.80461041139867" y1="-6.5972150712417" x2="106.80498958860133" y2="-6.5995849287583" style="stroke:rgb(0,0,0);stroke-width:.00002" />
    <line x1="106.80498958860133" y1="-6.5995849287583" x2="106.8052" y2="-6.6009" style="stroke:rgb(0,0,0);stroke-width:.00002" />
    <circle cx="106.8044" cy="-6.5959" fill="rgb(255,0,0)" r=".0001" />
    <text x="106.8044" y="-6.5959" stroke="rgb(0,0,0)" transform="translate(106.8044 -6.5959),scale(0.00001 -0.00001),translate(-106.8044 6.5959),translate(106.8125 -6.592499999999999),rotate(-30),translate(-106.8125 6.592499999999999)" >kb-astrid</text>
    <line x1="106.8052" y1="-6.6009" x2="106.8068" y2="-6.6043" style="stroke:rgb(255,0,0);stroke-width:.00002" />
    <line x1="106.8052" y1="-6.6009" x2="106.80531872474187" y2="-6.601152290076478" style="stroke:rgb(0,0,0);stroke-width:.00002" />
    <line x1="106.80531872474187" y1="-6.601152290076478" x2="106.80668127525813" y2="-6.604047709923523" style="stroke:rgb(0,0,0);stroke-width:.00002" />
    <line x1="106.80668127525813" y1="-6.604047709923523" x2="106.8068" y2="-6.6043" style="stroke:rgb(0,0,0);stroke-width:.00002" />
    <circle cx="106.8052" cy="-6.6009" fill="rgb(255,0,0)" r=".0001" />
    <text x="106.8052" y="-6.6009" stroke="rgb(0,0,0)" transform="translate(106.8052 -6.6009),scale(0.00001 -0.00001),translate(-106.8052 6.6009),translate(106.8125 -6.592499999999999),rotate(-30),translate(-106.8125 6.592499999999999)" >kb-botani-1</text>
    <line x1="106.8068" y1="-6.6043" x2="106.8111" y2="-6.6017" style="stroke:rgb(255,0,0);stroke-width:.00002" />
    <line x1="106.8068" y1="-6.6043" x2="106.80877885360329" y2="-6.603103483867781" style="stroke:rgb(0,0,0);stroke-width:.00002" />
    <line x1="106.80877885360329" y1="-6.603103483867781" x2="106.8091211463967" y2="-6.602896516132218" style="stroke:rgb(0,0,0);stroke-width:.00002" />
    <line x1="106.8091211463967" y1="-6.602896516132218" x2="106.8111" y2="-6.6017" style="stroke:rgb(0,0,0);stroke-width:.00002" />
    <circle cx="106.8068" cy="-6.6043" fill="rgb(255,0,0)" r=".0001" />
    <text x="106.8068" y="-6.6043" stroke="rgb(0,0,0)" transform="translate(106.8068 -6.6043),scale(0.00001 -0.00001),translate(-106.8068 6.6043),translate(106.8125 -6.592499999999999),rotate(-30),translate(-106.8125 6.592499999999999)" >tol-1</text>
    <line x1="106.8111" y1="-6.6017" x2="106.8071" y2="-6.6045" style="stroke:rgb(255,0,0);stroke-width:.00002" />
    <line x1="106.8111" y1="-6.6017" x2="106.80942769276821" y2="-6.602870615062254" style="stroke:rgb(0,0,0);stroke-width:.00002" />
    <line x1="106.80942769276821" y1="-6.602870615062254" x2="106.80877230723179" y2="-6.603329384937745" style="stroke:rgb(0,0,0);stroke-width:.00002" />
    <line x1="106.80877230723179" y1="-6.603329384937745" x2="106.8071" y2="-6.6045" style="stroke:rgb(0,0,0);stroke-width:.00002" />
    <circle cx="106.8111" cy="-6.6017" fill="rgb(255,0,0)" r=".0001" />
    <text x="106.8111" y="-6.6017" stroke="rgb(0,0,0)" transform="translate(106.8111 -6.6017),scale(0.00001 -0.00001),translate(-106.8111 6.6017),translate(106.8125 -6.592499999999999),rotate(-30),translate(-106.8125 6.592499999999999)" >tol-2</text>
    <line x1="106.8071" y1="-6.6045" x2="106.813" y2="-6.6125" style="stroke:rgb(255,0,0);stroke-width:.00002" />
    <line x1="106.8071" y1="-6.6045" x2="106.81005" y2="-6.608499999999999" style="stroke:rgb(0,0,0);stroke-width:.00002" />
    <line x1="106.81005" y1="-6.608499999999999" x2="106.81005" y2="-6.608499999999999" style="stroke:rgb(0,0,0);stroke-width:.00002" />
    <line x1="106.81005" y1="-6.608499999999999" x2="106.813" y2="-6.6125" style="stroke:rgb(0,0,0);stroke-width:.00002" />
    <circle cx="106.8071" cy="-6.6045" fill="rgb(255,0,0)" r=".0001" />
    <text x="106.8071" y="-6.6045" stroke="rgb(0,0,0)" transform="translate(106.8071 -6.6045),scale(0.00001 -0.00001),translate(-106.8071 6.6045),translate(106.8125 -6.592499999999999),rotate(-30),translate(-106.8125 6.592499999999999)" >tol-3</text>
    <line x1="106.813" y1="-6.6125" x2="106.8145" y2="-6.6161" style="stroke:rgb(255,0,0);stroke-width:.00002" />
    <line x1="106.813" y1="-6.6125" x2="106.81375" y2="-6.6143" style="stroke:rgb(0,0,0);stroke-width:.00002" />
    <line x1="106.81375" y1="-6.6143" x2="106.81375" y2="-6.6143" style="stroke:rgb(0,0,0);stroke-width:.00002" />
    <line x1="106.81375" y1="-6.6143" x2="106.8145" y2="-6.6161" style="stroke:rgb(0,0,0);stroke-width:.00002" />
    <circle cx="106.813" cy="-6.6125" fill="rgb(255,0,0)" r=".0001" />
    <text x="106.813" y="-6.6125" stroke="rgb(0,0,0)" transform="translate(106.813 -6.6125),scale(0.00001 -0.00001),translate(-106.813 6.6125),translate(106.8125 -6.592499999999999),rotate(-30),translate(-106.8125 6.592499999999999)" >pajajaran-pjjindah</text>
    <line x1="106.8145" y1="-6.6161" x2="106.8163" y2="-6.621" style="stroke:rgb(255,0,0);stroke-width:.00002" />
    <line x1="106.8145" y1="-6.6161" x2="106.8154" y2="-6.618550000000001" style="stroke:rgb(0,0,0);stroke-width:.00002" />
    <line x1="106.8154" y1="-6.618550000000001" x2="106.8154" y2="-6.618550000000001" style="stroke:rgb(0,0,0);stroke-width:.00002" />
    <line x1="106.8154" y1="-6.618550000000001" x2="106.8163" y2="-6.621" style="stroke:rgb(0,0,0);stroke-width:.00002" />
    <circle cx="106.8145" cy="-6.6161" fill="rgb(255,0,0)" r=".0001" />
    <text x="106.8145" y="-6.6161" stroke="rgb(0,0,0)" transform="translate(106.8145 -6.6161),scale(0.00001 -0.00001),translate(-106.8145 6.6161),translate(106.8125 -6.592499999999999),rotate(-30),translate(-106.8125 6.592499999999999)" >pajajaran-durian</text>
    <line x1="106.8163" y1="-6.621" x2="106.8164" y2="-6.6212" style="stroke:rgb(255,0,0);stroke-width:.00002" />
    <line x1="106.8163" y1="-6.621" x2="106.81635" y2="-6.6211" style="stroke:rgb(0,0,0);stroke-width:.00002" />
    <line x1="106.81635" y1="-6.6211" x2="106.81635" y2="-6.6211" style="stroke:rgb(0,0,0);stroke-width:.00002" />
    <line x1="106.81635" y1="-6.6211" x2="106.8164" y2="-6.6212" style="stroke:rgb(0,0,0);stroke-width:.00002" />
    <circle cx="106.8163" cy="-6.621" fill="rgb(255,0,0)" r=".0001" />
    <text x="106.8163" y="-6.621" stroke="rgb(0,0,0)" transform="translate(106.8163 -6.621),scale(0.00001 -0.00001),translate(-106.8163 6.621),translate(106.8125 -6.592499999999999),rotate(-30),translate(-106.8125 6.592499999999999)" >lippo-n</text>
    <line x1="106.8164" y1="-6.6212" x2="106.8162" y2="-6.6214" style="stroke:rgb(255,0,0);stroke-width:.00002" />
    <line x1="106.8164" y1="-6.6212" x2="106.8163" y2="-6.6213" style="stroke:rgb(0,0,0);stroke-width:.00002" />
    <line x1="106.8163" y1="-6.6213" x2="106.8163" y2="-6.6213" style="stroke:rgb(0,0,0);stroke-width:.00002" />
    <line x1="106.8163" y1="-6.6213" x2="106.8162" y2="-6.6214" style="stroke:rgb(0,0,0);stroke-width:.00002" />
    <circle cx="106.8164" cy="-6.6212" fill="rgb(255,0,0)" r=".0001" />
    <text x="106.8164" y="-6.6212" stroke="rgb(0,0,0)" transform="translate(106.8164 -6.6212),scale(0.00001 -0.00001),translate(-106.8164 6.6212),translate(106.8125 -6.592499999999999),rotate(-30),translate(-106.8125 6.592499999999999)" >lippo-e</text>
    <line x1="106.8162" y1="-6.6214" x2="106.8159" y2="-6.6211" style="stroke:rgb(255,0,0);stroke-width:.00002" />
    <line x1="106.8162" y1="-6.6214" x2="106.81604999999999" y2="-6.62125" style="stroke:rgb(0,0,0);stroke-width:.00002" />
    <line x1="106.81604999999999" y1="-6.62125" x2="106.81604999999999" y2="-6.62125" style="stroke:rgb(0,0,0);stroke-width:.00002" />
    <line x1="106.81604999999999" y1="-6.62125" x2="106.8159" y2="-6.6211" style="stroke:rgb(0,0,0);stroke-width:.00002" />
    <circle cx="106.8162" cy="-6.6214" fill="rgb(255,0,0)" r=".0001" />
    <text x="106.8162" y="-6.6214" stroke="rgb(0,0,0)" transform="translate(106.8162 -6.6214),scale(0.00001 -0.00001),translate(-106.8162 6.6214),translate(106.8125 -6.592499999999999),rotate(-30),translate(-106.8125 6.592499999999999)" >lippo-s</text>
    <line x1="106.8159" y1="-6.6211" x2="106.8145" y2="-6.6161" style="stroke:rgb(255,0,0);stroke-width:.00002" />
    <line x1="106.8159" y1="-6.6211" x2="106.8152" y2="-6.618600000000001" style="stroke:rgb(0,0,0);stroke-width:.00002" />
    <line x1="106.8152" y1="-6.618600000000001" x2="106.8152" y2="-6.618600000000001" style="stroke:rgb(0,0,0);stroke-width:.00002" />
    <line x1="106.8152" y1="-6.618600000000001" x2="106.8145" y2="-6.6161" style="stroke:rgb(0,0,0);stroke-width:.00002" />
    <circle cx="106.8159" cy="-6.6211" fill="rgb(255,0,0)" r=".0001" />
    <text x="106.8159" y="-6.6211" stroke="rgb(0,0,0)" transform="translate(106.8159 -6.6211),scale(0.00001 -0.00001),translate(-106.8159 6.6211),translate(106.8125 -6.592499999999999),rotate(-30),translate(-106.8125 6.592499999999999)" >lippo-w</text>
    <line x1="106.8145" y1="-6.6161" x2="106.813" y2="-6.6125" style="stroke:rgb(255,0,0);stroke-width:.00002" />
    <line x1="106.8145" y1="-6.6161" x2="106.81375" y2="-6.6143" style="stroke:rgb(0,0,0);stroke-width:.00002" />
    <line x1="106.81375" y1="-6.6143" x2="106.81375" y2="-6.6143" style="stroke:rgb(0,0,0);stroke-width:.00002" />
    <line x1="106.81375" y1="-6.6143" x2="106.813" y2="-6.6125" style="stroke:rgb(0,0,0);stroke-width:.00002" />
    <circle cx="106.8145" cy="-6.6161" fill="rgb(255,0,0)" r=".0001" />
    <text x="106.8145" y="-6.6161" stroke="rgb(0,0,0)" transform="translate(106.8145 -6.6161),scale(0.00001 -0.00001),translate(-106.8145 6.6161),translate(106.8125 -6.592499999999999),rotate(-30),translate(-106.8125 6.592499999999999)" >pajajaran-durian</text>
    <line x1="106.813" y1="-6.6125" x2="106.8087" y2="-6.6066" style="stroke:rgb(255,0,0);stroke-width:.00002" />
    <line x1="106.813" y1="-6.6125" x2="106.81085" y2="-6.6095500000000005" style="stroke:rgb(0,0,0);stroke-width:.00002" />
    <line x1="106.81085" y1="-6.6095500000000005" x2="106.81085" y2="-6.6095500000000005" style="stroke:rgb(0,0,0);stroke-width:.00002" />
    <line x1="106.81085" y1="-6.6095500000000005" x2="106.8087" y2="-6.6066" style="stroke:rgb(0,0,0);stroke-width:.00002" />
    <circle cx="106.813" cy="-6.6125" fill="rgb(255,0,0)" r=".0001" />
    <text x="106.813" y="-6.6125" stroke="rgb(0,0,0)" transform="translate(106.813 -6.6125),scale(0.00001 -0.00001),translate(-106.813 6.6125),translate(106.8125 -6.592499999999999),rotate(-30),translate(-106.8125 6.592499999999999)" >pajajaran-pjjindah</text>
    <line x1="106.8087" y1="-6.6066" x2="106.808" y2="-6.6069" style="stroke:rgb(255,0,0);stroke-width:.00002" />
    <line x1="106.8087" y1="-6.6066" x2="106.80853382900601" y2="-6.606671216140284" style="stroke:rgb(0,0,0);stroke-width:.00002" />
    <line x1="106.80853382900601" y1="-6.606671216140284" x2="106.808166170994" y2="-6.606828783859716" style="stroke:rgb(0,0,0);stroke-width:.00002" />
    <line x1="106.808166170994" y1="-6.606828783859716" x2="106.808" y2="-6.6069" style="stroke:rgb(0,0,0);stroke-width:.00002" />
    <circle cx="106.8087" cy="-6.6066" fill="rgb(255,0,0)" r=".0001" />
    <text x="106.8087" y="-6.6066" stroke="rgb(0,0,0)" transform="translate(106.8087 -6.6066),scale(0.00001 -0.00001),translate(-106.8087 6.6066),translate(106.8125 -6.592499999999999),rotate(-30),translate(-106.8125 6.592499999999999)" >bangka-1</text>
    <line x1="106.808" y1="-6.6069" x2="106.8074" y2="-6.6065" style="stroke:rgb(255,0,0);stroke-width:.00002" />
    <line x1="106.808" y1="-6.6069" x2="106.80770000000001" y2="-6.6067" style="stroke:rgb(0,0,0);stroke-width:.00002" />
    <line x1="106.80770000000001" y1="-6.6067" x2="106.80770000000001" y2="-6.6067" style="stroke:rgb(0,0,0);stroke-width:.00002" />
    <line x1="106.80770000000001" y1="-6.6067" x2="106.8074" y2="-6.6065" style="stroke:rgb(0,0,0);stroke-width:.00002" />
    <circle cx="106.808" cy="-6.6069" fill="rgb(255,0,0)" r=".0001" />
    <text x="106.808" y="-6.6069" stroke="rgb(0,0,0)" transform="translate(106.808 -6.6069),scale(0.00001 -0.00001),translate(-106.808 6.6069),translate(106.8125 -6.592499999999999),rotate(-30),translate(-106.8125 6.592499999999999)" >bangka-2</text>
    <line x1="106.8074" y1="-6.6065" x2="106.8067" y2="-6.6066" style="stroke:rgb(255,0,0);stroke-width:.00002" />
    <line x1="106.8074" y1="-6.6065" x2="106.80705" y2="-6.60655" style="stroke:rgb(0,0,0);stroke-width:.00002" />
    <line x1="106.80705" y1="-6.60655" x2="106.80705" y2="-6.60655" style="stroke:rgb(0,0,0);stroke-width:.00002" />
    <line x1="106.80705" y1="-6.60655" x2="106.8067" y2="-6.6066" style="stroke:rgb(0,0,0);stroke-width:.00002" />
    <circle cx="106.8074" cy="-6.6065" fill="rgb(255,0,0)" r=".0001" />
    <text x="106.8074" y="-6.6065" stroke="rgb(0,0,0)" transform="translate(106.8074 -6.6065),scale(0.00001 -0.00001),translate(-106.8074 6.6065),translate(106.8125 -6.592499999999999),rotate(-30),translate(-106.8125 6.592499999999999)" >bangka-3</text>
    <line x1="106.8067" y1="-6.6066" x2="106.8058" y2="-6.6052" style="stroke:rgb(255,0,0);stroke-width:.00002" />
    <line x1="106.8067" y1="-6.6066" x2="106.80625" y2="-6.6059" style="stroke:rgb(0,0,0);stroke-width:.00002" />
    <line x1="106.80625" y1="-6.6059" x2="106.80625" y2="-6.6059" style="stroke:rgb(0,0,0);stroke-width:.00002" />
    <line x1="106.80625" y1="-6.6059" x2="106.8058" y2="-6.6052" style="stroke:rgb(0,0,0);stroke-width:.00002" />
    <circle cx="106.8067" cy="-6.6066" fill="rgb(255,0,0)" r=".0001" />
    <text x="106.8067" y="-6.6066" stroke="rgb(0,0,0)" transform="translate(106.8067 -6.6066),scale(0.00001 -0.00001),translate(-106.8067 6.6066),translate(106.8125 -6.592499999999999),rotate(-30),translate(-106.8125 6.592499999999999)" >bangka-5</text>
    <line x1="106.8058" y1="-6.6052" x2="106.8051" y2="-6.6052" style="stroke:rgb(255,0,0);stroke-width:.00002" />
    <line x1="106.8058" y1="-6.6052" x2="106.80545000000001" y2="-6.6052" style="stroke:rgb(0,0,0);stroke-width:.00002" />
    <line x1="106.80545000000001" y1="-6.6052" x2="106.80545000000001" y2="-6.6052" style="stroke:rgb(0,0,0);stroke-width:.00002" />
    <line x1="106.80545000000001" y1="-6.6052" x2="106.8051" y2="-6.6052" style="stroke:rgb(0,0,0);stroke-width:.00002" />
    <circle cx="106.8058" cy="-6.6052" fill="rgb(255,0,0)" r=".0001" />
    <text x="106.8058" y="-6.6052" stroke="rgb(0,0,0)" transform="translate(106.8058 -6.6052),scale(0.00001 -0.00001),translate(-106.8058 6.6052),translate(106.8125 -6.592499999999999),rotate(-30),translate(-106.8125 6.592499999999999)" >bangka-6</text>
    <line x1="106.8051" y1="-6.6052" x2="106.804329" y2="-6.601646" style="stroke:rgb(255,0,0);stroke-width:.00002" />
    <line x1="106.8051" y1="-6.6052" x2="106.80471449999999" y2="-6.603422999999999" style="stroke:rgb(0,0,0);stroke-width:.00002" />
    <line x1="106.80471449999999" y1="-6.603422999999999" x2="106.80471449999999" y2="-6.603422999999999" style="stroke:rgb(0,0,0);stroke-width:.00002" />
    <line x1="106.80471449999999" y1="-6.603422999999999" x2="106.804329" y2="-6.601646" style="stroke:rgb(0,0,0);stroke-width:.00002" />
    <circle cx="106.8051" cy="-6.6052" fill="rgb(255,0,0)" r=".0001" />
    <text x="106.8051" y="-6.6052" stroke="rgb(0,0,0)" transform="translate(106.8051 -6.6052),scale(0.00001 -0.00001),translate(-106.8051 6.6052),translate(106.8125 -6.592499999999999),rotate(-30),translate(-106.8125 6.592499999999999)" >bangka-7</text>
    <line x1="106.804329" y1="-6.601646" x2="106.7999" y2="-6.6027" style="stroke:rgb(255,0,0);stroke-width:.00002" />
    <line x1="106.804329" y1="-6.601646" x2="106.80269819927979" y2="-6.602034093014018" style="stroke:rgb(0,0,0);stroke-width:.00002" />
    <line x1="106.80269819927979" y1="-6.602034093014018" x2="106.80153080072019" y2="-6.602311906985982" style="stroke:rgb(0,0,0);stroke-width:.00002" />
    <line x1="106.80153080072019" y1="-6.602311906985982" x2="106.7999" y2="-6.6027" style="stroke:rgb(0,0,0);stroke-width:.00002" />
    <circle cx="106.804329" cy="-6.601646" fill="rgb(255,0,0)" r=".0001" />
    <text x="106.804329" y="-6.601646" stroke="rgb(0,0,0)" transform="translate(106.804329 -6.601646),scale(0.00001 -0.00001),translate(-106.804329 6.601646),translate(106.8125 -6.592499999999999),rotate(-30),translate(-106.8125 6.592499999999999)" >bangka-otista</text>
    <line x1="106.7999" y1="-6.6027" x2="106.7996" y2="-6.6027" style="stroke:rgb(255,0,0);stroke-width:.00002" />
    <line x1="106.7999" y1="-6.6027" x2="106.79974999999999" y2="-6.6027" style="stroke:rgb(0,0,0);stroke-width:.00002" />
    <line x1="106.79974999999999" y1="-6.6027" x2="106.79974999999999" y2="-6.6027" style="stroke:rgb(0,0,0);stroke-width:.00002" />
    <line x1="106.79974999999999" y1="-6.6027" x2="106.7996" y2="-6.6027" style="stroke:rgb(0,0,0);stroke-width:.00002" />
    <circle cx="106.7999" cy="-6.6027" fill="rgb(255,0,0)" r=".0001" />
    <text x="106.7999" y="-6.6027" stroke="rgb(0,0,0)" transform="translate(106.7999 -6.6027),scale(0.00001 -0.00001),translate(-106.7999 6.6027),translate(106.8125 -6.592499999999999),rotate(-30),translate(-106.8125 6.592499999999999)" >otista-roda</text>
    <line x1="106.7996" y1="-6.6027" x2="106.7988" y2="-6.6031" style="stroke:rgb(255,0,0);stroke-width:.00002" />
    <line x1="106.7996" y1="-6.6027" x2="106.7992" y2="-6.6029" style="stroke:rgb(0,0,0);stroke-width:.00002" />
    <line x1="106.7992" y1="-6.6029" x2="106.7992" y2="-6.6029" style="stroke:rgb(0,0,0);stroke-width:.00002" />
    <line x1="106.7992" y1="-6.6029" x2="106.7988" y2="-6.6031" style="stroke:rgb(0,0,0);stroke-width:.00002" />
    <circle cx="106.7996" cy="-6.6027" fill="rgb(255,0,0)" r=".0001" />
    <text x="106.7996" y="-6.6027" stroke="rgb(0,0,0)" transform="translate(106.7996 -6.6027),scale(0.00001 -0.00001),translate(-106.7996 6.6027),translate(106.8125 -6.592499999999999),rotate(-30),translate(-106.8125 6.592499999999999)" >kb-otista</text>
    <line x1="106.7988" y1="-6.6031" x2="106.797256" y2="-6.603941" style="stroke:rgb(255,0,0);stroke-width:.00002" />
    <line x1="106.7988" y1="-6.6031" x2="106.798028" y2="-6.6035205" style="stroke:rgb(0,0,0);stroke-width:.00002" />
    <line x1="106.798028" y1="-6.6035205" x2="106.798028" y2="-6.6035205" style="stroke:rgb(0,0,0);stroke-width:.00002" />
    <line x1="106.798028" y1="-6.6035205" x2="106.797256" y2="-6.603941" style="stroke:rgb(0,0,0);stroke-width:.00002" />
    <circle cx="106.7988" cy="-6.6031" fill="rgb(255,0,0)" r=".0001" />
    <text x="106.7988" y="-6.6031" stroke="rgb(0,0,0)" transform="translate(106.7988 -6.6031),scale(0.00001 -0.00001),translate(-106.7988 6.6031),translate(106.8125 -6.592499999999999),rotate(-30),translate(-106.8125 6.592499999999999)" >kb-suryakencana</text>
    <line x1="106.797256" y1="-6.603941" x2="106.7967" y2="-6.6042" style="stroke:rgb(255,0,0);stroke-width:.00002" />
    <line x1="106.797256" y1="-6.603941" x2="106.796978" y2="-6.6040705" style="stroke:rgb(0,0,0);stroke-width:.00002" />
    <line x1="106.796978" y1="-6.6040705" x2="106.796978" y2="-6.6040705" style="stroke:rgb(0,0,0);stroke-width:.00002" />
    <line x1="106.796978" y1="-6.6040705" x2="106.7967" y2="-6.6042" style="stroke:rgb(0,0,0);stroke-width:.00002" />
    <circle cx="106.797256" cy="-6.603941" fill="rgb(255,0,0)" r=".0001" />
    <text x="106.797256" y="-6.603941" stroke="rgb(0,0,0)" transform="translate(106.797256 -6.603941),scale(0.00001 -0.00001),translate(-106.797256 6.603941),translate(106.8125 -6.592499999999999),rotate(-30),translate(-106.8125 6.592499999999999)" >cincau-kb</text>
    <line x1="106.7967" y1="-6.6042" x2="106.7961" y2="-6.6038" style="stroke:rgb(255,0,0);stroke-width:.00002" />
    <line x1="106.7967" y1="-6.6042" x2="106.7964" y2="-6.603999999999999" style="stroke:rgb(0,0,0);stroke-width:.00002" />
    <line x1="106.7964" y1="-6.603999999999999" x2="106.7964" y2="-6.603999999999999" style="stroke:rgb(0,0,0);stroke-width:.00002" />
    <line x1="106.7964" y1="-6.603999999999999" x2="106.7961" y2="-6.6038" style="stroke:rgb(0,0,0);stroke-width:.00002" />
    <circle cx="106.7967" cy="-6.6042" fill="rgb(255,0,0)" r=".0001" />
    <text x="106.7967" y="-6.6042" stroke="rgb(0,0,0)" transform="translate(106.7967 -6.6042),scale(0.00001 -0.00001),translate(-106.7967 6.6042),translate(106.8125 -6.592499999999999),rotate(-30),translate(-106.8125 6.592499999999999)" >kb-btm-1</text>
    <line x1="106.7961" y1="-6.6038" x2="106.7937" y2="-6.5969" style="stroke:rgb(255,0,0);stroke-width:.00002" />
    <line x1="106.7961" y1="-6.6038" x2="106.79496570412499" y2="-6.600538899359341" style="stroke:rgb(0,0,0);stroke-width:.00002" />
    <line x1="106.79496570412499" y1="-6.600538899359341" x2="106.794834295875" y2="-6.600161100640658" style="stroke:rgb(0,0,0);stroke-width:.00002" />
    <line x1="106.794834295875" y1="-6.600161100640658" x2="106.7937" y2="-6.5969" style="stroke:rgb(0,0,0);stroke-width:.00002" />
    <circle cx="106.7961" cy="-6.6038" fill="rgb(255,0,0)" r=".0001" />
    <text x="106.7961" y="-6.6038" stroke="rgb(0,0,0)" transform="translate(106.7961 -6.6038),scale(0.00001 -0.00001),translate(-106.7961 6.6038),translate(106.8125 -6.592499999999999),rotate(-30),translate(-106.8125 6.592499999999999)" >kb-btm-2</text>
    <line x1="106.7937" y1="-6.5969" x2="106.7946" y2="-6.5945" style="stroke:rgb(255,0,0);stroke-width:.00002" />
    <line x1="106.7937" y1="-6.5969" x2="106.79393932593504" y2="-6.596261797506541" style="stroke:rgb(0,0,0);stroke-width:.00002" />
    <line x1="106.79393932593504" y1="-6.596261797506541" x2="106.79436067406496" y2="-6.595138202493459" style="stroke:rgb(0,0,0);stroke-width:.00002" />
    <line x1="106.79436067406496" y1="-6.595138202493459" x2="106.7946" y2="-6.5945" style="stroke:rgb(0,0,0);stroke-width:.00002" />
    <circle cx="106.7937" cy="-6.5969" fill="rgb(255,0,0)" r=".0001" />
    <text x="106.7937" y="-6.5969" stroke="rgb(0,0,0)" transform="translate(106.7937 -6.5969),scale(0.00001 -0.00001),translate(-106.7937 6.5969),translate(106.8125 -6.592499999999999),rotate(-30),translate(-106.8125 6.592499999999999)" >kb-muslihat</text>
    <line x1="106.7946" y1="-6.5945" x2="106.7973" y2="-6.593" style="stroke:rgb(255,0,0);stroke-width:.00002" />
    <line x1="106.7946" y1="-6.5945" x2="106.79577516854478" y2="-6.593847128586235" style="stroke:rgb(0,0,0);stroke-width:.00002" />
    <line x1="106.79577516854478" y1="-6.593847128586235" x2="106.79612483145523" y2="-6.593652871413765" style="stroke:rgb(0,0,0);stroke-width:.00002" />
    <line x1="106.79612483145523" y1="-6.593652871413765" x2="106.7973" y2="-6.593" style="stroke:rgb(0,0,0);stroke-width:.00002" />
    <circle cx="106.7946" cy="-6.5945" fill="rgb(255,0,0)" r=".0001" />
    <text x="106.7946" y="-6.5945" stroke="rgb(0,0,0)" transform="translate(106.7946 -6.5945),scale(0.00001 -0.00001),translate(-106.7946 6.5945),translate(106.8125 -6.592499999999999),rotate(-30),translate(-106.8125 6.592499999999999)" >kb-gedong-sawah</text>
    <line x1="106.7973" y1="-6.593" x2="106.7984" y2="-6.5935" style="stroke:rgb(255,0,0);stroke-width:.00002" />
    <line x1="106.7973" y1="-6.593" x2="106.79766792670452" y2="-6.593167239411139" style="stroke:rgb(0,0,0);stroke-width:.00002" />
    <line x1="106.79766792670452" y1="-6.593167239411139" x2="106.7980320732955" y2="-6.59333276058886" style="stroke:rgb(0,0,0);stroke-width:.00002" />
    <line x1="106.7980320732955" y1="-6.59333276058886" x2="106.7984" y2="-6.5935" style="stroke:rgb(0,0,0);stroke-width:.00002" />
    <circle cx="106.7973" cy="-6.593" fill="rgb(255,0,0)" r=".0001" />
    <text x="106.7973" y="-6.593" stroke="rgb(0,0,0)" transform="translate(106.7973 -6.593),scale(0.00001 -0.00001),translate(-106.7973 6.593),translate(106.8125 -6.592499999999999),rotate(-30),translate(-106.8125 6.592499999999999)" >kb-polisi-militer</text>
    <line x1="106.7984" y1="-6.5935" x2="106.800814" y2="-6.592262" style="stroke:rgb(255,0,0);stroke-width:.00002" />
    <line x1="106.7984" y1="-6.5935" x2="106.79960700000001" y2="-6.592881" style="stroke:rgb(0,0,0);stroke-width:.00002" />
    <line x1="106.79960700000001" y1="-6.592881" x2="106.79960700000001" y2="-6.592881" style="stroke:rgb(0,0,0);stroke-width:.00002" />
    <line x1="106.79960700000001" y1="-6.592881" x2="106.800814" y2="-6.592262" style="stroke:rgb(0,0,0);stroke-width:.00002" />
    <circle cx="106.7984" cy="-6.5935" fill="rgb(255,0,0)" r=".0001" />
    <text x="106.7984" y="-6.5935" stroke="rgb(0,0,0)" transform="translate(106.7984 -6.5935),scale(0.00001 -0.00001),translate(-106.7984 6.5935),translate(106.8125 -6.592499999999999),rotate(-30),translate(-106.8125 6.592499999999999)" >kb-jalak-harupat</text>
    <line x1="106.800814" y1="-6.592262" x2="106.801806" y2="-6.592667" style="stroke:rgb(255,0,0);stroke-width:.00002" />
    <line x1="106.800814" y1="-6.592262" x2="106.80112483713589" y2="-6.592388904274229" style="stroke:rgb(0,0,0);stroke-width:.00002" />
    <line x1="106.80112483713589" y1="-6.592388904274229" x2="106.80149516286411" y2="-6.592540095725771" style="stroke:rgb(0,0,0);stroke-width:.00002" />
    <line x1="106.80149516286411" y1="-6.592540095725771" x2="106.801806" y2="-6.592667" style="stroke:rgb(0,0,0);stroke-width:.00002" />
    <circle cx="106.800814" cy="-6.592262" fill="rgb(255,0,0)" r=".0001" />
    <text x="106.800814" y="-6.592262" stroke="rgb(0,0,0)" transform="translate(106.800814 -6.592262),scale(0.00001 -0.00001),translate(-106.800814 6.592262),translate(106.8125 -6.592499999999999),rotate(-30),translate(-106.8125 6.592499999999999)" >kb-sempur</text>
    <line x1="106.801806" y1="-6.592667" x2="106.8029" y2="-6.5935" style="stroke:rgb(255,0,0);stroke-width:.00002" />
    <line x1="106.801806" y1="-6.592667" x2="106.80203475387086" y2="-6.5928411791356725" style="stroke:rgb(0,0,0);stroke-width:.00002" />
    <line x1="106.80203475387086" y1="-6.5928411791356725" x2="106.80267124612914" y2="-6.593325820864327" style="stroke:rgb(0,0,0);stroke-width:.00002" />
    <line x1="106.80267124612914" y1="-6.593325820864327" x2="106.8029" y2="-6.5935" style="stroke:rgb(0,0,0);stroke-width:.00002" />
    <circle cx="106.801806" cy="-6.592667" fill="rgb(255,0,0)" r=".0001" />
    <text x="106.801806" y="-6.592667" stroke="rgb(0,0,0)" transform="translate(106.801806 -6.592667),scale(0.00001 -0.00001),translate(-106.801806 6.592667),translate(106.8125 -6.592499999999999),rotate(-30),translate(-106.8125 6.592499999999999)" >kb-salak</text>
    <line x1="106.8029" y1="-6.5935" x2="106.8046" y2="-6.5922" style="stroke:rgb(255,0,0);stroke-width:.00002" />
    <line x1="106.8029" y1="-6.5935" x2="106.80295564216702" y2="-6.593457450107571" style="stroke:rgb(0,0,0);stroke-width:.00002" />
    <line x1="106.80295564216702" y1="-6.593457450107571" x2="106.80454435783297" y2="-6.59224254989243" style="stroke:rgb(0,0,0);stroke-width:.00002" />
    <line x1="106.80454435783297" y1="-6.59224254989243" x2="106.8046" y2="-6.5922" style="stroke:rgb(0,0,0);stroke-width:.00002" />
    <circle cx="106.8029" cy="-6.5935" fill="rgb(255,0,0)" r=".0001" />
    <text x="106.8029" y="-6.5935" stroke="rgb(0,0,0)" transform="translate(106.8029 -6.5935),scale(0.00001 -0.00001),translate(-106.8029 6.5935),translate(106.8125 -6.592499999999999),rotate(-30),translate(-106.8125 6.592499999999999)" >kb-pangrango</text>
    <line x1="106.8046" y1="-6.5922" x2="106.8049" y2="-6.5886" style="stroke:rgb(255,0,0);stroke-width:.00002" />
    <line x1="106.8046" y1="-6.5922" x2="106.80473339090403" y2="-6.590599309151648" style="stroke:rgb(0,0,0);stroke-width:.00002" />
    <line x1="106.80473339090403" y1="-6.590599309151648" x2="106.80476660909596" y2="-6.590200690848351" style="stroke:rgb(0,0,0);stroke-width:.00002" />
    <line x1="106.80476660909596" y1="-6.590200690848351" x2="106.8049" y2="-6.5886" style="stroke:rgb(0,0,0);stroke-width:.00002" />
    <circle cx="106.8046" cy="-6.5922" fill="rgb(255,0,0)" r=".0001" />
    <text x="106.8046" y="-6.5922" stroke="rgb(0,0,0)" transform="translate(106.8046 -6.5922),scale(0.00001 -0.00001),translate(-106.8046 6.5922),translate(106.8125 -6.592499999999999),rotate(-30),translate(-106.8125 6.592499999999999)" >pangrango-pajajaran</text>
    <line x1="106.8049" y1="-6.5886" x2="106.8067" y2="-6.5808" style="stroke:rgb(255,0,0);stroke-width:.00002" />
    <line x1="106.8049" y1="-6.5886" x2="106.8058" y2="-6.5847" style="stroke:rgb(0,0,0);stroke-width:.00002" />
    <line x1="106.8058" y1="-6.5847" x2="106.8058" y2="-6.5847" style="stroke:rgb(0,0,0);stroke-width:.00002" />
    <line x1="106.8058" y1="-6.5847" x2="106.8067" y2="-6.5808" style="stroke:rgb(0,0,0);stroke-width:.00002" />
    <circle cx="106.8049" cy="-6.5886" fill="rgb(255,0,0)" r=".0001" />
    <text x="106.8049" y="-6.5886" stroke="rgb(0,0,0)" transform="translate(106.8049 -6.5886),scale(0.00001 -0.00001),translate(-106.8049 6.5886),translate(106.8125 -6.592499999999999),rotate(-30),translate(-106.8125 6.592499999999999)" >salak-pajajaran</text>
    <line x1="106.8067" y1="-6.5808" x2="106.8091" y2="-6.5689" style="stroke:rgb(255,0,0);stroke-width:.00002" />
    <line x1="106.8067" y1="-6.5808" x2="106.80786045999722" y2="-6.57504605251383" style="stroke:rgb(0,0,0);stroke-width:.00002" />
    <line x1="106.80786045999722" y1="-6.57504605251383" x2="106.80793954000279" y2="-6.574653947486169" style="stroke:rgb(0,0,0);stroke-width:.00002" />
    <line x1="106.80793954000279" y1="-6.574653947486169" x2="106.8091" y2="-6.5689" style="stroke:rgb(0,0,0);stroke-width:.00002" />
    <circle cx="106.8067" cy="-6.5808" fill="rgb(255,0,0)" r=".0001" />
    <text x="106.8067" y="-6.5808" stroke="rgb(0,0,0)" transform="translate(106.8067 -6.5808),scale(0.00001 -0.00001),translate(-106.8067 6.5808),translate(106.8125 -6.592499999999999),rotate(-30),translate(-106.8125 6.592499999999999)" >pajajaran-sobana</text>
    <line x1="106.8091" y1="-6.5689" x2="106.8067" y2="-6.5808" style="stroke:rgb(255,0,0);stroke-width:.00002" />
    <line x1="106.8091" y1="-6.5689" x2="106.80793954000279" y2="-6.574653947486169" style="stroke:rgb(0,0,0);stroke-width:.00002" />
    <line x1="106.80793954000279" y1="-6.574653947486169" x2="106.80786045999722" y2="-6.57504605251383" style="stroke:rgb(0,0,0);stroke-width:.00002" />
    <line x1="106.80786045999722" y1="-6.57504605251383" x2="106.8067" y2="-6.5808" style="stroke:rgb(0,0,0);stroke-width:.00002" />
    <circle cx="106.8091" cy="-6.5689" fill="rgb(255,0,0)" r=".0001" />
    <text x="106.8091" y="-6.5689" stroke="rgb(0,0,0)" transform="translate(106.8091 -6.5689),scale(0.00001 -0.00001),translate(-106.8091 6.5689),translate(106.8125 -6.592499999999999),rotate(-30),translate(-106.8125 6.592499999999999)" >pajajaran-jambudua</text>
  </g>
</svg>
