<svg width="2000" height="3000" xmlns="http://www.w3.org/2000/svg" xmlns:xlink="http://www.w3.org/1999/xlink" >
  <g transform="rotate(30) translate(1000 0)">    <path d="M582.5661070868193 1039.6249086570638 L574.001548608507 856.9143277855137 L569.4800805856914 754.4277192692168 L604.4140338081405 701.2673556697764 L626.9619885016908 686.2353858741606 L641.7369348330482 667.0279556430577 L652.9802110413385 646.147585542067 L709.1974800238177 685.651612394564 L731.3825956740772 676.7775661344629 L759.1898975585565 683.3204606955286 L756.3292709602365 689.0417138922485 L747.5427572652649 687.2844111532968 L734.4838998808001 681.4804745379718 L706.9473163647899 693.07482549219 L692.1918792528459 712.256893737688 L597.7985605579761 836.6163453515214 L578.5094637971611 879.6458688947603 L583.0554521679687 1034.2094734993298 L533.6285851520728 1023.7249865565531 L536.5000000000464 1066.7962092817525 L536.5000000000464 1052.5543577785165 L533.5868835891233 1058.3805906003759 L526.9852813738396 1064.9821928158594 L520.5000000001547 1069.8461538461497 L515.2899175830328 1069.8461538461497 L506.1115242284586 1067.2237557448523 L499.28120671047793 1097.277152823861 L523.7621400530657 1103.9537710081945 L538.7589782631608 1063.9622024479186 Z" stroke="lightgrey" stroke-width="0.5" fill="none" />
  </g>
</svg>
