<svg width="1450.0000000001023" height="1550.0000000000025" xmlns="http://www.w3.org/2000/svg" xmlns:xlink="http://www.w3.org/1999/xlink" >
  <g transform="translate(725.0000000000512 775.0000000000013) rotate(0) scale(10000 -10000) translate(-106.7975 6.592499999999999)">
    <path d="M106.725 -6.515 L106.87 -6.515 L106.87 -6.67 L106.725 -6.67 Z" fill="none" stroke="black" stroke-width="0.001" transform="translate(106.7975 -6.592499999999999) rotate(0) translate(-106.7975 6.592499999999999)" />
    <path d="M106.81331791403144 -6.599741349744369 L106.81331791403144 -6.599741349744369 L106.81375415358526 -6.6004155381457466 L106.81505475802827 -6.5992407542502605 L106.81538025141676 -6.599008258972773 L106.8172 -6.5982 L106.81568249527749 -6.599775493388483 L106.81568249527749 -6.599775493388483 L106.81407062944966 -6.600926826122643 L106.81357728029619 -6.602881644225041 L106.81351835577496 -6.603277280296194 L106.8131859796433 -6.605508948608862 L106.8115724346386 -6.606758144741523 L106.8115724346386 -6.606758144741523 L106.81016976067046 -6.607844085878145 L106.8104218800785 -6.607861709862641 L106.81064376015699 -6.608194529980375 L106.8105 -6.6087 L106.80986717988227 -6.608471880078492 L106.80986717988227 -6.608471880078492 L106.80958915033972 -6.608054835764671 L106.80930000000001 -6.607482842712475 L106.80901715728754 -6.607200000000001 L106.80854906637727 -6.606731909089737 L106.80774091365599 -6.605671208643052 L106.80774091365599 -6.605671208643052 L106.80696120353363 -6.604647839107458 L106.80683905996075 -6.60456641005887 L106.80683905996075 -6.60456641005887 L106.80665013867922 -6.604440462537852 L106.80587676288279 -6.6030999444906975 L106.80587676288279 -6.6030999444906975 L106.80517395952585 -6.6018817520053155 L106.80532879797461 -6.600893764658395 L106.80493424040507 -6.600828005063474 L106.80466739330937 -6.6007835305475275 L106.80479104275003 -6.601164928749927 L106.80401492874992 -6.601358957249957 L106.80420715792357 -6.6013108999565455 L106.80225070235043 -6.601960649208124 L106.80186064920811 -6.602049297649559 L106.79987755886617 -6.602499999999999 L106.79974999999999 -6.602499999999999 L106.79974999999999 -6.602499999999999 L106.79955278640449 -6.602499999999999 L106.7992894427191 -6.6021844582472 L106.79857390096629 -6.602542229123602 L106.79851859044157 -6.602569884385965 L106.79770584325622 -6.603027054677725 L106.79770584325622 -6.603027054677725 L106.7969403771459 -6.6034576293647795 L106.79672716559419 -6.603542913985468 L106.79672716559419 -6.603542913985468 L106.79677020982335 -6.603525696293804 L106.79673282011774 -6.603500769823395 L106.79673282011774 -6.603500769823395 L106.79660049468414 -6.603412552867668 L106.79572130156235 -6.600276082859389 L106.79558989331237 -6.599898284140706 L106.7945505672417 -6.596910221687547 L106.7943840822944 -6.596214981047663 L106.79466498104766 -6.595465917705607 L106.79492287118094 -6.594778210683517 L106.79587229713101 -6.594021960041459 L106.79622196004146 -6.593827702868989 L106.79730900903559 -6.593223786761148 L106.79776723941114 -6.593432073295491 L106.79776723941114 -6.593432073295491 L106.79840410148385 -6.59372155605582 L106.7996894427191 -6.5930788854382 L106.7996894427191 -6.5930788854382 L106.8008091113394 -6.592519051128047 L106.80096574839128 -6.592797112541083 L106.80133713906763 -6.592945668811625 L106.80160509911855 -6.5930528528319945 L106.80183534976452 -6.593467607311045 L106.80215884419825 -6.5937028759901155 L106.80245291950112 -6.593916748937666 L106.8031412010176 -6.595017999364003 L106.8031412010176 -6.595017999364003 L106.80382674861623 -6.596114875521839 L106.80503698575166 -6.59734936316764 L106.80535296675387 -6.599324244431474 L106.80559606018238 -6.600843578359669 L106.80549806946918 -6.600059652654107 L106.8057957528322 -6.602441119558218 L106.80568688171994 -6.601570150660175 L106.80639647423442 -6.602800111018604 L106.80639647423442 -6.602800111018604 L106.80694243389817 -6.603746441102448 L106.80874303226443 -6.602657707206568 L106.80874303226443 -6.602657707206568 L106.82112317729278 -6.595172038119663 L106.80932938493774 -6.603427692768207 L106.80932938493774 -6.603427692768207 L106.80767057449131 -6.604588860080712 L106.80821817268802 -6.605307582713896 L106.80821817268802 -6.605307582713896 L106.80900186724534 -6.606336181820384 L106.80958284271249 -6.606068629150102 L106.81043137084991 -6.606917157287527 L106.80998429143395 -6.606470077871535 L106.81069498639532 -6.60693159381287 L106.8119601443275 -6.605952116704085 L106.81281402035673 -6.6052910513911325 L106.81315218196443 -6.603020537739382 L106.81315218196443 -6.603020537739382 L106.81349105604106 -6.600745240367675 L106.81298208596857 -6.599958650255631 L106.81298208596857 -6.599958650255631 L106.81251604298429 -6.599054325127815 L106.8126 -6.599 L106.8126 -6.599 L106.81268395701572 -6.598945674872185 Z" stroke="yellow" stroke-width="0.0002" fill="none" />
    <circle 
      cx="106.8172" cy="-12.5982"
      r="15" transform="translate(106.8172 -6.5982) scale(0.00001 -0.00001) translate(-106.8172 6.5982) translate(106.7975 -6.592499999999999) rotate(0) translate(-106.7975 6.592499999999999)"
      fill="white" stroke="black" stroke-width="2"/>
    <circle 
      cx="106.8105" cy="-12.608699999999999"
      r="15" transform="translate(106.8105 -6.6087) scale(0.00001 -0.00001) translate(-106.8105 6.6087) translate(106.7975 -6.592499999999999) rotate(0) translate(-106.7975 6.592499999999999)"
      fill="white" stroke="black" stroke-width="2"/>
    <circle 
      cx="106.8172" cy="-12.5982"
      r="15" transform="translate(106.8172 -6.5982) scale(0.00001 -0.00001) translate(-106.8172 6.5982) translate(106.7975 -6.592499999999999) rotate(0) translate(-106.7975 6.592499999999999)"
      fill="white" stroke="none"/>
    <circle 
      cx="106.8105" cy="-12.608699999999999"
      r="15" transform="translate(106.8105 -6.6087) scale(0.00001 -0.00001) translate(-106.8105 6.6087) translate(106.7975 -6.592499999999999) rotate(0) translate(-106.7975 6.592499999999999)"
      fill="white" stroke="none"/>
    <text x="106.8172" y="-6.5982" fill="black" text-anchor="middle" transform="translate(106.8172 -6.5982) scale(0.00001 -0.00001) translate(-106.8172 6.5982) translate(106.7975 -6.592499999999999) rotate(0) translate(-106.7975 6.592499999999999)">06</text>
    <text x="106.8105" y="-6.6087" fill="black" text-anchor="middle" transform="translate(106.8105 -6.6087) scale(0.00001 -0.00001) translate(-106.8105 6.6087) translate(106.7975 -6.592499999999999) rotate(0) translate(-106.7975 6.592499999999999)">06</text>
    <line x1="106.8126" y1="-6.599" x2="106.8137" y2="-6.6007" style="stroke:rgb(255,0,0);stroke-width:.00002" />
    <line x1="106.8126" y1="-6.599" x2="106.81315000000001" y2="-6.59985" style="stroke:rgb(0,0,0);stroke-width:.00002" />
    <line x1="106.81315000000001" y1="-6.59985" x2="106.81315000000001" y2="-6.59985" style="stroke:rgb(0,0,0);stroke-width:.00002" />
    <line x1="106.81315000000001" y1="-6.59985" x2="106.8137" y2="-6.6007" style="stroke:rgb(0,0,0);stroke-width:.00002" />
    <circle cx="106.8126" cy="-6.599" fill="rgb(255,0,0)" r=".0001" />
    <text x="106.8126" y="-6.599" stroke="rgb(0,0,0)" transform="translate(106.8126 -6.599),scale(0.00001 -0.00001),translate(-106.8126 6.599),translate(106.7975 -6.592499999999999),rotate(0),translate(-106.7975 6.592499999999999)" >ciheuleut-tegallega</text>
    <line x1="106.8137" y1="-6.6007" x2="106.8172" y2="-6.5982" style="stroke:rgb(255,0,0);stroke-width:.00002" />
    <line x1="106.8137" y1="-6.6007" x2="106.81528725330575" y2="-6.5995662476387436" style="stroke:rgb(0,0,0);stroke-width:.00002" />
    <line x1="106.81528725330575" y1="-6.5995662476387436" x2="106.81561274669424" y2="-6.5993337523612565" style="stroke:rgb(0,0,0);stroke-width:.00002" />
    <line x1="106.81561274669424" y1="-6.5993337523612565" x2="106.8172" y2="-6.5982" style="stroke:rgb(0,0,0);stroke-width:.00002" />
    <circle cx="106.8137" cy="-6.6007" fill="rgb(255,0,0)" r=".0001" />
    <text x="106.8137" y="-6.6007" stroke="rgb(0,0,0)" transform="translate(106.8137 -6.6007),scale(0.00001 -0.00001),translate(-106.8137 6.6007),translate(106.7975 -6.592499999999999),rotate(0),translate(-106.7975 6.592499999999999)" >ciheuleut-binamarga</text>
    <line x1="106.8172" y1="-6.5982" x2="106.8137" y2="-6.6007" style="stroke:rgb(255,0,0);stroke-width:.00002" />
    <line x1="106.8172" y1="-6.5982" x2="106.81545" y2="-6.59945" style="stroke:rgb(0,0,0);stroke-width:.00002" />
    <line x1="106.81545" y1="-6.59945" x2="106.81545" y2="-6.59945" style="stroke:rgb(0,0,0);stroke-width:.00002" />
    <line x1="106.81545" y1="-6.59945" x2="106.8137" y2="-6.6007" style="stroke:rgb(0,0,0);stroke-width:.00002" />
    <circle cx="106.8172" cy="-6.5982" fill="rgb(255,0,0)" r=".0001" />
    <text x="106.8172" y="-6.5982" stroke="rgb(0,0,0)" transform="translate(106.8172 -6.5982),scale(0.00001 -0.00001),translate(-106.8172 6.5982),translate(106.7975 -6.592499999999999),rotate(0),translate(-106.7975 6.592499999999999)" >padi-jagung</text>
    <line x1="106.8137" y1="-6.6007" x2="106.813" y2="-6.6054" style="stroke:rgb(255,0,0);stroke-width:.00002" />
    <line x1="106.8137" y1="-6.6007" x2="106.81337946226061" y2="-6.6028521819644235" style="stroke:rgb(0,0,0);stroke-width:.00002" />
    <line x1="106.81337946226061" y1="-6.6028521819644235" x2="106.81332053773939" y2="-6.603247818035576" style="stroke:rgb(0,0,0);stroke-width:.00002" />
    <line x1="106.81332053773939" y1="-6.603247818035576" x2="106.813" y2="-6.6054" style="stroke:rgb(0,0,0);stroke-width:.00002" />
    <circle cx="106.8137" cy="-6.6007" fill="rgb(255,0,0)" r=".0001" />
    <text x="106.8137" y="-6.6007" stroke="rgb(0,0,0)" transform="translate(106.8137 -6.6007),scale(0.00001 -0.00001),translate(-106.8137 6.6007),translate(106.7975 -6.592499999999999),rotate(0),translate(-106.7975 6.592499999999999)" >ciheuleut-binamarga</text>
    <line x1="106.813" y1="-6.6054" x2="106.8099" y2="-6.6078" style="stroke:rgb(255,0,0);stroke-width:.00002" />
    <line x1="106.813" y1="-6.6054" x2="106.81145000000001" y2="-6.6066" style="stroke:rgb(0,0,0);stroke-width:.00002" />
    <line x1="106.81145000000001" y1="-6.6066" x2="106.81145000000001" y2="-6.6066" style="stroke:rgb(0,0,0);stroke-width:.00002" />
    <line x1="106.81145000000001" y1="-6.6066" x2="106.8099" y2="-6.6078" style="stroke:rgb(0,0,0);stroke-width:.00002" />
    <circle cx="106.813" cy="-6.6054" fill="rgb(255,0,0)" r=".0001" />
    <text x="106.813" y="-6.6054" stroke="rgb(0,0,0)" transform="translate(106.813 -6.6054),scale(0.00001 -0.00001),translate(-106.813 6.6054),translate(106.7975 -6.592499999999999),rotate(0),translate(-106.7975 6.592499999999999)" >ciheuleut-pakuanindah</text>
    <line x1="106.8099" y1="-6.6078" x2="106.8105" y2="-6.6087" style="stroke:rgb(255,0,0);stroke-width:.00002" />
    <line x1="106.8099" y1="-6.6078" x2="106.81008905996076" y2="-6.608083589941133" style="stroke:rgb(0,0,0);stroke-width:.00002" />
    <line x1="106.81008905996076" y1="-6.608083589941133" x2="106.81031094003926" y2="-6.608416410058867" style="stroke:rgb(0,0,0);stroke-width:.00002" />
    <line x1="106.81031094003926" y1="-6.608416410058867" x2="106.8105" y2="-6.6087" style="stroke:rgb(0,0,0);stroke-width:.00002" />
    <circle cx="106.8099" cy="-6.6078" fill="rgb(255,0,0)" r=".0001" />
    <text x="106.8099" y="-6.6078" stroke="rgb(0,0,0)" transform="translate(106.8099 -6.6078),scale(0.00001 -0.00001),translate(-106.8099 6.6078),translate(106.7975 -6.592499999999999),rotate(0),translate(-106.7975 6.592499999999999)" >pajajaran-ciheuleut</text>
    <line x1="106.8105" y1="-6.6087" x2="106.8099" y2="-6.6078" style="stroke:rgb(255,0,0);stroke-width:.00002" />
    <line x1="106.8105" y1="-6.6087" x2="106.81020000000001" y2="-6.60825" style="stroke:rgb(0,0,0);stroke-width:.00002" />
    <line x1="106.81020000000001" y1="-6.60825" x2="106.81020000000001" y2="-6.60825" style="stroke:rgb(0,0,0);stroke-width:.00002" />
    <line x1="106.81020000000001" y1="-6.60825" x2="106.8099" y2="-6.6078" style="stroke:rgb(0,0,0);stroke-width:.00002" />
    <circle cx="106.8105" cy="-6.6087" fill="rgb(255,0,0)" r=".0001" />
    <text x="106.8105" y="-6.6087" stroke="rgb(0,0,0)" transform="translate(106.8105 -6.6087),scale(0.00001 -0.00001),translate(-106.8105 6.6087),translate(106.7975 -6.592499999999999),rotate(0),translate(-106.7975 6.592499999999999)" >pajajaran-michelle-bakery</text>
    <line x1="106.8099" y1="-6.6078" x2="106.8087" y2="-6.6066" style="stroke:rgb(255,0,0);stroke-width:.00002" />
    <line x1="106.8099" y1="-6.6078" x2="106.80944142135624" y2="-6.607341421356238" style="stroke:rgb(0,0,0);stroke-width:.00002" />
    <line x1="106.80944142135624" y1="-6.607341421356238" x2="106.80915857864377" y2="-6.6070585786437634" style="stroke:rgb(0,0,0);stroke-width:.00002" />
    <line x1="106.80915857864377" y1="-6.6070585786437634" x2="106.8087" y2="-6.6066" style="stroke:rgb(0,0,0);stroke-width:.00002" />
    <circle cx="106.8099" cy="-6.6078" fill="rgb(255,0,0)" r=".0001" />
    <text x="106.8099" y="-6.6078" stroke="rgb(0,0,0)" transform="translate(106.8099 -6.6078),scale(0.00001 -0.00001),translate(-106.8099 6.6078),translate(106.7975 -6.592499999999999),rotate(0),translate(-106.7975 6.592499999999999)" >pajajaran-ciheuleut</text>
    <line x1="106.8087" y1="-6.6066" x2="106.8071" y2="-6.6045" style="stroke:rgb(255,0,0);stroke-width:.00002" />
    <line x1="106.8087" y1="-6.6066" x2="106.8079" y2="-6.60555" style="stroke:rgb(0,0,0);stroke-width:.00002" />
    <line x1="106.8079" y1="-6.60555" x2="106.8079" y2="-6.60555" style="stroke:rgb(0,0,0);stroke-width:.00002" />
    <line x1="106.8079" y1="-6.60555" x2="106.8071" y2="-6.6045" style="stroke:rgb(0,0,0);stroke-width:.00002" />
    <circle cx="106.8087" cy="-6.6066" fill="rgb(255,0,0)" r=".0001" />
    <text x="106.8087" y="-6.6066" stroke="rgb(0,0,0)" transform="translate(106.8087 -6.6066),scale(0.00001 -0.00001),translate(-106.8087 6.6066),translate(106.7975 -6.592499999999999),rotate(0),translate(-106.7975 6.592499999999999)" >bangka-1</text>
    <line x1="106.8071" y1="-6.6045" x2="106.8068" y2="-6.6043" style="stroke:rgb(255,0,0);stroke-width:.00002" />
    <line x1="106.8071" y1="-6.6045" x2="106.80695" y2="-6.6044" style="stroke:rgb(0,0,0);stroke-width:.00002" />
    <line x1="106.80695" y1="-6.6044" x2="106.80695" y2="-6.6044" style="stroke:rgb(0,0,0);stroke-width:.00002" />
    <line x1="106.80695" y1="-6.6044" x2="106.8068" y2="-6.6043" style="stroke:rgb(0,0,0);stroke-width:.00002" />
    <circle cx="106.8071" cy="-6.6045" fill="rgb(255,0,0)" r=".0001" />
    <text x="106.8071" y="-6.6045" stroke="rgb(0,0,0)" transform="translate(106.8071 -6.6045),scale(0.00001 -0.00001),translate(-106.8071 6.6045),translate(106.7975 -6.592499999999999),rotate(0),translate(-106.7975 6.592499999999999)" >tol-3</text>
    <line x1="106.8068" y1="-6.6043" x2="106.8053" y2="-6.6017" style="stroke:rgb(255,0,0);stroke-width:.00002" />
    <line x1="106.8068" y1="-6.6043" x2="106.80605" y2="-6.603" style="stroke:rgb(0,0,0);stroke-width:.00002" />
    <line x1="106.80605" y1="-6.603" x2="106.80605" y2="-6.603" style="stroke:rgb(0,0,0);stroke-width:.00002" />
    <line x1="106.80605" y1="-6.603" x2="106.8053" y2="-6.6017" style="stroke:rgb(0,0,0);stroke-width:.00002" />
    <circle cx="106.8068" cy="-6.6043" fill="rgb(255,0,0)" r=".0001" />
    <text x="106.8068" y="-6.6043" stroke="rgb(0,0,0)" transform="translate(106.8068 -6.6043),scale(0.00001 -0.00001),translate(-106.8068 6.6043),translate(106.7975 -6.592499999999999),rotate(0),translate(-106.7975 6.592499999999999)" >tol-1</text>
    <line x1="106.8053" y1="-6.6017" x2="106.8047" y2="-6.6016" style="stroke:rgb(255,0,0);stroke-width:.00002" />
    <line x1="106.8053" y1="-6.6017" x2="106.80519727878477" y2="-6.601682879797461" style="stroke:rgb(0,0,0);stroke-width:.00002" />
    <line x1="106.80519727878477" y1="-6.601682879797461" x2="106.80480272121524" y2="-6.6016171202025395" style="stroke:rgb(0,0,0);stroke-width:.00002" />
    <line x1="106.80480272121524" y1="-6.6016171202025395" x2="106.8047" y2="-6.6016" style="stroke:rgb(0,0,0);stroke-width:.00002" />
    <circle cx="106.8053" cy="-6.6017" fill="rgb(255,0,0)" r=".0001" />
    <text x="106.8053" y="-6.6017" stroke="rgb(0,0,0)" transform="translate(106.8053 -6.6017),scale(0.00001 -0.00001),translate(-106.8053 6.6017),translate(106.7975 -6.592499999999999),rotate(0),translate(-106.7975 6.592499999999999)" >pajajaran-otista</text>
    <line x1="106.8047" y1="-6.6016" x2="106.8043" y2="-6.6017" style="stroke:rgb(255,0,0);stroke-width:.00002" />
    <line x1="106.8047" y1="-6.6016" x2="106.80488805700004" y2="-6.6015529857499855" style="stroke:rgb(0,0,0);stroke-width:.00002" />
    <line x1="106.80488805700004" y1="-6.6015529857499855" x2="106.80411194299994" y2="-6.601747014250015" style="stroke:rgb(0,0,0);stroke-width:.00002" />
    <line x1="106.80411194299994" y1="-6.601747014250015" x2="106.8043" y2="-6.6017" style="stroke:rgb(0,0,0);stroke-width:.00002" />
    <circle cx="106.8047" cy="-6.6016" fill="rgb(255,0,0)" r=".0001" />
    <text x="106.8047" y="-6.6016" stroke="rgb(0,0,0)" transform="translate(106.8047 -6.6016),scale(0.00001 -0.00001),translate(-106.8047 6.6016),translate(106.7975 -6.592499999999999),rotate(0),translate(-106.7975 6.592499999999999)" >kb-botani-2</text>
    <line x1="106.8043" y1="-6.6017" x2="106.7999" y2="-6.6027" style="stroke:rgb(255,0,0);stroke-width:.00002" />
    <line x1="106.8043" y1="-6.6017" x2="106.80229502657116" y2="-6.602155675779282" style="stroke:rgb(0,0,0);stroke-width:.00002" />
    <line x1="106.80229502657116" y1="-6.602155675779282" x2="106.80190497342883" y2="-6.602244324220718" style="stroke:rgb(0,0,0);stroke-width:.00002" />
    <line x1="106.80190497342883" y1="-6.602244324220718" x2="106.7999" y2="-6.6027" style="stroke:rgb(0,0,0);stroke-width:.00002" />
    <circle cx="106.8043" cy="-6.6017" fill="rgb(255,0,0)" r=".0001" />
    <text x="106.8043" y="-6.6017" stroke="rgb(0,0,0)" transform="translate(106.8043 -6.6017),scale(0.00001 -0.00001),translate(-106.8043 6.6017),translate(106.7975 -6.592499999999999),rotate(0),translate(-106.7975 6.592499999999999)" >bangka-otista</text>
    <line x1="106.7999" y1="-6.6027" x2="106.7996" y2="-6.6027" style="stroke:rgb(255,0,0);stroke-width:.00002" />
    <line x1="106.7999" y1="-6.6027" x2="106.79974999999999" y2="-6.6027" style="stroke:rgb(0,0,0);stroke-width:.00002" />
    <line x1="106.79974999999999" y1="-6.6027" x2="106.79974999999999" y2="-6.6027" style="stroke:rgb(0,0,0);stroke-width:.00002" />
    <line x1="106.79974999999999" y1="-6.6027" x2="106.7996" y2="-6.6027" style="stroke:rgb(0,0,0);stroke-width:.00002" />
    <circle cx="106.7999" cy="-6.6027" fill="rgb(255,0,0)" r=".0001" />
    <text x="106.7999" y="-6.6027" stroke="rgb(0,0,0)" transform="translate(106.7999 -6.6027),scale(0.00001 -0.00001),translate(-106.7999 6.6027),translate(106.7975 -6.592499999999999),rotate(0),translate(-106.7975 6.592499999999999)" >otista-roda</text>
    <line x1="106.7996" y1="-6.6027" x2="106.7988" y2="-6.6031" style="stroke:rgb(255,0,0);stroke-width:.00002" />
    <line x1="106.7996" y1="-6.6027" x2="106.7995577708764" y2="-6.602721114561799" style="stroke:rgb(0,0,0);stroke-width:.00002" />
    <line x1="106.7995577708764" y1="-6.602721114561799" x2="106.7988422291236" y2="-6.603078885438201" style="stroke:rgb(0,0,0);stroke-width:.00002" />
    <line x1="106.7988422291236" y1="-6.603078885438201" x2="106.7988" y2="-6.6031" style="stroke:rgb(0,0,0);stroke-width:.00002" />
    <circle cx="106.7996" cy="-6.6027" fill="rgb(255,0,0)" r=".0001" />
    <text x="106.7996" y="-6.6027" stroke="rgb(0,0,0)" transform="translate(106.7996 -6.6027),scale(0.00001 -0.00001),translate(-106.7996 6.6027),translate(106.7975 -6.592499999999999),rotate(0),translate(-106.7975 6.592499999999999)" >kb-otista</text>
    <line x1="106.7988" y1="-6.6031" x2="106.7972" y2="-6.604" style="stroke:rgb(255,0,0);stroke-width:.00002" />
    <line x1="106.7988" y1="-6.6031" x2="106.798" y2="-6.60355" style="stroke:rgb(0,0,0);stroke-width:.00002" />
    <line x1="106.798" y1="-6.60355" x2="106.798" y2="-6.60355" style="stroke:rgb(0,0,0);stroke-width:.00002" />
    <line x1="106.798" y1="-6.60355" x2="106.7972" y2="-6.604" style="stroke:rgb(0,0,0);stroke-width:.00002" />
    <circle cx="106.7988" cy="-6.6031" fill="rgb(255,0,0)" r=".0001" />
    <text x="106.7988" y="-6.6031" stroke="rgb(0,0,0)" transform="translate(106.7988 -6.6031),scale(0.00001 -0.00001),translate(-106.7988 6.6031),translate(106.7975 -6.592499999999999),rotate(0),translate(-106.7975 6.592499999999999)" >kb-suryakencana</text>
    <line x1="106.7972" y1="-6.604" x2="106.7967" y2="-6.6042" style="stroke:rgb(255,0,0);stroke-width:.00002" />
    <line x1="106.7972" y1="-6.604" x2="106.79695000000001" y2="-6.6041" style="stroke:rgb(0,0,0);stroke-width:.00002" />
    <line x1="106.79695000000001" y1="-6.6041" x2="106.79695000000001" y2="-6.6041" style="stroke:rgb(0,0,0);stroke-width:.00002" />
    <line x1="106.79695000000001" y1="-6.6041" x2="106.7967" y2="-6.6042" style="stroke:rgb(0,0,0);stroke-width:.00002" />
    <circle cx="106.7972" cy="-6.604" fill="rgb(255,0,0)" r=".0001" />
    <text x="106.7972" y="-6.604" stroke="rgb(0,0,0)" transform="translate(106.7972 -6.604),scale(0.00001 -0.00001),translate(-106.7972 6.604),translate(106.7975 -6.592499999999999),rotate(0),translate(-106.7975 6.592499999999999)" >cincau-kb</text>
    <line x1="106.7967" y1="-6.6042" x2="106.7961" y2="-6.6038" style="stroke:rgb(255,0,0);stroke-width:.00002" />
    <line x1="106.7967" y1="-6.6042" x2="106.7964" y2="-6.603999999999999" style="stroke:rgb(0,0,0);stroke-width:.00002" />
    <line x1="106.7964" y1="-6.603999999999999" x2="106.7964" y2="-6.603999999999999" style="stroke:rgb(0,0,0);stroke-width:.00002" />
    <line x1="106.7964" y1="-6.603999999999999" x2="106.7961" y2="-6.6038" style="stroke:rgb(0,0,0);stroke-width:.00002" />
    <circle cx="106.7967" cy="-6.6042" fill="rgb(255,0,0)" r=".0001" />
    <text x="106.7967" y="-6.6042" stroke="rgb(0,0,0)" transform="translate(106.7967 -6.6042),scale(0.00001 -0.00001),translate(-106.7967 6.6042),translate(106.7975 -6.592499999999999),rotate(0),translate(-106.7975 6.592499999999999)" >kb-btm-1</text>
    <line x1="106.7961" y1="-6.6038" x2="106.7937" y2="-6.5969" style="stroke:rgb(255,0,0);stroke-width:.00002" />
    <line x1="106.7961" y1="-6.6038" x2="106.79496570412499" y2="-6.600538899359341" style="stroke:rgb(0,0,0);stroke-width:.00002" />
    <line x1="106.79496570412499" y1="-6.600538899359341" x2="106.794834295875" y2="-6.600161100640658" style="stroke:rgb(0,0,0);stroke-width:.00002" />
    <line x1="106.794834295875" y1="-6.600161100640658" x2="106.7937" y2="-6.5969" style="stroke:rgb(0,0,0);stroke-width:.00002" />
    <circle cx="106.7961" cy="-6.6038" fill="rgb(255,0,0)" r=".0001" />
    <text x="106.7961" y="-6.6038" stroke="rgb(0,0,0)" transform="translate(106.7961 -6.6038),scale(0.00001 -0.00001),translate(-106.7961 6.6038),translate(106.7975 -6.592499999999999),rotate(0),translate(-106.7975 6.592499999999999)" >kb-btm-2</text>
    <line x1="106.7937" y1="-6.5969" x2="106.7946" y2="-6.5945" style="stroke:rgb(255,0,0);stroke-width:.00002" />
    <line x1="106.7937" y1="-6.5969" x2="106.79400955062337" y2="-6.596074531671028" style="stroke:rgb(0,0,0);stroke-width:.00002" />
    <line x1="106.79400955062337" y1="-6.596074531671028" x2="106.79429044937663" y2="-6.595325468328972" style="stroke:rgb(0,0,0);stroke-width:.00002" />
    <line x1="106.79429044937663" y1="-6.595325468328972" x2="106.7946" y2="-6.5945" style="stroke:rgb(0,0,0);stroke-width:.00002" />
    <circle cx="106.7937" cy="-6.5969" fill="rgb(255,0,0)" r=".0001" />
    <text x="106.7937" y="-6.5969" stroke="rgb(0,0,0)" transform="translate(106.7937 -6.5969),scale(0.00001 -0.00001),translate(-106.7937 6.5969),translate(106.7975 -6.592499999999999),rotate(0),translate(-106.7975 6.592499999999999)" >kb-muslihat</text>
    <line x1="106.7946" y1="-6.5945" x2="106.7973" y2="-6.593" style="stroke:rgb(255,0,0);stroke-width:.00002" />
    <line x1="106.7946" y1="-6.5945" x2="106.79577516854478" y2="-6.593847128586235" style="stroke:rgb(0,0,0);stroke-width:.00002" />
    <line x1="106.79577516854478" y1="-6.593847128586235" x2="106.79612483145523" y2="-6.593652871413765" style="stroke:rgb(0,0,0);stroke-width:.00002" />
    <line x1="106.79612483145523" y1="-6.593652871413765" x2="106.7973" y2="-6.593" style="stroke:rgb(0,0,0);stroke-width:.00002" />
    <circle cx="106.7946" cy="-6.5945" fill="rgb(255,0,0)" r=".0001" />
    <text x="106.7946" y="-6.5945" stroke="rgb(0,0,0)" transform="translate(106.7946 -6.5945),scale(0.00001 -0.00001),translate(-106.7946 6.5945),translate(106.7975 -6.592499999999999),rotate(0),translate(-106.7975 6.592499999999999)" >kb-gedong-sawah</text>
    <line x1="106.7973" y1="-6.593" x2="106.7984" y2="-6.5935" style="stroke:rgb(255,0,0);stroke-width:.00002" />
    <line x1="106.7973" y1="-6.593" x2="106.79785000000001" y2="-6.593249999999999" style="stroke:rgb(0,0,0);stroke-width:.00002" />
    <line x1="106.79785000000001" y1="-6.593249999999999" x2="106.79785000000001" y2="-6.593249999999999" style="stroke:rgb(0,0,0);stroke-width:.00002" />
    <line x1="106.79785000000001" y1="-6.593249999999999" x2="106.7984" y2="-6.5935" style="stroke:rgb(0,0,0);stroke-width:.00002" />
    <circle cx="106.7973" cy="-6.593" fill="rgb(255,0,0)" r=".0001" />
    <text x="106.7973" y="-6.593" stroke="rgb(0,0,0)" transform="translate(106.7973 -6.593),scale(0.00001 -0.00001),translate(-106.7973 6.593),translate(106.7975 -6.592499999999999),rotate(0),translate(-106.7975 6.592499999999999)" >kb-polisi-militer</text>
    <line x1="106.7984" y1="-6.5935" x2="106.8008" y2="-6.5923" style="stroke:rgb(255,0,0);stroke-width:.00002" />
    <line x1="106.7984" y1="-6.5935" x2="106.7996" y2="-6.5929" style="stroke:rgb(0,0,0);stroke-width:.00002" />
    <line x1="106.7996" y1="-6.5929" x2="106.7996" y2="-6.5929" style="stroke:rgb(0,0,0);stroke-width:.00002" />
    <line x1="106.7996" y1="-6.5929" x2="106.8008" y2="-6.5923" style="stroke:rgb(0,0,0);stroke-width:.00002" />
    <circle cx="106.7984" cy="-6.5935" fill="rgb(255,0,0)" r=".0001" />
    <text x="106.7984" y="-6.5935" stroke="rgb(0,0,0)" transform="translate(106.7984 -6.5935),scale(0.00001 -0.00001),translate(-106.7984 6.5935),translate(106.7975 -6.592499999999999),rotate(0),translate(-106.7975 6.592499999999999)" >kb-jalak-harupat</text>
    <line x1="106.8008" y1="-6.5923" x2="106.8018" y2="-6.5927" style="stroke:rgb(255,0,0);stroke-width:.00002" />
    <line x1="106.8008" y1="-6.5923" x2="106.80111430466182" y2="-6.592425721864728" style="stroke:rgb(0,0,0);stroke-width:.00002" />
    <line x1="106.80111430466182" y1="-6.592425721864728" x2="106.80148569533817" y2="-6.59257427813527" style="stroke:rgb(0,0,0);stroke-width:.00002" />
    <line x1="106.80148569533817" y1="-6.59257427813527" x2="106.8018" y2="-6.5927" style="stroke:rgb(0,0,0);stroke-width:.00002" />
    <circle cx="106.8008" cy="-6.5923" fill="rgb(255,0,0)" r=".0001" />
    <text x="106.8008" y="-6.5923" stroke="rgb(0,0,0)" transform="translate(106.8008 -6.5923),scale(0.00001 -0.00001),translate(-106.8008 6.5923),translate(106.7975 -6.592499999999999),rotate(0),translate(-106.7975 6.592499999999999)" >kb-sempur</text>
    <line x1="106.8018" y1="-6.5927" x2="106.8029" y2="-6.5935" style="stroke:rgb(255,0,0);stroke-width:.00002" />
    <line x1="106.8018" y1="-6.5927" x2="106.80218825278313" y2="-6.592982365660465" style="stroke:rgb(0,0,0);stroke-width:.00002" />
    <line x1="106.80218825278313" y1="-6.592982365660465" x2="106.80251174721685" y2="-6.593217634339535" style="stroke:rgb(0,0,0);stroke-width:.00002" />
    <line x1="106.80251174721685" y1="-6.593217634339535" x2="106.8029" y2="-6.5935" style="stroke:rgb(0,0,0);stroke-width:.00002" />
    <circle cx="106.8018" cy="-6.5927" fill="rgb(255,0,0)" r=".0001" />
    <text x="106.8018" y="-6.5927" stroke="rgb(0,0,0)" transform="translate(106.8018 -6.5927),scale(0.00001 -0.00001),translate(-106.8018 6.5927),translate(106.7975 -6.592499999999999),rotate(0),translate(-106.7975 6.592499999999999)" >kb-salak</text>
    <line x1="106.8029" y1="-6.5935" x2="106.8044" y2="-6.5959" style="stroke:rgb(255,0,0);stroke-width:.00002" />
    <line x1="106.8029" y1="-6.5935" x2="106.80365" y2="-6.5947" style="stroke:rgb(0,0,0);stroke-width:.00002" />
    <line x1="106.80365" y1="-6.5947" x2="106.80365" y2="-6.5947" style="stroke:rgb(0,0,0);stroke-width:.00002" />
    <line x1="106.80365" y1="-6.5947" x2="106.8044" y2="-6.5959" style="stroke:rgb(0,0,0);stroke-width:.00002" />
    <circle cx="106.8029" cy="-6.5935" fill="rgb(255,0,0)" r=".0001" />
    <text x="106.8029" y="-6.5935" stroke="rgb(0,0,0)" transform="translate(106.8029 -6.5935),scale(0.00001 -0.00001),translate(-106.8029 6.5935),translate(106.7975 -6.592499999999999),rotate(0),translate(-106.7975 6.592499999999999)" >kb-pangrango</text>
    <line x1="106.8044" y1="-6.5959" x2="106.8052" y2="-6.6009" style="stroke:rgb(255,0,0);stroke-width:.00002" />
    <line x1="106.8044" y1="-6.5959" x2="106.80464200949889" y2="-6.597412559368083" style="stroke:rgb(0,0,0);stroke-width:.00002" />
    <line x1="106.80464200949889" y1="-6.597412559368083" x2="106.80495799050111" y2="-6.599387440631917" style="stroke:rgb(0,0,0);stroke-width:.00002" />
    <line x1="106.80495799050111" y1="-6.599387440631917" x2="106.8052" y2="-6.6009" style="stroke:rgb(0,0,0);stroke-width:.00002" />
    <circle cx="106.8044" cy="-6.5959" fill="rgb(255,0,0)" r=".0001" />
    <text x="106.8044" y="-6.5959" stroke="rgb(0,0,0)" transform="translate(106.8044 -6.5959),scale(0.00001 -0.00001),translate(-106.8044 6.5959),translate(106.7975 -6.592499999999999),rotate(0),translate(-106.7975 6.592499999999999)" >kb-astrid</text>
    <line x1="106.8052" y1="-6.6009" x2="106.8053" y2="-6.6017" style="stroke:rgb(255,0,0);stroke-width:.00002" />
    <line x1="106.8052" y1="-6.6009" x2="106.8051011583185" y2="-6.600109266547944" style="stroke:rgb(0,0,0);stroke-width:.00002" />
    <line x1="106.8051011583185" y1="-6.600109266547944" x2="106.80539884168151" y2="-6.602490733452056" style="stroke:rgb(0,0,0);stroke-width:.00002" />
    <line x1="106.80539884168151" y1="-6.602490733452056" x2="106.8053" y2="-6.6017" style="stroke:rgb(0,0,0);stroke-width:.00002" />
    <circle cx="106.8052" cy="-6.6009" fill="rgb(255,0,0)" r=".0001" />
    <text x="106.8052" y="-6.6009" stroke="rgb(0,0,0)" transform="translate(106.8052 -6.6009),scale(0.00001 -0.00001),translate(-106.8052 6.6009),translate(106.7975 -6.592499999999999),rotate(0),translate(-106.7975 6.592499999999999)" >kb-botani-1</text>
    <line x1="106.8053" y1="-6.6017" x2="106.8068" y2="-6.6043" style="stroke:rgb(255,0,0);stroke-width:.00002" />
    <line x1="106.8053" y1="-6.6017" x2="106.80605" y2="-6.603" style="stroke:rgb(0,0,0);stroke-width:.00002" />
    <line x1="106.80605" y1="-6.603" x2="106.80605" y2="-6.603" style="stroke:rgb(0,0,0);stroke-width:.00002" />
    <line x1="106.80605" y1="-6.603" x2="106.8068" y2="-6.6043" style="stroke:rgb(0,0,0);stroke-width:.00002" />
    <circle cx="106.8053" cy="-6.6017" fill="rgb(255,0,0)" r=".0001" />
    <text x="106.8053" y="-6.6017" stroke="rgb(0,0,0)" transform="translate(106.8053 -6.6017),scale(0.00001 -0.00001),translate(-106.8053 6.6017),translate(106.7975 -6.592499999999999),rotate(0),translate(-106.7975 6.592499999999999)" >pajajaran-otista</text>
    <line x1="106.8068" y1="-6.6043" x2="106.8111" y2="-6.6017" style="stroke:rgb(255,0,0);stroke-width:.00002" />
    <line x1="106.8068" y1="-6.6043" x2="106.80895" y2="-6.603" style="stroke:rgb(0,0,0);stroke-width:.00002" />
    <line x1="106.80895" y1="-6.603" x2="106.80895" y2="-6.603" style="stroke:rgb(0,0,0);stroke-width:.00002" />
    <line x1="106.80895" y1="-6.603" x2="106.8111" y2="-6.6017" style="stroke:rgb(0,0,0);stroke-width:.00002" />
    <circle cx="106.8068" cy="-6.6043" fill="rgb(255,0,0)" r=".0001" />
    <text x="106.8068" y="-6.6043" stroke="rgb(0,0,0)" transform="translate(106.8068 -6.6043),scale(0.00001 -0.00001),translate(-106.8068 6.6043),translate(106.7975 -6.592499999999999),rotate(0),translate(-106.7975 6.592499999999999)" >tol-1</text>
    <line x1="106.8111" y1="-6.6017" x2="106.8071" y2="-6.6045" style="stroke:rgb(255,0,0);stroke-width:.00002" />
    <line x1="106.8111" y1="-6.6017" x2="106.8091" y2="-6.6030999999999995" style="stroke:rgb(0,0,0);stroke-width:.00002" />
    <line x1="106.8091" y1="-6.6030999999999995" x2="106.8091" y2="-6.6030999999999995" style="stroke:rgb(0,0,0);stroke-width:.00002" />
    <line x1="106.8091" y1="-6.6030999999999995" x2="106.8071" y2="-6.6045" style="stroke:rgb(0,0,0);stroke-width:.00002" />
    <circle cx="106.8111" cy="-6.6017" fill="rgb(255,0,0)" r=".0001" />
    <text x="106.8111" y="-6.6017" stroke="rgb(0,0,0)" transform="translate(106.8111 -6.6017),scale(0.00001 -0.00001),translate(-106.8111 6.6017),translate(106.7975 -6.592499999999999),rotate(0),translate(-106.7975 6.592499999999999)" >tol-2</text>
    <line x1="106.8071" y1="-6.6045" x2="106.8087" y2="-6.6066" style="stroke:rgb(255,0,0);stroke-width:.00002" />
    <line x1="106.8071" y1="-6.6045" x2="106.8079" y2="-6.60555" style="stroke:rgb(0,0,0);stroke-width:.00002" />
    <line x1="106.8079" y1="-6.60555" x2="106.8079" y2="-6.60555" style="stroke:rgb(0,0,0);stroke-width:.00002" />
    <line x1="106.8079" y1="-6.60555" x2="106.8087" y2="-6.6066" style="stroke:rgb(0,0,0);stroke-width:.00002" />
    <circle cx="106.8071" cy="-6.6045" fill="rgb(255,0,0)" r=".0001" />
    <text x="106.8071" y="-6.6045" stroke="rgb(0,0,0)" transform="translate(106.8071 -6.6045),scale(0.00001 -0.00001),translate(-106.8071 6.6045),translate(106.7975 -6.592499999999999),rotate(0),translate(-106.7975 6.592499999999999)" >tol-3</text>
    <line x1="106.8087" y1="-6.6066" x2="106.8099" y2="-6.6078" style="stroke:rgb(255,0,0);stroke-width:.00002" />
    <line x1="106.8087" y1="-6.6066" x2="106.8088757359313" y2="-6.606775735931288" style="stroke:rgb(0,0,0);stroke-width:.00002" />
    <line x1="106.8088757359313" y1="-6.606775735931288" x2="106.80972426406872" y2="-6.607624264068713" style="stroke:rgb(0,0,0);stroke-width:.00002" />
    <line x1="106.80972426406872" y1="-6.607624264068713" x2="106.8099" y2="-6.6078" style="stroke:rgb(0,0,0);stroke-width:.00002" />
    <circle cx="106.8087" cy="-6.6066" fill="rgb(255,0,0)" r=".0001" />
    <text x="106.8087" y="-6.6066" stroke="rgb(0,0,0)" transform="translate(106.8087 -6.6066),scale(0.00001 -0.00001),translate(-106.8087 6.6066),translate(106.7975 -6.592499999999999),rotate(0),translate(-106.7975 6.592499999999999)" >bangka-1</text>
    <line x1="106.8099" y1="-6.6078" x2="106.813" y2="-6.6054" style="stroke:rgb(255,0,0);stroke-width:.00002" />
    <line x1="106.8099" y1="-6.6078" x2="106.81081742103392" y2="-6.607089738554393" style="stroke:rgb(0,0,0);stroke-width:.00002" />
    <line x1="106.81081742103392" y1="-6.607089738554393" x2="106.8120825789661" y2="-6.6061102614456075" style="stroke:rgb(0,0,0);stroke-width:.00002" />
    <line x1="106.8120825789661" y1="-6.6061102614456075" x2="106.813" y2="-6.6054" style="stroke:rgb(0,0,0);stroke-width:.00002" />
    <circle cx="106.8099" cy="-6.6078" fill="rgb(255,0,0)" r=".0001" />
    <text x="106.8099" y="-6.6078" stroke="rgb(0,0,0)" transform="translate(106.8099 -6.6078),scale(0.00001 -0.00001),translate(-106.8099 6.6078),translate(106.7975 -6.592499999999999),rotate(0),translate(-106.7975 6.592499999999999)" >pajajaran-ciheuleut</text>
    <line x1="106.813" y1="-6.6054" x2="106.8137" y2="-6.6007" style="stroke:rgb(255,0,0);stroke-width:.00002" />
    <line x1="106.813" y1="-6.6054" x2="106.81335" y2="-6.60305" style="stroke:rgb(0,0,0);stroke-width:.00002" />
    <line x1="106.81335" y1="-6.60305" x2="106.81335" y2="-6.60305" style="stroke:rgb(0,0,0);stroke-width:.00002" />
    <line x1="106.81335" y1="-6.60305" x2="106.8137" y2="-6.6007" style="stroke:rgb(0,0,0);stroke-width:.00002" />
    <circle cx="106.813" cy="-6.6054" fill="rgb(255,0,0)" r=".0001" />
    <text x="106.813" y="-6.6054" stroke="rgb(0,0,0)" transform="translate(106.813 -6.6054),scale(0.00001 -0.00001),translate(-106.813 6.6054),translate(106.7975 -6.592499999999999),rotate(0),translate(-106.7975 6.592499999999999)" >ciheuleut-pakuanindah</text>
    <line x1="106.8137" y1="-6.6007" x2="106.8126" y2="-6.599" style="stroke:rgb(255,0,0);stroke-width:.00002" />
    <line x1="106.8137" y1="-6.6007" x2="106.81315000000001" y2="-6.59985" style="stroke:rgb(0,0,0);stroke-width:.00002" />
    <line x1="106.81315000000001" y1="-6.59985" x2="106.81315000000001" y2="-6.59985" style="stroke:rgb(0,0,0);stroke-width:.00002" />
    <line x1="106.81315000000001" y1="-6.59985" x2="106.8126" y2="-6.599" style="stroke:rgb(0,0,0);stroke-width:.00002" />
    <circle cx="106.8137" cy="-6.6007" fill="rgb(255,0,0)" r=".0001" />
    <text x="106.8137" y="-6.6007" stroke="rgb(0,0,0)" transform="translate(106.8137 -6.6007),scale(0.00001 -0.00001),translate(-106.8137 6.6007),translate(106.7975 -6.592499999999999),rotate(0),translate(-106.7975 6.592499999999999)" >ciheuleut-binamarga</text>
    <line x1="106.8126" y1="-6.599" x2="106.8126" y2="-6.599" style="stroke:rgb(255,0,0);stroke-width:.00002" />
    <line x1="106.8126" y1="-6.599" x2="106.8126" y2="-6.599" style="stroke:rgb(0,0,0);stroke-width:.00002" />
    <line x1="106.8126" y1="-6.599" x2="106.8126" y2="-6.599" style="stroke:rgb(0,0,0);stroke-width:.00002" />
    <line x1="106.8126" y1="-6.599" x2="106.8126" y2="-6.599" style="stroke:rgb(0,0,0);stroke-width:.00002" />
    <circle cx="106.8126" cy="-6.599" fill="rgb(255,0,0)" r=".0001" />
    <text x="106.8126" y="-6.599" stroke="rgb(0,0,0)" transform="translate(106.8126 -6.599),scale(0.00001 -0.00001),translate(-106.8126 6.599),translate(106.7975 -6.592499999999999),rotate(0),translate(-106.7975 6.592499999999999)" >ciheuleut-tegallega</text>
  </g>
</svg>
