<svg width="1049.9999999998977" height="1849.9999999999961" xmlns="http://www.w3.org/2000/svg" xmlns:xlink="http://www.w3.org/1999/xlink" >
  <g transform="translate(524.9999999999488 924.9999999999981) rotate(30) scale(10000 -10000) translate(-106.8125 6.592499999999999)">
    <path d="M106.76 -6.5 L106.865 -6.5 L106.865 -6.685 L106.76 -6.685 Z" fill="none" stroke="black" stroke-width="0.001" transform="translate(106.8125 -6.592499999999999) rotate(30) translate(-106.8125 6.592499999999999)" />
    <path d="M106.8569294875094 -6.590917354400405 L106.8569294875094 -6.590917354400405 L106.85383191898377 -6.590317692288351 L106.85299484651647 -6.588962608477519 L106.85299484651647 -6.588962608477519 L106.85212464650296 -6.587553896571948 L106.85258355457775 -6.587049418604433 L106.85258355457775 -6.587049418604433 L106.85272972545864 -6.586888732852831 L106.85070761668622 -6.586259980685007 L106.85070761668622 -6.586259980685007 L106.84844540250705 -6.585556570419131 L106.84609361647911 -6.5862977511702185 L106.84609361647911 -6.5862977511702185 L106.84371836044322 -6.587046328647835 L106.84257388914418 -6.587973408890923 L106.84257388914418 -6.587973408890923 L106.84134893950548 -6.58896568070218 L106.83887194414933 -6.58908277689567 L106.83887194414933 -6.58908277689567 L106.83654380043843 -6.589192836353701 L106.83616613580297 -6.589612318526657 L106.83616613580297 -6.589612318526657 L106.83567008053654 -6.590163300327772 L106.82705065099026 -6.589846364934533 L106.82705065099026 -6.589846364934533 L106.81872633129673 -6.589540280695274 L106.81871892321246 -6.5898075415815835 L106.81871892321246 -6.5898075415815835 L106.81870193723708 -6.590420343308163 L106.81775433569312 -6.590709303285147 L106.81775433569312 -6.590709303285147 L106.81672923196574 -6.591021896643993 L106.81637619514885 -6.589070606889255 L106.81637619514885 -6.589070606889255 L106.81704560632525 -6.592770547257172 L106.81664386617538 -6.589013733963904 L106.81664386617538 -6.589013733963904 L106.81684895278599 -6.590931570917152 L106.8163565660344 -6.591012830822235 L106.8163565660344 -6.591012830822235 L106.81613206557222 -6.591049880735111 L106.81595682174047 -6.591293340286608 L106.81595682174047 -6.591293340286608 L106.81569569886366 -6.591656108310078 L106.8150671463338 -6.5918671025954305 L106.8150671463338 -6.5918671025954305 L106.81446526007363 -6.592069145472193 L106.81152651030179 -6.59196637782298 L106.81152651030179 -6.59196637782298 L106.8085438390576 -6.591862074246309 L106.8082898264145 -6.591601647142517 L106.8082898264145 -6.591601647142517 L106.80815112064305 -6.591459438700077 L106.80698553957012 -6.591465497298217 L106.80698553957012 -6.591465497298217 L106.80574873063019 -6.5914719261331705 L106.80574828427125 -6.591471989898733 L106.80574828427125 -6.591471989898733 L106.80590503972626 -6.591449596262321 L106.8059034969205 -6.591727609860825 L106.8059034969205 -6.591727609860825 L106.8058999160193 -6.5923728882593515 L106.80515467710865 -6.5923884563746515 L106.80515467710865 -6.5923884563746515 L106.80478969300181 -6.592396080929108 L106.80491021196092 -6.59387188164855 L106.8048886218577 -6.59427129855786 L106.80480172124064 -6.595878959973747 L106.80536086627893 -6.598107717572952 L106.80542406247937 -6.598502693825719 L106.80583136937287 -6.601048361910035 L106.80539174102722 -6.601319748583247 L106.80515924574973 -6.601645241971729 L106.80492344880405 -6.601975357695724 L106.80473758956973 -6.601796870767766 L106.80434062923223 -6.601846089569717 L106.80436313742038 -6.601843298797063 L106.80200800846426 -6.602368210177855 L106.80200800846426 -6.602368210177855 L106.79966747782842 -6.602889867883538 L106.7995577708764 -6.603168328157299 L106.7992 -6.6033472135955 L106.7989851665738 -6.603454630308599 L106.79821933359895 -6.603871771197106 L106.79821933359895 -6.603871771197106 L106.79743629673267 -6.604298282858082 L106.79714690423829 -6.60443308979341 L106.79714690423829 -6.60443308979341 L106.79666514757274 -6.6046575052185545 L106.79617811992152 -6.604332820117735 L106.79617811992152 -6.604332820117735 L106.79576633687721 -6.604058298088209 L106.79477680476565 -6.600604603484329 L106.79464539651566 -6.600226804765646 L106.79348735818958 -6.596897444578127 L106.79344775311684 -6.595863857606075 L106.7937286518701 -6.595114794264019 L106.79411569322859 -6.594082683974725 L106.79538665419983 -6.593147802765338 L106.79573631711028 -6.592953545592867 L106.79726396385769 -6.592104852955415 L106.79818104235545 -6.5925217068180295 L106.79818104235545 -6.5925217068180295 L106.79837901401314 -6.59261169393516 L106.79924193470859 -6.592169152170051 L106.79924193470859 -6.592169152170051 L106.80077604092703 -6.591382398442447 L106.8013516243132 -6.591833415681901 L106.80172195004143 -6.591984607133442 L106.8021063036138 -6.592141525678618 L106.80260259339927 -6.591765280316093 L106.80355733178668 -6.592492242909074 L106.80289843550432 -6.591990542174924 L106.80283415214551 -6.593298578540975 L106.80442286781145 -6.592083678325834 L106.80452438231292 -6.592006049589422 L106.8051318928508 -6.591950821358707 L106.8051318928508 -6.591950821358707 L106.8055073587561 -6.591916688094588 L106.80551716840243 -6.591677794354689 L106.80551716840243 -6.591677794354689 L106.80563408420122 -6.591267897177344 L106.805734 -6.591272 L106.805734 -6.591272 L106.80573348021494 -6.591172001350891 L106.80698346042988 -6.591065502701784 L106.80698346042988 -6.591065502701784 L106.80831887935695 -6.591058561299923 L106.80857617358552 -6.591322352857483 L106.80857617358552 -6.591322352857483 L106.80871816094242 -6.59146792575369 L106.8115404896982 -6.59156662217702 L106.8115404896982 -6.59156662217702 L106.81440673992637 -6.591666854527807 L106.8149398536662 -6.591487897404568 L106.8149398536662 -6.591487897404568 L106.81544630113635 -6.591317891689922 L106.81563217825955 -6.591059659713391 L106.81563217825955 -6.591059659713391 L106.81590393442778 -6.59068211926489 L106.81629143396562 -6.590618169177764 L106.81629143396562 -6.590618169177764 L106.81641104721402 -6.590598429082848 L106.81624613382462 -6.589056266036096 L106.81624613382462 -6.589056266036096 L106.81547439367475 -6.5818394527428286 L106.81676980485116 -6.588999393110745 L106.81676980485116 -6.588999393110745 L106.81704276803426 -6.59050810335601 L106.81763766430687 -6.590326696714854 L106.81763766430687 -6.590326696714854 L106.81831006276292 -6.590121656691838 L106.81831907678756 -6.589796458418418 L106.81831907678756 -6.589796458418418 L106.81833766870328 -6.589125719304726 L106.82706534900973 -6.589446635065467 L106.82706534900973 -6.589446635065467 L106.83549791946345 -6.589756699672226 L106.83586886419702 -6.589344681473343 L106.83586886419702 -6.589344681473343 L106.83635819956156 -6.588801163646299 L106.83885305585068 -6.58868322310433 L106.83885305585068 -6.58868322310433 L106.84119906049453 -6.588572319297819 L106.8423221108558 -6.587662591109078 L106.8423221108558 -6.587662591109078 L106.84352563955676 -6.586687671352168 L106.8459733835209 -6.585916248829782 L106.8459733835209 -6.585916248829782 L106.84844459749294 -6.585137429580868 L106.85082638331376 -6.585878019314993 L106.85082638331376 -6.585878019314993 L106.85344827454134 -6.586693267147169 L106.85287944542226 -6.587318581395566 L106.85287944542226 -6.587318581395566 L106.85262335349704 -6.587600103428052 L106.85333515348351 -6.588752391522481 L106.85333515348351 -6.588752391522481 L106.85408008101622 -6.589958307711647 L106.85700551249059 -6.590524645599595 L106.85700551249059 -6.590524645599595 L106.85996144138848 -6.591096887521386 L106.86249847448505 -6.590140847250249 L106.86249847448505 -6.590140847250249 L106.865159 -6.589352 L106.86263952551496 -6.59051515274975 L106.86263952551496 -6.59051515274975 L106.85999655861151 -6.5915111124786145 Z" stroke="pink" stroke-width="0.0002" fill="none" />
    <circle 
      cx="106.865159" cy="-12.589352"
      r="15" transform="translate(106.865159 -6.589352) scale(0.00001 -0.00001) translate(-106.865159 6.589352) translate(106.8125 -6.592499999999999) rotate(-30) translate(-106.8125 6.592499999999999)"
      fill="white" stroke="black" stroke-width="2"/>
    <circle 
      cx="106.865159" cy="-12.589352"
      r="15" transform="translate(106.865159 -6.589352) scale(0.00001 -0.00001) translate(-106.865159 6.589352) translate(106.8125 -6.592499999999999) rotate(-30) translate(-106.8125 6.592499999999999)"
      fill="white" stroke="none"/>
    <text x="106.865159" y="-6.589352" fill="black" text-anchor="middle" transform="translate(106.865159 -6.589352) scale(0.00001 -0.00001) translate(-106.865159 6.589352) translate(106.8125 -6.592499999999999) rotate(-30) translate(-106.8125 6.592499999999999)">05</text>
    <line x1="106.859979" y1="-6.591304" x2="106.853956" y2="-6.590138" style="stroke:rgb(255,0,0);stroke-width:.00002" />
    <line x1="106.859979" y1="-6.591304" x2="106.8569675" y2="-6.590721" style="stroke:rgb(0,0,0);stroke-width:.00002" />
    <line x1="106.8569675" y1="-6.590721" x2="106.8569675" y2="-6.590721" style="stroke:rgb(0,0,0);stroke-width:.00002" />
    <line x1="106.8569675" y1="-6.590721" x2="106.853956" y2="-6.590138" style="stroke:rgb(0,0,0);stroke-width:.00002" />
    <circle cx="106.859979" cy="-6.591304" fill="rgb(255,0,0)" r=".0001" />
    <text x="106.859979" y="-6.591304" stroke="rgb(0,0,0)" transform="translate(106.859979 -6.591304),scale(0.00001 -0.00001),translate(-106.859979 6.591304),translate(106.8125 -6.592499999999999),rotate(-30),translate(-106.8125 6.592499999999999)" >line-05-21</text>
    <line x1="106.853956" y1="-6.590138" x2="106.852374" y2="-6.587577" style="stroke:rgb(255,0,0);stroke-width:.00002" />
    <line x1="106.853956" y1="-6.590138" x2="106.85316499999999" y2="-6.5888575" style="stroke:rgb(0,0,0);stroke-width:.00002" />
    <line x1="106.85316499999999" y1="-6.5888575" x2="106.85316499999999" y2="-6.5888575" style="stroke:rgb(0,0,0);stroke-width:.00002" />
    <line x1="106.85316499999999" y1="-6.5888575" x2="106.852374" y2="-6.587577" style="stroke:rgb(0,0,0);stroke-width:.00002" />
    <circle cx="106.853956" cy="-6.590138" fill="rgb(255,0,0)" r=".0001" />
    <text x="106.853956" y="-6.590138" stroke="rgb(0,0,0)" transform="translate(106.853956 -6.590138),scale(0.00001 -0.00001),translate(-106.853956 6.590138),translate(106.8125 -6.592499999999999),rotate(-30),translate(-106.8125 6.592499999999999)" >line-05-20</text>
    <line x1="106.852374" y1="-6.587577" x2="106.853089" y2="-6.586791" style="stroke:rgb(255,0,0);stroke-width:.00002" />
    <line x1="106.852374" y1="-6.587577" x2="106.8527315" y2="-6.587184" style="stroke:rgb(0,0,0);stroke-width:.00002" />
    <line x1="106.8527315" y1="-6.587184" x2="106.8527315" y2="-6.587184" style="stroke:rgb(0,0,0);stroke-width:.00002" />
    <line x1="106.8527315" y1="-6.587184" x2="106.853089" y2="-6.586791" style="stroke:rgb(0,0,0);stroke-width:.00002" />
    <circle cx="106.852374" cy="-6.587577" fill="rgb(255,0,0)" r=".0001" />
    <text x="106.852374" y="-6.587577" stroke="rgb(0,0,0)" transform="translate(106.852374 -6.587577),scale(0.00001 -0.00001),translate(-106.852374 6.587577),translate(106.8125 -6.592499999999999),rotate(-30),translate(-106.8125 6.592499999999999)" >line-05-19</text>
    <line x1="106.853089" y1="-6.586791" x2="106.848445" y2="-6.585347" style="stroke:rgb(255,0,0);stroke-width:.00002" />
    <line x1="106.853089" y1="-6.586791" x2="106.85076699999999" y2="-6.586069" style="stroke:rgb(0,0,0);stroke-width:.00002" />
    <line x1="106.85076699999999" y1="-6.586069" x2="106.85076699999999" y2="-6.586069" style="stroke:rgb(0,0,0);stroke-width:.00002" />
    <line x1="106.85076699999999" y1="-6.586069" x2="106.848445" y2="-6.585347" style="stroke:rgb(0,0,0);stroke-width:.00002" />
    <circle cx="106.853089" cy="-6.586791" fill="rgb(255,0,0)" r=".0001" />
    <text x="106.853089" y="-6.586791" stroke="rgb(0,0,0)" transform="translate(106.853089 -6.586791),scale(0.00001 -0.00001),translate(-106.853089 6.586791),translate(106.8125 -6.592499999999999),rotate(-30),translate(-106.8125 6.592499999999999)" >line-05-18</text>
    <line x1="106.848445" y1="-6.585347" x2="106.843622" y2="-6.586867" style="stroke:rgb(255,0,0);stroke-width:.00002" />
    <line x1="106.848445" y1="-6.585347" x2="106.8460335" y2="-6.586107" style="stroke:rgb(0,0,0);stroke-width:.00002" />
    <line x1="106.8460335" y1="-6.586107" x2="106.8460335" y2="-6.586107" style="stroke:rgb(0,0,0);stroke-width:.00002" />
    <line x1="106.8460335" y1="-6.586107" x2="106.843622" y2="-6.586867" style="stroke:rgb(0,0,0);stroke-width:.00002" />
    <circle cx="106.848445" cy="-6.585347" fill="rgb(255,0,0)" r=".0001" />
    <text x="106.848445" y="-6.585347" stroke="rgb(0,0,0)" transform="translate(106.848445 -6.585347),scale(0.00001 -0.00001),translate(-106.848445 6.585347),translate(106.8125 -6.592499999999999),rotate(-30),translate(-106.8125 6.592499999999999)" >line-05-17</text>
    <line x1="106.843622" y1="-6.586867" x2="106.841274" y2="-6.588769" style="stroke:rgb(255,0,0);stroke-width:.00002" />
    <line x1="106.843622" y1="-6.586867" x2="106.84244799999999" y2="-6.587818" style="stroke:rgb(0,0,0);stroke-width:.00002" />
    <line x1="106.84244799999999" y1="-6.587818" x2="106.84244799999999" y2="-6.587818" style="stroke:rgb(0,0,0);stroke-width:.00002" />
    <line x1="106.84244799999999" y1="-6.587818" x2="106.841274" y2="-6.588769" style="stroke:rgb(0,0,0);stroke-width:.00002" />
    <circle cx="106.843622" cy="-6.586867" fill="rgb(255,0,0)" r=".0001" />
    <text x="106.843622" y="-6.586867" stroke="rgb(0,0,0)" transform="translate(106.843622 -6.586867),scale(0.00001 -0.00001),translate(-106.843622 6.586867),translate(106.8125 -6.592499999999999),rotate(-30),translate(-106.8125 6.592499999999999)" >line-05-16</text>
    <line x1="106.841274" y1="-6.588769" x2="106.836451" y2="-6.588997" style="stroke:rgb(255,0,0);stroke-width:.00002" />
    <line x1="106.841274" y1="-6.588769" x2="106.8388625" y2="-6.588883" style="stroke:rgb(0,0,0);stroke-width:.00002" />
    <line x1="106.8388625" y1="-6.588883" x2="106.8388625" y2="-6.588883" style="stroke:rgb(0,0,0);stroke-width:.00002" />
    <line x1="106.8388625" y1="-6.588883" x2="106.836451" y2="-6.588997" style="stroke:rgb(0,0,0);stroke-width:.00002" />
    <circle cx="106.841274" cy="-6.588769" fill="rgb(255,0,0)" r=".0001" />
    <text x="106.841274" y="-6.588769" stroke="rgb(0,0,0)" transform="translate(106.841274 -6.588769),scale(0.00001 -0.00001),translate(-106.841274 6.588769),translate(106.8125 -6.592499999999999),rotate(-30),translate(-106.8125 6.592499999999999)" >line-05-15</text>
    <line x1="106.836451" y1="-6.588997" x2="106.835584" y2="-6.58996" style="stroke:rgb(255,0,0);stroke-width:.00002" />
    <line x1="106.836451" y1="-6.588997" x2="106.8360175" y2="-6.5894785" style="stroke:rgb(0,0,0);stroke-width:.00002" />
    <line x1="106.8360175" y1="-6.5894785" x2="106.8360175" y2="-6.5894785" style="stroke:rgb(0,0,0);stroke-width:.00002" />
    <line x1="106.8360175" y1="-6.5894785" x2="106.835584" y2="-6.58996" style="stroke:rgb(0,0,0);stroke-width:.00002" />
    <circle cx="106.836451" cy="-6.588997" fill="rgb(255,0,0)" r=".0001" />
    <text x="106.836451" y="-6.588997" stroke="rgb(0,0,0)" transform="translate(106.836451 -6.588997),scale(0.00001 -0.00001),translate(-106.836451 6.588997),translate(106.8125 -6.592499999999999),rotate(-30),translate(-106.8125 6.592499999999999)" >line-05-14</text>
    <line x1="106.835584" y1="-6.58996" x2="106.818532" y2="-6.589333" style="stroke:rgb(255,0,0);stroke-width:.00002" />
    <line x1="106.835584" y1="-6.58996" x2="106.827058" y2="-6.5896465" style="stroke:rgb(0,0,0);stroke-width:.00002" />
    <line x1="106.827058" y1="-6.5896465" x2="106.827058" y2="-6.5896465" style="stroke:rgb(0,0,0);stroke-width:.00002" />
    <line x1="106.827058" y1="-6.5896465" x2="106.818532" y2="-6.589333" style="stroke:rgb(0,0,0);stroke-width:.00002" />
    <circle cx="106.835584" cy="-6.58996" fill="rgb(255,0,0)" r=".0001" />
    <text x="106.835584" y="-6.58996" stroke="rgb(0,0,0)" transform="translate(106.835584 -6.58996),scale(0.00001 -0.00001),translate(-106.835584 6.58996),translate(106.8125 -6.592499999999999),rotate(-30),translate(-106.8125 6.592499999999999)" >line-05-13</text>
    <line x1="106.818532" y1="-6.589333" x2="106.818506" y2="-6.590271" style="stroke:rgb(255,0,0);stroke-width:.00002" />
    <line x1="106.818532" y1="-6.589333" x2="106.81851900000001" y2="-6.589802000000001" style="stroke:rgb(0,0,0);stroke-width:.00002" />
    <line x1="106.81851900000001" y1="-6.589802000000001" x2="106.81851900000001" y2="-6.589802000000001" style="stroke:rgb(0,0,0);stroke-width:.00002" />
    <line x1="106.81851900000001" y1="-6.589802000000001" x2="106.818506" y2="-6.590271" style="stroke:rgb(0,0,0);stroke-width:.00002" />
    <circle cx="106.818532" cy="-6.589333" fill="rgb(255,0,0)" r=".0001" />
    <text x="106.818532" y="-6.589333" stroke="rgb(0,0,0)" transform="translate(106.818532 -6.589333),scale(0.00001 -0.00001),translate(-106.818532 6.589333),translate(106.8125 -6.592499999999999),rotate(-30),translate(-106.8125 6.592499999999999)" >line-05-12</text>
    <line x1="106.818506" y1="-6.590271" x2="106.816886" y2="-6.590765" style="stroke:rgb(255,0,0);stroke-width:.00002" />
    <line x1="106.818506" y1="-6.590271" x2="106.817696" y2="-6.590518" style="stroke:rgb(0,0,0);stroke-width:.00002" />
    <line x1="106.817696" y1="-6.590518" x2="106.817696" y2="-6.590518" style="stroke:rgb(0,0,0);stroke-width:.00002" />
    <line x1="106.817696" y1="-6.590518" x2="106.816886" y2="-6.590765" style="stroke:rgb(0,0,0);stroke-width:.00002" />
    <circle cx="106.818506" cy="-6.590271" fill="rgb(255,0,0)" r=".0001" />
    <text x="106.818506" y="-6.590271" stroke="rgb(0,0,0)" transform="translate(106.818506 -6.590271),scale(0.00001 -0.00001),translate(-106.818506 6.590271),translate(106.8125 -6.592499999999999),rotate(-30),translate(-106.8125 6.592499999999999)" >line-05-11</text>
    <line x1="106.816886" y1="-6.590765" x2="106.81626" y2="-6.587305" style="stroke:rgb(255,0,0);stroke-width:.00002" />
    <line x1="106.816886" y1="-6.590765" x2="106.816573" y2="-6.589035" style="stroke:rgb(0,0,0);stroke-width:.00002" />
    <line x1="106.816573" y1="-6.589035" x2="106.816573" y2="-6.589035" style="stroke:rgb(0,0,0);stroke-width:.00002" />
    <line x1="106.816573" y1="-6.589035" x2="106.81626" y2="-6.587305" style="stroke:rgb(0,0,0);stroke-width:.00002" />
    <circle cx="106.816886" cy="-6.590765" fill="rgb(255,0,0)" r=".0001" />
    <text x="106.816886" y="-6.590765" stroke="rgb(0,0,0)" transform="translate(106.816886 -6.590765),scale(0.00001 -0.00001),translate(-106.816886 6.590765),translate(106.8125 -6.592499999999999),rotate(-30),translate(-106.8125 6.592499999999999)" >line-05-10</text>
    <line x1="106.81626" y1="-6.587305" x2="106.81663" y2="-6.590765" style="stroke:rgb(255,0,0);stroke-width:.00002" />
    <line x1="106.81626" y1="-6.587305" x2="106.816445" y2="-6.589035" style="stroke:rgb(0,0,0);stroke-width:.00002" />
    <line x1="106.816445" y1="-6.589035" x2="106.816445" y2="-6.589035" style="stroke:rgb(0,0,0);stroke-width:.00002" />
    <line x1="106.816445" y1="-6.589035" x2="106.81663" y2="-6.590765" style="stroke:rgb(0,0,0);stroke-width:.00002" />
    <circle cx="106.81626" cy="-6.587305" fill="rgb(255,0,0)" r=".0001" />
    <text x="106.81626" y="-6.587305" stroke="rgb(0,0,0)" transform="translate(106.81626 -6.587305),scale(0.00001 -0.00001),translate(-106.81626 6.587305),translate(106.8125 -6.592499999999999),rotate(-30),translate(-106.8125 6.592499999999999)" >line-05-9</text>
    <line x1="106.81663" y1="-6.590765" x2="106.816018" y2="-6.590866" style="stroke:rgb(255,0,0);stroke-width:.00002" />
    <line x1="106.81663" y1="-6.590765" x2="106.81632400000001" y2="-6.5908155" style="stroke:rgb(0,0,0);stroke-width:.00002" />
    <line x1="106.81632400000001" y1="-6.5908155" x2="106.81632400000001" y2="-6.5908155" style="stroke:rgb(0,0,0);stroke-width:.00002" />
    <line x1="106.81632400000001" y1="-6.5908155" x2="106.816018" y2="-6.590866" style="stroke:rgb(0,0,0);stroke-width:.00002" />
    <circle cx="106.81663" cy="-6.590765" fill="rgb(255,0,0)" r=".0001" />
    <text x="106.81663" y="-6.590765" stroke="rgb(0,0,0)" transform="translate(106.81663 -6.590765),scale(0.00001 -0.00001),translate(-106.81663 6.590765),translate(106.8125 -6.592499999999999),rotate(-30),translate(-106.8125 6.592499999999999)" >line-05-8</text>
    <line x1="106.816018" y1="-6.590866" x2="106.815571" y2="-6.591487" style="stroke:rgb(255,0,0);stroke-width:.00002" />
    <line x1="106.816018" y1="-6.590866" x2="106.81579450000001" y2="-6.5911764999999995" style="stroke:rgb(0,0,0);stroke-width:.00002" />
    <line x1="106.81579450000001" y1="-6.5911764999999995" x2="106.81579450000001" y2="-6.5911764999999995" style="stroke:rgb(0,0,0);stroke-width:.00002" />
    <line x1="106.81579450000001" y1="-6.5911764999999995" x2="106.815571" y2="-6.591487" style="stroke:rgb(0,0,0);stroke-width:.00002" />
    <circle cx="106.816018" cy="-6.590866" fill="rgb(255,0,0)" r=".0001" />
    <text x="106.816018" y="-6.590866" stroke="rgb(0,0,0)" transform="translate(106.816018 -6.590866),scale(0.00001 -0.00001),translate(-106.816018 6.590866),translate(106.8125 -6.592499999999999),rotate(-30),translate(-106.8125 6.592499999999999)" >line-05-7</text>
    <line x1="106.815571" y1="-6.591487" x2="106.814436" y2="-6.591868" style="stroke:rgb(255,0,0);stroke-width:.00002" />
    <line x1="106.815571" y1="-6.591487" x2="106.8150035" y2="-6.591677499999999" style="stroke:rgb(0,0,0);stroke-width:.00002" />
    <line x1="106.8150035" y1="-6.591677499999999" x2="106.8150035" y2="-6.591677499999999" style="stroke:rgb(0,0,0);stroke-width:.00002" />
    <line x1="106.8150035" y1="-6.591677499999999" x2="106.814436" y2="-6.591868" style="stroke:rgb(0,0,0);stroke-width:.00002" />
    <circle cx="106.815571" cy="-6.591487" fill="rgb(255,0,0)" r=".0001" />
    <text x="106.815571" y="-6.591487" stroke="rgb(0,0,0)" transform="translate(106.815571 -6.591487),scale(0.00001 -0.00001),translate(-106.815571 6.591487),translate(106.8125 -6.592499999999999),rotate(-30),translate(-106.8125 6.592499999999999)" >line-05-6</text>
    <line x1="106.814436" y1="-6.591868" x2="106.808631" y2="-6.591665" style="stroke:rgb(255,0,0);stroke-width:.00002" />
    <line x1="106.814436" y1="-6.591868" x2="106.8115335" y2="-6.5917665" style="stroke:rgb(0,0,0);stroke-width:.00002" />
    <line x1="106.8115335" y1="-6.5917665" x2="106.8115335" y2="-6.5917665" style="stroke:rgb(0,0,0);stroke-width:.00002" />
    <line x1="106.8115335" y1="-6.5917665" x2="106.808631" y2="-6.591665" style="stroke:rgb(0,0,0);stroke-width:.00002" />
    <circle cx="106.814436" cy="-6.591868" fill="rgb(255,0,0)" r=".0001" />
    <text x="106.814436" y="-6.591868" stroke="rgb(0,0,0)" transform="translate(106.814436 -6.591868),scale(0.00001 -0.00001),translate(-106.814436 6.591868),translate(106.8125 -6.592499999999999),rotate(-30),translate(-106.8125 6.592499999999999)" >line-05-5</text>
    <line x1="106.808631" y1="-6.591665" x2="106.808235" y2="-6.591259" style="stroke:rgb(255,0,0);stroke-width:.00002" />
    <line x1="106.808631" y1="-6.591665" x2="106.80843300000001" y2="-6.591462" style="stroke:rgb(0,0,0);stroke-width:.00002" />
    <line x1="106.80843300000001" y1="-6.591462" x2="106.80843300000001" y2="-6.591462" style="stroke:rgb(0,0,0);stroke-width:.00002" />
    <line x1="106.80843300000001" y1="-6.591462" x2="106.808235" y2="-6.591259" style="stroke:rgb(0,0,0);stroke-width:.00002" />
    <circle cx="106.808631" cy="-6.591665" fill="rgb(255,0,0)" r=".0001" />
    <text x="106.808631" y="-6.591665" stroke="rgb(0,0,0)" transform="translate(106.808631 -6.591665),scale(0.00001 -0.00001),translate(-106.808631 6.591665),translate(106.8125 -6.592499999999999),rotate(-30),translate(-106.8125 6.592499999999999)" >line-05-4</text>
    <line x1="106.808235" y1="-6.591259" x2="106.805734" y2="-6.591272" style="stroke:rgb(255,0,0);stroke-width:.00002" />
    <line x1="106.808235" y1="-6.591259" x2="106.8069845" y2="-6.5912655" style="stroke:rgb(0,0,0);stroke-width:.00002" />
    <line x1="106.8069845" y1="-6.5912655" x2="106.8069845" y2="-6.5912655" style="stroke:rgb(0,0,0);stroke-width:.00002" />
    <line x1="106.8069845" y1="-6.5912655" x2="106.805734" y2="-6.591272" style="stroke:rgb(0,0,0);stroke-width:.00002" />
    <circle cx="106.808235" cy="-6.591259" fill="rgb(255,0,0)" r=".0001" />
    <text x="106.808235" y="-6.591259" stroke="rgb(0,0,0)" transform="translate(106.808235 -6.591259),scale(0.00001 -0.00001),translate(-106.808235 6.591259),translate(106.8125 -6.592499999999999),rotate(-30),translate(-106.8125 6.592499999999999)" >line-05-3</text>
    <line x1="106.805734" y1="-6.591272" x2="106.805706" y2="-6.591276" style="stroke:rgb(255,0,0);stroke-width:.00002" />
    <line x1="106.805734" y1="-6.591272" x2="106.80572000000001" y2="-6.591274" style="stroke:rgb(0,0,0);stroke-width:.00002" />
    <line x1="106.80572000000001" y1="-6.591274" x2="106.80572000000001" y2="-6.591274" style="stroke:rgb(0,0,0);stroke-width:.00002" />
    <line x1="106.80572000000001" y1="-6.591274" x2="106.805706" y2="-6.591276" style="stroke:rgb(0,0,0);stroke-width:.00002" />
    <circle cx="106.805734" cy="-6.591272" fill="rgb(255,0,0)" r=".0001" />
    <text x="106.805734" y="-6.591272" stroke="rgb(0,0,0)" transform="translate(106.805734 -6.591272),scale(0.00001 -0.00001),translate(-106.805734 6.591272),translate(106.8125 -6.592499999999999),rotate(-30),translate(-106.8125 6.592499999999999)" >line-05-2</text>
    <line x1="106.805706" y1="-6.591276" x2="106.805701" y2="-6.592177" style="stroke:rgb(255,0,0);stroke-width:.00002" />
    <line x1="106.805706" y1="-6.591276" x2="106.80570349999999" y2="-6.5917265" style="stroke:rgb(0,0,0);stroke-width:.00002" />
    <line x1="106.80570349999999" y1="-6.5917265" x2="106.80570349999999" y2="-6.5917265" style="stroke:rgb(0,0,0);stroke-width:.00002" />
    <line x1="106.80570349999999" y1="-6.5917265" x2="106.805701" y2="-6.592177" style="stroke:rgb(0,0,0);stroke-width:.00002" />
    <circle cx="106.805706" cy="-6.591276" fill="rgb(255,0,0)" r=".0001" />
    <text x="106.805706" y="-6.591276" stroke="rgb(0,0,0)" transform="translate(106.805706 -6.591276),scale(0.00001 -0.00001),translate(-106.805706 6.591276),translate(106.8125 -6.592499999999999),rotate(-30),translate(-106.8125 6.592499999999999)" >lodaya-M</text>
    <line x1="106.805701" y1="-6.592177" x2="106.8046" y2="-6.5922" style="stroke:rgb(255,0,0);stroke-width:.00002" />
    <line x1="106.805701" y1="-6.592177" x2="106.8051505" y2="-6.592188500000001" style="stroke:rgb(0,0,0);stroke-width:.00002" />
    <line x1="106.8051505" y1="-6.592188500000001" x2="106.8051505" y2="-6.592188500000001" style="stroke:rgb(0,0,0);stroke-width:.00002" />
    <line x1="106.8051505" y1="-6.592188500000001" x2="106.8046" y2="-6.5922" style="stroke:rgb(0,0,0);stroke-width:.00002" />
    <circle cx="106.805701" cy="-6.592177" fill="rgb(255,0,0)" r=".0001" />
    <text x="106.805701" y="-6.592177" stroke="rgb(0,0,0)" transform="translate(106.805701 -6.592177),scale(0.00001 -0.00001),translate(-106.805701 6.592177),translate(106.8125 -6.592499999999999),rotate(-30),translate(-106.8125 6.592499999999999)" >lodaya-S</text>
    <line x1="106.8046" y1="-6.5922" x2="106.8044" y2="-6.5959" style="stroke:rgb(255,0,0);stroke-width:.00002" />
    <line x1="106.8046" y1="-6.5922" x2="106.8045107950516" y2="-6.593850291545345" style="stroke:rgb(0,0,0);stroke-width:.00002" />
    <line x1="106.8045107950516" y1="-6.593850291545345" x2="106.80448920494838" y2="-6.594249708454655" style="stroke:rgb(0,0,0);stroke-width:.00002" />
    <line x1="106.80448920494838" y1="-6.594249708454655" x2="106.8044" y2="-6.5959" style="stroke:rgb(0,0,0);stroke-width:.00002" />
    <circle cx="106.8046" cy="-6.5922" fill="rgb(255,0,0)" r=".0001" />
    <text x="106.8046" y="-6.5922" stroke="rgb(0,0,0)" transform="translate(106.8046 -6.5922),scale(0.00001 -0.00001),translate(-106.8046 6.5922),translate(106.8125 -6.592499999999999),rotate(-30),translate(-106.8125 6.592499999999999)" >pangrango-pajajaran</text>
    <line x1="106.8044" y1="-6.5959" x2="106.8052" y2="-6.6009" style="stroke:rgb(255,0,0);stroke-width:.00002" />
    <line x1="106.8044" y1="-6.5959" x2="106.80476840189978" y2="-6.598202511873616" style="stroke:rgb(0,0,0);stroke-width:.00002" />
    <line x1="106.80476840189978" y1="-6.598202511873616" x2="106.80483159810022" y2="-6.598597488126384" style="stroke:rgb(0,0,0);stroke-width:.00002" />
    <line x1="106.80483159810022" y1="-6.598597488126384" x2="106.8052" y2="-6.6009" style="stroke:rgb(0,0,0);stroke-width:.00002" />
    <circle cx="106.8044" cy="-6.5959" fill="rgb(255,0,0)" r=".0001" />
    <text x="106.8044" y="-6.5959" stroke="rgb(0,0,0)" transform="translate(106.8044 -6.5959),scale(0.00001 -0.00001),translate(-106.8044 6.5959),translate(106.8125 -6.592499999999999),rotate(-30),translate(-106.8125 6.592499999999999)" >kb-astrid</text>
    <line x1="106.8052" y1="-6.6009" x2="106.8047" y2="-6.6016" style="stroke:rgb(255,0,0);stroke-width:.00002" />
    <line x1="106.8052" y1="-6.6009" x2="106.80506624763873" y2="-6.601087253305759" style="stroke:rgb(0,0,0);stroke-width:.00002" />
    <line x1="106.80506624763873" y1="-6.601087253305759" x2="106.80483375236125" y2="-6.601412746694241" style="stroke:rgb(0,0,0);stroke-width:.00002" />
    <line x1="106.80483375236125" y1="-6.601412746694241" x2="106.8047" y2="-6.6016" style="stroke:rgb(0,0,0);stroke-width:.00002" />
    <circle cx="106.8052" cy="-6.6009" fill="rgb(255,0,0)" r=".0001" />
    <text x="106.8052" y="-6.6009" stroke="rgb(0,0,0)" transform="translate(106.8052 -6.6009),scale(0.00001 -0.00001),translate(-106.8052 6.6009),translate(106.8125 -6.592499999999999),rotate(-30),translate(-106.8125 6.592499999999999)" >kb-botani-1</text>
    <line x1="106.8047" y1="-6.6016" x2="106.804329" y2="-6.601646" style="stroke:rgb(255,0,0);stroke-width:.00002" />
    <line x1="106.8047" y1="-6.6016" x2="106.80471298016874" y2="-6.601598390599024" style="stroke:rgb(0,0,0);stroke-width:.00002" />
    <line x1="106.80471298016874" y1="-6.601598390599024" x2="106.80431601983125" y2="-6.601647609400976" style="stroke:rgb(0,0,0);stroke-width:.00002" />
    <line x1="106.80431601983125" y1="-6.601647609400976" x2="106.804329" y2="-6.601646" style="stroke:rgb(0,0,0);stroke-width:.00002" />
    <circle cx="106.8047" cy="-6.6016" fill="rgb(255,0,0)" r=".0001" />
    <text x="106.8047" y="-6.6016" stroke="rgb(0,0,0)" transform="translate(106.8047 -6.6016),scale(0.00001 -0.00001),translate(-106.8047 6.6016),translate(106.8125 -6.592499999999999),rotate(-30),translate(-106.8125 6.592499999999999)" >kb-botani-2</text>
    <line x1="106.804329" y1="-6.601646" x2="106.7996" y2="-6.6027" style="stroke:rgb(255,0,0);stroke-width:.00002" />
    <line x1="106.804329" y1="-6.601646" x2="106.8019645" y2="-6.602173" style="stroke:rgb(0,0,0);stroke-width:.00002" />
    <line x1="106.8019645" y1="-6.602173" x2="106.8019645" y2="-6.602173" style="stroke:rgb(0,0,0);stroke-width:.00002" />
    <line x1="106.8019645" y1="-6.602173" x2="106.7996" y2="-6.6027" style="stroke:rgb(0,0,0);stroke-width:.00002" />
    <circle cx="106.804329" cy="-6.601646" fill="rgb(255,0,0)" r=".0001" />
    <text x="106.804329" y="-6.601646" stroke="rgb(0,0,0)" transform="translate(106.804329 -6.601646),scale(0.00001 -0.00001),translate(-106.804329 6.601646),translate(106.8125 -6.592499999999999),rotate(-30),translate(-106.8125 6.592499999999999)" >bangka-otista</text>
    <line x1="106.7996" y1="-6.6027" x2="106.7988" y2="-6.6031" style="stroke:rgb(255,0,0);stroke-width:.00002" />
    <line x1="106.7996" y1="-6.6027" x2="106.7993788854382" y2="-6.6028105572808995" style="stroke:rgb(0,0,0);stroke-width:.00002" />
    <line x1="106.7993788854382" y1="-6.6028105572808995" x2="106.7990211145618" y2="-6.6029894427191005" style="stroke:rgb(0,0,0);stroke-width:.00002" />
    <line x1="106.7990211145618" y1="-6.6029894427191005" x2="106.7988" y2="-6.6031" style="stroke:rgb(0,0,0);stroke-width:.00002" />
    <circle cx="106.7996" cy="-6.6027" fill="rgb(255,0,0)" r=".0001" />
    <text x="106.7996" y="-6.6027" stroke="rgb(0,0,0)" transform="translate(106.7996 -6.6027),scale(0.00001 -0.00001),translate(-106.7996 6.6027),translate(106.8125 -6.592499999999999),rotate(-30),translate(-106.8125 6.592499999999999)" >kb-otista</text>
    <line x1="106.7988" y1="-6.6031" x2="106.797256" y2="-6.603941" style="stroke:rgb(255,0,0);stroke-width:.00002" />
    <line x1="106.7988" y1="-6.6031" x2="106.798028" y2="-6.6035205" style="stroke:rgb(0,0,0);stroke-width:.00002" />
    <line x1="106.798028" y1="-6.6035205" x2="106.798028" y2="-6.6035205" style="stroke:rgb(0,0,0);stroke-width:.00002" />
    <line x1="106.798028" y1="-6.6035205" x2="106.797256" y2="-6.603941" style="stroke:rgb(0,0,0);stroke-width:.00002" />
    <circle cx="106.7988" cy="-6.6031" fill="rgb(255,0,0)" r=".0001" />
    <text x="106.7988" y="-6.6031" stroke="rgb(0,0,0)" transform="translate(106.7988 -6.6031),scale(0.00001 -0.00001),translate(-106.7988 6.6031),translate(106.8125 -6.592499999999999),rotate(-30),translate(-106.8125 6.592499999999999)" >kb-suryakencana</text>
    <line x1="106.797256" y1="-6.603941" x2="106.7967" y2="-6.6042" style="stroke:rgb(255,0,0);stroke-width:.00002" />
    <line x1="106.797256" y1="-6.603941" x2="106.796978" y2="-6.6040705" style="stroke:rgb(0,0,0);stroke-width:.00002" />
    <line x1="106.796978" y1="-6.6040705" x2="106.796978" y2="-6.6040705" style="stroke:rgb(0,0,0);stroke-width:.00002" />
    <line x1="106.796978" y1="-6.6040705" x2="106.7967" y2="-6.6042" style="stroke:rgb(0,0,0);stroke-width:.00002" />
    <circle cx="106.797256" cy="-6.603941" fill="rgb(255,0,0)" r=".0001" />
    <text x="106.797256" y="-6.603941" stroke="rgb(0,0,0)" transform="translate(106.797256 -6.603941),scale(0.00001 -0.00001),translate(-106.797256 6.603941),translate(106.8125 -6.592499999999999),rotate(-30),translate(-106.8125 6.592499999999999)" >cincau-kb</text>
    <line x1="106.7967" y1="-6.6042" x2="106.7961" y2="-6.6038" style="stroke:rgb(255,0,0);stroke-width:.00002" />
    <line x1="106.7967" y1="-6.6042" x2="106.7964" y2="-6.603999999999999" style="stroke:rgb(0,0,0);stroke-width:.00002" />
    <line x1="106.7964" y1="-6.603999999999999" x2="106.7964" y2="-6.603999999999999" style="stroke:rgb(0,0,0);stroke-width:.00002" />
    <line x1="106.7964" y1="-6.603999999999999" x2="106.7961" y2="-6.6038" style="stroke:rgb(0,0,0);stroke-width:.00002" />
    <circle cx="106.7967" cy="-6.6042" fill="rgb(255,0,0)" r=".0001" />
    <text x="106.7967" y="-6.6042" stroke="rgb(0,0,0)" transform="translate(106.7967 -6.6042),scale(0.00001 -0.00001),translate(-106.7967 6.6042),translate(106.8125 -6.592499999999999),rotate(-30),translate(-106.8125 6.592499999999999)" >kb-btm-1</text>
    <line x1="106.7961" y1="-6.6038" x2="106.7937" y2="-6.5969" style="stroke:rgb(255,0,0);stroke-width:.00002" />
    <line x1="106.7961" y1="-6.6038" x2="106.79496570412499" y2="-6.600538899359341" style="stroke:rgb(0,0,0);stroke-width:.00002" />
    <line x1="106.79496570412499" y1="-6.600538899359341" x2="106.794834295875" y2="-6.600161100640658" style="stroke:rgb(0,0,0);stroke-width:.00002" />
    <line x1="106.794834295875" y1="-6.600161100640658" x2="106.7937" y2="-6.5969" style="stroke:rgb(0,0,0);stroke-width:.00002" />
    <circle cx="106.7961" cy="-6.6038" fill="rgb(255,0,0)" r=".0001" />
    <text x="106.7961" y="-6.6038" stroke="rgb(0,0,0)" transform="translate(106.7961 -6.6038),scale(0.00001 -0.00001),translate(-106.7961 6.6038),translate(106.8125 -6.592499999999999),rotate(-30),translate(-106.8125 6.592499999999999)" >kb-btm-2</text>
    <line x1="106.7937" y1="-6.5969" x2="106.7946" y2="-6.5945" style="stroke:rgb(255,0,0);stroke-width:.00002" />
    <line x1="106.7937" y1="-6.5969" x2="106.79400955062337" y2="-6.596074531671028" style="stroke:rgb(0,0,0);stroke-width:.00002" />
    <line x1="106.79400955062337" y1="-6.596074531671028" x2="106.79429044937663" y2="-6.595325468328972" style="stroke:rgb(0,0,0);stroke-width:.00002" />
    <line x1="106.79429044937663" y1="-6.595325468328972" x2="106.7946" y2="-6.5945" style="stroke:rgb(0,0,0);stroke-width:.00002" />
    <circle cx="106.7937" cy="-6.5969" fill="rgb(255,0,0)" r=".0001" />
    <text x="106.7937" y="-6.5969" stroke="rgb(0,0,0)" transform="translate(106.7937 -6.5969),scale(0.00001 -0.00001),translate(-106.7937 6.5969),translate(106.8125 -6.592499999999999),rotate(-30),translate(-106.8125 6.592499999999999)" >kb-muslihat</text>
    <line x1="106.7946" y1="-6.5945" x2="106.7973" y2="-6.593" style="stroke:rgb(255,0,0);stroke-width:.00002" />
    <line x1="106.7946" y1="-6.5945" x2="106.79577516854478" y2="-6.593847128586235" style="stroke:rgb(0,0,0);stroke-width:.00002" />
    <line x1="106.79577516854478" y1="-6.593847128586235" x2="106.79612483145523" y2="-6.593652871413765" style="stroke:rgb(0,0,0);stroke-width:.00002" />
    <line x1="106.79612483145523" y1="-6.593652871413765" x2="106.7973" y2="-6.593" style="stroke:rgb(0,0,0);stroke-width:.00002" />
    <circle cx="106.7946" cy="-6.5945" fill="rgb(255,0,0)" r=".0001" />
    <text x="106.7946" y="-6.5945" stroke="rgb(0,0,0)" transform="translate(106.7946 -6.5945),scale(0.00001 -0.00001),translate(-106.7946 6.5945),translate(106.8125 -6.592499999999999),rotate(-30),translate(-106.8125 6.592499999999999)" >kb-gedong-sawah</text>
    <line x1="106.7973" y1="-6.593" x2="106.7984" y2="-6.5935" style="stroke:rgb(255,0,0);stroke-width:.00002" />
    <line x1="106.7973" y1="-6.593" x2="106.79785000000001" y2="-6.593249999999999" style="stroke:rgb(0,0,0);stroke-width:.00002" />
    <line x1="106.79785000000001" y1="-6.593249999999999" x2="106.79785000000001" y2="-6.593249999999999" style="stroke:rgb(0,0,0);stroke-width:.00002" />
    <line x1="106.79785000000001" y1="-6.593249999999999" x2="106.7984" y2="-6.5935" style="stroke:rgb(0,0,0);stroke-width:.00002" />
    <circle cx="106.7973" cy="-6.593" fill="rgb(255,0,0)" r=".0001" />
    <text x="106.7973" y="-6.593" stroke="rgb(0,0,0)" transform="translate(106.7973 -6.593),scale(0.00001 -0.00001),translate(-106.7973 6.593),translate(106.8125 -6.592499999999999),rotate(-30),translate(-106.8125 6.592499999999999)" >kb-polisi-militer</text>
    <line x1="106.7984" y1="-6.5935" x2="106.800814" y2="-6.592262" style="stroke:rgb(255,0,0);stroke-width:.00002" />
    <line x1="106.7984" y1="-6.5935" x2="106.79960700000001" y2="-6.592881" style="stroke:rgb(0,0,0);stroke-width:.00002" />
    <line x1="106.79960700000001" y1="-6.592881" x2="106.79960700000001" y2="-6.592881" style="stroke:rgb(0,0,0);stroke-width:.00002" />
    <line x1="106.79960700000001" y1="-6.592881" x2="106.800814" y2="-6.592262" style="stroke:rgb(0,0,0);stroke-width:.00002" />
    <circle cx="106.7984" cy="-6.5935" fill="rgb(255,0,0)" r=".0001" />
    <text x="106.7984" y="-6.5935" stroke="rgb(0,0,0)" transform="translate(106.7984 -6.5935),scale(0.00001 -0.00001),translate(-106.7984 6.5935),translate(106.8125 -6.592499999999999),rotate(-30),translate(-106.8125 6.592499999999999)" >kb-jalak-harupat</text>
    <line x1="106.800814" y1="-6.592262" x2="106.801806" y2="-6.592667" style="stroke:rgb(255,0,0);stroke-width:.00002" />
    <line x1="106.800814" y1="-6.592262" x2="106.80112483713589" y2="-6.592388904274229" style="stroke:rgb(0,0,0);stroke-width:.00002" />
    <line x1="106.80112483713589" y1="-6.592388904274229" x2="106.80149516286411" y2="-6.592540095725771" style="stroke:rgb(0,0,0);stroke-width:.00002" />
    <line x1="106.80149516286411" y1="-6.592540095725771" x2="106.801806" y2="-6.592667" style="stroke:rgb(0,0,0);stroke-width:.00002" />
    <circle cx="106.800814" cy="-6.592262" fill="rgb(255,0,0)" r=".0001" />
    <text x="106.800814" y="-6.592262" stroke="rgb(0,0,0)" transform="translate(106.800814 -6.592262),scale(0.00001 -0.00001),translate(-106.800814 6.592262),translate(106.8125 -6.592499999999999),rotate(-30),translate(-106.8125 6.592499999999999)" >kb-sempur</text>
    <line x1="106.801806" y1="-6.592667" x2="106.8029" y2="-6.5935" style="stroke:rgb(255,0,0);stroke-width:.00002" />
    <line x1="106.801806" y1="-6.592667" x2="106.8018756308063" y2="-6.592720018703509" style="stroke:rgb(0,0,0);stroke-width:.00002" />
    <line x1="106.8018756308063" y1="-6.592720018703509" x2="106.8028303691937" y2="-6.59344698129649" style="stroke:rgb(0,0,0);stroke-width:.00002" />
    <line x1="106.8028303691937" y1="-6.59344698129649" x2="106.8029" y2="-6.5935" style="stroke:rgb(0,0,0);stroke-width:.00002" />
    <circle cx="106.801806" cy="-6.592667" fill="rgb(255,0,0)" r=".0001" />
    <text x="106.801806" y="-6.592667" stroke="rgb(0,0,0)" transform="translate(106.801806 -6.592667),scale(0.00001 -0.00001),translate(-106.801806 6.592667),translate(106.8125 -6.592499999999999),rotate(-30),translate(-106.8125 6.592499999999999)" >kb-salak</text>
    <line x1="106.8029" y1="-6.5935" x2="106.8046" y2="-6.5922" style="stroke:rgb(255,0,0);stroke-width:.00002" />
    <line x1="106.8029" y1="-6.5935" x2="106.80295564216702" y2="-6.593457450107571" style="stroke:rgb(0,0,0);stroke-width:.00002" />
    <line x1="106.80295564216702" y1="-6.593457450107571" x2="106.80454435783297" y2="-6.59224254989243" style="stroke:rgb(0,0,0);stroke-width:.00002" />
    <line x1="106.80454435783297" y1="-6.59224254989243" x2="106.8046" y2="-6.5922" style="stroke:rgb(0,0,0);stroke-width:.00002" />
    <circle cx="106.8029" cy="-6.5935" fill="rgb(255,0,0)" r=".0001" />
    <text x="106.8029" y="-6.5935" stroke="rgb(0,0,0)" transform="translate(106.8029 -6.5935),scale(0.00001 -0.00001),translate(-106.8029 6.5935),translate(106.8125 -6.592499999999999),rotate(-30),translate(-106.8125 6.592499999999999)" >kb-pangrango</text>
    <line x1="106.8046" y1="-6.5922" x2="106.8057" y2="-6.5921" style="stroke:rgb(255,0,0);stroke-width:.00002" />
    <line x1="106.8046" y1="-6.5922" x2="106.80515" y2="-6.59215" style="stroke:rgb(0,0,0);stroke-width:.00002" />
    <line x1="106.80515" y1="-6.59215" x2="106.80515" y2="-6.59215" style="stroke:rgb(0,0,0);stroke-width:.00002" />
    <line x1="106.80515" y1="-6.59215" x2="106.8057" y2="-6.5921" style="stroke:rgb(0,0,0);stroke-width:.00002" />
    <circle cx="106.8046" cy="-6.5922" fill="rgb(255,0,0)" r=".0001" />
    <text x="106.8046" y="-6.5922" stroke="rgb(0,0,0)" transform="translate(106.8046 -6.5922),scale(0.00001 -0.00001),translate(-106.8046 6.5922),translate(106.8125 -6.592499999999999),rotate(-30),translate(-106.8125 6.592499999999999)" >pangrango-pajajaran</text>
    <line x1="106.8057" y1="-6.5921" x2="106.805734" y2="-6.591272" style="stroke:rgb(255,0,0);stroke-width:.00002" />
    <line x1="106.8057" y1="-6.5921" x2="106.805717" y2="-6.591686" style="stroke:rgb(0,0,0);stroke-width:.00002" />
    <line x1="106.805717" y1="-6.591686" x2="106.805717" y2="-6.591686" style="stroke:rgb(0,0,0);stroke-width:.00002" />
    <line x1="106.805717" y1="-6.591686" x2="106.805734" y2="-6.591272" style="stroke:rgb(0,0,0);stroke-width:.00002" />
    <circle cx="106.8057" cy="-6.5921" fill="rgb(255,0,0)" r=".0001" />
    <text x="106.8057" y="-6.5921" stroke="rgb(0,0,0)" transform="translate(106.8057 -6.5921),scale(0.00001 -0.00001),translate(-106.8057 6.5921),translate(106.8125 -6.592499999999999),rotate(-30),translate(-106.8125 6.592499999999999)" >lodaya-S</text>
    <line x1="106.805734" y1="-6.591272" x2="106.805734" y2="-6.591272" style="stroke:rgb(255,0,0);stroke-width:.00002" />
    <line x1="106.805734" y1="-6.591272" x2="106.805734" y2="-6.591272" style="stroke:rgb(0,0,0);stroke-width:.00002" />
    <line x1="106.805734" y1="-6.591272" x2="106.805734" y2="-6.591272" style="stroke:rgb(0,0,0);stroke-width:.00002" />
    <line x1="106.805734" y1="-6.591272" x2="106.805734" y2="-6.591272" style="stroke:rgb(0,0,0);stroke-width:.00002" />
    <circle cx="106.805734" cy="-6.591272" fill="rgb(255,0,0)" r=".0001" />
    <text x="106.805734" y="-6.591272" stroke="rgb(0,0,0)" transform="translate(106.805734 -6.591272),scale(0.00001 -0.00001),translate(-106.805734 6.591272),translate(106.8125 -6.592499999999999),rotate(-30),translate(-106.8125 6.592499999999999)" >lodaya-M</text>
    <line x1="106.805734" y1="-6.591272" x2="106.808235" y2="-6.591259" style="stroke:rgb(255,0,0);stroke-width:.00002" />
    <line x1="106.805734" y1="-6.591272" x2="106.8069845" y2="-6.5912655" style="stroke:rgb(0,0,0);stroke-width:.00002" />
    <line x1="106.8069845" y1="-6.5912655" x2="106.8069845" y2="-6.5912655" style="stroke:rgb(0,0,0);stroke-width:.00002" />
    <line x1="106.8069845" y1="-6.5912655" x2="106.808235" y2="-6.591259" style="stroke:rgb(0,0,0);stroke-width:.00002" />
    <circle cx="106.805734" cy="-6.591272" fill="rgb(255,0,0)" r=".0001" />
    <text x="106.805734" y="-6.591272" stroke="rgb(0,0,0)" transform="translate(106.805734 -6.591272),scale(0.00001 -0.00001),translate(-106.805734 6.591272),translate(106.8125 -6.592499999999999),rotate(-30),translate(-106.8125 6.592499999999999)" >line-05-2</text>
    <line x1="106.808235" y1="-6.591259" x2="106.808631" y2="-6.591665" style="stroke:rgb(255,0,0);stroke-width:.00002" />
    <line x1="106.808235" y1="-6.591259" x2="106.80843300000001" y2="-6.591462" style="stroke:rgb(0,0,0);stroke-width:.00002" />
    <line x1="106.80843300000001" y1="-6.591462" x2="106.80843300000001" y2="-6.591462" style="stroke:rgb(0,0,0);stroke-width:.00002" />
    <line x1="106.80843300000001" y1="-6.591462" x2="106.808631" y2="-6.591665" style="stroke:rgb(0,0,0);stroke-width:.00002" />
    <circle cx="106.808235" cy="-6.591259" fill="rgb(255,0,0)" r=".0001" />
    <text x="106.808235" y="-6.591259" stroke="rgb(0,0,0)" transform="translate(106.808235 -6.591259),scale(0.00001 -0.00001),translate(-106.808235 6.591259),translate(106.8125 -6.592499999999999),rotate(-30),translate(-106.8125 6.592499999999999)" >line-05-3</text>
    <line x1="106.808631" y1="-6.591665" x2="106.814436" y2="-6.591868" style="stroke:rgb(255,0,0);stroke-width:.00002" />
    <line x1="106.808631" y1="-6.591665" x2="106.8115335" y2="-6.5917665" style="stroke:rgb(0,0,0);stroke-width:.00002" />
    <line x1="106.8115335" y1="-6.5917665" x2="106.8115335" y2="-6.5917665" style="stroke:rgb(0,0,0);stroke-width:.00002" />
    <line x1="106.8115335" y1="-6.5917665" x2="106.814436" y2="-6.591868" style="stroke:rgb(0,0,0);stroke-width:.00002" />
    <circle cx="106.808631" cy="-6.591665" fill="rgb(255,0,0)" r=".0001" />
    <text x="106.808631" y="-6.591665" stroke="rgb(0,0,0)" transform="translate(106.808631 -6.591665),scale(0.00001 -0.00001),translate(-106.808631 6.591665),translate(106.8125 -6.592499999999999),rotate(-30),translate(-106.8125 6.592499999999999)" >line-05-4</text>
    <line x1="106.814436" y1="-6.591868" x2="106.815571" y2="-6.591487" style="stroke:rgb(255,0,0);stroke-width:.00002" />
    <line x1="106.814436" y1="-6.591868" x2="106.8150035" y2="-6.591677499999999" style="stroke:rgb(0,0,0);stroke-width:.00002" />
    <line x1="106.8150035" y1="-6.591677499999999" x2="106.8150035" y2="-6.591677499999999" style="stroke:rgb(0,0,0);stroke-width:.00002" />
    <line x1="106.8150035" y1="-6.591677499999999" x2="106.815571" y2="-6.591487" style="stroke:rgb(0,0,0);stroke-width:.00002" />
    <circle cx="106.814436" cy="-6.591868" fill="rgb(255,0,0)" r=".0001" />
    <text x="106.814436" y="-6.591868" stroke="rgb(0,0,0)" transform="translate(106.814436 -6.591868),scale(0.00001 -0.00001),translate(-106.814436 6.591868),translate(106.8125 -6.592499999999999),rotate(-30),translate(-106.8125 6.592499999999999)" >line-05-5</text>
    <line x1="106.815571" y1="-6.591487" x2="106.816018" y2="-6.590866" style="stroke:rgb(255,0,0);stroke-width:.00002" />
    <line x1="106.815571" y1="-6.591487" x2="106.81579450000001" y2="-6.5911764999999995" style="stroke:rgb(0,0,0);stroke-width:.00002" />
    <line x1="106.81579450000001" y1="-6.5911764999999995" x2="106.81579450000001" y2="-6.5911764999999995" style="stroke:rgb(0,0,0);stroke-width:.00002" />
    <line x1="106.81579450000001" y1="-6.5911764999999995" x2="106.816018" y2="-6.590866" style="stroke:rgb(0,0,0);stroke-width:.00002" />
    <circle cx="106.815571" cy="-6.591487" fill="rgb(255,0,0)" r=".0001" />
    <text x="106.815571" y="-6.591487" stroke="rgb(0,0,0)" transform="translate(106.815571 -6.591487),scale(0.00001 -0.00001),translate(-106.815571 6.591487),translate(106.8125 -6.592499999999999),rotate(-30),translate(-106.8125 6.592499999999999)" >line-05-6</text>
    <line x1="106.816018" y1="-6.590866" x2="106.81663" y2="-6.590765" style="stroke:rgb(255,0,0);stroke-width:.00002" />
    <line x1="106.816018" y1="-6.590866" x2="106.81632400000001" y2="-6.5908155" style="stroke:rgb(0,0,0);stroke-width:.00002" />
    <line x1="106.81632400000001" y1="-6.5908155" x2="106.81632400000001" y2="-6.5908155" style="stroke:rgb(0,0,0);stroke-width:.00002" />
    <line x1="106.81632400000001" y1="-6.5908155" x2="106.81663" y2="-6.590765" style="stroke:rgb(0,0,0);stroke-width:.00002" />
    <circle cx="106.816018" cy="-6.590866" fill="rgb(255,0,0)" r=".0001" />
    <text x="106.816018" y="-6.590866" stroke="rgb(0,0,0)" transform="translate(106.816018 -6.590866),scale(0.00001 -0.00001),translate(-106.816018 6.590866),translate(106.8125 -6.592499999999999),rotate(-30),translate(-106.8125 6.592499999999999)" >line-05-7</text>
    <line x1="106.81663" y1="-6.590765" x2="106.81626" y2="-6.587305" style="stroke:rgb(255,0,0);stroke-width:.00002" />
    <line x1="106.81663" y1="-6.590765" x2="106.816445" y2="-6.589035" style="stroke:rgb(0,0,0);stroke-width:.00002" />
    <line x1="106.816445" y1="-6.589035" x2="106.816445" y2="-6.589035" style="stroke:rgb(0,0,0);stroke-width:.00002" />
    <line x1="106.816445" y1="-6.589035" x2="106.81626" y2="-6.587305" style="stroke:rgb(0,0,0);stroke-width:.00002" />
    <circle cx="106.81663" cy="-6.590765" fill="rgb(255,0,0)" r=".0001" />
    <text x="106.81663" y="-6.590765" stroke="rgb(0,0,0)" transform="translate(106.81663 -6.590765),scale(0.00001 -0.00001),translate(-106.81663 6.590765),translate(106.8125 -6.592499999999999),rotate(-30),translate(-106.8125 6.592499999999999)" >line-05-8</text>
    <line x1="106.81626" y1="-6.587305" x2="106.816886" y2="-6.590765" style="stroke:rgb(255,0,0);stroke-width:.00002" />
    <line x1="106.81626" y1="-6.587305" x2="106.816573" y2="-6.589035" style="stroke:rgb(0,0,0);stroke-width:.00002" />
    <line x1="106.816573" y1="-6.589035" x2="106.816573" y2="-6.589035" style="stroke:rgb(0,0,0);stroke-width:.00002" />
    <line x1="106.816573" y1="-6.589035" x2="106.816886" y2="-6.590765" style="stroke:rgb(0,0,0);stroke-width:.00002" />
    <circle cx="106.81626" cy="-6.587305" fill="rgb(255,0,0)" r=".0001" />
    <text x="106.81626" y="-6.587305" stroke="rgb(0,0,0)" transform="translate(106.81626 -6.587305),scale(0.00001 -0.00001),translate(-106.81626 6.587305),translate(106.8125 -6.592499999999999),rotate(-30),translate(-106.8125 6.592499999999999)" >line-05-9</text>
    <line x1="106.816886" y1="-6.590765" x2="106.818506" y2="-6.590271" style="stroke:rgb(255,0,0);stroke-width:.00002" />
    <line x1="106.816886" y1="-6.590765" x2="106.817696" y2="-6.590518" style="stroke:rgb(0,0,0);stroke-width:.00002" />
    <line x1="106.817696" y1="-6.590518" x2="106.817696" y2="-6.590518" style="stroke:rgb(0,0,0);stroke-width:.00002" />
    <line x1="106.817696" y1="-6.590518" x2="106.818506" y2="-6.590271" style="stroke:rgb(0,0,0);stroke-width:.00002" />
    <circle cx="106.816886" cy="-6.590765" fill="rgb(255,0,0)" r=".0001" />
    <text x="106.816886" y="-6.590765" stroke="rgb(0,0,0)" transform="translate(106.816886 -6.590765),scale(0.00001 -0.00001),translate(-106.816886 6.590765),translate(106.8125 -6.592499999999999),rotate(-30),translate(-106.8125 6.592499999999999)" >line-05-10</text>
    <line x1="106.818506" y1="-6.590271" x2="106.818532" y2="-6.589333" style="stroke:rgb(255,0,0);stroke-width:.00002" />
    <line x1="106.818506" y1="-6.590271" x2="106.81851900000001" y2="-6.589802000000001" style="stroke:rgb(0,0,0);stroke-width:.00002" />
    <line x1="106.81851900000001" y1="-6.589802000000001" x2="106.81851900000001" y2="-6.589802000000001" style="stroke:rgb(0,0,0);stroke-width:.00002" />
    <line x1="106.81851900000001" y1="-6.589802000000001" x2="106.818532" y2="-6.589333" style="stroke:rgb(0,0,0);stroke-width:.00002" />
    <circle cx="106.818506" cy="-6.590271" fill="rgb(255,0,0)" r=".0001" />
    <text x="106.818506" y="-6.590271" stroke="rgb(0,0,0)" transform="translate(106.818506 -6.590271),scale(0.00001 -0.00001),translate(-106.818506 6.590271),translate(106.8125 -6.592499999999999),rotate(-30),translate(-106.8125 6.592499999999999)" >line-05-11</text>
    <line x1="106.818532" y1="-6.589333" x2="106.835584" y2="-6.58996" style="stroke:rgb(255,0,0);stroke-width:.00002" />
    <line x1="106.818532" y1="-6.589333" x2="106.827058" y2="-6.5896465" style="stroke:rgb(0,0,0);stroke-width:.00002" />
    <line x1="106.827058" y1="-6.5896465" x2="106.827058" y2="-6.5896465" style="stroke:rgb(0,0,0);stroke-width:.00002" />
    <line x1="106.827058" y1="-6.5896465" x2="106.835584" y2="-6.58996" style="stroke:rgb(0,0,0);stroke-width:.00002" />
    <circle cx="106.818532" cy="-6.589333" fill="rgb(255,0,0)" r=".0001" />
    <text x="106.818532" y="-6.589333" stroke="rgb(0,0,0)" transform="translate(106.818532 -6.589333),scale(0.00001 -0.00001),translate(-106.818532 6.589333),translate(106.8125 -6.592499999999999),rotate(-30),translate(-106.8125 6.592499999999999)" >line-05-12</text>
    <line x1="106.835584" y1="-6.58996" x2="106.836451" y2="-6.588997" style="stroke:rgb(255,0,0);stroke-width:.00002" />
    <line x1="106.835584" y1="-6.58996" x2="106.8360175" y2="-6.5894785" style="stroke:rgb(0,0,0);stroke-width:.00002" />
    <line x1="106.8360175" y1="-6.5894785" x2="106.8360175" y2="-6.5894785" style="stroke:rgb(0,0,0);stroke-width:.00002" />
    <line x1="106.8360175" y1="-6.5894785" x2="106.836451" y2="-6.588997" style="stroke:rgb(0,0,0);stroke-width:.00002" />
    <circle cx="106.835584" cy="-6.58996" fill="rgb(255,0,0)" r=".0001" />
    <text x="106.835584" y="-6.58996" stroke="rgb(0,0,0)" transform="translate(106.835584 -6.58996),scale(0.00001 -0.00001),translate(-106.835584 6.58996),translate(106.8125 -6.592499999999999),rotate(-30),translate(-106.8125 6.592499999999999)" >line-05-13</text>
    <line x1="106.836451" y1="-6.588997" x2="106.841274" y2="-6.588769" style="stroke:rgb(255,0,0);stroke-width:.00002" />
    <line x1="106.836451" y1="-6.588997" x2="106.8388625" y2="-6.588883" style="stroke:rgb(0,0,0);stroke-width:.00002" />
    <line x1="106.8388625" y1="-6.588883" x2="106.8388625" y2="-6.588883" style="stroke:rgb(0,0,0);stroke-width:.00002" />
    <line x1="106.8388625" y1="-6.588883" x2="106.841274" y2="-6.588769" style="stroke:rgb(0,0,0);stroke-width:.00002" />
    <circle cx="106.836451" cy="-6.588997" fill="rgb(255,0,0)" r=".0001" />
    <text x="106.836451" y="-6.588997" stroke="rgb(0,0,0)" transform="translate(106.836451 -6.588997),scale(0.00001 -0.00001),translate(-106.836451 6.588997),translate(106.8125 -6.592499999999999),rotate(-30),translate(-106.8125 6.592499999999999)" >line-05-14</text>
    <line x1="106.841274" y1="-6.588769" x2="106.843622" y2="-6.586867" style="stroke:rgb(255,0,0);stroke-width:.00002" />
    <line x1="106.841274" y1="-6.588769" x2="106.84244799999999" y2="-6.587818" style="stroke:rgb(0,0,0);stroke-width:.00002" />
    <line x1="106.84244799999999" y1="-6.587818" x2="106.84244799999999" y2="-6.587818" style="stroke:rgb(0,0,0);stroke-width:.00002" />
    <line x1="106.84244799999999" y1="-6.587818" x2="106.843622" y2="-6.586867" style="stroke:rgb(0,0,0);stroke-width:.00002" />
    <circle cx="106.841274" cy="-6.588769" fill="rgb(255,0,0)" r=".0001" />
    <text x="106.841274" y="-6.588769" stroke="rgb(0,0,0)" transform="translate(106.841274 -6.588769),scale(0.00001 -0.00001),translate(-106.841274 6.588769),translate(106.8125 -6.592499999999999),rotate(-30),translate(-106.8125 6.592499999999999)" >line-05-15</text>
    <line x1="106.843622" y1="-6.586867" x2="106.848445" y2="-6.585347" style="stroke:rgb(255,0,0);stroke-width:.00002" />
    <line x1="106.843622" y1="-6.586867" x2="106.8460335" y2="-6.586107" style="stroke:rgb(0,0,0);stroke-width:.00002" />
    <line x1="106.8460335" y1="-6.586107" x2="106.8460335" y2="-6.586107" style="stroke:rgb(0,0,0);stroke-width:.00002" />
    <line x1="106.8460335" y1="-6.586107" x2="106.848445" y2="-6.585347" style="stroke:rgb(0,0,0);stroke-width:.00002" />
    <circle cx="106.843622" cy="-6.586867" fill="rgb(255,0,0)" r=".0001" />
    <text x="106.843622" y="-6.586867" stroke="rgb(0,0,0)" transform="translate(106.843622 -6.586867),scale(0.00001 -0.00001),translate(-106.843622 6.586867),translate(106.8125 -6.592499999999999),rotate(-30),translate(-106.8125 6.592499999999999)" >line-05-16</text>
    <line x1="106.848445" y1="-6.585347" x2="106.853089" y2="-6.586791" style="stroke:rgb(255,0,0);stroke-width:.00002" />
    <line x1="106.848445" y1="-6.585347" x2="106.85076699999999" y2="-6.586069" style="stroke:rgb(0,0,0);stroke-width:.00002" />
    <line x1="106.85076699999999" y1="-6.586069" x2="106.85076699999999" y2="-6.586069" style="stroke:rgb(0,0,0);stroke-width:.00002" />
    <line x1="106.85076699999999" y1="-6.586069" x2="106.853089" y2="-6.586791" style="stroke:rgb(0,0,0);stroke-width:.00002" />
    <circle cx="106.848445" cy="-6.585347" fill="rgb(255,0,0)" r=".0001" />
    <text x="106.848445" y="-6.585347" stroke="rgb(0,0,0)" transform="translate(106.848445 -6.585347),scale(0.00001 -0.00001),translate(-106.848445 6.585347),translate(106.8125 -6.592499999999999),rotate(-30),translate(-106.8125 6.592499999999999)" >line-05-17</text>
    <line x1="106.853089" y1="-6.586791" x2="106.852374" y2="-6.587577" style="stroke:rgb(255,0,0);stroke-width:.00002" />
    <line x1="106.853089" y1="-6.586791" x2="106.8527315" y2="-6.587184" style="stroke:rgb(0,0,0);stroke-width:.00002" />
    <line x1="106.8527315" y1="-6.587184" x2="106.8527315" y2="-6.587184" style="stroke:rgb(0,0,0);stroke-width:.00002" />
    <line x1="106.8527315" y1="-6.587184" x2="106.852374" y2="-6.587577" style="stroke:rgb(0,0,0);stroke-width:.00002" />
    <circle cx="106.853089" cy="-6.586791" fill="rgb(255,0,0)" r=".0001" />
    <text x="106.853089" y="-6.586791" stroke="rgb(0,0,0)" transform="translate(106.853089 -6.586791),scale(0.00001 -0.00001),translate(-106.853089 6.586791),translate(106.8125 -6.592499999999999),rotate(-30),translate(-106.8125 6.592499999999999)" >line-05-18</text>
    <line x1="106.852374" y1="-6.587577" x2="106.853956" y2="-6.590138" style="stroke:rgb(255,0,0);stroke-width:.00002" />
    <line x1="106.852374" y1="-6.587577" x2="106.85316499999999" y2="-6.5888575" style="stroke:rgb(0,0,0);stroke-width:.00002" />
    <line x1="106.85316499999999" y1="-6.5888575" x2="106.85316499999999" y2="-6.5888575" style="stroke:rgb(0,0,0);stroke-width:.00002" />
    <line x1="106.85316499999999" y1="-6.5888575" x2="106.853956" y2="-6.590138" style="stroke:rgb(0,0,0);stroke-width:.00002" />
    <circle cx="106.852374" cy="-6.587577" fill="rgb(255,0,0)" r=".0001" />
    <text x="106.852374" y="-6.587577" stroke="rgb(0,0,0)" transform="translate(106.852374 -6.587577),scale(0.00001 -0.00001),translate(-106.852374 6.587577),translate(106.8125 -6.592499999999999),rotate(-30),translate(-106.8125 6.592499999999999)" >line-05-19</text>
    <line x1="106.853956" y1="-6.590138" x2="106.859979" y2="-6.591304" style="stroke:rgb(255,0,0);stroke-width:.00002" />
    <line x1="106.853956" y1="-6.590138" x2="106.8569675" y2="-6.590721" style="stroke:rgb(0,0,0);stroke-width:.00002" />
    <line x1="106.8569675" y1="-6.590721" x2="106.8569675" y2="-6.590721" style="stroke:rgb(0,0,0);stroke-width:.00002" />
    <line x1="106.8569675" y1="-6.590721" x2="106.859979" y2="-6.591304" style="stroke:rgb(0,0,0);stroke-width:.00002" />
    <circle cx="106.853956" cy="-6.590138" fill="rgb(255,0,0)" r=".0001" />
    <text x="106.853956" y="-6.590138" stroke="rgb(0,0,0)" transform="translate(106.853956 -6.590138),scale(0.00001 -0.00001),translate(-106.853956 6.590138),translate(106.8125 -6.592499999999999),rotate(-30),translate(-106.8125 6.592499999999999)" >line-05-20</text>
    <line x1="106.859979" y1="-6.591304" x2="106.865159" y2="-6.589352" style="stroke:rgb(255,0,0);stroke-width:.00002" />
    <line x1="106.859979" y1="-6.591304" x2="106.86256900000001" y2="-6.5903279999999995" style="stroke:rgb(0,0,0);stroke-width:.00002" />
    <line x1="106.86256900000001" y1="-6.5903279999999995" x2="106.86256900000001" y2="-6.5903279999999995" style="stroke:rgb(0,0,0);stroke-width:.00002" />
    <line x1="106.86256900000001" y1="-6.5903279999999995" x2="106.865159" y2="-6.589352" style="stroke:rgb(0,0,0);stroke-width:.00002" />
    <circle cx="106.859979" cy="-6.591304" fill="rgb(255,0,0)" r=".0001" />
    <text x="106.859979" y="-6.591304" stroke="rgb(0,0,0)" transform="translate(106.859979 -6.591304),scale(0.00001 -0.00001),translate(-106.859979 6.591304),translate(106.8125 -6.592499999999999),rotate(-30),translate(-106.8125 6.592499999999999)" >line-05-21</text>
    <line x1="106.865159" y1="-6.589352" x2="106.859979" y2="-6.591304" style="stroke:rgb(255,0,0);stroke-width:.00002" />
    <line x1="106.865159" y1="-6.589352" x2="106.86256900000001" y2="-6.5903279999999995" style="stroke:rgb(0,0,0);stroke-width:.00002" />
    <line x1="106.86256900000001" y1="-6.5903279999999995" x2="106.86256900000001" y2="-6.5903279999999995" style="stroke:rgb(0,0,0);stroke-width:.00002" />
    <line x1="106.86256900000001" y1="-6.5903279999999995" x2="106.859979" y2="-6.591304" style="stroke:rgb(0,0,0);stroke-width:.00002" />
    <circle cx="106.865159" cy="-6.589352" fill="rgb(255,0,0)" r=".0001" />
    <text x="106.865159" y="-6.589352" stroke="rgb(0,0,0)" transform="translate(106.865159 -6.589352),scale(0.00001 -0.00001),translate(-106.865159 6.589352),translate(106.8125 -6.592499999999999),rotate(-30),translate(-106.8125 6.592499999999999)" >line-05-22</text>
  </g>
</svg>
