<svg width="1049.9999999998977" height="1849.9999999999961" xmlns="http://www.w3.org/2000/svg" xmlns:xlink="http://www.w3.org/1999/xlink" >
  <g transform="translate(524.9999999999488 924.9999999999981) rotate(30) scale(10000 -10000) translate(-106.8125 6.592499999999999)">
    <path d="M106.76 -6.5 L106.865 -6.5 L106.865 -6.685 L106.76 -6.685 Z" fill="none" stroke="black" stroke-width="0.0005" transform="translate(106.8125 -6.592499999999999) rotate(30) translate(-106.8125 6.592499999999999)" />
    <path d="M106.80513858791106 -6.588455563323016 L106.80611706484093 -6.588710902920255 L106.80601321296207 -6.589977056635226 L106.80599937402893 -6.592470832389027 L106.80498479870035 -6.592492026969006 L106.8048784423855 -6.594459618793887 L106.80616022757812 -6.60247077624783 L106.80684364304888 -6.603923034123191 L106.81861738296968 -6.59680402858969 L106.80736006533691 -6.6046841509326395 L106.8130876571116 -6.612450377067808 L106.81459312987135 -6.6160635116912525 L106.81639194083805 -6.620960274878331 L106.81652167605134 -6.621219745304906 L106.8162 -6.621541421356235 L106.81581076658313 -6.621152187939364 L106.81440534743936 -6.6161328338544845 L106.81291223269002 -6.612549358456062 L106.80872655139191 -6.606806214349351 L106.80797920400339 -6.60712650608729 L106.80735263934714 -6.606708796316462 L106.80660118951677 -6.60681614629223 L106.80569080975748 -6.6054 L106.80494055630776 -6.6054 L106.80414892661706 -6.601936620103208 L106.80040749783747 -6.6027326687797165 L106.79657280672842 -6.6047161296981916 L106.79554508190037 -6.604030979812829 L106.79301068206499 -6.596744580286108 L106.7940891629604 -6.593868631231689 L106.79715521644393 -6.592165268185284 L106.79838163726149 -6.592722732193266 L106.80078078581116 -6.591492348637144 L106.80180045620475 -6.591908645521625 L106.80314668231624 -6.592933697030656 L106.80441926104082 -6.591960548594205 L106.80470188591589 -6.58856905009353 L106.8073138038597 -6.577250739003689 L106.80914901312846 -6.568909885000697 L106.80689550311398 -6.580842264110407 Z" stroke="purple" stroke-width="0.0001" fill="none" />
  </g>
</svg>
