<svg width="1049.9999999998977" height="1849.9999999999961" xmlns="http://www.w3.org/2000/svg" xmlns:xlink="http://www.w3.org/1999/xlink" >
  <g transform="translate(524.9999999999488 924.9999999999981) rotate(30) scale(10000 -10000) translate(-106.8125 6.592499999999999)">
    <path d="M106.76 -6.5 L106.865 -6.5 L106.865 -6.685 L106.76 -6.685 Z" fill="none" stroke="black" stroke-width="0.001" transform="translate(106.8125 -6.592499999999999) rotate(30) translate(-106.8125 6.592499999999999)" />
    <path d="M106.78953889821963 -6.596478190398752 L106.78818081998158 -6.596060320171657 L106.78816826585336 -6.596058821610181 L106.78449531651673 -6.595691526676517 L106.78268762150412 -6.594878063920837 L106.78083728679108 -6.596728398633868 L106.77948110675324 -6.596502368627558 L106.77914580116588 -6.596526319026655 L106.77178271486419 -6.587959522818615 L106.7714167285195 -6.586087010966387 L106.77078008148827 -6.585129280389064 L106.76713971060157 -6.5806979010781435 L106.76349774540132 -6.580924007630676 L106.75306087499176 -6.576561479302586 L106.75080293908533 -6.573505118637499 L106.755373 -6.571011 L106.75195106091466 -6.573712881362506 L106.75357312500823 -6.575908520697412 L106.76363425459867 -6.5801139923693235 L106.76749828939842 -6.579874098921858 L106.77142391851174 -6.5846527196109585 L106.7721712714805 -6.585776989033586 L106.77252728513581 -6.587598477181402 L106.77949019883413 -6.595699680973344 L106.77951889324676 -6.595697631372442 L106.78056271320891 -6.595871601366132 L106.78251237849588 -6.593921936079159 L106.78469431662661 -6.594903808237992 L106.78668769647255 -6.594970471534133 L106.78567096014046 -6.592530304337092 L106.78811986126354 -6.592730202803912 L106.78873332418853 -6.595184054503897 L106.78980740118693 -6.595514539734172 L106.7934238293489 -6.596418646774662 L106.79409441396987 -6.594094505785121 L106.79727297289328 -6.592328639716563 L106.79838426050985 -6.592833770451368 L106.8008769368976 -6.591555421914492 L106.80172664810577 -6.592338956956405 L106.80190966997937 -6.59190233614683 L106.80187085913553 -6.591229013134982 L106.80143682629311 -6.58992589094535 L106.80162187119468 -6.589188099015236 L106.80228017057503 -6.588639516198284 L106.8029313159897 -6.5882054192551704 L106.80412742025884 -6.588096682503431 L106.80511187224319 -6.5884658519975625 L106.80479974179873 -6.592211417330929 L106.80499199861278 -6.5957993831604025 L106.80539571027252 -6.600846176973431 L106.80688645402064 -6.604014007438193 L106.81611158864635 -6.598436019059862 L106.80739451150473 -6.604537973059011 L106.810059989952 -6.60767942980044 L106.81250361982843 -6.611344874615061 L106.80864375470877 -6.606841698642127 L106.80797920400339 -6.607126506087292 L106.80735263934714 -6.606708796316461 L106.80660118951677 -6.60681614629223 L106.80569080975748 -6.6054 L106.80494792027147 -6.6054 L106.80404642243893 -6.602124417580721 L106.79987394238992 -6.603117371740046 L106.79968302452865 -6.603244650314236 L106.79888972255053 -6.603278873366271 L106.79734614836624 -6.604119641429087 L106.79678246811278 -6.6043822191011134 L106.7956346174863 -6.604288394622383 L106.79323984628365 -6.597403427414755 Z" stroke="blue" stroke-width="0.0002" fill="none" />
    <circle 
      cx="106.78953889821963" cy="-12.596478190398752"
      r="15" transform="translate(106.78953889821963 -6.596478190398752) scale(0.00001 -0.00001) translate(-106.78953889821963 6.596478190398752) translate(106.8125 -6.592499999999999) rotate(-30) translate(-106.8125 6.592499999999999)"
      fill="white" stroke="black" stroke-width="2"/>
    <circle 
      cx="106.78816826585336" cy="-12.596058821610182"
      r="15" transform="translate(106.78816826585336 -6.596058821610181) scale(0.00001 -0.00001) translate(-106.78816826585336 6.596058821610181) translate(106.8125 -6.592499999999999) rotate(-30) translate(-106.8125 6.592499999999999)"
      fill="white" stroke="black" stroke-width="2"/>
    <circle 
      cx="106.77914580116588" cy="-12.596526319026655"
      r="15" transform="translate(106.77914580116588 -6.596526319026655) scale(0.00001 -0.00001) translate(-106.77914580116588 6.596526319026655) translate(106.8125 -6.592499999999999) rotate(-30) translate(-106.8125 6.592499999999999)"
      fill="white" stroke="black" stroke-width="2"/>
    <circle 
      cx="106.77078008148827" cy="-12.585129280389065"
      r="15" transform="translate(106.77078008148827 -6.585129280389064) scale(0.00001 -0.00001) translate(-106.77078008148827 6.585129280389064) translate(106.8125 -6.592499999999999) rotate(-30) translate(-106.8125 6.592499999999999)"
      fill="white" stroke="black" stroke-width="2"/>
    <circle 
      cx="106.77142391851174" cy="-12.584652719610958"
      r="15" transform="translate(106.77142391851174 -6.5846527196109585) scale(0.00001 -0.00001) translate(-106.77142391851174 6.5846527196109585) translate(106.8125 -6.592499999999999) rotate(-30) translate(-106.8125 6.592499999999999)"
      fill="white" stroke="black" stroke-width="2"/>
    <circle 
      cx="106.77949019883413" cy="-12.595699680973343"
      r="15" transform="translate(106.77949019883413 -6.595699680973344) scale(0.00001 -0.00001) translate(-106.77949019883413 6.595699680973344) translate(106.8125 -6.592499999999999) rotate(-30) translate(-106.8125 6.592499999999999)"
      fill="white" stroke="black" stroke-width="2"/>
    <circle 
      cx="106.78668769647255" cy="-12.594970471534133"
      r="15" transform="translate(106.78668769647255 -6.594970471534133) scale(0.00001 -0.00001) translate(-106.78668769647255 6.594970471534133) translate(106.8125 -6.592499999999999) rotate(-30) translate(-106.8125 6.592499999999999)"
      fill="white" stroke="black" stroke-width="2"/>
    <circle 
      cx="106.78811986126354" cy="-12.592730202803912"
      r="15" transform="translate(106.78811986126354 -6.592730202803912) scale(0.00001 -0.00001) translate(-106.78811986126354 6.592730202803912) translate(106.8125 -6.592499999999999) rotate(-30) translate(-106.8125 6.592499999999999)"
      fill="white" stroke="black" stroke-width="2"/>
    <circle 
      cx="106.78980740118693" cy="-12.595514539734172"
      r="15" transform="translate(106.78980740118693 -6.595514539734172) scale(0.00001 -0.00001) translate(-106.78980740118693 6.595514539734172) translate(106.8125 -6.592499999999999) rotate(-30) translate(-106.8125 6.592499999999999)"
      fill="white" stroke="black" stroke-width="2"/>
    <circle 
      cx="106.7934238293489" cy="-12.596418646774662"
      r="15" transform="translate(106.7934238293489 -6.596418646774662) scale(0.00001 -0.00001) translate(-106.7934238293489 6.596418646774662) translate(106.8125 -6.592499999999999) rotate(-30) translate(-106.8125 6.592499999999999)"
      fill="white" stroke="black" stroke-width="2"/>
    <circle 
      cx="106.79409441396987" cy="-12.59409450578512"
      r="15" transform="translate(106.79409441396987 -6.594094505785121) scale(0.00001 -0.00001) translate(-106.79409441396987 6.594094505785121) translate(106.8125 -6.592499999999999) rotate(-30) translate(-106.8125 6.592499999999999)"
      fill="white" stroke="black" stroke-width="2"/>
    <circle 
      cx="106.79727297289328" cy="-12.592328639716563"
      r="15" transform="translate(106.79727297289328 -6.592328639716563) scale(0.00001 -0.00001) translate(-106.79727297289328 6.592328639716563) translate(106.8125 -6.592499999999999) rotate(-30) translate(-106.8125 6.592499999999999)"
      fill="white" stroke="black" stroke-width="2"/>
    <circle 
      cx="106.80172664810577" cy="-12.592338956956404"
      r="15" transform="translate(106.80172664810577 -6.592338956956405) scale(0.00001 -0.00001) translate(-106.80172664810577 6.592338956956405) translate(106.8125 -6.592499999999999) rotate(-30) translate(-106.8125 6.592499999999999)"
      fill="white" stroke="black" stroke-width="2"/>
    <circle 
      cx="106.80162187119468" cy="-12.589188099015235"
      r="15" transform="translate(106.80162187119468 -6.589188099015236) scale(0.00001 -0.00001) translate(-106.80162187119468 6.589188099015236) translate(106.8125 -6.592499999999999) rotate(-30) translate(-106.8125 6.592499999999999)"
      fill="white" stroke="black" stroke-width="2"/>
    <circle 
      cx="106.80479974179873" cy="-12.59221141733093"
      r="15" transform="translate(106.80479974179873 -6.592211417330929) scale(0.00001 -0.00001) translate(-106.80479974179873 6.592211417330929) translate(106.8125 -6.592499999999999) rotate(-30) translate(-106.8125 6.592499999999999)"
      fill="white" stroke="black" stroke-width="2"/>
    <circle 
      cx="106.80499199861278" cy="-12.595799383160402"
      r="15" transform="translate(106.80499199861278 -6.5957993831604025) scale(0.00001 -0.00001) translate(-106.80499199861278 6.5957993831604025) translate(106.8125 -6.592499999999999) rotate(-30) translate(-106.8125 6.592499999999999)"
      fill="white" stroke="black" stroke-width="2"/>
    <circle 
      cx="106.80539571027252" cy="-12.60084617697343"
      r="15" transform="translate(106.80539571027252 -6.600846176973431) scale(0.00001 -0.00001) translate(-106.80539571027252 6.600846176973431) translate(106.8125 -6.592499999999999) rotate(-30) translate(-106.8125 6.592499999999999)"
      fill="white" stroke="black" stroke-width="2"/>
    <circle 
      cx="106.80688645402064" cy="-12.604014007438192"
      r="15" transform="translate(106.80688645402064 -6.604014007438193) scale(0.00001 -0.00001) translate(-106.80688645402064 6.604014007438193) translate(106.8125 -6.592499999999999) rotate(-30) translate(-106.8125 6.592499999999999)"
      fill="white" stroke="black" stroke-width="2"/>
    <circle 
      cx="106.80739451150473" cy="-12.60453797305901"
      r="15" transform="translate(106.80739451150473 -6.604537973059011) scale(0.00001 -0.00001) translate(-106.80739451150473 6.604537973059011) translate(106.8125 -6.592499999999999) rotate(-30) translate(-106.8125 6.592499999999999)"
      fill="white" stroke="black" stroke-width="2"/>
    <circle 
      cx="106.81250361982843" cy="-12.61134487461506"
      r="15" transform="translate(106.81250361982843 -6.611344874615061) scale(0.00001 -0.00001) translate(-106.81250361982843 6.611344874615061) translate(106.8125 -6.592499999999999) rotate(-30) translate(-106.8125 6.592499999999999)"
      fill="white" stroke="black" stroke-width="2"/>
    <circle 
      cx="106.80864375470877" cy="-12.606841698642127"
      r="15" transform="translate(106.80864375470877 -6.606841698642127) scale(0.00001 -0.00001) translate(-106.80864375470877 6.606841698642127) translate(106.8125 -6.592499999999999) rotate(-30) translate(-106.8125 6.592499999999999)"
      fill="white" stroke="black" stroke-width="2"/>
    <circle 
      cx="106.80404642243893" cy="-12.602124417580722"
      r="15" transform="translate(106.80404642243893 -6.602124417580721) scale(0.00001 -0.00001) translate(-106.80404642243893 6.602124417580721) translate(106.8125 -6.592499999999999) rotate(-30) translate(-106.8125 6.592499999999999)"
      fill="white" stroke="black" stroke-width="2"/>
    <circle 
      cx="106.79987394238992" cy="-12.603117371740046"
      r="15" transform="translate(106.79987394238992 -6.603117371740046) scale(0.00001 -0.00001) translate(-106.79987394238992 6.603117371740046) translate(106.8125 -6.592499999999999) rotate(-30) translate(-106.8125 6.592499999999999)"
      fill="white" stroke="black" stroke-width="2"/>
    <circle 
      cx="106.79968302452865" cy="-12.603244650314236"
      r="15" transform="translate(106.79968302452865 -6.603244650314236) scale(0.00001 -0.00001) translate(-106.79968302452865 6.603244650314236) translate(106.8125 -6.592499999999999) rotate(-30) translate(-106.8125 6.592499999999999)"
      fill="white" stroke="black" stroke-width="2"/>
    <circle 
      cx="106.79888972255053" cy="-12.603278873366271"
      r="15" transform="translate(106.79888972255053 -6.603278873366271) scale(0.00001 -0.00001) translate(-106.79888972255053 6.603278873366271) translate(106.8125 -6.592499999999999) rotate(-30) translate(-106.8125 6.592499999999999)"
      fill="white" stroke="black" stroke-width="2"/>
    <circle 
      cx="106.79734614836624" cy="-12.604119641429087"
      r="15" transform="translate(106.79734614836624 -6.604119641429087) scale(0.00001 -0.00001) translate(-106.79734614836624 6.604119641429087) translate(106.8125 -6.592499999999999) rotate(-30) translate(-106.8125 6.592499999999999)"
      fill="white" stroke="black" stroke-width="2"/>
    <circle 
      cx="106.79678246811278" cy="-12.604382219101113"
      r="15" transform="translate(106.79678246811278 -6.6043822191011134) scale(0.00001 -0.00001) translate(-106.79678246811278 6.6043822191011134) translate(106.8125 -6.592499999999999) rotate(-30) translate(-106.8125 6.592499999999999)"
      fill="white" stroke="black" stroke-width="2"/>
    <circle 
      cx="106.7956346174863" cy="-12.604288394622383"
      r="15" transform="translate(106.7956346174863 -6.604288394622383) scale(0.00001 -0.00001) translate(-106.7956346174863 6.604288394622383) translate(106.8125 -6.592499999999999) rotate(-30) translate(-106.8125 6.592499999999999)"
      fill="white" stroke="black" stroke-width="2"/>
    <circle 
      cx="106.79323984628365" cy="-12.597403427414754"
      r="15" transform="translate(106.79323984628365 -6.597403427414755) scale(0.00001 -0.00001) translate(-106.79323984628365 6.597403427414755) translate(106.8125 -6.592499999999999) rotate(-30) translate(-106.8125 6.592499999999999)"
      fill="white" stroke="black" stroke-width="2"/>
    <circle 
      cx="106.78953889821963" cy="-12.596478190398752"
      r="15" transform="translate(106.78953889821963 -6.596478190398752) scale(0.00001 -0.00001) translate(-106.78953889821963 6.596478190398752) translate(106.8125 -6.592499999999999) rotate(-30) translate(-106.8125 6.592499999999999)"
      fill="white" stroke="none"/>
    <circle 
      cx="106.78816826585336" cy="-12.596058821610182"
      r="15" transform="translate(106.78816826585336 -6.596058821610181) scale(0.00001 -0.00001) translate(-106.78816826585336 6.596058821610181) translate(106.8125 -6.592499999999999) rotate(-30) translate(-106.8125 6.592499999999999)"
      fill="white" stroke="none"/>
    <circle 
      cx="106.77914580116588" cy="-12.596526319026655"
      r="15" transform="translate(106.77914580116588 -6.596526319026655) scale(0.00001 -0.00001) translate(-106.77914580116588 6.596526319026655) translate(106.8125 -6.592499999999999) rotate(-30) translate(-106.8125 6.592499999999999)"
      fill="white" stroke="none"/>
    <circle 
      cx="106.77078008148827" cy="-12.585129280389065"
      r="15" transform="translate(106.77078008148827 -6.585129280389064) scale(0.00001 -0.00001) translate(-106.77078008148827 6.585129280389064) translate(106.8125 -6.592499999999999) rotate(-30) translate(-106.8125 6.592499999999999)"
      fill="white" stroke="none"/>
    <circle 
      cx="106.77142391851174" cy="-12.584652719610958"
      r="15" transform="translate(106.77142391851174 -6.5846527196109585) scale(0.00001 -0.00001) translate(-106.77142391851174 6.5846527196109585) translate(106.8125 -6.592499999999999) rotate(-30) translate(-106.8125 6.592499999999999)"
      fill="white" stroke="none"/>
    <circle 
      cx="106.77949019883413" cy="-12.595699680973343"
      r="15" transform="translate(106.77949019883413 -6.595699680973344) scale(0.00001 -0.00001) translate(-106.77949019883413 6.595699680973344) translate(106.8125 -6.592499999999999) rotate(-30) translate(-106.8125 6.592499999999999)"
      fill="white" stroke="none"/>
    <circle 
      cx="106.78668769647255" cy="-12.594970471534133"
      r="15" transform="translate(106.78668769647255 -6.594970471534133) scale(0.00001 -0.00001) translate(-106.78668769647255 6.594970471534133) translate(106.8125 -6.592499999999999) rotate(-30) translate(-106.8125 6.592499999999999)"
      fill="white" stroke="none"/>
    <circle 
      cx="106.78811986126354" cy="-12.592730202803912"
      r="15" transform="translate(106.78811986126354 -6.592730202803912) scale(0.00001 -0.00001) translate(-106.78811986126354 6.592730202803912) translate(106.8125 -6.592499999999999) rotate(-30) translate(-106.8125 6.592499999999999)"
      fill="white" stroke="none"/>
    <circle 
      cx="106.78980740118693" cy="-12.595514539734172"
      r="15" transform="translate(106.78980740118693 -6.595514539734172) scale(0.00001 -0.00001) translate(-106.78980740118693 6.595514539734172) translate(106.8125 -6.592499999999999) rotate(-30) translate(-106.8125 6.592499999999999)"
      fill="white" stroke="none"/>
    <circle 
      cx="106.7934238293489" cy="-12.596418646774662"
      r="15" transform="translate(106.7934238293489 -6.596418646774662) scale(0.00001 -0.00001) translate(-106.7934238293489 6.596418646774662) translate(106.8125 -6.592499999999999) rotate(-30) translate(-106.8125 6.592499999999999)"
      fill="white" stroke="none"/>
    <circle 
      cx="106.79409441396987" cy="-12.59409450578512"
      r="15" transform="translate(106.79409441396987 -6.594094505785121) scale(0.00001 -0.00001) translate(-106.79409441396987 6.594094505785121) translate(106.8125 -6.592499999999999) rotate(-30) translate(-106.8125 6.592499999999999)"
      fill="white" stroke="none"/>
    <circle 
      cx="106.79727297289328" cy="-12.592328639716563"
      r="15" transform="translate(106.79727297289328 -6.592328639716563) scale(0.00001 -0.00001) translate(-106.79727297289328 6.592328639716563) translate(106.8125 -6.592499999999999) rotate(-30) translate(-106.8125 6.592499999999999)"
      fill="white" stroke="none"/>
    <circle 
      cx="106.80172664810577" cy="-12.592338956956404"
      r="15" transform="translate(106.80172664810577 -6.592338956956405) scale(0.00001 -0.00001) translate(-106.80172664810577 6.592338956956405) translate(106.8125 -6.592499999999999) rotate(-30) translate(-106.8125 6.592499999999999)"
      fill="white" stroke="none"/>
    <circle 
      cx="106.80162187119468" cy="-12.589188099015235"
      r="15" transform="translate(106.80162187119468 -6.589188099015236) scale(0.00001 -0.00001) translate(-106.80162187119468 6.589188099015236) translate(106.8125 -6.592499999999999) rotate(-30) translate(-106.8125 6.592499999999999)"
      fill="white" stroke="none"/>
    <circle 
      cx="106.80479974179873" cy="-12.59221141733093"
      r="15" transform="translate(106.80479974179873 -6.592211417330929) scale(0.00001 -0.00001) translate(-106.80479974179873 6.592211417330929) translate(106.8125 -6.592499999999999) rotate(-30) translate(-106.8125 6.592499999999999)"
      fill="white" stroke="none"/>
    <circle 
      cx="106.80499199861278" cy="-12.595799383160402"
      r="15" transform="translate(106.80499199861278 -6.5957993831604025) scale(0.00001 -0.00001) translate(-106.80499199861278 6.5957993831604025) translate(106.8125 -6.592499999999999) rotate(-30) translate(-106.8125 6.592499999999999)"
      fill="white" stroke="none"/>
    <circle 
      cx="106.80539571027252" cy="-12.60084617697343"
      r="15" transform="translate(106.80539571027252 -6.600846176973431) scale(0.00001 -0.00001) translate(-106.80539571027252 6.600846176973431) translate(106.8125 -6.592499999999999) rotate(-30) translate(-106.8125 6.592499999999999)"
      fill="white" stroke="none"/>
    <circle 
      cx="106.80688645402064" cy="-12.604014007438192"
      r="15" transform="translate(106.80688645402064 -6.604014007438193) scale(0.00001 -0.00001) translate(-106.80688645402064 6.604014007438193) translate(106.8125 -6.592499999999999) rotate(-30) translate(-106.8125 6.592499999999999)"
      fill="white" stroke="none"/>
    <circle 
      cx="106.80739451150473" cy="-12.60453797305901"
      r="15" transform="translate(106.80739451150473 -6.604537973059011) scale(0.00001 -0.00001) translate(-106.80739451150473 6.604537973059011) translate(106.8125 -6.592499999999999) rotate(-30) translate(-106.8125 6.592499999999999)"
      fill="white" stroke="none"/>
    <circle 
      cx="106.81250361982843" cy="-12.61134487461506"
      r="15" transform="translate(106.81250361982843 -6.611344874615061) scale(0.00001 -0.00001) translate(-106.81250361982843 6.611344874615061) translate(106.8125 -6.592499999999999) rotate(-30) translate(-106.8125 6.592499999999999)"
      fill="white" stroke="none"/>
    <circle 
      cx="106.80864375470877" cy="-12.606841698642127"
      r="15" transform="translate(106.80864375470877 -6.606841698642127) scale(0.00001 -0.00001) translate(-106.80864375470877 6.606841698642127) translate(106.8125 -6.592499999999999) rotate(-30) translate(-106.8125 6.592499999999999)"
      fill="white" stroke="none"/>
    <circle 
      cx="106.80404642243893" cy="-12.602124417580722"
      r="15" transform="translate(106.80404642243893 -6.602124417580721) scale(0.00001 -0.00001) translate(-106.80404642243893 6.602124417580721) translate(106.8125 -6.592499999999999) rotate(-30) translate(-106.8125 6.592499999999999)"
      fill="white" stroke="none"/>
    <circle 
      cx="106.79987394238992" cy="-12.603117371740046"
      r="15" transform="translate(106.79987394238992 -6.603117371740046) scale(0.00001 -0.00001) translate(-106.79987394238992 6.603117371740046) translate(106.8125 -6.592499999999999) rotate(-30) translate(-106.8125 6.592499999999999)"
      fill="white" stroke="none"/>
    <circle 
      cx="106.79968302452865" cy="-12.603244650314236"
      r="15" transform="translate(106.79968302452865 -6.603244650314236) scale(0.00001 -0.00001) translate(-106.79968302452865 6.603244650314236) translate(106.8125 -6.592499999999999) rotate(-30) translate(-106.8125 6.592499999999999)"
      fill="white" stroke="none"/>
    <circle 
      cx="106.79888972255053" cy="-12.603278873366271"
      r="15" transform="translate(106.79888972255053 -6.603278873366271) scale(0.00001 -0.00001) translate(-106.79888972255053 6.603278873366271) translate(106.8125 -6.592499999999999) rotate(-30) translate(-106.8125 6.592499999999999)"
      fill="white" stroke="none"/>
    <circle 
      cx="106.79734614836624" cy="-12.604119641429087"
      r="15" transform="translate(106.79734614836624 -6.604119641429087) scale(0.00001 -0.00001) translate(-106.79734614836624 6.604119641429087) translate(106.8125 -6.592499999999999) rotate(-30) translate(-106.8125 6.592499999999999)"
      fill="white" stroke="none"/>
    <circle 
      cx="106.79678246811278" cy="-12.604382219101113"
      r="15" transform="translate(106.79678246811278 -6.6043822191011134) scale(0.00001 -0.00001) translate(-106.79678246811278 6.6043822191011134) translate(106.8125 -6.592499999999999) rotate(-30) translate(-106.8125 6.592499999999999)"
      fill="white" stroke="none"/>
    <circle 
      cx="106.7956346174863" cy="-12.604288394622383"
      r="15" transform="translate(106.7956346174863 -6.604288394622383) scale(0.00001 -0.00001) translate(-106.7956346174863 6.604288394622383) translate(106.8125 -6.592499999999999) rotate(-30) translate(-106.8125 6.592499999999999)"
      fill="white" stroke="none"/>
    <circle 
      cx="106.79323984628365" cy="-12.597403427414754"
      r="15" transform="translate(106.79323984628365 -6.597403427414755) scale(0.00001 -0.00001) translate(-106.79323984628365 6.597403427414755) translate(106.8125 -6.592499999999999) rotate(-30) translate(-106.8125 6.592499999999999)"
      fill="white" stroke="none"/>
    <text x="106.78953889821963" y="-6.596478190398752" fill="black" text-anchor="middle" transform="translate(106.78953889821963 -6.596478190398752) scale(0.00001 -0.00001) translate(-106.78953889821963 6.596478190398752) translate(106.8125 -6.592499999999999) rotate(-30) translate(-106.8125 6.592499999999999)">03</text>
    <text x="106.78816826585336" y="-6.596058821610181" fill="black" text-anchor="middle" transform="translate(106.78816826585336 -6.596058821610181) scale(0.00001 -0.00001) translate(-106.78816826585336 6.596058821610181) translate(106.8125 -6.592499999999999) rotate(-30) translate(-106.8125 6.592499999999999)">03</text>
    <text x="106.77914580116588" y="-6.596526319026655" fill="black" text-anchor="middle" transform="translate(106.77914580116588 -6.596526319026655) scale(0.00001 -0.00001) translate(-106.77914580116588 6.596526319026655) translate(106.8125 -6.592499999999999) rotate(-30) translate(-106.8125 6.592499999999999)">03</text>
    <text x="106.77078008148827" y="-6.585129280389064" fill="black" text-anchor="middle" transform="translate(106.77078008148827 -6.585129280389064) scale(0.00001 -0.00001) translate(-106.77078008148827 6.585129280389064) translate(106.8125 -6.592499999999999) rotate(-30) translate(-106.8125 6.592499999999999)">03</text>
    <text x="106.77142391851174" y="-6.5846527196109585" fill="black" text-anchor="middle" transform="translate(106.77142391851174 -6.5846527196109585) scale(0.00001 -0.00001) translate(-106.77142391851174 6.5846527196109585) translate(106.8125 -6.592499999999999) rotate(-30) translate(-106.8125 6.592499999999999)">03</text>
    <text x="106.77949019883413" y="-6.595699680973344" fill="black" text-anchor="middle" transform="translate(106.77949019883413 -6.595699680973344) scale(0.00001 -0.00001) translate(-106.77949019883413 6.595699680973344) translate(106.8125 -6.592499999999999) rotate(-30) translate(-106.8125 6.592499999999999)">03</text>
    <text x="106.78668769647255" y="-6.594970471534133" fill="black" text-anchor="middle" transform="translate(106.78668769647255 -6.594970471534133) scale(0.00001 -0.00001) translate(-106.78668769647255 6.594970471534133) translate(106.8125 -6.592499999999999) rotate(-30) translate(-106.8125 6.592499999999999)">03</text>
    <text x="106.78811986126354" y="-6.592730202803912" fill="black" text-anchor="middle" transform="translate(106.78811986126354 -6.592730202803912) scale(0.00001 -0.00001) translate(-106.78811986126354 6.592730202803912) translate(106.8125 -6.592499999999999) rotate(-30) translate(-106.8125 6.592499999999999)">03</text>
    <text x="106.78980740118693" y="-6.595514539734172" fill="black" text-anchor="middle" transform="translate(106.78980740118693 -6.595514539734172) scale(0.00001 -0.00001) translate(-106.78980740118693 6.595514539734172) translate(106.8125 -6.592499999999999) rotate(-30) translate(-106.8125 6.592499999999999)">03</text>
    <text x="106.7934238293489" y="-6.596418646774662" fill="black" text-anchor="middle" transform="translate(106.7934238293489 -6.596418646774662) scale(0.00001 -0.00001) translate(-106.7934238293489 6.596418646774662) translate(106.8125 -6.592499999999999) rotate(-30) translate(-106.8125 6.592499999999999)">03</text>
    <text x="106.79409441396987" y="-6.594094505785121" fill="black" text-anchor="middle" transform="translate(106.79409441396987 -6.594094505785121) scale(0.00001 -0.00001) translate(-106.79409441396987 6.594094505785121) translate(106.8125 -6.592499999999999) rotate(-30) translate(-106.8125 6.592499999999999)">03</text>
    <text x="106.79727297289328" y="-6.592328639716563" fill="black" text-anchor="middle" transform="translate(106.79727297289328 -6.592328639716563) scale(0.00001 -0.00001) translate(-106.79727297289328 6.592328639716563) translate(106.8125 -6.592499999999999) rotate(-30) translate(-106.8125 6.592499999999999)">03</text>
    <text x="106.80172664810577" y="-6.592338956956405" fill="black" text-anchor="middle" transform="translate(106.80172664810577 -6.592338956956405) scale(0.00001 -0.00001) translate(-106.80172664810577 6.592338956956405) translate(106.8125 -6.592499999999999) rotate(-30) translate(-106.8125 6.592499999999999)">03</text>
    <text x="106.80162187119468" y="-6.589188099015236" fill="black" text-anchor="middle" transform="translate(106.80162187119468 -6.589188099015236) scale(0.00001 -0.00001) translate(-106.80162187119468 6.589188099015236) translate(106.8125 -6.592499999999999) rotate(-30) translate(-106.8125 6.592499999999999)">03</text>
    <text x="106.80479974179873" y="-6.592211417330929" fill="black" text-anchor="middle" transform="translate(106.80479974179873 -6.592211417330929) scale(0.00001 -0.00001) translate(-106.80479974179873 6.592211417330929) translate(106.8125 -6.592499999999999) rotate(-30) translate(-106.8125 6.592499999999999)">03</text>
    <text x="106.80499199861278" y="-6.5957993831604025" fill="black" text-anchor="middle" transform="translate(106.80499199861278 -6.5957993831604025) scale(0.00001 -0.00001) translate(-106.80499199861278 6.5957993831604025) translate(106.8125 -6.592499999999999) rotate(-30) translate(-106.8125 6.592499999999999)">03</text>
    <text x="106.80539571027252" y="-6.600846176973431" fill="black" text-anchor="middle" transform="translate(106.80539571027252 -6.600846176973431) scale(0.00001 -0.00001) translate(-106.80539571027252 6.600846176973431) translate(106.8125 -6.592499999999999) rotate(-30) translate(-106.8125 6.592499999999999)">03</text>
    <text x="106.80688645402064" y="-6.604014007438193" fill="black" text-anchor="middle" transform="translate(106.80688645402064 -6.604014007438193) scale(0.00001 -0.00001) translate(-106.80688645402064 6.604014007438193) translate(106.8125 -6.592499999999999) rotate(-30) translate(-106.8125 6.592499999999999)">03</text>
    <text x="106.80739451150473" y="-6.604537973059011" fill="black" text-anchor="middle" transform="translate(106.80739451150473 -6.604537973059011) scale(0.00001 -0.00001) translate(-106.80739451150473 6.604537973059011) translate(106.8125 -6.592499999999999) rotate(-30) translate(-106.8125 6.592499999999999)">03</text>
    <text x="106.81250361982843" y="-6.611344874615061" fill="black" text-anchor="middle" transform="translate(106.81250361982843 -6.611344874615061) scale(0.00001 -0.00001) translate(-106.81250361982843 6.611344874615061) translate(106.8125 -6.592499999999999) rotate(-30) translate(-106.8125 6.592499999999999)">03</text>
    <text x="106.80864375470877" y="-6.606841698642127" fill="black" text-anchor="middle" transform="translate(106.80864375470877 -6.606841698642127) scale(0.00001 -0.00001) translate(-106.80864375470877 6.606841698642127) translate(106.8125 -6.592499999999999) rotate(-30) translate(-106.8125 6.592499999999999)">03</text>
    <text x="106.80404642243893" y="-6.602124417580721" fill="black" text-anchor="middle" transform="translate(106.80404642243893 -6.602124417580721) scale(0.00001 -0.00001) translate(-106.80404642243893 6.602124417580721) translate(106.8125 -6.592499999999999) rotate(-30) translate(-106.8125 6.592499999999999)">03</text>
    <text x="106.79987394238992" y="-6.603117371740046" fill="black" text-anchor="middle" transform="translate(106.79987394238992 -6.603117371740046) scale(0.00001 -0.00001) translate(-106.79987394238992 6.603117371740046) translate(106.8125 -6.592499999999999) rotate(-30) translate(-106.8125 6.592499999999999)">03</text>
    <text x="106.79968302452865" y="-6.603244650314236" fill="black" text-anchor="middle" transform="translate(106.79968302452865 -6.603244650314236) scale(0.00001 -0.00001) translate(-106.79968302452865 6.603244650314236) translate(106.8125 -6.592499999999999) rotate(-30) translate(-106.8125 6.592499999999999)">03</text>
    <text x="106.79888972255053" y="-6.603278873366271" fill="black" text-anchor="middle" transform="translate(106.79888972255053 -6.603278873366271) scale(0.00001 -0.00001) translate(-106.79888972255053 6.603278873366271) translate(106.8125 -6.592499999999999) rotate(-30) translate(-106.8125 6.592499999999999)">03</text>
    <text x="106.79734614836624" y="-6.604119641429087" fill="black" text-anchor="middle" transform="translate(106.79734614836624 -6.604119641429087) scale(0.00001 -0.00001) translate(-106.79734614836624 6.604119641429087) translate(106.8125 -6.592499999999999) rotate(-30) translate(-106.8125 6.592499999999999)">03</text>
    <text x="106.79678246811278" y="-6.6043822191011134" fill="black" text-anchor="middle" transform="translate(106.79678246811278 -6.6043822191011134) scale(0.00001 -0.00001) translate(-106.79678246811278 6.6043822191011134) translate(106.8125 -6.592499999999999) rotate(-30) translate(-106.8125 6.592499999999999)">03</text>
    <text x="106.7956346174863" y="-6.604288394622383" fill="black" text-anchor="middle" transform="translate(106.7956346174863 -6.604288394622383) scale(0.00001 -0.00001) translate(-106.7956346174863 6.604288394622383) translate(106.8125 -6.592499999999999) rotate(-30) translate(-106.8125 6.592499999999999)">03</text>
    <text x="106.79323984628365" y="-6.597403427414755" fill="black" text-anchor="middle" transform="translate(106.79323984628365 -6.597403427414755) scale(0.00001 -0.00001) translate(-106.79323984628365 6.597403427414755) translate(106.8125 -6.592499999999999) rotate(-30) translate(-106.8125 6.592499999999999)">03</text>
    <line x1="106.7937" y1="-6.5969" x2="106.7897" y2="-6.5959" style="stroke:rgb(255,0,0);stroke-width:.00002" />
    <line x1="106.79355447862498" y1="-6.597482085500087" x2="106.78955447862498" y2="-6.596482085500088" style="stroke:rgb(0,0,0);stroke-width:.00002" />
    <circle cx="106.7937" cy="-6.5969" fill="rgb(255,0,0)" r=".0001" />
    <text x="106.7937" y="-6.5969" stroke="rgb(0,0,0)" transform="translate(106.7937 -6.5969),scale(0.00001 -0.00001),translate(-106.7937 6.5969),translate(106.8125 -6.592499999999999),rotate(-30),translate(-106.8125 6.592499999999999)" >kb-muslihat</text>
    <line x1="106.7897" y1="-6.5959" x2="106.7884" y2="-6.5955" style="stroke:rgb(255,0,0);stroke-width:.00002" />
    <line x1="106.78952354849069" y1="-6.596473467405233" x2="106.78822354849069" y2="-6.596073467405233" style="stroke:rgb(0,0,0);stroke-width:.00002" />
    <circle cx="106.7897" cy="-6.5959" fill="rgb(255,0,0)" r=".0001" />
    <text x="106.7897" y="-6.5959" stroke="rgb(0,0,0)" transform="translate(106.7897 -6.5959),scale(0.00001 -0.00001),translate(-106.7897 6.5959),translate(106.8125 -6.592499999999999),rotate(-30),translate(-106.8125 6.592499999999999)" >stasiun-paledang</text>
    <line x1="106.7884" y1="-6.5955" x2="106.7876" y2="-6.5956" style="stroke:rgb(255,0,0);stroke-width:.00002" />
    <line x1="106.78847442084074" y1="-6.596095366726028" x2="106.78764961389383" y2="-6.595996911150686" style="stroke:rgb(0,0,0);stroke-width:.00002" />
    <circle cx="106.7884" cy="-6.5955" fill="rgb(255,0,0)" r=".0001" />
    <text x="106.7884" y="-6.5955" stroke="rgb(0,0,0)" transform="translate(106.7884 -6.5955),scale(0.00001 -0.00001),translate(-106.7884 6.5955),translate(106.8125 -6.592499999999999),rotate(-30),translate(-106.8125 6.592499999999999)" >veteran-merdeka</text>
    <line x1="106.7876" y1="-6.5956" x2="106.7846" y2="-6.5953" style="stroke:rgb(255,0,0);stroke-width:.00002" />
    <line x1="106.7875601985124" y1="-6.595998014876084" x2="106.7845601985124" y2="-6.595698014876084" style="stroke:rgb(0,0,0);stroke-width:.00002" />
    <circle cx="106.7876" cy="-6.5956" fill="rgb(255,0,0)" r=".0001" />
    <text x="106.7876" y="-6.5956" stroke="rgb(0,0,0)" transform="translate(106.7876 -6.5956),scale(0.00001 -0.00001),translate(-106.7876 6.5956),translate(106.8125 -6.592499999999999),rotate(-30),translate(-106.8125 6.592499999999999)" >veteran-kemerdekaan</text>
    <line x1="106.7846" y1="-6.5953" x2="106.7826" y2="-6.5944" style="stroke:rgb(255,0,0);stroke-width:.00002" />
    <line x1="106.78443585412907" y1="-6.59566476860207" x2="106.78243585412908" y2="-6.5947647686020705" style="stroke:rgb(0,0,0);stroke-width:.00002" />
    <circle cx="106.7846" cy="-6.5953" fill="rgb(255,0,0)" r=".0001" />
    <text x="106.7846" y="-6.5953" stroke="rgb(0,0,0)" transform="translate(106.7846 -6.5953),scale(0.00001 -0.00001),translate(-106.7846 6.5953),translate(106.8125 -6.592499999999999),rotate(-30),translate(-106.8125 6.592499999999999)" >veteran</text>
    <line x1="106.7826" y1="-6.5944" x2="106.7807" y2="-6.5963" style="stroke:rgb(255,0,0);stroke-width:.00002" />
    <line x1="106.78288284271248" y1="-6.5946828427124755" x2="106.78098284271248" y2="-6.5965828427124755" style="stroke:rgb(0,0,0);stroke-width:.00002" />
    <circle cx="106.7826" cy="-6.5944" fill="rgb(255,0,0)" r=".0001" />
    <text x="106.7826" y="-6.5944" stroke="rgb(0,0,0)" transform="translate(106.7826 -6.5944),scale(0.00001 -0.00001),translate(-106.7826 6.5944),translate(106.8125 -6.592499999999999),rotate(-30),translate(-106.8125 6.592499999999999)" >veteran-gnbatu</text>
    <line x1="106.7807" y1="-6.5963" x2="106.7795" y2="-6.5961" style="stroke:rgb(255,0,0);stroke-width:.00002" />
    <line x1="106.78063424040508" y1="-6.596694557569533" x2="106.77943424040508" y2="-6.596494557569533" style="stroke:rgb(0,0,0);stroke-width:.00002" />
    <circle cx="106.7807" cy="-6.5963" fill="rgb(255,0,0)" r=".0001" />
    <text x="106.7807" y="-6.5963" stroke="rgb(0,0,0)" transform="translate(106.7807 -6.5963),scale(0.00001 -0.00001),translate(-106.7807 6.5963),translate(106.8125 -6.592499999999999),rotate(-30),translate(-106.8125 6.592499999999999)" >gnbatu-1</text>
    <line x1="106.7795" y1="-6.5961" x2="106.779318" y2="-6.596113" style="stroke:rgb(255,0,0);stroke-width:.00002" />
    <line x1="106.77952849882" y1="-6.596498983479932" x2="106.77934649882" y2="-6.596511983479932" style="stroke:rgb(0,0,0);stroke-width:.00002" />
    <circle cx="106.7795" cy="-6.5961" fill="rgb(255,0,0)" r=".0001" />
    <text x="106.7795" y="-6.5961" stroke="rgb(0,0,0)" transform="translate(106.7795 -6.5961),scale(0.00001 -0.00001),translate(-106.7795 6.5961),translate(106.8125 -6.592499999999999),rotate(-30),translate(-106.8125 6.592499999999999)" >gnbatu-2</text>
    <line x1="106.779318" y1="-6.596113" x2="106.772155" y2="-6.587779" style="stroke:rgb(255,0,0);stroke-width:.00002" />
    <line x1="106.77901464963773" y1="-6.596373726979243" x2="106.77185164963772" y2="-6.588039726979243" style="stroke:rgb(0,0,0);stroke-width:.00002" />
    <circle cx="106.779318" cy="-6.596113" fill="rgb(255,0,0)" r=".0001" />
    <text x="106.779318" y="-6.596113" stroke="rgb(0,0,0)" transform="translate(106.779318 -6.596113),scale(0.00001 -0.00001),translate(-106.779318 6.596113),translate(106.8125 -6.592499999999999),rotate(-30),translate(-106.8125 6.592499999999999)" >abdullah-batu</text>
    <line x1="106.772155" y1="-6.587779" x2="106.771794" y2="-6.585932" style="stroke:rgb(255,0,0);stroke-width:.00002" />
    <line x1="106.77176242814357" y1="-6.5878557289876385" x2="106.77140142814358" y2="-6.586008728987638" style="stroke:rgb(0,0,0);stroke-width:.00002" />
    <circle cx="106.772155" cy="-6.587779" fill="rgb(255,0,0)" r=".0001" />
    <text x="106.772155" y="-6.587779" stroke="rgb(0,0,0)" transform="translate(106.772155 -6.587779),scale(0.00001 -0.00001),translate(-106.772155 6.587779),translate(106.8125 -6.592499999999999),rotate(-30),translate(-106.8125 6.592499999999999)" >sind-barang-1</text>
    <line x1="106.771794" y1="-6.585932" x2="106.771102" y2="-6.584891" style="stroke:rgb(255,0,0);stroke-width:.00002" />
    <line x1="106.77146088479682" y1="-6.586153436811332" x2="106.77076888479682" y2="-6.5851124368113325" style="stroke:rgb(0,0,0);stroke-width:.00002" />
    <circle cx="106.771794" cy="-6.585932" fill="rgb(255,0,0)" r=".0001" />
    <text x="106.771794" y="-6.585932" stroke="rgb(0,0,0)" transform="translate(106.771794 -6.585932),scale(0.00001 -0.00001),translate(-106.771794 6.585932),translate(106.8125 -6.592499999999999),rotate(-30),translate(-106.8125 6.592499999999999)" >sind-barang-2</text>
    <line x1="106.771102" y1="-6.584891" x2="106.767319" y2="-6.580286" style="stroke:rgb(255,0,0);stroke-width:.00002" />
    <line x1="106.77079292007994" y1="-6.5851449086509355" x2="106.76700992007994" y2="-6.580539908650936" style="stroke:rgb(0,0,0);stroke-width:.00002" />
    <circle cx="106.771102" cy="-6.584891" fill="rgb(255,0,0)" r=".0001" />
    <text x="106.771102" y="-6.584891" stroke="rgb(0,0,0)" transform="translate(106.771102 -6.584891),scale(0.00001 -0.00001),translate(-106.771102 6.584891),translate(106.8125 -6.592499999999999),rotate(-30),translate(-106.8125 6.592499999999999)" >sind-barang-darulquran</text>
    <line x1="106.767319" y1="-6.580286" x2="106.763566" y2="-6.580519" style="stroke:rgb(255,0,0);stroke-width:.00002" />
    <line x1="106.76734378574564" y1="-6.580685231344979" x2="106.76359078574563" y2="-6.580918231344978" style="stroke:rgb(0,0,0);stroke-width:.00002" />
    <circle cx="106.767319" cy="-6.580286" fill="rgb(255,0,0)" r=".0001" />
    <text x="106.767319" y="-6.580286" stroke="rgb(0,0,0)" transform="translate(106.767319 -6.580286),scale(0.00001 -0.00001),translate(-106.767319 6.580286),translate(106.8125 -6.592499999999999),rotate(-30),translate(-106.8125 6.592499999999999)" >sind-barang-3</text>
    <line x1="106.763566" y1="-6.580519" x2="106.753317" y2="-6.576235" style="stroke:rgb(255,0,0);stroke-width:.00002" />
    <line x1="106.76341173717654" y1="-6.580888056880847" x2="106.75316273717654" y2="-6.576604056880847" style="stroke:rgb(0,0,0);stroke-width:.00002" />
    <circle cx="106.763566" cy="-6.580519" fill="rgb(255,0,0)" r=".0001" />
    <text x="106.763566" y="-6.580519" stroke="rgb(0,0,0)" transform="translate(106.763566 -6.580519),scale(0.00001 -0.00001),translate(-106.763566 6.580519),translate(106.8125 -6.592499999999999),rotate(-30),translate(-106.8125 6.592499999999999)" >sind-barang-4</text>
    <line x1="106.753317" y1="-6.576235" x2="106.751377" y2="-6.573609" style="stroke:rgb(255,0,0);stroke-width:.00002" />
    <line x1="106.75299527353656" y1="-6.576472680631783" x2="106.75105527353656" y2="-6.5738466806317835" style="stroke:rgb(0,0,0);stroke-width:.00002" />
    <circle cx="106.753317" cy="-6.576235" fill="rgb(255,0,0)" r=".0001" />
    <text x="106.753317" y="-6.576235" stroke="rgb(0,0,0)" transform="translate(106.753317 -6.576235),scale(0.00001 -0.00001),translate(-106.753317 6.576235),translate(106.8125 -6.592499999999999),rotate(-30),translate(-106.8125 6.592499999999999)" >sind-barang-adjie</text>
    <line x1="106.751377" y1="-6.573609" x2="106.755373" y2="-6.571011" style="stroke:rgb(255,0,0);stroke-width:.00002" />
    <line x1="106.75115896926307" y1="-6.573273645563986" x2="106.75515496926307" y2="-6.570675645563986" style="stroke:rgb(0,0,0);stroke-width:.00002" />
    <circle cx="106.751377" cy="-6.573609" fill="rgb(255,0,0)" r=".0001" />
    <text x="106.751377" y="-6.573609" stroke="rgb(0,0,0)" transform="translate(106.751377 -6.573609),scale(0.00001 -0.00001),translate(-106.751377 6.573609),translate(106.8125 -6.592499999999999),rotate(-30),translate(-106.8125 6.592499999999999)" >adjie-ciampea</text>
    <line x1="106.755373" y1="-6.571011" x2="106.751377" y2="-6.573609" style="stroke:rgb(255,0,0);stroke-width:.00002" />
    <line x1="106.75559103073694" y1="-6.571346354436015" x2="106.75159503073694" y2="-6.573944354436015" style="stroke:rgb(0,0,0);stroke-width:.00002" />
    <circle cx="106.755373" cy="-6.571011" fill="rgb(255,0,0)" r=".0001" />
    <text x="106.755373" y="-6.571011" stroke="rgb(0,0,0)" transform="translate(106.755373 -6.571011),scale(0.00001 -0.00001),translate(-106.755373 6.571011),translate(106.8125 -6.592499999999999),rotate(-30),translate(-106.8125 6.592499999999999)" >bubulak</text>
    <line x1="106.751377" y1="-6.573609" x2="106.753317" y2="-6.576235" style="stroke:rgb(255,0,0);stroke-width:.00002" />
    <line x1="106.75169872646345" y1="-6.573371319368217" x2="106.75363872646344" y2="-6.575997319368216" style="stroke:rgb(0,0,0);stroke-width:.00002" />
    <circle cx="106.751377" cy="-6.573609" fill="rgb(255,0,0)" r=".0001" />
    <text x="106.751377" y="-6.573609" stroke="rgb(0,0,0)" transform="translate(106.751377 -6.573609),scale(0.00001 -0.00001),translate(-106.751377 6.573609),translate(106.8125 -6.592499999999999),rotate(-30),translate(-106.8125 6.592499999999999)" >adjie-ciampea</text>
    <line x1="106.753317" y1="-6.576235" x2="106.763566" y2="-6.580519" style="stroke:rgb(255,0,0);stroke-width:.00002" />
    <line x1="106.75347126282345" y1="-6.575865943119152" x2="106.76372026282345" y2="-6.580149943119152" style="stroke:rgb(0,0,0);stroke-width:.00002" />
    <circle cx="106.753317" cy="-6.576235" fill="rgb(255,0,0)" r=".0001" />
    <text x="106.753317" y="-6.576235" stroke="rgb(0,0,0)" transform="translate(106.753317 -6.576235),scale(0.00001 -0.00001),translate(-106.753317 6.576235),translate(106.8125 -6.592499999999999),rotate(-30),translate(-106.8125 6.592499999999999)" >sind-barang-adjie</text>
    <line x1="106.763566" y1="-6.580519" x2="106.767319" y2="-6.580286" style="stroke:rgb(255,0,0);stroke-width:.00002" />
    <line x1="106.76354121425436" y1="-6.580119768655021" x2="106.76729421425436" y2="-6.5798867686550215" style="stroke:rgb(0,0,0);stroke-width:.00002" />
    <circle cx="106.763566" cy="-6.580519" fill="rgb(255,0,0)" r=".0001" />
    <text x="106.763566" y="-6.580519" stroke="rgb(0,0,0)" transform="translate(106.763566 -6.580519),scale(0.00001 -0.00001),translate(-106.763566 6.580519),translate(106.8125 -6.592499999999999),rotate(-30),translate(-106.8125 6.592499999999999)" >sind-barang-4</text>
    <line x1="106.767319" y1="-6.580286" x2="106.771102" y2="-6.584891" style="stroke:rgb(255,0,0);stroke-width:.00002" />
    <line x1="106.76762807992006" y1="-6.580032091349064" x2="106.77141107992006" y2="-6.584637091349064" style="stroke:rgb(0,0,0);stroke-width:.00002" />
    <circle cx="106.767319" cy="-6.580286" fill="rgb(255,0,0)" r=".0001" />
    <text x="106.767319" y="-6.580286" stroke="rgb(0,0,0)" transform="translate(106.767319 -6.580286),scale(0.00001 -0.00001),translate(-106.767319 6.580286),translate(106.8125 -6.592499999999999),rotate(-30),translate(-106.8125 6.592499999999999)" >sind-barang-3</text>
    <line x1="106.771102" y1="-6.584891" x2="106.771794" y2="-6.585932" style="stroke:rgb(255,0,0);stroke-width:.00002" />
    <line x1="106.77143511520318" y1="-6.584669563188667" x2="106.77212711520318" y2="-6.585710563188667" style="stroke:rgb(0,0,0);stroke-width:.00002" />
    <circle cx="106.771102" cy="-6.584891" fill="rgb(255,0,0)" r=".0001" />
    <text x="106.771102" y="-6.584891" stroke="rgb(0,0,0)" transform="translate(106.771102 -6.584891),scale(0.00001 -0.00001),translate(-106.771102 6.584891),translate(106.8125 -6.592499999999999),rotate(-30),translate(-106.8125 6.592499999999999)" >sind-barang-darulquran</text>
    <line x1="106.771794" y1="-6.585932" x2="106.772155" y2="-6.587779" style="stroke:rgb(255,0,0);stroke-width:.00002" />
    <line x1="106.77218657185642" y1="-6.5858552710123615" x2="106.77254757185642" y2="-6.587702271012362" style="stroke:rgb(0,0,0);stroke-width:.00002" />
    <circle cx="106.771794" cy="-6.585932" fill="rgb(255,0,0)" r=".0001" />
    <text x="106.771794" y="-6.585932" stroke="rgb(0,0,0)" transform="translate(106.771794 -6.585932),scale(0.00001 -0.00001),translate(-106.771794 6.585932),translate(106.8125 -6.592499999999999),rotate(-30),translate(-106.8125 6.592499999999999)" >sind-barang-2</text>
    <line x1="106.772155" y1="-6.587779" x2="106.779318" y2="-6.596113" style="stroke:rgb(255,0,0);stroke-width:.00002" />
    <line x1="106.77245835036227" y1="-6.587518273020757" x2="106.77962135036228" y2="-6.595852273020757" style="stroke:rgb(0,0,0);stroke-width:.00002" />
    <circle cx="106.772155" cy="-6.587779" fill="rgb(255,0,0)" r=".0001" />
    <text x="106.772155" y="-6.587779" stroke="rgb(0,0,0)" transform="translate(106.772155 -6.587779),scale(0.00001 -0.00001),translate(-106.772155 6.587779),translate(106.8125 -6.592499999999999),rotate(-30),translate(-106.8125 6.592499999999999)" >sind-barang-1</text>
    <line x1="106.779318" y1="-6.596113" x2="106.7795" y2="-6.5961" style="stroke:rgb(255,0,0);stroke-width:.00002" />
    <line x1="106.77928950118" y1="-6.595714016520068" x2="106.77947150118" y2="-6.595701016520068" style="stroke:rgb(0,0,0);stroke-width:.00002" />
    <circle cx="106.779318" cy="-6.596113" fill="rgb(255,0,0)" r=".0001" />
    <text x="106.779318" y="-6.596113" stroke="rgb(0,0,0)" transform="translate(106.779318 -6.596113),scale(0.00001 -0.00001),translate(-106.779318 6.596113),translate(106.8125 -6.592499999999999),rotate(-30),translate(-106.8125 6.592499999999999)" >abdullah-batu</text>
    <line x1="106.7795" y1="-6.5961" x2="106.7807" y2="-6.5963" style="stroke:rgb(255,0,0);stroke-width:.00002" />
    <line x1="106.77956575959492" y1="-6.595705442430467" x2="106.78076575959491" y2="-6.5959054424304675" style="stroke:rgb(0,0,0);stroke-width:.00002" />
    <circle cx="106.7795" cy="-6.5961" fill="rgb(255,0,0)" r=".0001" />
    <text x="106.7795" y="-6.5961" stroke="rgb(0,0,0)" transform="translate(106.7795 -6.5961),scale(0.00001 -0.00001),translate(-106.7795 6.5961),translate(106.8125 -6.592499999999999),rotate(-30),translate(-106.8125 6.592499999999999)" >gnbatu-2</text>
    <line x1="106.7807" y1="-6.5963" x2="106.7826" y2="-6.5944" style="stroke:rgb(255,0,0);stroke-width:.00002" />
    <line x1="106.78041715728752" y1="-6.596017157287525" x2="106.78231715728752" y2="-6.594117157287525" style="stroke:rgb(0,0,0);stroke-width:.00002" />
    <circle cx="106.7807" cy="-6.5963" fill="rgb(255,0,0)" r=".0001" />
    <text x="106.7807" y="-6.5963" stroke="rgb(0,0,0)" transform="translate(106.7807 -6.5963),scale(0.00001 -0.00001),translate(-106.7807 6.5963),translate(106.8125 -6.592499999999999),rotate(-30),translate(-106.8125 6.592499999999999)" >gnbatu-1</text>
    <line x1="106.7826" y1="-6.5944" x2="106.7846" y2="-6.5953" style="stroke:rgb(255,0,0);stroke-width:.00002" />
    <line x1="106.78276414587093" y1="-6.59403523139793" x2="106.78476414587092" y2="-6.59493523139793" style="stroke:rgb(0,0,0);stroke-width:.00002" />
    <circle cx="106.7826" cy="-6.5944" fill="rgb(255,0,0)" r=".0001" />
    <text x="106.7826" y="-6.5944" stroke="rgb(0,0,0)" transform="translate(106.7826 -6.5944),scale(0.00001 -0.00001),translate(-106.7826 6.5944),translate(106.8125 -6.592499999999999),rotate(-30),translate(-106.8125 6.592499999999999)" >veteran-gnbatu</text>
    <line x1="106.7846" y1="-6.5953" x2="106.7876" y2="-6.5956" style="stroke:rgb(255,0,0);stroke-width:.00002" />
    <line x1="106.7846398014876" y1="-6.594901985123916" x2="106.78765970223141" y2="-6.5950029776858745" style="stroke:rgb(0,0,0);stroke-width:.00002" />
    <circle cx="106.7846" cy="-6.5953" fill="rgb(255,0,0)" r=".0001" />
    <text x="106.7846" y="-6.5953" stroke="rgb(0,0,0)" transform="translate(106.7846 -6.5953),scale(0.00001 -0.00001),translate(-106.7846 6.5953),translate(106.8125 -6.592499999999999),rotate(-30),translate(-106.8125 6.592499999999999)" >veteran</text>
    <line x1="106.7876" y1="-6.5956" x2="106.7866" y2="-6.5932" style="stroke:rgb(255,0,0);stroke-width:.00002" />
    <line x1="106.78704615384615" y1="-6.595830769230767" x2="106.78604615384616" y2="-6.593430769230768" style="stroke:rgb(0,0,0);stroke-width:.00002" />
    <circle cx="106.7876" cy="-6.5956" fill="rgb(255,0,0)" r=".0001" />
    <text x="106.7876" y="-6.5956" stroke="rgb(0,0,0)" transform="translate(106.7876 -6.5956),scale(0.00001 -0.00001),translate(-106.7876 6.5956),translate(106.8125 -6.592499999999999),rotate(-30),translate(-106.8125 6.592499999999999)" >veteran-kemerdekaan</text>
    <line x1="106.7866" y1="-6.5932" x2="106.7878" y2="-6.5931" style="stroke:rgb(255,0,0);stroke-width:.00002" />
    <line x1="106.7865501727121" y1="-6.592602072545054" x2="106.78776678180806" y2="-6.592701381696702" style="stroke:rgb(0,0,0);stroke-width:.00002" />
    <circle cx="106.7866" cy="-6.5932" fill="rgb(255,0,0)" r=".0001" />
    <text x="106.7866" y="-6.5932" stroke="rgb(0,0,0)" transform="translate(106.7866 -6.5932),scale(0.00001 -0.00001),translate(-106.7866 6.5932),translate(106.8125 -6.592499999999999),rotate(-30),translate(-106.8125 6.592499999999999)" >kemerdekaan</text>
    <line x1="106.7878" y1="-6.5931" x2="106.7884" y2="-6.5955" style="stroke:rgb(255,0,0);stroke-width:.00002" />
    <line x1="106.78818805700006" y1="-6.593002985749987" x2="106.78878805700005" y2="-6.595402985749987" style="stroke:rgb(0,0,0);stroke-width:.00002" />
    <circle cx="106.7878" cy="-6.5931" fill="rgb(255,0,0)" r=".0001" />
    <text x="106.7878" y="-6.5931" stroke="rgb(0,0,0)" transform="translate(106.7878 -6.5931),scale(0.00001 -0.00001),translate(-106.7878 6.5931),translate(106.8125 -6.592499999999999),rotate(-30),translate(-106.8125 6.592499999999999)" >merdeka</text>
    <line x1="106.7884" y1="-6.5955" x2="106.7897" y2="-6.5959" style="stroke:rgb(255,0,0);stroke-width:.00002" />
    <line x1="106.78851763433953" y1="-6.5951176883965115" x2="106.78981763433953" y2="-6.595517688396511" style="stroke:rgb(0,0,0);stroke-width:.00002" />
    <circle cx="106.7884" cy="-6.5955" fill="rgb(255,0,0)" r=".0001" />
    <text x="106.7884" y="-6.5955" stroke="rgb(0,0,0)" transform="translate(106.7884 -6.5955),scale(0.00001 -0.00001),translate(-106.7884 6.5955),translate(106.8125 -6.592499999999999),rotate(-30),translate(-106.8125 6.592499999999999)" >veteran-merdeka</text>
    <line x1="106.7897" y1="-6.5959" x2="106.7937" y2="-6.5969" style="stroke:rgb(255,0,0);stroke-width:.00002" />
    <line x1="106.78979701425001" y1="-6.595511942999942" x2="106.79379701425002" y2="-6.596511942999942" style="stroke:rgb(0,0,0);stroke-width:.00002" />
    <circle cx="106.7897" cy="-6.5959" fill="rgb(255,0,0)" r=".0001" />
    <text x="106.7897" y="-6.5959" stroke="rgb(0,0,0)" transform="translate(106.7897 -6.5959),scale(0.00001 -0.00001),translate(-106.7897 6.5959),translate(106.8125 -6.592499999999999),rotate(-30),translate(-106.8125 6.592499999999999)" >stasiun-paledang</text>
    <line x1="106.7937" y1="-6.5969" x2="106.7946" y2="-6.5945" style="stroke:rgb(255,0,0);stroke-width:.00002" />
    <line x1="106.79332546832897" y1="-6.596759550623364" x2="106.79403820249347" y2="-6.594289325935047" style="stroke:rgb(0,0,0);stroke-width:.00002" />
    <circle cx="106.7937" cy="-6.5969" fill="rgb(255,0,0)" r=".0001" />
    <text x="106.7937" y="-6.5969" stroke="rgb(0,0,0)" transform="translate(106.7937 -6.5969),scale(0.00001 -0.00001),translate(-106.7937 6.5969),translate(106.8125 -6.592499999999999),rotate(-30),translate(-106.8125 6.592499999999999)" >kb-muslihat</text>
    <line x1="106.7946" y1="-6.5945" x2="106.7973" y2="-6.593" style="stroke:rgb(255,0,0);stroke-width:.00002" />
    <line x1="106.7943086142413" y1="-6.593975505634327" x2="106.7970086142413" y2="-6.592475505634327" style="stroke:rgb(0,0,0);stroke-width:.00002" />
    <circle cx="106.7946" cy="-6.5945" fill="rgb(255,0,0)" r=".0001" />
    <text x="106.7946" y="-6.5945" stroke="rgb(0,0,0)" transform="translate(106.7946 -6.5945),scale(0.00001 -0.00001),translate(-106.7946 6.5945),translate(106.8125 -6.592499999999999),rotate(-30),translate(-106.8125 6.592499999999999)" >kb-gedong-sawah</text>
    <line x1="106.7973" y1="-6.593" x2="106.7984" y2="-6.5935" style="stroke:rgb(255,0,0);stroke-width:.00002" />
    <line x1="106.7975482817666" y1="-6.592453780113523" x2="106.79864828176659" y2="-6.592953780113523" style="stroke:rgb(0,0,0);stroke-width:.00002" />
    <circle cx="106.7973" cy="-6.593" fill="rgb(255,0,0)" r=".0001" />
    <text x="106.7973" y="-6.593" stroke="rgb(0,0,0)" transform="translate(106.7973 -6.593),scale(0.00001 -0.00001),translate(-106.7973 6.593),translate(106.8125 -6.592499999999999),rotate(-30),translate(-106.8125 6.592499999999999)" >kb-polisi-militer</text>
    <line x1="106.7984" y1="-6.5935" x2="106.800814" y2="-6.592262" style="stroke:rgb(255,0,0);stroke-width:.00002" />
    <line x1="106.79812620103144" y1="-6.592966114127537" x2="106.80054020103144" y2="-6.5917281141275375" style="stroke:rgb(0,0,0);stroke-width:.00002" />
    <circle cx="106.7984" cy="-6.5935" fill="rgb(255,0,0)" r=".0001" />
    <text x="106.7984" y="-6.5935" stroke="rgb(0,0,0)" transform="translate(106.7984 -6.5935),scale(0.00001 -0.00001),translate(-106.7984 6.5935),translate(106.8125 -6.592499999999999),rotate(-30),translate(-106.8125 6.592499999999999)" >kb-jalak-harupat</text>
    <line x1="106.800814" y1="-6.592262" x2="106.801806" y2="-6.592667" style="stroke:rgb(255,0,0);stroke-width:.00002" />
    <line x1="106.80104078717731" y1="-6.591706511407671" x2="106.80188159572577" y2="-6.59248183713589" style="stroke:rgb(0,0,0);stroke-width:.00002" />
    <circle cx="106.800814" cy="-6.592262" fill="rgb(255,0,0)" r=".0001" />
    <text x="106.800814" y="-6.592262" stroke="rgb(0,0,0)" transform="translate(106.800814 -6.592262),scale(0.00001 -0.00001),translate(-106.800814 6.592262),translate(106.8125 -6.592499999999999),rotate(-30),translate(-106.8125 6.592499999999999)" >kb-sempur</text>
    <line x1="106.801806" y1="-6.592667" x2="106.802112" y2="-6.591937" style="stroke:rgb(255,0,0);stroke-width:.00002" />
    <line x1="106.80162154949834" y1="-6.592589682392455" x2="106.80192754949833" y2="-6.591859682392455" style="stroke:rgb(0,0,0);stroke-width:.00002" />
    <circle cx="106.801806" cy="-6.592667" fill="rgb(255,0,0)" r=".0001" />
    <text x="106.801806" y="-6.592667" stroke="rgb(0,0,0)" transform="translate(106.801806 -6.592667),scale(0.00001 -0.00001),translate(-106.801806 6.592667),translate(106.8125 -6.592499999999999),rotate(-30),translate(-106.8125 6.592499999999999)" >kb-salak</text>
    <line x1="106.802112" y1="-6.591937" x2="106.802069" y2="-6.591191" style="stroke:rgb(255,0,0);stroke-width:.00002" />
    <line x1="106.80191233141998" y1="-6.591948509046834" x2="106.80186933142" y2="-6.591202509046835" style="stroke:rgb(0,0,0);stroke-width:.00002" />
    <circle cx="106.802112" cy="-6.591937" fill="rgb(255,0,0)" r=".0001" />
    <text x="106.802112" y="-6.591937" stroke="rgb(0,0,0)" transform="translate(106.802112 -6.591937),scale(0.00001 -0.00001),translate(-106.802112 6.591937),translate(106.8125 -6.592499999999999),rotate(-30),translate(-106.8125 6.592499999999999)" >salak-1</text>
    <line x1="106.802069" y1="-6.591191" x2="106.801645" y2="-6.589918" style="stroke:rgb(255,0,0);stroke-width:.00002" />
    <line x1="106.8018792484398" y1="-6.591254200833877" x2="106.8014552484398" y2="-6.5899812008338765" style="stroke:rgb(0,0,0);stroke-width:.00002" />
    <circle cx="106.802069" cy="-6.591191" fill="rgb(255,0,0)" r=".0001" />
    <text x="106.802069" y="-6.591191" stroke="rgb(0,0,0)" transform="translate(106.802069 -6.591191),scale(0.00001 -0.00001),translate(-106.802069 6.591191),translate(106.8125 -6.592499999999999),rotate(-30),translate(-106.8125 6.592499999999999)" >salak-2</text>
    <line x1="106.801645" y1="-6.589918" x2="106.8018" y2="-6.5893" style="stroke:rgb(255,0,0);stroke-width:.00002" />
    <line x1="106.80145100848586" y1="-6.589869345170401" x2="106.80160600848586" y2="-6.589251345170401" style="stroke:rgb(0,0,0);stroke-width:.00002" />
    <circle cx="106.801645" cy="-6.589918" fill="rgb(255,0,0)" r=".0001" />
    <text x="106.801645" y="-6.589918" stroke="rgb(0,0,0)" transform="translate(106.801645 -6.589918),scale(0.00001 -0.00001),translate(-106.801645 6.589918),translate(106.8125 -6.592499999999999),rotate(-30),translate(-106.8125 6.592499999999999)" >salak-3</text>
    <line x1="106.8018" y1="-6.5893" x2="106.8024" y2="-6.5888" style="stroke:rgb(255,0,0);stroke-width:.00002" />
    <line x1="106.80167196312007" y1="-6.58914635574408" x2="106.80227196312008" y2="-6.58864635574408" style="stroke:rgb(0,0,0);stroke-width:.00002" />
    <circle cx="106.8018" cy="-6.5893" fill="rgb(255,0,0)" r=".0001" />
    <text x="106.8018" y="-6.5893" stroke="rgb(0,0,0)" transform="translate(106.8018 -6.5893),scale(0.00001 -0.00001),translate(-106.8018 6.5893),translate(106.8125 -6.592499999999999),rotate(-30),translate(-106.8125 6.592499999999999)" >kencana-1</text>
    <line x1="106.8024" y1="-6.5888" x2="106.803" y2="-6.5884" style="stroke:rgb(255,0,0);stroke-width:.00002" />
    <line x1="106.80228905996076" y1="-6.588633589941133" x2="106.80288905996075" y2="-6.588233589941133" style="stroke:rgb(0,0,0);stroke-width:.00002" />
    <circle cx="106.8024" cy="-6.5888" fill="rgb(255,0,0)" r=".0001" />
    <text x="106.8024" y="-6.5888" stroke="rgb(0,0,0)" transform="translate(106.8024 -6.5888),scale(0.00001 -0.00001),translate(-106.8024 6.5888),translate(106.8125 -6.592499999999999),rotate(-30),translate(-106.8125 6.592499999999999)" >kencana-2</text>
    <line x1="106.803" y1="-6.5884" x2="106.8041" y2="-6.5883" style="stroke:rgb(255,0,0);stroke-width:.00002" />
    <line x1="106.8029818928508" y1="-6.588200821358707" x2="106.8040818928508" y2="-6.588100821358707" style="stroke:rgb(0,0,0);stroke-width:.00002" />
    <circle cx="106.803" cy="-6.5884" fill="rgb(255,0,0)" r=".0001" />
    <text x="106.803" y="-6.5884" stroke="rgb(0,0,0)" transform="translate(106.803 -6.5884),scale(0.00001 -0.00001),translate(-106.803 6.5884),translate(106.8125 -6.592499999999999),rotate(-30),translate(-106.8125 6.592499999999999)" >salak-4</text>
    <line x1="106.8041" y1="-6.5883" x2="106.8049" y2="-6.5886" style="stroke:rgb(255,0,0);stroke-width:.00002" />
    <line x1="106.80417022468832" y1="-6.588112734164486" x2="106.80497022468832" y2="-6.588412734164486" style="stroke:rgb(0,0,0);stroke-width:.00002" />
    <circle cx="106.8041" cy="-6.5883" fill="rgb(255,0,0)" r=".0001" />
    <text x="106.8041" y="-6.5883" stroke="rgb(0,0,0)" transform="translate(106.8041 -6.5883),scale(0.00001 -0.00001),translate(-106.8041 6.5883),translate(106.8125 -6.592499999999999),rotate(-30),translate(-106.8125 6.592499999999999)" >salak-5</text>
    <line x1="106.8049" y1="-6.5886" x2="106.8046" y2="-6.5922" style="stroke:rgb(255,0,0);stroke-width:.00002" />
    <line x1="106.80509930915166" y1="-6.588616609095971" x2="106.80479930915165" y2="-6.5922166090959715" style="stroke:rgb(0,0,0);stroke-width:.00002" />
    <circle cx="106.8049" cy="-6.5886" fill="rgb(255,0,0)" r=".0001" />
    <text x="106.8049" y="-6.5886" stroke="rgb(0,0,0)" transform="translate(106.8049 -6.5886),scale(0.00001 -0.00001),translate(-106.8049 6.5886),translate(106.8125 -6.592499999999999),rotate(-30),translate(-106.8125 6.592499999999999)" >salak-pajajaran</text>
    <line x1="106.8046" y1="-6.5922" x2="106.8044" y2="-6.5959" style="stroke:rgb(255,0,0);stroke-width:.00002" />
    <line x1="106.80479970845465" y1="-6.592210795051603" x2="106.80499912536396" y2="-6.595932385154808" style="stroke:rgb(0,0,0);stroke-width:.00002" />
    <circle cx="106.8046" cy="-6.5922" fill="rgb(255,0,0)" r=".0001" />
    <text x="106.8046" y="-6.5922" stroke="rgb(0,0,0)" transform="translate(106.8046 -6.5922),scale(0.00001 -0.00001),translate(-106.8046 6.5922),translate(106.8125 -6.592499999999999),rotate(-30),translate(-106.8125 6.592499999999999)" >pangrango-pajajaran</text>
    <line x1="106.8044" y1="-6.5959" x2="106.8052" y2="-6.6009" style="stroke:rgb(255,0,0);stroke-width:.00002" />
    <line x1="106.80499246437915" y1="-6.595805205699336" x2="106.80539748812639" y2="-6.6008684018997785" style="stroke:rgb(0,0,0);stroke-width:.00002" />
    <circle cx="106.8044" cy="-6.5959" fill="rgb(255,0,0)" r=".0001" />
    <text x="106.8044" y="-6.5959" stroke="rgb(0,0,0)" transform="translate(106.8044 -6.5959),scale(0.00001 -0.00001),translate(-106.8044 6.5959),translate(106.8125 -6.592499999999999),rotate(-30),translate(-106.8125 6.592499999999999)" >kb-astrid</text>
    <line x1="106.8052" y1="-6.6009" x2="106.8068" y2="-6.6043" style="stroke:rgb(255,0,0);stroke-width:.00002" />
    <line x1="106.80538096374043" y1="-6.600814840592735" x2="106.80698096374043" y2="-6.604214840592735" style="stroke:rgb(0,0,0);stroke-width:.00002" />
    <circle cx="106.8052" cy="-6.6009" fill="rgb(255,0,0)" r=".0001" />
    <text x="106.8052" y="-6.6009" stroke="rgb(0,0,0)" transform="translate(106.8052 -6.6009),scale(0.00001 -0.00001),translate(-106.8052 6.6009),translate(106.8125 -6.592499999999999),rotate(-30),translate(-106.8125 6.592499999999999)" >kb-botani-1</text>
    <line x1="106.8068" y1="-6.6043" x2="106.8111" y2="-6.6017" style="stroke:rgb(255,0,0);stroke-width:.00002" />
    <line x1="106.80669651613222" y1="-6.604128853603284" x2="106.81099651613222" y2="-6.601528853603284" style="stroke:rgb(0,0,0);stroke-width:.00002" />
    <circle cx="106.8068" cy="-6.6043" fill="rgb(255,0,0)" r=".0001" />
    <text x="106.8068" y="-6.6043" stroke="rgb(0,0,0)" transform="translate(106.8068 -6.6043),scale(0.00001 -0.00001),translate(-106.8068 6.6043),translate(106.8125 -6.592499999999999),rotate(-30),translate(-106.8125 6.592499999999999)" >tol-1</text>
    <line x1="106.8111" y1="-6.6017" x2="106.8071" y2="-6.6045" style="stroke:rgb(255,0,0);stroke-width:.00002" />
    <line x1="106.81121469246887" y1="-6.601863846384104" x2="106.80721469246888" y2="-6.604663846384104" style="stroke:rgb(0,0,0);stroke-width:.00002" />
    <circle cx="106.8111" cy="-6.6017" fill="rgb(255,0,0)" r=".0001" />
    <text x="106.8111" y="-6.6017" stroke="rgb(0,0,0)" transform="translate(106.8111 -6.6017),scale(0.00001 -0.00001),translate(-106.8111 6.6017),translate(106.8125 -6.592499999999999),rotate(-30),translate(-106.8125 6.592499999999999)" >tol-2</text>
    <line x1="106.8071" y1="-6.6045" x2="106.8099" y2="-6.6078" style="stroke:rgb(255,0,0);stroke-width:.00002" />
    <line x1="106.80725250182708" y1="-6.604370604510361" x2="106.81005250182707" y2="-6.6076706045103615" style="stroke:rgb(0,0,0);stroke-width:.00002" />
    <circle cx="106.8071" cy="-6.6045" fill="rgb(255,0,0)" r=".0001" />
    <text x="106.8071" y="-6.6045" stroke="rgb(0,0,0)" transform="translate(106.8071 -6.6045),scale(0.00001 -0.00001),translate(-106.8071 6.6045),translate(106.8125 -6.592499999999999),rotate(-30),translate(-106.8125 6.592499999999999)" >tol-3</text>
    <line x1="106.8099" y1="-6.6078" x2="106.8105" y2="-6.6087" style="stroke:rgb(255,0,0);stroke-width:.00002" />
    <line x1="106.81006641005887" y1="-6.607689059960754" x2="106.81066641005887" y2="-6.608589059960754" style="stroke:rgb(0,0,0);stroke-width:.00002" />
    <circle cx="106.8099" cy="-6.6078" fill="rgb(255,0,0)" r=".0001" />
    <text x="106.8099" y="-6.6078" stroke="rgb(0,0,0)" transform="translate(106.8099 -6.6078),scale(0.00001 -0.00001),translate(-106.8099 6.6078),translate(106.8125 -6.592499999999999),rotate(-30),translate(-106.8125 6.592499999999999)" >pajajaran-ciheuleut</text>
    <line x1="106.8105" y1="-6.6087" x2="106.8087" y2="-6.6066" style="stroke:rgb(255,0,0);stroke-width:.00002" />
    <line x1="106.81034814867954" y1="-6.608830158274691" x2="106.80854814867953" y2="-6.606730158274692" style="stroke:rgb(0,0,0);stroke-width:.00002" />
    <circle cx="106.8105" cy="-6.6087" fill="rgb(255,0,0)" r=".0001" />
    <text x="106.8105" y="-6.6087" stroke="rgb(0,0,0)" transform="translate(106.8105 -6.6087),scale(0.00001 -0.00001),translate(-106.8105 6.6087),translate(106.8125 -6.592499999999999),rotate(-30),translate(-106.8125 6.592499999999999)" >pajajaran-michelle-bakery</text>
    <line x1="106.8087" y1="-6.6066" x2="106.808" y2="-6.6069" style="stroke:rgb(255,0,0);stroke-width:.00002" />
    <line x1="106.80877878385972" y1="-6.6067838290060035" x2="106.80807878385973" y2="-6.607083829006004" style="stroke:rgb(0,0,0);stroke-width:.00002" />
    <circle cx="106.8087" cy="-6.6066" fill="rgb(255,0,0)" r=".0001" />
    <text x="106.8087" y="-6.6066" stroke="rgb(0,0,0)" transform="translate(106.8087 -6.6066),scale(0.00001 -0.00001),translate(-106.8087 6.6066),translate(106.8125 -6.592499999999999),rotate(-30),translate(-106.8125 6.592499999999999)" >bangka-1</text>
    <line x1="106.808" y1="-6.6069" x2="106.8074" y2="-6.6065" style="stroke:rgb(255,0,0);stroke-width:.00002" />
    <line x1="106.80788905996076" y1="-6.607066410058868" x2="106.80728905996075" y2="-6.6066664100588675" style="stroke:rgb(0,0,0);stroke-width:.00002" />
    <circle cx="106.808" cy="-6.6069" fill="rgb(255,0,0)" r=".0001" />
    <text x="106.808" y="-6.6069" stroke="rgb(0,0,0)" transform="translate(106.808 -6.6069),scale(0.00001 -0.00001),translate(-106.808 6.6069),translate(106.8125 -6.592499999999999),rotate(-30),translate(-106.8125 6.592499999999999)" >bangka-2</text>
    <line x1="106.8074" y1="-6.6065" x2="106.8067" y2="-6.6066" style="stroke:rgb(255,0,0);stroke-width:.00002" />
    <line x1="106.80742828427125" y1="-6.6066979898987315" x2="106.80672828427126" y2="-6.606797989898732" style="stroke:rgb(0,0,0);stroke-width:.00002" />
    <circle cx="106.8074" cy="-6.6065" fill="rgb(255,0,0)" r=".0001" />
    <text x="106.8074" y="-6.6065" stroke="rgb(0,0,0)" transform="translate(106.8074 -6.6065),scale(0.00001 -0.00001),translate(-106.8074 6.6065),translate(106.8125 -6.592499999999999),rotate(-30),translate(-106.8125 6.592499999999999)" >bangka-3</text>
    <line x1="106.8067" y1="-6.6066" x2="106.8058" y2="-6.6052" style="stroke:rgb(255,0,0);stroke-width:.00002" />
    <line x1="106.80653176430494" y1="-6.606708151518263" x2="106.80563176430493" y2="-6.605308151518263" style="stroke:rgb(0,0,0);stroke-width:.00002" />
    <circle cx="106.8067" cy="-6.6066" fill="rgb(255,0,0)" r=".0001" />
    <text x="106.8067" y="-6.6066" stroke="rgb(0,0,0)" transform="translate(106.8067 -6.6066),scale(0.00001 -0.00001),translate(-106.8067 6.6066),translate(106.8125 -6.592499999999999),rotate(-30),translate(-106.8125 6.592499999999999)" >bangka-5</text>
    <line x1="106.8058" y1="-6.6052" x2="106.8051" y2="-6.6052" style="stroke:rgb(255,0,0);stroke-width:.00002" />
    <line x1="106.8058" y1="-6.6054" x2="106.8051" y2="-6.6054" style="stroke:rgb(0,0,0);stroke-width:.00002" />
    <circle cx="106.8058" cy="-6.6052" fill="rgb(255,0,0)" r=".0001" />
    <text x="106.8058" y="-6.6052" stroke="rgb(0,0,0)" transform="translate(106.8058 -6.6052),scale(0.00001 -0.00001),translate(-106.8058 6.6052),translate(106.8125 -6.592499999999999),rotate(-30),translate(-106.8125 6.592499999999999)" >bangka-6</text>
    <line x1="106.8051" y1="-6.6052" x2="106.804329" y2="-6.601646" style="stroke:rgb(255,0,0);stroke-width:.00002" />
    <line x1="106.80490454638058" y1="-6.605242401446417" x2="106.80393809276117" y2="-6.601730802892835" style="stroke:rgb(0,0,0);stroke-width:.00002" />
    <circle cx="106.8051" cy="-6.6052" fill="rgb(255,0,0)" r=".0001" />
    <text x="106.8051" y="-6.6052" stroke="rgb(0,0,0)" transform="translate(106.8051 -6.6052),scale(0.00001 -0.00001),translate(-106.8051 6.6052),translate(106.8125 -6.592499999999999),rotate(-30),translate(-106.8125 6.592499999999999)" >bangka-7</text>
    <line x1="106.804329" y1="-6.601646" x2="106.7999" y2="-6.6027" style="stroke:rgb(255,0,0);stroke-width:.00002" />
    <line x1="106.80442160465732" y1="-6.602035132853203" x2="106.79999260465732" y2="-6.603089132853203" style="stroke:rgb(0,0,0);stroke-width:.00002" />
    <circle cx="106.804329" cy="-6.601646" fill="rgb(255,0,0)" r=".0001" />
    <text x="106.804329" y="-6.601646" stroke="rgb(0,0,0)" transform="translate(106.804329 -6.601646),scale(0.00001 -0.00001),translate(-106.804329 6.601646),translate(106.8125 -6.592499999999999),rotate(-30),translate(-106.8125 6.592499999999999)" >bangka-otista</text>
    <line x1="106.7999" y1="-6.6027" x2="106.7996" y2="-6.6027" style="stroke:rgb(255,0,0);stroke-width:.00002" />
    <line x1="106.7999" y1="-6.6030999999999995" x2="106.7996" y2="-6.6033" style="stroke:rgb(0,0,0);stroke-width:.00002" />
    <circle cx="106.7999" cy="-6.6027" fill="rgb(255,0,0)" r=".0001" />
    <text x="106.7999" y="-6.6027" stroke="rgb(0,0,0)" transform="translate(106.7999 -6.6027),scale(0.00001 -0.00001),translate(-106.7999 6.6027),translate(106.8125 -6.592499999999999),rotate(-30),translate(-106.8125 6.592499999999999)" >otista-roda</text>
    <line x1="106.7996" y1="-6.6027" x2="106.7988" y2="-6.6031" style="stroke:rgb(255,0,0);stroke-width:.00002" />
    <line x1="106.7998683281573" y1="-6.603236656314599" x2="106.7988894427191" y2="-6.6032788854382005" style="stroke:rgb(0,0,0);stroke-width:.00002" />
    <circle cx="106.7996" cy="-6.6027" fill="rgb(255,0,0)" r=".0001" />
    <text x="106.7996" y="-6.6027" stroke="rgb(0,0,0)" transform="translate(106.7996 -6.6027),scale(0.00001 -0.00001),translate(-106.7996 6.6027),translate(106.8125 -6.592499999999999),rotate(-30),translate(-106.8125 6.592499999999999)" >kb-otista</text>
    <line x1="106.7988" y1="-6.6031" x2="106.797256" y2="-6.603941" style="stroke:rgb(255,0,0);stroke-width:.00002" />
    <line x1="106.79889566679947" y1="-6.603275635598553" x2="106.79735166679947" y2="-6.604116635598553" style="stroke:rgb(0,0,0);stroke-width:.00002" />
    <circle cx="106.7988" cy="-6.6031" fill="rgb(255,0,0)" r=".0001" />
    <text x="106.7988" y="-6.6031" stroke="rgb(0,0,0)" transform="translate(106.7988 -6.6031),scale(0.00001 -0.00001),translate(-106.7988 6.6031),translate(106.8125 -6.592499999999999),rotate(-30),translate(-106.8125 6.592499999999999)" >kb-suryakencana</text>
    <line x1="106.797256" y1="-6.603941" x2="106.7967" y2="-6.6042" style="stroke:rgb(255,0,0);stroke-width:.00002" />
    <line x1="106.79734045211916" y1="-6.6041222948967055" x2="106.79678445211916" y2="-6.604381294896705" style="stroke:rgb(0,0,0);stroke-width:.00002" />
    <circle cx="106.797256" cy="-6.603941" fill="rgb(255,0,0)" r=".0001" />
    <text x="106.797256" y="-6.603941" stroke="rgb(0,0,0)" transform="translate(106.797256 -6.603941),scale(0.00001 -0.00001),translate(-106.797256 6.603941),translate(106.8125 -6.592499999999999),rotate(-30),translate(-106.8125 6.592499999999999)" >cincau-kb</text>
    <line x1="106.7967" y1="-6.6042" x2="106.7961" y2="-6.6038" style="stroke:rgb(255,0,0);stroke-width:.00002" />
    <line x1="106.79658905996075" y1="-6.6043664100588675" x2="106.79576717988226" y2="-6.604299230176604" style="stroke:rgb(0,0,0);stroke-width:.00002" />
    <circle cx="106.7967" cy="-6.6042" fill="rgb(255,0,0)" r=".0001" />
    <text x="106.7967" y="-6.6042" stroke="rgb(0,0,0)" transform="translate(106.7967 -6.6042),scale(0.00001 -0.00001),translate(-106.7967 6.6042),translate(106.8125 -6.592499999999999),rotate(-30),translate(-106.8125 6.592499999999999)" >kb-btm-1</text>
    <line x1="106.7961" y1="-6.6038" x2="106.7937" y2="-6.5969" style="stroke:rgb(255,0,0);stroke-width:.00002" />
    <line x1="106.79553330192198" y1="-6.603997112374964" x2="106.79313330192198" y2="-6.597097112374964" style="stroke:rgb(0,0,0);stroke-width:.00002" />
    <circle cx="106.7961" cy="-6.6038" fill="rgb(255,0,0)" r=".0001" />
    <text x="106.7961" y="-6.6038" stroke="rgb(0,0,0)" transform="translate(106.7961 -6.6038),scale(0.00001 -0.00001),translate(-106.7961 6.6038),translate(106.8125 -6.592499999999999),rotate(-30),translate(-106.8125 6.592499999999999)" >kb-btm-2</text>
  </g>
</svg>
