<svg width="1049.9999999998977" height="1849.9999999999961" xmlns="http://www.w3.org/2000/svg" xmlns:xlink="http://www.w3.org/1999/xlink" >
  <g transform="translate(524.9999999999488 924.9999999999981) rotate(30) scale(10000 -10000) translate(-106.8125 6.592499999999999)">
    <path d="M106.76 -6.5 L106.865 -6.5 L106.865 -6.685 L106.76 -6.685 Z" fill="none" stroke="black" stroke-width="0.001" transform="translate(106.8125 -6.592499999999999) rotate(30) translate(-106.8125 6.592499999999999)" />
    <path d="M106.853956 -6.590138 L106.852374 -6.587577 L106.853089 -6.586791 L106.848445 -6.585347 L106.843622 -6.586867 L106.841274 -6.588769 L106.836451 -6.588997 L106.835584 -6.58996 L106.818532 -6.589333 L106.818506 -6.590271 L106.816886 -6.590765 L106.81626 -6.587305 L106.81663 -6.590765 L106.816018 -6.590866 L106.815571 -6.591487 L106.814436 -6.591868 L106.808631 -6.591665 L106.808235 -6.591259 L106.805734 -6.591272 L106.805706 -6.591276 L106.805701 -6.592177 L106.8046 -6.5922 L106.8044 -6.5959 L106.8052 -6.6009 L106.8047 -6.6016 L106.804329 -6.601646 L106.7996 -6.6027 L106.7988 -6.6031 L106.797256 -6.603941 L106.7967 -6.6042 L106.7961 -6.6038 L106.7937 -6.5969 L106.7946 -6.5945 L106.7973 -6.593 L106.7984 -6.5935 L106.800814 -6.592262 L106.801806 -6.592667 L106.8029 -6.5935 L106.8046 -6.5922 L106.8057 -6.5921 L106.805734 -6.591272 L106.805734 -6.591272 L106.808235 -6.591259 L106.808631 -6.591665 L106.814436 -6.591868 L106.815571 -6.591487 L106.816018 -6.590866 L106.81663 -6.590765 L106.81626 -6.587305 L106.816886 -6.590765 L106.818506 -6.590271 L106.818532 -6.589333 L106.835584 -6.58996 L106.836451 -6.588997 L106.841274 -6.588769 L106.843622 -6.586867 L106.848445 -6.585347 L106.853089 -6.586791 L106.852374 -6.587577 L106.853956 -6.590138 L106.859979 -6.591304 L106.865159 -6.589352 L106.859979 -6.591304 Z" stroke="pink" stroke-width="0.0002" fill="none" />



    <line x1="106.859979" y1="-6.591304" x2="106.853956" y2="-6.590138" style="stroke:rgb(255,0,0);stroke-width:.00002" />
    <line x1="106.859979" y1="-6.591304" x2="106.853956" y2="-6.590138" style="stroke:rgb(0,0,0);stroke-width:.00002" />
    <circle cx="106.859979" cy="-6.591304" fill="rgb(255,0,0)" r=".0001" />
    <text x="106.859979" y="-6.591304" stroke="rgb(0,0,0)" transform="translate(106.859979 -6.591304),scale(0.00001 -0.00001),translate(-106.859979 6.591304),translate(106.8125 -6.592499999999999),rotate(-30),translate(-106.8125 6.592499999999999)" >line-05-21</text>
    <line x1="106.853956" y1="-6.590138" x2="106.852374" y2="-6.587577" style="stroke:rgb(255,0,0);stroke-width:.00002" />
    <line x1="106.853956" y1="-6.590138" x2="106.852374" y2="-6.587577" style="stroke:rgb(0,0,0);stroke-width:.00002" />
    <circle cx="106.853956" cy="-6.590138" fill="rgb(255,0,0)" r=".0001" />
    <text x="106.853956" y="-6.590138" stroke="rgb(0,0,0)" transform="translate(106.853956 -6.590138),scale(0.00001 -0.00001),translate(-106.853956 6.590138),translate(106.8125 -6.592499999999999),rotate(-30),translate(-106.8125 6.592499999999999)" >line-05-20</text>
    <line x1="106.852374" y1="-6.587577" x2="106.853089" y2="-6.586791" style="stroke:rgb(255,0,0);stroke-width:.00002" />
    <line x1="106.852374" y1="-6.587577" x2="106.853089" y2="-6.586791" style="stroke:rgb(0,0,0);stroke-width:.00002" />
    <circle cx="106.852374" cy="-6.587577" fill="rgb(255,0,0)" r=".0001" />
    <text x="106.852374" y="-6.587577" stroke="rgb(0,0,0)" transform="translate(106.852374 -6.587577),scale(0.00001 -0.00001),translate(-106.852374 6.587577),translate(106.8125 -6.592499999999999),rotate(-30),translate(-106.8125 6.592499999999999)" >line-05-19</text>
    <line x1="106.853089" y1="-6.586791" x2="106.848445" y2="-6.585347" style="stroke:rgb(255,0,0);stroke-width:.00002" />
    <line x1="106.853089" y1="-6.586791" x2="106.848445" y2="-6.585347" style="stroke:rgb(0,0,0);stroke-width:.00002" />
    <circle cx="106.853089" cy="-6.586791" fill="rgb(255,0,0)" r=".0001" />
    <text x="106.853089" y="-6.586791" stroke="rgb(0,0,0)" transform="translate(106.853089 -6.586791),scale(0.00001 -0.00001),translate(-106.853089 6.586791),translate(106.8125 -6.592499999999999),rotate(-30),translate(-106.8125 6.592499999999999)" >line-05-18</text>
    <line x1="106.848445" y1="-6.585347" x2="106.843622" y2="-6.586867" style="stroke:rgb(255,0,0);stroke-width:.00002" />
    <line x1="106.848445" y1="-6.585347" x2="106.843622" y2="-6.586867" style="stroke:rgb(0,0,0);stroke-width:.00002" />
    <circle cx="106.848445" cy="-6.585347" fill="rgb(255,0,0)" r=".0001" />
    <text x="106.848445" y="-6.585347" stroke="rgb(0,0,0)" transform="translate(106.848445 -6.585347),scale(0.00001 -0.00001),translate(-106.848445 6.585347),translate(106.8125 -6.592499999999999),rotate(-30),translate(-106.8125 6.592499999999999)" >line-05-17</text>
    <line x1="106.843622" y1="-6.586867" x2="106.841274" y2="-6.588769" style="stroke:rgb(255,0,0);stroke-width:.00002" />
    <line x1="106.843622" y1="-6.586867" x2="106.841274" y2="-6.588769" style="stroke:rgb(0,0,0);stroke-width:.00002" />
    <circle cx="106.843622" cy="-6.586867" fill="rgb(255,0,0)" r=".0001" />
    <text x="106.843622" y="-6.586867" stroke="rgb(0,0,0)" transform="translate(106.843622 -6.586867),scale(0.00001 -0.00001),translate(-106.843622 6.586867),translate(106.8125 -6.592499999999999),rotate(-30),translate(-106.8125 6.592499999999999)" >line-05-16</text>
    <line x1="106.841274" y1="-6.588769" x2="106.836451" y2="-6.588997" style="stroke:rgb(255,0,0);stroke-width:.00002" />
    <line x1="106.841274" y1="-6.588769" x2="106.836451" y2="-6.588997" style="stroke:rgb(0,0,0);stroke-width:.00002" />
    <circle cx="106.841274" cy="-6.588769" fill="rgb(255,0,0)" r=".0001" />
    <text x="106.841274" y="-6.588769" stroke="rgb(0,0,0)" transform="translate(106.841274 -6.588769),scale(0.00001 -0.00001),translate(-106.841274 6.588769),translate(106.8125 -6.592499999999999),rotate(-30),translate(-106.8125 6.592499999999999)" >line-05-15</text>
    <line x1="106.836451" y1="-6.588997" x2="106.835584" y2="-6.58996" style="stroke:rgb(255,0,0);stroke-width:.00002" />
    <line x1="106.836451" y1="-6.588997" x2="106.835584" y2="-6.58996" style="stroke:rgb(0,0,0);stroke-width:.00002" />
    <circle cx="106.836451" cy="-6.588997" fill="rgb(255,0,0)" r=".0001" />
    <text x="106.836451" y="-6.588997" stroke="rgb(0,0,0)" transform="translate(106.836451 -6.588997),scale(0.00001 -0.00001),translate(-106.836451 6.588997),translate(106.8125 -6.592499999999999),rotate(-30),translate(-106.8125 6.592499999999999)" >line-05-14</text>
    <line x1="106.835584" y1="-6.58996" x2="106.818532" y2="-6.589333" style="stroke:rgb(255,0,0);stroke-width:.00002" />
    <line x1="106.835584" y1="-6.58996" x2="106.818532" y2="-6.589333" style="stroke:rgb(0,0,0);stroke-width:.00002" />
    <circle cx="106.835584" cy="-6.58996" fill="rgb(255,0,0)" r=".0001" />
    <text x="106.835584" y="-6.58996" stroke="rgb(0,0,0)" transform="translate(106.835584 -6.58996),scale(0.00001 -0.00001),translate(-106.835584 6.58996),translate(106.8125 -6.592499999999999),rotate(-30),translate(-106.8125 6.592499999999999)" >line-05-13</text>
    <line x1="106.818532" y1="-6.589333" x2="106.818506" y2="-6.590271" style="stroke:rgb(255,0,0);stroke-width:.00002" />
    <line x1="106.818532" y1="-6.589333" x2="106.818506" y2="-6.590271" style="stroke:rgb(0,0,0);stroke-width:.00002" />
    <circle cx="106.818532" cy="-6.589333" fill="rgb(255,0,0)" r=".0001" />
    <text x="106.818532" y="-6.589333" stroke="rgb(0,0,0)" transform="translate(106.818532 -6.589333),scale(0.00001 -0.00001),translate(-106.818532 6.589333),translate(106.8125 -6.592499999999999),rotate(-30),translate(-106.8125 6.592499999999999)" >line-05-12</text>
    <line x1="106.818506" y1="-6.590271" x2="106.816886" y2="-6.590765" style="stroke:rgb(255,0,0);stroke-width:.00002" />
    <line x1="106.818506" y1="-6.590271" x2="106.816886" y2="-6.590765" style="stroke:rgb(0,0,0);stroke-width:.00002" />
    <circle cx="106.818506" cy="-6.590271" fill="rgb(255,0,0)" r=".0001" />
    <text x="106.818506" y="-6.590271" stroke="rgb(0,0,0)" transform="translate(106.818506 -6.590271),scale(0.00001 -0.00001),translate(-106.818506 6.590271),translate(106.8125 -6.592499999999999),rotate(-30),translate(-106.8125 6.592499999999999)" >line-05-11</text>
    <line x1="106.816886" y1="-6.590765" x2="106.81626" y2="-6.587305" style="stroke:rgb(255,0,0);stroke-width:.00002" />
    <line x1="106.816886" y1="-6.590765" x2="106.81626" y2="-6.587305" style="stroke:rgb(0,0,0);stroke-width:.00002" />
    <circle cx="106.816886" cy="-6.590765" fill="rgb(255,0,0)" r=".0001" />
    <text x="106.816886" y="-6.590765" stroke="rgb(0,0,0)" transform="translate(106.816886 -6.590765),scale(0.00001 -0.00001),translate(-106.816886 6.590765),translate(106.8125 -6.592499999999999),rotate(-30),translate(-106.8125 6.592499999999999)" >line-05-10</text>
    <line x1="106.81626" y1="-6.587305" x2="106.81663" y2="-6.590765" style="stroke:rgb(255,0,0);stroke-width:.00002" />
    <line x1="106.81626" y1="-6.587305" x2="106.81663" y2="-6.590765" style="stroke:rgb(0,0,0);stroke-width:.00002" />
    <circle cx="106.81626" cy="-6.587305" fill="rgb(255,0,0)" r=".0001" />
    <text x="106.81626" y="-6.587305" stroke="rgb(0,0,0)" transform="translate(106.81626 -6.587305),scale(0.00001 -0.00001),translate(-106.81626 6.587305),translate(106.8125 -6.592499999999999),rotate(-30),translate(-106.8125 6.592499999999999)" >line-05-9</text>
    <line x1="106.81663" y1="-6.590765" x2="106.816018" y2="-6.590866" style="stroke:rgb(255,0,0);stroke-width:.00002" />
    <line x1="106.81663" y1="-6.590765" x2="106.816018" y2="-6.590866" style="stroke:rgb(0,0,0);stroke-width:.00002" />
    <circle cx="106.81663" cy="-6.590765" fill="rgb(255,0,0)" r=".0001" />
    <text x="106.81663" y="-6.590765" stroke="rgb(0,0,0)" transform="translate(106.81663 -6.590765),scale(0.00001 -0.00001),translate(-106.81663 6.590765),translate(106.8125 -6.592499999999999),rotate(-30),translate(-106.8125 6.592499999999999)" >line-05-8</text>
    <line x1="106.816018" y1="-6.590866" x2="106.815571" y2="-6.591487" style="stroke:rgb(255,0,0);stroke-width:.00002" />
    <line x1="106.816018" y1="-6.590866" x2="106.815571" y2="-6.591487" style="stroke:rgb(0,0,0);stroke-width:.00002" />
    <circle cx="106.816018" cy="-6.590866" fill="rgb(255,0,0)" r=".0001" />
    <text x="106.816018" y="-6.590866" stroke="rgb(0,0,0)" transform="translate(106.816018 -6.590866),scale(0.00001 -0.00001),translate(-106.816018 6.590866),translate(106.8125 -6.592499999999999),rotate(-30),translate(-106.8125 6.592499999999999)" >line-05-7</text>
    <line x1="106.815571" y1="-6.591487" x2="106.814436" y2="-6.591868" style="stroke:rgb(255,0,0);stroke-width:.00002" />
    <line x1="106.815571" y1="-6.591487" x2="106.814436" y2="-6.591868" style="stroke:rgb(0,0,0);stroke-width:.00002" />
    <circle cx="106.815571" cy="-6.591487" fill="rgb(255,0,0)" r=".0001" />
    <text x="106.815571" y="-6.591487" stroke="rgb(0,0,0)" transform="translate(106.815571 -6.591487),scale(0.00001 -0.00001),translate(-106.815571 6.591487),translate(106.8125 -6.592499999999999),rotate(-30),translate(-106.8125 6.592499999999999)" >line-05-6</text>
    <line x1="106.814436" y1="-6.591868" x2="106.808631" y2="-6.591665" style="stroke:rgb(255,0,0);stroke-width:.00002" />
    <line x1="106.814436" y1="-6.591868" x2="106.808631" y2="-6.591665" style="stroke:rgb(0,0,0);stroke-width:.00002" />
    <circle cx="106.814436" cy="-6.591868" fill="rgb(255,0,0)" r=".0001" />
    <text x="106.814436" y="-6.591868" stroke="rgb(0,0,0)" transform="translate(106.814436 -6.591868),scale(0.00001 -0.00001),translate(-106.814436 6.591868),translate(106.8125 -6.592499999999999),rotate(-30),translate(-106.8125 6.592499999999999)" >line-05-5</text>
    <line x1="106.808631" y1="-6.591665" x2="106.808235" y2="-6.591259" style="stroke:rgb(255,0,0);stroke-width:.00002" />
    <line x1="106.808631" y1="-6.591665" x2="106.808235" y2="-6.591259" style="stroke:rgb(0,0,0);stroke-width:.00002" />
    <circle cx="106.808631" cy="-6.591665" fill="rgb(255,0,0)" r=".0001" />
    <text x="106.808631" y="-6.591665" stroke="rgb(0,0,0)" transform="translate(106.808631 -6.591665),scale(0.00001 -0.00001),translate(-106.808631 6.591665),translate(106.8125 -6.592499999999999),rotate(-30),translate(-106.8125 6.592499999999999)" >line-05-4</text>
    <line x1="106.808235" y1="-6.591259" x2="106.805734" y2="-6.591272" style="stroke:rgb(255,0,0);stroke-width:.00002" />
    <line x1="106.808235" y1="-6.591259" x2="106.805734" y2="-6.591272" style="stroke:rgb(0,0,0);stroke-width:.00002" />
    <circle cx="106.808235" cy="-6.591259" fill="rgb(255,0,0)" r=".0001" />
    <text x="106.808235" y="-6.591259" stroke="rgb(0,0,0)" transform="translate(106.808235 -6.591259),scale(0.00001 -0.00001),translate(-106.808235 6.591259),translate(106.8125 -6.592499999999999),rotate(-30),translate(-106.8125 6.592499999999999)" >line-05-3</text>
    <line x1="106.805734" y1="-6.591272" x2="106.805706" y2="-6.591276" style="stroke:rgb(255,0,0);stroke-width:.00002" />
    <line x1="106.805734" y1="-6.591272" x2="106.805706" y2="-6.591276" style="stroke:rgb(0,0,0);stroke-width:.00002" />
    <circle cx="106.805734" cy="-6.591272" fill="rgb(255,0,0)" r=".0001" />
    <text x="106.805734" y="-6.591272" stroke="rgb(0,0,0)" transform="translate(106.805734 -6.591272),scale(0.00001 -0.00001),translate(-106.805734 6.591272),translate(106.8125 -6.592499999999999),rotate(-30),translate(-106.8125 6.592499999999999)" >line-05-2</text>
    <line x1="106.805706" y1="-6.591276" x2="106.805701" y2="-6.592177" style="stroke:rgb(255,0,0);stroke-width:.00002" />
    <line x1="106.805706" y1="-6.591276" x2="106.805701" y2="-6.592177" style="stroke:rgb(0,0,0);stroke-width:.00002" />
    <circle cx="106.805706" cy="-6.591276" fill="rgb(255,0,0)" r=".0001" />
    <text x="106.805706" y="-6.591276" stroke="rgb(0,0,0)" transform="translate(106.805706 -6.591276),scale(0.00001 -0.00001),translate(-106.805706 6.591276),translate(106.8125 -6.592499999999999),rotate(-30),translate(-106.8125 6.592499999999999)" >lodaya-M</text>
    <line x1="106.805701" y1="-6.592177" x2="106.8046" y2="-6.5922" style="stroke:rgb(255,0,0);stroke-width:.00002" />
    <line x1="106.805701" y1="-6.592177" x2="106.8046" y2="-6.5922" style="stroke:rgb(0,0,0);stroke-width:.00002" />
    <circle cx="106.805701" cy="-6.592177" fill="rgb(255,0,0)" r=".0001" />
    <text x="106.805701" y="-6.592177" stroke="rgb(0,0,0)" transform="translate(106.805701 -6.592177),scale(0.00001 -0.00001),translate(-106.805701 6.592177),translate(106.8125 -6.592499999999999),rotate(-30),translate(-106.8125 6.592499999999999)" >lodaya-S</text>
    <line x1="106.8046" y1="-6.5922" x2="106.8044" y2="-6.5959" style="stroke:rgb(255,0,0);stroke-width:.00002" />
    <line x1="106.8046" y1="-6.5922" x2="106.8044" y2="-6.5959" style="stroke:rgb(0,0,0);stroke-width:.00002" />
    <circle cx="106.8046" cy="-6.5922" fill="rgb(255,0,0)" r=".0001" />
    <text x="106.8046" y="-6.5922" stroke="rgb(0,0,0)" transform="translate(106.8046 -6.5922),scale(0.00001 -0.00001),translate(-106.8046 6.5922),translate(106.8125 -6.592499999999999),rotate(-30),translate(-106.8125 6.592499999999999)" >pangrango-pajajaran</text>
    <line x1="106.8044" y1="-6.5959" x2="106.8052" y2="-6.6009" style="stroke:rgb(255,0,0);stroke-width:.00002" />
    <line x1="106.8044" y1="-6.5959" x2="106.8052" y2="-6.6009" style="stroke:rgb(0,0,0);stroke-width:.00002" />
    <circle cx="106.8044" cy="-6.5959" fill="rgb(255,0,0)" r=".0001" />
    <text x="106.8044" y="-6.5959" stroke="rgb(0,0,0)" transform="translate(106.8044 -6.5959),scale(0.00001 -0.00001),translate(-106.8044 6.5959),translate(106.8125 -6.592499999999999),rotate(-30),translate(-106.8125 6.592499999999999)" >kb-astrid</text>
    <line x1="106.8052" y1="-6.6009" x2="106.8047" y2="-6.6016" style="stroke:rgb(255,0,0);stroke-width:.00002" />
    <line x1="106.8052" y1="-6.6009" x2="106.8047" y2="-6.6016" style="stroke:rgb(0,0,0);stroke-width:.00002" />
    <circle cx="106.8052" cy="-6.6009" fill="rgb(255,0,0)" r=".0001" />
    <text x="106.8052" y="-6.6009" stroke="rgb(0,0,0)" transform="translate(106.8052 -6.6009),scale(0.00001 -0.00001),translate(-106.8052 6.6009),translate(106.8125 -6.592499999999999),rotate(-30),translate(-106.8125 6.592499999999999)" >kb-botani-1</text>
    <line x1="106.8047" y1="-6.6016" x2="106.804329" y2="-6.601646" style="stroke:rgb(255,0,0);stroke-width:.00002" />
    <line x1="106.8047" y1="-6.6016" x2="106.804329" y2="-6.601646" style="stroke:rgb(0,0,0);stroke-width:.00002" />
    <circle cx="106.8047" cy="-6.6016" fill="rgb(255,0,0)" r=".0001" />
    <text x="106.8047" y="-6.6016" stroke="rgb(0,0,0)" transform="translate(106.8047 -6.6016),scale(0.00001 -0.00001),translate(-106.8047 6.6016),translate(106.8125 -6.592499999999999),rotate(-30),translate(-106.8125 6.592499999999999)" >kb-botani-2</text>
    <line x1="106.804329" y1="-6.601646" x2="106.7996" y2="-6.6027" style="stroke:rgb(255,0,0);stroke-width:.00002" />
    <line x1="106.804329" y1="-6.601646" x2="106.7996" y2="-6.6027" style="stroke:rgb(0,0,0);stroke-width:.00002" />
    <circle cx="106.804329" cy="-6.601646" fill="rgb(255,0,0)" r=".0001" />
    <text x="106.804329" y="-6.601646" stroke="rgb(0,0,0)" transform="translate(106.804329 -6.601646),scale(0.00001 -0.00001),translate(-106.804329 6.601646),translate(106.8125 -6.592499999999999),rotate(-30),translate(-106.8125 6.592499999999999)" >bangka-otista</text>
    <line x1="106.7996" y1="-6.6027" x2="106.7988" y2="-6.6031" style="stroke:rgb(255,0,0);stroke-width:.00002" />
    <line x1="106.7996" y1="-6.6027" x2="106.7988" y2="-6.6031" style="stroke:rgb(0,0,0);stroke-width:.00002" />
    <circle cx="106.7996" cy="-6.6027" fill="rgb(255,0,0)" r=".0001" />
    <text x="106.7996" y="-6.6027" stroke="rgb(0,0,0)" transform="translate(106.7996 -6.6027),scale(0.00001 -0.00001),translate(-106.7996 6.6027),translate(106.8125 -6.592499999999999),rotate(-30),translate(-106.8125 6.592499999999999)" >kb-otista</text>
    <line x1="106.7988" y1="-6.6031" x2="106.797256" y2="-6.603941" style="stroke:rgb(255,0,0);stroke-width:.00002" />
    <line x1="106.7988" y1="-6.6031" x2="106.797256" y2="-6.603941" style="stroke:rgb(0,0,0);stroke-width:.00002" />
    <circle cx="106.7988" cy="-6.6031" fill="rgb(255,0,0)" r=".0001" />
    <text x="106.7988" y="-6.6031" stroke="rgb(0,0,0)" transform="translate(106.7988 -6.6031),scale(0.00001 -0.00001),translate(-106.7988 6.6031),translate(106.8125 -6.592499999999999),rotate(-30),translate(-106.8125 6.592499999999999)" >kb-suryakencana</text>
    <line x1="106.797256" y1="-6.603941" x2="106.7967" y2="-6.6042" style="stroke:rgb(255,0,0);stroke-width:.00002" />
    <line x1="106.797256" y1="-6.603941" x2="106.7967" y2="-6.6042" style="stroke:rgb(0,0,0);stroke-width:.00002" />
    <circle cx="106.797256" cy="-6.603941" fill="rgb(255,0,0)" r=".0001" />
    <text x="106.797256" y="-6.603941" stroke="rgb(0,0,0)" transform="translate(106.797256 -6.603941),scale(0.00001 -0.00001),translate(-106.797256 6.603941),translate(106.8125 -6.592499999999999),rotate(-30),translate(-106.8125 6.592499999999999)" >cincau-kb</text>
    <line x1="106.7967" y1="-6.6042" x2="106.7961" y2="-6.6038" style="stroke:rgb(255,0,0);stroke-width:.00002" />
    <line x1="106.7967" y1="-6.6042" x2="106.7961" y2="-6.6038" style="stroke:rgb(0,0,0);stroke-width:.00002" />
    <circle cx="106.7967" cy="-6.6042" fill="rgb(255,0,0)" r=".0001" />
    <text x="106.7967" y="-6.6042" stroke="rgb(0,0,0)" transform="translate(106.7967 -6.6042),scale(0.00001 -0.00001),translate(-106.7967 6.6042),translate(106.8125 -6.592499999999999),rotate(-30),translate(-106.8125 6.592499999999999)" >kb-btm-1</text>
    <line x1="106.7961" y1="-6.6038" x2="106.7937" y2="-6.5969" style="stroke:rgb(255,0,0);stroke-width:.00002" />
    <line x1="106.7961" y1="-6.6038" x2="106.7937" y2="-6.5969" style="stroke:rgb(0,0,0);stroke-width:.00002" />
    <circle cx="106.7961" cy="-6.6038" fill="rgb(255,0,0)" r=".0001" />
    <text x="106.7961" y="-6.6038" stroke="rgb(0,0,0)" transform="translate(106.7961 -6.6038),scale(0.00001 -0.00001),translate(-106.7961 6.6038),translate(106.8125 -6.592499999999999),rotate(-30),translate(-106.8125 6.592499999999999)" >kb-btm-2</text>
    <line x1="106.7937" y1="-6.5969" x2="106.7946" y2="-6.5945" style="stroke:rgb(255,0,0);stroke-width:.00002" />
    <line x1="106.7937" y1="-6.5969" x2="106.7946" y2="-6.5945" style="stroke:rgb(0,0,0);stroke-width:.00002" />
    <circle cx="106.7937" cy="-6.5969" fill="rgb(255,0,0)" r=".0001" />
    <text x="106.7937" y="-6.5969" stroke="rgb(0,0,0)" transform="translate(106.7937 -6.5969),scale(0.00001 -0.00001),translate(-106.7937 6.5969),translate(106.8125 -6.592499999999999),rotate(-30),translate(-106.8125 6.592499999999999)" >kb-muslihat</text>
    <line x1="106.7946" y1="-6.5945" x2="106.7973" y2="-6.593" style="stroke:rgb(255,0,0);stroke-width:.00002" />
    <line x1="106.7946" y1="-6.5945" x2="106.7973" y2="-6.593" style="stroke:rgb(0,0,0);stroke-width:.00002" />
    <circle cx="106.7946" cy="-6.5945" fill="rgb(255,0,0)" r=".0001" />
    <text x="106.7946" y="-6.5945" stroke="rgb(0,0,0)" transform="translate(106.7946 -6.5945),scale(0.00001 -0.00001),translate(-106.7946 6.5945),translate(106.8125 -6.592499999999999),rotate(-30),translate(-106.8125 6.592499999999999)" >kb-gedong-sawah</text>
    <line x1="106.7973" y1="-6.593" x2="106.7984" y2="-6.5935" style="stroke:rgb(255,0,0);stroke-width:.00002" />
    <line x1="106.7973" y1="-6.593" x2="106.7984" y2="-6.5935" style="stroke:rgb(0,0,0);stroke-width:.00002" />
    <circle cx="106.7973" cy="-6.593" fill="rgb(255,0,0)" r=".0001" />
    <text x="106.7973" y="-6.593" stroke="rgb(0,0,0)" transform="translate(106.7973 -6.593),scale(0.00001 -0.00001),translate(-106.7973 6.593),translate(106.8125 -6.592499999999999),rotate(-30),translate(-106.8125 6.592499999999999)" >kb-polisi-militer</text>
    <line x1="106.7984" y1="-6.5935" x2="106.800814" y2="-6.592262" style="stroke:rgb(255,0,0);stroke-width:.00002" />
    <line x1="106.7984" y1="-6.5935" x2="106.800814" y2="-6.592262" style="stroke:rgb(0,0,0);stroke-width:.00002" />
    <circle cx="106.7984" cy="-6.5935" fill="rgb(255,0,0)" r=".0001" />
    <text x="106.7984" y="-6.5935" stroke="rgb(0,0,0)" transform="translate(106.7984 -6.5935),scale(0.00001 -0.00001),translate(-106.7984 6.5935),translate(106.8125 -6.592499999999999),rotate(-30),translate(-106.8125 6.592499999999999)" >kb-jalak-harupat</text>
    <line x1="106.800814" y1="-6.592262" x2="106.801806" y2="-6.592667" style="stroke:rgb(255,0,0);stroke-width:.00002" />
    <line x1="106.800814" y1="-6.592262" x2="106.801806" y2="-6.592667" style="stroke:rgb(0,0,0);stroke-width:.00002" />
    <circle cx="106.800814" cy="-6.592262" fill="rgb(255,0,0)" r=".0001" />
    <text x="106.800814" y="-6.592262" stroke="rgb(0,0,0)" transform="translate(106.800814 -6.592262),scale(0.00001 -0.00001),translate(-106.800814 6.592262),translate(106.8125 -6.592499999999999),rotate(-30),translate(-106.8125 6.592499999999999)" >kb-sempur</text>
    <line x1="106.801806" y1="-6.592667" x2="106.8029" y2="-6.5935" style="stroke:rgb(255,0,0);stroke-width:.00002" />
    <line x1="106.801806" y1="-6.592667" x2="106.8029" y2="-6.5935" style="stroke:rgb(0,0,0);stroke-width:.00002" />
    <circle cx="106.801806" cy="-6.592667" fill="rgb(255,0,0)" r=".0001" />
    <text x="106.801806" y="-6.592667" stroke="rgb(0,0,0)" transform="translate(106.801806 -6.592667),scale(0.00001 -0.00001),translate(-106.801806 6.592667),translate(106.8125 -6.592499999999999),rotate(-30),translate(-106.8125 6.592499999999999)" >kb-salak</text>
    <line x1="106.8029" y1="-6.5935" x2="106.8046" y2="-6.5922" style="stroke:rgb(255,0,0);stroke-width:.00002" />
    <line x1="106.8029" y1="-6.5935" x2="106.8046" y2="-6.5922" style="stroke:rgb(0,0,0);stroke-width:.00002" />
    <circle cx="106.8029" cy="-6.5935" fill="rgb(255,0,0)" r=".0001" />
    <text x="106.8029" y="-6.5935" stroke="rgb(0,0,0)" transform="translate(106.8029 -6.5935),scale(0.00001 -0.00001),translate(-106.8029 6.5935),translate(106.8125 -6.592499999999999),rotate(-30),translate(-106.8125 6.592499999999999)" >kb-pangrango</text>
    <line x1="106.8046" y1="-6.5922" x2="106.8057" y2="-6.5921" style="stroke:rgb(255,0,0);stroke-width:.00002" />
    <line x1="106.8046" y1="-6.5922" x2="106.8057" y2="-6.5921" style="stroke:rgb(0,0,0);stroke-width:.00002" />
    <circle cx="106.8046" cy="-6.5922" fill="rgb(255,0,0)" r=".0001" />
    <text x="106.8046" y="-6.5922" stroke="rgb(0,0,0)" transform="translate(106.8046 -6.5922),scale(0.00001 -0.00001),translate(-106.8046 6.5922),translate(106.8125 -6.592499999999999),rotate(-30),translate(-106.8125 6.592499999999999)" >pangrango-pajajaran</text>
    <line x1="106.8057" y1="-6.5921" x2="106.805734" y2="-6.591272" style="stroke:rgb(255,0,0);stroke-width:.00002" />
    <line x1="106.8057" y1="-6.5921" x2="106.805734" y2="-6.591272" style="stroke:rgb(0,0,0);stroke-width:.00002" />
    <circle cx="106.8057" cy="-6.5921" fill="rgb(255,0,0)" r=".0001" />
    <text x="106.8057" y="-6.5921" stroke="rgb(0,0,0)" transform="translate(106.8057 -6.5921),scale(0.00001 -0.00001),translate(-106.8057 6.5921),translate(106.8125 -6.592499999999999),rotate(-30),translate(-106.8125 6.592499999999999)" >lodaya-S</text>
    <line x1="106.805734" y1="-6.591272" x2="106.805734" y2="-6.591272" style="stroke:rgb(255,0,0);stroke-width:.00002" />
    <line x1="106.805734" y1="-6.591272" x2="106.805734" y2="-6.591272" style="stroke:rgb(0,0,0);stroke-width:.00002" />
    <circle cx="106.805734" cy="-6.591272" fill="rgb(255,0,0)" r=".0001" />
    <text x="106.805734" y="-6.591272" stroke="rgb(0,0,0)" transform="translate(106.805734 -6.591272),scale(0.00001 -0.00001),translate(-106.805734 6.591272),translate(106.8125 -6.592499999999999),rotate(-30),translate(-106.8125 6.592499999999999)" >lodaya-M</text>
    <line x1="106.805734" y1="-6.591272" x2="106.808235" y2="-6.591259" style="stroke:rgb(255,0,0);stroke-width:.00002" />
    <line x1="106.805734" y1="-6.591272" x2="106.808235" y2="-6.591259" style="stroke:rgb(0,0,0);stroke-width:.00002" />
    <circle cx="106.805734" cy="-6.591272" fill="rgb(255,0,0)" r=".0001" />
    <text x="106.805734" y="-6.591272" stroke="rgb(0,0,0)" transform="translate(106.805734 -6.591272),scale(0.00001 -0.00001),translate(-106.805734 6.591272),translate(106.8125 -6.592499999999999),rotate(-30),translate(-106.8125 6.592499999999999)" >line-05-2</text>
    <line x1="106.808235" y1="-6.591259" x2="106.808631" y2="-6.591665" style="stroke:rgb(255,0,0);stroke-width:.00002" />
    <line x1="106.808235" y1="-6.591259" x2="106.808631" y2="-6.591665" style="stroke:rgb(0,0,0);stroke-width:.00002" />
    <circle cx="106.808235" cy="-6.591259" fill="rgb(255,0,0)" r=".0001" />
    <text x="106.808235" y="-6.591259" stroke="rgb(0,0,0)" transform="translate(106.808235 -6.591259),scale(0.00001 -0.00001),translate(-106.808235 6.591259),translate(106.8125 -6.592499999999999),rotate(-30),translate(-106.8125 6.592499999999999)" >line-05-3</text>
    <line x1="106.808631" y1="-6.591665" x2="106.814436" y2="-6.591868" style="stroke:rgb(255,0,0);stroke-width:.00002" />
    <line x1="106.808631" y1="-6.591665" x2="106.814436" y2="-6.591868" style="stroke:rgb(0,0,0);stroke-width:.00002" />
    <circle cx="106.808631" cy="-6.591665" fill="rgb(255,0,0)" r=".0001" />
    <text x="106.808631" y="-6.591665" stroke="rgb(0,0,0)" transform="translate(106.808631 -6.591665),scale(0.00001 -0.00001),translate(-106.808631 6.591665),translate(106.8125 -6.592499999999999),rotate(-30),translate(-106.8125 6.592499999999999)" >line-05-4</text>
    <line x1="106.814436" y1="-6.591868" x2="106.815571" y2="-6.591487" style="stroke:rgb(255,0,0);stroke-width:.00002" />
    <line x1="106.814436" y1="-6.591868" x2="106.815571" y2="-6.591487" style="stroke:rgb(0,0,0);stroke-width:.00002" />
    <circle cx="106.814436" cy="-6.591868" fill="rgb(255,0,0)" r=".0001" />
    <text x="106.814436" y="-6.591868" stroke="rgb(0,0,0)" transform="translate(106.814436 -6.591868),scale(0.00001 -0.00001),translate(-106.814436 6.591868),translate(106.8125 -6.592499999999999),rotate(-30),translate(-106.8125 6.592499999999999)" >line-05-5</text>
    <line x1="106.815571" y1="-6.591487" x2="106.816018" y2="-6.590866" style="stroke:rgb(255,0,0);stroke-width:.00002" />
    <line x1="106.815571" y1="-6.591487" x2="106.816018" y2="-6.590866" style="stroke:rgb(0,0,0);stroke-width:.00002" />
    <circle cx="106.815571" cy="-6.591487" fill="rgb(255,0,0)" r=".0001" />
    <text x="106.815571" y="-6.591487" stroke="rgb(0,0,0)" transform="translate(106.815571 -6.591487),scale(0.00001 -0.00001),translate(-106.815571 6.591487),translate(106.8125 -6.592499999999999),rotate(-30),translate(-106.8125 6.592499999999999)" >line-05-6</text>
    <line x1="106.816018" y1="-6.590866" x2="106.81663" y2="-6.590765" style="stroke:rgb(255,0,0);stroke-width:.00002" />
    <line x1="106.816018" y1="-6.590866" x2="106.81663" y2="-6.590765" style="stroke:rgb(0,0,0);stroke-width:.00002" />
    <circle cx="106.816018" cy="-6.590866" fill="rgb(255,0,0)" r=".0001" />
    <text x="106.816018" y="-6.590866" stroke="rgb(0,0,0)" transform="translate(106.816018 -6.590866),scale(0.00001 -0.00001),translate(-106.816018 6.590866),translate(106.8125 -6.592499999999999),rotate(-30),translate(-106.8125 6.592499999999999)" >line-05-7</text>
    <line x1="106.81663" y1="-6.590765" x2="106.81626" y2="-6.587305" style="stroke:rgb(255,0,0);stroke-width:.00002" />
    <line x1="106.81663" y1="-6.590765" x2="106.81626" y2="-6.587305" style="stroke:rgb(0,0,0);stroke-width:.00002" />
    <circle cx="106.81663" cy="-6.590765" fill="rgb(255,0,0)" r=".0001" />
    <text x="106.81663" y="-6.590765" stroke="rgb(0,0,0)" transform="translate(106.81663 -6.590765),scale(0.00001 -0.00001),translate(-106.81663 6.590765),translate(106.8125 -6.592499999999999),rotate(-30),translate(-106.8125 6.592499999999999)" >line-05-8</text>
    <line x1="106.81626" y1="-6.587305" x2="106.816886" y2="-6.590765" style="stroke:rgb(255,0,0);stroke-width:.00002" />
    <line x1="106.81626" y1="-6.587305" x2="106.816886" y2="-6.590765" style="stroke:rgb(0,0,0);stroke-width:.00002" />
    <circle cx="106.81626" cy="-6.587305" fill="rgb(255,0,0)" r=".0001" />
    <text x="106.81626" y="-6.587305" stroke="rgb(0,0,0)" transform="translate(106.81626 -6.587305),scale(0.00001 -0.00001),translate(-106.81626 6.587305),translate(106.8125 -6.592499999999999),rotate(-30),translate(-106.8125 6.592499999999999)" >line-05-9</text>
    <line x1="106.816886" y1="-6.590765" x2="106.818506" y2="-6.590271" style="stroke:rgb(255,0,0);stroke-width:.00002" />
    <line x1="106.816886" y1="-6.590765" x2="106.818506" y2="-6.590271" style="stroke:rgb(0,0,0);stroke-width:.00002" />
    <circle cx="106.816886" cy="-6.590765" fill="rgb(255,0,0)" r=".0001" />
    <text x="106.816886" y="-6.590765" stroke="rgb(0,0,0)" transform="translate(106.816886 -6.590765),scale(0.00001 -0.00001),translate(-106.816886 6.590765),translate(106.8125 -6.592499999999999),rotate(-30),translate(-106.8125 6.592499999999999)" >line-05-10</text>
    <line x1="106.818506" y1="-6.590271" x2="106.818532" y2="-6.589333" style="stroke:rgb(255,0,0);stroke-width:.00002" />
    <line x1="106.818506" y1="-6.590271" x2="106.818532" y2="-6.589333" style="stroke:rgb(0,0,0);stroke-width:.00002" />
    <circle cx="106.818506" cy="-6.590271" fill="rgb(255,0,0)" r=".0001" />
    <text x="106.818506" y="-6.590271" stroke="rgb(0,0,0)" transform="translate(106.818506 -6.590271),scale(0.00001 -0.00001),translate(-106.818506 6.590271),translate(106.8125 -6.592499999999999),rotate(-30),translate(-106.8125 6.592499999999999)" >line-05-11</text>
    <line x1="106.818532" y1="-6.589333" x2="106.835584" y2="-6.58996" style="stroke:rgb(255,0,0);stroke-width:.00002" />
    <line x1="106.818532" y1="-6.589333" x2="106.835584" y2="-6.58996" style="stroke:rgb(0,0,0);stroke-width:.00002" />
    <circle cx="106.818532" cy="-6.589333" fill="rgb(255,0,0)" r=".0001" />
    <text x="106.818532" y="-6.589333" stroke="rgb(0,0,0)" transform="translate(106.818532 -6.589333),scale(0.00001 -0.00001),translate(-106.818532 6.589333),translate(106.8125 -6.592499999999999),rotate(-30),translate(-106.8125 6.592499999999999)" >line-05-12</text>
    <line x1="106.835584" y1="-6.58996" x2="106.836451" y2="-6.588997" style="stroke:rgb(255,0,0);stroke-width:.00002" />
    <line x1="106.835584" y1="-6.58996" x2="106.836451" y2="-6.588997" style="stroke:rgb(0,0,0);stroke-width:.00002" />
    <circle cx="106.835584" cy="-6.58996" fill="rgb(255,0,0)" r=".0001" />
    <text x="106.835584" y="-6.58996" stroke="rgb(0,0,0)" transform="translate(106.835584 -6.58996),scale(0.00001 -0.00001),translate(-106.835584 6.58996),translate(106.8125 -6.592499999999999),rotate(-30),translate(-106.8125 6.592499999999999)" >line-05-13</text>
    <line x1="106.836451" y1="-6.588997" x2="106.841274" y2="-6.588769" style="stroke:rgb(255,0,0);stroke-width:.00002" />
    <line x1="106.836451" y1="-6.588997" x2="106.841274" y2="-6.588769" style="stroke:rgb(0,0,0);stroke-width:.00002" />
    <circle cx="106.836451" cy="-6.588997" fill="rgb(255,0,0)" r=".0001" />
    <text x="106.836451" y="-6.588997" stroke="rgb(0,0,0)" transform="translate(106.836451 -6.588997),scale(0.00001 -0.00001),translate(-106.836451 6.588997),translate(106.8125 -6.592499999999999),rotate(-30),translate(-106.8125 6.592499999999999)" >line-05-14</text>
    <line x1="106.841274" y1="-6.588769" x2="106.843622" y2="-6.586867" style="stroke:rgb(255,0,0);stroke-width:.00002" />
    <line x1="106.841274" y1="-6.588769" x2="106.843622" y2="-6.586867" style="stroke:rgb(0,0,0);stroke-width:.00002" />
    <circle cx="106.841274" cy="-6.588769" fill="rgb(255,0,0)" r=".0001" />
    <text x="106.841274" y="-6.588769" stroke="rgb(0,0,0)" transform="translate(106.841274 -6.588769),scale(0.00001 -0.00001),translate(-106.841274 6.588769),translate(106.8125 -6.592499999999999),rotate(-30),translate(-106.8125 6.592499999999999)" >line-05-15</text>
    <line x1="106.843622" y1="-6.586867" x2="106.848445" y2="-6.585347" style="stroke:rgb(255,0,0);stroke-width:.00002" />
    <line x1="106.843622" y1="-6.586867" x2="106.848445" y2="-6.585347" style="stroke:rgb(0,0,0);stroke-width:.00002" />
    <circle cx="106.843622" cy="-6.586867" fill="rgb(255,0,0)" r=".0001" />
    <text x="106.843622" y="-6.586867" stroke="rgb(0,0,0)" transform="translate(106.843622 -6.586867),scale(0.00001 -0.00001),translate(-106.843622 6.586867),translate(106.8125 -6.592499999999999),rotate(-30),translate(-106.8125 6.592499999999999)" >line-05-16</text>
    <line x1="106.848445" y1="-6.585347" x2="106.853089" y2="-6.586791" style="stroke:rgb(255,0,0);stroke-width:.00002" />
    <line x1="106.848445" y1="-6.585347" x2="106.853089" y2="-6.586791" style="stroke:rgb(0,0,0);stroke-width:.00002" />
    <circle cx="106.848445" cy="-6.585347" fill="rgb(255,0,0)" r=".0001" />
    <text x="106.848445" y="-6.585347" stroke="rgb(0,0,0)" transform="translate(106.848445 -6.585347),scale(0.00001 -0.00001),translate(-106.848445 6.585347),translate(106.8125 -6.592499999999999),rotate(-30),translate(-106.8125 6.592499999999999)" >line-05-17</text>
    <line x1="106.853089" y1="-6.586791" x2="106.852374" y2="-6.587577" style="stroke:rgb(255,0,0);stroke-width:.00002" />
    <line x1="106.853089" y1="-6.586791" x2="106.852374" y2="-6.587577" style="stroke:rgb(0,0,0);stroke-width:.00002" />
    <circle cx="106.853089" cy="-6.586791" fill="rgb(255,0,0)" r=".0001" />
    <text x="106.853089" y="-6.586791" stroke="rgb(0,0,0)" transform="translate(106.853089 -6.586791),scale(0.00001 -0.00001),translate(-106.853089 6.586791),translate(106.8125 -6.592499999999999),rotate(-30),translate(-106.8125 6.592499999999999)" >line-05-18</text>
    <line x1="106.852374" y1="-6.587577" x2="106.853956" y2="-6.590138" style="stroke:rgb(255,0,0);stroke-width:.00002" />
    <line x1="106.852374" y1="-6.587577" x2="106.853956" y2="-6.590138" style="stroke:rgb(0,0,0);stroke-width:.00002" />
    <circle cx="106.852374" cy="-6.587577" fill="rgb(255,0,0)" r=".0001" />
    <text x="106.852374" y="-6.587577" stroke="rgb(0,0,0)" transform="translate(106.852374 -6.587577),scale(0.00001 -0.00001),translate(-106.852374 6.587577),translate(106.8125 -6.592499999999999),rotate(-30),translate(-106.8125 6.592499999999999)" >line-05-19</text>
    <line x1="106.853956" y1="-6.590138" x2="106.859979" y2="-6.591304" style="stroke:rgb(255,0,0);stroke-width:.00002" />
    <line x1="106.853956" y1="-6.590138" x2="106.859979" y2="-6.591304" style="stroke:rgb(0,0,0);stroke-width:.00002" />
    <circle cx="106.853956" cy="-6.590138" fill="rgb(255,0,0)" r=".0001" />
    <text x="106.853956" y="-6.590138" stroke="rgb(0,0,0)" transform="translate(106.853956 -6.590138),scale(0.00001 -0.00001),translate(-106.853956 6.590138),translate(106.8125 -6.592499999999999),rotate(-30),translate(-106.8125 6.592499999999999)" >line-05-20</text>
    <line x1="106.859979" y1="-6.591304" x2="106.865159" y2="-6.589352" style="stroke:rgb(255,0,0);stroke-width:.00002" />
    <line x1="106.859979" y1="-6.591304" x2="106.865159" y2="-6.589352" style="stroke:rgb(0,0,0);stroke-width:.00002" />
    <circle cx="106.859979" cy="-6.591304" fill="rgb(255,0,0)" r=".0001" />
    <text x="106.859979" y="-6.591304" stroke="rgb(0,0,0)" transform="translate(106.859979 -6.591304),scale(0.00001 -0.00001),translate(-106.859979 6.591304),translate(106.8125 -6.592499999999999),rotate(-30),translate(-106.8125 6.592499999999999)" >line-05-21</text>
    <line x1="106.865159" y1="-6.589352" x2="106.859979" y2="-6.591304" style="stroke:rgb(255,0,0);stroke-width:.00002" />
    <line x1="106.865159" y1="-6.589352" x2="106.859979" y2="-6.591304" style="stroke:rgb(0,0,0);stroke-width:.00002" />
    <circle cx="106.865159" cy="-6.589352" fill="rgb(255,0,0)" r=".0001" />
    <text x="106.865159" y="-6.589352" stroke="rgb(0,0,0)" transform="translate(106.865159 -6.589352),scale(0.00001 -0.00001),translate(-106.865159 6.589352),translate(106.8125 -6.592499999999999),rotate(-30),translate(-106.8125 6.592499999999999)" >line-05-22</text>
  </g>
</svg>
