<svg width="1450.0000000001023" height="1550.0000000000025" xmlns="http://www.w3.org/2000/svg" xmlns:xlink="http://www.w3.org/1999/xlink" >
  <g transform="translate(725.0000000000512 775.0000000000013) rotate(0) scale(10000 -10000) translate(-106.7975 6.592499999999999)">
    <path d="M106.725 -6.515 L106.87 -6.515 L106.87 -6.67 L106.725 -6.67 Z" fill="none" stroke="black" stroke-width="0.001" transform="translate(106.7975 -6.592499999999999) rotate(0) translate(-106.7975 6.592499999999999)" />
    <path d="M106.85686077677296 -6.590996116135138 L106.85686077677296 -6.590996116135138 L106.85377533497717 -6.590379027775983 L106.85292966833666 -6.589004819485133 L106.85292966833666 -6.589004819485133 L106.85205239802688 -6.587579255231762 L106.85249948466105 -6.587068299078427 L106.85249948466105 -6.587068299078427 L106.85264567831105 -6.5869012206212805 L106.85064176767683 -6.586291334776086 L106.85064176767683 -6.586291334776086 L106.8484007790019 -6.5856092947445815 L106.84605965499863 -6.586340895995607 L106.84605965499863 -6.586340895995607 L106.84369505867492 -6.5870798323467605 L106.84252414058886 -6.588006809164892 L106.84252414058886 -6.588006809164892 L106.84127321812701 -6.588997122780532 L106.83880832610893 -6.5890998266146195 L106.83880832610893 -6.5890998266146195 L106.83649238057008 -6.589196324345405 L106.83609865882924 -6.589633792946325 L106.83609865882924 -6.589633792946325 L106.83558357952622 -6.590206103283022 L106.82808651722841 -6.589699545019657 L106.82808651722841 -6.589699545019657 L106.82071131936895 -6.589201220839965 L106.81963577708765 -6.58939677398202 L106.81963577708765 -6.58939677398202 L106.8187 -6.589566915270682 L106.8187 -6.58985 L106.8187 -6.58985 L106.8187 -6.590452017129912 L106.81765352877275 -6.590742703581927 L106.81765352877275 -6.590742703581927 L106.8169257233052 -6.590944871767356 L106.8170974881264 -6.592018401899779 L106.8170974881264 -6.592018401899779 L106.8171 -6.5933 L106.81653662184746 -6.592310684326827 L106.81647342564702 -6.591915708074059 L106.81639726102723 -6.591439679200434 L106.8163735299853 -6.5912219815750746 L106.81602801842493 -6.591423529985285 L106.81558524472383 -6.591681814644251 L106.81501834861263 -6.591887958684697 L106.81501834861263 -6.591887958684697 L106.8144318845647 -6.592101218338486 L106.81149310754483 -6.591999881199871 L106.81149310754483 -6.591999881199871 L106.80851432173534 -6.591897164447819 L106.80825857864377 -6.591641421356237 L106.80825857864377 -6.591641421356237 L106.80811715728753 -6.591500000000001 L106.80695 -6.591500000000001 L106.80695 -6.591500000000001 L106.8057 -6.5914 L106.8057 -6.5913 L106.8057 -6.5913 L106.8058 -6.5913 L106.80590000000001 -6.59175 L106.80590000000001 -6.59175 L106.80590000000001 -6.5924000000000005 L106.80515 -6.5924000000000005 L106.80515 -6.5924000000000005 L106.80478948116014 -6.5924000000000005 L106.80371196123298 -6.5938071113389345 L106.80369037112976 -6.594206528248245 L106.80359655751873 -6.595942080052508 L106.80417593752063 -6.59829730617428 L106.80423913372107 -6.598692282427048 L106.80456863062713 -6.60075163808997 L106.80446175991727 -6.600901257083768 L106.80446175991727 -6.600901257083768 L106.80434016244504 -6.601071493544895 L106.80435447862497 -6.601067914499913 L106.80435447862497 -6.601067914499913 L106.80416073688535 -6.601116349934817 L106.80220637812972 -6.601765622636965 L106.8018163249874 -6.601854271078401 L106.79985511773236 -6.6023 L106.79974999999999 -6.6023 L106.79974999999999 -6.6023 L106.79950557280898 -6.6023 L106.7992 -6.6020055728089995 L106.79848445824719 -6.6023633436854015 L106.79842478725546 -6.6023931791812664 L106.79760779100829 -6.602852739570301 L106.79760779100829 -6.602852739570301 L106.79685383619446 -6.603276839153079 L106.79665288745893 -6.603357218647291 L106.79665288745893 -6.603357218647291 L106.79679361309782 -6.603300928391743 L106.79684376015699 -6.603334359764527 L106.79684376015699 -6.603334359764527 L106.79676732624553 -6.603283403823557 L106.7959102009217 -6.600210378734401 L106.79577879267171 -6.599832580015718 L106.79476320905214 -6.596912777109418 L106.7945713481299 -6.596285205735981 L106.79485224688317 -6.595536142393925 L106.79508430677141 -6.594917316025275 L106.79596942571725 -6.594196791496684 L106.7963190886277 -6.594002534324214 L106.79731801807115 -6.5934475735222895 L106.79768447882229 -6.593614146590984 L106.79768447882229 -6.593614146590984 L106.79840820296772 -6.593943112111642 L106.7997788854382 -6.5932577708764 L106.7997788854382 -6.5932577708764 L106.80081822267881 -6.592738102256098 L106.800891470256 -6.59298280787926 L106.80126286093235 -6.5931313641498015 L106.80150764867783 -6.593229279247988 L106.80186475834941 -6.592747096981394 L106.80283524165057 -6.593452903018606 L106.8029 -6.5935 L106.80283415214551 -6.593298578540975 L106.80442286781145 -6.592083678325834 L106.80452438231292 -6.592006049589422 L106.8051318928508 -6.591950821358707 L106.8051318928508 -6.591950821358707 L106.8055 -6.591917357072417 L106.8055 -6.5917 L106.8055 -6.5917 L106.8056 -6.5913 L106.8057 -6.5913 L106.8057 -6.5913 L106.8057 -6.591200000000001 L106.80695 -6.5911 L106.80695 -6.5911 L106.80828284271247 -6.5911 L106.80854142135624 -6.591358578643763 L106.80854142135624 -6.591358578643763 L106.80868567826465 -6.591502835552181 L106.81150689245516 -6.591600118800129 L106.81150689245516 -6.591600118800129 L106.81436811543531 -6.591698781661513 L106.8148816513874 -6.591512041315302 L106.8148816513874 -6.591512041315302 L106.81541475527617 -6.591318185355743 L106.8159992257949 -6.59097724421982 L106.8159992257949 -6.59097724421982 L106.81648297745552 -6.590695055751114 L106.81625201010127 -6.589078284271248 L106.81625201010127 -6.589078284271248 L106.8162 -6.5873 L106.81664798989874 -6.5890217157287525 L106.81664798989874 -6.5890217157287525 L106.8168657979831 -6.590546372319227 L106.81754647122725 -6.590357296418074 L106.81754647122725 -6.590357296418074 L106.8183 -6.59014798287009 L106.8183 -6.58985 L106.8183 -6.58985 L106.8183 -6.589233084729319 L106.81956422291236 -6.58900322601798 L106.81956422291236 -6.58900322601798 L106.82068868063105 -6.588798779160036 L106.8281134827716 -6.589300454980343 L106.8281134827716 -6.589300454980343 L106.83541642047378 -6.589793896716977 L106.83580134117075 -6.589366207053676 L106.83580134117075 -6.589366207053676 L106.83630761942992 -6.588803675654596 L106.83879167389105 -6.588700173385382 L106.83879167389105 -6.588700173385382 L106.841126781873 -6.588602877219467 L106.84227585941113 -6.5876931908351075 L106.84227585941113 -6.5876931908351075 L106.84350494132507 -6.586720167653237 L106.84594034500138 -6.5859591040043926 L106.84594034500138 -6.5859591040043926 L106.84839922099809 -6.5851907052554175 L106.85075823232314 -6.585908665223914 L106.85075823232314 -6.585908665223914 L106.85335432168894 -6.586698779378716 L106.85280051533894 -6.587331700921573 L106.85280051533894 -6.587331700921573 L106.85254760197311 -6.58762074476824 L106.85327033166334 -6.588795180514868 L106.85327033166334 -6.588795180514868 L106.85402466502282 -6.5900209722240195 L106.85693922322703 -6.590603883864862 L106.85693922322703 -6.590603883864862 L106.85988234374891 -6.591192507969236 L106.86242820418414 -6.59021333087876 L106.86242820418414 -6.59021333087876 L106.8651 -6.5894 L106.86257179581585 -6.590586669121241 L106.86257179581585 -6.590586669121241 L106.85991765625108 -6.5916074920307635 Z" stroke="pink" stroke-width="0.0002" fill="none" />
    <circle 
      cx="106.8171" cy="-12.5933"
      r="15" transform="translate(106.8171 -6.5933) scale(0.00001 -0.00001) translate(-106.8171 6.5933) translate(106.7975 -6.592499999999999) rotate(0) translate(-106.7975 6.592499999999999)"
      fill="white" stroke="black" stroke-width="2"/>
    <circle 
      cx="106.8162" cy="-12.587299999999999"
      r="15" transform="translate(106.8162 -6.5873) scale(0.00001 -0.00001) translate(-106.8162 6.5873) translate(106.7975 -6.592499999999999) rotate(0) translate(-106.7975 6.592499999999999)"
      fill="white" stroke="black" stroke-width="2"/>
    <circle 
      cx="106.8651" cy="-12.589400000000001"
      r="15" transform="translate(106.8651 -6.5894) scale(0.00001 -0.00001) translate(-106.8651 6.5894) translate(106.7975 -6.592499999999999) rotate(0) translate(-106.7975 6.592499999999999)"
      fill="white" stroke="black" stroke-width="2"/>
    <circle 
      cx="106.8171" cy="-12.5933"
      r="15" transform="translate(106.8171 -6.5933) scale(0.00001 -0.00001) translate(-106.8171 6.5933) translate(106.7975 -6.592499999999999) rotate(0) translate(-106.7975 6.592499999999999)"
      fill="white" stroke="none"/>
    <circle 
      cx="106.8162" cy="-12.587299999999999"
      r="15" transform="translate(106.8162 -6.5873) scale(0.00001 -0.00001) translate(-106.8162 6.5873) translate(106.7975 -6.592499999999999) rotate(0) translate(-106.7975 6.592499999999999)"
      fill="white" stroke="none"/>
    <circle 
      cx="106.8651" cy="-12.589400000000001"
      r="15" transform="translate(106.8651 -6.5894) scale(0.00001 -0.00001) translate(-106.8651 6.5894) translate(106.7975 -6.592499999999999) rotate(0) translate(-106.7975 6.592499999999999)"
      fill="white" stroke="none"/>
    <text x="106.8171" y="-6.5933" fill="black" text-anchor="middle" transform="translate(106.8171 -6.5933) scale(0.00001 -0.00001) translate(-106.8171 6.5933) translate(106.7975 -6.592499999999999) rotate(0) translate(-106.7975 6.592499999999999)">05</text>
    <text x="106.8162" y="-6.5873" fill="black" text-anchor="middle" transform="translate(106.8162 -6.5873) scale(0.00001 -0.00001) translate(-106.8162 6.5873) translate(106.7975 -6.592499999999999) rotate(0) translate(-106.7975 6.592499999999999)">05</text>
    <text x="106.8651" y="-6.5894" fill="black" text-anchor="middle" transform="translate(106.8651 -6.5894) scale(0.00001 -0.00001) translate(-106.8651 6.5894) translate(106.7975 -6.592499999999999) rotate(0) translate(-106.7975 6.592499999999999)">05</text>
    <line x1="106.8599" y1="-6.5914" x2="106.8539" y2="-6.5902" style="stroke:rgb(255,0,0);stroke-width:.00002" />
    <line x1="106.8599" y1="-6.5914" x2="106.8569" y2="-6.5908" style="stroke:rgb(0,0,0);stroke-width:.00002" />
    <line x1="106.8569" y1="-6.5908" x2="106.8569" y2="-6.5908" style="stroke:rgb(0,0,0);stroke-width:.00002" />
    <line x1="106.8569" y1="-6.5908" x2="106.8539" y2="-6.5902" style="stroke:rgb(0,0,0);stroke-width:.00002" />
    <circle cx="106.8599" cy="-6.5914" fill="rgb(255,0,0)" r=".0001" />
    <text x="106.8599" y="-6.5914" stroke="rgb(0,0,0)" transform="translate(106.8599 -6.5914),scale(0.00001 -0.00001),translate(-106.8599 6.5914),translate(106.7975 -6.592499999999999),rotate(0),translate(-106.7975 6.592499999999999)" >line-05-21</text>
    <line x1="106.8539" y1="-6.5902" x2="106.8523" y2="-6.5876" style="stroke:rgb(255,0,0);stroke-width:.00002" />
    <line x1="106.8539" y1="-6.5902" x2="106.8531" y2="-6.588900000000001" style="stroke:rgb(0,0,0);stroke-width:.00002" />
    <line x1="106.8531" y1="-6.588900000000001" x2="106.8531" y2="-6.588900000000001" style="stroke:rgb(0,0,0);stroke-width:.00002" />
    <line x1="106.8531" y1="-6.588900000000001" x2="106.8523" y2="-6.5876" style="stroke:rgb(0,0,0);stroke-width:.00002" />
    <circle cx="106.8539" cy="-6.5902" fill="rgb(255,0,0)" r=".0001" />
    <text x="106.8539" y="-6.5902" stroke="rgb(0,0,0)" transform="translate(106.8539 -6.5902),scale(0.00001 -0.00001),translate(-106.8539 6.5902),translate(106.7975 -6.592499999999999),rotate(0),translate(-106.7975 6.592499999999999)" >line-05-20</text>
    <line x1="106.8523" y1="-6.5876" x2="106.853" y2="-6.5868" style="stroke:rgb(255,0,0);stroke-width:.00002" />
    <line x1="106.8523" y1="-6.5876" x2="106.85265" y2="-6.5872" style="stroke:rgb(0,0,0);stroke-width:.00002" />
    <line x1="106.85265" y1="-6.5872" x2="106.85265" y2="-6.5872" style="stroke:rgb(0,0,0);stroke-width:.00002" />
    <line x1="106.85265" y1="-6.5872" x2="106.853" y2="-6.5868" style="stroke:rgb(0,0,0);stroke-width:.00002" />
    <circle cx="106.8523" cy="-6.5876" fill="rgb(255,0,0)" r=".0001" />
    <text x="106.8523" y="-6.5876" stroke="rgb(0,0,0)" transform="translate(106.8523 -6.5876),scale(0.00001 -0.00001),translate(-106.8523 6.5876),translate(106.7975 -6.592499999999999),rotate(0),translate(-106.7975 6.592499999999999)" >line-05-19</text>
    <line x1="106.853" y1="-6.5868" x2="106.8484" y2="-6.5854" style="stroke:rgb(255,0,0);stroke-width:.00002" />
    <line x1="106.853" y1="-6.5868" x2="106.85069999999999" y2="-6.5861" style="stroke:rgb(0,0,0);stroke-width:.00002" />
    <line x1="106.85069999999999" y1="-6.5861" x2="106.85069999999999" y2="-6.5861" style="stroke:rgb(0,0,0);stroke-width:.00002" />
    <line x1="106.85069999999999" y1="-6.5861" x2="106.8484" y2="-6.5854" style="stroke:rgb(0,0,0);stroke-width:.00002" />
    <circle cx="106.853" cy="-6.5868" fill="rgb(255,0,0)" r=".0001" />
    <text x="106.853" y="-6.5868" stroke="rgb(0,0,0)" transform="translate(106.853 -6.5868),scale(0.00001 -0.00001),translate(-106.853 6.5868),translate(106.7975 -6.592499999999999),rotate(0),translate(-106.7975 6.592499999999999)" >line-05-18</text>
    <line x1="106.8484" y1="-6.5854" x2="106.8436" y2="-6.5869" style="stroke:rgb(255,0,0);stroke-width:.00002" />
    <line x1="106.8484" y1="-6.5854" x2="106.846" y2="-6.58615" style="stroke:rgb(0,0,0);stroke-width:.00002" />
    <line x1="106.846" y1="-6.58615" x2="106.846" y2="-6.58615" style="stroke:rgb(0,0,0);stroke-width:.00002" />
    <line x1="106.846" y1="-6.58615" x2="106.8436" y2="-6.5869" style="stroke:rgb(0,0,0);stroke-width:.00002" />
    <circle cx="106.8484" cy="-6.5854" fill="rgb(255,0,0)" r=".0001" />
    <text x="106.8484" y="-6.5854" stroke="rgb(0,0,0)" transform="translate(106.8484 -6.5854),scale(0.00001 -0.00001),translate(-106.8484 6.5854),translate(106.7975 -6.592499999999999),rotate(0),translate(-106.7975 6.592499999999999)" >line-05-17</text>
    <line x1="106.8436" y1="-6.5869" x2="106.8412" y2="-6.5888" style="stroke:rgb(255,0,0);stroke-width:.00002" />
    <line x1="106.8436" y1="-6.5869" x2="106.8424" y2="-6.5878499999999995" style="stroke:rgb(0,0,0);stroke-width:.00002" />
    <line x1="106.8424" y1="-6.5878499999999995" x2="106.8424" y2="-6.5878499999999995" style="stroke:rgb(0,0,0);stroke-width:.00002" />
    <line x1="106.8424" y1="-6.5878499999999995" x2="106.8412" y2="-6.5888" style="stroke:rgb(0,0,0);stroke-width:.00002" />
    <circle cx="106.8436" cy="-6.5869" fill="rgb(255,0,0)" r=".0001" />
    <text x="106.8436" y="-6.5869" stroke="rgb(0,0,0)" transform="translate(106.8436 -6.5869),scale(0.00001 -0.00001),translate(-106.8436 6.5869),translate(106.7975 -6.592499999999999),rotate(0),translate(-106.7975 6.592499999999999)" >line-05-16</text>
    <line x1="106.8412" y1="-6.5888" x2="106.8364" y2="-6.589" style="stroke:rgb(255,0,0);stroke-width:.00002" />
    <line x1="106.8412" y1="-6.5888" x2="106.83879999999999" y2="-6.588900000000001" style="stroke:rgb(0,0,0);stroke-width:.00002" />
    <line x1="106.83879999999999" y1="-6.588900000000001" x2="106.83879999999999" y2="-6.588900000000001" style="stroke:rgb(0,0,0);stroke-width:.00002" />
    <line x1="106.83879999999999" y1="-6.588900000000001" x2="106.8364" y2="-6.589" style="stroke:rgb(0,0,0);stroke-width:.00002" />
    <circle cx="106.8412" cy="-6.5888" fill="rgb(255,0,0)" r=".0001" />
    <text x="106.8412" y="-6.5888" stroke="rgb(0,0,0)" transform="translate(106.8412 -6.5888),scale(0.00001 -0.00001),translate(-106.8412 6.5888),translate(106.7975 -6.592499999999999),rotate(0),translate(-106.7975 6.592499999999999)" >line-05-15</text>
    <line x1="106.8364" y1="-6.589" x2="106.8355" y2="-6.59" style="stroke:rgb(255,0,0);stroke-width:.00002" />
    <line x1="106.8364" y1="-6.589" x2="106.83595" y2="-6.5895" style="stroke:rgb(0,0,0);stroke-width:.00002" />
    <line x1="106.83595" y1="-6.5895" x2="106.83595" y2="-6.5895" style="stroke:rgb(0,0,0);stroke-width:.00002" />
    <line x1="106.83595" y1="-6.5895" x2="106.8355" y2="-6.59" style="stroke:rgb(0,0,0);stroke-width:.00002" />
    <circle cx="106.8364" cy="-6.589" fill="rgb(255,0,0)" r=".0001" />
    <text x="106.8364" y="-6.589" stroke="rgb(0,0,0)" transform="translate(106.8364 -6.589),scale(0.00001 -0.00001),translate(-106.8364 6.589),translate(106.7975 -6.592499999999999),rotate(0),translate(-106.7975 6.592499999999999)" >line-05-14</text>
    <line x1="106.8355" y1="-6.59" x2="106.8207" y2="-6.589" style="stroke:rgb(255,0,0);stroke-width:.00002" />
    <line x1="106.8355" y1="-6.59" x2="106.8281" y2="-6.5895" style="stroke:rgb(0,0,0);stroke-width:.00002" />
    <line x1="106.8281" y1="-6.5895" x2="106.8281" y2="-6.5895" style="stroke:rgb(0,0,0);stroke-width:.00002" />
    <line x1="106.8281" y1="-6.5895" x2="106.8207" y2="-6.589" style="stroke:rgb(0,0,0);stroke-width:.00002" />
    <circle cx="106.8355" cy="-6.59" fill="rgb(255,0,0)" r=".0001" />
    <text x="106.8355" y="-6.59" stroke="rgb(0,0,0)" transform="translate(106.8355 -6.59),scale(0.00001 -0.00001),translate(-106.8355 6.59),translate(106.7975 -6.592499999999999),rotate(0),translate(-106.7975 6.592499999999999)" >line-05-13</text>
    <line x1="106.8207" y1="-6.589" x2="106.8185" y2="-6.5894" style="stroke:rgb(255,0,0);stroke-width:.00002" />
    <line x1="106.8207" y1="-6.589" x2="106.81960000000001" y2="-6.5892" style="stroke:rgb(0,0,0);stroke-width:.00002" />
    <line x1="106.81960000000001" y1="-6.5892" x2="106.81960000000001" y2="-6.5892" style="stroke:rgb(0,0,0);stroke-width:.00002" />
    <line x1="106.81960000000001" y1="-6.5892" x2="106.8185" y2="-6.5894" style="stroke:rgb(0,0,0);stroke-width:.00002" />
    <circle cx="106.8207" cy="-6.589" fill="rgb(255,0,0)" r=".0001" />
    <text x="106.8207" y="-6.589" stroke="rgb(0,0,0)" transform="translate(106.8207 -6.589),scale(0.00001 -0.00001),translate(-106.8207 6.589),translate(106.7975 -6.592499999999999),rotate(0),translate(-106.7975 6.592499999999999)" >wiradiredja-ikhwan</text>
    <line x1="106.8185" y1="-6.5894" x2="106.8185" y2="-6.5903" style="stroke:rgb(255,0,0);stroke-width:.00002" />
    <line x1="106.8185" y1="-6.5894" x2="106.8185" y2="-6.58985" style="stroke:rgb(0,0,0);stroke-width:.00002" />
    <line x1="106.8185" y1="-6.58985" x2="106.8185" y2="-6.58985" style="stroke:rgb(0,0,0);stroke-width:.00002" />
    <line x1="106.8185" y1="-6.58985" x2="106.8185" y2="-6.5903" style="stroke:rgb(0,0,0);stroke-width:.00002" />
    <circle cx="106.8185" cy="-6.5894" fill="rgb(255,0,0)" r=".0001" />
    <text x="106.8185" y="-6.5894" stroke="rgb(0,0,0)" transform="translate(106.8185 -6.5894),scale(0.00001 -0.00001),translate(-106.8185 6.5894),translate(106.7975 -6.592499999999999),rotate(0),translate(-106.7975 6.592499999999999)" >wiradiredja-swingright</text>
    <line x1="106.8185" y1="-6.5903" x2="106.8167" y2="-6.5908" style="stroke:rgb(255,0,0);stroke-width:.00002" />
    <line x1="106.8185" y1="-6.5903" x2="106.8176" y2="-6.59055" style="stroke:rgb(0,0,0);stroke-width:.00002" />
    <line x1="106.8176" y1="-6.59055" x2="106.8176" y2="-6.59055" style="stroke:rgb(0,0,0);stroke-width:.00002" />
    <line x1="106.8176" y1="-6.59055" x2="106.8167" y2="-6.5908" style="stroke:rgb(0,0,0);stroke-width:.00002" />
    <circle cx="106.8185" cy="-6.5903" fill="rgb(255,0,0)" r=".0001" />
    <text x="106.8185" y="-6.5903" stroke="rgb(0,0,0)" transform="translate(106.8185 -6.5903),scale(0.00001 -0.00001),translate(-106.8185 6.5903),translate(106.7975 -6.592499999999999),rotate(0),translate(-106.7975 6.592499999999999)" >wiradiredja-swingleft</text>
    <line x1="106.8167" y1="-6.5908" x2="106.8171" y2="-6.5933" style="stroke:rgb(255,0,0);stroke-width:.00002" />
    <line x1="106.8167" y1="-6.5908" x2="106.8169" y2="-6.59205" style="stroke:rgb(0,0,0);stroke-width:.00002" />
    <line x1="106.8169" y1="-6.59205" x2="106.8169" y2="-6.59205" style="stroke:rgb(0,0,0);stroke-width:.00002" />
    <line x1="106.8169" y1="-6.59205" x2="106.8171" y2="-6.5933" style="stroke:rgb(0,0,0);stroke-width:.00002" />
    <circle cx="106.8167" cy="-6.5908" fill="rgb(255,0,0)" r=".0001" />
    <text x="106.8167" y="-6.5908" stroke="rgb(0,0,0)" transform="translate(106.8167 -6.5908),scale(0.00001 -0.00001),translate(-106.8167 6.5908),translate(106.7975 -6.592499999999999),rotate(0),translate(-106.7975 6.592499999999999)" >syam-tohir</text>
    <line x1="106.8171" y1="-6.5933" x2="106.8167" y2="-6.5908" style="stroke:rgb(255,0,0);stroke-width:.00002" />
    <line x1="106.8171" y1="-6.5933" x2="106.81693159810023" y2="-6.592247488126384" style="stroke:rgb(0,0,0);stroke-width:.00002" />
    <line x1="106.81693159810023" y1="-6.592247488126384" x2="106.81686840189978" y2="-6.591852511873617" style="stroke:rgb(0,0,0);stroke-width:.00002" />
    <line x1="106.81686840189978" y1="-6.591852511873617" x2="106.8167" y2="-6.5908" style="stroke:rgb(0,0,0);stroke-width:.00002" />
    <circle cx="106.8171" cy="-6.5933" fill="rgb(255,0,0)" r=".0001" />
    <text x="106.8171" y="-6.5933" stroke="rgb(0,0,0)" transform="translate(106.8171 -6.5933),scale(0.00001 -0.00001),translate(-106.8171 6.5933),translate(106.7975 -6.592499999999999),rotate(0),translate(-106.7975 6.592499999999999)" >syam-southturn</text>
    <line x1="106.8167" y1="-6.5908" x2="106.8155" y2="-6.5915" style="stroke:rgb(255,0,0);stroke-width:.00002" />
    <line x1="106.8167" y1="-6.5908" x2="106.81627275578019" y2="-6.591049225794895" style="stroke:rgb(0,0,0);stroke-width:.00002" />
    <line x1="106.81627275578019" y1="-6.591049225794895" x2="106.81592724421982" y2="-6.591250774205105" style="stroke:rgb(0,0,0);stroke-width:.00002" />
    <line x1="106.81592724421982" y1="-6.591250774205105" x2="106.8155" y2="-6.5915" style="stroke:rgb(0,0,0);stroke-width:.00002" />
    <circle cx="106.8167" cy="-6.5908" fill="rgb(255,0,0)" r=".0001" />
    <text x="106.8167" y="-6.5908" stroke="rgb(0,0,0)" transform="translate(106.8167 -6.5908),scale(0.00001 -0.00001),translate(-106.8167 6.5908),translate(106.7975 -6.592499999999999),rotate(0),translate(-106.7975 6.592499999999999)" >syam-tohir</text>
    <line x1="106.8155" y1="-6.5915" x2="106.8144" y2="-6.5919" style="stroke:rgb(255,0,0);stroke-width:.00002" />
    <line x1="106.8155" y1="-6.5915" x2="106.81495000000001" y2="-6.5916999999999994" style="stroke:rgb(0,0,0);stroke-width:.00002" />
    <line x1="106.81495000000001" y1="-6.5916999999999994" x2="106.81495000000001" y2="-6.5916999999999994" style="stroke:rgb(0,0,0);stroke-width:.00002" />
    <line x1="106.81495000000001" y1="-6.5916999999999994" x2="106.8144" y2="-6.5919" style="stroke:rgb(0,0,0);stroke-width:.00002" />
    <circle cx="106.8155" cy="-6.5915" fill="rgb(255,0,0)" r=".0001" />
    <text x="106.8155" y="-6.5915" stroke="rgb(0,0,0)" transform="translate(106.8155 -6.5915),scale(0.00001 -0.00001),translate(-106.8155 6.5915),translate(106.7975 -6.592499999999999),rotate(0),translate(-106.7975 6.592499999999999)" >line-05-6</text>
    <line x1="106.8144" y1="-6.5919" x2="106.8086" y2="-6.5917" style="stroke:rgb(255,0,0);stroke-width:.00002" />
    <line x1="106.8144" y1="-6.5919" x2="106.8115" y2="-6.5918" style="stroke:rgb(0,0,0);stroke-width:.00002" />
    <line x1="106.8115" y1="-6.5918" x2="106.8115" y2="-6.5918" style="stroke:rgb(0,0,0);stroke-width:.00002" />
    <line x1="106.8115" y1="-6.5918" x2="106.8086" y2="-6.5917" style="stroke:rgb(0,0,0);stroke-width:.00002" />
    <circle cx="106.8144" cy="-6.5919" fill="rgb(255,0,0)" r=".0001" />
    <text x="106.8144" y="-6.5919" stroke="rgb(0,0,0)" transform="translate(106.8144 -6.5919),scale(0.00001 -0.00001),translate(-106.8144 6.5919),translate(106.7975 -6.592499999999999),rotate(0),translate(-106.7975 6.592499999999999)" >line-05-5</text>
    <line x1="106.8086" y1="-6.5917" x2="106.8082" y2="-6.5913" style="stroke:rgb(255,0,0);stroke-width:.00002" />
    <line x1="106.8086" y1="-6.5917" x2="106.8084" y2="-6.5915" style="stroke:rgb(0,0,0);stroke-width:.00002" />
    <line x1="106.8084" y1="-6.5915" x2="106.8084" y2="-6.5915" style="stroke:rgb(0,0,0);stroke-width:.00002" />
    <line x1="106.8084" y1="-6.5915" x2="106.8082" y2="-6.5913" style="stroke:rgb(0,0,0);stroke-width:.00002" />
    <circle cx="106.8086" cy="-6.5917" fill="rgb(255,0,0)" r=".0001" />
    <text x="106.8086" y="-6.5917" stroke="rgb(0,0,0)" transform="translate(106.8086 -6.5917),scale(0.00001 -0.00001),translate(-106.8086 6.5917),translate(106.7975 -6.592499999999999),rotate(0),translate(-106.7975 6.592499999999999)" >line-05-4</text>
    <line x1="106.8082" y1="-6.5913" x2="106.8057" y2="-6.5913" style="stroke:rgb(255,0,0);stroke-width:.00002" />
    <line x1="106.8082" y1="-6.5913" x2="106.80695" y2="-6.5913" style="stroke:rgb(0,0,0);stroke-width:.00002" />
    <line x1="106.80695" y1="-6.5913" x2="106.80695" y2="-6.5913" style="stroke:rgb(0,0,0);stroke-width:.00002" />
    <line x1="106.80695" y1="-6.5913" x2="106.8057" y2="-6.5913" style="stroke:rgb(0,0,0);stroke-width:.00002" />
    <circle cx="106.8082" cy="-6.5913" fill="rgb(255,0,0)" r=".0001" />
    <text x="106.8082" y="-6.5913" stroke="rgb(0,0,0)" transform="translate(106.8082 -6.5913),scale(0.00001 -0.00001),translate(-106.8082 6.5913),translate(106.7975 -6.592499999999999),rotate(0),translate(-106.7975 6.592499999999999)" >line-05-3</text>
    <line x1="106.8057" y1="-6.5913" x2="106.8057" y2="-6.5913" style="stroke:rgb(255,0,0);stroke-width:.00002" />
    <line x1="106.8057" y1="-6.5913" x2="106.8057" y2="-6.5913" style="stroke:rgb(0,0,0);stroke-width:.00002" />
    <line x1="106.8057" y1="-6.5913" x2="106.8057" y2="-6.5913" style="stroke:rgb(0,0,0);stroke-width:.00002" />
    <line x1="106.8057" y1="-6.5913" x2="106.8057" y2="-6.5913" style="stroke:rgb(0,0,0);stroke-width:.00002" />
    <circle cx="106.8057" cy="-6.5913" fill="rgb(255,0,0)" r=".0001" />
    <text x="106.8057" y="-6.5913" stroke="rgb(0,0,0)" transform="translate(106.8057 -6.5913),scale(0.00001 -0.00001),translate(-106.8057 6.5913),translate(106.7975 -6.592499999999999),rotate(0),translate(-106.7975 6.592499999999999)" >line-05-2</text>
    <line x1="106.8057" y1="-6.5913" x2="106.8057" y2="-6.5922" style="stroke:rgb(255,0,0);stroke-width:.00002" />
    <line x1="106.8057" y1="-6.5913" x2="106.8057" y2="-6.59175" style="stroke:rgb(0,0,0);stroke-width:.00002" />
    <line x1="106.8057" y1="-6.59175" x2="106.8057" y2="-6.59175" style="stroke:rgb(0,0,0);stroke-width:.00002" />
    <line x1="106.8057" y1="-6.59175" x2="106.8057" y2="-6.5922" style="stroke:rgb(0,0,0);stroke-width:.00002" />
    <circle cx="106.8057" cy="-6.5913" fill="rgb(255,0,0)" r=".0001" />
    <text x="106.8057" y="-6.5913" stroke="rgb(0,0,0)" transform="translate(106.8057 -6.5913),scale(0.00001 -0.00001),translate(-106.8057 6.5913),translate(106.7975 -6.592499999999999),rotate(0),translate(-106.7975 6.592499999999999)" >lodaya-M</text>
    <line x1="106.8057" y1="-6.5922" x2="106.8046" y2="-6.5922" style="stroke:rgb(255,0,0);stroke-width:.00002" />
    <line x1="106.8057" y1="-6.5922" x2="106.80515" y2="-6.5922" style="stroke:rgb(0,0,0);stroke-width:.00002" />
    <line x1="106.80515" y1="-6.5922" x2="106.80515" y2="-6.5922" style="stroke:rgb(0,0,0);stroke-width:.00002" />
    <line x1="106.80515" y1="-6.5922" x2="106.8046" y2="-6.5922" style="stroke:rgb(0,0,0);stroke-width:.00002" />
    <circle cx="106.8057" cy="-6.5922" fill="rgb(255,0,0)" r=".0001" />
    <text x="106.8057" y="-6.5922" stroke="rgb(0,0,0)" transform="translate(106.8057 -6.5922),scale(0.00001 -0.00001),translate(-106.8057 6.5922),translate(106.7975 -6.592499999999999),rotate(0),translate(-106.7975 6.592499999999999)" >lodaya-S</text>
    <line x1="106.8046" y1="-6.5922" x2="106.8044" y2="-6.5959" style="stroke:rgb(255,0,0);stroke-width:.00002" />
    <line x1="106.8046" y1="-6.5922" x2="106.8045107950516" y2="-6.593850291545345" style="stroke:rgb(0,0,0);stroke-width:.00002" />
    <line x1="106.8045107950516" y1="-6.593850291545345" x2="106.80448920494838" y2="-6.594249708454655" style="stroke:rgb(0,0,0);stroke-width:.00002" />
    <line x1="106.80448920494838" y1="-6.594249708454655" x2="106.8044" y2="-6.5959" style="stroke:rgb(0,0,0);stroke-width:.00002" />
    <circle cx="106.8046" cy="-6.5922" fill="rgb(255,0,0)" r=".0001" />
    <text x="106.8046" y="-6.5922" stroke="rgb(0,0,0)" transform="translate(106.8046 -6.5922),scale(0.00001 -0.00001),translate(-106.8046 6.5922),translate(106.7975 -6.592499999999999),rotate(0),translate(-106.7975 6.592499999999999)" >pangrango-pajajaran</text>
    <line x1="106.8044" y1="-6.5959" x2="106.8052" y2="-6.6009" style="stroke:rgb(255,0,0);stroke-width:.00002" />
    <line x1="106.8044" y1="-6.5959" x2="106.80476840189978" y2="-6.598202511873616" style="stroke:rgb(0,0,0);stroke-width:.00002" />
    <line x1="106.80476840189978" y1="-6.598202511873616" x2="106.80483159810022" y2="-6.598597488126384" style="stroke:rgb(0,0,0);stroke-width:.00002" />
    <line x1="106.80483159810022" y1="-6.598597488126384" x2="106.8052" y2="-6.6009" style="stroke:rgb(0,0,0);stroke-width:.00002" />
    <circle cx="106.8044" cy="-6.5959" fill="rgb(255,0,0)" r=".0001" />
    <text x="106.8044" y="-6.5959" stroke="rgb(0,0,0)" transform="translate(106.8044 -6.5959),scale(0.00001 -0.00001),translate(-106.8044 6.5959),translate(106.7975 -6.592499999999999),rotate(0),translate(-106.7975 6.592499999999999)" >kb-astrid</text>
    <line x1="106.8052" y1="-6.6009" x2="106.8047" y2="-6.6016" style="stroke:rgb(255,0,0);stroke-width:.00002" />
    <line x1="106.8052" y1="-6.6009" x2="106.80494999999999" y2="-6.60125" style="stroke:rgb(0,0,0);stroke-width:.00002" />
    <line x1="106.80494999999999" y1="-6.60125" x2="106.80494999999999" y2="-6.60125" style="stroke:rgb(0,0,0);stroke-width:.00002" />
    <line x1="106.80494999999999" y1="-6.60125" x2="106.8047" y2="-6.6016" style="stroke:rgb(0,0,0);stroke-width:.00002" />
    <circle cx="106.8052" cy="-6.6009" fill="rgb(255,0,0)" r=".0001" />
    <text x="106.8052" y="-6.6009" stroke="rgb(0,0,0)" transform="translate(106.8052 -6.6009),scale(0.00001 -0.00001),translate(-106.8052 6.6009),translate(106.7975 -6.592499999999999),rotate(0),translate(-106.7975 6.592499999999999)" >kb-botani-1</text>
    <line x1="106.8047" y1="-6.6016" x2="106.8043" y2="-6.6017" style="stroke:rgb(255,0,0);stroke-width:.00002" />
    <line x1="106.8047" y1="-6.6016" x2="106.80449999999999" y2="-6.60165" style="stroke:rgb(0,0,0);stroke-width:.00002" />
    <line x1="106.80449999999999" y1="-6.60165" x2="106.80449999999999" y2="-6.60165" style="stroke:rgb(0,0,0);stroke-width:.00002" />
    <line x1="106.80449999999999" y1="-6.60165" x2="106.8043" y2="-6.6017" style="stroke:rgb(0,0,0);stroke-width:.00002" />
    <circle cx="106.8047" cy="-6.6016" fill="rgb(255,0,0)" r=".0001" />
    <text x="106.8047" y="-6.6016" stroke="rgb(0,0,0)" transform="translate(106.8047 -6.6016),scale(0.00001 -0.00001),translate(-106.8047 6.6016),translate(106.7975 -6.592499999999999),rotate(0),translate(-106.7975 6.592499999999999)" >kb-botani-2</text>
    <line x1="106.8043" y1="-6.6017" x2="106.7999" y2="-6.6027" style="stroke:rgb(255,0,0);stroke-width:.00002" />
    <line x1="106.8043" y1="-6.6017" x2="106.80229502657116" y2="-6.602155675779282" style="stroke:rgb(0,0,0);stroke-width:.00002" />
    <line x1="106.80229502657116" y1="-6.602155675779282" x2="106.80190497342883" y2="-6.602244324220718" style="stroke:rgb(0,0,0);stroke-width:.00002" />
    <line x1="106.80190497342883" y1="-6.602244324220718" x2="106.7999" y2="-6.6027" style="stroke:rgb(0,0,0);stroke-width:.00002" />
    <circle cx="106.8043" cy="-6.6017" fill="rgb(255,0,0)" r=".0001" />
    <text x="106.8043" y="-6.6017" stroke="rgb(0,0,0)" transform="translate(106.8043 -6.6017),scale(0.00001 -0.00001),translate(-106.8043 6.6017),translate(106.7975 -6.592499999999999),rotate(0),translate(-106.7975 6.592499999999999)" >bangka-otista</text>
    <line x1="106.7999" y1="-6.6027" x2="106.7996" y2="-6.6027" style="stroke:rgb(255,0,0);stroke-width:.00002" />
    <line x1="106.7999" y1="-6.6027" x2="106.79974999999999" y2="-6.6027" style="stroke:rgb(0,0,0);stroke-width:.00002" />
    <line x1="106.79974999999999" y1="-6.6027" x2="106.79974999999999" y2="-6.6027" style="stroke:rgb(0,0,0);stroke-width:.00002" />
    <line x1="106.79974999999999" y1="-6.6027" x2="106.7996" y2="-6.6027" style="stroke:rgb(0,0,0);stroke-width:.00002" />
    <circle cx="106.7999" cy="-6.6027" fill="rgb(255,0,0)" r=".0001" />
    <text x="106.7999" y="-6.6027" stroke="rgb(0,0,0)" transform="translate(106.7999 -6.6027),scale(0.00001 -0.00001),translate(-106.7999 6.6027),translate(106.7975 -6.592499999999999),rotate(0),translate(-106.7975 6.592499999999999)" >otista-roda</text>
    <line x1="106.7996" y1="-6.6027" x2="106.7988" y2="-6.6031" style="stroke:rgb(255,0,0);stroke-width:.00002" />
    <line x1="106.7996" y1="-6.6027" x2="106.7995577708764" y2="-6.602721114561799" style="stroke:rgb(0,0,0);stroke-width:.00002" />
    <line x1="106.7995577708764" y1="-6.602721114561799" x2="106.7988422291236" y2="-6.603078885438201" style="stroke:rgb(0,0,0);stroke-width:.00002" />
    <line x1="106.7988422291236" y1="-6.603078885438201" x2="106.7988" y2="-6.6031" style="stroke:rgb(0,0,0);stroke-width:.00002" />
    <circle cx="106.7996" cy="-6.6027" fill="rgb(255,0,0)" r=".0001" />
    <text x="106.7996" y="-6.6027" stroke="rgb(0,0,0)" transform="translate(106.7996 -6.6027),scale(0.00001 -0.00001),translate(-106.7996 6.6027),translate(106.7975 -6.592499999999999),rotate(0),translate(-106.7975 6.592499999999999)" >kb-otista</text>
    <line x1="106.7988" y1="-6.6031" x2="106.7972" y2="-6.604" style="stroke:rgb(255,0,0);stroke-width:.00002" />
    <line x1="106.7988" y1="-6.6031" x2="106.798" y2="-6.60355" style="stroke:rgb(0,0,0);stroke-width:.00002" />
    <line x1="106.798" y1="-6.60355" x2="106.798" y2="-6.60355" style="stroke:rgb(0,0,0);stroke-width:.00002" />
    <line x1="106.798" y1="-6.60355" x2="106.7972" y2="-6.604" style="stroke:rgb(0,0,0);stroke-width:.00002" />
    <circle cx="106.7988" cy="-6.6031" fill="rgb(255,0,0)" r=".0001" />
    <text x="106.7988" y="-6.6031" stroke="rgb(0,0,0)" transform="translate(106.7988 -6.6031),scale(0.00001 -0.00001),translate(-106.7988 6.6031),translate(106.7975 -6.592499999999999),rotate(0),translate(-106.7975 6.592499999999999)" >kb-suryakencana</text>
    <line x1="106.7972" y1="-6.604" x2="106.7967" y2="-6.6042" style="stroke:rgb(255,0,0);stroke-width:.00002" />
    <line x1="106.7972" y1="-6.604" x2="106.79695000000001" y2="-6.6041" style="stroke:rgb(0,0,0);stroke-width:.00002" />
    <line x1="106.79695000000001" y1="-6.6041" x2="106.79695000000001" y2="-6.6041" style="stroke:rgb(0,0,0);stroke-width:.00002" />
    <line x1="106.79695000000001" y1="-6.6041" x2="106.7967" y2="-6.6042" style="stroke:rgb(0,0,0);stroke-width:.00002" />
    <circle cx="106.7972" cy="-6.604" fill="rgb(255,0,0)" r=".0001" />
    <text x="106.7972" y="-6.604" stroke="rgb(0,0,0)" transform="translate(106.7972 -6.604),scale(0.00001 -0.00001),translate(-106.7972 6.604),translate(106.7975 -6.592499999999999),rotate(0),translate(-106.7975 6.592499999999999)" >cincau-kb</text>
    <line x1="106.7967" y1="-6.6042" x2="106.7961" y2="-6.6038" style="stroke:rgb(255,0,0);stroke-width:.00002" />
    <line x1="106.7967" y1="-6.6042" x2="106.7964" y2="-6.603999999999999" style="stroke:rgb(0,0,0);stroke-width:.00002" />
    <line x1="106.7964" y1="-6.603999999999999" x2="106.7964" y2="-6.603999999999999" style="stroke:rgb(0,0,0);stroke-width:.00002" />
    <line x1="106.7964" y1="-6.603999999999999" x2="106.7961" y2="-6.6038" style="stroke:rgb(0,0,0);stroke-width:.00002" />
    <circle cx="106.7967" cy="-6.6042" fill="rgb(255,0,0)" r=".0001" />
    <text x="106.7967" y="-6.6042" stroke="rgb(0,0,0)" transform="translate(106.7967 -6.6042),scale(0.00001 -0.00001),translate(-106.7967 6.6042),translate(106.7975 -6.592499999999999),rotate(0),translate(-106.7975 6.592499999999999)" >kb-btm-1</text>
    <line x1="106.7961" y1="-6.6038" x2="106.7937" y2="-6.5969" style="stroke:rgb(255,0,0);stroke-width:.00002" />
    <line x1="106.7961" y1="-6.6038" x2="106.79496570412499" y2="-6.600538899359341" style="stroke:rgb(0,0,0);stroke-width:.00002" />
    <line x1="106.79496570412499" y1="-6.600538899359341" x2="106.794834295875" y2="-6.600161100640658" style="stroke:rgb(0,0,0);stroke-width:.00002" />
    <line x1="106.794834295875" y1="-6.600161100640658" x2="106.7937" y2="-6.5969" style="stroke:rgb(0,0,0);stroke-width:.00002" />
    <circle cx="106.7961" cy="-6.6038" fill="rgb(255,0,0)" r=".0001" />
    <text x="106.7961" y="-6.6038" stroke="rgb(0,0,0)" transform="translate(106.7961 -6.6038),scale(0.00001 -0.00001),translate(-106.7961 6.6038),translate(106.7975 -6.592499999999999),rotate(0),translate(-106.7975 6.592499999999999)" >kb-btm-2</text>
    <line x1="106.7937" y1="-6.5969" x2="106.7946" y2="-6.5945" style="stroke:rgb(255,0,0);stroke-width:.00002" />
    <line x1="106.7937" y1="-6.5969" x2="106.79400955062337" y2="-6.596074531671028" style="stroke:rgb(0,0,0);stroke-width:.00002" />
    <line x1="106.79400955062337" y1="-6.596074531671028" x2="106.79429044937663" y2="-6.595325468328972" style="stroke:rgb(0,0,0);stroke-width:.00002" />
    <line x1="106.79429044937663" y1="-6.595325468328972" x2="106.7946" y2="-6.5945" style="stroke:rgb(0,0,0);stroke-width:.00002" />
    <circle cx="106.7937" cy="-6.5969" fill="rgb(255,0,0)" r=".0001" />
    <text x="106.7937" y="-6.5969" stroke="rgb(0,0,0)" transform="translate(106.7937 -6.5969),scale(0.00001 -0.00001),translate(-106.7937 6.5969),translate(106.7975 -6.592499999999999),rotate(0),translate(-106.7975 6.592499999999999)" >kb-muslihat</text>
    <line x1="106.7946" y1="-6.5945" x2="106.7973" y2="-6.593" style="stroke:rgb(255,0,0);stroke-width:.00002" />
    <line x1="106.7946" y1="-6.5945" x2="106.79577516854478" y2="-6.593847128586235" style="stroke:rgb(0,0,0);stroke-width:.00002" />
    <line x1="106.79577516854478" y1="-6.593847128586235" x2="106.79612483145523" y2="-6.593652871413765" style="stroke:rgb(0,0,0);stroke-width:.00002" />
    <line x1="106.79612483145523" y1="-6.593652871413765" x2="106.7973" y2="-6.593" style="stroke:rgb(0,0,0);stroke-width:.00002" />
    <circle cx="106.7946" cy="-6.5945" fill="rgb(255,0,0)" r=".0001" />
    <text x="106.7946" y="-6.5945" stroke="rgb(0,0,0)" transform="translate(106.7946 -6.5945),scale(0.00001 -0.00001),translate(-106.7946 6.5945),translate(106.7975 -6.592499999999999),rotate(0),translate(-106.7975 6.592499999999999)" >kb-gedong-sawah</text>
    <line x1="106.7973" y1="-6.593" x2="106.7984" y2="-6.5935" style="stroke:rgb(255,0,0);stroke-width:.00002" />
    <line x1="106.7973" y1="-6.593" x2="106.79785000000001" y2="-6.593249999999999" style="stroke:rgb(0,0,0);stroke-width:.00002" />
    <line x1="106.79785000000001" y1="-6.593249999999999" x2="106.79785000000001" y2="-6.593249999999999" style="stroke:rgb(0,0,0);stroke-width:.00002" />
    <line x1="106.79785000000001" y1="-6.593249999999999" x2="106.7984" y2="-6.5935" style="stroke:rgb(0,0,0);stroke-width:.00002" />
    <circle cx="106.7973" cy="-6.593" fill="rgb(255,0,0)" r=".0001" />
    <text x="106.7973" y="-6.593" stroke="rgb(0,0,0)" transform="translate(106.7973 -6.593),scale(0.00001 -0.00001),translate(-106.7973 6.593),translate(106.7975 -6.592499999999999),rotate(0),translate(-106.7975 6.592499999999999)" >kb-polisi-militer</text>
    <line x1="106.7984" y1="-6.5935" x2="106.8008" y2="-6.5923" style="stroke:rgb(255,0,0);stroke-width:.00002" />
    <line x1="106.7984" y1="-6.5935" x2="106.7996" y2="-6.5929" style="stroke:rgb(0,0,0);stroke-width:.00002" />
    <line x1="106.7996" y1="-6.5929" x2="106.7996" y2="-6.5929" style="stroke:rgb(0,0,0);stroke-width:.00002" />
    <line x1="106.7996" y1="-6.5929" x2="106.8008" y2="-6.5923" style="stroke:rgb(0,0,0);stroke-width:.00002" />
    <circle cx="106.7984" cy="-6.5935" fill="rgb(255,0,0)" r=".0001" />
    <text x="106.7984" y="-6.5935" stroke="rgb(0,0,0)" transform="translate(106.7984 -6.5935),scale(0.00001 -0.00001),translate(-106.7984 6.5935),translate(106.7975 -6.592499999999999),rotate(0),translate(-106.7975 6.592499999999999)" >kb-jalak-harupat</text>
    <line x1="106.8008" y1="-6.5923" x2="106.8018" y2="-6.5927" style="stroke:rgb(255,0,0);stroke-width:.00002" />
    <line x1="106.8008" y1="-6.5923" x2="106.80111430466182" y2="-6.592425721864728" style="stroke:rgb(0,0,0);stroke-width:.00002" />
    <line x1="106.80111430466182" y1="-6.592425721864728" x2="106.80148569533817" y2="-6.59257427813527" style="stroke:rgb(0,0,0);stroke-width:.00002" />
    <line x1="106.80148569533817" y1="-6.59257427813527" x2="106.8018" y2="-6.5927" style="stroke:rgb(0,0,0);stroke-width:.00002" />
    <circle cx="106.8008" cy="-6.5923" fill="rgb(255,0,0)" r=".0001" />
    <text x="106.8008" y="-6.5923" stroke="rgb(0,0,0)" transform="translate(106.8008 -6.5923),scale(0.00001 -0.00001),translate(-106.8008 6.5923),translate(106.7975 -6.592499999999999),rotate(0),translate(-106.7975 6.592499999999999)" >kb-sempur</text>
    <line x1="106.8018" y1="-6.5927" x2="106.8029" y2="-6.5935" style="stroke:rgb(255,0,0);stroke-width:.00002" />
    <line x1="106.8018" y1="-6.5927" x2="106.80186475834941" y2="-6.592747096981394" style="stroke:rgb(0,0,0);stroke-width:.00002" />
    <line x1="106.80186475834941" y1="-6.592747096981394" x2="106.80283524165057" y2="-6.593452903018606" style="stroke:rgb(0,0,0);stroke-width:.00002" />
    <line x1="106.80283524165057" y1="-6.593452903018606" x2="106.8029" y2="-6.5935" style="stroke:rgb(0,0,0);stroke-width:.00002" />
    <circle cx="106.8018" cy="-6.5927" fill="rgb(255,0,0)" r=".0001" />
    <text x="106.8018" y="-6.5927" stroke="rgb(0,0,0)" transform="translate(106.8018 -6.5927),scale(0.00001 -0.00001),translate(-106.8018 6.5927),translate(106.7975 -6.592499999999999),rotate(0),translate(-106.7975 6.592499999999999)" >kb-salak</text>
    <line x1="106.8029" y1="-6.5935" x2="106.8046" y2="-6.5922" style="stroke:rgb(255,0,0);stroke-width:.00002" />
    <line x1="106.8029" y1="-6.5935" x2="106.80295564216702" y2="-6.593457450107571" style="stroke:rgb(0,0,0);stroke-width:.00002" />
    <line x1="106.80295564216702" y1="-6.593457450107571" x2="106.80454435783297" y2="-6.59224254989243" style="stroke:rgb(0,0,0);stroke-width:.00002" />
    <line x1="106.80454435783297" y1="-6.59224254989243" x2="106.8046" y2="-6.5922" style="stroke:rgb(0,0,0);stroke-width:.00002" />
    <circle cx="106.8029" cy="-6.5935" fill="rgb(255,0,0)" r=".0001" />
    <text x="106.8029" y="-6.5935" stroke="rgb(0,0,0)" transform="translate(106.8029 -6.5935),scale(0.00001 -0.00001),translate(-106.8029 6.5935),translate(106.7975 -6.592499999999999),rotate(0),translate(-106.7975 6.592499999999999)" >kb-pangrango</text>
    <line x1="106.8046" y1="-6.5922" x2="106.8057" y2="-6.5921" style="stroke:rgb(255,0,0);stroke-width:.00002" />
    <line x1="106.8046" y1="-6.5922" x2="106.80515" y2="-6.59215" style="stroke:rgb(0,0,0);stroke-width:.00002" />
    <line x1="106.80515" y1="-6.59215" x2="106.80515" y2="-6.59215" style="stroke:rgb(0,0,0);stroke-width:.00002" />
    <line x1="106.80515" y1="-6.59215" x2="106.8057" y2="-6.5921" style="stroke:rgb(0,0,0);stroke-width:.00002" />
    <circle cx="106.8046" cy="-6.5922" fill="rgb(255,0,0)" r=".0001" />
    <text x="106.8046" y="-6.5922" stroke="rgb(0,0,0)" transform="translate(106.8046 -6.5922),scale(0.00001 -0.00001),translate(-106.8046 6.5922),translate(106.7975 -6.592499999999999),rotate(0),translate(-106.7975 6.592499999999999)" >pangrango-pajajaran</text>
    <line x1="106.8057" y1="-6.5921" x2="106.8057" y2="-6.5913" style="stroke:rgb(255,0,0);stroke-width:.00002" />
    <line x1="106.8057" y1="-6.5921" x2="106.8057" y2="-6.5917" style="stroke:rgb(0,0,0);stroke-width:.00002" />
    <line x1="106.8057" y1="-6.5917" x2="106.8057" y2="-6.5917" style="stroke:rgb(0,0,0);stroke-width:.00002" />
    <line x1="106.8057" y1="-6.5917" x2="106.8057" y2="-6.5913" style="stroke:rgb(0,0,0);stroke-width:.00002" />
    <circle cx="106.8057" cy="-6.5921" fill="rgb(255,0,0)" r=".0001" />
    <text x="106.8057" y="-6.5921" stroke="rgb(0,0,0)" transform="translate(106.8057 -6.5921),scale(0.00001 -0.00001),translate(-106.8057 6.5921),translate(106.7975 -6.592499999999999),rotate(0),translate(-106.7975 6.592499999999999)" >lodaya-S</text>
    <line x1="106.8057" y1="-6.5913" x2="106.8057" y2="-6.5913" style="stroke:rgb(255,0,0);stroke-width:.00002" />
    <line x1="106.8057" y1="-6.5913" x2="106.8057" y2="-6.5913" style="stroke:rgb(0,0,0);stroke-width:.00002" />
    <line x1="106.8057" y1="-6.5913" x2="106.8057" y2="-6.5913" style="stroke:rgb(0,0,0);stroke-width:.00002" />
    <line x1="106.8057" y1="-6.5913" x2="106.8057" y2="-6.5913" style="stroke:rgb(0,0,0);stroke-width:.00002" />
    <circle cx="106.8057" cy="-6.5913" fill="rgb(255,0,0)" r=".0001" />
    <text x="106.8057" y="-6.5913" stroke="rgb(0,0,0)" transform="translate(106.8057 -6.5913),scale(0.00001 -0.00001),translate(-106.8057 6.5913),translate(106.7975 -6.592499999999999),rotate(0),translate(-106.7975 6.592499999999999)" >lodaya-M</text>
    <line x1="106.8057" y1="-6.5913" x2="106.8082" y2="-6.5913" style="stroke:rgb(255,0,0);stroke-width:.00002" />
    <line x1="106.8057" y1="-6.5913" x2="106.80695" y2="-6.5913" style="stroke:rgb(0,0,0);stroke-width:.00002" />
    <line x1="106.80695" y1="-6.5913" x2="106.80695" y2="-6.5913" style="stroke:rgb(0,0,0);stroke-width:.00002" />
    <line x1="106.80695" y1="-6.5913" x2="106.8082" y2="-6.5913" style="stroke:rgb(0,0,0);stroke-width:.00002" />
    <circle cx="106.8057" cy="-6.5913" fill="rgb(255,0,0)" r=".0001" />
    <text x="106.8057" y="-6.5913" stroke="rgb(0,0,0)" transform="translate(106.8057 -6.5913),scale(0.00001 -0.00001),translate(-106.8057 6.5913),translate(106.7975 -6.592499999999999),rotate(0),translate(-106.7975 6.592499999999999)" >line-05-2</text>
    <line x1="106.8082" y1="-6.5913" x2="106.8086" y2="-6.5917" style="stroke:rgb(255,0,0);stroke-width:.00002" />
    <line x1="106.8082" y1="-6.5913" x2="106.8084" y2="-6.5915" style="stroke:rgb(0,0,0);stroke-width:.00002" />
    <line x1="106.8084" y1="-6.5915" x2="106.8084" y2="-6.5915" style="stroke:rgb(0,0,0);stroke-width:.00002" />
    <line x1="106.8084" y1="-6.5915" x2="106.8086" y2="-6.5917" style="stroke:rgb(0,0,0);stroke-width:.00002" />
    <circle cx="106.8082" cy="-6.5913" fill="rgb(255,0,0)" r=".0001" />
    <text x="106.8082" y="-6.5913" stroke="rgb(0,0,0)" transform="translate(106.8082 -6.5913),scale(0.00001 -0.00001),translate(-106.8082 6.5913),translate(106.7975 -6.592499999999999),rotate(0),translate(-106.7975 6.592499999999999)" >line-05-3</text>
    <line x1="106.8086" y1="-6.5917" x2="106.8144" y2="-6.5919" style="stroke:rgb(255,0,0);stroke-width:.00002" />
    <line x1="106.8086" y1="-6.5917" x2="106.8115" y2="-6.5918" style="stroke:rgb(0,0,0);stroke-width:.00002" />
    <line x1="106.8115" y1="-6.5918" x2="106.8115" y2="-6.5918" style="stroke:rgb(0,0,0);stroke-width:.00002" />
    <line x1="106.8115" y1="-6.5918" x2="106.8144" y2="-6.5919" style="stroke:rgb(0,0,0);stroke-width:.00002" />
    <circle cx="106.8086" cy="-6.5917" fill="rgb(255,0,0)" r=".0001" />
    <text x="106.8086" y="-6.5917" stroke="rgb(0,0,0)" transform="translate(106.8086 -6.5917),scale(0.00001 -0.00001),translate(-106.8086 6.5917),translate(106.7975 -6.592499999999999),rotate(0),translate(-106.7975 6.592499999999999)" >line-05-4</text>
    <line x1="106.8144" y1="-6.5919" x2="106.8155" y2="-6.5915" style="stroke:rgb(255,0,0);stroke-width:.00002" />
    <line x1="106.8144" y1="-6.5919" x2="106.81495000000001" y2="-6.5916999999999994" style="stroke:rgb(0,0,0);stroke-width:.00002" />
    <line x1="106.81495000000001" y1="-6.5916999999999994" x2="106.81495000000001" y2="-6.5916999999999994" style="stroke:rgb(0,0,0);stroke-width:.00002" />
    <line x1="106.81495000000001" y1="-6.5916999999999994" x2="106.8155" y2="-6.5915" style="stroke:rgb(0,0,0);stroke-width:.00002" />
    <circle cx="106.8144" cy="-6.5919" fill="rgb(255,0,0)" r=".0001" />
    <text x="106.8144" y="-6.5919" stroke="rgb(0,0,0)" transform="translate(106.8144 -6.5919),scale(0.00001 -0.00001),translate(-106.8144 6.5919),translate(106.7975 -6.592499999999999),rotate(0),translate(-106.7975 6.592499999999999)" >line-05-5</text>
    <line x1="106.8155" y1="-6.5915" x2="106.8167" y2="-6.5908" style="stroke:rgb(255,0,0);stroke-width:.00002" />
    <line x1="106.8155" y1="-6.5915" x2="106.8161" y2="-6.59115" style="stroke:rgb(0,0,0);stroke-width:.00002" />
    <line x1="106.8161" y1="-6.59115" x2="106.8161" y2="-6.59115" style="stroke:rgb(0,0,0);stroke-width:.00002" />
    <line x1="106.8161" y1="-6.59115" x2="106.8167" y2="-6.5908" style="stroke:rgb(0,0,0);stroke-width:.00002" />
    <circle cx="106.8155" cy="-6.5915" fill="rgb(255,0,0)" r=".0001" />
    <text x="106.8155" y="-6.5915" stroke="rgb(0,0,0)" transform="translate(106.8155 -6.5915),scale(0.00001 -0.00001),translate(-106.8155 6.5915),translate(106.7975 -6.592499999999999),rotate(0),translate(-106.7975 6.592499999999999)" >line-05-6</text>
    <line x1="106.8167" y1="-6.5908" x2="106.8162" y2="-6.5873" style="stroke:rgb(255,0,0);stroke-width:.00002" />
    <line x1="106.8167" y1="-6.5908" x2="106.81645" y2="-6.58905" style="stroke:rgb(0,0,0);stroke-width:.00002" />
    <line x1="106.81645" y1="-6.58905" x2="106.81645" y2="-6.58905" style="stroke:rgb(0,0,0);stroke-width:.00002" />
    <line x1="106.81645" y1="-6.58905" x2="106.8162" y2="-6.5873" style="stroke:rgb(0,0,0);stroke-width:.00002" />
    <circle cx="106.8167" cy="-6.5908" fill="rgb(255,0,0)" r=".0001" />
    <text x="106.8167" y="-6.5908" stroke="rgb(0,0,0)" transform="translate(106.8167 -6.5908),scale(0.00001 -0.00001),translate(-106.8167 6.5908),translate(106.7975 -6.592499999999999),rotate(0),translate(-106.7975 6.592499999999999)" >syam-tohir</text>
    <line x1="106.8162" y1="-6.5873" x2="106.8167" y2="-6.5908" style="stroke:rgb(255,0,0);stroke-width:.00002" />
    <line x1="106.8162" y1="-6.5873" x2="106.81645" y2="-6.58905" style="stroke:rgb(0,0,0);stroke-width:.00002" />
    <line x1="106.81645" y1="-6.58905" x2="106.81645" y2="-6.58905" style="stroke:rgb(0,0,0);stroke-width:.00002" />
    <line x1="106.81645" y1="-6.58905" x2="106.8167" y2="-6.5908" style="stroke:rgb(0,0,0);stroke-width:.00002" />
    <circle cx="106.8162" cy="-6.5873" fill="rgb(255,0,0)" r=".0001" />
    <text x="106.8162" y="-6.5873" stroke="rgb(0,0,0)" transform="translate(106.8162 -6.5873),scale(0.00001 -0.00001),translate(-106.8162 6.5873),translate(106.7975 -6.592499999999999),rotate(0),translate(-106.7975 6.592499999999999)" >syam-norththturn</text>
    <line x1="106.8167" y1="-6.5908" x2="106.8185" y2="-6.5903" style="stroke:rgb(255,0,0);stroke-width:.00002" />
    <line x1="106.8167" y1="-6.5908" x2="106.8176" y2="-6.59055" style="stroke:rgb(0,0,0);stroke-width:.00002" />
    <line x1="106.8176" y1="-6.59055" x2="106.8176" y2="-6.59055" style="stroke:rgb(0,0,0);stroke-width:.00002" />
    <line x1="106.8176" y1="-6.59055" x2="106.8185" y2="-6.5903" style="stroke:rgb(0,0,0);stroke-width:.00002" />
    <circle cx="106.8167" cy="-6.5908" fill="rgb(255,0,0)" r=".0001" />
    <text x="106.8167" y="-6.5908" stroke="rgb(0,0,0)" transform="translate(106.8167 -6.5908),scale(0.00001 -0.00001),translate(-106.8167 6.5908),translate(106.7975 -6.592499999999999),rotate(0),translate(-106.7975 6.592499999999999)" >syam-tohir</text>
    <line x1="106.8185" y1="-6.5903" x2="106.8185" y2="-6.5894" style="stroke:rgb(255,0,0);stroke-width:.00002" />
    <line x1="106.8185" y1="-6.5903" x2="106.8185" y2="-6.58985" style="stroke:rgb(0,0,0);stroke-width:.00002" />
    <line x1="106.8185" y1="-6.58985" x2="106.8185" y2="-6.58985" style="stroke:rgb(0,0,0);stroke-width:.00002" />
    <line x1="106.8185" y1="-6.58985" x2="106.8185" y2="-6.5894" style="stroke:rgb(0,0,0);stroke-width:.00002" />
    <circle cx="106.8185" cy="-6.5903" fill="rgb(255,0,0)" r=".0001" />
    <text x="106.8185" y="-6.5903" stroke="rgb(0,0,0)" transform="translate(106.8185 -6.5903),scale(0.00001 -0.00001),translate(-106.8185 6.5903),translate(106.7975 -6.592499999999999),rotate(0),translate(-106.7975 6.592499999999999)" >wiradiredja-swingleft</text>
    <line x1="106.8185" y1="-6.5894" x2="106.8207" y2="-6.589" style="stroke:rgb(255,0,0);stroke-width:.00002" />
    <line x1="106.8185" y1="-6.5894" x2="106.81960000000001" y2="-6.5892" style="stroke:rgb(0,0,0);stroke-width:.00002" />
    <line x1="106.81960000000001" y1="-6.5892" x2="106.81960000000001" y2="-6.5892" style="stroke:rgb(0,0,0);stroke-width:.00002" />
    <line x1="106.81960000000001" y1="-6.5892" x2="106.8207" y2="-6.589" style="stroke:rgb(0,0,0);stroke-width:.00002" />
    <circle cx="106.8185" cy="-6.5894" fill="rgb(255,0,0)" r=".0001" />
    <text x="106.8185" y="-6.5894" stroke="rgb(0,0,0)" transform="translate(106.8185 -6.5894),scale(0.00001 -0.00001),translate(-106.8185 6.5894),translate(106.7975 -6.592499999999999),rotate(0),translate(-106.7975 6.592499999999999)" >wiradiredja-swingright</text>
    <line x1="106.8207" y1="-6.589" x2="106.8355" y2="-6.59" style="stroke:rgb(255,0,0);stroke-width:.00002" />
    <line x1="106.8207" y1="-6.589" x2="106.8281" y2="-6.5895" style="stroke:rgb(0,0,0);stroke-width:.00002" />
    <line x1="106.8281" y1="-6.5895" x2="106.8281" y2="-6.5895" style="stroke:rgb(0,0,0);stroke-width:.00002" />
    <line x1="106.8281" y1="-6.5895" x2="106.8355" y2="-6.59" style="stroke:rgb(0,0,0);stroke-width:.00002" />
    <circle cx="106.8207" cy="-6.589" fill="rgb(255,0,0)" r=".0001" />
    <text x="106.8207" y="-6.589" stroke="rgb(0,0,0)" transform="translate(106.8207 -6.589),scale(0.00001 -0.00001),translate(-106.8207 6.589),translate(106.7975 -6.592499999999999),rotate(0),translate(-106.7975 6.592499999999999)" >wiradiredja-ikhwan</text>
    <line x1="106.8355" y1="-6.59" x2="106.8364" y2="-6.589" style="stroke:rgb(255,0,0);stroke-width:.00002" />
    <line x1="106.8355" y1="-6.59" x2="106.83595" y2="-6.5895" style="stroke:rgb(0,0,0);stroke-width:.00002" />
    <line x1="106.83595" y1="-6.5895" x2="106.83595" y2="-6.5895" style="stroke:rgb(0,0,0);stroke-width:.00002" />
    <line x1="106.83595" y1="-6.5895" x2="106.8364" y2="-6.589" style="stroke:rgb(0,0,0);stroke-width:.00002" />
    <circle cx="106.8355" cy="-6.59" fill="rgb(255,0,0)" r=".0001" />
    <text x="106.8355" y="-6.59" stroke="rgb(0,0,0)" transform="translate(106.8355 -6.59),scale(0.00001 -0.00001),translate(-106.8355 6.59),translate(106.7975 -6.592499999999999),rotate(0),translate(-106.7975 6.592499999999999)" >line-05-13</text>
    <line x1="106.8364" y1="-6.589" x2="106.8412" y2="-6.5888" style="stroke:rgb(255,0,0);stroke-width:.00002" />
    <line x1="106.8364" y1="-6.589" x2="106.83879999999999" y2="-6.588900000000001" style="stroke:rgb(0,0,0);stroke-width:.00002" />
    <line x1="106.83879999999999" y1="-6.588900000000001" x2="106.83879999999999" y2="-6.588900000000001" style="stroke:rgb(0,0,0);stroke-width:.00002" />
    <line x1="106.83879999999999" y1="-6.588900000000001" x2="106.8412" y2="-6.5888" style="stroke:rgb(0,0,0);stroke-width:.00002" />
    <circle cx="106.8364" cy="-6.589" fill="rgb(255,0,0)" r=".0001" />
    <text x="106.8364" y="-6.589" stroke="rgb(0,0,0)" transform="translate(106.8364 -6.589),scale(0.00001 -0.00001),translate(-106.8364 6.589),translate(106.7975 -6.592499999999999),rotate(0),translate(-106.7975 6.592499999999999)" >line-05-14</text>
    <line x1="106.8412" y1="-6.5888" x2="106.8436" y2="-6.5869" style="stroke:rgb(255,0,0);stroke-width:.00002" />
    <line x1="106.8412" y1="-6.5888" x2="106.8424" y2="-6.5878499999999995" style="stroke:rgb(0,0,0);stroke-width:.00002" />
    <line x1="106.8424" y1="-6.5878499999999995" x2="106.8424" y2="-6.5878499999999995" style="stroke:rgb(0,0,0);stroke-width:.00002" />
    <line x1="106.8424" y1="-6.5878499999999995" x2="106.8436" y2="-6.5869" style="stroke:rgb(0,0,0);stroke-width:.00002" />
    <circle cx="106.8412" cy="-6.5888" fill="rgb(255,0,0)" r=".0001" />
    <text x="106.8412" y="-6.5888" stroke="rgb(0,0,0)" transform="translate(106.8412 -6.5888),scale(0.00001 -0.00001),translate(-106.8412 6.5888),translate(106.7975 -6.592499999999999),rotate(0),translate(-106.7975 6.592499999999999)" >line-05-15</text>
    <line x1="106.8436" y1="-6.5869" x2="106.8484" y2="-6.5854" style="stroke:rgb(255,0,0);stroke-width:.00002" />
    <line x1="106.8436" y1="-6.5869" x2="106.846" y2="-6.58615" style="stroke:rgb(0,0,0);stroke-width:.00002" />
    <line x1="106.846" y1="-6.58615" x2="106.846" y2="-6.58615" style="stroke:rgb(0,0,0);stroke-width:.00002" />
    <line x1="106.846" y1="-6.58615" x2="106.8484" y2="-6.5854" style="stroke:rgb(0,0,0);stroke-width:.00002" />
    <circle cx="106.8436" cy="-6.5869" fill="rgb(255,0,0)" r=".0001" />
    <text x="106.8436" y="-6.5869" stroke="rgb(0,0,0)" transform="translate(106.8436 -6.5869),scale(0.00001 -0.00001),translate(-106.8436 6.5869),translate(106.7975 -6.592499999999999),rotate(0),translate(-106.7975 6.592499999999999)" >line-05-16</text>
    <line x1="106.8484" y1="-6.5854" x2="106.853" y2="-6.5868" style="stroke:rgb(255,0,0);stroke-width:.00002" />
    <line x1="106.8484" y1="-6.5854" x2="106.85069999999999" y2="-6.5861" style="stroke:rgb(0,0,0);stroke-width:.00002" />
    <line x1="106.85069999999999" y1="-6.5861" x2="106.85069999999999" y2="-6.5861" style="stroke:rgb(0,0,0);stroke-width:.00002" />
    <line x1="106.85069999999999" y1="-6.5861" x2="106.853" y2="-6.5868" style="stroke:rgb(0,0,0);stroke-width:.00002" />
    <circle cx="106.8484" cy="-6.5854" fill="rgb(255,0,0)" r=".0001" />
    <text x="106.8484" y="-6.5854" stroke="rgb(0,0,0)" transform="translate(106.8484 -6.5854),scale(0.00001 -0.00001),translate(-106.8484 6.5854),translate(106.7975 -6.592499999999999),rotate(0),translate(-106.7975 6.592499999999999)" >line-05-17</text>
    <line x1="106.853" y1="-6.5868" x2="106.8523" y2="-6.5876" style="stroke:rgb(255,0,0);stroke-width:.00002" />
    <line x1="106.853" y1="-6.5868" x2="106.85265" y2="-6.5872" style="stroke:rgb(0,0,0);stroke-width:.00002" />
    <line x1="106.85265" y1="-6.5872" x2="106.85265" y2="-6.5872" style="stroke:rgb(0,0,0);stroke-width:.00002" />
    <line x1="106.85265" y1="-6.5872" x2="106.8523" y2="-6.5876" style="stroke:rgb(0,0,0);stroke-width:.00002" />
    <circle cx="106.853" cy="-6.5868" fill="rgb(255,0,0)" r=".0001" />
    <text x="106.853" y="-6.5868" stroke="rgb(0,0,0)" transform="translate(106.853 -6.5868),scale(0.00001 -0.00001),translate(-106.853 6.5868),translate(106.7975 -6.592499999999999),rotate(0),translate(-106.7975 6.592499999999999)" >line-05-18</text>
    <line x1="106.8523" y1="-6.5876" x2="106.8539" y2="-6.5902" style="stroke:rgb(255,0,0);stroke-width:.00002" />
    <line x1="106.8523" y1="-6.5876" x2="106.8531" y2="-6.588900000000001" style="stroke:rgb(0,0,0);stroke-width:.00002" />
    <line x1="106.8531" y1="-6.588900000000001" x2="106.8531" y2="-6.588900000000001" style="stroke:rgb(0,0,0);stroke-width:.00002" />
    <line x1="106.8531" y1="-6.588900000000001" x2="106.8539" y2="-6.5902" style="stroke:rgb(0,0,0);stroke-width:.00002" />
    <circle cx="106.8523" cy="-6.5876" fill="rgb(255,0,0)" r=".0001" />
    <text x="106.8523" y="-6.5876" stroke="rgb(0,0,0)" transform="translate(106.8523 -6.5876),scale(0.00001 -0.00001),translate(-106.8523 6.5876),translate(106.7975 -6.592499999999999),rotate(0),translate(-106.7975 6.592499999999999)" >line-05-19</text>
    <line x1="106.8539" y1="-6.5902" x2="106.8599" y2="-6.5914" style="stroke:rgb(255,0,0);stroke-width:.00002" />
    <line x1="106.8539" y1="-6.5902" x2="106.8569" y2="-6.5908" style="stroke:rgb(0,0,0);stroke-width:.00002" />
    <line x1="106.8569" y1="-6.5908" x2="106.8569" y2="-6.5908" style="stroke:rgb(0,0,0);stroke-width:.00002" />
    <line x1="106.8569" y1="-6.5908" x2="106.8599" y2="-6.5914" style="stroke:rgb(0,0,0);stroke-width:.00002" />
    <circle cx="106.8539" cy="-6.5902" fill="rgb(255,0,0)" r=".0001" />
    <text x="106.8539" y="-6.5902" stroke="rgb(0,0,0)" transform="translate(106.8539 -6.5902),scale(0.00001 -0.00001),translate(-106.8539 6.5902),translate(106.7975 -6.592499999999999),rotate(0),translate(-106.7975 6.592499999999999)" >line-05-20</text>
    <line x1="106.8599" y1="-6.5914" x2="106.8651" y2="-6.5894" style="stroke:rgb(255,0,0);stroke-width:.00002" />
    <line x1="106.8599" y1="-6.5914" x2="106.8625" y2="-6.590400000000001" style="stroke:rgb(0,0,0);stroke-width:.00002" />
    <line x1="106.8625" y1="-6.590400000000001" x2="106.8625" y2="-6.590400000000001" style="stroke:rgb(0,0,0);stroke-width:.00002" />
    <line x1="106.8625" y1="-6.590400000000001" x2="106.8651" y2="-6.5894" style="stroke:rgb(0,0,0);stroke-width:.00002" />
    <circle cx="106.8599" cy="-6.5914" fill="rgb(255,0,0)" r=".0001" />
    <text x="106.8599" y="-6.5914" stroke="rgb(0,0,0)" transform="translate(106.8599 -6.5914),scale(0.00001 -0.00001),translate(-106.8599 6.5914),translate(106.7975 -6.592499999999999),rotate(0),translate(-106.7975 6.592499999999999)" >line-05-21</text>
    <line x1="106.8651" y1="-6.5894" x2="106.8599" y2="-6.5914" style="stroke:rgb(255,0,0);stroke-width:.00002" />
    <line x1="106.8651" y1="-6.5894" x2="106.8625" y2="-6.590400000000001" style="stroke:rgb(0,0,0);stroke-width:.00002" />
    <line x1="106.8625" y1="-6.590400000000001" x2="106.8625" y2="-6.590400000000001" style="stroke:rgb(0,0,0);stroke-width:.00002" />
    <line x1="106.8625" y1="-6.590400000000001" x2="106.8599" y2="-6.5914" style="stroke:rgb(0,0,0);stroke-width:.00002" />
    <circle cx="106.8651" cy="-6.5894" fill="rgb(255,0,0)" r=".0001" />
    <text x="106.8651" y="-6.5894" stroke="rgb(0,0,0)" transform="translate(106.8651 -6.5894),scale(0.00001 -0.00001),translate(-106.8651 6.5894),translate(106.7975 -6.592499999999999),rotate(0),translate(-106.7975 6.592499999999999)" >line-05-22</text>
  </g>
</svg>
