<svg width="2000" height="3000" xmlns="http://www.w3.org/2000/svg" xmlns:xlink="http://www.w3.org/1999/xlink" >
  <g transform="rotate(30) translate(1000 0)">    <path d="M666.6486241430647 1325.0160077289138 L681.1903320939194 1308.8600616755382 L641.8202871607548 1282.0866590260046 L642.8994937233767 1275.927284985507 L632.0390965365874 1276.2624824295483 L608.7157992337211 1257.597674402748 L584.0179191033457 1216.187799302419 L575.5290560045978 1220.1421438035038 L573.7735476133565 1223.6531605858665 L557.3576670197156 1244.5460995233088 L550.3474515287365 1268.3808321923125 L571.754781223035 1275.5166087570565 L625.8264285283843 1322.0783050478642 L657.5097621880843 1337.1656067905976 L677.2877966839985 1366.0719648998795 L693.7297840029544 1397.4612134176475 L729.7999918839793 1435.0343466271684 L764.5000000001545 1529.6707323984244 L764.5000000001545 1528.267152441711 L775.7935274381822 1532.5022252309845 L781.2653407755477 1546.1817585738654 L768.5296509330897 1544.0591436001578 L768.7426406871367 1543.8461538461643 L773.0714951743778 1548.1750083333918 L780.0669491212631 1566.3631885952163 L775.7856954688691 1589.9100836841958 L783.5081485121975 1605.2397292778228 L812.8206966291884 1637.5949982166467 L828.0394599219676 1701.8519987876243 L828.3165351798516 1702.0598052308508 L848.9343918640913 1729.5602555835328 L858.8011816791408 1735.354034562859 L858.6135997705213 1749.8122708993865 L876.3502912611898 1750.7244436046094 L920.1668804111307 1824.65267428177 L1028.2991813665633 1911.6419546143602 L1057.8894899799707 1913.961566223059 L1089.9961310541782 2003.5015793176833 L1097.6958125253589 2007.9400320665104 L1095.3604570701004 2020.7158001453913 L1129.9786946260326 2052.1391813907903 L1174.6390736084322 2057.1182101286695 L20780330888589228 35049853143720772 L1172.8209263918643 2059.9340975636555 L1128.681305374215 2055.01312630155 L1092.1095429299753 2021.816507546936 L1094.364187474639 2009.4822756257843 L1087.543868945815 2005.5507283746274 L1055.7205100202793 1916.8007414692706 L1027.1408186334697 1914.560353077945 L917.8631195891285 1826.6496334105482 L874.5897087389665 1753.6378640877 L855.5764002294808 1752.6600367929386 L855.7788183211557 1737.0582731294478 L846.8956081357959 1731.8420521087803 L826.1734648203856 1704.202502461469 L825.370540078012 1703.6003089047022 L810.0793033710829 1639.037309475659 L781.0118514879605 1606.952578414522 L772.6543045313861 1590.3622240081236 L776.4489171111677 1569.4918548184187 L769.2142524130219 1550.6817266025494 L762.3786796564502 1543.8461538461643 L766.9851745335166 1539.2396589691643 L774.1173296123094 1540.428351482292 L772.3532362807362 1536.0181181537455 L760.0000000000051 1531.385654548418 L760.0000000000051 1526.1124843849225 L728.4849853606801 1440.162444459569 L690.0404319942055 1400.1160347027226 L679.3596961059478 1379.7255389161385 L653.3341519541835 1341.6882051558862 L660.6367146667935 1325.6140510799548 Z" stroke="blue" stroke-width="0.5" fill="none" />
  </g>
</svg>
