<svg width="1049.9999999998977" height="1849.9999999999961" xmlns="http://www.w3.org/2000/svg" xmlns:xlink="http://www.w3.org/1999/xlink" >
  <g transform="translate(524.9999999999488 924.9999999999981) rotate(30) scale(10000 -10000) translate(-106.8125 6.592499999999999)">
    <path d="M106.76 -6.5 L106.865 -6.5 L106.865 -6.685 L106.76 -6.685 Z" fill="none" stroke="black" stroke-width="0.0025" transform="translate(106.8125 -6.592499999999999) rotate(30) translate(-106.8125 6.592499999999999)" />
    <path d="M106.80585435164424 -6.588022253292064 L106.80675625936377 -6.588257611681023 L106.80693485184833 -6.586080226540885 L106.8068944961157 -6.593352329556107 L106.80613919480139 -6.5933681078760245 L106.80631376954194 -6.590138475175536 L106.80904091031243 -6.607183104991132 L106.80697457219556 -6.602792136492756 L106.84116953187846 -6.5821161143589135 L106.80814026134762 -6.605236603730561 L106.81335062844636 -6.612301508271237 L106.81487251948575 -6.615954046765767 L106.81666776335233 -6.620841099513675 L106.81688670420532 -6.6212789812196355 L106.81619999999998 -6.621965685424943 L106.81554306633257 -6.621308751757521 L106.81412138975752 -6.616231335418066 L106.81264893076013 -6.612697433824312 L106.80880620556763 -6.6074248573974 L106.80791681601355 -6.607806024349154 L106.80721055738859 -6.607335185265844 L106.80630475806706 -6.607464585168922 L106.80536323902989 -6.606 L106.80446222523103 -6.606 L106.80369570646825 -6.602646480412831 L106.80282999134987 -6.60283067511887 L106.79619122691369 -6.6062645187927584 L106.79332897081676 -6.604356348061487 L106.79072301465403 -6.596864224093622 L106.79255665184161 -6.591974524926759 L106.79672086577573 -6.58966107274114 L106.79832654904595 -6.59039092877306 L106.80068114324459 -6.589183394548573 L106.80178382481897 -6.589633582086496 L106.80388672926497 -6.591234788122622 L106.80387704416334 -6.591242194376806 L106.80410754366356 -6.588476200374158 L106.80915521543898 -6.566602956014037 L106.80929605251384 -6.5689395400027895 L106.80748201245606 -6.5809690564408525 Z" stroke="purple" stroke-width="0.0005" fill="none" />
    <circle 
      cx="106.80693485184833" cy="-12.586080226540885"
      r="15" transform="translate(106.80693485184833 -6.586080226540885) scale(0.000014999999999999999 -0.000014999999999999999) translate(-106.80693485184833 6.586080226540885) translate(106.8125 -6.592499999999999) rotate(-30) translate(-106.8125 6.592499999999999)"
      fill="white" stroke="black" stroke-width="2"/>
    <circle 
      cx="106.80613919480139" cy="-12.593368107876024"
      r="15" transform="translate(106.80613919480139 -6.5933681078760245) scale(0.000014999999999999999 -0.000014999999999999999) translate(-106.80613919480139 6.5933681078760245) translate(106.8125 -6.592499999999999) rotate(-30) translate(-106.8125 6.592499999999999)"
      fill="white" stroke="black" stroke-width="2"/>
    <circle 
      cx="106.80631376954194" cy="-12.590138475175536"
      r="15" transform="translate(106.80631376954194 -6.590138475175536) scale(0.000014999999999999999 -0.000014999999999999999) translate(-106.80631376954194 6.590138475175536) translate(106.8125 -6.592499999999999) rotate(-30) translate(-106.8125 6.592499999999999)"
      fill="white" stroke="black" stroke-width="2"/>
    <circle 
      cx="106.80904091031243" cy="-12.607183104991133"
      r="15" transform="translate(106.80904091031243 -6.607183104991132) scale(0.000014999999999999999 -0.000014999999999999999) translate(-106.80904091031243 6.607183104991132) translate(106.8125 -6.592499999999999) rotate(-30) translate(-106.8125 6.592499999999999)"
      fill="white" stroke="black" stroke-width="2"/>
    <circle 
      cx="106.80697457219556" cy="-12.602792136492756"
      r="15" transform="translate(106.80697457219556 -6.602792136492756) scale(0.000014999999999999999 -0.000014999999999999999) translate(-106.80697457219556 6.602792136492756) translate(106.8125 -6.592499999999999) rotate(-30) translate(-106.8125 6.592499999999999)"
      fill="white" stroke="black" stroke-width="2"/>
    <circle 
      cx="106.80814026134762" cy="-12.60523660373056"
      r="15" transform="translate(106.80814026134762 -6.605236603730561) scale(0.000014999999999999999 -0.000014999999999999999) translate(-106.80814026134762 6.605236603730561) translate(106.8125 -6.592499999999999) rotate(-30) translate(-106.8125 6.592499999999999)"
      fill="white" stroke="black" stroke-width="2"/>
    <circle 
      cx="106.81335062844636" cy="-12.612301508271237"
      r="15" transform="translate(106.81335062844636 -6.612301508271237) scale(0.000014999999999999999 -0.000014999999999999999) translate(-106.81335062844636 6.612301508271237) translate(106.8125 -6.592499999999999) rotate(-30) translate(-106.8125 6.592499999999999)"
      fill="white" stroke="black" stroke-width="2"/>
    <circle 
      cx="106.81487251948575" cy="-12.615954046765767"
      r="15" transform="translate(106.81487251948575 -6.615954046765767) scale(0.000014999999999999999 -0.000014999999999999999) translate(-106.81487251948575 6.615954046765767) translate(106.8125 -6.592499999999999) rotate(-30) translate(-106.8125 6.592499999999999)"
      fill="white" stroke="black" stroke-width="2"/>
    <circle 
      cx="106.81554306633257" cy="-12.621308751757521"
      r="15" transform="translate(106.81554306633257 -6.621308751757521) scale(0.000014999999999999999 -0.000014999999999999999) translate(-106.81554306633257 6.621308751757521) translate(106.8125 -6.592499999999999) rotate(-30) translate(-106.8125 6.592499999999999)"
      fill="white" stroke="black" stroke-width="2"/>
    <circle 
      cx="106.81412138975752" cy="-12.616231335418066"
      r="15" transform="translate(106.81412138975752 -6.616231335418066) scale(0.000014999999999999999 -0.000014999999999999999) translate(-106.81412138975752 6.616231335418066) translate(106.8125 -6.592499999999999) rotate(-30) translate(-106.8125 6.592499999999999)"
      fill="white" stroke="black" stroke-width="2"/>
    <circle 
      cx="106.81264893076013" cy="-12.612697433824312"
      r="15" transform="translate(106.81264893076013 -6.612697433824312) scale(0.000014999999999999999 -0.000014999999999999999) translate(-106.81264893076013 6.612697433824312) translate(106.8125 -6.592499999999999) rotate(-30) translate(-106.8125 6.592499999999999)"
      fill="white" stroke="black" stroke-width="2"/>
    <circle 
      cx="106.80880620556763" cy="-12.607424857397401"
      r="15" transform="translate(106.80880620556763 -6.6074248573974) scale(0.000014999999999999999 -0.000014999999999999999) translate(-106.80880620556763 6.6074248573974) translate(106.8125 -6.592499999999999) rotate(-30) translate(-106.8125 6.592499999999999)"
      fill="white" stroke="black" stroke-width="2"/>
    <circle 
      cx="106.80369570646825" cy="-12.602646480412831"
      r="15" transform="translate(106.80369570646825 -6.602646480412831) scale(0.000014999999999999999 -0.000014999999999999999) translate(-106.80369570646825 6.602646480412831) translate(106.8125 -6.592499999999999) rotate(-30) translate(-106.8125 6.592499999999999)"
      fill="white" stroke="black" stroke-width="2"/>
    <circle 
      cx="106.80282999134987" cy="-12.60283067511887"
      r="15" transform="translate(106.80282999134987 -6.60283067511887) scale(0.000014999999999999999 -0.000014999999999999999) translate(-106.80282999134987 6.60283067511887) translate(106.8125 -6.592499999999999) rotate(-30) translate(-106.8125 6.592499999999999)"
      fill="white" stroke="black" stroke-width="2"/>
    <circle 
      cx="106.79619122691369" cy="-12.60626451879276"
      r="15" transform="translate(106.79619122691369 -6.6062645187927584) scale(0.000014999999999999999 -0.000014999999999999999) translate(-106.79619122691369 6.6062645187927584) translate(106.8125 -6.592499999999999) rotate(-30) translate(-106.8125 6.592499999999999)"
      fill="white" stroke="black" stroke-width="2"/>
    <circle 
      cx="106.79332897081676" cy="-12.604356348061486"
      r="15" transform="translate(106.79332897081676 -6.604356348061487) scale(0.000014999999999999999 -0.000014999999999999999) translate(-106.79332897081676 6.604356348061487) translate(106.8125 -6.592499999999999) rotate(-30) translate(-106.8125 6.592499999999999)"
      fill="white" stroke="black" stroke-width="2"/>
    <circle 
      cx="106.79072301465403" cy="-12.596864224093622"
      r="15" transform="translate(106.79072301465403 -6.596864224093622) scale(0.000014999999999999999 -0.000014999999999999999) translate(-106.79072301465403 6.596864224093622) translate(106.8125 -6.592499999999999) rotate(-30) translate(-106.8125 6.592499999999999)"
      fill="white" stroke="black" stroke-width="2"/>
    <circle 
      cx="106.79255665184161" cy="-12.591974524926759"
      r="15" transform="translate(106.79255665184161 -6.591974524926759) scale(0.000014999999999999999 -0.000014999999999999999) translate(-106.79255665184161 6.591974524926759) translate(106.8125 -6.592499999999999) rotate(-30) translate(-106.8125 6.592499999999999)"
      fill="white" stroke="black" stroke-width="2"/>
    <circle 
      cx="106.79672086577573" cy="-12.58966107274114"
      r="15" transform="translate(106.79672086577573 -6.58966107274114) scale(0.000014999999999999999 -0.000014999999999999999) translate(-106.79672086577573 6.58966107274114) translate(106.8125 -6.592499999999999) rotate(-30) translate(-106.8125 6.592499999999999)"
      fill="white" stroke="black" stroke-width="2"/>
    <circle 
      cx="106.80178382481897" cy="-12.589633582086496"
      r="15" transform="translate(106.80178382481897 -6.589633582086496) scale(0.000014999999999999999 -0.000014999999999999999) translate(-106.80178382481897 6.589633582086496) translate(106.8125 -6.592499999999999) rotate(-30) translate(-106.8125 6.592499999999999)"
      fill="white" stroke="black" stroke-width="2"/>
    <circle 
      cx="106.80388672926497" cy="-12.591234788122623"
      r="15" transform="translate(106.80388672926497 -6.591234788122622) scale(0.000014999999999999999 -0.000014999999999999999) translate(-106.80388672926497 6.591234788122622) translate(106.8125 -6.592499999999999) rotate(-30) translate(-106.8125 6.592499999999999)"
      fill="white" stroke="black" stroke-width="2"/>
    <circle 
      cx="106.80387704416334" cy="-12.591242194376806"
      r="15" transform="translate(106.80387704416334 -6.591242194376806) scale(0.000014999999999999999 -0.000014999999999999999) translate(-106.80387704416334 6.591242194376806) translate(106.8125 -6.592499999999999) rotate(-30) translate(-106.8125 6.592499999999999)"
      fill="white" stroke="black" stroke-width="2"/>
    <circle 
      cx="106.80915521543898" cy="-12.566602956014037"
      r="15" transform="translate(106.80915521543898 -6.566602956014037) scale(0.000014999999999999999 -0.000014999999999999999) translate(-106.80915521543898 6.566602956014037) translate(106.8125 -6.592499999999999) rotate(-30) translate(-106.8125 6.592499999999999)"
      fill="white" stroke="black" stroke-width="2"/>
    <circle 
      cx="106.80929605251384" cy="-12.56893954000279"
      r="15" transform="translate(106.80929605251384 -6.5689395400027895) scale(0.000014999999999999999 -0.000014999999999999999) translate(-106.80929605251384 6.5689395400027895) translate(106.8125 -6.592499999999999) rotate(-30) translate(-106.8125 6.592499999999999)"
      fill="white" stroke="black" stroke-width="2"/>
    <circle 
      cx="106.80748201245606" cy="-12.580969056440853"
      r="15" transform="translate(106.80748201245606 -6.5809690564408525) scale(0.000014999999999999999 -0.000014999999999999999) translate(-106.80748201245606 6.5809690564408525) translate(106.8125 -6.592499999999999) rotate(-30) translate(-106.8125 6.592499999999999)"
      fill="white" stroke="black" stroke-width="2"/>
    <circle 
      cx="106.80693485184833" cy="-12.586080226540885"
      r="15" transform="translate(106.80693485184833 -6.586080226540885) scale(0.000014999999999999999 -0.000014999999999999999) translate(-106.80693485184833 6.586080226540885) translate(106.8125 -6.592499999999999) rotate(-30) translate(-106.8125 6.592499999999999)"
      fill="white" stroke="none"/>
    <circle 
      cx="106.80613919480139" cy="-12.593368107876024"
      r="15" transform="translate(106.80613919480139 -6.5933681078760245) scale(0.000014999999999999999 -0.000014999999999999999) translate(-106.80613919480139 6.5933681078760245) translate(106.8125 -6.592499999999999) rotate(-30) translate(-106.8125 6.592499999999999)"
      fill="white" stroke="none"/>
    <circle 
      cx="106.80631376954194" cy="-12.590138475175536"
      r="15" transform="translate(106.80631376954194 -6.590138475175536) scale(0.000014999999999999999 -0.000014999999999999999) translate(-106.80631376954194 6.590138475175536) translate(106.8125 -6.592499999999999) rotate(-30) translate(-106.8125 6.592499999999999)"
      fill="white" stroke="none"/>
    <circle 
      cx="106.80904091031243" cy="-12.607183104991133"
      r="15" transform="translate(106.80904091031243 -6.607183104991132) scale(0.000014999999999999999 -0.000014999999999999999) translate(-106.80904091031243 6.607183104991132) translate(106.8125 -6.592499999999999) rotate(-30) translate(-106.8125 6.592499999999999)"
      fill="white" stroke="none"/>
    <circle 
      cx="106.80697457219556" cy="-12.602792136492756"
      r="15" transform="translate(106.80697457219556 -6.602792136492756) scale(0.000014999999999999999 -0.000014999999999999999) translate(-106.80697457219556 6.602792136492756) translate(106.8125 -6.592499999999999) rotate(-30) translate(-106.8125 6.592499999999999)"
      fill="white" stroke="none"/>
    <circle 
      cx="106.80814026134762" cy="-12.60523660373056"
      r="15" transform="translate(106.80814026134762 -6.605236603730561) scale(0.000014999999999999999 -0.000014999999999999999) translate(-106.80814026134762 6.605236603730561) translate(106.8125 -6.592499999999999) rotate(-30) translate(-106.8125 6.592499999999999)"
      fill="white" stroke="none"/>
    <circle 
      cx="106.81335062844636" cy="-12.612301508271237"
      r="15" transform="translate(106.81335062844636 -6.612301508271237) scale(0.000014999999999999999 -0.000014999999999999999) translate(-106.81335062844636 6.612301508271237) translate(106.8125 -6.592499999999999) rotate(-30) translate(-106.8125 6.592499999999999)"
      fill="white" stroke="none"/>
    <circle 
      cx="106.81487251948575" cy="-12.615954046765767"
      r="15" transform="translate(106.81487251948575 -6.615954046765767) scale(0.000014999999999999999 -0.000014999999999999999) translate(-106.81487251948575 6.615954046765767) translate(106.8125 -6.592499999999999) rotate(-30) translate(-106.8125 6.592499999999999)"
      fill="white" stroke="none"/>
    <circle 
      cx="106.81554306633257" cy="-12.621308751757521"
      r="15" transform="translate(106.81554306633257 -6.621308751757521) scale(0.000014999999999999999 -0.000014999999999999999) translate(-106.81554306633257 6.621308751757521) translate(106.8125 -6.592499999999999) rotate(-30) translate(-106.8125 6.592499999999999)"
      fill="white" stroke="none"/>
    <circle 
      cx="106.81412138975752" cy="-12.616231335418066"
      r="15" transform="translate(106.81412138975752 -6.616231335418066) scale(0.000014999999999999999 -0.000014999999999999999) translate(-106.81412138975752 6.616231335418066) translate(106.8125 -6.592499999999999) rotate(-30) translate(-106.8125 6.592499999999999)"
      fill="white" stroke="none"/>
    <circle 
      cx="106.81264893076013" cy="-12.612697433824312"
      r="15" transform="translate(106.81264893076013 -6.612697433824312) scale(0.000014999999999999999 -0.000014999999999999999) translate(-106.81264893076013 6.612697433824312) translate(106.8125 -6.592499999999999) rotate(-30) translate(-106.8125 6.592499999999999)"
      fill="white" stroke="none"/>
    <circle 
      cx="106.80880620556763" cy="-12.607424857397401"
      r="15" transform="translate(106.80880620556763 -6.6074248573974) scale(0.000014999999999999999 -0.000014999999999999999) translate(-106.80880620556763 6.6074248573974) translate(106.8125 -6.592499999999999) rotate(-30) translate(-106.8125 6.592499999999999)"
      fill="white" stroke="none"/>
    <circle 
      cx="106.80369570646825" cy="-12.602646480412831"
      r="15" transform="translate(106.80369570646825 -6.602646480412831) scale(0.000014999999999999999 -0.000014999999999999999) translate(-106.80369570646825 6.602646480412831) translate(106.8125 -6.592499999999999) rotate(-30) translate(-106.8125 6.592499999999999)"
      fill="white" stroke="none"/>
    <circle 
      cx="106.80282999134987" cy="-12.60283067511887"
      r="15" transform="translate(106.80282999134987 -6.60283067511887) scale(0.000014999999999999999 -0.000014999999999999999) translate(-106.80282999134987 6.60283067511887) translate(106.8125 -6.592499999999999) rotate(-30) translate(-106.8125 6.592499999999999)"
      fill="white" stroke="none"/>
    <circle 
      cx="106.79619122691369" cy="-12.60626451879276"
      r="15" transform="translate(106.79619122691369 -6.6062645187927584) scale(0.000014999999999999999 -0.000014999999999999999) translate(-106.79619122691369 6.6062645187927584) translate(106.8125 -6.592499999999999) rotate(-30) translate(-106.8125 6.592499999999999)"
      fill="white" stroke="none"/>
    <circle 
      cx="106.79332897081676" cy="-12.604356348061486"
      r="15" transform="translate(106.79332897081676 -6.604356348061487) scale(0.000014999999999999999 -0.000014999999999999999) translate(-106.79332897081676 6.604356348061487) translate(106.8125 -6.592499999999999) rotate(-30) translate(-106.8125 6.592499999999999)"
      fill="white" stroke="none"/>
    <circle 
      cx="106.79072301465403" cy="-12.596864224093622"
      r="15" transform="translate(106.79072301465403 -6.596864224093622) scale(0.000014999999999999999 -0.000014999999999999999) translate(-106.79072301465403 6.596864224093622) translate(106.8125 -6.592499999999999) rotate(-30) translate(-106.8125 6.592499999999999)"
      fill="white" stroke="none"/>
    <circle 
      cx="106.79255665184161" cy="-12.591974524926759"
      r="15" transform="translate(106.79255665184161 -6.591974524926759) scale(0.000014999999999999999 -0.000014999999999999999) translate(-106.79255665184161 6.591974524926759) translate(106.8125 -6.592499999999999) rotate(-30) translate(-106.8125 6.592499999999999)"
      fill="white" stroke="none"/>
    <circle 
      cx="106.79672086577573" cy="-12.58966107274114"
      r="15" transform="translate(106.79672086577573 -6.58966107274114) scale(0.000014999999999999999 -0.000014999999999999999) translate(-106.79672086577573 6.58966107274114) translate(106.8125 -6.592499999999999) rotate(-30) translate(-106.8125 6.592499999999999)"
      fill="white" stroke="none"/>
    <circle 
      cx="106.80178382481897" cy="-12.589633582086496"
      r="15" transform="translate(106.80178382481897 -6.589633582086496) scale(0.000014999999999999999 -0.000014999999999999999) translate(-106.80178382481897 6.589633582086496) translate(106.8125 -6.592499999999999) rotate(-30) translate(-106.8125 6.592499999999999)"
      fill="white" stroke="none"/>
    <circle 
      cx="106.80388672926497" cy="-12.591234788122623"
      r="15" transform="translate(106.80388672926497 -6.591234788122622) scale(0.000014999999999999999 -0.000014999999999999999) translate(-106.80388672926497 6.591234788122622) translate(106.8125 -6.592499999999999) rotate(-30) translate(-106.8125 6.592499999999999)"
      fill="white" stroke="none"/>
    <circle 
      cx="106.80387704416334" cy="-12.591242194376806"
      r="15" transform="translate(106.80387704416334 -6.591242194376806) scale(0.000014999999999999999 -0.000014999999999999999) translate(-106.80387704416334 6.591242194376806) translate(106.8125 -6.592499999999999) rotate(-30) translate(-106.8125 6.592499999999999)"
      fill="white" stroke="none"/>
    <circle 
      cx="106.80915521543898" cy="-12.566602956014037"
      r="15" transform="translate(106.80915521543898 -6.566602956014037) scale(0.000014999999999999999 -0.000014999999999999999) translate(-106.80915521543898 6.566602956014037) translate(106.8125 -6.592499999999999) rotate(-30) translate(-106.8125 6.592499999999999)"
      fill="white" stroke="none"/>
    <circle 
      cx="106.80929605251384" cy="-12.56893954000279"
      r="15" transform="translate(106.80929605251384 -6.5689395400027895) scale(0.000014999999999999999 -0.000014999999999999999) translate(-106.80929605251384 6.5689395400027895) translate(106.8125 -6.592499999999999) rotate(-30) translate(-106.8125 6.592499999999999)"
      fill="white" stroke="none"/>
    <circle 
      cx="106.80748201245606" cy="-12.580969056440853"
      r="15" transform="translate(106.80748201245606 -6.5809690564408525) scale(0.000014999999999999999 -0.000014999999999999999) translate(-106.80748201245606 6.5809690564408525) translate(106.8125 -6.592499999999999) rotate(-30) translate(-106.8125 6.592499999999999)"
      fill="white" stroke="none"/>
    <text x="106.80693485184833" y="-6.586080226540885" fill="black" text-anchor="middle" transform="translate(106.80693485184833 -6.586080226540885) scale(0.000014999999999999999 -0.000014999999999999999) translate(-106.80693485184833 6.586080226540885) translate(106.8125 -6.592499999999999) rotate(-30) translate(-106.8125 6.592499999999999)">09</text>
    <text x="106.80613919480139" y="-6.5933681078760245" fill="black" text-anchor="middle" transform="translate(106.80613919480139 -6.5933681078760245) scale(0.000014999999999999999 -0.000014999999999999999) translate(-106.80613919480139 6.5933681078760245) translate(106.8125 -6.592499999999999) rotate(-30) translate(-106.8125 6.592499999999999)">09</text>
    <text x="106.80631376954194" y="-6.590138475175536" fill="black" text-anchor="middle" transform="translate(106.80631376954194 -6.590138475175536) scale(0.000014999999999999999 -0.000014999999999999999) translate(-106.80631376954194 6.590138475175536) translate(106.8125 -6.592499999999999) rotate(-30) translate(-106.8125 6.592499999999999)">09</text>
    <text x="106.80904091031243" y="-6.607183104991132" fill="black" text-anchor="middle" transform="translate(106.80904091031243 -6.607183104991132) scale(0.000014999999999999999 -0.000014999999999999999) translate(-106.80904091031243 6.607183104991132) translate(106.8125 -6.592499999999999) rotate(-30) translate(-106.8125 6.592499999999999)">09</text>
    <text x="106.80697457219556" y="-6.602792136492756" fill="black" text-anchor="middle" transform="translate(106.80697457219556 -6.602792136492756) scale(0.000014999999999999999 -0.000014999999999999999) translate(-106.80697457219556 6.602792136492756) translate(106.8125 -6.592499999999999) rotate(-30) translate(-106.8125 6.592499999999999)">09</text>
    <text x="106.80814026134762" y="-6.605236603730561" fill="black" text-anchor="middle" transform="translate(106.80814026134762 -6.605236603730561) scale(0.000014999999999999999 -0.000014999999999999999) translate(-106.80814026134762 6.605236603730561) translate(106.8125 -6.592499999999999) rotate(-30) translate(-106.8125 6.592499999999999)">09</text>
    <text x="106.81335062844636" y="-6.612301508271237" fill="black" text-anchor="middle" transform="translate(106.81335062844636 -6.612301508271237) scale(0.000014999999999999999 -0.000014999999999999999) translate(-106.81335062844636 6.612301508271237) translate(106.8125 -6.592499999999999) rotate(-30) translate(-106.8125 6.592499999999999)">09</text>
    <text x="106.81487251948575" y="-6.615954046765767" fill="black" text-anchor="middle" transform="translate(106.81487251948575 -6.615954046765767) scale(0.000014999999999999999 -0.000014999999999999999) translate(-106.81487251948575 6.615954046765767) translate(106.8125 -6.592499999999999) rotate(-30) translate(-106.8125 6.592499999999999)">09</text>
    <text x="106.81554306633257" y="-6.621308751757521" fill="black" text-anchor="middle" transform="translate(106.81554306633257 -6.621308751757521) scale(0.000014999999999999999 -0.000014999999999999999) translate(-106.81554306633257 6.621308751757521) translate(106.8125 -6.592499999999999) rotate(-30) translate(-106.8125 6.592499999999999)">09</text>
    <text x="106.81412138975752" y="-6.616231335418066" fill="black" text-anchor="middle" transform="translate(106.81412138975752 -6.616231335418066) scale(0.000014999999999999999 -0.000014999999999999999) translate(-106.81412138975752 6.616231335418066) translate(106.8125 -6.592499999999999) rotate(-30) translate(-106.8125 6.592499999999999)">09</text>
    <text x="106.81264893076013" y="-6.612697433824312" fill="black" text-anchor="middle" transform="translate(106.81264893076013 -6.612697433824312) scale(0.000014999999999999999 -0.000014999999999999999) translate(-106.81264893076013 6.612697433824312) translate(106.8125 -6.592499999999999) rotate(-30) translate(-106.8125 6.592499999999999)">09</text>
    <text x="106.80880620556763" y="-6.6074248573974" fill="black" text-anchor="middle" transform="translate(106.80880620556763 -6.6074248573974) scale(0.000014999999999999999 -0.000014999999999999999) translate(-106.80880620556763 6.6074248573974) translate(106.8125 -6.592499999999999) rotate(-30) translate(-106.8125 6.592499999999999)">09</text>
    <text x="106.80369570646825" y="-6.602646480412831" fill="black" text-anchor="middle" transform="translate(106.80369570646825 -6.602646480412831) scale(0.000014999999999999999 -0.000014999999999999999) translate(-106.80369570646825 6.602646480412831) translate(106.8125 -6.592499999999999) rotate(-30) translate(-106.8125 6.592499999999999)">09</text>
    <text x="106.80282999134987" y="-6.60283067511887" fill="black" text-anchor="middle" transform="translate(106.80282999134987 -6.60283067511887) scale(0.000014999999999999999 -0.000014999999999999999) translate(-106.80282999134987 6.60283067511887) translate(106.8125 -6.592499999999999) rotate(-30) translate(-106.8125 6.592499999999999)">09</text>
    <text x="106.79619122691369" y="-6.6062645187927584" fill="black" text-anchor="middle" transform="translate(106.79619122691369 -6.6062645187927584) scale(0.000014999999999999999 -0.000014999999999999999) translate(-106.79619122691369 6.6062645187927584) translate(106.8125 -6.592499999999999) rotate(-30) translate(-106.8125 6.592499999999999)">09</text>
    <text x="106.79332897081676" y="-6.604356348061487" fill="black" text-anchor="middle" transform="translate(106.79332897081676 -6.604356348061487) scale(0.000014999999999999999 -0.000014999999999999999) translate(-106.79332897081676 6.604356348061487) translate(106.8125 -6.592499999999999) rotate(-30) translate(-106.8125 6.592499999999999)">09</text>
    <text x="106.79072301465403" y="-6.596864224093622" fill="black" text-anchor="middle" transform="translate(106.79072301465403 -6.596864224093622) scale(0.000014999999999999999 -0.000014999999999999999) translate(-106.79072301465403 6.596864224093622) translate(106.8125 -6.592499999999999) rotate(-30) translate(-106.8125 6.592499999999999)">09</text>
    <text x="106.79255665184161" y="-6.591974524926759" fill="black" text-anchor="middle" transform="translate(106.79255665184161 -6.591974524926759) scale(0.000014999999999999999 -0.000014999999999999999) translate(-106.79255665184161 6.591974524926759) translate(106.8125 -6.592499999999999) rotate(-30) translate(-106.8125 6.592499999999999)">09</text>
    <text x="106.79672086577573" y="-6.58966107274114" fill="black" text-anchor="middle" transform="translate(106.79672086577573 -6.58966107274114) scale(0.000014999999999999999 -0.000014999999999999999) translate(-106.79672086577573 6.58966107274114) translate(106.8125 -6.592499999999999) rotate(-30) translate(-106.8125 6.592499999999999)">09</text>
    <text x="106.80178382481897" y="-6.589633582086496" fill="black" text-anchor="middle" transform="translate(106.80178382481897 -6.589633582086496) scale(0.000014999999999999999 -0.000014999999999999999) translate(-106.80178382481897 6.589633582086496) translate(106.8125 -6.592499999999999) rotate(-30) translate(-106.8125 6.592499999999999)">09</text>
    <text x="106.80388672926497" y="-6.591234788122622" fill="black" text-anchor="middle" transform="translate(106.80388672926497 -6.591234788122622) scale(0.000014999999999999999 -0.000014999999999999999) translate(-106.80388672926497 6.591234788122622) translate(106.8125 -6.592499999999999) rotate(-30) translate(-106.8125 6.592499999999999)">09</text>
    <text x="106.80387704416334" y="-6.591242194376806" fill="black" text-anchor="middle" transform="translate(106.80387704416334 -6.591242194376806) scale(0.000014999999999999999 -0.000014999999999999999) translate(-106.80387704416334 6.591242194376806) translate(106.8125 -6.592499999999999) rotate(-30) translate(-106.8125 6.592499999999999)">09</text>
    <text x="106.80915521543898" y="-6.566602956014037" fill="black" text-anchor="middle" transform="translate(106.80915521543898 -6.566602956014037) scale(0.000014999999999999999 -0.000014999999999999999) translate(-106.80915521543898 6.566602956014037) translate(106.8125 -6.592499999999999) rotate(-30) translate(-106.8125 6.592499999999999)">09</text>
    <text x="106.80929605251384" y="-6.5689395400027895" fill="black" text-anchor="middle" transform="translate(106.80929605251384 -6.5689395400027895) scale(0.000014999999999999999 -0.000014999999999999999) translate(-106.80929605251384 6.5689395400027895) translate(106.8125 -6.592499999999999) rotate(-30) translate(-106.8125 6.592499999999999)">09</text>
    <text x="106.80748201245606" y="-6.5809690564408525" fill="black" text-anchor="middle" transform="translate(106.80748201245606 -6.5809690564408525) scale(0.000014999999999999999 -0.000014999999999999999) translate(-106.80748201245606 6.5809690564408525) translate(106.8125 -6.592499999999999) rotate(-30) translate(-106.8125 6.592499999999999)">09</text>
    <line x1="106.8067" y1="-6.5808" x2="106.8049" y2="-6.5886" style="stroke:rgb(255,0,0);stroke-width:.00002" />
    <line x1="106.8049" y1="-6.5886" x2="106.805904" y2="-6.588862" style="stroke:rgb(255,0,0);stroke-width:.00002" />
    <line x1="106.805904" y1="-6.588862" x2="106.805706" y2="-6.591276" style="stroke:rgb(255,0,0);stroke-width:.00002" />
    <line x1="106.805706" y1="-6.591276" x2="106.805701" y2="-6.592177" style="stroke:rgb(255,0,0);stroke-width:.00002" />
    <line x1="106.805701" y1="-6.592177" x2="106.8046" y2="-6.5922" style="stroke:rgb(255,0,0);stroke-width:.00002" />
    <line x1="106.8046" y1="-6.5922" x2="106.8044" y2="-6.5959" style="stroke:rgb(255,0,0);stroke-width:.00002" />
    <line x1="106.8044" y1="-6.5959" x2="106.8052" y2="-6.6009" style="stroke:rgb(255,0,0);stroke-width:.00002" />
    <line x1="106.8052" y1="-6.6009" x2="106.8068" y2="-6.6043" style="stroke:rgb(255,0,0);stroke-width:.00002" />
    <line x1="106.8068" y1="-6.6043" x2="106.8111" y2="-6.6017" style="stroke:rgb(255,0,0);stroke-width:.00002" />
    <line x1="106.8111" y1="-6.6017" x2="106.8071" y2="-6.6045" style="stroke:rgb(255,0,0);stroke-width:.00002" />
    <line x1="106.8071" y1="-6.6045" x2="106.813" y2="-6.6125" style="stroke:rgb(255,0,0);stroke-width:.00002" />
    <line x1="106.813" y1="-6.6125" x2="106.8145" y2="-6.6161" style="stroke:rgb(255,0,0);stroke-width:.00002" />
    <line x1="106.8145" y1="-6.6161" x2="106.8163" y2="-6.621" style="stroke:rgb(255,0,0);stroke-width:.00002" />
    <line x1="106.8163" y1="-6.621" x2="106.8164" y2="-6.6212" style="stroke:rgb(255,0,0);stroke-width:.00002" />
    <line x1="106.8164" y1="-6.6212" x2="106.8162" y2="-6.6214" style="stroke:rgb(255,0,0);stroke-width:.00002" />
    <line x1="106.8162" y1="-6.6214" x2="106.8159" y2="-6.6211" style="stroke:rgb(255,0,0);stroke-width:.00002" />
    <line x1="106.8159" y1="-6.6211" x2="106.8145" y2="-6.6161" style="stroke:rgb(255,0,0);stroke-width:.00002" />
    <line x1="106.8145" y1="-6.6161" x2="106.813" y2="-6.6125" style="stroke:rgb(255,0,0);stroke-width:.00002" />
    <line x1="106.813" y1="-6.6125" x2="106.8087" y2="-6.6066" style="stroke:rgb(255,0,0);stroke-width:.00002" />
    <line x1="106.8087" y1="-6.6066" x2="106.808" y2="-6.6069" style="stroke:rgb(255,0,0);stroke-width:.00002" />
    <line x1="106.808" y1="-6.6069" x2="106.8074" y2="-6.6065" style="stroke:rgb(255,0,0);stroke-width:.00002" />
    <line x1="106.8074" y1="-6.6065" x2="106.8067" y2="-6.6066" style="stroke:rgb(255,0,0);stroke-width:.00002" />
    <line x1="106.8067" y1="-6.6066" x2="106.8058" y2="-6.6052" style="stroke:rgb(255,0,0);stroke-width:.00002" />
    <line x1="106.8058" y1="-6.6052" x2="106.8051" y2="-6.6052" style="stroke:rgb(255,0,0);stroke-width:.00002" />
    <line x1="106.8051" y1="-6.6052" x2="106.8043" y2="-6.6017" style="stroke:rgb(255,0,0);stroke-width:.00002" />
    <line x1="106.8043" y1="-6.6017" x2="106.7996" y2="-6.6027" style="stroke:rgb(255,0,0);stroke-width:.00002" />
    <line x1="106.7996" y1="-6.6027" x2="106.7967" y2="-6.6042" style="stroke:rgb(255,0,0);stroke-width:.00002" />
    <line x1="106.7967" y1="-6.6042" x2="106.7961" y2="-6.6038" style="stroke:rgb(255,0,0);stroke-width:.00002" />
    <line x1="106.7961" y1="-6.6038" x2="106.7937" y2="-6.5969" style="stroke:rgb(255,0,0);stroke-width:.00002" />
    <line x1="106.7937" y1="-6.5969" x2="106.7946" y2="-6.5945" style="stroke:rgb(255,0,0);stroke-width:.00002" />
    <line x1="106.7946" y1="-6.5945" x2="106.7973" y2="-6.593" style="stroke:rgb(255,0,0);stroke-width:.00002" />
    <line x1="106.7973" y1="-6.593" x2="106.7984" y2="-6.5935" style="stroke:rgb(255,0,0);stroke-width:.00002" />
    <line x1="106.7984" y1="-6.5935" x2="106.800814" y2="-6.592262" style="stroke:rgb(255,0,0);stroke-width:.00002" />
    <line x1="106.800814" y1="-6.592262" x2="106.801806" y2="-6.592667" style="stroke:rgb(255,0,0);stroke-width:.00002" />
    <line x1="106.801806" y1="-6.592667" x2="106.8029" y2="-6.5935" style="stroke:rgb(255,0,0);stroke-width:.00002" />
    <line x1="106.8029" y1="-6.5935" x2="106.8046" y2="-6.5922" style="stroke:rgb(255,0,0);stroke-width:.00002" />
    <line x1="106.8046" y1="-6.5922" x2="106.8049" y2="-6.5886" style="stroke:rgb(255,0,0);stroke-width:.00002" />
    <line x1="106.8049" y1="-6.5886" x2="106.8067" y2="-6.5808" style="stroke:rgb(255,0,0);stroke-width:.00002" />
    <line x1="106.8067" y1="-6.5808" x2="106.8091" y2="-6.5689" style="stroke:rgb(255,0,0);stroke-width:.00002" />
    <line x1="106.8091" y1="-6.5689" x2="106.8067" y2="-6.5808" style="stroke:rgb(255,0,0);stroke-width:.00002" />
  </g>
</svg>
