<svg width="1049.9999999998977" height="1849.9999999999961" xmlns="http://www.w3.org/2000/svg" xmlns:xlink="http://www.w3.org/1999/xlink" >
  <g transform="translate(524.9999999999488 924.9999999999981) rotate(30) scale(10000 -10000) translate(-106.8125 6.592499999999999)">
    <path d="M106.76 -6.5 L106.865 -6.5 L106.865 -6.685 L106.76 -6.685 Z" fill="none" stroke="black" stroke-width="0.001" transform="translate(106.8125 -6.592499999999999) rotate(30) translate(-106.8125 6.592499999999999)" />
    <path d="M106.7973 -6.593 L106.7984 -6.5935 L106.800814 -6.592262 L106.801806 -6.592667 L106.8029 -6.5935 L106.8044 -6.5959 L106.8052 -6.6009 L106.8047 -6.6016 L106.7996 -6.6027 L106.804329 -6.601646 L106.7999 -6.6027 L106.7988 -6.6031 L106.7997 -6.6048 L106.8025 -6.6082 L106.8065 -6.6118 L106.8103 -6.6164 L106.8145 -6.6201 L106.8124 -6.6208 L106.8123 -6.6235 L106.8101 -6.6238 L106.8099 -6.6246 L106.8093 -6.625 L106.8091 -6.6248 L106.8091 -6.6251 L106.8099 -6.6254 L106.8101 -6.6259 L106.8095 -6.6258 L106.8093 -6.626 L106.8097 -6.6264 L106.8102 -6.6277 L106.8085 -6.628 L106.8084 -6.6286 L106.8077 -6.6283 L106.8073 -6.6287 L106.8032 -6.6271 L106.8014 -6.6234 L106.8005 -6.623 L106.8006 -6.622 L106.7989 -6.6214 L106.8006 -6.622 L106.8005 -6.623 L106.7992 -6.6235 L106.7986 -6.6226 L106.7979 -6.6231 L106.7968 -6.6213 L106.7965 -6.6198 L106.7971 -6.6178 L106.7992 -6.6182 L106.7998 -6.6179 L106.8014 -6.6155 L106.8034 -6.6142 L106.8021 -6.6123 L106.8 -6.6113 L106.7964 -6.6082 L106.7949 -6.6077 L106.7954 -6.606 L106.7965 -6.6046 L106.7961 -6.6038 L106.7937 -6.5969 L106.7897 -6.5959 L106.7884 -6.5955 L106.7876 -6.5956 L106.7866 -6.5932 L106.7878 -6.5931 L106.7877 -6.5903 L106.7906 -6.5906 L106.7895 -6.5958 L106.7915 -6.5963 L106.7924 -6.5928 L106.7939 -6.5927 L106.7939 -6.5932 L106.7936 -6.5938 L106.7946 -6.5945 Z" stroke="blue" stroke-width="0.0002" fill="none" />



    <line x1="106.7946" y1="-6.5945" x2="106.7973" y2="-6.593" style="stroke:rgb(255,0,0);stroke-width:.00002" />
    <line x1="106.7946" y1="-6.5945" x2="106.7973" y2="-6.593" style="stroke:rgb(0,0,0);stroke-width:.00002" />
    <circle cx="106.7946" cy="-6.5945" fill="rgb(255,0,0)" r=".0001" />
    <text x="106.7946" y="-6.5945" stroke="rgb(0,0,0)" transform="translate(106.7946 -6.5945),scale(0.00001 -0.00001),translate(-106.7946 6.5945),translate(106.8125 -6.592499999999999),rotate(-30),translate(-106.8125 6.592499999999999)" >kb-gedong-sawah</text>
    <line x1="106.7973" y1="-6.593" x2="106.7984" y2="-6.5935" style="stroke:rgb(255,0,0);stroke-width:.00002" />
    <line x1="106.7973" y1="-6.593" x2="106.7984" y2="-6.5935" style="stroke:rgb(0,0,0);stroke-width:.00002" />
    <circle cx="106.7973" cy="-6.593" fill="rgb(255,0,0)" r=".0001" />
    <text x="106.7973" y="-6.593" stroke="rgb(0,0,0)" transform="translate(106.7973 -6.593),scale(0.00001 -0.00001),translate(-106.7973 6.593),translate(106.8125 -6.592499999999999),rotate(-30),translate(-106.8125 6.592499999999999)" >kb-polisi-militer</text>
    <line x1="106.7984" y1="-6.5935" x2="106.800814" y2="-6.592262" style="stroke:rgb(255,0,0);stroke-width:.00002" />
    <line x1="106.7984" y1="-6.5935" x2="106.800814" y2="-6.592262" style="stroke:rgb(0,0,0);stroke-width:.00002" />
    <circle cx="106.7984" cy="-6.5935" fill="rgb(255,0,0)" r=".0001" />
    <text x="106.7984" y="-6.5935" stroke="rgb(0,0,0)" transform="translate(106.7984 -6.5935),scale(0.00001 -0.00001),translate(-106.7984 6.5935),translate(106.8125 -6.592499999999999),rotate(-30),translate(-106.8125 6.592499999999999)" >kb-jalak-harupat</text>
    <line x1="106.800814" y1="-6.592262" x2="106.801806" y2="-6.592667" style="stroke:rgb(255,0,0);stroke-width:.00002" />
    <line x1="106.800814" y1="-6.592262" x2="106.801806" y2="-6.592667" style="stroke:rgb(0,0,0);stroke-width:.00002" />
    <circle cx="106.800814" cy="-6.592262" fill="rgb(255,0,0)" r=".0001" />
    <text x="106.800814" y="-6.592262" stroke="rgb(0,0,0)" transform="translate(106.800814 -6.592262),scale(0.00001 -0.00001),translate(-106.800814 6.592262),translate(106.8125 -6.592499999999999),rotate(-30),translate(-106.8125 6.592499999999999)" >kb-sempur</text>
    <line x1="106.801806" y1="-6.592667" x2="106.8029" y2="-6.5935" style="stroke:rgb(255,0,0);stroke-width:.00002" />
    <line x1="106.801806" y1="-6.592667" x2="106.8029" y2="-6.5935" style="stroke:rgb(0,0,0);stroke-width:.00002" />
    <circle cx="106.801806" cy="-6.592667" fill="rgb(255,0,0)" r=".0001" />
    <text x="106.801806" y="-6.592667" stroke="rgb(0,0,0)" transform="translate(106.801806 -6.592667),scale(0.00001 -0.00001),translate(-106.801806 6.592667),translate(106.8125 -6.592499999999999),rotate(-30),translate(-106.8125 6.592499999999999)" >kb-salak</text>
    <line x1="106.8029" y1="-6.5935" x2="106.8044" y2="-6.5959" style="stroke:rgb(255,0,0);stroke-width:.00002" />
    <line x1="106.8029" y1="-6.5935" x2="106.8044" y2="-6.5959" style="stroke:rgb(0,0,0);stroke-width:.00002" />
    <circle cx="106.8029" cy="-6.5935" fill="rgb(255,0,0)" r=".0001" />
    <text x="106.8029" y="-6.5935" stroke="rgb(0,0,0)" transform="translate(106.8029 -6.5935),scale(0.00001 -0.00001),translate(-106.8029 6.5935),translate(106.8125 -6.592499999999999),rotate(-30),translate(-106.8125 6.592499999999999)" >kb-pangrango</text>
    <line x1="106.8044" y1="-6.5959" x2="106.8052" y2="-6.6009" style="stroke:rgb(255,0,0);stroke-width:.00002" />
    <line x1="106.8044" y1="-6.5959" x2="106.8052" y2="-6.6009" style="stroke:rgb(0,0,0);stroke-width:.00002" />
    <circle cx="106.8044" cy="-6.5959" fill="rgb(255,0,0)" r=".0001" />
    <text x="106.8044" y="-6.5959" stroke="rgb(0,0,0)" transform="translate(106.8044 -6.5959),scale(0.00001 -0.00001),translate(-106.8044 6.5959),translate(106.8125 -6.592499999999999),rotate(-30),translate(-106.8125 6.592499999999999)" >kb-astrid</text>
    <line x1="106.8052" y1="-6.6009" x2="106.8047" y2="-6.6016" style="stroke:rgb(255,0,0);stroke-width:.00002" />
    <line x1="106.8052" y1="-6.6009" x2="106.8047" y2="-6.6016" style="stroke:rgb(0,0,0);stroke-width:.00002" />
    <circle cx="106.8052" cy="-6.6009" fill="rgb(255,0,0)" r=".0001" />
    <text x="106.8052" y="-6.6009" stroke="rgb(0,0,0)" transform="translate(106.8052 -6.6009),scale(0.00001 -0.00001),translate(-106.8052 6.6009),translate(106.8125 -6.592499999999999),rotate(-30),translate(-106.8125 6.592499999999999)" >kb-botani-1</text>
    <line x1="106.8047" y1="-6.6016" x2="106.7996" y2="-6.6027" style="stroke:rgb(255,0,0);stroke-width:.00002" />
    <line x1="106.8047" y1="-6.6016" x2="106.7996" y2="-6.6027" style="stroke:rgb(0,0,0);stroke-width:.00002" />
    <circle cx="106.8047" cy="-6.6016" fill="rgb(255,0,0)" r=".0001" />
    <text x="106.8047" y="-6.6016" stroke="rgb(0,0,0)" transform="translate(106.8047 -6.6016),scale(0.00001 -0.00001),translate(-106.8047 6.6016),translate(106.8125 -6.592499999999999),rotate(-30),translate(-106.8125 6.592499999999999)" >kb-botani-2</text>
    <line x1="106.7996" y1="-6.6027" x2="106.804329" y2="-6.601646" style="stroke:rgb(255,0,0);stroke-width:.00002" />
    <line x1="106.7996" y1="-6.6027" x2="106.804329" y2="-6.601646" style="stroke:rgb(0,0,0);stroke-width:.00002" />
    <circle cx="106.7996" cy="-6.6027" fill="rgb(255,0,0)" r=".0001" />
    <text x="106.7996" y="-6.6027" stroke="rgb(0,0,0)" transform="translate(106.7996 -6.6027),scale(0.00001 -0.00001),translate(-106.7996 6.6027),translate(106.8125 -6.592499999999999),rotate(-30),translate(-106.8125 6.592499999999999)" >kb-otista</text>
    <line x1="106.804329" y1="-6.601646" x2="106.7999" y2="-6.6027" style="stroke:rgb(255,0,0);stroke-width:.00002" />
    <line x1="106.804329" y1="-6.601646" x2="106.7999" y2="-6.6027" style="stroke:rgb(0,0,0);stroke-width:.00002" />
    <circle cx="106.804329" cy="-6.601646" fill="rgb(255,0,0)" r=".0001" />
    <text x="106.804329" y="-6.601646" stroke="rgb(0,0,0)" transform="translate(106.804329 -6.601646),scale(0.00001 -0.00001),translate(-106.804329 6.601646),translate(106.8125 -6.592499999999999),rotate(-30),translate(-106.8125 6.592499999999999)" >bangka-otista</text>
    <line x1="106.7999" y1="-6.6027" x2="106.7988" y2="-6.6031" style="stroke:rgb(255,0,0);stroke-width:.00002" />
    <line x1="106.7999" y1="-6.6027" x2="106.7988" y2="-6.6031" style="stroke:rgb(0,0,0);stroke-width:.00002" />
    <circle cx="106.7999" cy="-6.6027" fill="rgb(255,0,0)" r=".0001" />
    <text x="106.7999" y="-6.6027" stroke="rgb(0,0,0)" transform="translate(106.7999 -6.6027),scale(0.00001 -0.00001),translate(-106.7999 6.6027),translate(106.8125 -6.592499999999999),rotate(-30),translate(-106.8125 6.592499999999999)" >otista-roda</text>
    <line x1="106.7988" y1="-6.6031" x2="106.7997" y2="-6.6048" style="stroke:rgb(255,0,0);stroke-width:.00002" />
    <line x1="106.7988" y1="-6.6031" x2="106.7997" y2="-6.6048" style="stroke:rgb(0,0,0);stroke-width:.00002" />
    <circle cx="106.7988" cy="-6.6031" fill="rgb(255,0,0)" r=".0001" />
    <text x="106.7988" y="-6.6031" stroke="rgb(0,0,0)" transform="translate(106.7988 -6.6031),scale(0.00001 -0.00001),translate(-106.7988 6.6031),translate(106.8125 -6.592499999999999),rotate(-30),translate(-106.8125 6.592499999999999)" >kb-suryakencana</text>
    <line x1="106.7997" y1="-6.6048" x2="106.8025" y2="-6.6082" style="stroke:rgb(255,0,0);stroke-width:.00002" />
    <line x1="106.7997" y1="-6.6048" x2="106.8025" y2="-6.6082" style="stroke:rgb(0,0,0);stroke-width:.00002" />
    <circle cx="106.7997" cy="-6.6048" fill="rgb(255,0,0)" r=".0001" />
    <text x="106.7997" y="-6.6048" stroke="rgb(0,0,0)" transform="translate(106.7997 -6.6048),scale(0.00001 -0.00001),translate(-106.7997 6.6048),translate(106.8125 -6.592499999999999),rotate(-30),translate(-106.8125 6.592499999999999)" >suryakencana-1</text>
    <line x1="106.8025" y1="-6.6082" x2="106.8065" y2="-6.6118" style="stroke:rgb(255,0,0);stroke-width:.00002" />
    <line x1="106.8025" y1="-6.6082" x2="106.8065" y2="-6.6118" style="stroke:rgb(0,0,0);stroke-width:.00002" />
    <circle cx="106.8025" cy="-6.6082" fill="rgb(255,0,0)" r=".0001" />
    <text x="106.8025" y="-6.6082" stroke="rgb(0,0,0)" transform="translate(106.8025 -6.6082),scale(0.00001 -0.00001),translate(-106.8025 6.6082),translate(106.8125 -6.592499999999999),rotate(-30),translate(-106.8125 6.592499999999999)" >suryakencana-2</text>
    <line x1="106.8065" y1="-6.6118" x2="106.8103" y2="-6.6164" style="stroke:rgb(255,0,0);stroke-width:.00002" />
    <line x1="106.8065" y1="-6.6118" x2="106.8103" y2="-6.6164" style="stroke:rgb(0,0,0);stroke-width:.00002" />
    <circle cx="106.8065" cy="-6.6118" fill="rgb(255,0,0)" r=".0001" />
    <text x="106.8065" y="-6.6118" stroke="rgb(0,0,0)" transform="translate(106.8065 -6.6118),scale(0.00001 -0.00001),translate(-106.8065 6.6118),translate(106.8125 -6.592499999999999),rotate(-30),translate(-106.8125 6.592499999999999)" >siliwangi-1</text>
    <line x1="106.8103" y1="-6.6164" x2="106.8145" y2="-6.6201" style="stroke:rgb(255,0,0);stroke-width:.00002" />
    <line x1="106.8103" y1="-6.6164" x2="106.8145" y2="-6.6201" style="stroke:rgb(0,0,0);stroke-width:.00002" />
    <circle cx="106.8103" cy="-6.6164" fill="rgb(255,0,0)" r=".0001" />
    <text x="106.8103" y="-6.6164" stroke="rgb(0,0,0)" transform="translate(106.8103 -6.6164),scale(0.00001 -0.00001),translate(-106.8103 6.6164),translate(106.8125 -6.592499999999999),rotate(-30),translate(-106.8125 6.592499999999999)" >siliwangi-2</text>
    <line x1="106.8145" y1="-6.6201" x2="106.8124" y2="-6.6208" style="stroke:rgb(255,0,0);stroke-width:.00002" />
    <line x1="106.8145" y1="-6.6201" x2="106.8124" y2="-6.6208" style="stroke:rgb(0,0,0);stroke-width:.00002" />
    <circle cx="106.8145" cy="-6.6201" fill="rgb(255,0,0)" r=".0001" />
    <text x="106.8145" y="-6.6201" stroke="rgb(0,0,0)" transform="translate(106.8145 -6.6201),scale(0.00001 -0.00001),translate(-106.8145 6.6201),translate(106.8125 -6.592499999999999),rotate(-30),translate(-106.8125 6.592499999999999)" >siliwangi-lawanggintung</text>
    <line x1="106.8124" y1="-6.6208" x2="106.8123" y2="-6.6235" style="stroke:rgb(255,0,0);stroke-width:.00002" />
    <line x1="106.8124" y1="-6.6208" x2="106.8123" y2="-6.6235" style="stroke:rgb(0,0,0);stroke-width:.00002" />
    <circle cx="106.8124" cy="-6.6208" fill="rgb(255,0,0)" r=".0001" />
    <text x="106.8124" y="-6.6208" stroke="rgb(0,0,0)" transform="translate(106.8124 -6.6208),scale(0.00001 -0.00001),translate(-106.8124 6.6208),translate(106.8125 -6.592499999999999),rotate(-30),translate(-106.8125 6.592499999999999)" >lawanggintung-1</text>
    <line x1="106.8123" y1="-6.6235" x2="106.8101" y2="-6.6238" style="stroke:rgb(255,0,0);stroke-width:.00002" />
    <line x1="106.8123" y1="-6.6235" x2="106.8101" y2="-6.6238" style="stroke:rgb(0,0,0);stroke-width:.00002" />
    <circle cx="106.8123" cy="-6.6235" fill="rgb(255,0,0)" r=".0001" />
    <text x="106.8123" y="-6.6235" stroke="rgb(0,0,0)" transform="translate(106.8123 -6.6235),scale(0.00001 -0.00001),translate(-106.8123 6.6235),translate(106.8125 -6.592499999999999),rotate(-30),translate(-106.8125 6.592499999999999)" >lawanggintung-2</text>
    <line x1="106.8101" y1="-6.6238" x2="106.8099" y2="-6.6246" style="stroke:rgb(255,0,0);stroke-width:.00002" />
    <line x1="106.8101" y1="-6.6238" x2="106.8099" y2="-6.6246" style="stroke:rgb(0,0,0);stroke-width:.00002" />
    <circle cx="106.8101" cy="-6.6238" fill="rgb(255,0,0)" r=".0001" />
    <text x="106.8101" y="-6.6238" stroke="rgb(0,0,0)" transform="translate(106.8101 -6.6238),scale(0.00001 -0.00001),translate(-106.8101 6.6238),translate(106.8125 -6.592499999999999),rotate(-30),translate(-106.8125 6.592499999999999)" >lawanggintung-3</text>
    <line x1="106.8099" y1="-6.6246" x2="106.8093" y2="-6.625" style="stroke:rgb(255,0,0);stroke-width:.00002" />
    <line x1="106.8099" y1="-6.6246" x2="106.8093" y2="-6.625" style="stroke:rgb(0,0,0);stroke-width:.00002" />
    <circle cx="106.8099" cy="-6.6246" fill="rgb(255,0,0)" r=".0001" />
    <text x="106.8099" y="-6.6246" stroke="rgb(0,0,0)" transform="translate(106.8099 -6.6246),scale(0.00001 -0.00001),translate(-106.8099 6.6246),translate(106.8125 -6.592499999999999),rotate(-30),translate(-106.8125 6.592499999999999)" >lawanggintung-4</text>
    <line x1="106.8093" y1="-6.625" x2="106.8091" y2="-6.6248" style="stroke:rgb(255,0,0);stroke-width:.00002" />
    <line x1="106.8093" y1="-6.625" x2="106.8091" y2="-6.6248" style="stroke:rgb(0,0,0);stroke-width:.00002" />
    <circle cx="106.8093" cy="-6.625" fill="rgb(255,0,0)" r=".0001" />
    <text x="106.8093" y="-6.625" stroke="rgb(0,0,0)" transform="translate(106.8093 -6.625),scale(0.00001 -0.00001),translate(-106.8093 6.625),translate(106.8125 -6.592499999999999),rotate(-30),translate(-106.8125 6.592499999999999)" >lawanggintung-5</text>
    <line x1="106.8091" y1="-6.6248" x2="106.8091" y2="-6.6251" style="stroke:rgb(255,0,0);stroke-width:.00002" />
    <line x1="106.8091" y1="-6.6248" x2="106.8091" y2="-6.6251" style="stroke:rgb(0,0,0);stroke-width:.00002" />
    <circle cx="106.8091" cy="-6.6248" fill="rgb(255,0,0)" r=".0001" />
    <text x="106.8091" y="-6.6248" stroke="rgb(0,0,0)" transform="translate(106.8091 -6.6248),scale(0.00001 -0.00001),translate(-106.8091 6.6248),translate(106.8125 -6.592499999999999),rotate(-30),translate(-106.8125 6.592499999999999)" >lawanggintung-cipaku</text>
    <line x1="106.8091" y1="-6.6251" x2="106.8099" y2="-6.6254" style="stroke:rgb(255,0,0);stroke-width:.00002" />
    <line x1="106.8091" y1="-6.6251" x2="106.8099" y2="-6.6254" style="stroke:rgb(0,0,0);stroke-width:.00002" />
    <circle cx="106.8091" cy="-6.6251" fill="rgb(255,0,0)" r=".0001" />
    <text x="106.8091" y="-6.6251" stroke="rgb(0,0,0)" transform="translate(106.8091 -6.6251),scale(0.00001 -0.00001),translate(-106.8091 6.6251),translate(106.8125 -6.592499999999999),rotate(-30),translate(-106.8125 6.592499999999999)" >cipaku-1</text>
    <line x1="106.8099" y1="-6.6254" x2="106.8101" y2="-6.6259" style="stroke:rgb(255,0,0);stroke-width:.00002" />
    <line x1="106.8099" y1="-6.6254" x2="106.8101" y2="-6.6259" style="stroke:rgb(0,0,0);stroke-width:.00002" />
    <circle cx="106.8099" cy="-6.6254" fill="rgb(255,0,0)" r=".0001" />
    <text x="106.8099" y="-6.6254" stroke="rgb(0,0,0)" transform="translate(106.8099 -6.6254),scale(0.00001 -0.00001),translate(-106.8099 6.6254),translate(106.8125 -6.592499999999999),rotate(-30),translate(-106.8125 6.592499999999999)" >cipaku-2</text>
    <line x1="106.8101" y1="-6.6259" x2="106.8095" y2="-6.6258" style="stroke:rgb(255,0,0);stroke-width:.00002" />
    <line x1="106.8101" y1="-6.6259" x2="106.8095" y2="-6.6258" style="stroke:rgb(0,0,0);stroke-width:.00002" />
    <circle cx="106.8101" cy="-6.6259" fill="rgb(255,0,0)" r=".0001" />
    <text x="106.8101" y="-6.6259" stroke="rgb(0,0,0)" transform="translate(106.8101 -6.6259),scale(0.00001 -0.00001),translate(-106.8101 6.6259),translate(106.8125 -6.592499999999999),rotate(-30),translate(-106.8125 6.592499999999999)" >cipaku-3</text>
    <line x1="106.8095" y1="-6.6258" x2="106.8093" y2="-6.626" style="stroke:rgb(255,0,0);stroke-width:.00002" />
    <line x1="106.8095" y1="-6.6258" x2="106.8093" y2="-6.626" style="stroke:rgb(0,0,0);stroke-width:.00002" />
    <circle cx="106.8095" cy="-6.6258" fill="rgb(255,0,0)" r=".0001" />
    <text x="106.8095" y="-6.6258" stroke="rgb(0,0,0)" transform="translate(106.8095 -6.6258),scale(0.00001 -0.00001),translate(-106.8095 6.6258),translate(106.8125 -6.592499999999999),rotate(-30),translate(-106.8125 6.592499999999999)" >cipaku-4</text>
    <line x1="106.8093" y1="-6.626" x2="106.8097" y2="-6.6264" style="stroke:rgb(255,0,0);stroke-width:.00002" />
    <line x1="106.8093" y1="-6.626" x2="106.8097" y2="-6.6264" style="stroke:rgb(0,0,0);stroke-width:.00002" />
    <circle cx="106.8093" cy="-6.626" fill="rgb(255,0,0)" r=".0001" />
    <text x="106.8093" y="-6.626" stroke="rgb(0,0,0)" transform="translate(106.8093 -6.626),scale(0.00001 -0.00001),translate(-106.8093 6.626),translate(106.8125 -6.592499999999999),rotate(-30),translate(-106.8125 6.592499999999999)" >cipaku-danasasmita</text>
    <line x1="106.8097" y1="-6.6264" x2="106.8102" y2="-6.6277" style="stroke:rgb(255,0,0);stroke-width:.00002" />
    <line x1="106.8097" y1="-6.6264" x2="106.8102" y2="-6.6277" style="stroke:rgb(0,0,0);stroke-width:.00002" />
    <circle cx="106.8097" cy="-6.6264" fill="rgb(255,0,0)" r=".0001" />
    <text x="106.8097" y="-6.6264" stroke="rgb(0,0,0)" transform="translate(106.8097 -6.6264),scale(0.00001 -0.00001),translate(-106.8097 6.6264),translate(106.8125 -6.592499999999999),rotate(-30),translate(-106.8125 6.592499999999999)" >danasasmita-1</text>
    <line x1="106.8102" y1="-6.6277" x2="106.8085" y2="-6.628" style="stroke:rgb(255,0,0);stroke-width:.00002" />
    <line x1="106.8102" y1="-6.6277" x2="106.8085" y2="-6.628" style="stroke:rgb(0,0,0);stroke-width:.00002" />
    <circle cx="106.8102" cy="-6.6277" fill="rgb(255,0,0)" r=".0001" />
    <text x="106.8102" y="-6.6277" stroke="rgb(0,0,0)" transform="translate(106.8102 -6.6277),scale(0.00001 -0.00001),translate(-106.8102 6.6277),translate(106.8125 -6.592499999999999),rotate(-30),translate(-106.8125 6.592499999999999)" >danasasmita-diredja</text>
    <line x1="106.8085" y1="-6.628" x2="106.8084" y2="-6.6286" style="stroke:rgb(255,0,0);stroke-width:.00002" />
    <line x1="106.8085" y1="-6.628" x2="106.8084" y2="-6.6286" style="stroke:rgb(0,0,0);stroke-width:.00002" />
    <circle cx="106.8085" cy="-6.628" fill="rgb(255,0,0)" r=".0001" />
    <text x="106.8085" y="-6.628" stroke="rgb(0,0,0)" transform="translate(106.8085 -6.628),scale(0.00001 -0.00001),translate(-106.8085 6.628),translate(106.8125 -6.592499999999999),rotate(-30),translate(-106.8125 6.592499999999999)" >diredja-1</text>
    <line x1="106.8084" y1="-6.6286" x2="106.8077" y2="-6.6283" style="stroke:rgb(255,0,0);stroke-width:.00002" />
    <line x1="106.8084" y1="-6.6286" x2="106.8077" y2="-6.6283" style="stroke:rgb(0,0,0);stroke-width:.00002" />
    <circle cx="106.8084" cy="-6.6286" fill="rgb(255,0,0)" r=".0001" />
    <text x="106.8084" y="-6.6286" stroke="rgb(0,0,0)" transform="translate(106.8084 -6.6286),scale(0.00001 -0.00001),translate(-106.8084 6.6286),translate(106.8125 -6.592499999999999),rotate(-30),translate(-106.8125 6.592499999999999)" >diredja-2</text>
    <line x1="106.8077" y1="-6.6283" x2="106.8073" y2="-6.6287" style="stroke:rgb(255,0,0);stroke-width:.00002" />
    <line x1="106.8077" y1="-6.6283" x2="106.8073" y2="-6.6287" style="stroke:rgb(0,0,0);stroke-width:.00002" />
    <circle cx="106.8077" cy="-6.6283" fill="rgb(255,0,0)" r=".0001" />
    <text x="106.8077" y="-6.6283" stroke="rgb(0,0,0)" transform="translate(106.8077 -6.6283),scale(0.00001 -0.00001),translate(-106.8077 6.6283),translate(106.8125 -6.592499999999999),rotate(-30),translate(-106.8125 6.592499999999999)" >diredja-3</text>
    <line x1="106.8073" y1="-6.6287" x2="106.8032" y2="-6.6271" style="stroke:rgb(255,0,0);stroke-width:.00002" />
    <line x1="106.8073" y1="-6.6287" x2="106.8032" y2="-6.6271" style="stroke:rgb(0,0,0);stroke-width:.00002" />
    <circle cx="106.8073" cy="-6.6287" fill="rgb(255,0,0)" r=".0001" />
    <text x="106.8073" y="-6.6287" stroke="rgb(0,0,0)" transform="translate(106.8073 -6.6287),scale(0.00001 -0.00001),translate(-106.8073 6.6287),translate(106.8125 -6.592499999999999),rotate(-30),translate(-106.8125 6.592499999999999)" >diredja-cipinanggading</text>
    <line x1="106.8032" y1="-6.6271" x2="106.8014" y2="-6.6234" style="stroke:rgb(255,0,0);stroke-width:.00002" />
    <line x1="106.8032" y1="-6.6271" x2="106.8014" y2="-6.6234" style="stroke:rgb(0,0,0);stroke-width:.00002" />
    <circle cx="106.8032" cy="-6.6271" fill="rgb(255,0,0)" r=".0001" />
    <text x="106.8032" y="-6.6271" stroke="rgb(0,0,0)" transform="translate(106.8032 -6.6271),scale(0.00001 -0.00001),translate(-106.8032 6.6271),translate(106.8125 -6.592499999999999),rotate(-30),translate(-106.8125 6.592499999999999)" >cipinanggading-1</text>
    <line x1="106.8014" y1="-6.6234" x2="106.8005" y2="-6.623" style="stroke:rgb(255,0,0);stroke-width:.00002" />
    <line x1="106.8014" y1="-6.6234" x2="106.8005" y2="-6.623" style="stroke:rgb(0,0,0);stroke-width:.00002" />
    <circle cx="106.8014" cy="-6.6234" fill="rgb(255,0,0)" r=".0001" />
    <text x="106.8014" y="-6.6234" stroke="rgb(0,0,0)" transform="translate(106.8014 -6.6234),scale(0.00001 -0.00001),translate(-106.8014 6.6234),translate(106.8125 -6.592499999999999),rotate(-30),translate(-106.8125 6.592499999999999)" >cipinanggading-2</text>
    <line x1="106.8005" y1="-6.623" x2="106.8006" y2="-6.622" style="stroke:rgb(255,0,0);stroke-width:.00002" />
    <line x1="106.8005" y1="-6.623" x2="106.8006" y2="-6.622" style="stroke:rgb(0,0,0);stroke-width:.00002" />
    <circle cx="106.8005" cy="-6.623" fill="rgb(255,0,0)" r=".0001" />
    <text x="106.8005" y="-6.623" stroke="rgb(0,0,0)" transform="translate(106.8005 -6.623),scale(0.00001 -0.00001),translate(-106.8005 6.623),translate(106.8125 -6.592499999999999),rotate(-30),translate(-106.8125 6.592499999999999)" >cipinanggading-ranggamekar</text>
    <line x1="106.8006" y1="-6.622" x2="106.7989" y2="-6.6214" style="stroke:rgb(255,0,0);stroke-width:.00002" />
    <line x1="106.8006" y1="-6.622" x2="106.7989" y2="-6.6214" style="stroke:rgb(0,0,0);stroke-width:.00002" />
    <circle cx="106.8006" cy="-6.622" fill="rgb(255,0,0)" r=".0001" />
    <text x="106.8006" y="-6.622" stroke="rgb(0,0,0)" transform="translate(106.8006 -6.622),scale(0.00001 -0.00001),translate(-106.8006 6.622),translate(106.8125 -6.592499999999999),rotate(-30),translate(-106.8125 6.592499999999999)" >ranggamekar-1</text>
    <line x1="106.7989" y1="-6.6214" x2="106.8006" y2="-6.622" style="stroke:rgb(255,0,0);stroke-width:.00002" />
    <line x1="106.7989" y1="-6.6214" x2="106.8006" y2="-6.622" style="stroke:rgb(0,0,0);stroke-width:.00002" />
    <circle cx="106.7989" cy="-6.6214" fill="rgb(255,0,0)" r=".0001" />
    <text x="106.7989" y="-6.6214" stroke="rgb(0,0,0)" transform="translate(106.7989 -6.6214),scale(0.00001 -0.00001),translate(-106.7989 6.6214),translate(106.8125 -6.592499999999999),rotate(-30),translate(-106.8125 6.592499999999999)" >ranggamekar-2</text>
    <line x1="106.8006" y1="-6.622" x2="106.8005" y2="-6.623" style="stroke:rgb(255,0,0);stroke-width:.00002" />
    <line x1="106.8006" y1="-6.622" x2="106.8005" y2="-6.623" style="stroke:rgb(0,0,0);stroke-width:.00002" />
    <circle cx="106.8006" cy="-6.622" fill="rgb(255,0,0)" r=".0001" />
    <text x="106.8006" y="-6.622" stroke="rgb(0,0,0)" transform="translate(106.8006 -6.622),scale(0.00001 -0.00001),translate(-106.8006 6.622),translate(106.8125 -6.592499999999999),rotate(-30),translate(-106.8125 6.592499999999999)" >ranggamekar-1</text>
    <line x1="106.8005" y1="-6.623" x2="106.7992" y2="-6.6235" style="stroke:rgb(255,0,0);stroke-width:.00002" />
    <line x1="106.8005" y1="-6.623" x2="106.7992" y2="-6.6235" style="stroke:rgb(0,0,0);stroke-width:.00002" />
    <circle cx="106.8005" cy="-6.623" fill="rgb(255,0,0)" r=".0001" />
    <text x="106.8005" y="-6.623" stroke="rgb(0,0,0)" transform="translate(106.8005 -6.623),scale(0.00001 -0.00001),translate(-106.8005 6.623),translate(106.8125 -6.592499999999999),rotate(-30),translate(-106.8125 6.592499999999999)" >cipinanggading-ranggamekar</text>
    <line x1="106.7992" y1="-6.6235" x2="106.7986" y2="-6.6226" style="stroke:rgb(255,0,0);stroke-width:.00002" />
    <line x1="106.7992" y1="-6.6235" x2="106.7986" y2="-6.6226" style="stroke:rgb(0,0,0);stroke-width:.00002" />
    <circle cx="106.7992" cy="-6.6235" fill="rgb(255,0,0)" r=".0001" />
    <text x="106.7992" y="-6.6235" stroke="rgb(0,0,0)" transform="translate(106.7992 -6.6235),scale(0.00001 -0.00001),translate(-106.7992 6.6235),translate(106.8125 -6.592499999999999),rotate(-30),translate(-106.8125 6.592499999999999)" >cipinanggading-nirwana</text>
    <line x1="106.7986" y1="-6.6226" x2="106.7979" y2="-6.6231" style="stroke:rgb(255,0,0);stroke-width:.00002" />
    <line x1="106.7986" y1="-6.6226" x2="106.7979" y2="-6.6231" style="stroke:rgb(0,0,0);stroke-width:.00002" />
    <circle cx="106.7986" cy="-6.6226" fill="rgb(255,0,0)" r=".0001" />
    <text x="106.7986" y="-6.6226" stroke="rgb(0,0,0)" transform="translate(106.7986 -6.6226),scale(0.00001 -0.00001),translate(-106.7986 6.6226),translate(106.8125 -6.592499999999999),rotate(-30),translate(-106.8125 6.592499999999999)" >nirwana-1</text>
    <line x1="106.7979" y1="-6.6231" x2="106.7968" y2="-6.6213" style="stroke:rgb(255,0,0);stroke-width:.00002" />
    <line x1="106.7979" y1="-6.6231" x2="106.7968" y2="-6.6213" style="stroke:rgb(0,0,0);stroke-width:.00002" />
    <circle cx="106.7979" cy="-6.6231" fill="rgb(255,0,0)" r=".0001" />
    <text x="106.7979" y="-6.6231" stroke="rgb(0,0,0)" transform="translate(106.7979 -6.6231),scale(0.00001 -0.00001),translate(-106.7979 6.6231),translate(106.8125 -6.592499999999999),rotate(-30),translate(-106.8125 6.592499999999999)" >nirwana-2</text>
    <line x1="106.7968" y1="-6.6213" x2="106.7965" y2="-6.6198" style="stroke:rgb(255,0,0);stroke-width:.00002" />
    <line x1="106.7968" y1="-6.6213" x2="106.7965" y2="-6.6198" style="stroke:rgb(0,0,0);stroke-width:.00002" />
    <circle cx="106.7968" cy="-6.6213" fill="rgb(255,0,0)" r=".0001" />
    <text x="106.7968" y="-6.6213" stroke="rgb(0,0,0)" transform="translate(106.7968 -6.6213),scale(0.00001 -0.00001),translate(-106.7968 6.6213),translate(106.8125 -6.592499999999999),rotate(-30),translate(-106.8125 6.592499999999999)" >nirwana-3</text>
    <line x1="106.7965" y1="-6.6198" x2="106.7971" y2="-6.6178" style="stroke:rgb(255,0,0);stroke-width:.00002" />
    <line x1="106.7965" y1="-6.6198" x2="106.7971" y2="-6.6178" style="stroke:rgb(0,0,0);stroke-width:.00002" />
    <circle cx="106.7965" cy="-6.6198" fill="rgb(255,0,0)" r=".0001" />
    <text x="106.7965" y="-6.6198" stroke="rgb(0,0,0)" transform="translate(106.7965 -6.6198),scale(0.00001 -0.00001),translate(-106.7965 6.6198),translate(106.8125 -6.592499999999999),rotate(-30),translate(-106.8125 6.592499999999999)" >nirwana-4</text>
    <line x1="106.7971" y1="-6.6178" x2="106.7992" y2="-6.6182" style="stroke:rgb(255,0,0);stroke-width:.00002" />
    <line x1="106.7971" y1="-6.6178" x2="106.7992" y2="-6.6182" style="stroke:rgb(0,0,0);stroke-width:.00002" />
    <circle cx="106.7971" cy="-6.6178" fill="rgb(255,0,0)" r=".0001" />
    <text x="106.7971" y="-6.6178" stroke="rgb(0,0,0)" transform="translate(106.7971 -6.6178),scale(0.00001 -0.00001),translate(-106.7971 6.6178),translate(106.8125 -6.592499999999999),rotate(-30),translate(-106.8125 6.592499999999999)" >nirwana-5</text>
    <line x1="106.7992" y1="-6.6182" x2="106.7998" y2="-6.6179" style="stroke:rgb(255,0,0);stroke-width:.00002" />
    <line x1="106.7992" y1="-6.6182" x2="106.7998" y2="-6.6179" style="stroke:rgb(0,0,0);stroke-width:.00002" />
    <circle cx="106.7992" cy="-6.6182" fill="rgb(255,0,0)" r=".0001" />
    <text x="106.7992" y="-6.6182" stroke="rgb(0,0,0)" transform="translate(106.7992 -6.6182),scale(0.00001 -0.00001),translate(-106.7992 6.6182),translate(106.8125 -6.592499999999999),rotate(-30),translate(-106.8125 6.592499999999999)" >nirwana-6</text>
    <line x1="106.7998" y1="-6.6179" x2="106.8014" y2="-6.6155" style="stroke:rgb(255,0,0);stroke-width:.00002" />
    <line x1="106.7998" y1="-6.6179" x2="106.8014" y2="-6.6155" style="stroke:rgb(0,0,0);stroke-width:.00002" />
    <circle cx="106.7998" cy="-6.6179" fill="rgb(255,0,0)" r=".0001" />
    <text x="106.7998" y="-6.6179" stroke="rgb(0,0,0)" transform="translate(106.7998 -6.6179),scale(0.00001 -0.00001),translate(-106.7998 6.6179),translate(106.8125 -6.592499999999999),rotate(-30),translate(-106.8125 6.592499999999999)" >nirwana-dreded</text>
    <line x1="106.8014" y1="-6.6155" x2="106.8034" y2="-6.6142" style="stroke:rgb(255,0,0);stroke-width:.00002" />
    <line x1="106.8014" y1="-6.6155" x2="106.8034" y2="-6.6142" style="stroke:rgb(0,0,0);stroke-width:.00002" />
    <circle cx="106.8014" cy="-6.6155" fill="rgb(255,0,0)" r=".0001" />
    <text x="106.8014" y="-6.6155" stroke="rgb(0,0,0)" transform="translate(106.8014 -6.6155),scale(0.00001 -0.00001),translate(-106.8014 6.6155),translate(106.8125 -6.592499999999999),rotate(-30),translate(-106.8125 6.592499999999999)" >dreded-1</text>
    <line x1="106.8034" y1="-6.6142" x2="106.8021" y2="-6.6123" style="stroke:rgb(255,0,0);stroke-width:.00002" />
    <line x1="106.8034" y1="-6.6142" x2="106.8021" y2="-6.6123" style="stroke:rgb(0,0,0);stroke-width:.00002" />
    <circle cx="106.8034" cy="-6.6142" fill="rgb(255,0,0)" r=".0001" />
    <text x="106.8034" y="-6.6142" stroke="rgb(0,0,0)" transform="translate(106.8034 -6.6142),scale(0.00001 -0.00001),translate(-106.8034 6.6142),translate(106.8125 -6.592499999999999),rotate(-30),translate(-106.8125 6.592499999999999)" >dreded-pahlawan</text>
    <line x1="106.8021" y1="-6.6123" x2="106.8" y2="-6.6113" style="stroke:rgb(255,0,0);stroke-width:.00002" />
    <line x1="106.8021" y1="-6.6123" x2="106.8" y2="-6.6113" style="stroke:rgb(0,0,0);stroke-width:.00002" />
    <circle cx="106.8021" cy="-6.6123" fill="rgb(255,0,0)" r=".0001" />
    <text x="106.8021" y="-6.6123" stroke="rgb(0,0,0)" transform="translate(106.8021 -6.6123),scale(0.00001 -0.00001),translate(-106.8021 6.6123),translate(106.8125 -6.592499999999999),rotate(-30),translate(-106.8125 6.592499999999999)" >pahlawan-ggaut</text>
    <line x1="106.8" y1="-6.6113" x2="106.7964" y2="-6.6082" style="stroke:rgb(255,0,0);stroke-width:.00002" />
    <line x1="106.8" y1="-6.6113" x2="106.7964" y2="-6.6082" style="stroke:rgb(0,0,0);stroke-width:.00002" />
    <circle cx="106.8" cy="-6.6113" fill="rgb(255,0,0)" r=".0001" />
    <text x="106.8" y="-6.6113" stroke="rgb(0,0,0)" transform="translate(106.8 -6.6113),scale(0.00001 -0.00001),translate(-106.8 6.6113),translate(106.8125 -6.592499999999999),rotate(-30),translate(-106.8125 6.592499999999999)" >pahlawan-3</text>
    <line x1="106.7964" y1="-6.6082" x2="106.7949" y2="-6.6077" style="stroke:rgb(255,0,0);stroke-width:.00002" />
    <line x1="106.7964" y1="-6.6082" x2="106.7949" y2="-6.6077" style="stroke:rgb(0,0,0);stroke-width:.00002" />
    <circle cx="106.7964" cy="-6.6082" fill="rgb(255,0,0)" r=".0001" />
    <text x="106.7964" y="-6.6082" stroke="rgb(0,0,0)" transform="translate(106.7964 -6.6082),scale(0.00001 -0.00001),translate(-106.7964 6.6082),translate(106.8125 -6.592499999999999),rotate(-30),translate(-106.8125 6.592499999999999)" >pahlawan-4</text>
    <line x1="106.7949" y1="-6.6077" x2="106.7954" y2="-6.606" style="stroke:rgb(255,0,0);stroke-width:.00002" />
    <line x1="106.7949" y1="-6.6077" x2="106.7954" y2="-6.606" style="stroke:rgb(0,0,0);stroke-width:.00002" />
    <circle cx="106.7949" cy="-6.6077" fill="rgb(255,0,0)" r=".0001" />
    <text x="106.7949" y="-6.6077" stroke="rgb(0,0,0)" transform="translate(106.7949 -6.6077),scale(0.00001 -0.00001),translate(-106.7949 6.6077),translate(106.8125 -6.592499999999999),rotate(-30),translate(-106.8125 6.592499999999999)" >pahlawan-empang</text>
    <line x1="106.7954" y1="-6.606" x2="106.7965" y2="-6.6046" style="stroke:rgb(255,0,0);stroke-width:.00002" />
    <line x1="106.7954" y1="-6.606" x2="106.7965" y2="-6.6046" style="stroke:rgb(0,0,0);stroke-width:.00002" />
    <circle cx="106.7954" cy="-6.606" fill="rgb(255,0,0)" r=".0001" />
    <text x="106.7954" y="-6.606" stroke="rgb(0,0,0)" transform="translate(106.7954 -6.606),scale(0.00001 -0.00001),translate(-106.7954 6.606),translate(106.8125 -6.592499999999999),rotate(-30),translate(-106.8125 6.592499999999999)" >halte-empang</text>
    <line x1="106.7965" y1="-6.6046" x2="106.7961" y2="-6.6038" style="stroke:rgb(255,0,0);stroke-width:.00002" />
    <line x1="106.7965" y1="-6.6046" x2="106.7961" y2="-6.6038" style="stroke:rgb(0,0,0);stroke-width:.00002" />
    <circle cx="106.7965" cy="-6.6046" fill="rgb(255,0,0)" r=".0001" />
    <text x="106.7965" y="-6.6046" stroke="rgb(0,0,0)" transform="translate(106.7965 -6.6046),scale(0.00001 -0.00001),translate(-106.7965 6.6046),translate(106.8125 -6.592499999999999),rotate(-30),translate(-106.8125 6.592499999999999)" >btm-3</text>
    <line x1="106.7961" y1="-6.6038" x2="106.7937" y2="-6.5969" style="stroke:rgb(255,0,0);stroke-width:.00002" />
    <line x1="106.7961" y1="-6.6038" x2="106.7937" y2="-6.5969" style="stroke:rgb(0,0,0);stroke-width:.00002" />
    <circle cx="106.7961" cy="-6.6038" fill="rgb(255,0,0)" r=".0001" />
    <text x="106.7961" y="-6.6038" stroke="rgb(0,0,0)" transform="translate(106.7961 -6.6038),scale(0.00001 -0.00001),translate(-106.7961 6.6038),translate(106.8125 -6.592499999999999),rotate(-30),translate(-106.8125 6.592499999999999)" >kb-btm-2</text>
    <line x1="106.7937" y1="-6.5969" x2="106.7897" y2="-6.5959" style="stroke:rgb(255,0,0);stroke-width:.00002" />
    <line x1="106.7937" y1="-6.5969" x2="106.7897" y2="-6.5959" style="stroke:rgb(0,0,0);stroke-width:.00002" />
    <circle cx="106.7937" cy="-6.5969" fill="rgb(255,0,0)" r=".0001" />
    <text x="106.7937" y="-6.5969" stroke="rgb(0,0,0)" transform="translate(106.7937 -6.5969),scale(0.00001 -0.00001),translate(-106.7937 6.5969),translate(106.8125 -6.592499999999999),rotate(-30),translate(-106.8125 6.592499999999999)" >kb-muslihat</text>
    <line x1="106.7897" y1="-6.5959" x2="106.7884" y2="-6.5955" style="stroke:rgb(255,0,0);stroke-width:.00002" />
    <line x1="106.7897" y1="-6.5959" x2="106.7884" y2="-6.5955" style="stroke:rgb(0,0,0);stroke-width:.00002" />
    <circle cx="106.7897" cy="-6.5959" fill="rgb(255,0,0)" r=".0001" />
    <text x="106.7897" y="-6.5959" stroke="rgb(0,0,0)" transform="translate(106.7897 -6.5959),scale(0.00001 -0.00001),translate(-106.7897 6.5959),translate(106.8125 -6.592499999999999),rotate(-30),translate(-106.8125 6.592499999999999)" >stasiun-paledang</text>
    <line x1="106.7884" y1="-6.5955" x2="106.7876" y2="-6.5956" style="stroke:rgb(255,0,0);stroke-width:.00002" />
    <line x1="106.7884" y1="-6.5955" x2="106.7876" y2="-6.5956" style="stroke:rgb(0,0,0);stroke-width:.00002" />
    <circle cx="106.7884" cy="-6.5955" fill="rgb(255,0,0)" r=".0001" />
    <text x="106.7884" y="-6.5955" stroke="rgb(0,0,0)" transform="translate(106.7884 -6.5955),scale(0.00001 -0.00001),translate(-106.7884 6.5955),translate(106.8125 -6.592499999999999),rotate(-30),translate(-106.8125 6.592499999999999)" >veteran-merdeka</text>
    <line x1="106.7876" y1="-6.5956" x2="106.7866" y2="-6.5932" style="stroke:rgb(255,0,0);stroke-width:.00002" />
    <line x1="106.7876" y1="-6.5956" x2="106.7866" y2="-6.5932" style="stroke:rgb(0,0,0);stroke-width:.00002" />
    <circle cx="106.7876" cy="-6.5956" fill="rgb(255,0,0)" r=".0001" />
    <text x="106.7876" y="-6.5956" stroke="rgb(0,0,0)" transform="translate(106.7876 -6.5956),scale(0.00001 -0.00001),translate(-106.7876 6.5956),translate(106.8125 -6.592499999999999),rotate(-30),translate(-106.8125 6.592499999999999)" >veteran-kemerdekaan</text>
    <line x1="106.7866" y1="-6.5932" x2="106.7878" y2="-6.5931" style="stroke:rgb(255,0,0);stroke-width:.00002" />
    <line x1="106.7866" y1="-6.5932" x2="106.7878" y2="-6.5931" style="stroke:rgb(0,0,0);stroke-width:.00002" />
    <circle cx="106.7866" cy="-6.5932" fill="rgb(255,0,0)" r=".0001" />
    <text x="106.7866" y="-6.5932" stroke="rgb(0,0,0)" transform="translate(106.7866 -6.5932),scale(0.00001 -0.00001),translate(-106.7866 6.5932),translate(106.8125 -6.592499999999999),rotate(-30),translate(-106.8125 6.592499999999999)" >kemerdekaan</text>
    <line x1="106.7878" y1="-6.5931" x2="106.7877" y2="-6.5903" style="stroke:rgb(255,0,0);stroke-width:.00002" />
    <line x1="106.7878" y1="-6.5931" x2="106.7877" y2="-6.5903" style="stroke:rgb(0,0,0);stroke-width:.00002" />
    <circle cx="106.7878" cy="-6.5931" fill="rgb(255,0,0)" r=".0001" />
    <text x="106.7878" y="-6.5931" stroke="rgb(0,0,0)" transform="translate(106.7878 -6.5931),scale(0.00001 -0.00001),translate(-106.7878 6.5931),translate(106.8125 -6.592499999999999),rotate(-30),translate(-106.8125 6.592499999999999)" >merdeka</text>
    <line x1="106.7877" y1="-6.5903" x2="106.7906" y2="-6.5906" style="stroke:rgb(255,0,0);stroke-width:.00002" />
    <line x1="106.7877" y1="-6.5903" x2="106.7906" y2="-6.5906" style="stroke:rgb(0,0,0);stroke-width:.00002" />
    <circle cx="106.7877" cy="-6.5903" fill="rgb(255,0,0)" r=".0001" />
    <text x="106.7877" y="-6.5903" stroke="rgb(0,0,0)" transform="translate(106.7877 -6.5903),scale(0.00001 -0.00001),translate(-106.7877 6.5903),translate(106.8125 -6.592499999999999),rotate(-30),translate(-106.8125 6.592499999999999)" >merdeka-salamun</text>
    <line x1="106.7906" y1="-6.5906" x2="106.7895" y2="-6.5958" style="stroke:rgb(255,0,0);stroke-width:.00002" />
    <line x1="106.7906" y1="-6.5906" x2="106.7895" y2="-6.5958" style="stroke:rgb(0,0,0);stroke-width:.00002" />
    <circle cx="106.7906" cy="-6.5906" fill="rgb(255,0,0)" r=".0001" />
    <text x="106.7906" y="-6.5906" stroke="rgb(0,0,0)" transform="translate(106.7906 -6.5906),scale(0.00001 -0.00001),translate(-106.7906 6.5906),translate(106.8125 -6.592499999999999),rotate(-30),translate(-106.8125 6.592499999999999)" >salamun-oking</text>
    <line x1="106.7895" y1="-6.5958" x2="106.7915" y2="-6.5963" style="stroke:rgb(255,0,0);stroke-width:.00002" />
    <line x1="106.7895" y1="-6.5958" x2="106.7915" y2="-6.5963" style="stroke:rgb(0,0,0);stroke-width:.00002" />
    <circle cx="106.7895" cy="-6.5958" fill="rgb(255,0,0)" r=".0001" />
    <text x="106.7895" y="-6.5958" stroke="rgb(0,0,0)" transform="translate(106.7895 -6.5958),scale(0.00001 -0.00001),translate(-106.7895 6.5958),translate(106.8125 -6.592499999999999),rotate(-30),translate(-106.8125 6.592499999999999)" >muslihat-oking</text>
    <line x1="106.7915" y1="-6.5963" x2="106.7924" y2="-6.5928" style="stroke:rgb(255,0,0);stroke-width:.00002" />
    <line x1="106.7915" y1="-6.5963" x2="106.7924" y2="-6.5928" style="stroke:rgb(0,0,0);stroke-width:.00002" />
    <circle cx="106.7915" cy="-6.5963" fill="rgb(255,0,0)" r=".0001" />
    <text x="106.7915" y="-6.5963" stroke="rgb(0,0,0)" transform="translate(106.7915 -6.5963),scale(0.00001 -0.00001),translate(-106.7915 6.5963),translate(106.8125 -6.592499999999999),rotate(-30),translate(-106.8125 6.592499999999999)" >muslihat-dewisartika</text>
    <line x1="106.7924" y1="-6.5928" x2="106.7939" y2="-6.5927" style="stroke:rgb(255,0,0);stroke-width:.00002" />
    <line x1="106.7924" y1="-6.5928" x2="106.7939" y2="-6.5927" style="stroke:rgb(0,0,0);stroke-width:.00002" />
    <circle cx="106.7924" cy="-6.5928" fill="rgb(255,0,0)" r=".0001" />
    <text x="106.7924" y="-6.5928" stroke="rgb(0,0,0)" transform="translate(106.7924 -6.5928),scale(0.00001 -0.00001),translate(-106.7924 6.5928),translate(106.8125 -6.592499999999999),rotate(-30),translate(-106.8125 6.592499999999999)" >dewisartika-mekah</text>
    <line x1="106.7939" y1="-6.5927" x2="106.7939" y2="-6.5932" style="stroke:rgb(255,0,0);stroke-width:.00002" />
    <line x1="106.7939" y1="-6.5927" x2="106.7939" y2="-6.5932" style="stroke:rgb(0,0,0);stroke-width:.00002" />
    <circle cx="106.7939" cy="-6.5927" fill="rgb(255,0,0)" r=".0001" />
    <text x="106.7939" y="-6.5927" stroke="rgb(0,0,0)" transform="translate(106.7939 -6.5927),scale(0.00001 -0.00001),translate(-106.7939 6.5927),translate(106.8125 -6.592499999999999),rotate(-30),translate(-106.8125 6.592499999999999)" >mekah-gedongsawah</text>
    <line x1="106.7939" y1="-6.5932" x2="106.7936" y2="-6.5938" style="stroke:rgb(255,0,0);stroke-width:.00002" />
    <line x1="106.7939" y1="-6.5932" x2="106.7936" y2="-6.5938" style="stroke:rgb(0,0,0);stroke-width:.00002" />
    <circle cx="106.7939" cy="-6.5932" fill="rgb(255,0,0)" r=".0001" />
    <text x="106.7939" y="-6.5932" stroke="rgb(0,0,0)" transform="translate(106.7939 -6.5932),scale(0.00001 -0.00001),translate(-106.7939 6.5932),translate(106.8125 -6.592499999999999),rotate(-30),translate(-106.8125 6.592499999999999)" >gedongsawah-1</text>
    <line x1="106.7936" y1="-6.5938" x2="106.7946" y2="-6.5945" style="stroke:rgb(255,0,0);stroke-width:.00002" />
    <line x1="106.7936" y1="-6.5938" x2="106.7946" y2="-6.5945" style="stroke:rgb(0,0,0);stroke-width:.00002" />
    <circle cx="106.7936" cy="-6.5938" fill="rgb(255,0,0)" r=".0001" />
    <text x="106.7936" y="-6.5938" stroke="rgb(0,0,0)" transform="translate(106.7936 -6.5938),scale(0.00001 -0.00001),translate(-106.7936 6.5938),translate(106.8125 -6.592499999999999),rotate(-30),translate(-106.8125 6.592499999999999)" >gedongsawah-crossing</text>
  </g>
</svg>
