<svg width="2100" height="2970" xmlns="http://www.w3.org/2000/svg" xmlns:xlink="http://www.w3.org/1999/xlink" >
  <g transform="translate(280 20) rotate(30) scale(0.5)">    <path d="M500.9444910975276 1083.6986443012706 L481.9831724438757 1077.8643924078312 L476.98717916634337 1078.4888915675094 L424.85743693762856 1073.2759173446325 L395.57858064053164 1060.100432010843 L367.2648254665063 1088.4141871846953 L348.6791503246707 1085.3165746610382 L345.3742543720324 1085.5526386576553 L237.17893074066865 959.6696528775693 L231.74523194821006 931.8689834314753 L221.57280558135994 916.566243766933 L165.36266475593203 848.1423213507433 L109.48404525503008 851.6114709227406 L-44.95546878079904 787.0569896924172 L-75.24772842974414 746.0531371983446 L-13.154999999869574 707.4726923077034 L-70.94227157001853 746.8322474170585 L-43.034531219248606 784.6083949229798 L109.99595474497426 848.5739136926484 L166.70733524416903 845.0530632646546 L223.9871944186973 914.7791408484306 L234.57476805187127 930.7064011839104 L239.9710692593544 958.3157317378476 L346.6657456281581 1082.452745957737 L348.8208496753771 1082.298809954366 L366.23517453345755 1085.2011974307084 L394.9214193596191 1056.5149526045602 L425.64256306238235 1070.3394672707611 L466.2032689812463 1074.3955378626501 L450.89681933791326 1037.6600587182004 L474.02736974564164 1035.732512850881 L483.4999657070256 1073.6228966973492 L502.1527544505773 1079.3622163107652 L560.815427224199 1094.0278845041305 L574.8520459774937 1056.59690116218 L615.6148644666644 1033.9508908904925 L632.1713025493665 1041.4765445645135 L668.317653476393 1022.9391864668568 L684.8415180687368 1029.6853207006538 L702.0034947959459 1042.7528953019205 L725.1162569189091 1079.7333146985443 L737.4068468643742 1156.5495018578474 L728.516767941116 1168.9956123503664 L651.2528159137361 1185.660386317039 L642.338049762003 1190.1177693929587 L654.2590918926123 1212.635293417431 L695.9233921906645 1263.2276580652256 L755.9216858087154 1317.2261223212345 L812.9114771532215 1386.2137644751804 L879.6467703012496 1445.0043798674883 L845.1709972070915 1456.4963042321897 L843.6545871292651 1497.4393763325043 L810.1678136631136 1502.005754532444 L807.3791296804984 1513.1604904629046 L796.3783720101532 1520.4943289096773 L788.3071734040499 1510.4053306518615 L783.8557019284593 1470.342087371147 L773.5670868903384 1465.9326809262152 L758.4517757286875 1425.1213407897844 L722.5202159972639 1387.6926327362048 L711.8974927899586 1367.4128884313395 L685.7304756233447 1329.1687864186474 L654.5971429432313 1314.343389904272 L600.7404375540943 1267.9667824859064 L576.055096942369 1259.7383356153534 L584.5346659603052 1230.9078009542584 L600.216563202622 1210.9490226457474 L593.8681333864366 1198.2521630131637 L206.87148473373895 905.5199592618457 L578.774381984843 1103.1561170230596 Z" stroke="orange" stroke-width="0.5" fill="none" />
  </g>
</svg>
