<svg width="2500" height="1500" xmlns="http://www.w3.org/2000/svg" xmlns:xlink="http://www.w3.org/1999/xlink" >
  <path d="M625.5417366471505 519.7595049137258 L606.8497586657173 514.0081270732798 L602.0058102092918 514.6136206303463 L549.4648738754648 509.3595269969529 L520.9071612807747 496.5085563293823 L492.77965093303067 524.6360666770731 L473.60830064931747 521.4408416297787 L469.7285087441827 521.7179696229988 L360.78286148153893 394.9619980628081 L355.3556813733394 367.19468044594566 L289.6571298074946 284.3043961685352 L234.228090510058 287.74563415314464 L79.08406243842592 222.8966716925272 L47.60024599576684 180.27991809528498 L110.78206550003245 142.74807692308696 L56.209754004470255 181.83623575088717 L82.92593756152655 217.99948215362554 L235.25190948994634 281.6705196930134 L292.4128701926065 278.1217576776316 L360.96431862674194 364.6114734002224 L366.3671385184841 392.2541557833646 L472.3114912560078 515.5181842231491 L473.8916993507303 515.4053122163814 L490.7203490669332 518.2100871690996 L519.592838719376 489.33759751678997 L551.0351261245461 503.48662684920976 L588.8521901364641 507.2683332503856 L573.7202290067955 470.95162653882676 L600.1733597331338 468.7471989782675 L609.749931414072 507.05348570231325 L627.5555089026597 512.5321249295454 L684.8808544483376 526.8634613159516 L698.6412790490704 490.16899571427723 L740.547296699603 466.8878747973014 L757.1319538239152 474.42635530839476 L793.2464802147621 455.905318161862 L808.6909399214193 462.21076794130437 L811.4125248453519 455.71809802438895 L810.7989435166729 445.07317543527085 L804.3636971983403 425.75225901326985 L806.914033960382 415.5838195371307 L816.3512793118599 407.71944841086355 L825.7348699227407 401.4637213368409 L842.955651941466 399.8981956987955 L856.3390418238725 404.91696690472463 L851.7466337082169 460.02586429152655 L849.5236661008931 501.15076502662987 L865.3008896628478 599.7584122890996 L883.8984051548238 639.2781327095086 L985.3369148483893 577.943219871526 L889.9588362856292 644.7078748657085 L930.9499246405295 693.0188004270408 L953.7771487141811 727.2596365370651 L911.3281603158185 677.7358167390732 L901.0940300255044 682.1218725777431 L891.8947951037381 675.9890492965302 L881.0089213759653 677.5441741148101 L867.4310731812795 656.4230769230782 L856.5541723081793 656.4230769230782 L844.6169496279765 604.1977276971243 L787.4267485895103 616.3658555776473 L688.8902668838881 665.6340964306848 L740.766112746698 637.377887641357 L731.6193033979346 641.6387214926476 L717.3635874044493 632.1349108304529 L683.2988471274604 534.19878253375 Z" stroke="blue" stroke-width="0.5" fill="none" />
</svg>
