<svg width="3500" height="2500" xmlns="http://www.w3.org/2000/svg" xmlns:xlink="http://www.w3.org/1999/xlink" >
  <path d="M1169.0394093331236 789.4551864610601 L1183.9079863071333 793.3352334403698 L1182.448535194851 811.1287434662885 L1182.2487402893244 847.1317854287398 L1167.0992829917282 847.448259105258 L1165.4201811300168 878.5116435453845 L1180.8831945040765 975.1554771333505 L1169.9626017196606 990.444307031434 L1084.1962567029384 1008.9429304663867 L1042.4383924898707 1030.541825749144 L1028.177465215805 1021.0345408999045 L990.5050445531316 912.726331494559 L1006.2982113347374 870.611220076939 L1051.1458144259932 845.6958850263064 L1069.5139076477744 854.0450183089766 L1105.5329604290164 835.5729440160154 L1120.0060840365468 841.4818301662431 L1140.9521903630803 857.4307392797199 L1161.4784928895715 841.7341549947545 L1165.7641443693478 790.3063372391985 L1193.076466595926 671.9529409245329 L1258.969711625255 676.5501440661116 L1291.749999999965 685.5384615384653 L1257.1587347924406 679.2150622875005 L1260.2381987108656 637.6422993868571 L1255.7142107117159 616.5303553906999 L1279.47751854947 511.0806768600929 L1231.3968397338472 496.9393007378454 L1195.7162733556715 673.8554423628818 Z" stroke="red" stroke-width="0.5" fill="none" />
</svg>
