<svg width="1049.9999999998977" height="1849.9999999999961" xmlns="http://www.w3.org/2000/svg" xmlns:xlink="http://www.w3.org/1999/xlink" >
  <g transform="translate(524.9999999999488 924.9999999999981) rotate(30) scale(10000 -10000) translate(-106.8125 6.592499999999999)">
    <path d="M106.76 -6.5 L106.865 -6.5 L106.865 -6.685 L106.76 -6.685 Z" fill="none" stroke="black" stroke-width="0.001" transform="translate(106.8125 -6.592499999999999) rotate(30) translate(-106.8125 6.592499999999999)" />
    <path d="M106.80261420242498 -6.611326982272089 L106.80261420242498 -6.611326982272089 L106.80272814988574 -6.611315647184369 L106.8032123473771 -6.610777700158057 L106.8032123473771 -6.610777700158057 L106.80359504427916 -6.610352521043921 L106.80245153290548 -6.609574881838936 L106.80245153290548 -6.609574881838936 L106.80101170495476 -6.6085957340239885 L106.80107500105832 -6.608234483091419 L106.80107500105832 -6.608234483091419 L106.80107359916312 -6.608242484151912 L106.80091416990147 -6.608247404808135 L106.80091416990147 -6.608247404808135 L106.80043554620488 -6.608262177144451 L106.7996220358028 -6.607611153608405 L106.7996220358028 -6.607611153608405 L106.79883777323118 -6.606983536074235 L106.79795173108589 -6.605497947255414 L106.79795173108589 -6.605497947255414 L106.79717674163268 -6.604198555716847 L106.79892268123012 -6.604929694339605 L106.79638455267624 -6.606112024007679 L106.79788150244005 -6.605414703883901 L106.79740498447191 -6.6032372446517105 L106.79615278640449 -6.605741640786494 L106.79666980634846 -6.604707600898579 L106.79610726366776 -6.605423564310386 L106.79610726366776 -6.605423564310386 L106.79558102226932 -6.606093326090231 L106.79559017946544 -6.606770993429283 L106.79547731293583 -6.607154739629911 L106.795392653741 -6.607442580892315 L106.7955235088936 -6.607697017787187 L106.79590298221281 -6.607823508893594 L106.7965006374964 -6.608022727321451 L106.79833050462707 -6.60959844623953 L106.79833050462707 -6.60959844623953 L106.80011019047046 -6.611130953493567 L106.8010414013284 -6.611352869076392 L106.80140254553592 -6.61152484250855 L106.80236926991688 -6.611985187451864 L106.80280212466913 -6.612972001764632 L106.80302799823538 -6.613302124669133 L106.80357170622447 -6.614096774807065 L106.80412716630705 -6.615157198601065 L106.80412716630705 -6.615157198601065 L106.80466397120038 -6.616182007942886 L106.8058442774642 -6.6174114936343615 L106.8058442774642 -6.6174114936343615 L106.80707333225118 -6.618691759037468 L106.80818777526316 -6.621731149070168 L106.80818777526316 -6.621731149070168 L106.80930000000001 -6.624764489261543 L106.8095 -6.62475 L106.8095 -6.6251500000000005 L106.8095 -6.624822799812736 L106.80964044937663 -6.624875468328972 L106.80964044937663 -6.624875468328972 L106.81020580365842 -6.625087476184649 L106.81037139067635 -6.625501443729454 L106.81037139067635 -6.625501443729454 L106.81073537877006 -6.626411413963689 L106.80973424040508 -6.626244557569533 L106.80973424040508 -6.626244557569533 L106.80963728679107 -6.626228398633866 L106.80968284271246 -6.6261828427124785 L106.80968284271246 -6.6261828427124785 L106.80986568542495 -6.6259999999999994 L106.80978284271247 -6.625917157287521 L106.80978284271247 -6.625917157287521 L106.81004286602327 -6.626177180598315 L106.81032333824248 -6.62690640836828 L106.81032333824248 -6.62690640836828 L106.81061362210366 -6.627661146407357 L106.81030655106966 -6.628232003105618 L106.8102349968944 -6.628625551069659 L106.81015675939584 -6.6290558573117435 L106.81039461603606 -6.629528020493111 L106.81039461603606 -6.629528020493111 L106.81065041980163 -6.630035810057596 L106.81160521884783 -6.631089719796144 L106.81160521884783 -6.631089719796144 L106.81261275955056 -6.632201845916107 L106.8131331160575 -6.634398906723224 L106.8131331160575 -6.634398906723224 L106.81362492798962 -6.636475445992187 L106.81358499999999 -6.636445499999985 L106.81358499999999 -6.636445499999985 L106.81362587135733 -6.63647615351799 L106.81433202089258 -6.6374180278618224 L106.81433202089258 -6.6374180278618224 L106.81499691891521 -6.63830488023166 L106.81527477134368 -6.638468035177648 L106.81527477134368 -6.638468035177648 L106.81568749089054 -6.6387103840955595 L106.81567948316953 -6.639327594592022 L106.81567948316953 -6.639327594592022 L106.81567547996939 -6.639636148940429 L106.81609577213888 -6.639657763966288 L106.81609577213888 -6.639657763966288 L106.81681537216816 -6.639694771967795 L106.81832155088864 -6.642236027004957 L106.81832155088864 -6.642236027004957 L106.8197545840548 -6.64465386939141 L106.82334986336562 -6.647546166670566 L106.82334986336562 -6.647546166670566 L106.82692522418219 -6.650422440102426 L106.82783313023323 -6.650493611695906 L106.82783313023323 -6.650493611695906 L106.828931598664 -6.650579721650253 L106.83004076294374 -6.653672993970535 L106.83004076294374 -6.653672993970535 L106.83108148414057 -6.65657539006288 L106.83125988249952 -6.656678227133434 L106.83125988249952 -6.656678227133434 L106.8316241083367 -6.656888183762713 L106.8315222400462 -6.657445463234253 L106.8315222400462 -6.657445463234253 L106.83146572760934 -6.6577546195065525 L106.83256992269773 -6.658756910370605 L106.83256992269773 -6.658756910370605 L106.8337084926168 -6.659790403672618 L106.8351241600066 -6.659948231455941 L106.8351241600066 -6.659948231455941 L106.83670320981443 -6.660124274171002 L106.83713703667357 -6.660856003024806 L106.83713703667357 -6.660856003024806 L106.837348 -6.661604 L106.83679296332645 -6.661059996975194 L106.83679296332645 -6.661059996975194 L106.83646079018558 -6.6604997258289975 L106.83507983999341 -6.66034576854406 L106.83507983999341 -6.66034576854406 L106.8335355073832 -6.660173596327382 L106.83230107730228 -6.6590530896293965 L106.83230107730228 -6.6590530896293965 L106.83103227239067 -6.657901380493449 L106.83112875995378 -6.657373536765747 L106.83112875995378 -6.657373536765747 L106.8311798916633 -6.657093816237286 L106.83106011750047 -6.657024772866566 L106.83106011750047 -6.657024772866566 L106.83075451585943 -6.656848609937119 L106.82966423705626 -6.653808006029465 L106.82966423705626 -6.653808006029465 L106.82864240133601 -6.650958278349749 L106.82780186976679 -6.6508923883040945 L106.82780186976679 -6.6508923883040945 L106.8267707758178 -6.650811559897573 L106.8230991366344 -6.647857833329433 L106.8230991366344 -6.647857833329433 L106.81944741594519 -6.6449201306085754 L106.81797744911137 -6.642439972995044 L106.81797744911137 -6.642439972995044 L106.81658062783184 -6.640083228032206 L106.81607522786112 -6.640057236033711 L106.81607522786112 -6.640057236033711 L106.8152705200306 -6.64001585105957 L106.81527951683049 -6.639322405407977 L106.81527951683049 -6.639322405407977 L106.81528450910947 -6.638937615904437 L106.81507222865632 -6.638812964822351 L106.81507222865632 -6.638812964822351 L106.81472508108476 -6.638609119768341 L106.81401197910742 -6.637657972138176 L106.81401197910742 -6.637657972138176 L106.81334012864268 -6.6367618464820035 L106.81334500000003 -6.636765500000015 L106.81334500000003 -6.636765500000015 L106.81326907201037 -6.636708554007818 L106.8127438839425 -6.634491093276775 L106.8127438839425 -6.634491093276775 L106.81224724044947 -6.632394154083896 L106.81130878115218 -6.631358280203855 L106.81130878115218 -6.631358280203855 L106.81031758019837 -6.630264189942413 L106.81003738396393 -6.6297079795068905 L106.81003738396393 -6.6297079795068905 L106.80973924060417 -6.6291161426882645 L106.80987722601797 -6.628357222912362 L106.80987722601797 -6.628357222912362 L106.80999318894817 -6.627719426796307 L106.80976333087877 -6.627121795815861 L106.80976333087877 -6.627121795815861 L106.80952856698839 -6.626511409700859 L106.80935857864377 -6.626341421356241 L106.80935857864377 -6.626341421356241 L106.80901715728751 -6.626000000000003 L106.80925857864376 -6.62575857864376 L106.80925857864376 -6.62575857864376 L106.80943135660446 -6.6255858006830675 L106.80983287979745 -6.625652721215233 L106.80983287979745 -6.625652721215233 L106.80978231061498 -6.625644293018153 L106.80981430466183 -6.625724278135273 L106.80981430466183 -6.625724278135273 L106.80974709817079 -6.625556261907681 L106.80942977531168 -6.625437265835513 L106.80942977531168 -6.625437265835513 L106.8089 -6.625238600093631 L106.8089 -6.62495 L106.8089 -6.62495 L106.8089 -6.624835510738463 L106.80781222473682 -6.6218688509298325 L106.80781222473682 -6.6218688509298325 L106.80672666774882 -6.618908240962535 L106.80554995143723 -6.617971290195481 L106.80527293870594 -6.617682735267069 L106.80417205759923 -6.616535984114228 L106.80359566738589 -6.615435602797869 L106.80359566738589 -6.615435602797869 L106.80305658755103 -6.614406450385849 L106.80269787533088 -6.613527998235369 L106.80247200176463 -6.613197875330869 L106.80187128523731 -6.612319905021709 L106.80208941018904 -6.611839775754763 L106.80208941018904 -6.611839775754763 L106.80230856195557 -6.611357386297841 Z" stroke="blue" stroke-width="0.0002" fill="none" />
    <circle 
      cx="106.837348" cy="-12.661604"
      r="15" transform="translate(106.837348 -6.661604) scale(0.00001 -0.00001) translate(-106.837348 6.661604) translate(106.8125 -6.592499999999999) rotate(-30) translate(-106.8125 6.592499999999999)"
      fill="white" stroke="black" stroke-width="2"/>
    <circle 
      cx="106.837348" cy="-12.661604"
      r="15" transform="translate(106.837348 -6.661604) scale(0.00001 -0.00001) translate(-106.837348 6.661604) translate(106.8125 -6.592499999999999) rotate(-30) translate(-106.8125 6.592499999999999)"
      fill="white" stroke="none"/>
    <text x="106.837348" y="-6.661604" fill="black" text-anchor="middle" transform="translate(106.837348 -6.661604) scale(0.00001 -0.00001) translate(-106.837348 6.661604) translate(106.8125 -6.592499999999999) rotate(-30) translate(-106.8125 6.592499999999999)">04</text>
    <line x1="106.802443" y1="-6.611545" x2="106.802825" y2="-6.611507" style="stroke:rgb(255,0,0);stroke-width:.00002" />
    <line x1="106.802443" y1="-6.611545" x2="106.802634" y2="-6.611526" style="stroke:rgb(0,0,0);stroke-width:.00002" />
    <line x1="106.802634" y1="-6.611526" x2="106.802634" y2="-6.611526" style="stroke:rgb(0,0,0);stroke-width:.00002" />
    <line x1="106.802634" y1="-6.611526" x2="106.802825" y2="-6.611507" style="stroke:rgb(0,0,0);stroke-width:.00002" />
    <circle cx="106.802443" cy="-6.611545" fill="rgb(255,0,0)" r=".0001" />
    <text x="106.802443" y="-6.611545" stroke="rgb(0,0,0)" transform="translate(106.802443 -6.611545),scale(0.00001 -0.00001),translate(-106.802443 6.611545),translate(106.8125 -6.592499999999999),rotate(-30),translate(-106.8125 6.592499999999999)" >ggaut-1</text>
    <line x1="106.802825" y1="-6.611507" x2="106.803897" y2="-6.610316" style="stroke:rgb(255,0,0);stroke-width:.00002" />
    <line x1="106.802825" y1="-6.611507" x2="106.803361" y2="-6.6109115" style="stroke:rgb(0,0,0);stroke-width:.00002" />
    <line x1="106.803361" y1="-6.6109115" x2="106.803361" y2="-6.6109115" style="stroke:rgb(0,0,0);stroke-width:.00002" />
    <line x1="106.803361" y1="-6.6109115" x2="106.803897" y2="-6.610316" style="stroke:rgb(0,0,0);stroke-width:.00002" />
    <circle cx="106.802825" cy="-6.611507" fill="rgb(255,0,0)" r=".0001" />
    <text x="106.802825" y="-6.611507" stroke="rgb(0,0,0)" transform="translate(106.802825 -6.611507),scale(0.00001 -0.00001),translate(-106.802825 6.611507),translate(106.8125 -6.592499999999999),rotate(-30),translate(-106.8125 6.592499999999999)" >ggaut-2</text>
    <line x1="106.803897" y1="-6.610316" x2="106.801231" y2="-6.608503" style="stroke:rgb(255,0,0);stroke-width:.00002" />
    <line x1="106.803897" y1="-6.610316" x2="106.802564" y2="-6.6094095" style="stroke:rgb(0,0,0);stroke-width:.00002" />
    <line x1="106.802564" y1="-6.6094095" x2="106.802564" y2="-6.6094095" style="stroke:rgb(0,0,0);stroke-width:.00002" />
    <line x1="106.802564" y1="-6.6094095" x2="106.801231" y2="-6.608503" style="stroke:rgb(0,0,0);stroke-width:.00002" />
    <circle cx="106.803897" cy="-6.610316" fill="rgb(255,0,0)" r=".0001" />
    <text x="106.803897" y="-6.610316" stroke="rgb(0,0,0)" transform="translate(106.803897 -6.610316),scale(0.00001 -0.00001),translate(-106.803897 6.610316),translate(106.8125 -6.592499999999999),rotate(-30),translate(-106.8125 6.592499999999999)" >ggaut-padasuka</text>
    <line x1="106.801231" y1="-6.608503" x2="106.801313" y2="-6.608035" style="stroke:rgb(255,0,0);stroke-width:.00002" />
    <line x1="106.801231" y1="-6.608503" x2="106.801272" y2="-6.608269" style="stroke:rgb(0,0,0);stroke-width:.00002" />
    <line x1="106.801272" y1="-6.608269" x2="106.801272" y2="-6.608269" style="stroke:rgb(0,0,0);stroke-width:.00002" />
    <line x1="106.801272" y1="-6.608269" x2="106.801313" y2="-6.608035" style="stroke:rgb(0,0,0);stroke-width:.00002" />
    <circle cx="106.801231" cy="-6.608503" fill="rgb(255,0,0)" r=".0001" />
    <text x="106.801231" y="-6.608503" stroke="rgb(0,0,0)" transform="translate(106.801231 -6.608503),scale(0.00001 -0.00001),translate(-106.801231 6.608503),translate(106.8125 -6.592499999999999),rotate(-30),translate(-106.8125 6.592499999999999)" >padasuka-1</text>
    <line x1="106.801313" y1="-6.608035" x2="106.800503" y2="-6.60806" style="stroke:rgb(255,0,0);stroke-width:.00002" />
    <line x1="106.801313" y1="-6.608035" x2="106.80090799999999" y2="-6.6080475" style="stroke:rgb(0,0,0);stroke-width:.00002" />
    <line x1="106.80090799999999" y1="-6.6080475" x2="106.80090799999999" y2="-6.6080475" style="stroke:rgb(0,0,0);stroke-width:.00002" />
    <line x1="106.80090799999999" y1="-6.6080475" x2="106.800503" y2="-6.60806" style="stroke:rgb(0,0,0);stroke-width:.00002" />
    <circle cx="106.801313" cy="-6.608035" fill="rgb(255,0,0)" r=".0001" />
    <text x="106.801313" y="-6.608035" stroke="rgb(0,0,0)" transform="translate(106.801313 -6.608035),scale(0.00001 -0.00001),translate(-106.801313 6.608035),translate(106.8125 -6.592499999999999),rotate(-30),translate(-106.8125 6.592499999999999)" >padasuka-cincau</text>
    <line x1="106.800503" y1="-6.60806" x2="106.798991" y2="-6.60685" style="stroke:rgb(255,0,0);stroke-width:.00002" />
    <line x1="106.800503" y1="-6.60806" x2="106.799747" y2="-6.607455" style="stroke:rgb(0,0,0);stroke-width:.00002" />
    <line x1="106.799747" y1="-6.607455" x2="106.799747" y2="-6.607455" style="stroke:rgb(0,0,0);stroke-width:.00002" />
    <line x1="106.799747" y1="-6.607455" x2="106.798991" y2="-6.60685" style="stroke:rgb(0,0,0);stroke-width:.00002" />
    <circle cx="106.800503" cy="-6.60806" fill="rgb(255,0,0)" r=".0001" />
    <text x="106.800503" y="-6.60806" stroke="rgb(0,0,0)" transform="translate(106.800503 -6.60806),scale(0.00001 -0.00001),translate(-106.800503 6.60806),translate(106.8125 -6.592499999999999),rotate(-30),translate(-106.8125 6.592499999999999)" >cincau-1</text>
    <line x1="106.798991" y1="-6.60685" x2="106.797256" y2="-6.603941" style="stroke:rgb(255,0,0);stroke-width:.00002" />
    <line x1="106.798991" y1="-6.60685" x2="106.7981235" y2="-6.6053955" style="stroke:rgb(0,0,0);stroke-width:.00002" />
    <line x1="106.7981235" y1="-6.6053955" x2="106.7981235" y2="-6.6053955" style="stroke:rgb(0,0,0);stroke-width:.00002" />
    <line x1="106.7981235" y1="-6.6053955" x2="106.797256" y2="-6.603941" style="stroke:rgb(0,0,0);stroke-width:.00002" />
    <circle cx="106.798991" cy="-6.60685" fill="rgb(255,0,0)" r=".0001" />
    <text x="106.798991" y="-6.60685" stroke="rgb(0,0,0)" transform="translate(106.798991 -6.60685),scale(0.00001 -0.00001),translate(-106.798991 6.60685),translate(106.8125 -6.592499999999999),rotate(-30),translate(-106.8125 6.592499999999999)" >cincau-2</text>
    <line x1="106.797256" y1="-6.603941" x2="106.7967" y2="-6.6042" style="stroke:rgb(255,0,0);stroke-width:.00002" />
    <line x1="106.797256" y1="-6.603941" x2="106.79824706427694" y2="-6.603479335165963" style="stroke:rgb(0,0,0);stroke-width:.00002" />
    <line x1="106.79824706427694" y1="-6.603479335165963" x2="106.79570893572306" y2="-6.604661664834037" style="stroke:rgb(0,0,0);stroke-width:.00002" />
    <line x1="106.79570893572306" y1="-6.604661664834037" x2="106.7967" y2="-6.6042" style="stroke:rgb(0,0,0);stroke-width:.00002" />
    <circle cx="106.797256" cy="-6.603941" fill="rgb(255,0,0)" r=".0001" />
    <text x="106.797256" y="-6.603941" stroke="rgb(0,0,0)" transform="translate(106.797256 -6.603941),scale(0.00001 -0.00001),translate(-106.797256 6.603941),translate(106.8125 -6.592499999999999),rotate(-30),translate(-106.8125 6.592499999999999)" >cincau-kb</text>
    <line x1="106.7967" y1="-6.6042" x2="106.7965" y2="-6.6046" style="stroke:rgb(255,0,0);stroke-width:.00002" />
    <line x1="106.7967" y1="-6.6042" x2="106.79722609903371" y2="-6.603147801932608" style="stroke:rgb(0,0,0);stroke-width:.00002" />
    <line x1="106.79722609903371" y1="-6.603147801932608" x2="106.79597390096629" y2="-6.605652198067392" style="stroke:rgb(0,0,0);stroke-width:.00002" />
    <line x1="106.79597390096629" y1="-6.605652198067392" x2="106.7965" y2="-6.6046" style="stroke:rgb(0,0,0);stroke-width:.00002" />
    <circle cx="106.7967" cy="-6.6042" fill="rgb(255,0,0)" r=".0001" />
    <text x="106.7967" y="-6.6042" stroke="rgb(0,0,0)" transform="translate(106.7967 -6.6042),scale(0.00001 -0.00001),translate(-106.7967 6.6042),translate(106.8125 -6.592499999999999),rotate(-30),translate(-106.8125 6.592499999999999)" >kb-btm-1</text>
    <line x1="106.7965" y1="-6.6046" x2="106.7954" y2="-6.606" style="stroke:rgb(255,0,0);stroke-width:.00002" />
    <line x1="106.7965" y1="-6.6046" x2="106.79595" y2="-6.6053" style="stroke:rgb(0,0,0);stroke-width:.00002" />
    <line x1="106.79595" y1="-6.6053" x2="106.79595" y2="-6.6053" style="stroke:rgb(0,0,0);stroke-width:.00002" />
    <line x1="106.79595" y1="-6.6053" x2="106.7954" y2="-6.606" style="stroke:rgb(0,0,0);stroke-width:.00002" />
    <circle cx="106.7965" cy="-6.6046" fill="rgb(255,0,0)" r=".0001" />
    <text x="106.7965" y="-6.6046" stroke="rgb(0,0,0)" transform="translate(106.7965 -6.6046),scale(0.00001 -0.00001),translate(-106.7965 6.6046),translate(106.8125 -6.592499999999999),rotate(-30),translate(-106.8125 6.592499999999999)" >btm-3</text>
    <line x1="106.7954" y1="-6.606" x2="106.7949" y2="-6.6077" style="stroke:rgb(255,0,0);stroke-width:.00002" />
    <line x1="106.7954" y1="-6.606" x2="106.79520643326481" y2="-6.606658126899686" style="stroke:rgb(0,0,0);stroke-width:.00002" />
    <line x1="106.79520643326481" y1="-6.606658126899686" x2="106.7950935667352" y2="-6.6070418731003135" style="stroke:rgb(0,0,0);stroke-width:.00002" />
    <line x1="106.7950935667352" y1="-6.6070418731003135" x2="106.7949" y2="-6.6077" style="stroke:rgb(0,0,0);stroke-width:.00002" />
    <circle cx="106.7954" cy="-6.606" fill="rgb(255,0,0)" r=".0001" />
    <text x="106.7954" y="-6.606" stroke="rgb(0,0,0)" transform="translate(106.7954 -6.606),scale(0.00001 -0.00001),translate(-106.7954 6.606),translate(106.8125 -6.592499999999999),rotate(-30),translate(-106.8125 6.592499999999999)" >halte-empang</text>
    <line x1="106.7949" y1="-6.6077" x2="106.7964" y2="-6.6082" style="stroke:rgb(255,0,0);stroke-width:.00002" />
    <line x1="106.7949" y1="-6.6077" x2="106.79546026334039" y2="-6.607886754446797" style="stroke:rgb(0,0,0);stroke-width:.00002" />
    <line x1="106.79546026334039" y1="-6.607886754446797" x2="106.7958397366596" y2="-6.608013245553204" style="stroke:rgb(0,0,0);stroke-width:.00002" />
    <line x1="106.7958397366596" y1="-6.608013245553204" x2="106.7964" y2="-6.6082" style="stroke:rgb(0,0,0);stroke-width:.00002" />
    <circle cx="106.7949" cy="-6.6077" fill="rgb(255,0,0)" r=".0001" />
    <text x="106.7949" y="-6.6077" stroke="rgb(0,0,0)" transform="translate(106.7949 -6.6077),scale(0.00001 -0.00001),translate(-106.7949 6.6077),translate(106.8125 -6.592499999999999),rotate(-30),translate(-106.8125 6.592499999999999)" >pahlawan-empang</text>
    <line x1="106.7964" y1="-6.6082" x2="106.8" y2="-6.6113" style="stroke:rgb(255,0,0);stroke-width:.00002" />
    <line x1="106.7964" y1="-6.6082" x2="106.79820000000001" y2="-6.60975" style="stroke:rgb(0,0,0);stroke-width:.00002" />
    <line x1="106.79820000000001" y1="-6.60975" x2="106.79820000000001" y2="-6.60975" style="stroke:rgb(0,0,0);stroke-width:.00002" />
    <line x1="106.79820000000001" y1="-6.60975" x2="106.8" y2="-6.6113" style="stroke:rgb(0,0,0);stroke-width:.00002" />
    <circle cx="106.7964" cy="-6.6082" fill="rgb(255,0,0)" r=".0001" />
    <text x="106.7964" y="-6.6082" stroke="rgb(0,0,0)" transform="translate(106.7964 -6.6082),scale(0.00001 -0.00001),translate(-106.7964 6.6082),translate(106.8125 -6.592499999999999),rotate(-30),translate(-106.8125 6.592499999999999)" >pahlawan-4</text>
    <line x1="106.8" y1="-6.6113" x2="106.8021" y2="-6.6123" style="stroke:rgb(255,0,0);stroke-width:.00002" />
    <line x1="106.8" y1="-6.6113" x2="106.80086942789625" y2="-6.611714013283922" style="stroke:rgb(0,0,0);stroke-width:.00002" />
    <line x1="106.80086942789625" y1="-6.611714013283922" x2="106.80123057210376" y2="-6.6118859867160795" style="stroke:rgb(0,0,0);stroke-width:.00002" />
    <line x1="106.80123057210376" y1="-6.6118859867160795" x2="106.8021" y2="-6.6123" style="stroke:rgb(0,0,0);stroke-width:.00002" />
    <circle cx="106.8" cy="-6.6113" fill="rgb(255,0,0)" r=".0001" />
    <text x="106.8" y="-6.6113" stroke="rgb(0,0,0)" transform="translate(106.8 -6.6113),scale(0.00001 -0.00001),translate(-106.8 6.6113),translate(106.8125 -6.592499999999999),rotate(-30),translate(-106.8125 6.592499999999999)" >pahlawan-3</text>
    <line x1="106.8021" y1="-6.6123" x2="106.8034" y2="-6.6142" style="stroke:rgb(255,0,0);stroke-width:.00002" />
    <line x1="106.8021" y1="-6.6123" x2="106.80263706321688" y2="-6.61308493854775" style="stroke:rgb(0,0,0);stroke-width:.00002" />
    <line x1="106.80263706321688" y1="-6.61308493854775" x2="106.80286293678313" y2="-6.613415061452251" style="stroke:rgb(0,0,0);stroke-width:.00002" />
    <line x1="106.80286293678313" y1="-6.613415061452251" x2="106.8034" y2="-6.6142" style="stroke:rgb(0,0,0);stroke-width:.00002" />
    <circle cx="106.8021" cy="-6.6123" fill="rgb(255,0,0)" r=".0001" />
    <text x="106.8021" y="-6.6123" stroke="rgb(0,0,0)" transform="translate(106.8021 -6.6123),scale(0.00001 -0.00001),translate(-106.8021 6.6123),translate(106.8125 -6.592499999999999),rotate(-30),translate(-106.8125 6.592499999999999)" >pahlawan-ggaut</text>
    <line x1="106.8034" y1="-6.6142" x2="106.8045" y2="-6.6163" style="stroke:rgb(255,0,0);stroke-width:.00002" />
    <line x1="106.8034" y1="-6.6142" x2="106.80395" y2="-6.61525" style="stroke:rgb(0,0,0);stroke-width:.00002" />
    <line x1="106.80395" y1="-6.61525" x2="106.80395" y2="-6.61525" style="stroke:rgb(0,0,0);stroke-width:.00002" />
    <line x1="106.80395" y1="-6.61525" x2="106.8045" y2="-6.6163" style="stroke:rgb(0,0,0);stroke-width:.00002" />
    <circle cx="106.8034" cy="-6.6142" fill="rgb(255,0,0)" r=".0001" />
    <text x="106.8034" y="-6.6142" stroke="rgb(0,0,0)" transform="translate(106.8034 -6.6142),scale(0.00001 -0.00001),translate(-106.8034 6.6142),translate(106.8125 -6.592499999999999),rotate(-30),translate(-106.8125 6.592499999999999)" >dreded-pahlawan</text>
    <line x1="106.8045" y1="-6.6163" x2="106.8069" y2="-6.6188" style="stroke:rgb(255,0,0);stroke-width:.00002" />
    <line x1="106.8045" y1="-6.6163" x2="106.8057" y2="-6.61755" style="stroke:rgb(0,0,0);stroke-width:.00002" />
    <line x1="106.8057" y1="-6.61755" x2="106.8057" y2="-6.61755" style="stroke:rgb(0,0,0);stroke-width:.00002" />
    <line x1="106.8057" y1="-6.61755" x2="106.8069" y2="-6.6188" style="stroke:rgb(0,0,0);stroke-width:.00002" />
    <circle cx="106.8045" cy="-6.6163" fill="rgb(255,0,0)" r=".0001" />
    <text x="106.8045" y="-6.6163" stroke="rgb(0,0,0)" transform="translate(106.8045 -6.6163),scale(0.00001 -0.00001),translate(-106.8045 6.6163),translate(106.8125 -6.592499999999999),rotate(-30),translate(-106.8125 6.592499999999999)" >pahlawan-1</text>
    <line x1="106.8069" y1="-6.6188" x2="106.8091" y2="-6.6248" style="stroke:rgb(255,0,0);stroke-width:.00002" />
    <line x1="106.8069" y1="-6.6188" x2="106.80799999999999" y2="-6.6218" style="stroke:rgb(0,0,0);stroke-width:.00002" />
    <line x1="106.80799999999999" y1="-6.6218" x2="106.80799999999999" y2="-6.6218" style="stroke:rgb(0,0,0);stroke-width:.00002" />
    <line x1="106.80799999999999" y1="-6.6218" x2="106.8091" y2="-6.6248" style="stroke:rgb(0,0,0);stroke-width:.00002" />
    <circle cx="106.8069" cy="-6.6188" fill="rgb(255,0,0)" r=".0001" />
    <text x="106.8069" y="-6.6188" stroke="rgb(0,0,0)" transform="translate(106.8069 -6.6188),scale(0.00001 -0.00001),translate(-106.8069 6.6188),translate(106.8125 -6.592499999999999),rotate(-30),translate(-106.8125 6.592499999999999)" >batutulis-pahlawan</text>
    <line x1="106.8091" y1="-6.6248" x2="106.8091" y2="-6.6251" style="stroke:rgb(255,0,0);stroke-width:.00002" />
    <line x1="106.8091" y1="-6.6248" x2="106.8091" y2="-6.62475" style="stroke:rgb(0,0,0);stroke-width:.00002" />
    <line x1="106.8091" y1="-6.62475" x2="106.8091" y2="-6.6251500000000005" style="stroke:rgb(0,0,0);stroke-width:.00002" />
    <line x1="106.8091" y1="-6.6251500000000005" x2="106.8091" y2="-6.6251" style="stroke:rgb(0,0,0);stroke-width:.00002" />
    <circle cx="106.8091" cy="-6.6248" fill="rgb(255,0,0)" r=".0001" />
    <text x="106.8091" y="-6.6248" stroke="rgb(0,0,0)" transform="translate(106.8091 -6.6248),scale(0.00001 -0.00001),translate(-106.8091 6.6248),translate(106.8125 -6.592499999999999),rotate(-30),translate(-106.8125 6.592499999999999)" >lawanggintung-cipaku</text>
    <line x1="106.8091" y1="-6.6251" x2="106.8099" y2="-6.6254" style="stroke:rgb(255,0,0);stroke-width:.00002" />
    <line x1="106.8091" y1="-6.6251" x2="106.8095" y2="-6.625249999999999" style="stroke:rgb(0,0,0);stroke-width:.00002" />
    <line x1="106.8095" y1="-6.625249999999999" x2="106.8095" y2="-6.625249999999999" style="stroke:rgb(0,0,0);stroke-width:.00002" />
    <line x1="106.8095" y1="-6.625249999999999" x2="106.8099" y2="-6.6254" style="stroke:rgb(0,0,0);stroke-width:.00002" />
    <circle cx="106.8091" cy="-6.6251" fill="rgb(255,0,0)" r=".0001" />
    <text x="106.8091" y="-6.6251" stroke="rgb(0,0,0)" transform="translate(106.8091 -6.6251),scale(0.00001 -0.00001),translate(-106.8091 6.6251),translate(106.8125 -6.592499999999999),rotate(-30),translate(-106.8125 6.592499999999999)" >cipaku-1</text>
    <line x1="106.8099" y1="-6.6254" x2="106.8101" y2="-6.6259" style="stroke:rgb(255,0,0);stroke-width:.00002" />
    <line x1="106.8099" y1="-6.6254" x2="106.81" y2="-6.62565" style="stroke:rgb(0,0,0);stroke-width:.00002" />
    <line x1="106.81" y1="-6.62565" x2="106.81" y2="-6.62565" style="stroke:rgb(0,0,0);stroke-width:.00002" />
    <line x1="106.81" y1="-6.62565" x2="106.8101" y2="-6.6259" style="stroke:rgb(0,0,0);stroke-width:.00002" />
    <circle cx="106.8099" cy="-6.6254" fill="rgb(255,0,0)" r=".0001" />
    <text x="106.8099" y="-6.6254" stroke="rgb(0,0,0)" transform="translate(106.8099 -6.6254),scale(0.00001 -0.00001),translate(-106.8099 6.6254),translate(106.8125 -6.592499999999999),rotate(-30),translate(-106.8125 6.592499999999999)" >cipaku-2</text>
    <line x1="106.8101" y1="-6.6259" x2="106.8095" y2="-6.6258" style="stroke:rgb(255,0,0);stroke-width:.00002" />
    <line x1="106.8101" y1="-6.6259" x2="106.8098" y2="-6.62585" style="stroke:rgb(0,0,0);stroke-width:.00002" />
    <line x1="106.8098" y1="-6.62585" x2="106.8098" y2="-6.62585" style="stroke:rgb(0,0,0);stroke-width:.00002" />
    <line x1="106.8098" y1="-6.62585" x2="106.8095" y2="-6.6258" style="stroke:rgb(0,0,0);stroke-width:.00002" />
    <circle cx="106.8101" cy="-6.6259" fill="rgb(255,0,0)" r=".0001" />
    <text x="106.8101" y="-6.6259" stroke="rgb(0,0,0)" transform="translate(106.8101 -6.6259),scale(0.00001 -0.00001),translate(-106.8101 6.6259),translate(106.8125 -6.592499999999999),rotate(-30),translate(-106.8125 6.592499999999999)" >cipaku-3</text>
    <line x1="106.8095" y1="-6.6258" x2="106.8093" y2="-6.626" style="stroke:rgb(255,0,0);stroke-width:.00002" />
    <line x1="106.8095" y1="-6.6258" x2="106.8094" y2="-6.6259" style="stroke:rgb(0,0,0);stroke-width:.00002" />
    <line x1="106.8094" y1="-6.6259" x2="106.8094" y2="-6.6259" style="stroke:rgb(0,0,0);stroke-width:.00002" />
    <line x1="106.8094" y1="-6.6259" x2="106.8093" y2="-6.626" style="stroke:rgb(0,0,0);stroke-width:.00002" />
    <circle cx="106.8095" cy="-6.6258" fill="rgb(255,0,0)" r=".0001" />
    <text x="106.8095" y="-6.6258" stroke="rgb(0,0,0)" transform="translate(106.8095 -6.6258),scale(0.00001 -0.00001),translate(-106.8095 6.6258),translate(106.8125 -6.592499999999999),rotate(-30),translate(-106.8125 6.592499999999999)" >cipaku-4</text>
    <line x1="106.8093" y1="-6.626" x2="106.8097" y2="-6.6264" style="stroke:rgb(255,0,0);stroke-width:.00002" />
    <line x1="106.8093" y1="-6.626" x2="106.8095" y2="-6.626200000000001" style="stroke:rgb(0,0,0);stroke-width:.00002" />
    <line x1="106.8095" y1="-6.626200000000001" x2="106.8095" y2="-6.626200000000001" style="stroke:rgb(0,0,0);stroke-width:.00002" />
    <line x1="106.8095" y1="-6.626200000000001" x2="106.8097" y2="-6.6264" style="stroke:rgb(0,0,0);stroke-width:.00002" />
    <circle cx="106.8093" cy="-6.626" fill="rgb(255,0,0)" r=".0001" />
    <text x="106.8093" y="-6.626" stroke="rgb(0,0,0)" transform="translate(106.8093 -6.626),scale(0.00001 -0.00001),translate(-106.8093 6.626),translate(106.8125 -6.592499999999999),rotate(-30),translate(-106.8125 6.592499999999999)" >cipaku-danasasmita</text>
    <line x1="106.8097" y1="-6.6264" x2="106.8102" y2="-6.6277" style="stroke:rgb(255,0,0);stroke-width:.00002" />
    <line x1="106.8097" y1="-6.6264" x2="106.80995" y2="-6.6270500000000006" style="stroke:rgb(0,0,0);stroke-width:.00002" />
    <line x1="106.80995" y1="-6.6270500000000006" x2="106.80995" y2="-6.6270500000000006" style="stroke:rgb(0,0,0);stroke-width:.00002" />
    <line x1="106.80995" y1="-6.6270500000000006" x2="106.8102" y2="-6.6277" style="stroke:rgb(0,0,0);stroke-width:.00002" />
    <circle cx="106.8097" cy="-6.6264" fill="rgb(255,0,0)" r=".0001" />
    <text x="106.8097" y="-6.6264" stroke="rgb(0,0,0)" transform="translate(106.8097 -6.6264),scale(0.00001 -0.00001),translate(-106.8097 6.6264),translate(106.8125 -6.592499999999999),rotate(-30),translate(-106.8125 6.592499999999999)" >danasasmita-1</text>
    <line x1="106.8102" y1="-6.6277" x2="106.809948" y2="-6.629086" style="stroke:rgb(255,0,0);stroke-width:.00002" />
    <line x1="106.8102" y1="-6.6277" x2="106.81010977708763" y2="-6.628196226017979" style="stroke:rgb(0,0,0);stroke-width:.00002" />
    <line x1="106.81010977708763" y1="-6.628196226017979" x2="106.81003822291237" y2="-6.6285897739820205" style="stroke:rgb(0,0,0);stroke-width:.00002" />
    <line x1="106.81003822291237" y1="-6.6285897739820205" x2="106.809948" y2="-6.629086" style="stroke:rgb(0,0,0);stroke-width:.00002" />
    <circle cx="106.8102" cy="-6.6277" fill="rgb(255,0,0)" r=".0001" />
    <text x="106.8102" y="-6.6277" stroke="rgb(0,0,0)" transform="translate(106.8102 -6.6277),scale(0.00001 -0.00001),translate(-106.8102 6.6277),translate(106.8125 -6.592499999999999),rotate(-30),translate(-106.8125 6.592499999999999)" >danasasmita-diredja</text>
    <line x1="106.809948" y1="-6.629086" x2="106.810484" y2="-6.63015" style="stroke:rgb(255,0,0);stroke-width:.00002" />
    <line x1="106.809948" y1="-6.629086" x2="106.810216" y2="-6.629618000000001" style="stroke:rgb(0,0,0);stroke-width:.00002" />
    <line x1="106.810216" y1="-6.629618000000001" x2="106.810216" y2="-6.629618000000001" style="stroke:rgb(0,0,0);stroke-width:.00002" />
    <line x1="106.810216" y1="-6.629618000000001" x2="106.810484" y2="-6.63015" style="stroke:rgb(0,0,0);stroke-width:.00002" />
    <circle cx="106.809948" cy="-6.629086" fill="rgb(255,0,0)" r=".0001" />
    <text x="106.809948" y="-6.629086" stroke="rgb(0,0,0)" transform="translate(106.809948 -6.629086),scale(0.00001 -0.00001),translate(-106.809948 6.629086),translate(106.8125 -6.592499999999999),rotate(-30),translate(-106.8125 6.592499999999999)" >raya-cipaku-1</text>
    <line x1="106.810484" y1="-6.63015" x2="106.81243" y2="-6.632298" style="stroke:rgb(255,0,0);stroke-width:.00002" />
    <line x1="106.810484" y1="-6.63015" x2="106.811457" y2="-6.631224" style="stroke:rgb(0,0,0);stroke-width:.00002" />
    <line x1="106.811457" y1="-6.631224" x2="106.811457" y2="-6.631224" style="stroke:rgb(0,0,0);stroke-width:.00002" />
    <line x1="106.811457" y1="-6.631224" x2="106.81243" y2="-6.632298" style="stroke:rgb(0,0,0);stroke-width:.00002" />
    <circle cx="106.810484" cy="-6.63015" fill="rgb(255,0,0)" r=".0001" />
    <text x="106.810484" y="-6.63015" stroke="rgb(0,0,0)" transform="translate(106.810484 -6.63015),scale(0.00001 -0.00001),translate(-106.810484 6.63015),translate(106.8125 -6.592499999999999),rotate(-30),translate(-106.8125 6.592499999999999)" >raya-cipaku-2</text>
    <line x1="106.81243" y1="-6.632298" x2="106.813447" y2="-6.636592" style="stroke:rgb(255,0,0);stroke-width:.00002" />
    <line x1="106.81243" y1="-6.632298" x2="106.8129385" y2="-6.6344449999999995" style="stroke:rgb(0,0,0);stroke-width:.00002" />
    <line x1="106.8129385" y1="-6.6344449999999995" x2="106.8129385" y2="-6.6344449999999995" style="stroke:rgb(0,0,0);stroke-width:.00002" />
    <line x1="106.8129385" y1="-6.6344449999999995" x2="106.813447" y2="-6.636592" style="stroke:rgb(0,0,0);stroke-width:.00002" />
    <circle cx="106.81243" cy="-6.632298" fill="rgb(255,0,0)" r=".0001" />
    <text x="106.81243" y="-6.632298" stroke="rgb(0,0,0)" transform="translate(106.81243 -6.632298),scale(0.00001 -0.00001),translate(-106.81243 6.632298),translate(106.8125 -6.592499999999999),rotate(-30),translate(-106.8125 6.592499999999999)" >raya-cipaku-3</text>
    <line x1="106.813447" y1="-6.636592" x2="106.813483" y2="-6.636619" style="stroke:rgb(255,0,0);stroke-width:.00002" />
    <line x1="106.813447" y1="-6.636592" x2="106.81346500000001" y2="-6.6366055" style="stroke:rgb(0,0,0);stroke-width:.00002" />
    <line x1="106.81346500000001" y1="-6.6366055" x2="106.81346500000001" y2="-6.6366055" style="stroke:rgb(0,0,0);stroke-width:.00002" />
    <line x1="106.81346500000001" y1="-6.6366055" x2="106.813483" y2="-6.636619" style="stroke:rgb(0,0,0);stroke-width:.00002" />
    <circle cx="106.813447" cy="-6.636592" fill="rgb(255,0,0)" r=".0001" />
    <text x="106.813447" y="-6.636592" stroke="rgb(0,0,0)" transform="translate(106.813447 -6.636592),scale(0.00001 -0.00001),translate(-106.813447 6.636592),translate(106.8125 -6.592499999999999),rotate(-30),translate(-106.8125 6.592499999999999)" >raya-cipaku-4</text>
    <line x1="106.813483" y1="-6.636619" x2="106.814861" y2="-6.638457" style="stroke:rgb(255,0,0);stroke-width:.00002" />
    <line x1="106.813483" y1="-6.636619" x2="106.814172" y2="-6.637537999999999" style="stroke:rgb(0,0,0);stroke-width:.00002" />
    <line x1="106.814172" y1="-6.637537999999999" x2="106.814172" y2="-6.637537999999999" style="stroke:rgb(0,0,0);stroke-width:.00002" />
    <line x1="106.814172" y1="-6.637537999999999" x2="106.814861" y2="-6.638457" style="stroke:rgb(0,0,0);stroke-width:.00002" />
    <circle cx="106.813483" cy="-6.636619" fill="rgb(255,0,0)" r=".0001" />
    <text x="106.813483" y="-6.636619" stroke="rgb(0,0,0)" transform="translate(106.813483 -6.636619),scale(0.00001 -0.00001),translate(-106.813483 6.636619),translate(106.8125 -6.592499999999999),rotate(-30),translate(-106.8125 6.592499999999999)" >raya-cipaku-5</text>
    <line x1="106.814861" y1="-6.638457" x2="106.815486" y2="-6.638824" style="stroke:rgb(255,0,0);stroke-width:.00002" />
    <line x1="106.814861" y1="-6.638457" x2="106.8151735" y2="-6.638640499999999" style="stroke:rgb(0,0,0);stroke-width:.00002" />
    <line x1="106.8151735" y1="-6.638640499999999" x2="106.8151735" y2="-6.638640499999999" style="stroke:rgb(0,0,0);stroke-width:.00002" />
    <line x1="106.8151735" y1="-6.638640499999999" x2="106.815486" y2="-6.638824" style="stroke:rgb(0,0,0);stroke-width:.00002" />
    <circle cx="106.814861" cy="-6.638457" fill="rgb(255,0,0)" r=".0001" />
    <text x="106.814861" y="-6.638457" stroke="rgb(0,0,0)" transform="translate(106.814861 -6.638457),scale(0.00001 -0.00001),translate(-106.814861 6.638457),translate(106.8125 -6.592499999999999),rotate(-30),translate(-106.8125 6.592499999999999)" >raya-cipaku-dekeng</text>
    <line x1="106.815486" y1="-6.638824" x2="106.815473" y2="-6.639826" style="stroke:rgb(255,0,0);stroke-width:.00002" />
    <line x1="106.815486" y1="-6.638824" x2="106.81547950000001" y2="-6.6393249999999995" style="stroke:rgb(0,0,0);stroke-width:.00002" />
    <line x1="106.81547950000001" y1="-6.6393249999999995" x2="106.81547950000001" y2="-6.6393249999999995" style="stroke:rgb(0,0,0);stroke-width:.00002" />
    <line x1="106.81547950000001" y1="-6.6393249999999995" x2="106.815473" y2="-6.639826" style="stroke:rgb(0,0,0);stroke-width:.00002" />
    <circle cx="106.815486" cy="-6.638824" fill="rgb(255,0,0)" r=".0001" />
    <text x="106.815486" y="-6.638824" stroke="rgb(0,0,0)" transform="translate(106.815486 -6.638824),scale(0.00001 -0.00001),translate(-106.815486 6.638824),translate(106.8125 -6.592499999999999),rotate(-30),translate(-106.8125 6.592499999999999)" >dekeng-1</text>
    <line x1="106.815473" y1="-6.639826" x2="106.816698" y2="-6.639889" style="stroke:rgb(255,0,0);stroke-width:.00002" />
    <line x1="106.815473" y1="-6.639826" x2="106.8160855" y2="-6.6398575" style="stroke:rgb(0,0,0);stroke-width:.00002" />
    <line x1="106.8160855" y1="-6.6398575" x2="106.8160855" y2="-6.6398575" style="stroke:rgb(0,0,0);stroke-width:.00002" />
    <line x1="106.8160855" y1="-6.6398575" x2="106.816698" y2="-6.639889" style="stroke:rgb(0,0,0);stroke-width:.00002" />
    <circle cx="106.815473" cy="-6.639826" fill="rgb(255,0,0)" r=".0001" />
    <text x="106.815473" y="-6.639826" stroke="rgb(0,0,0)" transform="translate(106.815473 -6.639826),scale(0.00001 -0.00001),translate(-106.815473 6.639826),translate(106.8125 -6.592499999999999),rotate(-30),translate(-106.8125 6.592499999999999)" >dekeng-2</text>
    <line x1="106.816698" y1="-6.639889" x2="106.819601" y2="-6.644787" style="stroke:rgb(255,0,0);stroke-width:.00002" />
    <line x1="106.816698" y1="-6.639889" x2="106.8181495" y2="-6.6423380000000005" style="stroke:rgb(0,0,0);stroke-width:.00002" />
    <line x1="106.8181495" y1="-6.6423380000000005" x2="106.8181495" y2="-6.6423380000000005" style="stroke:rgb(0,0,0);stroke-width:.00002" />
    <line x1="106.8181495" y1="-6.6423380000000005" x2="106.819601" y2="-6.644787" style="stroke:rgb(0,0,0);stroke-width:.00002" />
    <circle cx="106.816698" cy="-6.639889" fill="rgb(255,0,0)" r=".0001" />
    <text x="106.816698" y="-6.639889" stroke="rgb(0,0,0)" transform="translate(106.816698 -6.639889),scale(0.00001 -0.00001),translate(-106.816698 6.639889),translate(106.8125 -6.592499999999999),rotate(-30),translate(-106.8125 6.592499999999999)" >dekeng-3</text>
    <line x1="106.819601" y1="-6.644787" x2="106.826848" y2="-6.650617" style="stroke:rgb(255,0,0);stroke-width:.00002" />
    <line x1="106.819601" y1="-6.644787" x2="106.82322450000001" y2="-6.647702" style="stroke:rgb(0,0,0);stroke-width:.00002" />
    <line x1="106.82322450000001" y1="-6.647702" x2="106.82322450000001" y2="-6.647702" style="stroke:rgb(0,0,0);stroke-width:.00002" />
    <line x1="106.82322450000001" y1="-6.647702" x2="106.826848" y2="-6.650617" style="stroke:rgb(0,0,0);stroke-width:.00002" />
    <circle cx="106.819601" cy="-6.644787" fill="rgb(255,0,0)" r=".0001" />
    <text x="106.819601" y="-6.644787" stroke="rgb(0,0,0)" transform="translate(106.819601 -6.644787),scale(0.00001 -0.00001),translate(-106.819601 6.644787),translate(106.8125 -6.592499999999999),rotate(-30),translate(-106.8125 6.592499999999999)" >dekeng-4</text>
    <line x1="106.826848" y1="-6.650617" x2="106.828787" y2="-6.650769" style="stroke:rgb(255,0,0);stroke-width:.00002" />
    <line x1="106.826848" y1="-6.650617" x2="106.82781750000001" y2="-6.650693" style="stroke:rgb(0,0,0);stroke-width:.00002" />
    <line x1="106.82781750000001" y1="-6.650693" x2="106.82781750000001" y2="-6.650693" style="stroke:rgb(0,0,0);stroke-width:.00002" />
    <line x1="106.82781750000001" y1="-6.650693" x2="106.828787" y2="-6.650769" style="stroke:rgb(0,0,0);stroke-width:.00002" />
    <circle cx="106.826848" cy="-6.650617" fill="rgb(255,0,0)" r=".0001" />
    <text x="106.826848" y="-6.650617" stroke="rgb(0,0,0)" transform="translate(106.826848 -6.650617),scale(0.00001 -0.00001),translate(-106.826848 6.650617),translate(106.8125 -6.592499999999999),rotate(-30),translate(-106.8125 6.592499999999999)" >dekeng-5</text>
    <line x1="106.828787" y1="-6.650769" x2="106.830918" y2="-6.656712" style="stroke:rgb(255,0,0);stroke-width:.00002" />
    <line x1="106.828787" y1="-6.650769" x2="106.8298525" y2="-6.6537405" style="stroke:rgb(0,0,0);stroke-width:.00002" />
    <line x1="106.8298525" y1="-6.6537405" x2="106.8298525" y2="-6.6537405" style="stroke:rgb(0,0,0);stroke-width:.00002" />
    <line x1="106.8298525" y1="-6.6537405" x2="106.830918" y2="-6.656712" style="stroke:rgb(0,0,0);stroke-width:.00002" />
    <circle cx="106.828787" cy="-6.650769" fill="rgb(255,0,0)" r=".0001" />
    <text x="106.828787" y="-6.650769" stroke="rgb(0,0,0)" transform="translate(106.828787 -6.650769),scale(0.00001 -0.00001),translate(-106.828787 6.650769),translate(106.8125 -6.592499999999999),rotate(-30),translate(-106.8125 6.592499999999999)" >dekeng-6</text>
    <line x1="106.830918" y1="-6.656712" x2="106.831402" y2="-6.656991" style="stroke:rgb(255,0,0);stroke-width:.00002" />
    <line x1="106.830918" y1="-6.656712" x2="106.83116" y2="-6.6568515" style="stroke:rgb(0,0,0);stroke-width:.00002" />
    <line x1="106.83116" y1="-6.6568515" x2="106.83116" y2="-6.6568515" style="stroke:rgb(0,0,0);stroke-width:.00002" />
    <line x1="106.83116" y1="-6.6568515" x2="106.831402" y2="-6.656991" style="stroke:rgb(0,0,0);stroke-width:.00002" />
    <circle cx="106.830918" cy="-6.656712" fill="rgb(255,0,0)" r=".0001" />
    <text x="106.830918" y="-6.656712" stroke="rgb(0,0,0)" transform="translate(106.830918 -6.656712),scale(0.00001 -0.00001),translate(-106.830918 6.656712),translate(106.8125 -6.592499999999999),rotate(-30),translate(-106.8125 6.592499999999999)" >dekeng-7</text>
    <line x1="106.831402" y1="-6.656991" x2="106.831249" y2="-6.657828" style="stroke:rgb(255,0,0);stroke-width:.00002" />
    <line x1="106.831402" y1="-6.656991" x2="106.83132549999999" y2="-6.6574095" style="stroke:rgb(0,0,0);stroke-width:.00002" />
    <line x1="106.83132549999999" y1="-6.6574095" x2="106.83132549999999" y2="-6.6574095" style="stroke:rgb(0,0,0);stroke-width:.00002" />
    <line x1="106.83132549999999" y1="-6.6574095" x2="106.831249" y2="-6.657828" style="stroke:rgb(0,0,0);stroke-width:.00002" />
    <circle cx="106.831402" cy="-6.656991" fill="rgb(255,0,0)" r=".0001" />
    <text x="106.831402" y="-6.656991" stroke="rgb(0,0,0)" transform="translate(106.831402 -6.656991),scale(0.00001 -0.00001),translate(-106.831402 6.656991),translate(106.8125 -6.592499999999999),rotate(-30),translate(-106.8125 6.592499999999999)" >dekeng-8</text>
    <line x1="106.831249" y1="-6.657828" x2="106.833622" y2="-6.659982" style="stroke:rgb(255,0,0);stroke-width:.00002" />
    <line x1="106.831249" y1="-6.657828" x2="106.8324355" y2="-6.658905000000001" style="stroke:rgb(0,0,0);stroke-width:.00002" />
    <line x1="106.8324355" y1="-6.658905000000001" x2="106.8324355" y2="-6.658905000000001" style="stroke:rgb(0,0,0);stroke-width:.00002" />
    <line x1="106.8324355" y1="-6.658905000000001" x2="106.833622" y2="-6.659982" style="stroke:rgb(0,0,0);stroke-width:.00002" />
    <circle cx="106.831249" cy="-6.657828" fill="rgb(255,0,0)" r=".0001" />
    <text x="106.831249" y="-6.657828" stroke="rgb(0,0,0)" transform="translate(106.831249 -6.657828),scale(0.00001 -0.00001),translate(-106.831249 6.657828),translate(106.8125 -6.592499999999999),rotate(-30),translate(-106.8125 6.592499999999999)" >dekeng-9</text>
    <line x1="106.833622" y1="-6.659982" x2="106.836582" y2="-6.660312" style="stroke:rgb(255,0,0);stroke-width:.00002" />
    <line x1="106.833622" y1="-6.659982" x2="106.835102" y2="-6.660147" style="stroke:rgb(0,0,0);stroke-width:.00002" />
    <line x1="106.835102" y1="-6.660147" x2="106.835102" y2="-6.660147" style="stroke:rgb(0,0,0);stroke-width:.00002" />
    <line x1="106.835102" y1="-6.660147" x2="106.836582" y2="-6.660312" style="stroke:rgb(0,0,0);stroke-width:.00002" />
    <circle cx="106.833622" cy="-6.659982" fill="rgb(255,0,0)" r=".0001" />
    <text x="106.833622" y="-6.659982" stroke="rgb(0,0,0)" transform="translate(106.833622 -6.659982),scale(0.00001 -0.00001),translate(-106.833622 6.659982),translate(106.8125 -6.592499999999999),rotate(-30),translate(-106.8125 6.592499999999999)" >dekeng-10</text>
    <line x1="106.836582" y1="-6.660312" x2="106.837348" y2="-6.661604" style="stroke:rgb(255,0,0);stroke-width:.00002" />
    <line x1="106.836582" y1="-6.660312" x2="106.836965" y2="-6.660958" style="stroke:rgb(0,0,0);stroke-width:.00002" />
    <line x1="106.836965" y1="-6.660958" x2="106.836965" y2="-6.660958" style="stroke:rgb(0,0,0);stroke-width:.00002" />
    <line x1="106.836965" y1="-6.660958" x2="106.837348" y2="-6.661604" style="stroke:rgb(0,0,0);stroke-width:.00002" />
    <circle cx="106.836582" cy="-6.660312" fill="rgb(255,0,0)" r=".0001" />
    <text x="106.836582" y="-6.660312" stroke="rgb(0,0,0)" transform="translate(106.836582 -6.660312),scale(0.00001 -0.00001),translate(-106.836582 6.660312),translate(106.8125 -6.592499999999999),rotate(-30),translate(-106.8125 6.592499999999999)" >dekeng-11</text>
    <line x1="106.837348" y1="-6.661604" x2="106.836582" y2="-6.660312" style="stroke:rgb(255,0,0);stroke-width:.00002" />
    <line x1="106.837348" y1="-6.661604" x2="106.836965" y2="-6.660958" style="stroke:rgb(0,0,0);stroke-width:.00002" />
    <line x1="106.836965" y1="-6.660958" x2="106.836965" y2="-6.660958" style="stroke:rgb(0,0,0);stroke-width:.00002" />
    <line x1="106.836965" y1="-6.660958" x2="106.836582" y2="-6.660312" style="stroke:rgb(0,0,0);stroke-width:.00002" />
    <circle cx="106.837348" cy="-6.661604" fill="rgb(255,0,0)" r=".0001" />
    <text x="106.837348" y="-6.661604" stroke="rgb(0,0,0)" transform="translate(106.837348 -6.661604),scale(0.00001 -0.00001),translate(-106.837348 6.661604),translate(106.8125 -6.592499999999999),rotate(-30),translate(-106.8125 6.592499999999999)" >dekeng-rancamaya-utama</text>
    <line x1="106.836582" y1="-6.660312" x2="106.833622" y2="-6.659982" style="stroke:rgb(255,0,0);stroke-width:.00002" />
    <line x1="106.836582" y1="-6.660312" x2="106.835102" y2="-6.660147" style="stroke:rgb(0,0,0);stroke-width:.00002" />
    <line x1="106.835102" y1="-6.660147" x2="106.835102" y2="-6.660147" style="stroke:rgb(0,0,0);stroke-width:.00002" />
    <line x1="106.835102" y1="-6.660147" x2="106.833622" y2="-6.659982" style="stroke:rgb(0,0,0);stroke-width:.00002" />
    <circle cx="106.836582" cy="-6.660312" fill="rgb(255,0,0)" r=".0001" />
    <text x="106.836582" y="-6.660312" stroke="rgb(0,0,0)" transform="translate(106.836582 -6.660312),scale(0.00001 -0.00001),translate(-106.836582 6.660312),translate(106.8125 -6.592499999999999),rotate(-30),translate(-106.8125 6.592499999999999)" >dekeng-11</text>
    <line x1="106.833622" y1="-6.659982" x2="106.831249" y2="-6.657828" style="stroke:rgb(255,0,0);stroke-width:.00002" />
    <line x1="106.833622" y1="-6.659982" x2="106.8324355" y2="-6.658905000000001" style="stroke:rgb(0,0,0);stroke-width:.00002" />
    <line x1="106.8324355" y1="-6.658905000000001" x2="106.8324355" y2="-6.658905000000001" style="stroke:rgb(0,0,0);stroke-width:.00002" />
    <line x1="106.8324355" y1="-6.658905000000001" x2="106.831249" y2="-6.657828" style="stroke:rgb(0,0,0);stroke-width:.00002" />
    <circle cx="106.833622" cy="-6.659982" fill="rgb(255,0,0)" r=".0001" />
    <text x="106.833622" y="-6.659982" stroke="rgb(0,0,0)" transform="translate(106.833622 -6.659982),scale(0.00001 -0.00001),translate(-106.833622 6.659982),translate(106.8125 -6.592499999999999),rotate(-30),translate(-106.8125 6.592499999999999)" >dekeng-10</text>
    <line x1="106.831249" y1="-6.657828" x2="106.831402" y2="-6.656991" style="stroke:rgb(255,0,0);stroke-width:.00002" />
    <line x1="106.831249" y1="-6.657828" x2="106.83132549999999" y2="-6.6574095" style="stroke:rgb(0,0,0);stroke-width:.00002" />
    <line x1="106.83132549999999" y1="-6.6574095" x2="106.83132549999999" y2="-6.6574095" style="stroke:rgb(0,0,0);stroke-width:.00002" />
    <line x1="106.83132549999999" y1="-6.6574095" x2="106.831402" y2="-6.656991" style="stroke:rgb(0,0,0);stroke-width:.00002" />
    <circle cx="106.831249" cy="-6.657828" fill="rgb(255,0,0)" r=".0001" />
    <text x="106.831249" y="-6.657828" stroke="rgb(0,0,0)" transform="translate(106.831249 -6.657828),scale(0.00001 -0.00001),translate(-106.831249 6.657828),translate(106.8125 -6.592499999999999),rotate(-30),translate(-106.8125 6.592499999999999)" >dekeng-9</text>
    <line x1="106.831402" y1="-6.656991" x2="106.830918" y2="-6.656712" style="stroke:rgb(255,0,0);stroke-width:.00002" />
    <line x1="106.831402" y1="-6.656991" x2="106.83116" y2="-6.6568515" style="stroke:rgb(0,0,0);stroke-width:.00002" />
    <line x1="106.83116" y1="-6.6568515" x2="106.83116" y2="-6.6568515" style="stroke:rgb(0,0,0);stroke-width:.00002" />
    <line x1="106.83116" y1="-6.6568515" x2="106.830918" y2="-6.656712" style="stroke:rgb(0,0,0);stroke-width:.00002" />
    <circle cx="106.831402" cy="-6.656991" fill="rgb(255,0,0)" r=".0001" />
    <text x="106.831402" y="-6.656991" stroke="rgb(0,0,0)" transform="translate(106.831402 -6.656991),scale(0.00001 -0.00001),translate(-106.831402 6.656991),translate(106.8125 -6.592499999999999),rotate(-30),translate(-106.8125 6.592499999999999)" >dekeng-8</text>
    <line x1="106.830918" y1="-6.656712" x2="106.828787" y2="-6.650769" style="stroke:rgb(255,0,0);stroke-width:.00002" />
    <line x1="106.830918" y1="-6.656712" x2="106.8298525" y2="-6.6537405" style="stroke:rgb(0,0,0);stroke-width:.00002" />
    <line x1="106.8298525" y1="-6.6537405" x2="106.8298525" y2="-6.6537405" style="stroke:rgb(0,0,0);stroke-width:.00002" />
    <line x1="106.8298525" y1="-6.6537405" x2="106.828787" y2="-6.650769" style="stroke:rgb(0,0,0);stroke-width:.00002" />
    <circle cx="106.830918" cy="-6.656712" fill="rgb(255,0,0)" r=".0001" />
    <text x="106.830918" y="-6.656712" stroke="rgb(0,0,0)" transform="translate(106.830918 -6.656712),scale(0.00001 -0.00001),translate(-106.830918 6.656712),translate(106.8125 -6.592499999999999),rotate(-30),translate(-106.8125 6.592499999999999)" >dekeng-7</text>
    <line x1="106.828787" y1="-6.650769" x2="106.826848" y2="-6.650617" style="stroke:rgb(255,0,0);stroke-width:.00002" />
    <line x1="106.828787" y1="-6.650769" x2="106.82781750000001" y2="-6.650693" style="stroke:rgb(0,0,0);stroke-width:.00002" />
    <line x1="106.82781750000001" y1="-6.650693" x2="106.82781750000001" y2="-6.650693" style="stroke:rgb(0,0,0);stroke-width:.00002" />
    <line x1="106.82781750000001" y1="-6.650693" x2="106.826848" y2="-6.650617" style="stroke:rgb(0,0,0);stroke-width:.00002" />
    <circle cx="106.828787" cy="-6.650769" fill="rgb(255,0,0)" r=".0001" />
    <text x="106.828787" y="-6.650769" stroke="rgb(0,0,0)" transform="translate(106.828787 -6.650769),scale(0.00001 -0.00001),translate(-106.828787 6.650769),translate(106.8125 -6.592499999999999),rotate(-30),translate(-106.8125 6.592499999999999)" >dekeng-6</text>
    <line x1="106.826848" y1="-6.650617" x2="106.819601" y2="-6.644787" style="stroke:rgb(255,0,0);stroke-width:.00002" />
    <line x1="106.826848" y1="-6.650617" x2="106.82322450000001" y2="-6.647702" style="stroke:rgb(0,0,0);stroke-width:.00002" />
    <line x1="106.82322450000001" y1="-6.647702" x2="106.82322450000001" y2="-6.647702" style="stroke:rgb(0,0,0);stroke-width:.00002" />
    <line x1="106.82322450000001" y1="-6.647702" x2="106.819601" y2="-6.644787" style="stroke:rgb(0,0,0);stroke-width:.00002" />
    <circle cx="106.826848" cy="-6.650617" fill="rgb(255,0,0)" r=".0001" />
    <text x="106.826848" y="-6.650617" stroke="rgb(0,0,0)" transform="translate(106.826848 -6.650617),scale(0.00001 -0.00001),translate(-106.826848 6.650617),translate(106.8125 -6.592499999999999),rotate(-30),translate(-106.8125 6.592499999999999)" >dekeng-5</text>
    <line x1="106.819601" y1="-6.644787" x2="106.816698" y2="-6.639889" style="stroke:rgb(255,0,0);stroke-width:.00002" />
    <line x1="106.819601" y1="-6.644787" x2="106.8181495" y2="-6.6423380000000005" style="stroke:rgb(0,0,0);stroke-width:.00002" />
    <line x1="106.8181495" y1="-6.6423380000000005" x2="106.8181495" y2="-6.6423380000000005" style="stroke:rgb(0,0,0);stroke-width:.00002" />
    <line x1="106.8181495" y1="-6.6423380000000005" x2="106.816698" y2="-6.639889" style="stroke:rgb(0,0,0);stroke-width:.00002" />
    <circle cx="106.819601" cy="-6.644787" fill="rgb(255,0,0)" r=".0001" />
    <text x="106.819601" y="-6.644787" stroke="rgb(0,0,0)" transform="translate(106.819601 -6.644787),scale(0.00001 -0.00001),translate(-106.819601 6.644787),translate(106.8125 -6.592499999999999),rotate(-30),translate(-106.8125 6.592499999999999)" >dekeng-4</text>
    <line x1="106.816698" y1="-6.639889" x2="106.815473" y2="-6.639826" style="stroke:rgb(255,0,0);stroke-width:.00002" />
    <line x1="106.816698" y1="-6.639889" x2="106.8160855" y2="-6.6398575" style="stroke:rgb(0,0,0);stroke-width:.00002" />
    <line x1="106.8160855" y1="-6.6398575" x2="106.8160855" y2="-6.6398575" style="stroke:rgb(0,0,0);stroke-width:.00002" />
    <line x1="106.8160855" y1="-6.6398575" x2="106.815473" y2="-6.639826" style="stroke:rgb(0,0,0);stroke-width:.00002" />
    <circle cx="106.816698" cy="-6.639889" fill="rgb(255,0,0)" r=".0001" />
    <text x="106.816698" y="-6.639889" stroke="rgb(0,0,0)" transform="translate(106.816698 -6.639889),scale(0.00001 -0.00001),translate(-106.816698 6.639889),translate(106.8125 -6.592499999999999),rotate(-30),translate(-106.8125 6.592499999999999)" >dekeng-3</text>
    <line x1="106.815473" y1="-6.639826" x2="106.815486" y2="-6.638824" style="stroke:rgb(255,0,0);stroke-width:.00002" />
    <line x1="106.815473" y1="-6.639826" x2="106.81547950000001" y2="-6.6393249999999995" style="stroke:rgb(0,0,0);stroke-width:.00002" />
    <line x1="106.81547950000001" y1="-6.6393249999999995" x2="106.81547950000001" y2="-6.6393249999999995" style="stroke:rgb(0,0,0);stroke-width:.00002" />
    <line x1="106.81547950000001" y1="-6.6393249999999995" x2="106.815486" y2="-6.638824" style="stroke:rgb(0,0,0);stroke-width:.00002" />
    <circle cx="106.815473" cy="-6.639826" fill="rgb(255,0,0)" r=".0001" />
    <text x="106.815473" y="-6.639826" stroke="rgb(0,0,0)" transform="translate(106.815473 -6.639826),scale(0.00001 -0.00001),translate(-106.815473 6.639826),translate(106.8125 -6.592499999999999),rotate(-30),translate(-106.8125 6.592499999999999)" >dekeng-2</text>
    <line x1="106.815486" y1="-6.638824" x2="106.814861" y2="-6.638457" style="stroke:rgb(255,0,0);stroke-width:.00002" />
    <line x1="106.815486" y1="-6.638824" x2="106.8151735" y2="-6.638640499999999" style="stroke:rgb(0,0,0);stroke-width:.00002" />
    <line x1="106.8151735" y1="-6.638640499999999" x2="106.8151735" y2="-6.638640499999999" style="stroke:rgb(0,0,0);stroke-width:.00002" />
    <line x1="106.8151735" y1="-6.638640499999999" x2="106.814861" y2="-6.638457" style="stroke:rgb(0,0,0);stroke-width:.00002" />
    <circle cx="106.815486" cy="-6.638824" fill="rgb(255,0,0)" r=".0001" />
    <text x="106.815486" y="-6.638824" stroke="rgb(0,0,0)" transform="translate(106.815486 -6.638824),scale(0.00001 -0.00001),translate(-106.815486 6.638824),translate(106.8125 -6.592499999999999),rotate(-30),translate(-106.8125 6.592499999999999)" >dekeng-1</text>
    <line x1="106.814861" y1="-6.638457" x2="106.813483" y2="-6.636619" style="stroke:rgb(255,0,0);stroke-width:.00002" />
    <line x1="106.814861" y1="-6.638457" x2="106.814172" y2="-6.637537999999999" style="stroke:rgb(0,0,0);stroke-width:.00002" />
    <line x1="106.814172" y1="-6.637537999999999" x2="106.814172" y2="-6.637537999999999" style="stroke:rgb(0,0,0);stroke-width:.00002" />
    <line x1="106.814172" y1="-6.637537999999999" x2="106.813483" y2="-6.636619" style="stroke:rgb(0,0,0);stroke-width:.00002" />
    <circle cx="106.814861" cy="-6.638457" fill="rgb(255,0,0)" r=".0001" />
    <text x="106.814861" y="-6.638457" stroke="rgb(0,0,0)" transform="translate(106.814861 -6.638457),scale(0.00001 -0.00001),translate(-106.814861 6.638457),translate(106.8125 -6.592499999999999),rotate(-30),translate(-106.8125 6.592499999999999)" >raya-cipaku-dekeng</text>
    <line x1="106.813483" y1="-6.636619" x2="106.813447" y2="-6.636592" style="stroke:rgb(255,0,0);stroke-width:.00002" />
    <line x1="106.813483" y1="-6.636619" x2="106.81346500000001" y2="-6.6366055" style="stroke:rgb(0,0,0);stroke-width:.00002" />
    <line x1="106.81346500000001" y1="-6.6366055" x2="106.81346500000001" y2="-6.6366055" style="stroke:rgb(0,0,0);stroke-width:.00002" />
    <line x1="106.81346500000001" y1="-6.6366055" x2="106.813447" y2="-6.636592" style="stroke:rgb(0,0,0);stroke-width:.00002" />
    <circle cx="106.813483" cy="-6.636619" fill="rgb(255,0,0)" r=".0001" />
    <text x="106.813483" y="-6.636619" stroke="rgb(0,0,0)" transform="translate(106.813483 -6.636619),scale(0.00001 -0.00001),translate(-106.813483 6.636619),translate(106.8125 -6.592499999999999),rotate(-30),translate(-106.8125 6.592499999999999)" >raya-cipaku-5</text>
    <line x1="106.813447" y1="-6.636592" x2="106.81243" y2="-6.632298" style="stroke:rgb(255,0,0);stroke-width:.00002" />
    <line x1="106.813447" y1="-6.636592" x2="106.8129385" y2="-6.6344449999999995" style="stroke:rgb(0,0,0);stroke-width:.00002" />
    <line x1="106.8129385" y1="-6.6344449999999995" x2="106.8129385" y2="-6.6344449999999995" style="stroke:rgb(0,0,0);stroke-width:.00002" />
    <line x1="106.8129385" y1="-6.6344449999999995" x2="106.81243" y2="-6.632298" style="stroke:rgb(0,0,0);stroke-width:.00002" />
    <circle cx="106.813447" cy="-6.636592" fill="rgb(255,0,0)" r=".0001" />
    <text x="106.813447" y="-6.636592" stroke="rgb(0,0,0)" transform="translate(106.813447 -6.636592),scale(0.00001 -0.00001),translate(-106.813447 6.636592),translate(106.8125 -6.592499999999999),rotate(-30),translate(-106.8125 6.592499999999999)" >raya-cipaku-4</text>
    <line x1="106.81243" y1="-6.632298" x2="106.810484" y2="-6.63015" style="stroke:rgb(255,0,0);stroke-width:.00002" />
    <line x1="106.81243" y1="-6.632298" x2="106.811457" y2="-6.631224" style="stroke:rgb(0,0,0);stroke-width:.00002" />
    <line x1="106.811457" y1="-6.631224" x2="106.811457" y2="-6.631224" style="stroke:rgb(0,0,0);stroke-width:.00002" />
    <line x1="106.811457" y1="-6.631224" x2="106.810484" y2="-6.63015" style="stroke:rgb(0,0,0);stroke-width:.00002" />
    <circle cx="106.81243" cy="-6.632298" fill="rgb(255,0,0)" r=".0001" />
    <text x="106.81243" y="-6.632298" stroke="rgb(0,0,0)" transform="translate(106.81243 -6.632298),scale(0.00001 -0.00001),translate(-106.81243 6.632298),translate(106.8125 -6.592499999999999),rotate(-30),translate(-106.8125 6.592499999999999)" >raya-cipaku-3</text>
    <line x1="106.810484" y1="-6.63015" x2="106.809948" y2="-6.629086" style="stroke:rgb(255,0,0);stroke-width:.00002" />
    <line x1="106.810484" y1="-6.63015" x2="106.810216" y2="-6.629618000000001" style="stroke:rgb(0,0,0);stroke-width:.00002" />
    <line x1="106.810216" y1="-6.629618000000001" x2="106.810216" y2="-6.629618000000001" style="stroke:rgb(0,0,0);stroke-width:.00002" />
    <line x1="106.810216" y1="-6.629618000000001" x2="106.809948" y2="-6.629086" style="stroke:rgb(0,0,0);stroke-width:.00002" />
    <circle cx="106.810484" cy="-6.63015" fill="rgb(255,0,0)" r=".0001" />
    <text x="106.810484" y="-6.63015" stroke="rgb(0,0,0)" transform="translate(106.810484 -6.63015),scale(0.00001 -0.00001),translate(-106.810484 6.63015),translate(106.8125 -6.592499999999999),rotate(-30),translate(-106.8125 6.592499999999999)" >raya-cipaku-2</text>
    <line x1="106.809948" y1="-6.629086" x2="106.8102" y2="-6.6277" style="stroke:rgb(255,0,0);stroke-width:.00002" />
    <line x1="106.809948" y1="-6.629086" x2="106.810074" y2="-6.628393" style="stroke:rgb(0,0,0);stroke-width:.00002" />
    <line x1="106.810074" y1="-6.628393" x2="106.810074" y2="-6.628393" style="stroke:rgb(0,0,0);stroke-width:.00002" />
    <line x1="106.810074" y1="-6.628393" x2="106.8102" y2="-6.6277" style="stroke:rgb(0,0,0);stroke-width:.00002" />
    <circle cx="106.809948" cy="-6.629086" fill="rgb(255,0,0)" r=".0001" />
    <text x="106.809948" y="-6.629086" stroke="rgb(0,0,0)" transform="translate(106.809948 -6.629086),scale(0.00001 -0.00001),translate(-106.809948 6.629086),translate(106.8125 -6.592499999999999),rotate(-30),translate(-106.8125 6.592499999999999)" >raya-cipaku-1</text>
    <line x1="106.8102" y1="-6.6277" x2="106.8097" y2="-6.6264" style="stroke:rgb(255,0,0);stroke-width:.00002" />
    <line x1="106.8102" y1="-6.6277" x2="106.80995" y2="-6.6270500000000006" style="stroke:rgb(0,0,0);stroke-width:.00002" />
    <line x1="106.80995" y1="-6.6270500000000006" x2="106.80995" y2="-6.6270500000000006" style="stroke:rgb(0,0,0);stroke-width:.00002" />
    <line x1="106.80995" y1="-6.6270500000000006" x2="106.8097" y2="-6.6264" style="stroke:rgb(0,0,0);stroke-width:.00002" />
    <circle cx="106.8102" cy="-6.6277" fill="rgb(255,0,0)" r=".0001" />
    <text x="106.8102" y="-6.6277" stroke="rgb(0,0,0)" transform="translate(106.8102 -6.6277),scale(0.00001 -0.00001),translate(-106.8102 6.6277),translate(106.8125 -6.592499999999999),rotate(-30),translate(-106.8125 6.592499999999999)" >danasasmita-diredja</text>
    <line x1="106.8097" y1="-6.6264" x2="106.8093" y2="-6.626" style="stroke:rgb(255,0,0);stroke-width:.00002" />
    <line x1="106.8097" y1="-6.6264" x2="106.8095" y2="-6.626200000000001" style="stroke:rgb(0,0,0);stroke-width:.00002" />
    <line x1="106.8095" y1="-6.626200000000001" x2="106.8095" y2="-6.626200000000001" style="stroke:rgb(0,0,0);stroke-width:.00002" />
    <line x1="106.8095" y1="-6.626200000000001" x2="106.8093" y2="-6.626" style="stroke:rgb(0,0,0);stroke-width:.00002" />
    <circle cx="106.8097" cy="-6.6264" fill="rgb(255,0,0)" r=".0001" />
    <text x="106.8097" y="-6.6264" stroke="rgb(0,0,0)" transform="translate(106.8097 -6.6264),scale(0.00001 -0.00001),translate(-106.8097 6.6264),translate(106.8125 -6.592499999999999),rotate(-30),translate(-106.8125 6.592499999999999)" >danasasmita-1</text>
    <line x1="106.8093" y1="-6.626" x2="106.8095" y2="-6.6258" style="stroke:rgb(255,0,0);stroke-width:.00002" />
    <line x1="106.8093" y1="-6.626" x2="106.8094" y2="-6.6259" style="stroke:rgb(0,0,0);stroke-width:.00002" />
    <line x1="106.8094" y1="-6.6259" x2="106.8094" y2="-6.6259" style="stroke:rgb(0,0,0);stroke-width:.00002" />
    <line x1="106.8094" y1="-6.6259" x2="106.8095" y2="-6.6258" style="stroke:rgb(0,0,0);stroke-width:.00002" />
    <circle cx="106.8093" cy="-6.626" fill="rgb(255,0,0)" r=".0001" />
    <text x="106.8093" y="-6.626" stroke="rgb(0,0,0)" transform="translate(106.8093 -6.626),scale(0.00001 -0.00001),translate(-106.8093 6.626),translate(106.8125 -6.592499999999999),rotate(-30),translate(-106.8125 6.592499999999999)" >cipaku-danasasmita</text>
    <line x1="106.8095" y1="-6.6258" x2="106.8101" y2="-6.6259" style="stroke:rgb(255,0,0);stroke-width:.00002" />
    <line x1="106.8095" y1="-6.6258" x2="106.8098" y2="-6.62585" style="stroke:rgb(0,0,0);stroke-width:.00002" />
    <line x1="106.8098" y1="-6.62585" x2="106.8098" y2="-6.62585" style="stroke:rgb(0,0,0);stroke-width:.00002" />
    <line x1="106.8098" y1="-6.62585" x2="106.8101" y2="-6.6259" style="stroke:rgb(0,0,0);stroke-width:.00002" />
    <circle cx="106.8095" cy="-6.6258" fill="rgb(255,0,0)" r=".0001" />
    <text x="106.8095" y="-6.6258" stroke="rgb(0,0,0)" transform="translate(106.8095 -6.6258),scale(0.00001 -0.00001),translate(-106.8095 6.6258),translate(106.8125 -6.592499999999999),rotate(-30),translate(-106.8125 6.592499999999999)" >cipaku-4</text>
    <line x1="106.8101" y1="-6.6259" x2="106.8099" y2="-6.6254" style="stroke:rgb(255,0,0);stroke-width:.00002" />
    <line x1="106.8101" y1="-6.6259" x2="106.81" y2="-6.62565" style="stroke:rgb(0,0,0);stroke-width:.00002" />
    <line x1="106.81" y1="-6.62565" x2="106.81" y2="-6.62565" style="stroke:rgb(0,0,0);stroke-width:.00002" />
    <line x1="106.81" y1="-6.62565" x2="106.8099" y2="-6.6254" style="stroke:rgb(0,0,0);stroke-width:.00002" />
    <circle cx="106.8101" cy="-6.6259" fill="rgb(255,0,0)" r=".0001" />
    <text x="106.8101" y="-6.6259" stroke="rgb(0,0,0)" transform="translate(106.8101 -6.6259),scale(0.00001 -0.00001),translate(-106.8101 6.6259),translate(106.8125 -6.592499999999999),rotate(-30),translate(-106.8125 6.592499999999999)" >cipaku-3</text>
    <line x1="106.8099" y1="-6.6254" x2="106.8091" y2="-6.6251" style="stroke:rgb(255,0,0);stroke-width:.00002" />
    <line x1="106.8099" y1="-6.6254" x2="106.8095" y2="-6.625249999999999" style="stroke:rgb(0,0,0);stroke-width:.00002" />
    <line x1="106.8095" y1="-6.625249999999999" x2="106.8095" y2="-6.625249999999999" style="stroke:rgb(0,0,0);stroke-width:.00002" />
    <line x1="106.8095" y1="-6.625249999999999" x2="106.8091" y2="-6.6251" style="stroke:rgb(0,0,0);stroke-width:.00002" />
    <circle cx="106.8099" cy="-6.6254" fill="rgb(255,0,0)" r=".0001" />
    <text x="106.8099" y="-6.6254" stroke="rgb(0,0,0)" transform="translate(106.8099 -6.6254),scale(0.00001 -0.00001),translate(-106.8099 6.6254),translate(106.8125 -6.592499999999999),rotate(-30),translate(-106.8125 6.592499999999999)" >cipaku-2</text>
    <line x1="106.8091" y1="-6.6251" x2="106.8091" y2="-6.6248" style="stroke:rgb(255,0,0);stroke-width:.00002" />
    <line x1="106.8091" y1="-6.6251" x2="106.8091" y2="-6.62495" style="stroke:rgb(0,0,0);stroke-width:.00002" />
    <line x1="106.8091" y1="-6.62495" x2="106.8091" y2="-6.62495" style="stroke:rgb(0,0,0);stroke-width:.00002" />
    <line x1="106.8091" y1="-6.62495" x2="106.8091" y2="-6.6248" style="stroke:rgb(0,0,0);stroke-width:.00002" />
    <circle cx="106.8091" cy="-6.6251" fill="rgb(255,0,0)" r=".0001" />
    <text x="106.8091" y="-6.6251" stroke="rgb(0,0,0)" transform="translate(106.8091 -6.6251),scale(0.00001 -0.00001),translate(-106.8091 6.6251),translate(106.8125 -6.592499999999999),rotate(-30),translate(-106.8125 6.592499999999999)" >cipaku-1</text>
    <line x1="106.8091" y1="-6.6248" x2="106.8069" y2="-6.6188" style="stroke:rgb(255,0,0);stroke-width:.00002" />
    <line x1="106.8091" y1="-6.6248" x2="106.80799999999999" y2="-6.6218" style="stroke:rgb(0,0,0);stroke-width:.00002" />
    <line x1="106.80799999999999" y1="-6.6218" x2="106.80799999999999" y2="-6.6218" style="stroke:rgb(0,0,0);stroke-width:.00002" />
    <line x1="106.80799999999999" y1="-6.6218" x2="106.8069" y2="-6.6188" style="stroke:rgb(0,0,0);stroke-width:.00002" />
    <circle cx="106.8091" cy="-6.6248" fill="rgb(255,0,0)" r=".0001" />
    <text x="106.8091" y="-6.6248" stroke="rgb(0,0,0)" transform="translate(106.8091 -6.6248),scale(0.00001 -0.00001),translate(-106.8091 6.6248),translate(106.8125 -6.592499999999999),rotate(-30),translate(-106.8125 6.592499999999999)" >lawanggintung-cipaku</text>
    <line x1="106.8069" y1="-6.6188" x2="106.8045" y2="-6.6163" style="stroke:rgb(255,0,0);stroke-width:.00002" />
    <line x1="106.8069" y1="-6.6188" x2="106.80583850636565" y2="-6.617694277464206" style="stroke:rgb(0,0,0);stroke-width:.00002" />
    <line x1="106.80583850636565" y1="-6.617694277464206" x2="106.80556149363436" y2="-6.617405722535794" style="stroke:rgb(0,0,0);stroke-width:.00002" />
    <line x1="106.80556149363436" y1="-6.617405722535794" x2="106.8045" y2="-6.6163" style="stroke:rgb(0,0,0);stroke-width:.00002" />
    <circle cx="106.8069" cy="-6.6188" fill="rgb(255,0,0)" r=".0001" />
    <text x="106.8069" y="-6.6188" stroke="rgb(0,0,0)" transform="translate(106.8069 -6.6188),scale(0.00001 -0.00001),translate(-106.8069 6.6188),translate(106.8125 -6.592499999999999),rotate(-30),translate(-106.8125 6.592499999999999)" >batutulis-pahlawan</text>
    <line x1="106.8045" y1="-6.6163" x2="106.8034" y2="-6.6142" style="stroke:rgb(255,0,0);stroke-width:.00002" />
    <line x1="106.8045" y1="-6.6163" x2="106.80395" y2="-6.61525" style="stroke:rgb(0,0,0);stroke-width:.00002" />
    <line x1="106.80395" y1="-6.61525" x2="106.80395" y2="-6.61525" style="stroke:rgb(0,0,0);stroke-width:.00002" />
    <line x1="106.80395" y1="-6.61525" x2="106.8034" y2="-6.6142" style="stroke:rgb(0,0,0);stroke-width:.00002" />
    <circle cx="106.8045" cy="-6.6163" fill="rgb(255,0,0)" r=".0001" />
    <text x="106.8045" y="-6.6163" stroke="rgb(0,0,0)" transform="translate(106.8045 -6.6163),scale(0.00001 -0.00001),translate(-106.8045 6.6163),translate(106.8125 -6.592499999999999),rotate(-30),translate(-106.8125 6.592499999999999)" >pahlawan-1</text>
    <line x1="106.8034" y1="-6.6142" x2="106.8021" y2="-6.6123" style="stroke:rgb(255,0,0);stroke-width:.00002" />
    <line x1="106.8034" y1="-6.6142" x2="106.80286293678313" y2="-6.613415061452251" style="stroke:rgb(0,0,0);stroke-width:.00002" />
    <line x1="106.80286293678313" y1="-6.613415061452251" x2="106.80263706321688" y2="-6.61308493854775" style="stroke:rgb(0,0,0);stroke-width:.00002" />
    <line x1="106.80263706321688" y1="-6.61308493854775" x2="106.8021" y2="-6.6123" style="stroke:rgb(0,0,0);stroke-width:.00002" />
    <circle cx="106.8034" cy="-6.6142" fill="rgb(255,0,0)" r=".0001" />
    <text x="106.8034" y="-6.6142" stroke="rgb(0,0,0)" transform="translate(106.8034 -6.6142),scale(0.00001 -0.00001),translate(-106.8034 6.6142),translate(106.8125 -6.592499999999999),rotate(-30),translate(-106.8125 6.592499999999999)" >dreded-pahlawan</text>
    <line x1="106.8021" y1="-6.6123" x2="106.802443" y2="-6.611545" style="stroke:rgb(255,0,0);stroke-width:.00002" />
    <line x1="106.8021" y1="-6.6123" x2="106.80227149999999" y2="-6.6119225" style="stroke:rgb(0,0,0);stroke-width:.00002" />
    <line x1="106.80227149999999" y1="-6.6119225" x2="106.80227149999999" y2="-6.6119225" style="stroke:rgb(0,0,0);stroke-width:.00002" />
    <line x1="106.80227149999999" y1="-6.6119225" x2="106.802443" y2="-6.611545" style="stroke:rgb(0,0,0);stroke-width:.00002" />
    <circle cx="106.8021" cy="-6.6123" fill="rgb(255,0,0)" r=".0001" />
    <text x="106.8021" y="-6.6123" stroke="rgb(0,0,0)" transform="translate(106.8021 -6.6123),scale(0.00001 -0.00001),translate(-106.8021 6.6123),translate(106.8125 -6.592499999999999),rotate(-30),translate(-106.8125 6.592499999999999)" >pahlawan-ggaut</text>
  </g>
</svg>
