<svg width="2000" height="3000" xmlns="http://www.w3.org/2000/svg" xmlns:xlink="http://www.w3.org/1999/xlink" >
  <g transform="rotate(30) translate(1000 0)">    <path d="M584.4324322332994 1047.1677531375296 L600.9606512748178 1054.680579974598 L637.1388267382372 1036.1269009257642 L652.840759034703 1042.5374680427476 L669.6267473978423 1055.3187553431083 L692.4331284594842 1091.8089650415782 L704.5784234323094 1167.7170586211091 L696.3833839703426 1179.1901138675562 L619.5014079566619 1195.772500850913 L609.0440248809159 1201.001192388786 L621.7545459462315 1225.009954401046 L663.5866960952086 1275.8061367248838 L723.5858429046971 1329.8053688532448 L780.5807385766173 1398.799189929924 L845.4483851505046 1455.9444976260668 L812.4604986035422 1466.9404598084054 L810.9522935644975 1507.661995858562 L777.7089068316201 1512.1951849585398 L774.8145648403693 1523.7725529236898 L764.308873176347 1530.7763473661892 L763.0000000001047 1529.4674741898136 L763.0000000001047 1529.3066531438933 L774.6467637193177 1533.6741895385717 L778.8826703879437 1544.2639562100167 L768.0148254665653 1542.4526487231512 L766.6213203434324 1543.8461538461643 L771.7857475872592 1549.0105810897776 L780.0535761643346 1570.5069353907893 L753.80521646224 1575.138998867653 L752.1654521536902 1584.9775847203236 L740.8425582746503 1580.1249159151084 L734.8676682602218 1586.099805929497 L671.9079111336157 1561.5301446118087 L644.8906017783429 1505.9945642701186 L630.8995041745646 1499.7762986684734 L632.3902644153634 1484.868696261272 L608.5000000000917 1474.8461538461652 L635.6097355848078 1482.823611431043 L633.9006399377212 1499.9145679021494 L612.4178962236471 1508.1771616383173 L603.6112479807798 1494.967189274203 L593.0604454378852 1502.5034768048724 L575.5813165593082 1473.9012659124824 L570.9557580969715 1450.7734736015716 L580.451934042614 1419.119553783341 L612.7826390927282 1425.2777833167092 L620.9728875265341 1421.1826590998996 L644.9233713053815 1385.2569334314687 L673.8947187190547 1366.4255576124558 L655.4902378118754 1339.5267009017161 L624.1735714716157 1324.6140026444393 L570.2452187772167 1278.175698935264 L546.6525484713003 1270.3114755000163 L554.6423329803929 1243.1462081690188 L570.7332816012922 1222.6668190151008 L565.1150612494149 1211.4303783114663 L529.3496157091937 1108.6047223830506 L470.09724554918364 1093.791629843088 L450.866586222034 1087.8745038962286 L438.0541280504957 1089.4760611676575 L421.823409669031 1050.5223370514202 L440.44989994667105 1048.9701295282657 L438.9394206707209 1006.676709804792 L485.8125309835515 1011.5256522509593 L469.26682930248376 1089.7416965621517 L496.41832344946124 1096.5295700989093 L509.81750098102907 1044.4216574762772 L534.9999999999966 1042.7428242083265 L534.9999999999966 1052.200255812354 L530.9204019660996 1060.3594518800548 L544.0916287496833 1069.5793106284143 Z" stroke="blue" stroke-width="0.5" fill="none" />
  </g>
</svg>
