<svg width="1049.9999999998977" height="1849.9999999999961" xmlns="http://www.w3.org/2000/svg" xmlns:xlink="http://www.w3.org/1999/xlink" >
  <g transform="translate(524.9999999999488 924.9999999999981) rotate(30) scale(10000 -10000) translate(-106.8125 6.592499999999999)">
    <path d="M106.76 -6.5 L106.865 -6.5 L106.865 -6.685 L106.76 -6.685 Z" fill="none" stroke="black" stroke-width="0.0001" transform="translate(106.8125 -6.592499999999999) rotate(30) translate(-106.8125 6.592499999999999)" />
    <text x="106.7896462994065" y="-6.596092730132905" fill="black" transform="translate(106.7896462994065 -6.596092730132905) scale(0.00002 -0.00002) rotate(-30) translate(-106.7896462994065 6.596092730132905)">02</text>
    <text x="106.78838221149626" y="-6.595703780006676" fill="black" transform="translate(106.78838221149626 -6.595703780006676) scale(0.00002 -0.00002) rotate(-30) translate(-106.78838221149626 6.595703780006676)">02</text>
    <text x="106.78804914527775" y="-6.595745413283987" fill="black" transform="translate(106.78804914527775 -6.595745413283987) scale(0.00002 -0.00002) rotate(-30) translate(-106.78804914527775 6.595745413283987)">02</text>
    <text x="106.78457382912917" y="-6.595397881669128" fill="black" transform="translate(106.78457382912917 -6.595397881669128) scale(0.00002 -0.00002) rotate(-30) translate(-106.78457382912917 6.595397881669128)">02</text>
    <text x="106.78262190537603" y="-6.594519515980209" fill="black" transform="translate(106.78262190537603 -6.594519515980209) scale(0.00002 -0.00002) rotate(-30) translate(-106.78262190537603 6.594519515980209)">02</text>
    <text x="106.78073432169776" y="-6.5964070996584665" fill="black" transform="translate(106.78073432169776 -6.5964070996584665) scale(0.00002 -0.00002) rotate(-30) translate(-106.78073432169776 6.5964070996584665)">02</text>
    <text x="106.77949527668831" y="-6.596200592156889" fill="black" transform="translate(106.77949527668831 -6.596200592156889) scale(0.00002 -0.00002) rotate(-30) translate(-106.77949527668831 6.596200592156889)">02</text>
    <text x="106.77927495029147" y="-6.596216329756664" fill="black" transform="translate(106.77927495029147 -6.596216329756664) scale(0.00002 -0.00002) rotate(-30) translate(-106.77927495029147 6.596216329756664)">02</text>
    <text x="106.77206192871604" y="-6.587824130704649" fill="black" transform="translate(106.77206192871604 -6.587824130704649) scale(0.00002 -0.00002) rotate(-30) translate(-106.77206192871604 6.587824130704649)">02</text>
    <text x="106.77169968212986" y="-6.585970752741582" fill="black" transform="translate(106.77169968212986 -6.585970752741582) scale(0.00002 -0.00002) rotate(-30) translate(-106.77169968212986 6.585970752741582)">02</text>
    <text x="106.7710215203721" y="-6.584950570097312" fill="black" transform="translate(106.7710215203721 -6.584950570097312) scale(0.00002 -0.00002) rotate(-30) translate(-106.7710215203721 6.584950570097312)">02</text>
    <text x="106.7672741776504" y="-6.5803889752695355" fill="black" transform="translate(106.7672741776504 -6.5803889752695355) scale(0.00002 -0.00002) rotate(-30) translate(-106.7672741776504 6.5803889752695355)">02</text>
    <text x="106.76354893635033" y="-6.580620251907669" fill="black" transform="translate(106.76354893635033 -6.580620251907669) scale(0.00002 -0.00002) rotate(-30) translate(-106.76354893635033 6.580620251907669)">02</text>
    <text x="106.75325296874794" y="-6.576316619825651" fill="black" transform="translate(106.75325296874794 -6.576316619825651) scale(0.00002 -0.00002) rotate(-30) translate(-106.75325296874794 6.576316619825651)">02</text>
    <text x="106.75123348477135" y="-6.573583029659374" fill="black" transform="translate(106.75123348477135 -6.573583029659374) scale(0.00002 -0.00002) rotate(-30) translate(-106.75123348477135 6.573583029659374)">02</text>
    <text x="106.755373" y="-6.571011" fill="black" transform="translate(106.755373 -6.571011) scale(0.00002 -0.00002) rotate(-30) translate(-106.755373 6.571011)">02</text>
    <text x="106.75152051522866" y="-6.573634970340623" fill="black" transform="translate(106.75152051522866 -6.573634970340623) scale(0.00002 -0.00002) rotate(-30) translate(-106.75152051522866 6.573634970340623)">02</text>
    <text x="106.75338103125206" y="-6.576153380174353" fill="black" transform="translate(106.75338103125206 -6.576153380174353) scale(0.00002 -0.00002) rotate(-30) translate(-106.75338103125206 6.576153380174353)">02</text>
    <text x="106.76358306364966" y="-6.58041774809233" fill="black" transform="translate(106.76358306364966 -6.58041774809233) scale(0.00002 -0.00002) rotate(-30) translate(-106.76358306364966 6.58041774809233)">02</text>
    <text x="106.76736382234961" y="-6.580183024730465" fill="black" transform="translate(106.76736382234961 -6.580183024730465) scale(0.00002 -0.00002) rotate(-30) translate(-106.76736382234961 6.580183024730465)">02</text>
    <text x="106.77118247962792" y="-6.5848314299027395" fill="black" transform="translate(106.77118247962792 -6.5848314299027395) scale(0.00002 -0.00002) rotate(-30) translate(-106.77118247962792 6.5848314299027395)">02</text>
    <text x="106.77188831787014" y="-6.585893247258426" fill="black" transform="translate(106.77188831787014 -6.585893247258426) scale(0.00002 -0.00002) rotate(-30) translate(-106.77188831787014 6.585893247258426)">02</text>
    <text x="106.77224807128394" y="-6.58773386929534" fill="black" transform="translate(106.77224807128394 -6.58773386929534) scale(0.00002 -0.00002) rotate(-30) translate(-106.77224807128394 6.58773386929534)">02</text>
    <text x="106.77936104970854" y="-6.596009670243336" fill="black" transform="translate(106.77936104970854 -6.596009670243336) scale(0.00002 -0.00002) rotate(-30) translate(-106.77936104970854 6.596009670243336)">02</text>
    <text x="106.77950472331169" y="-6.59599940784311" fill="black" transform="translate(106.77950472331169 -6.59599940784311) scale(0.00002 -0.00002) rotate(-30) translate(-106.77950472331169 6.59599940784311)">02</text>
    <text x="106.78066567830223" y="-6.596192900341535" fill="black" transform="translate(106.78066567830223 -6.596192900341535) scale(0.00002 -0.00002) rotate(-30) translate(-106.78066567830223 6.596192900341535)">02</text>
    <text x="106.78257809462399" y="-6.594280484019793" fill="black" transform="translate(106.78257809462399 -6.594280484019793) scale(0.00002 -0.00002) rotate(-30) translate(-106.78257809462399 6.594280484019793)">02</text>
    <text x="106.78462617087082" y="-6.595202118330871" fill="black" transform="translate(106.78462617087082 -6.595202118330871) scale(0.00002 -0.00002) rotate(-30) translate(-106.78462617087082 6.595202118330871)">02</text>
    <text x="106.78733021793208" y="-6.595472523036998" fill="black" transform="translate(106.78733021793208 -6.595472523036998) scale(0.00002 -0.00002) rotate(-30) translate(-106.78733021793208 6.595472523036998)">02</text>
    <text x="106.78630978795586" y="-6.5930234910940335" fill="black" transform="translate(106.78630978795586 -6.5930234910940335) scale(0.00002 -0.00002) rotate(-30) translate(-106.78630978795586 6.5930234910940335)">02</text>
    <text x="106.7878518246497" y="-6.592894988036212" fill="black" transform="translate(106.7878518246497 -6.592894988036212) scale(0.00002 -0.00002) rotate(-30) translate(-106.7878518246497 6.592894988036212)">02</text>
    <text x="106.78848333104713" y="-6.595421013625977" fill="black" transform="translate(106.78848333104713 -6.595421013625977) scale(0.00002 -0.00002) rotate(-30) translate(-106.78848333104713 6.595421013625977)">02</text>
    <text x="106.78972685029674" y="-6.595803634933548" fill="black" transform="translate(106.78972685029674 -6.595803634933548) scale(0.00002 -0.00002) rotate(-30) translate(-106.78972685029674 6.595803634933548)">02</text>
    <text x="106.79363769514828" y="-6.596781346146429" fill="black" transform="translate(106.79363769514828 -6.596781346146429) scale(0.00002 -0.00002) rotate(-30) translate(-106.79363769514828 6.596781346146429)">02</text>
    <text x="106.79457346973183" y="-6.594285947256963" fill="black" transform="translate(106.79457346973183 -6.594285947256963) scale(0.00002 -0.00002) rotate(-30) translate(-106.79457346973183 6.594285947256963)">02</text>
    <text x="106.79729099096443" y="-6.592776213238852" fill="black" transform="translate(106.79729099096443 -6.592776213238852) scale(0.00002 -0.00002) rotate(-30) translate(-106.79729099096443 6.592776213238852)">02</text>
    <text x="106.79839475350329" y="-6.593277923483788" fill="black" transform="translate(106.79839475350329 -6.593277923483788) scale(0.00002 -0.00002) rotate(-30) translate(-106.79839475350329 6.593277923483788)">02</text>
    <text x="106.80080451023176" y="-6.5920420996106115" fill="black" transform="translate(106.80080451023176 -6.5920420996106115) scale(0.00002 -0.00002) rotate(-30) translate(-106.80080451023176 6.5920420996106115)">02</text>
    <text x="106.8019061012046" y="-6.59249184189287" fill="black" transform="translate(106.8019061012046 -6.59249184189287) scale(0.00002 -0.00002) rotate(-30) translate(-106.8019061012046 6.59249184189287)">02</text>
    <text x="106.8030502329864" y="-6.593363013532942" fill="black" transform="translate(106.8030502329864 -6.593363013532942) scale(0.00002 -0.00002) rotate(-30) translate(-106.8030502329864 6.593363013532942)">02</text>
    <text x="106.80459108379459" y="-6.595828374826044" fill="black" transform="translate(106.80459108379459 -6.595828374826044) scale(0.00002 -0.00002) rotate(-30) translate(-106.80459108379459 6.595828374826044)">02</text>
    <text x="106.80541045645762" y="-6.600949453970014" fill="black" transform="translate(106.80541045645762 -6.600949453970014) scale(0.00002 -0.00002) rotate(-30) translate(-106.80541045645762 6.600949453970014)">02</text>
    <text x="106.80481778452942" y="-6.60177919466951" fill="black" transform="translate(106.80481778452942 -6.60177919466951) scale(0.00002 -0.00002) rotate(-30) translate(-106.80481778452942 6.60177919466951)">02</text>
    <text x="106.79966685439426" y="-6.602890179600621" fill="black" transform="translate(106.79966685439426 -6.602890179600621) scale(0.00002 -0.00002) rotate(-30) translate(-106.79966685439426 6.602890179600621)">02</text>
    <text x="106.7990725366508" y="-6.603187338472349" fill="black" transform="translate(106.7990725366508 -6.603187338472349) scale(0.00002 -0.00002) rotate(-30) translate(-106.7990725366508 6.603187338472349)">02</text>
    <text x="106.79986727279282" y="-6.604688506740631" fill="black" transform="translate(106.79986727279282 -6.604688506740631) scale(0.00002 -0.00002) rotate(-30) translate(-106.79986727279282 6.604688506740631)">02</text>
    <text x="106.8026448928127" y="-6.60806133105049" fill="black" transform="translate(106.8026448928127 -6.60806133105049) scale(0.00002 -0.00002) rotate(-30) translate(-106.8026448928127 6.60806133105049)">02</text>
    <text x="106.8066447790539" y="-6.611661228667561" fill="black" transform="translate(106.8066447790539 -6.611661228667561) scale(0.00002 -0.00002) rotate(-30) translate(-106.8066447790539 6.611661228667561)">02</text>
    <text x="106.81044409847686" y="-6.616260404811161" fill="black" transform="translate(106.81044409847686 -6.616260404811161) scale(0.00002 -0.00002) rotate(-30) translate(-106.81044409847686 6.616260404811161)">02</text>
    <text x="106.81489311802007" y="-6.6201797791706545" fill="black" transform="translate(106.81489311802007 -6.6201797791706545) scale(0.00002 -0.00002) rotate(-30) translate(-106.81489311802007 6.6201797791706545)">02</text>
    <text x="106.81259473314714" y="-6.620945907461634" fill="black" transform="translate(106.81259473314714 -6.620945907461634) scale(0.00002 -0.00002) rotate(-30) translate(-106.81259473314714 6.620945907461634)">02</text>
    <text x="106.81249363914195" y="-6.623675445601654" fill="black" transform="translate(106.81249363914195 -6.623675445601654) scale(0.00002 -0.00002) rotate(-30) translate(-106.81249363914195 6.623675445601654)">02</text>
    <text x="106.81026118757754" y="-6.623979870814983" fill="black" transform="translate(106.81026118757754 -6.623979870814983) scale(0.00002 -0.00002) rotate(-30) translate(-106.81026118757754 6.623979870814983)">02</text>
    <text x="106.81007527531203" y="-6.624723519877017" fill="black" transform="translate(106.81007527531203 -6.624723519877017) scale(0.00002 -0.00002) rotate(-30) translate(-106.81007527531203 6.624723519877017)">02</text>
    <text x="106.80934189146734" y="-6.625212442440131" fill="black" transform="translate(106.80934189146734 -6.625212442440131) scale(0.00002 -0.00002) rotate(-30) translate(-106.80934189146734 6.625212442440131)">02</text>
    <text x="106.80880381156027" y="-6.624539842556285" fill="black" transform="translate(106.80880381156027 -6.624539842556285) scale(0.00002 -0.00002) rotate(-30) translate(-106.80880381156027 6.624539842556285)">02</text>
    <text x="106.80850704679523" y="-6.621868959670899" fill="black" transform="translate(106.80850704679523 -6.621868959670899) scale(0.00002 -0.00002) rotate(-30) translate(-106.80850704679523 6.621868959670899)">02</text>
    <text x="106.80782113912602" y="-6.621574999241234" fill="black" transform="translate(106.80782113912602 -6.621574999241234) scale(0.00002 -0.00002) rotate(-30) translate(-106.80782113912602 6.621574999241234)">02</text>
    <text x="106.80681345171524" y="-6.618854243232142" fill="black" transform="translate(106.80681345171524 -6.618854243232142) scale(0.00002 -0.00002) rotate(-30) translate(-106.80681345171524 6.618854243232142)">02</text>
    <text x="106.80441801439983" y="-6.616358996028581" fill="black" transform="translate(106.80441801439983 -6.616358996028581) scale(0.00002 -0.00002) rotate(-30) translate(-106.80441801439983 6.616358996028581)">02</text>
    <text x="106.80370983285266" y="-6.6150070130749095" fill="black" transform="translate(106.80370983285266 -6.6150070130749095) scale(0.00002 -0.00002) rotate(-30) translate(-106.80370983285266 6.6150070130749095)">02</text>
    <text x="106.80196536504155" y="-6.612457406274068" fill="black" transform="translate(106.80196536504155 -6.612457406274068) scale(0.00002 -0.00002) rotate(-30) translate(-106.80196536504155 6.612457406274068)">02</text>
    <text x="106.79988980952953" y="-6.611469046506437" fill="black" transform="translate(106.79988980952953 -6.611469046506437) scale(0.00002 -0.00002) rotate(-30) translate(-106.79988980952953 6.611469046506437)">02</text>
    <text x="106.79629936250362" y="-6.60837727267855" fill="black" transform="translate(106.79629936250362 -6.60837727267855) scale(0.00002 -0.00002) rotate(-30) translate(-106.79629936250362 6.60837727267855)">02</text>
    <text x="106.79465367312949" y="-6.607828709553843" fill="black" transform="translate(106.79465367312949 -6.607828709553843) scale(0.00002 -0.00002) rotate(-30) translate(-106.79465367312949 6.607828709553843)">02</text>
    <text x="106.7952189777307" y="-6.605906673909768" fill="black" transform="translate(106.7952189777307 -6.605906673909768) scale(0.00002 -0.00002) rotate(-30) translate(-106.7952189777307 6.605906673909768)">02</text>
    <text x="106.79626443754684" y="-6.604576088689206" fill="black" transform="translate(106.79626443754684 -6.604576088689206) scale(0.00002 -0.00002) rotate(-30) translate(-106.79626443754684 6.604576088689206)">02</text>
    <text x="106.79584120889243" y="-6.603729631380369" fill="black" transform="translate(106.79584120889243 -6.603729631380369) scale(0.00002 -0.00002) rotate(-30) translate(-106.79584120889243 6.603729631380369)">02</text>
    <text x="106.77004143231558" y="-6.584214151130276" fill="black" transform="translate(106.77004143231558 -6.584214151130276) scale(0.00002 -0.00002) rotate(-30) translate(-106.77004143231558 6.584214151130276)">02</text>
    <text x="106.79483495879897" y="-6.597389894981023" fill="black" transform="translate(106.79483495879897 -6.597389894981023) scale(0.00002 -0.00002) rotate(-30) translate(-106.79483495879897 6.597389894981023)">02</text>
    <path d="M106.7896462994065 -6.596092730132905 L106.78838221149626 -6.595703780006676 L106.78804914527775 -6.595745413283987 L106.78457382912917 -6.595397881669128 L106.78262190537603 -6.594519515980209 L106.78073432169776 -6.5964070996584665 L106.77949527668831 -6.596200592156889 L106.77927495029147 -6.596216329756664 L106.77206192871604 -6.587824130704649 L106.77169968212986 -6.585970752741582 L106.7710215203721 -6.584950570097312 L106.7672741776504 -6.5803889752695355 L106.76354893635033 -6.580620251907669 L106.75325296874794 -6.576316619825651 L106.75123348477135 -6.573583029659374 L106.755373 -6.571011 L106.75152051522866 -6.573634970340623 L106.75338103125206 -6.576153380174353 L106.76358306364966 -6.58041774809233 L106.76736382234961 -6.580183024730465 L106.77118247962792 -6.5848314299027395 L106.77188831787014 -6.585893247258426 L106.77224807128394 -6.58773386929534 L106.77936104970854 -6.596009670243336 L106.77950472331169 -6.59599940784311 L106.78066567830223 -6.596192900341535 L106.78257809462399 -6.594280484019793 L106.78462617087082 -6.595202118330871 L106.78733021793208 -6.595472523036998 L106.78630978795586 -6.5930234910940335 L106.7878518246497 -6.592894988036212 L106.78848333104713 -6.595421013625977 L106.78972685029674 -6.595803634933548 L106.79363769514828 -6.596781346146429 L106.79457346973183 -6.594285947256963 L106.79729099096443 -6.592776213238852 L106.79839475350329 -6.593277923483788 L106.80080451023176 -6.5920420996106115 L106.8019061012046 -6.59249184189287 L106.8030502329864 -6.593363013532942 L106.80459108379459 -6.595828374826044 L106.80541045645762 -6.600949453970014 L106.80481778452942 -6.60177919466951 L106.79966685439426 -6.602890179600621 L106.7990725366508 -6.603187338472349 L106.79986727279282 -6.604688506740631 L106.8026448928127 -6.60806133105049 L106.8066447790539 -6.611661228667561 L106.81044409847686 -6.616260404811161 L106.81489311802007 -6.6201797791706545 L106.81259473314714 -6.620945907461634 L106.81249363914195 -6.623675445601654 L106.81026118757754 -6.623979870814983 L106.81007527531203 -6.624723519877017 L106.80934189146734 -6.625212442440131 L106.80880381156027 -6.624539842556285 L106.80850704679523 -6.621868959670899 L106.80782113912602 -6.621574999241234 L106.80681345171524 -6.618854243232142 L106.80441801439983 -6.616358996028581 L106.80370983285266 -6.6150070130749095 L106.80196536504155 -6.612457406274068 L106.79988980952953 -6.611469046506437 L106.79629936250362 -6.60837727267855 L106.79465367312949 -6.607828709553843 L106.7952189777307 -6.605906673909768 L106.79626443754684 -6.604576088689206 L106.79584120889243 -6.603729631380369 L106.77004143231558 -6.584214151130276 L106.79483495879897 -6.597389894981023 Z" stroke="orange" stroke-width="0.00002" fill="none" />
  </g>
</svg>
