<svg width="1450.0000000001023" height="1550.0000000000025" xmlns="http://www.w3.org/2000/svg" xmlns:xlink="http://www.w3.org/1999/xlink" >
  <g transform="translate(725.0000000000512 775.0000000000013) rotate(0) scale(10000 -10000) translate(-106.7975 6.592499999999999)">
    <path d="M106.725 -6.515 L106.87 -6.515 L106.87 -6.67 L106.725 -6.67 Z" fill="none" stroke="black" stroke-width="0.001" transform="translate(106.7975 -6.592499999999999) rotate(0) translate(-106.7975 6.592499999999999)" />
    <path d="M106.793599846142 -6.597494599179693 L106.79128441297104 -6.5968631174057935 L106.79135590409254 -6.596882614984382 L106.79070846522892 -6.596533860915637 L106.79031799040483 -6.59644708873251 L106.78956515816937 -6.596279792680185 L106.7894211145618 -6.596207770876397 L106.7894211145618 -6.596207770876397 L106.78935654085997 -6.596175484025483 L106.78884475303768 -6.596035905528495 L106.78884475303768 -6.596035905528495 L106.78837109487112 -6.595906726028525 L106.78827287641609 -6.59612055977911 L106.7878759652654 -6.596170173672946 L106.78760745241713 -6.59620373777898 L106.78625920595044 -6.595867915619888 L106.78586119107436 -6.59582811413228 L106.78449531651674 -6.595691526676519 L106.78343585412908 -6.59521476860207 L106.78343585412908 -6.59521476860207 L106.78268762150412 -6.594878063920836 L106.78193284271248 -6.595632842712475 L106.78193284271248 -6.595632842712475 L106.78083728679108 -6.596728398633868 L106.78003424040509 -6.596594557569532 L106.78003424040509 -6.596594557569532 L106.77948110675324 -6.596502368627558 L106.77943749882 -6.596505483479931 L106.77943749882 -6.596505483479931 L106.77914580116588 -6.5965263190266565 L106.77543314963772 -6.592206726979243 L106.77543314963772 -6.592206726979243 L106.77178271486419 -6.587959522818615 L106.77158192814358 -6.586932228987639 L106.77158192814358 -6.586932228987639 L106.7714167285195 -6.586087010966389 L106.77111488479682 -6.585632936811332 L106.77111488479682 -6.585632936811332 L106.77078008148827 -6.585129280389065 L106.76890142007994 -6.582842408650936 L106.76890142007994 -6.582842408650936 L106.76713971060157 -6.5806979010781435 L106.76546728574564 -6.5808017313449785 L106.76546728574564 -6.5808017313449785 L106.76349774540132 -6.580924007630676 L106.75828723717655 -6.578746056880847 L106.75828723717655 -6.578746056880847 L106.75306087499176 -6.576561479302586 L106.75202527353656 -6.575159680631783 L106.75202527353656 -6.575159680631783 L106.75080293908533 -6.573505118637499 L106.7528802766766 -6.571915983714442 L106.75321563111261 -6.571697952977514 L106.755373 -6.571011 L106.75376070795494 -6.57253633906755 L106.75342535351894 -6.572754369804478 L106.75195106091466 -6.573712881362505 L106.75266872646344 -6.574684319368217 L106.75266872646344 -6.574684319368217 L106.75357312500823 -6.575908520697412 L106.75859576282346 -6.578007943119152 L106.75859576282346 -6.578007943119152 L106.76363425459867 -6.5801139923693235 L106.76541771425437 -6.580003268655021 L106.76541771425437 -6.580003268655021 L106.76749828939842 -6.579874098921857 L106.76951957992006 -6.582334591349064 L106.76951957992006 -6.582334591349064 L106.77142391851176 -6.58465271961096 L106.77178111520317 -6.585190063188667 L106.77178111520317 -6.585190063188667 L106.7721712714805 -6.5857769890335875 L106.77236707185642 -6.586778771012362 L106.77236707185642 -6.586778771012362 L106.77252728513581 -6.587598477181402 L106.7760611620538 -6.591403234349997 L106.77632188903303 -6.591706584712275 L106.77957629825119 -6.595493021460019 L106.77918100944004 -6.595721765930065 L106.77957999291996 -6.59569326711007 L106.77951889324676 -6.595697631372442 L106.78016575959492 -6.595805442430467 L106.78016575959492 -6.595805442430467 L106.78056271320891 -6.595871601366132 L106.78136715728752 -6.595067157287525 L106.78136715728752 -6.595067157287525 L106.78251237849588 -6.59392193607916 L106.78376414587093 -6.59448523139793 L106.78376414587093 -6.59448523139793 L106.78470468348326 -6.594908473323482 L106.78613980148761 -6.5950519851239155 L106.78613980148761 -6.5950519851239155 L106.78697304564136 -6.595135309539292 L106.78662307692308 -6.594815384615383 L106.78646923076924 -6.594446153846152 L106.78572936386755 -6.592670473282102 L106.78696747265641 -6.592767990792672 L106.78736609095972 -6.592734772600731 L106.78810559733003 -6.59267314706987 L106.78848805700005 -6.5942029857499875 L106.78848805700005 -6.5942029857499875 L106.78873124300127 -6.595175729754852 L106.78905524696232 -6.595264094471505 L106.78905524696232 -6.595264094471505 L106.78964345914002 -6.595424515974513 L106.78968944271911 -6.595223900966302 L106.79004721359551 -6.595402786404509 L106.78990226274593 -6.595330310979721 L106.79049153477108 -6.595666139084362 L106.79088200959517 -6.59575291126749 L106.79159606393836 -6.595911590010423 L106.79238950607537 -6.59737181105699 L106.79238950607537 -6.59737181105699 L106.79419302085317 -6.597863678723658 L106.79386910124673 -6.596449063342055 L106.79443089875328 -6.594950936657945 L106.7946 -6.5945 L106.79571689139303 -6.59456588012438 L106.79676588012438 -6.593983108606967 L106.79732702710673 -6.593671360283437 L106.79760171823342 -6.593796219886476 L106.79760171823342 -6.593796219886476 L106.79841573949015 -6.594166229548632 L106.79988079896857 -6.593414885872463 L106.79988079896857 -6.593414885872463 L106.80084246930474 -6.592921701168164 L106.80042580999266 -6.591455437053047 L106.80264776436196 -6.592362585762296 L106.80148245018688 -6.591886827454919 L106.80115600863797 -6.593700286405755 L106.80239309035869 -6.590749078379155 L106.80190966997937 -6.591902336146831 L106.80189083141998 -6.591575509046835 L106.80189083141998 -6.591575509046835 L106.80187085913552 -6.5912290131349325 L106.8016672484398 -6.590617700833876 L106.8016672484398 -6.590617700833876 L106.80143682629311 -6.58992589094535 L106.80152850848586 -6.5895603451704 L106.80152850848586 -6.5895603451704 L106.80162187119468 -6.589188099015237 L106.80197196312007 -6.5888963557440805 L106.80197196312007 -6.5888963557440805 L106.80228017057503 -6.588639516198285 L106.80258905996075 -6.588433589941133 L106.80258905996075 -6.588433589941133 L106.8029313159897 -6.5882054192551704 L106.8035318928508 -6.588150821358707 L106.8035318928508 -6.588150821358707 L106.80412742025884 -6.588096682503431 L106.80457022468832 -6.588262734164486 L106.80457022468832 -6.588262734164486 L106.80511187224319 -6.5884658519975625 L106.80494930915165 -6.590416609095971 L106.80494930915165 -6.590416609095971 L106.80479955116105 -6.592213704983076 L106.80350145772671 -6.593996024741987 L106.80350145772671 -6.593996024741987 L106.80339569689842 -6.595952600065702 L106.80480789952506 -6.597183473141478 L106.80518707672772 -6.599553330658078 L106.80539771929878 -6.6008698467272 L106.80527819800392 -6.600045718941776 L106.80562266060977 -6.602420870623916 L106.80549762495724 -6.60155872002927 L106.80622710013597 -6.60286445620206 L106.80622710013597 -6.60286445620206 L106.80687364606169 -6.604021751785469 L106.80884651613222 -6.602828853603284 L106.80884651613222 -6.602828853603284 L106.81611158864635 -6.5984360190598625 L106.80921469246887 -6.603263846384103 L106.80921469246887 -6.603263846384103 L106.80738528724567 -6.604544430040356 L106.80805908634402 -6.605428791356948 L106.80805908634402 -6.605428791356948 L106.80885093362272 -6.606468090910253 L106.80944142135624 -6.6070585786437634 L106.80944142135624 -6.6070585786437634 L106.81005542483014 -6.6076725821176625 L106.81036641005888 -6.608139059960754 L106.81036641005888 -6.608139059960754 L106.8105 -6.6087 L106.81003358994114 -6.608360940039246 L106.81003358994114 -6.608360940039246 L106.80974457516984 -6.607927417882313 L106.80915857864377 -6.607907106781187 L106.80859289321882 -6.607341421356237 L106.80856297669015 -6.607311504827568 L106.80879644187173 -6.60677626128657 L106.80806112584771 -6.607091396725436 L106.80797920400339 -6.607126506087285 L106.80758905996076 -6.606866410058868 L106.80758905996076 -6.606866410058868 L106.80735263934714 -6.606708796316461 L106.80707828427126 -6.606747989898732 L106.80707828427126 -6.606747989898732 L106.80660118951677 -6.606816146292231 L106.80608176430493 -6.606008151518263 L106.80608176430493 -6.606008151518263 L106.80569080975748 -6.6054 L106.80545000000001 -6.6054 L106.80545000000001 -6.6054 L106.80493873559972 -6.6054 L106.80569176809705 -6.603210992767912 L106.80569176809705 -6.603210992767912 L106.80508997713433 -6.600436978394961 L106.8023647258672 -6.601496696062873 L106.8015864601608 -6.601681905377515 L106.79982959006311 -6.602099999999999 L106.79974999999999 -6.602099999999999 L106.79974999999999 -6.602099999999999 L106.79945835921347 -6.602099999999999 L106.7991105572809 -6.6018266873708 L106.79839501552809 -6.602184458247202 L106.79833708356568 -6.602213424228407 L106.79754966600265 -6.602642322007236 L106.79754966600265 -6.602642322007236 L106.79680525816863 -6.603047792854657 L106.79655573940425 -6.603164025516473 L106.79655573940425 -6.603164025516473 L106.79678713106816 -6.60305623695361 L106.79695470019622 -6.603167949705659 L106.79695470019622 -6.603167949705659 L106.79693415780693 -6.60315425477946 L106.79485893492189 -6.602058307249695 L106.79380766892207 -6.599035917500234 L106.79323715247891 -6.597395682726102 Z" stroke="blue" stroke-width="0.0002" fill="none" />
    <circle 
      cx="106.755373" cy="-12.571011"
      r="15" transform="translate(106.755373 -6.571011) scale(0.00001 -0.00001) translate(-106.755373 6.571011) translate(106.7975 -6.592499999999999) rotate(0) translate(-106.7975 6.592499999999999)"
      fill="white" stroke="black" stroke-width="2"/>
    <circle 
      cx="106.8105" cy="-12.608699999999999"
      r="15" transform="translate(106.8105 -6.6087) scale(0.00001 -0.00001) translate(-106.8105 6.6087) translate(106.7975 -6.592499999999999) rotate(0) translate(-106.7975 6.592499999999999)"
      fill="white" stroke="black" stroke-width="2"/>
    <circle 
      cx="106.755373" cy="-12.571011"
      r="15" transform="translate(106.755373 -6.571011) scale(0.00001 -0.00001) translate(-106.755373 6.571011) translate(106.7975 -6.592499999999999) rotate(0) translate(-106.7975 6.592499999999999)"
      fill="white" stroke="none"/>
    <circle 
      cx="106.8105" cy="-12.608699999999999"
      r="15" transform="translate(106.8105 -6.6087) scale(0.00001 -0.00001) translate(-106.8105 6.6087) translate(106.7975 -6.592499999999999) rotate(0) translate(-106.7975 6.592499999999999)"
      fill="white" stroke="none"/>
    <text x="106.755373" y="-6.571011" fill="black" text-anchor="middle" transform="translate(106.755373 -6.571011) scale(0.00001 -0.00001) translate(-106.755373 6.571011) translate(106.7975 -6.592499999999999) rotate(0) translate(-106.7975 6.592499999999999)">03</text>
    <text x="106.8105" y="-6.6087" fill="black" text-anchor="middle" transform="translate(106.8105 -6.6087) scale(0.00001 -0.00001) translate(-106.8105 6.6087) translate(106.7975 -6.592499999999999) rotate(0) translate(-106.7975 6.592499999999999)">03</text>
    <line x1="106.7937" y1="-6.5969" x2="106.7915" y2="-6.5963" style="stroke:rgb(255,0,0);stroke-width:.00002" />
    <line x1="106.7937" y1="-6.5969" x2="106.79375771658547" y2="-6.59691574088695" style="stroke:rgb(0,0,0);stroke-width:.00002" />
    <line x1="106.79375771658547" y1="-6.59691574088695" x2="106.79144228341451" y2="-6.596284259113051" style="stroke:rgb(0,0,0);stroke-width:.00002" />
    <line x1="106.79144228341451" y1="-6.596284259113051" x2="106.7915" y2="-6.5963" style="stroke:rgb(0,0,0);stroke-width:.00002" />
    <circle cx="106.7937" cy="-6.5969" fill="rgb(255,0,0)" r=".0001" />
    <text x="106.7937" y="-6.5969" stroke="rgb(0,0,0)" transform="translate(106.7937 -6.5969),scale(0.00001 -0.00001),translate(-106.7937 6.5969),translate(106.7975 -6.592499999999999),rotate(0),translate(-106.7975 6.592499999999999)" >kb-muslihat</text>
    <line x1="106.7915" y1="-6.5963" x2="106.7897" y2="-6.5959" style="stroke:rgb(255,0,0);stroke-width:.00002" />
    <line x1="106.7915" y1="-6.5963" x2="106.79079523741204" y2="-6.596143386091564" style="stroke:rgb(0,0,0);stroke-width:.00002" />
    <line x1="106.79079523741204" y1="-6.596143386091564" x2="106.79040476258795" y2="-6.596056613908436" style="stroke:rgb(0,0,0);stroke-width:.00002" />
    <line x1="106.79040476258795" y1="-6.596056613908436" x2="106.7897" y2="-6.5959" style="stroke:rgb(0,0,0);stroke-width:.00002" />
    <circle cx="106.7915" cy="-6.5963" fill="rgb(255,0,0)" r=".0001" />
    <text x="106.7915" y="-6.5963" stroke="rgb(0,0,0)" transform="translate(106.7915 -6.5963),scale(0.00001 -0.00001),translate(-106.7915 6.5963),translate(106.7975 -6.592499999999999),rotate(0),translate(-106.7975 6.592499999999999)" >muslihat-dewisartika</text>
    <line x1="106.7897" y1="-6.5959" x2="106.7895" y2="-6.5958" style="stroke:rgb(255,0,0);stroke-width:.00002" />
    <line x1="106.7897" y1="-6.5959" x2="106.78960000000001" y2="-6.59585" style="stroke:rgb(0,0,0);stroke-width:.00002" />
    <line x1="106.78960000000001" y1="-6.59585" x2="106.78960000000001" y2="-6.59585" style="stroke:rgb(0,0,0);stroke-width:.00002" />
    <line x1="106.78960000000001" y1="-6.59585" x2="106.7895" y2="-6.5958" style="stroke:rgb(0,0,0);stroke-width:.00002" />
    <circle cx="106.7897" cy="-6.5959" fill="rgb(255,0,0)" r=".0001" />
    <text x="106.7897" y="-6.5959" stroke="rgb(0,0,0)" transform="translate(106.7897 -6.5959),scale(0.00001 -0.00001),translate(-106.7897 6.5959),translate(106.7975 -6.592499999999999),rotate(0),translate(-106.7975 6.592499999999999)" >stasiun-paledang</text>
    <line x1="106.7895" y1="-6.5958" x2="106.7884" y2="-6.5955" style="stroke:rgb(255,0,0);stroke-width:.00002" />
    <line x1="106.7895" y1="-6.5958" x2="106.78895" y2="-6.59565" style="stroke:rgb(0,0,0);stroke-width:.00002" />
    <line x1="106.78895" y1="-6.59565" x2="106.78895" y2="-6.59565" style="stroke:rgb(0,0,0);stroke-width:.00002" />
    <line x1="106.78895" y1="-6.59565" x2="106.7884" y2="-6.5955" style="stroke:rgb(0,0,0);stroke-width:.00002" />
    <circle cx="106.7895" cy="-6.5958" fill="rgb(255,0,0)" r=".0001" />
    <text x="106.7895" y="-6.5958" stroke="rgb(0,0,0)" transform="translate(106.7895 -6.5958),scale(0.00001 -0.00001),translate(-106.7895 6.5958),translate(106.7975 -6.592499999999999),rotate(0),translate(-106.7975 6.592499999999999)" >muslihat-oking</text>
    <line x1="106.7884" y1="-6.5955" x2="106.7876" y2="-6.5956" style="stroke:rgb(255,0,0);stroke-width:.00002" />
    <line x1="106.7884" y1="-6.5955" x2="106.78819845557534" y2="-6.595525193053082" style="stroke:rgb(0,0,0);stroke-width:.00002" />
    <line x1="106.78819845557534" y1="-6.595525193053082" x2="106.78780154442465" y2="-6.595574806946918" style="stroke:rgb(0,0,0);stroke-width:.00002" />
    <line x1="106.78780154442465" y1="-6.595574806946918" x2="106.7876" y2="-6.5956" style="stroke:rgb(0,0,0);stroke-width:.00002" />
    <circle cx="106.7884" cy="-6.5955" fill="rgb(255,0,0)" r=".0001" />
    <text x="106.7884" y="-6.5955" stroke="rgb(0,0,0)" transform="translate(106.7884 -6.5955),scale(0.00001 -0.00001),translate(-106.7884 6.5955),translate(106.7975 -6.592499999999999),rotate(0),translate(-106.7975 6.592499999999999)" >veteran-merdeka</text>
    <line x1="106.7876" y1="-6.5956" x2="106.7846" y2="-6.5953" style="stroke:rgb(255,0,0);stroke-width:.00002" />
    <line x1="106.7876" y1="-6.5956" x2="106.78629900743805" y2="-6.595469900743804" style="stroke:rgb(0,0,0);stroke-width:.00002" />
    <line x1="106.78629900743805" y1="-6.595469900743804" x2="106.78590099256196" y2="-6.595430099256196" style="stroke:rgb(0,0,0);stroke-width:.00002" />
    <line x1="106.78590099256196" y1="-6.595430099256196" x2="106.7846" y2="-6.5953" style="stroke:rgb(0,0,0);stroke-width:.00002" />
    <circle cx="106.7876" cy="-6.5956" fill="rgb(255,0,0)" r=".0001" />
    <text x="106.7876" y="-6.5956" stroke="rgb(0,0,0)" transform="translate(106.7876 -6.5956),scale(0.00001 -0.00001),translate(-106.7876 6.5956),translate(106.7975 -6.592499999999999),rotate(0),translate(-106.7975 6.592499999999999)" >veteran-kemerdekaan</text>
    <line x1="106.7846" y1="-6.5953" x2="106.7826" y2="-6.5944" style="stroke:rgb(255,0,0);stroke-width:.00002" />
    <line x1="106.7846" y1="-6.5953" x2="106.7836" y2="-6.59485" style="stroke:rgb(0,0,0);stroke-width:.00002" />
    <line x1="106.7836" y1="-6.59485" x2="106.7836" y2="-6.59485" style="stroke:rgb(0,0,0);stroke-width:.00002" />
    <line x1="106.7836" y1="-6.59485" x2="106.7826" y2="-6.5944" style="stroke:rgb(0,0,0);stroke-width:.00002" />
    <circle cx="106.7846" cy="-6.5953" fill="rgb(255,0,0)" r=".0001" />
    <text x="106.7846" y="-6.5953" stroke="rgb(0,0,0)" transform="translate(106.7846 -6.5953),scale(0.00001 -0.00001),translate(-106.7846 6.5953),translate(106.7975 -6.592499999999999),rotate(0),translate(-106.7975 6.592499999999999)" >veteran</text>
    <line x1="106.7826" y1="-6.5944" x2="106.7807" y2="-6.5963" style="stroke:rgb(255,0,0);stroke-width:.00002" />
    <line x1="106.7826" y1="-6.5944" x2="106.78165" y2="-6.59535" style="stroke:rgb(0,0,0);stroke-width:.00002" />
    <line x1="106.78165" y1="-6.59535" x2="106.78165" y2="-6.59535" style="stroke:rgb(0,0,0);stroke-width:.00002" />
    <line x1="106.78165" y1="-6.59535" x2="106.7807" y2="-6.5963" style="stroke:rgb(0,0,0);stroke-width:.00002" />
    <circle cx="106.7826" cy="-6.5944" fill="rgb(255,0,0)" r=".0001" />
    <text x="106.7826" y="-6.5944" stroke="rgb(0,0,0)" transform="translate(106.7826 -6.5944),scale(0.00001 -0.00001),translate(-106.7826 6.5944),translate(106.7975 -6.592499999999999),rotate(0),translate(-106.7975 6.592499999999999)" >veteran-gnbatu</text>
    <line x1="106.7807" y1="-6.5963" x2="106.7795" y2="-6.5961" style="stroke:rgb(255,0,0);stroke-width:.00002" />
    <line x1="106.7807" y1="-6.5963" x2="106.7801" y2="-6.5962" style="stroke:rgb(0,0,0);stroke-width:.00002" />
    <line x1="106.7801" y1="-6.5962" x2="106.7801" y2="-6.5962" style="stroke:rgb(0,0,0);stroke-width:.00002" />
    <line x1="106.7801" y1="-6.5962" x2="106.7795" y2="-6.5961" style="stroke:rgb(0,0,0);stroke-width:.00002" />
    <circle cx="106.7807" cy="-6.5963" fill="rgb(255,0,0)" r=".0001" />
    <text x="106.7807" y="-6.5963" stroke="rgb(0,0,0)" transform="translate(106.7807 -6.5963),scale(0.00001 -0.00001),translate(-106.7807 6.5963),translate(106.7975 -6.592499999999999),rotate(0),translate(-106.7975 6.592499999999999)" >gnbatu-1</text>
    <line x1="106.7795" y1="-6.5961" x2="106.779318" y2="-6.596113" style="stroke:rgb(255,0,0);stroke-width:.00002" />
    <line x1="106.7795" y1="-6.5961" x2="106.779409" y2="-6.596106499999999" style="stroke:rgb(0,0,0);stroke-width:.00002" />
    <line x1="106.779409" y1="-6.596106499999999" x2="106.779409" y2="-6.596106499999999" style="stroke:rgb(0,0,0);stroke-width:.00002" />
    <line x1="106.779409" y1="-6.596106499999999" x2="106.779318" y2="-6.596113" style="stroke:rgb(0,0,0);stroke-width:.00002" />
    <circle cx="106.7795" cy="-6.5961" fill="rgb(255,0,0)" r=".0001" />
    <text x="106.7795" y="-6.5961" stroke="rgb(0,0,0)" transform="translate(106.7795 -6.5961),scale(0.00001 -0.00001),translate(-106.7795 6.5961),translate(106.7975 -6.592499999999999),rotate(0),translate(-106.7975 6.592499999999999)" >gnbatu-2</text>
    <line x1="106.779318" y1="-6.596113" x2="106.772155" y2="-6.587779" style="stroke:rgb(255,0,0);stroke-width:.00002" />
    <line x1="106.779318" y1="-6.596113" x2="106.7757365" y2="-6.591946" style="stroke:rgb(0,0,0);stroke-width:.00002" />
    <line x1="106.7757365" y1="-6.591946" x2="106.7757365" y2="-6.591946" style="stroke:rgb(0,0,0);stroke-width:.00002" />
    <line x1="106.7757365" y1="-6.591946" x2="106.772155" y2="-6.587779" style="stroke:rgb(0,0,0);stroke-width:.00002" />
    <circle cx="106.779318" cy="-6.596113" fill="rgb(255,0,0)" r=".0001" />
    <text x="106.779318" y="-6.596113" stroke="rgb(0,0,0)" transform="translate(106.779318 -6.596113),scale(0.00001 -0.00001),translate(-106.779318 6.596113),translate(106.7975 -6.592499999999999),rotate(0),translate(-106.7975 6.592499999999999)" >abdullah-batu</text>
    <line x1="106.772155" y1="-6.587779" x2="106.771794" y2="-6.585932" style="stroke:rgb(255,0,0);stroke-width:.00002" />
    <line x1="106.772155" y1="-6.587779" x2="106.7719745" y2="-6.5868555" style="stroke:rgb(0,0,0);stroke-width:.00002" />
    <line x1="106.7719745" y1="-6.5868555" x2="106.7719745" y2="-6.5868555" style="stroke:rgb(0,0,0);stroke-width:.00002" />
    <line x1="106.7719745" y1="-6.5868555" x2="106.771794" y2="-6.585932" style="stroke:rgb(0,0,0);stroke-width:.00002" />
    <circle cx="106.772155" cy="-6.587779" fill="rgb(255,0,0)" r=".0001" />
    <text x="106.772155" y="-6.587779" stroke="rgb(0,0,0)" transform="translate(106.772155 -6.587779),scale(0.00001 -0.00001),translate(-106.772155 6.587779),translate(106.7975 -6.592499999999999),rotate(0),translate(-106.7975 6.592499999999999)" >sind-barang-1</text>
    <line x1="106.771794" y1="-6.585932" x2="106.771102" y2="-6.584891" style="stroke:rgb(255,0,0);stroke-width:.00002" />
    <line x1="106.771794" y1="-6.585932" x2="106.77144799999999" y2="-6.585411499999999" style="stroke:rgb(0,0,0);stroke-width:.00002" />
    <line x1="106.77144799999999" y1="-6.585411499999999" x2="106.77144799999999" y2="-6.585411499999999" style="stroke:rgb(0,0,0);stroke-width:.00002" />
    <line x1="106.77144799999999" y1="-6.585411499999999" x2="106.771102" y2="-6.584891" style="stroke:rgb(0,0,0);stroke-width:.00002" />
    <circle cx="106.771794" cy="-6.585932" fill="rgb(255,0,0)" r=".0001" />
    <text x="106.771794" y="-6.585932" stroke="rgb(0,0,0)" transform="translate(106.771794 -6.585932),scale(0.00001 -0.00001),translate(-106.771794 6.585932),translate(106.7975 -6.592499999999999),rotate(0),translate(-106.7975 6.592499999999999)" >sind-barang-2</text>
    <line x1="106.771102" y1="-6.584891" x2="106.767319" y2="-6.580286" style="stroke:rgb(255,0,0);stroke-width:.00002" />
    <line x1="106.771102" y1="-6.584891" x2="106.7692105" y2="-6.5825885" style="stroke:rgb(0,0,0);stroke-width:.00002" />
    <line x1="106.7692105" y1="-6.5825885" x2="106.7692105" y2="-6.5825885" style="stroke:rgb(0,0,0);stroke-width:.00002" />
    <line x1="106.7692105" y1="-6.5825885" x2="106.767319" y2="-6.580286" style="stroke:rgb(0,0,0);stroke-width:.00002" />
    <circle cx="106.771102" cy="-6.584891" fill="rgb(255,0,0)" r=".0001" />
    <text x="106.771102" y="-6.584891" stroke="rgb(0,0,0)" transform="translate(106.771102 -6.584891),scale(0.00001 -0.00001),translate(-106.771102 6.584891),translate(106.7975 -6.592499999999999),rotate(0),translate(-106.7975 6.592499999999999)" >sind-barang-darulquran</text>
    <line x1="106.767319" y1="-6.580286" x2="106.763566" y2="-6.580519" style="stroke:rgb(255,0,0);stroke-width:.00002" />
    <line x1="106.767319" y1="-6.580286" x2="106.7654425" y2="-6.5804025" style="stroke:rgb(0,0,0);stroke-width:.00002" />
    <line x1="106.7654425" y1="-6.5804025" x2="106.7654425" y2="-6.5804025" style="stroke:rgb(0,0,0);stroke-width:.00002" />
    <line x1="106.7654425" y1="-6.5804025" x2="106.763566" y2="-6.580519" style="stroke:rgb(0,0,0);stroke-width:.00002" />
    <circle cx="106.767319" cy="-6.580286" fill="rgb(255,0,0)" r=".0001" />
    <text x="106.767319" y="-6.580286" stroke="rgb(0,0,0)" transform="translate(106.767319 -6.580286),scale(0.00001 -0.00001),translate(-106.767319 6.580286),translate(106.7975 -6.592499999999999),rotate(0),translate(-106.7975 6.592499999999999)" >sind-barang-3</text>
    <line x1="106.763566" y1="-6.580519" x2="106.753317" y2="-6.576235" style="stroke:rgb(255,0,0);stroke-width:.00002" />
    <line x1="106.763566" y1="-6.580519" x2="106.7584415" y2="-6.578377" style="stroke:rgb(0,0,0);stroke-width:.00002" />
    <line x1="106.7584415" y1="-6.578377" x2="106.7584415" y2="-6.578377" style="stroke:rgb(0,0,0);stroke-width:.00002" />
    <line x1="106.7584415" y1="-6.578377" x2="106.753317" y2="-6.576235" style="stroke:rgb(0,0,0);stroke-width:.00002" />
    <circle cx="106.763566" cy="-6.580519" fill="rgb(255,0,0)" r=".0001" />
    <text x="106.763566" y="-6.580519" stroke="rgb(0,0,0)" transform="translate(106.763566 -6.580519),scale(0.00001 -0.00001),translate(-106.763566 6.580519),translate(106.7975 -6.592499999999999),rotate(0),translate(-106.7975 6.592499999999999)" >sind-barang-4</text>
    <line x1="106.753317" y1="-6.576235" x2="106.751377" y2="-6.573609" style="stroke:rgb(255,0,0);stroke-width:.00002" />
    <line x1="106.753317" y1="-6.576235" x2="106.752347" y2="-6.574922" style="stroke:rgb(0,0,0);stroke-width:.00002" />
    <line x1="106.752347" y1="-6.574922" x2="106.752347" y2="-6.574922" style="stroke:rgb(0,0,0);stroke-width:.00002" />
    <line x1="106.752347" y1="-6.574922" x2="106.751377" y2="-6.573609" style="stroke:rgb(0,0,0);stroke-width:.00002" />
    <circle cx="106.753317" cy="-6.576235" fill="rgb(255,0,0)" r=".0001" />
    <text x="106.753317" y="-6.576235" stroke="rgb(0,0,0)" transform="translate(106.753317 -6.576235),scale(0.00001 -0.00001),translate(-106.753317 6.576235),translate(106.7975 -6.592499999999999),rotate(0),translate(-106.7975 6.592499999999999)" >sind-barang-adjie</text>
    <line x1="106.751377" y1="-6.573609" x2="106.755373" y2="-6.571011" style="stroke:rgb(255,0,0);stroke-width:.00002" />
    <line x1="106.751377" y1="-6.573609" x2="106.753207322782" y2="-6.572419015368464" style="stroke:rgb(0,0,0);stroke-width:.00002" />
    <line x1="106.753207322782" y1="-6.572419015368464" x2="106.75354267721801" y2="-6.572200984631536" style="stroke:rgb(0,0,0);stroke-width:.00002" />
    <line x1="106.75354267721801" y1="-6.572200984631536" x2="106.755373" y2="-6.571011" style="stroke:rgb(0,0,0);stroke-width:.00002" />
    <circle cx="106.751377" cy="-6.573609" fill="rgb(255,0,0)" r=".0001" />
    <text x="106.751377" y="-6.573609" stroke="rgb(0,0,0)" transform="translate(106.751377 -6.573609),scale(0.00001 -0.00001),translate(-106.751377 6.573609),translate(106.7975 -6.592499999999999),rotate(0),translate(-106.7975 6.592499999999999)" >adjie-ciampea</text>
    <line x1="106.755373" y1="-6.571011" x2="106.751377" y2="-6.573609" style="stroke:rgb(255,0,0);stroke-width:.00002" />
    <line x1="106.755373" y1="-6.571011" x2="106.75354267721801" y2="-6.572200984631536" style="stroke:rgb(0,0,0);stroke-width:.00002" />
    <line x1="106.75354267721801" y1="-6.572200984631536" x2="106.753207322782" y2="-6.572419015368464" style="stroke:rgb(0,0,0);stroke-width:.00002" />
    <line x1="106.753207322782" y1="-6.572419015368464" x2="106.751377" y2="-6.573609" style="stroke:rgb(0,0,0);stroke-width:.00002" />
    <circle cx="106.755373" cy="-6.571011" fill="rgb(255,0,0)" r=".0001" />
    <text x="106.755373" y="-6.571011" stroke="rgb(0,0,0)" transform="translate(106.755373 -6.571011),scale(0.00001 -0.00001),translate(-106.755373 6.571011),translate(106.7975 -6.592499999999999),rotate(0),translate(-106.7975 6.592499999999999)" >bubulak</text>
    <line x1="106.751377" y1="-6.573609" x2="106.753317" y2="-6.576235" style="stroke:rgb(255,0,0);stroke-width:.00002" />
    <line x1="106.751377" y1="-6.573609" x2="106.752347" y2="-6.574922" style="stroke:rgb(0,0,0);stroke-width:.00002" />
    <line x1="106.752347" y1="-6.574922" x2="106.752347" y2="-6.574922" style="stroke:rgb(0,0,0);stroke-width:.00002" />
    <line x1="106.752347" y1="-6.574922" x2="106.753317" y2="-6.576235" style="stroke:rgb(0,0,0);stroke-width:.00002" />
    <circle cx="106.751377" cy="-6.573609" fill="rgb(255,0,0)" r=".0001" />
    <text x="106.751377" y="-6.573609" stroke="rgb(0,0,0)" transform="translate(106.751377 -6.573609),scale(0.00001 -0.00001),translate(-106.751377 6.573609),translate(106.7975 -6.592499999999999),rotate(0),translate(-106.7975 6.592499999999999)" >adjie-ciampea</text>
    <line x1="106.753317" y1="-6.576235" x2="106.763566" y2="-6.580519" style="stroke:rgb(255,0,0);stroke-width:.00002" />
    <line x1="106.753317" y1="-6.576235" x2="106.7584415" y2="-6.578377" style="stroke:rgb(0,0,0);stroke-width:.00002" />
    <line x1="106.7584415" y1="-6.578377" x2="106.7584415" y2="-6.578377" style="stroke:rgb(0,0,0);stroke-width:.00002" />
    <line x1="106.7584415" y1="-6.578377" x2="106.763566" y2="-6.580519" style="stroke:rgb(0,0,0);stroke-width:.00002" />
    <circle cx="106.753317" cy="-6.576235" fill="rgb(255,0,0)" r=".0001" />
    <text x="106.753317" y="-6.576235" stroke="rgb(0,0,0)" transform="translate(106.753317 -6.576235),scale(0.00001 -0.00001),translate(-106.753317 6.576235),translate(106.7975 -6.592499999999999),rotate(0),translate(-106.7975 6.592499999999999)" >sind-barang-adjie</text>
    <line x1="106.763566" y1="-6.580519" x2="106.767319" y2="-6.580286" style="stroke:rgb(255,0,0);stroke-width:.00002" />
    <line x1="106.763566" y1="-6.580519" x2="106.7654425" y2="-6.5804025" style="stroke:rgb(0,0,0);stroke-width:.00002" />
    <line x1="106.7654425" y1="-6.5804025" x2="106.7654425" y2="-6.5804025" style="stroke:rgb(0,0,0);stroke-width:.00002" />
    <line x1="106.7654425" y1="-6.5804025" x2="106.767319" y2="-6.580286" style="stroke:rgb(0,0,0);stroke-width:.00002" />
    <circle cx="106.763566" cy="-6.580519" fill="rgb(255,0,0)" r=".0001" />
    <text x="106.763566" y="-6.580519" stroke="rgb(0,0,0)" transform="translate(106.763566 -6.580519),scale(0.00001 -0.00001),translate(-106.763566 6.580519),translate(106.7975 -6.592499999999999),rotate(0),translate(-106.7975 6.592499999999999)" >sind-barang-4</text>
    <line x1="106.767319" y1="-6.580286" x2="106.771102" y2="-6.584891" style="stroke:rgb(255,0,0);stroke-width:.00002" />
    <line x1="106.767319" y1="-6.580286" x2="106.7692105" y2="-6.5825885" style="stroke:rgb(0,0,0);stroke-width:.00002" />
    <line x1="106.7692105" y1="-6.5825885" x2="106.7692105" y2="-6.5825885" style="stroke:rgb(0,0,0);stroke-width:.00002" />
    <line x1="106.7692105" y1="-6.5825885" x2="106.771102" y2="-6.584891" style="stroke:rgb(0,0,0);stroke-width:.00002" />
    <circle cx="106.767319" cy="-6.580286" fill="rgb(255,0,0)" r=".0001" />
    <text x="106.767319" y="-6.580286" stroke="rgb(0,0,0)" transform="translate(106.767319 -6.580286),scale(0.00001 -0.00001),translate(-106.767319 6.580286),translate(106.7975 -6.592499999999999),rotate(0),translate(-106.7975 6.592499999999999)" >sind-barang-3</text>
    <line x1="106.771102" y1="-6.584891" x2="106.771794" y2="-6.585932" style="stroke:rgb(255,0,0);stroke-width:.00002" />
    <line x1="106.771102" y1="-6.584891" x2="106.77144799999999" y2="-6.585411499999999" style="stroke:rgb(0,0,0);stroke-width:.00002" />
    <line x1="106.77144799999999" y1="-6.585411499999999" x2="106.77144799999999" y2="-6.585411499999999" style="stroke:rgb(0,0,0);stroke-width:.00002" />
    <line x1="106.77144799999999" y1="-6.585411499999999" x2="106.771794" y2="-6.585932" style="stroke:rgb(0,0,0);stroke-width:.00002" />
    <circle cx="106.771102" cy="-6.584891" fill="rgb(255,0,0)" r=".0001" />
    <text x="106.771102" y="-6.584891" stroke="rgb(0,0,0)" transform="translate(106.771102 -6.584891),scale(0.00001 -0.00001),translate(-106.771102 6.584891),translate(106.7975 -6.592499999999999),rotate(0),translate(-106.7975 6.592499999999999)" >sind-barang-darulquran</text>
    <line x1="106.771794" y1="-6.585932" x2="106.772155" y2="-6.587779" style="stroke:rgb(255,0,0);stroke-width:.00002" />
    <line x1="106.771794" y1="-6.585932" x2="106.7719745" y2="-6.5868555" style="stroke:rgb(0,0,0);stroke-width:.00002" />
    <line x1="106.7719745" y1="-6.5868555" x2="106.7719745" y2="-6.5868555" style="stroke:rgb(0,0,0);stroke-width:.00002" />
    <line x1="106.7719745" y1="-6.5868555" x2="106.772155" y2="-6.587779" style="stroke:rgb(0,0,0);stroke-width:.00002" />
    <circle cx="106.771794" cy="-6.585932" fill="rgb(255,0,0)" r=".0001" />
    <text x="106.771794" y="-6.585932" stroke="rgb(0,0,0)" transform="translate(106.771794 -6.585932),scale(0.00001 -0.00001),translate(-106.771794 6.585932),translate(106.7975 -6.592499999999999),rotate(0),translate(-106.7975 6.592499999999999)" >sind-barang-2</text>
    <line x1="106.772155" y1="-6.587779" x2="106.779318" y2="-6.596113" style="stroke:rgb(255,0,0);stroke-width:.00002" />
    <line x1="106.772155" y1="-6.587779" x2="106.77560613651038" y2="-6.591794324818861" style="stroke:rgb(0,0,0);stroke-width:.00002" />
    <line x1="106.77560613651038" y1="-6.591794324818861" x2="106.77586686348961" y2="-6.592097675181139" style="stroke:rgb(0,0,0);stroke-width:.00002" />
    <line x1="106.77586686348961" y1="-6.592097675181139" x2="106.779318" y2="-6.596113" style="stroke:rgb(0,0,0);stroke-width:.00002" />
    <circle cx="106.772155" cy="-6.587779" fill="rgb(255,0,0)" r=".0001" />
    <text x="106.772155" y="-6.587779" stroke="rgb(0,0,0)" transform="translate(106.772155 -6.587779),scale(0.00001 -0.00001),translate(-106.772155 6.587779),translate(106.7975 -6.592499999999999),rotate(0),translate(-106.7975 6.592499999999999)" >sind-barang-1</text>
    <line x1="106.779318" y1="-6.596113" x2="106.7795" y2="-6.5961" style="stroke:rgb(255,0,0);stroke-width:.00002" />
    <line x1="106.779318" y1="-6.596113" x2="106.77920950826004" y2="-6.596120749409997" style="stroke:rgb(0,0,0);stroke-width:.00002" />
    <line x1="106.77920950826004" y1="-6.596120749409997" x2="106.77960849173996" y2="-6.596092250590002" style="stroke:rgb(0,0,0);stroke-width:.00002" />
    <line x1="106.77960849173996" y1="-6.596092250590002" x2="106.7795" y2="-6.5961" style="stroke:rgb(0,0,0);stroke-width:.00002" />
    <circle cx="106.779318" cy="-6.596113" fill="rgb(255,0,0)" r=".0001" />
    <text x="106.779318" y="-6.596113" stroke="rgb(0,0,0)" transform="translate(106.779318 -6.596113),scale(0.00001 -0.00001),translate(-106.779318 6.596113),translate(106.7975 -6.592499999999999),rotate(0),translate(-106.7975 6.592499999999999)" >abdullah-batu</text>
    <line x1="106.7795" y1="-6.5961" x2="106.7807" y2="-6.5963" style="stroke:rgb(255,0,0);stroke-width:.00002" />
    <line x1="106.7795" y1="-6.5961" x2="106.7801" y2="-6.5962" style="stroke:rgb(0,0,0);stroke-width:.00002" />
    <line x1="106.7801" y1="-6.5962" x2="106.7801" y2="-6.5962" style="stroke:rgb(0,0,0);stroke-width:.00002" />
    <line x1="106.7801" y1="-6.5962" x2="106.7807" y2="-6.5963" style="stroke:rgb(0,0,0);stroke-width:.00002" />
    <circle cx="106.7795" cy="-6.5961" fill="rgb(255,0,0)" r=".0001" />
    <text x="106.7795" y="-6.5961" stroke="rgb(0,0,0)" transform="translate(106.7795 -6.5961),scale(0.00001 -0.00001),translate(-106.7795 6.5961),translate(106.7975 -6.592499999999999),rotate(0),translate(-106.7975 6.592499999999999)" >gnbatu-2</text>
    <line x1="106.7807" y1="-6.5963" x2="106.7826" y2="-6.5944" style="stroke:rgb(255,0,0);stroke-width:.00002" />
    <line x1="106.7807" y1="-6.5963" x2="106.78165" y2="-6.59535" style="stroke:rgb(0,0,0);stroke-width:.00002" />
    <line x1="106.78165" y1="-6.59535" x2="106.78165" y2="-6.59535" style="stroke:rgb(0,0,0);stroke-width:.00002" />
    <line x1="106.78165" y1="-6.59535" x2="106.7826" y2="-6.5944" style="stroke:rgb(0,0,0);stroke-width:.00002" />
    <circle cx="106.7807" cy="-6.5963" fill="rgb(255,0,0)" r=".0001" />
    <text x="106.7807" y="-6.5963" stroke="rgb(0,0,0)" transform="translate(106.7807 -6.5963),scale(0.00001 -0.00001),translate(-106.7807 6.5963),translate(106.7975 -6.592499999999999),rotate(0),translate(-106.7975 6.592499999999999)" >gnbatu-1</text>
    <line x1="106.7826" y1="-6.5944" x2="106.7846" y2="-6.5953" style="stroke:rgb(255,0,0);stroke-width:.00002" />
    <line x1="106.7826" y1="-6.5944" x2="106.7836" y2="-6.59485" style="stroke:rgb(0,0,0);stroke-width:.00002" />
    <line x1="106.7836" y1="-6.59485" x2="106.7836" y2="-6.59485" style="stroke:rgb(0,0,0);stroke-width:.00002" />
    <line x1="106.7836" y1="-6.59485" x2="106.7846" y2="-6.5953" style="stroke:rgb(0,0,0);stroke-width:.00002" />
    <circle cx="106.7826" cy="-6.5944" fill="rgb(255,0,0)" r=".0001" />
    <text x="106.7826" y="-6.5944" stroke="rgb(0,0,0)" transform="translate(106.7826 -6.5944),scale(0.00001 -0.00001),translate(-106.7826 6.5944),translate(106.7975 -6.592499999999999),rotate(0),translate(-106.7975 6.592499999999999)" >veteran-gnbatu</text>
    <line x1="106.7846" y1="-6.5953" x2="106.7876" y2="-6.5956" style="stroke:rgb(255,0,0);stroke-width:.00002" />
    <line x1="106.7846" y1="-6.5953" x2="106.7861" y2="-6.59545" style="stroke:rgb(0,0,0);stroke-width:.00002" />
    <line x1="106.7861" y1="-6.59545" x2="106.7861" y2="-6.59545" style="stroke:rgb(0,0,0);stroke-width:.00002" />
    <line x1="106.7861" y1="-6.59545" x2="106.7876" y2="-6.5956" style="stroke:rgb(0,0,0);stroke-width:.00002" />
    <circle cx="106.7846" cy="-6.5953" fill="rgb(255,0,0)" r=".0001" />
    <text x="106.7846" y="-6.5953" stroke="rgb(0,0,0)" transform="translate(106.7846 -6.5953),scale(0.00001 -0.00001),translate(-106.7846 6.5953),translate(106.7975 -6.592499999999999),rotate(0),translate(-106.7975 6.592499999999999)" >veteran</text>
    <line x1="106.7876" y1="-6.5956" x2="106.7866" y2="-6.5932" style="stroke:rgb(255,0,0);stroke-width:.00002" />
    <line x1="106.7876" y1="-6.5956" x2="106.78717692307693" y2="-6.5945846153846155" style="stroke:rgb(0,0,0);stroke-width:.00002" />
    <line x1="106.78717692307693" y1="-6.5945846153846155" x2="106.78702307692309" y2="-6.594215384615385" style="stroke:rgb(0,0,0);stroke-width:.00002" />
    <line x1="106.78702307692309" y1="-6.594215384615385" x2="106.7866" y2="-6.5932" style="stroke:rgb(0,0,0);stroke-width:.00002" />
    <circle cx="106.7876" cy="-6.5956" fill="rgb(255,0,0)" r=".0001" />
    <text x="106.7876" y="-6.5956" stroke="rgb(0,0,0)" transform="translate(106.7876 -6.5956),scale(0.00001 -0.00001),translate(-106.7876 6.5956),translate(106.7975 -6.592499999999999),rotate(0),translate(-106.7975 6.592499999999999)" >veteran-kemerdekaan</text>
    <line x1="106.7866" y1="-6.5932" x2="106.7878" y2="-6.5931" style="stroke:rgb(255,0,0);stroke-width:.00002" />
    <line x1="106.7866" y1="-6.5932" x2="106.78700069084836" y2="-6.59316660909597" style="stroke:rgb(0,0,0);stroke-width:.00002" />
    <line x1="106.78700069084836" y1="-6.59316660909597" x2="106.78739930915167" y2="-6.593133390904029" style="stroke:rgb(0,0,0);stroke-width:.00002" />
    <line x1="106.78739930915167" y1="-6.593133390904029" x2="106.7878" y2="-6.5931" style="stroke:rgb(0,0,0);stroke-width:.00002" />
    <circle cx="106.7866" cy="-6.5932" fill="rgb(255,0,0)" r=".0001" />
    <text x="106.7866" y="-6.5932" stroke="rgb(0,0,0)" transform="translate(106.7866 -6.5932),scale(0.00001 -0.00001),translate(-106.7866 6.5932),translate(106.7975 -6.592499999999999),rotate(0),translate(-106.7975 6.592499999999999)" >kemerdekaan</text>
    <line x1="106.7878" y1="-6.5931" x2="106.7884" y2="-6.5955" style="stroke:rgb(255,0,0);stroke-width:.00002" />
    <line x1="106.7878" y1="-6.5931" x2="106.7881" y2="-6.5943000000000005" style="stroke:rgb(0,0,0);stroke-width:.00002" />
    <line x1="106.7881" y1="-6.5943000000000005" x2="106.7881" y2="-6.5943000000000005" style="stroke:rgb(0,0,0);stroke-width:.00002" />
    <line x1="106.7881" y1="-6.5943000000000005" x2="106.7884" y2="-6.5955" style="stroke:rgb(0,0,0);stroke-width:.00002" />
    <circle cx="106.7878" cy="-6.5931" fill="rgb(255,0,0)" r=".0001" />
    <text x="106.7878" y="-6.5931" stroke="rgb(0,0,0)" transform="translate(106.7878 -6.5931),scale(0.00001 -0.00001),translate(-106.7878 6.5931),translate(106.7975 -6.592499999999999),rotate(0),translate(-106.7975 6.592499999999999)" >merdeka</text>
    <line x1="106.7884" y1="-6.5955" x2="106.7895" y2="-6.5958" style="stroke:rgb(255,0,0);stroke-width:.00002" />
    <line x1="106.7884" y1="-6.5955" x2="106.78895" y2="-6.59565" style="stroke:rgb(0,0,0);stroke-width:.00002" />
    <line x1="106.78895" y1="-6.59565" x2="106.78895" y2="-6.59565" style="stroke:rgb(0,0,0);stroke-width:.00002" />
    <line x1="106.78895" y1="-6.59565" x2="106.7895" y2="-6.5958" style="stroke:rgb(0,0,0);stroke-width:.00002" />
    <circle cx="106.7884" cy="-6.5955" fill="rgb(255,0,0)" r=".0001" />
    <text x="106.7884" y="-6.5955" stroke="rgb(0,0,0)" transform="translate(106.7884 -6.5955),scale(0.00001 -0.00001),translate(-106.7884 6.5955),translate(106.7975 -6.592499999999999),rotate(0),translate(-106.7975 6.592499999999999)" >veteran-merdeka</text>
    <line x1="106.7895" y1="-6.5958" x2="106.7897" y2="-6.5959" style="stroke:rgb(255,0,0);stroke-width:.00002" />
    <line x1="106.7895" y1="-6.5958" x2="106.7894211145618" y2="-6.595760557280897" style="stroke:rgb(0,0,0);stroke-width:.00002" />
    <line x1="106.7894211145618" y1="-6.595760557280897" x2="106.78977888543821" y2="-6.595939442719104" style="stroke:rgb(0,0,0);stroke-width:.00002" />
    <line x1="106.78977888543821" y1="-6.595939442719104" x2="106.7897" y2="-6.5959" style="stroke:rgb(0,0,0);stroke-width:.00002" />
    <circle cx="106.7895" cy="-6.5958" fill="rgb(255,0,0)" r=".0001" />
    <text x="106.7895" y="-6.5958" stroke="rgb(0,0,0)" transform="translate(106.7895 -6.5958),scale(0.00001 -0.00001),translate(-106.7895 6.5958),translate(106.7975 -6.592499999999999),rotate(0),translate(-106.7975 6.592499999999999)" >muslihat-oking</text>
    <line x1="106.7897" y1="-6.5959" x2="106.7915" y2="-6.5963" style="stroke:rgb(255,0,0);stroke-width:.00002" />
    <line x1="106.7897" y1="-6.5959" x2="106.79040476258795" y2="-6.596056613908436" style="stroke:rgb(0,0,0);stroke-width:.00002" />
    <line x1="106.79040476258795" y1="-6.596056613908436" x2="106.79079523741204" y2="-6.596143386091564" style="stroke:rgb(0,0,0);stroke-width:.00002" />
    <line x1="106.79079523741204" y1="-6.596143386091564" x2="106.7915" y2="-6.5963" style="stroke:rgb(0,0,0);stroke-width:.00002" />
    <circle cx="106.7897" cy="-6.5959" fill="rgb(255,0,0)" r=".0001" />
    <text x="106.7897" y="-6.5959" stroke="rgb(0,0,0)" transform="translate(106.7897 -6.5959),scale(0.00001 -0.00001),translate(-106.7897 6.5959),translate(106.7975 -6.592499999999999),rotate(0),translate(-106.7975 6.592499999999999)" >stasiun-paledang</text>
    <line x1="106.7915" y1="-6.5963" x2="106.7937" y2="-6.5969" style="stroke:rgb(255,0,0);stroke-width:.00002" />
    <line x1="106.7915" y1="-6.5963" x2="106.7926" y2="-6.5966000000000005" style="stroke:rgb(0,0,0);stroke-width:.00002" />
    <line x1="106.7926" y1="-6.5966000000000005" x2="106.7926" y2="-6.5966000000000005" style="stroke:rgb(0,0,0);stroke-width:.00002" />
    <line x1="106.7926" y1="-6.5966000000000005" x2="106.7937" y2="-6.5969" style="stroke:rgb(0,0,0);stroke-width:.00002" />
    <circle cx="106.7915" cy="-6.5963" fill="rgb(255,0,0)" r=".0001" />
    <text x="106.7915" y="-6.5963" stroke="rgb(0,0,0)" transform="translate(106.7915 -6.5963),scale(0.00001 -0.00001),translate(-106.7915 6.5963),translate(106.7975 -6.592499999999999),rotate(0),translate(-106.7975 6.592499999999999)" >muslihat-dewisartika</text>
    <line x1="106.7937" y1="-6.5969" x2="106.7946" y2="-6.5945" style="stroke:rgb(255,0,0);stroke-width:.00002" />
    <line x1="106.7937" y1="-6.5969" x2="106.79386910124673" y2="-6.596449063342055" style="stroke:rgb(0,0,0);stroke-width:.00002" />
    <line x1="106.79386910124673" y1="-6.596449063342055" x2="106.79443089875328" y2="-6.594950936657945" style="stroke:rgb(0,0,0);stroke-width:.00002" />
    <line x1="106.79443089875328" y1="-6.594950936657945" x2="106.7946" y2="-6.5945" style="stroke:rgb(0,0,0);stroke-width:.00002" />
    <circle cx="106.7937" cy="-6.5969" fill="rgb(255,0,0)" r=".0001" />
    <text x="106.7937" y="-6.5969" stroke="rgb(0,0,0)" transform="translate(106.7937 -6.5969),scale(0.00001 -0.00001),translate(-106.7937 6.5969),translate(106.7975 -6.592499999999999),rotate(0),translate(-106.7975 6.592499999999999)" >kb-muslihat</text>
    <line x1="106.7946" y1="-6.5945" x2="106.7973" y2="-6.593" style="stroke:rgb(255,0,0);stroke-width:.00002" />
    <line x1="106.7946" y1="-6.5945" x2="106.79542550563433" y2="-6.594041385758707" style="stroke:rgb(0,0,0);stroke-width:.00002" />
    <line x1="106.79542550563433" y1="-6.594041385758707" x2="106.79647449436568" y2="-6.593458614241293" style="stroke:rgb(0,0,0);stroke-width:.00002" />
    <line x1="106.79647449436568" y1="-6.593458614241293" x2="106.7973" y2="-6.593" style="stroke:rgb(0,0,0);stroke-width:.00002" />
    <circle cx="106.7946" cy="-6.5945" fill="rgb(255,0,0)" r=".0001" />
    <text x="106.7946" y="-6.5945" stroke="rgb(0,0,0)" transform="translate(106.7946 -6.5945),scale(0.00001 -0.00001),translate(-106.7946 6.5945),translate(106.7975 -6.592499999999999),rotate(0),translate(-106.7975 6.592499999999999)" >kb-gedong-sawah</text>
    <line x1="106.7973" y1="-6.593" x2="106.7984" y2="-6.5935" style="stroke:rgb(255,0,0);stroke-width:.00002" />
    <line x1="106.7973" y1="-6.593" x2="106.79785000000001" y2="-6.593249999999999" style="stroke:rgb(0,0,0);stroke-width:.00002" />
    <line x1="106.79785000000001" y1="-6.593249999999999" x2="106.79785000000001" y2="-6.593249999999999" style="stroke:rgb(0,0,0);stroke-width:.00002" />
    <line x1="106.79785000000001" y1="-6.593249999999999" x2="106.7984" y2="-6.5935" style="stroke:rgb(0,0,0);stroke-width:.00002" />
    <circle cx="106.7973" cy="-6.593" fill="rgb(255,0,0)" r=".0001" />
    <text x="106.7973" y="-6.593" stroke="rgb(0,0,0)" transform="translate(106.7973 -6.593),scale(0.00001 -0.00001),translate(-106.7973 6.593),translate(106.7975 -6.592499999999999),rotate(0),translate(-106.7975 6.592499999999999)" >kb-polisi-militer</text>
    <line x1="106.7984" y1="-6.5935" x2="106.800814" y2="-6.592262" style="stroke:rgb(255,0,0);stroke-width:.00002" />
    <line x1="106.7984" y1="-6.5935" x2="106.79960700000001" y2="-6.592881" style="stroke:rgb(0,0,0);stroke-width:.00002" />
    <line x1="106.79960700000001" y1="-6.592881" x2="106.79960700000001" y2="-6.592881" style="stroke:rgb(0,0,0);stroke-width:.00002" />
    <line x1="106.79960700000001" y1="-6.592881" x2="106.800814" y2="-6.592262" style="stroke:rgb(0,0,0);stroke-width:.00002" />
    <circle cx="106.7984" cy="-6.5935" fill="rgb(255,0,0)" r=".0001" />
    <text x="106.7984" y="-6.5935" stroke="rgb(0,0,0)" transform="translate(106.7984 -6.5935),scale(0.00001 -0.00001),translate(-106.7984 6.5935),translate(106.7975 -6.592499999999999),rotate(0),translate(-106.7975 6.592499999999999)" >kb-jalak-harupat</text>
    <line x1="106.800814" y1="-6.592262" x2="106.801806" y2="-6.592667" style="stroke:rgb(255,0,0);stroke-width:.00002" />
    <line x1="106.800814" y1="-6.592262" x2="106.80019902281535" y2="-6.592010925645376" style="stroke:rgb(0,0,0);stroke-width:.00002" />
    <line x1="106.80019902281535" y1="-6.592010925645376" x2="106.80242097718465" y2="-6.592918074354625" style="stroke:rgb(0,0,0);stroke-width:.00002" />
    <line x1="106.80242097718465" y1="-6.592918074354625" x2="106.801806" y2="-6.592667" style="stroke:rgb(0,0,0);stroke-width:.00002" />
    <circle cx="106.800814" cy="-6.592262" fill="rgb(255,0,0)" r=".0001" />
    <text x="106.800814" y="-6.592262" stroke="rgb(0,0,0)" transform="translate(106.800814 -6.592262),scale(0.00001 -0.00001),translate(-106.800814 6.592262),translate(106.7975 -6.592499999999999),rotate(0),translate(-106.7975 6.592499999999999)" >kb-sempur</text>
    <line x1="106.801806" y1="-6.592667" x2="106.802112" y2="-6.591937" style="stroke:rgb(255,0,0);stroke-width:.00002" />
    <line x1="106.801806" y1="-6.592667" x2="106.80134045913964" y2="-6.5937776040133" style="stroke:rgb(0,0,0);stroke-width:.00002" />
    <line x1="106.80134045913964" y1="-6.5937776040133" x2="106.80257754086036" y2="-6.5908263959867" style="stroke:rgb(0,0,0);stroke-width:.00002" />
    <line x1="106.80257754086036" y1="-6.5908263959867" x2="106.802112" y2="-6.591937" style="stroke:rgb(0,0,0);stroke-width:.00002" />
    <circle cx="106.801806" cy="-6.592667" fill="rgb(255,0,0)" r=".0001" />
    <text x="106.801806" y="-6.592667" stroke="rgb(0,0,0)" transform="translate(106.801806 -6.592667),scale(0.00001 -0.00001),translate(-106.801806 6.592667),translate(106.7975 -6.592499999999999),rotate(0),translate(-106.7975 6.592499999999999)" >kb-salak</text>
    <line x1="106.802112" y1="-6.591937" x2="106.802069" y2="-6.591191" style="stroke:rgb(255,0,0);stroke-width:.00002" />
    <line x1="106.802112" y1="-6.591937" x2="106.80209049999999" y2="-6.591564" style="stroke:rgb(0,0,0);stroke-width:.00002" />
    <line x1="106.80209049999999" y1="-6.591564" x2="106.80209049999999" y2="-6.591564" style="stroke:rgb(0,0,0);stroke-width:.00002" />
    <line x1="106.80209049999999" y1="-6.591564" x2="106.802069" y2="-6.591191" style="stroke:rgb(0,0,0);stroke-width:.00002" />
    <circle cx="106.802112" cy="-6.591937" fill="rgb(255,0,0)" r=".0001" />
    <text x="106.802112" y="-6.591937" stroke="rgb(0,0,0)" transform="translate(106.802112 -6.591937),scale(0.00001 -0.00001),translate(-106.802112 6.591937),translate(106.7975 -6.592499999999999),rotate(0),translate(-106.7975 6.592499999999999)" >salak-1</text>
    <line x1="106.802069" y1="-6.591191" x2="106.801645" y2="-6.589918" style="stroke:rgb(255,0,0);stroke-width:.00002" />
    <line x1="106.802069" y1="-6.591191" x2="106.801857" y2="-6.5905545" style="stroke:rgb(0,0,0);stroke-width:.00002" />
    <line x1="106.801857" y1="-6.5905545" x2="106.801857" y2="-6.5905545" style="stroke:rgb(0,0,0);stroke-width:.00002" />
    <line x1="106.801857" y1="-6.5905545" x2="106.801645" y2="-6.589918" style="stroke:rgb(0,0,0);stroke-width:.00002" />
    <circle cx="106.802069" cy="-6.591191" fill="rgb(255,0,0)" r=".0001" />
    <text x="106.802069" y="-6.591191" stroke="rgb(0,0,0)" transform="translate(106.802069 -6.591191),scale(0.00001 -0.00001),translate(-106.802069 6.591191),translate(106.7975 -6.592499999999999),rotate(0),translate(-106.7975 6.592499999999999)" >salak-2</text>
    <line x1="106.801645" y1="-6.589918" x2="106.8018" y2="-6.5893" style="stroke:rgb(255,0,0);stroke-width:.00002" />
    <line x1="106.801645" y1="-6.589918" x2="106.8017225" y2="-6.589608999999999" style="stroke:rgb(0,0,0);stroke-width:.00002" />
    <line x1="106.8017225" y1="-6.589608999999999" x2="106.8017225" y2="-6.589608999999999" style="stroke:rgb(0,0,0);stroke-width:.00002" />
    <line x1="106.8017225" y1="-6.589608999999999" x2="106.8018" y2="-6.5893" style="stroke:rgb(0,0,0);stroke-width:.00002" />
    <circle cx="106.801645" cy="-6.589918" fill="rgb(255,0,0)" r=".0001" />
    <text x="106.801645" y="-6.589918" stroke="rgb(0,0,0)" transform="translate(106.801645 -6.589918),scale(0.00001 -0.00001),translate(-106.801645 6.589918),translate(106.7975 -6.592499999999999),rotate(0),translate(-106.7975 6.592499999999999)" >salak-3</text>
    <line x1="106.8018" y1="-6.5893" x2="106.8024" y2="-6.5888" style="stroke:rgb(255,0,0);stroke-width:.00002" />
    <line x1="106.8018" y1="-6.5893" x2="106.8021" y2="-6.58905" style="stroke:rgb(0,0,0);stroke-width:.00002" />
    <line x1="106.8021" y1="-6.58905" x2="106.8021" y2="-6.58905" style="stroke:rgb(0,0,0);stroke-width:.00002" />
    <line x1="106.8021" y1="-6.58905" x2="106.8024" y2="-6.5888" style="stroke:rgb(0,0,0);stroke-width:.00002" />
    <circle cx="106.8018" cy="-6.5893" fill="rgb(255,0,0)" r=".0001" />
    <text x="106.8018" y="-6.5893" stroke="rgb(0,0,0)" transform="translate(106.8018 -6.5893),scale(0.00001 -0.00001),translate(-106.8018 6.5893),translate(106.7975 -6.592499999999999),rotate(0),translate(-106.7975 6.592499999999999)" >kencana-1</text>
    <line x1="106.8024" y1="-6.5888" x2="106.803" y2="-6.5884" style="stroke:rgb(255,0,0);stroke-width:.00002" />
    <line x1="106.8024" y1="-6.5888" x2="106.8027" y2="-6.5886" style="stroke:rgb(0,0,0);stroke-width:.00002" />
    <line x1="106.8027" y1="-6.5886" x2="106.8027" y2="-6.5886" style="stroke:rgb(0,0,0);stroke-width:.00002" />
    <line x1="106.8027" y1="-6.5886" x2="106.803" y2="-6.5884" style="stroke:rgb(0,0,0);stroke-width:.00002" />
    <circle cx="106.8024" cy="-6.5888" fill="rgb(255,0,0)" r=".0001" />
    <text x="106.8024" y="-6.5888" stroke="rgb(0,0,0)" transform="translate(106.8024 -6.5888),scale(0.00001 -0.00001),translate(-106.8024 6.5888),translate(106.7975 -6.592499999999999),rotate(0),translate(-106.7975 6.592499999999999)" >kencana-2</text>
    <line x1="106.803" y1="-6.5884" x2="106.8041" y2="-6.5883" style="stroke:rgb(255,0,0);stroke-width:.00002" />
    <line x1="106.803" y1="-6.5884" x2="106.80355" y2="-6.58835" style="stroke:rgb(0,0,0);stroke-width:.00002" />
    <line x1="106.80355" y1="-6.58835" x2="106.80355" y2="-6.58835" style="stroke:rgb(0,0,0);stroke-width:.00002" />
    <line x1="106.80355" y1="-6.58835" x2="106.8041" y2="-6.5883" style="stroke:rgb(0,0,0);stroke-width:.00002" />
    <circle cx="106.803" cy="-6.5884" fill="rgb(255,0,0)" r=".0001" />
    <text x="106.803" y="-6.5884" stroke="rgb(0,0,0)" transform="translate(106.803 -6.5884),scale(0.00001 -0.00001),translate(-106.803 6.5884),translate(106.7975 -6.592499999999999),rotate(0),translate(-106.7975 6.592499999999999)" >salak-4</text>
    <line x1="106.8041" y1="-6.5883" x2="106.8049" y2="-6.5886" style="stroke:rgb(255,0,0);stroke-width:.00002" />
    <line x1="106.8041" y1="-6.5883" x2="106.8045" y2="-6.58845" style="stroke:rgb(0,0,0);stroke-width:.00002" />
    <line x1="106.8045" y1="-6.58845" x2="106.8045" y2="-6.58845" style="stroke:rgb(0,0,0);stroke-width:.00002" />
    <line x1="106.8045" y1="-6.58845" x2="106.8049" y2="-6.5886" style="stroke:rgb(0,0,0);stroke-width:.00002" />
    <circle cx="106.8041" cy="-6.5883" fill="rgb(255,0,0)" r=".0001" />
    <text x="106.8041" y="-6.5883" stroke="rgb(0,0,0)" transform="translate(106.8041 -6.5883),scale(0.00001 -0.00001),translate(-106.8041 6.5883),translate(106.7975 -6.592499999999999),rotate(0),translate(-106.7975 6.592499999999999)" >salak-5</text>
    <line x1="106.8049" y1="-6.5886" x2="106.8046" y2="-6.5922" style="stroke:rgb(255,0,0);stroke-width:.00002" />
    <line x1="106.8049" y1="-6.5886" x2="106.80475" y2="-6.5904" style="stroke:rgb(0,0,0);stroke-width:.00002" />
    <line x1="106.80475" y1="-6.5904" x2="106.80475" y2="-6.5904" style="stroke:rgb(0,0,0);stroke-width:.00002" />
    <line x1="106.80475" y1="-6.5904" x2="106.8046" y2="-6.5922" style="stroke:rgb(0,0,0);stroke-width:.00002" />
    <circle cx="106.8049" cy="-6.5886" fill="rgb(255,0,0)" r=".0001" />
    <text x="106.8049" y="-6.5886" stroke="rgb(0,0,0)" transform="translate(106.8049 -6.5886),scale(0.00001 -0.00001),translate(-106.8049 6.5886),translate(106.7975 -6.592499999999999),rotate(0),translate(-106.7975 6.592499999999999)" >salak-pajajaran</text>
    <line x1="106.8046" y1="-6.5922" x2="106.8044" y2="-6.5959" style="stroke:rgb(255,0,0);stroke-width:.00002" />
    <line x1="106.8046" y1="-6.5922" x2="106.80449999999999" y2="-6.59405" style="stroke:rgb(0,0,0);stroke-width:.00002" />
    <line x1="106.80449999999999" y1="-6.59405" x2="106.80449999999999" y2="-6.59405" style="stroke:rgb(0,0,0);stroke-width:.00002" />
    <line x1="106.80449999999999" y1="-6.59405" x2="106.8044" y2="-6.5959" style="stroke:rgb(0,0,0);stroke-width:.00002" />
    <circle cx="106.8046" cy="-6.5922" fill="rgb(255,0,0)" r=".0001" />
    <text x="106.8046" y="-6.5922" stroke="rgb(0,0,0)" transform="translate(106.8046 -6.5922),scale(0.00001 -0.00001),translate(-106.8046 6.5922),translate(106.7975 -6.592499999999999),rotate(0),translate(-106.7975 6.592499999999999)" >pangrango-pajajaran</text>
    <line x1="106.8044" y1="-6.5959" x2="106.8052" y2="-6.6009" style="stroke:rgb(255,0,0);stroke-width:.00002" />
    <line x1="106.8044" y1="-6.5959" x2="106.80461041139867" y2="-6.5972150712417" style="stroke:rgb(0,0,0);stroke-width:.00002" />
    <line x1="106.80461041139867" y1="-6.5972150712417" x2="106.80498958860133" y2="-6.5995849287583" style="stroke:rgb(0,0,0);stroke-width:.00002" />
    <line x1="106.80498958860133" y1="-6.5995849287583" x2="106.8052" y2="-6.6009" style="stroke:rgb(0,0,0);stroke-width:.00002" />
    <circle cx="106.8044" cy="-6.5959" fill="rgb(255,0,0)" r=".0001" />
    <text x="106.8044" y="-6.5959" stroke="rgb(0,0,0)" transform="translate(106.8044 -6.5959),scale(0.00001 -0.00001),translate(-106.8044 6.5959),translate(106.7975 -6.592499999999999),rotate(0),translate(-106.7975 6.592499999999999)" >kb-astrid</text>
    <line x1="106.8052" y1="-6.6009" x2="106.805305" y2="-6.601624" style="stroke:rgb(255,0,0);stroke-width:.00002" />
    <line x1="106.8052" y1="-6.6009" x2="106.80508026869707" y2="-6.60007442415893" style="stroke:rgb(0,0,0);stroke-width:.00002" />
    <line x1="106.80508026869707" y1="-6.60007442415893" x2="106.80542473130292" y2="-6.60244957584107" style="stroke:rgb(0,0,0);stroke-width:.00002" />
    <line x1="106.80542473130292" y1="-6.60244957584107" x2="106.805305" y2="-6.601624" style="stroke:rgb(0,0,0);stroke-width:.00002" />
    <circle cx="106.8052" cy="-6.6009" fill="rgb(255,0,0)" r=".0001" />
    <text x="106.8052" y="-6.6009" stroke="rgb(0,0,0)" transform="translate(106.8052 -6.6009),scale(0.00001 -0.00001),translate(-106.8052 6.6009),translate(106.7975 -6.592499999999999),rotate(0),translate(-106.7975 6.592499999999999)" >kb-botani-1</text>
    <line x1="106.805305" y1="-6.601624" x2="106.8068" y2="-6.6043" style="stroke:rgb(255,0,0);stroke-width:.00002" />
    <line x1="106.805305" y1="-6.601624" x2="106.80605249999999" y2="-6.602962" style="stroke:rgb(0,0,0);stroke-width:.00002" />
    <line x1="106.80605249999999" y1="-6.602962" x2="106.80605249999999" y2="-6.602962" style="stroke:rgb(0,0,0);stroke-width:.00002" />
    <line x1="106.80605249999999" y1="-6.602962" x2="106.8068" y2="-6.6043" style="stroke:rgb(0,0,0);stroke-width:.00002" />
    <circle cx="106.805305" cy="-6.601624" fill="rgb(255,0,0)" r=".0001" />
    <text x="106.805305" y="-6.601624" stroke="rgb(0,0,0)" transform="translate(106.805305 -6.601624),scale(0.00001 -0.00001),translate(-106.805305 6.601624),translate(106.7975 -6.592499999999999),rotate(0),translate(-106.7975 6.592499999999999)" >pajajaran-otista</text>
    <line x1="106.8068" y1="-6.6043" x2="106.8111" y2="-6.6017" style="stroke:rgb(255,0,0);stroke-width:.00002" />
    <line x1="106.8068" y1="-6.6043" x2="106.80895" y2="-6.603" style="stroke:rgb(0,0,0);stroke-width:.00002" />
    <line x1="106.80895" y1="-6.603" x2="106.80895" y2="-6.603" style="stroke:rgb(0,0,0);stroke-width:.00002" />
    <line x1="106.80895" y1="-6.603" x2="106.8111" y2="-6.6017" style="stroke:rgb(0,0,0);stroke-width:.00002" />
    <circle cx="106.8068" cy="-6.6043" fill="rgb(255,0,0)" r=".0001" />
    <text x="106.8068" y="-6.6043" stroke="rgb(0,0,0)" transform="translate(106.8068 -6.6043),scale(0.00001 -0.00001),translate(-106.8068 6.6043),translate(106.7975 -6.592499999999999),rotate(0),translate(-106.7975 6.592499999999999)" >tol-1</text>
    <line x1="106.8111" y1="-6.6017" x2="106.8071" y2="-6.6045" style="stroke:rgb(255,0,0);stroke-width:.00002" />
    <line x1="106.8111" y1="-6.6017" x2="106.8091" y2="-6.6030999999999995" style="stroke:rgb(0,0,0);stroke-width:.00002" />
    <line x1="106.8091" y1="-6.6030999999999995" x2="106.8091" y2="-6.6030999999999995" style="stroke:rgb(0,0,0);stroke-width:.00002" />
    <line x1="106.8091" y1="-6.6030999999999995" x2="106.8071" y2="-6.6045" style="stroke:rgb(0,0,0);stroke-width:.00002" />
    <circle cx="106.8111" cy="-6.6017" fill="rgb(255,0,0)" r=".0001" />
    <text x="106.8111" y="-6.6017" stroke="rgb(0,0,0)" transform="translate(106.8111 -6.6017),scale(0.00001 -0.00001),translate(-106.8111 6.6017),translate(106.7975 -6.592499999999999),rotate(0),translate(-106.7975 6.592499999999999)" >tol-2</text>
    <line x1="106.8071" y1="-6.6045" x2="106.8087" y2="-6.6066" style="stroke:rgb(255,0,0);stroke-width:.00002" />
    <line x1="106.8071" y1="-6.6045" x2="106.8079" y2="-6.60555" style="stroke:rgb(0,0,0);stroke-width:.00002" />
    <line x1="106.8079" y1="-6.60555" x2="106.8079" y2="-6.60555" style="stroke:rgb(0,0,0);stroke-width:.00002" />
    <line x1="106.8079" y1="-6.60555" x2="106.8087" y2="-6.6066" style="stroke:rgb(0,0,0);stroke-width:.00002" />
    <circle cx="106.8071" cy="-6.6045" fill="rgb(255,0,0)" r=".0001" />
    <text x="106.8071" y="-6.6045" stroke="rgb(0,0,0)" transform="translate(106.8071 -6.6045),scale(0.00001 -0.00001),translate(-106.8071 6.6045),translate(106.7975 -6.592499999999999),rotate(0),translate(-106.7975 6.592499999999999)" >tol-3</text>
    <line x1="106.8087" y1="-6.6066" x2="106.8099" y2="-6.6078" style="stroke:rgb(255,0,0);stroke-width:.00002" />
    <line x1="106.8087" y1="-6.6066" x2="106.80930000000001" y2="-6.607200000000001" style="stroke:rgb(0,0,0);stroke-width:.00002" />
    <line x1="106.80930000000001" y1="-6.607200000000001" x2="106.80930000000001" y2="-6.607200000000001" style="stroke:rgb(0,0,0);stroke-width:.00002" />
    <line x1="106.80930000000001" y1="-6.607200000000001" x2="106.8099" y2="-6.6078" style="stroke:rgb(0,0,0);stroke-width:.00002" />
    <circle cx="106.8087" cy="-6.6066" fill="rgb(255,0,0)" r=".0001" />
    <text x="106.8087" y="-6.6066" stroke="rgb(0,0,0)" transform="translate(106.8087 -6.6066),scale(0.00001 -0.00001),translate(-106.8087 6.6066),translate(106.7975 -6.592499999999999),rotate(0),translate(-106.7975 6.592499999999999)" >bangka-1</text>
    <line x1="106.8099" y1="-6.6078" x2="106.8105" y2="-6.6087" style="stroke:rgb(255,0,0);stroke-width:.00002" />
    <line x1="106.8099" y1="-6.6078" x2="106.81020000000001" y2="-6.60825" style="stroke:rgb(0,0,0);stroke-width:.00002" />
    <line x1="106.81020000000001" y1="-6.60825" x2="106.81020000000001" y2="-6.60825" style="stroke:rgb(0,0,0);stroke-width:.00002" />
    <line x1="106.81020000000001" y1="-6.60825" x2="106.8105" y2="-6.6087" style="stroke:rgb(0,0,0);stroke-width:.00002" />
    <circle cx="106.8099" cy="-6.6078" fill="rgb(255,0,0)" r=".0001" />
    <text x="106.8099" y="-6.6078" stroke="rgb(0,0,0)" transform="translate(106.8099 -6.6078),scale(0.00001 -0.00001),translate(-106.8099 6.6078),translate(106.7975 -6.592499999999999),rotate(0),translate(-106.7975 6.592499999999999)" >pajajaran-ciheuleut</text>
    <line x1="106.8105" y1="-6.6087" x2="106.8099" y2="-6.6078" style="stroke:rgb(255,0,0);stroke-width:.00002" />
    <line x1="106.8105" y1="-6.6087" x2="106.81020000000001" y2="-6.60825" style="stroke:rgb(0,0,0);stroke-width:.00002" />
    <line x1="106.81020000000001" y1="-6.60825" x2="106.81020000000001" y2="-6.60825" style="stroke:rgb(0,0,0);stroke-width:.00002" />
    <line x1="106.81020000000001" y1="-6.60825" x2="106.8099" y2="-6.6078" style="stroke:rgb(0,0,0);stroke-width:.00002" />
    <circle cx="106.8105" cy="-6.6087" fill="rgb(255,0,0)" r=".0001" />
    <text x="106.8105" y="-6.6087" stroke="rgb(0,0,0)" transform="translate(106.8105 -6.6087),scale(0.00001 -0.00001),translate(-106.8105 6.6087),translate(106.7975 -6.592499999999999),rotate(0),translate(-106.7975 6.592499999999999)" >pajajaran-michelle-bakery</text>
    <line x1="106.8099" y1="-6.6078" x2="106.8087" y2="-6.6066" style="stroke:rgb(255,0,0);stroke-width:.00002" />
    <line x1="106.8099" y1="-6.6078" x2="106.80958284271249" y2="-6.607482842712476" style="stroke:rgb(0,0,0);stroke-width:.00002" />
    <line x1="106.80958284271249" y1="-6.607482842712476" x2="106.80901715728753" y2="-6.606917157287525" style="stroke:rgb(0,0,0);stroke-width:.00002" />
    <line x1="106.80901715728753" y1="-6.606917157287525" x2="106.8087" y2="-6.6066" style="stroke:rgb(0,0,0);stroke-width:.00002" />
    <circle cx="106.8099" cy="-6.6078" fill="rgb(255,0,0)" r=".0001" />
    <text x="106.8099" y="-6.6078" stroke="rgb(0,0,0)" transform="translate(106.8099 -6.6078),scale(0.00001 -0.00001),translate(-106.8099 6.6078),translate(106.7975 -6.592499999999999),rotate(0),translate(-106.7975 6.592499999999999)" >pajajaran-ciheuleut</text>
    <line x1="106.8087" y1="-6.6066" x2="106.808" y2="-6.6069" style="stroke:rgb(255,0,0);stroke-width:.00002" />
    <line x1="106.8087" y1="-6.6066" x2="106.80871765801201" y2="-6.606592432280567" style="stroke:rgb(0,0,0);stroke-width:.00002" />
    <line x1="106.80871765801201" y1="-6.606592432280567" x2="106.807982341988" y2="-6.606907567719433" style="stroke:rgb(0,0,0);stroke-width:.00002" />
    <line x1="106.807982341988" y1="-6.606907567719433" x2="106.808" y2="-6.6069" style="stroke:rgb(0,0,0);stroke-width:.00002" />
    <circle cx="106.8087" cy="-6.6066" fill="rgb(255,0,0)" r=".0001" />
    <text x="106.8087" y="-6.6066" stroke="rgb(0,0,0)" transform="translate(106.8087 -6.6066),scale(0.00001 -0.00001),translate(-106.8087 6.6066),translate(106.7975 -6.592499999999999),rotate(0),translate(-106.7975 6.592499999999999)" >bangka-1</text>
    <line x1="106.808" y1="-6.6069" x2="106.8074" y2="-6.6065" style="stroke:rgb(255,0,0);stroke-width:.00002" />
    <line x1="106.808" y1="-6.6069" x2="106.80770000000001" y2="-6.6067" style="stroke:rgb(0,0,0);stroke-width:.00002" />
    <line x1="106.80770000000001" y1="-6.6067" x2="106.80770000000001" y2="-6.6067" style="stroke:rgb(0,0,0);stroke-width:.00002" />
    <line x1="106.80770000000001" y1="-6.6067" x2="106.8074" y2="-6.6065" style="stroke:rgb(0,0,0);stroke-width:.00002" />
    <circle cx="106.808" cy="-6.6069" fill="rgb(255,0,0)" r=".0001" />
    <text x="106.808" y="-6.6069" stroke="rgb(0,0,0)" transform="translate(106.808 -6.6069),scale(0.00001 -0.00001),translate(-106.808 6.6069),translate(106.7975 -6.592499999999999),rotate(0),translate(-106.7975 6.592499999999999)" >bangka-2</text>
    <line x1="106.8074" y1="-6.6065" x2="106.8067" y2="-6.6066" style="stroke:rgb(255,0,0);stroke-width:.00002" />
    <line x1="106.8074" y1="-6.6065" x2="106.80705" y2="-6.60655" style="stroke:rgb(0,0,0);stroke-width:.00002" />
    <line x1="106.80705" y1="-6.60655" x2="106.80705" y2="-6.60655" style="stroke:rgb(0,0,0);stroke-width:.00002" />
    <line x1="106.80705" y1="-6.60655" x2="106.8067" y2="-6.6066" style="stroke:rgb(0,0,0);stroke-width:.00002" />
    <circle cx="106.8074" cy="-6.6065" fill="rgb(255,0,0)" r=".0001" />
    <text x="106.8074" y="-6.6065" stroke="rgb(0,0,0)" transform="translate(106.8074 -6.6065),scale(0.00001 -0.00001),translate(-106.8074 6.6065),translate(106.7975 -6.592499999999999),rotate(0),translate(-106.7975 6.592499999999999)" >bangka-3</text>
    <line x1="106.8067" y1="-6.6066" x2="106.8058" y2="-6.6052" style="stroke:rgb(255,0,0);stroke-width:.00002" />
    <line x1="106.8067" y1="-6.6066" x2="106.80625" y2="-6.6059" style="stroke:rgb(0,0,0);stroke-width:.00002" />
    <line x1="106.80625" y1="-6.6059" x2="106.80625" y2="-6.6059" style="stroke:rgb(0,0,0);stroke-width:.00002" />
    <line x1="106.80625" y1="-6.6059" x2="106.8058" y2="-6.6052" style="stroke:rgb(0,0,0);stroke-width:.00002" />
    <circle cx="106.8067" cy="-6.6066" fill="rgb(255,0,0)" r=".0001" />
    <text x="106.8067" y="-6.6066" stroke="rgb(0,0,0)" transform="translate(106.8067 -6.6066),scale(0.00001 -0.00001),translate(-106.8067 6.6066),translate(106.7975 -6.592499999999999),rotate(0),translate(-106.7975 6.592499999999999)" >bangka-5</text>
    <line x1="106.8058" y1="-6.6052" x2="106.8051" y2="-6.6052" style="stroke:rgb(255,0,0);stroke-width:.00002" />
    <line x1="106.8058" y1="-6.6052" x2="106.80545000000001" y2="-6.6052" style="stroke:rgb(0,0,0);stroke-width:.00002" />
    <line x1="106.80545000000001" y1="-6.6052" x2="106.80545000000001" y2="-6.6052" style="stroke:rgb(0,0,0);stroke-width:.00002" />
    <line x1="106.80545000000001" y1="-6.6052" x2="106.8051" y2="-6.6052" style="stroke:rgb(0,0,0);stroke-width:.00002" />
    <circle cx="106.8058" cy="-6.6052" fill="rgb(255,0,0)" r=".0001" />
    <text x="106.8058" y="-6.6052" stroke="rgb(0,0,0)" transform="translate(106.8058 -6.6052),scale(0.00001 -0.00001),translate(-106.8058 6.6052),translate(106.7975 -6.592499999999999),rotate(0),translate(-106.7975 6.592499999999999)" >bangka-6</text>
    <line x1="106.8051" y1="-6.6052" x2="106.804329" y2="-6.601646" style="stroke:rgb(255,0,0);stroke-width:.00002" />
    <line x1="106.8051" y1="-6.6052" x2="106.80471449999999" y2="-6.603422999999999" style="stroke:rgb(0,0,0);stroke-width:.00002" />
    <line x1="106.80471449999999" y1="-6.603422999999999" x2="106.80471449999999" y2="-6.603422999999999" style="stroke:rgb(0,0,0);stroke-width:.00002" />
    <line x1="106.80471449999999" y1="-6.603422999999999" x2="106.804329" y2="-6.601646" style="stroke:rgb(0,0,0);stroke-width:.00002" />
    <circle cx="106.8051" cy="-6.6052" fill="rgb(255,0,0)" r=".0001" />
    <text x="106.8051" y="-6.6052" stroke="rgb(0,0,0)" transform="translate(106.8051 -6.6052),scale(0.00001 -0.00001),translate(-106.8051 6.6052),translate(106.7975 -6.592499999999999),rotate(0),translate(-106.7975 6.592499999999999)" >bangka-7</text>
    <line x1="106.804329" y1="-6.601646" x2="106.7999" y2="-6.6027" style="stroke:rgb(255,0,0);stroke-width:.00002" />
    <line x1="106.804329" y1="-6.601646" x2="106.80250363285319" y2="-6.6020803953426785" style="stroke:rgb(0,0,0);stroke-width:.00002" />
    <line x1="106.80250363285319" y1="-6.6020803953426785" x2="106.80172536714679" y2="-6.602265604657321" style="stroke:rgb(0,0,0);stroke-width:.00002" />
    <line x1="106.80172536714679" y1="-6.602265604657321" x2="106.7999" y2="-6.6027" style="stroke:rgb(0,0,0);stroke-width:.00002" />
    <circle cx="106.804329" cy="-6.601646" fill="rgb(255,0,0)" r=".0001" />
    <text x="106.804329" y="-6.601646" stroke="rgb(0,0,0)" transform="translate(106.804329 -6.601646),scale(0.00001 -0.00001),translate(-106.804329 6.601646),translate(106.7975 -6.592499999999999),rotate(0),translate(-106.7975 6.592499999999999)" >bangka-otista</text>
    <line x1="106.7999" y1="-6.6027" x2="106.7996" y2="-6.6027" style="stroke:rgb(255,0,0);stroke-width:.00002" />
    <line x1="106.7999" y1="-6.6027" x2="106.79974999999999" y2="-6.6027" style="stroke:rgb(0,0,0);stroke-width:.00002" />
    <line x1="106.79974999999999" y1="-6.6027" x2="106.79974999999999" y2="-6.6027" style="stroke:rgb(0,0,0);stroke-width:.00002" />
    <line x1="106.79974999999999" y1="-6.6027" x2="106.7996" y2="-6.6027" style="stroke:rgb(0,0,0);stroke-width:.00002" />
    <circle cx="106.7999" cy="-6.6027" fill="rgb(255,0,0)" r=".0001" />
    <text x="106.7999" y="-6.6027" stroke="rgb(0,0,0)" transform="translate(106.7999 -6.6027),scale(0.00001 -0.00001),translate(-106.7999 6.6027),translate(106.7975 -6.592499999999999),rotate(0),translate(-106.7975 6.592499999999999)" >otista-roda</text>
    <line x1="106.7996" y1="-6.6027" x2="106.7988" y2="-6.6031" style="stroke:rgb(255,0,0);stroke-width:.00002" />
    <line x1="106.7996" y1="-6.6027" x2="106.7995577708764" y2="-6.602721114561799" style="stroke:rgb(0,0,0);stroke-width:.00002" />
    <line x1="106.7995577708764" y1="-6.602721114561799" x2="106.7988422291236" y2="-6.603078885438201" style="stroke:rgb(0,0,0);stroke-width:.00002" />
    <line x1="106.7988422291236" y1="-6.603078885438201" x2="106.7988" y2="-6.6031" style="stroke:rgb(0,0,0);stroke-width:.00002" />
    <circle cx="106.7996" cy="-6.6027" fill="rgb(255,0,0)" r=".0001" />
    <text x="106.7996" y="-6.6027" stroke="rgb(0,0,0)" transform="translate(106.7996 -6.6027),scale(0.00001 -0.00001),translate(-106.7996 6.6027),translate(106.7975 -6.592499999999999),rotate(0),translate(-106.7975 6.592499999999999)" >kb-otista</text>
    <line x1="106.7988" y1="-6.6031" x2="106.797256" y2="-6.603941" style="stroke:rgb(255,0,0);stroke-width:.00002" />
    <line x1="106.7988" y1="-6.6031" x2="106.798028" y2="-6.6035205" style="stroke:rgb(0,0,0);stroke-width:.00002" />
    <line x1="106.798028" y1="-6.6035205" x2="106.798028" y2="-6.6035205" style="stroke:rgb(0,0,0);stroke-width:.00002" />
    <line x1="106.798028" y1="-6.6035205" x2="106.797256" y2="-6.603941" style="stroke:rgb(0,0,0);stroke-width:.00002" />
    <circle cx="106.7988" cy="-6.6031" fill="rgb(255,0,0)" r=".0001" />
    <text x="106.7988" y="-6.6031" stroke="rgb(0,0,0)" transform="translate(106.7988 -6.6031),scale(0.00001 -0.00001),translate(-106.7988 6.6031),translate(106.7975 -6.592499999999999),rotate(0),translate(-106.7975 6.592499999999999)" >kb-suryakencana</text>
    <line x1="106.797256" y1="-6.603941" x2="106.7967" y2="-6.6042" style="stroke:rgb(255,0,0);stroke-width:.00002" />
    <line x1="106.797256" y1="-6.603941" x2="106.796978" y2="-6.6040705" style="stroke:rgb(0,0,0);stroke-width:.00002" />
    <line x1="106.796978" y1="-6.6040705" x2="106.796978" y2="-6.6040705" style="stroke:rgb(0,0,0);stroke-width:.00002" />
    <line x1="106.796978" y1="-6.6040705" x2="106.7967" y2="-6.6042" style="stroke:rgb(0,0,0);stroke-width:.00002" />
    <circle cx="106.797256" cy="-6.603941" fill="rgb(255,0,0)" r=".0001" />
    <text x="106.797256" y="-6.603941" stroke="rgb(0,0,0)" transform="translate(106.797256 -6.603941),scale(0.00001 -0.00001),translate(-106.797256 6.603941),translate(106.7975 -6.592499999999999),rotate(0),translate(-106.7975 6.592499999999999)" >cincau-kb</text>
    <line x1="106.7967" y1="-6.6042" x2="106.7961" y2="-6.6038" style="stroke:rgb(255,0,0);stroke-width:.00002" />
    <line x1="106.7967" y1="-6.6042" x2="106.7964" y2="-6.603999999999999" style="stroke:rgb(0,0,0);stroke-width:.00002" />
    <line x1="106.7964" y1="-6.603999999999999" x2="106.7964" y2="-6.603999999999999" style="stroke:rgb(0,0,0);stroke-width:.00002" />
    <line x1="106.7964" y1="-6.603999999999999" x2="106.7961" y2="-6.6038" style="stroke:rgb(0,0,0);stroke-width:.00002" />
    <circle cx="106.7967" cy="-6.6042" fill="rgb(255,0,0)" r=".0001" />
    <text x="106.7967" y="-6.6042" stroke="rgb(0,0,0)" transform="translate(106.7967 -6.6042),scale(0.00001 -0.00001),translate(-106.7967 6.6042),translate(106.7975 -6.592499999999999),rotate(0),translate(-106.7975 6.592499999999999)" >kb-btm-1</text>
    <line x1="106.7961" y1="-6.6038" x2="106.7937" y2="-6.5969" style="stroke:rgb(255,0,0);stroke-width:.00002" />
    <line x1="106.7961" y1="-6.6038" x2="106.79542563299991" y2="-6.60186119487473" style="stroke:rgb(0,0,0);stroke-width:.00002" />
    <line x1="106.79542563299991" y1="-6.60186119487473" x2="106.79437436700009" y2="-6.598838805125269" style="stroke:rgb(0,0,0);stroke-width:.00002" />
    <line x1="106.79437436700009" y1="-6.598838805125269" x2="106.7937" y2="-6.5969" style="stroke:rgb(0,0,0);stroke-width:.00002" />
    <circle cx="106.7961" cy="-6.6038" fill="rgb(255,0,0)" r=".0001" />
    <text x="106.7961" y="-6.6038" stroke="rgb(0,0,0)" transform="translate(106.7961 -6.6038),scale(0.00001 -0.00001),translate(-106.7961 6.6038),translate(106.7975 -6.592499999999999),rotate(0),translate(-106.7975 6.592499999999999)" >kb-btm-2</text>
  </g>
</svg>
