<svg width="2000" height="3000" xmlns="http://www.w3.org/2000/svg" xmlns:xlink="http://www.w3.org/1999/xlink" >
  <g transform="rotate(30) translate(1000 0)">    <path d="M702.0788186659388 980.6796036914052 L716.7559726140382 984.509697649982 L715.1981944311103 1003.502003374543 L714.990610433972 1040.908639681559 L699.7719805052327 1041.2265583812448 L698.1766357825592 1070.7404357544622 L717.4034136718177 1190.907797563607 L727.6546457332245 1212.6916656940298 L904.2607445451978 1105.9065826915134 L735.4009800536687 1224.1084178357517 L821.3148566739648 1340.6018098632794 L843.8969480703662 1394.7988292149466 L870.8791125707194 1468.2502770211233 L872.8251407701038 1472.1423334197455 L867.9999999999666 1476.967474189683 L862.1614987469428 1471.128972936619 L841.0802115904659 1395.8386616634261 L818.6834903504092 1342.086530687085 L755.8982708787454 1255.9393690864292 L744.6880600508621 1260.7437451555145 L735.2895902072021 1254.4780985930877 L724.0178427515787 1256.088348229611 L710.3621463622289 1234.846153846165 L699.108344616377 1234.846153846165 L687.2338992559435 1182.8954553942813 L631.1124675620761 1194.8361855419073 L573.5921009263478 1224.5880993190324 L558.1762285056158 1214.3108510385932 L520.1602309748665 1105.0148581377823 L536.3374444061009 1061.8756223214905 L582.3282466589319 1036.325176625423 L600.7245589223231 1044.6871367451522 L636.7117871673855 1026.231383403315 L652.00684307122 1032.4758366705296 L672.2002347436273 1047.8516093059961 L691.288915612347 1033.254382759234 L695.5282887383873 982.3819052491075 L734.7070578955339 812.6072389014901 L762.2351969269658 687.4944288566182 L728.4325467097119 866.4801155022635 Z" stroke="purple" stroke-width="0.5" fill="none" />
  </g>
</svg>
