<svg width="1049.9999999998977" height="1849.9999999999961" xmlns="http://www.w3.org/2000/svg" xmlns:xlink="http://www.w3.org/1999/xlink" >
  <g transform="translate(524.9999999999488 924.9999999999981) rotate(30) scale(10000 -10000) translate(-106.8125 6.592499999999999)">
    <path d="M106.76 -6.5 L106.865 -6.5 L106.865 -6.685 L106.76 -6.685 Z" fill="none" stroke="black" stroke-width="0.001" transform="translate(106.8125 -6.592499999999999) rotate(30) translate(-106.8125 6.592499999999999)" />
    <path d="M106.79276715675014 -6.597079099750101 L106.7904388147498 -6.596497014250015 L106.78959259881307 -6.596285460265829 L106.78893236566047 -6.59608231160349 L106.78893236566047 -6.59608231160349 L106.78836442299252 -6.595907560013351 L106.78804961389383 -6.595946911150686 L106.78804961389383 -6.595946911150686 L106.78760496827809 -6.596002491852653 L106.78627910669424 -6.595668908181845 L106.78588109181815 -6.595629106694237 L106.78454765825836 -6.595495763338257 L106.78351792706454 -6.595032384301035 L106.78351792706454 -6.595032384301035 L106.78264381075205 -6.59463903196042 L106.78179142135623 -6.595491421356237 L106.78179142135623 -6.595491421356237 L106.78076864339553 -6.596514199316933 L106.78006712020255 -6.5963972787847664 L106.78006712020255 -6.5963972787847664 L106.77949055337662 -6.596301184313779 L106.77942324941 -6.596305991739966 L106.77942324941 -6.596305991739966 L106.77923190058294 -6.596319659513329 L106.77558482481885 -6.592076363489621 L106.77558482481885 -6.592076363489621 L106.7719688574321 -6.587869261409319 L106.77177821407179 -6.5868938644938195 L106.77177821407179 -6.5868938644938195 L106.77160536425974 -6.586009505483195 L106.7712814423984 -6.585522218405666 L106.7712814423984 -6.585522218405666 L106.77094104074406 -6.585010140194442 L106.76905596003998 -6.582715454325468 L106.76905596003998 -6.582715454325468 L106.7672293553008 -6.580491950539071 L106.76545489287282 -6.580602115672489 L106.76545489287282 -6.580602115672489 L106.76353187270067 -6.5807215038153375 L106.75836436858827 -6.5785615284404235 L106.75836436858827 -6.5785615284404235 L106.75318893749588 -6.576398239651293 L106.75218613676829 -6.575040840315892 L106.75218613676829 -6.575040840315892 L106.75108996954268 -6.5735570593187465 L106.75298929204507 -6.572083660932449 L106.75332464648108 -6.571865630195521 L106.755373 -6.571011 L106.75365169258647 -6.572368661849543 L106.75331633815047 -6.572586692586471 L106.75166403045733 -6.573660940681252 L106.75250786323171 -6.574803159684108 L106.75250786323171 -6.574803159684108 L106.75344506250411 -6.5760717603487056 L106.75851863141173 -6.578192471559576 L106.75851863141173 -6.578192471559576 L106.76360012729934 -6.580316496184661 L106.76543010712719 -6.580202884327511 L106.76543010712719 -6.580202884327511 L106.7674086446992 -6.580080049460929 L106.76936503996002 -6.582461545674532 L106.76936503996002 -6.582461545674532 L106.77126295925588 -6.584771859805479 L106.77161455760158 -6.5853007815943325 L106.77161455760158 -6.5853007815943325 L106.77198263574024 -6.585854494516794 L106.77217078592821 -6.586817135506181 L106.77217078592821 -6.586817135506181 L106.7723411425679 -6.58768873859068 L106.77590948687265 -6.591533597839618 L106.77617021385188 -6.591836948201896 L106.77949019883413 -6.595699680973345 L106.77919525885004 -6.595921257670031 L106.77959424232996 -6.595892758850035 L106.77950944662338 -6.595898815686221 L106.78013287979746 -6.596002721215233 L106.78013287979746 -6.596002721215233 L106.78063135660446 -6.596085800683068 L106.78150857864377 -6.595208578643763 L106.78150857864377 -6.595208578643763 L106.78255618924796 -6.59416096803958 L106.78368207293548 -6.594667615698965 L106.78368207293548 -6.594667615698965 L106.78465234174165 -6.595104236661742 L106.78611990074381 -6.595250992561958 L106.78611990074381 -6.595250992561958 L106.7872865228207 -6.595367654769646 L106.78680769230769 -6.59473846153846 L106.78665384615385 -6.59436923076923 L106.78601957591168 -6.592846982188068 L106.7869840817524 -6.592967299944322 L106.7873827000557 -6.5929340817523805 L106.78795279866502 -6.592886573534936 L106.78829402850003 -6.594251492874994 L106.78829402850003 -6.594251492874994 L106.78856666209427 -6.595342027251949 L106.78910881716978 -6.595508844198257 L106.78910881716978 -6.595508844198257 L106.7897537005935 -6.595707269867095 L106.79174850712499 -6.596205971499971 L106.79174850712499 -6.596205971499971 L106.79357539029655 -6.59666269229286 L106.79370524364066 -6.595746816458878 L106.79384569301729 -6.59537228478785 L106.79427712881906 -6.594221789316482 L106.79439594262024 -6.593011822744607 L106.79614425717247 -6.5920405368822514 L106.79723693675099 -6.591433492671975 L106.79710515470028 -6.592472050464711 L106.79892588765519 -6.5932996563533175 L106.79838950700656 -6.59305584696758 L106.7994244673543 -6.592525076085026 L106.7994244673543 -6.592525076085026 L106.80079502046351 -6.591822199221224 L106.80146119145154 -6.592094174271781 L106.80146119145154 -6.592094174271781 L106.80200620240922 -6.592316683785753 L106.80259532086433 -6.592765253870861 L106.80259532086433 -6.592765253870861 L106.80320046597276 -6.593226027065864 L106.8039891993216 -6.594488000423998 L106.8039891993216 -6.594488000423998 L106.80478216758918 -6.595756749652118 L106.80519497625276 -6.598336803799557 L106.80519497625276 -6.598336803799557 L106.80562091291524 -6.600998907940034 L106.80522899433298 -6.601203500944504 L106.80499649905549 -6.601528994332986 L106.80481172440201 -6.601787678847864 L106.80476219897069 -6.601995350936507 L106.8043652386332 -6.602044569738458 L106.80440012773589 -6.602040243865891 L106.80235536875524 -6.602321264097941 L106.80196623590204 -6.602413868755263 L106.79992346997895 -6.6029 L106.79974999999999 -6.6029 L106.79974999999999 -6.6029 L106.7996472135955 -6.6029 L106.80143606797749 -6.603794427190996 L106.7985739009663 -6.6052255106966005 L106.80125282985715 -6.603886046251165 L106.79894847235795 -6.602525541828947 L106.80025855797513 -6.605000147994718 L106.80003454558567 -6.604577013481311 L106.80140877209423 -6.606245717098856 L106.80140877209423 -6.606245717098856 L106.8027897856254 -6.60792266210098 L106.80476758589263 -6.6097026823415 L106.80476758589263 -6.6097026823415 L106.80678955810784 -6.611522457335173 L106.80870838470065 -6.613845247421201 L106.80870838470065 -6.613845247421201 L106.81058819695374 -6.6161208096223225 L106.81266441221723 -6.617949856402066 L106.81266441221723 -6.617949856402066 L106.81528623604015 -6.620259558341303 L106.81357649110639 -6.62082947331922 L106.81357649110639 -6.62082947331922 L106.81278946629428 -6.621091814923261 L106.8127497259335 -6.622164804664204 L106.8127497259335 -6.622164804664204 L106.8126872782839 -6.623850891203308 L106.8112540452819 -6.624046332067217 L106.8112540452819 -6.624046332067217 L106.81042237515507 -6.624159741629968 L106.81038805700005 -6.6242970142500175 L106.81038805700005 -6.6242970142500175 L106.81025055062405 -6.624847039754028 L106.8098773500981 -6.624855470019624 L106.80954452998037 -6.625077350098112 L106.80925837245555 -6.625268121781329 L106.8089438262381 -6.624874939009511 L106.8089438262381 -6.624874939009511 L106.80870762312054 -6.624579685112547 L106.80855122325306 -6.623172086305216 L106.80855122325306 -6.623172086305216 L106.80841409359046 -6.621937919341792 L106.80817121614028 -6.621833829006004 L106.80817121614028 -6.621833829006004 L106.80774227825205 -6.621649998482474 L106.80721245024786 -6.620219462871166 L106.80721245024786 -6.620219462871166 L106.8067269034305 -6.618908486464283 L106.8055557225358 -6.617688506365638 L106.8055557225358 -6.617688506365638 L106.80433602879961 -6.616417992057097 L106.80377283369295 -6.615342801398934 L106.80377283369295 -6.615342801398934 L106.8032282937755 -6.614303225192925 L106.80248068920949 -6.6139189332538555 L106.80202894207702 -6.613258687444856 L106.80169609512467 -6.612772218822203 L106.8010585986716 -6.612247130923609 L106.80069745446409 -6.612075157491451 L106.79977961905907 -6.611638093012875 L106.79793899074586 -6.610053107520941 L106.79793899074586 -6.610053107520941 L106.79619872500719 -6.608554545357084 L106.7955235088936 -6.6083294733192215 L106.7955235088936 -6.6083294733192215 L106.79440734625899 -6.607957419107684 L106.79476625379938 -6.606737133470403 L106.79476625379938 -6.606737133470403 L106.79503795546141 -6.605813347819478 L106.79563547266447 -6.605052871379228 L106.79563547266447 -6.605052871379228 L106.7960288750937 -6.604552177378398 L106.7959422291236 -6.6043788854382 L106.7959422291236 -6.6043788854382 L106.79573068299977 -6.603955793190549 L106.7937830298752 -6.602009029155952 L106.79299458037535 -6.5997422368438565 L106.79247292342305 -6.598242473106012 Z" stroke="orange" stroke-width="0.0002" fill="none" />
    <circle 
      cx="106.755373" cy="-12.571011"
      r="15" transform="translate(106.755373 -6.571011) scale(0.00001 -0.00001) translate(-106.755373 6.571011) translate(106.8125 -6.592499999999999) rotate(-30) translate(-106.8125 6.592499999999999)"
      fill="white" stroke="black" stroke-width="2"/>
    <circle 
      cx="106.755373" cy="-12.571011"
      r="15" transform="translate(106.755373 -6.571011) scale(0.00001 -0.00001) translate(-106.755373 6.571011) translate(106.8125 -6.592499999999999) rotate(-30) translate(-106.8125 6.592499999999999)"
      fill="white" stroke="none"/>
    <text x="106.755373" y="-6.571011" fill="black" text-anchor="middle" transform="translate(106.755373 -6.571011) scale(0.00001 -0.00001) translate(-106.755373 6.571011) translate(106.8125 -6.592499999999999) rotate(-30) translate(-106.8125 6.592499999999999)">02</text>
    <line x1="106.7937" y1="-6.5969" x2="106.7897" y2="-6.5959" style="stroke:rgb(255,0,0);stroke-width:.00002" />
    <line x1="106.7937" y1="-6.5969" x2="106.79286417100016" y2="-6.596691042750043" style="stroke:rgb(0,0,0);stroke-width:.00002" />
    <line x1="106.79286417100016" y1="-6.596691042750043" x2="106.79053582899982" y2="-6.596108957249957" style="stroke:rgb(0,0,0);stroke-width:.00002" />
    <line x1="106.79053582899982" y1="-6.596108957249957" x2="106.7897" y2="-6.5959" style="stroke:rgb(0,0,0);stroke-width:.00002" />
    <circle cx="106.7937" cy="-6.5969" fill="rgb(255,0,0)" r=".0001" />
    <text x="106.7937" y="-6.5969" stroke="rgb(0,0,0)" transform="translate(106.7937 -6.5969),scale(0.00001 -0.00001),translate(-106.7937 6.5969),translate(106.8125 -6.592499999999999),rotate(-30),translate(-106.8125 6.592499999999999)" >kb-muslihat</text>
    <line x1="106.7897" y1="-6.5959" x2="106.7884" y2="-6.5955" style="stroke:rgb(255,0,0);stroke-width:.00002" />
    <line x1="106.7897" y1="-6.5959" x2="106.78905" y2="-6.595700000000001" style="stroke:rgb(0,0,0);stroke-width:.00002" />
    <line x1="106.78905" y1="-6.595700000000001" x2="106.78905" y2="-6.595700000000001" style="stroke:rgb(0,0,0);stroke-width:.00002" />
    <line x1="106.78905" y1="-6.595700000000001" x2="106.7884" y2="-6.5955" style="stroke:rgb(0,0,0);stroke-width:.00002" />
    <circle cx="106.7897" cy="-6.5959" fill="rgb(255,0,0)" r=".0001" />
    <text x="106.7897" y="-6.5959" stroke="rgb(0,0,0)" transform="translate(106.7897 -6.5959),scale(0.00001 -0.00001),translate(-106.7897 6.5959),translate(106.8125 -6.592499999999999),rotate(-30),translate(-106.8125 6.592499999999999)" >stasiun-paledang</text>
    <line x1="106.7884" y1="-6.5955" x2="106.7876" y2="-6.5956" style="stroke:rgb(255,0,0);stroke-width:.00002" />
    <line x1="106.7884" y1="-6.5955" x2="106.788" y2="-6.59555" style="stroke:rgb(0,0,0);stroke-width:.00002" />
    <line x1="106.788" y1="-6.59555" x2="106.788" y2="-6.59555" style="stroke:rgb(0,0,0);stroke-width:.00002" />
    <line x1="106.788" y1="-6.59555" x2="106.7876" y2="-6.5956" style="stroke:rgb(0,0,0);stroke-width:.00002" />
    <circle cx="106.7884" cy="-6.5955" fill="rgb(255,0,0)" r=".0001" />
    <text x="106.7884" y="-6.5955" stroke="rgb(0,0,0)" transform="translate(106.7884 -6.5955),scale(0.00001 -0.00001),translate(-106.7884 6.5955),translate(106.8125 -6.592499999999999),rotate(-30),translate(-106.8125 6.592499999999999)" >veteran-merdeka</text>
    <line x1="106.7876" y1="-6.5956" x2="106.7846" y2="-6.5953" style="stroke:rgb(255,0,0);stroke-width:.00002" />
    <line x1="106.7876" y1="-6.5956" x2="106.78629900743805" y2="-6.595469900743804" style="stroke:rgb(0,0,0);stroke-width:.00002" />
    <line x1="106.78629900743805" y1="-6.595469900743804" x2="106.78590099256196" y2="-6.595430099256196" style="stroke:rgb(0,0,0);stroke-width:.00002" />
    <line x1="106.78590099256196" y1="-6.595430099256196" x2="106.7846" y2="-6.5953" style="stroke:rgb(0,0,0);stroke-width:.00002" />
    <circle cx="106.7876" cy="-6.5956" fill="rgb(255,0,0)" r=".0001" />
    <text x="106.7876" y="-6.5956" stroke="rgb(0,0,0)" transform="translate(106.7876 -6.5956),scale(0.00001 -0.00001),translate(-106.7876 6.5956),translate(106.8125 -6.592499999999999),rotate(-30),translate(-106.8125 6.592499999999999)" >veteran-kemerdekaan</text>
    <line x1="106.7846" y1="-6.5953" x2="106.7826" y2="-6.5944" style="stroke:rgb(255,0,0);stroke-width:.00002" />
    <line x1="106.7846" y1="-6.5953" x2="106.7836" y2="-6.59485" style="stroke:rgb(0,0,0);stroke-width:.00002" />
    <line x1="106.7836" y1="-6.59485" x2="106.7836" y2="-6.59485" style="stroke:rgb(0,0,0);stroke-width:.00002" />
    <line x1="106.7836" y1="-6.59485" x2="106.7826" y2="-6.5944" style="stroke:rgb(0,0,0);stroke-width:.00002" />
    <circle cx="106.7846" cy="-6.5953" fill="rgb(255,0,0)" r=".0001" />
    <text x="106.7846" y="-6.5953" stroke="rgb(0,0,0)" transform="translate(106.7846 -6.5953),scale(0.00001 -0.00001),translate(-106.7846 6.5953),translate(106.8125 -6.592499999999999),rotate(-30),translate(-106.8125 6.592499999999999)" >veteran</text>
    <line x1="106.7826" y1="-6.5944" x2="106.7807" y2="-6.5963" style="stroke:rgb(255,0,0);stroke-width:.00002" />
    <line x1="106.7826" y1="-6.5944" x2="106.78165" y2="-6.59535" style="stroke:rgb(0,0,0);stroke-width:.00002" />
    <line x1="106.78165" y1="-6.59535" x2="106.78165" y2="-6.59535" style="stroke:rgb(0,0,0);stroke-width:.00002" />
    <line x1="106.78165" y1="-6.59535" x2="106.7807" y2="-6.5963" style="stroke:rgb(0,0,0);stroke-width:.00002" />
    <circle cx="106.7826" cy="-6.5944" fill="rgb(255,0,0)" r=".0001" />
    <text x="106.7826" y="-6.5944" stroke="rgb(0,0,0)" transform="translate(106.7826 -6.5944),scale(0.00001 -0.00001),translate(-106.7826 6.5944),translate(106.8125 -6.592499999999999),rotate(-30),translate(-106.8125 6.592499999999999)" >veteran-gnbatu</text>
    <line x1="106.7807" y1="-6.5963" x2="106.7795" y2="-6.5961" style="stroke:rgb(255,0,0);stroke-width:.00002" />
    <line x1="106.7807" y1="-6.5963" x2="106.7801" y2="-6.5962" style="stroke:rgb(0,0,0);stroke-width:.00002" />
    <line x1="106.7801" y1="-6.5962" x2="106.7801" y2="-6.5962" style="stroke:rgb(0,0,0);stroke-width:.00002" />
    <line x1="106.7801" y1="-6.5962" x2="106.7795" y2="-6.5961" style="stroke:rgb(0,0,0);stroke-width:.00002" />
    <circle cx="106.7807" cy="-6.5963" fill="rgb(255,0,0)" r=".0001" />
    <text x="106.7807" y="-6.5963" stroke="rgb(0,0,0)" transform="translate(106.7807 -6.5963),scale(0.00001 -0.00001),translate(-106.7807 6.5963),translate(106.8125 -6.592499999999999),rotate(-30),translate(-106.8125 6.592499999999999)" >gnbatu-1</text>
    <line x1="106.7795" y1="-6.5961" x2="106.779318" y2="-6.596113" style="stroke:rgb(255,0,0);stroke-width:.00002" />
    <line x1="106.7795" y1="-6.5961" x2="106.779409" y2="-6.596106499999999" style="stroke:rgb(0,0,0);stroke-width:.00002" />
    <line x1="106.779409" y1="-6.596106499999999" x2="106.779409" y2="-6.596106499999999" style="stroke:rgb(0,0,0);stroke-width:.00002" />
    <line x1="106.779409" y1="-6.596106499999999" x2="106.779318" y2="-6.596113" style="stroke:rgb(0,0,0);stroke-width:.00002" />
    <circle cx="106.7795" cy="-6.5961" fill="rgb(255,0,0)" r=".0001" />
    <text x="106.7795" y="-6.5961" stroke="rgb(0,0,0)" transform="translate(106.7795 -6.5961),scale(0.00001 -0.00001),translate(-106.7795 6.5961),translate(106.8125 -6.592499999999999),rotate(-30),translate(-106.8125 6.592499999999999)" >gnbatu-2</text>
    <line x1="106.779318" y1="-6.596113" x2="106.772155" y2="-6.587779" style="stroke:rgb(255,0,0);stroke-width:.00002" />
    <line x1="106.779318" y1="-6.596113" x2="106.7757365" y2="-6.591946" style="stroke:rgb(0,0,0);stroke-width:.00002" />
    <line x1="106.7757365" y1="-6.591946" x2="106.7757365" y2="-6.591946" style="stroke:rgb(0,0,0);stroke-width:.00002" />
    <line x1="106.7757365" y1="-6.591946" x2="106.772155" y2="-6.587779" style="stroke:rgb(0,0,0);stroke-width:.00002" />
    <circle cx="106.779318" cy="-6.596113" fill="rgb(255,0,0)" r=".0001" />
    <text x="106.779318" y="-6.596113" stroke="rgb(0,0,0)" transform="translate(106.779318 -6.596113),scale(0.00001 -0.00001),translate(-106.779318 6.596113),translate(106.8125 -6.592499999999999),rotate(-30),translate(-106.8125 6.592499999999999)" >abdullah-batu</text>
    <line x1="106.772155" y1="-6.587779" x2="106.771794" y2="-6.585932" style="stroke:rgb(255,0,0);stroke-width:.00002" />
    <line x1="106.772155" y1="-6.587779" x2="106.7719745" y2="-6.5868555" style="stroke:rgb(0,0,0);stroke-width:.00002" />
    <line x1="106.7719745" y1="-6.5868555" x2="106.7719745" y2="-6.5868555" style="stroke:rgb(0,0,0);stroke-width:.00002" />
    <line x1="106.7719745" y1="-6.5868555" x2="106.771794" y2="-6.585932" style="stroke:rgb(0,0,0);stroke-width:.00002" />
    <circle cx="106.772155" cy="-6.587779" fill="rgb(255,0,0)" r=".0001" />
    <text x="106.772155" y="-6.587779" stroke="rgb(0,0,0)" transform="translate(106.772155 -6.587779),scale(0.00001 -0.00001),translate(-106.772155 6.587779),translate(106.8125 -6.592499999999999),rotate(-30),translate(-106.8125 6.592499999999999)" >sind-barang-1</text>
    <line x1="106.771794" y1="-6.585932" x2="106.771102" y2="-6.584891" style="stroke:rgb(255,0,0);stroke-width:.00002" />
    <line x1="106.771794" y1="-6.585932" x2="106.77144799999999" y2="-6.585411499999999" style="stroke:rgb(0,0,0);stroke-width:.00002" />
    <line x1="106.77144799999999" y1="-6.585411499999999" x2="106.77144799999999" y2="-6.585411499999999" style="stroke:rgb(0,0,0);stroke-width:.00002" />
    <line x1="106.77144799999999" y1="-6.585411499999999" x2="106.771102" y2="-6.584891" style="stroke:rgb(0,0,0);stroke-width:.00002" />
    <circle cx="106.771794" cy="-6.585932" fill="rgb(255,0,0)" r=".0001" />
    <text x="106.771794" y="-6.585932" stroke="rgb(0,0,0)" transform="translate(106.771794 -6.585932),scale(0.00001 -0.00001),translate(-106.771794 6.585932),translate(106.8125 -6.592499999999999),rotate(-30),translate(-106.8125 6.592499999999999)" >sind-barang-2</text>
    <line x1="106.771102" y1="-6.584891" x2="106.767319" y2="-6.580286" style="stroke:rgb(255,0,0);stroke-width:.00002" />
    <line x1="106.771102" y1="-6.584891" x2="106.7692105" y2="-6.5825885" style="stroke:rgb(0,0,0);stroke-width:.00002" />
    <line x1="106.7692105" y1="-6.5825885" x2="106.7692105" y2="-6.5825885" style="stroke:rgb(0,0,0);stroke-width:.00002" />
    <line x1="106.7692105" y1="-6.5825885" x2="106.767319" y2="-6.580286" style="stroke:rgb(0,0,0);stroke-width:.00002" />
    <circle cx="106.771102" cy="-6.584891" fill="rgb(255,0,0)" r=".0001" />
    <text x="106.771102" y="-6.584891" stroke="rgb(0,0,0)" transform="translate(106.771102 -6.584891),scale(0.00001 -0.00001),translate(-106.771102 6.584891),translate(106.8125 -6.592499999999999),rotate(-30),translate(-106.8125 6.592499999999999)" >sind-barang-darulquran</text>
    <line x1="106.767319" y1="-6.580286" x2="106.763566" y2="-6.580519" style="stroke:rgb(255,0,0);stroke-width:.00002" />
    <line x1="106.767319" y1="-6.580286" x2="106.7654425" y2="-6.5804025" style="stroke:rgb(0,0,0);stroke-width:.00002" />
    <line x1="106.7654425" y1="-6.5804025" x2="106.7654425" y2="-6.5804025" style="stroke:rgb(0,0,0);stroke-width:.00002" />
    <line x1="106.7654425" y1="-6.5804025" x2="106.763566" y2="-6.580519" style="stroke:rgb(0,0,0);stroke-width:.00002" />
    <circle cx="106.767319" cy="-6.580286" fill="rgb(255,0,0)" r=".0001" />
    <text x="106.767319" y="-6.580286" stroke="rgb(0,0,0)" transform="translate(106.767319 -6.580286),scale(0.00001 -0.00001),translate(-106.767319 6.580286),translate(106.8125 -6.592499999999999),rotate(-30),translate(-106.8125 6.592499999999999)" >sind-barang-3</text>
    <line x1="106.763566" y1="-6.580519" x2="106.753317" y2="-6.576235" style="stroke:rgb(255,0,0);stroke-width:.00002" />
    <line x1="106.763566" y1="-6.580519" x2="106.7584415" y2="-6.578377" style="stroke:rgb(0,0,0);stroke-width:.00002" />
    <line x1="106.7584415" y1="-6.578377" x2="106.7584415" y2="-6.578377" style="stroke:rgb(0,0,0);stroke-width:.00002" />
    <line x1="106.7584415" y1="-6.578377" x2="106.753317" y2="-6.576235" style="stroke:rgb(0,0,0);stroke-width:.00002" />
    <circle cx="106.763566" cy="-6.580519" fill="rgb(255,0,0)" r=".0001" />
    <text x="106.763566" y="-6.580519" stroke="rgb(0,0,0)" transform="translate(106.763566 -6.580519),scale(0.00001 -0.00001),translate(-106.763566 6.580519),translate(106.8125 -6.592499999999999),rotate(-30),translate(-106.8125 6.592499999999999)" >sind-barang-4</text>
    <line x1="106.753317" y1="-6.576235" x2="106.751377" y2="-6.573609" style="stroke:rgb(255,0,0);stroke-width:.00002" />
    <line x1="106.753317" y1="-6.576235" x2="106.752347" y2="-6.574922" style="stroke:rgb(0,0,0);stroke-width:.00002" />
    <line x1="106.752347" y1="-6.574922" x2="106.752347" y2="-6.574922" style="stroke:rgb(0,0,0);stroke-width:.00002" />
    <line x1="106.752347" y1="-6.574922" x2="106.751377" y2="-6.573609" style="stroke:rgb(0,0,0);stroke-width:.00002" />
    <circle cx="106.753317" cy="-6.576235" fill="rgb(255,0,0)" r=".0001" />
    <text x="106.753317" y="-6.576235" stroke="rgb(0,0,0)" transform="translate(106.753317 -6.576235),scale(0.00001 -0.00001),translate(-106.753317 6.576235),translate(106.8125 -6.592499999999999),rotate(-30),translate(-106.8125 6.592499999999999)" >sind-barang-adjie</text>
    <line x1="106.751377" y1="-6.573609" x2="106.755373" y2="-6.571011" style="stroke:rgb(255,0,0);stroke-width:.00002" />
    <line x1="106.751377" y1="-6.573609" x2="106.753207322782" y2="-6.572419015368464" style="stroke:rgb(0,0,0);stroke-width:.00002" />
    <line x1="106.753207322782" y1="-6.572419015368464" x2="106.75354267721801" y2="-6.572200984631536" style="stroke:rgb(0,0,0);stroke-width:.00002" />
    <line x1="106.75354267721801" y1="-6.572200984631536" x2="106.755373" y2="-6.571011" style="stroke:rgb(0,0,0);stroke-width:.00002" />
    <circle cx="106.751377" cy="-6.573609" fill="rgb(255,0,0)" r=".0001" />
    <text x="106.751377" y="-6.573609" stroke="rgb(0,0,0)" transform="translate(106.751377 -6.573609),scale(0.00001 -0.00001),translate(-106.751377 6.573609),translate(106.8125 -6.592499999999999),rotate(-30),translate(-106.8125 6.592499999999999)" >adjie-ciampea</text>
    <line x1="106.755373" y1="-6.571011" x2="106.751377" y2="-6.573609" style="stroke:rgb(255,0,0);stroke-width:.00002" />
    <line x1="106.755373" y1="-6.571011" x2="106.75354267721801" y2="-6.572200984631536" style="stroke:rgb(0,0,0);stroke-width:.00002" />
    <line x1="106.75354267721801" y1="-6.572200984631536" x2="106.753207322782" y2="-6.572419015368464" style="stroke:rgb(0,0,0);stroke-width:.00002" />
    <line x1="106.753207322782" y1="-6.572419015368464" x2="106.751377" y2="-6.573609" style="stroke:rgb(0,0,0);stroke-width:.00002" />
    <circle cx="106.755373" cy="-6.571011" fill="rgb(255,0,0)" r=".0001" />
    <text x="106.755373" y="-6.571011" stroke="rgb(0,0,0)" transform="translate(106.755373 -6.571011),scale(0.00001 -0.00001),translate(-106.755373 6.571011),translate(106.8125 -6.592499999999999),rotate(-30),translate(-106.8125 6.592499999999999)" >bubulak</text>
    <line x1="106.751377" y1="-6.573609" x2="106.753317" y2="-6.576235" style="stroke:rgb(255,0,0);stroke-width:.00002" />
    <line x1="106.751377" y1="-6.573609" x2="106.752347" y2="-6.574922" style="stroke:rgb(0,0,0);stroke-width:.00002" />
    <line x1="106.752347" y1="-6.574922" x2="106.752347" y2="-6.574922" style="stroke:rgb(0,0,0);stroke-width:.00002" />
    <line x1="106.752347" y1="-6.574922" x2="106.753317" y2="-6.576235" style="stroke:rgb(0,0,0);stroke-width:.00002" />
    <circle cx="106.751377" cy="-6.573609" fill="rgb(255,0,0)" r=".0001" />
    <text x="106.751377" y="-6.573609" stroke="rgb(0,0,0)" transform="translate(106.751377 -6.573609),scale(0.00001 -0.00001),translate(-106.751377 6.573609),translate(106.8125 -6.592499999999999),rotate(-30),translate(-106.8125 6.592499999999999)" >adjie-ciampea</text>
    <line x1="106.753317" y1="-6.576235" x2="106.763566" y2="-6.580519" style="stroke:rgb(255,0,0);stroke-width:.00002" />
    <line x1="106.753317" y1="-6.576235" x2="106.7584415" y2="-6.578377" style="stroke:rgb(0,0,0);stroke-width:.00002" />
    <line x1="106.7584415" y1="-6.578377" x2="106.7584415" y2="-6.578377" style="stroke:rgb(0,0,0);stroke-width:.00002" />
    <line x1="106.7584415" y1="-6.578377" x2="106.763566" y2="-6.580519" style="stroke:rgb(0,0,0);stroke-width:.00002" />
    <circle cx="106.753317" cy="-6.576235" fill="rgb(255,0,0)" r=".0001" />
    <text x="106.753317" y="-6.576235" stroke="rgb(0,0,0)" transform="translate(106.753317 -6.576235),scale(0.00001 -0.00001),translate(-106.753317 6.576235),translate(106.8125 -6.592499999999999),rotate(-30),translate(-106.8125 6.592499999999999)" >sind-barang-adjie</text>
    <line x1="106.763566" y1="-6.580519" x2="106.767319" y2="-6.580286" style="stroke:rgb(255,0,0);stroke-width:.00002" />
    <line x1="106.763566" y1="-6.580519" x2="106.7654425" y2="-6.5804025" style="stroke:rgb(0,0,0);stroke-width:.00002" />
    <line x1="106.7654425" y1="-6.5804025" x2="106.7654425" y2="-6.5804025" style="stroke:rgb(0,0,0);stroke-width:.00002" />
    <line x1="106.7654425" y1="-6.5804025" x2="106.767319" y2="-6.580286" style="stroke:rgb(0,0,0);stroke-width:.00002" />
    <circle cx="106.763566" cy="-6.580519" fill="rgb(255,0,0)" r=".0001" />
    <text x="106.763566" y="-6.580519" stroke="rgb(0,0,0)" transform="translate(106.763566 -6.580519),scale(0.00001 -0.00001),translate(-106.763566 6.580519),translate(106.8125 -6.592499999999999),rotate(-30),translate(-106.8125 6.592499999999999)" >sind-barang-4</text>
    <line x1="106.767319" y1="-6.580286" x2="106.771102" y2="-6.584891" style="stroke:rgb(255,0,0);stroke-width:.00002" />
    <line x1="106.767319" y1="-6.580286" x2="106.7692105" y2="-6.5825885" style="stroke:rgb(0,0,0);stroke-width:.00002" />
    <line x1="106.7692105" y1="-6.5825885" x2="106.7692105" y2="-6.5825885" style="stroke:rgb(0,0,0);stroke-width:.00002" />
    <line x1="106.7692105" y1="-6.5825885" x2="106.771102" y2="-6.584891" style="stroke:rgb(0,0,0);stroke-width:.00002" />
    <circle cx="106.767319" cy="-6.580286" fill="rgb(255,0,0)" r=".0001" />
    <text x="106.767319" y="-6.580286" stroke="rgb(0,0,0)" transform="translate(106.767319 -6.580286),scale(0.00001 -0.00001),translate(-106.767319 6.580286),translate(106.8125 -6.592499999999999),rotate(-30),translate(-106.8125 6.592499999999999)" >sind-barang-3</text>
    <line x1="106.771102" y1="-6.584891" x2="106.771794" y2="-6.585932" style="stroke:rgb(255,0,0);stroke-width:.00002" />
    <line x1="106.771102" y1="-6.584891" x2="106.77144799999999" y2="-6.585411499999999" style="stroke:rgb(0,0,0);stroke-width:.00002" />
    <line x1="106.77144799999999" y1="-6.585411499999999" x2="106.77144799999999" y2="-6.585411499999999" style="stroke:rgb(0,0,0);stroke-width:.00002" />
    <line x1="106.77144799999999" y1="-6.585411499999999" x2="106.771794" y2="-6.585932" style="stroke:rgb(0,0,0);stroke-width:.00002" />
    <circle cx="106.771102" cy="-6.584891" fill="rgb(255,0,0)" r=".0001" />
    <text x="106.771102" y="-6.584891" stroke="rgb(0,0,0)" transform="translate(106.771102 -6.584891),scale(0.00001 -0.00001),translate(-106.771102 6.584891),translate(106.8125 -6.592499999999999),rotate(-30),translate(-106.8125 6.592499999999999)" >sind-barang-darulquran</text>
    <line x1="106.771794" y1="-6.585932" x2="106.772155" y2="-6.587779" style="stroke:rgb(255,0,0);stroke-width:.00002" />
    <line x1="106.771794" y1="-6.585932" x2="106.7719745" y2="-6.5868555" style="stroke:rgb(0,0,0);stroke-width:.00002" />
    <line x1="106.7719745" y1="-6.5868555" x2="106.7719745" y2="-6.5868555" style="stroke:rgb(0,0,0);stroke-width:.00002" />
    <line x1="106.7719745" y1="-6.5868555" x2="106.772155" y2="-6.587779" style="stroke:rgb(0,0,0);stroke-width:.00002" />
    <circle cx="106.771794" cy="-6.585932" fill="rgb(255,0,0)" r=".0001" />
    <text x="106.771794" y="-6.585932" stroke="rgb(0,0,0)" transform="translate(106.771794 -6.585932),scale(0.00001 -0.00001),translate(-106.771794 6.585932),translate(106.8125 -6.592499999999999),rotate(-30),translate(-106.8125 6.592499999999999)" >sind-barang-2</text>
    <line x1="106.772155" y1="-6.587779" x2="106.779318" y2="-6.596113" style="stroke:rgb(255,0,0);stroke-width:.00002" />
    <line x1="106.772155" y1="-6.587779" x2="106.77560613651038" y2="-6.591794324818861" style="stroke:rgb(0,0,0);stroke-width:.00002" />
    <line x1="106.77560613651038" y1="-6.591794324818861" x2="106.77586686348961" y2="-6.592097675181139" style="stroke:rgb(0,0,0);stroke-width:.00002" />
    <line x1="106.77586686348961" y1="-6.592097675181139" x2="106.779318" y2="-6.596113" style="stroke:rgb(0,0,0);stroke-width:.00002" />
    <circle cx="106.772155" cy="-6.587779" fill="rgb(255,0,0)" r=".0001" />
    <text x="106.772155" y="-6.587779" stroke="rgb(0,0,0)" transform="translate(106.772155 -6.587779),scale(0.00001 -0.00001),translate(-106.772155 6.587779),translate(106.8125 -6.592499999999999),rotate(-30),translate(-106.8125 6.592499999999999)" >sind-barang-1</text>
    <line x1="106.779318" y1="-6.596113" x2="106.7795" y2="-6.5961" style="stroke:rgb(255,0,0);stroke-width:.00002" />
    <line x1="106.779318" y1="-6.596113" x2="106.77920950826004" y2="-6.596120749409997" style="stroke:rgb(0,0,0);stroke-width:.00002" />
    <line x1="106.77920950826004" y1="-6.596120749409997" x2="106.77960849173996" y2="-6.596092250590002" style="stroke:rgb(0,0,0);stroke-width:.00002" />
    <line x1="106.77960849173996" y1="-6.596092250590002" x2="106.7795" y2="-6.5961" style="stroke:rgb(0,0,0);stroke-width:.00002" />
    <circle cx="106.779318" cy="-6.596113" fill="rgb(255,0,0)" r=".0001" />
    <text x="106.779318" y="-6.596113" stroke="rgb(0,0,0)" transform="translate(106.779318 -6.596113),scale(0.00001 -0.00001),translate(-106.779318 6.596113),translate(106.8125 -6.592499999999999),rotate(-30),translate(-106.8125 6.592499999999999)" >abdullah-batu</text>
    <line x1="106.7795" y1="-6.5961" x2="106.7807" y2="-6.5963" style="stroke:rgb(255,0,0);stroke-width:.00002" />
    <line x1="106.7795" y1="-6.5961" x2="106.7801" y2="-6.5962" style="stroke:rgb(0,0,0);stroke-width:.00002" />
    <line x1="106.7801" y1="-6.5962" x2="106.7801" y2="-6.5962" style="stroke:rgb(0,0,0);stroke-width:.00002" />
    <line x1="106.7801" y1="-6.5962" x2="106.7807" y2="-6.5963" style="stroke:rgb(0,0,0);stroke-width:.00002" />
    <circle cx="106.7795" cy="-6.5961" fill="rgb(255,0,0)" r=".0001" />
    <text x="106.7795" y="-6.5961" stroke="rgb(0,0,0)" transform="translate(106.7795 -6.5961),scale(0.00001 -0.00001),translate(-106.7795 6.5961),translate(106.8125 -6.592499999999999),rotate(-30),translate(-106.8125 6.592499999999999)" >gnbatu-2</text>
    <line x1="106.7807" y1="-6.5963" x2="106.7826" y2="-6.5944" style="stroke:rgb(255,0,0);stroke-width:.00002" />
    <line x1="106.7807" y1="-6.5963" x2="106.78165" y2="-6.59535" style="stroke:rgb(0,0,0);stroke-width:.00002" />
    <line x1="106.78165" y1="-6.59535" x2="106.78165" y2="-6.59535" style="stroke:rgb(0,0,0);stroke-width:.00002" />
    <line x1="106.78165" y1="-6.59535" x2="106.7826" y2="-6.5944" style="stroke:rgb(0,0,0);stroke-width:.00002" />
    <circle cx="106.7807" cy="-6.5963" fill="rgb(255,0,0)" r=".0001" />
    <text x="106.7807" y="-6.5963" stroke="rgb(0,0,0)" transform="translate(106.7807 -6.5963),scale(0.00001 -0.00001),translate(-106.7807 6.5963),translate(106.8125 -6.592499999999999),rotate(-30),translate(-106.8125 6.592499999999999)" >gnbatu-1</text>
    <line x1="106.7826" y1="-6.5944" x2="106.7846" y2="-6.5953" style="stroke:rgb(255,0,0);stroke-width:.00002" />
    <line x1="106.7826" y1="-6.5944" x2="106.7836" y2="-6.59485" style="stroke:rgb(0,0,0);stroke-width:.00002" />
    <line x1="106.7836" y1="-6.59485" x2="106.7836" y2="-6.59485" style="stroke:rgb(0,0,0);stroke-width:.00002" />
    <line x1="106.7836" y1="-6.59485" x2="106.7846" y2="-6.5953" style="stroke:rgb(0,0,0);stroke-width:.00002" />
    <circle cx="106.7826" cy="-6.5944" fill="rgb(255,0,0)" r=".0001" />
    <text x="106.7826" y="-6.5944" stroke="rgb(0,0,0)" transform="translate(106.7826 -6.5944),scale(0.00001 -0.00001),translate(-106.7826 6.5944),translate(106.8125 -6.592499999999999),rotate(-30),translate(-106.8125 6.592499999999999)" >veteran-gnbatu</text>
    <line x1="106.7846" y1="-6.5953" x2="106.7876" y2="-6.5956" style="stroke:rgb(255,0,0);stroke-width:.00002" />
    <line x1="106.7846" y1="-6.5953" x2="106.7861" y2="-6.59545" style="stroke:rgb(0,0,0);stroke-width:.00002" />
    <line x1="106.7861" y1="-6.59545" x2="106.7861" y2="-6.59545" style="stroke:rgb(0,0,0);stroke-width:.00002" />
    <line x1="106.7861" y1="-6.59545" x2="106.7876" y2="-6.5956" style="stroke:rgb(0,0,0);stroke-width:.00002" />
    <circle cx="106.7846" cy="-6.5953" fill="rgb(255,0,0)" r=".0001" />
    <text x="106.7846" y="-6.5953" stroke="rgb(0,0,0)" transform="translate(106.7846 -6.5953),scale(0.00001 -0.00001),translate(-106.7846 6.5953),translate(106.8125 -6.592499999999999),rotate(-30),translate(-106.8125 6.592499999999999)" >veteran</text>
    <line x1="106.7876" y1="-6.5956" x2="106.7866" y2="-6.5932" style="stroke:rgb(255,0,0);stroke-width:.00002" />
    <line x1="106.7876" y1="-6.5956" x2="106.78717692307693" y2="-6.5945846153846155" style="stroke:rgb(0,0,0);stroke-width:.00002" />
    <line x1="106.78717692307693" y1="-6.5945846153846155" x2="106.78702307692309" y2="-6.594215384615385" style="stroke:rgb(0,0,0);stroke-width:.00002" />
    <line x1="106.78702307692309" y1="-6.594215384615385" x2="106.7866" y2="-6.5932" style="stroke:rgb(0,0,0);stroke-width:.00002" />
    <circle cx="106.7876" cy="-6.5956" fill="rgb(255,0,0)" r=".0001" />
    <text x="106.7876" y="-6.5956" stroke="rgb(0,0,0)" transform="translate(106.7876 -6.5956),scale(0.00001 -0.00001),translate(-106.7876 6.5956),translate(106.8125 -6.592499999999999),rotate(-30),translate(-106.8125 6.592499999999999)" >veteran-kemerdekaan</text>
    <line x1="106.7866" y1="-6.5932" x2="106.7878" y2="-6.5931" style="stroke:rgb(255,0,0);stroke-width:.00002" />
    <line x1="106.7866" y1="-6.5932" x2="106.78700069084836" y2="-6.59316660909597" style="stroke:rgb(0,0,0);stroke-width:.00002" />
    <line x1="106.78700069084836" y1="-6.59316660909597" x2="106.78739930915167" y2="-6.593133390904029" style="stroke:rgb(0,0,0);stroke-width:.00002" />
    <line x1="106.78739930915167" y1="-6.593133390904029" x2="106.7878" y2="-6.5931" style="stroke:rgb(0,0,0);stroke-width:.00002" />
    <circle cx="106.7866" cy="-6.5932" fill="rgb(255,0,0)" r=".0001" />
    <text x="106.7866" y="-6.5932" stroke="rgb(0,0,0)" transform="translate(106.7866 -6.5932),scale(0.00001 -0.00001),translate(-106.7866 6.5932),translate(106.8125 -6.592499999999999),rotate(-30),translate(-106.8125 6.592499999999999)" >kemerdekaan</text>
    <line x1="106.7878" y1="-6.5931" x2="106.7884" y2="-6.5955" style="stroke:rgb(255,0,0);stroke-width:.00002" />
    <line x1="106.7878" y1="-6.5931" x2="106.7881" y2="-6.5943000000000005" style="stroke:rgb(0,0,0);stroke-width:.00002" />
    <line x1="106.7881" y1="-6.5943000000000005" x2="106.7881" y2="-6.5943000000000005" style="stroke:rgb(0,0,0);stroke-width:.00002" />
    <line x1="106.7881" y1="-6.5943000000000005" x2="106.7884" y2="-6.5955" style="stroke:rgb(0,0,0);stroke-width:.00002" />
    <circle cx="106.7878" cy="-6.5931" fill="rgb(255,0,0)" r=".0001" />
    <text x="106.7878" y="-6.5931" stroke="rgb(0,0,0)" transform="translate(106.7878 -6.5931),scale(0.00001 -0.00001),translate(-106.7878 6.5931),translate(106.8125 -6.592499999999999),rotate(-30),translate(-106.8125 6.592499999999999)" >merdeka</text>
    <line x1="106.7884" y1="-6.5955" x2="106.7897" y2="-6.5959" style="stroke:rgb(255,0,0);stroke-width:.00002" />
    <line x1="106.7884" y1="-6.5955" x2="106.78905" y2="-6.595700000000001" style="stroke:rgb(0,0,0);stroke-width:.00002" />
    <line x1="106.78905" y1="-6.595700000000001" x2="106.78905" y2="-6.595700000000001" style="stroke:rgb(0,0,0);stroke-width:.00002" />
    <line x1="106.78905" y1="-6.595700000000001" x2="106.7897" y2="-6.5959" style="stroke:rgb(0,0,0);stroke-width:.00002" />
    <circle cx="106.7884" cy="-6.5955" fill="rgb(255,0,0)" r=".0001" />
    <text x="106.7884" y="-6.5955" stroke="rgb(0,0,0)" transform="translate(106.7884 -6.5955),scale(0.00001 -0.00001),translate(-106.7884 6.5955),translate(106.8125 -6.592499999999999),rotate(-30),translate(-106.8125 6.592499999999999)" >veteran-merdeka</text>
    <line x1="106.7897" y1="-6.5959" x2="106.7937" y2="-6.5969" style="stroke:rgb(255,0,0);stroke-width:.00002" />
    <line x1="106.7897" y1="-6.5959" x2="106.79169999999999" y2="-6.5964" style="stroke:rgb(0,0,0);stroke-width:.00002" />
    <line x1="106.79169999999999" y1="-6.5964" x2="106.79169999999999" y2="-6.5964" style="stroke:rgb(0,0,0);stroke-width:.00002" />
    <line x1="106.79169999999999" y1="-6.5964" x2="106.7937" y2="-6.5969" style="stroke:rgb(0,0,0);stroke-width:.00002" />
    <circle cx="106.7897" cy="-6.5959" fill="rgb(255,0,0)" r=".0001" />
    <text x="106.7897" y="-6.5959" stroke="rgb(0,0,0)" transform="translate(106.7897 -6.5959),scale(0.00001 -0.00001),translate(-106.7897 6.5959),translate(106.8125 -6.592499999999999),rotate(-30),translate(-106.8125 6.592499999999999)" >stasiun-paledang</text>
    <line x1="106.7937" y1="-6.5969" x2="106.7946" y2="-6.5945" style="stroke:rgb(255,0,0);stroke-width:.00002" />
    <line x1="106.7937" y1="-6.5969" x2="106.79407977531169" y2="-6.595887265835514" style="stroke:rgb(0,0,0);stroke-width:.00002" />
    <line x1="106.79407977531169" y1="-6.595887265835514" x2="106.79422022468832" y2="-6.595512734164486" style="stroke:rgb(0,0,0);stroke-width:.00002" />
    <line x1="106.79422022468832" y1="-6.595512734164486" x2="106.7946" y2="-6.5945" style="stroke:rgb(0,0,0);stroke-width:.00002" />
    <circle cx="106.7937" cy="-6.5969" fill="rgb(255,0,0)" r=".0001" />
    <text x="106.7937" y="-6.5969" stroke="rgb(0,0,0)" transform="translate(106.7937 -6.5969),scale(0.00001 -0.00001),translate(-106.7937 6.5969),translate(106.8125 -6.592499999999999),rotate(-30),translate(-106.8125 6.592499999999999)" >kb-muslihat</text>
    <line x1="106.7946" y1="-6.5945" x2="106.7973" y2="-6.593" style="stroke:rgb(255,0,0);stroke-width:.00002" />
    <line x1="106.7946" y1="-6.5945" x2="106.79507584272389" y2="-6.594235642931178" style="stroke:rgb(0,0,0);stroke-width:.00002" />
    <line x1="106.79507584272389" y1="-6.594235642931178" x2="106.79682415727612" y2="-6.593264357068822" style="stroke:rgb(0,0,0);stroke-width:.00002" />
    <line x1="106.79682415727612" y1="-6.593264357068822" x2="106.7973" y2="-6.593" style="stroke:rgb(0,0,0);stroke-width:.00002" />
    <circle cx="106.7946" cy="-6.5945" fill="rgb(255,0,0)" r=".0001" />
    <text x="106.7946" y="-6.5945" stroke="rgb(0,0,0)" transform="translate(106.7946 -6.5945),scale(0.00001 -0.00001),translate(-106.7946 6.5945),translate(106.8125 -6.592499999999999),rotate(-30),translate(-106.8125 6.592499999999999)" >kb-gedong-sawah</text>
    <line x1="106.7973" y1="-6.593" x2="106.7984" y2="-6.5935" style="stroke:rgb(255,0,0);stroke-width:.00002" />
    <line x1="106.7973" y1="-6.593" x2="106.79693963352256" y2="-6.592836197055696" style="stroke:rgb(0,0,0);stroke-width:.00002" />
    <line x1="106.79693963352256" y1="-6.592836197055696" x2="106.79876036647747" y2="-6.593663802944302" style="stroke:rgb(0,0,0);stroke-width:.00002" />
    <line x1="106.79876036647747" y1="-6.593663802944302" x2="106.7984" y2="-6.5935" style="stroke:rgb(0,0,0);stroke-width:.00002" />
    <circle cx="106.7973" cy="-6.593" fill="rgb(255,0,0)" r=".0001" />
    <text x="106.7973" y="-6.593" stroke="rgb(0,0,0)" transform="translate(106.7973 -6.593),scale(0.00001 -0.00001),translate(-106.7973 6.593),translate(106.8125 -6.592499999999999),rotate(-30),translate(-106.8125 6.592499999999999)" >kb-polisi-militer</text>
    <line x1="106.7984" y1="-6.5935" x2="106.800814" y2="-6.592262" style="stroke:rgb(255,0,0);stroke-width:.00002" />
    <line x1="106.7984" y1="-6.5935" x2="106.79960700000001" y2="-6.592881" style="stroke:rgb(0,0,0);stroke-width:.00002" />
    <line x1="106.79960700000001" y1="-6.592881" x2="106.79960700000001" y2="-6.592881" style="stroke:rgb(0,0,0);stroke-width:.00002" />
    <line x1="106.79960700000001" y1="-6.592881" x2="106.800814" y2="-6.592262" style="stroke:rgb(0,0,0);stroke-width:.00002" />
    <circle cx="106.7984" cy="-6.5935" fill="rgb(255,0,0)" r=".0001" />
    <text x="106.7984" y="-6.5935" stroke="rgb(0,0,0)" transform="translate(106.7984 -6.5935),scale(0.00001 -0.00001),translate(-106.7984 6.5935),translate(106.8125 -6.592499999999999),rotate(-30),translate(-106.8125 6.592499999999999)" >kb-jalak-harupat</text>
    <line x1="106.800814" y1="-6.592262" x2="106.801806" y2="-6.592667" style="stroke:rgb(255,0,0);stroke-width:.00002" />
    <line x1="106.800814" y1="-6.592262" x2="106.80131" y2="-6.5924645" style="stroke:rgb(0,0,0);stroke-width:.00002" />
    <line x1="106.80131" y1="-6.5924645" x2="106.80131" y2="-6.5924645" style="stroke:rgb(0,0,0);stroke-width:.00002" />
    <line x1="106.80131" y1="-6.5924645" x2="106.801806" y2="-6.592667" style="stroke:rgb(0,0,0);stroke-width:.00002" />
    <circle cx="106.800814" cy="-6.592262" fill="rgb(255,0,0)" r=".0001" />
    <text x="106.800814" y="-6.592262" stroke="rgb(0,0,0)" transform="translate(106.800814 -6.592262),scale(0.00001 -0.00001),translate(-106.800814 6.592262),translate(106.8125 -6.592499999999999),rotate(-30),translate(-106.8125 6.592499999999999)" >kb-sempur</text>
    <line x1="106.801806" y1="-6.592667" x2="106.8029" y2="-6.5935" style="stroke:rgb(255,0,0);stroke-width:.00002" />
    <line x1="106.801806" y1="-6.592667" x2="106.802353" y2="-6.5930835" style="stroke:rgb(0,0,0);stroke-width:.00002" />
    <line x1="106.802353" y1="-6.5930835" x2="106.802353" y2="-6.5930835" style="stroke:rgb(0,0,0);stroke-width:.00002" />
    <line x1="106.802353" y1="-6.5930835" x2="106.8029" y2="-6.5935" style="stroke:rgb(0,0,0);stroke-width:.00002" />
    <circle cx="106.801806" cy="-6.592667" fill="rgb(255,0,0)" r=".0001" />
    <text x="106.801806" y="-6.592667" stroke="rgb(0,0,0)" transform="translate(106.801806 -6.592667),scale(0.00001 -0.00001),translate(-106.801806 6.592667),translate(106.8125 -6.592499999999999),rotate(-30),translate(-106.8125 6.592499999999999)" >kb-salak</text>
    <line x1="106.8029" y1="-6.5935" x2="106.8044" y2="-6.5959" style="stroke:rgb(255,0,0);stroke-width:.00002" />
    <line x1="106.8029" y1="-6.5935" x2="106.80365" y2="-6.5947" style="stroke:rgb(0,0,0);stroke-width:.00002" />
    <line x1="106.80365" y1="-6.5947" x2="106.80365" y2="-6.5947" style="stroke:rgb(0,0,0);stroke-width:.00002" />
    <line x1="106.80365" y1="-6.5947" x2="106.8044" y2="-6.5959" style="stroke:rgb(0,0,0);stroke-width:.00002" />
    <circle cx="106.8029" cy="-6.5935" fill="rgb(255,0,0)" r=".0001" />
    <text x="106.8029" y="-6.5935" stroke="rgb(0,0,0)" transform="translate(106.8029 -6.5935),scale(0.00001 -0.00001),translate(-106.8029 6.5935),translate(106.8125 -6.592499999999999),rotate(-30),translate(-106.8125 6.592499999999999)" >kb-pangrango</text>
    <line x1="106.8044" y1="-6.5959" x2="106.8052" y2="-6.6009" style="stroke:rgb(255,0,0);stroke-width:.00002" />
    <line x1="106.8044" y1="-6.5959" x2="106.8048" y2="-6.5984" style="stroke:rgb(0,0,0);stroke-width:.00002" />
    <line x1="106.8048" y1="-6.5984" x2="106.8048" y2="-6.5984" style="stroke:rgb(0,0,0);stroke-width:.00002" />
    <line x1="106.8048" y1="-6.5984" x2="106.8052" y2="-6.6009" style="stroke:rgb(0,0,0);stroke-width:.00002" />
    <circle cx="106.8044" cy="-6.5959" fill="rgb(255,0,0)" r=".0001" />
    <text x="106.8044" y="-6.5959" stroke="rgb(0,0,0)" transform="translate(106.8044 -6.5959),scale(0.00001 -0.00001),translate(-106.8044 6.5959),translate(106.8125 -6.592499999999999),rotate(-30),translate(-106.8125 6.592499999999999)" >kb-astrid</text>
    <line x1="106.8052" y1="-6.6009" x2="106.8047" y2="-6.6016" style="stroke:rgb(255,0,0);stroke-width:.00002" />
    <line x1="106.8052" y1="-6.6009" x2="106.80506624763873" y2="-6.601087253305759" style="stroke:rgb(0,0,0);stroke-width:.00002" />
    <line x1="106.80506624763873" y1="-6.601087253305759" x2="106.80483375236125" y2="-6.601412746694241" style="stroke:rgb(0,0,0);stroke-width:.00002" />
    <line x1="106.80483375236125" y1="-6.601412746694241" x2="106.8047" y2="-6.6016" style="stroke:rgb(0,0,0);stroke-width:.00002" />
    <circle cx="106.8052" cy="-6.6009" fill="rgb(255,0,0)" r=".0001" />
    <text x="106.8052" y="-6.6009" stroke="rgb(0,0,0)" transform="translate(106.8052 -6.6009),scale(0.00001 -0.00001),translate(-106.8052 6.6009),translate(106.8125 -6.592499999999999),rotate(-30),translate(-106.8125 6.592499999999999)" >kb-botani-1</text>
    <line x1="106.8047" y1="-6.6016" x2="106.804329" y2="-6.601646" style="stroke:rgb(255,0,0);stroke-width:.00002" />
    <line x1="106.8047" y1="-6.6016" x2="106.80471298016874" y2="-6.601598390599024" style="stroke:rgb(0,0,0);stroke-width:.00002" />
    <line x1="106.80471298016874" y1="-6.601598390599024" x2="106.80431601983125" y2="-6.601647609400976" style="stroke:rgb(0,0,0);stroke-width:.00002" />
    <line x1="106.80431601983125" y1="-6.601647609400976" x2="106.804329" y2="-6.601646" style="stroke:rgb(0,0,0);stroke-width:.00002" />
    <circle cx="106.8047" cy="-6.6016" fill="rgb(255,0,0)" r=".0001" />
    <text x="106.8047" y="-6.6016" stroke="rgb(0,0,0)" transform="translate(106.8047 -6.6016),scale(0.00001 -0.00001),translate(-106.8047 6.6016),translate(106.8125 -6.592499999999999),rotate(-30),translate(-106.8125 6.592499999999999)" >kb-botani-2</text>
    <line x1="106.804329" y1="-6.601646" x2="106.7999" y2="-6.6027" style="stroke:rgb(255,0,0);stroke-width:.00002" />
    <line x1="106.804329" y1="-6.601646" x2="106.80230906642659" y2="-6.602126697671339" style="stroke:rgb(0,0,0);stroke-width:.00002" />
    <line x1="106.80230906642659" y1="-6.602126697671339" x2="106.80191993357339" y2="-6.602219302328661" style="stroke:rgb(0,0,0);stroke-width:.00002" />
    <line x1="106.80191993357339" y1="-6.602219302328661" x2="106.7999" y2="-6.6027" style="stroke:rgb(0,0,0);stroke-width:.00002" />
    <circle cx="106.804329" cy="-6.601646" fill="rgb(255,0,0)" r=".0001" />
    <text x="106.804329" y="-6.601646" stroke="rgb(0,0,0)" transform="translate(106.804329 -6.601646),scale(0.00001 -0.00001),translate(-106.804329 6.601646),translate(106.8125 -6.592499999999999),rotate(-30),translate(-106.8125 6.592499999999999)" >bangka-otista</text>
    <line x1="106.7999" y1="-6.6027" x2="106.7996" y2="-6.6027" style="stroke:rgb(255,0,0);stroke-width:.00002" />
    <line x1="106.7999" y1="-6.6027" x2="106.79974999999999" y2="-6.6027" style="stroke:rgb(0,0,0);stroke-width:.00002" />
    <line x1="106.79974999999999" y1="-6.6027" x2="106.79974999999999" y2="-6.6027" style="stroke:rgb(0,0,0);stroke-width:.00002" />
    <line x1="106.79974999999999" y1="-6.6027" x2="106.7996" y2="-6.6027" style="stroke:rgb(0,0,0);stroke-width:.00002" />
    <circle cx="106.7999" cy="-6.6027" fill="rgb(255,0,0)" r=".0001" />
    <text x="106.7999" y="-6.6027" stroke="rgb(0,0,0)" transform="translate(106.7999 -6.6027),scale(0.00001 -0.00001),translate(-106.7999 6.6027),translate(106.8125 -6.592499999999999),rotate(-30),translate(-106.8125 6.592499999999999)" >otista-roda</text>
    <line x1="106.7996" y1="-6.6027" x2="106.7988" y2="-6.6031" style="stroke:rgb(255,0,0);stroke-width:.00002" />
    <line x1="106.7996" y1="-6.6027" x2="106.80063108350559" y2="-6.602184458247198" style="stroke:rgb(0,0,0);stroke-width:.00002" />
    <line x1="106.80063108350559" y1="-6.602184458247198" x2="106.7977689164944" y2="-6.603615541752802" style="stroke:rgb(0,0,0);stroke-width:.00002" />
    <line x1="106.7977689164944" y1="-6.603615541752802" x2="106.7988" y2="-6.6031" style="stroke:rgb(0,0,0);stroke-width:.00002" />
    <circle cx="106.7996" cy="-6.6027" fill="rgb(255,0,0)" r=".0001" />
    <text x="106.7996" y="-6.6027" stroke="rgb(0,0,0)" transform="translate(106.7996 -6.6027),scale(0.00001 -0.00001),translate(-106.7996 6.6027),translate(106.8125 -6.592499999999999),rotate(-30),translate(-106.8125 6.592499999999999)" >kb-otista</text>
    <line x1="106.7988" y1="-6.6031" x2="106.7997" y2="-6.6048" style="stroke:rgb(255,0,0);stroke-width:.00002" />
    <line x1="106.7988" y1="-6.6031" x2="106.79859495719141" y2="-6.602712696917115" style="stroke:rgb(0,0,0);stroke-width:.00002" />
    <line x1="106.79859495719141" y1="-6.602712696917115" x2="106.79990504280859" y2="-6.605187303082886" style="stroke:rgb(0,0,0);stroke-width:.00002" />
    <line x1="106.79990504280859" y1="-6.605187303082886" x2="106.7997" y2="-6.6048" style="stroke:rgb(0,0,0);stroke-width:.00002" />
    <circle cx="106.7988" cy="-6.6031" fill="rgb(255,0,0)" r=".0001" />
    <text x="106.7988" y="-6.6031" stroke="rgb(0,0,0)" transform="translate(106.7988 -6.6031),scale(0.00001 -0.00001),translate(-106.7988 6.6031),translate(106.8125 -6.592499999999999),rotate(-30),translate(-106.8125 6.592499999999999)" >kb-suryakencana</text>
    <line x1="106.7997" y1="-6.6048" x2="106.8025" y2="-6.6082" style="stroke:rgb(255,0,0);stroke-width:.00002" />
    <line x1="106.7997" y1="-6.6048" x2="106.80109999999999" y2="-6.6065000000000005" style="stroke:rgb(0,0,0);stroke-width:.00002" />
    <line x1="106.80109999999999" y1="-6.6065000000000005" x2="106.80109999999999" y2="-6.6065000000000005" style="stroke:rgb(0,0,0);stroke-width:.00002" />
    <line x1="106.80109999999999" y1="-6.6065000000000005" x2="106.8025" y2="-6.6082" style="stroke:rgb(0,0,0);stroke-width:.00002" />
    <circle cx="106.7997" cy="-6.6048" fill="rgb(255,0,0)" r=".0001" />
    <text x="106.7997" y="-6.6048" stroke="rgb(0,0,0)" transform="translate(106.7997 -6.6048),scale(0.00001 -0.00001),translate(-106.7997 6.6048),translate(106.8125 -6.592499999999999),rotate(-30),translate(-106.8125 6.592499999999999)" >suryakencana-1</text>
    <line x1="106.8025" y1="-6.6082" x2="106.8065" y2="-6.6118" style="stroke:rgb(255,0,0);stroke-width:.00002" />
    <line x1="106.8025" y1="-6.6082" x2="106.80449999999999" y2="-6.609999999999999" style="stroke:rgb(0,0,0);stroke-width:.00002" />
    <line x1="106.80449999999999" y1="-6.609999999999999" x2="106.80449999999999" y2="-6.609999999999999" style="stroke:rgb(0,0,0);stroke-width:.00002" />
    <line x1="106.80449999999999" y1="-6.609999999999999" x2="106.8065" y2="-6.6118" style="stroke:rgb(0,0,0);stroke-width:.00002" />
    <circle cx="106.8025" cy="-6.6082" fill="rgb(255,0,0)" r=".0001" />
    <text x="106.8025" y="-6.6082" stroke="rgb(0,0,0)" transform="translate(106.8025 -6.6082),scale(0.00001 -0.00001),translate(-106.8025 6.6082),translate(106.8125 -6.592499999999999),rotate(-30),translate(-106.8125 6.592499999999999)" >suryakencana-2</text>
    <line x1="106.8065" y1="-6.6118" x2="106.8103" y2="-6.6164" style="stroke:rgb(255,0,0);stroke-width:.00002" />
    <line x1="106.8065" y1="-6.6118" x2="106.8084" y2="-6.6141" style="stroke:rgb(0,0,0);stroke-width:.00002" />
    <line x1="106.8084" y1="-6.6141" x2="106.8084" y2="-6.6141" style="stroke:rgb(0,0,0);stroke-width:.00002" />
    <line x1="106.8084" y1="-6.6141" x2="106.8103" y2="-6.6164" style="stroke:rgb(0,0,0);stroke-width:.00002" />
    <circle cx="106.8065" cy="-6.6118" fill="rgb(255,0,0)" r=".0001" />
    <text x="106.8065" y="-6.6118" stroke="rgb(0,0,0)" transform="translate(106.8065 -6.6118),scale(0.00001 -0.00001),translate(-106.8065 6.6118),translate(106.8125 -6.592499999999999),rotate(-30),translate(-106.8125 6.592499999999999)" >siliwangi-1</text>
    <line x1="106.8103" y1="-6.6164" x2="106.8145" y2="-6.6201" style="stroke:rgb(255,0,0);stroke-width:.00002" />
    <line x1="106.8103" y1="-6.6164" x2="106.8124" y2="-6.61825" style="stroke:rgb(0,0,0);stroke-width:.00002" />
    <line x1="106.8124" y1="-6.61825" x2="106.8124" y2="-6.61825" style="stroke:rgb(0,0,0);stroke-width:.00002" />
    <line x1="106.8124" y1="-6.61825" x2="106.8145" y2="-6.6201" style="stroke:rgb(0,0,0);stroke-width:.00002" />
    <circle cx="106.8103" cy="-6.6164" fill="rgb(255,0,0)" r=".0001" />
    <text x="106.8103" y="-6.6164" stroke="rgb(0,0,0)" transform="translate(106.8103 -6.6164),scale(0.00001 -0.00001),translate(-106.8103 6.6164),translate(106.8125 -6.592499999999999),rotate(-30),translate(-106.8125 6.592499999999999)" >siliwangi-2</text>
    <line x1="106.8145" y1="-6.6201" x2="106.8124" y2="-6.6208" style="stroke:rgb(255,0,0);stroke-width:.00002" />
    <line x1="106.8145" y1="-6.6201" x2="106.81344999999999" y2="-6.62045" style="stroke:rgb(0,0,0);stroke-width:.00002" />
    <line x1="106.81344999999999" y1="-6.62045" x2="106.81344999999999" y2="-6.62045" style="stroke:rgb(0,0,0);stroke-width:.00002" />
    <line x1="106.81344999999999" y1="-6.62045" x2="106.8124" y2="-6.6208" style="stroke:rgb(0,0,0);stroke-width:.00002" />
    <circle cx="106.8145" cy="-6.6201" fill="rgb(255,0,0)" r=".0001" />
    <text x="106.8145" y="-6.6201" stroke="rgb(0,0,0)" transform="translate(106.8145 -6.6201),scale(0.00001 -0.00001),translate(-106.8145 6.6201),translate(106.8125 -6.592499999999999),rotate(-30),translate(-106.8125 6.592499999999999)" >siliwangi-lawanggintung</text>
    <line x1="106.8124" y1="-6.6208" x2="106.8123" y2="-6.6235" style="stroke:rgb(255,0,0);stroke-width:.00002" />
    <line x1="106.8124" y1="-6.6208" x2="106.81235" y2="-6.6221499999999995" style="stroke:rgb(0,0,0);stroke-width:.00002" />
    <line x1="106.81235" y1="-6.6221499999999995" x2="106.81235" y2="-6.6221499999999995" style="stroke:rgb(0,0,0);stroke-width:.00002" />
    <line x1="106.81235" y1="-6.6221499999999995" x2="106.8123" y2="-6.6235" style="stroke:rgb(0,0,0);stroke-width:.00002" />
    <circle cx="106.8124" cy="-6.6208" fill="rgb(255,0,0)" r=".0001" />
    <text x="106.8124" y="-6.6208" stroke="rgb(0,0,0)" transform="translate(106.8124 -6.6208),scale(0.00001 -0.00001),translate(-106.8124 6.6208),translate(106.8125 -6.592499999999999),rotate(-30),translate(-106.8125 6.592499999999999)" >lawanggintung-1</text>
    <line x1="106.8123" y1="-6.6235" x2="106.8101" y2="-6.6238" style="stroke:rgb(255,0,0);stroke-width:.00002" />
    <line x1="106.8123" y1="-6.6235" x2="106.8112" y2="-6.62365" style="stroke:rgb(0,0,0);stroke-width:.00002" />
    <line x1="106.8112" y1="-6.62365" x2="106.8112" y2="-6.62365" style="stroke:rgb(0,0,0);stroke-width:.00002" />
    <line x1="106.8112" y1="-6.62365" x2="106.8101" y2="-6.6238" style="stroke:rgb(0,0,0);stroke-width:.00002" />
    <circle cx="106.8123" cy="-6.6235" fill="rgb(255,0,0)" r=".0001" />
    <text x="106.8123" y="-6.6235" stroke="rgb(0,0,0)" transform="translate(106.8123 -6.6235),scale(0.00001 -0.00001),translate(-106.8123 6.6235),translate(106.8125 -6.592499999999999),rotate(-30),translate(-106.8125 6.592499999999999)" >lawanggintung-2</text>
    <line x1="106.8101" y1="-6.6238" x2="106.8099" y2="-6.6246" style="stroke:rgb(255,0,0);stroke-width:.00002" />
    <line x1="106.8101" y1="-6.6238" x2="106.81" y2="-6.6242" style="stroke:rgb(0,0,0);stroke-width:.00002" />
    <line x1="106.81" y1="-6.6242" x2="106.81" y2="-6.6242" style="stroke:rgb(0,0,0);stroke-width:.00002" />
    <line x1="106.81" y1="-6.6242" x2="106.8099" y2="-6.6246" style="stroke:rgb(0,0,0);stroke-width:.00002" />
    <circle cx="106.8101" cy="-6.6238" fill="rgb(255,0,0)" r=".0001" />
    <text x="106.8101" y="-6.6238" stroke="rgb(0,0,0)" transform="translate(106.8101 -6.6238),scale(0.00001 -0.00001),translate(-106.8101 6.6238),translate(106.8125 -6.592499999999999),rotate(-30),translate(-106.8125 6.592499999999999)" >lawanggintung-3</text>
    <line x1="106.8099" y1="-6.6246" x2="106.8093" y2="-6.625" style="stroke:rgb(255,0,0);stroke-width:.00002" />
    <line x1="106.8099" y1="-6.6246" x2="106.80976641005886" y2="-6.624689059960756" style="stroke:rgb(0,0,0);stroke-width:.00002" />
    <line x1="106.80976641005886" y1="-6.624689059960756" x2="106.80943358994112" y2="-6.6249109400392445" style="stroke:rgb(0,0,0);stroke-width:.00002" />
    <line x1="106.80943358994112" y1="-6.6249109400392445" x2="106.8093" y2="-6.625" style="stroke:rgb(0,0,0);stroke-width:.00002" />
    <circle cx="106.8099" cy="-6.6246" fill="rgb(255,0,0)" r=".0001" />
    <text x="106.8099" y="-6.6246" stroke="rgb(0,0,0)" transform="translate(106.8099 -6.6246),scale(0.00001 -0.00001),translate(-106.8099 6.6246),translate(106.8125 -6.592499999999999),rotate(-30),translate(-106.8125 6.592499999999999)" >lawanggintung-4</text>
    <line x1="106.8093" y1="-6.625" x2="106.8089" y2="-6.6245" style="stroke:rgb(255,0,0);stroke-width:.00002" />
    <line x1="106.8093" y1="-6.625" x2="106.8091" y2="-6.624750000000001" style="stroke:rgb(0,0,0);stroke-width:.00002" />
    <line x1="106.8091" y1="-6.624750000000001" x2="106.8091" y2="-6.624750000000001" style="stroke:rgb(0,0,0);stroke-width:.00002" />
    <line x1="106.8091" y1="-6.624750000000001" x2="106.8089" y2="-6.6245" style="stroke:rgb(0,0,0);stroke-width:.00002" />
    <circle cx="106.8093" cy="-6.625" fill="rgb(255,0,0)" r=".0001" />
    <text x="106.8093" y="-6.625" stroke="rgb(0,0,0)" transform="translate(106.8093 -6.625),scale(0.00001 -0.00001),translate(-106.8093 6.625),translate(106.8125 -6.592499999999999),rotate(-30),translate(-106.8125 6.592499999999999)" >lawanggintung-5</text>
    <line x1="106.8089" y1="-6.6245" x2="106.8086" y2="-6.6218" style="stroke:rgb(255,0,0);stroke-width:.00002" />
    <line x1="106.8089" y1="-6.6245" x2="106.80875" y2="-6.623150000000001" style="stroke:rgb(0,0,0);stroke-width:.00002" />
    <line x1="106.80875" y1="-6.623150000000001" x2="106.80875" y2="-6.623150000000001" style="stroke:rgb(0,0,0);stroke-width:.00002" />
    <line x1="106.80875" y1="-6.623150000000001" x2="106.8086" y2="-6.6218" style="stroke:rgb(0,0,0);stroke-width:.00002" />
    <circle cx="106.8089" cy="-6.6245" fill="rgb(255,0,0)" r=".0001" />
    <text x="106.8089" y="-6.6245" stroke="rgb(0,0,0)" transform="translate(106.8089 -6.6245),scale(0.00001 -0.00001),translate(-106.8089 6.6245),translate(106.8125 -6.592499999999999),rotate(-30),translate(-106.8125 6.592499999999999)" >batutulis-1</text>
    <line x1="106.8086" y1="-6.6218" x2="106.8079" y2="-6.6215" style="stroke:rgb(255,0,0);stroke-width:.00002" />
    <line x1="106.8086" y1="-6.6218" x2="106.80825" y2="-6.621650000000001" style="stroke:rgb(0,0,0);stroke-width:.00002" />
    <line x1="106.80825" y1="-6.621650000000001" x2="106.80825" y2="-6.621650000000001" style="stroke:rgb(0,0,0);stroke-width:.00002" />
    <line x1="106.80825" y1="-6.621650000000001" x2="106.8079" y2="-6.6215" style="stroke:rgb(0,0,0);stroke-width:.00002" />
    <circle cx="106.8086" cy="-6.6218" fill="rgb(255,0,0)" r=".0001" />
    <text x="106.8086" y="-6.6218" stroke="rgb(0,0,0)" transform="translate(106.8086 -6.6218),scale(0.00001 -0.00001),translate(-106.8086 6.6218),translate(106.8125 -6.592499999999999),rotate(-30),translate(-106.8125 6.592499999999999)" >batutulis-2</text>
    <line x1="106.8079" y1="-6.6215" x2="106.8069" y2="-6.6188" style="stroke:rgb(255,0,0);stroke-width:.00002" />
    <line x1="106.8079" y1="-6.6215" x2="106.8074" y2="-6.620150000000001" style="stroke:rgb(0,0,0);stroke-width:.00002" />
    <line x1="106.8074" y1="-6.620150000000001" x2="106.8074" y2="-6.620150000000001" style="stroke:rgb(0,0,0);stroke-width:.00002" />
    <line x1="106.8074" y1="-6.620150000000001" x2="106.8069" y2="-6.6188" style="stroke:rgb(0,0,0);stroke-width:.00002" />
    <circle cx="106.8079" cy="-6.6215" fill="rgb(255,0,0)" r=".0001" />
    <text x="106.8079" y="-6.6215" stroke="rgb(0,0,0)" transform="translate(106.8079 -6.6215),scale(0.00001 -0.00001),translate(-106.8079 6.6215),translate(106.8125 -6.592499999999999),rotate(-30),translate(-106.8125 6.592499999999999)" >batutulis-3</text>
    <line x1="106.8069" y1="-6.6188" x2="106.8045" y2="-6.6163" style="stroke:rgb(255,0,0);stroke-width:.00002" />
    <line x1="106.8069" y1="-6.6188" x2="106.8057" y2="-6.61755" style="stroke:rgb(0,0,0);stroke-width:.00002" />
    <line x1="106.8057" y1="-6.61755" x2="106.8057" y2="-6.61755" style="stroke:rgb(0,0,0);stroke-width:.00002" />
    <line x1="106.8057" y1="-6.61755" x2="106.8045" y2="-6.6163" style="stroke:rgb(0,0,0);stroke-width:.00002" />
    <circle cx="106.8069" cy="-6.6188" fill="rgb(255,0,0)" r=".0001" />
    <text x="106.8069" y="-6.6188" stroke="rgb(0,0,0)" transform="translate(106.8069 -6.6188),scale(0.00001 -0.00001),translate(-106.8069 6.6188),translate(106.8125 -6.592499999999999),rotate(-30),translate(-106.8125 6.592499999999999)" >batutulis-pahlawan</text>
    <line x1="106.8045" y1="-6.6163" x2="106.8034" y2="-6.6142" style="stroke:rgb(255,0,0);stroke-width:.00002" />
    <line x1="106.8045" y1="-6.6163" x2="106.80395" y2="-6.61525" style="stroke:rgb(0,0,0);stroke-width:.00002" />
    <line x1="106.80395" y1="-6.61525" x2="106.80395" y2="-6.61525" style="stroke:rgb(0,0,0);stroke-width:.00002" />
    <line x1="106.80395" y1="-6.61525" x2="106.8034" y2="-6.6142" style="stroke:rgb(0,0,0);stroke-width:.00002" />
    <circle cx="106.8045" cy="-6.6163" fill="rgb(255,0,0)" r=".0001" />
    <text x="106.8045" y="-6.6163" stroke="rgb(0,0,0)" transform="translate(106.8045 -6.6163),scale(0.00001 -0.00001),translate(-106.8045 6.6163),translate(106.8125 -6.592499999999999),rotate(-30),translate(-106.8125 6.592499999999999)" >pahlawan-1</text>
    <line x1="106.8034" y1="-6.6142" x2="106.8021" y2="-6.6123" style="stroke:rgb(255,0,0);stroke-width:.00002" />
    <line x1="106.8034" y1="-6.6142" x2="106.80297587356624" y2="-6.613580122904501" style="stroke:rgb(0,0,0);stroke-width:.00002" />
    <line x1="106.80297587356624" y1="-6.613580122904501" x2="106.80252412643377" y2="-6.612919877095501" style="stroke:rgb(0,0,0);stroke-width:.00002" />
    <line x1="106.80252412643377" y1="-6.612919877095501" x2="106.8021" y2="-6.6123" style="stroke:rgb(0,0,0);stroke-width:.00002" />
    <circle cx="106.8034" cy="-6.6142" fill="rgb(255,0,0)" r=".0001" />
    <text x="106.8034" y="-6.6142" stroke="rgb(0,0,0)" transform="translate(106.8034 -6.6142),scale(0.00001 -0.00001),translate(-106.8034 6.6142),translate(106.8125 -6.592499999999999),rotate(-30),translate(-106.8125 6.592499999999999)" >dreded-pahlawan</text>
    <line x1="106.8021" y1="-6.6123" x2="106.8" y2="-6.6113" style="stroke:rgb(255,0,0);stroke-width:.00002" />
    <line x1="106.8021" y1="-6.6123" x2="106.80123057210376" y2="-6.6118859867160795" style="stroke:rgb(0,0,0);stroke-width:.00002" />
    <line x1="106.80123057210376" y1="-6.6118859867160795" x2="106.80086942789625" y2="-6.611714013283922" style="stroke:rgb(0,0,0);stroke-width:.00002" />
    <line x1="106.80086942789625" y1="-6.611714013283922" x2="106.8" y2="-6.6113" style="stroke:rgb(0,0,0);stroke-width:.00002" />
    <circle cx="106.8021" cy="-6.6123" fill="rgb(255,0,0)" r=".0001" />
    <text x="106.8021" y="-6.6123" stroke="rgb(0,0,0)" transform="translate(106.8021 -6.6123),scale(0.00001 -0.00001),translate(-106.8021 6.6123),translate(106.8125 -6.592499999999999),rotate(-30),translate(-106.8125 6.592499999999999)" >pahlawan-ggaut</text>
    <line x1="106.8" y1="-6.6113" x2="106.7964" y2="-6.6082" style="stroke:rgb(255,0,0);stroke-width:.00002" />
    <line x1="106.8" y1="-6.6113" x2="106.79820000000001" y2="-6.60975" style="stroke:rgb(0,0,0);stroke-width:.00002" />
    <line x1="106.79820000000001" y1="-6.60975" x2="106.79820000000001" y2="-6.60975" style="stroke:rgb(0,0,0);stroke-width:.00002" />
    <line x1="106.79820000000001" y1="-6.60975" x2="106.7964" y2="-6.6082" style="stroke:rgb(0,0,0);stroke-width:.00002" />
    <circle cx="106.8" cy="-6.6113" fill="rgb(255,0,0)" r=".0001" />
    <text x="106.8" y="-6.6113" stroke="rgb(0,0,0)" transform="translate(106.8 -6.6113),scale(0.00001 -0.00001),translate(-106.8 6.6113),translate(106.8125 -6.592499999999999),rotate(-30),translate(-106.8125 6.592499999999999)" >pahlawan-3</text>
    <line x1="106.7964" y1="-6.6082" x2="106.7949" y2="-6.6077" style="stroke:rgb(255,0,0);stroke-width:.00002" />
    <line x1="106.7964" y1="-6.6082" x2="106.79565" y2="-6.607950000000001" style="stroke:rgb(0,0,0);stroke-width:.00002" />
    <line x1="106.79565" y1="-6.607950000000001" x2="106.79565" y2="-6.607950000000001" style="stroke:rgb(0,0,0);stroke-width:.00002" />
    <line x1="106.79565" y1="-6.607950000000001" x2="106.7949" y2="-6.6077" style="stroke:rgb(0,0,0);stroke-width:.00002" />
    <circle cx="106.7964" cy="-6.6082" fill="rgb(255,0,0)" r=".0001" />
    <text x="106.7964" y="-6.6082" stroke="rgb(0,0,0)" transform="translate(106.7964 -6.6082),scale(0.00001 -0.00001),translate(-106.7964 6.6082),translate(106.8125 -6.592499999999999),rotate(-30),translate(-106.8125 6.592499999999999)" >pahlawan-4</text>
    <line x1="106.7949" y1="-6.6077" x2="106.7954" y2="-6.606" style="stroke:rgb(255,0,0);stroke-width:.00002" />
    <line x1="106.7949" y1="-6.6077" x2="106.79515" y2="-6.60685" style="stroke:rgb(0,0,0);stroke-width:.00002" />
    <line x1="106.79515" y1="-6.60685" x2="106.79515" y2="-6.60685" style="stroke:rgb(0,0,0);stroke-width:.00002" />
    <line x1="106.79515" y1="-6.60685" x2="106.7954" y2="-6.606" style="stroke:rgb(0,0,0);stroke-width:.00002" />
    <circle cx="106.7949" cy="-6.6077" fill="rgb(255,0,0)" r=".0001" />
    <text x="106.7949" y="-6.6077" stroke="rgb(0,0,0)" transform="translate(106.7949 -6.6077),scale(0.00001 -0.00001),translate(-106.7949 6.6077),translate(106.8125 -6.592499999999999),rotate(-30),translate(-106.8125 6.592499999999999)" >pahlawan-empang</text>
    <line x1="106.7954" y1="-6.606" x2="106.7965" y2="-6.6046" style="stroke:rgb(255,0,0);stroke-width:.00002" />
    <line x1="106.7954" y1="-6.606" x2="106.79595" y2="-6.6053" style="stroke:rgb(0,0,0);stroke-width:.00002" />
    <line x1="106.79595" y1="-6.6053" x2="106.79595" y2="-6.6053" style="stroke:rgb(0,0,0);stroke-width:.00002" />
    <line x1="106.79595" y1="-6.6053" x2="106.7965" y2="-6.6046" style="stroke:rgb(0,0,0);stroke-width:.00002" />
    <circle cx="106.7954" cy="-6.606" fill="rgb(255,0,0)" r=".0001" />
    <text x="106.7954" y="-6.606" stroke="rgb(0,0,0)" transform="translate(106.7954 -6.606),scale(0.00001 -0.00001),translate(-106.7954 6.606),translate(106.8125 -6.592499999999999),rotate(-30),translate(-106.8125 6.592499999999999)" >halte-empang</text>
    <line x1="106.7965" y1="-6.6046" x2="106.7961" y2="-6.6038" style="stroke:rgb(255,0,0);stroke-width:.00002" />
    <line x1="106.7965" y1="-6.6046" x2="106.7963" y2="-6.6042" style="stroke:rgb(0,0,0);stroke-width:.00002" />
    <line x1="106.7963" y1="-6.6042" x2="106.7963" y2="-6.6042" style="stroke:rgb(0,0,0);stroke-width:.00002" />
    <line x1="106.7963" y1="-6.6042" x2="106.7961" y2="-6.6038" style="stroke:rgb(0,0,0);stroke-width:.00002" />
    <circle cx="106.7965" cy="-6.6046" fill="rgb(255,0,0)" r=".0001" />
    <text x="106.7965" y="-6.6046" stroke="rgb(0,0,0)" transform="translate(106.7965 -6.6046),scale(0.00001 -0.00001),translate(-106.7965 6.6046),translate(106.8125 -6.592499999999999),rotate(-30),translate(-106.8125 6.592499999999999)" >btm-3</text>
    <line x1="106.7961" y1="-6.6038" x2="106.7937" y2="-6.5969" style="stroke:rgb(255,0,0);stroke-width:.00002" />
    <line x1="106.7961" y1="-6.6038" x2="106.79529422474992" y2="-6.6014833961560475" style="stroke:rgb(0,0,0);stroke-width:.00002" />
    <line x1="106.79529422474992" y1="-6.6014833961560475" x2="106.79450577525007" y2="-6.599216603843952" style="stroke:rgb(0,0,0);stroke-width:.00002" />
    <line x1="106.79450577525007" y1="-6.599216603843952" x2="106.7937" y2="-6.5969" style="stroke:rgb(0,0,0);stroke-width:.00002" />
    <circle cx="106.7961" cy="-6.6038" fill="rgb(255,0,0)" r=".0001" />
    <text x="106.7961" y="-6.6038" stroke="rgb(0,0,0)" transform="translate(106.7961 -6.6038),scale(0.00001 -0.00001),translate(-106.7961 6.6038),translate(106.8125 -6.592499999999999),rotate(-30),translate(-106.8125 6.592499999999999)" >kb-btm-2</text>
  </g>
</svg>
