<svg width="1049.9999999998977" height="1849.9999999999961" xmlns="http://www.w3.org/2000/svg" xmlns:xlink="http://www.w3.org/1999/xlink" >
  <g transform="translate(524.9999999999488 924.9999999999981) rotate(30) scale(10000 -10000) translate(-106.8125 6.592499999999999)">
    <path d="M106.76 -6.5 L106.865 -6.5 L106.865 -6.685 L106.76 -6.685 Z" fill="none" stroke="black" stroke-width="0.0005" transform="translate(106.8125 -6.592499999999999) rotate(30) translate(-106.8125 6.592499999999999)" />
    <path d="M106.78961944910981 -6.596189095199376 L106.78837331724438 -6.595805670010013 L106.78805038734728 -6.595846036247151 L106.78454765825836 -6.595495763338258 L106.78264381075205 -6.59463903196042 L106.78076864339553 -6.596514199316933 L106.77949055337662 -6.59630118431378 L106.77923190058294 -6.596319659513328 L106.7719688574321 -6.587869261409315 L106.77156528008497 -6.585804421076529 L106.76734875885292 -6.580484537528774 L106.76353187270067 -6.5807215038153375 L106.75318893749589 -6.576398239651296 L106.75108996954268 -6.573557059318746 L106.755373 -6.571011 L106.75166403045733 -6.573660940681255 L106.7534450625041 -6.576071760348703 L106.76360012729933 -6.580316496184662 L106.7674086446992 -6.580080049460929 L106.7712629592559 -6.584771859805524 L106.77198263574024 -6.585854494516798 L106.7723411425679 -6.5876887385906855 L106.77940409941706 -6.595906340486671 L106.77950944662338 -6.59589881568622 L106.78063135660446 -6.596085800683068 L106.78255618924796 -6.5941609680395805 L106.78465234174163 -6.595104236661742 L106.78717347934243 -6.59535635042182 L106.78616468193378 -6.59293523664105 L106.7879282239822 -6.592788274803679 L106.78856666209427 -6.595342027251949 L106.78975370059351 -6.5957072698670975 L106.79357539029655 -6.596662692292858 L106.7944927519366 -6.59421639458608 L106.79728648644664 -6.592664319858281 L106.79839213025492 -6.5931668852256875 L106.80079976534765 -6.591932149415919 L106.80182939599476 -6.592352512734548 L106.80201083498969 -6.5919196680734204 L106.80196992956778 -6.591210006567479 L106.80154091314655 -6.589921945472679 L106.80171093559736 -6.589244049507603 L106.80234008528745 -6.588719758099185 L106.80296565799485 -6.588302709627584 L106.80411371012943 -6.588198341251714 L106.80500593612159 -6.588532925998776 L106.80469977558054 -6.59220685249123 L106.80455157774006 -6.5949485125402365 L106.80560339264419 -6.601522355691068 L106.80684322701032 -6.604157003719095 L106.81360579432322 -6.600068009529896 L106.80724725575237 -6.604518986529508 L106.80997999497603 -6.607739714900264 L106.81150180991428 -6.610022437307599 L106.80867187735439 -6.606720849321066 L106.8079896020017 -6.607013253043644 L106.80737631967358 -6.60660439815823 L106.8066505947584 -6.606708073146115 L106.80574540487875 -6.6053 L106.80502027815388 -6.6053 L106.80422446330853 -6.601818310051603 L106.8004117832393 -6.602629518576971 L106.79384268445892 -6.6059140679671735 L106.79730107418311 -6.604030320714552 L106.79669128689319 -6.604314376304638 L106.79587874502313 -6.6037726817246005 L106.7935858831005 -6.597180703697048 Z" stroke="blue" stroke-width="0.0001" fill="none" />
  </g>
</svg>
