<svg width="1049.9999999998977" height="1849.9999999999961" xmlns="http://www.w3.org/2000/svg" xmlns:xlink="http://www.w3.org/1999/xlink" >
  <g transform="translate(524.9999999999488 924.9999999999981) rotate(30) scale(10000 -10000) translate(-106.8125 6.592499999999999)">
    <path d="M106.76 -6.5 L106.865 -6.5 L106.865 -6.685 L106.76 -6.685 Z" fill="none" stroke="black" stroke-width="0.001" transform="translate(106.8125 -6.592499999999999) rotate(30) translate(-106.8125 6.592499999999999)" />
    <path d="M106.79729099096443 -6.592776213238852 L106.79839475350329 -6.593277923483788 L106.80080451023176 -6.5920420996106115 L106.8019061012046 -6.59249184189287 L106.8030502329864 -6.593363013532942 L106.80459108379459 -6.595828374826044 L106.80541045645762 -6.600949453970014 L106.80481778452942 -6.60177919466951 L106.79966685439426 -6.602890179600621 L106.7990725366508 -6.603187338472349 L106.79986727279282 -6.604688506740631 L106.8026448928127 -6.60806133105049 L106.8066447790539 -6.611661228667561 L106.81044409847686 -6.616260404811161 L106.81489311802007 -6.6201797791706545 L106.81259473314714 -6.620945907461634 L106.81249363914195 -6.623675445601654 L106.81026118757754 -6.623979870814983 L106.81007527531203 -6.624723519877017 L106.80927451642351 -6.625257359136012 L106.80930000000001 -6.6252828427125054 L106.80930000000001 -6.62496139990637 L106.81005290182921 -6.625243738092322 L106.81041768938503 -6.626155706981848 L106.80956864339554 -6.626014199316933 L106.80958284271247 -6.626000000000003 L106.80987143301164 -6.626288590299158 L106.81047381015526 -6.627854770872619 L106.80867402886165 -6.628172379336201 L106.80855539362048 -6.6288841907832285 L106.8077456744366 -6.6285371682758605 L106.80734902243469 -6.628933820277779 L106.80305438815117 -6.62725786543543 L106.8012520802371 -6.623553121389868 L106.80028660055662 -6.623124019309647 L106.8003853685887 -6.622136338988687 L106.7989 -6.6214 L106.8008146314113 -6.621863661011313 L106.80068675199168 -6.623142455207464 L106.79912238616315 -6.623744134372279 L106.79854816639745 -6.6228828047237345 L106.79784139272505 -6.623387643061166 L106.7966108422079 -6.621374014942173 L106.7962941010796 -6.619790309300756 L106.79696025787234 -6.617569786658288 L106.79917101854569 -6.617990883929402 L106.79966305167021 -6.61774486736715 L106.80125644950742 -6.615354770611337 L106.8031192958292 -6.614143920502173 L106.80196536504155 -6.612457406274068 L106.79988980952953 -6.611469046506437 L106.79629936250362 -6.60837727267855 L106.79465367312949 -6.607828709553843 L106.7952189777307 -6.605906673909768 L106.79626443754684 -6.604576088689206 L106.79591534149988 -6.603877896595275 L106.79354661542787 -6.597067809138248 L106.7896462994065 -6.596092730132905 L106.78838221149626 -6.595703780006676 L106.78747388374008 -6.595817320976196 L106.78630978795586 -6.5930234910940335 L106.78759331999288 -6.592916530090949 L106.7874919227561 -6.590077407461154 L106.7908416707978 -6.59042393312064 L106.78973557724032 -6.595652739028799 L106.79135577645991 -6.5960577888337015 L106.79224233346412 -6.592610067150681 L106.7941 -6.592486222714954 L106.7941 -6.5932472135954905 L106.79385605359549 -6.5937351064045275 L106.7946122171666 -6.5942644209043095 Z" stroke="blue" stroke-width="0.0002" fill="none" />
    <circle 
      cx="106.79729099096443" cy="-12.592776213238853"
      r="15" transform="translate(106.79729099096443 -6.592776213238852) scale(0.00001 -0.00001) translate(-106.79729099096443 6.592776213238852) translate(106.8125 -6.592499999999999) rotate(-30) translate(-106.8125 6.592499999999999)"
      fill="white" stroke="black" stroke-width="2"/>
    <circle 
      cx="106.8019061012046" cy="-12.592491841892869"
      r="15" transform="translate(106.8019061012046 -6.59249184189287) scale(0.00001 -0.00001) translate(-106.8019061012046 6.59249184189287) translate(106.8125 -6.592499999999999) rotate(-30) translate(-106.8125 6.592499999999999)"
      fill="white" stroke="black" stroke-width="2"/>
    <circle 
      cx="106.8030502329864" cy="-12.593363013532942"
      r="15" transform="translate(106.8030502329864 -6.593363013532942) scale(0.00001 -0.00001) translate(-106.8030502329864 6.593363013532942) translate(106.8125 -6.592499999999999) rotate(-30) translate(-106.8125 6.592499999999999)"
      fill="white" stroke="black" stroke-width="2"/>
    <circle 
      cx="106.80459108379459" cy="-12.595828374826045"
      r="15" transform="translate(106.80459108379459 -6.595828374826044) scale(0.00001 -0.00001) translate(-106.80459108379459 6.595828374826044) translate(106.8125 -6.592499999999999) rotate(-30) translate(-106.8125 6.592499999999999)"
      fill="white" stroke="black" stroke-width="2"/>
    <circle 
      cx="106.80541045645762" cy="-12.600949453970014"
      r="15" transform="translate(106.80541045645762 -6.600949453970014) scale(0.00001 -0.00001) translate(-106.80541045645762 6.600949453970014) translate(106.8125 -6.592499999999999) rotate(-30) translate(-106.8125 6.592499999999999)"
      fill="white" stroke="black" stroke-width="2"/>
    <circle 
      cx="106.80481778452942" cy="-12.601779194669511"
      r="15" transform="translate(106.80481778452942 -6.60177919466951) scale(0.00001 -0.00001) translate(-106.80481778452942 6.60177919466951) translate(106.8125 -6.592499999999999) rotate(-30) translate(-106.8125 6.592499999999999)"
      fill="white" stroke="black" stroke-width="2"/>
    <circle 
      cx="106.79966685439426" cy="-12.602890179600621"
      r="15" transform="translate(106.79966685439426 -6.602890179600621) scale(0.00001 -0.00001) translate(-106.79966685439426 6.602890179600621) translate(106.8125 -6.592499999999999) rotate(-30) translate(-106.8125 6.592499999999999)"
      fill="white" stroke="black" stroke-width="2"/>
    <circle 
      cx="106.7990725366508" cy="-12.603187338472349"
      r="15" transform="translate(106.7990725366508 -6.603187338472349) scale(0.00001 -0.00001) translate(-106.7990725366508 6.603187338472349) translate(106.8125 -6.592499999999999) rotate(-30) translate(-106.8125 6.592499999999999)"
      fill="white" stroke="black" stroke-width="2"/>
    <circle 
      cx="106.81259473314714" cy="-12.620945907461634"
      r="15" transform="translate(106.81259473314714 -6.620945907461634) scale(0.00001 -0.00001) translate(-106.81259473314714 6.620945907461634) translate(106.8125 -6.592499999999999) rotate(-30) translate(-106.8125 6.592499999999999)"
      fill="white" stroke="black" stroke-width="2"/>
    <circle 
      cx="106.80927451642351" cy="-12.625257359136011"
      r="15" transform="translate(106.80927451642351 -6.625257359136012) scale(0.00001 -0.00001) translate(-106.80927451642351 6.625257359136012) translate(106.8125 -6.592499999999999) rotate(-30) translate(-106.8125 6.592499999999999)"
      fill="white" stroke="black" stroke-width="2"/>
    <circle 
      cx="106.80930000000001" cy="-12.625282842712505"
      r="15" transform="translate(106.80930000000001 -6.6252828427125054) scale(0.00001 -0.00001) translate(-106.80930000000001 6.6252828427125054) translate(106.8125 -6.592499999999999) rotate(-30) translate(-106.8125 6.592499999999999)"
      fill="white" stroke="black" stroke-width="2"/>
    <circle 
      cx="106.81047381015526" cy="-12.62785477087262"
      r="15" transform="translate(106.81047381015526 -6.627854770872619) scale(0.00001 -0.00001) translate(-106.81047381015526 6.627854770872619) translate(106.8125 -6.592499999999999) rotate(-30) translate(-106.8125 6.592499999999999)"
      fill="white" stroke="black" stroke-width="2"/>
    <circle 
      cx="106.8031192958292" cy="-12.614143920502173"
      r="15" transform="translate(106.8031192958292 -6.614143920502173) scale(0.00001 -0.00001) translate(-106.8031192958292 6.614143920502173) translate(106.8125 -6.592499999999999) rotate(-30) translate(-106.8125 6.592499999999999)"
      fill="white" stroke="black" stroke-width="2"/>
    <circle 
      cx="106.80196536504155" cy="-12.612457406274068"
      r="15" transform="translate(106.80196536504155 -6.612457406274068) scale(0.00001 -0.00001) translate(-106.80196536504155 6.612457406274068) translate(106.8125 -6.592499999999999) rotate(-30) translate(-106.8125 6.592499999999999)"
      fill="white" stroke="black" stroke-width="2"/>
    <circle 
      cx="106.79591534149988" cy="-12.603877896595275"
      r="15" transform="translate(106.79591534149988 -6.603877896595275) scale(0.00001 -0.00001) translate(-106.79591534149988 6.603877896595275) translate(106.8125 -6.592499999999999) rotate(-30) translate(-106.8125 6.592499999999999)"
      fill="white" stroke="black" stroke-width="2"/>
    <circle 
      cx="106.79354661542787" cy="-12.597067809138249"
      r="15" transform="translate(106.79354661542787 -6.597067809138248) scale(0.00001 -0.00001) translate(-106.79354661542787 6.597067809138248) translate(106.8125 -6.592499999999999) rotate(-30) translate(-106.8125 6.592499999999999)"
      fill="white" stroke="black" stroke-width="2"/>
    <circle 
      cx="106.7896462994065" cy="-12.596092730132906"
      r="15" transform="translate(106.7896462994065 -6.596092730132905) scale(0.00001 -0.00001) translate(-106.7896462994065 6.596092730132905) translate(106.8125 -6.592499999999999) rotate(-30) translate(-106.8125 6.592499999999999)"
      fill="white" stroke="black" stroke-width="2"/>
    <circle 
      cx="106.78759331999288" cy="-12.59291653009095"
      r="15" transform="translate(106.78759331999288 -6.592916530090949) scale(0.00001 -0.00001) translate(-106.78759331999288 6.592916530090949) translate(106.8125 -6.592499999999999) rotate(-30) translate(-106.8125 6.592499999999999)"
      fill="white" stroke="black" stroke-width="2"/>
    <circle 
      cx="106.7874919227561" cy="-12.590077407461154"
      r="15" transform="translate(106.7874919227561 -6.590077407461154) scale(0.00001 -0.00001) translate(-106.7874919227561 6.590077407461154) translate(106.8125 -6.592499999999999) rotate(-30) translate(-106.8125 6.592499999999999)"
      fill="white" stroke="black" stroke-width="2"/>
    <circle 
      cx="106.79224233346412" cy="-12.59261006715068"
      r="15" transform="translate(106.79224233346412 -6.592610067150681) scale(0.00001 -0.00001) translate(-106.79224233346412 6.592610067150681) translate(106.8125 -6.592499999999999) rotate(-30) translate(-106.8125 6.592499999999999)"
      fill="white" stroke="black" stroke-width="2"/>
    <circle 
      cx="106.7941" cy="-12.592486222714953"
      r="15" transform="translate(106.7941 -6.592486222714954) scale(0.00001 -0.00001) translate(-106.7941 6.592486222714954) translate(106.8125 -6.592499999999999) rotate(-30) translate(-106.8125 6.592499999999999)"
      fill="white" stroke="black" stroke-width="2"/>
    <circle 
      cx="106.79385605359549" cy="-12.593735106404527"
      r="15" transform="translate(106.79385605359549 -6.5937351064045275) scale(0.00001 -0.00001) translate(-106.79385605359549 6.5937351064045275) translate(106.8125 -6.592499999999999) rotate(-30) translate(-106.8125 6.592499999999999)"
      fill="white" stroke="black" stroke-width="2"/>
    <circle 
      cx="106.7946122171666" cy="-12.59426442090431"
      r="15" transform="translate(106.7946122171666 -6.5942644209043095) scale(0.00001 -0.00001) translate(-106.7946122171666 6.5942644209043095) translate(106.8125 -6.592499999999999) rotate(-30) translate(-106.8125 6.592499999999999)"
      fill="white" stroke="black" stroke-width="2"/>
    <circle 
      cx="106.79729099096443" cy="-12.592776213238853"
      r="15" transform="translate(106.79729099096443 -6.592776213238852) scale(0.00001 -0.00001) translate(-106.79729099096443 6.592776213238852) translate(106.8125 -6.592499999999999) rotate(-30) translate(-106.8125 6.592499999999999)"
      fill="white" stroke="none"/>
    <circle 
      cx="106.8019061012046" cy="-12.592491841892869"
      r="15" transform="translate(106.8019061012046 -6.59249184189287) scale(0.00001 -0.00001) translate(-106.8019061012046 6.59249184189287) translate(106.8125 -6.592499999999999) rotate(-30) translate(-106.8125 6.592499999999999)"
      fill="white" stroke="none"/>
    <circle 
      cx="106.8030502329864" cy="-12.593363013532942"
      r="15" transform="translate(106.8030502329864 -6.593363013532942) scale(0.00001 -0.00001) translate(-106.8030502329864 6.593363013532942) translate(106.8125 -6.592499999999999) rotate(-30) translate(-106.8125 6.592499999999999)"
      fill="white" stroke="none"/>
    <circle 
      cx="106.80459108379459" cy="-12.595828374826045"
      r="15" transform="translate(106.80459108379459 -6.595828374826044) scale(0.00001 -0.00001) translate(-106.80459108379459 6.595828374826044) translate(106.8125 -6.592499999999999) rotate(-30) translate(-106.8125 6.592499999999999)"
      fill="white" stroke="none"/>
    <circle 
      cx="106.80541045645762" cy="-12.600949453970014"
      r="15" transform="translate(106.80541045645762 -6.600949453970014) scale(0.00001 -0.00001) translate(-106.80541045645762 6.600949453970014) translate(106.8125 -6.592499999999999) rotate(-30) translate(-106.8125 6.592499999999999)"
      fill="white" stroke="none"/>
    <circle 
      cx="106.80481778452942" cy="-12.601779194669511"
      r="15" transform="translate(106.80481778452942 -6.60177919466951) scale(0.00001 -0.00001) translate(-106.80481778452942 6.60177919466951) translate(106.8125 -6.592499999999999) rotate(-30) translate(-106.8125 6.592499999999999)"
      fill="white" stroke="none"/>
    <circle 
      cx="106.79966685439426" cy="-12.602890179600621"
      r="15" transform="translate(106.79966685439426 -6.602890179600621) scale(0.00001 -0.00001) translate(-106.79966685439426 6.602890179600621) translate(106.8125 -6.592499999999999) rotate(-30) translate(-106.8125 6.592499999999999)"
      fill="white" stroke="none"/>
    <circle 
      cx="106.7990725366508" cy="-12.603187338472349"
      r="15" transform="translate(106.7990725366508 -6.603187338472349) scale(0.00001 -0.00001) translate(-106.7990725366508 6.603187338472349) translate(106.8125 -6.592499999999999) rotate(-30) translate(-106.8125 6.592499999999999)"
      fill="white" stroke="none"/>
    <circle 
      cx="106.81259473314714" cy="-12.620945907461634"
      r="15" transform="translate(106.81259473314714 -6.620945907461634) scale(0.00001 -0.00001) translate(-106.81259473314714 6.620945907461634) translate(106.8125 -6.592499999999999) rotate(-30) translate(-106.8125 6.592499999999999)"
      fill="white" stroke="none"/>
    <circle 
      cx="106.80927451642351" cy="-12.625257359136011"
      r="15" transform="translate(106.80927451642351 -6.625257359136012) scale(0.00001 -0.00001) translate(-106.80927451642351 6.625257359136012) translate(106.8125 -6.592499999999999) rotate(-30) translate(-106.8125 6.592499999999999)"
      fill="white" stroke="none"/>
    <circle 
      cx="106.80930000000001" cy="-12.625282842712505"
      r="15" transform="translate(106.80930000000001 -6.6252828427125054) scale(0.00001 -0.00001) translate(-106.80930000000001 6.6252828427125054) translate(106.8125 -6.592499999999999) rotate(-30) translate(-106.8125 6.592499999999999)"
      fill="white" stroke="none"/>
    <circle 
      cx="106.81047381015526" cy="-12.62785477087262"
      r="15" transform="translate(106.81047381015526 -6.627854770872619) scale(0.00001 -0.00001) translate(-106.81047381015526 6.627854770872619) translate(106.8125 -6.592499999999999) rotate(-30) translate(-106.8125 6.592499999999999)"
      fill="white" stroke="none"/>
    <circle 
      cx="106.8031192958292" cy="-12.614143920502173"
      r="15" transform="translate(106.8031192958292 -6.614143920502173) scale(0.00001 -0.00001) translate(-106.8031192958292 6.614143920502173) translate(106.8125 -6.592499999999999) rotate(-30) translate(-106.8125 6.592499999999999)"
      fill="white" stroke="none"/>
    <circle 
      cx="106.80196536504155" cy="-12.612457406274068"
      r="15" transform="translate(106.80196536504155 -6.612457406274068) scale(0.00001 -0.00001) translate(-106.80196536504155 6.612457406274068) translate(106.8125 -6.592499999999999) rotate(-30) translate(-106.8125 6.592499999999999)"
      fill="white" stroke="none"/>
    <circle 
      cx="106.79591534149988" cy="-12.603877896595275"
      r="15" transform="translate(106.79591534149988 -6.603877896595275) scale(0.00001 -0.00001) translate(-106.79591534149988 6.603877896595275) translate(106.8125 -6.592499999999999) rotate(-30) translate(-106.8125 6.592499999999999)"
      fill="white" stroke="none"/>
    <circle 
      cx="106.79354661542787" cy="-12.597067809138249"
      r="15" transform="translate(106.79354661542787 -6.597067809138248) scale(0.00001 -0.00001) translate(-106.79354661542787 6.597067809138248) translate(106.8125 -6.592499999999999) rotate(-30) translate(-106.8125 6.592499999999999)"
      fill="white" stroke="none"/>
    <circle 
      cx="106.7896462994065" cy="-12.596092730132906"
      r="15" transform="translate(106.7896462994065 -6.596092730132905) scale(0.00001 -0.00001) translate(-106.7896462994065 6.596092730132905) translate(106.8125 -6.592499999999999) rotate(-30) translate(-106.8125 6.592499999999999)"
      fill="white" stroke="none"/>
    <circle 
      cx="106.78759331999288" cy="-12.59291653009095"
      r="15" transform="translate(106.78759331999288 -6.592916530090949) scale(0.00001 -0.00001) translate(-106.78759331999288 6.592916530090949) translate(106.8125 -6.592499999999999) rotate(-30) translate(-106.8125 6.592499999999999)"
      fill="white" stroke="none"/>
    <circle 
      cx="106.7874919227561" cy="-12.590077407461154"
      r="15" transform="translate(106.7874919227561 -6.590077407461154) scale(0.00001 -0.00001) translate(-106.7874919227561 6.590077407461154) translate(106.8125 -6.592499999999999) rotate(-30) translate(-106.8125 6.592499999999999)"
      fill="white" stroke="none"/>
    <circle 
      cx="106.79224233346412" cy="-12.59261006715068"
      r="15" transform="translate(106.79224233346412 -6.592610067150681) scale(0.00001 -0.00001) translate(-106.79224233346412 6.592610067150681) translate(106.8125 -6.592499999999999) rotate(-30) translate(-106.8125 6.592499999999999)"
      fill="white" stroke="none"/>
    <circle 
      cx="106.7941" cy="-12.592486222714953"
      r="15" transform="translate(106.7941 -6.592486222714954) scale(0.00001 -0.00001) translate(-106.7941 6.592486222714954) translate(106.8125 -6.592499999999999) rotate(-30) translate(-106.8125 6.592499999999999)"
      fill="white" stroke="none"/>
    <circle 
      cx="106.79385605359549" cy="-12.593735106404527"
      r="15" transform="translate(106.79385605359549 -6.5937351064045275) scale(0.00001 -0.00001) translate(-106.79385605359549 6.5937351064045275) translate(106.8125 -6.592499999999999) rotate(-30) translate(-106.8125 6.592499999999999)"
      fill="white" stroke="none"/>
    <circle 
      cx="106.7946122171666" cy="-12.59426442090431"
      r="15" transform="translate(106.7946122171666 -6.5942644209043095) scale(0.00001 -0.00001) translate(-106.7946122171666 6.5942644209043095) translate(106.8125 -6.592499999999999) rotate(-30) translate(-106.8125 6.592499999999999)"
      fill="white" stroke="none"/>
    <text x="106.79729099096443" y="-6.592776213238852" fill="black" text-anchor="middle" transform="translate(106.79729099096443 -6.592776213238852) scale(0.00001 -0.00001) translate(-106.79729099096443 6.592776213238852) translate(106.8125 -6.592499999999999) rotate(-30) translate(-106.8125 6.592499999999999)">01</text>
    <text x="106.8019061012046" y="-6.59249184189287" fill="black" text-anchor="middle" transform="translate(106.8019061012046 -6.59249184189287) scale(0.00001 -0.00001) translate(-106.8019061012046 6.59249184189287) translate(106.8125 -6.592499999999999) rotate(-30) translate(-106.8125 6.592499999999999)">01</text>
    <text x="106.8030502329864" y="-6.593363013532942" fill="black" text-anchor="middle" transform="translate(106.8030502329864 -6.593363013532942) scale(0.00001 -0.00001) translate(-106.8030502329864 6.593363013532942) translate(106.8125 -6.592499999999999) rotate(-30) translate(-106.8125 6.592499999999999)">01</text>
    <text x="106.80459108379459" y="-6.595828374826044" fill="black" text-anchor="middle" transform="translate(106.80459108379459 -6.595828374826044) scale(0.00001 -0.00001) translate(-106.80459108379459 6.595828374826044) translate(106.8125 -6.592499999999999) rotate(-30) translate(-106.8125 6.592499999999999)">01</text>
    <text x="106.80541045645762" y="-6.600949453970014" fill="black" text-anchor="middle" transform="translate(106.80541045645762 -6.600949453970014) scale(0.00001 -0.00001) translate(-106.80541045645762 6.600949453970014) translate(106.8125 -6.592499999999999) rotate(-30) translate(-106.8125 6.592499999999999)">01</text>
    <text x="106.80481778452942" y="-6.60177919466951" fill="black" text-anchor="middle" transform="translate(106.80481778452942 -6.60177919466951) scale(0.00001 -0.00001) translate(-106.80481778452942 6.60177919466951) translate(106.8125 -6.592499999999999) rotate(-30) translate(-106.8125 6.592499999999999)">01</text>
    <text x="106.79966685439426" y="-6.602890179600621" fill="black" text-anchor="middle" transform="translate(106.79966685439426 -6.602890179600621) scale(0.00001 -0.00001) translate(-106.79966685439426 6.602890179600621) translate(106.8125 -6.592499999999999) rotate(-30) translate(-106.8125 6.592499999999999)">01</text>
    <text x="106.7990725366508" y="-6.603187338472349" fill="black" text-anchor="middle" transform="translate(106.7990725366508 -6.603187338472349) scale(0.00001 -0.00001) translate(-106.7990725366508 6.603187338472349) translate(106.8125 -6.592499999999999) rotate(-30) translate(-106.8125 6.592499999999999)">01</text>
    <text x="106.81259473314714" y="-6.620945907461634" fill="black" text-anchor="middle" transform="translate(106.81259473314714 -6.620945907461634) scale(0.00001 -0.00001) translate(-106.81259473314714 6.620945907461634) translate(106.8125 -6.592499999999999) rotate(-30) translate(-106.8125 6.592499999999999)">01</text>
    <text x="106.80927451642351" y="-6.625257359136012" fill="black" text-anchor="middle" transform="translate(106.80927451642351 -6.625257359136012) scale(0.00001 -0.00001) translate(-106.80927451642351 6.625257359136012) translate(106.8125 -6.592499999999999) rotate(-30) translate(-106.8125 6.592499999999999)">01</text>
    <text x="106.80930000000001" y="-6.6252828427125054" fill="black" text-anchor="middle" transform="translate(106.80930000000001 -6.6252828427125054) scale(0.00001 -0.00001) translate(-106.80930000000001 6.6252828427125054) translate(106.8125 -6.592499999999999) rotate(-30) translate(-106.8125 6.592499999999999)">01</text>
    <text x="106.81047381015526" y="-6.627854770872619" fill="black" text-anchor="middle" transform="translate(106.81047381015526 -6.627854770872619) scale(0.00001 -0.00001) translate(-106.81047381015526 6.627854770872619) translate(106.8125 -6.592499999999999) rotate(-30) translate(-106.8125 6.592499999999999)">01</text>
    <text x="106.8031192958292" y="-6.614143920502173" fill="black" text-anchor="middle" transform="translate(106.8031192958292 -6.614143920502173) scale(0.00001 -0.00001) translate(-106.8031192958292 6.614143920502173) translate(106.8125 -6.592499999999999) rotate(-30) translate(-106.8125 6.592499999999999)">01</text>
    <text x="106.80196536504155" y="-6.612457406274068" fill="black" text-anchor="middle" transform="translate(106.80196536504155 -6.612457406274068) scale(0.00001 -0.00001) translate(-106.80196536504155 6.612457406274068) translate(106.8125 -6.592499999999999) rotate(-30) translate(-106.8125 6.592499999999999)">01</text>
    <text x="106.79591534149988" y="-6.603877896595275" fill="black" text-anchor="middle" transform="translate(106.79591534149988 -6.603877896595275) scale(0.00001 -0.00001) translate(-106.79591534149988 6.603877896595275) translate(106.8125 -6.592499999999999) rotate(-30) translate(-106.8125 6.592499999999999)">01</text>
    <text x="106.79354661542787" y="-6.597067809138248" fill="black" text-anchor="middle" transform="translate(106.79354661542787 -6.597067809138248) scale(0.00001 -0.00001) translate(-106.79354661542787 6.597067809138248) translate(106.8125 -6.592499999999999) rotate(-30) translate(-106.8125 6.592499999999999)">01</text>
    <text x="106.7896462994065" y="-6.596092730132905" fill="black" text-anchor="middle" transform="translate(106.7896462994065 -6.596092730132905) scale(0.00001 -0.00001) translate(-106.7896462994065 6.596092730132905) translate(106.8125 -6.592499999999999) rotate(-30) translate(-106.8125 6.592499999999999)">01</text>
    <text x="106.78759331999288" y="-6.592916530090949" fill="black" text-anchor="middle" transform="translate(106.78759331999288 -6.592916530090949) scale(0.00001 -0.00001) translate(-106.78759331999288 6.592916530090949) translate(106.8125 -6.592499999999999) rotate(-30) translate(-106.8125 6.592499999999999)">01</text>
    <text x="106.7874919227561" y="-6.590077407461154" fill="black" text-anchor="middle" transform="translate(106.7874919227561 -6.590077407461154) scale(0.00001 -0.00001) translate(-106.7874919227561 6.590077407461154) translate(106.8125 -6.592499999999999) rotate(-30) translate(-106.8125 6.592499999999999)">01</text>
    <text x="106.79224233346412" y="-6.592610067150681" fill="black" text-anchor="middle" transform="translate(106.79224233346412 -6.592610067150681) scale(0.00001 -0.00001) translate(-106.79224233346412 6.592610067150681) translate(106.8125 -6.592499999999999) rotate(-30) translate(-106.8125 6.592499999999999)">01</text>
    <text x="106.7941" y="-6.592486222714954" fill="black" text-anchor="middle" transform="translate(106.7941 -6.592486222714954) scale(0.00001 -0.00001) translate(-106.7941 6.592486222714954) translate(106.8125 -6.592499999999999) rotate(-30) translate(-106.8125 6.592499999999999)">01</text>
    <text x="106.79385605359549" y="-6.5937351064045275" fill="black" text-anchor="middle" transform="translate(106.79385605359549 -6.5937351064045275) scale(0.00001 -0.00001) translate(-106.79385605359549 6.5937351064045275) translate(106.8125 -6.592499999999999) rotate(-30) translate(-106.8125 6.592499999999999)">01</text>
    <text x="106.7946122171666" y="-6.5942644209043095" fill="black" text-anchor="middle" transform="translate(106.7946122171666 -6.5942644209043095) scale(0.00001 -0.00001) translate(-106.7946122171666 6.5942644209043095) translate(106.8125 -6.592499999999999) rotate(-30) translate(-106.8125 6.592499999999999)">01</text>
    <line x1="106.7946" y1="-6.5945" x2="106.7973" y2="-6.593" style="stroke:rgb(255,0,0);stroke-width:.00002" />
    <line x1="106.7973" y1="-6.593" x2="106.7984" y2="-6.5935" style="stroke:rgb(255,0,0);stroke-width:.00002" />
    <line x1="106.7984" y1="-6.5935" x2="106.800814" y2="-6.592262" style="stroke:rgb(255,0,0);stroke-width:.00002" />
    <line x1="106.800814" y1="-6.592262" x2="106.801806" y2="-6.592667" style="stroke:rgb(255,0,0);stroke-width:.00002" />
    <line x1="106.801806" y1="-6.592667" x2="106.8029" y2="-6.5935" style="stroke:rgb(255,0,0);stroke-width:.00002" />
    <line x1="106.8029" y1="-6.5935" x2="106.8044" y2="-6.5959" style="stroke:rgb(255,0,0);stroke-width:.00002" />
    <line x1="106.8044" y1="-6.5959" x2="106.8052" y2="-6.6009" style="stroke:rgb(255,0,0);stroke-width:.00002" />
    <line x1="106.8052" y1="-6.6009" x2="106.8047" y2="-6.6016" style="stroke:rgb(255,0,0);stroke-width:.00002" />
    <line x1="106.8047" y1="-6.6016" x2="106.7996" y2="-6.6027" style="stroke:rgb(255,0,0);stroke-width:.00002" />
    <line x1="106.7996" y1="-6.6027" x2="106.7988" y2="-6.6031" style="stroke:rgb(255,0,0);stroke-width:.00002" />
    <line x1="106.7988" y1="-6.6031" x2="106.7997" y2="-6.6048" style="stroke:rgb(255,0,0);stroke-width:.00002" />
    <line x1="106.7997" y1="-6.6048" x2="106.8025" y2="-6.6082" style="stroke:rgb(255,0,0);stroke-width:.00002" />
    <line x1="106.8025" y1="-6.6082" x2="106.8065" y2="-6.6118" style="stroke:rgb(255,0,0);stroke-width:.00002" />
    <line x1="106.8065" y1="-6.6118" x2="106.8103" y2="-6.6164" style="stroke:rgb(255,0,0);stroke-width:.00002" />
    <line x1="106.8103" y1="-6.6164" x2="106.8145" y2="-6.6201" style="stroke:rgb(255,0,0);stroke-width:.00002" />
    <line x1="106.8145" y1="-6.6201" x2="106.8124" y2="-6.6208" style="stroke:rgb(255,0,0);stroke-width:.00002" />
    <line x1="106.8124" y1="-6.6208" x2="106.8123" y2="-6.6235" style="stroke:rgb(255,0,0);stroke-width:.00002" />
    <line x1="106.8123" y1="-6.6235" x2="106.8101" y2="-6.6238" style="stroke:rgb(255,0,0);stroke-width:.00002" />
    <line x1="106.8101" y1="-6.6238" x2="106.8099" y2="-6.6246" style="stroke:rgb(255,0,0);stroke-width:.00002" />
    <line x1="106.8099" y1="-6.6246" x2="106.8093" y2="-6.625" style="stroke:rgb(255,0,0);stroke-width:.00002" />
    <line x1="106.8093" y1="-6.625" x2="106.8091" y2="-6.6248" style="stroke:rgb(255,0,0);stroke-width:.00002" />
    <line x1="106.8091" y1="-6.6248" x2="106.8091" y2="-6.6251" style="stroke:rgb(255,0,0);stroke-width:.00002" />
    <line x1="106.8091" y1="-6.6251" x2="106.8099" y2="-6.6254" style="stroke:rgb(255,0,0);stroke-width:.00002" />
    <line x1="106.8099" y1="-6.6254" x2="106.8101" y2="-6.6259" style="stroke:rgb(255,0,0);stroke-width:.00002" />
    <line x1="106.8101" y1="-6.6259" x2="106.8095" y2="-6.6258" style="stroke:rgb(255,0,0);stroke-width:.00002" />
    <line x1="106.8095" y1="-6.6258" x2="106.8093" y2="-6.626" style="stroke:rgb(255,0,0);stroke-width:.00002" />
    <line x1="106.8093" y1="-6.626" x2="106.8097" y2="-6.6264" style="stroke:rgb(255,0,0);stroke-width:.00002" />
    <line x1="106.8097" y1="-6.6264" x2="106.8102" y2="-6.6277" style="stroke:rgb(255,0,0);stroke-width:.00002" />
    <line x1="106.8102" y1="-6.6277" x2="106.8085" y2="-6.628" style="stroke:rgb(255,0,0);stroke-width:.00002" />
    <line x1="106.8085" y1="-6.628" x2="106.8084" y2="-6.6286" style="stroke:rgb(255,0,0);stroke-width:.00002" />
    <line x1="106.8084" y1="-6.6286" x2="106.8077" y2="-6.6283" style="stroke:rgb(255,0,0);stroke-width:.00002" />
    <line x1="106.8077" y1="-6.6283" x2="106.8073" y2="-6.6287" style="stroke:rgb(255,0,0);stroke-width:.00002" />
    <line x1="106.8073" y1="-6.6287" x2="106.8032" y2="-6.6271" style="stroke:rgb(255,0,0);stroke-width:.00002" />
    <line x1="106.8032" y1="-6.6271" x2="106.8014" y2="-6.6234" style="stroke:rgb(255,0,0);stroke-width:.00002" />
    <line x1="106.8014" y1="-6.6234" x2="106.8005" y2="-6.623" style="stroke:rgb(255,0,0);stroke-width:.00002" />
    <line x1="106.8005" y1="-6.623" x2="106.8006" y2="-6.622" style="stroke:rgb(255,0,0);stroke-width:.00002" />
    <line x1="106.8006" y1="-6.622" x2="106.7989" y2="-6.6214" style="stroke:rgb(255,0,0);stroke-width:.00002" />
    <line x1="106.7989" y1="-6.6214" x2="106.8006" y2="-6.622" style="stroke:rgb(255,0,0);stroke-width:.00002" />
    <line x1="106.8006" y1="-6.622" x2="106.8005" y2="-6.623" style="stroke:rgb(255,0,0);stroke-width:.00002" />
    <line x1="106.8005" y1="-6.623" x2="106.7992" y2="-6.6235" style="stroke:rgb(255,0,0);stroke-width:.00002" />
    <line x1="106.7992" y1="-6.6235" x2="106.7986" y2="-6.6226" style="stroke:rgb(255,0,0);stroke-width:.00002" />
    <line x1="106.7986" y1="-6.6226" x2="106.7979" y2="-6.6231" style="stroke:rgb(255,0,0);stroke-width:.00002" />
    <line x1="106.7979" y1="-6.6231" x2="106.7968" y2="-6.6213" style="stroke:rgb(255,0,0);stroke-width:.00002" />
    <line x1="106.7968" y1="-6.6213" x2="106.7965" y2="-6.6198" style="stroke:rgb(255,0,0);stroke-width:.00002" />
    <line x1="106.7965" y1="-6.6198" x2="106.7971" y2="-6.6178" style="stroke:rgb(255,0,0);stroke-width:.00002" />
    <line x1="106.7971" y1="-6.6178" x2="106.7992" y2="-6.6182" style="stroke:rgb(255,0,0);stroke-width:.00002" />
    <line x1="106.7992" y1="-6.6182" x2="106.7998" y2="-6.6179" style="stroke:rgb(255,0,0);stroke-width:.00002" />
    <line x1="106.7998" y1="-6.6179" x2="106.8014" y2="-6.6155" style="stroke:rgb(255,0,0);stroke-width:.00002" />
    <line x1="106.8014" y1="-6.6155" x2="106.8034" y2="-6.6142" style="stroke:rgb(255,0,0);stroke-width:.00002" />
    <line x1="106.8034" y1="-6.6142" x2="106.8021" y2="-6.6123" style="stroke:rgb(255,0,0);stroke-width:.00002" />
    <line x1="106.8021" y1="-6.6123" x2="106.8" y2="-6.6113" style="stroke:rgb(255,0,0);stroke-width:.00002" />
    <line x1="106.8" y1="-6.6113" x2="106.7964" y2="-6.6082" style="stroke:rgb(255,0,0);stroke-width:.00002" />
    <line x1="106.7964" y1="-6.6082" x2="106.7949" y2="-6.6077" style="stroke:rgb(255,0,0);stroke-width:.00002" />
    <line x1="106.7949" y1="-6.6077" x2="106.7954" y2="-6.606" style="stroke:rgb(255,0,0);stroke-width:.00002" />
    <line x1="106.7954" y1="-6.606" x2="106.7965" y2="-6.6046" style="stroke:rgb(255,0,0);stroke-width:.00002" />
    <line x1="106.7965" y1="-6.6046" x2="106.7961" y2="-6.6038" style="stroke:rgb(255,0,0);stroke-width:.00002" />
    <line x1="106.7961" y1="-6.6038" x2="106.7937" y2="-6.5969" style="stroke:rgb(255,0,0);stroke-width:.00002" />
    <line x1="106.7937" y1="-6.5969" x2="106.7897" y2="-6.5959" style="stroke:rgb(255,0,0);stroke-width:.00002" />
    <line x1="106.7897" y1="-6.5959" x2="106.7884" y2="-6.5955" style="stroke:rgb(255,0,0);stroke-width:.00002" />
    <line x1="106.7884" y1="-6.5955" x2="106.7876" y2="-6.5956" style="stroke:rgb(255,0,0);stroke-width:.00002" />
    <line x1="106.7876" y1="-6.5956" x2="106.7866" y2="-6.5932" style="stroke:rgb(255,0,0);stroke-width:.00002" />
    <line x1="106.7866" y1="-6.5932" x2="106.7878" y2="-6.5931" style="stroke:rgb(255,0,0);stroke-width:.00002" />
    <line x1="106.7878" y1="-6.5931" x2="106.7877" y2="-6.5903" style="stroke:rgb(255,0,0);stroke-width:.00002" />
    <line x1="106.7877" y1="-6.5903" x2="106.7906" y2="-6.5906" style="stroke:rgb(255,0,0);stroke-width:.00002" />
    <line x1="106.7906" y1="-6.5906" x2="106.7895" y2="-6.5958" style="stroke:rgb(255,0,0);stroke-width:.00002" />
    <line x1="106.7895" y1="-6.5958" x2="106.7915" y2="-6.5963" style="stroke:rgb(255,0,0);stroke-width:.00002" />
    <line x1="106.7915" y1="-6.5963" x2="106.7924" y2="-6.5928" style="stroke:rgb(255,0,0);stroke-width:.00002" />
    <line x1="106.7924" y1="-6.5928" x2="106.7939" y2="-6.5927" style="stroke:rgb(255,0,0);stroke-width:.00002" />
    <line x1="106.7939" y1="-6.5927" x2="106.7939" y2="-6.5932" style="stroke:rgb(255,0,0);stroke-width:.00002" />
    <line x1="106.7939" y1="-6.5932" x2="106.7936" y2="-6.5938" style="stroke:rgb(255,0,0);stroke-width:.00002" />
    <line x1="106.7936" y1="-6.5938" x2="106.7946" y2="-6.5945" style="stroke:rgb(255,0,0);stroke-width:.00002" />
  </g>
</svg>
