<svg width="1049.9999999998977" height="1849.9999999999961" xmlns="http://www.w3.org/2000/svg" xmlns:xlink="http://www.w3.org/1999/xlink" >
  <g transform="translate(524.9999999999488 924.9999999999981) rotate(30) scale(10000 -10000) translate(-106.8125 6.592499999999999)">
    <path d="M106.76 -6.5 L106.865 -6.5 L106.865 -6.685 L106.76 -6.685 Z" fill="none" stroke="black" stroke-width="0.001" transform="translate(106.8125 -6.592499999999999) rotate(30) translate(-106.8125 6.592499999999999)" />
    <path d="M106.80513858791107 -6.588455563323018 L106.80611706484093 -6.588710902920253 L106.8061204713593 -6.5886693709235535 L106.80609883203857 -6.592568776518703 L106.80517990439887 -6.5925879730089045 L106.80515602415066 -6.5930297576008625 L106.8064177592672 -6.600915602079323 L106.8054616802293 -6.602254112732393 L106.79912616756043 -6.603620595857049 L106.79645845233196 -6.605000448561432 L106.79488131696976 -6.603949024986637 L106.79242414913743 -6.5968846674687125 L106.79373976151128 -6.593376367805143 L106.79701944192345 -6.591554323131716 L106.79836852101968 -6.59216754090274 L106.80075706139054 -6.590942597663674 L106.8016948112049 -6.591325449150384 L106.80339362538176 -6.5926189703655 L106.80443046571861 -6.591826092460857 L106.8047018859159 -6.588569050093491 L106.80654352887944 -6.580588597251475 L106.81102929488338 -6.580901557670354 L106.8132 -6.5816 L106.81078783130563 -6.581256880099875 L106.81099842649476 -6.5784138450464855 L106.81069522809487 -6.576998919180345 L106.81226366913992 -6.570038962042881 L106.80925291196449 -6.5691534452265765 L106.80689550311399 -6.580842264110335 Z" stroke="red" stroke-width="0.0002" fill="none" />
    <circle 
      cx="106.8061204713593" cy="-12.588669370923554"
      r="15" transform="translate(106.8061204713593 -6.5886693709235535) scale(0.00001 -0.00001) translate(-106.8061204713593 6.5886693709235535) translate(106.8125 -6.592499999999999) rotate(-30) translate(-106.8125 6.592499999999999)"
      fill="white" stroke="black" stroke-width="2"/>
    <circle 
      cx="106.80517990439887" cy="-12.592587973008904"
      r="15" transform="translate(106.80517990439887 -6.5925879730089045) scale(0.00001 -0.00001) translate(-106.80517990439887 6.5925879730089045) translate(106.8125 -6.592499999999999) rotate(-30) translate(-106.8125 6.592499999999999)"
      fill="white" stroke="black" stroke-width="2"/>
    <circle 
      cx="106.80515602415066" cy="-12.593029757600863"
      r="15" transform="translate(106.80515602415066 -6.5930297576008625) scale(0.00001 -0.00001) translate(-106.80515602415066 6.5930297576008625) translate(106.8125 -6.592499999999999) rotate(-30) translate(-106.8125 6.592499999999999)"
      fill="white" stroke="black" stroke-width="2"/>
    <circle 
      cx="106.8064177592672" cy="-12.600915602079322"
      r="15" transform="translate(106.8064177592672 -6.600915602079323) scale(0.00001 -0.00001) translate(-106.8064177592672 6.600915602079323) translate(106.8125 -6.592499999999999) rotate(-30) translate(-106.8125 6.592499999999999)"
      fill="white" stroke="black" stroke-width="2"/>
    <circle 
      cx="106.8054616802293" cy="-12.602254112732393"
      r="15" transform="translate(106.8054616802293 -6.602254112732393) scale(0.00001 -0.00001) translate(-106.8054616802293 6.602254112732393) translate(106.8125 -6.592499999999999) rotate(-30) translate(-106.8125 6.592499999999999)"
      fill="white" stroke="black" stroke-width="2"/>
    <circle 
      cx="106.79912616756043" cy="-12.603620595857048"
      r="15" transform="translate(106.79912616756043 -6.603620595857049) scale(0.00001 -0.00001) translate(-106.79912616756043 6.603620595857049) translate(106.8125 -6.592499999999999) rotate(-30) translate(-106.8125 6.592499999999999)"
      fill="white" stroke="black" stroke-width="2"/>
    <circle 
      cx="106.79645845233196" cy="-12.605000448561432"
      r="15" transform="translate(106.79645845233196 -6.605000448561432) scale(0.00001 -0.00001) translate(-106.79645845233196 6.605000448561432) translate(106.8125 -6.592499999999999) rotate(-30) translate(-106.8125 6.592499999999999)"
      fill="white" stroke="black" stroke-width="2"/>
    <circle 
      cx="106.79488131696976" cy="-12.603949024986637"
      r="15" transform="translate(106.79488131696976 -6.603949024986637) scale(0.00001 -0.00001) translate(-106.79488131696976 6.603949024986637) translate(106.8125 -6.592499999999999) rotate(-30) translate(-106.8125 6.592499999999999)"
      fill="white" stroke="black" stroke-width="2"/>
    <circle 
      cx="106.79242414913743" cy="-12.596884667468712"
      r="15" transform="translate(106.79242414913743 -6.5968846674687125) scale(0.00001 -0.00001) translate(-106.79242414913743 6.5968846674687125) translate(106.8125 -6.592499999999999) rotate(-30) translate(-106.8125 6.592499999999999)"
      fill="white" stroke="black" stroke-width="2"/>
    <circle 
      cx="106.79373976151128" cy="-12.593376367805142"
      r="15" transform="translate(106.79373976151128 -6.593376367805143) scale(0.00001 -0.00001) translate(-106.79373976151128 6.593376367805143) translate(106.8125 -6.592499999999999) rotate(-30) translate(-106.8125 6.592499999999999)"
      fill="white" stroke="black" stroke-width="2"/>
    <circle 
      cx="106.79701944192345" cy="-12.591554323131717"
      r="15" transform="translate(106.79701944192345 -6.591554323131716) scale(0.00001 -0.00001) translate(-106.79701944192345 6.591554323131716) translate(106.8125 -6.592499999999999) rotate(-30) translate(-106.8125 6.592499999999999)"
      fill="white" stroke="black" stroke-width="2"/>
    <circle 
      cx="106.8016948112049" cy="-12.591325449150384"
      r="15" transform="translate(106.8016948112049 -6.591325449150384) scale(0.00001 -0.00001) translate(-106.8016948112049 6.591325449150384) translate(106.8125 -6.592499999999999) rotate(-30) translate(-106.8125 6.592499999999999)"
      fill="white" stroke="black" stroke-width="2"/>
    <circle 
      cx="106.80339362538176" cy="-12.5926189703655"
      r="15" transform="translate(106.80339362538176 -6.5926189703655) scale(0.00001 -0.00001) translate(-106.80339362538176 6.5926189703655) translate(106.8125 -6.592499999999999) rotate(-30) translate(-106.8125 6.592499999999999)"
      fill="white" stroke="black" stroke-width="2"/>
    <circle 
      cx="106.80443046571861" cy="-12.591826092460856"
      r="15" transform="translate(106.80443046571861 -6.591826092460857) scale(0.00001 -0.00001) translate(-106.80443046571861 6.591826092460857) translate(106.8125 -6.592499999999999) rotate(-30) translate(-106.8125 6.592499999999999)"
      fill="white" stroke="black" stroke-width="2"/>
    <circle 
      cx="106.80654352887944" cy="-12.580588597251474"
      r="15" transform="translate(106.80654352887944 -6.580588597251475) scale(0.00001 -0.00001) translate(-106.80654352887944 6.580588597251475) translate(106.8125 -6.592499999999999) rotate(-30) translate(-106.8125 6.592499999999999)"
      fill="white" stroke="black" stroke-width="2"/>
    <circle 
      cx="106.8132" cy="-12.5816"
      r="15" transform="translate(106.8132 -6.5816) scale(0.00001 -0.00001) translate(-106.8132 6.5816) translate(106.8125 -6.592499999999999) rotate(-30) translate(-106.8125 6.592499999999999)"
      fill="white" stroke="black" stroke-width="2"/>
    <circle 
      cx="106.81078783130563" cy="-12.581256880099875"
      r="15" transform="translate(106.81078783130563 -6.581256880099875) scale(0.00001 -0.00001) translate(-106.81078783130563 6.581256880099875) translate(106.8125 -6.592499999999999) rotate(-30) translate(-106.8125 6.592499999999999)"
      fill="white" stroke="black" stroke-width="2"/>
    <circle 
      cx="106.80925291196449" cy="-12.569153445226576"
      r="15" transform="translate(106.80925291196449 -6.5691534452265765) scale(0.00001 -0.00001) translate(-106.80925291196449 6.5691534452265765) translate(106.8125 -6.592499999999999) rotate(-30) translate(-106.8125 6.592499999999999)"
      fill="white" stroke="black" stroke-width="2"/>
    <circle 
      cx="106.80689550311399" cy="-12.580842264110334"
      r="15" transform="translate(106.80689550311399 -6.580842264110335) scale(0.00001 -0.00001) translate(-106.80689550311399 6.580842264110335) translate(106.8125 -6.592499999999999) rotate(-30) translate(-106.8125 6.592499999999999)"
      fill="white" stroke="black" stroke-width="2"/>
    <circle 
      cx="106.8061204713593" cy="-12.588669370923554"
      r="15" transform="translate(106.8061204713593 -6.5886693709235535) scale(0.00001 -0.00001) translate(-106.8061204713593 6.5886693709235535) translate(106.8125 -6.592499999999999) rotate(-30) translate(-106.8125 6.592499999999999)"
      fill="white" stroke="none"/>
    <circle 
      cx="106.80517990439887" cy="-12.592587973008904"
      r="15" transform="translate(106.80517990439887 -6.5925879730089045) scale(0.00001 -0.00001) translate(-106.80517990439887 6.5925879730089045) translate(106.8125 -6.592499999999999) rotate(-30) translate(-106.8125 6.592499999999999)"
      fill="white" stroke="none"/>
    <circle 
      cx="106.80515602415066" cy="-12.593029757600863"
      r="15" transform="translate(106.80515602415066 -6.5930297576008625) scale(0.00001 -0.00001) translate(-106.80515602415066 6.5930297576008625) translate(106.8125 -6.592499999999999) rotate(-30) translate(-106.8125 6.592499999999999)"
      fill="white" stroke="none"/>
    <circle 
      cx="106.8064177592672" cy="-12.600915602079322"
      r="15" transform="translate(106.8064177592672 -6.600915602079323) scale(0.00001 -0.00001) translate(-106.8064177592672 6.600915602079323) translate(106.8125 -6.592499999999999) rotate(-30) translate(-106.8125 6.592499999999999)"
      fill="white" stroke="none"/>
    <circle 
      cx="106.8054616802293" cy="-12.602254112732393"
      r="15" transform="translate(106.8054616802293 -6.602254112732393) scale(0.00001 -0.00001) translate(-106.8054616802293 6.602254112732393) translate(106.8125 -6.592499999999999) rotate(-30) translate(-106.8125 6.592499999999999)"
      fill="white" stroke="none"/>
    <circle 
      cx="106.79912616756043" cy="-12.603620595857048"
      r="15" transform="translate(106.79912616756043 -6.603620595857049) scale(0.00001 -0.00001) translate(-106.79912616756043 6.603620595857049) translate(106.8125 -6.592499999999999) rotate(-30) translate(-106.8125 6.592499999999999)"
      fill="white" stroke="none"/>
    <circle 
      cx="106.79645845233196" cy="-12.605000448561432"
      r="15" transform="translate(106.79645845233196 -6.605000448561432) scale(0.00001 -0.00001) translate(-106.79645845233196 6.605000448561432) translate(106.8125 -6.592499999999999) rotate(-30) translate(-106.8125 6.592499999999999)"
      fill="white" stroke="none"/>
    <circle 
      cx="106.79488131696976" cy="-12.603949024986637"
      r="15" transform="translate(106.79488131696976 -6.603949024986637) scale(0.00001 -0.00001) translate(-106.79488131696976 6.603949024986637) translate(106.8125 -6.592499999999999) rotate(-30) translate(-106.8125 6.592499999999999)"
      fill="white" stroke="none"/>
    <circle 
      cx="106.79242414913743" cy="-12.596884667468712"
      r="15" transform="translate(106.79242414913743 -6.5968846674687125) scale(0.00001 -0.00001) translate(-106.79242414913743 6.5968846674687125) translate(106.8125 -6.592499999999999) rotate(-30) translate(-106.8125 6.592499999999999)"
      fill="white" stroke="none"/>
    <circle 
      cx="106.79373976151128" cy="-12.593376367805142"
      r="15" transform="translate(106.79373976151128 -6.593376367805143) scale(0.00001 -0.00001) translate(-106.79373976151128 6.593376367805143) translate(106.8125 -6.592499999999999) rotate(-30) translate(-106.8125 6.592499999999999)"
      fill="white" stroke="none"/>
    <circle 
      cx="106.79701944192345" cy="-12.591554323131717"
      r="15" transform="translate(106.79701944192345 -6.591554323131716) scale(0.00001 -0.00001) translate(-106.79701944192345 6.591554323131716) translate(106.8125 -6.592499999999999) rotate(-30) translate(-106.8125 6.592499999999999)"
      fill="white" stroke="none"/>
    <circle 
      cx="106.8016948112049" cy="-12.591325449150384"
      r="15" transform="translate(106.8016948112049 -6.591325449150384) scale(0.00001 -0.00001) translate(-106.8016948112049 6.591325449150384) translate(106.8125 -6.592499999999999) rotate(-30) translate(-106.8125 6.592499999999999)"
      fill="white" stroke="none"/>
    <circle 
      cx="106.80339362538176" cy="-12.5926189703655"
      r="15" transform="translate(106.80339362538176 -6.5926189703655) scale(0.00001 -0.00001) translate(-106.80339362538176 6.5926189703655) translate(106.8125 -6.592499999999999) rotate(-30) translate(-106.8125 6.592499999999999)"
      fill="white" stroke="none"/>
    <circle 
      cx="106.80443046571861" cy="-12.591826092460856"
      r="15" transform="translate(106.80443046571861 -6.591826092460857) scale(0.00001 -0.00001) translate(-106.80443046571861 6.591826092460857) translate(106.8125 -6.592499999999999) rotate(-30) translate(-106.8125 6.592499999999999)"
      fill="white" stroke="none"/>
    <circle 
      cx="106.80654352887944" cy="-12.580588597251474"
      r="15" transform="translate(106.80654352887944 -6.580588597251475) scale(0.00001 -0.00001) translate(-106.80654352887944 6.580588597251475) translate(106.8125 -6.592499999999999) rotate(-30) translate(-106.8125 6.592499999999999)"
      fill="white" stroke="none"/>
    <circle 
      cx="106.8132" cy="-12.5816"
      r="15" transform="translate(106.8132 -6.5816) scale(0.00001 -0.00001) translate(-106.8132 6.5816) translate(106.8125 -6.592499999999999) rotate(-30) translate(-106.8125 6.592499999999999)"
      fill="white" stroke="none"/>
    <circle 
      cx="106.81078783130563" cy="-12.581256880099875"
      r="15" transform="translate(106.81078783130563 -6.581256880099875) scale(0.00001 -0.00001) translate(-106.81078783130563 6.581256880099875) translate(106.8125 -6.592499999999999) rotate(-30) translate(-106.8125 6.592499999999999)"
      fill="white" stroke="none"/>
    <circle 
      cx="106.80925291196449" cy="-12.569153445226576"
      r="15" transform="translate(106.80925291196449 -6.5691534452265765) scale(0.00001 -0.00001) translate(-106.80925291196449 6.5691534452265765) translate(106.8125 -6.592499999999999) rotate(-30) translate(-106.8125 6.592499999999999)"
      fill="white" stroke="none"/>
    <circle 
      cx="106.80689550311399" cy="-12.580842264110334"
      r="15" transform="translate(106.80689550311399 -6.580842264110335) scale(0.00001 -0.00001) translate(-106.80689550311399 6.580842264110335) translate(106.8125 -6.592499999999999) rotate(-30) translate(-106.8125 6.592499999999999)"
      fill="white" stroke="none"/>
    <text x="106.8061204713593" y="-6.5886693709235535" fill="black" text-anchor="middle" transform="translate(106.8061204713593 -6.5886693709235535) scale(0.00001 -0.00001) translate(-106.8061204713593 6.5886693709235535) translate(106.8125 -6.592499999999999) rotate(-30) translate(-106.8125 6.592499999999999)">08</text>
    <text x="106.80517990439887" y="-6.5925879730089045" fill="black" text-anchor="middle" transform="translate(106.80517990439887 -6.5925879730089045) scale(0.00001 -0.00001) translate(-106.80517990439887 6.5925879730089045) translate(106.8125 -6.592499999999999) rotate(-30) translate(-106.8125 6.592499999999999)">08</text>
    <text x="106.80515602415066" y="-6.5930297576008625" fill="black" text-anchor="middle" transform="translate(106.80515602415066 -6.5930297576008625) scale(0.00001 -0.00001) translate(-106.80515602415066 6.5930297576008625) translate(106.8125 -6.592499999999999) rotate(-30) translate(-106.8125 6.592499999999999)">08</text>
    <text x="106.8064177592672" y="-6.600915602079323" fill="black" text-anchor="middle" transform="translate(106.8064177592672 -6.600915602079323) scale(0.00001 -0.00001) translate(-106.8064177592672 6.600915602079323) translate(106.8125 -6.592499999999999) rotate(-30) translate(-106.8125 6.592499999999999)">08</text>
    <text x="106.8054616802293" y="-6.602254112732393" fill="black" text-anchor="middle" transform="translate(106.8054616802293 -6.602254112732393) scale(0.00001 -0.00001) translate(-106.8054616802293 6.602254112732393) translate(106.8125 -6.592499999999999) rotate(-30) translate(-106.8125 6.592499999999999)">08</text>
    <text x="106.79912616756043" y="-6.603620595857049" fill="black" text-anchor="middle" transform="translate(106.79912616756043 -6.603620595857049) scale(0.00001 -0.00001) translate(-106.79912616756043 6.603620595857049) translate(106.8125 -6.592499999999999) rotate(-30) translate(-106.8125 6.592499999999999)">08</text>
    <text x="106.79645845233196" y="-6.605000448561432" fill="black" text-anchor="middle" transform="translate(106.79645845233196 -6.605000448561432) scale(0.00001 -0.00001) translate(-106.79645845233196 6.605000448561432) translate(106.8125 -6.592499999999999) rotate(-30) translate(-106.8125 6.592499999999999)">08</text>
    <text x="106.79488131696976" y="-6.603949024986637" fill="black" text-anchor="middle" transform="translate(106.79488131696976 -6.603949024986637) scale(0.00001 -0.00001) translate(-106.79488131696976 6.603949024986637) translate(106.8125 -6.592499999999999) rotate(-30) translate(-106.8125 6.592499999999999)">08</text>
    <text x="106.79242414913743" y="-6.5968846674687125" fill="black" text-anchor="middle" transform="translate(106.79242414913743 -6.5968846674687125) scale(0.00001 -0.00001) translate(-106.79242414913743 6.5968846674687125) translate(106.8125 -6.592499999999999) rotate(-30) translate(-106.8125 6.592499999999999)">08</text>
    <text x="106.79373976151128" y="-6.593376367805143" fill="black" text-anchor="middle" transform="translate(106.79373976151128 -6.593376367805143) scale(0.00001 -0.00001) translate(-106.79373976151128 6.593376367805143) translate(106.8125 -6.592499999999999) rotate(-30) translate(-106.8125 6.592499999999999)">08</text>
    <text x="106.79701944192345" y="-6.591554323131716" fill="black" text-anchor="middle" transform="translate(106.79701944192345 -6.591554323131716) scale(0.00001 -0.00001) translate(-106.79701944192345 6.591554323131716) translate(106.8125 -6.592499999999999) rotate(-30) translate(-106.8125 6.592499999999999)">08</text>
    <text x="106.8016948112049" y="-6.591325449150384" fill="black" text-anchor="middle" transform="translate(106.8016948112049 -6.591325449150384) scale(0.00001 -0.00001) translate(-106.8016948112049 6.591325449150384) translate(106.8125 -6.592499999999999) rotate(-30) translate(-106.8125 6.592499999999999)">08</text>
    <text x="106.80339362538176" y="-6.5926189703655" fill="black" text-anchor="middle" transform="translate(106.80339362538176 -6.5926189703655) scale(0.00001 -0.00001) translate(-106.80339362538176 6.5926189703655) translate(106.8125 -6.592499999999999) rotate(-30) translate(-106.8125 6.592499999999999)">08</text>
    <text x="106.80443046571861" y="-6.591826092460857" fill="black" text-anchor="middle" transform="translate(106.80443046571861 -6.591826092460857) scale(0.00001 -0.00001) translate(-106.80443046571861 6.591826092460857) translate(106.8125 -6.592499999999999) rotate(-30) translate(-106.8125 6.592499999999999)">08</text>
    <text x="106.80654352887944" y="-6.580588597251475" fill="black" text-anchor="middle" transform="translate(106.80654352887944 -6.580588597251475) scale(0.00001 -0.00001) translate(-106.80654352887944 6.580588597251475) translate(106.8125 -6.592499999999999) rotate(-30) translate(-106.8125 6.592499999999999)">08</text>
    <text x="106.8132" y="-6.5816" fill="black" text-anchor="middle" transform="translate(106.8132 -6.5816) scale(0.00001 -0.00001) translate(-106.8132 6.5816) translate(106.8125 -6.592499999999999) rotate(-30) translate(-106.8125 6.592499999999999)">08</text>
    <text x="106.81078783130563" y="-6.581256880099875" fill="black" text-anchor="middle" transform="translate(106.81078783130563 -6.581256880099875) scale(0.00001 -0.00001) translate(-106.81078783130563 6.581256880099875) translate(106.8125 -6.592499999999999) rotate(-30) translate(-106.8125 6.592499999999999)">08</text>
    <text x="106.80925291196449" y="-6.5691534452265765" fill="black" text-anchor="middle" transform="translate(106.80925291196449 -6.5691534452265765) scale(0.00001 -0.00001) translate(-106.80925291196449 6.5691534452265765) translate(106.8125 -6.592499999999999) rotate(-30) translate(-106.8125 6.592499999999999)">08</text>
    <text x="106.80689550311399" y="-6.580842264110335" fill="black" text-anchor="middle" transform="translate(106.80689550311399 -6.580842264110335) scale(0.00001 -0.00001) translate(-106.80689550311399 6.580842264110335) translate(106.8125 -6.592499999999999) rotate(-30) translate(-106.8125 6.592499999999999)">08</text>
    <line x1="106.8067" y1="-6.5808" x2="106.8049" y2="-6.5886" style="stroke:rgb(255,0,0);stroke-width:.00002" />
    <line x1="106.80689487823915" y1="-6.58084497190134" x2="106.80509487823915" y2="-6.588644971901339" style="stroke:rgb(0,0,0);stroke-width:.00002" />
    <circle cx="106.8067" cy="-6.5808" fill="rgb(255,0,0)" r=".0001" />
    <text x="106.8067" y="-6.5808" stroke="rgb(0,0,0)" transform="translate(106.8067 -6.5808),scale(0.00001 -0.00001),translate(-106.8067 6.5808),translate(106.8125 -6.592499999999999),rotate(-30),translate(-106.8125 6.592499999999999)" >pajajaran-sobana</text>
    <line x1="106.8049" y1="-6.5886" x2="106.805904" y2="-6.588862" style="stroke:rgb(255,0,0);stroke-width:.00002" />
    <line x1="106.80495050007205" y1="-6.588406480639927" x2="106.80595450007205" y2="-6.588668480639927" style="stroke:rgb(0,0,0);stroke-width:.00002" />
    <circle cx="106.8049" cy="-6.5886" fill="rgb(255,0,0)" r=".0001" />
    <text x="106.8049" y="-6.5886" stroke="rgb(0,0,0)" transform="translate(106.8049 -6.5886),scale(0.00001 -0.00001),translate(-106.8049 6.5886),translate(106.8125 -6.592499999999999),rotate(-30),translate(-106.8125 6.592499999999999)" >salak-pajajaran</text>
    <line x1="106.805904" y1="-6.588862" x2="106.805706" y2="-6.591276" style="stroke:rgb(255,0,0);stroke-width:.00002" />
    <line x1="106.80610333062224" y1="-6.588878349404807" x2="106.80590533062224" y2="-6.591292349404807" style="stroke:rgb(0,0,0);stroke-width:.00002" />
    <circle cx="106.805904" cy="-6.588862" fill="rgb(255,0,0)" r=".0001" />
    <text x="106.805904" y="-6.588862" stroke="rgb(0,0,0)" transform="translate(106.805904 -6.588862),scale(0.00001 -0.00001),translate(-106.805904 6.588862),translate(106.8125 -6.592499999999999),rotate(-30),translate(-106.8125 6.592499999999999)" >lodaya-N</text>
    <line x1="106.805706" y1="-6.591276" x2="106.805701" y2="-6.592177" style="stroke:rgb(255,0,0);stroke-width:.00002" />
    <line x1="106.806105993841" y1="-6.591278219721649" x2="106.806100993841" y2="-6.5921792197216496" style="stroke:rgb(0,0,0);stroke-width:.00002" />
    <circle cx="106.805706" cy="-6.591276" fill="rgb(255,0,0)" r=".0001" />
    <text x="106.805706" y="-6.591276" stroke="rgb(0,0,0)" transform="translate(106.805706 -6.591276),scale(0.00001 -0.00001),translate(-106.805706 6.591276),translate(106.8125 -6.592499999999999),rotate(-30),translate(-106.8125 6.592499999999999)" >lodaya-M</text>
    <line x1="106.805701" y1="-6.592177" x2="106.8046" y2="-6.5922" style="stroke:rgb(255,0,0);stroke-width:.00002" />
    <line x1="106.80570935421729" y1="-6.592576912749301" x2="106.80460835421728" y2="-6.592599912749301" style="stroke:rgb(0,0,0);stroke-width:.00002" />
    <circle cx="106.805701" cy="-6.592177" fill="rgb(255,0,0)" r=".0001" />
    <text x="106.805701" y="-6.592177" stroke="rgb(0,0,0)" transform="translate(106.805701 -6.592177),scale(0.00001 -0.00001),translate(-106.805701 6.592177),translate(106.8125 -6.592499999999999),rotate(-30),translate(-106.8125 6.592499999999999)" >lodaya-S</text>
    <line x1="106.8046" y1="-6.5922" x2="106.8044" y2="-6.5959" style="stroke:rgb(255,0,0);stroke-width:.00002" />
    <line x1="106.80519912536396" y1="-6.592232385154808" x2="106.80499912536396" y2="-6.595932385154808" style="stroke:rgb(0,0,0);stroke-width:.00002" />
    <circle cx="106.8046" cy="-6.5922" fill="rgb(255,0,0)" r=".0001" />
    <text x="106.8046" y="-6.5922" stroke="rgb(0,0,0)" transform="translate(106.8046 -6.5922),scale(0.00001 -0.00001),translate(-106.8046 6.5922),translate(106.8125 -6.592499999999999),rotate(-30),translate(-106.8125 6.592499999999999)" >pangrango-pajajaran</text>
    <line x1="106.8044" y1="-6.5959" x2="106.8052" y2="-6.6009" style="stroke:rgb(255,0,0);stroke-width:.00002" />
    <line x1="106.80558492875831" y1="-6.595710411398673" x2="106.8063849287583" y2="-6.600710411398673" style="stroke:rgb(0,0,0);stroke-width:.00002" />
    <circle cx="106.8044" cy="-6.5959" fill="rgb(255,0,0)" r=".0001" />
    <text x="106.8044" y="-6.5959" stroke="rgb(0,0,0)" transform="translate(106.8044 -6.5959),scale(0.00001 -0.00001),translate(-106.8044 6.5959),translate(106.8125 -6.592499999999999),rotate(-30),translate(-106.8125 6.592499999999999)" >kb-astrid</text>
    <line x1="106.8052" y1="-6.6009" x2="106.8047" y2="-6.6016" style="stroke:rgb(255,0,0);stroke-width:.00002" />
    <line x1="106.8060137334712" y1="-6.601481238193721" x2="106.8055137334712" y2="-6.6021812381937215" style="stroke:rgb(0,0,0);stroke-width:.00002" />
    <circle cx="106.8052" cy="-6.6009" fill="rgb(255,0,0)" r=".0001" />
    <text x="106.8052" y="-6.6009" stroke="rgb(0,0,0)" transform="translate(106.8052 -6.6009),scale(0.00001 -0.00001),translate(-106.8052 6.6009),translate(106.8125 -6.592499999999999),rotate(-30),translate(-106.8125 6.592499999999999)" >kb-botani-1</text>
    <line x1="106.8047" y1="-6.6016" x2="106.7996" y2="-6.6027" style="stroke:rgb(255,0,0);stroke-width:.00002" />
    <line x1="106.8048686702978" y1="-6.602382016835266" x2="106.7997686702978" y2="-6.603482016835265" style="stroke:rgb(0,0,0);stroke-width:.00002" />
    <circle cx="106.8047" cy="-6.6016" fill="rgb(255,0,0)" r=".0001" />
    <text x="106.8047" y="-6.6016" stroke="rgb(0,0,0)" transform="translate(106.8047 -6.6016),scale(0.00001 -0.00001),translate(-106.8047 6.6016),translate(106.8125 -6.592499999999999),rotate(-30),translate(-106.8125 6.592499999999999)" >kb-botani-2</text>
    <line x1="106.7996" y1="-6.6027" x2="106.7967" y2="-6.6042" style="stroke:rgb(255,0,0);stroke-width:.00002" />
    <line x1="106.79987565375133" y1="-6.603232930585893" x2="106.79697565375133" y2="-6.604732930585893" style="stroke:rgb(0,0,0);stroke-width:.00002" />
    <circle cx="106.7996" cy="-6.6027" fill="rgb(255,0,0)" r=".0001" />
    <text x="106.7996" y="-6.6027" stroke="rgb(0,0,0)" transform="translate(106.7996 -6.6027),scale(0.00001 -0.00001),translate(-106.7996 6.6027),translate(106.8125 -6.592499999999999),rotate(-30),translate(-106.8125 6.592499999999999)" >kb-otista</text>
    <line x1="106.7967" y1="-6.6042" x2="106.7961" y2="-6.6038" style="stroke:rgb(255,0,0);stroke-width:.00002" />
    <line x1="106.79625623984302" y1="-6.604865640235472" x2="106.79565623984301" y2="-6.604465640235472" style="stroke:rgb(0,0,0);stroke-width:.00002" />
    <circle cx="106.7967" cy="-6.6042" fill="rgb(255,0,0)" r=".0001" />
    <text x="106.7967" y="-6.6042" stroke="rgb(0,0,0)" transform="translate(106.7967 -6.6042),scale(0.00001 -0.00001),translate(-106.7967 6.6042),translate(106.8125 -6.592499999999999),rotate(-30),translate(-106.8125 6.592499999999999)" >kb-btm-1</text>
    <line x1="106.7961" y1="-6.6038" x2="106.7937" y2="-6.5969" style="stroke:rgb(255,0,0);stroke-width:.00002" />
    <line x1="106.79496660384395" y1="-6.604194224749929" x2="106.79256660384395" y2="-6.597294224749929" style="stroke:rgb(0,0,0);stroke-width:.00002" />
    <circle cx="106.7961" cy="-6.6038" fill="rgb(255,0,0)" r=".0001" />
    <text x="106.7961" y="-6.6038" stroke="rgb(0,0,0)" transform="translate(106.7961 -6.6038),scale(0.00001 -0.00001),translate(-106.7961 6.6038),translate(106.8125 -6.592499999999999),rotate(-30),translate(-106.8125 6.592499999999999)" >kb-btm-2</text>
    <line x1="106.7937" y1="-6.5969" x2="106.7946" y2="-6.5945" style="stroke:rgb(255,0,0);stroke-width:.00002" />
    <line x1="106.79257640498692" y1="-6.596478651870093" x2="106.79347640498692" y2="-6.594078651870094" style="stroke:rgb(0,0,0);stroke-width:.00002" />
    <circle cx="106.7937" cy="-6.5969" fill="rgb(255,0,0)" r=".0001" />
    <text x="106.7937" y="-6.5969" stroke="rgb(0,0,0)" transform="translate(106.7937 -6.5969),scale(0.00001 -0.00001),translate(-106.7937 6.5969),translate(106.8125 -6.592499999999999),rotate(-30),translate(-106.8125 6.592499999999999)" >kb-muslihat</text>
    <line x1="106.7946" y1="-6.5945" x2="106.7973" y2="-6.593" style="stroke:rgb(255,0,0);stroke-width:.00002" />
    <line x1="106.79392009989635" y1="-6.593276179813429" x2="106.79662009989636" y2="-6.591776179813429" style="stroke:rgb(0,0,0);stroke-width:.00002" />
    <circle cx="106.7946" cy="-6.5945" fill="rgb(255,0,0)" r=".0001" />
    <text x="106.7946" y="-6.5945" stroke="rgb(0,0,0)" transform="translate(106.7946 -6.5945),scale(0.00001 -0.00001),translate(-106.7946 6.5945),translate(106.8125 -6.592499999999999),rotate(-30),translate(-106.8125 6.592499999999999)" >kb-gedong-sawah</text>
    <line x1="106.7973" y1="-6.593" x2="106.7984" y2="-6.5935" style="stroke:rgb(255,0,0);stroke-width:.00002" />
    <line x1="106.79779656353317" y1="-6.591907560227046" x2="106.79889656353316" y2="-6.592407560227046" style="stroke:rgb(0,0,0);stroke-width:.00002" />
    <circle cx="106.7973" cy="-6.593" fill="rgb(255,0,0)" r=".0001" />
    <text x="106.7973" y="-6.593" stroke="rgb(0,0,0)" transform="translate(106.7973 -6.593),scale(0.00001 -0.00001),translate(-106.7973 6.593),translate(106.8125 -6.592499999999999),rotate(-30),translate(-106.8125 6.592499999999999)" >kb-polisi-militer</text>
    <line x1="106.7984" y1="-6.5935" x2="106.800814" y2="-6.592262" style="stroke:rgb(255,0,0);stroke-width:.00002" />
    <line x1="106.79785240206287" y1="-6.592432228255076" x2="106.80026640206287" y2="-6.591194228255076" style="stroke:rgb(0,0,0);stroke-width:.00002" />
    <circle cx="106.7984" cy="-6.5935" fill="rgb(255,0,0)" r=".0001" />
    <text x="106.7984" y="-6.5935" stroke="rgb(0,0,0)" transform="translate(106.7984 -6.5935),scale(0.00001 -0.00001),translate(-106.7984 6.5935),translate(106.8125 -6.592499999999999),rotate(-30),translate(-106.8125 6.592499999999999)" >kb-jalak-harupat</text>
    <line x1="106.800814" y1="-6.592262" x2="106.801806" y2="-6.592667" style="stroke:rgb(255,0,0);stroke-width:.00002" />
    <line x1="106.80126757435463" y1="-6.591151022815343" x2="106.80225957435462" y2="-6.591556022815343" style="stroke:rgb(0,0,0);stroke-width:.00002" />
    <circle cx="106.800814" cy="-6.592262" fill="rgb(255,0,0)" r=".0001" />
    <text x="106.800814" y="-6.592262" stroke="rgb(0,0,0)" transform="translate(106.800814 -6.592262),scale(0.00001 -0.00001),translate(-106.800814 6.592262),translate(106.8125 -6.592499999999999),rotate(-30),translate(-106.8125 6.592499999999999)" >kb-sempur</text>
    <line x1="106.801806" y1="-6.592667" x2="106.8029" y2="-6.5935" style="stroke:rgb(255,0,0);stroke-width:.00002" />
    <line x1="106.80241180216082" y1="-6.591871384677153" x2="106.80350580216081" y2="-6.592704384677153" style="stroke:rgb(0,0,0);stroke-width:.00002" />
    <circle cx="106.801806" cy="-6.592667" fill="rgb(255,0,0)" r=".0001" />
    <text x="106.801806" y="-6.592667" stroke="rgb(0,0,0)" transform="translate(106.801806 -6.592667),scale(0.00001 -0.00001),translate(-106.801806 6.592667),translate(106.8125 -6.592499999999999),rotate(-30),translate(-106.8125 6.592499999999999)" >kb-salak</text>
    <line x1="106.8029" y1="-6.5935" x2="106.8046" y2="-6.5922" style="stroke:rgb(255,0,0);stroke-width:.00002" />
    <line x1="106.80265701995697" y1="-6.593182256866809" x2="106.80435701995697" y2="-6.59188225686681" style="stroke:rgb(0,0,0);stroke-width:.00002" />
    <circle cx="106.8029" cy="-6.5935" fill="rgb(255,0,0)" r=".0001" />
    <text x="106.8029" y="-6.5935" stroke="rgb(0,0,0)" transform="translate(106.8029 -6.5935),scale(0.00001 -0.00001),translate(-106.8029 6.5935),translate(106.8125 -6.592499999999999),rotate(-30),translate(-106.8125 6.592499999999999)" >kb-pangrango</text>
    <line x1="106.8046" y1="-6.5922" x2="106.8049" y2="-6.5886" style="stroke:rgb(255,0,0);stroke-width:.00002" />
    <line x1="106.80440069084834" y1="-6.592183390904029" x2="106.80470069084835" y2="-6.588583390904028" style="stroke:rgb(0,0,0);stroke-width:.00002" />
    <circle cx="106.8046" cy="-6.5922" fill="rgb(255,0,0)" r=".0001" />
    <text x="106.8046" y="-6.5922" stroke="rgb(0,0,0)" transform="translate(106.8046 -6.5922),scale(0.00001 -0.00001),translate(-106.8046 6.5922),translate(106.8125 -6.592499999999999),rotate(-30),translate(-106.8125 6.592499999999999)" >pangrango-pajajaran</text>
    <line x1="106.8049" y1="-6.5886" x2="106.8067" y2="-6.5808" style="stroke:rgb(255,0,0);stroke-width:.00002" />
    <line x1="106.80470512176086" y1="-6.58855502809866" x2="106.80650512176086" y2="-6.58075502809866" style="stroke:rgb(0,0,0);stroke-width:.00002" />
    <circle cx="106.8049" cy="-6.5886" fill="rgb(255,0,0)" r=".0001" />
    <text x="106.8049" y="-6.5886" stroke="rgb(0,0,0)" transform="translate(106.8049 -6.5886),scale(0.00001 -0.00001),translate(-106.8049 6.5886),translate(106.8125 -6.592499999999999),rotate(-30),translate(-106.8125 6.592499999999999)" >salak-pajajaran</text>
    <line x1="106.8067" y1="-6.5808" x2="106.811" y2="-6.5811" style="stroke:rgb(255,0,0);stroke-width:.00002" />
    <line x1="106.80671391965258" y1="-6.580600484979833" x2="106.81101391965258" y2="-6.580900484979833" style="stroke:rgb(0,0,0);stroke-width:.00002" />
    <circle cx="106.8067" cy="-6.5808" fill="rgb(255,0,0)" r=".0001" />
    <text x="106.8067" y="-6.5808" stroke="rgb(0,0,0)" transform="translate(106.8067 -6.5808),scale(0.00001 -0.00001),translate(-106.8067 6.5808),translate(106.8125 -6.592499999999999),rotate(-30),translate(-106.8125 6.592499999999999)" >pajajaran-sobana</text>
    <line x1="106.811" y1="-6.5811" x2="106.8132" y2="-6.5816" style="stroke:rgb(255,0,0);stroke-width:.00002" />
    <line x1="106.81104432422073" y1="-6.580904973428842" x2="106.81324432422072" y2="-6.581404973428842" style="stroke:rgb(0,0,0);stroke-width:.00002" />
    <circle cx="106.811" cy="-6.5811" fill="rgb(255,0,0)" r=".0001" />
    <text x="106.811" y="-6.5811" stroke="rgb(0,0,0)" transform="translate(106.811 -6.5811),scale(0.00001 -0.00001),translate(-106.811 6.5811),translate(106.8125 -6.592499999999999),rotate(-30),translate(-106.8125 6.592499999999999)" >sobana-sungai</text>
    <line x1="106.8132" y1="-6.5816" x2="106.811" y2="-6.5811" style="stroke:rgb(255,0,0);stroke-width:.00002" />
    <line x1="106.81315567577927" y1="-6.581795026571158" x2="106.81095567577928" y2="-6.5812950265711585" style="stroke:rgb(0,0,0);stroke-width:.00002" />
    <circle cx="106.8132" cy="-6.5816" fill="rgb(255,0,0)" r=".0001" />
    <text x="106.8132" y="-6.5816" stroke="rgb(0,0,0)" transform="translate(106.8132 -6.5816),scale(0.00001 -0.00001),translate(-106.8132 6.5816),translate(106.8125 -6.592499999999999),rotate(-30),translate(-106.8125 6.592499999999999)" >sobana-palapuhraya</text>
    <line x1="106.811" y1="-6.5811" x2="106.8112" y2="-6.5784" style="stroke:rgb(255,0,0);stroke-width:.00002" />
    <line x1="106.81080054644912" y1="-6.581085225662898" x2="106.81100054644911" y2="-6.578385225662898" style="stroke:rgb(0,0,0);stroke-width:.00002" />
    <circle cx="106.811" cy="-6.5811" fill="rgb(255,0,0)" r=".0001" />
    <text x="106.811" y="-6.5811" stroke="rgb(0,0,0)" transform="translate(106.811 -6.5811),scale(0.00001 -0.00001),translate(-106.811 6.5811),translate(106.8125 -6.592499999999999),rotate(-30),translate(-106.8125 6.592499999999999)" >sobana-sungai</text>
    <line x1="106.8112" y1="-6.5784" x2="106.8109" y2="-6.577" style="stroke:rgb(255,0,0);stroke-width:.00002" />
    <line x1="106.81100443951718" y1="-6.578441905817746" x2="106.81070443951718" y2="-6.577041905817746" style="stroke:rgb(0,0,0);stroke-width:.00002" />
    <circle cx="106.8112" cy="-6.5784" fill="rgb(255,0,0)" r=".0001" />
    <text x="106.8112" y="-6.5784" stroke="rgb(0,0,0)" transform="translate(106.8112 -6.5784),scale(0.00001 -0.00001),translate(-106.8112 6.5784),translate(106.8125 -6.592499999999999),rotate(-30),translate(-106.8125 6.592499999999999)" >ciparigi-1</text>
    <line x1="106.8109" y1="-6.577" x2="106.8125" y2="-6.5699" style="stroke:rgb(255,0,0);stroke-width:.00002" />
    <line x1="106.81070489277235" y1="-6.576956032174051" x2="106.81230489277235" y2="-6.569856032174051" style="stroke:rgb(0,0,0);stroke-width:.00002" />
    <circle cx="106.8109" cy="-6.577" fill="rgb(255,0,0)" r=".0001" />
    <text x="106.8109" y="-6.577" stroke="rgb(0,0,0)" transform="translate(106.8109 -6.577),scale(0.00001 -0.00001),translate(-106.8109 6.577),translate(106.8125 -6.592499999999999),rotate(-30),translate(-106.8125 6.592499999999999)" >ciparigi-2</text>
    <line x1="106.8125" y1="-6.5699" x2="106.8091" y2="-6.5689" style="stroke:rgb(255,0,0);stroke-width:.00002" />
    <line x1="106.8124435667352" y1="-6.5700918731003135" x2="106.8090435667352" y2="-6.569091873100314" style="stroke:rgb(0,0,0);stroke-width:.00002" />
    <circle cx="106.8125" cy="-6.5699" fill="rgb(255,0,0)" r=".0001" />
    <text x="106.8125" y="-6.5699" stroke="rgb(0,0,0)" transform="translate(106.8125 -6.5699),scale(0.00001 -0.00001),translate(-106.8125 6.5699),translate(106.8125 -6.592499999999999),rotate(-30),translate(-106.8125 6.592499999999999)" >ciparigi-3</text>
    <line x1="106.8091" y1="-6.5689" x2="106.8067" y2="-6.5808" style="stroke:rgb(255,0,0);stroke-width:.00002" />
    <line x1="106.80929605251383" y1="-6.5689395400027895" x2="106.80689605251384" y2="-6.580839540002789" style="stroke:rgb(0,0,0);stroke-width:.00002" />
    <circle cx="106.8091" cy="-6.5689" fill="rgb(255,0,0)" r=".0001" />
    <text x="106.8091" y="-6.5689" stroke="rgb(0,0,0)" transform="translate(106.8091 -6.5689),scale(0.00001 -0.00001),translate(-106.8091 6.5689),translate(106.8125 -6.592499999999999),rotate(-30),translate(-106.8125 6.592499999999999)" >pajajaran-jambudua</text>
  </g>
</svg>
