<svg width="3500" height="3500" xmlns="http://www.w3.org/2000/svg" xmlns:xlink="http://www.w3.org/1999/xlink" >
  <path d="M938.4444910975276 1287.5447981474244 L919.4831724438757 1281.710546253985 L914.4871791663434 1282.3350454136632 L862.3574369376286 1277.1220711907863 L833.0785806405316 1263.9465858569968 L804.7648254665063 1292.260341030849 L786.1791503246707 1289.162728507192 L782.8742543720324 1289.398792503809 L674.6789307406686 1163.5158067237232 L669.2452319482101 1135.715137277629 L659.07280558136 1120.4123976130868 L602.862664755932 1051.988475196897 L546.9840452550301 1055.4576247688944 L392.54453121920096 990.903143538571 L362.25227157025586 949.8992910444985 L424.3450000001304 911.3188461538572 L366.55772842998147 950.6784012632123 L394.4654687807514 988.4545487691336 L547.4959547449743 1052.4200675388022 L604.207335244169 1048.8992171108084 L661.4871944186973 1118.6252946945845 L672.0747680518713 1134.5525550300642 L677.4710692593544 1162.1618855840015 L784.1657456281581 1286.298899803891 L786.3208496753771 1286.14496380052 L803.7351745334576 1289.0473512768622 L832.4214193596191 1260.361106450714 L863.1425630623824 1274.185621116915 L903.7032689812463 1278.241691708804 L888.3968193379133 1241.5062125643542 L911.5273697456416 1239.5786666970348 L920.9999657070256 1277.469050543503 L939.6527544505773 1283.208370156919 L998.315427224199 1297.8740383502843 L1012.3520459774937 1260.4430550083339 L1053.1148644666644 1237.7970447366463 L1069.6713025493664 1245.3226984106673 L1105.817653476393 1226.7853403130107 L1122.3415180687368 1233.5314745468077 L1139.503494795946 1246.5990491480743 L1162.6162569189091 1283.579468544698 L1174.906846864374 1360.3956557040012 L1166.016767941116 1372.8417661965202 L1088.752815913736 1389.5065401631928 L1079.838049762003 1393.9639232391125 L1091.7590918926123 1416.4814472635849 L1133.4233921906643 1467.0738119113794 L1193.4216858087154 1521.0722761673883 L1250.4114771532215 1590.0599183213342 L1317.1467703012495 1648.850533713642 L1282.6709972070917 1660.3424580783435 L1281.154587129265 1701.285530178658 L1247.6678136631135 1705.8519083785977 L1244.8791296804984 1717.0066443090584 L1233.8783720101533 1724.340482755831 L1225.80717340405 1714.2514844980153 L1221.3557019284594 1674.1882412173009 L1211.0670868903385 1669.778834772369 L1195.9517757286876 1628.9674946359382 L1160.020215997264 1591.5387865823586 L1149.3974927899585 1571.2590422774933 L1123.2304756233448 1533.0149402648012 L1092.0971429432313 1518.1895437504259 L1038.2404375540943 1471.8129363320602 L1013.555096942369 1463.5844894615072 L1022.0346659603052 1434.7539548004122 L1037.716563202622 1414.7951764919012 L1031.3681333864365 1402.0983168593175 L644.371484733739 1109.3661131079994 L1016.274381984843 1307.0022708692134 Z" stroke="orange" stroke-width="0.5" fill="none" />
</svg>
