<svg width="3500" height="2500" xmlns="http://www.w3.org/2000/svg" xmlns:xlink="http://www.w3.org/1999/xlink" >
  <path d="M1135.3986241430648 1132.7083154212214 L1149.9403320939196 1116.552369367846 L1110.5702871607548 1089.7789667183124 L1111.6494937233767 1083.6195926778148 L1100.7890965365873 1083.9547901218561 L1077.465799233721 1065.2899820950558 L1052.7679191033458 1023.8801069947268 L1044.2790560045978 1027.8344514958117 L1042.5235476133566 1031.3454682781744 L1026.1076670197156 1052.2384072156167 L1019.0974515287365 1076.0731398846203 L1040.504781223035 1083.208916449364 L1094.5764285283844 1129.770612740172 L1126.2597621880843 1144.8579144829052 L1146.0377966839985 1173.7642725921871 L1162.4797840029544 1205.1535211099551 L1198.5499918839791 1242.726654319476 L1233.2500000001546 1337.3630400907323 L1233.2500000001546 1335.9594601340186 L1244.543527438182 1340.1945329232924 L1250.0153407755477 1353.874066266173 L1237.2796509330897 1351.7514512924656 L1237.4926406871368 1351.538461538472 L1241.8214951743778 1355.8673160256997 L1248.816949121263 1374.055496287524 L1244.535695468869 1397.6023913765034 L1252.2581485121975 1412.9320369701304 L1281.5706966291884 1445.2873059089545 L1296.7894599219676 1509.544306479932 L1297.0665351798516 1509.7521129231586 L1317.6843918640911 1537.2525632758407 L1327.5511816791409 1543.0463422551666 L1327.3635997705214 1557.504578591694 L1345.1002912611898 1558.4167512969173 L1388.9168804111307 1632.3449819740777 L1497.0491813665633 1719.3342623066678 L1526.6394899799707 1721.6538739153666 L1558.7461310541782 1811.1938870099912 L1566.4458125253589 1815.6323397588183 L1564.1104570701004 1828.408107837699 L1598.7286946260326 1859.831489083098 L1643.3890736084322 1864.8105178209773 L20780330888589696 35049853143720580 L1641.5709263918643 1867.6264052559632 L1597.431305374215 1862.7054339938577 L1560.8595429299753 1829.5088152392436 L1563.114187474639 1817.1745833180921 L1556.293868945815 1813.243036066935 L1524.4705100202793 1724.4930491615785 L1495.8908186334697 1722.2526607702525 L1386.6131195891285 1634.341941102856 L1343.3397087389665 1561.3301717800077 L1324.326400229481 1560.3523444852462 L1324.5288183211555 1544.7505808217556 L1315.645608135796 1539.5343598010882 L1294.9234648203856 1511.8948101537767 L1294.120540078012 1511.2926165970098 L1278.829303371083 1446.7296171679668 L1249.7618514879605 1414.6448861068295 L1241.404304531386 1398.0545317004312 L1245.1989171111677 1377.1841625107263 L1237.9642524130218 1358.374034294857 L1231.1286796564502 1351.538461538472 L1235.7351745335166 1346.9319666614722 L1242.8673296123093 1348.1206591746 L1241.1032362807362 1343.710425846053 L1228.750000000005 1339.0779622407258 L1228.750000000005 1333.80479207723 L1197.2349853606802 1247.854752151877 L1158.7904319942054 1207.8083423950304 L1148.109696105948 1187.4178466084463 L1122.0841519541837 1149.3805128481938 L1129.3867146667935 1133.3063587722627 Z" stroke="blue" stroke-width="0.5" fill="none" />
</svg>
