<svg width="1450.0000000001023" height="1550.0000000000025" xmlns="http://www.w3.org/2000/svg" xmlns:xlink="http://www.w3.org/1999/xlink" >
  <g transform="translate(725.0000000000512 775.0000000000013) rotate(0) scale(10000 -10000) translate(-106.7975 6.592499999999999)">
    <path d="M106.725 -6.515 L106.87 -6.515 L106.87 -6.67 L106.725 -6.67 Z" fill="none" stroke="black" stroke-width="0.0005" transform="translate(106.7975 -6.592499999999999) rotate(0) translate(-106.7975 6.592499999999999)" />
    <path d="M106.80589743911958 -6.58472248595067 L106.80589743911958 -6.58472248595067 L106.80501851623033 -6.588531151804011 L106.80542873478855 -6.588654217371477 L106.80542873478855 -6.588654217371477 L106.80600638719697 -6.5888275130940075 L106.80589965457582 -6.590108304547985 L106.80589965457582 -6.590108304547985 L106.8058 -6.591304159457717 L106.8058 -6.5917 L106.80585 -6.5918 L106.80585 -6.59235 L106.80515 -6.59235 L106.80515 -6.59235 L106.80474211087011 -6.59235 L106.80465248010388 -6.594008169175038 L106.80439744700976 -6.594094529587863 L106.80429956968985 -6.595905260006564 L106.80466175831152 -6.598168938892131 L106.80498761372007 -6.598623161582813 L106.80534852256834 -6.600878841884466 L106.80536163126114 -6.600983711426797 L106.80543605210188 -6.601579078152825 L106.80544508064497 -6.6016513064975575 L106.8061799278379 -6.602925041631977 L106.8061799278379 -6.602925041631977 L106.8068534127118 -6.604092415413418 L106.80887238709916 -6.602871640202463 L106.80887238709916 -6.602871640202463 L106.8148586914848 -6.599252014294866 L106.80918601935166 -6.603222884788077 L106.80918601935166 -6.603222884788077 L106.80731396543425 -6.604533322530264 L106.80801931475801 -6.605459093517711 L106.80801931475801 -6.605459093517711 L106.80881320021699 -6.60650106818263 L106.80937071067812 -6.6070585786437634 L106.80940606601719 -6.6071646446609416 L106.80997771241509 -6.607736291058852 L106.81025547001964 -6.60815292746566 L106.81035254255397 -6.608208397485282 L106.8106250612146 -6.608617175476209 L106.81182035091219 -6.610434015816554 L106.81184673250426 -6.61065606088315 L106.81304434940533 -6.612476438572789 L106.81379615384616 -6.61428076923077 L106.81379615384616 -6.61428076923077 L106.8145466517187 -6.6160819641248985 L106.81476345345588 -6.616689008988991 L106.81492489492645 -6.616843723731609 L106.81514094314319 -6.617448658738528 L106.81575579513785 -6.619104029493358 L106.81573168991657 -6.619326333200721 L106.81634593014277 -6.620980056886697 L106.81639472135954 -6.621077639320225 L106.81639472135954 -6.621077639320225 L106.81646083802566 -6.621209872652465 L106.81633535533906 -6.62133535533906 L106.81633535533906 -6.62133535533906 L106.8162 -6.621470710678124 L106.81601464466092 -6.621285355339059 L106.81601464466092 -6.621285355339059 L106.81580220040124 -6.621072911079367 L106.81608787321875 -6.621001492874993 L106.81608787321875 -6.621001492874993 L106.81623367790498 -6.620965041703434 L106.8156031287364 -6.61926740932648 L106.8156031287364 -6.61926740932648 L106.81495301895221 -6.617517113753669 L106.81471972972427 -6.616863903915429 L106.81463900898899 -6.61678654654412 L106.81440669656264 -6.616136071750365 L106.81367692307691 -6.6143846153846155 L106.81368461538462 -6.614273076923077 L106.81295565059466 -6.6125235614272055 L106.81170822914589 -6.610627480825074 L106.81170822914589 -6.610627480825074 L106.81045831292798 -6.60872760817384 L106.81021386750491 -6.608360940039245 L106.81001972243624 -6.608250000000001 L106.8097834313774 -6.607895563411756 L106.80922928932189 -6.607341421356238 L106.80912322330471 -6.607306066017179 L106.8086543255634 -6.606837168275858 L106.80852069836273 -6.606894437076145 L106.80829747742686 -6.60688130643286 L106.8079896020017 -6.607013253043643 L106.8076445299804 -6.606783205029434 L106.8076445299804 -6.606783205029434 L106.80737631967358 -6.606604398158231 L106.80706414213563 -6.606648994949366 L106.80706414213563 -6.606648994949366 L106.8066505947584 -6.606708073146115 L106.80616588215247 -6.605954075759131 L106.80616588215247 -6.605954075759131 L106.80574540487875 -6.6053 L106.80545000000001 -6.6053 L106.80545000000001 -6.6053 L106.80502027815388 -6.6053 L106.80460251414934 -6.60347228248015 L106.80489497170132 -6.6034054350397 L106.80445046172552 -6.6014607038956035 L106.80229945899322 -6.6019495681529445 L106.80186729784123 -6.602304161918687 L106.79990561028345 -6.6027499999999995 L106.79974999999999 -6.6027499999999995 L106.79974999999999 -6.6027499999999995 L106.79961180339888 -6.6027499999999995 L106.79931180339888 -6.6029 L106.79908819660112 -6.6029 L106.79877654920338 -6.603055823698874 L106.79797548693801 -6.603506421223144 L106.79797548693801 -6.603506421223144 L106.79717836476213 -6.603954802447075 L106.79693143046619 -6.604053576165455 L106.79693143046619 -6.604053576165455 L106.79670585081861 -6.6041438080244825 L106.79642773500981 -6.6039583974852825 L106.79642773500981 -6.6039583974852825 L106.79614170789034 -6.603767712738972 L106.79496365087108 -6.600380798808588 L106.79497802364841 -6.60026992309767 L106.79380632090522 -6.596901277710936 L106.79419096440152 -6.595875561720795 L106.79415585205736 -6.595541994451285 L106.79455964110238 -6.594465223664565 L106.79588200998964 -6.593730574282753 L106.79594514357069 -6.593638302125829 L106.79729549548222 -6.592888106619426 L106.79784586197057 -6.593138273205038 L106.7979162084711 -6.593225171823342 L106.79839897462904 -6.593444610986045 L106.79957763932022 -6.59285527864045 L106.79957763932022 -6.59285527864045 L106.80079772216514 -6.592245237217987 L106.80127214569927 -6.5924350066316375 L106.80134642383454 -6.592518569533817 L106.8018 -6.5927 L106.80226912639156 -6.593041182830232 L106.80248969077819 -6.593077943561337 L106.8028984998991 -6.593375259285629 L106.80349066553099 -6.592922426743595 L106.80385747194211 -6.592578983798162 L106.80445604227229 -6.592121253545661 L106.80459636586228 -6.590437370465934 L106.80465449769817 -6.590341868164102 L106.80480094295797 -6.588584525046697 L106.80570256088043 -6.584677514049329 L106.80570256088043 -6.584677514049329 L106.80660224844297 -6.580778867945013 L106.80779208874239 -6.574879243127063 L106.80786087187224 -6.5747911018708445 L106.8091 -6.5689 L106.80795889812916 -6.574810871872239 L106.80798814125623 -6.574918783129853 L106.806797751557 -6.580821132055168 Z" stroke="purple" stroke-width="0.0001" fill="none" />
    <circle 
      cx="106.8049" cy="-12.5886"
      r="15" transform="translate(106.8049 -6.5886) scale(0.00001 -0.00001) translate(-106.8049 6.5886) translate(106.7975 -6.592499999999999) rotate(0) translate(-106.7975 6.592499999999999)"
      fill="white" stroke="black" stroke-width="2"/>
    <circle 
      cx="106.8059" cy="-12.588899999999999"
      r="15" transform="translate(106.8059 -6.5889) scale(0.00001 -0.00001) translate(-106.8059 6.5889) translate(106.7975 -6.592499999999999) rotate(0) translate(-106.7975 6.592499999999999)"
      fill="white" stroke="black" stroke-width="2"/>
    <circle 
      cx="106.8057" cy="-12.5913"
      r="15" transform="translate(106.8057 -6.5913) scale(0.00001 -0.00001) translate(-106.8057 6.5913) translate(106.7975 -6.592499999999999) rotate(0) translate(-106.7975 6.592499999999999)"
      fill="white" stroke="black" stroke-width="2"/>
    <circle 
      cx="106.8057" cy="-12.5922"
      r="15" transform="translate(106.8057 -6.5922) scale(0.00001 -0.00001) translate(-106.8057 6.5922) translate(106.7975 -6.592499999999999) rotate(0) translate(-106.7975 6.592499999999999)"
      fill="white" stroke="black" stroke-width="2"/>
    <circle 
      cx="106.8046" cy="-12.5922"
      r="15" transform="translate(106.8046 -6.5922) scale(0.00001 -0.00001) translate(-106.8046 6.5922) translate(106.7975 -6.592499999999999) rotate(0) translate(-106.7975 6.592499999999999)"
      fill="white" stroke="black" stroke-width="2"/>
    <circle 
      cx="106.8044" cy="-12.5959"
      r="15" transform="translate(106.8044 -6.5959) scale(0.00001 -0.00001) translate(-106.8044 6.5959) translate(106.7975 -6.592499999999999) rotate(0) translate(-106.7975 6.592499999999999)"
      fill="white" stroke="black" stroke-width="2"/>
    <circle 
      cx="106.8052" cy="-12.6009"
      r="15" transform="translate(106.8052 -6.6009) scale(0.00001 -0.00001) translate(-106.8052 6.6009) translate(106.7975 -6.592499999999999) rotate(0) translate(-106.7975 6.592499999999999)"
      fill="white" stroke="black" stroke-width="2"/>
    <circle 
      cx="106.8053" cy="-12.601700000000001"
      r="15" transform="translate(106.8053 -6.6017) scale(0.00001 -0.00001) translate(-106.8053 6.6017) translate(106.7975 -6.592499999999999) rotate(0) translate(-106.7975 6.592499999999999)"
      fill="white" stroke="black" stroke-width="2"/>
    <circle 
      cx="106.8068" cy="-12.6043"
      r="15" transform="translate(106.8068 -6.6043) scale(0.00001 -0.00001) translate(-106.8068 6.6043) translate(106.7975 -6.592499999999999) rotate(0) translate(-106.7975 6.592499999999999)"
      fill="white" stroke="black" stroke-width="2"/>
    <circle 
      cx="106.8111" cy="-12.601700000000001"
      r="15" transform="translate(106.8111 -6.6017) scale(0.00001 -0.00001) translate(-106.8111 6.6017) translate(106.7975 -6.592499999999999) rotate(0) translate(-106.7975 6.592499999999999)"
      fill="white" stroke="black" stroke-width="2"/>
    <circle 
      cx="106.8071" cy="-12.6045"
      r="15" transform="translate(106.8071 -6.6045) scale(0.00001 -0.00001) translate(-106.8071 6.6045) translate(106.7975 -6.592499999999999) rotate(0) translate(-106.7975 6.592499999999999)"
      fill="white" stroke="black" stroke-width="2"/>
    <circle 
      cx="106.8087" cy="-12.6066"
      r="15" transform="translate(106.8087 -6.6066) scale(0.00001 -0.00001) translate(-106.8087 6.6066) translate(106.7975 -6.592499999999999) rotate(0) translate(-106.7975 6.592499999999999)"
      fill="white" stroke="black" stroke-width="2"/>
    <circle 
      cx="106.8099" cy="-12.607800000000001"
      r="15" transform="translate(106.8099 -6.6078) scale(0.00001 -0.00001) translate(-106.8099 6.6078) translate(106.7975 -6.592499999999999) rotate(0) translate(-106.7975 6.592499999999999)"
      fill="white" stroke="black" stroke-width="2"/>
    <circle 
      cx="106.8105" cy="-12.608699999999999"
      r="15" transform="translate(106.8105 -6.6087) scale(0.00001 -0.00001) translate(-106.8105 6.6087) translate(106.7975 -6.592499999999999) rotate(0) translate(-106.7975 6.592499999999999)"
      fill="white" stroke="black" stroke-width="2"/>
    <circle 
      cx="106.813" cy="-12.6125"
      r="15" transform="translate(106.813 -6.6125) scale(0.00001 -0.00001) translate(-106.813 6.6125) translate(106.7975 -6.592499999999999) rotate(0) translate(-106.7975 6.592499999999999)"
      fill="white" stroke="black" stroke-width="2"/>
    <circle 
      cx="106.8145" cy="-12.6161"
      r="15" transform="translate(106.8145 -6.6161) scale(0.00001 -0.00001) translate(-106.8145 6.6161) translate(106.7975 -6.592499999999999) rotate(0) translate(-106.7975 6.592499999999999)"
      fill="white" stroke="black" stroke-width="2"/>
    <circle 
      cx="106.815" cy="-12.6175"
      r="15" transform="translate(106.815 -6.6175) scale(0.00001 -0.00001) translate(-106.815 6.6175) translate(106.7975 -6.592499999999999) rotate(0) translate(-106.7975 6.592499999999999)"
      fill="white" stroke="black" stroke-width="2"/>
    <circle 
      cx="106.8163" cy="-12.621"
      r="15" transform="translate(106.8163 -6.621) scale(0.00001 -0.00001) translate(-106.8163 6.621) translate(106.7975 -6.592499999999999) rotate(0) translate(-106.7975 6.592499999999999)"
      fill="white" stroke="black" stroke-width="2"/>
    <circle 
      cx="106.8164" cy="-12.6212"
      r="15" transform="translate(106.8164 -6.6212) scale(0.00001 -0.00001) translate(-106.8164 6.6212) translate(106.7975 -6.592499999999999) rotate(0) translate(-106.7975 6.592499999999999)"
      fill="white" stroke="black" stroke-width="2"/>
    <circle 
      cx="106.8162" cy="-12.621400000000001"
      r="15" transform="translate(106.8162 -6.6214) scale(0.00001 -0.00001) translate(-106.8162 6.6214) translate(106.7975 -6.592499999999999) rotate(0) translate(-106.7975 6.592499999999999)"
      fill="white" stroke="black" stroke-width="2"/>
    <circle 
      cx="106.8159" cy="-12.6211"
      r="15" transform="translate(106.8159 -6.6211) scale(0.00001 -0.00001) translate(-106.8159 6.6211) translate(106.7975 -6.592499999999999) rotate(0) translate(-106.7975 6.592499999999999)"
      fill="white" stroke="black" stroke-width="2"/>
    <circle 
      cx="106.8163" cy="-12.621"
      r="15" transform="translate(106.8163 -6.621) scale(0.00001 -0.00001) translate(-106.8163 6.621) translate(106.7975 -6.592499999999999) rotate(0) translate(-106.7975 6.592499999999999)"
      fill="white" stroke="black" stroke-width="2"/>
    <circle 
      cx="106.815" cy="-12.6175"
      r="15" transform="translate(106.815 -6.6175) scale(0.00001 -0.00001) translate(-106.815 6.6175) translate(106.7975 -6.592499999999999) rotate(0) translate(-106.7975 6.592499999999999)"
      fill="white" stroke="black" stroke-width="2"/>
    <circle 
      cx="106.8145" cy="-12.6161"
      r="15" transform="translate(106.8145 -6.6161) scale(0.00001 -0.00001) translate(-106.8145 6.6161) translate(106.7975 -6.592499999999999) rotate(0) translate(-106.7975 6.592499999999999)"
      fill="white" stroke="black" stroke-width="2"/>
    <circle 
      cx="106.813" cy="-12.6125"
      r="15" transform="translate(106.813 -6.6125) scale(0.00001 -0.00001) translate(-106.813 6.6125) translate(106.7975 -6.592499999999999) rotate(0) translate(-106.7975 6.592499999999999)"
      fill="white" stroke="black" stroke-width="2"/>
    <circle 
      cx="106.8105" cy="-12.608699999999999"
      r="15" transform="translate(106.8105 -6.6087) scale(0.00001 -0.00001) translate(-106.8105 6.6087) translate(106.7975 -6.592499999999999) rotate(0) translate(-106.7975 6.592499999999999)"
      fill="white" stroke="black" stroke-width="2"/>
    <circle 
      cx="106.8099" cy="-12.607800000000001"
      r="15" transform="translate(106.8099 -6.6078) scale(0.00001 -0.00001) translate(-106.8099 6.6078) translate(106.7975 -6.592499999999999) rotate(0) translate(-106.7975 6.592499999999999)"
      fill="white" stroke="black" stroke-width="2"/>
    <circle 
      cx="106.8087" cy="-12.6066"
      r="15" transform="translate(106.8087 -6.6066) scale(0.00001 -0.00001) translate(-106.8087 6.6066) translate(106.7975 -6.592499999999999) rotate(0) translate(-106.7975 6.592499999999999)"
      fill="white" stroke="black" stroke-width="2"/>
    <circle 
      cx="106.808" cy="-12.6069"
      r="15" transform="translate(106.808 -6.6069) scale(0.00001 -0.00001) translate(-106.808 6.6069) translate(106.7975 -6.592499999999999) rotate(0) translate(-106.7975 6.592499999999999)"
      fill="white" stroke="black" stroke-width="2"/>
    <circle 
      cx="106.8074" cy="-12.6065"
      r="15" transform="translate(106.8074 -6.6065) scale(0.00001 -0.00001) translate(-106.8074 6.6065) translate(106.7975 -6.592499999999999) rotate(0) translate(-106.7975 6.592499999999999)"
      fill="white" stroke="black" stroke-width="2"/>
    <circle 
      cx="106.8067" cy="-12.6066"
      r="15" transform="translate(106.8067 -6.6066) scale(0.00001 -0.00001) translate(-106.8067 6.6066) translate(106.7975 -6.592499999999999) rotate(0) translate(-106.7975 6.592499999999999)"
      fill="white" stroke="black" stroke-width="2"/>
    <circle 
      cx="106.8058" cy="-12.6052"
      r="15" transform="translate(106.8058 -6.6052) scale(0.00001 -0.00001) translate(-106.8058 6.6052) translate(106.7975 -6.592499999999999) rotate(0) translate(-106.7975 6.592499999999999)"
      fill="white" stroke="black" stroke-width="2"/>
    <circle 
      cx="106.8051" cy="-12.6052"
      r="15" transform="translate(106.8051 -6.6052) scale(0.00001 -0.00001) translate(-106.8051 6.6052) translate(106.7975 -6.592499999999999) rotate(0) translate(-106.7975 6.592499999999999)"
      fill="white" stroke="black" stroke-width="2"/>
    <circle 
      cx="106.8043" cy="-12.601700000000001"
      r="15" transform="translate(106.8043 -6.6017) scale(0.00001 -0.00001) translate(-106.8043 6.6017) translate(106.7975 -6.592499999999999) rotate(0) translate(-106.7975 6.592499999999999)"
      fill="white" stroke="black" stroke-width="2"/>
    <circle 
      cx="106.7999" cy="-12.602699999999999"
      r="15" transform="translate(106.7999 -6.6027) scale(0.00001 -0.00001) translate(-106.7999 6.6027) translate(106.7975 -6.592499999999999) rotate(0) translate(-106.7975 6.592499999999999)"
      fill="white" stroke="black" stroke-width="2"/>
    <circle 
      cx="106.7996" cy="-12.602699999999999"
      r="15" transform="translate(106.7996 -6.6027) scale(0.00001 -0.00001) translate(-106.7996 6.6027) translate(106.7975 -6.592499999999999) rotate(0) translate(-106.7975 6.592499999999999)"
      fill="white" stroke="black" stroke-width="2"/>
    <circle 
      cx="106.7988" cy="-12.603100000000001"
      r="15" transform="translate(106.7988 -6.6031) scale(0.00001 -0.00001) translate(-106.7988 6.6031) translate(106.7975 -6.592499999999999) rotate(0) translate(-106.7975 6.592499999999999)"
      fill="white" stroke="black" stroke-width="2"/>
    <circle 
      cx="106.7972" cy="-12.604"
      r="15" transform="translate(106.7972 -6.604) scale(0.00001 -0.00001) translate(-106.7972 6.604) translate(106.7975 -6.592499999999999) rotate(0) translate(-106.7975 6.592499999999999)"
      fill="white" stroke="black" stroke-width="2"/>
    <circle 
      cx="106.7967" cy="-12.604199999999999"
      r="15" transform="translate(106.7967 -6.6042) scale(0.00001 -0.00001) translate(-106.7967 6.6042) translate(106.7975 -6.592499999999999) rotate(0) translate(-106.7975 6.592499999999999)"
      fill="white" stroke="black" stroke-width="2"/>
    <circle 
      cx="106.7961" cy="-12.6038"
      r="15" transform="translate(106.7961 -6.6038) scale(0.00001 -0.00001) translate(-106.7961 6.6038) translate(106.7975 -6.592499999999999) rotate(0) translate(-106.7975 6.592499999999999)"
      fill="white" stroke="black" stroke-width="2"/>
    <circle 
      cx="106.7937" cy="-12.5969"
      r="15" transform="translate(106.7937 -6.5969) scale(0.00001 -0.00001) translate(-106.7937 6.5969) translate(106.7975 -6.592499999999999) rotate(0) translate(-106.7975 6.592499999999999)"
      fill="white" stroke="black" stroke-width="2"/>
    <circle 
      cx="106.7946" cy="-12.5945"
      r="15" transform="translate(106.7946 -6.5945) scale(0.00001 -0.00001) translate(-106.7946 6.5945) translate(106.7975 -6.592499999999999) rotate(0) translate(-106.7975 6.592499999999999)"
      fill="white" stroke="black" stroke-width="2"/>
    <circle 
      cx="106.7973" cy="-12.593"
      r="15" transform="translate(106.7973 -6.593) scale(0.00001 -0.00001) translate(-106.7973 6.593) translate(106.7975 -6.592499999999999) rotate(0) translate(-106.7975 6.592499999999999)"
      fill="white" stroke="black" stroke-width="2"/>
    <circle 
      cx="106.7984" cy="-12.593499999999999"
      r="15" transform="translate(106.7984 -6.5935) scale(0.00001 -0.00001) translate(-106.7984 6.5935) translate(106.7975 -6.592499999999999) rotate(0) translate(-106.7975 6.592499999999999)"
      fill="white" stroke="black" stroke-width="2"/>
    <circle 
      cx="106.8008" cy="-12.5923"
      r="15" transform="translate(106.8008 -6.5923) scale(0.00001 -0.00001) translate(-106.8008 6.5923) translate(106.7975 -6.592499999999999) rotate(0) translate(-106.7975 6.592499999999999)"
      fill="white" stroke="black" stroke-width="2"/>
    <circle 
      cx="106.8018" cy="-12.5927"
      r="15" transform="translate(106.8018 -6.5927) scale(0.00001 -0.00001) translate(-106.8018 6.5927) translate(106.7975 -6.592499999999999) rotate(0) translate(-106.7975 6.592499999999999)"
      fill="white" stroke="black" stroke-width="2"/>
    <circle 
      cx="106.8029" cy="-12.593499999999999"
      r="15" transform="translate(106.8029 -6.5935) scale(0.00001 -0.00001) translate(-106.8029 6.5935) translate(106.7975 -6.592499999999999) rotate(0) translate(-106.7975 6.592499999999999)"
      fill="white" stroke="black" stroke-width="2"/>
    <circle 
      cx="106.8046" cy="-12.5922"
      r="15" transform="translate(106.8046 -6.5922) scale(0.00001 -0.00001) translate(-106.8046 6.5922) translate(106.7975 -6.592499999999999) rotate(0) translate(-106.7975 6.592499999999999)"
      fill="white" stroke="black" stroke-width="2"/>
    <circle 
      cx="106.8049" cy="-12.5886"
      r="15" transform="translate(106.8049 -6.5886) scale(0.00001 -0.00001) translate(-106.8049 6.5886) translate(106.7975 -6.592499999999999) rotate(0) translate(-106.7975 6.592499999999999)"
      fill="white" stroke="black" stroke-width="2"/>
    <circle 
      cx="106.8067" cy="-12.5808"
      r="15" transform="translate(106.8067 -6.5808) scale(0.00001 -0.00001) translate(-106.8067 6.5808) translate(106.7975 -6.592499999999999) rotate(0) translate(-106.7975 6.592499999999999)"
      fill="white" stroke="black" stroke-width="2"/>
    <circle 
      cx="106.8091" cy="-12.5689"
      r="15" transform="translate(106.8091 -6.5689) scale(0.00001 -0.00001) translate(-106.8091 6.5689) translate(106.7975 -6.592499999999999) rotate(0) translate(-106.7975 6.592499999999999)"
      fill="white" stroke="black" stroke-width="2"/>
    <circle 
      cx="106.8067" cy="-12.5808"
      r="15" transform="translate(106.8067 -6.5808) scale(0.00001 -0.00001) translate(-106.8067 6.5808) translate(106.7975 -6.592499999999999) rotate(0) translate(-106.7975 6.592499999999999)"
      fill="white" stroke="black" stroke-width="2"/>
    <circle 
      cx="106.8049" cy="-12.5886"
      r="15" transform="translate(106.8049 -6.5886) scale(0.00001 -0.00001) translate(-106.8049 6.5886) translate(106.7975 -6.592499999999999) rotate(0) translate(-106.7975 6.592499999999999)"
      fill="white" stroke="none"/>
    <circle 
      cx="106.8059" cy="-12.588899999999999"
      r="15" transform="translate(106.8059 -6.5889) scale(0.00001 -0.00001) translate(-106.8059 6.5889) translate(106.7975 -6.592499999999999) rotate(0) translate(-106.7975 6.592499999999999)"
      fill="white" stroke="none"/>
    <circle 
      cx="106.8057" cy="-12.5913"
      r="15" transform="translate(106.8057 -6.5913) scale(0.00001 -0.00001) translate(-106.8057 6.5913) translate(106.7975 -6.592499999999999) rotate(0) translate(-106.7975 6.592499999999999)"
      fill="white" stroke="none"/>
    <circle 
      cx="106.8057" cy="-12.5922"
      r="15" transform="translate(106.8057 -6.5922) scale(0.00001 -0.00001) translate(-106.8057 6.5922) translate(106.7975 -6.592499999999999) rotate(0) translate(-106.7975 6.592499999999999)"
      fill="white" stroke="none"/>
    <circle 
      cx="106.8046" cy="-12.5922"
      r="15" transform="translate(106.8046 -6.5922) scale(0.00001 -0.00001) translate(-106.8046 6.5922) translate(106.7975 -6.592499999999999) rotate(0) translate(-106.7975 6.592499999999999)"
      fill="white" stroke="none"/>
    <circle 
      cx="106.8044" cy="-12.5959"
      r="15" transform="translate(106.8044 -6.5959) scale(0.00001 -0.00001) translate(-106.8044 6.5959) translate(106.7975 -6.592499999999999) rotate(0) translate(-106.7975 6.592499999999999)"
      fill="white" stroke="none"/>
    <circle 
      cx="106.8052" cy="-12.6009"
      r="15" transform="translate(106.8052 -6.6009) scale(0.00001 -0.00001) translate(-106.8052 6.6009) translate(106.7975 -6.592499999999999) rotate(0) translate(-106.7975 6.592499999999999)"
      fill="white" stroke="none"/>
    <circle 
      cx="106.8053" cy="-12.601700000000001"
      r="15" transform="translate(106.8053 -6.6017) scale(0.00001 -0.00001) translate(-106.8053 6.6017) translate(106.7975 -6.592499999999999) rotate(0) translate(-106.7975 6.592499999999999)"
      fill="white" stroke="none"/>
    <circle 
      cx="106.8068" cy="-12.6043"
      r="15" transform="translate(106.8068 -6.6043) scale(0.00001 -0.00001) translate(-106.8068 6.6043) translate(106.7975 -6.592499999999999) rotate(0) translate(-106.7975 6.592499999999999)"
      fill="white" stroke="none"/>
    <circle 
      cx="106.8111" cy="-12.601700000000001"
      r="15" transform="translate(106.8111 -6.6017) scale(0.00001 -0.00001) translate(-106.8111 6.6017) translate(106.7975 -6.592499999999999) rotate(0) translate(-106.7975 6.592499999999999)"
      fill="white" stroke="none"/>
    <circle 
      cx="106.8071" cy="-12.6045"
      r="15" transform="translate(106.8071 -6.6045) scale(0.00001 -0.00001) translate(-106.8071 6.6045) translate(106.7975 -6.592499999999999) rotate(0) translate(-106.7975 6.592499999999999)"
      fill="white" stroke="none"/>
    <circle 
      cx="106.8087" cy="-12.6066"
      r="15" transform="translate(106.8087 -6.6066) scale(0.00001 -0.00001) translate(-106.8087 6.6066) translate(106.7975 -6.592499999999999) rotate(0) translate(-106.7975 6.592499999999999)"
      fill="white" stroke="none"/>
    <circle 
      cx="106.8099" cy="-12.607800000000001"
      r="15" transform="translate(106.8099 -6.6078) scale(0.00001 -0.00001) translate(-106.8099 6.6078) translate(106.7975 -6.592499999999999) rotate(0) translate(-106.7975 6.592499999999999)"
      fill="white" stroke="none"/>
    <circle 
      cx="106.8105" cy="-12.608699999999999"
      r="15" transform="translate(106.8105 -6.6087) scale(0.00001 -0.00001) translate(-106.8105 6.6087) translate(106.7975 -6.592499999999999) rotate(0) translate(-106.7975 6.592499999999999)"
      fill="white" stroke="none"/>
    <circle 
      cx="106.813" cy="-12.6125"
      r="15" transform="translate(106.813 -6.6125) scale(0.00001 -0.00001) translate(-106.813 6.6125) translate(106.7975 -6.592499999999999) rotate(0) translate(-106.7975 6.592499999999999)"
      fill="white" stroke="none"/>
    <circle 
      cx="106.8145" cy="-12.6161"
      r="15" transform="translate(106.8145 -6.6161) scale(0.00001 -0.00001) translate(-106.8145 6.6161) translate(106.7975 -6.592499999999999) rotate(0) translate(-106.7975 6.592499999999999)"
      fill="white" stroke="none"/>
    <circle 
      cx="106.815" cy="-12.6175"
      r="15" transform="translate(106.815 -6.6175) scale(0.00001 -0.00001) translate(-106.815 6.6175) translate(106.7975 -6.592499999999999) rotate(0) translate(-106.7975 6.592499999999999)"
      fill="white" stroke="none"/>
    <circle 
      cx="106.8163" cy="-12.621"
      r="15" transform="translate(106.8163 -6.621) scale(0.00001 -0.00001) translate(-106.8163 6.621) translate(106.7975 -6.592499999999999) rotate(0) translate(-106.7975 6.592499999999999)"
      fill="white" stroke="none"/>
    <circle 
      cx="106.8164" cy="-12.6212"
      r="15" transform="translate(106.8164 -6.6212) scale(0.00001 -0.00001) translate(-106.8164 6.6212) translate(106.7975 -6.592499999999999) rotate(0) translate(-106.7975 6.592499999999999)"
      fill="white" stroke="none"/>
    <circle 
      cx="106.8162" cy="-12.621400000000001"
      r="15" transform="translate(106.8162 -6.6214) scale(0.00001 -0.00001) translate(-106.8162 6.6214) translate(106.7975 -6.592499999999999) rotate(0) translate(-106.7975 6.592499999999999)"
      fill="white" stroke="none"/>
    <circle 
      cx="106.8159" cy="-12.6211"
      r="15" transform="translate(106.8159 -6.6211) scale(0.00001 -0.00001) translate(-106.8159 6.6211) translate(106.7975 -6.592499999999999) rotate(0) translate(-106.7975 6.592499999999999)"
      fill="white" stroke="none"/>
    <circle 
      cx="106.8163" cy="-12.621"
      r="15" transform="translate(106.8163 -6.621) scale(0.00001 -0.00001) translate(-106.8163 6.621) translate(106.7975 -6.592499999999999) rotate(0) translate(-106.7975 6.592499999999999)"
      fill="white" stroke="none"/>
    <circle 
      cx="106.815" cy="-12.6175"
      r="15" transform="translate(106.815 -6.6175) scale(0.00001 -0.00001) translate(-106.815 6.6175) translate(106.7975 -6.592499999999999) rotate(0) translate(-106.7975 6.592499999999999)"
      fill="white" stroke="none"/>
    <circle 
      cx="106.8145" cy="-12.6161"
      r="15" transform="translate(106.8145 -6.6161) scale(0.00001 -0.00001) translate(-106.8145 6.6161) translate(106.7975 -6.592499999999999) rotate(0) translate(-106.7975 6.592499999999999)"
      fill="white" stroke="none"/>
    <circle 
      cx="106.813" cy="-12.6125"
      r="15" transform="translate(106.813 -6.6125) scale(0.00001 -0.00001) translate(-106.813 6.6125) translate(106.7975 -6.592499999999999) rotate(0) translate(-106.7975 6.592499999999999)"
      fill="white" stroke="none"/>
    <circle 
      cx="106.8105" cy="-12.608699999999999"
      r="15" transform="translate(106.8105 -6.6087) scale(0.00001 -0.00001) translate(-106.8105 6.6087) translate(106.7975 -6.592499999999999) rotate(0) translate(-106.7975 6.592499999999999)"
      fill="white" stroke="none"/>
    <circle 
      cx="106.8099" cy="-12.607800000000001"
      r="15" transform="translate(106.8099 -6.6078) scale(0.00001 -0.00001) translate(-106.8099 6.6078) translate(106.7975 -6.592499999999999) rotate(0) translate(-106.7975 6.592499999999999)"
      fill="white" stroke="none"/>
    <circle 
      cx="106.8087" cy="-12.6066"
      r="15" transform="translate(106.8087 -6.6066) scale(0.00001 -0.00001) translate(-106.8087 6.6066) translate(106.7975 -6.592499999999999) rotate(0) translate(-106.7975 6.592499999999999)"
      fill="white" stroke="none"/>
    <circle 
      cx="106.808" cy="-12.6069"
      r="15" transform="translate(106.808 -6.6069) scale(0.00001 -0.00001) translate(-106.808 6.6069) translate(106.7975 -6.592499999999999) rotate(0) translate(-106.7975 6.592499999999999)"
      fill="white" stroke="none"/>
    <circle 
      cx="106.8074" cy="-12.6065"
      r="15" transform="translate(106.8074 -6.6065) scale(0.00001 -0.00001) translate(-106.8074 6.6065) translate(106.7975 -6.592499999999999) rotate(0) translate(-106.7975 6.592499999999999)"
      fill="white" stroke="none"/>
    <circle 
      cx="106.8067" cy="-12.6066"
      r="15" transform="translate(106.8067 -6.6066) scale(0.00001 -0.00001) translate(-106.8067 6.6066) translate(106.7975 -6.592499999999999) rotate(0) translate(-106.7975 6.592499999999999)"
      fill="white" stroke="none"/>
    <circle 
      cx="106.8058" cy="-12.6052"
      r="15" transform="translate(106.8058 -6.6052) scale(0.00001 -0.00001) translate(-106.8058 6.6052) translate(106.7975 -6.592499999999999) rotate(0) translate(-106.7975 6.592499999999999)"
      fill="white" stroke="none"/>
    <circle 
      cx="106.8051" cy="-12.6052"
      r="15" transform="translate(106.8051 -6.6052) scale(0.00001 -0.00001) translate(-106.8051 6.6052) translate(106.7975 -6.592499999999999) rotate(0) translate(-106.7975 6.592499999999999)"
      fill="white" stroke="none"/>
    <circle 
      cx="106.8043" cy="-12.601700000000001"
      r="15" transform="translate(106.8043 -6.6017) scale(0.00001 -0.00001) translate(-106.8043 6.6017) translate(106.7975 -6.592499999999999) rotate(0) translate(-106.7975 6.592499999999999)"
      fill="white" stroke="none"/>
    <circle 
      cx="106.7999" cy="-12.602699999999999"
      r="15" transform="translate(106.7999 -6.6027) scale(0.00001 -0.00001) translate(-106.7999 6.6027) translate(106.7975 -6.592499999999999) rotate(0) translate(-106.7975 6.592499999999999)"
      fill="white" stroke="none"/>
    <circle 
      cx="106.7996" cy="-12.602699999999999"
      r="15" transform="translate(106.7996 -6.6027) scale(0.00001 -0.00001) translate(-106.7996 6.6027) translate(106.7975 -6.592499999999999) rotate(0) translate(-106.7975 6.592499999999999)"
      fill="white" stroke="none"/>
    <circle 
      cx="106.7988" cy="-12.603100000000001"
      r="15" transform="translate(106.7988 -6.6031) scale(0.00001 -0.00001) translate(-106.7988 6.6031) translate(106.7975 -6.592499999999999) rotate(0) translate(-106.7975 6.592499999999999)"
      fill="white" stroke="none"/>
    <circle 
      cx="106.7972" cy="-12.604"
      r="15" transform="translate(106.7972 -6.604) scale(0.00001 -0.00001) translate(-106.7972 6.604) translate(106.7975 -6.592499999999999) rotate(0) translate(-106.7975 6.592499999999999)"
      fill="white" stroke="none"/>
    <circle 
      cx="106.7967" cy="-12.604199999999999"
      r="15" transform="translate(106.7967 -6.6042) scale(0.00001 -0.00001) translate(-106.7967 6.6042) translate(106.7975 -6.592499999999999) rotate(0) translate(-106.7975 6.592499999999999)"
      fill="white" stroke="none"/>
    <circle 
      cx="106.7961" cy="-12.6038"
      r="15" transform="translate(106.7961 -6.6038) scale(0.00001 -0.00001) translate(-106.7961 6.6038) translate(106.7975 -6.592499999999999) rotate(0) translate(-106.7975 6.592499999999999)"
      fill="white" stroke="none"/>
    <circle 
      cx="106.7937" cy="-12.5969"
      r="15" transform="translate(106.7937 -6.5969) scale(0.00001 -0.00001) translate(-106.7937 6.5969) translate(106.7975 -6.592499999999999) rotate(0) translate(-106.7975 6.592499999999999)"
      fill="white" stroke="none"/>
    <circle 
      cx="106.7946" cy="-12.5945"
      r="15" transform="translate(106.7946 -6.5945) scale(0.00001 -0.00001) translate(-106.7946 6.5945) translate(106.7975 -6.592499999999999) rotate(0) translate(-106.7975 6.592499999999999)"
      fill="white" stroke="none"/>
    <circle 
      cx="106.7973" cy="-12.593"
      r="15" transform="translate(106.7973 -6.593) scale(0.00001 -0.00001) translate(-106.7973 6.593) translate(106.7975 -6.592499999999999) rotate(0) translate(-106.7975 6.592499999999999)"
      fill="white" stroke="none"/>
    <circle 
      cx="106.7984" cy="-12.593499999999999"
      r="15" transform="translate(106.7984 -6.5935) scale(0.00001 -0.00001) translate(-106.7984 6.5935) translate(106.7975 -6.592499999999999) rotate(0) translate(-106.7975 6.592499999999999)"
      fill="white" stroke="none"/>
    <circle 
      cx="106.8008" cy="-12.5923"
      r="15" transform="translate(106.8008 -6.5923) scale(0.00001 -0.00001) translate(-106.8008 6.5923) translate(106.7975 -6.592499999999999) rotate(0) translate(-106.7975 6.592499999999999)"
      fill="white" stroke="none"/>
    <circle 
      cx="106.8018" cy="-12.5927"
      r="15" transform="translate(106.8018 -6.5927) scale(0.00001 -0.00001) translate(-106.8018 6.5927) translate(106.7975 -6.592499999999999) rotate(0) translate(-106.7975 6.592499999999999)"
      fill="white" stroke="none"/>
    <circle 
      cx="106.8029" cy="-12.593499999999999"
      r="15" transform="translate(106.8029 -6.5935) scale(0.00001 -0.00001) translate(-106.8029 6.5935) translate(106.7975 -6.592499999999999) rotate(0) translate(-106.7975 6.592499999999999)"
      fill="white" stroke="none"/>
    <circle 
      cx="106.8046" cy="-12.5922"
      r="15" transform="translate(106.8046 -6.5922) scale(0.00001 -0.00001) translate(-106.8046 6.5922) translate(106.7975 -6.592499999999999) rotate(0) translate(-106.7975 6.592499999999999)"
      fill="white" stroke="none"/>
    <circle 
      cx="106.8049" cy="-12.5886"
      r="15" transform="translate(106.8049 -6.5886) scale(0.00001 -0.00001) translate(-106.8049 6.5886) translate(106.7975 -6.592499999999999) rotate(0) translate(-106.7975 6.592499999999999)"
      fill="white" stroke="none"/>
    <circle 
      cx="106.8067" cy="-12.5808"
      r="15" transform="translate(106.8067 -6.5808) scale(0.00001 -0.00001) translate(-106.8067 6.5808) translate(106.7975 -6.592499999999999) rotate(0) translate(-106.7975 6.592499999999999)"
      fill="white" stroke="none"/>
    <circle 
      cx="106.8091" cy="-12.5689"
      r="15" transform="translate(106.8091 -6.5689) scale(0.00001 -0.00001) translate(-106.8091 6.5689) translate(106.7975 -6.592499999999999) rotate(0) translate(-106.7975 6.592499999999999)"
      fill="white" stroke="none"/>
    <circle 
      cx="106.8067" cy="-12.5808"
      r="15" transform="translate(106.8067 -6.5808) scale(0.00001 -0.00001) translate(-106.8067 6.5808) translate(106.7975 -6.592499999999999) rotate(0) translate(-106.7975 6.592499999999999)"
      fill="white" stroke="none"/>
    <text x="106.8049" y="-6.5886" fill="black" text-anchor="middle" transform="translate(106.8049 -6.5886) scale(0.00001 -0.00001) translate(-106.8049 6.5886) translate(106.7975 -6.592499999999999) rotate(0) translate(-106.7975 6.592499999999999)">09</text>
    <text x="106.8059" y="-6.5889" fill="black" text-anchor="middle" transform="translate(106.8059 -6.5889) scale(0.00001 -0.00001) translate(-106.8059 6.5889) translate(106.7975 -6.592499999999999) rotate(0) translate(-106.7975 6.592499999999999)">09</text>
    <text x="106.8057" y="-6.5913" fill="black" text-anchor="middle" transform="translate(106.8057 -6.5913) scale(0.00001 -0.00001) translate(-106.8057 6.5913) translate(106.7975 -6.592499999999999) rotate(0) translate(-106.7975 6.592499999999999)">09</text>
    <text x="106.8057" y="-6.5922" fill="black" text-anchor="middle" transform="translate(106.8057 -6.5922) scale(0.00001 -0.00001) translate(-106.8057 6.5922) translate(106.7975 -6.592499999999999) rotate(0) translate(-106.7975 6.592499999999999)">09</text>
    <text x="106.8046" y="-6.5922" fill="black" text-anchor="middle" transform="translate(106.8046 -6.5922) scale(0.00001 -0.00001) translate(-106.8046 6.5922) translate(106.7975 -6.592499999999999) rotate(0) translate(-106.7975 6.592499999999999)">09</text>
    <text x="106.8044" y="-6.5959" fill="black" text-anchor="middle" transform="translate(106.8044 -6.5959) scale(0.00001 -0.00001) translate(-106.8044 6.5959) translate(106.7975 -6.592499999999999) rotate(0) translate(-106.7975 6.592499999999999)">09</text>
    <text x="106.8052" y="-6.6009" fill="black" text-anchor="middle" transform="translate(106.8052 -6.6009) scale(0.00001 -0.00001) translate(-106.8052 6.6009) translate(106.7975 -6.592499999999999) rotate(0) translate(-106.7975 6.592499999999999)">09</text>
    <text x="106.8053" y="-6.6017" fill="black" text-anchor="middle" transform="translate(106.8053 -6.6017) scale(0.00001 -0.00001) translate(-106.8053 6.6017) translate(106.7975 -6.592499999999999) rotate(0) translate(-106.7975 6.592499999999999)">09</text>
    <text x="106.8068" y="-6.6043" fill="black" text-anchor="middle" transform="translate(106.8068 -6.6043) scale(0.00001 -0.00001) translate(-106.8068 6.6043) translate(106.7975 -6.592499999999999) rotate(0) translate(-106.7975 6.592499999999999)">09</text>
    <text x="106.8111" y="-6.6017" fill="black" text-anchor="middle" transform="translate(106.8111 -6.6017) scale(0.00001 -0.00001) translate(-106.8111 6.6017) translate(106.7975 -6.592499999999999) rotate(0) translate(-106.7975 6.592499999999999)">09</text>
    <text x="106.8071" y="-6.6045" fill="black" text-anchor="middle" transform="translate(106.8071 -6.6045) scale(0.00001 -0.00001) translate(-106.8071 6.6045) translate(106.7975 -6.592499999999999) rotate(0) translate(-106.7975 6.592499999999999)">09</text>
    <text x="106.8087" y="-6.6066" fill="black" text-anchor="middle" transform="translate(106.8087 -6.6066) scale(0.00001 -0.00001) translate(-106.8087 6.6066) translate(106.7975 -6.592499999999999) rotate(0) translate(-106.7975 6.592499999999999)">09</text>
    <text x="106.8099" y="-6.6078" fill="black" text-anchor="middle" transform="translate(106.8099 -6.6078) scale(0.00001 -0.00001) translate(-106.8099 6.6078) translate(106.7975 -6.592499999999999) rotate(0) translate(-106.7975 6.592499999999999)">09</text>
    <text x="106.8105" y="-6.6087" fill="black" text-anchor="middle" transform="translate(106.8105 -6.6087) scale(0.00001 -0.00001) translate(-106.8105 6.6087) translate(106.7975 -6.592499999999999) rotate(0) translate(-106.7975 6.592499999999999)">09</text>
    <text x="106.813" y="-6.6125" fill="black" text-anchor="middle" transform="translate(106.813 -6.6125) scale(0.00001 -0.00001) translate(-106.813 6.6125) translate(106.7975 -6.592499999999999) rotate(0) translate(-106.7975 6.592499999999999)">09</text>
    <text x="106.8145" y="-6.6161" fill="black" text-anchor="middle" transform="translate(106.8145 -6.6161) scale(0.00001 -0.00001) translate(-106.8145 6.6161) translate(106.7975 -6.592499999999999) rotate(0) translate(-106.7975 6.592499999999999)">09</text>
    <text x="106.815" y="-6.6175" fill="black" text-anchor="middle" transform="translate(106.815 -6.6175) scale(0.00001 -0.00001) translate(-106.815 6.6175) translate(106.7975 -6.592499999999999) rotate(0) translate(-106.7975 6.592499999999999)">09</text>
    <text x="106.8163" y="-6.621" fill="black" text-anchor="middle" transform="translate(106.8163 -6.621) scale(0.00001 -0.00001) translate(-106.8163 6.621) translate(106.7975 -6.592499999999999) rotate(0) translate(-106.7975 6.592499999999999)">09</text>
    <text x="106.8164" y="-6.6212" fill="black" text-anchor="middle" transform="translate(106.8164 -6.6212) scale(0.00001 -0.00001) translate(-106.8164 6.6212) translate(106.7975 -6.592499999999999) rotate(0) translate(-106.7975 6.592499999999999)">09</text>
    <text x="106.8162" y="-6.6214" fill="black" text-anchor="middle" transform="translate(106.8162 -6.6214) scale(0.00001 -0.00001) translate(-106.8162 6.6214) translate(106.7975 -6.592499999999999) rotate(0) translate(-106.7975 6.592499999999999)">09</text>
    <text x="106.8159" y="-6.6211" fill="black" text-anchor="middle" transform="translate(106.8159 -6.6211) scale(0.00001 -0.00001) translate(-106.8159 6.6211) translate(106.7975 -6.592499999999999) rotate(0) translate(-106.7975 6.592499999999999)">09</text>
    <text x="106.8163" y="-6.621" fill="black" text-anchor="middle" transform="translate(106.8163 -6.621) scale(0.00001 -0.00001) translate(-106.8163 6.621) translate(106.7975 -6.592499999999999) rotate(0) translate(-106.7975 6.592499999999999)">09</text>
    <text x="106.815" y="-6.6175" fill="black" text-anchor="middle" transform="translate(106.815 -6.6175) scale(0.00001 -0.00001) translate(-106.815 6.6175) translate(106.7975 -6.592499999999999) rotate(0) translate(-106.7975 6.592499999999999)">09</text>
    <text x="106.8145" y="-6.6161" fill="black" text-anchor="middle" transform="translate(106.8145 -6.6161) scale(0.00001 -0.00001) translate(-106.8145 6.6161) translate(106.7975 -6.592499999999999) rotate(0) translate(-106.7975 6.592499999999999)">09</text>
    <text x="106.813" y="-6.6125" fill="black" text-anchor="middle" transform="translate(106.813 -6.6125) scale(0.00001 -0.00001) translate(-106.813 6.6125) translate(106.7975 -6.592499999999999) rotate(0) translate(-106.7975 6.592499999999999)">09</text>
    <text x="106.8105" y="-6.6087" fill="black" text-anchor="middle" transform="translate(106.8105 -6.6087) scale(0.00001 -0.00001) translate(-106.8105 6.6087) translate(106.7975 -6.592499999999999) rotate(0) translate(-106.7975 6.592499999999999)">09</text>
    <text x="106.8099" y="-6.6078" fill="black" text-anchor="middle" transform="translate(106.8099 -6.6078) scale(0.00001 -0.00001) translate(-106.8099 6.6078) translate(106.7975 -6.592499999999999) rotate(0) translate(-106.7975 6.592499999999999)">09</text>
    <text x="106.8087" y="-6.6066" fill="black" text-anchor="middle" transform="translate(106.8087 -6.6066) scale(0.00001 -0.00001) translate(-106.8087 6.6066) translate(106.7975 -6.592499999999999) rotate(0) translate(-106.7975 6.592499999999999)">09</text>
    <text x="106.808" y="-6.6069" fill="black" text-anchor="middle" transform="translate(106.808 -6.6069) scale(0.00001 -0.00001) translate(-106.808 6.6069) translate(106.7975 -6.592499999999999) rotate(0) translate(-106.7975 6.592499999999999)">09</text>
    <text x="106.8074" y="-6.6065" fill="black" text-anchor="middle" transform="translate(106.8074 -6.6065) scale(0.00001 -0.00001) translate(-106.8074 6.6065) translate(106.7975 -6.592499999999999) rotate(0) translate(-106.7975 6.592499999999999)">09</text>
    <text x="106.8067" y="-6.6066" fill="black" text-anchor="middle" transform="translate(106.8067 -6.6066) scale(0.00001 -0.00001) translate(-106.8067 6.6066) translate(106.7975 -6.592499999999999) rotate(0) translate(-106.7975 6.592499999999999)">09</text>
    <text x="106.8058" y="-6.6052" fill="black" text-anchor="middle" transform="translate(106.8058 -6.6052) scale(0.00001 -0.00001) translate(-106.8058 6.6052) translate(106.7975 -6.592499999999999) rotate(0) translate(-106.7975 6.592499999999999)">09</text>
    <text x="106.8051" y="-6.6052" fill="black" text-anchor="middle" transform="translate(106.8051 -6.6052) scale(0.00001 -0.00001) translate(-106.8051 6.6052) translate(106.7975 -6.592499999999999) rotate(0) translate(-106.7975 6.592499999999999)">09</text>
    <text x="106.8043" y="-6.6017" fill="black" text-anchor="middle" transform="translate(106.8043 -6.6017) scale(0.00001 -0.00001) translate(-106.8043 6.6017) translate(106.7975 -6.592499999999999) rotate(0) translate(-106.7975 6.592499999999999)">09</text>
    <text x="106.7999" y="-6.6027" fill="black" text-anchor="middle" transform="translate(106.7999 -6.6027) scale(0.00001 -0.00001) translate(-106.7999 6.6027) translate(106.7975 -6.592499999999999) rotate(0) translate(-106.7975 6.592499999999999)">09</text>
    <text x="106.7996" y="-6.6027" fill="black" text-anchor="middle" transform="translate(106.7996 -6.6027) scale(0.00001 -0.00001) translate(-106.7996 6.6027) translate(106.7975 -6.592499999999999) rotate(0) translate(-106.7975 6.592499999999999)">09</text>
    <text x="106.7988" y="-6.6031" fill="black" text-anchor="middle" transform="translate(106.7988 -6.6031) scale(0.00001 -0.00001) translate(-106.7988 6.6031) translate(106.7975 -6.592499999999999) rotate(0) translate(-106.7975 6.592499999999999)">09</text>
    <text x="106.7972" y="-6.604" fill="black" text-anchor="middle" transform="translate(106.7972 -6.604) scale(0.00001 -0.00001) translate(-106.7972 6.604) translate(106.7975 -6.592499999999999) rotate(0) translate(-106.7975 6.592499999999999)">09</text>
    <text x="106.7967" y="-6.6042" fill="black" text-anchor="middle" transform="translate(106.7967 -6.6042) scale(0.00001 -0.00001) translate(-106.7967 6.6042) translate(106.7975 -6.592499999999999) rotate(0) translate(-106.7975 6.592499999999999)">09</text>
    <text x="106.7961" y="-6.6038" fill="black" text-anchor="middle" transform="translate(106.7961 -6.6038) scale(0.00001 -0.00001) translate(-106.7961 6.6038) translate(106.7975 -6.592499999999999) rotate(0) translate(-106.7975 6.592499999999999)">09</text>
    <text x="106.7937" y="-6.5969" fill="black" text-anchor="middle" transform="translate(106.7937 -6.5969) scale(0.00001 -0.00001) translate(-106.7937 6.5969) translate(106.7975 -6.592499999999999) rotate(0) translate(-106.7975 6.592499999999999)">09</text>
    <text x="106.7946" y="-6.5945" fill="black" text-anchor="middle" transform="translate(106.7946 -6.5945) scale(0.00001 -0.00001) translate(-106.7946 6.5945) translate(106.7975 -6.592499999999999) rotate(0) translate(-106.7975 6.592499999999999)">09</text>
    <text x="106.7973" y="-6.593" fill="black" text-anchor="middle" transform="translate(106.7973 -6.593) scale(0.00001 -0.00001) translate(-106.7973 6.593) translate(106.7975 -6.592499999999999) rotate(0) translate(-106.7975 6.592499999999999)">09</text>
    <text x="106.7984" y="-6.5935" fill="black" text-anchor="middle" transform="translate(106.7984 -6.5935) scale(0.00001 -0.00001) translate(-106.7984 6.5935) translate(106.7975 -6.592499999999999) rotate(0) translate(-106.7975 6.592499999999999)">09</text>
    <text x="106.8008" y="-6.5923" fill="black" text-anchor="middle" transform="translate(106.8008 -6.5923) scale(0.00001 -0.00001) translate(-106.8008 6.5923) translate(106.7975 -6.592499999999999) rotate(0) translate(-106.7975 6.592499999999999)">09</text>
    <text x="106.8018" y="-6.5927" fill="black" text-anchor="middle" transform="translate(106.8018 -6.5927) scale(0.00001 -0.00001) translate(-106.8018 6.5927) translate(106.7975 -6.592499999999999) rotate(0) translate(-106.7975 6.592499999999999)">09</text>
    <text x="106.8029" y="-6.5935" fill="black" text-anchor="middle" transform="translate(106.8029 -6.5935) scale(0.00001 -0.00001) translate(-106.8029 6.5935) translate(106.7975 -6.592499999999999) rotate(0) translate(-106.7975 6.592499999999999)">09</text>
    <text x="106.8046" y="-6.5922" fill="black" text-anchor="middle" transform="translate(106.8046 -6.5922) scale(0.00001 -0.00001) translate(-106.8046 6.5922) translate(106.7975 -6.592499999999999) rotate(0) translate(-106.7975 6.592499999999999)">09</text>
    <text x="106.8049" y="-6.5886" fill="black" text-anchor="middle" transform="translate(106.8049 -6.5886) scale(0.00001 -0.00001) translate(-106.8049 6.5886) translate(106.7975 -6.592499999999999) rotate(0) translate(-106.7975 6.592499999999999)">09</text>
    <text x="106.8067" y="-6.5808" fill="black" text-anchor="middle" transform="translate(106.8067 -6.5808) scale(0.00001 -0.00001) translate(-106.8067 6.5808) translate(106.7975 -6.592499999999999) rotate(0) translate(-106.7975 6.592499999999999)">09</text>
    <text x="106.8091" y="-6.5689" fill="black" text-anchor="middle" transform="translate(106.8091 -6.5689) scale(0.00001 -0.00001) translate(-106.8091 6.5689) translate(106.7975 -6.592499999999999) rotate(0) translate(-106.7975 6.592499999999999)">09</text>
    <text x="106.8067" y="-6.5808" fill="black" text-anchor="middle" transform="translate(106.8067 -6.5808) scale(0.00001 -0.00001) translate(-106.8067 6.5808) translate(106.7975 -6.592499999999999) rotate(0) translate(-106.7975 6.592499999999999)">09</text>
    <line x1="106.80679743911958" y1="-6.58082248595067" x2="106.80589743911958" y2="-6.58472248595067" style="stroke:rgb(255,0,0);stroke-width:.00002" />
    <line x1="106.80589743911958" y1="-6.58472248595067" x2="106.80499743911957" y2="-6.58862248595067" style="stroke:rgb(0,0,255);stroke-width:.00002" />
    <circle cx="106.8067" cy="-6.5808" fill="rgb(255,0,0)" r=".0001" />
    <text x="106.8067" y="-6.5808" stroke="rgb(0,0,0)" transform="translate(106.8067 -6.5808),scale(0.00001 -0.00001),translate(-106.8067 6.5808),translate(106.7975 -6.592499999999999),rotate(0),translate(-106.7975 6.592499999999999)" >pajajaran-sobana</text>
    <line x1="106.80492873478856" y1="-6.588504217371478" x2="106.80542873478855" y2="-6.588654217371477" style="stroke:rgb(255,0,0);stroke-width:.00002" />
    <line x1="106.80542873478855" y1="-6.588654217371477" x2="106.80592873478855" y2="-6.588804217371478" style="stroke:rgb(0,0,255);stroke-width:.00002" />
    <circle cx="106.8049" cy="-6.5886" fill="rgb(255,0,0)" r=".0001" />
    <text x="106.8049" y="-6.5886" stroke="rgb(0,0,0)" transform="translate(106.8049 -6.5886),scale(0.00001 -0.00001),translate(-106.8049 6.5886),translate(106.7975 -6.592499999999999),rotate(0),translate(-106.7975 6.592499999999999)" >salak-pajajaran</text>
    <line x1="106.80599965457581" y1="-6.588908304547985" x2="106.80589965457582" y2="-6.590108304547985" style="stroke:rgb(255,0,0);stroke-width:.00002" />
    <line x1="106.80589965457582" y1="-6.590108304547985" x2="106.80579965457582" y2="-6.591308304547986" style="stroke:rgb(0,0,255);stroke-width:.00002" />
    <circle cx="106.8059" cy="-6.5889" fill="rgb(255,0,0)" r=".0001" />
    <text x="106.8059" y="-6.5889" stroke="rgb(0,0,0)" transform="translate(106.8059 -6.5889),scale(0.00001 -0.00001),translate(-106.8059 6.5889),translate(106.7975 -6.592499999999999),rotate(0),translate(-106.7975 6.592499999999999)" >lodaya-N</text>
    <line x1="106.8058" y1="-6.5913" x2="106.8058" y2="-6.5917" style="stroke:rgb(255,0,0);stroke-width:.00002" />
    <line x1="106.80585" y1="-6.5918" x2="106.80585" y2="-6.5922" style="stroke:rgb(0,0,255);stroke-width:.00002" />
    <circle cx="106.8057" cy="-6.5913" fill="rgb(255,0,0)" r=".0001" />
    <text x="106.8057" y="-6.5913" stroke="rgb(0,0,0)" transform="translate(106.8057 -6.5913),scale(0.00001 -0.00001),translate(-106.8057 6.5913),translate(106.7975 -6.592499999999999),rotate(0),translate(-106.7975 6.592499999999999)" >lodaya-M</text>
    <line x1="106.8057" y1="-6.59235" x2="106.80515" y2="-6.59235" style="stroke:rgb(255,0,0);stroke-width:.00002" />
    <line x1="106.80515" y1="-6.59235" x2="106.8046" y2="-6.59235" style="stroke:rgb(0,0,255);stroke-width:.00002" />
    <circle cx="106.8057" cy="-6.5922" fill="rgb(255,0,0)" r=".0001" />
    <text x="106.8057" y="-6.5922" stroke="rgb(0,0,0)" transform="translate(106.8057 -6.5922),scale(0.00001 -0.00001),translate(-106.8057 6.5922),translate(106.7975 -6.592499999999999),rotate(0),translate(-106.7975 6.592499999999999)" >lodaya-S</text>
    <line x1="106.80474978134099" y1="-6.592208096288702" x2="106.80465248010388" y2="-6.594008169175038" style="stroke:rgb(255,0,0);stroke-width:.00002" />
    <line x1="106.80439744700976" y1="-6.594094529587863" x2="106.80430014577267" y2="-6.595894602474199" style="stroke:rgb(0,0,255);stroke-width:.00002" />
    <circle cx="106.8046" cy="-6.5922" fill="rgb(255,0,0)" r=".0001" />
    <text x="106.8046" y="-6.5922" stroke="rgb(0,0,0)" transform="translate(106.8046 -6.5922),scale(0.00001 -0.00001),translate(-106.8046 6.5922),translate(106.7975 -6.592499999999999),rotate(0),translate(-106.7975 6.592499999999999)" >pangrango-pajajaran</text>
    <line x1="106.8043012559368" y1="-6.595915799050111" x2="106.80466175831152" y2="-6.598168938892131" style="stroke:rgb(255,0,0);stroke-width:.00002" />
    <line x1="106.80498761372007" y1="-6.598623161582813" x2="106.80534811609479" y2="-6.600876301424834" style="stroke:rgb(0,0,255);stroke-width:.00002" />
    <circle cx="106.8044" cy="-6.5959" fill="rgb(255,0,0)" r=".0001" />
    <text x="106.8044" y="-6.5959" stroke="rgb(0,0,0)" transform="translate(106.8044 -6.5959),scale(0.00001 -0.00001),translate(-106.8044 6.5959),translate(106.7975 -6.592499999999999),rotate(0),translate(-106.7975 6.592499999999999)" >kb-astrid</text>
    <line x1="106.80534884168151" y1="-6.600881394789811" x2="106.80536163126114" y2="-6.600983711426797" style="stroke:rgb(255,0,0);stroke-width:.00002" />
    <line x1="106.80543605210188" y1="-6.601579078152825" x2="106.80544884168151" y2="-6.601681394789811" style="stroke:rgb(0,0,255);stroke-width:.00002" />
    <circle cx="106.8052" cy="-6.6009" fill="rgb(255,0,0)" r=".0001" />
    <text x="106.8052" y="-6.6009" stroke="rgb(0,0,0)" transform="translate(106.8052 -6.6009),scale(0.00001 -0.00001),translate(-106.8052 6.6009),translate(106.7975 -6.592499999999999),rotate(0),translate(-106.7975 6.592499999999999)" >kb-botani-1</text>
    <line x1="106.8054299278379" y1="-6.601625041631977" x2="106.8061799278379" y2="-6.602925041631977" style="stroke:rgb(255,0,0);stroke-width:.00002" />
    <line x1="106.8061799278379" y1="-6.602925041631977" x2="106.8069299278379" y2="-6.604225041631977" style="stroke:rgb(0,0,255);stroke-width:.00002" />
    <circle cx="106.8053" cy="-6.6017" fill="rgb(255,0,0)" r=".0001" />
    <text x="106.8053" y="-6.6017" stroke="rgb(0,0,0)" transform="translate(106.8053 -6.6017),scale(0.00001 -0.00001),translate(-106.8053 6.6017),translate(106.7975 -6.592499999999999),rotate(0),translate(-106.7975 6.592499999999999)" >pajajaran-otista</text>
    <line x1="106.80672238709916" y1="-6.6041716402024635" x2="106.80887238709916" y2="-6.602871640202463" style="stroke:rgb(255,0,0);stroke-width:.00002" />
    <line x1="106.80887238709916" y1="-6.602871640202463" x2="106.81102238709916" y2="-6.601571640202463" style="stroke:rgb(0,0,255);stroke-width:.00002" />
    <circle cx="106.8068" cy="-6.6043" fill="rgb(255,0,0)" r=".0001" />
    <text x="106.8068" y="-6.6043" stroke="rgb(0,0,0)" transform="translate(106.8068 -6.6043),scale(0.00001 -0.00001),translate(-106.8068 6.6043),translate(106.7975 -6.592499999999999),rotate(0),translate(-106.7975 6.592499999999999)" >tol-1</text>
    <line x1="106.81118601935165" y1="-6.601822884788078" x2="106.80918601935166" y2="-6.603222884788077" style="stroke:rgb(255,0,0);stroke-width:.00002" />
    <line x1="106.80918601935166" y1="-6.603222884788077" x2="106.80718601935166" y2="-6.6046228847880775" style="stroke:rgb(0,0,255);stroke-width:.00002" />
    <circle cx="106.8111" cy="-6.6017" fill="rgb(255,0,0)" r=".0001" />
    <text x="106.8111" y="-6.6017" stroke="rgb(0,0,0)" transform="translate(106.8111 -6.6017),scale(0.00001 -0.00001),translate(-106.8111 6.6017),translate(106.7975 -6.592499999999999),rotate(0),translate(-106.7975 6.592499999999999)" >tol-2</text>
    <line x1="106.80721931475802" y1="-6.60440909351771" x2="106.80801931475801" y2="-6.605459093517711" style="stroke:rgb(255,0,0);stroke-width:.00002" />
    <line x1="106.80801931475801" y1="-6.605459093517711" x2="106.80881931475801" y2="-6.606509093517711" style="stroke:rgb(0,0,255);stroke-width:.00002" />
    <circle cx="106.8071" cy="-6.6045" fill="rgb(255,0,0)" r=".0001" />
    <text x="106.8071" y="-6.6045" stroke="rgb(0,0,0)" transform="translate(106.8071 -6.6045),scale(0.00001 -0.00001),translate(-106.8071 6.6045),translate(106.7975 -6.592499999999999),rotate(0),translate(-106.7975 6.592499999999999)" >tol-3</text>
    <line x1="106.80880606601718" y1="-6.606493933982822" x2="106.80937071067812" y2="-6.6070585786437634" style="stroke:rgb(255,0,0);stroke-width:.00002" />
    <line x1="106.80940606601719" y1="-6.6071646446609416" x2="106.80997071067812" y2="-6.607729289321882" style="stroke:rgb(0,0,255);stroke-width:.00002" />
    <circle cx="106.8087" cy="-6.6066" fill="rgb(255,0,0)" r=".0001" />
    <text x="106.8087" y="-6.6066" stroke="rgb(0,0,0)" transform="translate(106.8087 -6.6066),scale(0.00001 -0.00001),translate(-106.8087 6.6066),translate(106.7975 -6.592499999999999),rotate(0),translate(-106.7975 6.592499999999999)" >bangka-1</text>
    <line x1="106.80998320502944" y1="-6.607744529980377" x2="106.81025547001964" y2="-6.60815292746566" style="stroke:rgb(255,0,0);stroke-width:.00002" />
    <line x1="106.81035254255397" y1="-6.608208397485282" x2="106.81062480754416" y2="-6.608616794970565" style="stroke:rgb(0,0,255);stroke-width:.00002" />
    <circle cx="106.8099" cy="-6.6078" fill="rgb(255,0,0)" r=".0001" />
    <text x="106.8099" y="-6.6078" stroke="rgb(0,0,0)" transform="translate(106.8099 -6.6078),scale(0.00001 -0.00001),translate(-106.8099 6.6078),translate(106.7975 -6.592499999999999),rotate(0),translate(-106.7975 6.592499999999999)" >pajajaran-ciheuleut</text>
    <line x1="106.81062531256234" y1="-6.608617557524778" x2="106.81182035091219" y2="-6.610434015816554" style="stroke:rgb(255,0,0);stroke-width:.00002" />
    <line x1="106.81184673250426" y1="-6.61065606088315" x2="106.81304177085411" y2="-6.612472519174926" style="stroke:rgb(0,0,255);stroke-width:.00002" />
    <circle cx="106.8105" cy="-6.6087" fill="rgb(255,0,0)" r=".0001" />
    <text x="106.8105" y="-6.6087" stroke="rgb(0,0,0)" transform="translate(106.8105 -6.6087),scale(0.00001 -0.00001),translate(-106.8105 6.6087),translate(106.7975 -6.592499999999999),rotate(0),translate(-106.7975 6.592499999999999)" >pajajaran-michelle-bakery</text>
    <line x1="106.81304615384616" y1="-6.612480769230769" x2="106.81379615384616" y2="-6.61428076923077" style="stroke:rgb(255,0,0);stroke-width:.00002" />
    <line x1="106.81379615384616" y1="-6.61428076923077" x2="106.81454615384615" y2="-6.61608076923077" style="stroke:rgb(0,0,255);stroke-width:.00002" />
    <circle cx="106.813" cy="-6.6125" fill="rgb(255,0,0)" r=".0001" />
    <text x="106.813" y="-6.6125" stroke="rgb(0,0,0)" transform="translate(106.813 -6.6125),scale(0.00001 -0.00001),translate(-106.813 6.6125),translate(106.7975 -6.592499999999999),rotate(0),translate(-106.7975 6.592499999999999)" >pajajaran-pjjindah</text>
    <line x1="106.81454708709558" y1="-6.616083183180151" x2="106.81476345345588" y2="-6.616689008988991" style="stroke:rgb(255,0,0);stroke-width:.00002" />
    <line x1="106.81492489492645" y1="-6.616843723731609" x2="106.81514126128674" y2="-6.61744954954045" style="stroke:rgb(0,0,255);stroke-width:.00002" />
    <circle cx="106.8145" cy="-6.6161" fill="rgb(255,0,0)" r=".0001" />
    <text x="106.8145" y="-6.6161" stroke="rgb(0,0,0)" transform="translate(106.8145 -6.6161),scale(0.00001 -0.00001),translate(-106.8145 6.6161),translate(106.7975 -6.592499999999999),rotate(0),translate(-106.7975 6.592499999999999)" >pajajaran-durian</text>
    <line x1="106.8151406137908" y1="-6.617447772020559" x2="106.81575579513785" y2="-6.619104029493358" style="stroke:rgb(255,0,0);stroke-width:.00002" />
    <line x1="106.81573168991657" y1="-6.619326333200721" x2="106.8163468712636" y2="-6.6209825906735205" style="stroke:rgb(0,0,255);stroke-width:.00002" />
    <circle cx="106.815" cy="-6.6175" fill="rgb(255,0,0)" r=".0001" />
    <text x="106.815" y="-6.6175" stroke="rgb(0,0,0)" transform="translate(106.815 -6.6175),scale(0.00001 -0.00001),translate(-106.815 6.6175),translate(106.7975 -6.592499999999999),rotate(0),translate(-106.7975 6.592499999999999)" >pajajaran-ggmesjid</text>
    <line x1="106.81634472135954" y1="-6.620977639320225" x2="106.81639472135954" y2="-6.621077639320225" style="stroke:rgb(255,0,0);stroke-width:.00002" />
    <line x1="106.81639472135954" y1="-6.621077639320225" x2="106.81644472135955" y2="-6.621177639320225" style="stroke:rgb(0,0,255);stroke-width:.00002" />
    <circle cx="106.8163" cy="-6.621" fill="rgb(255,0,0)" r=".0001" />
    <text x="106.8163" y="-6.621" stroke="rgb(0,0,0)" transform="translate(106.8163 -6.621),scale(0.00001 -0.00001),translate(-106.8163 6.621),translate(106.7975 -6.592499999999999),rotate(0),translate(-106.7975 6.592499999999999)" >lippo-n</text>
    <line x1="106.81643535533907" y1="-6.62123535533906" x2="106.81633535533906" y2="-6.62133535533906" style="stroke:rgb(255,0,0);stroke-width:.00002" />
    <line x1="106.81633535533906" y1="-6.62133535533906" x2="106.81623535533906" y2="-6.62143535533906" style="stroke:rgb(0,0,255);stroke-width:.00002" />
    <circle cx="106.8164" cy="-6.6212" fill="rgb(255,0,0)" r=".0001" />
    <text x="106.8164" y="-6.6212" stroke="rgb(0,0,0)" transform="translate(106.8164 -6.6212),scale(0.00001 -0.00001),translate(-106.8164 6.6212),translate(106.7975 -6.592499999999999),rotate(0),translate(-106.7975 6.592499999999999)" >lippo-e</text>
    <line x1="106.81616464466093" y1="-6.6214353553390595" x2="106.81601464466092" y2="-6.621285355339059" style="stroke:rgb(255,0,0);stroke-width:.00002" />
    <line x1="106.81601464466092" y1="-6.621285355339059" x2="106.81586464466093" y2="-6.621135355339059" style="stroke:rgb(0,0,255);stroke-width:.00002" />
    <circle cx="106.8162" cy="-6.6214" fill="rgb(255,0,0)" r=".0001" />
    <text x="106.8162" y="-6.6214" stroke="rgb(0,0,0)" transform="translate(106.8162 -6.6214),scale(0.00001 -0.00001),translate(-106.8162 6.6214),translate(106.7975 -6.592499999999999),rotate(0),translate(-106.7975 6.592499999999999)" >lippo-s</text>
    <line x1="106.81588787321874" y1="-6.621051492874993" x2="106.81608787321875" y2="-6.621001492874993" style="stroke:rgb(255,0,0);stroke-width:.00002" />
    <line x1="106.81608787321875" y1="-6.621001492874993" x2="106.81628787321874" y2="-6.620951492874993" style="stroke:rgb(0,0,255);stroke-width:.00002" />
    <circle cx="106.8159" cy="-6.6211" fill="rgb(255,0,0)" r=".0001" />
    <text x="106.8159" y="-6.6211" stroke="rgb(0,0,0)" transform="translate(106.8159 -6.6211),scale(0.00001 -0.00001),translate(-106.8159 6.6211),translate(106.7975 -6.592499999999999),rotate(0),translate(-106.7975 6.592499999999999)" >lippo-w</text>
    <line x1="106.81625312873639" y1="-6.62101740932648" x2="106.8156031287364" y2="-6.61926740932648" style="stroke:rgb(255,0,0);stroke-width:.00002" />
    <line x1="106.8156031287364" y1="-6.61926740932648" x2="106.81495312873639" y2="-6.61751740932648" style="stroke:rgb(0,0,255);stroke-width:.00002" />
    <circle cx="106.8163" cy="-6.621" fill="rgb(255,0,0)" r=".0001" />
    <text x="106.8163" y="-6.621" stroke="rgb(0,0,0)" transform="translate(106.8163 -6.621),scale(0.00001 -0.00001),translate(-106.8163 6.621),translate(106.7975 -6.592499999999999),rotate(0),translate(-106.7975 6.592499999999999)" >lippo-n</text>
    <line x1="106.81495291290442" y1="-6.617516816819849" x2="106.81471972972427" y2="-6.616863903915429" style="stroke:rgb(255,0,0);stroke-width:.00002" />
    <line x1="106.81463900898899" y1="-6.61678654654412" x2="106.81440582580883" y2="-6.6161336336397" style="stroke:rgb(0,0,255);stroke-width:.00002" />
    <circle cx="106.815" cy="-6.6175" fill="rgb(255,0,0)" r=".0001" />
    <text x="106.815" y="-6.6175" stroke="rgb(0,0,0)" transform="translate(106.815 -6.6175),scale(0.00001 -0.00001),translate(-106.815 6.6175),translate(106.7975 -6.592499999999999),rotate(0),translate(-106.7975 6.592499999999999)" >pajajaran-ggmesjid</text>
    <line x1="106.81440769230768" y1="-6.616138461538462" x2="106.81367692307691" y2="-6.6143846153846155" style="stroke:rgb(255,0,0);stroke-width:.00002" />
    <line x1="106.81368461538462" y1="-6.614273076923077" x2="106.81295384615385" y2="-6.61251923076923" style="stroke:rgb(0,0,255);stroke-width:.00002" />
    <circle cx="106.8145" cy="-6.6161" fill="rgb(255,0,0)" r=".0001" />
    <text x="106.8145" y="-6.6161" stroke="rgb(0,0,0)" transform="translate(106.8145 -6.6161),scale(0.00001 -0.00001),translate(-106.8145 6.6161),translate(106.7975 -6.592499999999999),rotate(0),translate(-106.7975 6.592499999999999)" >pajajaran-durian</text>
    <line x1="106.81295822914589" y1="-6.612527480825074" x2="106.81170822914589" y2="-6.610627480825074" style="stroke:rgb(255,0,0);stroke-width:.00002" />
    <line x1="106.81170822914589" y1="-6.610627480825074" x2="106.8104582291459" y2="-6.608727480825074" style="stroke:rgb(0,0,255);stroke-width:.00002" />
    <circle cx="106.813" cy="-6.6125" fill="rgb(255,0,0)" r=".0001" />
    <text x="106.813" y="-6.6125" stroke="rgb(0,0,0)" transform="translate(106.813 -6.6125),scale(0.00001 -0.00001),translate(-106.813 6.6125),translate(106.7975 -6.592499999999999),rotate(0),translate(-106.7975 6.592499999999999)" >pajajaran-pjjindah</text>
    <line x1="106.81045839748529" y1="-6.608727735009811" x2="106.81021386750491" y2="-6.608360940039245" style="stroke:rgb(255,0,0);stroke-width:.00002" />
    <line x1="106.81001972243624" y1="-6.608250000000001" x2="106.80977519245585" y2="-6.6078832050294345" style="stroke:rgb(0,0,255);stroke-width:.00002" />
    <circle cx="106.8105" cy="-6.6087" fill="rgb(255,0,0)" r=".0001" />
    <text x="106.8105" y="-6.6087" stroke="rgb(0,0,0)" transform="translate(106.8105 -6.6087),scale(0.00001 -0.00001),translate(-106.8105 6.6087),translate(106.7975 -6.592499999999999),rotate(0),translate(-106.7975 6.592499999999999)" >pajajaran-michelle-bakery</text>
    <line x1="106.80979393398282" y1="-6.607906066017178" x2="106.80922928932189" y2="-6.607341421356238" style="stroke:rgb(255,0,0);stroke-width:.00002" />
    <line x1="106.80912322330471" y1="-6.607306066017179" x2="106.80855857864377" y2="-6.606741421356237" style="stroke:rgb(0,0,255);stroke-width:.00002" />
    <circle cx="106.8099" cy="-6.6078" fill="rgb(255,0,0)" r=".0001" />
    <text x="106.8099" y="-6.6078" stroke="rgb(0,0,0)" transform="translate(106.8099 -6.6078),scale(0.00001 -0.00001),translate(-106.8099 6.6078),translate(106.7975 -6.592499999999999),rotate(0),translate(-106.7975 6.592499999999999)" >pajajaran-ciheuleut</text>
    <line x1="106.80877878385972" y1="-6.6067838290060035" x2="106.80852069836273" y2="-6.606894437076145" style="stroke:rgb(255,0,0);stroke-width:.00002" />
    <line x1="106.80829747742686" y1="-6.60688130643286" x2="106.80803939192987" y2="-6.606991914503002" style="stroke:rgb(0,0,255);stroke-width:.00002" />
    <circle cx="106.8087" cy="-6.6066" fill="rgb(255,0,0)" r=".0001" />
    <text x="106.8087" y="-6.6066" stroke="rgb(0,0,0)" transform="translate(106.8087 -6.6066),scale(0.00001 -0.00001),translate(-106.8087 6.6066),translate(106.7975 -6.592499999999999),rotate(0),translate(-106.7975 6.592499999999999)" >bangka-1</text>
    <line x1="106.80794452998039" y1="-6.606983205029435" x2="106.8076445299804" y2="-6.606783205029434" style="stroke:rgb(255,0,0);stroke-width:.00002" />
    <line x1="106.8076445299804" y1="-6.606783205029434" x2="106.80734452998038" y2="-6.606583205029434" style="stroke:rgb(0,0,255);stroke-width:.00002" />
    <circle cx="106.808" cy="-6.6069" fill="rgb(255,0,0)" r=".0001" />
    <text x="106.808" y="-6.6069" stroke="rgb(0,0,0)" transform="translate(106.808 -6.6069),scale(0.00001 -0.00001),translate(-106.808 6.6069),translate(106.7975 -6.592499999999999),rotate(0),translate(-106.7975 6.592499999999999)" >bangka-2</text>
    <line x1="106.80741414213563" y1="-6.6065989949493655" x2="106.80706414213563" y2="-6.606648994949366" style="stroke:rgb(255,0,0);stroke-width:.00002" />
    <line x1="106.80706414213563" y1="-6.606648994949366" x2="106.80671414213563" y2="-6.606698994949366" style="stroke:rgb(0,0,255);stroke-width:.00002" />
    <circle cx="106.8074" cy="-6.6065" fill="rgb(255,0,0)" r=".0001" />
    <text x="106.8074" y="-6.6065" stroke="rgb(0,0,0)" transform="translate(106.8074 -6.6065),scale(0.00001 -0.00001),translate(-106.8074 6.6065),translate(106.7975 -6.592499999999999),rotate(0),translate(-106.7975 6.592499999999999)" >bangka-3</text>
    <line x1="106.80661588215247" y1="-6.606654075759131" x2="106.80616588215247" y2="-6.605954075759131" style="stroke:rgb(255,0,0);stroke-width:.00002" />
    <line x1="106.80616588215247" y1="-6.605954075759131" x2="106.80571588215247" y2="-6.605254075759131" style="stroke:rgb(0,0,255);stroke-width:.00002" />
    <circle cx="106.8067" cy="-6.6066" fill="rgb(255,0,0)" r=".0001" />
    <text x="106.8067" y="-6.6066" stroke="rgb(0,0,0)" transform="translate(106.8067 -6.6066),scale(0.00001 -0.00001),translate(-106.8067 6.6066),translate(106.7975 -6.592499999999999),rotate(0),translate(-106.7975 6.592499999999999)" >bangka-5</text>
    <line x1="106.8058" y1="-6.6053" x2="106.80545000000001" y2="-6.6053" style="stroke:rgb(255,0,0);stroke-width:.00002" />
    <line x1="106.80545000000001" y1="-6.6053" x2="106.8051" y2="-6.6053" style="stroke:rgb(0,0,255);stroke-width:.00002" />
    <circle cx="106.8058" cy="-6.6052" fill="rgb(255,0,0)" r=".0001" />
    <text x="106.8058" y="-6.6052" stroke="rgb(0,0,0)" transform="translate(106.8058 -6.6052),scale(0.00001 -0.00001),translate(-106.8058 6.6052),translate(106.7975 -6.592499999999999),rotate(0),translate(-106.7975 6.592499999999999)" >bangka-6</text>
    <line x1="106.80500251414934" y1="-6.60522228248015" x2="106.80460251414934" y2="-6.60347228248015" style="stroke:rgb(255,0,0);stroke-width:.00002" />
    <line x1="106.80489497170132" y1="-6.6034054350397" x2="106.80449497170132" y2="-6.601655435039699" style="stroke:rgb(0,0,255);stroke-width:.00002" />
    <circle cx="106.8051" cy="-6.6052" fill="rgb(255,0,0)" r=".0001" />
    <text x="106.8051" y="-6.6052" stroke="rgb(0,0,0)" transform="translate(106.8051 -6.6052),scale(0.00001 -0.00001),translate(-106.8051 6.6052),translate(106.7975 -6.592499999999999),rotate(0),translate(-106.7975 6.592499999999999)" >bangka-7</text>
    <line x1="106.80425567577927" y1="-6.601504973428842" x2="106.80229945899322" y2="-6.6019495681529445" style="stroke:rgb(255,0,0);stroke-width:.00002" />
    <line x1="106.80186729784123" y1="-6.602304161918687" x2="106.79991108105517" y2="-6.602748756642789" style="stroke:rgb(0,0,255);stroke-width:.00002" />
    <circle cx="106.8043" cy="-6.6017" fill="rgb(255,0,0)" r=".0001" />
    <text x="106.8043" y="-6.6017" stroke="rgb(0,0,0)" transform="translate(106.8043 -6.6017),scale(0.00001 -0.00001),translate(-106.8043 6.6017),translate(106.7975 -6.592499999999999),rotate(0),translate(-106.7975 6.592499999999999)" >bangka-otista</text>
    <line x1="106.7999" y1="-6.6027499999999995" x2="106.79974999999999" y2="-6.6027499999999995" style="stroke:rgb(255,0,0);stroke-width:.00002" />
    <line x1="106.79974999999999" y1="-6.6027499999999995" x2="106.7996" y2="-6.6027499999999995" style="stroke:rgb(0,0,255);stroke-width:.00002" />
    <circle cx="106.7999" cy="-6.6027" fill="rgb(255,0,0)" r=".0001" />
    <text x="106.7999" y="-6.6027" stroke="rgb(0,0,0)" transform="translate(106.7999 -6.6027),scale(0.00001 -0.00001),translate(-106.7999 6.6027),translate(106.7975 -6.592499999999999),rotate(0),translate(-106.7975 6.592499999999999)" >otista-roda</text>
    <line x1="106.79962236067978" y1="-6.602744721359549" x2="106.79931180339888" y2="-6.6029" style="stroke:rgb(255,0,0);stroke-width:.00002" />
    <line x1="106.79908819660112" y1="-6.6029" x2="106.79877763932022" y2="-6.603055278640451" style="stroke:rgb(0,0,255);stroke-width:.00002" />
    <circle cx="106.7996" cy="-6.6027" fill="rgb(255,0,0)" r=".0001" />
    <text x="106.7996" y="-6.6027" stroke="rgb(0,0,0)" transform="translate(106.7996 -6.6027),scale(0.00001 -0.00001),translate(-106.7996 6.6027),translate(106.7975 -6.592499999999999),rotate(0),translate(-106.7975 6.592499999999999)" >kb-otista</text>
    <line x1="106.79877548693801" y1="-6.603056421223144" x2="106.79797548693801" y2="-6.603506421223144" style="stroke:rgb(255,0,0);stroke-width:.00002" />
    <line x1="106.79797548693801" y1="-6.603506421223144" x2="106.79717548693802" y2="-6.603956421223144" style="stroke:rgb(0,0,255);stroke-width:.00002" />
    <circle cx="106.7988" cy="-6.6031" fill="rgb(255,0,0)" r=".0001" />
    <text x="106.7988" y="-6.6031" stroke="rgb(0,0,0)" transform="translate(106.7988 -6.6031),scale(0.00001 -0.00001),translate(-106.7988 6.6031),translate(106.7975 -6.592499999999999),rotate(0),translate(-106.7975 6.592499999999999)" >kb-suryakencana</text>
    <line x1="106.79718143046618" y1="-6.6039535761654555" x2="106.79693143046619" y2="-6.604053576165455" style="stroke:rgb(255,0,0);stroke-width:.00002" />
    <line x1="106.79693143046619" y1="-6.604053576165455" x2="106.79668143046618" y2="-6.604153576165455" style="stroke:rgb(0,0,255);stroke-width:.00002" />
    <circle cx="106.7972" cy="-6.604" fill="rgb(255,0,0)" r=".0001" />
    <text x="106.7972" y="-6.604" stroke="rgb(0,0,0)" transform="translate(106.7972 -6.604),scale(0.00001 -0.00001),translate(-106.7972 6.604),translate(106.7975 -6.592499999999999),rotate(0),translate(-106.7975 6.592499999999999)" >cincau-kb</text>
    <line x1="106.79672773500981" y1="-6.604158397485283" x2="106.79642773500981" y2="-6.6039583974852825" style="stroke:rgb(255,0,0);stroke-width:.00002" />
    <line x1="106.79642773500981" y1="-6.6039583974852825" x2="106.7961277350098" y2="-6.603758397485283" style="stroke:rgb(0,0,255);stroke-width:.00002" />
    <circle cx="106.7967" cy="-6.6042" fill="rgb(255,0,0)" r=".0001" />
    <text x="106.7967" y="-6.6042" stroke="rgb(0,0,0)" transform="translate(106.7967 -6.6042),scale(0.00001 -0.00001),translate(-106.7967 6.6042),translate(106.7975 -6.592499999999999),rotate(0),translate(-106.7975 6.592499999999999)" >kb-btm-1</text>
    <line x1="106.79614722483983" y1="-6.6037835739687525" x2="106.79496365087108" y2="-6.600380798808588" style="stroke:rgb(255,0,0);stroke-width:.00002" />
    <line x1="106.79497802364841" y1="-6.60026992309767" x2="106.79379444967967" y2="-6.596867147937505" style="stroke:rgb(0,0,255);stroke-width:.00002" />
    <circle cx="106.7961" cy="-6.6038" fill="rgb(255,0,0)" r=".0001" />
    <text x="106.7961" y="-6.6038" stroke="rgb(0,0,0)" transform="translate(106.7961 -6.6038),scale(0.00001 -0.00001),translate(-106.7961 6.6038),translate(106.7975 -6.592499999999999),rotate(0),translate(-106.7975 6.592499999999999)" >kb-btm-2</text>
    <line x1="106.79379363291775" y1="-6.596935112344159" x2="106.79419096440152" y2="-6.595875561720795" style="stroke:rgb(255,0,0);stroke-width:.00002" />
    <line x1="106.79415585205736" y1="-6.595541994451285" x2="106.79455318354113" y2="-6.59448244382792" style="stroke:rgb(0,0,255);stroke-width:.00002" />
    <circle cx="106.7937" cy="-6.5969" fill="rgb(255,0,0)" r=".0001" />
    <text x="106.7937" y="-6.5969" stroke="rgb(0,0,0)" transform="translate(106.7937 -6.5969),scale(0.00001 -0.00001),translate(-106.7937 6.5969),translate(106.7975 -6.592499999999999),rotate(0),translate(-106.7975 6.592499999999999)" >kb-muslihat</text>
    <line x1="106.79457571785345" y1="-6.5944562921361936" x2="106.79588200998964" y2="-6.593730574282753" style="stroke:rgb(255,0,0);stroke-width:.00002" />
    <line x1="106.79594514357069" y1="-6.593638302125829" x2="106.79725143570688" y2="-6.592912584272388" style="stroke:rgb(0,0,255);stroke-width:.00002" />
    <circle cx="106.7946" cy="-6.5945" fill="rgb(255,0,0)" r=".0001" />
    <text x="106.7946" y="-6.5945" stroke="rgb(0,0,0)" transform="translate(106.7946 -6.5945),scale(0.00001 -0.00001),translate(-106.7946 6.5945),translate(106.7975 -6.592499999999999),rotate(0),translate(-106.7975 6.592499999999999)" >kb-gedong-sawah</text>
    <line x1="106.79734138029444" y1="-6.5929089633522535" x2="106.79784586197057" y2="-6.593138273205038" style="stroke:rgb(255,0,0);stroke-width:.00002" />
    <line x1="106.7979162084711" y1="-6.593225171823342" x2="106.79842069014721" y2="-6.593454481676127" style="stroke:rgb(0,0,255);stroke-width:.00002" />
    <circle cx="106.7973" cy="-6.593" fill="rgb(255,0,0)" r=".0001" />
    <text x="106.7973" y="-6.593" stroke="rgb(0,0,0)" transform="translate(106.7973 -6.593),scale(0.00001 -0.00001),translate(-106.7973 6.593),translate(106.7975 -6.592499999999999),rotate(0),translate(-106.7975 6.592499999999999)" >kb-polisi-militer</text>
    <line x1="106.79837763932022" y1="-6.59345527864045" x2="106.79957763932022" y2="-6.59285527864045" style="stroke:rgb(255,0,0);stroke-width:.00002" />
    <line x1="106.79957763932022" y1="-6.59285527864045" x2="106.80077763932022" y2="-6.59225527864045" style="stroke:rgb(0,0,255);stroke-width:.00002" />
    <circle cx="106.7984" cy="-6.5935" fill="rgb(255,0,0)" r=".0001" />
    <text x="106.7984" y="-6.5935" stroke="rgb(0,0,0)" transform="translate(106.7984 -6.5935),scale(0.00001 -0.00001),translate(-106.7984 6.5935),translate(106.7975 -6.592499999999999),rotate(0),translate(-106.7975 6.592499999999999)" >kb-jalak-harupat</text>
    <line x1="106.80081856953382" y1="-6.592253576165455" x2="106.80127214569927" y2="-6.5924350066316375" style="stroke:rgb(255,0,0);stroke-width:.00002" />
    <line x1="106.80134642383454" y1="-6.592518569533817" x2="106.8018" y2="-6.5927" style="stroke:rgb(0,0,255);stroke-width:.00002" />
    <circle cx="106.8008" cy="-6.5923" fill="rgb(255,0,0)" r=".0001" />
    <text x="106.8008" y="-6.5923" stroke="rgb(0,0,0)" transform="translate(106.8008 -6.5923),scale(0.00001 -0.00001),translate(-106.8008 6.5923),translate(106.7975 -6.592499999999999),rotate(0),translate(-106.7975 6.592499999999999)" >kb-sempur</text>
    <line x1="106.8018" y1="-6.5927" x2="106.80226912639156" y2="-6.593041182830232" style="stroke:rgb(255,0,0);stroke-width:.00002" />
    <line x1="106.80248969077819" y1="-6.593077943561337" x2="106.80295881716977" y2="-6.593419126391569" style="stroke:rgb(0,0,255);stroke-width:.00002" />
    <circle cx="106.8018" cy="-6.5927" fill="rgb(255,0,0)" r=".0001" />
    <text x="106.8018" y="-6.5927" stroke="rgb(0,0,0)" transform="translate(106.8018 -6.5927),scale(0.00001 -0.00001),translate(-106.8018 6.5927),translate(106.7975 -6.592499999999999),rotate(0),translate(-106.7975 6.592499999999999)" >kb-salak</text>
    <line x1="106.80283925498924" y1="-6.593420564216702" x2="106.80349066553099" y2="-6.592922426743595" style="stroke:rgb(255,0,0);stroke-width:.00002" />
    <line x1="106.80385747194211" y1="-6.592578983798162" x2="106.80450888248386" y2="-6.592080846325054" style="stroke:rgb(0,0,255);stroke-width:.00002" />
    <circle cx="106.8029" cy="-6.5935" fill="rgb(255,0,0)" r=".0001" />
    <text x="106.8029" y="-6.5935" stroke="rgb(0,0,0)" transform="translate(106.8029 -6.5935),scale(0.00001 -0.00001),translate(-106.8029 6.5935),translate(106.7975 -6.592499999999999),rotate(0),translate(-106.7975 6.592499999999999)" >kb-pangrango</text>
    <line x1="106.80445051813626" y1="-6.592187543178022" x2="106.80459636586228" y2="-6.590437370465934" style="stroke:rgb(255,0,0);stroke-width:.00002" />
    <line x1="106.80465449769817" y1="-6.590341868164102" x2="106.80480034542418" y2="-6.588591695452014" style="stroke:rgb(0,0,255);stroke-width:.00002" />
    <circle cx="106.8046" cy="-6.5922" fill="rgb(255,0,0)" r=".0001" />
    <text x="106.8046" y="-6.5922" stroke="rgb(0,0,0)" transform="translate(106.8046 -6.5922),scale(0.00001 -0.00001),translate(-106.8046 6.5922),translate(106.7975 -6.592499999999999),rotate(0),translate(-106.7975 6.592499999999999)" >pangrango-pajajaran</text>
    <line x1="106.80480256088043" y1="-6.588577514049329" x2="106.80570256088043" y2="-6.584677514049329" style="stroke:rgb(255,0,0);stroke-width:.00002" />
    <line x1="106.80570256088043" y1="-6.584677514049329" x2="106.80660256088044" y2="-6.58077751404933" style="stroke:rgb(0,0,255);stroke-width:.00002" />
    <circle cx="106.8049" cy="-6.5886" fill="rgb(255,0,0)" r=".0001" />
    <text x="106.8049" y="-6.5886" stroke="rgb(0,0,0)" transform="translate(106.8049 -6.5886),scale(0.00001 -0.00001),translate(-106.8049 6.5886),translate(106.7975 -6.592499999999999),rotate(0),translate(-106.7975 6.592499999999999)" >salak-pajajaran</text>
    <line x1="106.80660197374308" y1="-6.580780229998605" x2="106.80779208874239" y2="-6.574879243127063" style="stroke:rgb(255,0,0);stroke-width:.00002" />
    <line x1="106.80786087187224" y1="-6.5747911018708445" x2="106.80905098687154" y2="-6.568890114999303" style="stroke:rgb(0,0,255);stroke-width:.00002" />
    <circle cx="106.8067" cy="-6.5808" fill="rgb(255,0,0)" r=".0001" />
    <text x="106.8067" y="-6.5808" stroke="rgb(0,0,0)" transform="translate(106.8067 -6.5808),scale(0.00001 -0.00001),translate(-106.8067 6.5808),translate(106.7975 -6.592499999999999),rotate(0),translate(-106.7975 6.592499999999999)" >pajajaran-sobana</text>
    <line x1="106.80914901312846" y1="-6.568909885000697" x2="106.80795889812916" y2="-6.574810871872239" style="stroke:rgb(255,0,0);stroke-width:.00002" />
    <line x1="106.80798814125623" y1="-6.574918783129853" x2="106.80679802625693" y2="-6.580819770001395" style="stroke:rgb(0,0,255);stroke-width:.00002" />
    <circle cx="106.8091" cy="-6.5689" fill="rgb(255,0,0)" r=".0001" />
    <text x="106.8091" y="-6.5689" stroke="rgb(0,0,0)" transform="translate(106.8091 -6.5689),scale(0.00001 -0.00001),translate(-106.8091 6.5689),translate(106.7975 -6.592499999999999),rotate(0),translate(-106.7975 6.592499999999999)" >pajajaran-jambudua</text>
  </g>
</svg>
