<svg width="2100" height="2970" xmlns="http://www.w3.org/2000/svg" xmlns:xlink="http://www.w3.org/1999/xlink" >
  <g transform="translate(280 20) rotate(30) scale(0.5)">    <path d="M613.8161070868193 1028.0864471186023 L605.251548608507 845.3758662470523 L600.7300805856914 742.8892577307554 L635.6640338081405 689.728894131315 L658.2119885016908 674.6969243356991 L672.9869348330482 655.4894941045962 L684.2302110413385 634.6091240036055 L740.4474800238177 674.1131508561026 L762.6325956740772 665.2391045960014 L790.4398975585565 671.7819991570672 L787.5792709602365 677.503252353787 L778.7927572652649 675.7459496148354 L765.7338998808001 669.9420129995103 L738.1973163647899 681.5363639537286 L723.4418792528459 700.7184321992265 L629.0485605579761 825.07788381306 L609.7594637971611 868.1074073562988 L614.3054521679687 1022.6710119608683 L564.8785851520728 1012.1865250180916 L567.7500000000464 1055.257747743291 L567.7500000000464 1041.015896240055 L564.8368835891233 1046.8421290619144 L558.2352813738396 1053.443731277398 L551.7500000001547 1058.3076923076883 L546.5399175830328 1058.3076923076883 L537.3615242284586 1055.6852942063908 L530.5312067104779 1085.7386912853995 L555.0121400530657 1092.415309469733 L570.0089782631608 1052.4237409094571 Z" stroke="lightgrey" stroke-width="0.5" fill="none" />
  </g>
</svg>
