<svg width="3500" height="3500" xmlns="http://www.w3.org/2000/svg" xmlns:xlink="http://www.w3.org/1999/xlink" >
  <path d="M1170.8288186659388 1172.9872959990976 L1185.5059726140382 1176.8173899576743 L1183.9481944311103 1195.8096956822355 L1183.740610433972 1233.2163319892513 L1168.5219805052327 1233.5342506889372 L1166.926635782559 1263.0481280621545 L1186.1534136718178 1383.2154898712993 L1196.4046457332245 1404.9993580017222 L1373.0107445451977 1298.2142749992058 L1204.1509800536687 1416.416110143444 L1290.0648566739646 1532.9095021709718 L1312.6469480703663 1587.106521522639 L1339.6291125707194 1660.5579693288157 L1341.5751407701036 1664.4500257274378 L1336.7499999999666 1669.2751664973753 L1330.911498746943 1663.4366652443114 L1309.8302115904658 1588.1463539711185 L1287.433490350409 1534.3942229947775 L1224.6482708787453 1448.2470613941216 L1213.438060050862 1453.0514374632069 L1204.039590207202 1446.78579090078 L1192.7678427515787 1448.3960405373034 L1179.112146362229 1427.1538461538573 L1167.858344616377 1427.1538461538573 L1155.9838992559435 1375.2031477019736 L1099.862467562076 1387.1438778495997 L1042.342100926348 1416.8957916267248 L1026.9262285056157 1406.6185433462856 L988.9102309748665 1297.3225504454747 L1005.0874444061009 1254.1833146291829 L1051.078246658932 1228.6328689331153 L1069.474558922323 1236.9948290528446 L1105.4617871673854 1218.5390757110074 L1120.75684307122 1224.783528978222 L1140.9502347436273 1240.1593016136885 L1160.038915612347 1225.5620750669264 L1164.2782887383873 1174.6895975567998 L1203.457057895534 1004.9149312091824 L1230.9851969269657 879.8021211643106 L1197.182546709712 1058.787807809956 Z" stroke="purple" stroke-width="0.5" fill="none" />
</svg>
