<svg width="2100" height="2970" xmlns="http://www.w3.org/2000/svg" xmlns:xlink="http://www.w3.org/1999/xlink" >
  <g transform="translate(280 20) rotate(30) scale(0.5)">    <path d="M731.5394093331236 970.2244172302909 L746.4079863071333 974.1044642096008 L744.948535194851 991.8979742355193 L744.7487402893245 1027.9010161979706 L729.5992829917282 1028.2174898744888 L727.9201811300169 1059.2808743146152 L743.3831945040765 1155.9247079025813 L732.4626017196607 1171.2135378006649 L646.6962567029384 1189.7121612356175 L604.9383924898706 1211.3110565183747 L590.6774652158049 1201.8037716691354 L553.0050445531316 1093.4955622637897 L568.7982113347374 1051.3804508461699 L613.6458144259933 1026.4651157955373 L632.0139076477744 1034.8142490782075 L668.0329604290165 1016.3421747852462 L682.5060840365467 1022.2510609354739 L703.4521903630804 1038.1999700489507 L723.9784928895716 1022.5033857639853 L728.2641443693478 971.0755680084292 L755.5764665959259 852.7221716937638 L821.4697116252552 857.3193748353424 L854.2499999999649 866.3076923076961 L819.6587347924407 859.9842930567313 L822.7381987108657 818.4115301560878 L818.2142107117159 797.2995861599308 L841.97751854947 691.8499076293238 L793.8968397338471 677.7085315070763 L758.2162733556714 854.6246731321128 Z" stroke="red" stroke-width="0.5" fill="none" />
  </g>
</svg>
