<svg width="1049.9999999998977" height="1849.9999999999961" xmlns="http://www.w3.org/2000/svg" xmlns:xlink="http://www.w3.org/1999/xlink" >
  <g transform="translate(524.9999999999488 924.9999999999981) rotate(30) scale(10000 -10000) translate(-106.8125 6.592499999999999)">
    <path d="M106.76 -6.5 L106.865 -6.5 L106.865 -6.685 L106.76 -6.685 Z" fill="none" stroke="black" stroke-width="0.0005" transform="translate(106.8125 -6.592499999999999) rotate(30) translate(-106.8125 6.592499999999999)" />
    <path d="M106.78961944910981 -6.596189095199376 L106.78837331724438 -6.595805670010012 L106.78805038734728 -6.595846036247151 L106.78454765825836 -6.595495763338258 L106.78264381075205 -6.594639031960421 L106.78076864339553 -6.596514199316933 L106.77949055337662 -6.596301184313779 L106.77923190058294 -6.596319659513329 L106.7719688574321 -6.587869261409319 L106.77156528008497 -6.585804421076521 L106.76734875885292 -6.580484537528774 L106.76353187270067 -6.5807215038153375 L106.75318893749588 -6.576398239651294 L106.75108996954268 -6.5735570593187465 L106.755373 -6.571011 L106.75166403045733 -6.573660940681252 L106.75344506250411 -6.5760717603487056 L106.76360012729934 -6.580316496184661 L106.7674086446992 -6.580080049460928 L106.77126295925588 -6.584771859805479 L106.77198263574024 -6.585854494516792 L106.7723411425679 -6.58768873859068 L106.77940409941706 -6.595906340486672 L106.77950944662338 -6.595898815686221 L106.78063135660446 -6.596085800683067 L106.78255618924796 -6.59416096803958 L106.78465234174165 -6.595104236661742 L106.78717347934243 -6.59535635042182 L106.78616468193378 -6.59293523664105 L106.7879282239822 -6.592788274803679 L106.78856666209427 -6.595342027251949 L106.7897537005935 -6.595707269867095 L106.79357539029655 -6.596662692292859 L106.79449275193659 -6.594216394586084 L106.79728648644664 -6.592664319858281 L106.79839213025492 -6.593166885225686 L106.80079976534763 -6.591932149415917 L106.80182939599476 -6.592352512734547 L106.80201083498969 -6.591919668073414 L106.80196992956778 -6.591210006567491 L106.80154091314655 -6.589921945472687 L106.80171093559736 -6.589244049507602 L106.80234008528745 -6.588719758099189 L106.80296565799485 -6.588302709627585 L106.80411371012943 -6.588198341251715 L106.80500593612159 -6.588532925998775 L106.80469977558056 -6.592206852491052 L106.80455157774006 -6.594948512540229 L106.8056033926442 -6.601522355691073 L106.80684322701032 -6.604157003719096 L106.81360579432327 -6.600068009529867 L106.80724725575236 -6.604518986529506 L106.80997999497603 -6.6077397149002595 L106.81150180991425 -6.610022437307568 L106.80867187735439 -6.606720849321065 L106.8079896020017 -6.607013253043643 L106.80737631967358 -6.606604398158231 L106.8066505947584 -6.606708073146115 L106.80574540487875 -6.6053 L106.80502027815388 -6.6053 L106.80422446330853 -6.601818310051605 L106.8004117832393 -6.602629518576968 L106.79384268445895 -6.605914067967153 L106.79730107418312 -6.604030320714544 L106.79669128689319 -6.604314376304636 L106.79587874502313 -6.603772681724602 L106.7935858831005 -6.597180703697047 Z" stroke="blue" stroke-width="0.0001" fill="none" />
  </g>
</svg>
