<svg width="1500" height="1500" xmlns="http://www.w3.org/2000/svg" xmlns:xlink="http://www.w3.org/1999/xlink" >
  <path d="M313.0417366471505 519.7595049137258 L294.34975866571733 514.0081270732798 L289.5058102092918 514.6136206303463 L236.96487387546483 509.3595269969529 L208.40716128077474 496.5085563293823 L180.27965093303067 524.6360666770731 L161.10830064931747 521.4408416297787 L157.2285087441827 521.7179696229988 L48.28286148153893 394.9619980628081 L42.855681373339394 367.19468044594566 L-22.842870192505416 284.3043961685352 L-78.271909489942 287.74563415314464 L-233.41593756157408 222.8966716925272 L-264.89975400423316 180.27991809528498 L-201.71793449996755 142.74807692308696 L-256.29024599552974 181.83623575088717 L-229.57406243847345 217.99948215362554 L-77.24809051005366 281.6705196930134 L-20.087129807393524 278.1217576776316 L48.46431862674194 364.6114734002224 L53.867138518484126 392.2541557833646 L159.8114912560078 515.5181842231491 L161.39169935073028 515.4053122163814 L178.22034906693318 518.2100871690996 L207.092838719376 489.33759751678997 L238.53512612454608 503.48662684920976 L276.35219013646406 507.2683332503856 L261.22022900679553 470.95162653882676 L287.6733597331338 468.7471989782675 L297.24993141407197 507.05348570231325 L315.05550890265965 512.5321249295454 L372.3808544483376 526.8634613159516 L386.14127904907036 490.16899571427723 L428.04729669960295 466.8878747973014 L444.6319538239152 474.42635530839476 L480.7464802147621 455.905318161862 L496.1909399214193 462.21076794130437 L498.91252484535187 455.71809802438895 L498.2989435166729 445.07317543527085 L491.86369719834033 425.75225901326985 L494.41403396038197 415.5838195371307 L503.8512793118599 407.71944841086355 L513.2348699227407 401.4637213368409 L530.455651941466 399.8981956987955 L543.8390418238725 404.91696690472463 L539.2466337082169 460.02586429152655 L537.0236661008931 501.15076502662987 L552.8008896628478 599.7584122890996 L571.3984051548238 639.2781327095086 L672.8369148483893 577.943219871526 L577.4588362856292 644.7078748657085 L618.4499246405295 693.0188004270408 L641.2771487141811 727.2596365370651 L598.8281603158185 677.7358167390732 L588.5940300255044 682.1218725777431 L579.3947951037381 675.9890492965302 L568.5089213759653 677.5441741148101 L554.9310731812795 656.4230769230782 L544.0541723081793 656.4230769230782 L532.1169496279765 604.1977276971243 L474.92674858951034 616.3658555776473 L376.3902668838881 665.6340964306848 L428.266112746698 637.377887641357 L419.1193033979346 641.6387214926476 L404.8635874044493 632.1349108304529 L370.79884712746036 534.19878253375 Z" stroke="blue" stroke-width="0.5" fill="none" />
</svg>
