<svg width="3500" height="3500" xmlns="http://www.w3.org/2000/svg" xmlns:xlink="http://www.w3.org/1999/xlink" >
  <path d="M938.0417366471505 1288.990274144495 L919.3497586657173 1283.238896304049 L914.5058102092918 1283.8443898611156 L861.9648738754648 1278.590296227722 L833.4071612807747 1265.7393255601517 L805.2796509330307 1293.8668359078424 L786.1083006493175 1290.671610860548 L782.2285087441827 1290.9487388537682 L673.2828614815389 1164.1927672935774 L667.2292012746084 1133.2201623017827 L603.981382793819 1053.4219090854572 L546.728090510058 1056.976403383914 L391.5840624384259 992.1274409232965 L360.0995431401799 949.509735935035 L424.3450000001304 911.3188461538572 L368.71045686005743 951.0679563726758 L395.42593756152655 987.2302513843948 L547.7519094899463 1050.9012889237827 L604.8796704880743 1047.3545880677907 L662.694388838645 1117.7317432367054 L673.4895361037019 1133.9712639058157 L678.8671385184841 1161.4849250141338 L784.8114912560078 1284.7489534539184 L786.3916993507303 1284.6360814471507 L803.2203490669332 1287.4408563998688 L832.092838719376 1258.5683667475594 L863.5351261245461 1272.7173960799792 L901.3521901364641 1276.499102481155 L886.2202290067955 1240.182395769596 L912.6733597331338 1237.9779682090368 L922.249931414072 1276.2842549330826 L940.0555089026597 1281.7628941603148 L997.3808544483376 1296.0942305467208 L1011.1412790490704 1259.3997649450464 L1053.047296699603 1236.1186440280705 L1069.6319538239152 1243.657124539164 L1105.746480214762 1225.1360873926312 L1121.1909399214192 1231.4415371720736 L1123.912524845352 1224.9488672551581 L1123.2989435166728 1214.30394466604 L1116.8636971983403 1194.9830282440391 L1119.4140339603819 1184.8145887679 L1128.8512793118598 1176.950217641633 L1138.2348699227407 1170.69449056761 L1155.455651941466 1169.1289649295647 L1168.8390418238725 1174.147736135494 L1164.246633708217 1229.2566335222957 L1162.023666100893 1270.3815342573992 L1177.8008896628478 1368.989181519869 L1196.3984051548236 1408.5089019402778 L1297.8369148483894 1347.1739891022953 L1202.4588362856293 1413.9386440964777 L1243.4499246405294 1462.24956965781 L1266.277148714181 1496.4904057678345 L1223.8281603158184 1446.9665859698425 L1213.5940300255043 1451.3526418085125 L1204.394795103738 1445.2198185272994 L1193.5089213759652 1446.7749433455795 L1179.9310731812795 1425.6538461538473 L1169.0541723081792 1425.6538461538473 L1157.1169496279765 1373.4284969278935 L1099.9267485895102 1385.5966248084164 L1001.3902668838881 1434.8648656614541 L1053.2661127466981 1406.6086568721262 L1044.1193033979346 1410.869490723417 L1031.9311753470117 1402.7440720228594 L997.5382465076166 1303.8644016095716 Z" stroke="blue" stroke-width="0.5" fill="none" />
</svg>
