<svg width="2500" height="1500" xmlns="http://www.w3.org/2000/svg" xmlns:xlink="http://www.w3.org/1999/xlink" >
  <path d="M858.3288186659388 403.7565267683283 L873.0059726140382 407.58662072690504 L871.4481944311103 426.57892645146615 L871.240610433972 463.98556275848193 L856.0219805052327 464.30348145816794 L854.4266357825592 493.81735883138526 L873.6534136718177 613.98472064053 L883.9046457332245 635.7685887709528 L1060.5107445451977 528.9835057684364 L891.6509800536687 647.1853409126747 L977.5648566739648 763.6787329402026 L1000.1469480703662 817.8757522918698 L1027.1291125707194 891.3272000980464 L1029.0751407701036 895.2192564966685 L1024.2499999999666 900.044397266606 L1018.4114987469428 894.2058960135422 L997.3302115904659 818.9155847403493 L974.9334903504092 765.1634537640082 L912.1482708787454 679.0162921633523 L900.9380600508621 683.8206682324376 L891.5395902072021 677.5550216700108 L880.2678427515787 679.1652713065341 L866.6121463622289 657.9230769230879 L855.358344616377 657.9230769230879 L843.4838992559435 605.9723784712044 L787.3624675620761 617.9131086188304 L729.8421009263478 647.6650223959555 L712.3586405628402 636.0093821536925 L675.5863049526312 530.2889172741818 L692.5874444061009 484.95254539841363 L738.5782466589319 459.40209970234605 L756.9745589223231 467.7640598220754 L792.9617871673855 449.3083064802381 L808.25684307122 455.55275974745274 L828.4502347436273 470.9285323829191 L847.538915612347 456.3313058361571 L851.7782887383873 405.4588283260306 L890.9570578955339 235.68416197841316 L918.4851969269658 110.5713519335414 L884.6825467097119 289.5570385791866 Z" stroke="purple" stroke-width="0.5" fill="none" />
</svg>
