<svg width="1049.9999999998977" height="1849.9999999999961" xmlns="http://www.w3.org/2000/svg" xmlns:xlink="http://www.w3.org/1999/xlink" >
  <g transform="translate(524.9999999999488 924.9999999999981) rotate(30) scale(10000 -10000) translate(-106.8125 6.592499999999999)">
    <path d="M106.76 -6.5 L106.865 -6.5 L106.865 -6.685 L106.76 -6.685 Z" fill="none" stroke="black" stroke-width="0.001" transform="translate(106.8125 -6.592499999999999) rotate(30) translate(-106.8125 6.592499999999999)" />
    <path d="M106.85383191898377 -6.590317692288351 L106.85212464650297 -6.587553896571949 L106.85272972545864 -6.586888732852831 L106.84844540250705 -6.585556570419131 L106.84371836044322 -6.587046328647835 L106.84134893950548 -6.58896568070218 L106.83654380043843 -6.589192836353701 L106.83567008053654 -6.590163300327772 L106.81872633129672 -6.589540280695274 L106.81870193723708 -6.590420343308163 L106.81672923196574 -6.591021896643992 L106.81704560632528 -6.5927705472574765 L106.81684895278599 -6.590931570917152 L106.81613206557222 -6.5910498807351106 L106.81569569886368 -6.5916561083100715 L106.81446526007363 -6.592069145472193 L106.8085438390576 -6.591862074246309 L106.80815112064305 -6.591459438700077 L106.80574873063017 -6.5914719261331705 L106.80590503972627 -6.5914495962623025 L106.80589991601929 -6.592372888259352 L106.80499021139707 -6.592391892079798 L106.80490401610044 -6.59398650506733 L106.80599684635196 -6.6008166941392945 L106.80505335358822 -6.602137584008536 L106.79831125547572 -6.603591762032799 L106.79648413008219 -6.60453682689152 L106.79521498009254 -6.6036907268984235 L106.79295221776576 -6.597185285208931 L106.7942240682827 -6.593793683830409 L106.79726396385769 -6.592104852955414 L106.79837901401312 -6.592611693935161 L106.80077604092703 -6.591382398442449 L106.80149460879568 -6.5916757653646325 L106.80322917050427 -6.592996505678396 L106.80452438231292 -6.592006049589422 L106.8055073587561 -6.591916688094588 L106.80563408420122 -6.591267897177344 L106.80573348021494 -6.591172001350891 L106.80831887935695 -6.591058561299923 L106.80871816094242 -6.59146792575369 L106.81440673992637 -6.591666854527807 L106.81544630113633 -6.591317891689923 L106.81590393442778 -6.59068211926489 L106.81641104721402 -6.590598429082848 L106.81547439367472 -6.5818394527425275 L106.81704276803426 -6.59050810335601 L106.81831006276292 -6.590121656691839 L106.81833766870328 -6.589125719304726 L106.83549791946345 -6.589756699672227 L106.83635819956156 -6.588801163646299 L106.84119906049453 -6.58857231929782 L106.84352563955676 -6.586687671352168 L106.84844459749294 -6.585137429580868 L106.85344827454134 -6.586693267147169 L106.85262335349704 -6.587600103428044 L106.85408008101622 -6.589958307711647 L106.85996144138848 -6.591096887521386 L106.865159 -6.589352 L106.85999655861151 -6.5915111124786145 Z" stroke="pink" stroke-width="0.0002" fill="none" />
    <circle 
      cx="106.80590503972627" cy="-12.591449596262303"
      r="15" transform="translate(106.80590503972627 -6.5914495962623025) scale(0.00001 -0.00001) translate(-106.80590503972627 6.5914495962623025) translate(106.8125 -6.592499999999999) rotate(-30) translate(-106.8125 6.592499999999999)"
      fill="white" stroke="black" stroke-width="2"/>
    <circle 
      cx="106.80499021139707" cy="-12.592391892079798"
      r="15" transform="translate(106.80499021139707 -6.592391892079798) scale(0.00001 -0.00001) translate(-106.80499021139707 6.592391892079798) translate(106.8125 -6.592499999999999) rotate(-30) translate(-106.8125 6.592499999999999)"
      fill="white" stroke="black" stroke-width="2"/>
    <circle 
      cx="106.80490401610044" cy="-12.593986505067331"
      r="15" transform="translate(106.80490401610044 -6.59398650506733) scale(0.00001 -0.00001) translate(-106.80490401610044 6.59398650506733) translate(106.8125 -6.592499999999999) rotate(-30) translate(-106.8125 6.592499999999999)"
      fill="white" stroke="black" stroke-width="2"/>
    <circle 
      cx="106.80599684635196" cy="-12.600816694139294"
      r="15" transform="translate(106.80599684635196 -6.6008166941392945) scale(0.00001 -0.00001) translate(-106.80599684635196 6.6008166941392945) translate(106.8125 -6.592499999999999) rotate(-30) translate(-106.8125 6.592499999999999)"
      fill="white" stroke="black" stroke-width="2"/>
    <circle 
      cx="106.80505335358822" cy="-12.602137584008535"
      r="15" transform="translate(106.80505335358822 -6.602137584008536) scale(0.00001 -0.00001) translate(-106.80505335358822 6.602137584008536) translate(106.8125 -6.592499999999999) rotate(-30) translate(-106.8125 6.592499999999999)"
      fill="white" stroke="black" stroke-width="2"/>
    <circle 
      cx="106.79831125547572" cy="-12.6035917620328"
      r="15" transform="translate(106.79831125547572 -6.603591762032799) scale(0.00001 -0.00001) translate(-106.79831125547572 6.603591762032799) translate(106.8125 -6.592499999999999) rotate(-30) translate(-106.8125 6.592499999999999)"
      fill="white" stroke="black" stroke-width="2"/>
    <circle 
      cx="106.79648413008219" cy="-12.60453682689152"
      r="15" transform="translate(106.79648413008219 -6.60453682689152) scale(0.00001 -0.00001) translate(-106.79648413008219 6.60453682689152) translate(106.8125 -6.592499999999999) rotate(-30) translate(-106.8125 6.592499999999999)"
      fill="white" stroke="black" stroke-width="2"/>
    <circle 
      cx="106.79521498009254" cy="-12.603690726898424"
      r="15" transform="translate(106.79521498009254 -6.6036907268984235) scale(0.00001 -0.00001) translate(-106.79521498009254 6.6036907268984235) translate(106.8125 -6.592499999999999) rotate(-30) translate(-106.8125 6.592499999999999)"
      fill="white" stroke="black" stroke-width="2"/>
    <circle 
      cx="106.79295221776576" cy="-12.59718528520893"
      r="15" transform="translate(106.79295221776576 -6.597185285208931) scale(0.00001 -0.00001) translate(-106.79295221776576 6.597185285208931) translate(106.8125 -6.592499999999999) rotate(-30) translate(-106.8125 6.592499999999999)"
      fill="white" stroke="black" stroke-width="2"/>
    <circle 
      cx="106.7942240682827" cy="-12.593793683830409"
      r="15" transform="translate(106.7942240682827 -6.593793683830409) scale(0.00001 -0.00001) translate(-106.7942240682827 6.593793683830409) translate(106.8125 -6.592499999999999) rotate(-30) translate(-106.8125 6.592499999999999)"
      fill="white" stroke="black" stroke-width="2"/>
    <circle 
      cx="106.79726396385769" cy="-12.592104852955414"
      r="15" transform="translate(106.79726396385769 -6.592104852955414) scale(0.00001 -0.00001) translate(-106.79726396385769 6.592104852955414) translate(106.8125 -6.592499999999999) rotate(-30) translate(-106.8125 6.592499999999999)"
      fill="white" stroke="black" stroke-width="2"/>
    <circle 
      cx="106.80149460879568" cy="-12.591675765364633"
      r="15" transform="translate(106.80149460879568 -6.5916757653646325) scale(0.00001 -0.00001) translate(-106.80149460879568 6.5916757653646325) translate(106.8125 -6.592499999999999) rotate(-30) translate(-106.8125 6.592499999999999)"
      fill="white" stroke="black" stroke-width="2"/>
    <circle 
      cx="106.80322917050427" cy="-12.592996505678396"
      r="15" transform="translate(106.80322917050427 -6.592996505678396) scale(0.00001 -0.00001) translate(-106.80322917050427 6.592996505678396) translate(106.8125 -6.592499999999999) rotate(-30) translate(-106.8125 6.592499999999999)"
      fill="white" stroke="black" stroke-width="2"/>
    <circle 
      cx="106.80452438231292" cy="-12.592006049589422"
      r="15" transform="translate(106.80452438231292 -6.592006049589422) scale(0.00001 -0.00001) translate(-106.80452438231292 6.592006049589422) translate(106.8125 -6.592499999999999) rotate(-30) translate(-106.8125 6.592499999999999)"
      fill="white" stroke="black" stroke-width="2"/>
    <circle 
      cx="106.80590503972627" cy="-12.591449596262303"
      r="15" transform="translate(106.80590503972627 -6.5914495962623025) scale(0.00001 -0.00001) translate(-106.80590503972627 6.5914495962623025) translate(106.8125 -6.592499999999999) rotate(-30) translate(-106.8125 6.592499999999999)"
      fill="white" stroke="none"/>
    <circle 
      cx="106.80499021139707" cy="-12.592391892079798"
      r="15" transform="translate(106.80499021139707 -6.592391892079798) scale(0.00001 -0.00001) translate(-106.80499021139707 6.592391892079798) translate(106.8125 -6.592499999999999) rotate(-30) translate(-106.8125 6.592499999999999)"
      fill="white" stroke="none"/>
    <circle 
      cx="106.80490401610044" cy="-12.593986505067331"
      r="15" transform="translate(106.80490401610044 -6.59398650506733) scale(0.00001 -0.00001) translate(-106.80490401610044 6.59398650506733) translate(106.8125 -6.592499999999999) rotate(-30) translate(-106.8125 6.592499999999999)"
      fill="white" stroke="none"/>
    <circle 
      cx="106.80599684635196" cy="-12.600816694139294"
      r="15" transform="translate(106.80599684635196 -6.6008166941392945) scale(0.00001 -0.00001) translate(-106.80599684635196 6.6008166941392945) translate(106.8125 -6.592499999999999) rotate(-30) translate(-106.8125 6.592499999999999)"
      fill="white" stroke="none"/>
    <circle 
      cx="106.80505335358822" cy="-12.602137584008535"
      r="15" transform="translate(106.80505335358822 -6.602137584008536) scale(0.00001 -0.00001) translate(-106.80505335358822 6.602137584008536) translate(106.8125 -6.592499999999999) rotate(-30) translate(-106.8125 6.592499999999999)"
      fill="white" stroke="none"/>
    <circle 
      cx="106.79831125547572" cy="-12.6035917620328"
      r="15" transform="translate(106.79831125547572 -6.603591762032799) scale(0.00001 -0.00001) translate(-106.79831125547572 6.603591762032799) translate(106.8125 -6.592499999999999) rotate(-30) translate(-106.8125 6.592499999999999)"
      fill="white" stroke="none"/>
    <circle 
      cx="106.79648413008219" cy="-12.60453682689152"
      r="15" transform="translate(106.79648413008219 -6.60453682689152) scale(0.00001 -0.00001) translate(-106.79648413008219 6.60453682689152) translate(106.8125 -6.592499999999999) rotate(-30) translate(-106.8125 6.592499999999999)"
      fill="white" stroke="none"/>
    <circle 
      cx="106.79521498009254" cy="-12.603690726898424"
      r="15" transform="translate(106.79521498009254 -6.6036907268984235) scale(0.00001 -0.00001) translate(-106.79521498009254 6.6036907268984235) translate(106.8125 -6.592499999999999) rotate(-30) translate(-106.8125 6.592499999999999)"
      fill="white" stroke="none"/>
    <circle 
      cx="106.79295221776576" cy="-12.59718528520893"
      r="15" transform="translate(106.79295221776576 -6.597185285208931) scale(0.00001 -0.00001) translate(-106.79295221776576 6.597185285208931) translate(106.8125 -6.592499999999999) rotate(-30) translate(-106.8125 6.592499999999999)"
      fill="white" stroke="none"/>
    <circle 
      cx="106.7942240682827" cy="-12.593793683830409"
      r="15" transform="translate(106.7942240682827 -6.593793683830409) scale(0.00001 -0.00001) translate(-106.7942240682827 6.593793683830409) translate(106.8125 -6.592499999999999) rotate(-30) translate(-106.8125 6.592499999999999)"
      fill="white" stroke="none"/>
    <circle 
      cx="106.79726396385769" cy="-12.592104852955414"
      r="15" transform="translate(106.79726396385769 -6.592104852955414) scale(0.00001 -0.00001) translate(-106.79726396385769 6.592104852955414) translate(106.8125 -6.592499999999999) rotate(-30) translate(-106.8125 6.592499999999999)"
      fill="white" stroke="none"/>
    <circle 
      cx="106.80149460879568" cy="-12.591675765364633"
      r="15" transform="translate(106.80149460879568 -6.5916757653646325) scale(0.00001 -0.00001) translate(-106.80149460879568 6.5916757653646325) translate(106.8125 -6.592499999999999) rotate(-30) translate(-106.8125 6.592499999999999)"
      fill="white" stroke="none"/>
    <circle 
      cx="106.80322917050427" cy="-12.592996505678396"
      r="15" transform="translate(106.80322917050427 -6.592996505678396) scale(0.00001 -0.00001) translate(-106.80322917050427 6.592996505678396) translate(106.8125 -6.592499999999999) rotate(-30) translate(-106.8125 6.592499999999999)"
      fill="white" stroke="none"/>
    <circle 
      cx="106.80452438231292" cy="-12.592006049589422"
      r="15" transform="translate(106.80452438231292 -6.592006049589422) scale(0.00001 -0.00001) translate(-106.80452438231292 6.592006049589422) translate(106.8125 -6.592499999999999) rotate(-30) translate(-106.8125 6.592499999999999)"
      fill="white" stroke="none"/>
    <text x="106.80590503972627" y="-6.5914495962623025" fill="black" text-anchor="middle" transform="translate(106.80590503972627 -6.5914495962623025) scale(0.00001 -0.00001) translate(-106.80590503972627 6.5914495962623025) translate(106.8125 -6.592499999999999) rotate(-30) translate(-106.8125 6.592499999999999)">05</text>
    <text x="106.80499021139707" y="-6.592391892079798" fill="black" text-anchor="middle" transform="translate(106.80499021139707 -6.592391892079798) scale(0.00001 -0.00001) translate(-106.80499021139707 6.592391892079798) translate(106.8125 -6.592499999999999) rotate(-30) translate(-106.8125 6.592499999999999)">05</text>
    <text x="106.80490401610044" y="-6.59398650506733" fill="black" text-anchor="middle" transform="translate(106.80490401610044 -6.59398650506733) scale(0.00001 -0.00001) translate(-106.80490401610044 6.59398650506733) translate(106.8125 -6.592499999999999) rotate(-30) translate(-106.8125 6.592499999999999)">05</text>
    <text x="106.80599684635196" y="-6.6008166941392945" fill="black" text-anchor="middle" transform="translate(106.80599684635196 -6.6008166941392945) scale(0.00001 -0.00001) translate(-106.80599684635196 6.6008166941392945) translate(106.8125 -6.592499999999999) rotate(-30) translate(-106.8125 6.592499999999999)">05</text>
    <text x="106.80505335358822" y="-6.602137584008536" fill="black" text-anchor="middle" transform="translate(106.80505335358822 -6.602137584008536) scale(0.00001 -0.00001) translate(-106.80505335358822 6.602137584008536) translate(106.8125 -6.592499999999999) rotate(-30) translate(-106.8125 6.592499999999999)">05</text>
    <text x="106.79831125547572" y="-6.603591762032799" fill="black" text-anchor="middle" transform="translate(106.79831125547572 -6.603591762032799) scale(0.00001 -0.00001) translate(-106.79831125547572 6.603591762032799) translate(106.8125 -6.592499999999999) rotate(-30) translate(-106.8125 6.592499999999999)">05</text>
    <text x="106.79648413008219" y="-6.60453682689152" fill="black" text-anchor="middle" transform="translate(106.79648413008219 -6.60453682689152) scale(0.00001 -0.00001) translate(-106.79648413008219 6.60453682689152) translate(106.8125 -6.592499999999999) rotate(-30) translate(-106.8125 6.592499999999999)">05</text>
    <text x="106.79521498009254" y="-6.6036907268984235" fill="black" text-anchor="middle" transform="translate(106.79521498009254 -6.6036907268984235) scale(0.00001 -0.00001) translate(-106.79521498009254 6.6036907268984235) translate(106.8125 -6.592499999999999) rotate(-30) translate(-106.8125 6.592499999999999)">05</text>
    <text x="106.79295221776576" y="-6.597185285208931" fill="black" text-anchor="middle" transform="translate(106.79295221776576 -6.597185285208931) scale(0.00001 -0.00001) translate(-106.79295221776576 6.597185285208931) translate(106.8125 -6.592499999999999) rotate(-30) translate(-106.8125 6.592499999999999)">05</text>
    <text x="106.7942240682827" y="-6.593793683830409" fill="black" text-anchor="middle" transform="translate(106.7942240682827 -6.593793683830409) scale(0.00001 -0.00001) translate(-106.7942240682827 6.593793683830409) translate(106.8125 -6.592499999999999) rotate(-30) translate(-106.8125 6.592499999999999)">05</text>
    <text x="106.79726396385769" y="-6.592104852955414" fill="black" text-anchor="middle" transform="translate(106.79726396385769 -6.592104852955414) scale(0.00001 -0.00001) translate(-106.79726396385769 6.592104852955414) translate(106.8125 -6.592499999999999) rotate(-30) translate(-106.8125 6.592499999999999)">05</text>
    <text x="106.80149460879568" y="-6.5916757653646325" fill="black" text-anchor="middle" transform="translate(106.80149460879568 -6.5916757653646325) scale(0.00001 -0.00001) translate(-106.80149460879568 6.5916757653646325) translate(106.8125 -6.592499999999999) rotate(-30) translate(-106.8125 6.592499999999999)">05</text>
    <text x="106.80322917050427" y="-6.592996505678396" fill="black" text-anchor="middle" transform="translate(106.80322917050427 -6.592996505678396) scale(0.00001 -0.00001) translate(-106.80322917050427 6.592996505678396) translate(106.8125 -6.592499999999999) rotate(-30) translate(-106.8125 6.592499999999999)">05</text>
    <text x="106.80452438231292" y="-6.592006049589422" fill="black" text-anchor="middle" transform="translate(106.80452438231292 -6.592006049589422) scale(0.00001 -0.00001) translate(-106.80452438231292 6.592006049589422) translate(106.8125 -6.592499999999999) rotate(-30) translate(-106.8125 6.592499999999999)">05</text>
    <line x1="106.859979" y1="-6.591304" x2="106.853956" y2="-6.590138" style="stroke:rgb(255,0,0);stroke-width:.00002" />
    <line x1="106.8599409875094" y1="-6.591500354400405" x2="106.8539179875094" y2="-6.5903343544004045" style="stroke:rgb(0,0,0);stroke-width:.00002" />
    <circle cx="106.859979" cy="-6.591304" fill="rgb(255,0,0)" r=".0001" />
    <text x="106.859979" y="-6.591304" stroke="rgb(0,0,0)" transform="translate(106.859979 -6.591304),scale(0.00001 -0.00001),translate(-106.859979 6.591304),translate(106.8125 -6.592499999999999),rotate(-30),translate(-106.8125 6.592499999999999)" >line-05-21</text>
    <line x1="106.853956" y1="-6.590138" x2="106.852374" y2="-6.587577" style="stroke:rgb(255,0,0);stroke-width:.00002" />
    <line x1="106.85378584651647" y1="-6.590243108477519" x2="106.85220384651647" y2="-6.587682108477519" style="stroke:rgb(0,0,0);stroke-width:.00002" />
    <circle cx="106.853956" cy="-6.590138" fill="rgb(255,0,0)" r=".0001" />
    <text x="106.853956" y="-6.590138" stroke="rgb(0,0,0)" transform="translate(106.853956 -6.590138),scale(0.00001 -0.00001),translate(-106.853956 6.590138),translate(106.8125 -6.592499999999999),rotate(-30),translate(-106.8125 6.592499999999999)" >line-05-20</text>
    <line x1="106.852374" y1="-6.587577" x2="106.853089" y2="-6.586791" style="stroke:rgb(255,0,0);stroke-width:.00002" />
    <line x1="106.85222605457774" y1="-6.587442418604433" x2="106.85294105457774" y2="-6.586656418604433" style="stroke:rgb(0,0,0);stroke-width:.00002" />
    <circle cx="106.852374" cy="-6.587577" fill="rgb(255,0,0)" r=".0001" />
    <text x="106.852374" y="-6.587577" stroke="rgb(0,0,0)" transform="translate(106.852374 -6.587577),scale(0.00001 -0.00001),translate(-106.852374 6.587577),translate(106.8125 -6.592499999999999),rotate(-30),translate(-106.8125 6.592499999999999)" >line-05-19</text>
    <line x1="106.853089" y1="-6.586791" x2="106.848445" y2="-6.585347" style="stroke:rgb(255,0,0);stroke-width:.00002" />
    <line x1="106.85302961668623" y1="-6.586981980685007" x2="106.84838561668623" y2="-6.5855379806850065" style="stroke:rgb(0,0,0);stroke-width:.00002" />
    <circle cx="106.853089" cy="-6.586791" fill="rgb(255,0,0)" r=".0001" />
    <text x="106.853089" y="-6.586791" stroke="rgb(0,0,0)" transform="translate(106.853089 -6.586791),scale(0.00001 -0.00001),translate(-106.853089 6.586791),translate(106.8125 -6.592499999999999),rotate(-30),translate(-106.8125 6.592499999999999)" >line-05-18</text>
    <line x1="106.848445" y1="-6.585347" x2="106.843622" y2="-6.586867" style="stroke:rgb(255,0,0);stroke-width:.00002" />
    <line x1="106.8485051164791" y1="-6.585537751170218" x2="106.8436821164791" y2="-6.587057751170218" style="stroke:rgb(0,0,0);stroke-width:.00002" />
    <circle cx="106.848445" cy="-6.585347" fill="rgb(255,0,0)" r=".0001" />
    <text x="106.848445" y="-6.585347" stroke="rgb(0,0,0)" transform="translate(106.848445 -6.585347),scale(0.00001 -0.00001),translate(-106.848445 6.585347),translate(106.8125 -6.592499999999999),rotate(-30),translate(-106.8125 6.592499999999999)" >line-05-17</text>
    <line x1="106.843622" y1="-6.586867" x2="106.841274" y2="-6.588769" style="stroke:rgb(255,0,0);stroke-width:.00002" />
    <line x1="106.84374788914418" y1="-6.587022408890922" x2="106.84139988914418" y2="-6.5889244088909225" style="stroke:rgb(0,0,0);stroke-width:.00002" />
    <circle cx="106.843622" cy="-6.586867" fill="rgb(255,0,0)" r=".0001" />
    <text x="106.843622" y="-6.586867" stroke="rgb(0,0,0)" transform="translate(106.843622 -6.586867),scale(0.00001 -0.00001),translate(-106.843622 6.586867),translate(106.8125 -6.592499999999999),rotate(-30),translate(-106.8125 6.592499999999999)" >line-05-16</text>
    <line x1="106.841274" y1="-6.588769" x2="106.836451" y2="-6.588997" style="stroke:rgb(255,0,0);stroke-width:.00002" />
    <line x1="106.84128344414933" y1="-6.58896877689567" x2="106.83646044414932" y2="-6.58919677689567" style="stroke:rgb(0,0,0);stroke-width:.00002" />
    <circle cx="106.841274" cy="-6.588769" fill="rgb(255,0,0)" r=".0001" />
    <text x="106.841274" y="-6.588769" stroke="rgb(0,0,0)" transform="translate(106.841274 -6.588769),scale(0.00001 -0.00001),translate(-106.841274 6.588769),translate(106.8125 -6.592499999999999),rotate(-30),translate(-106.8125 6.592499999999999)" >line-05-15</text>
    <line x1="106.836451" y1="-6.588997" x2="106.835584" y2="-6.58996" style="stroke:rgb(255,0,0);stroke-width:.00002" />
    <line x1="106.83659963580297" y1="-6.589130818526657" x2="106.83573263580297" y2="-6.590093818526657" style="stroke:rgb(0,0,0);stroke-width:.00002" />
    <circle cx="106.836451" cy="-6.588997" fill="rgb(255,0,0)" r=".0001" />
    <text x="106.836451" y="-6.588997" stroke="rgb(0,0,0)" transform="translate(106.836451 -6.588997),scale(0.00001 -0.00001),translate(-106.836451 6.588997),translate(106.8125 -6.592499999999999),rotate(-30),translate(-106.8125 6.592499999999999)" >line-05-14</text>
    <line x1="106.835584" y1="-6.58996" x2="106.818532" y2="-6.589333" style="stroke:rgb(255,0,0);stroke-width:.00002" />
    <line x1="106.83557665099026" y1="-6.590159864934533" x2="106.81852465099027" y2="-6.589532864934533" style="stroke:rgb(0,0,0);stroke-width:.00002" />
    <circle cx="106.835584" cy="-6.58996" fill="rgb(255,0,0)" r=".0001" />
    <text x="106.835584" y="-6.58996" stroke="rgb(0,0,0)" transform="translate(106.835584 -6.58996),scale(0.00001 -0.00001),translate(-106.835584 6.58996),translate(106.8125 -6.592499999999999),rotate(-30),translate(-106.8125 6.592499999999999)" >line-05-13</text>
    <line x1="106.818532" y1="-6.589333" x2="106.818506" y2="-6.590271" style="stroke:rgb(255,0,0);stroke-width:.00002" />
    <line x1="106.81873192321245" y1="-6.589338541581583" x2="106.81870592321245" y2="-6.590276541581583" style="stroke:rgb(0,0,0);stroke-width:.00002" />
    <circle cx="106.818532" cy="-6.589333" fill="rgb(255,0,0)" r=".0001" />
    <text x="106.818532" y="-6.589333" stroke="rgb(0,0,0)" transform="translate(106.818532 -6.589333),scale(0.00001 -0.00001),translate(-106.818532 6.589333),translate(106.8125 -6.592499999999999),rotate(-30),translate(-106.8125 6.592499999999999)" >line-05-12</text>
    <line x1="106.818506" y1="-6.590271" x2="106.816886" y2="-6.590765" style="stroke:rgb(255,0,0);stroke-width:.00002" />
    <line x1="106.81856433569313" y1="-6.590462303285147" x2="106.81694433569312" y2="-6.590956303285147" style="stroke:rgb(0,0,0);stroke-width:.00002" />
    <circle cx="106.818506" cy="-6.590271" fill="rgb(255,0,0)" r=".0001" />
    <text x="106.818506" y="-6.590271" stroke="rgb(0,0,0)" transform="translate(106.818506 -6.590271),scale(0.00001 -0.00001),translate(-106.818506 6.590271),translate(106.8125 -6.592499999999999),rotate(-30),translate(-106.8125 6.592499999999999)" >line-05-11</text>
    <line x1="106.816886" y1="-6.590765" x2="106.81626" y2="-6.587305" style="stroke:rgb(255,0,0);stroke-width:.00002" />
    <line x1="106.81668919514884" y1="-6.590800606889255" x2="106.81606319514884" y2="-6.587340606889255" style="stroke:rgb(0,0,0);stroke-width:.00002" />
    <circle cx="106.816886" cy="-6.590765" fill="rgb(255,0,0)" r=".0001" />
    <text x="106.816886" y="-6.590765" stroke="rgb(0,0,0)" transform="translate(106.816886 -6.590765),scale(0.00001 -0.00001),translate(-106.816886 6.590765),translate(106.8125 -6.592499999999999),rotate(-30),translate(-106.8125 6.592499999999999)" >line-05-10</text>
    <line x1="106.81626" y1="-6.587305" x2="106.81663" y2="-6.590765" style="stroke:rgb(255,0,0);stroke-width:.00002" />
    <line x1="106.81645886617538" y1="-6.587283733963904" x2="106.81682886617538" y2="-6.590743733963905" style="stroke:rgb(0,0,0);stroke-width:.00002" />
    <circle cx="106.81626" cy="-6.587305" fill="rgb(255,0,0)" r=".0001" />
    <text x="106.81626" y="-6.587305" stroke="rgb(0,0,0)" transform="translate(106.81626 -6.587305),scale(0.00001 -0.00001),translate(-106.81626 6.587305),translate(106.8125 -6.592499999999999),rotate(-30),translate(-106.8125 6.592499999999999)" >line-05-9</text>
    <line x1="106.81663" y1="-6.590765" x2="106.816018" y2="-6.590866" style="stroke:rgb(255,0,0);stroke-width:.00002" />
    <line x1="106.8166625660344" y1="-6.590962330822236" x2="106.81605056603439" y2="-6.5910633308222355" style="stroke:rgb(0,0,0);stroke-width:.00002" />
    <circle cx="106.81663" cy="-6.590765" fill="rgb(255,0,0)" r=".0001" />
    <text x="106.81663" y="-6.590765" stroke="rgb(0,0,0)" transform="translate(106.81663 -6.590765),scale(0.00001 -0.00001),translate(-106.81663 6.590765),translate(106.8125 -6.592499999999999),rotate(-30),translate(-106.8125 6.592499999999999)" >line-05-8</text>
    <line x1="106.816018" y1="-6.590866" x2="106.815571" y2="-6.591487" style="stroke:rgb(255,0,0);stroke-width:.00002" />
    <line x1="106.81618032174046" y1="-6.590982840286609" x2="106.81573332174047" y2="-6.591603840286608" style="stroke:rgb(0,0,0);stroke-width:.00002" />
    <circle cx="106.816018" cy="-6.590866" fill="rgb(255,0,0)" r=".0001" />
    <text x="106.816018" y="-6.590866" stroke="rgb(0,0,0)" transform="translate(106.816018 -6.590866),scale(0.00001 -0.00001),translate(-106.816018 6.590866),translate(106.8125 -6.592499999999999),rotate(-30),translate(-106.8125 6.592499999999999)" >line-05-7</text>
    <line x1="106.815571" y1="-6.591487" x2="106.814436" y2="-6.591868" style="stroke:rgb(255,0,0);stroke-width:.00002" />
    <line x1="106.8156346463338" y1="-6.591676602595431" x2="106.8144996463338" y2="-6.592057602595431" style="stroke:rgb(0,0,0);stroke-width:.00002" />
    <circle cx="106.815571" cy="-6.591487" fill="rgb(255,0,0)" r=".0001" />
    <text x="106.815571" y="-6.591487" stroke="rgb(0,0,0)" transform="translate(106.815571 -6.591487),scale(0.00001 -0.00001),translate(-106.815571 6.591487),translate(106.8125 -6.592499999999999),rotate(-30),translate(-106.8125 6.592499999999999)" >line-05-6</text>
    <line x1="106.814436" y1="-6.591868" x2="106.808631" y2="-6.591665" style="stroke:rgb(255,0,0);stroke-width:.00002" />
    <line x1="106.8144290103018" y1="-6.59206787782298" x2="106.8086240103018" y2="-6.59186487782298" style="stroke:rgb(0,0,0);stroke-width:.00002" />
    <circle cx="106.814436" cy="-6.591868" fill="rgb(255,0,0)" r=".0001" />
    <text x="106.814436" y="-6.591868" stroke="rgb(0,0,0)" transform="translate(106.814436 -6.591868),scale(0.00001 -0.00001),translate(-106.814436 6.591868),translate(106.8125 -6.592499999999999),rotate(-30),translate(-106.8125 6.592499999999999)" >line-05-5</text>
    <line x1="106.808631" y1="-6.591665" x2="106.808235" y2="-6.591259" style="stroke:rgb(255,0,0);stroke-width:.00002" />
    <line x1="106.80848782641449" y1="-6.591804647142517" x2="106.80809182641448" y2="-6.591398647142517" style="stroke:rgb(0,0,0);stroke-width:.00002" />
    <circle cx="106.808631" cy="-6.591665" fill="rgb(255,0,0)" r=".0001" />
    <text x="106.808631" y="-6.591665" stroke="rgb(0,0,0)" transform="translate(106.808631 -6.591665),scale(0.00001 -0.00001),translate(-106.808631 6.591665),translate(106.8125 -6.592499999999999),rotate(-30),translate(-106.8125 6.592499999999999)" >line-05-4</text>
    <line x1="106.808235" y1="-6.591259" x2="106.805734" y2="-6.591272" style="stroke:rgb(255,0,0);stroke-width:.00002" />
    <line x1="106.80823603957012" y1="-6.591458997298217" x2="106.80573503957012" y2="-6.591471997298217" style="stroke:rgb(0,0,0);stroke-width:.00002" />
    <circle cx="106.808235" cy="-6.591259" fill="rgb(255,0,0)" r=".0001" />
    <text x="106.808235" y="-6.591259" stroke="rgb(0,0,0)" transform="translate(106.808235 -6.591259),scale(0.00001 -0.00001),translate(-106.808235 6.591259),translate(106.8125 -6.592499999999999),rotate(-30),translate(-106.8125 6.592499999999999)" >line-05-3</text>
    <line x1="106.805734" y1="-6.591272" x2="106.805706" y2="-6.591276" style="stroke:rgb(255,0,0);stroke-width:.00002" />
    <line x1="106.80576228427124" y1="-6.591469989898733" x2="106.80573428427124" y2="-6.5914739898987325" style="stroke:rgb(0,0,0);stroke-width:.00002" />
    <circle cx="106.805734" cy="-6.591272" fill="rgb(255,0,0)" r=".0001" />
    <text x="106.805734" y="-6.591272" stroke="rgb(0,0,0)" transform="translate(106.805734 -6.591272),scale(0.00001 -0.00001),translate(-106.805734 6.591272),translate(106.8125 -6.592499999999999),rotate(-30),translate(-106.8125 6.592499999999999)" >line-05-2</text>
    <line x1="106.805706" y1="-6.591276" x2="106.805701" y2="-6.592177" style="stroke:rgb(255,0,0);stroke-width:.00002" />
    <line x1="106.8059059969205" y1="-6.591277109860824" x2="106.8059009969205" y2="-6.592178109860825" style="stroke:rgb(0,0,0);stroke-width:.00002" />
    <circle cx="106.805706" cy="-6.591276" fill="rgb(255,0,0)" r=".0001" />
    <text x="106.805706" y="-6.591276" stroke="rgb(0,0,0)" transform="translate(106.805706 -6.591276),scale(0.00001 -0.00001),translate(-106.805706 6.591276),translate(106.8125 -6.592499999999999),rotate(-30),translate(-106.8125 6.592499999999999)" >lodaya-M</text>
    <line x1="106.805701" y1="-6.592177" x2="106.8046" y2="-6.5922" style="stroke:rgb(255,0,0);stroke-width:.00002" />
    <line x1="106.80570517710865" y1="-6.592376956374651" x2="106.80460417710864" y2="-6.592399956374651" style="stroke:rgb(0,0,0);stroke-width:.00002" />
    <circle cx="106.805701" cy="-6.592177" fill="rgb(255,0,0)" r=".0001" />
    <text x="106.805701" y="-6.592177" stroke="rgb(0,0,0)" transform="translate(106.805701 -6.592177),scale(0.00001 -0.00001),translate(-106.805701 6.592177),translate(106.8125 -6.592499999999999),rotate(-30),translate(-106.8125 6.592499999999999)" >lodaya-S</text>
    <line x1="106.8046" y1="-6.5922" x2="106.8044" y2="-6.5959" style="stroke:rgb(255,0,0);stroke-width:.00002" />
    <line x1="106.80499941690931" y1="-6.592221590103205" x2="106.80479941690932" y2="-6.595921590103205" style="stroke:rgb(0,0,0);stroke-width:.00002" />
    <circle cx="106.8046" cy="-6.5922" fill="rgb(255,0,0)" r=".0001" />
    <text x="106.8046" y="-6.5922" stroke="rgb(0,0,0)" transform="translate(106.8046 -6.5922),scale(0.00001 -0.00001),translate(-106.8046 6.5922),translate(106.8125 -6.592499999999999),rotate(-30),translate(-106.8125 6.592499999999999)" >pangrango-pajajaran</text>
    <line x1="106.8044" y1="-6.5959" x2="106.8052" y2="-6.6009" style="stroke:rgb(255,0,0);stroke-width:.00002" />
    <line x1="106.80518995250553" y1="-6.595773607599115" x2="106.80598995250553" y2="-6.600773607599115" style="stroke:rgb(0,0,0);stroke-width:.00002" />
    <circle cx="106.8044" cy="-6.5959" fill="rgb(255,0,0)" r=".0001" />
    <text x="106.8044" y="-6.5959" stroke="rgb(0,0,0)" transform="translate(106.8044 -6.5959),scale(0.00001 -0.00001),translate(-106.8044 6.5959),translate(106.8125 -6.592499999999999),rotate(-30),translate(-106.8125 6.592499999999999)" >kb-astrid</text>
    <line x1="106.8052" y1="-6.6009" x2="106.8047" y2="-6.6016" style="stroke:rgb(255,0,0);stroke-width:.00002" />
    <line x1="106.80568824008272" y1="-6.6012487429162325" x2="106.80518824008271" y2="-6.601948742916233" style="stroke:rgb(0,0,0);stroke-width:.00002" />
    <circle cx="106.8052" cy="-6.6009" fill="rgb(255,0,0)" r=".0001" />
    <text x="106.8052" y="-6.6009" stroke="rgb(0,0,0)" transform="translate(106.8052 -6.6009),scale(0.00001 -0.00001),translate(-106.8052 6.6009),translate(106.8125 -6.592499999999999),rotate(-30),translate(-106.8125 6.592499999999999)" >kb-botani-1</text>
    <line x1="106.8047" y1="-6.6016" x2="106.7996" y2="-6.6027" style="stroke:rgb(255,0,0);stroke-width:.00002" />
    <line x1="106.80482650272334" y1="-6.602186512626449" x2="106.79972650272335" y2="-6.603286512626449" style="stroke:rgb(0,0,0);stroke-width:.00002" />
    <circle cx="106.8047" cy="-6.6016" fill="rgb(255,0,0)" r=".0001" />
    <text x="106.8047" y="-6.6016" stroke="rgb(0,0,0)" transform="translate(106.8047 -6.6016),scale(0.00001 -0.00001),translate(-106.8047 6.6016),translate(106.8125 -6.592499999999999),rotate(-30),translate(-106.8125 6.592499999999999)" >kb-botani-2</text>
    <line x1="106.7996" y1="-6.6027" x2="106.7967" y2="-6.6042" style="stroke:rgb(255,0,0);stroke-width:.00002" />
    <line x1="106.79969188458378" y1="-6.602877643528631" x2="106.79679188458378" y2="-6.604377643528631" style="stroke:rgb(0,0,0);stroke-width:.00002" />
    <circle cx="106.7996" cy="-6.6027" fill="rgb(255,0,0)" r=".0001" />
    <text x="106.7996" y="-6.6027" stroke="rgb(0,0,0)" transform="translate(106.7996 -6.6027),scale(0.00001 -0.00001),translate(-106.7996 6.6027),translate(106.8125 -6.592499999999999),rotate(-30),translate(-106.8125 6.592499999999999)" >kb-otista</text>
    <line x1="106.7967" y1="-6.6042" x2="106.7961" y2="-6.6038" style="stroke:rgb(255,0,0);stroke-width:.00002" />
    <line x1="106.79647811992152" y1="-6.604532820117735" x2="106.79587811992151" y2="-6.604132820117735" style="stroke:rgb(0,0,0);stroke-width:.00002" />
    <circle cx="106.7967" cy="-6.6042" fill="rgb(255,0,0)" r=".0001" />
    <text x="106.7967" y="-6.6042" stroke="rgb(0,0,0)" transform="translate(106.7967 -6.6042),scale(0.00001 -0.00001),translate(-106.7967 6.6042),translate(106.8125 -6.592499999999999),rotate(-30),translate(-106.8125 6.592499999999999)" >kb-btm-1</text>
    <line x1="106.7961" y1="-6.6038" x2="106.7937" y2="-6.5969" style="stroke:rgb(255,0,0);stroke-width:.00002" />
    <line x1="106.79534440256263" y1="-6.604062816499952" x2="106.79294440256264" y2="-6.597162816499952" style="stroke:rgb(0,0,0);stroke-width:.00002" />
    <circle cx="106.7961" cy="-6.6038" fill="rgb(255,0,0)" r=".0001" />
    <text x="106.7961" y="-6.6038" stroke="rgb(0,0,0)" transform="translate(106.7961 -6.6038),scale(0.00001 -0.00001),translate(-106.7961 6.6038),translate(106.8125 -6.592499999999999),rotate(-30),translate(-106.8125 6.592499999999999)" >kb-btm-2</text>
    <line x1="106.7937" y1="-6.5969" x2="106.7946" y2="-6.5945" style="stroke:rgb(255,0,0);stroke-width:.00002" />
    <line x1="106.79313820249347" y1="-6.5966893259350465" x2="106.79403820249347" y2="-6.594289325935047" style="stroke:rgb(0,0,0);stroke-width:.00002" />
    <circle cx="106.7937" cy="-6.5969" fill="rgb(255,0,0)" r=".0001" />
    <text x="106.7937" y="-6.5969" stroke="rgb(0,0,0)" transform="translate(106.7937 -6.5969),scale(0.00001 -0.00001),translate(-106.7937 6.5969),translate(106.8125 -6.592499999999999),rotate(-30),translate(-106.8125 6.592499999999999)" >kb-muslihat</text>
    <line x1="106.7946" y1="-6.5945" x2="106.7973" y2="-6.593" style="stroke:rgb(255,0,0);stroke-width:.00002" />
    <line x1="106.79421148565505" y1="-6.593800674179103" x2="106.79691148565506" y2="-6.592300674179103" style="stroke:rgb(0,0,0);stroke-width:.00002" />
    <circle cx="106.7946" cy="-6.5945" fill="rgb(255,0,0)" r=".0001" />
    <text x="106.7946" y="-6.5945" stroke="rgb(0,0,0)" transform="translate(106.7946 -6.5945),scale(0.00001 -0.00001),translate(-106.7946 6.5945),translate(106.8125 -6.592499999999999),rotate(-30),translate(-106.8125 6.592499999999999)" >kb-gedong-sawah</text>
    <line x1="106.7973" y1="-6.593" x2="106.7984" y2="-6.5935" style="stroke:rgb(255,0,0);stroke-width:.00002" />
    <line x1="106.79763104235545" y1="-6.59227170681803" x2="106.79873104235544" y2="-6.59277170681803" style="stroke:rgb(0,0,0);stroke-width:.00002" />
    <circle cx="106.7973" cy="-6.593" fill="rgb(255,0,0)" r=".0001" />
    <text x="106.7973" y="-6.593" stroke="rgb(0,0,0)" transform="translate(106.7973 -6.593),scale(0.00001 -0.00001),translate(-106.7973 6.593),translate(106.8125 -6.592499999999999),rotate(-30),translate(-106.8125 6.592499999999999)" >kb-polisi-militer</text>
    <line x1="106.7984" y1="-6.5935" x2="106.800814" y2="-6.592262" style="stroke:rgb(255,0,0);stroke-width:.00002" />
    <line x1="106.79803493470858" y1="-6.59278815217005" x2="106.80044893470858" y2="-6.591550152170051" style="stroke:rgb(0,0,0);stroke-width:.00002" />
    <circle cx="106.7984" cy="-6.5935" fill="rgb(255,0,0)" r=".0001" />
    <text x="106.7984" y="-6.5935" stroke="rgb(0,0,0)" transform="translate(106.7984 -6.5935),scale(0.00001 -0.00001),translate(-106.7984 6.5935),translate(106.8125 -6.592499999999999),rotate(-30),translate(-106.8125 6.592499999999999)" >kb-jalak-harupat</text>
    <line x1="106.800814" y1="-6.592262" x2="106.801806" y2="-6.592667" style="stroke:rgb(255,0,0);stroke-width:.00002" />
    <line x1="106.80111638290309" y1="-6.591521348543562" x2="106.80210838290309" y2="-6.591926348543562" style="stroke:rgb(0,0,0);stroke-width:.00002" />
    <circle cx="106.800814" cy="-6.592262" fill="rgb(255,0,0)" r=".0001" />
    <text x="106.800814" y="-6.592262" stroke="rgb(0,0,0)" transform="translate(106.800814 -6.592262),scale(0.00001 -0.00001),translate(-106.800814 6.592262),translate(106.8125 -6.592499999999999),rotate(-30),translate(-106.8125 6.592499999999999)" >kb-sempur</text>
    <line x1="106.801806" y1="-6.592667" x2="106.8029" y2="-6.5935" style="stroke:rgb(255,0,0);stroke-width:.00002" />
    <line x1="106.80216948129649" y1="-6.592189630806292" x2="106.80326348129648" y2="-6.593022630806292" style="stroke:rgb(0,0,0);stroke-width:.00002" />
    <circle cx="106.801806" cy="-6.592667" fill="rgb(255,0,0)" r=".0001" />
    <text x="106.801806" y="-6.592667" stroke="rgb(0,0,0)" transform="translate(106.801806 -6.592667),scale(0.00001 -0.00001),translate(-106.801806 6.592667),translate(106.8125 -6.592499999999999),rotate(-30),translate(-106.8125 6.592499999999999)" >kb-salak</text>
    <line x1="106.8029" y1="-6.5935" x2="106.8046" y2="-6.5922" style="stroke:rgb(255,0,0);stroke-width:.00002" />
    <line x1="106.80277850997848" y1="-6.593341128433404" x2="106.80447850997848" y2="-6.592041128433404" style="stroke:rgb(0,0,0);stroke-width:.00002" />
    <circle cx="106.8029" cy="-6.5935" fill="rgb(255,0,0)" r=".0001" />
    <text x="106.8029" y="-6.5935" stroke="rgb(0,0,0)" transform="translate(106.8029 -6.5935),scale(0.00001 -0.00001),translate(-106.8029 6.5935),translate(106.8125 -6.592499999999999),rotate(-30),translate(-106.8125 6.592499999999999)" >kb-pangrango</text>
    <line x1="106.8046" y1="-6.5922" x2="106.8057" y2="-6.5921" style="stroke:rgb(255,0,0);stroke-width:.00002" />
    <line x1="106.80458189285079" y1="-6.592000821358707" x2="106.8056818928508" y2="-6.591900821358707" style="stroke:rgb(0,0,0);stroke-width:.00002" />
    <circle cx="106.8046" cy="-6.5922" fill="rgb(255,0,0)" r=".0001" />
    <text x="106.8046" y="-6.5922" stroke="rgb(0,0,0)" transform="translate(106.8046 -6.5922),scale(0.00001 -0.00001),translate(-106.8046 6.5922),translate(106.8125 -6.592499999999999),rotate(-30),translate(-106.8125 6.592499999999999)" >pangrango-pajajaran</text>
    <line x1="106.8057" y1="-6.5921" x2="106.805734" y2="-6.591272" style="stroke:rgb(255,0,0);stroke-width:.00002" />
    <line x1="106.80550016840243" y1="-6.5920917943546895" x2="106.80553416840243" y2="-6.591263794354689" style="stroke:rgb(0,0,0);stroke-width:.00002" />
    <circle cx="106.8057" cy="-6.5921" fill="rgb(255,0,0)" r=".0001" />
    <text x="106.8057" y="-6.5921" stroke="rgb(0,0,0)" transform="translate(106.8057 -6.5921),scale(0.00001 -0.00001),translate(-106.8057 6.5921),translate(106.8125 -6.592499999999999),rotate(-30),translate(-106.8125 6.592499999999999)" >lodaya-S</text>
    <line x1="106.805734" y1="-6.591272" x2="106.805734" y2="-6.591272" style="stroke:rgb(255,0,0);stroke-width:.00002" />
    <line x1="106.805734" y1="-6.591272" x2="106.805734" y2="-6.591272" style="stroke:rgb(0,0,0);stroke-width:.00002" />
    <circle cx="106.805734" cy="-6.591272" fill="rgb(255,0,0)" r=".0001" />
    <text x="106.805734" y="-6.591272" stroke="rgb(0,0,0)" transform="translate(106.805734 -6.591272),scale(0.00001 -0.00001),translate(-106.805734 6.591272),translate(106.8125 -6.592499999999999),rotate(-30),translate(-106.8125 6.592499999999999)" >lodaya-M</text>
    <line x1="106.805734" y1="-6.591272" x2="106.808235" y2="-6.591259" style="stroke:rgb(255,0,0);stroke-width:.00002" />
    <line x1="106.80573296042988" y1="-6.591072002701783" x2="106.80823396042987" y2="-6.591059002701783" style="stroke:rgb(0,0,0);stroke-width:.00002" />
    <circle cx="106.805734" cy="-6.591272" fill="rgb(255,0,0)" r=".0001" />
    <text x="106.805734" y="-6.591272" stroke="rgb(0,0,0)" transform="translate(106.805734 -6.591272),scale(0.00001 -0.00001),translate(-106.805734 6.591272),translate(106.8125 -6.592499999999999),rotate(-30),translate(-106.8125 6.592499999999999)" >line-05-2</text>
    <line x1="106.808235" y1="-6.591259" x2="106.808631" y2="-6.591665" style="stroke:rgb(255,0,0);stroke-width:.00002" />
    <line x1="106.80837817358551" y1="-6.591119352857483" x2="106.80877417358552" y2="-6.591525352857483" style="stroke:rgb(0,0,0);stroke-width:.00002" />
    <circle cx="106.808235" cy="-6.591259" fill="rgb(255,0,0)" r=".0001" />
    <text x="106.808235" y="-6.591259" stroke="rgb(0,0,0)" transform="translate(106.808235 -6.591259),scale(0.00001 -0.00001),translate(-106.808235 6.591259),translate(106.8125 -6.592499999999999),rotate(-30),translate(-106.8125 6.592499999999999)" >line-05-3</text>
    <line x1="106.808631" y1="-6.591665" x2="106.814436" y2="-6.591868" style="stroke:rgb(255,0,0);stroke-width:.00002" />
    <line x1="106.80863798969821" y1="-6.59146512217702" x2="106.81444298969821" y2="-6.59166812217702" style="stroke:rgb(0,0,0);stroke-width:.00002" />
    <circle cx="106.808631" cy="-6.591665" fill="rgb(255,0,0)" r=".0001" />
    <text x="106.808631" y="-6.591665" stroke="rgb(0,0,0)" transform="translate(106.808631 -6.591665),scale(0.00001 -0.00001),translate(-106.808631 6.591665),translate(106.8125 -6.592499999999999),rotate(-30),translate(-106.8125 6.592499999999999)" >line-05-4</text>
    <line x1="106.814436" y1="-6.591868" x2="106.815571" y2="-6.591487" style="stroke:rgb(255,0,0);stroke-width:.00002" />
    <line x1="106.8143723536662" y1="-6.591678397404569" x2="106.8155073536662" y2="-6.591297397404569" style="stroke:rgb(0,0,0);stroke-width:.00002" />
    <circle cx="106.814436" cy="-6.591868" fill="rgb(255,0,0)" r=".0001" />
    <text x="106.814436" y="-6.591868" stroke="rgb(0,0,0)" transform="translate(106.814436 -6.591868),scale(0.00001 -0.00001),translate(-106.814436 6.591868),translate(106.8125 -6.592499999999999),rotate(-30),translate(-106.8125 6.592499999999999)" >line-05-5</text>
    <line x1="106.815571" y1="-6.591487" x2="106.816018" y2="-6.590866" style="stroke:rgb(255,0,0);stroke-width:.00002" />
    <line x1="106.81540867825954" y1="-6.591370159713391" x2="106.81585567825954" y2="-6.590749159713392" style="stroke:rgb(0,0,0);stroke-width:.00002" />
    <circle cx="106.815571" cy="-6.591487" fill="rgb(255,0,0)" r=".0001" />
    <text x="106.815571" y="-6.591487" stroke="rgb(0,0,0)" transform="translate(106.815571 -6.591487),scale(0.00001 -0.00001),translate(-106.815571 6.591487),translate(106.8125 -6.592499999999999),rotate(-30),translate(-106.8125 6.592499999999999)" >line-05-6</text>
    <line x1="106.816018" y1="-6.590866" x2="106.81663" y2="-6.590765" style="stroke:rgb(255,0,0);stroke-width:.00002" />
    <line x1="106.81598543396561" y1="-6.590668669177765" x2="106.81659743396561" y2="-6.590567669177765" style="stroke:rgb(0,0,0);stroke-width:.00002" />
    <circle cx="106.816018" cy="-6.590866" fill="rgb(255,0,0)" r=".0001" />
    <text x="106.816018" y="-6.590866" stroke="rgb(0,0,0)" transform="translate(106.816018 -6.590866),scale(0.00001 -0.00001),translate(-106.816018 6.590866),translate(106.8125 -6.592499999999999),rotate(-30),translate(-106.8125 6.592499999999999)" >line-05-7</text>
    <line x1="106.81663" y1="-6.590765" x2="106.81626" y2="-6.587305" style="stroke:rgb(255,0,0);stroke-width:.00002" />
    <line x1="106.81643113382462" y1="-6.590786266036096" x2="106.81606113382462" y2="-6.587326266036095" style="stroke:rgb(0,0,0);stroke-width:.00002" />
    <circle cx="106.81663" cy="-6.590765" fill="rgb(255,0,0)" r=".0001" />
    <text x="106.81663" y="-6.590765" stroke="rgb(0,0,0)" transform="translate(106.81663 -6.590765),scale(0.00001 -0.00001),translate(-106.81663 6.590765),translate(106.8125 -6.592499999999999),rotate(-30),translate(-106.8125 6.592499999999999)" >line-05-8</text>
    <line x1="106.81626" y1="-6.587305" x2="106.816886" y2="-6.590765" style="stroke:rgb(255,0,0);stroke-width:.00002" />
    <line x1="106.81645680485116" y1="-6.587269393110745" x2="106.81708280485115" y2="-6.590729393110745" style="stroke:rgb(0,0,0);stroke-width:.00002" />
    <circle cx="106.81626" cy="-6.587305" fill="rgb(255,0,0)" r=".0001" />
    <text x="106.81626" y="-6.587305" stroke="rgb(0,0,0)" transform="translate(106.81626 -6.587305),scale(0.00001 -0.00001),translate(-106.81626 6.587305),translate(106.8125 -6.592499999999999),rotate(-30),translate(-106.8125 6.592499999999999)" >line-05-9</text>
    <line x1="106.816886" y1="-6.590765" x2="106.818506" y2="-6.590271" style="stroke:rgb(255,0,0);stroke-width:.00002" />
    <line x1="106.81682766430687" y1="-6.590573696714854" x2="106.81844766430687" y2="-6.590079696714854" style="stroke:rgb(0,0,0);stroke-width:.00002" />
    <circle cx="106.816886" cy="-6.590765" fill="rgb(255,0,0)" r=".0001" />
    <text x="106.816886" y="-6.590765" stroke="rgb(0,0,0)" transform="translate(106.816886 -6.590765),scale(0.00001 -0.00001),translate(-106.816886 6.590765),translate(106.8125 -6.592499999999999),rotate(-30),translate(-106.8125 6.592499999999999)" >line-05-10</text>
    <line x1="106.818506" y1="-6.590271" x2="106.818532" y2="-6.589333" style="stroke:rgb(255,0,0);stroke-width:.00002" />
    <line x1="106.81830607678755" y1="-6.5902654584184175" x2="106.81833207678756" y2="-6.589327458418417" style="stroke:rgb(0,0,0);stroke-width:.00002" />
    <circle cx="106.818506" cy="-6.590271" fill="rgb(255,0,0)" r=".0001" />
    <text x="106.818506" y="-6.590271" stroke="rgb(0,0,0)" transform="translate(106.818506 -6.590271),scale(0.00001 -0.00001),translate(-106.818506 6.590271),translate(106.8125 -6.592499999999999),rotate(-30),translate(-106.8125 6.592499999999999)" >line-05-11</text>
    <line x1="106.818532" y1="-6.589333" x2="106.835584" y2="-6.58996" style="stroke:rgb(255,0,0);stroke-width:.00002" />
    <line x1="106.81853934900974" y1="-6.589133135065467" x2="106.83559134900973" y2="-6.589760135065466" style="stroke:rgb(0,0,0);stroke-width:.00002" />
    <circle cx="106.818532" cy="-6.589333" fill="rgb(255,0,0)" r=".0001" />
    <text x="106.818532" y="-6.589333" stroke="rgb(0,0,0)" transform="translate(106.818532 -6.589333),scale(0.00001 -0.00001),translate(-106.818532 6.589333),translate(106.8125 -6.592499999999999),rotate(-30),translate(-106.8125 6.592499999999999)" >line-05-12</text>
    <line x1="106.835584" y1="-6.58996" x2="106.836451" y2="-6.588997" style="stroke:rgb(255,0,0);stroke-width:.00002" />
    <line x1="106.83543536419702" y1="-6.5898261814733425" x2="106.83630236419702" y2="-6.588863181473343" style="stroke:rgb(0,0,0);stroke-width:.00002" />
    <circle cx="106.835584" cy="-6.58996" fill="rgb(255,0,0)" r=".0001" />
    <text x="106.835584" y="-6.58996" stroke="rgb(0,0,0)" transform="translate(106.835584 -6.58996),scale(0.00001 -0.00001),translate(-106.835584 6.58996),translate(106.8125 -6.592499999999999),rotate(-30),translate(-106.8125 6.592499999999999)" >line-05-13</text>
    <line x1="106.836451" y1="-6.588997" x2="106.841274" y2="-6.588769" style="stroke:rgb(255,0,0);stroke-width:.00002" />
    <line x1="106.83644155585067" y1="-6.58879722310433" x2="106.84126455585067" y2="-6.58856922310433" style="stroke:rgb(0,0,0);stroke-width:.00002" />
    <circle cx="106.836451" cy="-6.588997" fill="rgb(255,0,0)" r=".0001" />
    <text x="106.836451" y="-6.588997" stroke="rgb(0,0,0)" transform="translate(106.836451 -6.588997),scale(0.00001 -0.00001),translate(-106.836451 6.588997),translate(106.8125 -6.592499999999999),rotate(-30),translate(-106.8125 6.592499999999999)" >line-05-14</text>
    <line x1="106.841274" y1="-6.588769" x2="106.843622" y2="-6.586867" style="stroke:rgb(255,0,0);stroke-width:.00002" />
    <line x1="106.84114811085581" y1="-6.588613591109078" x2="106.84349611085581" y2="-6.5867115911090774" style="stroke:rgb(0,0,0);stroke-width:.00002" />
    <circle cx="106.841274" cy="-6.588769" fill="rgb(255,0,0)" r=".0001" />
    <text x="106.841274" y="-6.588769" stroke="rgb(0,0,0)" transform="translate(106.841274 -6.588769),scale(0.00001 -0.00001),translate(-106.841274 6.588769),translate(106.8125 -6.592499999999999),rotate(-30),translate(-106.8125 6.592499999999999)" >line-05-15</text>
    <line x1="106.843622" y1="-6.586867" x2="106.848445" y2="-6.585347" style="stroke:rgb(255,0,0);stroke-width:.00002" />
    <line x1="106.84356188352089" y1="-6.586676248829781" x2="106.8483848835209" y2="-6.585156248829781" style="stroke:rgb(0,0,0);stroke-width:.00002" />
    <circle cx="106.843622" cy="-6.586867" fill="rgb(255,0,0)" r=".0001" />
    <text x="106.843622" y="-6.586867" stroke="rgb(0,0,0)" transform="translate(106.843622 -6.586867),scale(0.00001 -0.00001),translate(-106.843622 6.586867),translate(106.8125 -6.592499999999999),rotate(-30),translate(-106.8125 6.592499999999999)" >line-05-16</text>
    <line x1="106.848445" y1="-6.585347" x2="106.853089" y2="-6.586791" style="stroke:rgb(255,0,0);stroke-width:.00002" />
    <line x1="106.84850438331377" y1="-6.585156019314993" x2="106.85314838331377" y2="-6.586600019314993" style="stroke:rgb(0,0,0);stroke-width:.00002" />
    <circle cx="106.848445" cy="-6.585347" fill="rgb(255,0,0)" r=".0001" />
    <text x="106.848445" y="-6.585347" stroke="rgb(0,0,0)" transform="translate(106.848445 -6.585347),scale(0.00001 -0.00001),translate(-106.848445 6.585347),translate(106.8125 -6.592499999999999),rotate(-30),translate(-106.8125 6.592499999999999)" >line-05-17</text>
    <line x1="106.853089" y1="-6.586791" x2="106.852374" y2="-6.587577" style="stroke:rgb(255,0,0);stroke-width:.00002" />
    <line x1="106.85323694542225" y1="-6.586925581395566" x2="106.85252194542225" y2="-6.587711581395566" style="stroke:rgb(0,0,0);stroke-width:.00002" />
    <circle cx="106.853089" cy="-6.586791" fill="rgb(255,0,0)" r=".0001" />
    <text x="106.853089" y="-6.586791" stroke="rgb(0,0,0)" transform="translate(106.853089 -6.586791),scale(0.00001 -0.00001),translate(-106.853089 6.586791),translate(106.8125 -6.592499999999999),rotate(-30),translate(-106.8125 6.592499999999999)" >line-05-18</text>
    <line x1="106.852374" y1="-6.587577" x2="106.853956" y2="-6.590138" style="stroke:rgb(255,0,0);stroke-width:.00002" />
    <line x1="106.85254415348352" y1="-6.587471891522481" x2="106.85412615348352" y2="-6.590032891522481" style="stroke:rgb(0,0,0);stroke-width:.00002" />
    <circle cx="106.852374" cy="-6.587577" fill="rgb(255,0,0)" r=".0001" />
    <text x="106.852374" y="-6.587577" stroke="rgb(0,0,0)" transform="translate(106.852374 -6.587577),scale(0.00001 -0.00001),translate(-106.852374 6.587577),translate(106.8125 -6.592499999999999),rotate(-30),translate(-106.8125 6.592499999999999)" >line-05-19</text>
    <line x1="106.853956" y1="-6.590138" x2="106.859979" y2="-6.591304" style="stroke:rgb(255,0,0);stroke-width:.00002" />
    <line x1="106.85399401249059" y1="-6.589941645599595" x2="106.86001701249059" y2="-6.591107645599595" style="stroke:rgb(0,0,0);stroke-width:.00002" />
    <circle cx="106.853956" cy="-6.590138" fill="rgb(255,0,0)" r=".0001" />
    <text x="106.853956" y="-6.590138" stroke="rgb(0,0,0)" transform="translate(106.853956 -6.590138),scale(0.00001 -0.00001),translate(-106.853956 6.590138),translate(106.8125 -6.592499999999999),rotate(-30),translate(-106.8125 6.592499999999999)" >line-05-20</text>
    <line x1="106.859979" y1="-6.591304" x2="106.865159" y2="-6.589352" style="stroke:rgb(255,0,0);stroke-width:.00002" />
    <line x1="106.85990847448504" y1="-6.59111684725025" x2="106.86508847448505" y2="-6.58916484725025" style="stroke:rgb(0,0,0);stroke-width:.00002" />
    <circle cx="106.859979" cy="-6.591304" fill="rgb(255,0,0)" r=".0001" />
    <text x="106.859979" y="-6.591304" stroke="rgb(0,0,0)" transform="translate(106.859979 -6.591304),scale(0.00001 -0.00001),translate(-106.859979 6.591304),translate(106.8125 -6.592499999999999),rotate(-30),translate(-106.8125 6.592499999999999)" >line-05-21</text>
    <line x1="106.865159" y1="-6.589352" x2="106.859979" y2="-6.591304" style="stroke:rgb(255,0,0);stroke-width:.00002" />
    <line x1="106.86522952551496" y1="-6.58953915274975" x2="106.86004952551495" y2="-6.59149115274975" style="stroke:rgb(0,0,0);stroke-width:.00002" />
    <circle cx="106.865159" cy="-6.589352" fill="rgb(255,0,0)" r=".0001" />
    <text x="106.865159" y="-6.589352" stroke="rgb(0,0,0)" transform="translate(106.865159 -6.589352),scale(0.00001 -0.00001),translate(-106.865159 6.589352),translate(106.8125 -6.592499999999999),rotate(-30),translate(-106.8125 6.592499999999999)" >line-05-22</text>
  </g>
</svg>
