<svg width="3500" height="3500" xmlns="http://www.w3.org/2000/svg" xmlns:xlink="http://www.w3.org/1999/xlink" >
  <path d="M1051.3161070868193 1231.9326009647561 L1042.7515486085072 1049.222020093206 L1038.2300805856914 946.7354115769092 L1073.1640338081406 893.5750479774688 L1095.711988501691 878.5430781818529 L1110.486934833048 859.3356479507501 L1121.7302110413384 838.4552778497593 L1177.9474800238177 877.9593047022564 L1200.132595674077 869.0852584421552 L1227.9398975585564 875.628153003221 L1225.0792709602365 881.3494061999409 L1216.2927572652648 879.5921034609892 L1203.2338998808 873.7881668456641 L1175.69731636479 885.3825177998824 L1160.9418792528459 904.5645860453803 L1066.548560557976 1028.9240376592138 L1047.259463797161 1071.9535612024526 L1051.8054521679687 1226.5171658070221 L1002.3785851520728 1216.0326788642456 L1005.2500000000464 1259.1039015894448 L1005.2500000000464 1244.862050086209 L1002.3368835891233 1250.6882829080682 L995.7352813738396 1257.2898851235518 L989.2500000001547 1262.153846153842 L984.0399175830328 1262.153846153842 L974.8615242284586 1259.5314480525446 L968.0312067104779 1289.5848451315533 L992.5121400530657 1296.2614633158869 L1007.5089782631608 1256.269894755611 Z" stroke="lightgrey" stroke-width="0.5" fill="none" />
</svg>
