<svg width="1049.9999999998977" height="1849.9999999999961" xmlns="http://www.w3.org/2000/svg" xmlns:xlink="http://www.w3.org/1999/xlink" >
  <g transform="translate(524.9999999999488 924.9999999999981) rotate(30) scale(10000 -10000) translate(-106.8125 6.592499999999999)">
    <path d="M106.76 -6.5 L106.865 -6.5 L106.865 -6.685 L106.76 -6.685 Z" fill="none" stroke="black" stroke-width="0.0005" transform="translate(106.8125 -6.592499999999999) rotate(30) translate(-106.8125 6.592499999999999)" />
    <path d="M106.80277657494287 -6.611411323592184 L106.80374602213959 -6.610334260521957 L106.80112135247738 -6.60854936701199 L106.80119329958154 -6.608138742075957 L106.80046927310244 -6.608161088572226 L106.79891438661558 -6.606916768037117 L106.79726786127355 -6.604156109697086 L106.79670193706697 -6.604419732663819 L106.79658490317422 -6.604653800449314 L106.79549051113464 -6.606046663045145 L106.79502316343525 -6.607635645223074 L106.7964503187482 -6.608111363660728 L106.80005509523524 -6.611215476746783 L106.8021673174792 -6.612221296862961 L106.80348585311228 -6.614148387403621 L106.8045819856002 -6.616241003971427 L106.8069866661256 -6.6187458795187215 L106.80930000000001 -6.625054971903488 L106.80930000000001 -6.62496139990637 L106.81005290182921 -6.625243738092322 L106.81041768938503 -6.626155706981848 L106.80956864339554 -6.626014199316933 L106.80958284271247 -6.626000000000003 L106.80987143301164 -6.626288590299158 L106.81033779660807 -6.627501135649946 L106.81005237969792 -6.629070928655862 L106.81056720990081 -6.63009290502878 L106.81252137977528 -6.632249922958043 L106.8135359639948 -6.636533722996098 L106.81355443567864 -6.636547576758969 L106.81492895945759 -6.638380940115822 L106.81558674544527 -6.63876719204778 L106.8155742399847 -6.639731074470215 L106.81675668608409 -6.639791885983898 L106.8196777920274 -6.644720434695705 L106.8268866120911 -6.6505197200512125 L106.828859299332 -6.650674360825126 L106.83099974207029 -6.65664369503144 L106.83151305416835 -6.6569395918813585 L106.83135736380468 -6.6577913097532875 L106.8336652463084 -6.659886201836308 L106.83664260490723 -6.660218137085501 L106.837348 -6.661604 L106.83652139509279 -6.660405862914499 L106.83357875369161 -6.660077798163693 L106.83114063619533 -6.657864690246713 L106.83129094583164 -6.657042408118643 L106.83083625792972 -6.65678030496857 L106.82871470066802 -6.650863639174875 L106.8268093879089 -6.650714279948786 L106.8195242079726 -6.644853565304299 L106.81663931391593 -6.639986114016104 L106.8153717600153 -6.639920925529785 L106.81538525455474 -6.638880807952219 L106.81479304054238 -6.638533059884171 L106.81341156432137 -6.6366904232410215 L106.8133580360052 -6.6366502770039 L106.81233862022474 -6.632346077041959 L106.81040079009918 -6.630207094971206 L106.80984362030209 -6.629101071344131 L106.81009659447408 -6.62770971339814 L106.8096142834942 -6.62645570485043 L106.80915857864376 -6.626000000000001 L106.80946567830223 -6.625692900341534 L106.80994115530748 -6.625772146509076 L106.8098235490854 -6.62547813095384 L106.809 -6.6251693000468155 L106.809 -6.624817755369251 L106.80689899902404 -6.619087752707558 L106.80433602879961 -6.616417992057097 L106.8036239797404 -6.6150586256713275 L106.80188894346361 -6.612522803420648 L106.80237578097777 -6.611451193148921 Z" stroke="blue" stroke-width="0.0001" fill="none" />
  </g>
</svg>
