<svg width="1049.9999999998977" height="1849.9999999999961" xmlns="http://www.w3.org/2000/svg" xmlns:xlink="http://www.w3.org/1999/xlink" >
  <g transform="translate(524.9999999999488 924.9999999999981) rotate(30) scale(10000 -10000) translate(-106.8125 6.592499999999999)">
    <path d="M106.76 -6.5 L106.865 -6.5 L106.865 -6.685 L106.76 -6.685 Z" fill="none" stroke="black" stroke-width="0.001" transform="translate(106.8125 -6.592499999999999) rotate(30) translate(-106.8125 6.592499999999999)" />
    <path d="M106.81375415358526 -6.6004155381457466 L106.8172 -6.5982 L106.81388531472483 -6.600813413061327 L106.81318690155136 -6.60550275865461 L106.8103778064358 -6.607916163912306 L106.81136323169414 -6.610213739927847 L106.80522935721454 -6.601858918788757 L106.80427349027207 -6.602275965980291 L106.79988470274698 -6.603320396337357 L106.79966687370799 -6.603610835055998 L106.79907342409624 -6.603636436475764 L106.79760905238226 -6.604664330066414 L106.79693730690433 -6.604745831946399 L106.7953092113718 -6.604612752596928 L106.79286564572801 -6.596914706216006 L106.79375735661644 -6.593824176308532 L106.79725495482212 -6.5918810661942695 L106.79837376751641 -6.592389617418948 L106.80085324159295 -6.591118039578536 L106.8023258050161 -6.592066368031189 L106.80334301609489 -6.593103742132919 L106.8053586583447 -6.595501647593951 L106.80605220382371 -6.601293470572858 L106.8050187185294 -6.601660809478602 L106.80687934191495 -6.603784589743462 L106.82112317729278 -6.595172038119659 L106.80767240276417 -6.604587580289713 L106.80993575864001 -6.607519383042777 L106.81281402035673 -6.605291051391133 L106.81349105604106 -6.600745240367676 L106.81251604298429 -6.599054325127815 L106.81268395701572 -6.598945674872185 Z" stroke="yellow" stroke-width="0.0002" fill="none" />
    <circle 
      cx="106.81375415358526" cy="-12.600415538145747"
      r="15" transform="translate(106.81375415358526 -6.6004155381457466) scale(0.00001 -0.00001) translate(-106.81375415358526 6.6004155381457466) translate(106.8125 -6.592499999999999) rotate(-30) translate(-106.8125 6.592499999999999)"
      fill="white" stroke="black" stroke-width="2"/>
    <circle 
      cx="106.81388531472483" cy="-12.600813413061328"
      r="15" transform="translate(106.81388531472483 -6.600813413061327) scale(0.00001 -0.00001) translate(-106.81388531472483 6.600813413061327) translate(106.8125 -6.592499999999999) rotate(-30) translate(-106.8125 6.592499999999999)"
      fill="white" stroke="black" stroke-width="2"/>
    <circle 
      cx="106.8103778064358" cy="-12.607916163912307"
      r="15" transform="translate(106.8103778064358 -6.607916163912306) scale(0.00001 -0.00001) translate(-106.8103778064358 6.607916163912306) translate(106.8125 -6.592499999999999) rotate(-30) translate(-106.8125 6.592499999999999)"
      fill="white" stroke="black" stroke-width="2"/>
    <circle 
      cx="106.81136323169414" cy="-12.610213739927847"
      r="15" transform="translate(106.81136323169414 -6.610213739927847) scale(0.00001 -0.00001) translate(-106.81136323169414 6.610213739927847) translate(106.8125 -6.592499999999999) rotate(-30) translate(-106.8125 6.592499999999999)"
      fill="white" stroke="black" stroke-width="2"/>
    <circle 
      cx="106.80427349027207" cy="-12.60227596598029"
      r="15" transform="translate(106.80427349027207 -6.602275965980291) scale(0.00001 -0.00001) translate(-106.80427349027207 6.602275965980291) translate(106.8125 -6.592499999999999) rotate(-30) translate(-106.8125 6.592499999999999)"
      fill="white" stroke="black" stroke-width="2"/>
    <circle 
      cx="106.79988470274698" cy="-12.603320396337356"
      r="15" transform="translate(106.79988470274698 -6.603320396337357) scale(0.00001 -0.00001) translate(-106.79988470274698 6.603320396337357) translate(106.8125 -6.592499999999999) rotate(-30) translate(-106.8125 6.592499999999999)"
      fill="white" stroke="black" stroke-width="2"/>
    <circle 
      cx="106.79966687370799" cy="-12.603610835056"
      r="15" transform="translate(106.79966687370799 -6.603610835055998) scale(0.00001 -0.00001) translate(-106.79966687370799 6.603610835055998) translate(106.8125 -6.592499999999999) rotate(-30) translate(-106.8125 6.592499999999999)"
      fill="white" stroke="black" stroke-width="2"/>
    <circle 
      cx="106.79907342409624" cy="-12.603636436475764"
      r="15" transform="translate(106.79907342409624 -6.603636436475764) scale(0.00001 -0.00001) translate(-106.79907342409624 6.603636436475764) translate(106.8125 -6.592499999999999) rotate(-30) translate(-106.8125 6.592499999999999)"
      fill="white" stroke="black" stroke-width="2"/>
    <circle 
      cx="106.79760905238226" cy="-12.604664330066413"
      r="15" transform="translate(106.79760905238226 -6.604664330066414) scale(0.00001 -0.00001) translate(-106.79760905238226 6.604664330066414) translate(106.8125 -6.592499999999999) rotate(-30) translate(-106.8125 6.592499999999999)"
      fill="white" stroke="black" stroke-width="2"/>
    <circle 
      cx="106.79693730690433" cy="-12.6047458319464"
      r="15" transform="translate(106.79693730690433 -6.604745831946399) scale(0.00001 -0.00001) translate(-106.79693730690433 6.604745831946399) translate(106.8125 -6.592499999999999) rotate(-30) translate(-106.8125 6.592499999999999)"
      fill="white" stroke="black" stroke-width="2"/>
    <circle 
      cx="106.7953092113718" cy="-12.604612752596928"
      r="15" transform="translate(106.7953092113718 -6.604612752596928) scale(0.00001 -0.00001) translate(-106.7953092113718 6.604612752596928) translate(106.8125 -6.592499999999999) rotate(-30) translate(-106.8125 6.592499999999999)"
      fill="white" stroke="black" stroke-width="2"/>
    <circle 
      cx="106.79286564572801" cy="-12.596914706216005"
      r="15" transform="translate(106.79286564572801 -6.596914706216006) scale(0.00001 -0.00001) translate(-106.79286564572801 6.596914706216006) translate(106.8125 -6.592499999999999) rotate(-30) translate(-106.8125 6.592499999999999)"
      fill="white" stroke="black" stroke-width="2"/>
    <circle 
      cx="106.79375735661644" cy="-12.593824176308532"
      r="15" transform="translate(106.79375735661644 -6.593824176308532) scale(0.00001 -0.00001) translate(-106.79375735661644 6.593824176308532) translate(106.8125 -6.592499999999999) rotate(-30) translate(-106.8125 6.592499999999999)"
      fill="white" stroke="black" stroke-width="2"/>
    <circle 
      cx="106.79725495482212" cy="-12.591881066194269"
      r="15" transform="translate(106.79725495482212 -6.5918810661942695) scale(0.00001 -0.00001) translate(-106.79725495482212 6.5918810661942695) translate(106.8125 -6.592499999999999) rotate(-30) translate(-106.8125 6.592499999999999)"
      fill="white" stroke="black" stroke-width="2"/>
    <circle 
      cx="106.8023258050161" cy="-12.592066368031189"
      r="15" transform="translate(106.8023258050161 -6.592066368031189) scale(0.00001 -0.00001) translate(-106.8023258050161 6.592066368031189) translate(106.8125 -6.592499999999999) rotate(-30) translate(-106.8125 6.592499999999999)"
      fill="white" stroke="black" stroke-width="2"/>
    <circle 
      cx="106.80334301609489" cy="-12.593103742132918"
      r="15" transform="translate(106.80334301609489 -6.593103742132919) scale(0.00001 -0.00001) translate(-106.80334301609489 6.593103742132919) translate(106.8125 -6.592499999999999) rotate(-30) translate(-106.8125 6.592499999999999)"
      fill="white" stroke="black" stroke-width="2"/>
    <circle 
      cx="106.8053586583447" cy="-12.595501647593952"
      r="15" transform="translate(106.8053586583447 -6.595501647593951) scale(0.00001 -0.00001) translate(-106.8053586583447 6.595501647593951) translate(106.8125 -6.592499999999999) rotate(-30) translate(-106.8125 6.592499999999999)"
      fill="white" stroke="black" stroke-width="2"/>
    <circle 
      cx="106.80605220382371" cy="-12.601293470572859"
      r="15" transform="translate(106.80605220382371 -6.601293470572858) scale(0.00001 -0.00001) translate(-106.80605220382371 6.601293470572858) translate(106.8125 -6.592499999999999) rotate(-30) translate(-106.8125 6.592499999999999)"
      fill="white" stroke="black" stroke-width="2"/>
    <circle 
      cx="106.8050187185294" cy="-12.601660809478602"
      r="15" transform="translate(106.8050187185294 -6.601660809478602) scale(0.00001 -0.00001) translate(-106.8050187185294 6.601660809478602) translate(106.8125 -6.592499999999999) rotate(-30) translate(-106.8125 6.592499999999999)"
      fill="white" stroke="black" stroke-width="2"/>
    <circle 
      cx="106.80687934191495" cy="-12.603784589743462"
      r="15" transform="translate(106.80687934191495 -6.603784589743462) scale(0.00001 -0.00001) translate(-106.80687934191495 6.603784589743462) translate(106.8125 -6.592499999999999) rotate(-30) translate(-106.8125 6.592499999999999)"
      fill="white" stroke="black" stroke-width="2"/>
    <circle 
      cx="106.80767240276417" cy="-12.604587580289714"
      r="15" transform="translate(106.80767240276417 -6.604587580289713) scale(0.00001 -0.00001) translate(-106.80767240276417 6.604587580289713) translate(106.8125 -6.592499999999999) rotate(-30) translate(-106.8125 6.592499999999999)"
      fill="white" stroke="black" stroke-width="2"/>
    <circle 
      cx="106.80993575864001" cy="-12.607519383042778"
      r="15" transform="translate(106.80993575864001 -6.607519383042777) scale(0.00001 -0.00001) translate(-106.80993575864001 6.607519383042777) translate(106.8125 -6.592499999999999) rotate(-30) translate(-106.8125 6.592499999999999)"
      fill="white" stroke="black" stroke-width="2"/>
    <circle 
      cx="106.81375415358526" cy="-12.600415538145747"
      r="15" transform="translate(106.81375415358526 -6.6004155381457466) scale(0.00001 -0.00001) translate(-106.81375415358526 6.6004155381457466) translate(106.8125 -6.592499999999999) rotate(-30) translate(-106.8125 6.592499999999999)"
      fill="white" stroke="none"/>
    <circle 
      cx="106.81388531472483" cy="-12.600813413061328"
      r="15" transform="translate(106.81388531472483 -6.600813413061327) scale(0.00001 -0.00001) translate(-106.81388531472483 6.600813413061327) translate(106.8125 -6.592499999999999) rotate(-30) translate(-106.8125 6.592499999999999)"
      fill="white" stroke="none"/>
    <circle 
      cx="106.8103778064358" cy="-12.607916163912307"
      r="15" transform="translate(106.8103778064358 -6.607916163912306) scale(0.00001 -0.00001) translate(-106.8103778064358 6.607916163912306) translate(106.8125 -6.592499999999999) rotate(-30) translate(-106.8125 6.592499999999999)"
      fill="white" stroke="none"/>
    <circle 
      cx="106.81136323169414" cy="-12.610213739927847"
      r="15" transform="translate(106.81136323169414 -6.610213739927847) scale(0.00001 -0.00001) translate(-106.81136323169414 6.610213739927847) translate(106.8125 -6.592499999999999) rotate(-30) translate(-106.8125 6.592499999999999)"
      fill="white" stroke="none"/>
    <circle 
      cx="106.80427349027207" cy="-12.60227596598029"
      r="15" transform="translate(106.80427349027207 -6.602275965980291) scale(0.00001 -0.00001) translate(-106.80427349027207 6.602275965980291) translate(106.8125 -6.592499999999999) rotate(-30) translate(-106.8125 6.592499999999999)"
      fill="white" stroke="none"/>
    <circle 
      cx="106.79988470274698" cy="-12.603320396337356"
      r="15" transform="translate(106.79988470274698 -6.603320396337357) scale(0.00001 -0.00001) translate(-106.79988470274698 6.603320396337357) translate(106.8125 -6.592499999999999) rotate(-30) translate(-106.8125 6.592499999999999)"
      fill="white" stroke="none"/>
    <circle 
      cx="106.79966687370799" cy="-12.603610835056"
      r="15" transform="translate(106.79966687370799 -6.603610835055998) scale(0.00001 -0.00001) translate(-106.79966687370799 6.603610835055998) translate(106.8125 -6.592499999999999) rotate(-30) translate(-106.8125 6.592499999999999)"
      fill="white" stroke="none"/>
    <circle 
      cx="106.79907342409624" cy="-12.603636436475764"
      r="15" transform="translate(106.79907342409624 -6.603636436475764) scale(0.00001 -0.00001) translate(-106.79907342409624 6.603636436475764) translate(106.8125 -6.592499999999999) rotate(-30) translate(-106.8125 6.592499999999999)"
      fill="white" stroke="none"/>
    <circle 
      cx="106.79760905238226" cy="-12.604664330066413"
      r="15" transform="translate(106.79760905238226 -6.604664330066414) scale(0.00001 -0.00001) translate(-106.79760905238226 6.604664330066414) translate(106.8125 -6.592499999999999) rotate(-30) translate(-106.8125 6.592499999999999)"
      fill="white" stroke="none"/>
    <circle 
      cx="106.79693730690433" cy="-12.6047458319464"
      r="15" transform="translate(106.79693730690433 -6.604745831946399) scale(0.00001 -0.00001) translate(-106.79693730690433 6.604745831946399) translate(106.8125 -6.592499999999999) rotate(-30) translate(-106.8125 6.592499999999999)"
      fill="white" stroke="none"/>
    <circle 
      cx="106.7953092113718" cy="-12.604612752596928"
      r="15" transform="translate(106.7953092113718 -6.604612752596928) scale(0.00001 -0.00001) translate(-106.7953092113718 6.604612752596928) translate(106.8125 -6.592499999999999) rotate(-30) translate(-106.8125 6.592499999999999)"
      fill="white" stroke="none"/>
    <circle 
      cx="106.79286564572801" cy="-12.596914706216005"
      r="15" transform="translate(106.79286564572801 -6.596914706216006) scale(0.00001 -0.00001) translate(-106.79286564572801 6.596914706216006) translate(106.8125 -6.592499999999999) rotate(-30) translate(-106.8125 6.592499999999999)"
      fill="white" stroke="none"/>
    <circle 
      cx="106.79375735661644" cy="-12.593824176308532"
      r="15" transform="translate(106.79375735661644 -6.593824176308532) scale(0.00001 -0.00001) translate(-106.79375735661644 6.593824176308532) translate(106.8125 -6.592499999999999) rotate(-30) translate(-106.8125 6.592499999999999)"
      fill="white" stroke="none"/>
    <circle 
      cx="106.79725495482212" cy="-12.591881066194269"
      r="15" transform="translate(106.79725495482212 -6.5918810661942695) scale(0.00001 -0.00001) translate(-106.79725495482212 6.5918810661942695) translate(106.8125 -6.592499999999999) rotate(-30) translate(-106.8125 6.592499999999999)"
      fill="white" stroke="none"/>
    <circle 
      cx="106.8023258050161" cy="-12.592066368031189"
      r="15" transform="translate(106.8023258050161 -6.592066368031189) scale(0.00001 -0.00001) translate(-106.8023258050161 6.592066368031189) translate(106.8125 -6.592499999999999) rotate(-30) translate(-106.8125 6.592499999999999)"
      fill="white" stroke="none"/>
    <circle 
      cx="106.80334301609489" cy="-12.593103742132918"
      r="15" transform="translate(106.80334301609489 -6.593103742132919) scale(0.00001 -0.00001) translate(-106.80334301609489 6.593103742132919) translate(106.8125 -6.592499999999999) rotate(-30) translate(-106.8125 6.592499999999999)"
      fill="white" stroke="none"/>
    <circle 
      cx="106.8053586583447" cy="-12.595501647593952"
      r="15" transform="translate(106.8053586583447 -6.595501647593951) scale(0.00001 -0.00001) translate(-106.8053586583447 6.595501647593951) translate(106.8125 -6.592499999999999) rotate(-30) translate(-106.8125 6.592499999999999)"
      fill="white" stroke="none"/>
    <circle 
      cx="106.80605220382371" cy="-12.601293470572859"
      r="15" transform="translate(106.80605220382371 -6.601293470572858) scale(0.00001 -0.00001) translate(-106.80605220382371 6.601293470572858) translate(106.8125 -6.592499999999999) rotate(-30) translate(-106.8125 6.592499999999999)"
      fill="white" stroke="none"/>
    <circle 
      cx="106.8050187185294" cy="-12.601660809478602"
      r="15" transform="translate(106.8050187185294 -6.601660809478602) scale(0.00001 -0.00001) translate(-106.8050187185294 6.601660809478602) translate(106.8125 -6.592499999999999) rotate(-30) translate(-106.8125 6.592499999999999)"
      fill="white" stroke="none"/>
    <circle 
      cx="106.80687934191495" cy="-12.603784589743462"
      r="15" transform="translate(106.80687934191495 -6.603784589743462) scale(0.00001 -0.00001) translate(-106.80687934191495 6.603784589743462) translate(106.8125 -6.592499999999999) rotate(-30) translate(-106.8125 6.592499999999999)"
      fill="white" stroke="none"/>
    <circle 
      cx="106.80767240276417" cy="-12.604587580289714"
      r="15" transform="translate(106.80767240276417 -6.604587580289713) scale(0.00001 -0.00001) translate(-106.80767240276417 6.604587580289713) translate(106.8125 -6.592499999999999) rotate(-30) translate(-106.8125 6.592499999999999)"
      fill="white" stroke="none"/>
    <circle 
      cx="106.80993575864001" cy="-12.607519383042778"
      r="15" transform="translate(106.80993575864001 -6.607519383042777) scale(0.00001 -0.00001) translate(-106.80993575864001 6.607519383042777) translate(106.8125 -6.592499999999999) rotate(-30) translate(-106.8125 6.592499999999999)"
      fill="white" stroke="none"/>
    <text x="106.81375415358526" y="-6.6004155381457466" fill="black" text-anchor="middle" transform="translate(106.81375415358526 -6.6004155381457466) scale(0.00001 -0.00001) translate(-106.81375415358526 6.6004155381457466) translate(106.8125 -6.592499999999999) rotate(-30) translate(-106.8125 6.592499999999999)">06</text>
    <text x="106.81388531472483" y="-6.600813413061327" fill="black" text-anchor="middle" transform="translate(106.81388531472483 -6.600813413061327) scale(0.00001 -0.00001) translate(-106.81388531472483 6.600813413061327) translate(106.8125 -6.592499999999999) rotate(-30) translate(-106.8125 6.592499999999999)">06</text>
    <text x="106.8103778064358" y="-6.607916163912306" fill="black" text-anchor="middle" transform="translate(106.8103778064358 -6.607916163912306) scale(0.00001 -0.00001) translate(-106.8103778064358 6.607916163912306) translate(106.8125 -6.592499999999999) rotate(-30) translate(-106.8125 6.592499999999999)">06</text>
    <text x="106.81136323169414" y="-6.610213739927847" fill="black" text-anchor="middle" transform="translate(106.81136323169414 -6.610213739927847) scale(0.00001 -0.00001) translate(-106.81136323169414 6.610213739927847) translate(106.8125 -6.592499999999999) rotate(-30) translate(-106.8125 6.592499999999999)">06</text>
    <text x="106.80427349027207" y="-6.602275965980291" fill="black" text-anchor="middle" transform="translate(106.80427349027207 -6.602275965980291) scale(0.00001 -0.00001) translate(-106.80427349027207 6.602275965980291) translate(106.8125 -6.592499999999999) rotate(-30) translate(-106.8125 6.592499999999999)">06</text>
    <text x="106.79988470274698" y="-6.603320396337357" fill="black" text-anchor="middle" transform="translate(106.79988470274698 -6.603320396337357) scale(0.00001 -0.00001) translate(-106.79988470274698 6.603320396337357) translate(106.8125 -6.592499999999999) rotate(-30) translate(-106.8125 6.592499999999999)">06</text>
    <text x="106.79966687370799" y="-6.603610835055998" fill="black" text-anchor="middle" transform="translate(106.79966687370799 -6.603610835055998) scale(0.00001 -0.00001) translate(-106.79966687370799 6.603610835055998) translate(106.8125 -6.592499999999999) rotate(-30) translate(-106.8125 6.592499999999999)">06</text>
    <text x="106.79907342409624" y="-6.603636436475764" fill="black" text-anchor="middle" transform="translate(106.79907342409624 -6.603636436475764) scale(0.00001 -0.00001) translate(-106.79907342409624 6.603636436475764) translate(106.8125 -6.592499999999999) rotate(-30) translate(-106.8125 6.592499999999999)">06</text>
    <text x="106.79760905238226" y="-6.604664330066414" fill="black" text-anchor="middle" transform="translate(106.79760905238226 -6.604664330066414) scale(0.00001 -0.00001) translate(-106.79760905238226 6.604664330066414) translate(106.8125 -6.592499999999999) rotate(-30) translate(-106.8125 6.592499999999999)">06</text>
    <text x="106.79693730690433" y="-6.604745831946399" fill="black" text-anchor="middle" transform="translate(106.79693730690433 -6.604745831946399) scale(0.00001 -0.00001) translate(-106.79693730690433 6.604745831946399) translate(106.8125 -6.592499999999999) rotate(-30) translate(-106.8125 6.592499999999999)">06</text>
    <text x="106.7953092113718" y="-6.604612752596928" fill="black" text-anchor="middle" transform="translate(106.7953092113718 -6.604612752596928) scale(0.00001 -0.00001) translate(-106.7953092113718 6.604612752596928) translate(106.8125 -6.592499999999999) rotate(-30) translate(-106.8125 6.592499999999999)">06</text>
    <text x="106.79286564572801" y="-6.596914706216006" fill="black" text-anchor="middle" transform="translate(106.79286564572801 -6.596914706216006) scale(0.00001 -0.00001) translate(-106.79286564572801 6.596914706216006) translate(106.8125 -6.592499999999999) rotate(-30) translate(-106.8125 6.592499999999999)">06</text>
    <text x="106.79375735661644" y="-6.593824176308532" fill="black" text-anchor="middle" transform="translate(106.79375735661644 -6.593824176308532) scale(0.00001 -0.00001) translate(-106.79375735661644 6.593824176308532) translate(106.8125 -6.592499999999999) rotate(-30) translate(-106.8125 6.592499999999999)">06</text>
    <text x="106.79725495482212" y="-6.5918810661942695" fill="black" text-anchor="middle" transform="translate(106.79725495482212 -6.5918810661942695) scale(0.00001 -0.00001) translate(-106.79725495482212 6.5918810661942695) translate(106.8125 -6.592499999999999) rotate(-30) translate(-106.8125 6.592499999999999)">06</text>
    <text x="106.8023258050161" y="-6.592066368031189" fill="black" text-anchor="middle" transform="translate(106.8023258050161 -6.592066368031189) scale(0.00001 -0.00001) translate(-106.8023258050161 6.592066368031189) translate(106.8125 -6.592499999999999) rotate(-30) translate(-106.8125 6.592499999999999)">06</text>
    <text x="106.80334301609489" y="-6.593103742132919" fill="black" text-anchor="middle" transform="translate(106.80334301609489 -6.593103742132919) scale(0.00001 -0.00001) translate(-106.80334301609489 6.593103742132919) translate(106.8125 -6.592499999999999) rotate(-30) translate(-106.8125 6.592499999999999)">06</text>
    <text x="106.8053586583447" y="-6.595501647593951" fill="black" text-anchor="middle" transform="translate(106.8053586583447 -6.595501647593951) scale(0.00001 -0.00001) translate(-106.8053586583447 6.595501647593951) translate(106.8125 -6.592499999999999) rotate(-30) translate(-106.8125 6.592499999999999)">06</text>
    <text x="106.80605220382371" y="-6.601293470572858" fill="black" text-anchor="middle" transform="translate(106.80605220382371 -6.601293470572858) scale(0.00001 -0.00001) translate(-106.80605220382371 6.601293470572858) translate(106.8125 -6.592499999999999) rotate(-30) translate(-106.8125 6.592499999999999)">06</text>
    <text x="106.8050187185294" y="-6.601660809478602" fill="black" text-anchor="middle" transform="translate(106.8050187185294 -6.601660809478602) scale(0.00001 -0.00001) translate(-106.8050187185294 6.601660809478602) translate(106.8125 -6.592499999999999) rotate(-30) translate(-106.8125 6.592499999999999)">06</text>
    <text x="106.80687934191495" y="-6.603784589743462" fill="black" text-anchor="middle" transform="translate(106.80687934191495 -6.603784589743462) scale(0.00001 -0.00001) translate(-106.80687934191495 6.603784589743462) translate(106.8125 -6.592499999999999) rotate(-30) translate(-106.8125 6.592499999999999)">06</text>
    <text x="106.80767240276417" y="-6.604587580289713" fill="black" text-anchor="middle" transform="translate(106.80767240276417 -6.604587580289713) scale(0.00001 -0.00001) translate(-106.80767240276417 6.604587580289713) translate(106.8125 -6.592499999999999) rotate(-30) translate(-106.8125 6.592499999999999)">06</text>
    <text x="106.80993575864001" y="-6.607519383042777" fill="black" text-anchor="middle" transform="translate(106.80993575864001 -6.607519383042777) scale(0.00001 -0.00001) translate(-106.80993575864001 6.607519383042777) translate(106.8125 -6.592499999999999) rotate(-30) translate(-106.8125 6.592499999999999)">06</text>
    <line x1="106.8126" y1="-6.599" x2="106.8137" y2="-6.6007" style="stroke:rgb(255,0,0);stroke-width:.00002" />
    <line x1="106.81276791403144" y1="-6.5988913497443695" x2="106.81386791403143" y2="-6.600591349744369" style="stroke:rgb(0,0,0);stroke-width:.00002" />
    <circle cx="106.8126" cy="-6.599" fill="rgb(255,0,0)" r=".0001" />
    <text x="106.8126" y="-6.599" stroke="rgb(0,0,0)" transform="translate(106.8126 -6.599),scale(0.00001 -0.00001),translate(-106.8126 6.599),translate(106.8125 -6.592499999999999),rotate(-30),translate(-106.8125 6.592499999999999)" >ciheuleut-tegallega</text>
    <line x1="106.8137" y1="-6.6007" x2="106.8172" y2="-6.5982" style="stroke:rgb(255,0,0);stroke-width:.00002" />
    <line x1="106.81358375236125" y1="-6.600537253305759" x2="106.81708375236126" y2="-6.598037253305759" style="stroke:rgb(0,0,0);stroke-width:.00002" />
    <circle cx="106.8137" cy="-6.6007" fill="rgb(255,0,0)" r=".0001" />
    <text x="106.8137" y="-6.6007" stroke="rgb(0,0,0)" transform="translate(106.8137 -6.6007),scale(0.00001 -0.00001),translate(-106.8137 6.6007),translate(106.8125 -6.592499999999999),rotate(-30),translate(-106.8125 6.592499999999999)" >ciheuleut-binamarga</text>
    <line x1="106.8172" y1="-6.5982" x2="106.8137" y2="-6.6007" style="stroke:rgb(255,0,0);stroke-width:.00002" />
    <line x1="106.81731624763874" y1="-6.598362746694241" x2="106.81381624763874" y2="-6.600862746694241" style="stroke:rgb(0,0,0);stroke-width:.00002" />
    <circle cx="106.8172" cy="-6.5982" fill="rgb(255,0,0)" r=".0001" />
    <text x="106.8172" y="-6.5982" stroke="rgb(0,0,0)" transform="translate(106.8172 -6.5982),scale(0.00001 -0.00001),translate(-106.8172 6.5982),translate(106.8125 -6.592499999999999),rotate(-30),translate(-106.8125 6.592499999999999)" >padi-jagung</text>
    <line x1="106.8137" y1="-6.6007" x2="106.813" y2="-6.6054" style="stroke:rgb(255,0,0);stroke-width:.00002" />
    <line x1="106.81389781803557" y1="-6.600729462260618" x2="106.81319781803558" y2="-6.605429462260618" style="stroke:rgb(0,0,0);stroke-width:.00002" />
    <circle cx="106.8137" cy="-6.6007" fill="rgb(255,0,0)" r=".0001" />
    <text x="106.8137" y="-6.6007" stroke="rgb(0,0,0)" transform="translate(106.8137 -6.6007),scale(0.00001 -0.00001),translate(-106.8137 6.6007),translate(106.8125 -6.592499999999999),rotate(-30),translate(-106.8125 6.592499999999999)" >ciheuleut-binamarga</text>
    <line x1="106.813" y1="-6.6054" x2="106.8099" y2="-6.6078" style="stroke:rgb(255,0,0);stroke-width:.00002" />
    <line x1="106.8131224346386" y1="-6.605558144741523" x2="106.8101448692772" y2="-6.608116289483045" style="stroke:rgb(0,0,0);stroke-width:.00002" />
    <circle cx="106.813" cy="-6.6054" fill="rgb(255,0,0)" r=".0001" />
    <text x="106.813" y="-6.6054" stroke="rgb(0,0,0)" transform="translate(106.813 -6.6054),scale(0.00001 -0.00001),translate(-106.813 6.6054),translate(106.8125 -6.592499999999999),rotate(-30),translate(-106.8125 6.592499999999999)" >ciheuleut-pakuanindah</text>
    <line x1="106.8099" y1="-6.6078" x2="106.8105" y2="-6.6087" style="stroke:rgb(255,0,0);stroke-width:.00002" />
    <line x1="106.81023282011773" y1="-6.6075781199215085" x2="106.81066641005887" y2="-6.608589059960754" style="stroke:rgb(0,0,0);stroke-width:.00002" />
    <circle cx="106.8099" cy="-6.6078" fill="rgb(255,0,0)" r=".0001" />
    <text x="106.8099" y="-6.6078" stroke="rgb(0,0,0)" transform="translate(106.8099 -6.6078),scale(0.00001 -0.00001),translate(-106.8099 6.6078),translate(106.8125 -6.592499999999999),rotate(-30),translate(-106.8125 6.592499999999999)" >pajajaran-ciheuleut</text>
    <line x1="106.8105" y1="-6.6087" x2="106.805305" y2="-6.601624" style="stroke:rgb(255,0,0);stroke-width:.00002" />
    <line x1="106.81033878349042" y1="-6.608818360622844" x2="106.80514378349042" y2="-6.601742360622844" style="stroke:rgb(0,0,0);stroke-width:.00002" />
    <circle cx="106.8105" cy="-6.6087" fill="rgb(255,0,0)" r=".0001" />
    <text x="106.8105" y="-6.6087" stroke="rgb(0,0,0)" transform="translate(106.8105 -6.6087),scale(0.00001 -0.00001),translate(-106.8105 6.6087),translate(106.8125 -6.592499999999999),rotate(-30),translate(-106.8125 6.592499999999999)" >pajajaran-michelle-bakery</text>
    <line x1="106.805305" y1="-6.601624" x2="106.804329" y2="-6.601646" style="stroke:rgb(255,0,0);stroke-width:.00002" />
    <line x1="106.80530950705186" y1="-6.60182394920976" x2="106.80434252115558" y2="-6.602245847629279" style="stroke:rgb(0,0,0);stroke-width:.00002" />
    <circle cx="106.805305" cy="-6.601624" fill="rgb(255,0,0)" r=".0001" />
    <text x="106.805305" y="-6.601624" stroke="rgb(0,0,0)" transform="translate(106.805305 -6.601624),scale(0.00001 -0.00001),translate(-106.805305 6.601624),translate(106.8125 -6.592499999999999),rotate(-30),translate(-106.8125 6.592499999999999)" >pajajaran-otista</text>
    <line x1="106.804329" y1="-6.601646" x2="106.7999" y2="-6.6027" style="stroke:rgb(255,0,0);stroke-width:.00002" />
    <line x1="106.80446790698598" y1="-6.602229699279805" x2="106.80003890698598" y2="-6.603283699279805" style="stroke:rgb(0,0,0);stroke-width:.00002" />
    <circle cx="106.804329" cy="-6.601646" fill="rgb(255,0,0)" r=".0001" />
    <text x="106.804329" y="-6.601646" stroke="rgb(0,0,0)" transform="translate(106.804329 -6.601646),scale(0.00001 -0.00001),translate(-106.804329 6.601646),translate(106.8125 -6.592499999999999),rotate(-30),translate(-106.8125 6.592499999999999)" >bangka-otista</text>
    <line x1="106.7999" y1="-6.6027" x2="106.7996" y2="-6.6027" style="stroke:rgb(255,0,0);stroke-width:.00002" />
    <line x1="106.7999" y1="-6.6033" x2="106.7996" y2="-6.6037" style="stroke:rgb(0,0,0);stroke-width:.00002" />
    <circle cx="106.7999" cy="-6.6027" fill="rgb(255,0,0)" r=".0001" />
    <text x="106.7999" y="-6.6027" stroke="rgb(0,0,0)" transform="translate(106.7999 -6.6027),scale(0.00001 -0.00001),translate(-106.7999 6.6027),translate(106.8125 -6.592499999999999),rotate(-30),translate(-106.8125 6.592499999999999)" >otista-roda</text>
    <line x1="106.7996" y1="-6.6027" x2="106.7988" y2="-6.6031" style="stroke:rgb(255,0,0);stroke-width:.00002" />
    <line x1="106.8000472135955" y1="-6.603594427190998" x2="106.7990683281573" y2="-6.6036366563146" style="stroke:rgb(0,0,0);stroke-width:.00002" />
    <circle cx="106.7996" cy="-6.6027" fill="rgb(255,0,0)" r=".0001" />
    <text x="106.7996" y="-6.6027" stroke="rgb(0,0,0)" transform="translate(106.7996 -6.6027),scale(0.00001 -0.00001),translate(-106.7996 6.6027),translate(106.8125 -6.592499999999999),rotate(-30),translate(-106.8125 6.592499999999999)" >kb-otista</text>
    <line x1="106.7988" y1="-6.6031" x2="106.797256" y2="-6.603941" style="stroke:rgb(255,0,0);stroke-width:.00002" />
    <line x1="106.79908700039842" y1="-6.603626906795658" x2="106.79763866719789" y2="-6.604643542394211" style="stroke:rgb(0,0,0);stroke-width:.00002" />
    <circle cx="106.7988" cy="-6.6031" fill="rgb(255,0,0)" r=".0001" />
    <text x="106.7988" y="-6.6031" stroke="rgb(0,0,0)" transform="translate(106.7988 -6.6031),scale(0.00001 -0.00001),translate(-106.7988 6.6031),translate(106.8125 -6.592499999999999),rotate(-30),translate(-106.8125 6.592499999999999)" >kb-suryakencana</text>
    <line x1="106.797256" y1="-6.603941" x2="106.7967" y2="-6.6042" style="stroke:rgb(255,0,0);stroke-width:.00002" />
    <line x1="106.79759380847659" y1="-6.604666179586821" x2="106.79695335635745" y2="-6.604743884690116" style="stroke:rgb(0,0,0);stroke-width:.00002" />
    <circle cx="106.797256" cy="-6.603941" fill="rgb(255,0,0)" r=".0001" />
    <text x="106.797256" y="-6.603941" stroke="rgb(0,0,0)" transform="translate(106.797256 -6.603941),scale(0.00001 -0.00001),translate(-106.797256 6.603941),translate(106.8125 -6.592499999999999),rotate(-30),translate(-106.8125 6.592499999999999)" >cincau-kb</text>
    <line x1="106.7967" y1="-6.6042" x2="106.7961" y2="-6.6038" style="stroke:rgb(255,0,0);stroke-width:.00002" />
    <line x1="106.79636717988227" y1="-6.604699230176604" x2="106.79554529980378" y2="-6.60463205029434" style="stroke:rgb(0,0,0);stroke-width:.00002" />
    <circle cx="106.7967" cy="-6.6042" fill="rgb(255,0,0)" r=".0001" />
    <text x="106.7967" y="-6.6042" stroke="rgb(0,0,0)" transform="translate(106.7967 -6.6042),scale(0.00001 -0.00001),translate(-106.7967 6.6042),translate(106.8125 -6.592499999999999),rotate(-30),translate(-106.8125 6.592499999999999)" >kb-btm-1</text>
    <line x1="106.7961" y1="-6.6038" x2="106.7937" y2="-6.5969" style="stroke:rgb(255,0,0);stroke-width:.00002" />
    <line x1="106.79515550320329" y1="-6.60412852062494" x2="106.79294440256264" y2="-6.597162816499952" style="stroke:rgb(0,0,0);stroke-width:.00002" />
    <circle cx="106.7961" cy="-6.6038" fill="rgb(255,0,0)" r=".0001" />
    <text x="106.7961" y="-6.6038" stroke="rgb(0,0,0)" transform="translate(106.7961 -6.6038),scale(0.00001 -0.00001),translate(-106.7961 6.6038),translate(106.8125 -6.592499999999999),rotate(-30),translate(-106.8125 6.592499999999999)" >kb-btm-2</text>
    <line x1="106.7937" y1="-6.5969" x2="106.7946" y2="-6.5945" style="stroke:rgb(255,0,0);stroke-width:.00002" />
    <line x1="106.79295093665795" y1="-6.596619101246729" x2="106.79366367082244" y2="-6.594148876558411" style="stroke:rgb(0,0,0);stroke-width:.00002" />
    <circle cx="106.7937" cy="-6.5969" fill="rgb(255,0,0)" r=".0001" />
    <text x="106.7937" y="-6.5969" stroke="rgb(0,0,0)" transform="translate(106.7937 -6.5969),scale(0.00001 -0.00001),translate(-106.7937 6.5969),translate(106.8125 -6.592499999999999),rotate(-30),translate(-106.8125 6.592499999999999)" >kb-muslihat</text>
    <line x1="106.7946" y1="-6.5945" x2="106.7973" y2="-6.593" style="stroke:rgb(255,0,0);stroke-width:.00002" />
    <line x1="106.79411435706882" y1="-6.5936258427238785" x2="106.79681435706883" y2="-6.5921258427238785" style="stroke:rgb(0,0,0);stroke-width:.00002" />
    <circle cx="106.7946" cy="-6.5945" fill="rgb(255,0,0)" r=".0001" />
    <text x="106.7946" y="-6.5945" stroke="rgb(0,0,0)" transform="translate(106.7946 -6.5945),scale(0.00001 -0.00001),translate(-106.7946 6.5945),translate(106.8125 -6.592499999999999),rotate(-30),translate(-106.8125 6.592499999999999)" >kb-gedong-sawah</text>
    <line x1="106.7973" y1="-6.593" x2="106.7984" y2="-6.5935" style="stroke:rgb(255,0,0);stroke-width:.00002" />
    <line x1="106.79771380294432" y1="-6.592089633522538" x2="106.79881380294431" y2="-6.592589633522538" style="stroke:rgb(0,0,0);stroke-width:.00002" />
    <circle cx="106.7973" cy="-6.593" fill="rgb(255,0,0)" r=".0001" />
    <text x="106.7973" y="-6.593" stroke="rgb(0,0,0)" transform="translate(106.7973 -6.593),scale(0.00001 -0.00001),translate(-106.7973 6.593),translate(106.8125 -6.592499999999999),rotate(-30),translate(-106.8125 6.592499999999999)" >kb-polisi-militer</text>
    <line x1="106.7984" y1="-6.5935" x2="106.800814" y2="-6.592262" style="stroke:rgb(255,0,0);stroke-width:.00002" />
    <line x1="106.79794366838573" y1="-6.592610190212563" x2="106.80035766838573" y2="-6.591372190212563" style="stroke:rgb(0,0,0);stroke-width:.00002" />
    <circle cx="106.7984" cy="-6.5935" fill="rgb(255,0,0)" r=".0001" />
    <text x="106.7984" y="-6.5935" stroke="rgb(0,0,0)" transform="translate(106.7984 -6.5935),scale(0.00001 -0.00001),translate(-106.7984 6.5935),translate(106.8125 -6.592499999999999),rotate(-30),translate(-106.8125 6.592499999999999)" >kb-jalak-harupat</text>
    <line x1="106.800814" y1="-6.592262" x2="106.801806" y2="-6.592667" style="stroke:rgb(255,0,0);stroke-width:.00002" />
    <line x1="106.80119197862885" y1="-6.591336185679452" x2="106.80210838290309" y2="-6.591926348543562" style="stroke:rgb(0,0,0);stroke-width:.00002" />
    <circle cx="106.800814" cy="-6.592262" fill="rgb(255,0,0)" r=".0001" />
    <text x="106.800814" y="-6.592262" stroke="rgb(0,0,0)" transform="translate(106.800814 -6.592262),scale(0.00001 -0.00001),translate(-106.800814 6.592262),translate(106.8125 -6.592499999999999),rotate(-30),translate(-106.8125 6.592499999999999)" >kb-sempur</text>
    <line x1="106.801806" y1="-6.592667" x2="106.8029" y2="-6.5935" style="stroke:rgb(255,0,0);stroke-width:.00002" />
    <line x1="106.80229064172865" y1="-6.592030507741722" x2="106.80326348129648" y2="-6.593022630806292" style="stroke:rgb(0,0,0);stroke-width:.00002" />
    <circle cx="106.801806" cy="-6.592667" fill="rgb(255,0,0)" r=".0001" />
    <text x="106.801806" y="-6.592667" stroke="rgb(0,0,0)" transform="translate(106.801806 -6.592667),scale(0.00001 -0.00001),translate(-106.801806 6.592667),translate(106.8125 -6.592499999999999),rotate(-30),translate(-106.8125 6.592499999999999)" >kb-salak</text>
    <line x1="106.8029" y1="-6.5935" x2="106.8044" y2="-6.5959" style="stroke:rgb(255,0,0);stroke-width:.00002" />
    <line x1="106.8034087989824" y1="-6.593182000635997" x2="106.80524799830401" y2="-6.595370001059996" style="stroke:rgb(0,0,0);stroke-width:.00002" />
    <circle cx="106.8029" cy="-6.5935" fill="rgb(255,0,0)" r=".0001" />
    <text x="106.8029" y="-6.5935" stroke="rgb(0,0,0)" transform="translate(106.8029 -6.5935),scale(0.00001 -0.00001),translate(-106.8029 6.5935),translate(106.8125 -6.592499999999999),rotate(-30),translate(-106.8125 6.592499999999999)" >kb-pangrango</text>
    <line x1="106.8044" y1="-6.5959" x2="106.8052" y2="-6.6009" style="stroke:rgb(255,0,0);stroke-width:.00002" />
    <line x1="106.80538744063192" y1="-6.595742009498894" x2="106.80598995250553" y2="-6.600773607599115" style="stroke:rgb(0,0,0);stroke-width:.00002" />
    <circle cx="106.8044" cy="-6.5959" fill="rgb(255,0,0)" r=".0001" />
    <text x="106.8044" y="-6.5959" stroke="rgb(0,0,0)" transform="translate(106.8044 -6.5959),scale(0.00001 -0.00001),translate(-106.8044 6.5959),translate(106.8125 -6.592499999999999),rotate(-30),translate(-106.8125 6.592499999999999)" >kb-astrid</text>
    <line x1="106.8052" y1="-6.6009" x2="106.8047" y2="-6.6016" style="stroke:rgb(255,0,0);stroke-width:.00002" />
    <line x1="106.80585098677696" y1="-6.601364990554977" x2="106.80486274669424" y2="-6.601716247638745" style="stroke:rgb(0,0,0);stroke-width:.00002" />
    <circle cx="106.8052" cy="-6.6009" fill="rgb(255,0,0)" r=".0001" />
    <text x="106.8052" y="-6.6009" stroke="rgb(0,0,0)" transform="translate(106.8052 -6.6009),scale(0.00001 -0.00001),translate(-106.8052 6.6009),translate(106.8125 -6.592499999999999),rotate(-30),translate(-106.8125 6.592499999999999)" >kb-botani-1</text>
    <line x1="106.8047" y1="-6.6016" x2="106.8068" y2="-6.6043" style="stroke:rgb(255,0,0);stroke-width:.00002" />
    <line x1="106.80485787044347" y1="-6.601477211877297" x2="106.80711574088694" y2="-6.604054423754595" style="stroke:rgb(0,0,0);stroke-width:.00002" />
    <circle cx="106.8047" cy="-6.6016" fill="rgb(255,0,0)" r=".0001" />
    <text x="106.8047" y="-6.6016" stroke="rgb(0,0,0)" transform="translate(106.8047 -6.6016),scale(0.00001 -0.00001),translate(-106.8047 6.6016),translate(106.8125 -6.592499999999999),rotate(-30),translate(-106.8125 6.592499999999999)" >kb-botani-2</text>
    <line x1="106.8068" y1="-6.6043" x2="106.8111" y2="-6.6017" style="stroke:rgb(255,0,0);stroke-width:.00002" />
    <line x1="106.80659303226443" y1="-6.603957707206568" x2="106.81089303226443" y2="-6.601357707206568" style="stroke:rgb(0,0,0);stroke-width:.00002" />
    <circle cx="106.8068" cy="-6.6043" fill="rgb(255,0,0)" r=".0001" />
    <text x="106.8068" y="-6.6043" stroke="rgb(0,0,0)" transform="translate(106.8068 -6.6043),scale(0.00001 -0.00001),translate(-106.8068 6.6043),translate(106.8125 -6.592499999999999),rotate(-30),translate(-106.8125 6.592499999999999)" >tol-1</text>
    <line x1="106.8111" y1="-6.6017" x2="106.8071" y2="-6.6045" style="stroke:rgb(255,0,0);stroke-width:.00002" />
    <line x1="106.81132938493774" y1="-6.602027692768208" x2="106.80732938493774" y2="-6.6048276927682075" style="stroke:rgb(0,0,0);stroke-width:.00002" />
    <circle cx="106.8111" cy="-6.6017" fill="rgb(255,0,0)" r=".0001" />
    <text x="106.8111" y="-6.6017" stroke="rgb(0,0,0)" transform="translate(106.8111 -6.6017),scale(0.00001 -0.00001),translate(-106.8111 6.6017),translate(106.8125 -6.592499999999999),rotate(-30),translate(-106.8125 6.592499999999999)" >tol-2</text>
    <line x1="106.8071" y1="-6.6045" x2="106.8099" y2="-6.6078" style="stroke:rgb(255,0,0);stroke-width:.00002" />
    <line x1="106.80740500365415" y1="-6.6042412090207225" x2="106.81005250182707" y2="-6.6076706045103615" style="stroke:rgb(0,0,0);stroke-width:.00002" />
    <circle cx="106.8071" cy="-6.6045" fill="rgb(255,0,0)" r=".0001" />
    <text x="106.8071" y="-6.6045" stroke="rgb(0,0,0)" transform="translate(106.8071 -6.6045),scale(0.00001 -0.00001),translate(-106.8071 6.6045),translate(106.8125 -6.592499999999999),rotate(-30),translate(-106.8125 6.592499999999999)" >tol-3</text>
    <line x1="106.8099" y1="-6.6078" x2="106.813" y2="-6.6054" style="stroke:rgb(255,0,0);stroke-width:.00002" />
    <line x1="106.8097775653614" y1="-6.6076418552584775" x2="106.8128775653614" y2="-6.605241855258478" style="stroke:rgb(0,0,0);stroke-width:.00002" />
    <circle cx="106.8099" cy="-6.6078" fill="rgb(255,0,0)" r=".0001" />
    <text x="106.8099" y="-6.6078" stroke="rgb(0,0,0)" transform="translate(106.8099 -6.6078),scale(0.00001 -0.00001),translate(-106.8099 6.6078),translate(106.8125 -6.592499999999999),rotate(-30),translate(-106.8125 6.592499999999999)" >pajajaran-ciheuleut</text>
    <line x1="106.813" y1="-6.6054" x2="106.8137" y2="-6.6007" style="stroke:rgb(255,0,0);stroke-width:.00002" />
    <line x1="106.81280218196443" y1="-6.6053705377393825" x2="106.81350218196442" y2="-6.600670537739382" style="stroke:rgb(0,0,0);stroke-width:.00002" />
    <circle cx="106.813" cy="-6.6054" fill="rgb(255,0,0)" r=".0001" />
    <text x="106.813" y="-6.6054" stroke="rgb(0,0,0)" transform="translate(106.813 -6.6054),scale(0.00001 -0.00001),translate(-106.813 6.6054),translate(106.8125 -6.592499999999999),rotate(-30),translate(-106.8125 6.592499999999999)" >ciheuleut-pakuanindah</text>
    <line x1="106.8137" y1="-6.6007" x2="106.8126" y2="-6.599" style="stroke:rgb(255,0,0);stroke-width:.00002" />
    <line x1="106.81353208596856" y1="-6.6008086502556305" x2="106.81243208596857" y2="-6.599108650255631" style="stroke:rgb(0,0,0);stroke-width:.00002" />
    <circle cx="106.8137" cy="-6.6007" fill="rgb(255,0,0)" r=".0001" />
    <text x="106.8137" y="-6.6007" stroke="rgb(0,0,0)" transform="translate(106.8137 -6.6007),scale(0.00001 -0.00001),translate(-106.8137 6.6007),translate(106.8125 -6.592499999999999),rotate(-30),translate(-106.8125 6.592499999999999)" >ciheuleut-binamarga</text>
    <line x1="106.8126" y1="-6.599" x2="106.8126" y2="-6.599" style="stroke:rgb(255,0,0);stroke-width:.00002" />
    <line x1="106.8126" y1="-6.599" x2="106.8126" y2="-6.599" style="stroke:rgb(0,0,0);stroke-width:.00002" />
    <circle cx="106.8126" cy="-6.599" fill="rgb(255,0,0)" r=".0001" />
    <text x="106.8126" y="-6.599" stroke="rgb(0,0,0)" transform="translate(106.8126 -6.599),scale(0.00001 -0.00001),translate(-106.8126 6.599),translate(106.8125 -6.592499999999999),rotate(-30),translate(-106.8125 6.592499999999999)" >ciheuleut-tegallega</text>
  </g>
</svg>
