<svg width="1049.9999999998977" height="1849.9999999999961" xmlns="http://www.w3.org/2000/svg" xmlns:xlink="http://www.w3.org/1999/xlink" >
  <g transform="translate(524.9999999999488 924.9999999999981) rotate(30) scale(10000 -10000) translate(-106.8125 6.592499999999999)">
    <path d="M106.76 -6.5 L106.865 -6.5 L106.865 -6.685 L106.76 -6.685 Z" fill="none" stroke="black" stroke-width="0.001" transform="translate(106.8125 -6.592499999999999) rotate(30) translate(-106.8125 6.592499999999999)" />
    <path d="M106.79585287141377 -6.593575168544776 L106.79585287141377 -6.593575168544776 L106.79729099096443 -6.592776213238852 L106.79793276058888 -6.593067926704507 L106.79793276058888 -6.593067926704507 L106.79839475350329 -6.593277923483788 L106.79951573367715 -6.5927030380425125 L106.79951573367715 -6.5927030380425125 L106.80080451023176 -6.5920420996106115 L106.80138559572578 -6.59227933713589 L106.80138559572578 -6.59227933713589 L106.8019061012046 -6.59249184189287 L106.80247416043215 -6.59292437693543 L106.80247416043215 -6.59292437693543 L106.8030502329864 -6.593363013532941 L106.80381959966081 -6.594594000211998 L106.80381959966081 -6.594594000211998 L106.80459108379459 -6.595828374826043 L106.80499748812639 -6.598368401899778 L106.80499748812639 -6.598368401899778 L106.80541045645762 -6.600949453970016 L106.80511274669423 -6.601366247638745 L106.80511274669423 -6.601366247638745 L106.80481778452942 -6.60177919466951 L106.80219216757445 -6.602345504208817 L106.80219216757445 -6.602345504208817 L106.79966685439426 -6.602890179600621 L106.7992894427191 -6.6030788854382 L106.7992894427191 -6.6030788854382 L106.7990725366508 -6.603187338472349 L106.79942675758328 -6.603856422455916 L106.79942675758328 -6.603856422455916 L106.79986727279282 -6.604688506740631 L106.80125438604712 -6.606372858549428 L106.80125438604712 -6.606372858549428 L106.80264489281271 -6.60806133105049 L106.80463379294632 -6.60985134117075 L106.80463379294632 -6.60985134117075 L106.8066447790539 -6.611661228667561 L106.80855419235033 -6.6139726237106 L106.80855419235033 -6.6139726237106 L106.81044409847686 -6.616260404811161 L106.81253220610861 -6.618099928201032 L106.81253220610861 -6.618099928201032 L106.81489311802007 -6.620179779170655 L106.8135132455532 -6.62063973665961 L106.8135132455532 -6.62063973665961 L106.81259473314714 -6.62094590746163 L106.81254986296675 -6.6221574023321015 L106.81254986296675 -6.6221574023321015 L106.81249363914195 -6.623675445601654 L106.81122702264095 -6.623848166033609 L106.81122702264095 -6.623848166033609 L106.81026118757754 -6.623979870814983 L106.81019402850004 -6.624248507125009 L106.81019402850004 -6.624248507125009 L106.81007527531203 -6.624723519877018 L106.80971094003924 -6.624966410058868 L106.80971094003924 -6.624966410058868 L106.80927451642351 -6.625257359136016 L106.80905857864376 -6.625041421356235 L106.80905857864376 -6.625041421356235 L106.80930000000001 -6.6252828427124735 L106.80930000000001 -6.62495 L106.80930000000001 -6.62495 L106.80930000000001 -6.62496139990637 L106.80957022468831 -6.625062734164485 L106.80957022468831 -6.625062734164485 L106.81005290182921 -6.625243738092322 L106.81018569533818 -6.6255757218647275 L106.81018569533818 -6.6255757218647275 L106.81041768938503 -6.626155706981846 L106.80976712020254 -6.626047278784767 L106.80976712020254 -6.626047278784767 L106.80956864339554 -6.626014199316932 L106.80954142135623 -6.6260414213562395 L106.80954142135623 -6.6260414213562395 L106.80958284271247 -6.626000000000003 L106.80964142135623 -6.626058578643761 L106.80964142135623 -6.626058578643761 L106.80987143301164 -6.626288590299158 L106.81013666912123 -6.62697820418414 L106.81013666912123 -6.62697820418414 L106.81047381015526 -6.627854770872619 L106.80938475706678 -6.628046956711764 L106.80938475706678 -6.628046956711764 L106.80867402886163 -6.628172379336201 L106.80864727878476 -6.6283328797974574 L106.80864727878476 -6.6283328797974574 L106.80855539362048 -6.628884190783231 L106.80797121614029 -6.628633829006004 L106.80797121614029 -6.628633829006004 L106.80774567443662 -6.62853716827586 L106.80764142135624 -6.628641421356238 L106.80764142135624 -6.628641421356238 L106.80734902243469 -6.628933820277778 L106.80517729150287 -6.628086315523897 L106.80517729150287 -6.628086315523897 L106.80305438815117 -6.62725786543543 L106.80212015298225 -6.62533749314377 L106.80212015298225 -6.62533749314377 L106.8012520802371 -6.623553121389868 L106.80086877230679 -6.623382762309725 L106.80086877230679 -6.623382762309725 L106.80028660055662 -6.623124019309647 L106.80035099256196 -6.622480099256196 L106.80035099256196 -6.622480099256196 L106.8003853685887 -6.622136338988687 L106.79968343597646 -6.621888598066717 L106.79968343597646 -6.621888598066717 L106.7989 -6.6214 L106.79981656402354 -6.621511401933284 L106.79981656402354 -6.621511401933284 L106.8008146314113 -6.621863661011313 L106.80074900743804 -6.622519900743805 L106.80074900743804 -6.622519900743805 L106.80068675199168 -6.623142455207465 L106.79992179581585 -6.623436669121241 L106.79992179581585 -6.623436669121241 L106.79912238616315 -6.623744134372281 L106.79873358994114 -6.623160940039246 L106.79873358994114 -6.623160940039246 L106.79854816639745 -6.622882804723734 L106.79836624763874 -6.623012746694241 L106.79836624763874 -6.623012746694241 L106.79784139272505 -6.623387643061166 L106.79717934363326 -6.62230429000189 L106.79717934363326 -6.62230429000189 L106.7966108422079 -6.621374014942174 L106.79645388386486 -6.620589223227029 L106.79645388386486 -6.620589223227029 L106.7962941010796 -6.619790309300757 L106.79660843474295 -6.618742530422886 L106.79660843474295 -6.618742530422886 L106.79696025787234 -6.617569786658288 L106.79818742242158 -6.6178035322867155 L106.79818742242158 -6.6178035322867155 L106.79917101854569 -6.617990883929402 L106.7994105572809 -6.6178711145618 L106.7994105572809 -6.6178711145618 L106.79966305167021 -6.61774486736714 L106.80043358994114 -6.616589059960755 L106.80043358994114 -6.616589059960755 L106.80125644950742 -6.615354770611337 L106.80229100232988 -6.614682311276741 L106.80229100232988 -6.614682311276741 L106.8031192958292 -6.614143920502172 L106.80258493854775 -6.613362936783119 L106.80258493854775 -6.613362936783119 L106.80196536504155 -6.612457406274068 L106.80096401328393 -6.611980572103765 L106.80096401328393 -6.611980572103765 L106.79988980952953 -6.611469046506437 L106.79806949537294 -6.60990155376047 L106.79806949537294 -6.60990155376047 L106.79629936250362 -6.60837727267855 L106.79558675444679 -6.608139736659611 L106.79558675444679 -6.608139736659611 L106.79465367312949 -6.607828709553844 L106.79495812689969 -6.606793566735201 L106.79495812689969 -6.606793566735201 L106.7952189777307 -6.605906673909767 L106.79579273633225 -6.605176435689613 L106.79579273633225 -6.605176435689613 L106.79626443754685 -6.604576088689204 L106.7961211145618 -6.604289442719099 L106.7961211145618 -6.604289442719099 L106.79591534149988 -6.603877896595274 L106.79471110064065 -6.600415704124988 L106.79471110064065 -6.600415704124988 L106.79354661542787 -6.597067809138248 L106.79165149287499 -6.5965940285000295 L106.79165149287499 -6.5965940285000295 L106.7896462994065 -6.596092730132905 L106.78899118283023 -6.595891155801745 L106.78899118283023 -6.595891155801745 L106.78838221149626 -6.595703780006676 L106.78802480694691 -6.595748455575343 L106.78802480694691 -6.595748455575343 L106.78747388374008 -6.595817320976196 L106.7869153846154 -6.594476923076923 L106.7869153846154 -6.594476923076923 L106.78630978795586 -6.5930234910940335 L106.78718339090405 -6.592950690848351 L106.78718339090405 -6.592950690848351 L106.78759331999288 -6.592916530090949 L106.78755012742913 -6.591707138306102 L106.78755012742913 -6.591707138306102 L106.7874919227561 -6.590077407461154 L106.78917057983023 -6.5902510616412355 L106.78917057983023 -6.5902510616412355 L106.7908416707978 -6.590423933120641 L106.79024566994063 -6.593241391718208 L106.79024566994063 -6.593241391718208 L106.78973557724032 -6.5956527390287985 L106.79054850712501 -6.595855971499971 L106.79054850712501 -6.595855971499971 L106.79135577645991 -6.5960577888337 L106.79175630141349 -6.594500191792037 L106.79175630141349 -6.594500191792037 L106.79224233346412 -6.592610067150681 L106.79313669619789 -6.592550442968429 L106.79313669619789 -6.592550442968429 L106.7941 -6.592486222714954 L106.7941 -6.59295 L106.7941 -6.59295 L106.7941 -6.593247213595493 L106.79392888543819 -6.593589442719099 L106.79392888543819 -6.593589442719099 L106.79385605359549 -6.593735106404529 L106.79421469246887 -6.593986153615896 L106.79421469246887 -6.593986153615896 L106.7946122171666 -6.5942644209043095 Z" stroke="blue" stroke-width="0.0002" fill="none" />



    <line x1="106.7946" y1="-6.5945" x2="106.7973" y2="-6.593" style="stroke:rgb(255,0,0);stroke-width:.00002" />
    <line x1="106.79450287141377" y1="-6.594325168544776" x2="106.79585287141377" y2="-6.593575168544776" style="stroke:rgb(0,0,0);stroke-width:.00002" />
    <line x1="106.79585287141377" y1="-6.593575168544776" x2="106.79585287141377" y2="-6.593575168544776" style="stroke:rgb(0,0,0);stroke-width:.00002" />
    <line x1="106.79585287141377" y1="-6.593575168544776" x2="106.79720287141377" y2="-6.592825168544776" style="stroke:rgb(0,0,0);stroke-width:.00002" />
    <circle cx="106.7946" cy="-6.5945" fill="rgb(255,0,0)" r=".0001" />
    <text x="106.7946" y="-6.5945" stroke="rgb(0,0,0)" transform="translate(106.7946 -6.5945),scale(0.00001 -0.00001),translate(-106.7946 6.5945),translate(106.8125 -6.592499999999999),rotate(-30),translate(-106.8125 6.592499999999999)" >kb-gedong-sawah</text>
    <line x1="106.7973" y1="-6.593" x2="106.7984" y2="-6.5935" style="stroke:rgb(255,0,0);stroke-width:.00002" />
    <line x1="106.79738276058887" y1="-6.592817926704508" x2="106.79793276058888" y2="-6.593067926704507" style="stroke:rgb(0,0,0);stroke-width:.00002" />
    <line x1="106.79793276058888" y1="-6.593067926704507" x2="106.79793276058888" y2="-6.593067926704507" style="stroke:rgb(0,0,0);stroke-width:.00002" />
    <line x1="106.79793276058888" y1="-6.593067926704507" x2="106.79848276058887" y2="-6.593317926704508" style="stroke:rgb(0,0,0);stroke-width:.00002" />
    <circle cx="106.7973" cy="-6.593" fill="rgb(255,0,0)" r=".0001" />
    <text x="106.7973" y="-6.593" stroke="rgb(0,0,0)" transform="translate(106.7973 -6.593),scale(0.00001 -0.00001),translate(-106.7973 6.593),translate(106.8125 -6.592499999999999),rotate(-30),translate(-106.8125 6.592499999999999)" >kb-polisi-militer</text>
    <line x1="106.7984" y1="-6.5935" x2="106.800814" y2="-6.592262" style="stroke:rgb(255,0,0);stroke-width:.00002" />
    <line x1="106.79830873367715" y1="-6.593322038042512" x2="106.79951573367715" y2="-6.5927030380425125" style="stroke:rgb(0,0,0);stroke-width:.00002" />
    <line x1="106.79951573367715" y1="-6.5927030380425125" x2="106.79951573367715" y2="-6.5927030380425125" style="stroke:rgb(0,0,0);stroke-width:.00002" />
    <line x1="106.79951573367715" y1="-6.5927030380425125" x2="106.80072273367715" y2="-6.592084038042512" style="stroke:rgb(0,0,0);stroke-width:.00002" />
    <circle cx="106.7984" cy="-6.5935" fill="rgb(255,0,0)" r=".0001" />
    <text x="106.7984" y="-6.5935" stroke="rgb(0,0,0)" transform="translate(106.7984 -6.5935),scale(0.00001 -0.00001),translate(-106.7984 6.5935),translate(106.8125 -6.592499999999999),rotate(-30),translate(-106.8125 6.592499999999999)" >kb-jalak-harupat</text>
    <line x1="106.800814" y1="-6.592262" x2="106.801806" y2="-6.592667" style="stroke:rgb(255,0,0);stroke-width:.00002" />
    <line x1="106.80088959572578" y1="-6.59207683713589" x2="106.80138559572578" y2="-6.59227933713589" style="stroke:rgb(0,0,0);stroke-width:.00002" />
    <line x1="106.80138559572578" y1="-6.59227933713589" x2="106.80138559572578" y2="-6.59227933713589" style="stroke:rgb(0,0,0);stroke-width:.00002" />
    <line x1="106.80138559572578" y1="-6.59227933713589" x2="106.80188159572577" y2="-6.59248183713589" style="stroke:rgb(0,0,0);stroke-width:.00002" />
    <circle cx="106.800814" cy="-6.592262" fill="rgb(255,0,0)" r=".0001" />
    <text x="106.800814" y="-6.592262" stroke="rgb(0,0,0)" transform="translate(106.800814 -6.592262),scale(0.00001 -0.00001),translate(-106.800814 6.592262),translate(106.8125 -6.592499999999999),rotate(-30),translate(-106.8125 6.592499999999999)" >kb-sempur</text>
    <line x1="106.801806" y1="-6.592667" x2="106.8029" y2="-6.5935" style="stroke:rgb(255,0,0);stroke-width:.00002" />
    <line x1="106.80192716043216" y1="-6.59250787693543" x2="106.80247416043215" y2="-6.59292437693543" style="stroke:rgb(0,0,0);stroke-width:.00002" />
    <line x1="106.80247416043215" y1="-6.59292437693543" x2="106.80247416043215" y2="-6.59292437693543" style="stroke:rgb(0,0,0);stroke-width:.00002" />
    <line x1="106.80247416043215" y1="-6.59292437693543" x2="106.80302116043215" y2="-6.5933408769354305" style="stroke:rgb(0,0,0);stroke-width:.00002" />
    <circle cx="106.801806" cy="-6.592667" fill="rgb(255,0,0)" r=".0001" />
    <text x="106.801806" y="-6.592667" stroke="rgb(0,0,0)" transform="translate(106.801806 -6.592667),scale(0.00001 -0.00001),translate(-106.801806 6.592667),translate(106.8125 -6.592499999999999),rotate(-30),translate(-106.8125 6.592499999999999)" >kb-salak</text>
    <line x1="106.8029" y1="-6.5935" x2="106.8044" y2="-6.5959" style="stroke:rgb(255,0,0);stroke-width:.00002" />
    <line x1="106.8030695996608" y1="-6.593394000211998" x2="106.80381959966081" y2="-6.594594000211998" style="stroke:rgb(0,0,0);stroke-width:.00002" />
    <line x1="106.80381959966081" y1="-6.594594000211998" x2="106.80381959966081" y2="-6.594594000211998" style="stroke:rgb(0,0,0);stroke-width:.00002" />
    <line x1="106.80381959966081" y1="-6.594594000211998" x2="106.80456959966081" y2="-6.595794000211999" style="stroke:rgb(0,0,0);stroke-width:.00002" />
    <circle cx="106.8029" cy="-6.5935" fill="rgb(255,0,0)" r=".0001" />
    <text x="106.8029" y="-6.5935" stroke="rgb(0,0,0)" transform="translate(106.8029 -6.5935),scale(0.00001 -0.00001),translate(-106.8029 6.5935),translate(106.8125 -6.592499999999999),rotate(-30),translate(-106.8125 6.592499999999999)" >kb-pangrango</text>
    <line x1="106.8044" y1="-6.5959" x2="106.8052" y2="-6.6009" style="stroke:rgb(255,0,0);stroke-width:.00002" />
    <line x1="106.80459748812639" y1="-6.595868401899779" x2="106.80499748812639" y2="-6.598368401899778" style="stroke:rgb(0,0,0);stroke-width:.00002" />
    <line x1="106.80499748812639" y1="-6.598368401899778" x2="106.80499748812639" y2="-6.598368401899778" style="stroke:rgb(0,0,0);stroke-width:.00002" />
    <line x1="106.80499748812639" y1="-6.598368401899778" x2="106.80539748812639" y2="-6.6008684018997785" style="stroke:rgb(0,0,0);stroke-width:.00002" />
    <circle cx="106.8044" cy="-6.5959" fill="rgb(255,0,0)" r=".0001" />
    <text x="106.8044" y="-6.5959" stroke="rgb(0,0,0)" transform="translate(106.8044 -6.5959),scale(0.00001 -0.00001),translate(-106.8044 6.5959),translate(106.8125 -6.592499999999999),rotate(-30),translate(-106.8125 6.592499999999999)" >kb-astrid</text>
    <line x1="106.8052" y1="-6.6009" x2="106.8047" y2="-6.6016" style="stroke:rgb(255,0,0);stroke-width:.00002" />
    <line x1="106.80536274669424" y1="-6.601016247638745" x2="106.80511274669423" y2="-6.601366247638745" style="stroke:rgb(0,0,0);stroke-width:.00002" />
    <line x1="106.80511274669423" y1="-6.601366247638745" x2="106.80511274669423" y2="-6.601366247638745" style="stroke:rgb(0,0,0);stroke-width:.00002" />
    <line x1="106.80511274669423" y1="-6.601366247638745" x2="106.80486274669424" y2="-6.601716247638745" style="stroke:rgb(0,0,0);stroke-width:.00002" />
    <circle cx="106.8052" cy="-6.6009" fill="rgb(255,0,0)" r=".0001" />
    <text x="106.8052" y="-6.6009" stroke="rgb(0,0,0)" transform="translate(106.8052 -6.6009),scale(0.00001 -0.00001),translate(-106.8052 6.6009),translate(106.8125 -6.592499999999999),rotate(-30),translate(-106.8125 6.592499999999999)" >kb-botani-1</text>
    <line x1="106.8047" y1="-6.6016" x2="106.7996" y2="-6.6027" style="stroke:rgb(255,0,0);stroke-width:.00002" />
    <line x1="106.80474216757445" y1="-6.601795504208817" x2="106.80219216757445" y2="-6.602345504208817" style="stroke:rgb(0,0,0);stroke-width:.00002" />
    <line x1="106.80219216757445" y1="-6.602345504208817" x2="106.80219216757445" y2="-6.602345504208817" style="stroke:rgb(0,0,0);stroke-width:.00002" />
    <line x1="106.80219216757445" y1="-6.602345504208817" x2="106.79964216757445" y2="-6.602895504208816" style="stroke:rgb(0,0,0);stroke-width:.00002" />
    <circle cx="106.8047" cy="-6.6016" fill="rgb(255,0,0)" r=".0001" />
    <text x="106.8047" y="-6.6016" stroke="rgb(0,0,0)" transform="translate(106.8047 -6.6016),scale(0.00001 -0.00001),translate(-106.8047 6.6016),translate(106.8125 -6.592499999999999),rotate(-30),translate(-106.8125 6.592499999999999)" >kb-botani-2</text>
    <line x1="106.7996" y1="-6.6027" x2="106.7988" y2="-6.6031" style="stroke:rgb(255,0,0);stroke-width:.00002" />
    <line x1="106.7996894427191" y1="-6.6028788854382" x2="106.7992894427191" y2="-6.6030788854382" style="stroke:rgb(0,0,0);stroke-width:.00002" />
    <line x1="106.7992894427191" y1="-6.6030788854382" x2="106.7992894427191" y2="-6.6030788854382" style="stroke:rgb(0,0,0);stroke-width:.00002" />
    <line x1="106.7992894427191" y1="-6.6030788854382" x2="106.7988894427191" y2="-6.6032788854382005" style="stroke:rgb(0,0,0);stroke-width:.00002" />
    <circle cx="106.7996" cy="-6.6027" fill="rgb(255,0,0)" r=".0001" />
    <text x="106.7996" y="-6.6027" stroke="rgb(0,0,0)" transform="translate(106.7996 -6.6027),scale(0.00001 -0.00001),translate(-106.7996 6.6027),translate(106.8125 -6.592499999999999),rotate(-30),translate(-106.8125 6.592499999999999)" >kb-otista</text>
    <line x1="106.7988" y1="-6.6031" x2="106.7997" y2="-6.6048" style="stroke:rgb(255,0,0);stroke-width:.00002" />
    <line x1="106.79897675758328" y1="-6.603006422455916" x2="106.79942675758328" y2="-6.603856422455916" style="stroke:rgb(0,0,0);stroke-width:.00002" />
    <line x1="106.79942675758328" y1="-6.603856422455916" x2="106.79942675758328" y2="-6.603856422455916" style="stroke:rgb(0,0,0);stroke-width:.00002" />
    <line x1="106.79942675758328" y1="-6.603856422455916" x2="106.79987675758328" y2="-6.604706422455916" style="stroke:rgb(0,0,0);stroke-width:.00002" />
    <circle cx="106.7988" cy="-6.6031" fill="rgb(255,0,0)" r=".0001" />
    <text x="106.7988" y="-6.6031" stroke="rgb(0,0,0)" transform="translate(106.7988 -6.6031),scale(0.00001 -0.00001),translate(-106.7988 6.6031),translate(106.8125 -6.592499999999999),rotate(-30),translate(-106.8125 6.592499999999999)" >kb-suryakencana</text>
    <line x1="106.7997" y1="-6.6048" x2="106.8025" y2="-6.6082" style="stroke:rgb(255,0,0);stroke-width:.00002" />
    <line x1="106.79985438604713" y1="-6.604672858549428" x2="106.80125438604712" y2="-6.606372858549428" style="stroke:rgb(0,0,0);stroke-width:.00002" />
    <line x1="106.80125438604712" y1="-6.606372858549428" x2="106.80125438604712" y2="-6.606372858549428" style="stroke:rgb(0,0,0);stroke-width:.00002" />
    <line x1="106.80125438604712" y1="-6.606372858549428" x2="106.80265438604712" y2="-6.608072858549428" style="stroke:rgb(0,0,0);stroke-width:.00002" />
    <circle cx="106.7997" cy="-6.6048" fill="rgb(255,0,0)" r=".0001" />
    <text x="106.7997" y="-6.6048" stroke="rgb(0,0,0)" transform="translate(106.7997 -6.6048),scale(0.00001 -0.00001),translate(-106.7997 6.6048),translate(106.8125 -6.592499999999999),rotate(-30),translate(-106.8125 6.592499999999999)" >suryakencana-1</text>
    <line x1="106.8025" y1="-6.6082" x2="106.8065" y2="-6.6118" style="stroke:rgb(255,0,0);stroke-width:.00002" />
    <line x1="106.80263379294632" y1="-6.608051341170751" x2="106.80463379294632" y2="-6.60985134117075" style="stroke:rgb(0,0,0);stroke-width:.00002" />
    <line x1="106.80463379294632" y1="-6.60985134117075" x2="106.80463379294632" y2="-6.60985134117075" style="stroke:rgb(0,0,0);stroke-width:.00002" />
    <line x1="106.80463379294632" y1="-6.60985134117075" x2="106.80663379294633" y2="-6.6116513411707505" style="stroke:rgb(0,0,0);stroke-width:.00002" />
    <circle cx="106.8025" cy="-6.6082" fill="rgb(255,0,0)" r=".0001" />
    <text x="106.8025" y="-6.6082" stroke="rgb(0,0,0)" transform="translate(106.8025 -6.6082),scale(0.00001 -0.00001),translate(-106.8025 6.6082),translate(106.8125 -6.592499999999999),rotate(-30),translate(-106.8125 6.592499999999999)" >suryakencana-2</text>
    <line x1="106.8065" y1="-6.6118" x2="106.8103" y2="-6.6164" style="stroke:rgb(255,0,0);stroke-width:.00002" />
    <line x1="106.80665419235032" y1="-6.6116726237106" x2="106.80855419235033" y2="-6.6139726237106" style="stroke:rgb(0,0,0);stroke-width:.00002" />
    <line x1="106.80855419235033" y1="-6.6139726237106" x2="106.80855419235033" y2="-6.6139726237106" style="stroke:rgb(0,0,0);stroke-width:.00002" />
    <line x1="106.80855419235033" y1="-6.6139726237106" x2="106.81045419235032" y2="-6.6162726237106" style="stroke:rgb(0,0,0);stroke-width:.00002" />
    <circle cx="106.8065" cy="-6.6118" fill="rgb(255,0,0)" r=".0001" />
    <text x="106.8065" y="-6.6118" stroke="rgb(0,0,0)" transform="translate(106.8065 -6.6118),scale(0.00001 -0.00001),translate(-106.8065 6.6118),translate(106.8125 -6.592499999999999),rotate(-30),translate(-106.8125 6.592499999999999)" >siliwangi-1</text>
    <line x1="106.8103" y1="-6.6164" x2="106.8145" y2="-6.6201" style="stroke:rgb(255,0,0);stroke-width:.00002" />
    <line x1="106.81043220610862" y1="-6.616249928201032" x2="106.81253220610861" y2="-6.618099928201032" style="stroke:rgb(0,0,0);stroke-width:.00002" />
    <line x1="106.81253220610861" y1="-6.618099928201032" x2="106.81253220610861" y2="-6.618099928201032" style="stroke:rgb(0,0,0);stroke-width:.00002" />
    <line x1="106.81253220610861" y1="-6.618099928201032" x2="106.81463220610861" y2="-6.619949928201033" style="stroke:rgb(0,0,0);stroke-width:.00002" />
    <circle cx="106.8103" cy="-6.6164" fill="rgb(255,0,0)" r=".0001" />
    <text x="106.8103" y="-6.6164" stroke="rgb(0,0,0)" transform="translate(106.8103 -6.6164),scale(0.00001 -0.00001),translate(-106.8103 6.6164),translate(106.8125 -6.592499999999999),rotate(-30),translate(-106.8125 6.592499999999999)" >siliwangi-2</text>
    <line x1="106.8145" y1="-6.6201" x2="106.8124" y2="-6.6208" style="stroke:rgb(255,0,0);stroke-width:.00002" />
    <line x1="106.8145632455532" y1="-6.62028973665961" x2="106.8135132455532" y2="-6.62063973665961" style="stroke:rgb(0,0,0);stroke-width:.00002" />
    <line x1="106.8135132455532" y1="-6.62063973665961" x2="106.8135132455532" y2="-6.62063973665961" style="stroke:rgb(0,0,0);stroke-width:.00002" />
    <line x1="106.8135132455532" y1="-6.62063973665961" x2="106.8124632455532" y2="-6.62098973665961" style="stroke:rgb(0,0,0);stroke-width:.00002" />
    <circle cx="106.8145" cy="-6.6201" fill="rgb(255,0,0)" r=".0001" />
    <text x="106.8145" y="-6.6201" stroke="rgb(0,0,0)" transform="translate(106.8145 -6.6201),scale(0.00001 -0.00001),translate(-106.8145 6.6201),translate(106.8125 -6.592499999999999),rotate(-30),translate(-106.8125 6.592499999999999)" >siliwangi-lawanggintung</text>
    <line x1="106.8124" y1="-6.6208" x2="106.8123" y2="-6.6235" style="stroke:rgb(255,0,0);stroke-width:.00002" />
    <line x1="106.81259986296675" y1="-6.620807402332102" x2="106.81254986296675" y2="-6.6221574023321015" style="stroke:rgb(0,0,0);stroke-width:.00002" />
    <line x1="106.81254986296675" y1="-6.6221574023321015" x2="106.81254986296675" y2="-6.6221574023321015" style="stroke:rgb(0,0,0);stroke-width:.00002" />
    <line x1="106.81254986296675" y1="-6.6221574023321015" x2="106.81249986296675" y2="-6.623507402332102" style="stroke:rgb(0,0,0);stroke-width:.00002" />
    <circle cx="106.8124" cy="-6.6208" fill="rgb(255,0,0)" r=".0001" />
    <text x="106.8124" y="-6.6208" stroke="rgb(0,0,0)" transform="translate(106.8124 -6.6208),scale(0.00001 -0.00001),translate(-106.8124 6.6208),translate(106.8125 -6.592499999999999),rotate(-30),translate(-106.8125 6.592499999999999)" >lawanggintung-1</text>
    <line x1="106.8123" y1="-6.6235" x2="106.8101" y2="-6.6238" style="stroke:rgb(255,0,0);stroke-width:.00002" />
    <line x1="106.81232702264094" y1="-6.623698166033609" x2="106.81122702264095" y2="-6.623848166033609" style="stroke:rgb(0,0,0);stroke-width:.00002" />
    <line x1="106.81122702264095" y1="-6.623848166033609" x2="106.81122702264095" y2="-6.623848166033609" style="stroke:rgb(0,0,0);stroke-width:.00002" />
    <line x1="106.81122702264095" y1="-6.623848166033609" x2="106.81012702264096" y2="-6.623998166033609" style="stroke:rgb(0,0,0);stroke-width:.00002" />
    <circle cx="106.8123" cy="-6.6235" fill="rgb(255,0,0)" r=".0001" />
    <text x="106.8123" y="-6.6235" stroke="rgb(0,0,0)" transform="translate(106.8123 -6.6235),scale(0.00001 -0.00001),translate(-106.8123 6.6235),translate(106.8125 -6.592499999999999),rotate(-30),translate(-106.8125 6.592499999999999)" >lawanggintung-2</text>
    <line x1="106.8101" y1="-6.6238" x2="106.8099" y2="-6.6246" style="stroke:rgb(255,0,0);stroke-width:.00002" />
    <line x1="106.81029402850004" y1="-6.623848507125009" x2="106.81019402850004" y2="-6.624248507125009" style="stroke:rgb(0,0,0);stroke-width:.00002" />
    <line x1="106.81019402850004" y1="-6.624248507125009" x2="106.81019402850004" y2="-6.624248507125009" style="stroke:rgb(0,0,0);stroke-width:.00002" />
    <line x1="106.81019402850004" y1="-6.624248507125009" x2="106.81009402850003" y2="-6.624648507125009" style="stroke:rgb(0,0,0);stroke-width:.00002" />
    <circle cx="106.8101" cy="-6.6238" fill="rgb(255,0,0)" r=".0001" />
    <text x="106.8101" y="-6.6238" stroke="rgb(0,0,0)" transform="translate(106.8101 -6.6238),scale(0.00001 -0.00001),translate(-106.8101 6.6238),translate(106.8125 -6.592499999999999),rotate(-30),translate(-106.8125 6.592499999999999)" >lawanggintung-3</text>
    <line x1="106.8099" y1="-6.6246" x2="106.8093" y2="-6.625" style="stroke:rgb(255,0,0);stroke-width:.00002" />
    <line x1="106.81001094003925" y1="-6.624766410058868" x2="106.80971094003924" y2="-6.624966410058868" style="stroke:rgb(0,0,0);stroke-width:.00002" />
    <line x1="106.80971094003924" y1="-6.624966410058868" x2="106.80971094003924" y2="-6.624966410058868" style="stroke:rgb(0,0,0);stroke-width:.00002" />
    <line x1="106.80971094003924" y1="-6.624966410058868" x2="106.80941094003924" y2="-6.625166410058868" style="stroke:rgb(0,0,0);stroke-width:.00002" />
    <circle cx="106.8099" cy="-6.6246" fill="rgb(255,0,0)" r=".0001" />
    <text x="106.8099" y="-6.6246" stroke="rgb(0,0,0)" transform="translate(106.8099 -6.6246),scale(0.00001 -0.00001),translate(-106.8099 6.6246),translate(106.8125 -6.592499999999999),rotate(-30),translate(-106.8125 6.592499999999999)" >lawanggintung-4</text>
    <line x1="106.8093" y1="-6.625" x2="106.8091" y2="-6.6248" style="stroke:rgb(255,0,0);stroke-width:.00002" />
    <line x1="106.80915857864375" y1="-6.6251414213562345" x2="106.80905857864376" y2="-6.625041421356235" style="stroke:rgb(0,0,0);stroke-width:.00002" />
    <line x1="106.80905857864376" y1="-6.625041421356235" x2="106.80905857864376" y2="-6.625041421356235" style="stroke:rgb(0,0,0);stroke-width:.00002" />
    <line x1="106.80905857864376" y1="-6.625041421356235" x2="106.80895857864375" y2="-6.624941421356234" style="stroke:rgb(0,0,0);stroke-width:.00002" />
    <circle cx="106.8093" cy="-6.625" fill="rgb(255,0,0)" r=".0001" />
    <text x="106.8093" y="-6.625" stroke="rgb(0,0,0)" transform="translate(106.8093 -6.625),scale(0.00001 -0.00001),translate(-106.8093 6.625),translate(106.8125 -6.592499999999999),rotate(-30),translate(-106.8125 6.592499999999999)" >lawanggintung-5</text>
    <line x1="106.8091" y1="-6.6248" x2="106.8091" y2="-6.6251" style="stroke:rgb(255,0,0);stroke-width:.00002" />
    <line x1="106.80930000000001" y1="-6.6248" x2="106.80930000000001" y2="-6.62495" style="stroke:rgb(0,0,0);stroke-width:.00002" />
    <line x1="106.80930000000001" y1="-6.62495" x2="106.80930000000001" y2="-6.62495" style="stroke:rgb(0,0,0);stroke-width:.00002" />
    <line x1="106.80930000000001" y1="-6.62495" x2="106.80930000000001" y2="-6.6251" style="stroke:rgb(0,0,0);stroke-width:.00002" />
    <circle cx="106.8091" cy="-6.6248" fill="rgb(255,0,0)" r=".0001" />
    <text x="106.8091" y="-6.6248" stroke="rgb(0,0,0)" transform="translate(106.8091 -6.6248),scale(0.00001 -0.00001),translate(-106.8091 6.6248),translate(106.8125 -6.592499999999999),rotate(-30),translate(-106.8125 6.592499999999999)" >lawanggintung-cipaku</text>
    <line x1="106.8091" y1="-6.6251" x2="106.8099" y2="-6.6254" style="stroke:rgb(255,0,0);stroke-width:.00002" />
    <line x1="106.80917022468832" y1="-6.624912734164486" x2="106.80957022468831" y2="-6.625062734164485" style="stroke:rgb(0,0,0);stroke-width:.00002" />
    <line x1="106.80957022468831" y1="-6.625062734164485" x2="106.80957022468831" y2="-6.625062734164485" style="stroke:rgb(0,0,0);stroke-width:.00002" />
    <line x1="106.80957022468831" y1="-6.625062734164485" x2="106.80997022468831" y2="-6.625212734164486" style="stroke:rgb(0,0,0);stroke-width:.00002" />
    <circle cx="106.8091" cy="-6.6251" fill="rgb(255,0,0)" r=".0001" />
    <text x="106.8091" y="-6.6251" stroke="rgb(0,0,0)" transform="translate(106.8091 -6.6251),scale(0.00001 -0.00001),translate(-106.8091 6.6251),translate(106.8125 -6.592499999999999),rotate(-30),translate(-106.8125 6.592499999999999)" >cipaku-1</text>
    <line x1="106.8099" y1="-6.6254" x2="106.8101" y2="-6.6259" style="stroke:rgb(255,0,0);stroke-width:.00002" />
    <line x1="106.81008569533817" y1="-6.625325721864727" x2="106.81018569533818" y2="-6.6255757218647275" style="stroke:rgb(0,0,0);stroke-width:.00002" />
    <line x1="106.81018569533818" y1="-6.6255757218647275" x2="106.81018569533818" y2="-6.6255757218647275" style="stroke:rgb(0,0,0);stroke-width:.00002" />
    <line x1="106.81018569533818" y1="-6.6255757218647275" x2="106.81028569533818" y2="-6.625825721864727" style="stroke:rgb(0,0,0);stroke-width:.00002" />
    <circle cx="106.8099" cy="-6.6254" fill="rgb(255,0,0)" r=".0001" />
    <text x="106.8099" y="-6.6254" stroke="rgb(0,0,0)" transform="translate(106.8099 -6.6254),scale(0.00001 -0.00001),translate(-106.8099 6.6254),translate(106.8125 -6.592499999999999),rotate(-30),translate(-106.8125 6.592499999999999)" >cipaku-2</text>
    <line x1="106.8101" y1="-6.6259" x2="106.8095" y2="-6.6258" style="stroke:rgb(255,0,0);stroke-width:.00002" />
    <line x1="106.81006712020255" y1="-6.6260972787847665" x2="106.80976712020254" y2="-6.626047278784767" style="stroke:rgb(0,0,0);stroke-width:.00002" />
    <line x1="106.80976712020254" y1="-6.626047278784767" x2="106.80976712020254" y2="-6.626047278784767" style="stroke:rgb(0,0,0);stroke-width:.00002" />
    <line x1="106.80976712020254" y1="-6.626047278784767" x2="106.80946712020254" y2="-6.625997278784767" style="stroke:rgb(0,0,0);stroke-width:.00002" />
    <circle cx="106.8101" cy="-6.6259" fill="rgb(255,0,0)" r=".0001" />
    <text x="106.8101" y="-6.6259" stroke="rgb(0,0,0)" transform="translate(106.8101 -6.6259),scale(0.00001 -0.00001),translate(-106.8101 6.6259),translate(106.8125 -6.592499999999999),rotate(-30),translate(-106.8125 6.592499999999999)" >cipaku-3</text>
    <line x1="106.8095" y1="-6.6258" x2="106.8093" y2="-6.626" style="stroke:rgb(255,0,0);stroke-width:.00002" />
    <line x1="106.80964142135623" y1="-6.62594142135624" x2="106.80954142135623" y2="-6.6260414213562395" style="stroke:rgb(0,0,0);stroke-width:.00002" />
    <line x1="106.80954142135623" y1="-6.6260414213562395" x2="106.80954142135623" y2="-6.6260414213562395" style="stroke:rgb(0,0,0);stroke-width:.00002" />
    <line x1="106.80954142135623" y1="-6.6260414213562395" x2="106.80944142135623" y2="-6.62614142135624" style="stroke:rgb(0,0,0);stroke-width:.00002" />
    <circle cx="106.8095" cy="-6.6258" fill="rgb(255,0,0)" r=".0001" />
    <text x="106.8095" y="-6.6258" stroke="rgb(0,0,0)" transform="translate(106.8095 -6.6258),scale(0.00001 -0.00001),translate(-106.8095 6.6258),translate(106.8125 -6.592499999999999),rotate(-30),translate(-106.8125 6.592499999999999)" >cipaku-4</text>
    <line x1="106.8093" y1="-6.626" x2="106.8097" y2="-6.6264" style="stroke:rgb(255,0,0);stroke-width:.00002" />
    <line x1="106.80944142135623" y1="-6.6258585786437605" x2="106.80964142135623" y2="-6.626058578643761" style="stroke:rgb(0,0,0);stroke-width:.00002" />
    <line x1="106.80964142135623" y1="-6.626058578643761" x2="106.80964142135623" y2="-6.626058578643761" style="stroke:rgb(0,0,0);stroke-width:.00002" />
    <line x1="106.80964142135623" y1="-6.626058578643761" x2="106.80984142135624" y2="-6.62625857864376" style="stroke:rgb(0,0,0);stroke-width:.00002" />
    <circle cx="106.8093" cy="-6.626" fill="rgb(255,0,0)" r=".0001" />
    <text x="106.8093" y="-6.626" stroke="rgb(0,0,0)" transform="translate(106.8093 -6.626),scale(0.00001 -0.00001),translate(-106.8093 6.626),translate(106.8125 -6.592499999999999),rotate(-30),translate(-106.8125 6.592499999999999)" >cipaku-danasasmita</text>
    <line x1="106.8097" y1="-6.6264" x2="106.8102" y2="-6.6277" style="stroke:rgb(255,0,0);stroke-width:.00002" />
    <line x1="106.80988666912124" y1="-6.62632820418414" x2="106.81013666912123" y2="-6.62697820418414" style="stroke:rgb(0,0,0);stroke-width:.00002" />
    <line x1="106.81013666912123" y1="-6.62697820418414" x2="106.81013666912123" y2="-6.62697820418414" style="stroke:rgb(0,0,0);stroke-width:.00002" />
    <line x1="106.81013666912123" y1="-6.62697820418414" x2="106.81038666912123" y2="-6.6276282041841394" style="stroke:rgb(0,0,0);stroke-width:.00002" />
    <circle cx="106.8097" cy="-6.6264" fill="rgb(255,0,0)" r=".0001" />
    <text x="106.8097" y="-6.6264" stroke="rgb(0,0,0)" transform="translate(106.8097 -6.6264),scale(0.00001 -0.00001),translate(-106.8097 6.6264),translate(106.8125 -6.592499999999999),rotate(-30),translate(-106.8125 6.592499999999999)" >danasasmita-1</text>
    <line x1="106.8102" y1="-6.6277" x2="106.8085" y2="-6.628" style="stroke:rgb(255,0,0);stroke-width:.00002" />
    <line x1="106.81023475706678" y1="-6.627896956711764" x2="106.80938475706678" y2="-6.628046956711764" style="stroke:rgb(0,0,0);stroke-width:.00002" />
    <line x1="106.80938475706678" y1="-6.628046956711764" x2="106.80938475706678" y2="-6.628046956711764" style="stroke:rgb(0,0,0);stroke-width:.00002" />
    <line x1="106.80938475706678" y1="-6.628046956711764" x2="106.80853475706678" y2="-6.628196956711764" style="stroke:rgb(0,0,0);stroke-width:.00002" />
    <circle cx="106.8102" cy="-6.6277" fill="rgb(255,0,0)" r=".0001" />
    <text x="106.8102" y="-6.6277" stroke="rgb(0,0,0)" transform="translate(106.8102 -6.6277),scale(0.00001 -0.00001),translate(-106.8102 6.6277),translate(106.8125 -6.592499999999999),rotate(-30),translate(-106.8125 6.592499999999999)" >danasasmita-diredja</text>
    <line x1="106.8085" y1="-6.628" x2="106.8084" y2="-6.6286" style="stroke:rgb(255,0,0);stroke-width:.00002" />
    <line x1="106.80869727878476" y1="-6.628032879797458" x2="106.80864727878476" y2="-6.6283328797974574" style="stroke:rgb(0,0,0);stroke-width:.00002" />
    <line x1="106.80864727878476" y1="-6.6283328797974574" x2="106.80864727878476" y2="-6.6283328797974574" style="stroke:rgb(0,0,0);stroke-width:.00002" />
    <line x1="106.80864727878476" y1="-6.6283328797974574" x2="106.80859727878477" y2="-6.628632879797458" style="stroke:rgb(0,0,0);stroke-width:.00002" />
    <circle cx="106.8085" cy="-6.628" fill="rgb(255,0,0)" r=".0001" />
    <text x="106.8085" y="-6.628" stroke="rgb(0,0,0)" transform="translate(106.8085 -6.628),scale(0.00001 -0.00001),translate(-106.8085 6.628),translate(106.8125 -6.592499999999999),rotate(-30),translate(-106.8125 6.592499999999999)" >diredja-1</text>
    <line x1="106.8084" y1="-6.6286" x2="106.8077" y2="-6.6283" style="stroke:rgb(255,0,0);stroke-width:.00002" />
    <line x1="106.80832121614029" y1="-6.628783829006004" x2="106.80797121614029" y2="-6.628633829006004" style="stroke:rgb(0,0,0);stroke-width:.00002" />
    <line x1="106.80797121614029" y1="-6.628633829006004" x2="106.80797121614029" y2="-6.628633829006004" style="stroke:rgb(0,0,0);stroke-width:.00002" />
    <line x1="106.80797121614029" y1="-6.628633829006004" x2="106.80762121614028" y2="-6.628483829006004" style="stroke:rgb(0,0,0);stroke-width:.00002" />
    <circle cx="106.8084" cy="-6.6286" fill="rgb(255,0,0)" r=".0001" />
    <text x="106.8084" y="-6.6286" stroke="rgb(0,0,0)" transform="translate(106.8084 -6.6286),scale(0.00001 -0.00001),translate(-106.8084 6.6286),translate(106.8125 -6.592499999999999),rotate(-30),translate(-106.8125 6.592499999999999)" >diredja-2</text>
    <line x1="106.8077" y1="-6.6283" x2="106.8073" y2="-6.6287" style="stroke:rgb(255,0,0);stroke-width:.00002" />
    <line x1="106.80784142135623" y1="-6.6284414213562375" x2="106.80764142135624" y2="-6.628641421356238" style="stroke:rgb(0,0,0);stroke-width:.00002" />
    <line x1="106.80764142135624" y1="-6.628641421356238" x2="106.80764142135624" y2="-6.628641421356238" style="stroke:rgb(0,0,0);stroke-width:.00002" />
    <line x1="106.80764142135624" y1="-6.628641421356238" x2="106.80744142135623" y2="-6.628841421356237" style="stroke:rgb(0,0,0);stroke-width:.00002" />
    <circle cx="106.8077" cy="-6.6283" fill="rgb(255,0,0)" r=".0001" />
    <text x="106.8077" y="-6.6283" stroke="rgb(0,0,0)" transform="translate(106.8077 -6.6283),scale(0.00001 -0.00001),translate(-106.8077 6.6283),translate(106.8125 -6.592499999999999),rotate(-30),translate(-106.8125 6.592499999999999)" >diredja-3</text>
    <line x1="106.8073" y1="-6.6287" x2="106.8032" y2="-6.6271" style="stroke:rgb(255,0,0);stroke-width:.00002" />
    <line x1="106.80722729150287" y1="-6.628886315523897" x2="106.80517729150287" y2="-6.628086315523897" style="stroke:rgb(0,0,0);stroke-width:.00002" />
    <line x1="106.80517729150287" y1="-6.628086315523897" x2="106.80517729150287" y2="-6.628086315523897" style="stroke:rgb(0,0,0);stroke-width:.00002" />
    <line x1="106.80517729150287" y1="-6.628086315523897" x2="106.80312729150288" y2="-6.6272863155238975" style="stroke:rgb(0,0,0);stroke-width:.00002" />
    <circle cx="106.8073" cy="-6.6287" fill="rgb(255,0,0)" r=".0001" />
    <text x="106.8073" y="-6.6287" stroke="rgb(0,0,0)" transform="translate(106.8073 -6.6287),scale(0.00001 -0.00001),translate(-106.8073 6.6287),translate(106.8125 -6.592499999999999),rotate(-30),translate(-106.8125 6.592499999999999)" >diredja-cipinanggading</text>
    <line x1="106.8032" y1="-6.6271" x2="106.8014" y2="-6.6234" style="stroke:rgb(255,0,0);stroke-width:.00002" />
    <line x1="106.80302015298226" y1="-6.62718749314377" x2="106.80212015298225" y2="-6.62533749314377" style="stroke:rgb(0,0,0);stroke-width:.00002" />
    <line x1="106.80212015298225" y1="-6.62533749314377" x2="106.80212015298225" y2="-6.62533749314377" style="stroke:rgb(0,0,0);stroke-width:.00002" />
    <line x1="106.80212015298225" y1="-6.62533749314377" x2="106.80122015298225" y2="-6.62348749314377" style="stroke:rgb(0,0,0);stroke-width:.00002" />
    <circle cx="106.8032" cy="-6.6271" fill="rgb(255,0,0)" r=".0001" />
    <text x="106.8032" y="-6.6271" stroke="rgb(0,0,0)" transform="translate(106.8032 -6.6271),scale(0.00001 -0.00001),translate(-106.8032 6.6271),translate(106.8125 -6.592499999999999),rotate(-30),translate(-106.8125 6.592499999999999)" >cipinanggading-1</text>
    <line x1="106.8014" y1="-6.6234" x2="106.8005" y2="-6.623" style="stroke:rgb(255,0,0);stroke-width:.00002" />
    <line x1="106.80131877230679" y1="-6.6235827623097245" x2="106.80086877230679" y2="-6.623382762309725" style="stroke:rgb(0,0,0);stroke-width:.00002" />
    <line x1="106.80086877230679" y1="-6.623382762309725" x2="106.80086877230679" y2="-6.623382762309725" style="stroke:rgb(0,0,0);stroke-width:.00002" />
    <line x1="106.80086877230679" y1="-6.623382762309725" x2="106.80041877230678" y2="-6.623182762309725" style="stroke:rgb(0,0,0);stroke-width:.00002" />
    <circle cx="106.8014" cy="-6.6234" fill="rgb(255,0,0)" r=".0001" />
    <text x="106.8014" y="-6.6234" stroke="rgb(0,0,0)" transform="translate(106.8014 -6.6234),scale(0.00001 -0.00001),translate(-106.8014 6.6234),translate(106.8125 -6.592499999999999),rotate(-30),translate(-106.8125 6.592499999999999)" >cipinanggading-2</text>
    <line x1="106.8005" y1="-6.623" x2="106.8006" y2="-6.622" style="stroke:rgb(255,0,0);stroke-width:.00002" />
    <line x1="106.80030099256196" y1="-6.622980099256195" x2="106.80035099256196" y2="-6.622480099256196" style="stroke:rgb(0,0,0);stroke-width:.00002" />
    <line x1="106.80035099256196" y1="-6.622480099256196" x2="106.80035099256196" y2="-6.622480099256196" style="stroke:rgb(0,0,0);stroke-width:.00002" />
    <line x1="106.80035099256196" y1="-6.622480099256196" x2="106.80040099256196" y2="-6.621980099256195" style="stroke:rgb(0,0,0);stroke-width:.00002" />
    <circle cx="106.8005" cy="-6.623" fill="rgb(255,0,0)" r=".0001" />
    <text x="106.8005" y="-6.623" stroke="rgb(0,0,0)" transform="translate(106.8005 -6.623),scale(0.00001 -0.00001),translate(-106.8005 6.623),translate(106.8125 -6.592499999999999),rotate(-30),translate(-106.8125 6.592499999999999)" >cipinanggading-ranggamekar</text>
    <line x1="106.8006" y1="-6.622" x2="106.7989" y2="-6.6214" style="stroke:rgb(255,0,0);stroke-width:.00002" />
    <line x1="106.80053343597646" y1="-6.622188598066717" x2="106.79968343597646" y2="-6.621888598066717" style="stroke:rgb(0,0,0);stroke-width:.00002" />
    <line x1="106.79968343597646" y1="-6.621888598066717" x2="106.79968343597646" y2="-6.621888598066717" style="stroke:rgb(0,0,0);stroke-width:.00002" />
    <line x1="106.79968343597646" y1="-6.621888598066717" x2="106.79883343597646" y2="-6.621588598066717" style="stroke:rgb(0,0,0);stroke-width:.00002" />
    <circle cx="106.8006" cy="-6.622" fill="rgb(255,0,0)" r=".0001" />
    <text x="106.8006" y="-6.622" stroke="rgb(0,0,0)" transform="translate(106.8006 -6.622),scale(0.00001 -0.00001),translate(-106.8006 6.622),translate(106.8125 -6.592499999999999),rotate(-30),translate(-106.8125 6.592499999999999)" >ranggamekar-1</text>
    <line x1="106.7989" y1="-6.6214" x2="106.8006" y2="-6.622" style="stroke:rgb(255,0,0);stroke-width:.00002" />
    <line x1="106.79896656402354" y1="-6.621211401933284" x2="106.79981656402354" y2="-6.621511401933284" style="stroke:rgb(0,0,0);stroke-width:.00002" />
    <line x1="106.79981656402354" y1="-6.621511401933284" x2="106.79981656402354" y2="-6.621511401933284" style="stroke:rgb(0,0,0);stroke-width:.00002" />
    <line x1="106.79981656402354" y1="-6.621511401933284" x2="106.80066656402354" y2="-6.621811401933283" style="stroke:rgb(0,0,0);stroke-width:.00002" />
    <circle cx="106.7989" cy="-6.6214" fill="rgb(255,0,0)" r=".0001" />
    <text x="106.7989" y="-6.6214" stroke="rgb(0,0,0)" transform="translate(106.7989 -6.6214),scale(0.00001 -0.00001),translate(-106.7989 6.6214),translate(106.8125 -6.592499999999999),rotate(-30),translate(-106.8125 6.592499999999999)" >ranggamekar-2</text>
    <line x1="106.8006" y1="-6.622" x2="106.8005" y2="-6.623" style="stroke:rgb(255,0,0);stroke-width:.00002" />
    <line x1="106.80079900743804" y1="-6.622019900743805" x2="106.80074900743804" y2="-6.622519900743805" style="stroke:rgb(0,0,0);stroke-width:.00002" />
    <line x1="106.80074900743804" y1="-6.622519900743805" x2="106.80074900743804" y2="-6.622519900743805" style="stroke:rgb(0,0,0);stroke-width:.00002" />
    <line x1="106.80074900743804" y1="-6.622519900743805" x2="106.80069900743804" y2="-6.623019900743805" style="stroke:rgb(0,0,0);stroke-width:.00002" />
    <circle cx="106.8006" cy="-6.622" fill="rgb(255,0,0)" r=".0001" />
    <text x="106.8006" y="-6.622" stroke="rgb(0,0,0)" transform="translate(106.8006 -6.622),scale(0.00001 -0.00001),translate(-106.8006 6.622),translate(106.8125 -6.592499999999999),rotate(-30),translate(-106.8125 6.592499999999999)" >ranggamekar-1</text>
    <line x1="106.8005" y1="-6.623" x2="106.7992" y2="-6.6235" style="stroke:rgb(255,0,0);stroke-width:.00002" />
    <line x1="106.80057179581586" y1="-6.623186669121241" x2="106.79992179581585" y2="-6.623436669121241" style="stroke:rgb(0,0,0);stroke-width:.00002" />
    <line x1="106.79992179581585" y1="-6.623436669121241" x2="106.79992179581585" y2="-6.623436669121241" style="stroke:rgb(0,0,0);stroke-width:.00002" />
    <line x1="106.79992179581585" y1="-6.623436669121241" x2="106.79927179581586" y2="-6.62368666912124" style="stroke:rgb(0,0,0);stroke-width:.00002" />
    <circle cx="106.8005" cy="-6.623" fill="rgb(255,0,0)" r=".0001" />
    <text x="106.8005" y="-6.623" stroke="rgb(0,0,0)" transform="translate(106.8005 -6.623),scale(0.00001 -0.00001),translate(-106.8005 6.623),translate(106.8125 -6.592499999999999),rotate(-30),translate(-106.8125 6.592499999999999)" >cipinanggading-ranggamekar</text>
    <line x1="106.7992" y1="-6.6235" x2="106.7986" y2="-6.6226" style="stroke:rgb(255,0,0);stroke-width:.00002" />
    <line x1="106.79903358994113" y1="-6.623610940039246" x2="106.79873358994114" y2="-6.623160940039246" style="stroke:rgb(0,0,0);stroke-width:.00002" />
    <line x1="106.79873358994114" y1="-6.623160940039246" x2="106.79873358994114" y2="-6.623160940039246" style="stroke:rgb(0,0,0);stroke-width:.00002" />
    <line x1="106.79873358994114" y1="-6.623160940039246" x2="106.79843358994113" y2="-6.622710940039246" style="stroke:rgb(0,0,0);stroke-width:.00002" />
    <circle cx="106.7992" cy="-6.6235" fill="rgb(255,0,0)" r=".0001" />
    <text x="106.7992" y="-6.6235" stroke="rgb(0,0,0)" transform="translate(106.7992 -6.6235),scale(0.00001 -0.00001),translate(-106.7992 6.6235),translate(106.8125 -6.592499999999999),rotate(-30),translate(-106.8125 6.592499999999999)" >cipinanggading-nirwana</text>
    <line x1="106.7986" y1="-6.6226" x2="106.7979" y2="-6.6231" style="stroke:rgb(255,0,0);stroke-width:.00002" />
    <line x1="106.79871624763874" y1="-6.622762746694241" x2="106.79836624763874" y2="-6.623012746694241" style="stroke:rgb(0,0,0);stroke-width:.00002" />
    <line x1="106.79836624763874" y1="-6.623012746694241" x2="106.79836624763874" y2="-6.623012746694241" style="stroke:rgb(0,0,0);stroke-width:.00002" />
    <line x1="106.79836624763874" y1="-6.623012746694241" x2="106.79801624763874" y2="-6.623262746694241" style="stroke:rgb(0,0,0);stroke-width:.00002" />
    <circle cx="106.7986" cy="-6.6226" fill="rgb(255,0,0)" r=".0001" />
    <text x="106.7986" y="-6.6226" stroke="rgb(0,0,0)" transform="translate(106.7986 -6.6226),scale(0.00001 -0.00001),translate(-106.7986 6.6226),translate(106.8125 -6.592499999999999),rotate(-30),translate(-106.8125 6.592499999999999)" >nirwana-1</text>
    <line x1="106.7979" y1="-6.6231" x2="106.7968" y2="-6.6213" style="stroke:rgb(255,0,0);stroke-width:.00002" />
    <line x1="106.79772934363326" y1="-6.62320429000189" x2="106.79717934363326" y2="-6.62230429000189" style="stroke:rgb(0,0,0);stroke-width:.00002" />
    <line x1="106.79717934363326" y1="-6.62230429000189" x2="106.79717934363326" y2="-6.62230429000189" style="stroke:rgb(0,0,0);stroke-width:.00002" />
    <line x1="106.79717934363326" y1="-6.62230429000189" x2="106.79662934363327" y2="-6.62140429000189" style="stroke:rgb(0,0,0);stroke-width:.00002" />
    <circle cx="106.7979" cy="-6.6231" fill="rgb(255,0,0)" r=".0001" />
    <text x="106.7979" y="-6.6231" stroke="rgb(0,0,0)" transform="translate(106.7979 -6.6231),scale(0.00001 -0.00001),translate(-106.7979 6.6231),translate(106.8125 -6.592499999999999),rotate(-30),translate(-106.8125 6.592499999999999)" >nirwana-2</text>
    <line x1="106.7968" y1="-6.6213" x2="106.7965" y2="-6.6198" style="stroke:rgb(255,0,0);stroke-width:.00002" />
    <line x1="106.79660388386486" y1="-6.621339223227029" x2="106.79645388386486" y2="-6.620589223227029" style="stroke:rgb(0,0,0);stroke-width:.00002" />
    <line x1="106.79645388386486" y1="-6.620589223227029" x2="106.79645388386486" y2="-6.620589223227029" style="stroke:rgb(0,0,0);stroke-width:.00002" />
    <line x1="106.79645388386486" y1="-6.620589223227029" x2="106.79630388386485" y2="-6.619839223227029" style="stroke:rgb(0,0,0);stroke-width:.00002" />
    <circle cx="106.7968" cy="-6.6213" fill="rgb(255,0,0)" r=".0001" />
    <text x="106.7968" y="-6.6213" stroke="rgb(0,0,0)" transform="translate(106.7968 -6.6213),scale(0.00001 -0.00001),translate(-106.7968 6.6213),translate(106.8125 -6.592499999999999),rotate(-30),translate(-106.8125 6.592499999999999)" >nirwana-3</text>
    <line x1="106.7965" y1="-6.6198" x2="106.7971" y2="-6.6178" style="stroke:rgb(255,0,0);stroke-width:.00002" />
    <line x1="106.79630843474295" y1="-6.619742530422886" x2="106.79660843474295" y2="-6.618742530422886" style="stroke:rgb(0,0,0);stroke-width:.00002" />
    <line x1="106.79660843474295" y1="-6.618742530422886" x2="106.79660843474295" y2="-6.618742530422886" style="stroke:rgb(0,0,0);stroke-width:.00002" />
    <line x1="106.79660843474295" y1="-6.618742530422886" x2="106.79690843474296" y2="-6.617742530422886" style="stroke:rgb(0,0,0);stroke-width:.00002" />
    <circle cx="106.7965" cy="-6.6198" fill="rgb(255,0,0)" r=".0001" />
    <text x="106.7965" y="-6.6198" stroke="rgb(0,0,0)" transform="translate(106.7965 -6.6198),scale(0.00001 -0.00001),translate(-106.7965 6.6198),translate(106.8125 -6.592499999999999),rotate(-30),translate(-106.8125 6.592499999999999)" >nirwana-4</text>
    <line x1="106.7971" y1="-6.6178" x2="106.7992" y2="-6.6182" style="stroke:rgb(255,0,0);stroke-width:.00002" />
    <line x1="106.79713742242159" y1="-6.617603532286715" x2="106.79818742242158" y2="-6.6178035322867155" style="stroke:rgb(0,0,0);stroke-width:.00002" />
    <line x1="106.79818742242158" y1="-6.6178035322867155" x2="106.79818742242158" y2="-6.6178035322867155" style="stroke:rgb(0,0,0);stroke-width:.00002" />
    <line x1="106.79818742242158" y1="-6.6178035322867155" x2="106.79923742242158" y2="-6.618003532286715" style="stroke:rgb(0,0,0);stroke-width:.00002" />
    <circle cx="106.7971" cy="-6.6178" fill="rgb(255,0,0)" r=".0001" />
    <text x="106.7971" y="-6.6178" stroke="rgb(0,0,0)" transform="translate(106.7971 -6.6178),scale(0.00001 -0.00001),translate(-106.7971 6.6178),translate(106.8125 -6.592499999999999),rotate(-30),translate(-106.8125 6.592499999999999)" >nirwana-5</text>
    <line x1="106.7992" y1="-6.6182" x2="106.7998" y2="-6.6179" style="stroke:rgb(255,0,0);stroke-width:.00002" />
    <line x1="106.7991105572809" y1="-6.6180211145618" x2="106.7994105572809" y2="-6.6178711145618" style="stroke:rgb(0,0,0);stroke-width:.00002" />
    <line x1="106.7994105572809" y1="-6.6178711145618" x2="106.7994105572809" y2="-6.6178711145618" style="stroke:rgb(0,0,0);stroke-width:.00002" />
    <line x1="106.7994105572809" y1="-6.6178711145618" x2="106.7997105572809" y2="-6.6177211145618" style="stroke:rgb(0,0,0);stroke-width:.00002" />
    <circle cx="106.7992" cy="-6.6182" fill="rgb(255,0,0)" r=".0001" />
    <text x="106.7992" y="-6.6182" stroke="rgb(0,0,0)" transform="translate(106.7992 -6.6182),scale(0.00001 -0.00001),translate(-106.7992 6.6182),translate(106.8125 -6.592499999999999),rotate(-30),translate(-106.8125 6.592499999999999)" >nirwana-6</text>
    <line x1="106.7998" y1="-6.6179" x2="106.8014" y2="-6.6155" style="stroke:rgb(255,0,0);stroke-width:.00002" />
    <line x1="106.79963358994114" y1="-6.617789059960755" x2="106.80043358994114" y2="-6.616589059960755" style="stroke:rgb(0,0,0);stroke-width:.00002" />
    <line x1="106.80043358994114" y1="-6.616589059960755" x2="106.80043358994114" y2="-6.616589059960755" style="stroke:rgb(0,0,0);stroke-width:.00002" />
    <line x1="106.80043358994114" y1="-6.616589059960755" x2="106.80123358994113" y2="-6.615389059960755" style="stroke:rgb(0,0,0);stroke-width:.00002" />
    <circle cx="106.7998" cy="-6.6179" fill="rgb(255,0,0)" r=".0001" />
    <text x="106.7998" y="-6.6179" stroke="rgb(0,0,0)" transform="translate(106.7998 -6.6179),scale(0.00001 -0.00001),translate(-106.7998 6.6179),translate(106.8125 -6.592499999999999),rotate(-30),translate(-106.8125 6.592499999999999)" >nirwana-dreded</text>
    <line x1="106.8014" y1="-6.6155" x2="106.8034" y2="-6.6142" style="stroke:rgb(255,0,0);stroke-width:.00002" />
    <line x1="106.80129100232988" y1="-6.61533231127674" x2="106.80229100232988" y2="-6.614682311276741" style="stroke:rgb(0,0,0);stroke-width:.00002" />
    <line x1="106.80229100232988" y1="-6.614682311276741" x2="106.80229100232988" y2="-6.614682311276741" style="stroke:rgb(0,0,0);stroke-width:.00002" />
    <line x1="106.80229100232988" y1="-6.614682311276741" x2="106.80329100232987" y2="-6.61403231127674" style="stroke:rgb(0,0,0);stroke-width:.00002" />
    <circle cx="106.8014" cy="-6.6155" fill="rgb(255,0,0)" r=".0001" />
    <text x="106.8014" y="-6.6155" stroke="rgb(0,0,0)" transform="translate(106.8014 -6.6155),scale(0.00001 -0.00001),translate(-106.8014 6.6155),translate(106.8125 -6.592499999999999),rotate(-30),translate(-106.8125 6.592499999999999)" >dreded-1</text>
    <line x1="106.8034" y1="-6.6142" x2="106.8021" y2="-6.6123" style="stroke:rgb(255,0,0);stroke-width:.00002" />
    <line x1="106.80323493854775" y1="-6.614312936783119" x2="106.80258493854775" y2="-6.613362936783119" style="stroke:rgb(0,0,0);stroke-width:.00002" />
    <line x1="106.80258493854775" y1="-6.613362936783119" x2="106.80258493854775" y2="-6.613362936783119" style="stroke:rgb(0,0,0);stroke-width:.00002" />
    <line x1="106.80258493854775" y1="-6.613362936783119" x2="106.80193493854775" y2="-6.612412936783119" style="stroke:rgb(0,0,0);stroke-width:.00002" />
    <circle cx="106.8034" cy="-6.6142" fill="rgb(255,0,0)" r=".0001" />
    <text x="106.8034" y="-6.6142" stroke="rgb(0,0,0)" transform="translate(106.8034 -6.6142),scale(0.00001 -0.00001),translate(-106.8034 6.6142),translate(106.8125 -6.592499999999999),rotate(-30),translate(-106.8125 6.592499999999999)" >dreded-pahlawan</text>
    <line x1="106.8021" y1="-6.6123" x2="106.8" y2="-6.6113" style="stroke:rgb(255,0,0);stroke-width:.00002" />
    <line x1="106.80201401328392" y1="-6.612480572103765" x2="106.80096401328393" y2="-6.611980572103765" style="stroke:rgb(0,0,0);stroke-width:.00002" />
    <line x1="106.80096401328393" y1="-6.611980572103765" x2="106.80096401328393" y2="-6.611980572103765" style="stroke:rgb(0,0,0);stroke-width:.00002" />
    <line x1="106.80096401328393" y1="-6.611980572103765" x2="106.79991401328392" y2="-6.611480572103765" style="stroke:rgb(0,0,0);stroke-width:.00002" />
    <circle cx="106.8021" cy="-6.6123" fill="rgb(255,0,0)" r=".0001" />
    <text x="106.8021" y="-6.6123" stroke="rgb(0,0,0)" transform="translate(106.8021 -6.6123),scale(0.00001 -0.00001),translate(-106.8021 6.6123),translate(106.8125 -6.592499999999999),rotate(-30),translate(-106.8125 6.592499999999999)" >pahlawan-ggaut</text>
    <line x1="106.8" y1="-6.6113" x2="106.7964" y2="-6.6082" style="stroke:rgb(255,0,0);stroke-width:.00002" />
    <line x1="106.79986949537293" y1="-6.61145155376047" x2="106.79806949537294" y2="-6.60990155376047" style="stroke:rgb(0,0,0);stroke-width:.00002" />
    <line x1="106.79806949537294" y1="-6.60990155376047" x2="106.79806949537294" y2="-6.60990155376047" style="stroke:rgb(0,0,0);stroke-width:.00002" />
    <line x1="106.79806949537294" y1="-6.60990155376047" x2="106.79626949537294" y2="-6.60835155376047" style="stroke:rgb(0,0,0);stroke-width:.00002" />
    <circle cx="106.8" cy="-6.6113" fill="rgb(255,0,0)" r=".0001" />
    <text x="106.8" y="-6.6113" stroke="rgb(0,0,0)" transform="translate(106.8 -6.6113),scale(0.00001 -0.00001),translate(-106.8 6.6113),translate(106.8125 -6.592499999999999),rotate(-30),translate(-106.8125 6.592499999999999)" >pahlawan-3</text>
    <line x1="106.7964" y1="-6.6082" x2="106.7949" y2="-6.6077" style="stroke:rgb(255,0,0);stroke-width:.00002" />
    <line x1="106.7963367544468" y1="-6.6083897366596105" x2="106.79558675444679" y2="-6.608139736659611" style="stroke:rgb(0,0,0);stroke-width:.00002" />
    <line x1="106.79558675444679" y1="-6.608139736659611" x2="106.79558675444679" y2="-6.608139736659611" style="stroke:rgb(0,0,0);stroke-width:.00002" />
    <line x1="106.79558675444679" y1="-6.608139736659611" x2="106.79483675444679" y2="-6.607889736659611" style="stroke:rgb(0,0,0);stroke-width:.00002" />
    <circle cx="106.7964" cy="-6.6082" fill="rgb(255,0,0)" r=".0001" />
    <text x="106.7964" y="-6.6082" stroke="rgb(0,0,0)" transform="translate(106.7964 -6.6082),scale(0.00001 -0.00001),translate(-106.7964 6.6082),translate(106.8125 -6.592499999999999),rotate(-30),translate(-106.8125 6.592499999999999)" >pahlawan-4</text>
    <line x1="106.7949" y1="-6.6077" x2="106.7954" y2="-6.606" style="stroke:rgb(255,0,0);stroke-width:.00002" />
    <line x1="106.79470812689968" y1="-6.607643566735201" x2="106.79495812689969" y2="-6.606793566735201" style="stroke:rgb(0,0,0);stroke-width:.00002" />
    <line x1="106.79495812689969" y1="-6.606793566735201" x2="106.79495812689969" y2="-6.606793566735201" style="stroke:rgb(0,0,0);stroke-width:.00002" />
    <line x1="106.79495812689969" y1="-6.606793566735201" x2="106.79520812689968" y2="-6.605943566735201" style="stroke:rgb(0,0,0);stroke-width:.00002" />
    <circle cx="106.7949" cy="-6.6077" fill="rgb(255,0,0)" r=".0001" />
    <text x="106.7949" y="-6.6077" stroke="rgb(0,0,0)" transform="translate(106.7949 -6.6077),scale(0.00001 -0.00001),translate(-106.7949 6.6077),translate(106.8125 -6.592499999999999),rotate(-30),translate(-106.8125 6.592499999999999)" >pahlawan-empang</text>
    <line x1="106.7954" y1="-6.606" x2="106.7965" y2="-6.6046" style="stroke:rgb(255,0,0);stroke-width:.00002" />
    <line x1="106.79524273633224" y1="-6.605876435689614" x2="106.79579273633225" y2="-6.605176435689613" style="stroke:rgb(0,0,0);stroke-width:.00002" />
    <line x1="106.79579273633225" y1="-6.605176435689613" x2="106.79579273633225" y2="-6.605176435689613" style="stroke:rgb(0,0,0);stroke-width:.00002" />
    <line x1="106.79579273633225" y1="-6.605176435689613" x2="106.79634273633224" y2="-6.604476435689613" style="stroke:rgb(0,0,0);stroke-width:.00002" />
    <circle cx="106.7954" cy="-6.606" fill="rgb(255,0,0)" r=".0001" />
    <text x="106.7954" y="-6.606" stroke="rgb(0,0,0)" transform="translate(106.7954 -6.606),scale(0.00001 -0.00001),translate(-106.7954 6.606),translate(106.8125 -6.592499999999999),rotate(-30),translate(-106.8125 6.592499999999999)" >halte-empang</text>
    <line x1="106.7965" y1="-6.6046" x2="106.7961" y2="-6.6038" style="stroke:rgb(255,0,0);stroke-width:.00002" />
    <line x1="106.79632111456179" y1="-6.604689442719099" x2="106.7961211145618" y2="-6.604289442719099" style="stroke:rgb(0,0,0);stroke-width:.00002" />
    <line x1="106.7961211145618" y1="-6.604289442719099" x2="106.7961211145618" y2="-6.604289442719099" style="stroke:rgb(0,0,0);stroke-width:.00002" />
    <line x1="106.7961211145618" y1="-6.604289442719099" x2="106.79592111456179" y2="-6.603889442719099" style="stroke:rgb(0,0,0);stroke-width:.00002" />
    <circle cx="106.7965" cy="-6.6046" fill="rgb(255,0,0)" r=".0001" />
    <text x="106.7965" y="-6.6046" stroke="rgb(0,0,0)" transform="translate(106.7965 -6.6046),scale(0.00001 -0.00001),translate(-106.7965 6.6046),translate(106.8125 -6.592499999999999),rotate(-30),translate(-106.8125 6.592499999999999)" >btm-3</text>
    <line x1="106.7961" y1="-6.6038" x2="106.7937" y2="-6.5969" style="stroke:rgb(255,0,0);stroke-width:.00002" />
    <line x1="106.79591110064065" y1="-6.6038657041249875" x2="106.79471110064065" y2="-6.600415704124988" style="stroke:rgb(0,0,0);stroke-width:.00002" />
    <line x1="106.79471110064065" y1="-6.600415704124988" x2="106.79471110064065" y2="-6.600415704124988" style="stroke:rgb(0,0,0);stroke-width:.00002" />
    <line x1="106.79471110064065" y1="-6.600415704124988" x2="106.79351110064066" y2="-6.596965704124988" style="stroke:rgb(0,0,0);stroke-width:.00002" />
    <circle cx="106.7961" cy="-6.6038" fill="rgb(255,0,0)" r=".0001" />
    <text x="106.7961" y="-6.6038" stroke="rgb(0,0,0)" transform="translate(106.7961 -6.6038),scale(0.00001 -0.00001),translate(-106.7961 6.6038),translate(106.8125 -6.592499999999999),rotate(-30),translate(-106.8125 6.592499999999999)" >kb-btm-2</text>
    <line x1="106.7937" y1="-6.5969" x2="106.7897" y2="-6.5959" style="stroke:rgb(255,0,0);stroke-width:.00002" />
    <line x1="106.793651492875" y1="-6.597094028500029" x2="106.79165149287499" y2="-6.5965940285000295" style="stroke:rgb(0,0,0);stroke-width:.00002" />
    <line x1="106.79165149287499" y1="-6.5965940285000295" x2="106.79165149287499" y2="-6.5965940285000295" style="stroke:rgb(0,0,0);stroke-width:.00002" />
    <line x1="106.79165149287499" y1="-6.5965940285000295" x2="106.789651492875" y2="-6.59609402850003" style="stroke:rgb(0,0,0);stroke-width:.00002" />
    <circle cx="106.7937" cy="-6.5969" fill="rgb(255,0,0)" r=".0001" />
    <text x="106.7937" y="-6.5969" stroke="rgb(0,0,0)" transform="translate(106.7937 -6.5969),scale(0.00001 -0.00001),translate(-106.7937 6.5969),translate(106.8125 -6.592499999999999),rotate(-30),translate(-106.8125 6.592499999999999)" >kb-muslihat</text>
    <line x1="106.7897" y1="-6.5959" x2="106.7884" y2="-6.5955" style="stroke:rgb(255,0,0);stroke-width:.00002" />
    <line x1="106.78964118283022" y1="-6.596091155801744" x2="106.78899118283023" y2="-6.595891155801745" style="stroke:rgb(0,0,0);stroke-width:.00002" />
    <line x1="106.78899118283023" y1="-6.595891155801745" x2="106.78899118283023" y2="-6.595891155801745" style="stroke:rgb(0,0,0);stroke-width:.00002" />
    <line x1="106.78899118283023" y1="-6.595891155801745" x2="106.78834118283022" y2="-6.595691155801744" style="stroke:rgb(0,0,0);stroke-width:.00002" />
    <circle cx="106.7897" cy="-6.5959" fill="rgb(255,0,0)" r=".0001" />
    <text x="106.7897" y="-6.5959" stroke="rgb(0,0,0)" transform="translate(106.7897 -6.5959),scale(0.00001 -0.00001),translate(-106.7897 6.5959),translate(106.8125 -6.592499999999999),rotate(-30),translate(-106.8125 6.592499999999999)" >stasiun-paledang</text>
    <line x1="106.7884" y1="-6.5955" x2="106.7876" y2="-6.5956" style="stroke:rgb(255,0,0);stroke-width:.00002" />
    <line x1="106.7884248069469" y1="-6.595698455575343" x2="106.78802480694691" y2="-6.595748455575343" style="stroke:rgb(0,0,0);stroke-width:.00002" />
    <line x1="106.78802480694691" y1="-6.595748455575343" x2="106.78802480694691" y2="-6.595748455575343" style="stroke:rgb(0,0,0);stroke-width:.00002" />
    <line x1="106.78802480694691" y1="-6.595748455575343" x2="106.78762480694691" y2="-6.595798455575343" style="stroke:rgb(0,0,0);stroke-width:.00002" />
    <circle cx="106.7884" cy="-6.5955" fill="rgb(255,0,0)" r=".0001" />
    <text x="106.7884" y="-6.5955" stroke="rgb(0,0,0)" transform="translate(106.7884 -6.5955),scale(0.00001 -0.00001),translate(-106.7884 6.5955),translate(106.8125 -6.592499999999999),rotate(-30),translate(-106.8125 6.592499999999999)" >veteran-merdeka</text>
    <line x1="106.7876" y1="-6.5956" x2="106.7866" y2="-6.5932" style="stroke:rgb(255,0,0);stroke-width:.00002" />
    <line x1="106.78741538461539" y1="-6.5956769230769225" x2="106.7869153846154" y2="-6.594476923076923" style="stroke:rgb(0,0,0);stroke-width:.00002" />
    <line x1="106.7869153846154" y1="-6.594476923076923" x2="106.7869153846154" y2="-6.594476923076923" style="stroke:rgb(0,0,0);stroke-width:.00002" />
    <line x1="106.7869153846154" y1="-6.594476923076923" x2="106.7864153846154" y2="-6.593276923076923" style="stroke:rgb(0,0,0);stroke-width:.00002" />
    <circle cx="106.7876" cy="-6.5956" fill="rgb(255,0,0)" r=".0001" />
    <text x="106.7876" y="-6.5956" stroke="rgb(0,0,0)" transform="translate(106.7876 -6.5956),scale(0.00001 -0.00001),translate(-106.7876 6.5956),translate(106.8125 -6.592499999999999),rotate(-30),translate(-106.8125 6.592499999999999)" >veteran-kemerdekaan</text>
    <line x1="106.7866" y1="-6.5932" x2="106.7878" y2="-6.5931" style="stroke:rgb(255,0,0);stroke-width:.00002" />
    <line x1="106.78658339090404" y1="-6.593000690848352" x2="106.78718339090405" y2="-6.592950690848351" style="stroke:rgb(0,0,0);stroke-width:.00002" />
    <line x1="106.78718339090405" y1="-6.592950690848351" x2="106.78718339090405" y2="-6.592950690848351" style="stroke:rgb(0,0,0);stroke-width:.00002" />
    <line x1="106.78718339090405" y1="-6.592950690848351" x2="106.78778339090404" y2="-6.592900690848351" style="stroke:rgb(0,0,0);stroke-width:.00002" />
    <circle cx="106.7866" cy="-6.5932" fill="rgb(255,0,0)" r=".0001" />
    <text x="106.7866" y="-6.5932" stroke="rgb(0,0,0)" transform="translate(106.7866 -6.5932),scale(0.00001 -0.00001),translate(-106.7866 6.5932),translate(106.8125 -6.592499999999999),rotate(-30),translate(-106.8125 6.592499999999999)" >kemerdekaan</text>
    <line x1="106.7878" y1="-6.5931" x2="106.7877" y2="-6.5903" style="stroke:rgb(255,0,0);stroke-width:.00002" />
    <line x1="106.78760012742913" y1="-6.593107138306102" x2="106.78755012742913" y2="-6.591707138306102" style="stroke:rgb(0,0,0);stroke-width:.00002" />
    <line x1="106.78755012742913" y1="-6.591707138306102" x2="106.78755012742913" y2="-6.591707138306102" style="stroke:rgb(0,0,0);stroke-width:.00002" />
    <line x1="106.78755012742913" y1="-6.591707138306102" x2="106.78750012742913" y2="-6.590307138306103" style="stroke:rgb(0,0,0);stroke-width:.00002" />
    <circle cx="106.7878" cy="-6.5931" fill="rgb(255,0,0)" r=".0001" />
    <text x="106.7878" y="-6.5931" stroke="rgb(0,0,0)" transform="translate(106.7878 -6.5931),scale(0.00001 -0.00001),translate(-106.7878 6.5931),translate(106.8125 -6.592499999999999),rotate(-30),translate(-106.8125 6.592499999999999)" >merdeka</text>
    <line x1="106.7877" y1="-6.5903" x2="106.7906" y2="-6.5906" style="stroke:rgb(255,0,0);stroke-width:.00002" />
    <line x1="106.78772057983022" y1="-6.590101061641235" x2="106.78917057983023" y2="-6.5902510616412355" style="stroke:rgb(0,0,0);stroke-width:.00002" />
    <line x1="106.78917057983023" y1="-6.5902510616412355" x2="106.78917057983023" y2="-6.5902510616412355" style="stroke:rgb(0,0,0);stroke-width:.00002" />
    <line x1="106.78917057983023" y1="-6.5902510616412355" x2="106.79062057983022" y2="-6.590401061641235" style="stroke:rgb(0,0,0);stroke-width:.00002" />
    <circle cx="106.7877" cy="-6.5903" fill="rgb(255,0,0)" r=".0001" />
    <text x="106.7877" y="-6.5903" stroke="rgb(0,0,0)" transform="translate(106.7877 -6.5903),scale(0.00001 -0.00001),translate(-106.7877 6.5903),translate(106.8125 -6.592499999999999),rotate(-30),translate(-106.8125 6.592499999999999)" >merdeka-salamun</text>
    <line x1="106.7906" y1="-6.5906" x2="106.7895" y2="-6.5958" style="stroke:rgb(255,0,0);stroke-width:.00002" />
    <line x1="106.79079566994062" y1="-6.590641391718209" x2="106.79024566994063" y2="-6.593241391718208" style="stroke:rgb(0,0,0);stroke-width:.00002" />
    <line x1="106.79024566994063" y1="-6.593241391718208" x2="106.79024566994063" y2="-6.593241391718208" style="stroke:rgb(0,0,0);stroke-width:.00002" />
    <line x1="106.79024566994063" y1="-6.593241391718208" x2="106.78969566994063" y2="-6.595841391718208" style="stroke:rgb(0,0,0);stroke-width:.00002" />
    <circle cx="106.7906" cy="-6.5906" fill="rgb(255,0,0)" r=".0001" />
    <text x="106.7906" y="-6.5906" stroke="rgb(0,0,0)" transform="translate(106.7906 -6.5906),scale(0.00001 -0.00001),translate(-106.7906 6.5906),translate(106.8125 -6.592499999999999),rotate(-30),translate(-106.8125 6.592499999999999)" >salamun-oking</text>
    <line x1="106.7895" y1="-6.5958" x2="106.7915" y2="-6.5963" style="stroke:rgb(255,0,0);stroke-width:.00002" />
    <line x1="106.789548507125" y1="-6.595605971499971" x2="106.79054850712501" y2="-6.595855971499971" style="stroke:rgb(0,0,0);stroke-width:.00002" />
    <line x1="106.79054850712501" y1="-6.595855971499971" x2="106.79054850712501" y2="-6.595855971499971" style="stroke:rgb(0,0,0);stroke-width:.00002" />
    <line x1="106.79054850712501" y1="-6.595855971499971" x2="106.791548507125" y2="-6.596105971499972" style="stroke:rgb(0,0,0);stroke-width:.00002" />
    <circle cx="106.7895" cy="-6.5958" fill="rgb(255,0,0)" r=".0001" />
    <text x="106.7895" y="-6.5958" stroke="rgb(0,0,0)" transform="translate(106.7895 -6.5958),scale(0.00001 -0.00001),translate(-106.7895 6.5958),translate(106.8125 -6.592499999999999),rotate(-30),translate(-106.8125 6.592499999999999)" >muslihat-oking</text>
    <line x1="106.7915" y1="-6.5963" x2="106.7924" y2="-6.5928" style="stroke:rgb(255,0,0);stroke-width:.00002" />
    <line x1="106.79130630141348" y1="-6.596250191792038" x2="106.79175630141349" y2="-6.594500191792037" style="stroke:rgb(0,0,0);stroke-width:.00002" />
    <line x1="106.79175630141349" y1="-6.594500191792037" x2="106.79175630141349" y2="-6.594500191792037" style="stroke:rgb(0,0,0);stroke-width:.00002" />
    <line x1="106.79175630141349" y1="-6.594500191792037" x2="106.79220630141349" y2="-6.592750191792038" style="stroke:rgb(0,0,0);stroke-width:.00002" />
    <circle cx="106.7915" cy="-6.5963" fill="rgb(255,0,0)" r=".0001" />
    <text x="106.7915" y="-6.5963" stroke="rgb(0,0,0)" transform="translate(106.7915 -6.5963),scale(0.00001 -0.00001),translate(-106.7915 6.5963),translate(106.8125 -6.592499999999999),rotate(-30),translate(-106.8125 6.592499999999999)" >muslihat-dewisartika</text>
    <line x1="106.7924" y1="-6.5928" x2="106.7939" y2="-6.5927" style="stroke:rgb(255,0,0);stroke-width:.00002" />
    <line x1="106.7923866961979" y1="-6.592600442968429" x2="106.79313669619789" y2="-6.592550442968429" style="stroke:rgb(0,0,0);stroke-width:.00002" />
    <line x1="106.79313669619789" y1="-6.592550442968429" x2="106.79313669619789" y2="-6.592550442968429" style="stroke:rgb(0,0,0);stroke-width:.00002" />
    <line x1="106.79313669619789" y1="-6.592550442968429" x2="106.79388669619789" y2="-6.592500442968428" style="stroke:rgb(0,0,0);stroke-width:.00002" />
    <circle cx="106.7924" cy="-6.5928" fill="rgb(255,0,0)" r=".0001" />
    <text x="106.7924" y="-6.5928" stroke="rgb(0,0,0)" transform="translate(106.7924 -6.5928),scale(0.00001 -0.00001),translate(-106.7924 6.5928),translate(106.8125 -6.592499999999999),rotate(-30),translate(-106.8125 6.592499999999999)" >dewisartika-mekah</text>
    <line x1="106.7939" y1="-6.5927" x2="106.7939" y2="-6.5932" style="stroke:rgb(255,0,0);stroke-width:.00002" />
    <line x1="106.7941" y1="-6.5927" x2="106.7941" y2="-6.59295" style="stroke:rgb(0,0,0);stroke-width:.00002" />
    <line x1="106.7941" y1="-6.59295" x2="106.7941" y2="-6.59295" style="stroke:rgb(0,0,0);stroke-width:.00002" />
    <line x1="106.7941" y1="-6.59295" x2="106.7941" y2="-6.5932" style="stroke:rgb(0,0,0);stroke-width:.00002" />
    <circle cx="106.7939" cy="-6.5927" fill="rgb(255,0,0)" r=".0001" />
    <text x="106.7939" y="-6.5927" stroke="rgb(0,0,0)" transform="translate(106.7939 -6.5927),scale(0.00001 -0.00001),translate(-106.7939 6.5927),translate(106.8125 -6.592499999999999),rotate(-30),translate(-106.8125 6.592499999999999)" >mekah-gedongsawah</text>
    <line x1="106.7939" y1="-6.5932" x2="106.7936" y2="-6.5938" style="stroke:rgb(255,0,0);stroke-width:.00002" />
    <line x1="106.7940788854382" y1="-6.593289442719099" x2="106.79392888543819" y2="-6.593589442719099" style="stroke:rgb(0,0,0);stroke-width:.00002" />
    <line x1="106.79392888543819" y1="-6.593589442719099" x2="106.79392888543819" y2="-6.593589442719099" style="stroke:rgb(0,0,0);stroke-width:.00002" />
    <line x1="106.79392888543819" y1="-6.593589442719099" x2="106.7937788854382" y2="-6.593889442719099" style="stroke:rgb(0,0,0);stroke-width:.00002" />
    <circle cx="106.7939" cy="-6.5932" fill="rgb(255,0,0)" r=".0001" />
    <text x="106.7939" y="-6.5932" stroke="rgb(0,0,0)" transform="translate(106.7939 -6.5932),scale(0.00001 -0.00001),translate(-106.7939 6.5932),translate(106.8125 -6.592499999999999),rotate(-30),translate(-106.8125 6.592499999999999)" >gedongsawah-1</text>
    <line x1="106.7936" y1="-6.5938" x2="106.7946" y2="-6.5945" style="stroke:rgb(255,0,0);stroke-width:.00002" />
    <line x1="106.79371469246887" y1="-6.593636153615896" x2="106.79421469246887" y2="-6.593986153615896" style="stroke:rgb(0,0,0);stroke-width:.00002" />
    <line x1="106.79421469246887" y1="-6.593986153615896" x2="106.79421469246887" y2="-6.593986153615896" style="stroke:rgb(0,0,0);stroke-width:.00002" />
    <line x1="106.79421469246887" y1="-6.593986153615896" x2="106.79471469246887" y2="-6.594336153615896" style="stroke:rgb(0,0,0);stroke-width:.00002" />
    <circle cx="106.7936" cy="-6.5938" fill="rgb(255,0,0)" r=".0001" />
    <text x="106.7936" y="-6.5938" stroke="rgb(0,0,0)" transform="translate(106.7936 -6.5938),scale(0.00001 -0.00001),translate(-106.7936 6.5938),translate(106.8125 -6.592499999999999),rotate(-30),translate(-106.8125 6.592499999999999)" >gedongsawah-crossing</text>
  </g>
</svg>
