<svg width="1049.9999999998977" height="1849.9999999999961" xmlns="http://www.w3.org/2000/svg" xmlns:xlink="http://www.w3.org/1999/xlink" >
  <g transform="translate(524.9999999999488 924.9999999999981) rotate(30) scale(10000 -10000) translate(-106.8125 6.592499999999999)">
    <path d="M106.76 -6.5 L106.865 -6.5 L106.865 -6.685 L106.76 -6.685 Z" fill="none" stroke="black" stroke-width="0.0025" transform="translate(106.8125 -6.592499999999999) rotate(30) translate(-106.8125 6.592499999999999)" />
    <path d="M106.78937779643925 -6.597056380797504 L106.78829326897754 -6.596722680040053 L106.78940154938913 -6.596584144988603 L106.78439063303345 -6.596083053353035 L106.78277524300822 -6.595356127841679 L106.78097457358216 -6.597156797267735 L106.77946221350646 -6.596904737255117 L106.77897360233175 -6.596939638053311 L106.77141042972839 -6.588140045637229 L106.7708791203399 -6.585421684306108 L106.76743803541167 -6.5810801501150955 L106.76342949080266 -6.581329015261351 L106.75280474998353 -6.576887958605172 L106.75022887817069 -6.573401237274985 L106.755373 -6.571011 L106.75252512182932 -6.573816762725011 L106.75382925001645 -6.575582041394824 L106.76370250919733 -6.579708984738649 L106.76767757879684 -6.579462197843716 L106.77174583702356 -6.584414439222008 L106.77254854296099 -6.585621978067201 L106.7728995702716 -6.587417954362762 L106.77966239766826 -6.595286361946688 L106.77953778649353 -6.595295262744883 L106.78042542641784 -6.595443202732266 L106.78242475699179 -6.593443872158324 L106.78480936696653 -6.594516946646963 L106.7858939173697 -6.5946254016872805 L106.7848587277351 -6.592140946564198 L106.78831289592881 -6.5918530992147195 L106.78906664837707 -6.594868109007797 L106.78991480237379 -6.5951290794683235 L106.79320156118618 -6.595950769171421 L106.79417100774634 -6.593365578344344 L106.79724594578654 -6.591657279433124 L106.79836852101968 -6.59216754090274 L106.80075706139054 -6.590942597663674 L106.801899583979 -6.591409050938191 L106.80170733995875 -6.591867672293659 L106.80167271827106 -6.591267026269965 L106.80122865258622 -6.589933781890726 L106.80144374238937 -6.589076198030456 L106.80216034114999 -6.588479032396615 L106.80286263197938 -6.58801083851034 L106.80415484051767 -6.58789336500686 L106.80532374448637 -6.588331703995119 L106.80499910232217 -6.5922274099651785 L106.80500631096025 -6.5920940501607825 L106.80681357057682 -6.60338942276434 L106.8069729080413 -6.603728014876364 L106.82112317729278 -6.595172038119659 L106.80768902300943 -6.604575946118022 L106.81021997990398 -6.60755885960088 L106.8145072396569 -6.613989749230198 L106.80858750941752 -6.607083397284256 L106.80795840800678 -6.607353012174573 L106.8073052786943 -6.606917592632921 L106.80650237903352 -6.607032292584462 L106.80558161951494 -6.6056 L106.80478111261552 -6.6056 L106.80399785323414 -6.6021732402064135 L106.80284713295723 -6.602418074307886 L106.77897073783554 -6.614356271868785 L106.79743629673267 -6.604298282858081 L106.79666514757274 -6.604657505218552 L106.79521498009254 -6.6036907268984235 L106.79324353240203 -6.5980228147881945 Z" stroke="blue" stroke-width="0.0005" fill="none" />
    <circle 
      cx="106.78937779643925" cy="-12.597056380797504"
      r="15" transform="translate(106.78937779643925 -6.597056380797504) scale(0.000014999999999999999 -0.000014999999999999999) translate(-106.78937779643925 6.597056380797504) translate(106.8125 -6.592499999999999) rotate(-30) translate(-106.8125 6.592499999999999)"
      fill="white" stroke="black" stroke-width="2"/>
    <circle 
      cx="106.78940154938913" cy="-12.596584144988604"
      r="15" transform="translate(106.78940154938913 -6.596584144988603) scale(0.000014999999999999999 -0.000014999999999999999) translate(-106.78940154938913 6.596584144988603) translate(106.8125 -6.592499999999999) rotate(-30) translate(-106.8125 6.592499999999999)"
      fill="white" stroke="black" stroke-width="2"/>
    <circle 
      cx="106.77897360233175" cy="-12.59693963805331"
      r="15" transform="translate(106.77897360233175 -6.596939638053311) scale(0.000014999999999999999 -0.000014999999999999999) translate(-106.77897360233175 6.596939638053311) translate(106.8125 -6.592499999999999) rotate(-30) translate(-106.8125 6.592499999999999)"
      fill="white" stroke="black" stroke-width="2"/>
    <circle 
      cx="106.7708791203399" cy="-12.585421684306109"
      r="15" transform="translate(106.7708791203399 -6.585421684306108) scale(0.000014999999999999999 -0.000014999999999999999) translate(-106.7708791203399 6.585421684306108) translate(106.8125 -6.592499999999999) rotate(-30) translate(-106.8125 6.592499999999999)"
      fill="white" stroke="black" stroke-width="2"/>
    <circle 
      cx="106.76743803541167" cy="-12.581080150115096"
      r="15" transform="translate(106.76743803541167 -6.5810801501150955) scale(0.000014999999999999999 -0.000014999999999999999) translate(-106.76743803541167 6.5810801501150955) translate(106.8125 -6.592499999999999) rotate(-30) translate(-106.8125 6.592499999999999)"
      fill="white" stroke="black" stroke-width="2"/>
    <circle 
      cx="106.77174583702356" cy="-12.584414439222009"
      r="15" transform="translate(106.77174583702356 -6.584414439222008) scale(0.000014999999999999999 -0.000014999999999999999) translate(-106.77174583702356 6.584414439222008) translate(106.8125 -6.592499999999999) rotate(-30) translate(-106.8125 6.592499999999999)"
      fill="white" stroke="black" stroke-width="2"/>
    <circle 
      cx="106.77966239766826" cy="-12.595286361946687"
      r="15" transform="translate(106.77966239766826 -6.595286361946688) scale(0.000014999999999999999 -0.000014999999999999999) translate(-106.77966239766826 6.595286361946688) translate(106.8125 -6.592499999999999) rotate(-30) translate(-106.8125 6.592499999999999)"
      fill="white" stroke="black" stroke-width="2"/>
    <circle 
      cx="106.7858939173697" cy="-12.594625401687281"
      r="15" transform="translate(106.7858939173697 -6.5946254016872805) scale(0.000014999999999999999 -0.000014999999999999999) translate(-106.7858939173697 6.5946254016872805) translate(106.8125 -6.592499999999999) rotate(-30) translate(-106.8125 6.592499999999999)"
      fill="white" stroke="black" stroke-width="2"/>
    <circle 
      cx="106.78831289592881" cy="-12.59185309921472"
      r="15" transform="translate(106.78831289592881 -6.5918530992147195) scale(0.000014999999999999999 -0.000014999999999999999) translate(-106.78831289592881 6.5918530992147195) translate(106.8125 -6.592499999999999) rotate(-30) translate(-106.8125 6.592499999999999)"
      fill="white" stroke="black" stroke-width="2"/>
    <circle 
      cx="106.78991480237379" cy="-12.595129079468323"
      r="15" transform="translate(106.78991480237379 -6.5951290794683235) scale(0.000014999999999999999 -0.000014999999999999999) translate(-106.78991480237379 6.5951290794683235) translate(106.8125 -6.592499999999999) rotate(-30) translate(-106.8125 6.592499999999999)"
      fill="white" stroke="black" stroke-width="2"/>
    <circle 
      cx="106.79320156118618" cy="-12.59595076917142"
      r="15" transform="translate(106.79320156118618 -6.595950769171421) scale(0.000014999999999999999 -0.000014999999999999999) translate(-106.79320156118618 6.595950769171421) translate(106.8125 -6.592499999999999) rotate(-30) translate(-106.8125 6.592499999999999)"
      fill="white" stroke="black" stroke-width="2"/>
    <circle 
      cx="106.79417100774634" cy="-12.593365578344343"
      r="15" transform="translate(106.79417100774634 -6.593365578344344) scale(0.000014999999999999999 -0.000014999999999999999) translate(-106.79417100774634 6.593365578344344) translate(106.8125 -6.592499999999999) rotate(-30) translate(-106.8125 6.592499999999999)"
      fill="white" stroke="black" stroke-width="2"/>
    <circle 
      cx="106.79724594578654" cy="-12.591657279433125"
      r="15" transform="translate(106.79724594578654 -6.591657279433124) scale(0.000014999999999999999 -0.000014999999999999999) translate(-106.79724594578654 6.591657279433124) translate(106.8125 -6.592499999999999) rotate(-30) translate(-106.8125 6.592499999999999)"
      fill="white" stroke="black" stroke-width="2"/>
    <circle 
      cx="106.801899583979" cy="-12.591409050938191"
      r="15" transform="translate(106.801899583979 -6.591409050938191) scale(0.000014999999999999999 -0.000014999999999999999) translate(-106.801899583979 6.591409050938191) translate(106.8125 -6.592499999999999) rotate(-30) translate(-106.8125 6.592499999999999)"
      fill="white" stroke="black" stroke-width="2"/>
    <circle 
      cx="106.80144374238937" cy="-12.589076198030456"
      r="15" transform="translate(106.80144374238937 -6.589076198030456) scale(0.000014999999999999999 -0.000014999999999999999) translate(-106.80144374238937 6.589076198030456) translate(106.8125 -6.592499999999999) rotate(-30) translate(-106.8125 6.592499999999999)"
      fill="white" stroke="black" stroke-width="2"/>
    <circle 
      cx="106.80499910232217" cy="-12.59222740996518"
      r="15" transform="translate(106.80499910232217 -6.5922274099651785) scale(0.000014999999999999999 -0.000014999999999999999) translate(-106.80499910232217 6.5922274099651785) translate(106.8125 -6.592499999999999) rotate(-30) translate(-106.8125 6.592499999999999)"
      fill="white" stroke="black" stroke-width="2"/>
    <circle 
      cx="106.80500631096025" cy="-12.592094050160782"
      r="15" transform="translate(106.80500631096025 -6.5920940501607825) scale(0.000014999999999999999 -0.000014999999999999999) translate(-106.80500631096025 6.5920940501607825) translate(106.8125 -6.592499999999999) rotate(-30) translate(-106.8125 6.592499999999999)"
      fill="white" stroke="black" stroke-width="2"/>
    <circle 
      cx="106.80681357057682" cy="-12.60338942276434"
      r="15" transform="translate(106.80681357057682 -6.60338942276434) scale(0.000014999999999999999 -0.000014999999999999999) translate(-106.80681357057682 6.60338942276434) translate(106.8125 -6.592499999999999) rotate(-30) translate(-106.8125 6.592499999999999)"
      fill="white" stroke="black" stroke-width="2"/>
    <circle 
      cx="106.8069729080413" cy="-12.603728014876364"
      r="15" transform="translate(106.8069729080413 -6.603728014876364) scale(0.000014999999999999999 -0.000014999999999999999) translate(-106.8069729080413 6.603728014876364) translate(106.8125 -6.592499999999999) rotate(-30) translate(-106.8125 6.592499999999999)"
      fill="white" stroke="black" stroke-width="2"/>
    <circle 
      cx="106.80768902300943" cy="-12.604575946118022"
      r="15" transform="translate(106.80768902300943 -6.604575946118022) scale(0.000014999999999999999 -0.000014999999999999999) translate(-106.80768902300943 6.604575946118022) translate(106.8125 -6.592499999999999) rotate(-30) translate(-106.8125 6.592499999999999)"
      fill="white" stroke="black" stroke-width="2"/>
    <circle 
      cx="106.8145072396569" cy="-12.613989749230198"
      r="15" transform="translate(106.8145072396569 -6.613989749230198) scale(0.000014999999999999999 -0.000014999999999999999) translate(-106.8145072396569 6.613989749230198) translate(106.8125 -6.592499999999999) rotate(-30) translate(-106.8125 6.592499999999999)"
      fill="white" stroke="black" stroke-width="2"/>
    <circle 
      cx="106.80858750941752" cy="-12.607083397284256"
      r="15" transform="translate(106.80858750941752 -6.607083397284256) scale(0.000014999999999999999 -0.000014999999999999999) translate(-106.80858750941752 6.607083397284256) translate(106.8125 -6.592499999999999) rotate(-30) translate(-106.8125 6.592499999999999)"
      fill="white" stroke="black" stroke-width="2"/>
    <circle 
      cx="106.80399785323414" cy="-12.602173240206413"
      r="15" transform="translate(106.80399785323414 -6.6021732402064135) scale(0.000014999999999999999 -0.000014999999999999999) translate(-106.80399785323414 6.6021732402064135) translate(106.8125 -6.592499999999999) rotate(-30) translate(-106.8125 6.592499999999999)"
      fill="white" stroke="black" stroke-width="2"/>
    <circle 
      cx="106.80284713295723" cy="-12.602418074307886"
      r="15" transform="translate(106.80284713295723 -6.602418074307886) scale(0.000014999999999999999 -0.000014999999999999999) translate(-106.80284713295723 6.602418074307886) translate(106.8125 -6.592499999999999) rotate(-30) translate(-106.8125 6.592499999999999)"
      fill="white" stroke="black" stroke-width="2"/>
    <circle 
      cx="106.77897073783554" cy="-12.614356271868786"
      r="15" transform="translate(106.77897073783554 -6.614356271868785) scale(0.000014999999999999999 -0.000014999999999999999) translate(-106.77897073783554 6.614356271868785) translate(106.8125 -6.592499999999999) rotate(-30) translate(-106.8125 6.592499999999999)"
      fill="white" stroke="black" stroke-width="2"/>
    <circle 
      cx="106.79743629673267" cy="-12.604298282858082"
      r="15" transform="translate(106.79743629673267 -6.604298282858081) scale(0.000014999999999999999 -0.000014999999999999999) translate(-106.79743629673267 6.604298282858081) translate(106.8125 -6.592499999999999) rotate(-30) translate(-106.8125 6.592499999999999)"
      fill="white" stroke="black" stroke-width="2"/>
    <circle 
      cx="106.79666514757274" cy="-12.604657505218551"
      r="15" transform="translate(106.79666514757274 -6.604657505218552) scale(0.000014999999999999999 -0.000014999999999999999) translate(-106.79666514757274 6.604657505218552) translate(106.8125 -6.592499999999999) rotate(-30) translate(-106.8125 6.592499999999999)"
      fill="white" stroke="black" stroke-width="2"/>
    <circle 
      cx="106.79521498009254" cy="-12.603690726898424"
      r="15" transform="translate(106.79521498009254 -6.6036907268984235) scale(0.000014999999999999999 -0.000014999999999999999) translate(-106.79521498009254 6.6036907268984235) translate(106.8125 -6.592499999999999) rotate(-30) translate(-106.8125 6.592499999999999)"
      fill="white" stroke="black" stroke-width="2"/>
    <circle 
      cx="106.79324353240203" cy="-12.598022814788195"
      r="15" transform="translate(106.79324353240203 -6.5980228147881945) scale(0.000014999999999999999 -0.000014999999999999999) translate(-106.79324353240203 6.5980228147881945) translate(106.8125 -6.592499999999999) rotate(-30) translate(-106.8125 6.592499999999999)"
      fill="white" stroke="black" stroke-width="2"/>
    <circle 
      cx="106.78937779643925" cy="-12.597056380797504"
      r="15" transform="translate(106.78937779643925 -6.597056380797504) scale(0.000014999999999999999 -0.000014999999999999999) translate(-106.78937779643925 6.597056380797504) translate(106.8125 -6.592499999999999) rotate(-30) translate(-106.8125 6.592499999999999)"
      fill="white" stroke="none"/>
    <circle 
      cx="106.78940154938913" cy="-12.596584144988604"
      r="15" transform="translate(106.78940154938913 -6.596584144988603) scale(0.000014999999999999999 -0.000014999999999999999) translate(-106.78940154938913 6.596584144988603) translate(106.8125 -6.592499999999999) rotate(-30) translate(-106.8125 6.592499999999999)"
      fill="white" stroke="none"/>
    <circle 
      cx="106.77897360233175" cy="-12.59693963805331"
      r="15" transform="translate(106.77897360233175 -6.596939638053311) scale(0.000014999999999999999 -0.000014999999999999999) translate(-106.77897360233175 6.596939638053311) translate(106.8125 -6.592499999999999) rotate(-30) translate(-106.8125 6.592499999999999)"
      fill="white" stroke="none"/>
    <circle 
      cx="106.7708791203399" cy="-12.585421684306109"
      r="15" transform="translate(106.7708791203399 -6.585421684306108) scale(0.000014999999999999999 -0.000014999999999999999) translate(-106.7708791203399 6.585421684306108) translate(106.8125 -6.592499999999999) rotate(-30) translate(-106.8125 6.592499999999999)"
      fill="white" stroke="none"/>
    <circle 
      cx="106.76743803541167" cy="-12.581080150115096"
      r="15" transform="translate(106.76743803541167 -6.5810801501150955) scale(0.000014999999999999999 -0.000014999999999999999) translate(-106.76743803541167 6.5810801501150955) translate(106.8125 -6.592499999999999) rotate(-30) translate(-106.8125 6.592499999999999)"
      fill="white" stroke="none"/>
    <circle 
      cx="106.77174583702356" cy="-12.584414439222009"
      r="15" transform="translate(106.77174583702356 -6.584414439222008) scale(0.000014999999999999999 -0.000014999999999999999) translate(-106.77174583702356 6.584414439222008) translate(106.8125 -6.592499999999999) rotate(-30) translate(-106.8125 6.592499999999999)"
      fill="white" stroke="none"/>
    <circle 
      cx="106.77966239766826" cy="-12.595286361946687"
      r="15" transform="translate(106.77966239766826 -6.595286361946688) scale(0.000014999999999999999 -0.000014999999999999999) translate(-106.77966239766826 6.595286361946688) translate(106.8125 -6.592499999999999) rotate(-30) translate(-106.8125 6.592499999999999)"
      fill="white" stroke="none"/>
    <circle 
      cx="106.7858939173697" cy="-12.594625401687281"
      r="15" transform="translate(106.7858939173697 -6.5946254016872805) scale(0.000014999999999999999 -0.000014999999999999999) translate(-106.7858939173697 6.5946254016872805) translate(106.8125 -6.592499999999999) rotate(-30) translate(-106.8125 6.592499999999999)"
      fill="white" stroke="none"/>
    <circle 
      cx="106.78831289592881" cy="-12.59185309921472"
      r="15" transform="translate(106.78831289592881 -6.5918530992147195) scale(0.000014999999999999999 -0.000014999999999999999) translate(-106.78831289592881 6.5918530992147195) translate(106.8125 -6.592499999999999) rotate(-30) translate(-106.8125 6.592499999999999)"
      fill="white" stroke="none"/>
    <circle 
      cx="106.78991480237379" cy="-12.595129079468323"
      r="15" transform="translate(106.78991480237379 -6.5951290794683235) scale(0.000014999999999999999 -0.000014999999999999999) translate(-106.78991480237379 6.5951290794683235) translate(106.8125 -6.592499999999999) rotate(-30) translate(-106.8125 6.592499999999999)"
      fill="white" stroke="none"/>
    <circle 
      cx="106.79320156118618" cy="-12.59595076917142"
      r="15" transform="translate(106.79320156118618 -6.595950769171421) scale(0.000014999999999999999 -0.000014999999999999999) translate(-106.79320156118618 6.595950769171421) translate(106.8125 -6.592499999999999) rotate(-30) translate(-106.8125 6.592499999999999)"
      fill="white" stroke="none"/>
    <circle 
      cx="106.79417100774634" cy="-12.593365578344343"
      r="15" transform="translate(106.79417100774634 -6.593365578344344) scale(0.000014999999999999999 -0.000014999999999999999) translate(-106.79417100774634 6.593365578344344) translate(106.8125 -6.592499999999999) rotate(-30) translate(-106.8125 6.592499999999999)"
      fill="white" stroke="none"/>
    <circle 
      cx="106.79724594578654" cy="-12.591657279433125"
      r="15" transform="translate(106.79724594578654 -6.591657279433124) scale(0.000014999999999999999 -0.000014999999999999999) translate(-106.79724594578654 6.591657279433124) translate(106.8125 -6.592499999999999) rotate(-30) translate(-106.8125 6.592499999999999)"
      fill="white" stroke="none"/>
    <circle 
      cx="106.801899583979" cy="-12.591409050938191"
      r="15" transform="translate(106.801899583979 -6.591409050938191) scale(0.000014999999999999999 -0.000014999999999999999) translate(-106.801899583979 6.591409050938191) translate(106.8125 -6.592499999999999) rotate(-30) translate(-106.8125 6.592499999999999)"
      fill="white" stroke="none"/>
    <circle 
      cx="106.80144374238937" cy="-12.589076198030456"
      r="15" transform="translate(106.80144374238937 -6.589076198030456) scale(0.000014999999999999999 -0.000014999999999999999) translate(-106.80144374238937 6.589076198030456) translate(106.8125 -6.592499999999999) rotate(-30) translate(-106.8125 6.592499999999999)"
      fill="white" stroke="none"/>
    <circle 
      cx="106.80499910232217" cy="-12.59222740996518"
      r="15" transform="translate(106.80499910232217 -6.5922274099651785) scale(0.000014999999999999999 -0.000014999999999999999) translate(-106.80499910232217 6.5922274099651785) translate(106.8125 -6.592499999999999) rotate(-30) translate(-106.8125 6.592499999999999)"
      fill="white" stroke="none"/>
    <circle 
      cx="106.80500631096025" cy="-12.592094050160782"
      r="15" transform="translate(106.80500631096025 -6.5920940501607825) scale(0.000014999999999999999 -0.000014999999999999999) translate(-106.80500631096025 6.5920940501607825) translate(106.8125 -6.592499999999999) rotate(-30) translate(-106.8125 6.592499999999999)"
      fill="white" stroke="none"/>
    <circle 
      cx="106.80681357057682" cy="-12.60338942276434"
      r="15" transform="translate(106.80681357057682 -6.60338942276434) scale(0.000014999999999999999 -0.000014999999999999999) translate(-106.80681357057682 6.60338942276434) translate(106.8125 -6.592499999999999) rotate(-30) translate(-106.8125 6.592499999999999)"
      fill="white" stroke="none"/>
    <circle 
      cx="106.8069729080413" cy="-12.603728014876364"
      r="15" transform="translate(106.8069729080413 -6.603728014876364) scale(0.000014999999999999999 -0.000014999999999999999) translate(-106.8069729080413 6.603728014876364) translate(106.8125 -6.592499999999999) rotate(-30) translate(-106.8125 6.592499999999999)"
      fill="white" stroke="none"/>
    <circle 
      cx="106.80768902300943" cy="-12.604575946118022"
      r="15" transform="translate(106.80768902300943 -6.604575946118022) scale(0.000014999999999999999 -0.000014999999999999999) translate(-106.80768902300943 6.604575946118022) translate(106.8125 -6.592499999999999) rotate(-30) translate(-106.8125 6.592499999999999)"
      fill="white" stroke="none"/>
    <circle 
      cx="106.8145072396569" cy="-12.613989749230198"
      r="15" transform="translate(106.8145072396569 -6.613989749230198) scale(0.000014999999999999999 -0.000014999999999999999) translate(-106.8145072396569 6.613989749230198) translate(106.8125 -6.592499999999999) rotate(-30) translate(-106.8125 6.592499999999999)"
      fill="white" stroke="none"/>
    <circle 
      cx="106.80858750941752" cy="-12.607083397284256"
      r="15" transform="translate(106.80858750941752 -6.607083397284256) scale(0.000014999999999999999 -0.000014999999999999999) translate(-106.80858750941752 6.607083397284256) translate(106.8125 -6.592499999999999) rotate(-30) translate(-106.8125 6.592499999999999)"
      fill="white" stroke="none"/>
    <circle 
      cx="106.80399785323414" cy="-12.602173240206413"
      r="15" transform="translate(106.80399785323414 -6.6021732402064135) scale(0.000014999999999999999 -0.000014999999999999999) translate(-106.80399785323414 6.6021732402064135) translate(106.8125 -6.592499999999999) rotate(-30) translate(-106.8125 6.592499999999999)"
      fill="white" stroke="none"/>
    <circle 
      cx="106.80284713295723" cy="-12.602418074307886"
      r="15" transform="translate(106.80284713295723 -6.602418074307886) scale(0.000014999999999999999 -0.000014999999999999999) translate(-106.80284713295723 6.602418074307886) translate(106.8125 -6.592499999999999) rotate(-30) translate(-106.8125 6.592499999999999)"
      fill="white" stroke="none"/>
    <circle 
      cx="106.77897073783554" cy="-12.614356271868786"
      r="15" transform="translate(106.77897073783554 -6.614356271868785) scale(0.000014999999999999999 -0.000014999999999999999) translate(-106.77897073783554 6.614356271868785) translate(106.8125 -6.592499999999999) rotate(-30) translate(-106.8125 6.592499999999999)"
      fill="white" stroke="none"/>
    <circle 
      cx="106.79743629673267" cy="-12.604298282858082"
      r="15" transform="translate(106.79743629673267 -6.604298282858081) scale(0.000014999999999999999 -0.000014999999999999999) translate(-106.79743629673267 6.604298282858081) translate(106.8125 -6.592499999999999) rotate(-30) translate(-106.8125 6.592499999999999)"
      fill="white" stroke="none"/>
    <circle 
      cx="106.79666514757274" cy="-12.604657505218551"
      r="15" transform="translate(106.79666514757274 -6.604657505218552) scale(0.000014999999999999999 -0.000014999999999999999) translate(-106.79666514757274 6.604657505218552) translate(106.8125 -6.592499999999999) rotate(-30) translate(-106.8125 6.592499999999999)"
      fill="white" stroke="none"/>
    <circle 
      cx="106.79521498009254" cy="-12.603690726898424"
      r="15" transform="translate(106.79521498009254 -6.6036907268984235) scale(0.000014999999999999999 -0.000014999999999999999) translate(-106.79521498009254 6.6036907268984235) translate(106.8125 -6.592499999999999) rotate(-30) translate(-106.8125 6.592499999999999)"
      fill="white" stroke="none"/>
    <circle 
      cx="106.79324353240203" cy="-12.598022814788195"
      r="15" transform="translate(106.79324353240203 -6.5980228147881945) scale(0.000014999999999999999 -0.000014999999999999999) translate(-106.79324353240203 6.5980228147881945) translate(106.8125 -6.592499999999999) rotate(-30) translate(-106.8125 6.592499999999999)"
      fill="white" stroke="none"/>
    <text x="106.78937779643925" y="-6.597056380797504" fill="black" text-anchor="middle" transform="translate(106.78937779643925 -6.597056380797504) scale(0.000014999999999999999 -0.000014999999999999999) translate(-106.78937779643925 6.597056380797504) translate(106.8125 -6.592499999999999) rotate(-30) translate(-106.8125 6.592499999999999)">03</text>
    <text x="106.78940154938913" y="-6.596584144988603" fill="black" text-anchor="middle" transform="translate(106.78940154938913 -6.596584144988603) scale(0.000014999999999999999 -0.000014999999999999999) translate(-106.78940154938913 6.596584144988603) translate(106.8125 -6.592499999999999) rotate(-30) translate(-106.8125 6.592499999999999)">03</text>
    <text x="106.77897360233175" y="-6.596939638053311" fill="black" text-anchor="middle" transform="translate(106.77897360233175 -6.596939638053311) scale(0.000014999999999999999 -0.000014999999999999999) translate(-106.77897360233175 6.596939638053311) translate(106.8125 -6.592499999999999) rotate(-30) translate(-106.8125 6.592499999999999)">03</text>
    <text x="106.7708791203399" y="-6.585421684306108" fill="black" text-anchor="middle" transform="translate(106.7708791203399 -6.585421684306108) scale(0.000014999999999999999 -0.000014999999999999999) translate(-106.7708791203399 6.585421684306108) translate(106.8125 -6.592499999999999) rotate(-30) translate(-106.8125 6.592499999999999)">03</text>
    <text x="106.76743803541167" y="-6.5810801501150955" fill="black" text-anchor="middle" transform="translate(106.76743803541167 -6.5810801501150955) scale(0.000014999999999999999 -0.000014999999999999999) translate(-106.76743803541167 6.5810801501150955) translate(106.8125 -6.592499999999999) rotate(-30) translate(-106.8125 6.592499999999999)">03</text>
    <text x="106.77174583702356" y="-6.584414439222008" fill="black" text-anchor="middle" transform="translate(106.77174583702356 -6.584414439222008) scale(0.000014999999999999999 -0.000014999999999999999) translate(-106.77174583702356 6.584414439222008) translate(106.8125 -6.592499999999999) rotate(-30) translate(-106.8125 6.592499999999999)">03</text>
    <text x="106.77966239766826" y="-6.595286361946688" fill="black" text-anchor="middle" transform="translate(106.77966239766826 -6.595286361946688) scale(0.000014999999999999999 -0.000014999999999999999) translate(-106.77966239766826 6.595286361946688) translate(106.8125 -6.592499999999999) rotate(-30) translate(-106.8125 6.592499999999999)">03</text>
    <text x="106.7858939173697" y="-6.5946254016872805" fill="black" text-anchor="middle" transform="translate(106.7858939173697 -6.5946254016872805) scale(0.000014999999999999999 -0.000014999999999999999) translate(-106.7858939173697 6.5946254016872805) translate(106.8125 -6.592499999999999) rotate(-30) translate(-106.8125 6.592499999999999)">03</text>
    <text x="106.78831289592881" y="-6.5918530992147195" fill="black" text-anchor="middle" transform="translate(106.78831289592881 -6.5918530992147195) scale(0.000014999999999999999 -0.000014999999999999999) translate(-106.78831289592881 6.5918530992147195) translate(106.8125 -6.592499999999999) rotate(-30) translate(-106.8125 6.592499999999999)">03</text>
    <text x="106.78991480237379" y="-6.5951290794683235" fill="black" text-anchor="middle" transform="translate(106.78991480237379 -6.5951290794683235) scale(0.000014999999999999999 -0.000014999999999999999) translate(-106.78991480237379 6.5951290794683235) translate(106.8125 -6.592499999999999) rotate(-30) translate(-106.8125 6.592499999999999)">03</text>
    <text x="106.79320156118618" y="-6.595950769171421" fill="black" text-anchor="middle" transform="translate(106.79320156118618 -6.595950769171421) scale(0.000014999999999999999 -0.000014999999999999999) translate(-106.79320156118618 6.595950769171421) translate(106.8125 -6.592499999999999) rotate(-30) translate(-106.8125 6.592499999999999)">03</text>
    <text x="106.79417100774634" y="-6.593365578344344" fill="black" text-anchor="middle" transform="translate(106.79417100774634 -6.593365578344344) scale(0.000014999999999999999 -0.000014999999999999999) translate(-106.79417100774634 6.593365578344344) translate(106.8125 -6.592499999999999) rotate(-30) translate(-106.8125 6.592499999999999)">03</text>
    <text x="106.79724594578654" y="-6.591657279433124" fill="black" text-anchor="middle" transform="translate(106.79724594578654 -6.591657279433124) scale(0.000014999999999999999 -0.000014999999999999999) translate(-106.79724594578654 6.591657279433124) translate(106.8125 -6.592499999999999) rotate(-30) translate(-106.8125 6.592499999999999)">03</text>
    <text x="106.801899583979" y="-6.591409050938191" fill="black" text-anchor="middle" transform="translate(106.801899583979 -6.591409050938191) scale(0.000014999999999999999 -0.000014999999999999999) translate(-106.801899583979 6.591409050938191) translate(106.8125 -6.592499999999999) rotate(-30) translate(-106.8125 6.592499999999999)">03</text>
    <text x="106.80144374238937" y="-6.589076198030456" fill="black" text-anchor="middle" transform="translate(106.80144374238937 -6.589076198030456) scale(0.000014999999999999999 -0.000014999999999999999) translate(-106.80144374238937 6.589076198030456) translate(106.8125 -6.592499999999999) rotate(-30) translate(-106.8125 6.592499999999999)">03</text>
    <text x="106.80499910232217" y="-6.5922274099651785" fill="black" text-anchor="middle" transform="translate(106.80499910232217 -6.5922274099651785) scale(0.000014999999999999999 -0.000014999999999999999) translate(-106.80499910232217 6.5922274099651785) translate(106.8125 -6.592499999999999) rotate(-30) translate(-106.8125 6.592499999999999)">03</text>
    <text x="106.80500631096025" y="-6.5920940501607825" fill="black" text-anchor="middle" transform="translate(106.80500631096025 -6.5920940501607825) scale(0.000014999999999999999 -0.000014999999999999999) translate(-106.80500631096025 6.5920940501607825) translate(106.8125 -6.592499999999999) rotate(-30) translate(-106.8125 6.592499999999999)">03</text>
    <text x="106.80681357057682" y="-6.60338942276434" fill="black" text-anchor="middle" transform="translate(106.80681357057682 -6.60338942276434) scale(0.000014999999999999999 -0.000014999999999999999) translate(-106.80681357057682 6.60338942276434) translate(106.8125 -6.592499999999999) rotate(-30) translate(-106.8125 6.592499999999999)">03</text>
    <text x="106.8069729080413" y="-6.603728014876364" fill="black" text-anchor="middle" transform="translate(106.8069729080413 -6.603728014876364) scale(0.000014999999999999999 -0.000014999999999999999) translate(-106.8069729080413 6.603728014876364) translate(106.8125 -6.592499999999999) rotate(-30) translate(-106.8125 6.592499999999999)">03</text>
    <text x="106.80768902300943" y="-6.604575946118022" fill="black" text-anchor="middle" transform="translate(106.80768902300943 -6.604575946118022) scale(0.000014999999999999999 -0.000014999999999999999) translate(-106.80768902300943 6.604575946118022) translate(106.8125 -6.592499999999999) rotate(-30) translate(-106.8125 6.592499999999999)">03</text>
    <text x="106.8145072396569" y="-6.613989749230198" fill="black" text-anchor="middle" transform="translate(106.8145072396569 -6.613989749230198) scale(0.000014999999999999999 -0.000014999999999999999) translate(-106.8145072396569 6.613989749230198) translate(106.8125 -6.592499999999999) rotate(-30) translate(-106.8125 6.592499999999999)">03</text>
    <text x="106.80858750941752" y="-6.607083397284256" fill="black" text-anchor="middle" transform="translate(106.80858750941752 -6.607083397284256) scale(0.000014999999999999999 -0.000014999999999999999) translate(-106.80858750941752 6.607083397284256) translate(106.8125 -6.592499999999999) rotate(-30) translate(-106.8125 6.592499999999999)">03</text>
    <text x="106.80399785323414" y="-6.6021732402064135" fill="black" text-anchor="middle" transform="translate(106.80399785323414 -6.6021732402064135) scale(0.000014999999999999999 -0.000014999999999999999) translate(-106.80399785323414 6.6021732402064135) translate(106.8125 -6.592499999999999) rotate(-30) translate(-106.8125 6.592499999999999)">03</text>
    <text x="106.80284713295723" y="-6.602418074307886" fill="black" text-anchor="middle" transform="translate(106.80284713295723 -6.602418074307886) scale(0.000014999999999999999 -0.000014999999999999999) translate(-106.80284713295723 6.602418074307886) translate(106.8125 -6.592499999999999) rotate(-30) translate(-106.8125 6.592499999999999)">03</text>
    <text x="106.77897073783554" y="-6.614356271868785" fill="black" text-anchor="middle" transform="translate(106.77897073783554 -6.614356271868785) scale(0.000014999999999999999 -0.000014999999999999999) translate(-106.77897073783554 6.614356271868785) translate(106.8125 -6.592499999999999) rotate(-30) translate(-106.8125 6.592499999999999)">03</text>
    <text x="106.79743629673267" y="-6.604298282858081" fill="black" text-anchor="middle" transform="translate(106.79743629673267 -6.604298282858081) scale(0.000014999999999999999 -0.000014999999999999999) translate(-106.79743629673267 6.604298282858081) translate(106.8125 -6.592499999999999) rotate(-30) translate(-106.8125 6.592499999999999)">03</text>
    <text x="106.79666514757274" y="-6.604657505218552" fill="black" text-anchor="middle" transform="translate(106.79666514757274 -6.604657505218552) scale(0.000014999999999999999 -0.000014999999999999999) translate(-106.79666514757274 6.604657505218552) translate(106.8125 -6.592499999999999) rotate(-30) translate(-106.8125 6.592499999999999)">03</text>
    <text x="106.79521498009254" y="-6.6036907268984235" fill="black" text-anchor="middle" transform="translate(106.79521498009254 -6.6036907268984235) scale(0.000014999999999999999 -0.000014999999999999999) translate(-106.79521498009254 6.6036907268984235) translate(106.8125 -6.592499999999999) rotate(-30) translate(-106.8125 6.592499999999999)">03</text>
    <text x="106.79324353240203" y="-6.5980228147881945" fill="black" text-anchor="middle" transform="translate(106.79324353240203 -6.5980228147881945) scale(0.000014999999999999999 -0.000014999999999999999) translate(-106.79324353240203 6.5980228147881945) translate(106.8125 -6.592499999999999) rotate(-30) translate(-106.8125 6.592499999999999)">03</text>
  </g>
</svg>
