<svg width="1500" height="1500" xmlns="http://www.w3.org/2000/svg" xmlns:xlink="http://www.w3.org/1999/xlink" >
  <path d="M403.668896912882 470.8340300957648 L397.33679996562756 404.6059779280439 L394.23831003506325 377.06852116391065 L423.37823984915343 364.18408233666423 L482.7570999914002 360.67998039234527 L509.66079910371855 356.283506989872 L521.6463241079553 351.6014027982633 L560.5091848393488 360.5450416580367 L571.8919389356614 358.50407873114057 L584.5903632412108 360.00703483521625 L583.3489838350395 361.32983956301837 L579.4490321842359 360.9226735223293 L573.3845544649568 359.58332462079284 L559.2747570362881 362.26722949423004 L550.72065282944 366.7828237328645 L416.5950007745912 398.8136138127098 L400.5660310609312 411.33313612008203 L403.9853894229022 467.54452310797836 L373.16160381723773 462.8524114171719 L374.67556138889074 483.6225171367598 L374.67556138889074 476.2792514454862 L373.13979321700185 479.2165964595079 L369.7476168841576 482.6553936852385 L366.52475849877135 485.27156302395787 L364.0074191567884 485.27156302395787 L359.7140078820111 483.8519223684559 L356.6256077878136 501.7107102389384 L368.8578088712456 506.5696750648795 L376.53814891338385 482.66775275775746 Z" stroke="lightgrey" stroke-width="0.5" fill="none" />
</svg>
