<svg width="1450.0000000001023" height="1550.0000000000025" xmlns="http://www.w3.org/2000/svg" xmlns:xlink="http://www.w3.org/1999/xlink" >
  <g transform="translate(725.0000000000512 775.0000000000013) rotate(0) scale(10000 -10000) translate(-106.7975 6.592499999999999)">
    <path d="M106.725 -6.515 L106.87 -6.515 L106.87 -6.67 L106.725 -6.67 Z" fill="none" stroke="black" stroke-width="0.001" transform="translate(106.7975 -6.592499999999999) rotate(0) translate(-106.7975 6.592499999999999)" />
    <path d="M106.80599487823915 -6.58474497190134 L106.80599487823915 -6.58474497190134 L106.80513858791107 -6.588455563323018 L106.80545250007205 -6.588537480639927 L106.80545250007205 -6.588537480639927 L106.80611706484093 -6.588710902920257 L106.80600433062223 -6.590085349404807 L106.80600433062223 -6.590085349404807 L106.80590595456486 -6.591284742346709 L106.80610460370181 -6.591528722801151 L106.80610238398017 -6.591928716642148 L106.80609883203857 -6.592568776518702 L106.80515885421728 -6.5925884127493015 L106.80515885421728 -6.5925884127493015 L106.80497938600364 -6.592592161858215 L106.80391166968764 -6.593817906390537 L106.80389007958442 -6.594217323299848 L106.80379741813906 -6.595931560039447 L106.80437342564701 -6.5982657080740585 L106.80443662184746 -6.598660684326826 L106.80477908708475 -6.60080109205997 L106.8046245066115 -6.601017504722512 L106.8046245066115 -6.601017504722512 L106.80447655119596 -6.601224642304275 L106.80468837076776 -6.601399910430283 L106.80429141043027 -6.601449129232234 L106.80429343613207 -6.60144887806705 L106.80266125406308 -6.601014958552348 L106.80110472265028 -6.601385377181634 L106.79978265010517 -6.601699999999999 L106.80075 -6.6027 L106.79874999999998 -6.6027 L106.7996 -6.6027 L106.7993788854382 -6.6023633436854 L106.79866334368539 -6.602721114561802 L106.7986148334262 -6.602745369691397 L106.79783666640105 -6.603169228802894 L106.79783666640105 -6.603169228802894 L106.79707570326734 -6.603583717141918 L106.7968090957617 -6.603707910206589 L106.7968090957617 -6.603707910206589 L106.79673485242726 -6.603742494781445 L106.79662188007849 -6.6036671798822635 L106.79662188007849 -6.6036671798822635 L106.79643366312278 -6.60354170191179 L106.79553240220301 -6.600341786984377 L106.79540099395302 -6.599963988265694 L106.79433792543128 -6.596907666265655 L106.79494587980093 -6.596425655112617 L106.7952267785542 -6.595676591770561 L106.79540717795236 -6.595195526708801 L106.79643564293119 -6.5946241572761215 L106.79643564293119 -6.5946241572761215 L106.79734504517788 -6.594118933805736 L106.79693963352256 -6.592836197055696 L106.79876036647747 -6.593663802944302 L106.7984 -6.5935 L106.79960700000001 -6.592881 L106.79960700000001 -6.592881 L106.800814 -6.592262 L106.80104924141011 -6.592574067138339 L106.80141956713834 -6.592725258589881 L106.8017058987954 -6.592842158107129 L106.80215591430301 -6.592682056071103 L106.8027924065613 -6.593166697799758 L106.80289973925072 -6.593248423695817 L106.802712662124 -6.59313970697438 L106.80430137778994 -6.5919248067592395 L106.80421611272611 -6.591990009455102 L106.80453408175238 -6.590582700055677 L106.80456729994431 -6.59018408175238 L106.8047018859159 -6.588569050093492 L106.80560512176086 -6.58465502809866 L106.80560512176086 -6.58465502809866 L106.80654352887944 -6.580588597251475 L106.80886391965258 -6.580750484979832 L106.80886391965258 -6.580750484979832 L106.81102929488338 -6.580901557670354 L106.81214432422072 -6.581154973428842 L106.81214432422072 -6.581154973428842 L106.8132 -6.5816 L106.81205567577928 -6.581545026571159 L106.81205567577928 -6.581545026571159 L106.81078783130563 -6.581256880099875 L106.81090054644912 -6.5797352256628985 L106.81090054644912 -6.5797352256628985 L106.81099842649476 -6.5784138450464855 L106.81085443951717 -6.577741905817746 L106.81085443951717 -6.577741905817746 L106.81069522809487 -6.576998919180346 L106.81150489277235 -6.57340603217405 L106.81150489277235 -6.57340603217405 L106.81226366913992 -6.570038962042881 L106.8107435667352 -6.569591873100314 L106.8107435667352 -6.569591873100314 L106.80925291196449 -6.5691534452265765 L106.80809605251383 -6.574889540002789 L106.80809605251383 -6.574889540002789 L106.80689550311399 -6.580842264110335 Z" stroke="red" stroke-width="0.0002" fill="none" />
    <circle 
      cx="106.8132" cy="-12.5816"
      r="15" transform="translate(106.8132 -6.5816) scale(0.00001 -0.00001) translate(-106.8132 6.5816) translate(106.7975 -6.592499999999999) rotate(0) translate(-106.7975 6.592499999999999)"
      fill="white" stroke="black" stroke-width="2"/>
    <circle 
      cx="106.8132" cy="-12.5816"
      r="15" transform="translate(106.8132 -6.5816) scale(0.00001 -0.00001) translate(-106.8132 6.5816) translate(106.7975 -6.592499999999999) rotate(0) translate(-106.7975 6.592499999999999)"
      fill="white" stroke="none"/>
    <text x="106.8132" y="-6.5816" fill="black" text-anchor="middle" transform="translate(106.8132 -6.5816) scale(0.00001 -0.00001) translate(-106.8132 6.5816) translate(106.7975 -6.592499999999999) rotate(0) translate(-106.7975 6.592499999999999)">08</text>
    <line x1="106.8067" y1="-6.5808" x2="106.8049" y2="-6.5886" style="stroke:rgb(255,0,0);stroke-width:.00002" />
    <line x1="106.8067" y1="-6.5808" x2="106.8058" y2="-6.5847" style="stroke:rgb(0,0,0);stroke-width:.00002" />
    <line x1="106.8058" y1="-6.5847" x2="106.8058" y2="-6.5847" style="stroke:rgb(0,0,0);stroke-width:.00002" />
    <line x1="106.8058" y1="-6.5847" x2="106.8049" y2="-6.5886" style="stroke:rgb(0,0,0);stroke-width:.00002" />
    <circle cx="106.8067" cy="-6.5808" fill="rgb(255,0,0)" r=".0001" />
    <text x="106.8067" y="-6.5808" stroke="rgb(0,0,0)" transform="translate(106.8067 -6.5808),scale(0.00001 -0.00001),translate(-106.8067 6.5808),translate(106.7975 -6.592499999999999),rotate(0),translate(-106.7975 6.592499999999999)" >pajajaran-sobana</text>
    <line x1="106.8049" y1="-6.5886" x2="106.805904" y2="-6.588862" style="stroke:rgb(255,0,0);stroke-width:.00002" />
    <line x1="106.8049" y1="-6.5886" x2="106.805402" y2="-6.588730999999999" style="stroke:rgb(0,0,0);stroke-width:.00002" />
    <line x1="106.805402" y1="-6.588730999999999" x2="106.805402" y2="-6.588730999999999" style="stroke:rgb(0,0,0);stroke-width:.00002" />
    <line x1="106.805402" y1="-6.588730999999999" x2="106.805904" y2="-6.588862" style="stroke:rgb(0,0,0);stroke-width:.00002" />
    <circle cx="106.8049" cy="-6.5886" fill="rgb(255,0,0)" r=".0001" />
    <text x="106.8049" y="-6.5886" stroke="rgb(0,0,0)" transform="translate(106.8049 -6.5886),scale(0.00001 -0.00001),translate(-106.8049 6.5886),translate(106.7975 -6.592499999999999),rotate(0),translate(-106.7975 6.592499999999999)" >salak-pajajaran</text>
    <line x1="106.805904" y1="-6.588862" x2="106.805706" y2="-6.591276" style="stroke:rgb(255,0,0);stroke-width:.00002" />
    <line x1="106.805904" y1="-6.588862" x2="106.80580499999999" y2="-6.590069" style="stroke:rgb(0,0,0);stroke-width:.00002" />
    <line x1="106.80580499999999" y1="-6.590069" x2="106.80580499999999" y2="-6.590069" style="stroke:rgb(0,0,0);stroke-width:.00002" />
    <line x1="106.80580499999999" y1="-6.590069" x2="106.805706" y2="-6.591276" style="stroke:rgb(0,0,0);stroke-width:.00002" />
    <circle cx="106.805904" cy="-6.588862" fill="rgb(255,0,0)" r=".0001" />
    <text x="106.805904" y="-6.588862" stroke="rgb(0,0,0)" transform="translate(106.805904 -6.588862),scale(0.00001 -0.00001),translate(-106.805904 6.588862),translate(106.7975 -6.592499999999999),rotate(0),translate(-106.7975 6.592499999999999)" >lodaya-N</text>
    <line x1="106.805706" y1="-6.591276" x2="106.805701" y2="-6.592177" style="stroke:rgb(255,0,0);stroke-width:.00002" />
    <line x1="106.805706" y1="-6.591276" x2="106.80570460986081" y2="-6.591526503079502" style="stroke:rgb(0,0,0);stroke-width:.00002" />
    <line x1="106.80570460986081" y1="-6.591526503079502" x2="106.80570239013917" y2="-6.5919264969204985" style="stroke:rgb(0,0,0);stroke-width:.00002" />
    <line x1="106.80570239013917" y1="-6.5919264969204985" x2="106.805701" y2="-6.592177" style="stroke:rgb(0,0,0);stroke-width:.00002" />
    <circle cx="106.805706" cy="-6.591276" fill="rgb(255,0,0)" r=".0001" />
    <text x="106.805706" y="-6.591276" stroke="rgb(0,0,0)" transform="translate(106.805706 -6.591276),scale(0.00001 -0.00001),translate(-106.805706 6.591276),translate(106.7975 -6.592499999999999),rotate(0),translate(-106.7975 6.592499999999999)" >lodaya-M</text>
    <line x1="106.805701" y1="-6.592177" x2="106.8046" y2="-6.5922" style="stroke:rgb(255,0,0);stroke-width:.00002" />
    <line x1="106.805701" y1="-6.592177" x2="106.8051505" y2="-6.592188500000001" style="stroke:rgb(0,0,0);stroke-width:.00002" />
    <line x1="106.8051505" y1="-6.592188500000001" x2="106.8051505" y2="-6.592188500000001" style="stroke:rgb(0,0,0);stroke-width:.00002" />
    <line x1="106.8051505" y1="-6.592188500000001" x2="106.8046" y2="-6.5922" style="stroke:rgb(0,0,0);stroke-width:.00002" />
    <circle cx="106.805701" cy="-6.592177" fill="rgb(255,0,0)" r=".0001" />
    <text x="106.805701" y="-6.592177" stroke="rgb(0,0,0)" transform="translate(106.805701 -6.592177),scale(0.00001 -0.00001),translate(-106.805701 6.592177),translate(106.7975 -6.592499999999999),rotate(0),translate(-106.7975 6.592499999999999)" >lodaya-S</text>
    <line x1="106.8046" y1="-6.5922" x2="106.8044" y2="-6.5959" style="stroke:rgb(255,0,0);stroke-width:.00002" />
    <line x1="106.8046" y1="-6.5922" x2="106.8045107950516" y2="-6.593850291545345" style="stroke:rgb(0,0,0);stroke-width:.00002" />
    <line x1="106.8045107950516" y1="-6.593850291545345" x2="106.80448920494838" y2="-6.594249708454655" style="stroke:rgb(0,0,0);stroke-width:.00002" />
    <line x1="106.80448920494838" y1="-6.594249708454655" x2="106.8044" y2="-6.5959" style="stroke:rgb(0,0,0);stroke-width:.00002" />
    <circle cx="106.8046" cy="-6.5922" fill="rgb(255,0,0)" r=".0001" />
    <text x="106.8046" y="-6.5922" stroke="rgb(0,0,0)" transform="translate(106.8046 -6.5922),scale(0.00001 -0.00001),translate(-106.8046 6.5922),translate(106.7975 -6.592499999999999),rotate(0),translate(-106.7975 6.592499999999999)" >pangrango-pajajaran</text>
    <line x1="106.8044" y1="-6.5959" x2="106.8052" y2="-6.6009" style="stroke:rgb(255,0,0);stroke-width:.00002" />
    <line x1="106.8044" y1="-6.5959" x2="106.80476840189978" y2="-6.598202511873616" style="stroke:rgb(0,0,0);stroke-width:.00002" />
    <line x1="106.80476840189978" y1="-6.598202511873616" x2="106.80483159810022" y2="-6.598597488126384" style="stroke:rgb(0,0,0);stroke-width:.00002" />
    <line x1="106.80483159810022" y1="-6.598597488126384" x2="106.8052" y2="-6.6009" style="stroke:rgb(0,0,0);stroke-width:.00002" />
    <circle cx="106.8044" cy="-6.5959" fill="rgb(255,0,0)" r=".0001" />
    <text x="106.8044" y="-6.5959" stroke="rgb(0,0,0)" transform="translate(106.8044 -6.5959),scale(0.00001 -0.00001),translate(-106.8044 6.5959),translate(106.7975 -6.592499999999999),rotate(0),translate(-106.7975 6.592499999999999)" >kb-astrid</text>
    <line x1="106.8052" y1="-6.6009" x2="106.8047" y2="-6.6016" style="stroke:rgb(255,0,0);stroke-width:.00002" />
    <line x1="106.8052" y1="-6.6009" x2="106.80494999999999" y2="-6.60125" style="stroke:rgb(0,0,0);stroke-width:.00002" />
    <line x1="106.80494999999999" y1="-6.60125" x2="106.80494999999999" y2="-6.60125" style="stroke:rgb(0,0,0);stroke-width:.00002" />
    <line x1="106.80494999999999" y1="-6.60125" x2="106.8047" y2="-6.6016" style="stroke:rgb(0,0,0);stroke-width:.00002" />
    <circle cx="106.8052" cy="-6.6009" fill="rgb(255,0,0)" r=".0001" />
    <text x="106.8052" y="-6.6009" stroke="rgb(0,0,0)" transform="translate(106.8052 -6.6009),scale(0.00001 -0.00001),translate(-106.8052 6.6009),translate(106.7975 -6.592499999999999),rotate(0),translate(-106.7975 6.592499999999999)" >kb-botani-1</text>
    <line x1="106.8047" y1="-6.6016" x2="106.804329" y2="-6.601646" style="stroke:rgb(255,0,0);stroke-width:.00002" />
    <line x1="106.8047" y1="-6.6016" x2="106.80471298016874" y2="-6.601598390599024" style="stroke:rgb(0,0,0);stroke-width:.00002" />
    <line x1="106.80471298016874" y1="-6.601598390599024" x2="106.80431601983125" y2="-6.601647609400976" style="stroke:rgb(0,0,0);stroke-width:.00002" />
    <line x1="106.80431601983125" y1="-6.601647609400976" x2="106.804329" y2="-6.601646" style="stroke:rgb(0,0,0);stroke-width:.00002" />
    <circle cx="106.8047" cy="-6.6016" fill="rgb(255,0,0)" r=".0001" />
    <text x="106.8047" y="-6.6016" stroke="rgb(0,0,0)" transform="translate(106.8047 -6.6016),scale(0.00001 -0.00001),translate(-106.8047 6.6016),translate(106.7975 -6.592499999999999),rotate(0),translate(-106.7975 6.592499999999999)" >kb-botani-2</text>
    <line x1="106.804329" y1="-6.601646" x2="106.7999" y2="-6.6027" style="stroke:rgb(255,0,0);stroke-width:.00002" />
    <line x1="106.804329" y1="-6.601646" x2="106.80289276570639" y2="-6.601987790685357" style="stroke:rgb(0,0,0);stroke-width:.00002" />
    <line x1="106.80289276570639" y1="-6.601987790685357" x2="106.80133623429359" y2="-6.602358209314643" style="stroke:rgb(0,0,0);stroke-width:.00002" />
    <line x1="106.80133623429359" y1="-6.602358209314643" x2="106.7999" y2="-6.6027" style="stroke:rgb(0,0,0);stroke-width:.00002" />
    <circle cx="106.804329" cy="-6.601646" fill="rgb(255,0,0)" r=".0001" />
    <text x="106.804329" y="-6.601646" stroke="rgb(0,0,0)" transform="translate(106.804329 -6.601646),scale(0.00001 -0.00001),translate(-106.804329 6.601646),translate(106.7975 -6.592499999999999),rotate(0),translate(-106.7975 6.592499999999999)" >bangka-otista</text>
    <line x1="106.7999" y1="-6.6027" x2="106.7996" y2="-6.6027" style="stroke:rgb(255,0,0);stroke-width:.00002" />
    <line x1="106.7999" y1="-6.6027" x2="106.80075" y2="-6.6027" style="stroke:rgb(0,0,0);stroke-width:.00002" />
    <line x1="106.80075" y1="-6.6027" x2="106.79874999999998" y2="-6.6027" style="stroke:rgb(0,0,0);stroke-width:.00002" />
    <line x1="106.79874999999998" y1="-6.6027" x2="106.7996" y2="-6.6027" style="stroke:rgb(0,0,0);stroke-width:.00002" />
    <circle cx="106.7999" cy="-6.6027" fill="rgb(255,0,0)" r=".0001" />
    <text x="106.7999" y="-6.6027" stroke="rgb(0,0,0)" transform="translate(106.7999 -6.6027),scale(0.00001 -0.00001),translate(-106.7999 6.6027),translate(106.7975 -6.592499999999999),rotate(0),translate(-106.7975 6.592499999999999)" >otista-roda</text>
    <line x1="106.7996" y1="-6.6027" x2="106.7988" y2="-6.6031" style="stroke:rgb(255,0,0);stroke-width:.00002" />
    <line x1="106.7996" y1="-6.6027" x2="106.7995577708764" y2="-6.602721114561799" style="stroke:rgb(0,0,0);stroke-width:.00002" />
    <line x1="106.7995577708764" y1="-6.602721114561799" x2="106.7988422291236" y2="-6.603078885438201" style="stroke:rgb(0,0,0);stroke-width:.00002" />
    <line x1="106.7988422291236" y1="-6.603078885438201" x2="106.7988" y2="-6.6031" style="stroke:rgb(0,0,0);stroke-width:.00002" />
    <circle cx="106.7996" cy="-6.6027" fill="rgb(255,0,0)" r=".0001" />
    <text x="106.7996" y="-6.6027" stroke="rgb(0,0,0)" transform="translate(106.7996 -6.6027),scale(0.00001 -0.00001),translate(-106.7996 6.6027),translate(106.7975 -6.592499999999999),rotate(0),translate(-106.7975 6.592499999999999)" >kb-otista</text>
    <line x1="106.7988" y1="-6.6031" x2="106.797256" y2="-6.603941" style="stroke:rgb(255,0,0);stroke-width:.00002" />
    <line x1="106.7988" y1="-6.6031" x2="106.798028" y2="-6.6035205" style="stroke:rgb(0,0,0);stroke-width:.00002" />
    <line x1="106.798028" y1="-6.6035205" x2="106.798028" y2="-6.6035205" style="stroke:rgb(0,0,0);stroke-width:.00002" />
    <line x1="106.798028" y1="-6.6035205" x2="106.797256" y2="-6.603941" style="stroke:rgb(0,0,0);stroke-width:.00002" />
    <circle cx="106.7988" cy="-6.6031" fill="rgb(255,0,0)" r=".0001" />
    <text x="106.7988" y="-6.6031" stroke="rgb(0,0,0)" transform="translate(106.7988 -6.6031),scale(0.00001 -0.00001),translate(-106.7988 6.6031),translate(106.7975 -6.592499999999999),rotate(0),translate(-106.7975 6.592499999999999)" >kb-suryakencana</text>
    <line x1="106.797256" y1="-6.603941" x2="106.7967" y2="-6.6042" style="stroke:rgb(255,0,0);stroke-width:.00002" />
    <line x1="106.797256" y1="-6.603941" x2="106.796978" y2="-6.6040705" style="stroke:rgb(0,0,0);stroke-width:.00002" />
    <line x1="106.796978" y1="-6.6040705" x2="106.796978" y2="-6.6040705" style="stroke:rgb(0,0,0);stroke-width:.00002" />
    <line x1="106.796978" y1="-6.6040705" x2="106.7967" y2="-6.6042" style="stroke:rgb(0,0,0);stroke-width:.00002" />
    <circle cx="106.797256" cy="-6.603941" fill="rgb(255,0,0)" r=".0001" />
    <text x="106.797256" y="-6.603941" stroke="rgb(0,0,0)" transform="translate(106.797256 -6.603941),scale(0.00001 -0.00001),translate(-106.797256 6.603941),translate(106.7975 -6.592499999999999),rotate(0),translate(-106.7975 6.592499999999999)" >cincau-kb</text>
    <line x1="106.7967" y1="-6.6042" x2="106.7961" y2="-6.6038" style="stroke:rgb(255,0,0);stroke-width:.00002" />
    <line x1="106.7967" y1="-6.6042" x2="106.7964" y2="-6.603999999999999" style="stroke:rgb(0,0,0);stroke-width:.00002" />
    <line x1="106.7964" y1="-6.603999999999999" x2="106.7964" y2="-6.603999999999999" style="stroke:rgb(0,0,0);stroke-width:.00002" />
    <line x1="106.7964" y1="-6.603999999999999" x2="106.7961" y2="-6.6038" style="stroke:rgb(0,0,0);stroke-width:.00002" />
    <circle cx="106.7967" cy="-6.6042" fill="rgb(255,0,0)" r=".0001" />
    <text x="106.7967" y="-6.6042" stroke="rgb(0,0,0)" transform="translate(106.7967 -6.6042),scale(0.00001 -0.00001),translate(-106.7967 6.6042),translate(106.7975 -6.592499999999999),rotate(0),translate(-106.7975 6.592499999999999)" >kb-btm-1</text>
    <line x1="106.7961" y1="-6.6038" x2="106.7937" y2="-6.5969" style="stroke:rgb(255,0,0);stroke-width:.00002" />
    <line x1="106.7961" y1="-6.6038" x2="106.79496570412499" y2="-6.600538899359341" style="stroke:rgb(0,0,0);stroke-width:.00002" />
    <line x1="106.79496570412499" y1="-6.600538899359341" x2="106.794834295875" y2="-6.600161100640658" style="stroke:rgb(0,0,0);stroke-width:.00002" />
    <line x1="106.794834295875" y1="-6.600161100640658" x2="106.7937" y2="-6.5969" style="stroke:rgb(0,0,0);stroke-width:.00002" />
    <circle cx="106.7961" cy="-6.6038" fill="rgb(255,0,0)" r=".0001" />
    <text x="106.7961" y="-6.6038" stroke="rgb(0,0,0)" transform="translate(106.7961 -6.6038),scale(0.00001 -0.00001),translate(-106.7961 6.6038),translate(106.7975 -6.592499999999999),rotate(0),translate(-106.7975 6.592499999999999)" >kb-btm-2</text>
    <line x1="106.7937" y1="-6.5969" x2="106.7946" y2="-6.5945" style="stroke:rgb(255,0,0);stroke-width:.00002" />
    <line x1="106.7937" y1="-6.5969" x2="106.79400955062337" y2="-6.596074531671028" style="stroke:rgb(0,0,0);stroke-width:.00002" />
    <line x1="106.79400955062337" y1="-6.596074531671028" x2="106.79429044937663" y2="-6.595325468328972" style="stroke:rgb(0,0,0);stroke-width:.00002" />
    <line x1="106.79429044937663" y1="-6.595325468328972" x2="106.7946" y2="-6.5945" style="stroke:rgb(0,0,0);stroke-width:.00002" />
    <circle cx="106.7937" cy="-6.5969" fill="rgb(255,0,0)" r=".0001" />
    <text x="106.7937" y="-6.5969" stroke="rgb(0,0,0)" transform="translate(106.7937 -6.5969),scale(0.00001 -0.00001),translate(-106.7937 6.5969),translate(106.7975 -6.592499999999999),rotate(0),translate(-106.7975 6.592499999999999)" >kb-muslihat</text>
    <line x1="106.7946" y1="-6.5945" x2="106.7973" y2="-6.593" style="stroke:rgb(255,0,0);stroke-width:.00002" />
    <line x1="106.7946" y1="-6.5945" x2="106.79595" y2="-6.59375" style="stroke:rgb(0,0,0);stroke-width:.00002" />
    <line x1="106.79595" y1="-6.59375" x2="106.79595" y2="-6.59375" style="stroke:rgb(0,0,0);stroke-width:.00002" />
    <line x1="106.79595" y1="-6.59375" x2="106.7973" y2="-6.593" style="stroke:rgb(0,0,0);stroke-width:.00002" />
    <circle cx="106.7946" cy="-6.5945" fill="rgb(255,0,0)" r=".0001" />
    <text x="106.7946" y="-6.5945" stroke="rgb(0,0,0)" transform="translate(106.7946 -6.5945),scale(0.00001 -0.00001),translate(-106.7946 6.5945),translate(106.7975 -6.592499999999999),rotate(0),translate(-106.7975 6.592499999999999)" >kb-gedong-sawah</text>
    <line x1="106.7973" y1="-6.593" x2="106.7984" y2="-6.5935" style="stroke:rgb(255,0,0);stroke-width:.00002" />
    <line x1="106.7973" y1="-6.593" x2="106.79693963352256" y2="-6.592836197055696" style="stroke:rgb(0,0,0);stroke-width:.00002" />
    <line x1="106.79693963352256" y1="-6.592836197055696" x2="106.79876036647747" y2="-6.593663802944302" style="stroke:rgb(0,0,0);stroke-width:.00002" />
    <line x1="106.79876036647747" y1="-6.593663802944302" x2="106.7984" y2="-6.5935" style="stroke:rgb(0,0,0);stroke-width:.00002" />
    <circle cx="106.7973" cy="-6.593" fill="rgb(255,0,0)" r=".0001" />
    <text x="106.7973" y="-6.593" stroke="rgb(0,0,0)" transform="translate(106.7973 -6.593),scale(0.00001 -0.00001),translate(-106.7973 6.593),translate(106.7975 -6.592499999999999),rotate(0),translate(-106.7975 6.592499999999999)" >kb-polisi-militer</text>
    <line x1="106.7984" y1="-6.5935" x2="106.800814" y2="-6.592262" style="stroke:rgb(255,0,0);stroke-width:.00002" />
    <line x1="106.7984" y1="-6.5935" x2="106.79960700000001" y2="-6.592881" style="stroke:rgb(0,0,0);stroke-width:.00002" />
    <line x1="106.79960700000001" y1="-6.592881" x2="106.79960700000001" y2="-6.592881" style="stroke:rgb(0,0,0);stroke-width:.00002" />
    <line x1="106.79960700000001" y1="-6.592881" x2="106.800814" y2="-6.592262" style="stroke:rgb(0,0,0);stroke-width:.00002" />
    <circle cx="106.7984" cy="-6.5935" fill="rgb(255,0,0)" r=".0001" />
    <text x="106.7984" y="-6.5935" stroke="rgb(0,0,0)" transform="translate(106.7984 -6.5935),scale(0.00001 -0.00001),translate(-106.7984 6.5935),translate(106.7975 -6.592499999999999),rotate(0),translate(-106.7975 6.592499999999999)" >kb-jalak-harupat</text>
    <line x1="106.800814" y1="-6.592262" x2="106.801806" y2="-6.592667" style="stroke:rgb(255,0,0);stroke-width:.00002" />
    <line x1="106.800814" y1="-6.592262" x2="106.80112483713589" y2="-6.592388904274229" style="stroke:rgb(0,0,0);stroke-width:.00002" />
    <line x1="106.80112483713589" y1="-6.592388904274229" x2="106.80149516286411" y2="-6.592540095725771" style="stroke:rgb(0,0,0);stroke-width:.00002" />
    <line x1="106.80149516286411" y1="-6.592540095725771" x2="106.801806" y2="-6.592667" style="stroke:rgb(0,0,0);stroke-width:.00002" />
    <circle cx="106.800814" cy="-6.592262" fill="rgb(255,0,0)" r=".0001" />
    <text x="106.800814" y="-6.592262" stroke="rgb(0,0,0)" transform="translate(106.800814 -6.592262),scale(0.00001 -0.00001),translate(-106.800814 6.592262),translate(106.7975 -6.592499999999999),rotate(0),translate(-106.7975 6.592499999999999)" >kb-sempur</text>
    <line x1="106.801806" y1="-6.592667" x2="106.8029" y2="-6.5935" style="stroke:rgb(255,0,0);stroke-width:.00002" />
    <line x1="106.801806" y1="-6.592667" x2="106.80203475387086" y2="-6.5928411791356725" style="stroke:rgb(0,0,0);stroke-width:.00002" />
    <line x1="106.80203475387086" y1="-6.5928411791356725" x2="106.80267124612914" y2="-6.593325820864327" style="stroke:rgb(0,0,0);stroke-width:.00002" />
    <line x1="106.80267124612914" y1="-6.593325820864327" x2="106.8029" y2="-6.5935" style="stroke:rgb(0,0,0);stroke-width:.00002" />
    <circle cx="106.801806" cy="-6.592667" fill="rgb(255,0,0)" r=".0001" />
    <text x="106.801806" y="-6.592667" stroke="rgb(0,0,0)" transform="translate(106.801806 -6.592667),scale(0.00001 -0.00001),translate(-106.801806 6.592667),translate(106.7975 -6.592499999999999),rotate(0),translate(-106.7975 6.592499999999999)" >kb-salak</text>
    <line x1="106.8029" y1="-6.5935" x2="106.8046" y2="-6.5922" style="stroke:rgb(255,0,0);stroke-width:.00002" />
    <line x1="106.8029" y1="-6.5935" x2="106.80295564216702" y2="-6.593457450107571" style="stroke:rgb(0,0,0);stroke-width:.00002" />
    <line x1="106.80295564216702" y1="-6.593457450107571" x2="106.80454435783297" y2="-6.59224254989243" style="stroke:rgb(0,0,0);stroke-width:.00002" />
    <line x1="106.80454435783297" y1="-6.59224254989243" x2="106.8046" y2="-6.5922" style="stroke:rgb(0,0,0);stroke-width:.00002" />
    <circle cx="106.8029" cy="-6.5935" fill="rgb(255,0,0)" r=".0001" />
    <text x="106.8029" y="-6.5935" stroke="rgb(0,0,0)" transform="translate(106.8029 -6.5935),scale(0.00001 -0.00001),translate(-106.8029 6.5935),translate(106.7975 -6.592499999999999),rotate(0),translate(-106.7975 6.592499999999999)" >kb-pangrango</text>
    <line x1="106.8046" y1="-6.5922" x2="106.8049" y2="-6.5886" style="stroke:rgb(255,0,0);stroke-width:.00002" />
    <line x1="106.8046" y1="-6.5922" x2="106.80473339090403" y2="-6.590599309151648" style="stroke:rgb(0,0,0);stroke-width:.00002" />
    <line x1="106.80473339090403" y1="-6.590599309151648" x2="106.80476660909596" y2="-6.590200690848351" style="stroke:rgb(0,0,0);stroke-width:.00002" />
    <line x1="106.80476660909596" y1="-6.590200690848351" x2="106.8049" y2="-6.5886" style="stroke:rgb(0,0,0);stroke-width:.00002" />
    <circle cx="106.8046" cy="-6.5922" fill="rgb(255,0,0)" r=".0001" />
    <text x="106.8046" y="-6.5922" stroke="rgb(0,0,0)" transform="translate(106.8046 -6.5922),scale(0.00001 -0.00001),translate(-106.8046 6.5922),translate(106.7975 -6.592499999999999),rotate(0),translate(-106.7975 6.592499999999999)" >pangrango-pajajaran</text>
    <line x1="106.8049" y1="-6.5886" x2="106.8067" y2="-6.5808" style="stroke:rgb(255,0,0);stroke-width:.00002" />
    <line x1="106.8049" y1="-6.5886" x2="106.8058" y2="-6.5847" style="stroke:rgb(0,0,0);stroke-width:.00002" />
    <line x1="106.8058" y1="-6.5847" x2="106.8058" y2="-6.5847" style="stroke:rgb(0,0,0);stroke-width:.00002" />
    <line x1="106.8058" y1="-6.5847" x2="106.8067" y2="-6.5808" style="stroke:rgb(0,0,0);stroke-width:.00002" />
    <circle cx="106.8049" cy="-6.5886" fill="rgb(255,0,0)" r=".0001" />
    <text x="106.8049" y="-6.5886" stroke="rgb(0,0,0)" transform="translate(106.8049 -6.5886),scale(0.00001 -0.00001),translate(-106.8049 6.5886),translate(106.7975 -6.592499999999999),rotate(0),translate(-106.7975 6.592499999999999)" >salak-pajajaran</text>
    <line x1="106.8067" y1="-6.5808" x2="106.811" y2="-6.5811" style="stroke:rgb(255,0,0);stroke-width:.00002" />
    <line x1="106.8067" y1="-6.5808" x2="106.80885" y2="-6.58095" style="stroke:rgb(0,0,0);stroke-width:.00002" />
    <line x1="106.80885" y1="-6.58095" x2="106.80885" y2="-6.58095" style="stroke:rgb(0,0,0);stroke-width:.00002" />
    <line x1="106.80885" y1="-6.58095" x2="106.811" y2="-6.5811" style="stroke:rgb(0,0,0);stroke-width:.00002" />
    <circle cx="106.8067" cy="-6.5808" fill="rgb(255,0,0)" r=".0001" />
    <text x="106.8067" y="-6.5808" stroke="rgb(0,0,0)" transform="translate(106.8067 -6.5808),scale(0.00001 -0.00001),translate(-106.8067 6.5808),translate(106.7975 -6.592499999999999),rotate(0),translate(-106.7975 6.592499999999999)" >pajajaran-sobana</text>
    <line x1="106.811" y1="-6.5811" x2="106.8132" y2="-6.5816" style="stroke:rgb(255,0,0);stroke-width:.00002" />
    <line x1="106.811" y1="-6.5811" x2="106.8121" y2="-6.5813500000000005" style="stroke:rgb(0,0,0);stroke-width:.00002" />
    <line x1="106.8121" y1="-6.5813500000000005" x2="106.8121" y2="-6.5813500000000005" style="stroke:rgb(0,0,0);stroke-width:.00002" />
    <line x1="106.8121" y1="-6.5813500000000005" x2="106.8132" y2="-6.5816" style="stroke:rgb(0,0,0);stroke-width:.00002" />
    <circle cx="106.811" cy="-6.5811" fill="rgb(255,0,0)" r=".0001" />
    <text x="106.811" y="-6.5811" stroke="rgb(0,0,0)" transform="translate(106.811 -6.5811),scale(0.00001 -0.00001),translate(-106.811 6.5811),translate(106.7975 -6.592499999999999),rotate(0),translate(-106.7975 6.592499999999999)" >sobana-sungai</text>
    <line x1="106.8132" y1="-6.5816" x2="106.811" y2="-6.5811" style="stroke:rgb(255,0,0);stroke-width:.00002" />
    <line x1="106.8132" y1="-6.5816" x2="106.8121" y2="-6.5813500000000005" style="stroke:rgb(0,0,0);stroke-width:.00002" />
    <line x1="106.8121" y1="-6.5813500000000005" x2="106.8121" y2="-6.5813500000000005" style="stroke:rgb(0,0,0);stroke-width:.00002" />
    <line x1="106.8121" y1="-6.5813500000000005" x2="106.811" y2="-6.5811" style="stroke:rgb(0,0,0);stroke-width:.00002" />
    <circle cx="106.8132" cy="-6.5816" fill="rgb(255,0,0)" r=".0001" />
    <text x="106.8132" y="-6.5816" stroke="rgb(0,0,0)" transform="translate(106.8132 -6.5816),scale(0.00001 -0.00001),translate(-106.8132 6.5816),translate(106.7975 -6.592499999999999),rotate(0),translate(-106.7975 6.592499999999999)" >sobana-palapuhraya</text>
    <line x1="106.811" y1="-6.5811" x2="106.8112" y2="-6.5784" style="stroke:rgb(255,0,0);stroke-width:.00002" />
    <line x1="106.811" y1="-6.5811" x2="106.81110000000001" y2="-6.579750000000001" style="stroke:rgb(0,0,0);stroke-width:.00002" />
    <line x1="106.81110000000001" y1="-6.579750000000001" x2="106.81110000000001" y2="-6.579750000000001" style="stroke:rgb(0,0,0);stroke-width:.00002" />
    <line x1="106.81110000000001" y1="-6.579750000000001" x2="106.8112" y2="-6.5784" style="stroke:rgb(0,0,0);stroke-width:.00002" />
    <circle cx="106.811" cy="-6.5811" fill="rgb(255,0,0)" r=".0001" />
    <text x="106.811" y="-6.5811" stroke="rgb(0,0,0)" transform="translate(106.811 -6.5811),scale(0.00001 -0.00001),translate(-106.811 6.5811),translate(106.7975 -6.592499999999999),rotate(0),translate(-106.7975 6.592499999999999)" >sobana-sungai</text>
    <line x1="106.8112" y1="-6.5784" x2="106.8109" y2="-6.577" style="stroke:rgb(255,0,0);stroke-width:.00002" />
    <line x1="106.8112" y1="-6.5784" x2="106.81105" y2="-6.5777" style="stroke:rgb(0,0,0);stroke-width:.00002" />
    <line x1="106.81105" y1="-6.5777" x2="106.81105" y2="-6.5777" style="stroke:rgb(0,0,0);stroke-width:.00002" />
    <line x1="106.81105" y1="-6.5777" x2="106.8109" y2="-6.577" style="stroke:rgb(0,0,0);stroke-width:.00002" />
    <circle cx="106.8112" cy="-6.5784" fill="rgb(255,0,0)" r=".0001" />
    <text x="106.8112" y="-6.5784" stroke="rgb(0,0,0)" transform="translate(106.8112 -6.5784),scale(0.00001 -0.00001),translate(-106.8112 6.5784),translate(106.7975 -6.592499999999999),rotate(0),translate(-106.7975 6.592499999999999)" >ciparigi-1</text>
    <line x1="106.8109" y1="-6.577" x2="106.8125" y2="-6.5699" style="stroke:rgb(255,0,0);stroke-width:.00002" />
    <line x1="106.8109" y1="-6.577" x2="106.8117" y2="-6.573449999999999" style="stroke:rgb(0,0,0);stroke-width:.00002" />
    <line x1="106.8117" y1="-6.573449999999999" x2="106.8117" y2="-6.573449999999999" style="stroke:rgb(0,0,0);stroke-width:.00002" />
    <line x1="106.8117" y1="-6.573449999999999" x2="106.8125" y2="-6.5699" style="stroke:rgb(0,0,0);stroke-width:.00002" />
    <circle cx="106.8109" cy="-6.577" fill="rgb(255,0,0)" r=".0001" />
    <text x="106.8109" y="-6.577" stroke="rgb(0,0,0)" transform="translate(106.8109 -6.577),scale(0.00001 -0.00001),translate(-106.8109 6.577),translate(106.7975 -6.592499999999999),rotate(0),translate(-106.7975 6.592499999999999)" >ciparigi-2</text>
    <line x1="106.8125" y1="-6.5699" x2="106.8091" y2="-6.5689" style="stroke:rgb(255,0,0);stroke-width:.00002" />
    <line x1="106.8125" y1="-6.5699" x2="106.8108" y2="-6.5694" style="stroke:rgb(0,0,0);stroke-width:.00002" />
    <line x1="106.8108" y1="-6.5694" x2="106.8108" y2="-6.5694" style="stroke:rgb(0,0,0);stroke-width:.00002" />
    <line x1="106.8108" y1="-6.5694" x2="106.8091" y2="-6.5689" style="stroke:rgb(0,0,0);stroke-width:.00002" />
    <circle cx="106.8125" cy="-6.5699" fill="rgb(255,0,0)" r=".0001" />
    <text x="106.8125" y="-6.5699" stroke="rgb(0,0,0)" transform="translate(106.8125 -6.5699),scale(0.00001 -0.00001),translate(-106.8125 6.5699),translate(106.7975 -6.592499999999999),rotate(0),translate(-106.7975 6.592499999999999)" >ciparigi-3</text>
    <line x1="106.8091" y1="-6.5689" x2="106.8067" y2="-6.5808" style="stroke:rgb(255,0,0);stroke-width:.00002" />
    <line x1="106.8091" y1="-6.5689" x2="106.8079" y2="-6.57485" style="stroke:rgb(0,0,0);stroke-width:.00002" />
    <line x1="106.8079" y1="-6.57485" x2="106.8079" y2="-6.57485" style="stroke:rgb(0,0,0);stroke-width:.00002" />
    <line x1="106.8079" y1="-6.57485" x2="106.8067" y2="-6.5808" style="stroke:rgb(0,0,0);stroke-width:.00002" />
    <circle cx="106.8091" cy="-6.5689" fill="rgb(255,0,0)" r=".0001" />
    <text x="106.8091" y="-6.5689" stroke="rgb(0,0,0)" transform="translate(106.8091 -6.5689),scale(0.00001 -0.00001),translate(-106.8091 6.5689),translate(106.7975 -6.592499999999999),rotate(0),translate(-106.7975 6.592499999999999)" >pajajaran-jambudua</text>
  </g>
</svg>
