<svg width="1049.9999999998977" height="1849.9999999999961" xmlns="http://www.w3.org/2000/svg" xmlns:xlink="http://www.w3.org/1999/xlink" >
  <g transform="translate(524.9999999999488 924.9999999999981) rotate(30) scale(10000 -10000) translate(-106.8125 6.592499999999999)">
    <path d="M106.76 -6.5 L106.865 -6.5 L106.865 -6.685 L106.76 -6.685 Z" fill="none" stroke="black" stroke-width="0.001" transform="translate(106.8125 -6.592499999999999) rotate(30) translate(-106.8125 6.592499999999999)" />
    <path d="M106.7973 -6.593 L106.796486 -6.573345 L106.7989 -6.569892 L106.7987 -6.5699 L106.8002 -6.5689 L106.8012 -6.5676 L106.8019 -6.5663 L106.8056 -6.5689 L106.8071 -6.5683 L106.8088 -6.5687 L106.8087 -6.5689 L106.8082 -6.5688 L106.8073 -6.5684 L106.8054 -6.5692 L106.8044 -6.5705 L106.7981 -6.5788 L106.7968 -6.5817 L106.7971 -6.5919 L106.7938 -6.5912 L106.7939 -6.5927 L106.7939 -6.5932 L106.7936 -6.5938 L106.7934 -6.594 L106.793 -6.5943 L106.7927 -6.5943 L106.792 -6.5941 L106.7915 -6.5963 L106.7937 -6.5969 L106.7946 -6.5945 Z" stroke="lightgrey" stroke-width="0.0002" fill="none" />



    <line x1="106.7946" y1="-6.5945" x2="106.7973" y2="-6.593" style="stroke:rgb(255,0,0);stroke-width:.00002" />
    <line x1="106.7946" y1="-6.5945" x2="106.7973" y2="-6.593" style="stroke:rgb(0,0,0);stroke-width:.00002" />
    <circle cx="106.7946" cy="-6.5945" fill="rgb(255,0,0)" r=".0001" />
    <text x="106.7946" y="-6.5945" stroke="rgb(0,0,0)" transform="translate(106.7946 -6.5945),scale(0.00001 -0.00001),translate(-106.7946 6.5945),translate(106.8125 -6.592499999999999),rotate(-30),translate(-106.8125 6.592499999999999)" >kb-gedong-sawah</text>
    <line x1="106.7973" y1="-6.593" x2="106.796486" y2="-6.573345" style="stroke:rgb(255,0,0);stroke-width:.00002" />
    <line x1="106.7973" y1="-6.593" x2="106.796486" y2="-6.573345" style="stroke:rgb(0,0,0);stroke-width:.00002" />
    <circle cx="106.7973" cy="-6.593" fill="rgb(255,0,0)" r=".0001" />
    <text x="106.7973" y="-6.593" stroke="rgb(0,0,0)" transform="translate(106.7973 -6.593),scale(0.00001 -0.00001),translate(-106.7973 6.593),translate(106.8125 -6.592499999999999),rotate(-30),translate(-106.8125 6.592499999999999)" >kb-polisi-militer</text>
    <line x1="106.796486" y1="-6.573345" x2="106.7989" y2="-6.569892" style="stroke:rgb(255,0,0);stroke-width:.00002" />
    <line x1="106.796486" y1="-6.573345" x2="106.7989" y2="-6.569892" style="stroke:rgb(0,0,0);stroke-width:.00002" />
    <circle cx="106.796486" cy="-6.573345" fill="rgb(255,0,0)" r=".0001" />
    <text x="106.796486" y="-6.573345" stroke="rgb(0,0,0)" transform="translate(106.796486 -6.573345),scale(0.00001 -0.00001),translate(-106.796486 6.573345),translate(106.8125 -6.592499999999999),rotate(-30),translate(-106.8125 6.592499999999999)" >pemuda-hewan</text>
    <line x1="106.7989" y1="-6.569892" x2="106.7987" y2="-6.5699" style="stroke:rgb(255,0,0);stroke-width:.00002" />
    <line x1="106.7989" y1="-6.569892" x2="106.7987" y2="-6.5699" style="stroke:rgb(0,0,0);stroke-width:.00002" />
    <circle cx="106.7989" cy="-6.569892" fill="rgb(255,0,0)" r=".0001" />
    <text x="106.7989" y="-6.569892" stroke="rgb(0,0,0)" transform="translate(106.7989 -6.569892),scale(0.00001 -0.00001),translate(-106.7989 6.569892),translate(106.8125 -6.592499999999999),rotate(-30),translate(-106.8125 6.592499999999999)" >pemuda-pedes</text>
    <line x1="106.7987" y1="-6.5699" x2="106.8002" y2="-6.5689" style="stroke:rgb(255,0,0);stroke-width:.00002" />
    <line x1="106.7987" y1="-6.5699" x2="106.8002" y2="-6.5689" style="stroke:rgb(0,0,0);stroke-width:.00002" />
    <circle cx="106.7987" cy="-6.5699" fill="rgb(255,0,0)" r=".0001" />
    <text x="106.7987" y="-6.5699" stroke="rgb(0,0,0)" transform="translate(106.7987 -6.5699),scale(0.00001 -0.00001),translate(-106.7987 6.5699),translate(106.8125 -6.592499999999999),rotate(-30),translate(-106.8125 6.592499999999999)" >line-07-3</text>
    <line x1="106.8002" y1="-6.5689" x2="106.8012" y2="-6.5676" style="stroke:rgb(255,0,0);stroke-width:.00002" />
    <line x1="106.8002" y1="-6.5689" x2="106.8012" y2="-6.5676" style="stroke:rgb(0,0,0);stroke-width:.00002" />
    <circle cx="106.8002" cy="-6.5689" fill="rgb(255,0,0)" r=".0001" />
    <text x="106.8002" y="-6.5689" stroke="rgb(0,0,0)" transform="translate(106.8002 -6.5689),scale(0.00001 -0.00001),translate(-106.8002 6.5689),translate(106.8125 -6.592499999999999),rotate(-30),translate(-106.8125 6.592499999999999)" >line-07-4</text>
    <line x1="106.8012" y1="-6.5676" x2="106.8019" y2="-6.5663" style="stroke:rgb(255,0,0);stroke-width:.00002" />
    <line x1="106.8012" y1="-6.5676" x2="106.8019" y2="-6.5663" style="stroke:rgb(0,0,0);stroke-width:.00002" />
    <circle cx="106.8012" cy="-6.5676" fill="rgb(255,0,0)" r=".0001" />
    <text x="106.8012" y="-6.5676" stroke="rgb(0,0,0)" transform="translate(106.8012 -6.5676),scale(0.00001 -0.00001),translate(-106.8012 6.5676),translate(106.8125 -6.592499999999999),rotate(-30),translate(-106.8125 6.592499999999999)" >line-07-5</text>
    <line x1="106.8019" y1="-6.5663" x2="106.8056" y2="-6.5689" style="stroke:rgb(255,0,0);stroke-width:.00002" />
    <line x1="106.8019" y1="-6.5663" x2="106.8056" y2="-6.5689" style="stroke:rgb(0,0,0);stroke-width:.00002" />
    <circle cx="106.8019" cy="-6.5663" fill="rgb(255,0,0)" r=".0001" />
    <text x="106.8019" y="-6.5663" stroke="rgb(0,0,0)" transform="translate(106.8019 -6.5663),scale(0.00001 -0.00001),translate(-106.8019 6.5663),translate(106.8125 -6.592499999999999),rotate(-30),translate(-106.8125 6.592499999999999)" >line-07-6</text>
    <line x1="106.8056" y1="-6.5689" x2="106.8071" y2="-6.5683" style="stroke:rgb(255,0,0);stroke-width:.00002" />
    <line x1="106.8056" y1="-6.5689" x2="106.8071" y2="-6.5683" style="stroke:rgb(0,0,0);stroke-width:.00002" />
    <circle cx="106.8056" cy="-6.5689" fill="rgb(255,0,0)" r=".0001" />
    <text x="106.8056" y="-6.5689" stroke="rgb(0,0,0)" transform="translate(106.8056 -6.5689),scale(0.00001 -0.00001),translate(-106.8056 6.5689),translate(106.8125 -6.592499999999999),rotate(-30),translate(-106.8125 6.592499999999999)" >line-07-7</text>
    <line x1="106.8071" y1="-6.5683" x2="106.8088" y2="-6.5687" style="stroke:rgb(255,0,0);stroke-width:.00002" />
    <line x1="106.8071" y1="-6.5683" x2="106.8088" y2="-6.5687" style="stroke:rgb(0,0,0);stroke-width:.00002" />
    <circle cx="106.8071" cy="-6.5683" fill="rgb(255,0,0)" r=".0001" />
    <text x="106.8071" y="-6.5683" stroke="rgb(0,0,0)" transform="translate(106.8071 -6.5683),scale(0.00001 -0.00001),translate(-106.8071 6.5683),translate(106.8125 -6.592499999999999),rotate(-30),translate(-106.8125 6.592499999999999)" >line-07-8</text>
    <line x1="106.8088" y1="-6.5687" x2="106.8087" y2="-6.5689" style="stroke:rgb(255,0,0);stroke-width:.00002" />
    <line x1="106.8088" y1="-6.5687" x2="106.8087" y2="-6.5689" style="stroke:rgb(0,0,0);stroke-width:.00002" />
    <circle cx="106.8088" cy="-6.5687" fill="rgb(255,0,0)" r=".0001" />
    <text x="106.8088" y="-6.5687" stroke="rgb(0,0,0)" transform="translate(106.8088 -6.5687),scale(0.00001 -0.00001),translate(-106.8088 6.5687),translate(106.8125 -6.592499999999999),rotate(-30),translate(-106.8125 6.592499999999999)" >line-07-9</text>
    <line x1="106.8087" y1="-6.5689" x2="106.8082" y2="-6.5688" style="stroke:rgb(255,0,0);stroke-width:.00002" />
    <line x1="106.8087" y1="-6.5689" x2="106.8082" y2="-6.5688" style="stroke:rgb(0,0,0);stroke-width:.00002" />
    <circle cx="106.8087" cy="-6.5689" fill="rgb(255,0,0)" r=".0001" />
    <text x="106.8087" y="-6.5689" stroke="rgb(0,0,0)" transform="translate(106.8087 -6.5689),scale(0.00001 -0.00001),translate(-106.8087 6.5689),translate(106.8125 -6.592499999999999),rotate(-30),translate(-106.8125 6.592499999999999)" >line-07-10</text>
    <line x1="106.8082" y1="-6.5688" x2="106.8073" y2="-6.5684" style="stroke:rgb(255,0,0);stroke-width:.00002" />
    <line x1="106.8082" y1="-6.5688" x2="106.8073" y2="-6.5684" style="stroke:rgb(0,0,0);stroke-width:.00002" />
    <circle cx="106.8082" cy="-6.5688" fill="rgb(255,0,0)" r=".0001" />
    <text x="106.8082" y="-6.5688" stroke="rgb(0,0,0)" transform="translate(106.8082 -6.5688),scale(0.00001 -0.00001),translate(-106.8082 6.5688),translate(106.8125 -6.592499999999999),rotate(-30),translate(-106.8125 6.592499999999999)" >line-07-11</text>
    <line x1="106.8073" y1="-6.5684" x2="106.8054" y2="-6.5692" style="stroke:rgb(255,0,0);stroke-width:.00002" />
    <line x1="106.8073" y1="-6.5684" x2="106.8054" y2="-6.5692" style="stroke:rgb(0,0,0);stroke-width:.00002" />
    <circle cx="106.8073" cy="-6.5684" fill="rgb(255,0,0)" r=".0001" />
    <text x="106.8073" y="-6.5684" stroke="rgb(0,0,0)" transform="translate(106.8073 -6.5684),scale(0.00001 -0.00001),translate(-106.8073 6.5684),translate(106.8125 -6.592499999999999),rotate(-30),translate(-106.8125 6.592499999999999)" >yani-1</text>
    <line x1="106.8054" y1="-6.5692" x2="106.8044" y2="-6.5705" style="stroke:rgb(255,0,0);stroke-width:.00002" />
    <line x1="106.8054" y1="-6.5692" x2="106.8044" y2="-6.5705" style="stroke:rgb(0,0,0);stroke-width:.00002" />
    <circle cx="106.8054" cy="-6.5692" fill="rgb(255,0,0)" r=".0001" />
    <text x="106.8054" y="-6.5692" stroke="rgb(0,0,0)" transform="translate(106.8054 -6.5692),scale(0.00001 -0.00001),translate(-106.8054 6.5692),translate(106.8125 -6.592499999999999),rotate(-30),translate(-106.8125 6.592499999999999)" >yani-2</text>
    <line x1="106.8044" y1="-6.5705" x2="106.7981" y2="-6.5788" style="stroke:rgb(255,0,0);stroke-width:.00002" />
    <line x1="106.8044" y1="-6.5705" x2="106.7981" y2="-6.5788" style="stroke:rgb(0,0,0);stroke-width:.00002" />
    <circle cx="106.8044" cy="-6.5705" fill="rgb(255,0,0)" r=".0001" />
    <text x="106.8044" y="-6.5705" stroke="rgb(0,0,0)" transform="translate(106.8044 -6.5705),scale(0.00001 -0.00001),translate(-106.8044 6.5705),translate(106.8125 -6.592499999999999),rotate(-30),translate(-106.8125 6.592499999999999)" >yani-3</text>
    <line x1="106.7981" y1="-6.5788" x2="106.7968" y2="-6.5817" style="stroke:rgb(255,0,0);stroke-width:.00002" />
    <line x1="106.7981" y1="-6.5788" x2="106.7968" y2="-6.5817" style="stroke:rgb(0,0,0);stroke-width:.00002" />
    <circle cx="106.7981" cy="-6.5788" fill="rgb(255,0,0)" r=".0001" />
    <text x="106.7981" y="-6.5788" stroke="rgb(0,0,0)" transform="translate(106.7981 -6.5788),scale(0.00001 -0.00001),translate(-106.7981 6.5788),translate(106.8125 -6.592499999999999),rotate(-30),translate(-106.8125 6.592499999999999)" >yani-4</text>
    <line x1="106.7968" y1="-6.5817" x2="106.7971" y2="-6.5919" style="stroke:rgb(255,0,0);stroke-width:.00002" />
    <line x1="106.7968" y1="-6.5817" x2="106.7971" y2="-6.5919" style="stroke:rgb(0,0,0);stroke-width:.00002" />
    <circle cx="106.7968" cy="-6.5817" fill="rgb(255,0,0)" r=".0001" />
    <text x="106.7968" y="-6.5817" stroke="rgb(0,0,0)" transform="translate(106.7968 -6.5817),scale(0.00001 -0.00001),translate(-106.7968 6.5817),translate(106.8125 -6.592499999999999),rotate(-30),translate(-106.8125 6.592499999999999)" >sudirman-airmancur</text>
    <line x1="106.7971" y1="-6.5919" x2="106.7938" y2="-6.5912" style="stroke:rgb(255,0,0);stroke-width:.00002" />
    <line x1="106.7971" y1="-6.5919" x2="106.7938" y2="-6.5912" style="stroke:rgb(0,0,0);stroke-width:.00002" />
    <circle cx="106.7971" cy="-6.5919" fill="rgb(255,0,0)" r=".0001" />
    <text x="106.7971" y="-6.5919" stroke="rgb(0,0,0)" transform="translate(106.7971 -6.5919),scale(0.00001 -0.00001),translate(-106.7971 6.5919),translate(106.8125 -6.592499999999999),rotate(-30),translate(-106.8125 6.592499999999999)" >sudirman-pengadilan</text>
    <line x1="106.7938" y1="-6.5912" x2="106.7939" y2="-6.5927" style="stroke:rgb(255,0,0);stroke-width:.00002" />
    <line x1="106.7938" y1="-6.5912" x2="106.7939" y2="-6.5927" style="stroke:rgb(0,0,0);stroke-width:.00002" />
    <circle cx="106.7938" cy="-6.5912" fill="rgb(255,0,0)" r=".0001" />
    <text x="106.7938" y="-6.5912" stroke="rgb(0,0,0)" transform="translate(106.7938 -6.5912),scale(0.00001 -0.00001),translate(-106.7938 6.5912),translate(106.8125 -6.592499999999999),rotate(-30),translate(-106.8125 6.592499999999999)" >pengadilan-gedongsawah</text>
    <line x1="106.7939" y1="-6.5927" x2="106.7939" y2="-6.5932" style="stroke:rgb(255,0,0);stroke-width:.00002" />
    <line x1="106.7939" y1="-6.5927" x2="106.7939" y2="-6.5932" style="stroke:rgb(0,0,0);stroke-width:.00002" />
    <circle cx="106.7939" cy="-6.5927" fill="rgb(255,0,0)" r=".0001" />
    <text x="106.7939" y="-6.5927" stroke="rgb(0,0,0)" transform="translate(106.7939 -6.5927),scale(0.00001 -0.00001),translate(-106.7939 6.5927),translate(106.8125 -6.592499999999999),rotate(-30),translate(-106.8125 6.592499999999999)" >mekah-gedongsawah</text>
    <line x1="106.7939" y1="-6.5932" x2="106.7936" y2="-6.5938" style="stroke:rgb(255,0,0);stroke-width:.00002" />
    <line x1="106.7939" y1="-6.5932" x2="106.7936" y2="-6.5938" style="stroke:rgb(0,0,0);stroke-width:.00002" />
    <circle cx="106.7939" cy="-6.5932" fill="rgb(255,0,0)" r=".0001" />
    <text x="106.7939" y="-6.5932" stroke="rgb(0,0,0)" transform="translate(106.7939 -6.5932),scale(0.00001 -0.00001),translate(-106.7939 6.5932),translate(106.8125 -6.592499999999999),rotate(-30),translate(-106.8125 6.592499999999999)" >gedongsawah-1</text>
    <line x1="106.7936" y1="-6.5938" x2="106.7934" y2="-6.594" style="stroke:rgb(255,0,0);stroke-width:.00002" />
    <line x1="106.7936" y1="-6.5938" x2="106.7934" y2="-6.594" style="stroke:rgb(0,0,0);stroke-width:.00002" />
    <circle cx="106.7936" cy="-6.5938" fill="rgb(255,0,0)" r=".0001" />
    <text x="106.7936" y="-6.5938" stroke="rgb(0,0,0)" transform="translate(106.7936 -6.5938),scale(0.00001 -0.00001),translate(-106.7936 6.5938),translate(106.8125 -6.592499999999999),rotate(-30),translate(-106.8125 6.592499999999999)" >gedongsawah-crossing</text>
    <line x1="106.7934" y1="-6.594" x2="106.793" y2="-6.5943" style="stroke:rgb(255,0,0);stroke-width:.00002" />
    <line x1="106.7934" y1="-6.594" x2="106.793" y2="-6.5943" style="stroke:rgb(0,0,0);stroke-width:.00002" />
    <circle cx="106.7934" cy="-6.594" fill="rgb(255,0,0)" r=".0001" />
    <text x="106.7934" y="-6.594" stroke="rgb(0,0,0)" transform="translate(106.7934 -6.594),scale(0.00001 -0.00001),translate(-106.7934 6.594),translate(106.8125 -6.592499999999999),rotate(-30),translate(-106.8125 6.592499999999999)" >gedongsawah-2</text>
    <line x1="106.793" y1="-6.5943" x2="106.7927" y2="-6.5943" style="stroke:rgb(255,0,0);stroke-width:.00002" />
    <line x1="106.793" y1="-6.5943" x2="106.7927" y2="-6.5943" style="stroke:rgb(0,0,0);stroke-width:.00002" />
    <circle cx="106.793" cy="-6.5943" fill="rgb(255,0,0)" r=".0001" />
    <text x="106.793" y="-6.5943" stroke="rgb(0,0,0)" transform="translate(106.793 -6.5943),scale(0.00001 -0.00001),translate(-106.793 6.5943),translate(106.8125 -6.592499999999999),rotate(-30),translate(-106.8125 6.592499999999999)" >gedongsawah-3</text>
    <line x1="106.7927" y1="-6.5943" x2="106.792" y2="-6.5941" style="stroke:rgb(255,0,0);stroke-width:.00002" />
    <line x1="106.7927" y1="-6.5943" x2="106.792" y2="-6.5941" style="stroke:rgb(0,0,0);stroke-width:.00002" />
    <circle cx="106.7927" cy="-6.5943" fill="rgb(255,0,0)" r=".0001" />
    <text x="106.7927" y="-6.5943" stroke="rgb(0,0,0)" transform="translate(106.7927 -6.5943),scale(0.00001 -0.00001),translate(-106.7927 6.5943),translate(106.8125 -6.592499999999999),rotate(-30),translate(-106.8125 6.592499999999999)" >gedongsawah-4</text>
    <line x1="106.792" y1="-6.5941" x2="106.7915" y2="-6.5963" style="stroke:rgb(255,0,0);stroke-width:.00002" />
    <line x1="106.792" y1="-6.5941" x2="106.7915" y2="-6.5963" style="stroke:rgb(0,0,0);stroke-width:.00002" />
    <circle cx="106.792" cy="-6.5941" fill="rgb(255,0,0)" r=".0001" />
    <text x="106.792" y="-6.5941" stroke="rgb(0,0,0)" transform="translate(106.792 -6.5941),scale(0.00001 -0.00001),translate(-106.792 6.5941),translate(106.8125 -6.592499999999999),rotate(-30),translate(-106.8125 6.592499999999999)" >gedongsawah-dewisartika</text>
    <line x1="106.7915" y1="-6.5963" x2="106.7937" y2="-6.5969" style="stroke:rgb(255,0,0);stroke-width:.00002" />
    <line x1="106.7915" y1="-6.5963" x2="106.7937" y2="-6.5969" style="stroke:rgb(0,0,0);stroke-width:.00002" />
    <circle cx="106.7915" cy="-6.5963" fill="rgb(255,0,0)" r=".0001" />
    <text x="106.7915" y="-6.5963" stroke="rgb(0,0,0)" transform="translate(106.7915 -6.5963),scale(0.00001 -0.00001),translate(-106.7915 6.5963),translate(106.8125 -6.592499999999999),rotate(-30),translate(-106.8125 6.592499999999999)" >muslihat-dewisartika</text>
    <line x1="106.7937" y1="-6.5969" x2="106.7946" y2="-6.5945" style="stroke:rgb(255,0,0);stroke-width:.00002" />
    <line x1="106.7937" y1="-6.5969" x2="106.7946" y2="-6.5945" style="stroke:rgb(0,0,0);stroke-width:.00002" />
    <circle cx="106.7937" cy="-6.5969" fill="rgb(255,0,0)" r=".0001" />
    <text x="106.7937" y="-6.5969" stroke="rgb(0,0,0)" transform="translate(106.7937 -6.5969),scale(0.00001 -0.00001),translate(-106.7937 6.5969),translate(106.8125 -6.592499999999999),rotate(-30),translate(-106.8125 6.592499999999999)" >kb-muslihat</text>
  </g>
</svg>
