<svg width="1049.9999999998977" height="1849.9999999999961" xmlns="http://www.w3.org/2000/svg" xmlns:xlink="http://www.w3.org/1999/xlink" >
  <g transform="translate(524.9999999999488 924.9999999999981) rotate(30) scale(10000 -10000) translate(-106.8125 6.592499999999999)">
    <path d="M106.76 -6.5 L106.865 -6.5 L106.865 -6.685 L106.76 -6.685 Z" fill="none" stroke="black" stroke-width="0.001" transform="translate(106.8125 -6.592499999999999) rotate(30) translate(-106.8125 6.592499999999999)" />
    <path d="M106.79222673747773 -6.592573648628424 L106.79227635137158 -6.592176737477738 L106.79232296839882 -6.591803801259672 L106.79479565320092 -6.591750047242235 L106.79479565320092 -6.591750047242235 L106.79689416138113 -6.591704427499187 L106.79675008644912 -6.586805879810321 L106.79675008644912 -6.586805879810321 L106.79660195079978 -6.581769267733042 L106.79649 -6.581620000000003 L106.79649 -6.581620000000003 L106.79641788760544 -6.581523850140591 L106.79514990354373 -6.582018041282419 L106.7947599091003 -6.582106947604437 L106.79357303047264 -6.58237751816062 L106.7934015693593 -6.582215952636703 L106.79332254736329 -6.582608069359307 L106.79327266743506 -6.582855579609218 L106.79235965499862 -6.583140895995608 L106.79235965499862 -6.583140895995608 L106.79152277670727 -6.5834024204616535 L106.78958425950292 -6.583249379629731 L106.78958425950292 -6.583249379629731 L106.78749437834988 -6.583084389012386 L106.78765008993929 -6.577894002698178 L106.78765008993929 -6.577894002698178 L106.78779966748772 -6.572908084417214 L106.78765122325305 -6.571572086305215 L106.78765122325305 -6.571572086305215 L106.7877 -6.5702 L106.78804877674693 -6.571527913694785 L106.78804877674693 -6.571527913694785 L106.78820033251228 -6.572891915582799 L106.78804991006069 -6.577905997301821 L106.78804991006069 -6.577905997301821 L106.78790000000001 -6.582902999324997 L106.78790000000001 -6.586600000000001 L106.78790000000001 -6.586600000000001 L106.78790000000001 -6.590119622348454 L106.78899222130168 -6.590031543452253 L106.78939009801921 -6.5900727031126864 L106.7910833415956 -6.5902478662412785 L106.79044133988126 -6.5932827834364165 L106.79044133988126 -6.5932827834364165 L106.78997115448061 -6.59550547805759 L106.79059701425003 -6.595661942999942 L106.79059701425003 -6.595661942999942 L106.79121155291982 -6.59581557766739 L106.79156260282696 -6.594450383584076 L106.79156260282696 -6.594450383584076 L106.79200625191636 -6.5927250815697205 Z" stroke="yellow" stroke-width="0.0002" fill="none" />
    <circle 
      cx="106.7877" cy="-12.5702"
      r="15" transform="translate(106.7877 -6.5702) scale(0.00001 -0.00001) translate(-106.7877 6.5702) translate(106.8125 -6.592499999999999) rotate(-30) translate(-106.8125 6.592499999999999)"
      fill="white" stroke="black" stroke-width="2"/>
    <circle 
      cx="106.7877" cy="-12.5702"
      r="15" transform="translate(106.7877 -6.5702) scale(0.00001 -0.00001) translate(-106.7877 6.5702) translate(106.8125 -6.592499999999999) rotate(-30) translate(-106.8125 6.592499999999999)"
      fill="white" stroke="none"/>
    <text x="106.7877" y="-6.5702" fill="black" text-anchor="middle" transform="translate(106.7877 -6.5702) scale(0.00001 -0.00001) translate(-106.7877 6.5702) translate(106.8125 -6.592499999999999) rotate(-30) translate(-106.8125 6.592499999999999)">12</text>
    <line x1="106.7924" y1="-6.5928" x2="106.7925" y2="-6.592" style="stroke:rgb(255,0,0);stroke-width:.00002" />
    <line x1="106.7924" y1="-6.5928" x2="106.79242519305308" y2="-6.5925984555753425" style="stroke:rgb(0,0,0);stroke-width:.00002" />
    <line x1="106.79242519305308" y1="-6.5925984555753425" x2="106.79247480694693" y2="-6.592201544424657" style="stroke:rgb(0,0,0);stroke-width:.00002" />
    <line x1="106.79247480694693" y1="-6.592201544424657" x2="106.7925" y2="-6.592" style="stroke:rgb(0,0,0);stroke-width:.00002" />
    <circle cx="106.7924" cy="-6.5928" fill="rgb(255,0,0)" r=".0001" />
    <text x="106.7924" y="-6.5928" stroke="rgb(0,0,0)" transform="translate(106.7924 -6.5928),scale(0.00001 -0.00001),translate(-106.7924 6.5928),translate(106.8125 -6.592499999999999),rotate(-30),translate(-106.8125 6.592499999999999)" >dewisartika-mekah</text>
    <line x1="106.7925" y1="-6.592" x2="106.7971" y2="-6.5919" style="stroke:rgb(255,0,0);stroke-width:.00002" />
    <line x1="106.7925" y1="-6.592" x2="106.79480000000001" y2="-6.59195" style="stroke:rgb(0,0,0);stroke-width:.00002" />
    <line x1="106.79480000000001" y1="-6.59195" x2="106.79480000000001" y2="-6.59195" style="stroke:rgb(0,0,0);stroke-width:.00002" />
    <line x1="106.79480000000001" y1="-6.59195" x2="106.7971" y2="-6.5919" style="stroke:rgb(0,0,0);stroke-width:.00002" />
    <circle cx="106.7925" cy="-6.592" fill="rgb(255,0,0)" r=".0001" />
    <text x="106.7925" y="-6.592" stroke="rgb(0,0,0)" transform="translate(106.7925 -6.592),scale(0.00001 -0.00001),translate(-106.7925 6.592),translate(106.8125 -6.592499999999999),rotate(-30),translate(-106.8125 6.592499999999999)" >dewisartika-pengadilan</text>
    <line x1="106.7971" y1="-6.5919" x2="106.7968" y2="-6.5817" style="stroke:rgb(255,0,0);stroke-width:.00002" />
    <line x1="106.7971" y1="-6.5919" x2="106.79695000000001" y2="-6.5868" style="stroke:rgb(0,0,0);stroke-width:.00002" />
    <line x1="106.79695000000001" y1="-6.5868" x2="106.79695000000001" y2="-6.5868" style="stroke:rgb(0,0,0);stroke-width:.00002" />
    <line x1="106.79695000000001" y1="-6.5868" x2="106.7968" y2="-6.5817" style="stroke:rgb(0,0,0);stroke-width:.00002" />
    <circle cx="106.7971" cy="-6.5919" fill="rgb(255,0,0)" r=".0001" />
    <text x="106.7971" y="-6.5919" stroke="rgb(0,0,0)" transform="translate(106.7971 -6.5919),scale(0.00001 -0.00001),translate(-106.7971 6.5919),translate(106.8125 -6.592499999999999),rotate(-30),translate(-106.8125 6.592499999999999)" >sudirman-pengadilan</text>
    <line x1="106.7968" y1="-6.5817" x2="106.7965" y2="-6.5813" style="stroke:rgb(255,0,0);stroke-width:.00002" />
    <line x1="106.7968" y1="-6.5817" x2="106.79665" y2="-6.5815" style="stroke:rgb(0,0,0);stroke-width:.00002" />
    <line x1="106.79665" y1="-6.5815" x2="106.79665" y2="-6.5815" style="stroke:rgb(0,0,0);stroke-width:.00002" />
    <line x1="106.79665" y1="-6.5815" x2="106.7965" y2="-6.5813" style="stroke:rgb(0,0,0);stroke-width:.00002" />
    <circle cx="106.7968" cy="-6.5817" fill="rgb(255,0,0)" r=".0001" />
    <text x="106.7968" y="-6.5817" stroke="rgb(0,0,0)" transform="translate(106.7968 -6.5817),scale(0.00001 -0.00001),translate(-106.7968 6.5817),translate(106.8125 -6.592499999999999),rotate(-30),translate(-106.8125 6.592499999999999)" >sudirman-airmancur</text>
    <line x1="106.7965" y1="-6.5813" x2="106.793232" y2="-6.582045" style="stroke:rgb(255,0,0);stroke-width:.00002" />
    <line x1="106.7965" y1="-6.5813" x2="106.79506099722171" y2="-6.581628046838991" style="stroke:rgb(0,0,0);stroke-width:.00002" />
    <line x1="106.79506099722171" y1="-6.581628046838991" x2="106.79467100277829" y2="-6.581716953161009" style="stroke:rgb(0,0,0);stroke-width:.00002" />
    <line x1="106.79467100277829" y1="-6.581716953161009" x2="106.793232" y2="-6.582045" style="stroke:rgb(0,0,0);stroke-width:.00002" />
    <circle cx="106.7965" cy="-6.5813" fill="rgb(255,0,0)" r=".0001" />
    <text x="106.7965" y="-6.5813" stroke="rgb(0,0,0)" transform="translate(106.7965 -6.5813),scale(0.00001 -0.00001),translate(-106.7965 6.5813),translate(106.8125 -6.592499999999999),rotate(-30),translate(-106.8125 6.592499999999999)" >martadinata-airmancur</text>
    <line x1="106.793232" y1="-6.582045" x2="106.7931" y2="-6.5827" style="stroke:rgb(255,0,0);stroke-width:.00002" />
    <line x1="106.793232" y1="-6.582045" x2="106.793205510998" y2="-6.582176441638698" style="stroke:rgb(0,0,0);stroke-width:.00002" />
    <line x1="106.793205510998" y1="-6.582176441638698" x2="106.79312648900199" y2="-6.582568558361302" style="stroke:rgb(0,0,0);stroke-width:.00002" />
    <line x1="106.79312648900199" y1="-6.582568558361302" x2="106.7931" y2="-6.5827" style="stroke:rgb(0,0,0);stroke-width:.00002" />
    <circle cx="106.793232" cy="-6.582045" fill="rgb(255,0,0)" r=".0001" />
    <text x="106.793232" y="-6.582045" stroke="rgb(0,0,0)" transform="translate(106.793232 -6.582045),scale(0.00001 -0.00001),translate(-106.793232 6.582045),translate(106.8125 -6.592499999999999),rotate(-30),translate(-106.8125 6.592499999999999)" >martadinata-bubulak</text>
    <line x1="106.7931" y1="-6.5827" x2="106.7915" y2="-6.5832" style="stroke:rgb(255,0,0);stroke-width:.00002" />
    <line x1="106.7931" y1="-6.5827" x2="106.7923" y2="-6.58295" style="stroke:rgb(0,0,0);stroke-width:.00002" />
    <line x1="106.7923" y1="-6.58295" x2="106.7923" y2="-6.58295" style="stroke:rgb(0,0,0);stroke-width:.00002" />
    <line x1="106.7923" y1="-6.58295" x2="106.7915" y2="-6.5832" style="stroke:rgb(0,0,0);stroke-width:.00002" />
    <circle cx="106.7931" cy="-6.5827" fill="rgb(255,0,0)" r=".0001" />
    <text x="106.7931" y="-6.5827" stroke="rgb(0,0,0)" transform="translate(106.7931 -6.5827),scale(0.00001 -0.00001),translate(-106.7931 6.5827),translate(106.8125 -6.592499999999999),rotate(-30),translate(-106.8125 6.592499999999999)" >martadinata-2</text>
    <line x1="106.7915" y1="-6.5832" x2="106.7877" y2="-6.5829" style="stroke:rgb(255,0,0);stroke-width:.00002" />
    <line x1="106.7915" y1="-6.5832" x2="106.78960000000001" y2="-6.58305" style="stroke:rgb(0,0,0);stroke-width:.00002" />
    <line x1="106.78960000000001" y1="-6.58305" x2="106.78960000000001" y2="-6.58305" style="stroke:rgb(0,0,0);stroke-width:.00002" />
    <line x1="106.78960000000001" y1="-6.58305" x2="106.7877" y2="-6.5829" style="stroke:rgb(0,0,0);stroke-width:.00002" />
    <circle cx="106.7915" cy="-6.5832" fill="rgb(255,0,0)" r=".0001" />
    <text x="106.7915" y="-6.5832" stroke="rgb(0,0,0)" transform="translate(106.7915 -6.5832),scale(0.00001 -0.00001),translate(-106.7915 6.5832),translate(106.8125 -6.592499999999999),rotate(-30),translate(-106.8125 6.592499999999999)" >martadinata-3</text>
    <line x1="106.7877" y1="-6.5829" x2="106.788" y2="-6.5729" style="stroke:rgb(255,0,0);stroke-width:.00002" />
    <line x1="106.7877" y1="-6.5829" x2="106.78784999999999" y2="-6.5779" style="stroke:rgb(0,0,0);stroke-width:.00002" />
    <line x1="106.78784999999999" y1="-6.5779" x2="106.78784999999999" y2="-6.5779" style="stroke:rgb(0,0,0);stroke-width:.00002" />
    <line x1="106.78784999999999" y1="-6.5779" x2="106.788" y2="-6.5729" style="stroke:rgb(0,0,0);stroke-width:.00002" />
    <circle cx="106.7877" cy="-6.5829" fill="rgb(255,0,0)" r=".0001" />
    <text x="106.7877" y="-6.5829" stroke="rgb(0,0,0)" transform="translate(106.7877 -6.5829),scale(0.00001 -0.00001),translate(-106.7877 6.5829),translate(106.8125 -6.592499999999999),rotate(-30),translate(-106.8125 6.592499999999999)" >martadinata-tentpelajar</text>
    <line x1="106.788" y1="-6.5729" x2="106.7877" y2="-6.5702" style="stroke:rgb(255,0,0);stroke-width:.00002" />
    <line x1="106.788" y1="-6.5729" x2="106.78784999999999" y2="-6.57155" style="stroke:rgb(0,0,0);stroke-width:.00002" />
    <line x1="106.78784999999999" y1="-6.57155" x2="106.78784999999999" y2="-6.57155" style="stroke:rgb(0,0,0);stroke-width:.00002" />
    <line x1="106.78784999999999" y1="-6.57155" x2="106.7877" y2="-6.5702" style="stroke:rgb(0,0,0);stroke-width:.00002" />
    <circle cx="106.788" cy="-6.5729" fill="rgb(255,0,0)" r=".0001" />
    <text x="106.788" y="-6.5729" stroke="rgb(0,0,0)" transform="translate(106.788 -6.5729),scale(0.00001 -0.00001),translate(-106.788 6.5729),translate(106.8125 -6.592499999999999),rotate(-30),translate(-106.8125 6.592499999999999)" >tentpelajar</text>
    <line x1="106.7877" y1="-6.5702" x2="106.788" y2="-6.5729" style="stroke:rgb(255,0,0);stroke-width:.00002" />
    <line x1="106.7877" y1="-6.5702" x2="106.78784999999999" y2="-6.57155" style="stroke:rgb(0,0,0);stroke-width:.00002" />
    <line x1="106.78784999999999" y1="-6.57155" x2="106.78784999999999" y2="-6.57155" style="stroke:rgb(0,0,0);stroke-width:.00002" />
    <line x1="106.78784999999999" y1="-6.57155" x2="106.788" y2="-6.5729" style="stroke:rgb(0,0,0);stroke-width:.00002" />
    <circle cx="106.7877" cy="-6.5702" fill="rgb(255,0,0)" r=".0001" />
    <text x="106.7877" y="-6.5702" stroke="rgb(0,0,0)" transform="translate(106.7877 -6.5702),scale(0.00001 -0.00001),translate(-106.7877 6.5702),translate(106.8125 -6.592499999999999),rotate(-30),translate(-106.8125 6.592499999999999)" >tentpelajar-cimanggu</text>
    <line x1="106.788" y1="-6.5729" x2="106.7877" y2="-6.5829" style="stroke:rgb(255,0,0);stroke-width:.00002" />
    <line x1="106.788" y1="-6.5729" x2="106.78784999999999" y2="-6.5779" style="stroke:rgb(0,0,0);stroke-width:.00002" />
    <line x1="106.78784999999999" y1="-6.5779" x2="106.78784999999999" y2="-6.5779" style="stroke:rgb(0,0,0);stroke-width:.00002" />
    <line x1="106.78784999999999" y1="-6.5779" x2="106.7877" y2="-6.5829" style="stroke:rgb(0,0,0);stroke-width:.00002" />
    <circle cx="106.788" cy="-6.5729" fill="rgb(255,0,0)" r=".0001" />
    <text x="106.788" y="-6.5729" stroke="rgb(0,0,0)" transform="translate(106.788 -6.5729),scale(0.00001 -0.00001),translate(-106.788 6.5729),translate(106.8125 -6.592499999999999),rotate(-30),translate(-106.8125 6.592499999999999)" >tentpelajar</text>
    <line x1="106.7877" y1="-6.5829" x2="106.7877" y2="-6.5903" style="stroke:rgb(255,0,0);stroke-width:.00002" />
    <line x1="106.7877" y1="-6.5829" x2="106.7877" y2="-6.586600000000001" style="stroke:rgb(0,0,0);stroke-width:.00002" />
    <line x1="106.7877" y1="-6.586600000000001" x2="106.7877" y2="-6.586600000000001" style="stroke:rgb(0,0,0);stroke-width:.00002" />
    <line x1="106.7877" y1="-6.586600000000001" x2="106.7877" y2="-6.5903" style="stroke:rgb(0,0,0);stroke-width:.00002" />
    <circle cx="106.7877" cy="-6.5829" fill="rgb(255,0,0)" r=".0001" />
    <text x="106.7877" y="-6.5829" stroke="rgb(0,0,0)" transform="translate(106.7877 -6.5829),scale(0.00001 -0.00001),translate(-106.7877 6.5829),translate(106.8125 -6.592499999999999),rotate(-30),translate(-106.8125 6.592499999999999)" >martadinata-tentpelajar</text>
    <line x1="106.7877" y1="-6.5903" x2="106.7906" y2="-6.5906" style="stroke:rgb(255,0,0);stroke-width:.00002" />
    <line x1="106.7877" y1="-6.5903" x2="106.78895106164124" y2="-6.590429420169784" style="stroke:rgb(0,0,0);stroke-width:.00002" />
    <line x1="106.78895106164124" y1="-6.590429420169784" x2="106.78934893835877" y2="-6.5904705798302174" style="stroke:rgb(0,0,0);stroke-width:.00002" />
    <line x1="106.78934893835877" y1="-6.5904705798302174" x2="106.7906" y2="-6.5906" style="stroke:rgb(0,0,0);stroke-width:.00002" />
    <circle cx="106.7877" cy="-6.5903" fill="rgb(255,0,0)" r=".0001" />
    <text x="106.7877" y="-6.5903" stroke="rgb(0,0,0)" transform="translate(106.7877 -6.5903),scale(0.00001 -0.00001),translate(-106.7877 6.5903),translate(106.8125 -6.592499999999999),rotate(-30),translate(-106.8125 6.592499999999999)" >merdeka-salamun</text>
    <line x1="106.7906" y1="-6.5906" x2="106.7895" y2="-6.5958" style="stroke:rgb(255,0,0);stroke-width:.00002" />
    <line x1="106.7906" y1="-6.5906" x2="106.79005000000001" y2="-6.5931999999999995" style="stroke:rgb(0,0,0);stroke-width:.00002" />
    <line x1="106.79005000000001" y1="-6.5931999999999995" x2="106.79005000000001" y2="-6.5931999999999995" style="stroke:rgb(0,0,0);stroke-width:.00002" />
    <line x1="106.79005000000001" y1="-6.5931999999999995" x2="106.7895" y2="-6.5958" style="stroke:rgb(0,0,0);stroke-width:.00002" />
    <circle cx="106.7906" cy="-6.5906" fill="rgb(255,0,0)" r=".0001" />
    <text x="106.7906" y="-6.5906" stroke="rgb(0,0,0)" transform="translate(106.7906 -6.5906),scale(0.00001 -0.00001),translate(-106.7906 6.5906),translate(106.8125 -6.592499999999999),rotate(-30),translate(-106.8125 6.592499999999999)" >salamun-oking</text>
    <line x1="106.7895" y1="-6.5958" x2="106.7915" y2="-6.5963" style="stroke:rgb(255,0,0);stroke-width:.00002" />
    <line x1="106.7895" y1="-6.5958" x2="106.79050000000001" y2="-6.59605" style="stroke:rgb(0,0,0);stroke-width:.00002" />
    <line x1="106.79050000000001" y1="-6.59605" x2="106.79050000000001" y2="-6.59605" style="stroke:rgb(0,0,0);stroke-width:.00002" />
    <line x1="106.79050000000001" y1="-6.59605" x2="106.7915" y2="-6.5963" style="stroke:rgb(0,0,0);stroke-width:.00002" />
    <circle cx="106.7895" cy="-6.5958" fill="rgb(255,0,0)" r=".0001" />
    <text x="106.7895" y="-6.5958" stroke="rgb(0,0,0)" transform="translate(106.7895 -6.5958),scale(0.00001 -0.00001),translate(-106.7895 6.5958),translate(106.8125 -6.592499999999999),rotate(-30),translate(-106.8125 6.592499999999999)" >muslihat-oking</text>
    <line x1="106.7915" y1="-6.5963" x2="106.7924" y2="-6.5928" style="stroke:rgb(255,0,0);stroke-width:.00002" />
    <line x1="106.7915" y1="-6.5963" x2="106.79195" y2="-6.59455" style="stroke:rgb(0,0,0);stroke-width:.00002" />
    <line x1="106.79195" y1="-6.59455" x2="106.79195" y2="-6.59455" style="stroke:rgb(0,0,0);stroke-width:.00002" />
    <line x1="106.79195" y1="-6.59455" x2="106.7924" y2="-6.5928" style="stroke:rgb(0,0,0);stroke-width:.00002" />
    <circle cx="106.7915" cy="-6.5963" fill="rgb(255,0,0)" r=".0001" />
    <text x="106.7915" y="-6.5963" stroke="rgb(0,0,0)" transform="translate(106.7915 -6.5963),scale(0.00001 -0.00001),translate(-106.7915 6.5963),translate(106.8125 -6.592499999999999),rotate(-30),translate(-106.8125 6.592499999999999)" >muslihat-dewisartika</text>
  </g>
</svg>
