<svg width="1049.9999999998977" height="1849.9999999999961" xmlns="http://www.w3.org/2000/svg" xmlns:xlink="http://www.w3.org/1999/xlink" >
  <g transform="translate(524.9999999999488 924.9999999999981) rotate(30) scale(10000 -10000) translate(-106.8125 6.592499999999999)">
    <path d="M106.76 -6.5 L106.865 -6.5 L106.865 -6.685 L106.76 -6.685 Z" fill="none" stroke="black" stroke-width="0.0025" transform="translate(106.8125 -6.592499999999999) rotate(30) translate(-106.8125 6.592499999999999)" />
    <path d="M106.79511318651828 -6.588996677372213 L106.79481364418876 -6.591044548431744 L106.79360001786208 -6.59101829694714 L106.79367224038897 -6.590617702664584 L106.79668420562521 -6.59055985442061 L106.79640024106718 -6.581713928187836 L106.79608123978502 -6.573225852670997 L106.79852293811336 -6.569733232816908 L106.79865265690867 -6.569047432674363 L106.80150646292921 -6.565121588218258 L106.80155856288991 -6.562379827786846 L106.79707705995624 -6.5633037919719355 L106.77826221510813 -6.556388218061792 L106.77605526353616 -6.554308529434872 L106.76958890778245 -6.537461707116852 L106.76744270007168 -6.534083435542596 L106.75945 -6.520573 L106.76811929992806 -6.533656564456997 L106.77030709221754 -6.537100292883108 L106.77673673646385 -6.553851470565141 L106.77870150675172 -6.555702943191044 L106.78763348154314 -6.5596568623934575 L106.79712561910573 -6.562476954443681 L106.80184288658413 -6.56150438201295 L106.802644 -6.561578 L106.80236314707248 -6.562146185442834 L106.80230153707079 -6.565388411781727 L106.79940534309135 -6.569372567325618 L106.79927706188664 -6.5700507671830914 L106.79689076021498 -6.5734641473290125 L106.79719981959707 -6.581687685983266 L106.7973770273818 -6.5890656843503095 Z" stroke="lightgrey" stroke-width="0.0005" fill="none" />
    <circle 
      cx="106.79707705995624" cy="-12.563303791971936"
      r="15" transform="translate(106.79707705995624 -6.5633037919719355) scale(0.000014999999999999999 -0.000014999999999999999) translate(-106.79707705995624 6.5633037919719355) translate(106.8125 -6.592499999999999) rotate(-30) translate(-106.8125 6.592499999999999)"
      fill="white" stroke="black" stroke-width="2"/>
    <circle 
      cx="106.77826221510813" cy="-12.556388218061791"
      r="15" transform="translate(106.77826221510813 -6.556388218061792) scale(0.000014999999999999999 -0.000014999999999999999) translate(-106.77826221510813 6.556388218061792) translate(106.8125 -6.592499999999999) rotate(-30) translate(-106.8125 6.592499999999999)"
      fill="white" stroke="black" stroke-width="2"/>
    <circle 
      cx="106.76744270007168" cy="-12.534083435542595"
      r="15" transform="translate(106.76744270007168 -6.534083435542596) scale(0.000014999999999999999 -0.000014999999999999999) translate(-106.76744270007168 6.534083435542596) translate(106.8125 -6.592499999999999) rotate(-30) translate(-106.8125 6.592499999999999)"
      fill="white" stroke="black" stroke-width="2"/>
    <circle 
      cx="106.76811929992806" cy="-12.533656564456997"
      r="15" transform="translate(106.76811929992806 -6.533656564456997) scale(0.000014999999999999999 -0.000014999999999999999) translate(-106.76811929992806 6.533656564456997) translate(106.8125 -6.592499999999999) rotate(-30) translate(-106.8125 6.592499999999999)"
      fill="white" stroke="black" stroke-width="2"/>
    <circle 
      cx="106.77870150675172" cy="-12.555702943191044"
      r="15" transform="translate(106.77870150675172 -6.555702943191044) scale(0.000014999999999999999 -0.000014999999999999999) translate(-106.77870150675172 6.555702943191044) translate(106.8125 -6.592499999999999) rotate(-30) translate(-106.8125 6.592499999999999)"
      fill="white" stroke="black" stroke-width="2"/>
    <circle 
      cx="106.78763348154314" cy="-12.559656862393457"
      r="15" transform="translate(106.78763348154314 -6.5596568623934575) scale(0.000014999999999999999 -0.000014999999999999999) translate(-106.78763348154314 6.5596568623934575) translate(106.8125 -6.592499999999999) rotate(-30) translate(-106.8125 6.592499999999999)"
      fill="white" stroke="black" stroke-width="2"/>
    <circle 
      cx="106.79719981959707" cy="-12.581687685983265"
      r="15" transform="translate(106.79719981959707 -6.581687685983266) scale(0.000014999999999999999 -0.000014999999999999999) translate(-106.79719981959707 6.581687685983266) translate(106.8125 -6.592499999999999) rotate(-30) translate(-106.8125 6.592499999999999)"
      fill="white" stroke="black" stroke-width="2"/>
    <circle 
      cx="106.7973770273818" cy="-12.58906568435031"
      r="15" transform="translate(106.7973770273818 -6.5890656843503095) scale(0.000014999999999999999 -0.000014999999999999999) translate(-106.7973770273818 6.5890656843503095) translate(106.8125 -6.592499999999999) rotate(-30) translate(-106.8125 6.592499999999999)"
      fill="white" stroke="black" stroke-width="2"/>
    <circle 
      cx="106.79707705995624" cy="-12.563303791971936"
      r="15" transform="translate(106.79707705995624 -6.5633037919719355) scale(0.000014999999999999999 -0.000014999999999999999) translate(-106.79707705995624 6.5633037919719355) translate(106.8125 -6.592499999999999) rotate(-30) translate(-106.8125 6.592499999999999)"
      fill="white" stroke="none"/>
    <circle 
      cx="106.77826221510813" cy="-12.556388218061791"
      r="15" transform="translate(106.77826221510813 -6.556388218061792) scale(0.000014999999999999999 -0.000014999999999999999) translate(-106.77826221510813 6.556388218061792) translate(106.8125 -6.592499999999999) rotate(-30) translate(-106.8125 6.592499999999999)"
      fill="white" stroke="none"/>
    <circle 
      cx="106.76744270007168" cy="-12.534083435542595"
      r="15" transform="translate(106.76744270007168 -6.534083435542596) scale(0.000014999999999999999 -0.000014999999999999999) translate(-106.76744270007168 6.534083435542596) translate(106.8125 -6.592499999999999) rotate(-30) translate(-106.8125 6.592499999999999)"
      fill="white" stroke="none"/>
    <circle 
      cx="106.76811929992806" cy="-12.533656564456997"
      r="15" transform="translate(106.76811929992806 -6.533656564456997) scale(0.000014999999999999999 -0.000014999999999999999) translate(-106.76811929992806 6.533656564456997) translate(106.8125 -6.592499999999999) rotate(-30) translate(-106.8125 6.592499999999999)"
      fill="white" stroke="none"/>
    <circle 
      cx="106.77870150675172" cy="-12.555702943191044"
      r="15" transform="translate(106.77870150675172 -6.555702943191044) scale(0.000014999999999999999 -0.000014999999999999999) translate(-106.77870150675172 6.555702943191044) translate(106.8125 -6.592499999999999) rotate(-30) translate(-106.8125 6.592499999999999)"
      fill="white" stroke="none"/>
    <circle 
      cx="106.78763348154314" cy="-12.559656862393457"
      r="15" transform="translate(106.78763348154314 -6.5596568623934575) scale(0.000014999999999999999 -0.000014999999999999999) translate(-106.78763348154314 6.5596568623934575) translate(106.8125 -6.592499999999999) rotate(-30) translate(-106.8125 6.592499999999999)"
      fill="white" stroke="none"/>
    <circle 
      cx="106.79719981959707" cy="-12.581687685983265"
      r="15" transform="translate(106.79719981959707 -6.581687685983266) scale(0.000014999999999999999 -0.000014999999999999999) translate(-106.79719981959707 6.581687685983266) translate(106.8125 -6.592499999999999) rotate(-30) translate(-106.8125 6.592499999999999)"
      fill="white" stroke="none"/>
    <circle 
      cx="106.7973770273818" cy="-12.58906568435031"
      r="15" transform="translate(106.7973770273818 -6.5890656843503095) scale(0.000014999999999999999 -0.000014999999999999999) translate(-106.7973770273818 6.5890656843503095) translate(106.8125 -6.592499999999999) rotate(-30) translate(-106.8125 6.592499999999999)"
      fill="white" stroke="none"/>
    <text x="106.79707705995624" y="-6.5633037919719355" fill="black" text-anchor="middle" transform="translate(106.79707705995624 -6.5633037919719355) scale(0.000014999999999999999 -0.000014999999999999999) translate(-106.79707705995624 6.5633037919719355) translate(106.8125 -6.592499999999999) rotate(-30) translate(-106.8125 6.592499999999999)">16</text>
    <text x="106.77826221510813" y="-6.556388218061792" fill="black" text-anchor="middle" transform="translate(106.77826221510813 -6.556388218061792) scale(0.000014999999999999999 -0.000014999999999999999) translate(-106.77826221510813 6.556388218061792) translate(106.8125 -6.592499999999999) rotate(-30) translate(-106.8125 6.592499999999999)">16</text>
    <text x="106.76744270007168" y="-6.534083435542596" fill="black" text-anchor="middle" transform="translate(106.76744270007168 -6.534083435542596) scale(0.000014999999999999999 -0.000014999999999999999) translate(-106.76744270007168 6.534083435542596) translate(106.8125 -6.592499999999999) rotate(-30) translate(-106.8125 6.592499999999999)">16</text>
    <text x="106.76811929992806" y="-6.533656564456997" fill="black" text-anchor="middle" transform="translate(106.76811929992806 -6.533656564456997) scale(0.000014999999999999999 -0.000014999999999999999) translate(-106.76811929992806 6.533656564456997) translate(106.8125 -6.592499999999999) rotate(-30) translate(-106.8125 6.592499999999999)">16</text>
    <text x="106.77870150675172" y="-6.555702943191044" fill="black" text-anchor="middle" transform="translate(106.77870150675172 -6.555702943191044) scale(0.000014999999999999999 -0.000014999999999999999) translate(-106.77870150675172 6.555702943191044) translate(106.8125 -6.592499999999999) rotate(-30) translate(-106.8125 6.592499999999999)">16</text>
    <text x="106.78763348154314" y="-6.5596568623934575" fill="black" text-anchor="middle" transform="translate(106.78763348154314 -6.5596568623934575) scale(0.000014999999999999999 -0.000014999999999999999) translate(-106.78763348154314 6.5596568623934575) translate(106.8125 -6.592499999999999) rotate(-30) translate(-106.8125 6.592499999999999)">16</text>
    <text x="106.79719981959707" y="-6.581687685983266" fill="black" text-anchor="middle" transform="translate(106.79719981959707 -6.581687685983266) scale(0.000014999999999999999 -0.000014999999999999999) translate(-106.79719981959707 6.581687685983266) translate(106.8125 -6.592499999999999) rotate(-30) translate(-106.8125 6.592499999999999)">16</text>
    <text x="106.7973770273818" y="-6.5890656843503095" fill="black" text-anchor="middle" transform="translate(106.7973770273818 -6.5890656843503095) scale(0.000014999999999999999 -0.000014999999999999999) translate(-106.7973770273818 6.5890656843503095) translate(106.8125 -6.592499999999999) rotate(-30) translate(-106.8125 6.592499999999999)">16</text>
    <line x1="106.796967" y1="-6.588653" x2="106.794769" y2="-6.588586" style="stroke:rgb(255,0,0);stroke-width:.00002" />
    <line x1="106.794769" y1="-6.588586" x2="106.794469" y2="-6.590637" style="stroke:rgb(255,0,0);stroke-width:.00002" />
    <line x1="106.794469" y1="-6.590637" x2="106.793267" y2="-6.590611" style="stroke:rgb(255,0,0);stroke-width:.00002" />
    <line x1="106.793267" y1="-6.590611" x2="106.793192" y2="-6.591027" style="stroke:rgb(255,0,0);stroke-width:.00002" />
    <line x1="106.793192" y1="-6.591027" x2="106.797097" y2="-6.590952" style="stroke:rgb(255,0,0);stroke-width:.00002" />
    <line x1="106.797097" y1="-6.590952" x2="106.7968" y2="-6.5817" style="stroke:rgb(255,0,0);stroke-width:.00002" />
    <line x1="106.7968" y1="-6.5817" x2="106.796486" y2="-6.573345" style="stroke:rgb(255,0,0);stroke-width:.00002" />
    <line x1="106.796486" y1="-6.573345" x2="106.7989" y2="-6.569892" style="stroke:rgb(255,0,0);stroke-width:.00002" />
    <line x1="106.7989" y1="-6.569892" x2="106.799029" y2="-6.56921" style="stroke:rgb(255,0,0);stroke-width:.00002" />
    <line x1="106.799029" y1="-6.56921" x2="106.801904" y2="-6.565255" style="stroke:rgb(255,0,0);stroke-width:.00002" />
    <line x1="106.801904" y1="-6.565255" x2="106.801968" y2="-6.561887" style="stroke:rgb(255,0,0);stroke-width:.00002" />
    <line x1="106.801968" y1="-6.561887" x2="106.797108" y2="-6.562889" style="stroke:rgb(255,0,0);stroke-width:.00002" />
    <line x1="106.797108" y1="-6.562889" x2="106.778477" y2="-6.556041" style="stroke:rgb(255,0,0);stroke-width:.00002" />
    <line x1="106.778477" y1="-6.556041" x2="106.776396" y2="-6.55408" style="stroke:rgb(255,0,0);stroke-width:.00002" />
    <line x1="106.776396" y1="-6.55408" x2="106.769948" y2="-6.537281" style="stroke:rgb(255,0,0);stroke-width:.00002" />
    <line x1="106.769948" y1="-6.537281" x2="106.767781" y2="-6.53387" style="stroke:rgb(255,0,0);stroke-width:.00002" />
    <line x1="106.767781" y1="-6.53387" x2="106.75945" y2="-6.520573" style="stroke:rgb(255,0,0);stroke-width:.00002" />
    <line x1="106.75945" y1="-6.520573" x2="106.767781" y2="-6.53387" style="stroke:rgb(255,0,0);stroke-width:.00002" />
    <line x1="106.767781" y1="-6.53387" x2="106.769948" y2="-6.537281" style="stroke:rgb(255,0,0);stroke-width:.00002" />
    <line x1="106.769948" y1="-6.537281" x2="106.776396" y2="-6.55408" style="stroke:rgb(255,0,0);stroke-width:.00002" />
    <line x1="106.776396" y1="-6.55408" x2="106.778477" y2="-6.556041" style="stroke:rgb(255,0,0);stroke-width:.00002" />
    <line x1="106.778477" y1="-6.556041" x2="106.787495" y2="-6.560033" style="stroke:rgb(255,0,0);stroke-width:.00002" />
    <line x1="106.787495" y1="-6.560033" x2="106.797108" y2="-6.562889" style="stroke:rgb(255,0,0);stroke-width:.00002" />
    <line x1="106.797108" y1="-6.562889" x2="106.801968" y2="-6.561887" style="stroke:rgb(255,0,0);stroke-width:.00002" />
    <line x1="106.801968" y1="-6.561887" x2="106.802644" y2="-6.561578" style="stroke:rgb(255,0,0);stroke-width:.00002" />
    <line x1="106.802644" y1="-6.561578" x2="106.801968" y2="-6.561887" style="stroke:rgb(255,0,0);stroke-width:.00002" />
    <line x1="106.801968" y1="-6.561887" x2="106.801904" y2="-6.565255" style="stroke:rgb(255,0,0);stroke-width:.00002" />
    <line x1="106.801904" y1="-6.565255" x2="106.799029" y2="-6.56921" style="stroke:rgb(255,0,0);stroke-width:.00002" />
    <line x1="106.799029" y1="-6.56921" x2="106.7989" y2="-6.569892" style="stroke:rgb(255,0,0);stroke-width:.00002" />
    <line x1="106.7989" y1="-6.569892" x2="106.796486" y2="-6.573345" style="stroke:rgb(255,0,0);stroke-width:.00002" />
    <line x1="106.796486" y1="-6.573345" x2="106.7968" y2="-6.5817" style="stroke:rgb(255,0,0);stroke-width:.00002" />
    <line x1="106.7968" y1="-6.5817" x2="106.796967" y2="-6.588653" style="stroke:rgb(255,0,0);stroke-width:.00002" />
  </g>
</svg>
