<svg width="1049.9999999998977" height="1849.9999999999961" xmlns="http://www.w3.org/2000/svg" xmlns:xlink="http://www.w3.org/1999/xlink" >
  <g transform="translate(524.9999999999488 924.9999999999981) rotate(30) scale(10000 -10000) translate(-106.8125 6.592499999999999)">
    <path d="M106.76 -6.5 L106.865 -6.5 L106.865 -6.685 L106.76 -6.685 Z" fill="none" stroke="black" stroke-width="0.001" transform="translate(106.8125 -6.592499999999999) rotate(30) translate(-106.8125 6.592499999999999)" />
    <path d="M106.81307455656781 -6.624201782406613 L106.81074475031015 -6.624519483259932 L106.81060110124811 -6.625094079508059 L106.80930052784582 -6.625961128442903 L106.80832286936163 -6.624739055337667 L106.80804228077137 -6.622213758025377 L106.80742683475613 -6.621949995447413 L106.80655485826584 -6.619595658923661 L106.80384411519844 -6.616771968228456 L106.80187602666622 -6.6130147083033 L106.80092330725047 -6.612100427134883 L106.79548747026845 -6.614136203366065 L106.79327277892699 -6.607446763224772 L106.79268280698386 -6.605368304223912 L106.79221565931711 -6.605378435137166 L106.79229652442241 -6.606666885814927 L106.79187280851147 -6.607368298615216 L106.78771200684695 -6.606892171119507 L106.78748790357207 -6.606336246421052 L106.78642735922104 -6.603965214272108 L106.78291878479118 -6.601049289640386 L106.78298514617045 -6.601070914009382 L106.77934384174574 -6.601322104697552 L106.77914923349671 -6.596837146847527 L106.77159657229629 -6.588049784227932 L106.77122809277925 -6.586164516449612 L106.77061912223233 -6.585248420583506 L106.76705006590237 -6.580903851617214 L106.76346361810201 -6.581126511446013 L106.75293281248764 -6.576724718953871 L106.75051590862802 -6.573453177956239 L106.755373 -6.571011 L106.75223809137199 -6.573764822043758 L106.75370118751235 -6.575745281046127 L106.76366838189799 -6.579911488553986 L106.76758793409763 -6.579668148382786 L106.77158487776762 -6.584533579416438 L106.77235990722075 -6.585699483550409 L106.7727134277037 -6.587508215772082 L106.7794867665033 -6.5953888531524685 L106.77972615825423 -6.600905895302449 L106.78297685382957 -6.600871085990619 L106.78304321520883 -6.600892710359615 L106.78675264077897 -6.603712785727902 L106.78785609642792 -6.606179753578893 L106.78799399315305 -6.606521828880493 L106.79166319148854 -6.606941701384782 L106.79188947557758 -6.606567114185066 L106.79179034068288 -6.604987564862834 L106.79298319301613 -6.6049616957760895 L106.79362365255649 -6.6072180215418745 L106.79676942059507 -6.607901503177 L106.79660127499284 -6.607845454642923 L106.80022038094091 -6.61096190698712 L106.80905825189437 -6.615170416964954 L106.8018211011243 -6.612407607414985 L106.80401600764986 -6.614513958634032 L106.80482794240079 -6.616064015885772 L106.80722513321909 -6.618561089654846 L106.80913317180048 -6.618340558523298 L106.81033278971505 -6.616016862544024 L106.8131589679292 -6.621922675649198 Z" stroke="pink" stroke-width="0.0002" fill="none" />
    <circle 
      cx="106.80930052784582" cy="-12.625961128442903"
      r="15" transform="translate(106.80930052784582 -6.625961128442903) scale(0.00001 -0.00001) translate(-106.80930052784582 6.625961128442903) translate(106.8125 -6.592499999999999) rotate(-30) translate(-106.8125 6.592499999999999)"
      fill="white" stroke="black" stroke-width="2"/>
    <circle 
      cx="106.80655485826584" cy="-12.61959565892366"
      r="15" transform="translate(106.80655485826584 -6.619595658923661) scale(0.00001 -0.00001) translate(-106.80655485826584 6.619595658923661) translate(106.8125 -6.592499999999999) rotate(-30) translate(-106.8125 6.592499999999999)"
      fill="white" stroke="black" stroke-width="2"/>
    <circle 
      cx="106.80187602666622" cy="-12.6130147083033"
      r="15" transform="translate(106.80187602666622 -6.6130147083033) scale(0.00001 -0.00001) translate(-106.80187602666622 6.6130147083033) translate(106.8125 -6.592499999999999) rotate(-30) translate(-106.8125 6.592499999999999)"
      fill="white" stroke="black" stroke-width="2"/>
    <circle 
      cx="106.79327277892699" cy="-12.607446763224772"
      r="15" transform="translate(106.79327277892699 -6.607446763224772) scale(0.00001 -0.00001) translate(-106.79327277892699 6.607446763224772) translate(106.8125 -6.592499999999999) rotate(-30) translate(-106.8125 6.592499999999999)"
      fill="white" stroke="black" stroke-width="2"/>
    <circle 
      cx="106.79187280851147" cy="-12.607368298615217"
      r="15" transform="translate(106.79187280851147 -6.607368298615216) scale(0.00001 -0.00001) translate(-106.79187280851147 6.607368298615216) translate(106.8125 -6.592499999999999) rotate(-30) translate(-106.8125 6.592499999999999)"
      fill="white" stroke="black" stroke-width="2"/>
    <circle 
      cx="106.78291878479118" cy="-12.601049289640386"
      r="15" transform="translate(106.78291878479118 -6.601049289640386) scale(0.00001 -0.00001) translate(-106.78291878479118 6.601049289640386) translate(106.8125 -6.592499999999999) rotate(-30) translate(-106.8125 6.592499999999999)"
      fill="white" stroke="black" stroke-width="2"/>
    <circle 
      cx="106.78298514617045" cy="-12.601070914009382"
      r="15" transform="translate(106.78298514617045 -6.601070914009382) scale(0.00001 -0.00001) translate(-106.78298514617045 6.601070914009382) translate(106.8125 -6.592499999999999) rotate(-30) translate(-106.8125 6.592499999999999)"
      fill="white" stroke="black" stroke-width="2"/>
    <circle 
      cx="106.77914923349671" cy="-12.596837146847527"
      r="15" transform="translate(106.77914923349671 -6.596837146847527) scale(0.00001 -0.00001) translate(-106.77914923349671 6.596837146847527) translate(106.8125 -6.592499999999999) rotate(-30) translate(-106.8125 6.592499999999999)"
      fill="white" stroke="black" stroke-width="2"/>
    <circle 
      cx="106.77061912223233" cy="-12.585248420583506"
      r="15" transform="translate(106.77061912223233 -6.585248420583506) scale(0.00001 -0.00001) translate(-106.77061912223233 6.585248420583506) translate(106.8125 -6.592499999999999) rotate(-30) translate(-106.8125 6.592499999999999)"
      fill="white" stroke="black" stroke-width="2"/>
    <circle 
      cx="106.77158487776762" cy="-12.584533579416437"
      r="15" transform="translate(106.77158487776762 -6.584533579416438) scale(0.00001 -0.00001) translate(-106.77158487776762 6.584533579416438) translate(106.8125 -6.592499999999999) rotate(-30) translate(-106.8125 6.592499999999999)"
      fill="white" stroke="black" stroke-width="2"/>
    <circle 
      cx="106.7794867665033" cy="-12.595388853152468"
      r="15" transform="translate(106.7794867665033 -6.5953888531524685) scale(0.00001 -0.00001) translate(-106.7794867665033 6.5953888531524685) translate(106.8125 -6.592499999999999) rotate(-30) translate(-106.8125 6.592499999999999)"
      fill="white" stroke="black" stroke-width="2"/>
    <circle 
      cx="106.78297685382957" cy="-12.600871085990619"
      r="15" transform="translate(106.78297685382957 -6.600871085990619) scale(0.00001 -0.00001) translate(-106.78297685382957 6.600871085990619) translate(106.8125 -6.592499999999999) rotate(-30) translate(-106.8125 6.592499999999999)"
      fill="white" stroke="black" stroke-width="2"/>
    <circle 
      cx="106.78304321520883" cy="-12.600892710359615"
      r="15" transform="translate(106.78304321520883 -6.600892710359615) scale(0.00001 -0.00001) translate(-106.78304321520883 6.600892710359615) translate(106.8125 -6.592499999999999) rotate(-30) translate(-106.8125 6.592499999999999)"
      fill="white" stroke="black" stroke-width="2"/>
    <circle 
      cx="106.79166319148854" cy="-12.606941701384782"
      r="15" transform="translate(106.79166319148854 -6.606941701384782) scale(0.00001 -0.00001) translate(-106.79166319148854 6.606941701384782) translate(106.8125 -6.592499999999999) rotate(-30) translate(-106.8125 6.592499999999999)"
      fill="white" stroke="black" stroke-width="2"/>
    <circle 
      cx="106.79676942059507" cy="-12.607901503177"
      r="15" transform="translate(106.79676942059507 -6.607901503177) scale(0.00001 -0.00001) translate(-106.79676942059507 6.607901503177) translate(106.8125 -6.592499999999999) rotate(-30) translate(-106.8125 6.592499999999999)"
      fill="white" stroke="black" stroke-width="2"/>
    <circle 
      cx="106.80905825189437" cy="-12.615170416964954"
      r="15" transform="translate(106.80905825189437 -6.615170416964954) scale(0.00001 -0.00001) translate(-106.80905825189437 6.615170416964954) translate(106.8125 -6.592499999999999) rotate(-30) translate(-106.8125 6.592499999999999)"
      fill="white" stroke="black" stroke-width="2"/>
    <circle 
      cx="106.80401600764986" cy="-12.614513958634031"
      r="15" transform="translate(106.80401600764986 -6.614513958634032) scale(0.00001 -0.00001) translate(-106.80401600764986 6.614513958634032) translate(106.8125 -6.592499999999999) rotate(-30) translate(-106.8125 6.592499999999999)"
      fill="white" stroke="black" stroke-width="2"/>
    <circle 
      cx="106.80722513321909" cy="-12.618561089654847"
      r="15" transform="translate(106.80722513321909 -6.618561089654846) scale(0.00001 -0.00001) translate(-106.80722513321909 6.618561089654846) translate(106.8125 -6.592499999999999) rotate(-30) translate(-106.8125 6.592499999999999)"
      fill="white" stroke="black" stroke-width="2"/>
    <circle 
      cx="106.8131589679292" cy="-12.621922675649198"
      r="15" transform="translate(106.8131589679292 -6.621922675649198) scale(0.00001 -0.00001) translate(-106.8131589679292 6.621922675649198) translate(106.8125 -6.592499999999999) rotate(-30) translate(-106.8125 6.592499999999999)"
      fill="white" stroke="black" stroke-width="2"/>
    <circle 
      cx="106.80930052784582" cy="-12.625961128442903"
      r="15" transform="translate(106.80930052784582 -6.625961128442903) scale(0.00001 -0.00001) translate(-106.80930052784582 6.625961128442903) translate(106.8125 -6.592499999999999) rotate(-30) translate(-106.8125 6.592499999999999)"
      fill="white" stroke="none"/>
    <circle 
      cx="106.80655485826584" cy="-12.61959565892366"
      r="15" transform="translate(106.80655485826584 -6.619595658923661) scale(0.00001 -0.00001) translate(-106.80655485826584 6.619595658923661) translate(106.8125 -6.592499999999999) rotate(-30) translate(-106.8125 6.592499999999999)"
      fill="white" stroke="none"/>
    <circle 
      cx="106.80187602666622" cy="-12.6130147083033"
      r="15" transform="translate(106.80187602666622 -6.6130147083033) scale(0.00001 -0.00001) translate(-106.80187602666622 6.6130147083033) translate(106.8125 -6.592499999999999) rotate(-30) translate(-106.8125 6.592499999999999)"
      fill="white" stroke="none"/>
    <circle 
      cx="106.79327277892699" cy="-12.607446763224772"
      r="15" transform="translate(106.79327277892699 -6.607446763224772) scale(0.00001 -0.00001) translate(-106.79327277892699 6.607446763224772) translate(106.8125 -6.592499999999999) rotate(-30) translate(-106.8125 6.592499999999999)"
      fill="white" stroke="none"/>
    <circle 
      cx="106.79187280851147" cy="-12.607368298615217"
      r="15" transform="translate(106.79187280851147 -6.607368298615216) scale(0.00001 -0.00001) translate(-106.79187280851147 6.607368298615216) translate(106.8125 -6.592499999999999) rotate(-30) translate(-106.8125 6.592499999999999)"
      fill="white" stroke="none"/>
    <circle 
      cx="106.78291878479118" cy="-12.601049289640386"
      r="15" transform="translate(106.78291878479118 -6.601049289640386) scale(0.00001 -0.00001) translate(-106.78291878479118 6.601049289640386) translate(106.8125 -6.592499999999999) rotate(-30) translate(-106.8125 6.592499999999999)"
      fill="white" stroke="none"/>
    <circle 
      cx="106.78298514617045" cy="-12.601070914009382"
      r="15" transform="translate(106.78298514617045 -6.601070914009382) scale(0.00001 -0.00001) translate(-106.78298514617045 6.601070914009382) translate(106.8125 -6.592499999999999) rotate(-30) translate(-106.8125 6.592499999999999)"
      fill="white" stroke="none"/>
    <circle 
      cx="106.77914923349671" cy="-12.596837146847527"
      r="15" transform="translate(106.77914923349671 -6.596837146847527) scale(0.00001 -0.00001) translate(-106.77914923349671 6.596837146847527) translate(106.8125 -6.592499999999999) rotate(-30) translate(-106.8125 6.592499999999999)"
      fill="white" stroke="none"/>
    <circle 
      cx="106.77061912223233" cy="-12.585248420583506"
      r="15" transform="translate(106.77061912223233 -6.585248420583506) scale(0.00001 -0.00001) translate(-106.77061912223233 6.585248420583506) translate(106.8125 -6.592499999999999) rotate(-30) translate(-106.8125 6.592499999999999)"
      fill="white" stroke="none"/>
    <circle 
      cx="106.77158487776762" cy="-12.584533579416437"
      r="15" transform="translate(106.77158487776762 -6.584533579416438) scale(0.00001 -0.00001) translate(-106.77158487776762 6.584533579416438) translate(106.8125 -6.592499999999999) rotate(-30) translate(-106.8125 6.592499999999999)"
      fill="white" stroke="none"/>
    <circle 
      cx="106.7794867665033" cy="-12.595388853152468"
      r="15" transform="translate(106.7794867665033 -6.5953888531524685) scale(0.00001 -0.00001) translate(-106.7794867665033 6.5953888531524685) translate(106.8125 -6.592499999999999) rotate(-30) translate(-106.8125 6.592499999999999)"
      fill="white" stroke="none"/>
    <circle 
      cx="106.78297685382957" cy="-12.600871085990619"
      r="15" transform="translate(106.78297685382957 -6.600871085990619) scale(0.00001 -0.00001) translate(-106.78297685382957 6.600871085990619) translate(106.8125 -6.592499999999999) rotate(-30) translate(-106.8125 6.592499999999999)"
      fill="white" stroke="none"/>
    <circle 
      cx="106.78304321520883" cy="-12.600892710359615"
      r="15" transform="translate(106.78304321520883 -6.600892710359615) scale(0.00001 -0.00001) translate(-106.78304321520883 6.600892710359615) translate(106.8125 -6.592499999999999) rotate(-30) translate(-106.8125 6.592499999999999)"
      fill="white" stroke="none"/>
    <circle 
      cx="106.79166319148854" cy="-12.606941701384782"
      r="15" transform="translate(106.79166319148854 -6.606941701384782) scale(0.00001 -0.00001) translate(-106.79166319148854 6.606941701384782) translate(106.8125 -6.592499999999999) rotate(-30) translate(-106.8125 6.592499999999999)"
      fill="white" stroke="none"/>
    <circle 
      cx="106.79676942059507" cy="-12.607901503177"
      r="15" transform="translate(106.79676942059507 -6.607901503177) scale(0.00001 -0.00001) translate(-106.79676942059507 6.607901503177) translate(106.8125 -6.592499999999999) rotate(-30) translate(-106.8125 6.592499999999999)"
      fill="white" stroke="none"/>
    <circle 
      cx="106.80905825189437" cy="-12.615170416964954"
      r="15" transform="translate(106.80905825189437 -6.615170416964954) scale(0.00001 -0.00001) translate(-106.80905825189437 6.615170416964954) translate(106.8125 -6.592499999999999) rotate(-30) translate(-106.8125 6.592499999999999)"
      fill="white" stroke="none"/>
    <circle 
      cx="106.80401600764986" cy="-12.614513958634031"
      r="15" transform="translate(106.80401600764986 -6.614513958634032) scale(0.00001 -0.00001) translate(-106.80401600764986 6.614513958634032) translate(106.8125 -6.592499999999999) rotate(-30) translate(-106.8125 6.592499999999999)"
      fill="white" stroke="none"/>
    <circle 
      cx="106.80722513321909" cy="-12.618561089654847"
      r="15" transform="translate(106.80722513321909 -6.618561089654846) scale(0.00001 -0.00001) translate(-106.80722513321909 6.618561089654846) translate(106.8125 -6.592499999999999) rotate(-30) translate(-106.8125 6.592499999999999)"
      fill="white" stroke="none"/>
    <circle 
      cx="106.8131589679292" cy="-12.621922675649198"
      r="15" transform="translate(106.8131589679292 -6.621922675649198) scale(0.00001 -0.00001) translate(-106.8131589679292 6.621922675649198) translate(106.8125 -6.592499999999999) rotate(-30) translate(-106.8125 6.592499999999999)"
      fill="white" stroke="none"/>
    <text x="106.80930052784582" y="-6.625961128442903" fill="black" text-anchor="middle" transform="translate(106.80930052784582 -6.625961128442903) scale(0.00001 -0.00001) translate(-106.80930052784582 6.625961128442903) translate(106.8125 -6.592499999999999) rotate(-30) translate(-106.8125 6.592499999999999)">14</text>
    <text x="106.80655485826584" y="-6.619595658923661" fill="black" text-anchor="middle" transform="translate(106.80655485826584 -6.619595658923661) scale(0.00001 -0.00001) translate(-106.80655485826584 6.619595658923661) translate(106.8125 -6.592499999999999) rotate(-30) translate(-106.8125 6.592499999999999)">14</text>
    <text x="106.80187602666622" y="-6.6130147083033" fill="black" text-anchor="middle" transform="translate(106.80187602666622 -6.6130147083033) scale(0.00001 -0.00001) translate(-106.80187602666622 6.6130147083033) translate(106.8125 -6.592499999999999) rotate(-30) translate(-106.8125 6.592499999999999)">14</text>
    <text x="106.79327277892699" y="-6.607446763224772" fill="black" text-anchor="middle" transform="translate(106.79327277892699 -6.607446763224772) scale(0.00001 -0.00001) translate(-106.79327277892699 6.607446763224772) translate(106.8125 -6.592499999999999) rotate(-30) translate(-106.8125 6.592499999999999)">14</text>
    <text x="106.79187280851147" y="-6.607368298615216" fill="black" text-anchor="middle" transform="translate(106.79187280851147 -6.607368298615216) scale(0.00001 -0.00001) translate(-106.79187280851147 6.607368298615216) translate(106.8125 -6.592499999999999) rotate(-30) translate(-106.8125 6.592499999999999)">14</text>
    <text x="106.78291878479118" y="-6.601049289640386" fill="black" text-anchor="middle" transform="translate(106.78291878479118 -6.601049289640386) scale(0.00001 -0.00001) translate(-106.78291878479118 6.601049289640386) translate(106.8125 -6.592499999999999) rotate(-30) translate(-106.8125 6.592499999999999)">14</text>
    <text x="106.78298514617045" y="-6.601070914009382" fill="black" text-anchor="middle" transform="translate(106.78298514617045 -6.601070914009382) scale(0.00001 -0.00001) translate(-106.78298514617045 6.601070914009382) translate(106.8125 -6.592499999999999) rotate(-30) translate(-106.8125 6.592499999999999)">14</text>
    <text x="106.77914923349671" y="-6.596837146847527" fill="black" text-anchor="middle" transform="translate(106.77914923349671 -6.596837146847527) scale(0.00001 -0.00001) translate(-106.77914923349671 6.596837146847527) translate(106.8125 -6.592499999999999) rotate(-30) translate(-106.8125 6.592499999999999)">14</text>
    <text x="106.77061912223233" y="-6.585248420583506" fill="black" text-anchor="middle" transform="translate(106.77061912223233 -6.585248420583506) scale(0.00001 -0.00001) translate(-106.77061912223233 6.585248420583506) translate(106.8125 -6.592499999999999) rotate(-30) translate(-106.8125 6.592499999999999)">14</text>
    <text x="106.77158487776762" y="-6.584533579416438" fill="black" text-anchor="middle" transform="translate(106.77158487776762 -6.584533579416438) scale(0.00001 -0.00001) translate(-106.77158487776762 6.584533579416438) translate(106.8125 -6.592499999999999) rotate(-30) translate(-106.8125 6.592499999999999)">14</text>
    <text x="106.7794867665033" y="-6.5953888531524685" fill="black" text-anchor="middle" transform="translate(106.7794867665033 -6.5953888531524685) scale(0.00001 -0.00001) translate(-106.7794867665033 6.5953888531524685) translate(106.8125 -6.592499999999999) rotate(-30) translate(-106.8125 6.592499999999999)">14</text>
    <text x="106.78297685382957" y="-6.600871085990619" fill="black" text-anchor="middle" transform="translate(106.78297685382957 -6.600871085990619) scale(0.00001 -0.00001) translate(-106.78297685382957 6.600871085990619) translate(106.8125 -6.592499999999999) rotate(-30) translate(-106.8125 6.592499999999999)">14</text>
    <text x="106.78304321520883" y="-6.600892710359615" fill="black" text-anchor="middle" transform="translate(106.78304321520883 -6.600892710359615) scale(0.00001 -0.00001) translate(-106.78304321520883 6.600892710359615) translate(106.8125 -6.592499999999999) rotate(-30) translate(-106.8125 6.592499999999999)">14</text>
    <text x="106.79166319148854" y="-6.606941701384782" fill="black" text-anchor="middle" transform="translate(106.79166319148854 -6.606941701384782) scale(0.00001 -0.00001) translate(-106.79166319148854 6.606941701384782) translate(106.8125 -6.592499999999999) rotate(-30) translate(-106.8125 6.592499999999999)">14</text>
    <text x="106.79676942059507" y="-6.607901503177" fill="black" text-anchor="middle" transform="translate(106.79676942059507 -6.607901503177) scale(0.00001 -0.00001) translate(-106.79676942059507 6.607901503177) translate(106.8125 -6.592499999999999) rotate(-30) translate(-106.8125 6.592499999999999)">14</text>
    <text x="106.80905825189437" y="-6.615170416964954" fill="black" text-anchor="middle" transform="translate(106.80905825189437 -6.615170416964954) scale(0.00001 -0.00001) translate(-106.80905825189437 6.615170416964954) translate(106.8125 -6.592499999999999) rotate(-30) translate(-106.8125 6.592499999999999)">14</text>
    <text x="106.80401600764986" y="-6.614513958634032" fill="black" text-anchor="middle" transform="translate(106.80401600764986 -6.614513958634032) scale(0.00001 -0.00001) translate(-106.80401600764986 6.614513958634032) translate(106.8125 -6.592499999999999) rotate(-30) translate(-106.8125 6.592499999999999)">14</text>
    <text x="106.80722513321909" y="-6.618561089654846" fill="black" text-anchor="middle" transform="translate(106.80722513321909 -6.618561089654846) scale(0.00001 -0.00001) translate(-106.80722513321909 6.618561089654846) translate(106.8125 -6.592499999999999) rotate(-30) translate(-106.8125 6.592499999999999)">14</text>
    <text x="106.8131589679292" y="-6.621922675649198" fill="black" text-anchor="middle" transform="translate(106.8131589679292 -6.621922675649198) scale(0.00001 -0.00001) translate(-106.8131589679292 6.621922675649198) translate(106.8125 -6.592499999999999) rotate(-30) translate(-106.8125 6.592499999999999)">14</text>
    <line x1="106.8124" y1="-6.6208" x2="106.8123" y2="-6.6235" style="stroke:rgb(255,0,0);stroke-width:.00002" />
    <line x1="106.813199451867" y1="-6.620829609328409" x2="106.813099451867" y2="-6.623529609328409" style="stroke:rgb(0,0,0);stroke-width:.00002" />
    <circle cx="106.8124" cy="-6.6208" fill="rgb(255,0,0)" r=".0001" />
    <text x="106.8124" y="-6.6208" stroke="rgb(0,0,0)" transform="translate(106.8124 -6.6208),scale(0.00001 -0.00001),translate(-106.8124 6.6208),translate(106.8125 -6.592499999999999),rotate(-30),translate(-106.8125 6.592499999999999)" >lawanggintung-1</text>
    <line x1="106.8123" y1="-6.6235" x2="106.8101" y2="-6.6238" style="stroke:rgb(255,0,0);stroke-width:.00002" />
    <line x1="106.81240809056378" y1="-6.624292664134435" x2="106.81020809056379" y2="-6.624592664134435" style="stroke:rgb(0,0,0);stroke-width:.00002" />
    <circle cx="106.8123" cy="-6.6235" fill="rgb(255,0,0)" r=".0001" />
    <text x="106.8123" y="-6.6235" stroke="rgb(0,0,0)" transform="translate(106.8123 -6.6235),scale(0.00001 -0.00001),translate(-106.8123 6.6235),translate(106.8125 -6.592499999999999),rotate(-30),translate(-106.8125 6.592499999999999)" >lawanggintung-2</text>
    <line x1="106.8101" y1="-6.6238" x2="106.8099" y2="-6.6246" style="stroke:rgb(255,0,0);stroke-width:.00002" />
    <line x1="106.81087611400012" y1="-6.623994028500035" x2="106.81067611400012" y2="-6.624794028500035" style="stroke:rgb(0,0,0);stroke-width:.00002" />
    <circle cx="106.8101" cy="-6.6238" fill="rgb(255,0,0)" r=".0001" />
    <text x="106.8101" y="-6.6238" stroke="rgb(0,0,0)" transform="translate(106.8101 -6.6238),scale(0.00001 -0.00001),translate(-106.8101 6.6238),translate(106.8125 -6.592499999999999),rotate(-30),translate(-106.8125 6.592499999999999)" >lawanggintung-3</text>
    <line x1="106.8099" y1="-6.6246" x2="106.8093" y2="-6.625" style="stroke:rgb(255,0,0);stroke-width:.00002" />
    <line x1="106.81034376015698" y1="-6.625265640235472" x2="106.80974376015698" y2="-6.625665640235472" style="stroke:rgb(0,0,0);stroke-width:.00002" />
    <circle cx="106.8099" cy="-6.6246" fill="rgb(255,0,0)" r=".0001" />
    <text x="106.8099" y="-6.6246" stroke="rgb(0,0,0)" transform="translate(106.8099 -6.6246),scale(0.00001 -0.00001),translate(-106.8099 6.6246),translate(106.8125 -6.592499999999999),rotate(-30),translate(-106.8125 6.592499999999999)" >lawanggintung-4</text>
    <line x1="106.8093" y1="-6.625" x2="106.8089" y2="-6.6245" style="stroke:rgb(255,0,0);stroke-width:.00002" />
    <line x1="106.80883147871432" y1="-6.625374817028532" x2="106.80843147871433" y2="-6.624874817028532" style="stroke:rgb(0,0,0);stroke-width:.00002" />
    <circle cx="106.8093" cy="-6.625" fill="rgb(255,0,0)" r=".0001" />
    <text x="106.8093" y="-6.625" stroke="rgb(0,0,0)" transform="translate(106.8093 -6.625),scale(0.00001 -0.00001),translate(-106.8093 6.625),translate(106.8125 -6.592499999999999),rotate(-30),translate(-106.8125 6.592499999999999)" >lawanggintung-5</text>
    <line x1="106.8089" y1="-6.6245" x2="106.8086" y2="-6.6218" style="stroke:rgb(255,0,0);stroke-width:.00002" />
    <line x1="106.80830366975918" y1="-6.624566258915644" x2="106.80800366975919" y2="-6.621866258915644" style="stroke:rgb(0,0,0);stroke-width:.00002" />
    <circle cx="106.8089" cy="-6.6245" fill="rgb(255,0,0)" r=".0001" />
    <text x="106.8089" y="-6.6245" stroke="rgb(0,0,0)" transform="translate(106.8089 -6.6245),scale(0.00001 -0.00001),translate(-106.8089 6.6245),translate(106.8125 -6.592499999999999),rotate(-30),translate(-106.8125 6.592499999999999)" >batutulis-1</text>
    <line x1="106.8086" y1="-6.6218" x2="106.8079" y2="-6.6215" style="stroke:rgb(255,0,0);stroke-width:.00002" />
    <line x1="106.80836364842085" y1="-6.622351487018011" x2="106.80766364842086" y2="-6.622051487018011" style="stroke:rgb(0,0,0);stroke-width:.00002" />
    <circle cx="106.8086" cy="-6.6218" fill="rgb(255,0,0)" r=".0001" />
    <text x="106.8086" y="-6.6218" stroke="rgb(0,0,0)" transform="translate(106.8086 -6.6218),scale(0.00001 -0.00001),translate(-106.8086 6.6218),translate(106.8125 -6.592499999999999),rotate(-30),translate(-106.8125 6.592499999999999)" >batutulis-2</text>
    <line x1="106.8079" y1="-6.6215" x2="106.8069" y2="-6.6188" style="stroke:rgb(255,0,0);stroke-width:.00002" />
    <line x1="106.80733735074357" y1="-6.621708388613495" x2="106.80633735074356" y2="-6.619008388613495" style="stroke:rgb(0,0,0);stroke-width:.00002" />
    <circle cx="106.8079" cy="-6.6215" fill="rgb(255,0,0)" r=".0001" />
    <text x="106.8079" y="-6.6215" stroke="rgb(0,0,0)" transform="translate(106.8079 -6.6215),scale(0.00001 -0.00001),translate(-106.8079 6.6215),translate(106.8125 -6.592499999999999),rotate(-30),translate(-106.8125 6.592499999999999)" >batutulis-3</text>
    <line x1="106.8069" y1="-6.6188" x2="106.8045" y2="-6.6163" style="stroke:rgb(255,0,0);stroke-width:.00002" />
    <line x1="106.80632289014318" y1="-6.619354025462552" x2="106.80392289014318" y2="-6.616854025462551" style="stroke:rgb(0,0,0);stroke-width:.00002" />
    <circle cx="106.8069" cy="-6.6188" fill="rgb(255,0,0)" r=".0001" />
    <text x="106.8069" y="-6.6188" stroke="rgb(0,0,0)" transform="translate(106.8069 -6.6188),scale(0.00001 -0.00001),translate(-106.8069 6.6188),translate(106.8125 -6.592499999999999),rotate(-30),translate(-106.8125 6.592499999999999)" >batutulis-pahlawan</text>
    <line x1="106.8045" y1="-6.6163" x2="106.8034" y2="-6.6142" style="stroke:rgb(255,0,0);stroke-width:.00002" />
    <line x1="106.80379133477179" y1="-6.616671205595739" x2="106.80269133477178" y2="-6.614571205595739" style="stroke:rgb(0,0,0);stroke-width:.00002" />
    <circle cx="106.8045" cy="-6.6163" fill="rgb(255,0,0)" r=".0001" />
    <text x="106.8045" y="-6.6163" stroke="rgb(0,0,0)" transform="translate(106.8045 -6.6163),scale(0.00001 -0.00001),translate(-106.8045 6.6163),translate(106.8125 -6.592499999999999),rotate(-30),translate(-106.8125 6.592499999999999)" >pahlawan-1</text>
    <line x1="106.8034" y1="-6.6142" x2="106.800971" y2="-6.611869" style="stroke:rgb(255,0,0);stroke-width:.00002" />
    <line x1="106.80326151960602" y1="-6.6143443023925155" x2="106.80083251960603" y2="-6.612013302392516" style="stroke:rgb(0,0,0);stroke-width:.00002" />
    <circle cx="106.8034" cy="-6.6142" fill="rgb(255,0,0)" r=".0001" />
    <text x="106.8034" y="-6.6142" stroke="rgb(0,0,0)" transform="translate(106.8034 -6.6142),scale(0.00001 -0.00001),translate(-106.8034 6.6142),translate(106.8125 -6.592499999999999),rotate(-30),translate(-106.8125 6.592499999999999)" >dreded-pahlawan</text>
    <line x1="106.800971" y1="-6.611869" x2="106.795612" y2="-6.613876" style="stroke:rgb(255,0,0);stroke-width:.00002" />
    <line x1="106.80104114424942" y1="-6.6120562959803975" x2="106.79568214424943" y2="-6.614063295980397" style="stroke:rgb(0,0,0);stroke-width:.00002" />
    <circle cx="106.800971" cy="-6.611869" fill="rgb(255,0,0)" r=".0001" />
    <text x="106.800971" y="-6.611869" stroke="rgb(0,0,0)" transform="translate(106.800971 -6.611869),scale(0.00001 -0.00001),translate(-106.800971 6.611869),translate(106.8125 -6.592499999999999),rotate(-30),translate(-106.8125 6.592499999999999)" >pahlawan-layungsari</text>
    <line x1="106.795612" y1="-6.613876" x2="106.793464" y2="-6.607388" style="stroke:rgb(255,0,0);stroke-width:.00002" />
    <line x1="106.79542213497189" y1="-6.6139388591369315" x2="106.79327413497188" y2="-6.607450859136931" style="stroke:rgb(0,0,0);stroke-width:.00002" />
    <circle cx="106.795612" cy="-6.613876" fill="rgb(255,0,0)" r=".0001" />
    <text x="106.795612" y="-6.613876" stroke="rgb(0,0,0)" transform="translate(106.795612 -6.613876),scale(0.00001 -0.00001),translate(-106.795612 6.613876),translate(106.8125 -6.592499999999999),rotate(-30),translate(-106.8125 6.592499999999999)" >layungsari-sedane</text>
    <line x1="106.793464" y1="-6.607388" x2="106.792833" y2="-6.605165" style="stroke:rgb(255,0,0);stroke-width:.00002" />
    <line x1="106.79327160078181" y1="-6.607442612643581" x2="106.79264060078181" y2="-6.605219612643581" style="stroke:rgb(0,0,0);stroke-width:.00002" />
    <circle cx="106.793464" cy="-6.607388" fill="rgb(255,0,0)" r=".0001" />
    <text x="106.793464" y="-6.607388" stroke="rgb(0,0,0)" transform="translate(106.793464 -6.607388),scale(0.00001 -0.00001),translate(-106.793464 6.607388),translate(106.8125 -6.592499999999999),rotate(-30),translate(-106.8125 6.592499999999999)" >sedane-pahlawan-empang</text>
    <line x1="106.792833" y1="-6.605165" x2="106.792003" y2="-6.605183" style="stroke:rgb(255,0,0);stroke-width:.00002" />
    <line x1="106.7928373363298" y1="-6.605364952985084" x2="106.79200733632979" y2="-6.605382952985084" style="stroke:rgb(0,0,0);stroke-width:.00002" />
    <circle cx="106.792833" cy="-6.605165" fill="rgb(255,0,0)" r=".0001" />
    <text x="106.792833" y="-6.605165" stroke="rgb(0,0,0)" transform="translate(106.792833 -6.605165),scale(0.00001 -0.00001),translate(-106.792833 6.605165),translate(106.8125 -6.592499999999999),rotate(-30),translate(-106.8125 6.592499999999999)" >empang-1</text>
    <line x1="106.792003" y1="-6.605183" x2="106.792093" y2="-6.606617" style="stroke:rgb(255,0,0);stroke-width:.00002" />
    <line x1="106.7922026072592" y1="-6.605170472347749" x2="106.7922926072592" y2="-6.606604472347748" style="stroke:rgb(0,0,0);stroke-width:.00002" />
    <circle cx="106.792003" cy="-6.605183" fill="rgb(255,0,0)" r=".0001" />
    <text x="106.792003" y="-6.605183" stroke="rgb(0,0,0)" transform="translate(106.792003 -6.605183),scale(0.00001 -0.00001),translate(-106.792003 6.605183),translate(106.8125 -6.592499999999999),rotate(-30),translate(-106.8125 6.592499999999999)" >empang-2</text>
    <line x1="106.792093" y1="-6.606617" x2="106.791768" y2="-6.607155" style="stroke:rgb(255,0,0);stroke-width:.00002" />
    <line x1="106.79226418897626" y1="-6.606720413415024" x2="106.79193918897627" y2="-6.607258413415024" style="stroke:rgb(0,0,0);stroke-width:.00002" />
    <circle cx="106.792093" cy="-6.606617" fill="rgb(255,0,0)" r=".0001" />
    <text x="106.792093" y="-6.606617" stroke="rgb(0,0,0)" transform="translate(106.792093 -6.606617),scale(0.00001 -0.00001),translate(-106.792093 6.606617),translate(106.8125 -6.592499999999999),rotate(-30),translate(-106.8125 6.592499999999999)" >empang-3</text>
    <line x1="106.791768" y1="-6.607155" x2="106.787853" y2="-6.606707" style="stroke:rgb(255,0,0);stroke-width:.00002" />
    <line x1="106.79174526205345" y1="-6.6073537032606335" x2="106.78783026205345" y2="-6.606905703260634" style="stroke:rgb(0,0,0);stroke-width:.00002" />
    <circle cx="106.791768" cy="-6.607155" fill="rgb(255,0,0)" r=".0001" />
    <text x="106.791768" y="-6.607155" stroke="rgb(0,0,0)" transform="translate(106.791768 -6.607155),scale(0.00001 -0.00001),translate(-106.791768 6.607155),translate(106.8125 -6.592499999999999),rotate(-30),translate(-106.8125 6.592499999999999)" >empang-suryalaga-kapten</text>
    <line x1="106.787853" y1="-6.606707" x2="106.787672" y2="-6.606258" style="stroke:rgb(255,0,0);stroke-width:.00002" />
    <line x1="106.78766750477313" y1="-6.6067817764723" x2="106.78748650477313" y2="-6.6063327764723" style="stroke:rgb(0,0,0);stroke-width:.00002" />
    <circle cx="106.787853" cy="-6.606707" fill="rgb(255,0,0)" r=".0001" />
    <text x="106.787853" y="-6.606707" stroke="rgb(0,0,0)" transform="translate(106.787853 -6.606707),scale(0.00001 -0.00001),translate(-106.787853 6.606707),translate(106.8125 -6.592499999999999),rotate(-30),translate(-106.8125 6.592499999999999)" >suryalaga-1</text>
    <line x1="106.787672" y1="-6.606258" x2="106.78659" y2="-6.603839" style="stroke:rgb(255,0,0);stroke-width:.00002" />
    <line x1="106.78748943116749" y1="-6.606339661627439" x2="106.78640743116749" y2="-6.603920661627439" style="stroke:rgb(0,0,0);stroke-width:.00002" />
    <circle cx="106.787672" cy="-6.606258" fill="rgb(255,0,0)" r=".0001" />
    <text x="106.787672" y="-6.606258" stroke="rgb(0,0,0)" transform="translate(106.787672 -6.606258),scale(0.00001 -0.00001),translate(-106.787672 6.606258),translate(106.8125 -6.592499999999999),rotate(-30),translate(-106.8125 6.592499999999999)" >suryalaga-2</text>
    <line x1="106.78659" y1="-6.603839" x2="106.782981" y2="-6.600971" style="stroke:rgb(255,0,0);stroke-width:.00002" />
    <line x1="106.78646556958236" y1="-6.60399557928077" x2="106.78285656958236" y2="-6.601127579280771" style="stroke:rgb(0,0,0);stroke-width:.00002" />
    <circle cx="106.78659" cy="-6.603839" fill="rgb(255,0,0)" r=".0001" />
    <text x="106.78659" y="-6.603839" stroke="rgb(0,0,0)" transform="translate(106.78659 -6.603839),scale(0.00001 -0.00001),translate(-106.78659 6.603839),translate(106.8125 -6.592499999999999),rotate(-30),translate(-106.8125 6.592499999999999)" >suryalaga-3</text>
    <line x1="106.782981" y1="-6.600971" x2="106.782981" y2="-6.600971" style="stroke:rgb(255,0,0);stroke-width:.00002" />
    <line x1="106.782981" y1="-6.600971" x2="106.782981" y2="-6.600971" style="stroke:rgb(0,0,0);stroke-width:.00002" />
    <circle cx="106.782981" cy="-6.600971" fill="rgb(255,0,0)" r=".0001" />
    <text x="106.782981" y="-6.600971" stroke="rgb(0,0,0)" transform="translate(106.782981 -6.600971),scale(0.00001 -0.00001),translate(-106.782981 6.600971),translate(106.8125 -6.592499999999999),rotate(-30),translate(-106.8125 6.592499999999999)" >suryalaga-4</text>
    <line x1="106.782981" y1="-6.600971" x2="106.779535" y2="-6.601114" style="stroke:rgb(255,0,0);stroke-width:.00002" />
    <line x1="106.78298929234089" y1="-6.6011708280187635" x2="106.77954329234088" y2="-6.601313828018763" style="stroke:rgb(0,0,0);stroke-width:.00002" />
    <circle cx="106.782981" cy="-6.600971" fill="rgb(255,0,0)" r=".0001" />
    <text x="106.782981" y="-6.600971" stroke="rgb(0,0,0)" transform="translate(106.782981 -6.600971),scale(0.00001 -0.00001),translate(-106.782981 6.600971),translate(106.8125 -6.592499999999999),rotate(-30),translate(-106.8125 6.592499999999999)" >suryalaga-5</text>
    <line x1="106.779535" y1="-6.601114" x2="106.779318" y2="-6.596113" style="stroke:rgb(255,0,0);stroke-width:.00002" />
    <line x1="106.77933518801522" y1="-6.601122670106117" x2="106.77911818801523" y2="-6.596121670106117" style="stroke:rgb(0,0,0);stroke-width:.00002" />
    <circle cx="106.779535" cy="-6.601114" fill="rgb(255,0,0)" r=".0001" />
    <text x="106.779535" y="-6.601114" stroke="rgb(0,0,0)" transform="translate(106.779535 -6.601114),scale(0.00001 -0.00001),translate(-106.779535 6.601114),translate(106.8125 -6.592499999999999),rotate(-30),translate(-106.8125 6.592499999999999)" >suryalaga-ciomas</text>
    <line x1="106.779318" y1="-6.596113" x2="106.772155" y2="-6.587779" style="stroke:rgb(255,0,0);stroke-width:.00002" />
    <line x1="106.77886297445659" y1="-6.596504090468864" x2="106.77169997445658" y2="-6.588170090468864" style="stroke:rgb(0,0,0);stroke-width:.00002" />
    <circle cx="106.779318" cy="-6.596113" fill="rgb(255,0,0)" r=".0001" />
    <text x="106.779318" y="-6.596113" stroke="rgb(0,0,0)" transform="translate(106.779318 -6.596113),scale(0.00001 -0.00001),translate(-106.779318 6.596113),translate(106.8125 -6.592499999999999),rotate(-30),translate(-106.8125 6.592499999999999)" >abdullah-batu</text>
    <line x1="106.772155" y1="-6.587779" x2="106.771794" y2="-6.585932" style="stroke:rgb(255,0,0);stroke-width:.00002" />
    <line x1="106.77156614221536" y1="-6.587894093481458" x2="106.77120514221536" y2="-6.586047093481457" style="stroke:rgb(0,0,0);stroke-width:.00002" />
    <circle cx="106.772155" cy="-6.587779" fill="rgb(255,0,0)" r=".0001" />
    <text x="106.772155" y="-6.587779" stroke="rgb(0,0,0)" transform="translate(106.772155 -6.587779),scale(0.00001 -0.00001),translate(-106.772155 6.587779),translate(106.8125 -6.592499999999999),rotate(-30),translate(-106.8125 6.592499999999999)" >sind-barang-1</text>
    <line x1="106.771794" y1="-6.585932" x2="106.771102" y2="-6.584891" style="stroke:rgb(255,0,0);stroke-width:.00002" />
    <line x1="106.77129432719524" y1="-6.586264155216999" x2="106.77060232719523" y2="-6.585223155216999" style="stroke:rgb(0,0,0);stroke-width:.00002" />
    <circle cx="106.771794" cy="-6.585932" fill="rgb(255,0,0)" r=".0001" />
    <text x="106.771794" y="-6.585932" stroke="rgb(0,0,0)" transform="translate(106.771794 -6.585932),scale(0.00001 -0.00001),translate(-106.771794 6.585932),translate(106.8125 -6.592499999999999),rotate(-30),translate(-106.8125 6.592499999999999)" >sind-barang-2</text>
    <line x1="106.771102" y1="-6.584891" x2="106.767319" y2="-6.580286" style="stroke:rgb(255,0,0);stroke-width:.00002" />
    <line x1="106.77063838011992" y1="-6.585271862976404" x2="106.76685538011992" y2="-6.580666862976404" style="stroke:rgb(0,0,0);stroke-width:.00002" />
    <circle cx="106.771102" cy="-6.584891" fill="rgb(255,0,0)" r=".0001" />
    <text x="106.771102" y="-6.584891" stroke="rgb(0,0,0)" transform="translate(106.771102 -6.584891),scale(0.00001 -0.00001),translate(-106.771102 6.584891),translate(106.8125 -6.592499999999999),rotate(-30),translate(-106.8125 6.592499999999999)" >sind-barang-darulquran</text>
    <line x1="106.767319" y1="-6.580286" x2="106.763566" y2="-6.580519" style="stroke:rgb(255,0,0);stroke-width:.00002" />
    <line x1="106.76735617861846" y1="-6.580884847017468" x2="106.76360317861845" y2="-6.581117847017468" style="stroke:rgb(0,0,0);stroke-width:.00002" />
    <circle cx="106.767319" cy="-6.580286" fill="rgb(255,0,0)" r=".0001" />
    <text x="106.767319" y="-6.580286" stroke="rgb(0,0,0)" transform="translate(106.767319 -6.580286),scale(0.00001 -0.00001),translate(-106.767319 6.580286),translate(106.8125 -6.592499999999999),rotate(-30),translate(-106.8125 6.592499999999999)" >sind-barang-3</text>
    <line x1="106.763566" y1="-6.580519" x2="106.753317" y2="-6.576235" style="stroke:rgb(255,0,0);stroke-width:.00002" />
    <line x1="106.76333460576483" y1="-6.581072585321271" x2="106.75308560576482" y2="-6.576788585321271" style="stroke:rgb(0,0,0);stroke-width:.00002" />
    <circle cx="106.763566" cy="-6.580519" fill="rgb(255,0,0)" r=".0001" />
    <text x="106.763566" y="-6.580519" stroke="rgb(0,0,0)" transform="translate(106.763566 -6.580519),scale(0.00001 -0.00001),translate(-106.763566 6.580519),translate(106.8125 -6.592499999999999),rotate(-30),translate(-106.8125 6.592499999999999)" >sind-barang-4</text>
    <line x1="106.753317" y1="-6.576235" x2="106.751377" y2="-6.573609" style="stroke:rgb(255,0,0);stroke-width:.00002" />
    <line x1="106.75283441030484" y1="-6.576591520947675" x2="106.75089441030485" y2="-6.5739655209476755" style="stroke:rgb(0,0,0);stroke-width:.00002" />
    <circle cx="106.753317" cy="-6.576235" fill="rgb(255,0,0)" r=".0001" />
    <text x="106.753317" y="-6.576235" stroke="rgb(0,0,0)" transform="translate(106.753317 -6.576235),scale(0.00001 -0.00001),translate(-106.753317 6.576235),translate(106.8125 -6.592499999999999),rotate(-30),translate(-106.8125 6.592499999999999)" >sind-barang-adjie</text>
    <line x1="106.751377" y1="-6.573609" x2="106.755373" y2="-6.571011" style="stroke:rgb(255,0,0);stroke-width:.00002" />
    <line x1="106.75104995389461" y1="-6.5731059683459785" x2="106.75504595389461" y2="-6.570507968345979" style="stroke:rgb(0,0,0);stroke-width:.00002" />
    <circle cx="106.751377" cy="-6.573609" fill="rgb(255,0,0)" r=".0001" />
    <text x="106.751377" y="-6.573609" stroke="rgb(0,0,0)" transform="translate(106.751377 -6.573609),scale(0.00001 -0.00001),translate(-106.751377 6.573609),translate(106.8125 -6.592499999999999),rotate(-30),translate(-106.8125 6.592499999999999)" >adjie-ciampea</text>
    <line x1="106.755373" y1="-6.571011" x2="106.751377" y2="-6.573609" style="stroke:rgb(255,0,0);stroke-width:.00002" />
    <line x1="106.7557000461054" y1="-6.571514031654022" x2="106.7517040461054" y2="-6.574112031654022" style="stroke:rgb(0,0,0);stroke-width:.00002" />
    <circle cx="106.755373" cy="-6.571011" fill="rgb(255,0,0)" r=".0001" />
    <text x="106.755373" y="-6.571011" stroke="rgb(0,0,0)" transform="translate(106.755373 -6.571011),scale(0.00001 -0.00001),translate(-106.755373 6.571011),translate(106.8125 -6.592499999999999),rotate(-30),translate(-106.8125 6.592499999999999)" >bubulak</text>
    <line x1="106.751377" y1="-6.573609" x2="106.753317" y2="-6.576235" style="stroke:rgb(255,0,0);stroke-width:.00002" />
    <line x1="106.75185958969516" y1="-6.573252479052325" x2="106.75379958969515" y2="-6.575878479052324" style="stroke:rgb(0,0,0);stroke-width:.00002" />
    <circle cx="106.751377" cy="-6.573609" fill="rgb(255,0,0)" r=".0001" />
    <text x="106.751377" y="-6.573609" stroke="rgb(0,0,0)" transform="translate(106.751377 -6.573609),scale(0.00001 -0.00001),translate(-106.751377 6.573609),translate(106.8125 -6.592499999999999),rotate(-30),translate(-106.8125 6.592499999999999)" >adjie-ciampea</text>
    <line x1="106.753317" y1="-6.576235" x2="106.763566" y2="-6.580519" style="stroke:rgb(255,0,0);stroke-width:.00002" />
    <line x1="106.75354839423517" y1="-6.575681414678728" x2="106.76379739423517" y2="-6.579965414678728" style="stroke:rgb(0,0,0);stroke-width:.00002" />
    <circle cx="106.753317" cy="-6.576235" fill="rgb(255,0,0)" r=".0001" />
    <text x="106.753317" y="-6.576235" stroke="rgb(0,0,0)" transform="translate(106.753317 -6.576235),scale(0.00001 -0.00001),translate(-106.753317 6.576235),translate(106.8125 -6.592499999999999),rotate(-30),translate(-106.8125 6.592499999999999)" >sind-barang-adjie</text>
    <line x1="106.763566" y1="-6.580519" x2="106.767319" y2="-6.580286" style="stroke:rgb(255,0,0);stroke-width:.00002" />
    <line x1="106.76352882138154" y1="-6.579920152982532" x2="106.76728182138154" y2="-6.579687152982532" style="stroke:rgb(0,0,0);stroke-width:.00002" />
    <circle cx="106.763566" cy="-6.580519" fill="rgb(255,0,0)" r=".0001" />
    <text x="106.763566" y="-6.580519" stroke="rgb(0,0,0)" transform="translate(106.763566 -6.580519),scale(0.00001 -0.00001),translate(-106.763566 6.580519),translate(106.8125 -6.592499999999999),rotate(-30),translate(-106.8125 6.592499999999999)" >sind-barang-4</text>
    <line x1="106.767319" y1="-6.580286" x2="106.771102" y2="-6.584891" style="stroke:rgb(255,0,0);stroke-width:.00002" />
    <line x1="106.76778261988008" y1="-6.579905137023596" x2="106.77156561988008" y2="-6.584510137023596" style="stroke:rgb(0,0,0);stroke-width:.00002" />
    <circle cx="106.767319" cy="-6.580286" fill="rgb(255,0,0)" r=".0001" />
    <text x="106.767319" y="-6.580286" stroke="rgb(0,0,0)" transform="translate(106.767319 -6.580286),scale(0.00001 -0.00001),translate(-106.767319 6.580286),translate(106.8125 -6.592499999999999),rotate(-30),translate(-106.8125 6.592499999999999)" >sind-barang-3</text>
    <line x1="106.771102" y1="-6.584891" x2="106.771794" y2="-6.585932" style="stroke:rgb(255,0,0);stroke-width:.00002" />
    <line x1="106.77160167280476" y1="-6.584558844783" x2="106.77229367280476" y2="-6.585599844783" style="stroke:rgb(0,0,0);stroke-width:.00002" />
    <circle cx="106.771102" cy="-6.584891" fill="rgb(255,0,0)" r=".0001" />
    <text x="106.771102" y="-6.584891" stroke="rgb(0,0,0)" transform="translate(106.771102 -6.584891),scale(0.00001 -0.00001),translate(-106.771102 6.584891),translate(106.8125 -6.592499999999999),rotate(-30),translate(-106.8125 6.592499999999999)" >sind-barang-darulquran</text>
    <line x1="106.771794" y1="-6.585932" x2="106.772155" y2="-6.587779" style="stroke:rgb(255,0,0);stroke-width:.00002" />
    <line x1="106.77238285778463" y1="-6.585816906518542" x2="106.77274385778463" y2="-6.587663906518543" style="stroke:rgb(0,0,0);stroke-width:.00002" />
    <circle cx="106.771794" cy="-6.585932" fill="rgb(255,0,0)" r=".0001" />
    <text x="106.771794" y="-6.585932" stroke="rgb(0,0,0)" transform="translate(106.771794 -6.585932),scale(0.00001 -0.00001),translate(-106.771794 6.585932),translate(106.8125 -6.592499999999999),rotate(-30),translate(-106.8125 6.592499999999999)" >sind-barang-2</text>
    <line x1="106.772155" y1="-6.587779" x2="106.779318" y2="-6.596113" style="stroke:rgb(255,0,0);stroke-width:.00002" />
    <line x1="106.77261002554341" y1="-6.587387909531136" x2="106.77977302554342" y2="-6.595721909531136" style="stroke:rgb(0,0,0);stroke-width:.00002" />
    <circle cx="106.772155" cy="-6.587779" fill="rgb(255,0,0)" r=".0001" />
    <text x="106.772155" y="-6.587779" stroke="rgb(0,0,0)" transform="translate(106.772155 -6.587779),scale(0.00001 -0.00001),translate(-106.772155 6.587779),translate(106.8125 -6.592499999999999),rotate(-30),translate(-106.8125 6.592499999999999)" >sind-barang-1</text>
    <line x1="106.779318" y1="-6.596113" x2="106.779535" y2="-6.601114" style="stroke:rgb(255,0,0);stroke-width:.00002" />
    <line x1="106.77951781198477" y1="-6.596104329893882" x2="106.77973481198477" y2="-6.601105329893882" style="stroke:rgb(0,0,0);stroke-width:.00002" />
    <circle cx="106.779318" cy="-6.596113" fill="rgb(255,0,0)" r=".0001" />
    <text x="106.779318" y="-6.596113" stroke="rgb(0,0,0)" transform="translate(106.779318 -6.596113),scale(0.00001 -0.00001),translate(-106.779318 6.596113),translate(106.8125 -6.592499999999999),rotate(-30),translate(-106.8125 6.592499999999999)" >abdullah-batu</text>
    <line x1="106.779535" y1="-6.601114" x2="106.782981" y2="-6.600971" style="stroke:rgb(255,0,0);stroke-width:.00002" />
    <line x1="106.77952670765912" y1="-6.600914171981237" x2="106.78297270765913" y2="-6.600771171981237" style="stroke:rgb(0,0,0);stroke-width:.00002" />
    <circle cx="106.779535" cy="-6.601114" fill="rgb(255,0,0)" r=".0001" />
    <text x="106.779535" y="-6.601114" stroke="rgb(0,0,0)" transform="translate(106.779535 -6.601114),scale(0.00001 -0.00001),translate(-106.779535 6.601114),translate(106.8125 -6.592499999999999),rotate(-30),translate(-106.8125 6.592499999999999)" >suryalaga-ciomas</text>
    <line x1="106.782981" y1="-6.600971" x2="106.782981" y2="-6.600971" style="stroke:rgb(255,0,0);stroke-width:.00002" />
    <line x1="106.782981" y1="-6.600971" x2="106.782981" y2="-6.600971" style="stroke:rgb(0,0,0);stroke-width:.00002" />
    <circle cx="106.782981" cy="-6.600971" fill="rgb(255,0,0)" r=".0001" />
    <text x="106.782981" y="-6.600971" stroke="rgb(0,0,0)" transform="translate(106.782981 -6.600971),scale(0.00001 -0.00001),translate(-106.782981 6.600971),translate(106.8125 -6.592499999999999),rotate(-30),translate(-106.8125 6.592499999999999)" >suryalaga-5</text>
    <line x1="106.782981" y1="-6.600971" x2="106.78659" y2="-6.603839" style="stroke:rgb(255,0,0);stroke-width:.00002" />
    <line x1="106.78310543041765" y1="-6.60081442071923" x2="106.78671443041765" y2="-6.603682420719229" style="stroke:rgb(0,0,0);stroke-width:.00002" />
    <circle cx="106.782981" cy="-6.600971" fill="rgb(255,0,0)" r=".0001" />
    <text x="106.782981" y="-6.600971" stroke="rgb(0,0,0)" transform="translate(106.782981 -6.600971),scale(0.00001 -0.00001),translate(-106.782981 6.600971),translate(106.8125 -6.592499999999999),rotate(-30),translate(-106.8125 6.592499999999999)" >suryalaga-4</text>
    <line x1="106.78659" y1="-6.603839" x2="106.787672" y2="-6.606258" style="stroke:rgb(255,0,0);stroke-width:.00002" />
    <line x1="106.78677256883252" y1="-6.603757338372561" x2="106.78785456883251" y2="-6.606176338372562" style="stroke:rgb(0,0,0);stroke-width:.00002" />
    <circle cx="106.78659" cy="-6.603839" fill="rgb(255,0,0)" r=".0001" />
    <text x="106.78659" y="-6.603839" stroke="rgb(0,0,0)" transform="translate(106.78659 -6.603839),scale(0.00001 -0.00001),translate(-106.78659 6.603839),translate(106.8125 -6.592499999999999),rotate(-30),translate(-106.8125 6.592499999999999)" >suryalaga-3</text>
    <line x1="106.787672" y1="-6.606258" x2="106.787853" y2="-6.606707" style="stroke:rgb(255,0,0);stroke-width:.00002" />
    <line x1="106.78785749522687" y1="-6.606183223527701" x2="106.78803849522687" y2="-6.606632223527701" style="stroke:rgb(0,0,0);stroke-width:.00002" />
    <circle cx="106.787672" cy="-6.606258" fill="rgb(255,0,0)" r=".0001" />
    <text x="106.787672" y="-6.606258" stroke="rgb(0,0,0)" transform="translate(106.787672 -6.606258),scale(0.00001 -0.00001),translate(-106.787672 6.606258),translate(106.8125 -6.592499999999999),rotate(-30),translate(-106.8125 6.592499999999999)" >suryalaga-2</text>
    <line x1="106.787853" y1="-6.606707" x2="106.791768" y2="-6.607155" style="stroke:rgb(255,0,0);stroke-width:.00002" />
    <line x1="106.78787573794655" y1="-6.606508296739366" x2="106.79179073794656" y2="-6.606956296739366" style="stroke:rgb(0,0,0);stroke-width:.00002" />
    <circle cx="106.787853" cy="-6.606707" fill="rgb(255,0,0)" r=".0001" />
    <text x="106.787853" y="-6.606707" stroke="rgb(0,0,0)" transform="translate(106.787853 -6.606707),scale(0.00001 -0.00001),translate(-106.787853 6.606707),translate(106.8125 -6.592499999999999),rotate(-30),translate(-106.8125 6.592499999999999)" >suryalaga-1</text>
    <line x1="106.791768" y1="-6.607155" x2="106.792093" y2="-6.606617" style="stroke:rgb(255,0,0);stroke-width:.00002" />
    <line x1="106.79159681102374" y1="-6.6070515865849755" x2="106.79192181102373" y2="-6.606513586584976" style="stroke:rgb(0,0,0);stroke-width:.00002" />
    <circle cx="106.791768" cy="-6.607155" fill="rgb(255,0,0)" r=".0001" />
    <text x="106.791768" y="-6.607155" stroke="rgb(0,0,0)" transform="translate(106.791768 -6.607155),scale(0.00001 -0.00001),translate(-106.791768 6.607155),translate(106.8125 -6.592499999999999),rotate(-30),translate(-106.8125 6.592499999999999)" >empang-suryalaga-kapten</text>
    <line x1="106.792093" y1="-6.606617" x2="106.792003" y2="-6.605183" style="stroke:rgb(255,0,0);stroke-width:.00002" />
    <line x1="106.79189339274079" y1="-6.6066295276522515" x2="106.79180339274079" y2="-6.605195527652252" style="stroke:rgb(0,0,0);stroke-width:.00002" />
    <circle cx="106.792093" cy="-6.606617" fill="rgb(255,0,0)" r=".0001" />
    <text x="106.792093" y="-6.606617" stroke="rgb(0,0,0)" transform="translate(106.792093 -6.606617),scale(0.00001 -0.00001),translate(-106.792093 6.606617),translate(106.8125 -6.592499999999999),rotate(-30),translate(-106.8125 6.592499999999999)" >empang-3</text>
    <line x1="106.792003" y1="-6.605183" x2="106.792833" y2="-6.605165" style="stroke:rgb(255,0,0);stroke-width:.00002" />
    <line x1="106.7919986636702" y1="-6.604983047014916" x2="106.7928286636702" y2="-6.604965047014916" style="stroke:rgb(0,0,0);stroke-width:.00002" />
    <circle cx="106.792003" cy="-6.605183" fill="rgb(255,0,0)" r=".0001" />
    <text x="106.792003" y="-6.605183" stroke="rgb(0,0,0)" transform="translate(106.792003 -6.605183),scale(0.00001 -0.00001),translate(-106.792003 6.605183),translate(106.8125 -6.592499999999999),rotate(-30),translate(-106.8125 6.592499999999999)" >empang-2</text>
    <line x1="106.792833" y1="-6.605165" x2="106.793464" y2="-6.607388" style="stroke:rgb(255,0,0);stroke-width:.00002" />
    <line x1="106.7930253992182" y1="-6.60511038735642" x2="106.7936563992182" y2="-6.6073333873564195" style="stroke:rgb(0,0,0);stroke-width:.00002" />
    <circle cx="106.792833" cy="-6.605165" fill="rgb(255,0,0)" r=".0001" />
    <text x="106.792833" y="-6.605165" stroke="rgb(0,0,0)" transform="translate(106.792833 -6.605165),scale(0.00001 -0.00001),translate(-106.792833 6.605165),translate(106.8125 -6.592499999999999),rotate(-30),translate(-106.8125 6.592499999999999)" >empang-1</text>
    <line x1="106.793464" y1="-6.607388" x2="106.7949" y2="-6.6077" style="stroke:rgb(255,0,0);stroke-width:.00002" />
    <line x1="106.79350646332708" y1="-6.60719255981515" x2="106.79494246332708" y2="-6.60750455981515" style="stroke:rgb(0,0,0);stroke-width:.00002" />
    <circle cx="106.793464" cy="-6.607388" fill="rgb(255,0,0)" r=".0001" />
    <text x="106.793464" y="-6.607388" stroke="rgb(0,0,0)" transform="translate(106.793464 -6.607388),scale(0.00001 -0.00001),translate(-106.793464 6.607388),translate(106.8125 -6.592499999999999),rotate(-30),translate(-106.8125 6.592499999999999)" >sedane-pahlawan-empang</text>
    <line x1="106.7949" y1="-6.6077" x2="106.7964" y2="-6.6082" style="stroke:rgb(255,0,0);stroke-width:.00002" />
    <line x1="106.7950264911064" y1="-6.6073205266807795" x2="106.7965264911064" y2="-6.607820526680779" style="stroke:rgb(0,0,0);stroke-width:.00002" />
    <circle cx="106.7949" cy="-6.6077" fill="rgb(255,0,0)" r=".0001" />
    <text x="106.7949" y="-6.6077" stroke="rgb(0,0,0)" transform="translate(106.7949 -6.6077),scale(0.00001 -0.00001),translate(-106.7949 6.6077),translate(106.8125 -6.592499999999999),rotate(-30),translate(-106.8125 6.592499999999999)" >pahlawan-empang</text>
    <line x1="106.7964" y1="-6.6082" x2="106.8" y2="-6.6113" style="stroke:rgb(255,0,0);stroke-width:.00002" />
    <line x1="106.79666100925415" y1="-6.607896892479059" x2="106.80026100925414" y2="-6.610996892479059" style="stroke:rgb(0,0,0);stroke-width:.00002" />
    <circle cx="106.7964" cy="-6.6082" fill="rgb(255,0,0)" r=".0001" />
    <text x="106.7964" y="-6.6082" stroke="rgb(0,0,0)" transform="translate(106.7964 -6.6082),scale(0.00001 -0.00001),translate(-106.7964 6.6082),translate(106.8125 -6.592499999999999),rotate(-30),translate(-106.8125 6.592499999999999)" >pahlawan-4</text>
    <line x1="106.8" y1="-6.6113" x2="106.8021" y2="-6.6123" style="stroke:rgb(255,0,0);stroke-width:.00002" />
    <line x1="106.80017197343216" y1="-6.610938855792471" x2="106.80227197343216" y2="-6.611938855792471" style="stroke:rgb(0,0,0);stroke-width:.00002" />
    <circle cx="106.8" cy="-6.6113" fill="rgb(255,0,0)" r=".0001" />
    <text x="106.8" y="-6.6113" stroke="rgb(0,0,0)" transform="translate(106.8 -6.6113),scale(0.00001 -0.00001),translate(-106.8 6.6113),translate(106.8125 -6.592499999999999),rotate(-30),translate(-106.8125 6.592499999999999)" >pahlawan-3</text>
    <line x1="106.8021" y1="-6.6123" x2="106.800971" y2="-6.611869" style="stroke:rgb(255,0,0);stroke-width:.00002" />
    <line x1="106.80202867019179" y1="-6.612486847687865" x2="106.8008996701918" y2="-6.6120558476878655" style="stroke:rgb(0,0,0);stroke-width:.00002" />
    <circle cx="106.8021" cy="-6.6123" fill="rgb(255,0,0)" r=".0001" />
    <text x="106.8021" y="-6.6123" stroke="rgb(0,0,0)" transform="translate(106.8021 -6.6123),scale(0.00001 -0.00001),translate(-106.8021 6.6123),translate(106.8125 -6.592499999999999),rotate(-30),translate(-106.8125 6.592499999999999)" >pahlawan-ggaut</text>
    <line x1="106.800971" y1="-6.611869" x2="106.8034" y2="-6.6142" style="stroke:rgb(255,0,0);stroke-width:.00002" />
    <line x1="106.80110948039398" y1="-6.611724697607485" x2="106.80353848039397" y2="-6.614055697607485" style="stroke:rgb(0,0,0);stroke-width:.00002" />
    <circle cx="106.800971" cy="-6.611869" fill="rgb(255,0,0)" r=".0001" />
    <text x="106.800971" y="-6.611869" stroke="rgb(0,0,0)" transform="translate(106.800971 -6.611869),scale(0.00001 -0.00001),translate(-106.800971 6.611869),translate(106.8125 -6.592499999999999),rotate(-30),translate(-106.8125 6.592499999999999)" >pahlawan-layungsari</text>
    <line x1="106.8034" y1="-6.6142" x2="106.8045" y2="-6.6163" style="stroke:rgb(255,0,0);stroke-width:.00002" />
    <line x1="106.8037543326141" y1="-6.614014397202131" x2="106.80485433261411" y2="-6.61611439720213" style="stroke:rgb(0,0,0);stroke-width:.00002" />
    <circle cx="106.8034" cy="-6.6142" fill="rgb(255,0,0)" r=".0001" />
    <text x="106.8034" y="-6.6142" stroke="rgb(0,0,0)" transform="translate(106.8034 -6.6142),scale(0.00001 -0.00001),translate(-106.8034 6.6142),translate(106.8125 -6.592499999999999),rotate(-30),translate(-106.8125 6.592499999999999)" >dreded-pahlawan</text>
    <line x1="106.8045" y1="-6.6163" x2="106.8069" y2="-6.6188" style="stroke:rgb(255,0,0);stroke-width:.00002" />
    <line x1="106.80478855492842" y1="-6.616022987268725" x2="106.80718855492842" y2="-6.618522987268725" style="stroke:rgb(0,0,0);stroke-width:.00002" />
    <circle cx="106.8045" cy="-6.6163" fill="rgb(255,0,0)" r=".0001" />
    <text x="106.8045" y="-6.6163" stroke="rgb(0,0,0)" transform="translate(106.8045 -6.6163),scale(0.00001 -0.00001),translate(-106.8045 6.6163),translate(106.8125 -6.592499999999999),rotate(-30),translate(-106.8125 6.592499999999999)" >pahlawan-1</text>
    <line x1="106.8069" y1="-6.6188" x2="106.809262" y2="-6.618527" style="stroke:rgb(255,0,0);stroke-width:.00002" />
    <line x1="106.80687703686704" y1="-6.618601322637112" x2="106.80923903686704" y2="-6.618328322637112" style="stroke:rgb(0,0,0);stroke-width:.00002" />
    <circle cx="106.8069" cy="-6.6188" fill="rgb(255,0,0)" r=".0001" />
    <text x="106.8069" y="-6.6188" stroke="rgb(0,0,0)" transform="translate(106.8069 -6.6188),scale(0.00001 -0.00001),translate(-106.8069 6.6188),translate(106.8125 -6.592499999999999),rotate(-30),translate(-106.8125 6.592499999999999)" >batutulis-pahlawan</text>
    <line x1="106.809262" y1="-6.618527" x2="106.810326" y2="-6.616466" style="stroke:rgb(255,0,0);stroke-width:.00002" />
    <line x1="106.80908428493859" y1="-6.618435253845055" x2="106.81014828493859" y2="-6.616374253845055" style="stroke:rgb(0,0,0);stroke-width:.00002" />
    <circle cx="106.809262" cy="-6.618527" fill="rgb(255,0,0)" r=".0001" />
    <text x="106.809262" y="-6.618527" stroke="rgb(0,0,0)" transform="translate(106.809262 -6.618527),scale(0.00001 -0.00001),translate(-106.809262 6.618527),translate(106.8125 -6.592499999999999),rotate(-30),translate(-106.8125 6.592499999999999)" >batutulis-loop</text>
    <line x1="106.810326" y1="-6.616466" x2="106.8124" y2="-6.6208" style="stroke:rgb(255,0,0);stroke-width:.00002" />
    <line x1="106.8105064071153" y1="-6.616379667661026" x2="106.81258040711529" y2="-6.620713667661026" style="stroke:rgb(0,0,0);stroke-width:.00002" />
    <circle cx="106.810326" cy="-6.616466" fill="rgb(255,0,0)" r=".0001" />
    <text x="106.810326" y="-6.616466" stroke="rgb(0,0,0)" transform="translate(106.810326 -6.616466),scale(0.00001 -0.00001),translate(-106.810326 6.616466),translate(106.8125 -6.592499999999999),rotate(-30),translate(-106.8125 6.592499999999999)" >batutulis-siliwangi</text>
  </g>
</svg>
