<svg width="1049.9999999998977" height="1849.9999999999961" xmlns="http://www.w3.org/2000/svg" xmlns:xlink="http://www.w3.org/1999/xlink" >
  <g transform="translate(524.9999999999488 924.9999999999981) rotate(30) scale(10000 -10000) translate(-106.8125 6.592499999999999)">
    <path d="M106.76 -6.5 L106.865 -6.5 L106.865 -6.685 L106.76 -6.685 Z" fill="none" stroke="black" stroke-width="0.0005" transform="translate(106.8125 -6.592499999999999) rotate(30) translate(-106.8125 6.592499999999999)" />
    <path d="M106.815 -6.6175 L106.81306233537039 -6.6129250966663164 L106.80869268244368 -6.606929526371536 L106.80796880600509 -6.607239759130935 L106.80732895902072 -6.606813194474693 L106.80655178427516 -6.606924219438347 L106.80563621463622 -6.6055 L106.80486083446164 -6.6055 L106.80402974241744 -6.601863972306694 L106.80001502878356 -6.602776407223486 L106.80029161136612 -6.604343708524579 L106.80186992135965 -6.605527441019736 L106.80358025746494 -6.607640209149802 L106.80492939532867 -6.6096120260275635 L106.8046396085637 -6.609901812792528 L106.81202872522059 -6.617685015671129 L106.81227895500373 -6.617601605743415 L106.81331665419052 -6.617497835824737 L106.81514127094405 -6.618318913363829 L106.81522860751647 -6.618610035271898 L106.8126361515979 -6.612128895475445 L106.8105 -6.6087 L106.81303575966955 -6.612372409651051 L106.81492571063274 -6.611477169721113 L106.81689679975025 -6.613743922206252 L106.81724581655652 -6.613307651198411 L106.81793432169776 -6.6131929003415335 L106.81823286747164 -6.613491446115401 L106.81876695230494 -6.613384629148743 L106.81886695230492 -6.613684629148745 L106.81917483915156 -6.6136230517794194 L106.8186796664675 -6.611840430116856 L106.81969090450595 -6.611435934901483 L106.8194 -6.6084 L106.81988363081135 -6.611366713807543 L106.82037693149537 -6.611202280246206 L106.8211 -6.6112 L106.82042306850465 -6.611397719753791 L106.81991537085125 -6.611566952304924 L106.82019113546961 -6.612945775396745 L106.8207 -6.6135 L106.82000886453038 -6.61305422460325 L106.81972551876756 -6.611637495789117 L106.81892033353249 -6.611959569883141 L106.81942516084845 -6.61377694822058 L106.81873304769506 -6.613915370851256 L106.81863304769509 -6.613615370851256 L106.81816713252837 -6.613708553884598 L106.81786567830223 -6.613407099658467 L106.81735418344348 -6.613492348801592 L106.81690320024975 -6.614056077793748 L106.81487428936725 -6.611722830278885 L106.81312775727737 -6.612550134953046 Z" stroke="brown" stroke-width="0.0001" fill="none" />
  </g>
</svg>
