<svg width="1450.0000000001023" height="1550.0000000000025" xmlns="http://www.w3.org/2000/svg" xmlns:xlink="http://www.w3.org/1999/xlink" >
  <g transform="translate(725.0000000000512 775.0000000000013) rotate(0) scale(10000 -10000) translate(-106.7975 6.592499999999999)">
    <path d="M106.725 -6.515 L106.87 -6.515 L106.87 -6.67 L106.725 -6.67 Z" fill="none" stroke="black" stroke-width="0.001" transform="translate(106.7975 -6.592499999999999) rotate(0) translate(-106.7975 6.592499999999999)" />
    <path d="M106.79586190637902 -6.588819407147905 L106.79586190637902 -6.588819407147905 L106.79494109325914 -6.588791338686106 L106.79481689423537 -6.589640446011998 L106.79481689423537 -6.589640446011998 L106.79464132209438 -6.590840774215871 L106.79386367488858 -6.590823953228059 L106.79386367488858 -6.590823953228059 L106.79343350893105 -6.590814648473569 L106.793426326758 -6.590854485593385 L106.793426326758 -6.590854485593385 L106.7934321201945 -6.590822351332292 L106.79514065947907 -6.590789536877402 L106.79514065947907 -6.590789536877402 L106.79688559874552 -6.590756023319147 L106.79645553940684 -6.590235735714738 L106.79641037449672 -6.589437011650436 L106.7963674069239 -6.588677146651314 L106.79648841762379 -6.5853860469303065 L106.79647881303002 -6.584986162257209 L106.79640018040293 -6.58171231401669 L106.79624328218675 -6.577537522309199 L106.79624328218675 -6.577537522309199 L106.79608123978502 -6.573225852670997 L106.79736516902167 -6.571389312632005 L106.79736516902167 -6.571389312632005 L106.79852293811338 -6.569733232816898 L106.7987308137136 -6.569710344656458 L106.79880515534356 -6.569317313713586 L106.79884082845433 -6.569128716337192 L106.80030472625519 -6.567114902145048 L106.80030472625519 -6.567114902145048 L106.8017052314646 -6.565188294109158 L106.80173603609924 -6.563567200210911 L106.80173603609924 -6.563567200210911 L106.80176328144495 -6.562133413893425 L106.79957838516933 -6.562583880162596 L106.79957838516933 -6.562583880162596 L106.79709919044713 -6.56309502277816 L106.79237929994096 -6.561901394333739 L106.79199586449758 -6.561787476552998 L106.78735651845685 -6.560409137606533 L106.78308792588264 -6.5583008391829205 L106.78272216081707 -6.558138925882656 L106.77836474662415 -6.556210028404485 L106.77729933763331 -6.555206055780252 L106.77729933763331 -6.555206055780252 L106.77622563176809 -6.5541942647174265 L106.77298528193674 -6.545752168436926 L106.77298528193674 -6.545752168436926 L106.76976845389125 -6.537371353558455 L106.76869568623651 -6.5356827469731735 L106.76869568623651 -6.5356827469731735 L106.76761185003585 -6.533976717771298 L106.7634460171605 -6.527327686473326 L106.7634460171605 -6.527327686473326 L106.75945 -6.520573 L106.7637849828395 -6.527115313526673 L106.7637849828395 -6.527115313526673 L106.76795014996402 -6.533763282228498 L106.7690333137635 -6.535468253026827 L106.7690333137635 -6.535468253026827 L106.77012754610878 -6.537190646441581 L106.77335871806326 -6.545608831563073 L106.77335871806326 -6.545608831563073 L106.77656636823191 -6.553965735282561 L106.77756526895311 -6.554632226072808 L106.77785638051361 -6.554906550806182 L106.77870150675172 -6.555702943191044 L106.78288407411735 -6.557773160817079 L106.78324983918291 -6.557935074117343 L106.7875642407716 -6.559844931196736 L106.79235845889038 -6.561269282278316 L106.79235845889038 -6.561269282278316 L106.79711680955286 -6.562682977221841 L106.79949761483067 -6.5621921198374045 L106.79949761483067 -6.5621921198374045 L106.80190544329209 -6.561695691006473 L106.80222285440708 -6.56155060219799 L106.80222285440708 -6.56155060219799 L106.802644 -6.561578 L106.80238914559293 -6.56191439780201 L106.80238914559293 -6.56191439780201 L106.80216557353624 -6.562016592721407 L106.80213596390075 -6.563574799789088 L106.80213596390075 -6.563574799789088 L106.80210276853539 -6.565321705890853 L106.8006282737448 -6.567350097854951 L106.8006282737448 -6.567350097854951 L106.79921717154568 -6.569291283662808 L106.79916101547144 -6.5695881708149795 L106.79916101547144 -6.5695881708149795 L106.79908853094331 -6.569971383591557 L106.79785691548918 -6.571733093683997 L106.79785691548918 -6.571733093683997 L106.79668838010748 -6.573404573664506 L106.79684285890663 -6.5775149888454 L106.79684285890663 -6.5775149888454 L106.79699990979853 -6.5816938429911085 L106.79708344233656 -6.58517169770312 L106.79708344233656 -6.58517169770312 L106.7971720136909 -6.588859342175155 Z" stroke="lightgrey" stroke-width="0.0002" fill="none" />
    <circle 
      cx="106.75945" cy="-12.520572999999999"
      r="15" transform="translate(106.75945 -6.520573) scale(0.00001 -0.00001) translate(-106.75945 6.520573) translate(106.7975 -6.592499999999999) rotate(0) translate(-106.7975 6.592499999999999)"
      fill="white" stroke="black" stroke-width="2"/>
    <circle 
      cx="106.802644" cy="-12.561578"
      r="15" transform="translate(106.802644 -6.561578) scale(0.00001 -0.00001) translate(-106.802644 6.561578) translate(106.7975 -6.592499999999999) rotate(0) translate(-106.7975 6.592499999999999)"
      fill="white" stroke="black" stroke-width="2"/>
    <circle 
      cx="106.75945" cy="-12.520572999999999"
      r="15" transform="translate(106.75945 -6.520573) scale(0.00001 -0.00001) translate(-106.75945 6.520573) translate(106.7975 -6.592499999999999) rotate(0) translate(-106.7975 6.592499999999999)"
      fill="white" stroke="none"/>
    <circle 
      cx="106.802644" cy="-12.561578"
      r="15" transform="translate(106.802644 -6.561578) scale(0.00001 -0.00001) translate(-106.802644 6.561578) translate(106.7975 -6.592499999999999) rotate(0) translate(-106.7975 6.592499999999999)"
      fill="white" stroke="none"/>
    <text x="106.75945" y="-6.520573" fill="black" text-anchor="middle" transform="translate(106.75945 -6.520573) scale(0.00001 -0.00001) translate(-106.75945 6.520573) translate(106.7975 -6.592499999999999) rotate(0) translate(-106.7975 6.592499999999999)">16</text>
    <text x="106.802644" y="-6.561578" fill="black" text-anchor="middle" transform="translate(106.802644 -6.561578) scale(0.00001 -0.00001) translate(-106.802644 6.561578) translate(106.7975 -6.592499999999999) rotate(0) translate(-106.7975 6.592499999999999)">16</text>
    <line x1="106.796967" y1="-6.588653" x2="106.794769" y2="-6.588586" style="stroke:rgb(255,0,0);stroke-width:.00002" />
    <line x1="106.796967" y1="-6.588653" x2="106.795868" y2="-6.5886195" style="stroke:rgb(0,0,0);stroke-width:.00002" />
    <line x1="106.795868" y1="-6.5886195" x2="106.795868" y2="-6.5886195" style="stroke:rgb(0,0,0);stroke-width:.00002" />
    <line x1="106.795868" y1="-6.5886195" x2="106.794769" y2="-6.588586" style="stroke:rgb(0,0,0);stroke-width:.00002" />
    <circle cx="106.796967" cy="-6.588653" fill="rgb(255,0,0)" r=".0001" />
    <text x="106.796967" y="-6.588653" stroke="rgb(0,0,0)" transform="translate(106.796967 -6.588653),scale(0.00001 -0.00001),translate(-106.796967 6.588653),translate(106.7975 -6.592499999999999),rotate(0),translate(-106.7975 6.592499999999999)" >sudirman-sawojajar</text>
    <line x1="106.794769" y1="-6.588586" x2="106.794469" y2="-6.590637" style="stroke:rgb(255,0,0);stroke-width:.00002" />
    <line x1="106.794769" y1="-6.588586" x2="106.79461900000001" y2="-6.5896115" style="stroke:rgb(0,0,0);stroke-width:.00002" />
    <line x1="106.79461900000001" y1="-6.5896115" x2="106.79461900000001" y2="-6.5896115" style="stroke:rgb(0,0,0);stroke-width:.00002" />
    <line x1="106.79461900000001" y1="-6.5896115" x2="106.794469" y2="-6.590637" style="stroke:rgb(0,0,0);stroke-width:.00002" />
    <circle cx="106.794769" cy="-6.588586" fill="rgb(255,0,0)" r=".0001" />
    <text x="106.794769" y="-6.588586" stroke="rgb(0,0,0)" transform="translate(106.794769 -6.588586),scale(0.00001 -0.00001),translate(-106.794769 6.588586),translate(106.7975 -6.592499999999999),rotate(0),translate(-106.7975 6.592499999999999)" >sawojajar-cibalok</text>
    <line x1="106.794469" y1="-6.590637" x2="106.793267" y2="-6.590611" style="stroke:rgb(255,0,0);stroke-width:.00002" />
    <line x1="106.794469" y1="-6.590637" x2="106.793868" y2="-6.590624" style="stroke:rgb(0,0,0);stroke-width:.00002" />
    <line x1="106.793868" y1="-6.590624" x2="106.793868" y2="-6.590624" style="stroke:rgb(0,0,0);stroke-width:.00002" />
    <line x1="106.793868" y1="-6.590624" x2="106.793267" y2="-6.590611" style="stroke:rgb(0,0,0);stroke-width:.00002" />
    <circle cx="106.794469" cy="-6.590637" fill="rgb(255,0,0)" r=".0001" />
    <text x="106.794469" y="-6.590637" stroke="rgb(0,0,0)" transform="translate(106.794469 -6.590637),scale(0.00001 -0.00001),translate(-106.794469 6.590637),translate(106.7975 -6.592499999999999),rotate(0),translate(-106.7975 6.592499999999999)" >cibalok-pabaton</text>
    <line x1="106.793267" y1="-6.590611" x2="106.793192" y2="-6.591027" style="stroke:rgb(255,0,0);stroke-width:.00002" />
    <line x1="106.793267" y1="-6.590611" x2="106.7932295" y2="-6.590819" style="stroke:rgb(0,0,0);stroke-width:.00002" />
    <line x1="106.7932295" y1="-6.590819" x2="106.7932295" y2="-6.590819" style="stroke:rgb(0,0,0);stroke-width:.00002" />
    <line x1="106.7932295" y1="-6.590819" x2="106.793192" y2="-6.591027" style="stroke:rgb(0,0,0);stroke-width:.00002" />
    <circle cx="106.793267" cy="-6.590611" fill="rgb(255,0,0)" r=".0001" />
    <text x="106.793267" y="-6.590611" stroke="rgb(0,0,0)" transform="translate(106.793267 -6.590611),scale(0.00001 -0.00001),translate(-106.793267 6.590611),translate(106.7975 -6.592499999999999),rotate(0),translate(-106.7975 6.592499999999999)" >pabaton-turnsouth</text>
    <line x1="106.793192" y1="-6.591027" x2="106.797097" y2="-6.590952" style="stroke:rgb(255,0,0);stroke-width:.00002" />
    <line x1="106.793192" y1="-6.591027" x2="106.79514449999999" y2="-6.5909895" style="stroke:rgb(0,0,0);stroke-width:.00002" />
    <line x1="106.79514449999999" y1="-6.5909895" x2="106.79514449999999" y2="-6.5909895" style="stroke:rgb(0,0,0);stroke-width:.00002" />
    <line x1="106.79514449999999" y1="-6.5909895" x2="106.797097" y2="-6.590952" style="stroke:rgb(0,0,0);stroke-width:.00002" />
    <circle cx="106.793192" cy="-6.591027" fill="rgb(255,0,0)" r=".0001" />
    <text x="106.793192" y="-6.591027" stroke="rgb(0,0,0)" transform="translate(106.793192 -6.591027),scale(0.00001 -0.00001),translate(-106.793192 6.591027),translate(106.7975 -6.592499999999999),rotate(0),translate(-106.7975 6.592499999999999)" >pabaton-ggbaru</text>
    <line x1="106.797097" y1="-6.590952" x2="106.796967" y2="-6.588653" style="stroke:rgb(255,0,0);stroke-width:.00002" />
    <line x1="106.797097" y1="-6.590952" x2="106.79705458245506" y2="-6.59020186203215" style="stroke:rgb(0,0,0);stroke-width:.00002" />
    <line x1="106.79705458245506" y1="-6.59020186203215" x2="106.79700941754494" y2="-6.589403137967849" style="stroke:rgb(0,0,0);stroke-width:.00002" />
    <line x1="106.79700941754494" y1="-6.589403137967849" x2="106.796967" y2="-6.588653" style="stroke:rgb(0,0,0);stroke-width:.00002" />
    <circle cx="106.797097" cy="-6.590952" fill="rgb(255,0,0)" r=".0001" />
    <text x="106.797097" y="-6.590952" stroke="rgb(0,0,0)" transform="translate(106.797097 -6.590952),scale(0.00001 -0.00001),translate(-106.797097 6.590952),translate(106.7975 -6.592499999999999),rotate(0),translate(-106.7975 6.592499999999999)" >ggbaru-sudirman</text>
    <line x1="106.796967" y1="-6.588653" x2="106.7968" y2="-6.5817" style="stroke:rgb(255,0,0);stroke-width:.00002" />
    <line x1="106.796967" y1="-6.588653" x2="106.79688830229689" y2="-6.585376442336548" style="stroke:rgb(0,0,0);stroke-width:.00002" />
    <line x1="106.79688830229689" y1="-6.585376442336548" x2="106.79687869770312" y2="-6.584976557663451" style="stroke:rgb(0,0,0);stroke-width:.00002" />
    <line x1="106.79687869770312" y1="-6.584976557663451" x2="106.7968" y2="-6.5817" style="stroke:rgb(0,0,0);stroke-width:.00002" />
    <circle cx="106.796967" cy="-6.588653" fill="rgb(255,0,0)" r=".0001" />
    <text x="106.796967" y="-6.588653" stroke="rgb(0,0,0)" transform="translate(106.796967 -6.588653),scale(0.00001 -0.00001),translate(-106.796967 6.588653),translate(106.7975 -6.592499999999999),rotate(0),translate(-106.7975 6.592499999999999)" >sudirman-sawojajar</text>
    <line x1="106.7968" y1="-6.5817" x2="106.796486" y2="-6.573345" style="stroke:rgb(255,0,0);stroke-width:.00002" />
    <line x1="106.7968" y1="-6.5817" x2="106.796643" y2="-6.5775225" style="stroke:rgb(0,0,0);stroke-width:.00002" />
    <line x1="106.796643" y1="-6.5775225" x2="106.796643" y2="-6.5775225" style="stroke:rgb(0,0,0);stroke-width:.00002" />
    <line x1="106.796643" y1="-6.5775225" x2="106.796486" y2="-6.573345" style="stroke:rgb(0,0,0);stroke-width:.00002" />
    <circle cx="106.7968" cy="-6.5817" fill="rgb(255,0,0)" r=".0001" />
    <text x="106.7968" y="-6.5817" stroke="rgb(0,0,0)" transform="translate(106.7968 -6.5817),scale(0.00001 -0.00001),translate(-106.7968 6.5817),translate(106.7975 -6.592499999999999),rotate(0),translate(-106.7975 6.592499999999999)" >sudirman-airmancur</text>
    <line x1="106.796486" y1="-6.573345" x2="106.7989" y2="-6.569892" style="stroke:rgb(255,0,0);stroke-width:.00002" />
    <line x1="106.796486" y1="-6.573345" x2="106.79769300000001" y2="-6.5716185" style="stroke:rgb(0,0,0);stroke-width:.00002" />
    <line x1="106.79769300000001" y1="-6.5716185" x2="106.79769300000001" y2="-6.5716185" style="stroke:rgb(0,0,0);stroke-width:.00002" />
    <line x1="106.79769300000001" y1="-6.5716185" x2="106.7989" y2="-6.569892" style="stroke:rgb(0,0,0);stroke-width:.00002" />
    <circle cx="106.796486" cy="-6.573345" fill="rgb(255,0,0)" r=".0001" />
    <text x="106.796486" y="-6.573345" stroke="rgb(0,0,0)" transform="translate(106.796486 -6.573345),scale(0.00001 -0.00001),translate(-106.796486 6.573345),translate(106.7975 -6.592499999999999),rotate(0),translate(-106.7975 6.592499999999999)" >pemuda-hewan</text>
    <line x1="106.7989" y1="-6.569892" x2="106.799029" y2="-6.56921" style="stroke:rgb(255,0,0);stroke-width:.00002" />
    <line x1="106.7989" y1="-6.569892" x2="106.79892732918503" y2="-6.569747515471437" style="stroke:rgb(0,0,0);stroke-width:.00002" />
    <line x1="106.79892732918503" y1="-6.569747515471437" x2="106.79900167081499" y2="-6.5693544845285645" style="stroke:rgb(0,0,0);stroke-width:.00002" />
    <line x1="106.79900167081499" y1="-6.5693544845285645" x2="106.799029" y2="-6.56921" style="stroke:rgb(0,0,0);stroke-width:.00002" />
    <circle cx="106.7989" cy="-6.569892" fill="rgb(255,0,0)" r=".0001" />
    <text x="106.7989" y="-6.569892" stroke="rgb(0,0,0)" transform="translate(106.7989 -6.569892),scale(0.00001 -0.00001),translate(-106.7989 6.569892),translate(106.7975 -6.592499999999999),rotate(0),translate(-106.7975 6.592499999999999)" >pemuda-pedes</text>
    <line x1="106.799029" y1="-6.56921" x2="106.801904" y2="-6.565255" style="stroke:rgb(255,0,0);stroke-width:.00002" />
    <line x1="106.799029" y1="-6.56921" x2="106.8004665" y2="-6.567232499999999" style="stroke:rgb(0,0,0);stroke-width:.00002" />
    <line x1="106.8004665" y1="-6.567232499999999" x2="106.8004665" y2="-6.567232499999999" style="stroke:rgb(0,0,0);stroke-width:.00002" />
    <line x1="106.8004665" y1="-6.567232499999999" x2="106.801904" y2="-6.565255" style="stroke:rgb(0,0,0);stroke-width:.00002" />
    <circle cx="106.799029" cy="-6.56921" fill="rgb(255,0,0)" r=".0001" />
    <text x="106.799029" y="-6.56921" stroke="rgb(0,0,0)" transform="translate(106.799029 -6.56921),scale(0.00001 -0.00001),translate(-106.799029 6.56921),translate(106.7975 -6.592499999999999),rotate(0),translate(-106.7975 6.592499999999999)" >pedes-bendrightatstart</text>
    <line x1="106.801904" y1="-6.565255" x2="106.801968" y2="-6.561887" style="stroke:rgb(255,0,0);stroke-width:.00002" />
    <line x1="106.801904" y1="-6.565255" x2="106.801936" y2="-6.563571" style="stroke:rgb(0,0,0);stroke-width:.00002" />
    <line x1="106.801936" y1="-6.563571" x2="106.801936" y2="-6.563571" style="stroke:rgb(0,0,0);stroke-width:.00002" />
    <line x1="106.801936" y1="-6.563571" x2="106.801968" y2="-6.561887" style="stroke:rgb(0,0,0);stroke-width:.00002" />
    <circle cx="106.801904" cy="-6.565255" fill="rgb(255,0,0)" r=".0001" />
    <text x="106.801904" y="-6.565255" stroke="rgb(0,0,0)" transform="translate(106.801904 -6.565255),scale(0.00001 -0.00001),translate(-106.801904 6.565255),translate(106.7975 -6.592499999999999),rotate(0),translate(-106.7975 6.592499999999999)" >pedes-sungai</text>
    <line x1="106.801968" y1="-6.561887" x2="106.797108" y2="-6.562889" style="stroke:rgb(255,0,0);stroke-width:.00002" />
    <line x1="106.801968" y1="-6.561887" x2="106.799538" y2="-6.562388" style="stroke:rgb(0,0,0);stroke-width:.00002" />
    <line x1="106.799538" y1="-6.562388" x2="106.799538" y2="-6.562388" style="stroke:rgb(0,0,0);stroke-width:.00002" />
    <line x1="106.799538" y1="-6.562388" x2="106.797108" y2="-6.562889" style="stroke:rgb(0,0,0);stroke-width:.00002" />
    <circle cx="106.801968" cy="-6.561887" fill="rgb(255,0,0)" r=".0001" />
    <text x="106.801968" y="-6.561887" stroke="rgb(0,0,0)" transform="translate(106.801968 -6.561887),scale(0.00001 -0.00001),translate(-106.801968 6.561887),translate(106.7975 -6.592499999999999),rotate(0),translate(-106.7975 6.592499999999999)" >pedes-iskandar</text>
    <line x1="106.797108" y1="-6.562889" x2="106.787495" y2="-6.560033" style="stroke:rgb(255,0,0);stroke-width:.00002" />
    <line x1="106.797108" y1="-6.562889" x2="106.7924932177217" y2="-6.56151795889037" style="stroke:rgb(0,0,0);stroke-width:.00002" />
    <line x1="106.7924932177217" y1="-6.56151795889037" x2="106.79210978227832" y2="-6.561404041109629" style="stroke:rgb(0,0,0);stroke-width:.00002" />
    <line x1="106.79210978227832" y1="-6.561404041109629" x2="106.787495" y2="-6.560033" style="stroke:rgb(0,0,0);stroke-width:.00002" />
    <circle cx="106.797108" cy="-6.562889" fill="rgb(255,0,0)" r=".0001" />
    <text x="106.797108" y="-6.562889" stroke="rgb(0,0,0)" transform="translate(106.797108 -6.562889),scale(0.00001 -0.00001),translate(-106.797108 6.562889),translate(106.7975 -6.592499999999999),rotate(0),translate(-106.7975 6.592499999999999)" >iskandar-majujaya</text>
    <line x1="106.787495" y1="-6.560033" x2="106.778477" y2="-6.556041" style="stroke:rgb(255,0,0);stroke-width:.00002" />
    <line x1="106.787495" y1="-6.560033" x2="106.78316888253278" y2="-6.558117956650132" style="stroke:rgb(0,0,0);stroke-width:.00002" />
    <line x1="106.78316888253278" y1="-6.558117956650132" x2="106.78280311746721" y2="-6.557956043349868" style="stroke:rgb(0,0,0);stroke-width:.00002" />
    <line x1="106.78280311746721" y1="-6.557956043349868" x2="106.778477" y2="-6.556041" style="stroke:rgb(0,0,0);stroke-width:.00002" />
    <circle cx="106.787495" cy="-6.560033" fill="rgb(255,0,0)" r=".0001" />
    <text x="106.787495" y="-6.560033" stroke="rgb(0,0,0)" transform="translate(106.787495 -6.560033),scale(0.00001 -0.00001),translate(-106.787495 6.560033),translate(106.7975 -6.592499999999999),rotate(0),translate(-106.7975 6.592499999999999)" >iskandar-20-rejions</text>
    <line x1="106.778477" y1="-6.556041" x2="106.776396" y2="-6.55408" style="stroke:rgb(255,0,0);stroke-width:.00002" />
    <line x1="106.778477" y1="-6.556041" x2="106.7774365" y2="-6.5550605" style="stroke:rgb(0,0,0);stroke-width:.00002" />
    <line x1="106.7774365" y1="-6.5550605" x2="106.7774365" y2="-6.5550605" style="stroke:rgb(0,0,0);stroke-width:.00002" />
    <line x1="106.7774365" y1="-6.5550605" x2="106.776396" y2="-6.55408" style="stroke:rgb(0,0,0);stroke-width:.00002" />
    <circle cx="106.778477" cy="-6.556041" fill="rgb(255,0,0)" r=".0001" />
    <text x="106.778477" y="-6.556041" stroke="rgb(0,0,0)" transform="translate(106.778477 -6.556041),scale(0.00001 -0.00001),translate(-106.778477 6.556041),translate(106.7975 -6.592499999999999),rotate(0),translate(-106.7975 6.592499999999999)" >iskandar-ciampea-Y</text>
    <line x1="106.776396" y1="-6.55408" x2="106.769948" y2="-6.537281" style="stroke:rgb(255,0,0);stroke-width:.00002" />
    <line x1="106.776396" y1="-6.55408" x2="106.773172" y2="-6.5456805" style="stroke:rgb(0,0,0);stroke-width:.00002" />
    <line x1="106.773172" y1="-6.5456805" x2="106.773172" y2="-6.5456805" style="stroke:rgb(0,0,0);stroke-width:.00002" />
    <line x1="106.773172" y1="-6.5456805" x2="106.769948" y2="-6.537281" style="stroke:rgb(0,0,0);stroke-width:.00002" />
    <circle cx="106.776396" cy="-6.55408" fill="rgb(255,0,0)" r=".0001" />
    <text x="106.776396" y="-6.55408" stroke="rgb(0,0,0)" transform="translate(106.776396 -6.55408),scale(0.00001 -0.00001),translate(-106.776396 6.55408),translate(106.7975 -6.592499999999999),rotate(0),translate(-106.7975 6.592499999999999)" >iskandar-bendright</text>
    <line x1="106.769948" y1="-6.537281" x2="106.767781" y2="-6.53387" style="stroke:rgb(255,0,0);stroke-width:.00002" />
    <line x1="106.769948" y1="-6.537281" x2="106.7688645" y2="-6.5355755" style="stroke:rgb(0,0,0);stroke-width:.00002" />
    <line x1="106.7688645" y1="-6.5355755" x2="106.7688645" y2="-6.5355755" style="stroke:rgb(0,0,0);stroke-width:.00002" />
    <line x1="106.7688645" y1="-6.5355755" x2="106.767781" y2="-6.53387" style="stroke:rgb(0,0,0);stroke-width:.00002" />
    <circle cx="106.769948" cy="-6.537281" fill="rgb(255,0,0)" r=".0001" />
    <text x="106.769948" y="-6.537281" stroke="rgb(0,0,0)" transform="translate(106.769948 -6.537281),scale(0.00001 -0.00001),translate(-106.769948 6.537281),translate(106.7975 -6.592499999999999),rotate(0),translate(-106.7975 6.592499999999999)" >iskandar-kencana</text>
    <line x1="106.767781" y1="-6.53387" x2="106.75945" y2="-6.520573" style="stroke:rgb(255,0,0);stroke-width:.00002" />
    <line x1="106.767781" y1="-6.53387" x2="106.7636155" y2="-6.5272215" style="stroke:rgb(0,0,0);stroke-width:.00002" />
    <line x1="106.7636155" y1="-6.5272215" x2="106.7636155" y2="-6.5272215" style="stroke:rgb(0,0,0);stroke-width:.00002" />
    <line x1="106.7636155" y1="-6.5272215" x2="106.75945" y2="-6.520573" style="stroke:rgb(0,0,0);stroke-width:.00002" />
    <circle cx="106.767781" cy="-6.53387" fill="rgb(255,0,0)" r=".0001" />
    <text x="106.767781" y="-6.53387" stroke="rgb(0,0,0)" transform="translate(106.767781 -6.53387),scale(0.00001 -0.00001),translate(-106.767781 6.53387),translate(106.7975 -6.592499999999999),rotate(0),translate(-106.7975 6.592499999999999)" >iskandar-19-turns-N</text>
    <line x1="106.75945" y1="-6.520573" x2="106.767781" y2="-6.53387" style="stroke:rgb(255,0,0);stroke-width:.00002" />
    <line x1="106.75945" y1="-6.520573" x2="106.7636155" y2="-6.5272215" style="stroke:rgb(0,0,0);stroke-width:.00002" />
    <line x1="106.7636155" y1="-6.5272215" x2="106.7636155" y2="-6.5272215" style="stroke:rgb(0,0,0);stroke-width:.00002" />
    <line x1="106.7636155" y1="-6.5272215" x2="106.767781" y2="-6.53387" style="stroke:rgb(0,0,0);stroke-width:.00002" />
    <circle cx="106.75945" cy="-6.520573" fill="rgb(255,0,0)" r=".0001" />
    <text x="106.75945" y="-6.520573" stroke="rgb(0,0,0)" transform="translate(106.75945 -6.520573),scale(0.00001 -0.00001),translate(-106.75945 6.520573),translate(106.7975 -6.592499999999999),rotate(0),translate(-106.7975 6.592499999999999)" >iskandar-tariganta</text>
    <line x1="106.767781" y1="-6.53387" x2="106.769948" y2="-6.537281" style="stroke:rgb(255,0,0);stroke-width:.00002" />
    <line x1="106.767781" y1="-6.53387" x2="106.7688645" y2="-6.5355755" style="stroke:rgb(0,0,0);stroke-width:.00002" />
    <line x1="106.7688645" y1="-6.5355755" x2="106.7688645" y2="-6.5355755" style="stroke:rgb(0,0,0);stroke-width:.00002" />
    <line x1="106.7688645" y1="-6.5355755" x2="106.769948" y2="-6.537281" style="stroke:rgb(0,0,0);stroke-width:.00002" />
    <circle cx="106.767781" cy="-6.53387" fill="rgb(255,0,0)" r=".0001" />
    <text x="106.767781" y="-6.53387" stroke="rgb(0,0,0)" transform="translate(106.767781 -6.53387),scale(0.00001 -0.00001),translate(-106.767781 6.53387),translate(106.7975 -6.592499999999999),rotate(0),translate(-106.7975 6.592499999999999)" >iskandar-19-turns-N</text>
    <line x1="106.769948" y1="-6.537281" x2="106.776396" y2="-6.55408" style="stroke:rgb(255,0,0);stroke-width:.00002" />
    <line x1="106.769948" y1="-6.537281" x2="106.773172" y2="-6.5456805" style="stroke:rgb(0,0,0);stroke-width:.00002" />
    <line x1="106.773172" y1="-6.5456805" x2="106.773172" y2="-6.5456805" style="stroke:rgb(0,0,0);stroke-width:.00002" />
    <line x1="106.773172" y1="-6.5456805" x2="106.776396" y2="-6.55408" style="stroke:rgb(0,0,0);stroke-width:.00002" />
    <circle cx="106.769948" cy="-6.537281" fill="rgb(255,0,0)" r=".0001" />
    <text x="106.769948" y="-6.537281" stroke="rgb(0,0,0)" transform="translate(106.769948 -6.537281),scale(0.00001 -0.00001),translate(-106.769948 6.537281),translate(106.7975 -6.592499999999999),rotate(0),translate(-106.7975 6.592499999999999)" >iskandar-kencana</text>
    <line x1="106.776396" y1="-6.55408" x2="106.778477" y2="-6.556041" style="stroke:rgb(255,0,0);stroke-width:.00002" />
    <line x1="106.776396" y1="-6.55408" x2="106.77729094421974" y2="-6.554923337633313" style="stroke:rgb(0,0,0);stroke-width:.00002" />
    <line x1="106.77729094421974" y1="-6.554923337633313" x2="106.77758205578024" y2="-6.5551976623666866" style="stroke:rgb(0,0,0);stroke-width:.00002" />
    <line x1="106.77758205578024" y1="-6.5551976623666866" x2="106.778477" y2="-6.556041" style="stroke:rgb(0,0,0);stroke-width:.00002" />
    <circle cx="106.776396" cy="-6.55408" fill="rgb(255,0,0)" r=".0001" />
    <text x="106.776396" y="-6.55408" stroke="rgb(0,0,0)" transform="translate(106.776396 -6.55408),scale(0.00001 -0.00001),translate(-106.776396 6.55408),translate(106.7975 -6.592499999999999),rotate(0),translate(-106.7975 6.592499999999999)" >iskandar-bendright</text>
    <line x1="106.778477" y1="-6.556041" x2="106.787495" y2="-6.560033" style="stroke:rgb(255,0,0);stroke-width:.00002" />
    <line x1="106.778477" y1="-6.556041" x2="106.78280311746721" y2="-6.557956043349868" style="stroke:rgb(0,0,0);stroke-width:.00002" />
    <line x1="106.78280311746721" y1="-6.557956043349868" x2="106.78316888253278" y2="-6.558117956650132" style="stroke:rgb(0,0,0);stroke-width:.00002" />
    <line x1="106.78316888253278" y1="-6.558117956650132" x2="106.787495" y2="-6.560033" style="stroke:rgb(0,0,0);stroke-width:.00002" />
    <circle cx="106.778477" cy="-6.556041" fill="rgb(255,0,0)" r=".0001" />
    <text x="106.778477" y="-6.556041" stroke="rgb(0,0,0)" transform="translate(106.778477 -6.556041),scale(0.00001 -0.00001),translate(-106.778477 6.556041),translate(106.7975 -6.592499999999999),rotate(0),translate(-106.7975 6.592499999999999)" >iskandar-ciampea-Y</text>
    <line x1="106.787495" y1="-6.560033" x2="106.797108" y2="-6.562889" style="stroke:rgb(255,0,0);stroke-width:.00002" />
    <line x1="106.787495" y1="-6.560033" x2="106.79230150000001" y2="-6.5614609999999995" style="stroke:rgb(0,0,0);stroke-width:.00002" />
    <line x1="106.79230150000001" y1="-6.5614609999999995" x2="106.79230150000001" y2="-6.5614609999999995" style="stroke:rgb(0,0,0);stroke-width:.00002" />
    <line x1="106.79230150000001" y1="-6.5614609999999995" x2="106.797108" y2="-6.562889" style="stroke:rgb(0,0,0);stroke-width:.00002" />
    <circle cx="106.787495" cy="-6.560033" fill="rgb(255,0,0)" r=".0001" />
    <text x="106.787495" y="-6.560033" stroke="rgb(0,0,0)" transform="translate(106.787495 -6.560033),scale(0.00001 -0.00001),translate(-106.787495 6.560033),translate(106.7975 -6.592499999999999),rotate(0),translate(-106.7975 6.592499999999999)" >iskandar-20-rejions</text>
    <line x1="106.797108" y1="-6.562889" x2="106.801968" y2="-6.561887" style="stroke:rgb(255,0,0);stroke-width:.00002" />
    <line x1="106.797108" y1="-6.562889" x2="106.799538" y2="-6.562388" style="stroke:rgb(0,0,0);stroke-width:.00002" />
    <line x1="106.799538" y1="-6.562388" x2="106.799538" y2="-6.562388" style="stroke:rgb(0,0,0);stroke-width:.00002" />
    <line x1="106.799538" y1="-6.562388" x2="106.801968" y2="-6.561887" style="stroke:rgb(0,0,0);stroke-width:.00002" />
    <circle cx="106.797108" cy="-6.562889" fill="rgb(255,0,0)" r=".0001" />
    <text x="106.797108" y="-6.562889" stroke="rgb(0,0,0)" transform="translate(106.797108 -6.562889),scale(0.00001 -0.00001),translate(-106.797108 6.562889),translate(106.7975 -6.592499999999999),rotate(0),translate(-106.7975 6.592499999999999)" >iskandar-majujaya</text>
    <line x1="106.801968" y1="-6.561887" x2="106.802644" y2="-6.561578" style="stroke:rgb(255,0,0);stroke-width:.00002" />
    <line x1="106.801968" y1="-6.561887" x2="106.802306" y2="-6.5617325" style="stroke:rgb(0,0,0);stroke-width:.00002" />
    <line x1="106.802306" y1="-6.5617325" x2="106.802306" y2="-6.5617325" style="stroke:rgb(0,0,0);stroke-width:.00002" />
    <line x1="106.802306" y1="-6.5617325" x2="106.802644" y2="-6.561578" style="stroke:rgb(0,0,0);stroke-width:.00002" />
    <circle cx="106.801968" cy="-6.561887" fill="rgb(255,0,0)" r=".0001" />
    <text x="106.801968" y="-6.561887" stroke="rgb(0,0,0)" transform="translate(106.801968 -6.561887),scale(0.00001 -0.00001),translate(-106.801968 6.561887),translate(106.7975 -6.592499999999999),rotate(0),translate(-106.7975 6.592499999999999)" >pedes-iskandar</text>
    <line x1="106.802644" y1="-6.561578" x2="106.801968" y2="-6.561887" style="stroke:rgb(255,0,0);stroke-width:.00002" />
    <line x1="106.802644" y1="-6.561578" x2="106.802306" y2="-6.5617325" style="stroke:rgb(0,0,0);stroke-width:.00002" />
    <line x1="106.802306" y1="-6.5617325" x2="106.802306" y2="-6.5617325" style="stroke:rgb(0,0,0);stroke-width:.00002" />
    <line x1="106.802306" y1="-6.5617325" x2="106.801968" y2="-6.561887" style="stroke:rgb(0,0,0);stroke-width:.00002" />
    <circle cx="106.802644" cy="-6.561578" fill="rgb(255,0,0)" r=".0001" />
    <text x="106.802644" y="-6.561578" stroke="rgb(0,0,0)" transform="translate(106.802644 -6.561578),scale(0.00001 -0.00001),translate(-106.802644 6.561578),translate(106.7975 -6.592499999999999),rotate(0),translate(-106.7975 6.592499999999999)" >iskandar-underloop</text>
    <line x1="106.801968" y1="-6.561887" x2="106.801904" y2="-6.565255" style="stroke:rgb(255,0,0);stroke-width:.00002" />
    <line x1="106.801968" y1="-6.561887" x2="106.801936" y2="-6.563571" style="stroke:rgb(0,0,0);stroke-width:.00002" />
    <line x1="106.801936" y1="-6.563571" x2="106.801936" y2="-6.563571" style="stroke:rgb(0,0,0);stroke-width:.00002" />
    <line x1="106.801936" y1="-6.563571" x2="106.801904" y2="-6.565255" style="stroke:rgb(0,0,0);stroke-width:.00002" />
    <circle cx="106.801968" cy="-6.561887" fill="rgb(255,0,0)" r=".0001" />
    <text x="106.801968" y="-6.561887" stroke="rgb(0,0,0)" transform="translate(106.801968 -6.561887),scale(0.00001 -0.00001),translate(-106.801968 6.561887),translate(106.7975 -6.592499999999999),rotate(0),translate(-106.7975 6.592499999999999)" >pedes-iskandar</text>
    <line x1="106.801904" y1="-6.565255" x2="106.799029" y2="-6.56921" style="stroke:rgb(255,0,0);stroke-width:.00002" />
    <line x1="106.801904" y1="-6.565255" x2="106.8004665" y2="-6.567232499999999" style="stroke:rgb(0,0,0);stroke-width:.00002" />
    <line x1="106.8004665" y1="-6.567232499999999" x2="106.8004665" y2="-6.567232499999999" style="stroke:rgb(0,0,0);stroke-width:.00002" />
    <line x1="106.8004665" y1="-6.567232499999999" x2="106.799029" y2="-6.56921" style="stroke:rgb(0,0,0);stroke-width:.00002" />
    <circle cx="106.801904" cy="-6.565255" fill="rgb(255,0,0)" r=".0001" />
    <text x="106.801904" y="-6.565255" stroke="rgb(0,0,0)" transform="translate(106.801904 -6.565255),scale(0.00001 -0.00001),translate(-106.801904 6.565255),translate(106.7975 -6.592499999999999),rotate(0),translate(-106.7975 6.592499999999999)" >pedes-sungai</text>
    <line x1="106.799029" y1="-6.56921" x2="106.7989" y2="-6.569892" style="stroke:rgb(255,0,0);stroke-width:.00002" />
    <line x1="106.799029" y1="-6.56921" x2="106.79896450000001" y2="-6.569551000000001" style="stroke:rgb(0,0,0);stroke-width:.00002" />
    <line x1="106.79896450000001" y1="-6.569551000000001" x2="106.79896450000001" y2="-6.569551000000001" style="stroke:rgb(0,0,0);stroke-width:.00002" />
    <line x1="106.79896450000001" y1="-6.569551000000001" x2="106.7989" y2="-6.569892" style="stroke:rgb(0,0,0);stroke-width:.00002" />
    <circle cx="106.799029" cy="-6.56921" fill="rgb(255,0,0)" r=".0001" />
    <text x="106.799029" y="-6.56921" stroke="rgb(0,0,0)" transform="translate(106.799029 -6.56921),scale(0.00001 -0.00001),translate(-106.799029 6.56921),translate(106.7975 -6.592499999999999),rotate(0),translate(-106.7975 6.592499999999999)" >pedes-bendrightatstart</text>
    <line x1="106.7989" y1="-6.569892" x2="106.796486" y2="-6.573345" style="stroke:rgb(255,0,0);stroke-width:.00002" />
    <line x1="106.7989" y1="-6.569892" x2="106.79769300000001" y2="-6.5716185" style="stroke:rgb(0,0,0);stroke-width:.00002" />
    <line x1="106.79769300000001" y1="-6.5716185" x2="106.79769300000001" y2="-6.5716185" style="stroke:rgb(0,0,0);stroke-width:.00002" />
    <line x1="106.79769300000001" y1="-6.5716185" x2="106.796486" y2="-6.573345" style="stroke:rgb(0,0,0);stroke-width:.00002" />
    <circle cx="106.7989" cy="-6.569892" fill="rgb(255,0,0)" r=".0001" />
    <text x="106.7989" y="-6.569892" stroke="rgb(0,0,0)" transform="translate(106.7989 -6.569892),scale(0.00001 -0.00001),translate(-106.7989 6.569892),translate(106.7975 -6.592499999999999),rotate(0),translate(-106.7975 6.592499999999999)" >pemuda-pedes</text>
    <line x1="106.796486" y1="-6.573345" x2="106.7968" y2="-6.5817" style="stroke:rgb(255,0,0);stroke-width:.00002" />
    <line x1="106.796486" y1="-6.573345" x2="106.796643" y2="-6.5775225" style="stroke:rgb(0,0,0);stroke-width:.00002" />
    <line x1="106.796643" y1="-6.5775225" x2="106.796643" y2="-6.5775225" style="stroke:rgb(0,0,0);stroke-width:.00002" />
    <line x1="106.796643" y1="-6.5775225" x2="106.7968" y2="-6.5817" style="stroke:rgb(0,0,0);stroke-width:.00002" />
    <circle cx="106.796486" cy="-6.573345" fill="rgb(255,0,0)" r=".0001" />
    <text x="106.796486" y="-6.573345" stroke="rgb(0,0,0)" transform="translate(106.796486 -6.573345),scale(0.00001 -0.00001),translate(-106.796486 6.573345),translate(106.7975 -6.592499999999999),rotate(0),translate(-106.7975 6.592499999999999)" >pemuda-hewan</text>
    <line x1="106.7968" y1="-6.5817" x2="106.796967" y2="-6.588653" style="stroke:rgb(255,0,0);stroke-width:.00002" />
    <line x1="106.7968" y1="-6.5817" x2="106.7968835" y2="-6.585176499999999" style="stroke:rgb(0,0,0);stroke-width:.00002" />
    <line x1="106.7968835" y1="-6.585176499999999" x2="106.7968835" y2="-6.585176499999999" style="stroke:rgb(0,0,0);stroke-width:.00002" />
    <line x1="106.7968835" y1="-6.585176499999999" x2="106.796967" y2="-6.588653" style="stroke:rgb(0,0,0);stroke-width:.00002" />
    <circle cx="106.7968" cy="-6.5817" fill="rgb(255,0,0)" r=".0001" />
    <text x="106.7968" y="-6.5817" stroke="rgb(0,0,0)" transform="translate(106.7968 -6.5817),scale(0.00001 -0.00001),translate(-106.7968 6.5817),translate(106.7975 -6.592499999999999),rotate(0),translate(-106.7975 6.592499999999999)" >sudirman-airmancur</text>
  </g>
</svg>
