<svg width="1450.0000000001023" height="1550.0000000000025" xmlns="http://www.w3.org/2000/svg" xmlns:xlink="http://www.w3.org/1999/xlink" >
  <g transform="translate(725.0000000000512 775.0000000000013) rotate(0) scale(10000 -10000) translate(-106.7975 6.592499999999999)">
    <path d="M106.725 -6.515 L106.87 -6.515 L106.87 -6.67 L106.725 -6.67 Z" fill="none" stroke="black" stroke-width="0.001" transform="translate(106.7975 -6.592499999999999) rotate(0) translate(-106.7975 6.592499999999999)" />
    <path d="M106.81575270274315 -6.615853474955479 L106.81654652504453 -6.615952702743151 L106.8178587550151 -6.616116731489471 L106.81839557624541 -6.61653425911305 L106.81839557624541 -6.61653425911305 L106.81888785965994 -6.616917146213235 L106.81937 -6.61756 L106.81937 -6.61756 L106.8196313803317 -6.617908507108935 L106.81958738713428 -6.618144954853713 L106.81995504514629 -6.6179873871342805 L106.8202384685334 -6.617865919968368 L106.82418347202017 -6.621401052962998 L106.82418347202017 -6.621401052962998 L106.82806039312327 -6.624875177068372 L106.82862716630706 -6.625957198601067 L106.82862716630706 -6.625957198601067 L106.829 -6.6271 L106.82827283369295 -6.626142801398934 L106.82827283369295 -6.626142801398934 L106.82767136646005 -6.6249945457725135 L106.82857746040598 -6.623448856100057 L106.82857746040598 -6.623448856100057 L106.82944512676117 -6.621968719376497 L106.83157196312007 -6.62019635574408 L106.83157196312007 -6.62019635574408 L106.83364593383543 -6.618468046814618 L106.83527850141486 -6.615747100848914 L106.83527850141486 -6.615747100848914 L106.83691067786708 -6.6130268067618845 L106.83770388386486 -6.6090607767729725 L106.83770388386486 -6.6090607767729725 L106.8387 -6.6051 L106.83809611613515 -6.609139223227027 L106.83809611613515 -6.609139223227027 L106.83728932213293 -6.613173193238121 L106.83562149858516 -6.615952899151086 L106.83562149858516 -6.615952899151086 L106.83395406616457 -6.618731953185385 L106.83182803687993 -6.62050364425592 L106.83182803687993 -6.62050364425592 L106.82975487323883 -6.622231280623509 L106.82892253959402 -6.623651143899942 L106.82892253959402 -6.623651143899942 L106.82794877977902 -6.625312263584332 L106.82391652797983 -6.621698947037002 L106.82391652797983 -6.621698947037002 L106.82016153146658 -6.618334080031632 L106.81992878385972 -6.618433829006003 L106.81992878385972 -6.618433829006003 L106.81943430983416 -6.618645746445531 L106.81885 -6.618200000000002 L106.81861 -6.617880000000001 L106.81831214034007 -6.61748285378676 L106.8179044237546 -6.617165740886951 L106.8179044237546 -6.617165740886951 L106.81754124498491 -6.616883268510529 L106.81605038610617 -6.616696911150687 L106.81605038610617 -6.616696911150687 L106.81509528911671 -6.6165775240270035 L106.81512669676464 -6.6166654654412 L106.81512669676464 -6.6166654654412 L106.815 -6.6175 L106.81401005992662 -6.617701381543956 L106.81360645625021 -6.616571291250043 L106.81356696562632 -6.616460717503156 L106.81308846153846 -6.614792307692307 L106.81293461538462 -6.614423076923076 L106.812290409515 -6.612876982835985 L106.81135867305096 -6.611096853317335 L106.81113882645036 -6.610762686484437 L106.8099997551378 -6.609031298089326 L106.80958982978416 -6.609137520313963 L106.80914606962719 -6.608471880078495 L106.80912287584934 -6.608437089411719 L106.80859289321882 -6.608189949493661 L106.80831005050635 -6.6079071067811865 L106.80842595338031 -6.608023009655134 L106.80903279345088 -6.607327748304581 L106.80829747742686 -6.607642883743447 L106.80791681601352 -6.607806024349136 L106.80725623984303 -6.6073656402354715 L106.80725623984303 -6.6073656402354715 L106.80721055738859 -6.607335185265844 L106.807163137085 -6.607341959594929 L106.807163137085 -6.607341959594929 L106.80630475806706 -6.607464585168921 L106.80557705721971 -6.606332606073051 L106.80557705721971 -6.606332606073051 L106.80536323902989 -6.606 L106.80545000000001 -6.606 L106.80545000000001 -6.606 L106.80446222523103 -6.606 L106.80508994340262 -6.6033608700794 L106.80508994340262 -6.6033608700794 L106.80460092345103 -6.601221407791214 L106.80320810551794 -6.602563458609886 L106.80125783980637 -6.603006700817064 L106.79996732340143 -6.6033 L106.79974999999999 -6.6033 L106.79974999999999 -6.6033 L106.79974164078651 -6.6033 L106.7997366563146 -6.602631671842699 L106.7986633436854 -6.603168328157301 L106.7988 -6.6031 L106.798 -6.60355 L106.798 -6.60355 L106.7972 -6.604 L106.79695000000001 -6.6041 L106.79695000000001 -6.6041 L106.7967 -6.6042 L106.7964 -6.603999999999999 L106.7964 -6.603999999999999 L106.7961 -6.6038 L106.79515460348433 -6.600473195234353 L106.79502319523435 -6.600095396515671 L106.79391264181042 -6.59690255542187 L106.79330730374019 -6.596238389277102 L106.79386910124674 -6.594740262592992 L106.79411569322859 -6.594082683974725 L106.79542550563433 -6.594041385758707 L106.79647449436568 -6.593458614241293 L106.7973 -6.593 L106.79755206188013 -6.592455498346941 L106.79864450165307 -6.592952061880104 L106.79838769554857 -6.59283533183246 L106.7993316718427 -6.592363343685401 L106.7993316718427 -6.592363343685401 L106.80077266598178 -6.591642846615856 L106.80126286093237 -6.592054331188374 L106.80163425160872 -6.592202887458916 L106.80199490088145 -6.592347147168008 L106.80174712400988 -6.592908844198254 L106.80271760731104 -6.593614650235466 L106.80275097316704 -6.593638916312555 L106.8034804003392 -6.594805999788001 L106.8034804003392 -6.594805999788001 L106.80420891620541 -6.595971625173957 L106.80543196200442 -6.597286166967198 L106.80574794300664 -6.599261048231032 L106.8059921203647 -6.6007871567189325 L106.80589498061987 -6.60001003876027 L106.80619266398288 -6.602391505664381 L106.80607376343988 -6.60144030132035 L106.80674294846884 -6.60260022203721 L106.80674294846884 -6.60260022203721 L106.80708486779633 -6.603192882204895 L106.80853606452887 -6.602315414413135 L106.80853606452887 -6.602315414413135 L106.83114635458567 -6.5886440762392615 L106.8095587698755 -6.603755385536414 L106.8095587698755 -6.603755385536414 L106.80824114898262 -6.604677720161436 L106.80853634537603 -6.60506516542779 L106.80853634537603 -6.60506516542779 L106.80930373449073 -6.60607236364083 L106.80958284271249 -6.606634314575052 L106.80986568542495 -6.606917157287526 L106.81036627449042 -6.607417746352989 L106.81075470019623 -6.60763982978415 L106.81097658027473 -6.607972649901884 L106.8111669931509 -6.608258269216164 L106.81186432023232 -6.610045986566512 L106.81230401343349 -6.610714320232307 L106.81335479524252 -6.612311508582015 L106.81433461538461 -6.613623076923077 L106.81464230769231 -6.61436153846154 L106.81505990075831 -6.615363761819959 Z" stroke="orange" stroke-width="0.0002" fill="none" />
    <circle 
      cx="106.829" cy="-12.6271"
      r="15" transform="translate(106.829 -6.6271) scale(0.00001 -0.00001) translate(-106.829 6.6271) translate(106.7975 -6.592499999999999) rotate(0) translate(-106.7975 6.592499999999999)"
      fill="white" stroke="black" stroke-width="2"/>
    <circle 
      cx="106.8387" cy="-12.6051"
      r="15" transform="translate(106.8387 -6.6051) scale(0.00001 -0.00001) translate(-106.8387 6.6051) translate(106.7975 -6.592499999999999) rotate(0) translate(-106.7975 6.592499999999999)"
      fill="white" stroke="black" stroke-width="2"/>
    <circle 
      cx="106.815" cy="-12.6175"
      r="15" transform="translate(106.815 -6.6175) scale(0.00001 -0.00001) translate(-106.815 6.6175) translate(106.7975 -6.592499999999999) rotate(0) translate(-106.7975 6.592499999999999)"
      fill="white" stroke="black" stroke-width="2"/>
    <circle 
      cx="106.829" cy="-12.6271"
      r="15" transform="translate(106.829 -6.6271) scale(0.00001 -0.00001) translate(-106.829 6.6271) translate(106.7975 -6.592499999999999) rotate(0) translate(-106.7975 6.592499999999999)"
      fill="white" stroke="none"/>
    <circle 
      cx="106.8387" cy="-12.6051"
      r="15" transform="translate(106.8387 -6.6051) scale(0.00001 -0.00001) translate(-106.8387 6.6051) translate(106.7975 -6.592499999999999) rotate(0) translate(-106.7975 6.592499999999999)"
      fill="white" stroke="none"/>
    <circle 
      cx="106.815" cy="-12.6175"
      r="15" transform="translate(106.815 -6.6175) scale(0.00001 -0.00001) translate(-106.815 6.6175) translate(106.7975 -6.592499999999999) rotate(0) translate(-106.7975 6.592499999999999)"
      fill="white" stroke="none"/>
    <text x="106.829" y="-6.6271" fill="black" text-anchor="middle" transform="translate(106.829 -6.6271) scale(0.00001 -0.00001) translate(-106.829 6.6271) translate(106.7975 -6.592499999999999) rotate(0) translate(-106.7975 6.592499999999999)">13</text>
    <text x="106.8387" y="-6.6051" fill="black" text-anchor="middle" transform="translate(106.8387 -6.6051) scale(0.00001 -0.00001) translate(-106.8387 6.6051) translate(106.7975 -6.592499999999999) rotate(0) translate(-106.7975 6.592499999999999)">13</text>
    <text x="106.815" y="-6.6175" fill="black" text-anchor="middle" transform="translate(106.815 -6.6175) scale(0.00001 -0.00001) translate(-106.815 6.6175) translate(106.7975 -6.592499999999999) rotate(0) translate(-106.7975 6.592499999999999)">13</text>
    <line x1="106.8145" y1="-6.6161" x2="106.8177" y2="-6.6165" style="stroke:rgb(255,0,0);stroke-width:.00002" />
    <line x1="106.8145" y1="-6.6161" x2="106.81570308884932" y2="-6.616250386106165" style="stroke:rgb(0,0,0);stroke-width:.00002" />
    <line x1="106.81570308884932" y1="-6.616250386106165" x2="106.8164969111507" y2="-6.616349613893837" style="stroke:rgb(0,0,0);stroke-width:.00002" />
    <line x1="106.8164969111507" y1="-6.616349613893837" x2="106.8177" y2="-6.6165" style="stroke:rgb(0,0,0);stroke-width:.00002" />
    <circle cx="106.8145" cy="-6.6161" fill="rgb(255,0,0)" r=".0001" />
    <text x="106.8145" y="-6.6161" stroke="rgb(0,0,0)" transform="translate(106.8145 -6.6161),scale(0.00001 -0.00001),translate(-106.8145 6.6161),translate(106.7975 -6.592499999999999),rotate(0),translate(-106.7975 6.592499999999999)" >pajajaran-durian</text>
    <line x1="106.8177" y1="-6.6165" x2="106.8186" y2="-6.6172" style="stroke:rgb(255,0,0);stroke-width:.00002" />
    <line x1="106.8177" y1="-6.6165" x2="106.81815" y2="-6.61685" style="stroke:rgb(0,0,0);stroke-width:.00002" />
    <line x1="106.81815" y1="-6.61685" x2="106.81815" y2="-6.61685" style="stroke:rgb(0,0,0);stroke-width:.00002" />
    <line x1="106.81815" y1="-6.61685" x2="106.8186" y2="-6.6172" style="stroke:rgb(0,0,0);stroke-width:.00002" />
    <circle cx="106.8177" cy="-6.6165" fill="rgb(255,0,0)" r=".0001" />
    <text x="106.8177" y="-6.6165" stroke="rgb(0,0,0)" transform="translate(106.8177 -6.6165),scale(0.00001 -0.00001),translate(-106.8177 6.6165),translate(106.7975 -6.592499999999999),rotate(0),translate(-106.7975 6.592499999999999)" >durian-1</text>
    <line x1="106.8186" y1="-6.6172" x2="106.8195" y2="-6.6184" style="stroke:rgb(255,0,0);stroke-width:.00002" />
    <line x1="106.8186" y1="-6.6172" x2="106.81905" y2="-6.617800000000001" style="stroke:rgb(0,0,0);stroke-width:.00002" />
    <line x1="106.81905" y1="-6.617800000000001" x2="106.81905" y2="-6.617800000000001" style="stroke:rgb(0,0,0);stroke-width:.00002" />
    <line x1="106.81905" y1="-6.617800000000001" x2="106.8195" y2="-6.6184" style="stroke:rgb(0,0,0);stroke-width:.00002" />
    <circle cx="106.8186" cy="-6.6172" fill="rgb(255,0,0)" r=".0001" />
    <text x="106.8186" y="-6.6172" stroke="rgb(0,0,0)" transform="translate(106.8186 -6.6172),scale(0.00001 -0.00001),translate(-106.8186 6.6172),translate(106.7975 -6.592499999999999),rotate(0),translate(-106.7975 6.592499999999999)" >durian-2</text>
    <line x1="106.8195" y1="-6.6184" x2="106.8202" y2="-6.6181" style="stroke:rgb(255,0,0);stroke-width:.00002" />
    <line x1="106.8195" y1="-6.6184" x2="106.819666170994" y2="-6.618328783859716" style="stroke:rgb(0,0,0);stroke-width:.00002" />
    <line x1="106.819666170994" y1="-6.618328783859716" x2="106.82003382900601" y2="-6.618171216140284" style="stroke:rgb(0,0,0);stroke-width:.00002" />
    <line x1="106.82003382900601" y1="-6.618171216140284" x2="106.8202" y2="-6.6181" style="stroke:rgb(0,0,0);stroke-width:.00002" />
    <circle cx="106.8195" cy="-6.6184" fill="rgb(255,0,0)" r=".0001" />
    <text x="106.8195" y="-6.6184" stroke="rgb(0,0,0)" transform="translate(106.8195 -6.6184),scale(0.00001 -0.00001),translate(-106.8195 6.6184),translate(106.7975 -6.592499999999999),rotate(0),translate(-106.7975 6.592499999999999)" >durian-3</text>
    <line x1="106.8202" y1="-6.6181" x2="106.8279" y2="-6.625" style="stroke:rgb(255,0,0);stroke-width:.00002" />
    <line x1="106.8202" y1="-6.6181" x2="106.82405" y2="-6.62155" style="stroke:rgb(0,0,0);stroke-width:.00002" />
    <line x1="106.82405" y1="-6.62155" x2="106.82405" y2="-6.62155" style="stroke:rgb(0,0,0);stroke-width:.00002" />
    <line x1="106.82405" y1="-6.62155" x2="106.8279" y2="-6.625" style="stroke:rgb(0,0,0);stroke-width:.00002" />
    <circle cx="106.8202" cy="-6.6181" fill="rgb(255,0,0)" r=".0001" />
    <text x="106.8202" y="-6.6181" stroke="rgb(0,0,0)" transform="translate(106.8202 -6.6181),scale(0.00001 -0.00001),translate(-106.8202 6.6181),translate(106.7975 -6.592499999999999),rotate(0),translate(-106.7975 6.592499999999999)" >rambutan</text>
    <line x1="106.8279" y1="-6.625" x2="106.829" y2="-6.6271" style="stroke:rgb(255,0,0);stroke-width:.00002" />
    <line x1="106.8279" y1="-6.625" x2="106.82845" y2="-6.62605" style="stroke:rgb(0,0,0);stroke-width:.00002" />
    <line x1="106.82845" y1="-6.62605" x2="106.82845" y2="-6.62605" style="stroke:rgb(0,0,0);stroke-width:.00002" />
    <line x1="106.82845" y1="-6.62605" x2="106.829" y2="-6.6271" style="stroke:rgb(0,0,0);stroke-width:.00002" />
    <circle cx="106.8279" cy="-6.625" fill="rgb(255,0,0)" r=".0001" />
    <text x="106.8279" y="-6.625" stroke="rgb(0,0,0)" transform="translate(106.8279 -6.625),scale(0.00001 -0.00001),translate(-106.8279 6.625),translate(106.7975 -6.592499999999999),rotate(0),translate(-106.7975 6.592499999999999)" >banteng-sungai</text>
    <line x1="106.829" y1="-6.6271" x2="106.8279" y2="-6.625" style="stroke:rgb(255,0,0);stroke-width:.00002" />
    <line x1="106.829" y1="-6.6271" x2="106.82845" y2="-6.62605" style="stroke:rgb(0,0,0);stroke-width:.00002" />
    <line x1="106.82845" y1="-6.62605" x2="106.82845" y2="-6.62605" style="stroke:rgb(0,0,0);stroke-width:.00002" />
    <line x1="106.82845" y1="-6.62605" x2="106.8279" y2="-6.625" style="stroke:rgb(0,0,0);stroke-width:.00002" />
    <circle cx="106.829" cy="-6.6271" fill="rgb(255,0,0)" r=".0001" />
    <text x="106.829" y="-6.6271" stroke="rgb(0,0,0)" transform="translate(106.829 -6.6271),scale(0.00001 -0.00001),translate(-106.829 6.6271),translate(106.7975 -6.592499999999999),rotate(0),translate(-106.7975 6.592499999999999)" >katulampa</text>
    <line x1="106.8279" y1="-6.625" x2="106.8296" y2="-6.6221" style="stroke:rgb(255,0,0);stroke-width:.00002" />
    <line x1="106.8279" y1="-6.625" x2="106.82875" y2="-6.62355" style="stroke:rgb(0,0,0);stroke-width:.00002" />
    <line x1="106.82875" y1="-6.62355" x2="106.82875" y2="-6.62355" style="stroke:rgb(0,0,0);stroke-width:.00002" />
    <line x1="106.82875" y1="-6.62355" x2="106.8296" y2="-6.6221" style="stroke:rgb(0,0,0);stroke-width:.00002" />
    <circle cx="106.8279" cy="-6.625" fill="rgb(255,0,0)" r=".0001" />
    <text x="106.8279" y="-6.625" stroke="rgb(0,0,0)" transform="translate(106.8279 -6.625),scale(0.00001 -0.00001),translate(-106.8279 6.625),translate(106.7975 -6.592499999999999),rotate(0),translate(-106.7975 6.592499999999999)" >banteng-sungai</text>
    <line x1="106.8296" y1="-6.6221" x2="106.8338" y2="-6.6186" style="stroke:rgb(255,0,0);stroke-width:.00002" />
    <line x1="106.8296" y1="-6.6221" x2="106.8317" y2="-6.62035" style="stroke:rgb(0,0,0);stroke-width:.00002" />
    <line x1="106.8317" y1="-6.62035" x2="106.8317" y2="-6.62035" style="stroke:rgb(0,0,0);stroke-width:.00002" />
    <line x1="106.8317" y1="-6.62035" x2="106.8338" y2="-6.6186" style="stroke:rgb(0,0,0);stroke-width:.00002" />
    <circle cx="106.8296" cy="-6.6221" fill="rgb(255,0,0)" r=".0001" />
    <text x="106.8296" y="-6.6221" stroke="rgb(0,0,0)" transform="translate(106.8296 -6.6221),scale(0.00001 -0.00001),translate(-106.8296 6.6221),translate(106.7975 -6.592499999999999),rotate(0),translate(-106.7975 6.592499999999999)" >banteng-busyro</text>
    <line x1="106.8338" y1="-6.6186" x2="106.8371" y2="-6.6131" style="stroke:rgb(255,0,0);stroke-width:.00002" />
    <line x1="106.8338" y1="-6.6186" x2="106.83545000000001" y2="-6.61585" style="stroke:rgb(0,0,0);stroke-width:.00002" />
    <line x1="106.83545000000001" y1="-6.61585" x2="106.83545000000001" y2="-6.61585" style="stroke:rgb(0,0,0);stroke-width:.00002" />
    <line x1="106.83545000000001" y1="-6.61585" x2="106.8371" y2="-6.6131" style="stroke:rgb(0,0,0);stroke-width:.00002" />
    <circle cx="106.8338" cy="-6.6186" fill="rgb(255,0,0)" r=".0001" />
    <text x="106.8338" y="-6.6186" stroke="rgb(0,0,0)" transform="translate(106.8338 -6.6186),scale(0.00001 -0.00001),translate(-106.8338 6.6186),translate(106.7975 -6.592499999999999),rotate(0),translate(-106.7975 6.592499999999999)" >banteng-tol</text>
    <line x1="106.8371" y1="-6.6131" x2="106.8387" y2="-6.6051" style="stroke:rgb(255,0,0);stroke-width:.00002" />
    <line x1="106.8371" y1="-6.6131" x2="106.8379" y2="-6.6091" style="stroke:rgb(0,0,0);stroke-width:.00002" />
    <line x1="106.8379" y1="-6.6091" x2="106.8379" y2="-6.6091" style="stroke:rgb(0,0,0);stroke-width:.00002" />
    <line x1="106.8379" y1="-6.6091" x2="106.8387" y2="-6.6051" style="stroke:rgb(0,0,0);stroke-width:.00002" />
    <circle cx="106.8371" cy="-6.6131" fill="rgb(255,0,0)" r=".0001" />
    <text x="106.8371" y="-6.6131" stroke="rgb(0,0,0)" transform="translate(106.8371 -6.6131),scale(0.00001 -0.00001),translate(-106.8371 6.6131),translate(106.7975 -6.592499999999999),rotate(0),translate(-106.7975 6.592499999999999)" >pasirangin-1</text>
    <line x1="106.8387" y1="-6.6051" x2="106.8371" y2="-6.6131" style="stroke:rgb(255,0,0);stroke-width:.00002" />
    <line x1="106.8387" y1="-6.6051" x2="106.8379" y2="-6.6091" style="stroke:rgb(0,0,0);stroke-width:.00002" />
    <line x1="106.8379" y1="-6.6091" x2="106.8379" y2="-6.6091" style="stroke:rgb(0,0,0);stroke-width:.00002" />
    <line x1="106.8379" y1="-6.6091" x2="106.8371" y2="-6.6131" style="stroke:rgb(0,0,0);stroke-width:.00002" />
    <circle cx="106.8387" cy="-6.6051" fill="rgb(255,0,0)" r=".0001" />
    <text x="106.8387" y="-6.6051" stroke="rgb(0,0,0)" transform="translate(106.8387 -6.6051),scale(0.00001 -0.00001),translate(-106.8387 6.6051),translate(106.7975 -6.592499999999999),rotate(0),translate(-106.7975 6.592499999999999)" >pasirangin-novotel</text>
    <line x1="106.8371" y1="-6.6131" x2="106.8338" y2="-6.6186" style="stroke:rgb(255,0,0);stroke-width:.00002" />
    <line x1="106.8371" y1="-6.6131" x2="106.83545000000001" y2="-6.61585" style="stroke:rgb(0,0,0);stroke-width:.00002" />
    <line x1="106.83545000000001" y1="-6.61585" x2="106.83545000000001" y2="-6.61585" style="stroke:rgb(0,0,0);stroke-width:.00002" />
    <line x1="106.83545000000001" y1="-6.61585" x2="106.8338" y2="-6.6186" style="stroke:rgb(0,0,0);stroke-width:.00002" />
    <circle cx="106.8371" cy="-6.6131" fill="rgb(255,0,0)" r=".0001" />
    <text x="106.8371" y="-6.6131" stroke="rgb(0,0,0)" transform="translate(106.8371 -6.6131),scale(0.00001 -0.00001),translate(-106.8371 6.6131),translate(106.7975 -6.592499999999999),rotate(0),translate(-106.7975 6.592499999999999)" >pasirangin-1</text>
    <line x1="106.8338" y1="-6.6186" x2="106.8296" y2="-6.6221" style="stroke:rgb(255,0,0);stroke-width:.00002" />
    <line x1="106.8338" y1="-6.6186" x2="106.8317" y2="-6.62035" style="stroke:rgb(0,0,0);stroke-width:.00002" />
    <line x1="106.8317" y1="-6.62035" x2="106.8317" y2="-6.62035" style="stroke:rgb(0,0,0);stroke-width:.00002" />
    <line x1="106.8317" y1="-6.62035" x2="106.8296" y2="-6.6221" style="stroke:rgb(0,0,0);stroke-width:.00002" />
    <circle cx="106.8338" cy="-6.6186" fill="rgb(255,0,0)" r=".0001" />
    <text x="106.8338" y="-6.6186" stroke="rgb(0,0,0)" transform="translate(106.8338 -6.6186),scale(0.00001 -0.00001),translate(-106.8338 6.6186),translate(106.7975 -6.592499999999999),rotate(0),translate(-106.7975 6.592499999999999)" >banteng-tol</text>
    <line x1="106.8296" y1="-6.6221" x2="106.8279" y2="-6.625" style="stroke:rgb(255,0,0);stroke-width:.00002" />
    <line x1="106.8296" y1="-6.6221" x2="106.82875" y2="-6.62355" style="stroke:rgb(0,0,0);stroke-width:.00002" />
    <line x1="106.82875" y1="-6.62355" x2="106.82875" y2="-6.62355" style="stroke:rgb(0,0,0);stroke-width:.00002" />
    <line x1="106.82875" y1="-6.62355" x2="106.8279" y2="-6.625" style="stroke:rgb(0,0,0);stroke-width:.00002" />
    <circle cx="106.8296" cy="-6.6221" fill="rgb(255,0,0)" r=".0001" />
    <text x="106.8296" y="-6.6221" stroke="rgb(0,0,0)" transform="translate(106.8296 -6.6221),scale(0.00001 -0.00001),translate(-106.8296 6.6221),translate(106.7975 -6.592499999999999),rotate(0),translate(-106.7975 6.592499999999999)" >banteng-busyro</text>
    <line x1="106.8279" y1="-6.625" x2="106.8202" y2="-6.6181" style="stroke:rgb(255,0,0);stroke-width:.00002" />
    <line x1="106.8279" y1="-6.625" x2="106.82405" y2="-6.62155" style="stroke:rgb(0,0,0);stroke-width:.00002" />
    <line x1="106.82405" y1="-6.62155" x2="106.82405" y2="-6.62155" style="stroke:rgb(0,0,0);stroke-width:.00002" />
    <line x1="106.82405" y1="-6.62155" x2="106.8202" y2="-6.6181" style="stroke:rgb(0,0,0);stroke-width:.00002" />
    <circle cx="106.8279" cy="-6.625" fill="rgb(255,0,0)" r=".0001" />
    <text x="106.8279" y="-6.625" stroke="rgb(0,0,0)" transform="translate(106.8279 -6.625),scale(0.00001 -0.00001),translate(-106.8279 6.625),translate(106.7975 -6.592499999999999),rotate(0),translate(-106.7975 6.592499999999999)" >banteng-sungai</text>
    <line x1="106.8202" y1="-6.6181" x2="106.8195" y2="-6.6184" style="stroke:rgb(255,0,0);stroke-width:.00002" />
    <line x1="106.8202" y1="-6.6181" x2="106.81985" y2="-6.61825" style="stroke:rgb(0,0,0);stroke-width:.00002" />
    <line x1="106.81985" y1="-6.61825" x2="106.81985" y2="-6.61825" style="stroke:rgb(0,0,0);stroke-width:.00002" />
    <line x1="106.81985" y1="-6.61825" x2="106.8195" y2="-6.6184" style="stroke:rgb(0,0,0);stroke-width:.00002" />
    <circle cx="106.8202" cy="-6.6181" fill="rgb(255,0,0)" r=".0001" />
    <text x="106.8202" y="-6.6181" stroke="rgb(0,0,0)" transform="translate(106.8202 -6.6181),scale(0.00001 -0.00001),translate(-106.8202 6.6181),translate(106.7975 -6.592499999999999),rotate(0),translate(-106.7975 6.592499999999999)" >rambutan</text>
    <line x1="106.8195" y1="-6.6184" x2="106.8186" y2="-6.6172" style="stroke:rgb(255,0,0);stroke-width:.00002" />
    <line x1="106.8195" y1="-6.6184" x2="106.81917" y2="-6.617960000000001" style="stroke:rgb(0,0,0);stroke-width:.00002" />
    <line x1="106.81917" y1="-6.617960000000001" x2="106.81893000000001" y2="-6.617640000000001" style="stroke:rgb(0,0,0);stroke-width:.00002" />
    <line x1="106.81893000000001" y1="-6.617640000000001" x2="106.8186" y2="-6.6172" style="stroke:rgb(0,0,0);stroke-width:.00002" />
    <circle cx="106.8195" cy="-6.6184" fill="rgb(255,0,0)" r=".0001" />
    <text x="106.8195" y="-6.6184" stroke="rgb(0,0,0)" transform="translate(106.8195 -6.6184),scale(0.00001 -0.00001),translate(-106.8195 6.6184),translate(106.7975 -6.592499999999999),rotate(0),translate(-106.7975 6.592499999999999)" >durian-3</text>
    <line x1="106.8186" y1="-6.6172" x2="106.8177" y2="-6.6165" style="stroke:rgb(255,0,0);stroke-width:.00002" />
    <line x1="106.8186" y1="-6.6172" x2="106.81815" y2="-6.61685" style="stroke:rgb(0,0,0);stroke-width:.00002" />
    <line x1="106.81815" y1="-6.61685" x2="106.81815" y2="-6.61685" style="stroke:rgb(0,0,0);stroke-width:.00002" />
    <line x1="106.81815" y1="-6.61685" x2="106.8177" y2="-6.6165" style="stroke:rgb(0,0,0);stroke-width:.00002" />
    <circle cx="106.8186" cy="-6.6172" fill="rgb(255,0,0)" r=".0001" />
    <text x="106.8186" y="-6.6172" stroke="rgb(0,0,0)" transform="translate(106.8186 -6.6172),scale(0.00001 -0.00001),translate(-106.8186 6.6172),translate(106.7975 -6.592499999999999),rotate(0),translate(-106.7975 6.592499999999999)" >durian-2</text>
    <line x1="106.8177" y1="-6.6165" x2="106.8145" y2="-6.6161" style="stroke:rgb(255,0,0);stroke-width:.00002" />
    <line x1="106.8177" y1="-6.6165" x2="106.8161" y2="-6.616300000000001" style="stroke:rgb(0,0,0);stroke-width:.00002" />
    <line x1="106.8161" y1="-6.616300000000001" x2="106.8161" y2="-6.616300000000001" style="stroke:rgb(0,0,0);stroke-width:.00002" />
    <line x1="106.8161" y1="-6.616300000000001" x2="106.8145" y2="-6.6161" style="stroke:rgb(0,0,0);stroke-width:.00002" />
    <circle cx="106.8177" cy="-6.6165" fill="rgb(255,0,0)" r=".0001" />
    <text x="106.8177" y="-6.6165" stroke="rgb(0,0,0)" transform="translate(106.8177 -6.6165),scale(0.00001 -0.00001),translate(-106.8177 6.6165),translate(106.7975 -6.592499999999999),rotate(0),translate(-106.7975 6.592499999999999)" >durian-1</text>
    <line x1="106.8145" y1="-6.6161" x2="106.815" y2="-6.6175" style="stroke:rgb(255,0,0);stroke-width:.00002" />
    <line x1="106.8145" y1="-6.6161" x2="106.81475" y2="-6.6168" style="stroke:rgb(0,0,0);stroke-width:.00002" />
    <line x1="106.81475" y1="-6.6168" x2="106.81475" y2="-6.6168" style="stroke:rgb(0,0,0);stroke-width:.00002" />
    <line x1="106.81475" y1="-6.6168" x2="106.815" y2="-6.6175" style="stroke:rgb(0,0,0);stroke-width:.00002" />
    <circle cx="106.8145" cy="-6.6161" fill="rgb(255,0,0)" r=".0001" />
    <text x="106.8145" y="-6.6161" stroke="rgb(0,0,0)" transform="translate(106.8145 -6.6161),scale(0.00001 -0.00001),translate(-106.8145 6.6161),translate(106.7975 -6.592499999999999),rotate(0),translate(-106.7975 6.592499999999999)" >pajajaran-durian</text>
    <line x1="106.815" y1="-6.6175" x2="106.8145" y2="-6.6161" style="stroke:rgb(255,0,0);stroke-width:.00002" />
    <line x1="106.815" y1="-6.6175" x2="106.8149518018382" y2="-6.617365045146956" style="stroke:rgb(0,0,0);stroke-width:.00002" />
    <line x1="106.8149518018382" y1="-6.617365045146956" x2="106.8145481981618" y2="-6.616234954853043" style="stroke:rgb(0,0,0);stroke-width:.00002" />
    <line x1="106.8145481981618" y1="-6.616234954853043" x2="106.8145" y2="-6.6161" style="stroke:rgb(0,0,0);stroke-width:.00002" />
    <circle cx="106.815" cy="-6.6175" fill="rgb(255,0,0)" r=".0001" />
    <text x="106.815" y="-6.6175" stroke="rgb(0,0,0)" transform="translate(106.815 -6.6175),scale(0.00001 -0.00001),translate(-106.815 6.6175),translate(106.7975 -6.592499999999999),rotate(0),translate(-106.7975 6.592499999999999)" >pajajaran-ggmesjid</text>
    <line x1="106.8145" y1="-6.6161" x2="106.813" y2="-6.6125" style="stroke:rgb(255,0,0);stroke-width:.00002" />
    <line x1="106.8145" y1="-6.6161" x2="106.81382692307692" y2="-6.614484615384615" style="stroke:rgb(0,0,0);stroke-width:.00002" />
    <line x1="106.81382692307692" y1="-6.614484615384615" x2="106.81367307692308" y2="-6.614115384615385" style="stroke:rgb(0,0,0);stroke-width:.00002" />
    <line x1="106.81367307692308" y1="-6.614115384615385" x2="106.813" y2="-6.6125" style="stroke:rgb(0,0,0);stroke-width:.00002" />
    <circle cx="106.8145" cy="-6.6161" fill="rgb(255,0,0)" r=".0001" />
    <text x="106.8145" y="-6.6161" stroke="rgb(0,0,0)" transform="translate(106.8145 -6.6161),scale(0.00001 -0.00001),translate(-106.8145 6.6161),translate(106.7975 -6.592499999999999),rotate(0),translate(-106.7975 6.592499999999999)" >pajajaran-durian</text>
    <line x1="106.813" y1="-6.6125" x2="106.8105" y2="-6.6087" style="stroke:rgb(255,0,0);stroke-width:.00002" />
    <line x1="106.813" y1="-6.6125" x2="106.8118599233003" y2="-6.610767083416449" style="stroke:rgb(0,0,0);stroke-width:.00002" />
    <line x1="106.8118599233003" y1="-6.610767083416449" x2="106.8116400766997" y2="-6.610432916583551" style="stroke:rgb(0,0,0);stroke-width:.00002" />
    <line x1="106.8116400766997" y1="-6.610432916583551" x2="106.8105" y2="-6.6087" style="stroke:rgb(0,0,0);stroke-width:.00002" />
    <circle cx="106.813" cy="-6.6125" fill="rgb(255,0,0)" r=".0001" />
    <text x="106.813" y="-6.6125" stroke="rgb(0,0,0)" transform="translate(106.813 -6.6125),scale(0.00001 -0.00001),translate(-106.813 6.6125),translate(106.7975 -6.592499999999999),rotate(0),translate(-106.7975 6.592499999999999)" >pajajaran-pjjindah</text>
    <line x1="106.8105" y1="-6.6087" x2="106.8099" y2="-6.6078" style="stroke:rgb(255,0,0);stroke-width:.00002" />
    <line x1="106.8105" y1="-6.6087" x2="106.8104218800785" y2="-6.608582820117734" style="stroke:rgb(0,0,0);stroke-width:.00002" />
    <line x1="106.8104218800785" y1="-6.608582820117734" x2="106.80997811992152" y2="-6.607917179882266" style="stroke:rgb(0,0,0);stroke-width:.00002" />
    <line x1="106.80997811992152" y1="-6.607917179882266" x2="106.8099" y2="-6.6078" style="stroke:rgb(0,0,0);stroke-width:.00002" />
    <circle cx="106.8105" cy="-6.6087" fill="rgb(255,0,0)" r=".0001" />
    <text x="106.8105" y="-6.6087" stroke="rgb(0,0,0)" transform="translate(106.8105 -6.6087),scale(0.00001 -0.00001),translate(-106.8105 6.6087),translate(106.7975 -6.592499999999999),rotate(0),translate(-106.7975 6.592499999999999)" >pajajaran-michelle-bakery</text>
    <line x1="106.8099" y1="-6.6078" x2="106.8087" y2="-6.6066" style="stroke:rgb(255,0,0);stroke-width:.00002" />
    <line x1="106.8099" y1="-6.6078" x2="106.80944142135624" y2="-6.607341421356238" style="stroke:rgb(0,0,0);stroke-width:.00002" />
    <line x1="106.80944142135624" y1="-6.607341421356238" x2="106.80915857864377" y2="-6.6070585786437634" style="stroke:rgb(0,0,0);stroke-width:.00002" />
    <line x1="106.80915857864377" y1="-6.6070585786437634" x2="106.8087" y2="-6.6066" style="stroke:rgb(0,0,0);stroke-width:.00002" />
    <circle cx="106.8099" cy="-6.6078" fill="rgb(255,0,0)" r=".0001" />
    <text x="106.8099" y="-6.6078" stroke="rgb(0,0,0)" transform="translate(106.8099 -6.6078),scale(0.00001 -0.00001),translate(-106.8099 6.6078),translate(106.7975 -6.592499999999999),rotate(0),translate(-106.7975 6.592499999999999)" >pajajaran-ciheuleut</text>
    <line x1="106.8087" y1="-6.6066" x2="106.808" y2="-6.6069" style="stroke:rgb(255,0,0);stroke-width:.00002" />
    <line x1="106.8087" y1="-6.6066" x2="106.80871765801201" y2="-6.606592432280567" style="stroke:rgb(0,0,0);stroke-width:.00002" />
    <line x1="106.80871765801201" y1="-6.606592432280567" x2="106.807982341988" y2="-6.606907567719433" style="stroke:rgb(0,0,0);stroke-width:.00002" />
    <line x1="106.807982341988" y1="-6.606907567719433" x2="106.808" y2="-6.6069" style="stroke:rgb(0,0,0);stroke-width:.00002" />
    <circle cx="106.8087" cy="-6.6066" fill="rgb(255,0,0)" r=".0001" />
    <text x="106.8087" y="-6.6066" stroke="rgb(0,0,0)" transform="translate(106.8087 -6.6066),scale(0.00001 -0.00001),translate(-106.8087 6.6066),translate(106.7975 -6.592499999999999),rotate(0),translate(-106.7975 6.592499999999999)" >bangka-1</text>
    <line x1="106.808" y1="-6.6069" x2="106.8074" y2="-6.6065" style="stroke:rgb(255,0,0);stroke-width:.00002" />
    <line x1="106.808" y1="-6.6069" x2="106.80770000000001" y2="-6.6067" style="stroke:rgb(0,0,0);stroke-width:.00002" />
    <line x1="106.80770000000001" y1="-6.6067" x2="106.80770000000001" y2="-6.6067" style="stroke:rgb(0,0,0);stroke-width:.00002" />
    <line x1="106.80770000000001" y1="-6.6067" x2="106.8074" y2="-6.6065" style="stroke:rgb(0,0,0);stroke-width:.00002" />
    <circle cx="106.808" cy="-6.6069" fill="rgb(255,0,0)" r=".0001" />
    <text x="106.808" y="-6.6069" stroke="rgb(0,0,0)" transform="translate(106.808 -6.6069),scale(0.00001 -0.00001),translate(-106.808 6.6069),translate(106.7975 -6.592499999999999),rotate(0),translate(-106.7975 6.592499999999999)" >bangka-2</text>
    <line x1="106.8074" y1="-6.6065" x2="106.8067" y2="-6.6066" style="stroke:rgb(255,0,0);stroke-width:.00002" />
    <line x1="106.8074" y1="-6.6065" x2="106.80705" y2="-6.60655" style="stroke:rgb(0,0,0);stroke-width:.00002" />
    <line x1="106.80705" y1="-6.60655" x2="106.80705" y2="-6.60655" style="stroke:rgb(0,0,0);stroke-width:.00002" />
    <line x1="106.80705" y1="-6.60655" x2="106.8067" y2="-6.6066" style="stroke:rgb(0,0,0);stroke-width:.00002" />
    <circle cx="106.8074" cy="-6.6065" fill="rgb(255,0,0)" r=".0001" />
    <text x="106.8074" y="-6.6065" stroke="rgb(0,0,0)" transform="translate(106.8074 -6.6065),scale(0.00001 -0.00001),translate(-106.8074 6.6065),translate(106.7975 -6.592499999999999),rotate(0),translate(-106.7975 6.592499999999999)" >bangka-3</text>
    <line x1="106.8067" y1="-6.6066" x2="106.8058" y2="-6.6052" style="stroke:rgb(255,0,0);stroke-width:.00002" />
    <line x1="106.8067" y1="-6.6066" x2="106.80625" y2="-6.6059" style="stroke:rgb(0,0,0);stroke-width:.00002" />
    <line x1="106.80625" y1="-6.6059" x2="106.80625" y2="-6.6059" style="stroke:rgb(0,0,0);stroke-width:.00002" />
    <line x1="106.80625" y1="-6.6059" x2="106.8058" y2="-6.6052" style="stroke:rgb(0,0,0);stroke-width:.00002" />
    <circle cx="106.8067" cy="-6.6066" fill="rgb(255,0,0)" r=".0001" />
    <text x="106.8067" y="-6.6066" stroke="rgb(0,0,0)" transform="translate(106.8067 -6.6066),scale(0.00001 -0.00001),translate(-106.8067 6.6066),translate(106.7975 -6.592499999999999),rotate(0),translate(-106.7975 6.592499999999999)" >bangka-5</text>
    <line x1="106.8058" y1="-6.6052" x2="106.8051" y2="-6.6052" style="stroke:rgb(255,0,0);stroke-width:.00002" />
    <line x1="106.8058" y1="-6.6052" x2="106.80545000000001" y2="-6.6052" style="stroke:rgb(0,0,0);stroke-width:.00002" />
    <line x1="106.80545000000001" y1="-6.6052" x2="106.80545000000001" y2="-6.6052" style="stroke:rgb(0,0,0);stroke-width:.00002" />
    <line x1="106.80545000000001" y1="-6.6052" x2="106.8051" y2="-6.6052" style="stroke:rgb(0,0,0);stroke-width:.00002" />
    <circle cx="106.8058" cy="-6.6052" fill="rgb(255,0,0)" r=".0001" />
    <text x="106.8058" y="-6.6052" stroke="rgb(0,0,0)" transform="translate(106.8058 -6.6052),scale(0.00001 -0.00001),translate(-106.8058 6.6052),translate(106.7975 -6.592499999999999),rotate(0),translate(-106.7975 6.592499999999999)" >bangka-6</text>
    <line x1="106.8051" y1="-6.6052" x2="106.8043" y2="-6.6017" style="stroke:rgb(255,0,0);stroke-width:.00002" />
    <line x1="106.8051" y1="-6.6052" x2="106.8047" y2="-6.6034500000000005" style="stroke:rgb(0,0,0);stroke-width:.00002" />
    <line x1="106.8047" y1="-6.6034500000000005" x2="106.8047" y2="-6.6034500000000005" style="stroke:rgb(0,0,0);stroke-width:.00002" />
    <line x1="106.8047" y1="-6.6034500000000005" x2="106.8043" y2="-6.6017" style="stroke:rgb(0,0,0);stroke-width:.00002" />
    <circle cx="106.8051" cy="-6.6052" fill="rgb(255,0,0)" r=".0001" />
    <text x="106.8051" y="-6.6052" stroke="rgb(0,0,0)" transform="translate(106.8051 -6.6052),scale(0.00001 -0.00001),translate(-106.8051 6.6052),translate(106.7975 -6.592499999999999),rotate(0),translate(-106.7975 6.592499999999999)" >bangka-7</text>
    <line x1="106.8043" y1="-6.6017" x2="106.7999" y2="-6.6027" style="stroke:rgb(255,0,0);stroke-width:.00002" />
    <line x1="106.8043" y1="-6.6017" x2="106.80307513285578" y2="-6.601978378896411" style="stroke:rgb(0,0,0);stroke-width:.00002" />
    <line x1="106.80307513285578" y1="-6.601978378896411" x2="106.80112486714421" y2="-6.602421621103589" style="stroke:rgb(0,0,0);stroke-width:.00002" />
    <line x1="106.80112486714421" y1="-6.602421621103589" x2="106.7999" y2="-6.6027" style="stroke:rgb(0,0,0);stroke-width:.00002" />
    <circle cx="106.8043" cy="-6.6017" fill="rgb(255,0,0)" r=".0001" />
    <text x="106.8043" y="-6.6017" stroke="rgb(0,0,0)" transform="translate(106.8043 -6.6017),scale(0.00001 -0.00001),translate(-106.8043 6.6017),translate(106.7975 -6.592499999999999),rotate(0),translate(-106.7975 6.592499999999999)" >bangka-otista</text>
    <line x1="106.7999" y1="-6.6027" x2="106.7996" y2="-6.6027" style="stroke:rgb(255,0,0);stroke-width:.00002" />
    <line x1="106.7999" y1="-6.6027" x2="106.79974999999999" y2="-6.6027" style="stroke:rgb(0,0,0);stroke-width:.00002" />
    <line x1="106.79974999999999" y1="-6.6027" x2="106.79974999999999" y2="-6.6027" style="stroke:rgb(0,0,0);stroke-width:.00002" />
    <line x1="106.79974999999999" y1="-6.6027" x2="106.7996" y2="-6.6027" style="stroke:rgb(0,0,0);stroke-width:.00002" />
    <circle cx="106.7999" cy="-6.6027" fill="rgb(255,0,0)" r=".0001" />
    <text x="106.7999" y="-6.6027" stroke="rgb(0,0,0)" transform="translate(106.7999 -6.6027),scale(0.00001 -0.00001),translate(-106.7999 6.6027),translate(106.7975 -6.592499999999999),rotate(0),translate(-106.7975 6.592499999999999)" >otista-roda</text>
    <line x1="106.7996" y1="-6.6027" x2="106.7988" y2="-6.6031" style="stroke:rgb(255,0,0);stroke-width:.00002" />
    <line x1="106.7996" y1="-6.6027" x2="106.7997366563146" y2="-6.602631671842699" style="stroke:rgb(0,0,0);stroke-width:.00002" />
    <line x1="106.7997366563146" y1="-6.602631671842699" x2="106.7986633436854" y2="-6.603168328157301" style="stroke:rgb(0,0,0);stroke-width:.00002" />
    <line x1="106.7986633436854" y1="-6.603168328157301" x2="106.7988" y2="-6.6031" style="stroke:rgb(0,0,0);stroke-width:.00002" />
    <circle cx="106.7996" cy="-6.6027" fill="rgb(255,0,0)" r=".0001" />
    <text x="106.7996" y="-6.6027" stroke="rgb(0,0,0)" transform="translate(106.7996 -6.6027),scale(0.00001 -0.00001),translate(-106.7996 6.6027),translate(106.7975 -6.592499999999999),rotate(0),translate(-106.7975 6.592499999999999)" >kb-otista</text>
    <line x1="106.7988" y1="-6.6031" x2="106.7972" y2="-6.604" style="stroke:rgb(255,0,0);stroke-width:.00002" />
    <line x1="106.7988" y1="-6.6031" x2="106.798" y2="-6.60355" style="stroke:rgb(0,0,0);stroke-width:.00002" />
    <line x1="106.798" y1="-6.60355" x2="106.798" y2="-6.60355" style="stroke:rgb(0,0,0);stroke-width:.00002" />
    <line x1="106.798" y1="-6.60355" x2="106.7972" y2="-6.604" style="stroke:rgb(0,0,0);stroke-width:.00002" />
    <circle cx="106.7988" cy="-6.6031" fill="rgb(255,0,0)" r=".0001" />
    <text x="106.7988" y="-6.6031" stroke="rgb(0,0,0)" transform="translate(106.7988 -6.6031),scale(0.00001 -0.00001),translate(-106.7988 6.6031),translate(106.7975 -6.592499999999999),rotate(0),translate(-106.7975 6.592499999999999)" >kb-suryakencana</text>
    <line x1="106.7972" y1="-6.604" x2="106.7967" y2="-6.6042" style="stroke:rgb(255,0,0);stroke-width:.00002" />
    <line x1="106.7972" y1="-6.604" x2="106.79695000000001" y2="-6.6041" style="stroke:rgb(0,0,0);stroke-width:.00002" />
    <line x1="106.79695000000001" y1="-6.6041" x2="106.79695000000001" y2="-6.6041" style="stroke:rgb(0,0,0);stroke-width:.00002" />
    <line x1="106.79695000000001" y1="-6.6041" x2="106.7967" y2="-6.6042" style="stroke:rgb(0,0,0);stroke-width:.00002" />
    <circle cx="106.7972" cy="-6.604" fill="rgb(255,0,0)" r=".0001" />
    <text x="106.7972" y="-6.604" stroke="rgb(0,0,0)" transform="translate(106.7972 -6.604),scale(0.00001 -0.00001),translate(-106.7972 6.604),translate(106.7975 -6.592499999999999),rotate(0),translate(-106.7975 6.592499999999999)" >cincau-kb</text>
    <line x1="106.7967" y1="-6.6042" x2="106.7961" y2="-6.6038" style="stroke:rgb(255,0,0);stroke-width:.00002" />
    <line x1="106.7967" y1="-6.6042" x2="106.7964" y2="-6.603999999999999" style="stroke:rgb(0,0,0);stroke-width:.00002" />
    <line x1="106.7964" y1="-6.603999999999999" x2="106.7964" y2="-6.603999999999999" style="stroke:rgb(0,0,0);stroke-width:.00002" />
    <line x1="106.7964" y1="-6.603999999999999" x2="106.7961" y2="-6.6038" style="stroke:rgb(0,0,0);stroke-width:.00002" />
    <circle cx="106.7967" cy="-6.6042" fill="rgb(255,0,0)" r=".0001" />
    <text x="106.7967" y="-6.6042" stroke="rgb(0,0,0)" transform="translate(106.7967 -6.6042),scale(0.00001 -0.00001),translate(-106.7967 6.6042),translate(106.7975 -6.592499999999999),rotate(0),translate(-106.7975 6.592499999999999)" >kb-btm-1</text>
    <line x1="106.7961" y1="-6.6038" x2="106.7937" y2="-6.5969" style="stroke:rgb(255,0,0);stroke-width:.00002" />
    <line x1="106.7961" y1="-6.6038" x2="106.79496570412499" y2="-6.600538899359341" style="stroke:rgb(0,0,0);stroke-width:.00002" />
    <line x1="106.79496570412499" y1="-6.600538899359341" x2="106.794834295875" y2="-6.600161100640658" style="stroke:rgb(0,0,0);stroke-width:.00002" />
    <line x1="106.794834295875" y1="-6.600161100640658" x2="106.7937" y2="-6.5969" style="stroke:rgb(0,0,0);stroke-width:.00002" />
    <circle cx="106.7961" cy="-6.6038" fill="rgb(255,0,0)" r=".0001" />
    <text x="106.7961" y="-6.6038" stroke="rgb(0,0,0)" transform="translate(106.7961 -6.6038),scale(0.00001 -0.00001),translate(-106.7961 6.6038),translate(106.7975 -6.592499999999999),rotate(0),translate(-106.7975 6.592499999999999)" >kb-btm-2</text>
    <line x1="106.7937" y1="-6.5969" x2="106.7946" y2="-6.5945" style="stroke:rgb(255,0,0);stroke-width:.00002" />
    <line x1="106.7937" y1="-6.5969" x2="106.79386910124673" y2="-6.596449063342055" style="stroke:rgb(0,0,0);stroke-width:.00002" />
    <line x1="106.79386910124673" y1="-6.596449063342055" x2="106.79443089875328" y2="-6.594950936657945" style="stroke:rgb(0,0,0);stroke-width:.00002" />
    <line x1="106.79443089875328" y1="-6.594950936657945" x2="106.7946" y2="-6.5945" style="stroke:rgb(0,0,0);stroke-width:.00002" />
    <circle cx="106.7937" cy="-6.5969" fill="rgb(255,0,0)" r=".0001" />
    <text x="106.7937" y="-6.5969" stroke="rgb(0,0,0)" transform="translate(106.7937 -6.5969),scale(0.00001 -0.00001),translate(-106.7937 6.5969),translate(106.7975 -6.592499999999999),rotate(0),translate(-106.7975 6.592499999999999)" >kb-muslihat</text>
    <line x1="106.7946" y1="-6.5945" x2="106.7973" y2="-6.593" style="stroke:rgb(255,0,0);stroke-width:.00002" />
    <line x1="106.7946" y1="-6.5945" x2="106.79542550563433" y2="-6.594041385758707" style="stroke:rgb(0,0,0);stroke-width:.00002" />
    <line x1="106.79542550563433" y1="-6.594041385758707" x2="106.79647449436568" y2="-6.593458614241293" style="stroke:rgb(0,0,0);stroke-width:.00002" />
    <line x1="106.79647449436568" y1="-6.593458614241293" x2="106.7973" y2="-6.593" style="stroke:rgb(0,0,0);stroke-width:.00002" />
    <circle cx="106.7946" cy="-6.5945" fill="rgb(255,0,0)" r=".0001" />
    <text x="106.7946" y="-6.5945" stroke="rgb(0,0,0)" transform="translate(106.7946 -6.5945),scale(0.00001 -0.00001),translate(-106.7946 6.5945),translate(106.7975 -6.592499999999999),rotate(0),translate(-106.7975 6.592499999999999)" >kb-gedong-sawah</text>
    <line x1="106.7973" y1="-6.593" x2="106.7984" y2="-6.5935" style="stroke:rgb(255,0,0);stroke-width:.00002" />
    <line x1="106.7973" y1="-6.593" x2="106.79730378011354" y2="-6.593001718233418" style="stroke:rgb(0,0,0);stroke-width:.00002" />
    <line x1="106.79730378011354" y1="-6.593001718233418" x2="106.79839621988648" y2="-6.593498281766581" style="stroke:rgb(0,0,0);stroke-width:.00002" />
    <line x1="106.79839621988648" y1="-6.593498281766581" x2="106.7984" y2="-6.5935" style="stroke:rgb(0,0,0);stroke-width:.00002" />
    <circle cx="106.7973" cy="-6.593" fill="rgb(255,0,0)" r=".0001" />
    <text x="106.7973" y="-6.593" stroke="rgb(0,0,0)" transform="translate(106.7973 -6.593),scale(0.00001 -0.00001),translate(-106.7973 6.593),translate(106.7975 -6.592499999999999),rotate(0),translate(-106.7975 6.592499999999999)" >kb-polisi-militer</text>
    <line x1="106.7984" y1="-6.5935" x2="106.8008" y2="-6.5923" style="stroke:rgb(255,0,0);stroke-width:.00002" />
    <line x1="106.7984" y1="-6.5935" x2="106.7996" y2="-6.5929" style="stroke:rgb(0,0,0);stroke-width:.00002" />
    <line x1="106.7996" y1="-6.5929" x2="106.7996" y2="-6.5929" style="stroke:rgb(0,0,0);stroke-width:.00002" />
    <line x1="106.7996" y1="-6.5929" x2="106.8008" y2="-6.5923" style="stroke:rgb(0,0,0);stroke-width:.00002" />
    <circle cx="106.7984" cy="-6.5935" fill="rgb(255,0,0)" r=".0001" />
    <text x="106.7984" y="-6.5935" stroke="rgb(0,0,0)" transform="translate(106.7984 -6.5935),scale(0.00001 -0.00001),translate(-106.7984 6.5935),translate(106.7975 -6.592499999999999),rotate(0),translate(-106.7975 6.592499999999999)" >kb-jalak-harupat</text>
    <line x1="106.8008" y1="-6.5923" x2="106.8018" y2="-6.5927" style="stroke:rgb(255,0,0);stroke-width:.00002" />
    <line x1="106.8008" y1="-6.5923" x2="106.80111430466182" y2="-6.592425721864728" style="stroke:rgb(0,0,0);stroke-width:.00002" />
    <line x1="106.80111430466182" y1="-6.592425721864728" x2="106.80148569533817" y2="-6.59257427813527" style="stroke:rgb(0,0,0);stroke-width:.00002" />
    <line x1="106.80148569533817" y1="-6.59257427813527" x2="106.8018" y2="-6.5927" style="stroke:rgb(0,0,0);stroke-width:.00002" />
    <circle cx="106.8008" cy="-6.5923" fill="rgb(255,0,0)" r=".0001" />
    <text x="106.8008" y="-6.5923" stroke="rgb(0,0,0)" transform="translate(106.8008 -6.5923),scale(0.00001 -0.00001),translate(-106.8008 6.5923),translate(106.7975 -6.592499999999999),rotate(0),translate(-106.7975 6.592499999999999)" >kb-sempur</text>
    <line x1="106.8018" y1="-6.5927" x2="106.8029" y2="-6.5935" style="stroke:rgb(255,0,0);stroke-width:.00002" />
    <line x1="106.8018" y1="-6.5927" x2="106.80186475834941" y2="-6.592747096981394" style="stroke:rgb(0,0,0);stroke-width:.00002" />
    <line x1="106.80186475834941" y1="-6.592747096981394" x2="106.80283524165057" y2="-6.593452903018606" style="stroke:rgb(0,0,0);stroke-width:.00002" />
    <line x1="106.80283524165057" y1="-6.593452903018606" x2="106.8029" y2="-6.5935" style="stroke:rgb(0,0,0);stroke-width:.00002" />
    <circle cx="106.8018" cy="-6.5927" fill="rgb(255,0,0)" r=".0001" />
    <text x="106.8018" y="-6.5927" stroke="rgb(0,0,0)" transform="translate(106.8018 -6.5927),scale(0.00001 -0.00001),translate(-106.8018 6.5927),translate(106.7975 -6.592499999999999),rotate(0),translate(-106.7975 6.592499999999999)" >kb-salak</text>
    <line x1="106.8029" y1="-6.5935" x2="106.8044" y2="-6.5959" style="stroke:rgb(255,0,0);stroke-width:.00002" />
    <line x1="106.8029" y1="-6.5935" x2="106.80365" y2="-6.5947" style="stroke:rgb(0,0,0);stroke-width:.00002" />
    <line x1="106.80365" y1="-6.5947" x2="106.80365" y2="-6.5947" style="stroke:rgb(0,0,0);stroke-width:.00002" />
    <line x1="106.80365" y1="-6.5947" x2="106.8044" y2="-6.5959" style="stroke:rgb(0,0,0);stroke-width:.00002" />
    <circle cx="106.8029" cy="-6.5935" fill="rgb(255,0,0)" r=".0001" />
    <text x="106.8029" y="-6.5935" stroke="rgb(0,0,0)" transform="translate(106.8029 -6.5935),scale(0.00001 -0.00001),translate(-106.8029 6.5935),translate(106.7975 -6.592499999999999),rotate(0),translate(-106.7975 6.592499999999999)" >kb-pangrango</text>
    <line x1="106.8044" y1="-6.5959" x2="106.8052" y2="-6.6009" style="stroke:rgb(255,0,0);stroke-width:.00002" />
    <line x1="106.8044" y1="-6.5959" x2="106.80464200949889" y2="-6.597412559368083" style="stroke:rgb(0,0,0);stroke-width:.00002" />
    <line x1="106.80464200949889" y1="-6.597412559368083" x2="106.80495799050111" y2="-6.599387440631917" style="stroke:rgb(0,0,0);stroke-width:.00002" />
    <line x1="106.80495799050111" y1="-6.599387440631917" x2="106.8052" y2="-6.6009" style="stroke:rgb(0,0,0);stroke-width:.00002" />
    <circle cx="106.8044" cy="-6.5959" fill="rgb(255,0,0)" r=".0001" />
    <text x="106.8044" y="-6.5959" stroke="rgb(0,0,0)" transform="translate(106.8044 -6.5959),scale(0.00001 -0.00001),translate(-106.8044 6.5959),translate(106.7975 -6.592499999999999),rotate(0),translate(-106.7975 6.592499999999999)" >kb-astrid</text>
    <line x1="106.8052" y1="-6.6009" x2="106.8053" y2="-6.6017" style="stroke:rgb(255,0,0);stroke-width:.00002" />
    <line x1="106.8052" y1="-6.6009" x2="106.8051011583185" y2="-6.600109266547944" style="stroke:rgb(0,0,0);stroke-width:.00002" />
    <line x1="106.8051011583185" y1="-6.600109266547944" x2="106.80539884168151" y2="-6.602490733452056" style="stroke:rgb(0,0,0);stroke-width:.00002" />
    <line x1="106.80539884168151" y1="-6.602490733452056" x2="106.8053" y2="-6.6017" style="stroke:rgb(0,0,0);stroke-width:.00002" />
    <circle cx="106.8052" cy="-6.6009" fill="rgb(255,0,0)" r=".0001" />
    <text x="106.8052" y="-6.6009" stroke="rgb(0,0,0)" transform="translate(106.8052 -6.6009),scale(0.00001 -0.00001),translate(-106.8052 6.6009),translate(106.7975 -6.592499999999999),rotate(0),translate(-106.7975 6.592499999999999)" >kb-botani-1</text>
    <line x1="106.8053" y1="-6.6017" x2="106.8068" y2="-6.6043" style="stroke:rgb(255,0,0);stroke-width:.00002" />
    <line x1="106.8053" y1="-6.6017" x2="106.80605" y2="-6.603" style="stroke:rgb(0,0,0);stroke-width:.00002" />
    <line x1="106.80605" y1="-6.603" x2="106.80605" y2="-6.603" style="stroke:rgb(0,0,0);stroke-width:.00002" />
    <line x1="106.80605" y1="-6.603" x2="106.8068" y2="-6.6043" style="stroke:rgb(0,0,0);stroke-width:.00002" />
    <circle cx="106.8053" cy="-6.6017" fill="rgb(255,0,0)" r=".0001" />
    <text x="106.8053" y="-6.6017" stroke="rgb(0,0,0)" transform="translate(106.8053 -6.6017),scale(0.00001 -0.00001),translate(-106.8053 6.6017),translate(106.7975 -6.592499999999999),rotate(0),translate(-106.7975 6.592499999999999)" >pajajaran-otista</text>
    <line x1="106.8068" y1="-6.6043" x2="106.8111" y2="-6.6017" style="stroke:rgb(255,0,0);stroke-width:.00002" />
    <line x1="106.8068" y1="-6.6043" x2="106.80895" y2="-6.603" style="stroke:rgb(0,0,0);stroke-width:.00002" />
    <line x1="106.80895" y1="-6.603" x2="106.80895" y2="-6.603" style="stroke:rgb(0,0,0);stroke-width:.00002" />
    <line x1="106.80895" y1="-6.603" x2="106.8111" y2="-6.6017" style="stroke:rgb(0,0,0);stroke-width:.00002" />
    <circle cx="106.8068" cy="-6.6043" fill="rgb(255,0,0)" r=".0001" />
    <text x="106.8068" y="-6.6043" stroke="rgb(0,0,0)" transform="translate(106.8068 -6.6043),scale(0.00001 -0.00001),translate(-106.8068 6.6043),translate(106.7975 -6.592499999999999),rotate(0),translate(-106.7975 6.592499999999999)" >tol-1</text>
    <line x1="106.8111" y1="-6.6017" x2="106.8071" y2="-6.6045" style="stroke:rgb(255,0,0);stroke-width:.00002" />
    <line x1="106.8111" y1="-6.6017" x2="106.8091" y2="-6.6030999999999995" style="stroke:rgb(0,0,0);stroke-width:.00002" />
    <line x1="106.8091" y1="-6.6030999999999995" x2="106.8091" y2="-6.6030999999999995" style="stroke:rgb(0,0,0);stroke-width:.00002" />
    <line x1="106.8091" y1="-6.6030999999999995" x2="106.8071" y2="-6.6045" style="stroke:rgb(0,0,0);stroke-width:.00002" />
    <circle cx="106.8111" cy="-6.6017" fill="rgb(255,0,0)" r=".0001" />
    <text x="106.8111" y="-6.6017" stroke="rgb(0,0,0)" transform="translate(106.8111 -6.6017),scale(0.00001 -0.00001),translate(-106.8111 6.6017),translate(106.7975 -6.592499999999999),rotate(0),translate(-106.7975 6.592499999999999)" >tol-2</text>
    <line x1="106.8071" y1="-6.6045" x2="106.8087" y2="-6.6066" style="stroke:rgb(255,0,0);stroke-width:.00002" />
    <line x1="106.8071" y1="-6.6045" x2="106.8079" y2="-6.60555" style="stroke:rgb(0,0,0);stroke-width:.00002" />
    <line x1="106.8079" y1="-6.60555" x2="106.8079" y2="-6.60555" style="stroke:rgb(0,0,0);stroke-width:.00002" />
    <line x1="106.8079" y1="-6.60555" x2="106.8087" y2="-6.6066" style="stroke:rgb(0,0,0);stroke-width:.00002" />
    <circle cx="106.8071" cy="-6.6045" fill="rgb(255,0,0)" r=".0001" />
    <text x="106.8071" y="-6.6045" stroke="rgb(0,0,0)" transform="translate(106.8071 -6.6045),scale(0.00001 -0.00001),translate(-106.8071 6.6045),translate(106.7975 -6.592499999999999),rotate(0),translate(-106.7975 6.592499999999999)" >tol-3</text>
    <line x1="106.8087" y1="-6.6066" x2="106.8099" y2="-6.6078" style="stroke:rgb(255,0,0);stroke-width:.00002" />
    <line x1="106.8087" y1="-6.6066" x2="106.80915857864377" y2="-6.6070585786437634" style="stroke:rgb(0,0,0);stroke-width:.00002" />
    <line x1="106.80915857864377" y1="-6.6070585786437634" x2="106.80944142135624" y2="-6.607341421356238" style="stroke:rgb(0,0,0);stroke-width:.00002" />
    <line x1="106.80944142135624" y1="-6.607341421356238" x2="106.8099" y2="-6.6078" style="stroke:rgb(0,0,0);stroke-width:.00002" />
    <circle cx="106.8087" cy="-6.6066" fill="rgb(255,0,0)" r=".0001" />
    <text x="106.8087" y="-6.6066" stroke="rgb(0,0,0)" transform="translate(106.8087 -6.6066),scale(0.00001 -0.00001),translate(-106.8087 6.6066),translate(106.7975 -6.592499999999999),rotate(0),translate(-106.7975 6.592499999999999)" >bangka-1</text>
    <line x1="106.8099" y1="-6.6078" x2="106.8105" y2="-6.6087" style="stroke:rgb(255,0,0);stroke-width:.00002" />
    <line x1="106.8099" y1="-6.6078" x2="106.81008905996076" y2="-6.608083589941133" style="stroke:rgb(0,0,0);stroke-width:.00002" />
    <line x1="106.81008905996076" y1="-6.608083589941133" x2="106.81031094003926" y2="-6.608416410058867" style="stroke:rgb(0,0,0);stroke-width:.00002" />
    <line x1="106.81031094003926" y1="-6.608416410058867" x2="106.8105" y2="-6.6087" style="stroke:rgb(0,0,0);stroke-width:.00002" />
    <circle cx="106.8099" cy="-6.6078" fill="rgb(255,0,0)" r=".0001" />
    <text x="106.8099" y="-6.6078" stroke="rgb(0,0,0)" transform="translate(106.8099 -6.6078),scale(0.00001 -0.00001),translate(-106.8099 6.6078),translate(106.7975 -6.592499999999999),rotate(0),translate(-106.7975 6.592499999999999)" >pajajaran-ciheuleut</text>
    <line x1="106.8105" y1="-6.6087" x2="106.813" y2="-6.6125" style="stroke:rgb(255,0,0);stroke-width:.00002" />
    <line x1="106.8105" y1="-6.6087" x2="106.81153015339942" y2="-6.6102658331671025" style="stroke:rgb(0,0,0);stroke-width:.00002" />
    <line x1="106.81153015339942" y1="-6.6102658331671025" x2="106.81196984660059" y2="-6.610934166832897" style="stroke:rgb(0,0,0);stroke-width:.00002" />
    <line x1="106.81196984660059" y1="-6.610934166832897" x2="106.813" y2="-6.6125" style="stroke:rgb(0,0,0);stroke-width:.00002" />
    <circle cx="106.8105" cy="-6.6087" fill="rgb(255,0,0)" r=".0001" />
    <text x="106.8105" y="-6.6087" stroke="rgb(0,0,0)" transform="translate(106.8105 -6.6087),scale(0.00001 -0.00001),translate(-106.8105 6.6087),translate(106.7975 -6.592499999999999),rotate(0),translate(-106.7975 6.592499999999999)" >pajajaran-michelle-bakery</text>
    <line x1="106.813" y1="-6.6125" x2="106.8145" y2="-6.6161" style="stroke:rgb(255,0,0);stroke-width:.00002" />
    <line x1="106.813" y1="-6.6125" x2="106.81359615384615" y2="-6.613930769230769" style="stroke:rgb(0,0,0);stroke-width:.00002" />
    <line x1="106.81359615384615" y1="-6.613930769230769" x2="106.81390384615385" y2="-6.614669230769231" style="stroke:rgb(0,0,0);stroke-width:.00002" />
    <line x1="106.81390384615385" y1="-6.614669230769231" x2="106.8145" y2="-6.6161" style="stroke:rgb(0,0,0);stroke-width:.00002" />
    <circle cx="106.813" cy="-6.6125" fill="rgb(255,0,0)" r=".0001" />
    <text x="106.813" y="-6.6125" stroke="rgb(0,0,0)" transform="translate(106.813 -6.6125),scale(0.00001 -0.00001),translate(-106.813 6.6125),translate(106.7975 -6.592499999999999),rotate(0),translate(-106.7975 6.592499999999999)" >pajajaran-pjjindah</text>
  </g>
</svg>
