<svg width="1049.9999999998977" height="1849.9999999999961" xmlns="http://www.w3.org/2000/svg" xmlns:xlink="http://www.w3.org/1999/xlink" >
  <g transform="translate(524.9999999999488 924.9999999999981) rotate(30) scale(10000 -10000) translate(-106.8125 6.592499999999999)">
    <path d="M106.76 -6.5 L106.865 -6.5 L106.865 -6.685 L106.76 -6.685 Z" fill="none" stroke="black" stroke-width="0.0005" transform="translate(106.8125 -6.592499999999999) rotate(30) translate(-106.8125 6.592499999999999)" />
    <text x="106.7562983845269" y="-6.570122438536049" fill="black" transform="translate(106.7562983845269 -6.570122438536049) scale(0.0001 -0.0001) rotate(-30) translate(-106.7562983845269 6.570122438536049)">19</text>
    <text x="106.75983401735405" y="-6.567993989484745" fill="black" transform="translate(106.75983401735405 -6.567993989484745) scale(0.0001 -0.0001) rotate(-30) translate(-106.75983401735405 6.567993989484745)">19</text>
    <text x="106.7705748202908" y="-6.55777275749814" fill="black" transform="translate(106.7705748202908 -6.55777275749814) scale(0.0001 -0.0001) rotate(-30) translate(-106.7705748202908 6.55777275749814)">19</text>
    <text x="106.7783354199656" y="-6.555971207363521" fill="black" transform="translate(106.7783354199656 -6.555971207363521) scale(0.0001 -0.0001) rotate(-30) translate(-106.7783354199656 6.555971207363521)">19</text>
    <text x="106.77015799658393" y="-6.537984519282853" fill="black" transform="translate(106.77015799658393 -6.537984519282853) scale(0.0001 -0.0001) rotate(-30) translate(-106.77015799658393 6.537984519282853)">19</text>
    <text x="106.767781" y="-6.53387" fill="black" transform="translate(106.767781 -6.53387) scale(0.0001 -0.0001) rotate(-30) translate(-106.767781 6.53387)">19</text>
    <text x="106.77006013903103" y="-6.5370845432841085" fill="black" transform="translate(106.77006013903103 -6.5370845432841085) scale(0.0001 -0.0001) rotate(-30) translate(-106.77006013903103 6.5370845432841085)">19</text>
    <text x="106.77174187939971" y="-6.535948232224185" fill="black" transform="translate(106.77174187939971 -6.535948232224185) scale(0.0001 -0.0001) rotate(-30) translate(-106.77174187939971 6.535948232224185)">19</text>
    <text x="106.77295147130057" y="-6.536248114409256" fill="black" transform="translate(106.77295147130057 -6.536248114409256) scale(0.0001 -0.0001) rotate(-30) translate(-106.77295147130057 6.536248114409256)">19</text>
    <text x="106.77648894508852" y="-6.534495814664683" fill="black" transform="translate(106.77648894508852 -6.534495814664683) scale(0.0001 -0.0001) rotate(-30) translate(-106.77648894508852 6.534495814664683)">19</text>
    <text x="106.78470392173571" y="-6.534208681414624" fill="black" transform="translate(106.78470392173571 -6.534208681414624) scale(0.0001 -0.0001) rotate(-30) translate(-106.78470392173571 6.534208681414624)">19</text>
    <text x="106.78920377300334" y="-6.534266000065569" fill="black" transform="translate(106.78920377300334 -6.534266000065569) scale(0.0001 -0.0001) rotate(-30) translate(-106.78920377300334 6.534266000065569)">19</text>
    <text x="106.79015183839638" y="-6.533389164982478" fill="black" transform="translate(106.79015183839638 -6.533389164982478) scale(0.0001 -0.0001) rotate(-30) translate(-106.79015183839638 6.533389164982478)">19</text>
    <text x="106.7957493962957" y="-6.533660853003875" fill="black" transform="translate(106.7957493962957 -6.533660853003875) scale(0.0001 -0.0001) rotate(-30) translate(-106.7957493962957 6.533660853003875)">19</text>
    <text x="106.79593997530081" y="-6.531324532143266" fill="black" transform="translate(106.79593997530081 -6.531324532143266) scale(0.0001 -0.0001) rotate(-30) translate(-106.79593997530081 6.531324532143266)">19</text>
    <text x="106.79632601836109" y="-6.531279053097808" fill="black" transform="translate(106.79632601836109 -6.531279053097808) scale(0.0001 -0.0001) rotate(-30) translate(-106.79632601836109 6.531279053097808)">19</text>
    <text x="106.7964351321738" y="-6.530779373020942" fill="black" transform="translate(106.7964351321738 -6.530779373020942) scale(0.0001 -0.0001) rotate(-30) translate(-106.7964351321738 6.530779373020942)">19</text>
    <text x="106.800305" y="-6.530774" fill="black" transform="translate(106.800305 -6.530774) scale(0.0001 -0.0001) rotate(-30) translate(-106.800305 6.530774)">19</text>
    <text x="106.79676086782621" y="-6.531162626979058" fill="black" transform="translate(106.79676086782621 -6.531162626979058) scale(0.0001 -0.0001) rotate(-30) translate(-106.79676086782621 6.531162626979058)">19</text>
    <text x="106.79665598163892" y="-6.531642946902192" fill="black" transform="translate(106.79665598163892 -6.531642946902192) scale(0.0001 -0.0001) rotate(-30) translate(-106.79665598163892 6.531642946902192)">19</text>
    <text x="106.79631202469919" y="-6.531683467856734" fill="black" transform="translate(106.79631202469919 -6.531683467856734) scale(0.0001 -0.0001) rotate(-30) translate(-106.79631202469919 6.531683467856734)">19</text>
    <text x="106.7961166037043" y="-6.534079146996125" fill="black" transform="translate(106.7961166037043 -6.534079146996125) scale(0.0001 -0.0001) rotate(-30) translate(-106.7961166037043 6.534079146996125)">19</text>
    <text x="106.79030016160362" y="-6.5337968350175215" fill="black" transform="translate(106.79030016160362 -6.5337968350175215) scale(0.0001 -0.0001) rotate(-30) translate(-106.79030016160362 6.5337968350175215)">19</text>
    <text x="106.78935822699665" y="-6.534667999934433" fill="black" transform="translate(106.78935822699665 -6.534667999934433) scale(0.0001 -0.0001) rotate(-30) translate(-106.78935822699665 6.534667999934433)">19</text>
    <text x="106.78051207826428" y="-6.534555318585376" fill="black" transform="translate(106.78051207826428 -6.534555318585376) scale(0.0001 -0.0001) rotate(-30) translate(-106.78051207826428 6.534555318585376)">19</text>
    <text x="106.77653905491151" y="-6.534694185335317" fill="black" transform="translate(106.77653905491151 -6.534694185335317) scale(0.0001 -0.0001) rotate(-30) translate(-106.77653905491151 6.534694185335317)">19</text>
    <text x="106.77297452869944" y="-6.536459885590746" fill="black" transform="translate(106.77297452869944 -6.536459885590746) scale(0.0001 -0.0001) rotate(-30) translate(-106.77297452869944 6.536459885590746)">19</text>
    <text x="106.77178012060028" y="-6.536163767775815" fill="black" transform="translate(106.77178012060028 -6.536163767775815) scale(0.0001 -0.0001) rotate(-30) translate(-106.77178012060028 6.536163767775815)">19</text>
    <text x="106.77007400989935" y="-6.5373165452764495" fill="black" transform="translate(106.77007400989935 -6.5373165452764495) scale(0.0001 -0.0001) rotate(-30) translate(-106.77007400989935 6.5373165452764495)">19</text>
    <text x="106.7786185800344" y="-6.556110792636477" fill="black" transform="translate(106.7786185800344 -6.556110792636477) scale(0.0001 -0.0001) rotate(-30) translate(-106.7786185800344 6.556110792636477)">19</text>
    <text x="106.77067317970919" y="-6.557955242501863" fill="black" transform="translate(106.77067317970919 -6.557955242501863) scale(0.0001 -0.0001) rotate(-30) translate(-106.77067317970919 6.557955242501863)">19</text>
    <text x="106.75995598264595" y="-6.568154010515263" fill="black" transform="translate(106.75995598264595 -6.568154010515263) scale(0.0001 -0.0001) rotate(-30) translate(-106.75995598264595 6.568154010515263)">19</text>
    <text x="106.75675800504055" y="-6.570079191305534" fill="black" transform="translate(106.75675800504055 -6.570079191305534) scale(0.0001 -0.0001) rotate(-30) translate(-106.75675800504055 6.570079191305534)">19</text>
    <text x="106.7553305898767" y="-6.571311879918423" fill="black" transform="translate(106.7553305898767 -6.571311879918423) scale(0.0001 -0.0001) rotate(-30) translate(-106.7553305898767 6.571311879918423)">19</text>
    <text x="106.75478771312596" y="-6.568567961419268" fill="black" transform="translate(106.75478771312596 -6.568567961419268) scale(0.0001 -0.0001) rotate(-30) translate(-106.75478771312596 6.568567961419268)">19</text>
    <path d="M106.7562983845269 -6.570122438536049 L106.75983401735405 -6.567993989484745 L106.7705748202908 -6.55777275749814 L106.7783354199656 -6.555971207363521 L106.77015799658393 -6.537984519282853 L106.767781 -6.53387 L106.77006013903103 -6.5370845432841085 L106.77174187939971 -6.535948232224185 L106.77295147130057 -6.536248114409256 L106.77648894508852 -6.534495814664683 L106.78470392173571 -6.534208681414624 L106.78920377300334 -6.534266000065569 L106.79015183839638 -6.533389164982478 L106.7957493962957 -6.533660853003875 L106.79593997530081 -6.531324532143266 L106.79632601836109 -6.531279053097808 L106.7964351321738 -6.530779373020942 L106.800305 -6.530774 L106.79676086782621 -6.531162626979058 L106.79665598163892 -6.531642946902192 L106.79631202469919 -6.531683467856734 L106.7961166037043 -6.534079146996125 L106.79030016160362 -6.5337968350175215 L106.78935822699665 -6.534667999934433 L106.78051207826428 -6.534555318585376 L106.77653905491151 -6.534694185335317 L106.77297452869944 -6.536459885590746 L106.77178012060028 -6.536163767775815 L106.77007400989935 -6.5373165452764495 L106.7786185800344 -6.556110792636477 L106.77067317970919 -6.557955242501863 L106.75995598264595 -6.568154010515263 L106.75675800504055 -6.570079191305534 L106.7553305898767 -6.571311879918423 L106.75478771312596 -6.568567961419268 Z" stroke="darkgreen" stroke-width="0.0001" fill="none" />
  </g>
</svg>
