<svg width="2100" height="2970" xmlns="http://www.w3.org/2000/svg" xmlns:xlink="http://www.w3.org/1999/xlink" >
  <g transform="translate(280 20) rotate(30) scale(0.5)">    <path d="M881.2500000000085 1404.8076923076935 L852.185030555674 1336.184142302138 L786.6402366552023 1246.2505878807206 L775.782090076433 1250.9040792717074 L766.1843853108792 1244.5056094280937 L754.5267641274052 1246.170983882887 L740.7932195433915 1224.8076923076999 L729.1625169245748 1224.8076923076999 L716.6961362616604 1170.2672769081023 L656.4754317534778 1183.9538006599814 L660.6241704918432 1207.4633201763907 L684.2988203948437 1225.2193076037743 L709.9538619741992 1256.9108295545993 L730.190929930103 1286.48808272111 L725.8441284556056 1290.834884195674 L836.6808783090391 1407.5829273746076 L840.4343250560515 1406.3317784589367 L855.9998128577746 1404.7752296787485 L883.3690641608456 1417.0913927651518 L884.6791127473637 1421.45822138651 L845.7922739685415 1324.2411244393481 L813.7500000001125 1272.8076923076947 L851.7863950432343 1327.8938370734693 L880.1356594910743 1314.4652381244125 L909.701996253844 1348.4665254014537 L914.9372483478686 1341.9224602838297 L925.2648254664848 1340.2011974307004 L929.7430120745815 1344.6793840387172 L937.7542845741544 1343.0771295388531 L939.2542845739911 1347.577129538856 L943.872587273404 1346.6534689989762 L936.4449970125861 1319.9141440605622 L951.6135675892485 1313.846715829937 L21622119940030172 167571429535659840 L954.5044621702488 1312.8083994208582 L961.9039724304486 1310.3418960008182 L972.7500000000617 1310.3076923077006 L962.5960275698304 1313.2734886145759 L954.9805627687675 1315.8119768815523 L959.1170320442473 1336.4943232588575 L966.7500000000757 1344.8076923077 L956.382967955733 1338.121061356564 L952.1327815133702 1316.8701291444572 L940.0550029873784 1321.7012405548433 L947.6274127266322 1348.96191561641 L937.2457154259735 1351.0382550765498 L935.7457154261368 1346.5382550765469 L928.7569879256381 1347.9360005766625 L924.2351745334361 1343.414187184687 L916.5627516523074 1344.6929243315774 L909.79800374636 1353.1488592139451 L879.3643405088432 1318.1501464909873 L853.1663591606105 1330.5597166033845 Z" stroke="brown" stroke-width="0.5" fill="none" />
  </g>
</svg>
