<svg width="1049.9999999998977" height="1849.9999999999961" xmlns="http://www.w3.org/2000/svg" xmlns:xlink="http://www.w3.org/1999/xlink" >
  <g transform="translate(524.9999999999488 924.9999999999981) rotate(30) scale(10000 -10000) translate(-106.8125 6.592499999999999)">
    <path d="M106.76 -6.5 L106.865 -6.5 L106.865 -6.685 L106.76 -6.685 Z" fill="none" stroke="black" stroke-width="0.001" transform="translate(106.8125 -6.592499999999999) rotate(30) translate(-106.8125 6.592499999999999)" />
    <path d="M106.815 -6.6175 L106.81312467074078 -6.613350193332633 L106.80868536488735 -6.607259052743068 L106.80793761201016 -6.607579518261865 L106.80725791804144 -6.607126388949382 L106.8064035685503 -6.607248438876691 L106.80547242927241 -6.6058 L106.80462166892328 -6.6058 L106.80375948483491 -6.602027944613388 L106.80013005756713 -6.602852814446975 L106.80038322273222 -6.604287417049169 L106.80193984271934 -6.605454882039497 L106.80366051492997 -6.607580418299718 L106.80505879065736 -6.60962405205511 L106.80477921712742 -6.609903625585057 L106.8120574504412 -6.617570031342252 L106.81225791000746 -6.617503211486831 L106.81333330838105 -6.617395671649474 L106.81498254188811 -6.618137826727659 L106.81545721503295 -6.619720070543795 L106.8122723031958 -6.6117577909508904 L106.8105 -6.6087 L106.81307151933908 -6.612244819302103 L106.81495142126548 -6.611354339442226 L106.8168935995005 -6.613587844412495 L106.81719163311304 -6.613215302396818 L106.81796864339553 -6.613085800683066 L106.81826573494328 -6.613382892230801 L106.81883390460985 -6.613269258297487 L106.81893390460985 -6.6135692582974865 L106.81904967830309 -6.613546103558836 L106.818559332935 -6.611780860233716 L106.81958180901188 -6.6113718698029595 L106.8194 -6.6084 L106.81996726162271 -6.611233427615087 L106.82035386299071 -6.611104560492416 L106.8211 -6.6112 L106.82044613700928 -6.611495439507586 L106.82003074170252 -6.611633904609843 L106.82028227093924 -6.612891550793518 L106.8207 -6.6135 L106.81991772906075 -6.613108449206486 L106.81965103753511 -6.611774991578245 L106.819040667065 -6.6120191397662875 L106.81955032169691 -6.613853896441164 L106.81866609539016 -6.614030741702512 L106.81856609539015 -6.613730741702514 L106.81813426505673 -6.613817107769199 L106.81783135660446 -6.613514199316931 L106.81740836688697 -6.613584697603183 L106.8169064004995 -6.614212155587504 L106.81484857873451 -6.611845660557775 L106.81325551455473 -6.612600269906098 Z" stroke="brown" stroke-width="0.0002" fill="none" />
    <circle 
      cx="106.815" cy="-12.6175"
      r="15" transform="translate(106.815 -6.6175) scale(0.00001 -0.00001) translate(-106.815 6.6175) translate(106.8125 -6.592499999999999) rotate(-30) translate(-106.8125 6.592499999999999)"
      fill="white" stroke="black" stroke-width="2"/>
    <circle 
      cx="106.81312467074078" cy="-12.613350193332632"
      r="15" transform="translate(106.81312467074078 -6.613350193332633) scale(0.00001 -0.00001) translate(-106.81312467074078 6.613350193332633) translate(106.8125 -6.592499999999999) rotate(-30) translate(-106.8125 6.592499999999999)"
      fill="white" stroke="black" stroke-width="2"/>
    <circle 
      cx="106.80868536488735" cy="-12.607259052743068"
      r="15" transform="translate(106.80868536488735 -6.607259052743068) scale(0.00001 -0.00001) translate(-106.80868536488735 6.607259052743068) translate(106.8125 -6.592499999999999) rotate(-30) translate(-106.8125 6.592499999999999)"
      fill="white" stroke="black" stroke-width="2"/>
    <circle 
      cx="106.80375948483491" cy="-12.602027944613388"
      r="15" transform="translate(106.80375948483491 -6.602027944613388) scale(0.00001 -0.00001) translate(-106.80375948483491 6.602027944613388) translate(106.8125 -6.592499999999999) rotate(-30) translate(-106.8125 6.592499999999999)"
      fill="white" stroke="black" stroke-width="2"/>
    <circle 
      cx="106.81545721503295" cy="-12.619720070543796"
      r="15" transform="translate(106.81545721503295 -6.619720070543795) scale(0.00001 -0.00001) translate(-106.81545721503295 6.619720070543795) translate(106.8125 -6.592499999999999) rotate(-30) translate(-106.8125 6.592499999999999)"
      fill="white" stroke="black" stroke-width="2"/>
    <circle 
      cx="106.8122723031958" cy="-12.61175779095089"
      r="15" transform="translate(106.8122723031958 -6.6117577909508904) scale(0.00001 -0.00001) translate(-106.8122723031958 6.6117577909508904) translate(106.8125 -6.592499999999999) rotate(-30) translate(-106.8125 6.592499999999999)"
      fill="white" stroke="black" stroke-width="2"/>
    <circle 
      cx="106.8105" cy="-12.608699999999999"
      r="15" transform="translate(106.8105 -6.6087) scale(0.00001 -0.00001) translate(-106.8105 6.6087) translate(106.8125 -6.592499999999999) rotate(-30) translate(-106.8125 6.592499999999999)"
      fill="white" stroke="black" stroke-width="2"/>
    <circle 
      cx="106.81307151933908" cy="-12.612244819302102"
      r="15" transform="translate(106.81307151933908 -6.612244819302103) scale(0.00001 -0.00001) translate(-106.81307151933908 6.612244819302103) translate(106.8125 -6.592499999999999) rotate(-30) translate(-106.8125 6.592499999999999)"
      fill="white" stroke="black" stroke-width="2"/>
    <circle 
      cx="106.815" cy="-12.6175"
      r="15" transform="translate(106.815 -6.6175) scale(0.00001 -0.00001) translate(-106.815 6.6175) translate(106.8125 -6.592499999999999) rotate(-30) translate(-106.8125 6.592499999999999)"
      fill="white" stroke="none"/>
    <circle 
      cx="106.81312467074078" cy="-12.613350193332632"
      r="15" transform="translate(106.81312467074078 -6.613350193332633) scale(0.00001 -0.00001) translate(-106.81312467074078 6.613350193332633) translate(106.8125 -6.592499999999999) rotate(-30) translate(-106.8125 6.592499999999999)"
      fill="white" stroke="none"/>
    <circle 
      cx="106.80868536488735" cy="-12.607259052743068"
      r="15" transform="translate(106.80868536488735 -6.607259052743068) scale(0.00001 -0.00001) translate(-106.80868536488735 6.607259052743068) translate(106.8125 -6.592499999999999) rotate(-30) translate(-106.8125 6.592499999999999)"
      fill="white" stroke="none"/>
    <circle 
      cx="106.80375948483491" cy="-12.602027944613388"
      r="15" transform="translate(106.80375948483491 -6.602027944613388) scale(0.00001 -0.00001) translate(-106.80375948483491 6.602027944613388) translate(106.8125 -6.592499999999999) rotate(-30) translate(-106.8125 6.592499999999999)"
      fill="white" stroke="none"/>
    <circle 
      cx="106.81545721503295" cy="-12.619720070543796"
      r="15" transform="translate(106.81545721503295 -6.619720070543795) scale(0.00001 -0.00001) translate(-106.81545721503295 6.619720070543795) translate(106.8125 -6.592499999999999) rotate(-30) translate(-106.8125 6.592499999999999)"
      fill="white" stroke="none"/>
    <circle 
      cx="106.8122723031958" cy="-12.61175779095089"
      r="15" transform="translate(106.8122723031958 -6.6117577909508904) scale(0.00001 -0.00001) translate(-106.8122723031958 6.6117577909508904) translate(106.8125 -6.592499999999999) rotate(-30) translate(-106.8125 6.592499999999999)"
      fill="white" stroke="none"/>
    <circle 
      cx="106.8105" cy="-12.608699999999999"
      r="15" transform="translate(106.8105 -6.6087) scale(0.00001 -0.00001) translate(-106.8105 6.6087) translate(106.8125 -6.592499999999999) rotate(-30) translate(-106.8125 6.592499999999999)"
      fill="white" stroke="none"/>
    <circle 
      cx="106.81307151933908" cy="-12.612244819302102"
      r="15" transform="translate(106.81307151933908 -6.612244819302103) scale(0.00001 -0.00001) translate(-106.81307151933908 6.612244819302103) translate(106.8125 -6.592499999999999) rotate(-30) translate(-106.8125 6.592499999999999)"
      fill="white" stroke="none"/>
    <text x="106.815" y="-6.6175" fill="black" text-anchor="middle" transform="translate(106.815 -6.6175) scale(0.00001 -0.00001) translate(-106.815 6.6175) translate(106.8125 -6.592499999999999) rotate(-30) translate(-106.8125 6.592499999999999)">11</text>
    <text x="106.81312467074078" y="-6.613350193332633" fill="black" text-anchor="middle" transform="translate(106.81312467074078 -6.613350193332633) scale(0.00001 -0.00001) translate(-106.81312467074078 6.613350193332633) translate(106.8125 -6.592499999999999) rotate(-30) translate(-106.8125 6.592499999999999)">11</text>
    <text x="106.80868536488735" y="-6.607259052743068" fill="black" text-anchor="middle" transform="translate(106.80868536488735 -6.607259052743068) scale(0.00001 -0.00001) translate(-106.80868536488735 6.607259052743068) translate(106.8125 -6.592499999999999) rotate(-30) translate(-106.8125 6.592499999999999)">11</text>
    <text x="106.80375948483491" y="-6.602027944613388" fill="black" text-anchor="middle" transform="translate(106.80375948483491 -6.602027944613388) scale(0.00001 -0.00001) translate(-106.80375948483491 6.602027944613388) translate(106.8125 -6.592499999999999) rotate(-30) translate(-106.8125 6.592499999999999)">11</text>
    <text x="106.81545721503295" y="-6.619720070543795" fill="black" text-anchor="middle" transform="translate(106.81545721503295 -6.619720070543795) scale(0.00001 -0.00001) translate(-106.81545721503295 6.619720070543795) translate(106.8125 -6.592499999999999) rotate(-30) translate(-106.8125 6.592499999999999)">11</text>
    <text x="106.8122723031958" y="-6.6117577909508904" fill="black" text-anchor="middle" transform="translate(106.8122723031958 -6.6117577909508904) scale(0.00001 -0.00001) translate(-106.8122723031958 6.6117577909508904) translate(106.8125 -6.592499999999999) rotate(-30) translate(-106.8125 6.592499999999999)">11</text>
    <text x="106.8105" y="-6.6087" fill="black" text-anchor="middle" transform="translate(106.8105 -6.6087) scale(0.00001 -0.00001) translate(-106.8105 6.6087) translate(106.8125 -6.592499999999999) rotate(-30) translate(-106.8125 6.592499999999999)">11</text>
    <text x="106.81307151933908" y="-6.612244819302103" fill="black" text-anchor="middle" transform="translate(106.81307151933908 -6.612244819302103) scale(0.00001 -0.00001) translate(-106.81307151933908 6.612244819302103) translate(106.8125 -6.592499999999999) rotate(-30) translate(-106.8125 6.592499999999999)">11</text>
    <line x1="106.813" y1="-6.6125" x2="106.815" y2="-6.6175" style="stroke:rgb(255,0,0);stroke-width:.00002" />
    <line x1="106.815" y1="-6.6175" x2="106.813" y2="-6.6125" style="stroke:rgb(255,0,0);stroke-width:.00002" />
    <line x1="106.813" y1="-6.6125" x2="106.8087" y2="-6.6066" style="stroke:rgb(255,0,0);stroke-width:.00002" />
    <line x1="106.8087" y1="-6.6066" x2="106.808" y2="-6.6069" style="stroke:rgb(255,0,0);stroke-width:.00002" />
    <line x1="106.808" y1="-6.6069" x2="106.8074" y2="-6.6065" style="stroke:rgb(255,0,0);stroke-width:.00002" />
    <line x1="106.8074" y1="-6.6065" x2="106.8067" y2="-6.6066" style="stroke:rgb(255,0,0);stroke-width:.00002" />
    <line x1="106.8067" y1="-6.6066" x2="106.8058" y2="-6.6052" style="stroke:rgb(255,0,0);stroke-width:.00002" />
    <line x1="106.8058" y1="-6.6052" x2="106.8051" y2="-6.6052" style="stroke:rgb(255,0,0);stroke-width:.00002" />
    <line x1="106.8051" y1="-6.6052" x2="106.8043" y2="-6.6017" style="stroke:rgb(255,0,0);stroke-width:.00002" />
    <line x1="106.8043" y1="-6.6017" x2="106.7999" y2="-6.6027" style="stroke:rgb(255,0,0);stroke-width:.00002" />
    <line x1="106.7999" y1="-6.6027" x2="106.8002" y2="-6.6044" style="stroke:rgb(255,0,0);stroke-width:.00002" />
    <line x1="106.8002" y1="-6.6044" x2="106.8018" y2="-6.6056" style="stroke:rgb(255,0,0);stroke-width:.00002" />
    <line x1="106.8018" y1="-6.6056" x2="106.8035" y2="-6.6077" style="stroke:rgb(255,0,0);stroke-width:.00002" />
    <line x1="106.8035" y1="-6.6077" x2="106.8048" y2="-6.6096" style="stroke:rgb(255,0,0);stroke-width:.00002" />
    <line x1="106.8048" y1="-6.6096" x2="106.8045" y2="-6.6099" style="stroke:rgb(255,0,0);stroke-width:.00002" />
    <line x1="106.8045" y1="-6.6099" x2="106.812" y2="-6.6178" style="stroke:rgb(255,0,0);stroke-width:.00002" />
    <line x1="106.812" y1="-6.6178" x2="106.8123" y2="-6.6177" style="stroke:rgb(255,0,0);stroke-width:.00002" />
    <line x1="106.8123" y1="-6.6177" x2="106.8133" y2="-6.6176" style="stroke:rgb(255,0,0);stroke-width:.00002" />
    <line x1="106.8133" y1="-6.6176" x2="106.8153" y2="-6.6185" style="stroke:rgb(255,0,0);stroke-width:.00002" />
    <line x1="106.8153" y1="-6.6185" x2="106.815" y2="-6.6175" style="stroke:rgb(255,0,0);stroke-width:.00002" />
    <line x1="106.815" y1="-6.6175" x2="106.813" y2="-6.6125" style="stroke:rgb(255,0,0);stroke-width:.00002" />
    <line x1="106.813" y1="-6.6125" x2="106.8105" y2="-6.6087" style="stroke:rgb(255,0,0);stroke-width:.00002" />
    <line x1="106.8105" y1="-6.6087" x2="106.813" y2="-6.6125" style="stroke:rgb(255,0,0);stroke-width:.00002" />
    <line x1="106.813" y1="-6.6125" x2="106.8149" y2="-6.6116" style="stroke:rgb(255,0,0);stroke-width:.00002" />
    <line x1="106.8149" y1="-6.6116" x2="106.8169" y2="-6.6139" style="stroke:rgb(255,0,0);stroke-width:.00002" />
    <line x1="106.8169" y1="-6.6139" x2="106.8173" y2="-6.6134" style="stroke:rgb(255,0,0);stroke-width:.00002" />
    <line x1="106.8173" y1="-6.6134" x2="106.8179" y2="-6.6133" style="stroke:rgb(255,0,0);stroke-width:.00002" />
    <line x1="106.8179" y1="-6.6133" x2="106.8182" y2="-6.6136" style="stroke:rgb(255,0,0);stroke-width:.00002" />
    <line x1="106.8182" y1="-6.6136" x2="106.8187" y2="-6.6135" style="stroke:rgb(255,0,0);stroke-width:.00002" />
    <line x1="106.8187" y1="-6.6135" x2="106.8188" y2="-6.6138" style="stroke:rgb(255,0,0);stroke-width:.00002" />
    <line x1="106.8188" y1="-6.6138" x2="106.8193" y2="-6.6137" style="stroke:rgb(255,0,0);stroke-width:.00002" />
    <line x1="106.8193" y1="-6.6137" x2="106.8188" y2="-6.6119" style="stroke:rgb(255,0,0);stroke-width:.00002" />
    <line x1="106.8188" y1="-6.6119" x2="106.8198" y2="-6.6115" style="stroke:rgb(255,0,0);stroke-width:.00002" />
    <line x1="106.8198" y1="-6.6115" x2="106.8194" y2="-6.6084" style="stroke:rgb(255,0,0);stroke-width:.00002" />
    <line x1="106.8194" y1="-6.6084" x2="106.8198" y2="-6.6115" style="stroke:rgb(255,0,0);stroke-width:.00002" />
    <line x1="106.8198" y1="-6.6115" x2="106.8204" y2="-6.6113" style="stroke:rgb(255,0,0);stroke-width:.00002" />
    <line x1="106.8204" y1="-6.6113" x2="106.8211" y2="-6.6112" style="stroke:rgb(255,0,0);stroke-width:.00002" />
    <line x1="106.8211" y1="-6.6112" x2="106.8204" y2="-6.6113" style="stroke:rgb(255,0,0);stroke-width:.00002" />
    <line x1="106.8204" y1="-6.6113" x2="106.8198" y2="-6.6115" style="stroke:rgb(255,0,0);stroke-width:.00002" />
    <line x1="106.8198" y1="-6.6115" x2="106.8201" y2="-6.613" style="stroke:rgb(255,0,0);stroke-width:.00002" />
    <line x1="106.8201" y1="-6.613" x2="106.8207" y2="-6.6135" style="stroke:rgb(255,0,0);stroke-width:.00002" />
    <line x1="106.8207" y1="-6.6135" x2="106.8201" y2="-6.613" style="stroke:rgb(255,0,0);stroke-width:.00002" />
    <line x1="106.8201" y1="-6.613" x2="106.8198" y2="-6.6115" style="stroke:rgb(255,0,0);stroke-width:.00002" />
    <line x1="106.8198" y1="-6.6115" x2="106.8188" y2="-6.6119" style="stroke:rgb(255,0,0);stroke-width:.00002" />
    <line x1="106.8188" y1="-6.6119" x2="106.8193" y2="-6.6137" style="stroke:rgb(255,0,0);stroke-width:.00002" />
    <line x1="106.8193" y1="-6.6137" x2="106.8188" y2="-6.6138" style="stroke:rgb(255,0,0);stroke-width:.00002" />
    <line x1="106.8188" y1="-6.6138" x2="106.8187" y2="-6.6135" style="stroke:rgb(255,0,0);stroke-width:.00002" />
    <line x1="106.8187" y1="-6.6135" x2="106.8182" y2="-6.6136" style="stroke:rgb(255,0,0);stroke-width:.00002" />
    <line x1="106.8182" y1="-6.6136" x2="106.8179" y2="-6.6133" style="stroke:rgb(255,0,0);stroke-width:.00002" />
    <line x1="106.8179" y1="-6.6133" x2="106.8173" y2="-6.6134" style="stroke:rgb(255,0,0);stroke-width:.00002" />
    <line x1="106.8173" y1="-6.6134" x2="106.8169" y2="-6.6139" style="stroke:rgb(255,0,0);stroke-width:.00002" />
    <line x1="106.8169" y1="-6.6139" x2="106.8149" y2="-6.6116" style="stroke:rgb(255,0,0);stroke-width:.00002" />
    <line x1="106.8149" y1="-6.6116" x2="106.813" y2="-6.6125" style="stroke:rgb(255,0,0);stroke-width:.00002" />
  </g>
</svg>
