<svg width="2100" height="2970" xmlns="http://www.w3.org/2000/svg" xmlns:xlink="http://www.w3.org/1999/xlink" >
  <g transform="translate(280 20) rotate(30) scale(0.5)">    <path d="M922.9406626134846 1386.933178478763 L937.4089474490717 1398.1862889065587 L950.6646600670905 1415.8605723971395 L960.963310883713 1411.4690722375556 L1077.201708008488 1515.2776576753301 L1091.399999999993 1548.1926923076983 L1074.2769556582061 1516.1190008704427 L1100.529338216802 1472.4671395563803 L1162.242991904307 1419.49900363742 L1212.3206659191083 1337.3990744272023 L1237.5599999999595 1218.0426923077002 L1215.1593340808658 1338.5063101882 L1164.5570080957698 1421.4663809779527 L1102.8506617832363 1474.4282450589974 L1076.3318892664415 1518.5230535030878 L960.3866891164188 1414.9763123778391 L946.8353399331448 1420.7548122182643 L933.09105255112 1402.4290957088624 L920.5593373866634 1392.6822061366406 L876.5474457120632 1387.1807196773154 L881.2500000000085 1404.8076923076935 L882.1004484395729 1411.6487685627353 L851.0945886987571 1337.2347051843858 L786.1322024316593 1248.1002682134067 L775.6261201017907 1252.602874926295 L765.8291804145563 1246.0715818015076 L753.7856855028053 1247.7920810746111 L739.9742927241277 1226.3076923076965 L727.9666892327725 1226.3076923076965 L715.8835233460366 1173.4438415528002 L662.8721936128841 1184.7228478790216 L604.7458093630382 1214.7882190427272 L586.1074038524379 1202.3626153691446 L548.2206038185495 1093.438065271276 L565.165910549041 1048.2505806565878 L613.4431111254486 1021.4299136697568 L631.8958614716337 1029.8175274635246 L667.8194406436972 1011.3944160240151 L684.7583611399273 1018.3100035250435 L698.6389543054656 1028.8790474984644 L737.582731910635 1091.1890916664768 L747.7811187115009 1154.9290091723685 L735.2957151158108 1172.4085742063105 L757.1258390472764 1200.475876403869 L973.0976593918967 1069.8882641024932 L770.3511767951028 1211.8108019205686 L808.3497739204688 1256.5948628183976 L681.0430515789108 1065.6347793078858 L853.910964318942 1328.3940066729403 L875.8496278435075 1381.0467991325559 Z" stroke="orange" stroke-width="0.5" fill="none" />
  </g>
</svg>
