<svg width="1049.9999999998977" height="1849.9999999999961" xmlns="http://www.w3.org/2000/svg" xmlns:xlink="http://www.w3.org/1999/xlink" >
  <g transform="translate(524.9999999999488 924.9999999999981) rotate(30) scale(10000 -10000) translate(-106.8125 6.592499999999999)">
    <path d="M106.76 -6.5 L106.865 -6.5 L106.865 -6.685 L106.76 -6.685 Z" fill="none" stroke="black" stroke-width="0.0025" transform="translate(106.8125 -6.592499999999999) rotate(30) translate(-106.8125 6.592499999999999)" />
    <path d="M106.7897 -6.5959 L106.79099942663748 -6.5949879249716865 L106.79223378066065 -6.591696314243243 L106.79670284770458 -6.589213499218847 L106.79831605605251 -6.589946775740641 L106.8006621637081 -6.588743593769797 L106.8019840272282 -6.589283265872262 L106.80230325517533 -6.5895263343182915 L106.80810656092035 -6.59881162351029 L106.80838738540785 -6.600566776557196 L106.8064589295174 -6.603266614803815 L106.79869558577904 -6.60494106149248 L106.8006224255959 -6.6039776415840405 L106.80070363675696 -6.604131040443835 L106.80336935687626 -6.607367986302989 L106.80736867432357 -6.61096737200557 L106.81116459086137 -6.615562428867107 L106.82114603840148 -6.624355608842932 L106.81598218609909 -6.620667142912665 L106.81577098685712 -6.620719942723158 L106.8138981466312 -6.615621655441485 L106.8178587550151 -6.6161167314894715 L106.81888785965994 -6.616917146213235 L106.8195 -6.6184 L106.81831214034007 -6.617482853786761 L106.81754124498491 -6.616883268510529 L106.81554849749752 -6.616634175074605 L106.81703552670457 -6.620682199027137 L106.81737340841065 -6.621357962439272 L106.81619999999998 -6.6225313708499005 L106.81366066707885 -6.619992037928723 L106.81523819736476 -6.621118845275807 L106.81356839888284 -6.621675444769787 L106.81346183485171 -6.624552673609919 L106.8110671254652 -6.6248792248898996 L106.81095165187216 -6.625341119262081 L106.80938431078053 -6.626386013323158 L106.80813049248218 -6.624818740450216 L106.80785637436186 -6.622351677367181 L106.80726911300818 -6.622099993929887 L106.80655590967073 -6.620174344918802 L106.80351617279764 -6.61700795234265 L106.80395250651262 -6.61784095307125 L106.80057329611371 -6.61290210710363 L106.79933885717719 -6.612314279038613 L106.79579617502154 -6.609263636071242 L106.79342203877697 -6.6084722573230605 L106.7943138663842 -6.605440043458496 L106.79508662528109 -6.6044565321351865 L106.78942597098252 -6.59313522353803 L106.79108140391884 -6.597894593229956 Z" stroke="silver" stroke-width="0.0005" fill="none" />
    <text x="106.7897" y="-6.5959" fill="black" text-anchor="middle" transform="translate(106.7897 -6.5959) scale(0.00002 -0.00002) translate(-106.7897 6.5959) translate(106.8125 -6.592499999999999) rotate(-30) translate(-106.8125 6.592499999999999)">10</text>
    <text x="106.79099942663748" y="-6.5949879249716865" fill="black" text-anchor="middle" transform="translate(106.79099942663748 -6.5949879249716865) scale(0.00002 -0.00002) translate(-106.79099942663748 6.5949879249716865) translate(106.8125 -6.592499999999999) rotate(-30) translate(-106.8125 6.592499999999999)">10</text>
    <text x="106.79223378066065" y="-6.591696314243243" fill="black" text-anchor="middle" transform="translate(106.79223378066065 -6.591696314243243) scale(0.00002 -0.00002) translate(-106.79223378066065 6.591696314243243) translate(106.8125 -6.592499999999999) rotate(-30) translate(-106.8125 6.592499999999999)">10</text>
    <text x="106.79670284770458" y="-6.589213499218847" fill="black" text-anchor="middle" transform="translate(106.79670284770458 -6.589213499218847) scale(0.00002 -0.00002) translate(-106.79670284770458 6.589213499218847) translate(106.8125 -6.592499999999999) rotate(-30) translate(-106.8125 6.592499999999999)">10</text>
    <text x="106.8006621637081" y="-6.588743593769797" fill="black" text-anchor="middle" transform="translate(106.8006621637081 -6.588743593769797) scale(0.00002 -0.00002) translate(-106.8006621637081 6.588743593769797) translate(106.8125 -6.592499999999999) rotate(-30) translate(-106.8125 6.592499999999999)">10</text>
    <text x="106.8019840272282" y="-6.589283265872262" fill="black" text-anchor="middle" transform="translate(106.8019840272282 -6.589283265872262) scale(0.00002 -0.00002) translate(-106.8019840272282 6.589283265872262) translate(106.8125 -6.592499999999999) rotate(-30) translate(-106.8125 6.592499999999999)">10</text>
    <text x="106.80230325517533" y="-6.5895263343182915" fill="black" text-anchor="middle" transform="translate(106.80230325517533 -6.5895263343182915) scale(0.00002 -0.00002) translate(-106.80230325517533 6.5895263343182915) translate(106.8125 -6.592499999999999) rotate(-30) translate(-106.8125 6.592499999999999)">10</text>
    <text x="106.80810656092035" y="-6.59881162351029" fill="black" text-anchor="middle" transform="translate(106.80810656092035 -6.59881162351029) scale(0.00002 -0.00002) translate(-106.80810656092035 6.59881162351029) translate(106.8125 -6.592499999999999) rotate(-30) translate(-106.8125 6.592499999999999)">10</text>
    <text x="106.80838738540785" y="-6.600566776557196" fill="black" text-anchor="middle" transform="translate(106.80838738540785 -6.600566776557196) scale(0.00002 -0.00002) translate(-106.80838738540785 6.600566776557196) translate(106.8125 -6.592499999999999) rotate(-30) translate(-106.8125 6.592499999999999)">10</text>
    <text x="106.8064589295174" y="-6.603266614803815" fill="black" text-anchor="middle" transform="translate(106.8064589295174 -6.603266614803815) scale(0.00002 -0.00002) translate(-106.8064589295174 6.603266614803815) translate(106.8125 -6.592499999999999) rotate(-30) translate(-106.8125 6.592499999999999)">10</text>
    <text x="106.79869558577904" y="-6.60494106149248" fill="black" text-anchor="middle" transform="translate(106.79869558577904 -6.60494106149248) scale(0.00002 -0.00002) translate(-106.79869558577904 6.60494106149248) translate(106.8125 -6.592499999999999) rotate(-30) translate(-106.8125 6.592499999999999)">10</text>
    <text x="106.8006224255959" y="-6.6039776415840405" fill="black" text-anchor="middle" transform="translate(106.8006224255959 -6.6039776415840405) scale(0.00002 -0.00002) translate(-106.8006224255959 6.6039776415840405) translate(106.8125 -6.592499999999999) rotate(-30) translate(-106.8125 6.592499999999999)">10</text>
    <text x="106.81116459086137" y="-6.615562428867107" fill="black" text-anchor="middle" transform="translate(106.81116459086137 -6.615562428867107) scale(0.00002 -0.00002) translate(-106.81116459086137 6.615562428867107) translate(106.8125 -6.592499999999999) rotate(-30) translate(-106.8125 6.592499999999999)">10</text>
    <text x="106.82114603840148" y="-6.624355608842932" fill="black" text-anchor="middle" transform="translate(106.82114603840148 -6.624355608842932) scale(0.00002 -0.00002) translate(-106.82114603840148 6.624355608842932) translate(106.8125 -6.592499999999999) rotate(-30) translate(-106.8125 6.592499999999999)">10</text>
    <text x="106.81577098685712" y="-6.620719942723158" fill="black" text-anchor="middle" transform="translate(106.81577098685712 -6.620719942723158) scale(0.00002 -0.00002) translate(-106.81577098685712 6.620719942723158) translate(106.8125 -6.592499999999999) rotate(-30) translate(-106.8125 6.592499999999999)">10</text>
    <text x="106.8138981466312" y="-6.615621655441485" fill="black" text-anchor="middle" transform="translate(106.8138981466312 -6.615621655441485) scale(0.00002 -0.00002) translate(-106.8138981466312 6.615621655441485) translate(106.8125 -6.592499999999999) rotate(-30) translate(-106.8125 6.592499999999999)">10</text>
    <text x="106.81754124498491" y="-6.616883268510529" fill="black" text-anchor="middle" transform="translate(106.81754124498491 -6.616883268510529) scale(0.00002 -0.00002) translate(-106.81754124498491 6.616883268510529) translate(106.8125 -6.592499999999999) rotate(-30) translate(-106.8125 6.592499999999999)">10</text>
    <text x="106.81554849749752" y="-6.616634175074605" fill="black" text-anchor="middle" transform="translate(106.81554849749752 -6.616634175074605) scale(0.00002 -0.00002) translate(-106.81554849749752 6.616634175074605) translate(106.8125 -6.592499999999999) rotate(-30) translate(-106.8125 6.592499999999999)">10</text>
    <text x="106.81619999999998" y="-6.6225313708499005" fill="black" text-anchor="middle" transform="translate(106.81619999999998 -6.6225313708499005) scale(0.00002 -0.00002) translate(-106.81619999999998 6.6225313708499005) translate(106.8125 -6.592499999999999) rotate(-30) translate(-106.8125 6.592499999999999)">10</text>
    <text x="106.81366066707885" y="-6.619992037928723" fill="black" text-anchor="middle" transform="translate(106.81366066707885 -6.619992037928723) scale(0.00002 -0.00002) translate(-106.81366066707885 6.619992037928723) translate(106.8125 -6.592499999999999) rotate(-30) translate(-106.8125 6.592499999999999)">10</text>
    <text x="106.81523819736476" y="-6.621118845275807" fill="black" text-anchor="middle" transform="translate(106.81523819736476 -6.621118845275807) scale(0.00002 -0.00002) translate(-106.81523819736476 6.621118845275807) translate(106.8125 -6.592499999999999) rotate(-30) translate(-106.8125 6.592499999999999)">10</text>
    <text x="106.81356839888284" y="-6.621675444769787" fill="black" text-anchor="middle" transform="translate(106.81356839888284 -6.621675444769787) scale(0.00002 -0.00002) translate(-106.81356839888284 6.621675444769787) translate(106.8125 -6.592499999999999) rotate(-30) translate(-106.8125 6.592499999999999)">10</text>
    <text x="106.81095165187216" y="-6.625341119262081" fill="black" text-anchor="middle" transform="translate(106.81095165187216 -6.625341119262081) scale(0.00002 -0.00002) translate(-106.81095165187216 6.625341119262081) translate(106.8125 -6.592499999999999) rotate(-30) translate(-106.8125 6.592499999999999)">10</text>
    <text x="106.80938431078053" y="-6.626386013323158" fill="black" text-anchor="middle" transform="translate(106.80938431078053 -6.626386013323158) scale(0.00002 -0.00002) translate(-106.80938431078053 6.626386013323158) translate(106.8125 -6.592499999999999) rotate(-30) translate(-106.8125 6.592499999999999)">10</text>
    <text x="106.80726911300818" y="-6.622099993929887" fill="black" text-anchor="middle" transform="translate(106.80726911300818 -6.622099993929887) scale(0.00002 -0.00002) translate(-106.80726911300818 6.622099993929887) translate(106.8125 -6.592499999999999) rotate(-30) translate(-106.8125 6.592499999999999)">10</text>
    <text x="106.80655590967073" y="-6.620174344918802" fill="black" text-anchor="middle" transform="translate(106.80655590967073 -6.620174344918802) scale(0.00002 -0.00002) translate(-106.80655590967073 6.620174344918802) translate(106.8125 -6.592499999999999) rotate(-30) translate(-106.8125 6.592499999999999)">10</text>
    <text x="106.80351617279764" y="-6.61700795234265" fill="black" text-anchor="middle" transform="translate(106.80351617279764 -6.61700795234265) scale(0.00002 -0.00002) translate(-106.80351617279764 6.61700795234265) translate(106.8125 -6.592499999999999) rotate(-30) translate(-106.8125 6.592499999999999)">10</text>
    <text x="106.80395250651262" y="-6.61784095307125" fill="black" text-anchor="middle" transform="translate(106.80395250651262 -6.61784095307125) scale(0.00002 -0.00002) translate(-106.80395250651262 6.61784095307125) translate(106.8125 -6.592499999999999) rotate(-30) translate(-106.8125 6.592499999999999)">10</text>
    <text x="106.80057329611371" y="-6.61290210710363" fill="black" text-anchor="middle" transform="translate(106.80057329611371 -6.61290210710363) scale(0.00002 -0.00002) translate(-106.80057329611371 6.61290210710363) translate(106.8125 -6.592499999999999) rotate(-30) translate(-106.8125 6.592499999999999)">10</text>
    <text x="106.79508662528109" y="-6.6044565321351865" fill="black" text-anchor="middle" transform="translate(106.79508662528109 -6.6044565321351865) scale(0.00002 -0.00002) translate(-106.79508662528109 6.6044565321351865) translate(106.8125 -6.592499999999999) rotate(-30) translate(-106.8125 6.592499999999999)">10</text>
    <text x="106.78942597098252" y="-6.59313522353803" fill="black" text-anchor="middle" transform="translate(106.78942597098252 -6.59313522353803) scale(0.00002 -0.00002) translate(-106.78942597098252 6.59313522353803) translate(106.8125 -6.592499999999999) rotate(-30) translate(-106.8125 6.592499999999999)">10</text>
    <text x="106.79108140391884" y="-6.597894593229956" fill="black" text-anchor="middle" transform="translate(106.79108140391884 -6.597894593229956) scale(0.00002 -0.00002) translate(-106.79108140391884 6.597894593229956) translate(106.8125 -6.592499999999999) rotate(-30) translate(-106.8125 6.592499999999999)">10</text>
  </g>
</svg>
