<svg width="1049.9999999998977" height="1849.9999999999961" xmlns="http://www.w3.org/2000/svg" xmlns:xlink="http://www.w3.org/1999/xlink" >
  <g transform="translate(524.9999999999488 924.9999999999981) rotate(30) scale(10000 -10000) translate(-106.8125 6.592499999999999)">
    <path d="M106.76 -6.5 L106.865 -6.5 L106.865 -6.685 L106.76 -6.685 Z" fill="none" stroke="black" stroke-width="0.0025" transform="translate(106.8125 -6.592499999999999) rotate(30) translate(-106.8125 6.592499999999999)" />
    <path d="M106.81801751003019 -6.615733462978942 L106.81917571931986 -6.616634292426471 L106.82001057601789 -6.617747434690516 L106.82037188290235 -6.617593367981294 L106.82830778880219 -6.624680657431325 L106.82901 -6.627059 L106.82752785484217 -6.624905015616732 L106.82938649019114 -6.621814519266336 L106.83350146450783 -6.618282683021259 L106.83678751091175 -6.612895368565258 L106.838754 -6.605049 L106.83754448908824 -6.613190631434731 L106.83411853549217 -6.6188073169787405 L106.83000550980887 -6.622337480733649 L106.82807583713767 -6.625546096318785 L106.82021811709765 -6.618528632018706 L106.81898942398212 -6.619052565309485 L106.81802428068013 -6.617765707573522 L106.81738248996983 -6.617266537021059 L106.81524598552322 -6.616999473965233 L106.815 -6.6175 L106.81672678625071 -6.623524287001737 L106.81295855698627 -6.6144805367670445 L106.8085352539818 -6.6084113535748585 L106.8078336320271 -6.608712048698304 L106.80702111477717 -6.60817037053169 L106.80590951613411 -6.608329170337845 L106.80492647805977 -6.6068 L106.80382445046207 -6.6068 L106.80300227289227 -6.603202973132036 L106.80296591829669 -6.603210708152371 L106.79616554916345 -6.60672814046267 L106.79244395090929 -6.604247074959911 L106.78987244741231 -6.596854002406116 L106.79191090947971 -6.591418103559725 L106.79668482963342 -6.588765925696554 L106.79830556305907 -6.589502622708221 L106.80064318417162 -6.5883037929910255 L106.80218422963742 -6.588932949658014 L106.80260372114809 -6.589252361384156 L106.80848872850953 -6.598668373162409 L106.8088082983231 -6.600665684497208 L106.80697885736423 -6.603226901839611 L106.80650022374596 -6.602611515758972 L106.85119270917144 -6.5755881524784465 L106.80912698047868 -6.6050341625634434 L106.810859939712 -6.607076578802719 L106.77511148042583 -6.553453889874008 L106.81370959048502 -6.612123017164029 L106.81505990075831 -6.615363761819959 Z" stroke="orange" stroke-width="0.0005" fill="none" />
    <circle 
      cx="106.82001057601789" cy="-12.617747434690516"
      r="15" transform="translate(106.82001057601789 -6.617747434690516) scale(0.000014999999999999999 -0.000014999999999999999) translate(-106.82001057601789 6.617747434690516) translate(106.8125 -6.592499999999999) rotate(-30) translate(-106.8125 6.592499999999999)"
      fill="white" stroke="black" stroke-width="2"/>
    <circle 
      cx="106.81898942398212" cy="-12.619052565309484"
      r="15" transform="translate(106.81898942398212 -6.619052565309485) scale(0.000014999999999999999 -0.000014999999999999999) translate(-106.81898942398212 6.619052565309485) translate(106.8125 -6.592499999999999) rotate(-30) translate(-106.8125 6.592499999999999)"
      fill="white" stroke="black" stroke-width="2"/>
    <circle 
      cx="106.81524598552322" cy="-12.616999473965233"
      r="15" transform="translate(106.81524598552322 -6.616999473965233) scale(0.000014999999999999999 -0.000014999999999999999) translate(-106.81524598552322 6.616999473965233) translate(106.8125 -6.592499999999999) rotate(-30) translate(-106.8125 6.592499999999999)"
      fill="white" stroke="black" stroke-width="2"/>
    <circle 
      cx="106.81672678625071" cy="-12.623524287001736"
      r="15" transform="translate(106.81672678625071 -6.623524287001737) scale(0.000014999999999999999 -0.000014999999999999999) translate(-106.81672678625071 6.623524287001737) translate(106.8125 -6.592499999999999) rotate(-30) translate(-106.8125 6.592499999999999)"
      fill="white" stroke="black" stroke-width="2"/>
    <circle 
      cx="106.81295855698627" cy="-12.614480536767044"
      r="15" transform="translate(106.81295855698627 -6.6144805367670445) scale(0.000014999999999999999 -0.000014999999999999999) translate(-106.81295855698627 6.6144805367670445) translate(106.8125 -6.592499999999999) rotate(-30) translate(-106.8125 6.592499999999999)"
      fill="white" stroke="black" stroke-width="2"/>
    <circle 
      cx="106.8085352539818" cy="-12.608411353574859"
      r="15" transform="translate(106.8085352539818 -6.6084113535748585) scale(0.000014999999999999999 -0.000014999999999999999) translate(-106.8085352539818 6.6084113535748585) translate(106.8125 -6.592499999999999) rotate(-30) translate(-106.8125 6.592499999999999)"
      fill="white" stroke="black" stroke-width="2"/>
    <circle 
      cx="106.80300227289227" cy="-12.603202973132035"
      r="15" transform="translate(106.80300227289227 -6.603202973132036) scale(0.000014999999999999999 -0.000014999999999999999) translate(-106.80300227289227 6.603202973132036) translate(106.8125 -6.592499999999999) rotate(-30) translate(-106.8125 6.592499999999999)"
      fill="white" stroke="black" stroke-width="2"/>
    <circle 
      cx="106.80296591829669" cy="-12.603210708152371"
      r="15" transform="translate(106.80296591829669 -6.603210708152371) scale(0.000014999999999999999 -0.000014999999999999999) translate(-106.80296591829669 6.603210708152371) translate(106.8125 -6.592499999999999) rotate(-30) translate(-106.8125 6.592499999999999)"
      fill="white" stroke="black" stroke-width="2"/>
    <circle 
      cx="106.79616554916345" cy="-12.606728140462671"
      r="15" transform="translate(106.79616554916345 -6.60672814046267) scale(0.000014999999999999999 -0.000014999999999999999) translate(-106.79616554916345 6.60672814046267) translate(106.8125 -6.592499999999999) rotate(-30) translate(-106.8125 6.592499999999999)"
      fill="white" stroke="black" stroke-width="2"/>
    <circle 
      cx="106.79244395090929" cy="-12.604247074959911"
      r="15" transform="translate(106.79244395090929 -6.604247074959911) scale(0.000014999999999999999 -0.000014999999999999999) translate(-106.79244395090929 6.604247074959911) translate(106.8125 -6.592499999999999) rotate(-30) translate(-106.8125 6.592499999999999)"
      fill="white" stroke="black" stroke-width="2"/>
    <circle 
      cx="106.78987244741231" cy="-12.596854002406115"
      r="15" transform="translate(106.78987244741231 -6.596854002406116) scale(0.000014999999999999999 -0.000014999999999999999) translate(-106.78987244741231 6.596854002406116) translate(106.8125 -6.592499999999999) rotate(-30) translate(-106.8125 6.592499999999999)"
      fill="white" stroke="black" stroke-width="2"/>
    <circle 
      cx="106.79191090947971" cy="-12.591418103559725"
      r="15" transform="translate(106.79191090947971 -6.591418103559725) scale(0.000014999999999999999 -0.000014999999999999999) translate(-106.79191090947971 6.591418103559725) translate(106.8125 -6.592499999999999) rotate(-30) translate(-106.8125 6.592499999999999)"
      fill="white" stroke="black" stroke-width="2"/>
    <circle 
      cx="106.79668482963342" cy="-12.588765925696553"
      r="15" transform="translate(106.79668482963342 -6.588765925696554) scale(0.000014999999999999999 -0.000014999999999999999) translate(-106.79668482963342 6.588765925696554) translate(106.8125 -6.592499999999999) rotate(-30) translate(-106.8125 6.592499999999999)"
      fill="white" stroke="black" stroke-width="2"/>
    <circle 
      cx="106.80218422963742" cy="-12.588932949658014"
      r="15" transform="translate(106.80218422963742 -6.588932949658014) scale(0.000014999999999999999 -0.000014999999999999999) translate(-106.80218422963742 6.588932949658014) translate(106.8125 -6.592499999999999) rotate(-30) translate(-106.8125 6.592499999999999)"
      fill="white" stroke="black" stroke-width="2"/>
    <circle 
      cx="106.80260372114809" cy="-12.589252361384155"
      r="15" transform="translate(106.80260372114809 -6.589252361384156) scale(0.000014999999999999999 -0.000014999999999999999) translate(-106.80260372114809 6.589252361384156) translate(106.8125 -6.592499999999999) rotate(-30) translate(-106.8125 6.592499999999999)"
      fill="white" stroke="black" stroke-width="2"/>
    <circle 
      cx="106.80848872850953" cy="-12.59866837316241"
      r="15" transform="translate(106.80848872850953 -6.598668373162409) scale(0.000014999999999999999 -0.000014999999999999999) translate(-106.80848872850953 6.598668373162409) translate(106.8125 -6.592499999999999) rotate(-30) translate(-106.8125 6.592499999999999)"
      fill="white" stroke="black" stroke-width="2"/>
    <circle 
      cx="106.8088082983231" cy="-12.600665684497208"
      r="15" transform="translate(106.8088082983231 -6.600665684497208) scale(0.000014999999999999999 -0.000014999999999999999) translate(-106.8088082983231 6.600665684497208) translate(106.8125 -6.592499999999999) rotate(-30) translate(-106.8125 6.592499999999999)"
      fill="white" stroke="black" stroke-width="2"/>
    <circle 
      cx="106.80697885736423" cy="-12.603226901839612"
      r="15" transform="translate(106.80697885736423 -6.603226901839611) scale(0.000014999999999999999 -0.000014999999999999999) translate(-106.80697885736423 6.603226901839611) translate(106.8125 -6.592499999999999) rotate(-30) translate(-106.8125 6.592499999999999)"
      fill="white" stroke="black" stroke-width="2"/>
    <circle 
      cx="106.80650022374596" cy="-12.602611515758973"
      r="15" transform="translate(106.80650022374596 -6.602611515758972) scale(0.000014999999999999999 -0.000014999999999999999) translate(-106.80650022374596 6.602611515758972) translate(106.8125 -6.592499999999999) rotate(-30) translate(-106.8125 6.592499999999999)"
      fill="white" stroke="black" stroke-width="2"/>
    <circle 
      cx="106.80912698047868" cy="-12.605034162563443"
      r="15" transform="translate(106.80912698047868 -6.6050341625634434) scale(0.000014999999999999999 -0.000014999999999999999) translate(-106.80912698047868 6.6050341625634434) translate(106.8125 -6.592499999999999) rotate(-30) translate(-106.8125 6.592499999999999)"
      fill="white" stroke="black" stroke-width="2"/>
    <circle 
      cx="106.77511148042583" cy="-12.553453889874007"
      r="15" transform="translate(106.77511148042583 -6.553453889874008) scale(0.000014999999999999999 -0.000014999999999999999) translate(-106.77511148042583 6.553453889874008) translate(106.8125 -6.592499999999999) rotate(-30) translate(-106.8125 6.592499999999999)"
      fill="white" stroke="black" stroke-width="2"/>
    <circle 
      cx="106.81370959048502" cy="-12.612123017164029"
      r="15" transform="translate(106.81370959048502 -6.612123017164029) scale(0.000014999999999999999 -0.000014999999999999999) translate(-106.81370959048502 6.612123017164029) translate(106.8125 -6.592499999999999) rotate(-30) translate(-106.8125 6.592499999999999)"
      fill="white" stroke="black" stroke-width="2"/>
    <circle 
      cx="106.81505990075831" cy="-12.61536376181996"
      r="15" transform="translate(106.81505990075831 -6.615363761819959) scale(0.000014999999999999999 -0.000014999999999999999) translate(-106.81505990075831 6.615363761819959) translate(106.8125 -6.592499999999999) rotate(-30) translate(-106.8125 6.592499999999999)"
      fill="white" stroke="black" stroke-width="2"/>
    <circle 
      cx="106.82001057601789" cy="-12.617747434690516"
      r="15" transform="translate(106.82001057601789 -6.617747434690516) scale(0.000014999999999999999 -0.000014999999999999999) translate(-106.82001057601789 6.617747434690516) translate(106.8125 -6.592499999999999) rotate(-30) translate(-106.8125 6.592499999999999)"
      fill="white" stroke="none"/>
    <circle 
      cx="106.81898942398212" cy="-12.619052565309484"
      r="15" transform="translate(106.81898942398212 -6.619052565309485) scale(0.000014999999999999999 -0.000014999999999999999) translate(-106.81898942398212 6.619052565309485) translate(106.8125 -6.592499999999999) rotate(-30) translate(-106.8125 6.592499999999999)"
      fill="white" stroke="none"/>
    <circle 
      cx="106.81524598552322" cy="-12.616999473965233"
      r="15" transform="translate(106.81524598552322 -6.616999473965233) scale(0.000014999999999999999 -0.000014999999999999999) translate(-106.81524598552322 6.616999473965233) translate(106.8125 -6.592499999999999) rotate(-30) translate(-106.8125 6.592499999999999)"
      fill="white" stroke="none"/>
    <circle 
      cx="106.81672678625071" cy="-12.623524287001736"
      r="15" transform="translate(106.81672678625071 -6.623524287001737) scale(0.000014999999999999999 -0.000014999999999999999) translate(-106.81672678625071 6.623524287001737) translate(106.8125 -6.592499999999999) rotate(-30) translate(-106.8125 6.592499999999999)"
      fill="white" stroke="none"/>
    <circle 
      cx="106.81295855698627" cy="-12.614480536767044"
      r="15" transform="translate(106.81295855698627 -6.6144805367670445) scale(0.000014999999999999999 -0.000014999999999999999) translate(-106.81295855698627 6.6144805367670445) translate(106.8125 -6.592499999999999) rotate(-30) translate(-106.8125 6.592499999999999)"
      fill="white" stroke="none"/>
    <circle 
      cx="106.8085352539818" cy="-12.608411353574859"
      r="15" transform="translate(106.8085352539818 -6.6084113535748585) scale(0.000014999999999999999 -0.000014999999999999999) translate(-106.8085352539818 6.6084113535748585) translate(106.8125 -6.592499999999999) rotate(-30) translate(-106.8125 6.592499999999999)"
      fill="white" stroke="none"/>
    <circle 
      cx="106.80300227289227" cy="-12.603202973132035"
      r="15" transform="translate(106.80300227289227 -6.603202973132036) scale(0.000014999999999999999 -0.000014999999999999999) translate(-106.80300227289227 6.603202973132036) translate(106.8125 -6.592499999999999) rotate(-30) translate(-106.8125 6.592499999999999)"
      fill="white" stroke="none"/>
    <circle 
      cx="106.80296591829669" cy="-12.603210708152371"
      r="15" transform="translate(106.80296591829669 -6.603210708152371) scale(0.000014999999999999999 -0.000014999999999999999) translate(-106.80296591829669 6.603210708152371) translate(106.8125 -6.592499999999999) rotate(-30) translate(-106.8125 6.592499999999999)"
      fill="white" stroke="none"/>
    <circle 
      cx="106.79616554916345" cy="-12.606728140462671"
      r="15" transform="translate(106.79616554916345 -6.60672814046267) scale(0.000014999999999999999 -0.000014999999999999999) translate(-106.79616554916345 6.60672814046267) translate(106.8125 -6.592499999999999) rotate(-30) translate(-106.8125 6.592499999999999)"
      fill="white" stroke="none"/>
    <circle 
      cx="106.79244395090929" cy="-12.604247074959911"
      r="15" transform="translate(106.79244395090929 -6.604247074959911) scale(0.000014999999999999999 -0.000014999999999999999) translate(-106.79244395090929 6.604247074959911) translate(106.8125 -6.592499999999999) rotate(-30) translate(-106.8125 6.592499999999999)"
      fill="white" stroke="none"/>
    <circle 
      cx="106.78987244741231" cy="-12.596854002406115"
      r="15" transform="translate(106.78987244741231 -6.596854002406116) scale(0.000014999999999999999 -0.000014999999999999999) translate(-106.78987244741231 6.596854002406116) translate(106.8125 -6.592499999999999) rotate(-30) translate(-106.8125 6.592499999999999)"
      fill="white" stroke="none"/>
    <circle 
      cx="106.79191090947971" cy="-12.591418103559725"
      r="15" transform="translate(106.79191090947971 -6.591418103559725) scale(0.000014999999999999999 -0.000014999999999999999) translate(-106.79191090947971 6.591418103559725) translate(106.8125 -6.592499999999999) rotate(-30) translate(-106.8125 6.592499999999999)"
      fill="white" stroke="none"/>
    <circle 
      cx="106.79668482963342" cy="-12.588765925696553"
      r="15" transform="translate(106.79668482963342 -6.588765925696554) scale(0.000014999999999999999 -0.000014999999999999999) translate(-106.79668482963342 6.588765925696554) translate(106.8125 -6.592499999999999) rotate(-30) translate(-106.8125 6.592499999999999)"
      fill="white" stroke="none"/>
    <circle 
      cx="106.80218422963742" cy="-12.588932949658014"
      r="15" transform="translate(106.80218422963742 -6.588932949658014) scale(0.000014999999999999999 -0.000014999999999999999) translate(-106.80218422963742 6.588932949658014) translate(106.8125 -6.592499999999999) rotate(-30) translate(-106.8125 6.592499999999999)"
      fill="white" stroke="none"/>
    <circle 
      cx="106.80260372114809" cy="-12.589252361384155"
      r="15" transform="translate(106.80260372114809 -6.589252361384156) scale(0.000014999999999999999 -0.000014999999999999999) translate(-106.80260372114809 6.589252361384156) translate(106.8125 -6.592499999999999) rotate(-30) translate(-106.8125 6.592499999999999)"
      fill="white" stroke="none"/>
    <circle 
      cx="106.80848872850953" cy="-12.59866837316241"
      r="15" transform="translate(106.80848872850953 -6.598668373162409) scale(0.000014999999999999999 -0.000014999999999999999) translate(-106.80848872850953 6.598668373162409) translate(106.8125 -6.592499999999999) rotate(-30) translate(-106.8125 6.592499999999999)"
      fill="white" stroke="none"/>
    <circle 
      cx="106.8088082983231" cy="-12.600665684497208"
      r="15" transform="translate(106.8088082983231 -6.600665684497208) scale(0.000014999999999999999 -0.000014999999999999999) translate(-106.8088082983231 6.600665684497208) translate(106.8125 -6.592499999999999) rotate(-30) translate(-106.8125 6.592499999999999)"
      fill="white" stroke="none"/>
    <circle 
      cx="106.80697885736423" cy="-12.603226901839612"
      r="15" transform="translate(106.80697885736423 -6.603226901839611) scale(0.000014999999999999999 -0.000014999999999999999) translate(-106.80697885736423 6.603226901839611) translate(106.8125 -6.592499999999999) rotate(-30) translate(-106.8125 6.592499999999999)"
      fill="white" stroke="none"/>
    <circle 
      cx="106.80650022374596" cy="-12.602611515758973"
      r="15" transform="translate(106.80650022374596 -6.602611515758972) scale(0.000014999999999999999 -0.000014999999999999999) translate(-106.80650022374596 6.602611515758972) translate(106.8125 -6.592499999999999) rotate(-30) translate(-106.8125 6.592499999999999)"
      fill="white" stroke="none"/>
    <circle 
      cx="106.80912698047868" cy="-12.605034162563443"
      r="15" transform="translate(106.80912698047868 -6.6050341625634434) scale(0.000014999999999999999 -0.000014999999999999999) translate(-106.80912698047868 6.6050341625634434) translate(106.8125 -6.592499999999999) rotate(-30) translate(-106.8125 6.592499999999999)"
      fill="white" stroke="none"/>
    <circle 
      cx="106.77511148042583" cy="-12.553453889874007"
      r="15" transform="translate(106.77511148042583 -6.553453889874008) scale(0.000014999999999999999 -0.000014999999999999999) translate(-106.77511148042583 6.553453889874008) translate(106.8125 -6.592499999999999) rotate(-30) translate(-106.8125 6.592499999999999)"
      fill="white" stroke="none"/>
    <circle 
      cx="106.81370959048502" cy="-12.612123017164029"
      r="15" transform="translate(106.81370959048502 -6.612123017164029) scale(0.000014999999999999999 -0.000014999999999999999) translate(-106.81370959048502 6.612123017164029) translate(106.8125 -6.592499999999999) rotate(-30) translate(-106.8125 6.592499999999999)"
      fill="white" stroke="none"/>
    <circle 
      cx="106.81505990075831" cy="-12.61536376181996"
      r="15" transform="translate(106.81505990075831 -6.615363761819959) scale(0.000014999999999999999 -0.000014999999999999999) translate(-106.81505990075831 6.615363761819959) translate(106.8125 -6.592499999999999) rotate(-30) translate(-106.8125 6.592499999999999)"
      fill="white" stroke="none"/>
    <text x="106.82001057601789" y="-6.617747434690516" fill="black" text-anchor="middle" transform="translate(106.82001057601789 -6.617747434690516) scale(0.000014999999999999999 -0.000014999999999999999) translate(-106.82001057601789 6.617747434690516) translate(106.8125 -6.592499999999999) rotate(-30) translate(-106.8125 6.592499999999999)">13</text>
    <text x="106.81898942398212" y="-6.619052565309485" fill="black" text-anchor="middle" transform="translate(106.81898942398212 -6.619052565309485) scale(0.000014999999999999999 -0.000014999999999999999) translate(-106.81898942398212 6.619052565309485) translate(106.8125 -6.592499999999999) rotate(-30) translate(-106.8125 6.592499999999999)">13</text>
    <text x="106.81524598552322" y="-6.616999473965233" fill="black" text-anchor="middle" transform="translate(106.81524598552322 -6.616999473965233) scale(0.000014999999999999999 -0.000014999999999999999) translate(-106.81524598552322 6.616999473965233) translate(106.8125 -6.592499999999999) rotate(-30) translate(-106.8125 6.592499999999999)">13</text>
    <text x="106.81672678625071" y="-6.623524287001737" fill="black" text-anchor="middle" transform="translate(106.81672678625071 -6.623524287001737) scale(0.000014999999999999999 -0.000014999999999999999) translate(-106.81672678625071 6.623524287001737) translate(106.8125 -6.592499999999999) rotate(-30) translate(-106.8125 6.592499999999999)">13</text>
    <text x="106.81295855698627" y="-6.6144805367670445" fill="black" text-anchor="middle" transform="translate(106.81295855698627 -6.6144805367670445) scale(0.000014999999999999999 -0.000014999999999999999) translate(-106.81295855698627 6.6144805367670445) translate(106.8125 -6.592499999999999) rotate(-30) translate(-106.8125 6.592499999999999)">13</text>
    <text x="106.8085352539818" y="-6.6084113535748585" fill="black" text-anchor="middle" transform="translate(106.8085352539818 -6.6084113535748585) scale(0.000014999999999999999 -0.000014999999999999999) translate(-106.8085352539818 6.6084113535748585) translate(106.8125 -6.592499999999999) rotate(-30) translate(-106.8125 6.592499999999999)">13</text>
    <text x="106.80300227289227" y="-6.603202973132036" fill="black" text-anchor="middle" transform="translate(106.80300227289227 -6.603202973132036) scale(0.000014999999999999999 -0.000014999999999999999) translate(-106.80300227289227 6.603202973132036) translate(106.8125 -6.592499999999999) rotate(-30) translate(-106.8125 6.592499999999999)">13</text>
    <text x="106.80296591829669" y="-6.603210708152371" fill="black" text-anchor="middle" transform="translate(106.80296591829669 -6.603210708152371) scale(0.000014999999999999999 -0.000014999999999999999) translate(-106.80296591829669 6.603210708152371) translate(106.8125 -6.592499999999999) rotate(-30) translate(-106.8125 6.592499999999999)">13</text>
    <text x="106.79616554916345" y="-6.60672814046267" fill="black" text-anchor="middle" transform="translate(106.79616554916345 -6.60672814046267) scale(0.000014999999999999999 -0.000014999999999999999) translate(-106.79616554916345 6.60672814046267) translate(106.8125 -6.592499999999999) rotate(-30) translate(-106.8125 6.592499999999999)">13</text>
    <text x="106.79244395090929" y="-6.604247074959911" fill="black" text-anchor="middle" transform="translate(106.79244395090929 -6.604247074959911) scale(0.000014999999999999999 -0.000014999999999999999) translate(-106.79244395090929 6.604247074959911) translate(106.8125 -6.592499999999999) rotate(-30) translate(-106.8125 6.592499999999999)">13</text>
    <text x="106.78987244741231" y="-6.596854002406116" fill="black" text-anchor="middle" transform="translate(106.78987244741231 -6.596854002406116) scale(0.000014999999999999999 -0.000014999999999999999) translate(-106.78987244741231 6.596854002406116) translate(106.8125 -6.592499999999999) rotate(-30) translate(-106.8125 6.592499999999999)">13</text>
    <text x="106.79191090947971" y="-6.591418103559725" fill="black" text-anchor="middle" transform="translate(106.79191090947971 -6.591418103559725) scale(0.000014999999999999999 -0.000014999999999999999) translate(-106.79191090947971 6.591418103559725) translate(106.8125 -6.592499999999999) rotate(-30) translate(-106.8125 6.592499999999999)">13</text>
    <text x="106.79668482963342" y="-6.588765925696554" fill="black" text-anchor="middle" transform="translate(106.79668482963342 -6.588765925696554) scale(0.000014999999999999999 -0.000014999999999999999) translate(-106.79668482963342 6.588765925696554) translate(106.8125 -6.592499999999999) rotate(-30) translate(-106.8125 6.592499999999999)">13</text>
    <text x="106.80218422963742" y="-6.588932949658014" fill="black" text-anchor="middle" transform="translate(106.80218422963742 -6.588932949658014) scale(0.000014999999999999999 -0.000014999999999999999) translate(-106.80218422963742 6.588932949658014) translate(106.8125 -6.592499999999999) rotate(-30) translate(-106.8125 6.592499999999999)">13</text>
    <text x="106.80260372114809" y="-6.589252361384156" fill="black" text-anchor="middle" transform="translate(106.80260372114809 -6.589252361384156) scale(0.000014999999999999999 -0.000014999999999999999) translate(-106.80260372114809 6.589252361384156) translate(106.8125 -6.592499999999999) rotate(-30) translate(-106.8125 6.592499999999999)">13</text>
    <text x="106.80848872850953" y="-6.598668373162409" fill="black" text-anchor="middle" transform="translate(106.80848872850953 -6.598668373162409) scale(0.000014999999999999999 -0.000014999999999999999) translate(-106.80848872850953 6.598668373162409) translate(106.8125 -6.592499999999999) rotate(-30) translate(-106.8125 6.592499999999999)">13</text>
    <text x="106.8088082983231" y="-6.600665684497208" fill="black" text-anchor="middle" transform="translate(106.8088082983231 -6.600665684497208) scale(0.000014999999999999999 -0.000014999999999999999) translate(-106.8088082983231 6.600665684497208) translate(106.8125 -6.592499999999999) rotate(-30) translate(-106.8125 6.592499999999999)">13</text>
    <text x="106.80697885736423" y="-6.603226901839611" fill="black" text-anchor="middle" transform="translate(106.80697885736423 -6.603226901839611) scale(0.000014999999999999999 -0.000014999999999999999) translate(-106.80697885736423 6.603226901839611) translate(106.8125 -6.592499999999999) rotate(-30) translate(-106.8125 6.592499999999999)">13</text>
    <text x="106.80650022374596" y="-6.602611515758972" fill="black" text-anchor="middle" transform="translate(106.80650022374596 -6.602611515758972) scale(0.000014999999999999999 -0.000014999999999999999) translate(-106.80650022374596 6.602611515758972) translate(106.8125 -6.592499999999999) rotate(-30) translate(-106.8125 6.592499999999999)">13</text>
    <text x="106.80912698047868" y="-6.6050341625634434" fill="black" text-anchor="middle" transform="translate(106.80912698047868 -6.6050341625634434) scale(0.000014999999999999999 -0.000014999999999999999) translate(-106.80912698047868 6.6050341625634434) translate(106.8125 -6.592499999999999) rotate(-30) translate(-106.8125 6.592499999999999)">13</text>
    <text x="106.77511148042583" y="-6.553453889874008" fill="black" text-anchor="middle" transform="translate(106.77511148042583 -6.553453889874008) scale(0.000014999999999999999 -0.000014999999999999999) translate(-106.77511148042583 6.553453889874008) translate(106.8125 -6.592499999999999) rotate(-30) translate(-106.8125 6.592499999999999)">13</text>
    <text x="106.81370959048502" y="-6.612123017164029" fill="black" text-anchor="middle" transform="translate(106.81370959048502 -6.612123017164029) scale(0.000014999999999999999 -0.000014999999999999999) translate(-106.81370959048502 6.612123017164029) translate(106.8125 -6.592499999999999) rotate(-30) translate(-106.8125 6.592499999999999)">13</text>
    <text x="106.81505990075831" y="-6.615363761819959" fill="black" text-anchor="middle" transform="translate(106.81505990075831 -6.615363761819959) scale(0.000014999999999999999 -0.000014999999999999999) translate(-106.81505990075831 6.615363761819959) translate(106.8125 -6.592499999999999) rotate(-30) translate(-106.8125 6.592499999999999)">13</text>
    <line x1="106.8145" y1="-6.6161" x2="106.8177" y2="-6.6165" style="stroke:rgb(255,0,0);stroke-width:.00002" />
    <line x1="106.8177" y1="-6.6165" x2="106.8186" y2="-6.6172" style="stroke:rgb(255,0,0);stroke-width:.00002" />
    <line x1="106.8186" y1="-6.6172" x2="106.8195" y2="-6.6184" style="stroke:rgb(255,0,0);stroke-width:.00002" />
    <line x1="106.8195" y1="-6.6184" x2="106.820295" y2="-6.618061" style="stroke:rgb(255,0,0);stroke-width:.00002" />
    <line x1="106.820295" y1="-6.618061" x2="106.827982" y2="-6.624926" style="stroke:rgb(255,0,0);stroke-width:.00002" />
    <line x1="106.827982" y1="-6.624926" x2="106.82901" y2="-6.627059" style="stroke:rgb(255,0,0);stroke-width:.00002" />
    <line x1="106.82901" y1="-6.627059" x2="106.827982" y2="-6.624926" style="stroke:rgb(255,0,0);stroke-width:.00002" />
    <line x1="106.827982" y1="-6.624926" x2="106.829696" y2="-6.622076" style="stroke:rgb(255,0,0);stroke-width:.00002" />
    <line x1="106.829696" y1="-6.622076" x2="106.83381" y2="-6.618545" style="stroke:rgb(255,0,0);stroke-width:.00002" />
    <line x1="106.83381" y1="-6.618545" x2="106.837166" y2="-6.613043" style="stroke:rgb(255,0,0);stroke-width:.00002" />
    <line x1="106.837166" y1="-6.613043" x2="106.838754" y2="-6.605049" style="stroke:rgb(255,0,0);stroke-width:.00002" />
    <line x1="106.838754" y1="-6.605049" x2="106.837166" y2="-6.613043" style="stroke:rgb(255,0,0);stroke-width:.00002" />
    <line x1="106.837166" y1="-6.613043" x2="106.83381" y2="-6.618545" style="stroke:rgb(255,0,0);stroke-width:.00002" />
    <line x1="106.83381" y1="-6.618545" x2="106.829696" y2="-6.622076" style="stroke:rgb(255,0,0);stroke-width:.00002" />
    <line x1="106.829696" y1="-6.622076" x2="106.827982" y2="-6.624926" style="stroke:rgb(255,0,0);stroke-width:.00002" />
    <line x1="106.827982" y1="-6.624926" x2="106.820295" y2="-6.618061" style="stroke:rgb(255,0,0);stroke-width:.00002" />
    <line x1="106.820295" y1="-6.618061" x2="106.8195" y2="-6.6184" style="stroke:rgb(255,0,0);stroke-width:.00002" />
    <line x1="106.8195" y1="-6.6184" x2="106.8186" y2="-6.6172" style="stroke:rgb(255,0,0);stroke-width:.00002" />
    <line x1="106.8186" y1="-6.6172" x2="106.8177" y2="-6.6165" style="stroke:rgb(255,0,0);stroke-width:.00002" />
    <line x1="106.8177" y1="-6.6165" x2="106.8145" y2="-6.6161" style="stroke:rgb(255,0,0);stroke-width:.00002" />
    <line x1="106.8145" y1="-6.6161" x2="106.815" y2="-6.6175" style="stroke:rgb(255,0,0);stroke-width:.00002" />
    <line x1="106.815" y1="-6.6175" x2="106.8145" y2="-6.6161" style="stroke:rgb(255,0,0);stroke-width:.00002" />
    <line x1="106.8145" y1="-6.6161" x2="106.813" y2="-6.6125" style="stroke:rgb(255,0,0);stroke-width:.00002" />
    <line x1="106.813" y1="-6.6125" x2="106.8087" y2="-6.6066" style="stroke:rgb(255,0,0);stroke-width:.00002" />
    <line x1="106.8087" y1="-6.6066" x2="106.808" y2="-6.6069" style="stroke:rgb(255,0,0);stroke-width:.00002" />
    <line x1="106.808" y1="-6.6069" x2="106.8074" y2="-6.6065" style="stroke:rgb(255,0,0);stroke-width:.00002" />
    <line x1="106.8074" y1="-6.6065" x2="106.8067" y2="-6.6066" style="stroke:rgb(255,0,0);stroke-width:.00002" />
    <line x1="106.8067" y1="-6.6066" x2="106.8058" y2="-6.6052" style="stroke:rgb(255,0,0);stroke-width:.00002" />
    <line x1="106.8058" y1="-6.6052" x2="106.8051" y2="-6.6052" style="stroke:rgb(255,0,0);stroke-width:.00002" />
    <line x1="106.8051" y1="-6.6052" x2="106.8043" y2="-6.6017" style="stroke:rgb(255,0,0);stroke-width:.00002" />
    <line x1="106.8043" y1="-6.6017" x2="106.7996" y2="-6.6027" style="stroke:rgb(255,0,0);stroke-width:.00002" />
    <line x1="106.7996" y1="-6.6027" x2="106.7967" y2="-6.6042" style="stroke:rgb(255,0,0);stroke-width:.00002" />
    <line x1="106.7967" y1="-6.6042" x2="106.7961" y2="-6.6038" style="stroke:rgb(255,0,0);stroke-width:.00002" />
    <line x1="106.7961" y1="-6.6038" x2="106.7937" y2="-6.5969" style="stroke:rgb(255,0,0);stroke-width:.00002" />
    <line x1="106.7937" y1="-6.5969" x2="106.7946" y2="-6.5945" style="stroke:rgb(255,0,0);stroke-width:.00002" />
    <line x1="106.7946" y1="-6.5945" x2="106.7973" y2="-6.593" style="stroke:rgb(255,0,0);stroke-width:.00002" />
    <line x1="106.7973" y1="-6.593" x2="106.7984" y2="-6.5935" style="stroke:rgb(255,0,0);stroke-width:.00002" />
    <line x1="106.7984" y1="-6.5935" x2="106.800814" y2="-6.592262" style="stroke:rgb(255,0,0);stroke-width:.00002" />
    <line x1="106.800814" y1="-6.592262" x2="106.801806" y2="-6.592667" style="stroke:rgb(255,0,0);stroke-width:.00002" />
    <line x1="106.801806" y1="-6.592667" x2="106.8029" y2="-6.5935" style="stroke:rgb(255,0,0);stroke-width:.00002" />
    <line x1="106.8029" y1="-6.5935" x2="106.8044" y2="-6.5959" style="stroke:rgb(255,0,0);stroke-width:.00002" />
    <line x1="106.8044" y1="-6.5959" x2="106.8052" y2="-6.6009" style="stroke:rgb(255,0,0);stroke-width:.00002" />
    <line x1="106.8052" y1="-6.6009" x2="106.8047" y2="-6.6016" style="stroke:rgb(255,0,0);stroke-width:.00002" />
    <line x1="106.8047" y1="-6.6016" x2="106.8068" y2="-6.6043" style="stroke:rgb(255,0,0);stroke-width:.00002" />
    <line x1="106.8068" y1="-6.6043" x2="106.8111" y2="-6.6017" style="stroke:rgb(255,0,0);stroke-width:.00002" />
    <line x1="106.8111" y1="-6.6017" x2="106.8071" y2="-6.6045" style="stroke:rgb(255,0,0);stroke-width:.00002" />
    <line x1="106.8071" y1="-6.6045" x2="106.8099" y2="-6.6078" style="stroke:rgb(255,0,0);stroke-width:.00002" />
    <line x1="106.8099" y1="-6.6078" x2="106.8105" y2="-6.6087" style="stroke:rgb(255,0,0);stroke-width:.00002" />
    <line x1="106.8105" y1="-6.6087" x2="106.813" y2="-6.6125" style="stroke:rgb(255,0,0);stroke-width:.00002" />
    <line x1="106.813" y1="-6.6125" x2="106.8145" y2="-6.6161" style="stroke:rgb(255,0,0);stroke-width:.00002" />
  </g>
</svg>
