<svg width="1450.0000000001023" height="1550.0000000000025" xmlns="http://www.w3.org/2000/svg" xmlns:xlink="http://www.w3.org/1999/xlink" >
  <g transform="translate(725.0000000000512 775.0000000000013) rotate(0) scale(10000 -10000) translate(-106.7975 6.592499999999999)">
    <path d="M106.725 -6.515 L106.87 -6.515 L106.87 -6.67 L106.725 -6.67 Z" fill="none" stroke="black" stroke-width="0.001" transform="translate(106.7975 -6.592499999999999) rotate(0) translate(-106.7975 6.592499999999999)" />
    <path d="M106.81575270274315 -6.615853474955479 L106.81654652504453 -6.615952702743151 L106.8178587550151 -6.616116731489471 L106.81839557624541 -6.61653425911305 L106.81839557624541 -6.61653425911305 L106.81888785965994 -6.616917146213235 L106.81937 -6.61756 L106.81937 -6.61756 L106.81963173398786 -6.617908978650486 L106.8196350790839 -6.618124976245376 L106.82000302375462 -6.617968079083894 L106.82033344145118 -6.617827183990651 L106.82427172050659 -6.621344327962988 L106.82427172050659 -6.621344327962988 L106.82814489440109 -6.624803328715651 L106.82867616730556 -6.6259056683121855 L106.82867616730556 -6.6259056683121855 L106.82901 -6.627059 L106.82831583269444 -6.626079331687816 L106.82831583269444 -6.626079331687816 L106.82775492742108 -6.624915507808373 L106.82866760763137 -6.623397924028132 L106.82866760763137 -6.623397924028132 L106.82954124509557 -6.621945259633181 L106.83162274149974 -6.620158734644563 L106.83162274149974 -6.620158734644563 L106.83365573225392 -6.618413841510642 L106.83531725624287 -6.61568985313542 L106.83531725624287 -6.61568985313542 L106.83697675545588 -6.612969184282629 L106.83776383306424 -6.60900703163698 L106.83776383306424 -6.60900703163698 L106.838754 -6.605049 L106.83815616693575 -6.60908496836302 L106.83815616693575 -6.60908496836302 L106.8373552445441 -6.613116815717382 L106.83565874375712 -6.6158981468645806 L106.83565874375712 -6.6158981468645806 L106.83396426774608 -6.618676158489357 L106.83188325850024 -6.620462265355438 L106.83188325850024 -6.620462265355438 L106.82985075490444 -6.622206740366812 L106.82901039236863 -6.623604075971868 L106.82901039236863 -6.623604075971868 L106.82802891856883 -6.625236048159392 L106.82400527949342 -6.621642672037011 L106.82400527949342 -6.621642672037011 L106.82025655854882 -6.6182948160093495 L106.81997594858073 -6.618414472335365 L106.81997594858073 -6.618414472335365 L106.81943413300608 -6.618645510674753 L106.81885 -6.618200000000002 L106.81861 -6.617880000000001 L106.81831214034007 -6.61748285378676 L106.8179044237546 -6.617165740886951 L106.8179044237546 -6.617165740886951 L106.81754124498491 -6.616883268510529 L106.81605038610617 -6.616696911150687 L106.81605038610617 -6.616696911150687 L106.81509528911671 -6.6165775240270035 L106.81512669676464 -6.6166654654412 L106.81512669676464 -6.6166654654412 L106.815 -6.6175 L106.81401005992662 -6.617701381543956 L106.81360645625021 -6.616571291250043 L106.81356696562632 -6.616460717503156 L106.81308846153846 -6.614792307692307 L106.81293461538462 -6.614423076923076 L106.812290409515 -6.612876982835985 L106.81135867305096 -6.611096853317335 L106.81113882645036 -6.610762686484437 L106.8099997551378 -6.609031298089326 L106.80958982978416 -6.609137520313963 L106.80914606962719 -6.608471880078495 L106.80912287584934 -6.608437089411719 L106.80859289321882 -6.608189949493661 L106.80831005050635 -6.6079071067811865 L106.80842595338031 -6.608023009655134 L106.80903279345088 -6.607327748304581 L106.80829747742686 -6.607642883743447 L106.80791681601352 -6.607806024349136 L106.80725623984303 -6.6073656402354715 L106.80725623984303 -6.6073656402354715 L106.80721055738859 -6.607335185265844 L106.807163137085 -6.607341959594929 L106.807163137085 -6.607341959594929 L106.80630475806706 -6.607464585168921 L106.80557705721971 -6.606332606073051 L106.80557705721971 -6.606332606073051 L106.80536323902989 -6.606 L106.80545000000001 -6.606 L106.80545000000001 -6.606 L106.80445494239889 -6.606 L106.80510540723881 -6.603338197107164 L106.80510540723881 -6.603338197107164 L106.80463339085372 -6.601162391357983 L106.80322623911898 -6.602525187636502 L106.80128057485295 -6.602988210923108 L106.79997040993689 -6.6033 L106.79974999999999 -6.6033 L106.79974999999999 -6.6033 L106.79974164078651 -6.6033 L106.7997366563146 -6.602631671842699 L106.7986633436854 -6.603168328157301 L106.7988 -6.6031 L106.798028 -6.6035205 L106.798028 -6.6035205 L106.797256 -6.603941 L106.796978 -6.6040705 L106.796978 -6.6040705 L106.7967 -6.6042 L106.7964 -6.603999999999999 L106.7964 -6.603999999999999 L106.7961 -6.6038 L106.79515460348433 -6.600473195234353 L106.79502319523435 -6.600095396515671 L106.79391264181042 -6.59690255542187 L106.79330730374019 -6.596238389277102 L106.79386910124674 -6.594740262592992 L106.79411569322859 -6.594082683974725 L106.79542550563433 -6.594041385758707 L106.79647449436568 -6.593458614241293 L106.7973 -6.593 L106.79755206188013 -6.592455498346941 L106.79864450165307 -6.592952061880104 L106.79838426051 -6.59283377045129 L106.79933320103144 -6.592347114127538 L106.79933320103144 -6.592347114127538 L106.80078553069526 -6.591602298831835 L106.80127602858742 -6.592018578546011 L106.80164635431565 -6.592169769997552 L106.8020062024092 -6.592316683785749 L106.80175447037414 -6.592879141768078 L106.80270920876154 -6.59360610436106 L106.8027497670136 -6.593636986467054 L106.8034804003392 -6.594805999788001 L106.8034804003392 -6.594805999788001 L106.80420891620541 -6.595971625173957 L106.80543196200442 -6.597286166967198 L106.80574794300664 -6.599261048231032 L106.80599087719538 -6.6007793869106965 L106.80587198592445 -6.599959603290313 L106.80621644853031 -6.6023347549724525 L106.80607549982889 -6.601362880117011 L106.8067509005439 -6.602571824808242 L106.8067509005439 -6.602571824808242 L106.80709458424673 -6.603187007141867 L106.80853606452887 -6.602315414413135 L106.80853606452887 -6.602315414413135 L106.83114635458567 -6.5886440762392615 L106.8095587698755 -6.603755385536414 L106.8095587698755 -6.603755385536414 L106.80824114898262 -6.604677720161436 L106.80853634537603 -6.60506516542779 L106.80853634537603 -6.60506516542779 L106.80930373449073 -6.60607236364083 L106.80958284271249 -6.606634314575052 L106.80986568542495 -6.606917157287526 L106.81036627449042 -6.607417746352989 L106.81075470019623 -6.60763982978415 L106.81097658027473 -6.607972649901884 L106.8111669931509 -6.608258269216164 L106.81186432023232 -6.610045986566512 L106.81230401343349 -6.610714320232307 L106.81335479524252 -6.612311508582015 L106.81433461538461 -6.613623076923077 L106.81464230769231 -6.61436153846154 L106.81505990075831 -6.615363761819959 Z" stroke="orange" stroke-width="0.0002" fill="none" />
    <circle 
      cx="106.82901" cy="-12.627059"
      r="15" transform="translate(106.82901 -6.627059) scale(0.00001 -0.00001) translate(-106.82901 6.627059) translate(106.7975 -6.592499999999999) rotate(0) translate(-106.7975 6.592499999999999)"
      fill="white" stroke="black" stroke-width="2"/>
    <circle 
      cx="106.838754" cy="-12.605049000000001"
      r="15" transform="translate(106.838754 -6.605049) scale(0.00001 -0.00001) translate(-106.838754 6.605049) translate(106.7975 -6.592499999999999) rotate(0) translate(-106.7975 6.592499999999999)"
      fill="white" stroke="black" stroke-width="2"/>
    <circle 
      cx="106.815" cy="-12.6175"
      r="15" transform="translate(106.815 -6.6175) scale(0.00001 -0.00001) translate(-106.815 6.6175) translate(106.7975 -6.592499999999999) rotate(0) translate(-106.7975 6.592499999999999)"
      fill="white" stroke="black" stroke-width="2"/>
    <circle 
      cx="106.82901" cy="-12.627059"
      r="15" transform="translate(106.82901 -6.627059) scale(0.00001 -0.00001) translate(-106.82901 6.627059) translate(106.7975 -6.592499999999999) rotate(0) translate(-106.7975 6.592499999999999)"
      fill="white" stroke="none"/>
    <circle 
      cx="106.838754" cy="-12.605049000000001"
      r="15" transform="translate(106.838754 -6.605049) scale(0.00001 -0.00001) translate(-106.838754 6.605049) translate(106.7975 -6.592499999999999) rotate(0) translate(-106.7975 6.592499999999999)"
      fill="white" stroke="none"/>
    <circle 
      cx="106.815" cy="-12.6175"
      r="15" transform="translate(106.815 -6.6175) scale(0.00001 -0.00001) translate(-106.815 6.6175) translate(106.7975 -6.592499999999999) rotate(0) translate(-106.7975 6.592499999999999)"
      fill="white" stroke="none"/>
    <text x="106.82901" y="-6.627059" fill="black" text-anchor="middle" transform="translate(106.82901 -6.627059) scale(0.00001 -0.00001) translate(-106.82901 6.627059) translate(106.7975 -6.592499999999999) rotate(0) translate(-106.7975 6.592499999999999)">13</text>
    <text x="106.838754" y="-6.605049" fill="black" text-anchor="middle" transform="translate(106.838754 -6.605049) scale(0.00001 -0.00001) translate(-106.838754 6.605049) translate(106.7975 -6.592499999999999) rotate(0) translate(-106.7975 6.592499999999999)">13</text>
    <text x="106.815" y="-6.6175" fill="black" text-anchor="middle" transform="translate(106.815 -6.6175) scale(0.00001 -0.00001) translate(-106.815 6.6175) translate(106.7975 -6.592499999999999) rotate(0) translate(-106.7975 6.592499999999999)">13</text>
    <line x1="106.8145" y1="-6.6161" x2="106.8177" y2="-6.6165" style="stroke:rgb(255,0,0);stroke-width:.00002" />
    <line x1="106.8145" y1="-6.6161" x2="106.81570308884932" y2="-6.616250386106165" style="stroke:rgb(0,0,0);stroke-width:.00002" />
    <line x1="106.81570308884932" y1="-6.616250386106165" x2="106.8164969111507" y2="-6.616349613893837" style="stroke:rgb(0,0,0);stroke-width:.00002" />
    <line x1="106.8164969111507" y1="-6.616349613893837" x2="106.8177" y2="-6.6165" style="stroke:rgb(0,0,0);stroke-width:.00002" />
    <circle cx="106.8145" cy="-6.6161" fill="rgb(255,0,0)" r=".0001" />
    <text x="106.8145" y="-6.6161" stroke="rgb(0,0,0)" transform="translate(106.8145 -6.6161),scale(0.00001 -0.00001),translate(-106.8145 6.6161),translate(106.7975 -6.592499999999999),rotate(0),translate(-106.7975 6.592499999999999)" >pajajaran-durian</text>
    <line x1="106.8177" y1="-6.6165" x2="106.8186" y2="-6.6172" style="stroke:rgb(255,0,0);stroke-width:.00002" />
    <line x1="106.8177" y1="-6.6165" x2="106.81815" y2="-6.61685" style="stroke:rgb(0,0,0);stroke-width:.00002" />
    <line x1="106.81815" y1="-6.61685" x2="106.81815" y2="-6.61685" style="stroke:rgb(0,0,0);stroke-width:.00002" />
    <line x1="106.81815" y1="-6.61685" x2="106.8186" y2="-6.6172" style="stroke:rgb(0,0,0);stroke-width:.00002" />
    <circle cx="106.8177" cy="-6.6165" fill="rgb(255,0,0)" r=".0001" />
    <text x="106.8177" y="-6.6165" stroke="rgb(0,0,0)" transform="translate(106.8177 -6.6165),scale(0.00001 -0.00001),translate(-106.8177 6.6165),translate(106.7975 -6.592499999999999),rotate(0),translate(-106.7975 6.592499999999999)" >durian-1</text>
    <line x1="106.8186" y1="-6.6172" x2="106.8195" y2="-6.6184" style="stroke:rgb(255,0,0);stroke-width:.00002" />
    <line x1="106.8186" y1="-6.6172" x2="106.81905" y2="-6.617800000000001" style="stroke:rgb(0,0,0);stroke-width:.00002" />
    <line x1="106.81905" y1="-6.617800000000001" x2="106.81905" y2="-6.617800000000001" style="stroke:rgb(0,0,0);stroke-width:.00002" />
    <line x1="106.81905" y1="-6.617800000000001" x2="106.8195" y2="-6.6184" style="stroke:rgb(0,0,0);stroke-width:.00002" />
    <circle cx="106.8186" cy="-6.6172" fill="rgb(255,0,0)" r=".0001" />
    <text x="106.8186" y="-6.6172" stroke="rgb(0,0,0)" transform="translate(106.8186 -6.6172),scale(0.00001 -0.00001),translate(-106.8186 6.6172),translate(106.7975 -6.592499999999999),rotate(0),translate(-106.7975 6.592499999999999)" >durian-2</text>
    <line x1="106.8195" y1="-6.6184" x2="106.820295" y2="-6.618061" style="stroke:rgb(255,0,0);stroke-width:.00002" />
    <line x1="106.8195" y1="-6.6184" x2="106.81971352766463" y2="-6.618308948580741" style="stroke:rgb(0,0,0);stroke-width:.00002" />
    <line x1="106.81971352766463" y1="-6.618308948580741" x2="106.82008147233536" y2="-6.618152051419259" style="stroke:rgb(0,0,0);stroke-width:.00002" />
    <line x1="106.82008147233536" y1="-6.618152051419259" x2="106.820295" y2="-6.618061" style="stroke:rgb(0,0,0);stroke-width:.00002" />
    <circle cx="106.8195" cy="-6.6184" fill="rgb(255,0,0)" r=".0001" />
    <text x="106.8195" y="-6.6184" stroke="rgb(0,0,0)" transform="translate(106.8195 -6.6184),scale(0.00001 -0.00001),translate(-106.8195 6.6184),translate(106.7975 -6.592499999999999),rotate(0),translate(-106.7975 6.592499999999999)" >durian-3</text>
    <line x1="106.820295" y1="-6.618061" x2="106.827982" y2="-6.624926" style="stroke:rgb(255,0,0);stroke-width:.00002" />
    <line x1="106.820295" y1="-6.618061" x2="106.8241385" y2="-6.6214935" style="stroke:rgb(0,0,0);stroke-width:.00002" />
    <line x1="106.8241385" y1="-6.6214935" x2="106.8241385" y2="-6.6214935" style="stroke:rgb(0,0,0);stroke-width:.00002" />
    <line x1="106.8241385" y1="-6.6214935" x2="106.827982" y2="-6.624926" style="stroke:rgb(0,0,0);stroke-width:.00002" />
    <circle cx="106.820295" cy="-6.618061" fill="rgb(255,0,0)" r=".0001" />
    <text x="106.820295" y="-6.618061" stroke="rgb(0,0,0)" transform="translate(106.820295 -6.618061),scale(0.00001 -0.00001),translate(-106.820295 6.618061),translate(106.7975 -6.592499999999999),rotate(0),translate(-106.7975 6.592499999999999)" >rambutan</text>
    <line x1="106.827982" y1="-6.624926" x2="106.82901" y2="-6.627059" style="stroke:rgb(255,0,0);stroke-width:.00002" />
    <line x1="106.827982" y1="-6.624926" x2="106.828496" y2="-6.625992500000001" style="stroke:rgb(0,0,0);stroke-width:.00002" />
    <line x1="106.828496" y1="-6.625992500000001" x2="106.828496" y2="-6.625992500000001" style="stroke:rgb(0,0,0);stroke-width:.00002" />
    <line x1="106.828496" y1="-6.625992500000001" x2="106.82901" y2="-6.627059" style="stroke:rgb(0,0,0);stroke-width:.00002" />
    <circle cx="106.827982" cy="-6.624926" fill="rgb(255,0,0)" r=".0001" />
    <text x="106.827982" y="-6.624926" stroke="rgb(0,0,0)" transform="translate(106.827982 -6.624926),scale(0.00001 -0.00001),translate(-106.827982 6.624926),translate(106.7975 -6.592499999999999),rotate(0),translate(-106.7975 6.592499999999999)" >banteng-sungai</text>
    <line x1="106.82901" y1="-6.627059" x2="106.827982" y2="-6.624926" style="stroke:rgb(255,0,0);stroke-width:.00002" />
    <line x1="106.82901" y1="-6.627059" x2="106.828496" y2="-6.625992500000001" style="stroke:rgb(0,0,0);stroke-width:.00002" />
    <line x1="106.828496" y1="-6.625992500000001" x2="106.828496" y2="-6.625992500000001" style="stroke:rgb(0,0,0);stroke-width:.00002" />
    <line x1="106.828496" y1="-6.625992500000001" x2="106.827982" y2="-6.624926" style="stroke:rgb(0,0,0);stroke-width:.00002" />
    <circle cx="106.82901" cy="-6.627059" fill="rgb(255,0,0)" r=".0001" />
    <text x="106.82901" y="-6.627059" stroke="rgb(0,0,0)" transform="translate(106.82901 -6.627059),scale(0.00001 -0.00001),translate(-106.82901 6.627059),translate(106.7975 -6.592499999999999),rotate(0),translate(-106.7975 6.592499999999999)" >katulampa</text>
    <line x1="106.827982" y1="-6.624926" x2="106.829696" y2="-6.622076" style="stroke:rgb(255,0,0);stroke-width:.00002" />
    <line x1="106.827982" y1="-6.624926" x2="106.828839" y2="-6.623501" style="stroke:rgb(0,0,0);stroke-width:.00002" />
    <line x1="106.828839" y1="-6.623501" x2="106.828839" y2="-6.623501" style="stroke:rgb(0,0,0);stroke-width:.00002" />
    <line x1="106.828839" y1="-6.623501" x2="106.829696" y2="-6.622076" style="stroke:rgb(0,0,0);stroke-width:.00002" />
    <circle cx="106.827982" cy="-6.624926" fill="rgb(255,0,0)" r=".0001" />
    <text x="106.827982" y="-6.624926" stroke="rgb(0,0,0)" transform="translate(106.827982 -6.624926),scale(0.00001 -0.00001),translate(-106.827982 6.624926),translate(106.7975 -6.592499999999999),rotate(0),translate(-106.7975 6.592499999999999)" >banteng-sungai</text>
    <line x1="106.829696" y1="-6.622076" x2="106.83381" y2="-6.618545" style="stroke:rgb(255,0,0);stroke-width:.00002" />
    <line x1="106.829696" y1="-6.622076" x2="106.83175299999999" y2="-6.6203105" style="stroke:rgb(0,0,0);stroke-width:.00002" />
    <line x1="106.83175299999999" y1="-6.6203105" x2="106.83175299999999" y2="-6.6203105" style="stroke:rgb(0,0,0);stroke-width:.00002" />
    <line x1="106.83175299999999" y1="-6.6203105" x2="106.83381" y2="-6.618545" style="stroke:rgb(0,0,0);stroke-width:.00002" />
    <circle cx="106.829696" cy="-6.622076" fill="rgb(255,0,0)" r=".0001" />
    <text x="106.829696" y="-6.622076" stroke="rgb(0,0,0)" transform="translate(106.829696 -6.622076),scale(0.00001 -0.00001),translate(-106.829696 6.622076),translate(106.7975 -6.592499999999999),rotate(0),translate(-106.7975 6.592499999999999)" >banteng-busyro</text>
    <line x1="106.83381" y1="-6.618545" x2="106.837166" y2="-6.613043" style="stroke:rgb(255,0,0);stroke-width:.00002" />
    <line x1="106.83381" y1="-6.618545" x2="106.835488" y2="-6.615794" style="stroke:rgb(0,0,0);stroke-width:.00002" />
    <line x1="106.835488" y1="-6.615794" x2="106.835488" y2="-6.615794" style="stroke:rgb(0,0,0);stroke-width:.00002" />
    <line x1="106.835488" y1="-6.615794" x2="106.837166" y2="-6.613043" style="stroke:rgb(0,0,0);stroke-width:.00002" />
    <circle cx="106.83381" cy="-6.618545" fill="rgb(255,0,0)" r=".0001" />
    <text x="106.83381" y="-6.618545" stroke="rgb(0,0,0)" transform="translate(106.83381 -6.618545),scale(0.00001 -0.00001),translate(-106.83381 6.618545),translate(106.7975 -6.592499999999999),rotate(0),translate(-106.7975 6.592499999999999)" >banteng-tol</text>
    <line x1="106.837166" y1="-6.613043" x2="106.838754" y2="-6.605049" style="stroke:rgb(255,0,0);stroke-width:.00002" />
    <line x1="106.837166" y1="-6.613043" x2="106.83796" y2="-6.609046" style="stroke:rgb(0,0,0);stroke-width:.00002" />
    <line x1="106.83796" y1="-6.609046" x2="106.83796" y2="-6.609046" style="stroke:rgb(0,0,0);stroke-width:.00002" />
    <line x1="106.83796" y1="-6.609046" x2="106.838754" y2="-6.605049" style="stroke:rgb(0,0,0);stroke-width:.00002" />
    <circle cx="106.837166" cy="-6.613043" fill="rgb(255,0,0)" r=".0001" />
    <text x="106.837166" y="-6.613043" stroke="rgb(0,0,0)" transform="translate(106.837166 -6.613043),scale(0.00001 -0.00001),translate(-106.837166 6.613043),translate(106.7975 -6.592499999999999),rotate(0),translate(-106.7975 6.592499999999999)" >pasirangin-1</text>
    <line x1="106.838754" y1="-6.605049" x2="106.837166" y2="-6.613043" style="stroke:rgb(255,0,0);stroke-width:.00002" />
    <line x1="106.838754" y1="-6.605049" x2="106.83796" y2="-6.609046" style="stroke:rgb(0,0,0);stroke-width:.00002" />
    <line x1="106.83796" y1="-6.609046" x2="106.83796" y2="-6.609046" style="stroke:rgb(0,0,0);stroke-width:.00002" />
    <line x1="106.83796" y1="-6.609046" x2="106.837166" y2="-6.613043" style="stroke:rgb(0,0,0);stroke-width:.00002" />
    <circle cx="106.838754" cy="-6.605049" fill="rgb(255,0,0)" r=".0001" />
    <text x="106.838754" y="-6.605049" stroke="rgb(0,0,0)" transform="translate(106.838754 -6.605049),scale(0.00001 -0.00001),translate(-106.838754 6.605049),translate(106.7975 -6.592499999999999),rotate(0),translate(-106.7975 6.592499999999999)" >pasirangin-novotel</text>
    <line x1="106.837166" y1="-6.613043" x2="106.83381" y2="-6.618545" style="stroke:rgb(255,0,0);stroke-width:.00002" />
    <line x1="106.837166" y1="-6.613043" x2="106.835488" y2="-6.615794" style="stroke:rgb(0,0,0);stroke-width:.00002" />
    <line x1="106.835488" y1="-6.615794" x2="106.835488" y2="-6.615794" style="stroke:rgb(0,0,0);stroke-width:.00002" />
    <line x1="106.835488" y1="-6.615794" x2="106.83381" y2="-6.618545" style="stroke:rgb(0,0,0);stroke-width:.00002" />
    <circle cx="106.837166" cy="-6.613043" fill="rgb(255,0,0)" r=".0001" />
    <text x="106.837166" y="-6.613043" stroke="rgb(0,0,0)" transform="translate(106.837166 -6.613043),scale(0.00001 -0.00001),translate(-106.837166 6.613043),translate(106.7975 -6.592499999999999),rotate(0),translate(-106.7975 6.592499999999999)" >pasirangin-1</text>
    <line x1="106.83381" y1="-6.618545" x2="106.829696" y2="-6.622076" style="stroke:rgb(255,0,0);stroke-width:.00002" />
    <line x1="106.83381" y1="-6.618545" x2="106.83175299999999" y2="-6.6203105" style="stroke:rgb(0,0,0);stroke-width:.00002" />
    <line x1="106.83175299999999" y1="-6.6203105" x2="106.83175299999999" y2="-6.6203105" style="stroke:rgb(0,0,0);stroke-width:.00002" />
    <line x1="106.83175299999999" y1="-6.6203105" x2="106.829696" y2="-6.622076" style="stroke:rgb(0,0,0);stroke-width:.00002" />
    <circle cx="106.83381" cy="-6.618545" fill="rgb(255,0,0)" r=".0001" />
    <text x="106.83381" y="-6.618545" stroke="rgb(0,0,0)" transform="translate(106.83381 -6.618545),scale(0.00001 -0.00001),translate(-106.83381 6.618545),translate(106.7975 -6.592499999999999),rotate(0),translate(-106.7975 6.592499999999999)" >banteng-tol</text>
    <line x1="106.829696" y1="-6.622076" x2="106.827982" y2="-6.624926" style="stroke:rgb(255,0,0);stroke-width:.00002" />
    <line x1="106.829696" y1="-6.622076" x2="106.828839" y2="-6.623501" style="stroke:rgb(0,0,0);stroke-width:.00002" />
    <line x1="106.828839" y1="-6.623501" x2="106.828839" y2="-6.623501" style="stroke:rgb(0,0,0);stroke-width:.00002" />
    <line x1="106.828839" y1="-6.623501" x2="106.827982" y2="-6.624926" style="stroke:rgb(0,0,0);stroke-width:.00002" />
    <circle cx="106.829696" cy="-6.622076" fill="rgb(255,0,0)" r=".0001" />
    <text x="106.829696" y="-6.622076" stroke="rgb(0,0,0)" transform="translate(106.829696 -6.622076),scale(0.00001 -0.00001),translate(-106.829696 6.622076),translate(106.7975 -6.592499999999999),rotate(0),translate(-106.7975 6.592499999999999)" >banteng-busyro</text>
    <line x1="106.827982" y1="-6.624926" x2="106.820295" y2="-6.618061" style="stroke:rgb(255,0,0);stroke-width:.00002" />
    <line x1="106.827982" y1="-6.624926" x2="106.8241385" y2="-6.6214935" style="stroke:rgb(0,0,0);stroke-width:.00002" />
    <line x1="106.8241385" y1="-6.6214935" x2="106.8241385" y2="-6.6214935" style="stroke:rgb(0,0,0);stroke-width:.00002" />
    <line x1="106.8241385" y1="-6.6214935" x2="106.820295" y2="-6.618061" style="stroke:rgb(0,0,0);stroke-width:.00002" />
    <circle cx="106.827982" cy="-6.624926" fill="rgb(255,0,0)" r=".0001" />
    <text x="106.827982" y="-6.624926" stroke="rgb(0,0,0)" transform="translate(106.827982 -6.624926),scale(0.00001 -0.00001),translate(-106.827982 6.624926),translate(106.7975 -6.592499999999999),rotate(0),translate(-106.7975 6.592499999999999)" >banteng-sungai</text>
    <line x1="106.820295" y1="-6.618061" x2="106.8195" y2="-6.6184" style="stroke:rgb(255,0,0);stroke-width:.00002" />
    <line x1="106.820295" y1="-6.618061" x2="106.8198975" y2="-6.6182305" style="stroke:rgb(0,0,0);stroke-width:.00002" />
    <line x1="106.8198975" y1="-6.6182305" x2="106.8198975" y2="-6.6182305" style="stroke:rgb(0,0,0);stroke-width:.00002" />
    <line x1="106.8198975" y1="-6.6182305" x2="106.8195" y2="-6.6184" style="stroke:rgb(0,0,0);stroke-width:.00002" />
    <circle cx="106.820295" cy="-6.618061" fill="rgb(255,0,0)" r=".0001" />
    <text x="106.820295" y="-6.618061" stroke="rgb(0,0,0)" transform="translate(106.820295 -6.618061),scale(0.00001 -0.00001),translate(-106.820295 6.618061),translate(106.7975 -6.592499999999999),rotate(0),translate(-106.7975 6.592499999999999)" >rambutan</text>
    <line x1="106.8195" y1="-6.6184" x2="106.8186" y2="-6.6172" style="stroke:rgb(255,0,0);stroke-width:.00002" />
    <line x1="106.8195" y1="-6.6184" x2="106.81917" y2="-6.617960000000001" style="stroke:rgb(0,0,0);stroke-width:.00002" />
    <line x1="106.81917" y1="-6.617960000000001" x2="106.81893000000001" y2="-6.617640000000001" style="stroke:rgb(0,0,0);stroke-width:.00002" />
    <line x1="106.81893000000001" y1="-6.617640000000001" x2="106.8186" y2="-6.6172" style="stroke:rgb(0,0,0);stroke-width:.00002" />
    <circle cx="106.8195" cy="-6.6184" fill="rgb(255,0,0)" r=".0001" />
    <text x="106.8195" y="-6.6184" stroke="rgb(0,0,0)" transform="translate(106.8195 -6.6184),scale(0.00001 -0.00001),translate(-106.8195 6.6184),translate(106.7975 -6.592499999999999),rotate(0),translate(-106.7975 6.592499999999999)" >durian-3</text>
    <line x1="106.8186" y1="-6.6172" x2="106.8177" y2="-6.6165" style="stroke:rgb(255,0,0);stroke-width:.00002" />
    <line x1="106.8186" y1="-6.6172" x2="106.81815" y2="-6.61685" style="stroke:rgb(0,0,0);stroke-width:.00002" />
    <line x1="106.81815" y1="-6.61685" x2="106.81815" y2="-6.61685" style="stroke:rgb(0,0,0);stroke-width:.00002" />
    <line x1="106.81815" y1="-6.61685" x2="106.8177" y2="-6.6165" style="stroke:rgb(0,0,0);stroke-width:.00002" />
    <circle cx="106.8186" cy="-6.6172" fill="rgb(255,0,0)" r=".0001" />
    <text x="106.8186" y="-6.6172" stroke="rgb(0,0,0)" transform="translate(106.8186 -6.6172),scale(0.00001 -0.00001),translate(-106.8186 6.6172),translate(106.7975 -6.592499999999999),rotate(0),translate(-106.7975 6.592499999999999)" >durian-2</text>
    <line x1="106.8177" y1="-6.6165" x2="106.8145" y2="-6.6161" style="stroke:rgb(255,0,0);stroke-width:.00002" />
    <line x1="106.8177" y1="-6.6165" x2="106.8161" y2="-6.616300000000001" style="stroke:rgb(0,0,0);stroke-width:.00002" />
    <line x1="106.8161" y1="-6.616300000000001" x2="106.8161" y2="-6.616300000000001" style="stroke:rgb(0,0,0);stroke-width:.00002" />
    <line x1="106.8161" y1="-6.616300000000001" x2="106.8145" y2="-6.6161" style="stroke:rgb(0,0,0);stroke-width:.00002" />
    <circle cx="106.8177" cy="-6.6165" fill="rgb(255,0,0)" r=".0001" />
    <text x="106.8177" y="-6.6165" stroke="rgb(0,0,0)" transform="translate(106.8177 -6.6165),scale(0.00001 -0.00001),translate(-106.8177 6.6165),translate(106.7975 -6.592499999999999),rotate(0),translate(-106.7975 6.592499999999999)" >durian-1</text>
    <line x1="106.8145" y1="-6.6161" x2="106.815" y2="-6.6175" style="stroke:rgb(255,0,0);stroke-width:.00002" />
    <line x1="106.8145" y1="-6.6161" x2="106.81475" y2="-6.6168" style="stroke:rgb(0,0,0);stroke-width:.00002" />
    <line x1="106.81475" y1="-6.6168" x2="106.81475" y2="-6.6168" style="stroke:rgb(0,0,0);stroke-width:.00002" />
    <line x1="106.81475" y1="-6.6168" x2="106.815" y2="-6.6175" style="stroke:rgb(0,0,0);stroke-width:.00002" />
    <circle cx="106.8145" cy="-6.6161" fill="rgb(255,0,0)" r=".0001" />
    <text x="106.8145" y="-6.6161" stroke="rgb(0,0,0)" transform="translate(106.8145 -6.6161),scale(0.00001 -0.00001),translate(-106.8145 6.6161),translate(106.7975 -6.592499999999999),rotate(0),translate(-106.7975 6.592499999999999)" >pajajaran-durian</text>
    <line x1="106.815" y1="-6.6175" x2="106.8145" y2="-6.6161" style="stroke:rgb(255,0,0);stroke-width:.00002" />
    <line x1="106.815" y1="-6.6175" x2="106.8149518018382" y2="-6.617365045146956" style="stroke:rgb(0,0,0);stroke-width:.00002" />
    <line x1="106.8149518018382" y1="-6.617365045146956" x2="106.8145481981618" y2="-6.616234954853043" style="stroke:rgb(0,0,0);stroke-width:.00002" />
    <line x1="106.8145481981618" y1="-6.616234954853043" x2="106.8145" y2="-6.6161" style="stroke:rgb(0,0,0);stroke-width:.00002" />
    <circle cx="106.815" cy="-6.6175" fill="rgb(255,0,0)" r=".0001" />
    <text x="106.815" y="-6.6175" stroke="rgb(0,0,0)" transform="translate(106.815 -6.6175),scale(0.00001 -0.00001),translate(-106.815 6.6175),translate(106.7975 -6.592499999999999),rotate(0),translate(-106.7975 6.592499999999999)" >pajajaran-ggmesjid</text>
    <line x1="106.8145" y1="-6.6161" x2="106.813" y2="-6.6125" style="stroke:rgb(255,0,0);stroke-width:.00002" />
    <line x1="106.8145" y1="-6.6161" x2="106.81382692307692" y2="-6.614484615384615" style="stroke:rgb(0,0,0);stroke-width:.00002" />
    <line x1="106.81382692307692" y1="-6.614484615384615" x2="106.81367307692308" y2="-6.614115384615385" style="stroke:rgb(0,0,0);stroke-width:.00002" />
    <line x1="106.81367307692308" y1="-6.614115384615385" x2="106.813" y2="-6.6125" style="stroke:rgb(0,0,0);stroke-width:.00002" />
    <circle cx="106.8145" cy="-6.6161" fill="rgb(255,0,0)" r=".0001" />
    <text x="106.8145" y="-6.6161" stroke="rgb(0,0,0)" transform="translate(106.8145 -6.6161),scale(0.00001 -0.00001),translate(-106.8145 6.6161),translate(106.7975 -6.592499999999999),rotate(0),translate(-106.7975 6.592499999999999)" >pajajaran-durian</text>
    <line x1="106.813" y1="-6.6125" x2="106.8105" y2="-6.6087" style="stroke:rgb(255,0,0);stroke-width:.00002" />
    <line x1="106.813" y1="-6.6125" x2="106.8118599233003" y2="-6.610767083416449" style="stroke:rgb(0,0,0);stroke-width:.00002" />
    <line x1="106.8118599233003" y1="-6.610767083416449" x2="106.8116400766997" y2="-6.610432916583551" style="stroke:rgb(0,0,0);stroke-width:.00002" />
    <line x1="106.8116400766997" y1="-6.610432916583551" x2="106.8105" y2="-6.6087" style="stroke:rgb(0,0,0);stroke-width:.00002" />
    <circle cx="106.813" cy="-6.6125" fill="rgb(255,0,0)" r=".0001" />
    <text x="106.813" y="-6.6125" stroke="rgb(0,0,0)" transform="translate(106.813 -6.6125),scale(0.00001 -0.00001),translate(-106.813 6.6125),translate(106.7975 -6.592499999999999),rotate(0),translate(-106.7975 6.592499999999999)" >pajajaran-pjjindah</text>
    <line x1="106.8105" y1="-6.6087" x2="106.8099" y2="-6.6078" style="stroke:rgb(255,0,0);stroke-width:.00002" />
    <line x1="106.8105" y1="-6.6087" x2="106.8104218800785" y2="-6.608582820117734" style="stroke:rgb(0,0,0);stroke-width:.00002" />
    <line x1="106.8104218800785" y1="-6.608582820117734" x2="106.80997811992152" y2="-6.607917179882266" style="stroke:rgb(0,0,0);stroke-width:.00002" />
    <line x1="106.80997811992152" y1="-6.607917179882266" x2="106.8099" y2="-6.6078" style="stroke:rgb(0,0,0);stroke-width:.00002" />
    <circle cx="106.8105" cy="-6.6087" fill="rgb(255,0,0)" r=".0001" />
    <text x="106.8105" y="-6.6087" stroke="rgb(0,0,0)" transform="translate(106.8105 -6.6087),scale(0.00001 -0.00001),translate(-106.8105 6.6087),translate(106.7975 -6.592499999999999),rotate(0),translate(-106.7975 6.592499999999999)" >pajajaran-michelle-bakery</text>
    <line x1="106.8099" y1="-6.6078" x2="106.8087" y2="-6.6066" style="stroke:rgb(255,0,0);stroke-width:.00002" />
    <line x1="106.8099" y1="-6.6078" x2="106.80944142135624" y2="-6.607341421356238" style="stroke:rgb(0,0,0);stroke-width:.00002" />
    <line x1="106.80944142135624" y1="-6.607341421356238" x2="106.80915857864377" y2="-6.6070585786437634" style="stroke:rgb(0,0,0);stroke-width:.00002" />
    <line x1="106.80915857864377" y1="-6.6070585786437634" x2="106.8087" y2="-6.6066" style="stroke:rgb(0,0,0);stroke-width:.00002" />
    <circle cx="106.8099" cy="-6.6078" fill="rgb(255,0,0)" r=".0001" />
    <text x="106.8099" y="-6.6078" stroke="rgb(0,0,0)" transform="translate(106.8099 -6.6078),scale(0.00001 -0.00001),translate(-106.8099 6.6078),translate(106.7975 -6.592499999999999),rotate(0),translate(-106.7975 6.592499999999999)" >pajajaran-ciheuleut</text>
    <line x1="106.8087" y1="-6.6066" x2="106.808" y2="-6.6069" style="stroke:rgb(255,0,0);stroke-width:.00002" />
    <line x1="106.8087" y1="-6.6066" x2="106.80871765801201" y2="-6.606592432280567" style="stroke:rgb(0,0,0);stroke-width:.00002" />
    <line x1="106.80871765801201" y1="-6.606592432280567" x2="106.807982341988" y2="-6.606907567719433" style="stroke:rgb(0,0,0);stroke-width:.00002" />
    <line x1="106.807982341988" y1="-6.606907567719433" x2="106.808" y2="-6.6069" style="stroke:rgb(0,0,0);stroke-width:.00002" />
    <circle cx="106.8087" cy="-6.6066" fill="rgb(255,0,0)" r=".0001" />
    <text x="106.8087" y="-6.6066" stroke="rgb(0,0,0)" transform="translate(106.8087 -6.6066),scale(0.00001 -0.00001),translate(-106.8087 6.6066),translate(106.7975 -6.592499999999999),rotate(0),translate(-106.7975 6.592499999999999)" >bangka-1</text>
    <line x1="106.808" y1="-6.6069" x2="106.8074" y2="-6.6065" style="stroke:rgb(255,0,0);stroke-width:.00002" />
    <line x1="106.808" y1="-6.6069" x2="106.80770000000001" y2="-6.6067" style="stroke:rgb(0,0,0);stroke-width:.00002" />
    <line x1="106.80770000000001" y1="-6.6067" x2="106.80770000000001" y2="-6.6067" style="stroke:rgb(0,0,0);stroke-width:.00002" />
    <line x1="106.80770000000001" y1="-6.6067" x2="106.8074" y2="-6.6065" style="stroke:rgb(0,0,0);stroke-width:.00002" />
    <circle cx="106.808" cy="-6.6069" fill="rgb(255,0,0)" r=".0001" />
    <text x="106.808" y="-6.6069" stroke="rgb(0,0,0)" transform="translate(106.808 -6.6069),scale(0.00001 -0.00001),translate(-106.808 6.6069),translate(106.7975 -6.592499999999999),rotate(0),translate(-106.7975 6.592499999999999)" >bangka-2</text>
    <line x1="106.8074" y1="-6.6065" x2="106.8067" y2="-6.6066" style="stroke:rgb(255,0,0);stroke-width:.00002" />
    <line x1="106.8074" y1="-6.6065" x2="106.80705" y2="-6.60655" style="stroke:rgb(0,0,0);stroke-width:.00002" />
    <line x1="106.80705" y1="-6.60655" x2="106.80705" y2="-6.60655" style="stroke:rgb(0,0,0);stroke-width:.00002" />
    <line x1="106.80705" y1="-6.60655" x2="106.8067" y2="-6.6066" style="stroke:rgb(0,0,0);stroke-width:.00002" />
    <circle cx="106.8074" cy="-6.6065" fill="rgb(255,0,0)" r=".0001" />
    <text x="106.8074" y="-6.6065" stroke="rgb(0,0,0)" transform="translate(106.8074 -6.6065),scale(0.00001 -0.00001),translate(-106.8074 6.6065),translate(106.7975 -6.592499999999999),rotate(0),translate(-106.7975 6.592499999999999)" >bangka-3</text>
    <line x1="106.8067" y1="-6.6066" x2="106.8058" y2="-6.6052" style="stroke:rgb(255,0,0);stroke-width:.00002" />
    <line x1="106.8067" y1="-6.6066" x2="106.80625" y2="-6.6059" style="stroke:rgb(0,0,0);stroke-width:.00002" />
    <line x1="106.80625" y1="-6.6059" x2="106.80625" y2="-6.6059" style="stroke:rgb(0,0,0);stroke-width:.00002" />
    <line x1="106.80625" y1="-6.6059" x2="106.8058" y2="-6.6052" style="stroke:rgb(0,0,0);stroke-width:.00002" />
    <circle cx="106.8067" cy="-6.6066" fill="rgb(255,0,0)" r=".0001" />
    <text x="106.8067" y="-6.6066" stroke="rgb(0,0,0)" transform="translate(106.8067 -6.6066),scale(0.00001 -0.00001),translate(-106.8067 6.6066),translate(106.7975 -6.592499999999999),rotate(0),translate(-106.7975 6.592499999999999)" >bangka-5</text>
    <line x1="106.8058" y1="-6.6052" x2="106.8051" y2="-6.6052" style="stroke:rgb(255,0,0);stroke-width:.00002" />
    <line x1="106.8058" y1="-6.6052" x2="106.80545000000001" y2="-6.6052" style="stroke:rgb(0,0,0);stroke-width:.00002" />
    <line x1="106.80545000000001" y1="-6.6052" x2="106.80545000000001" y2="-6.6052" style="stroke:rgb(0,0,0);stroke-width:.00002" />
    <line x1="106.80545000000001" y1="-6.6052" x2="106.8051" y2="-6.6052" style="stroke:rgb(0,0,0);stroke-width:.00002" />
    <circle cx="106.8058" cy="-6.6052" fill="rgb(255,0,0)" r=".0001" />
    <text x="106.8058" y="-6.6052" stroke="rgb(0,0,0)" transform="translate(106.8058 -6.6052),scale(0.00001 -0.00001),translate(-106.8058 6.6052),translate(106.7975 -6.592499999999999),rotate(0),translate(-106.7975 6.592499999999999)" >bangka-6</text>
    <line x1="106.8051" y1="-6.6052" x2="106.804329" y2="-6.601646" style="stroke:rgb(255,0,0);stroke-width:.00002" />
    <line x1="106.8051" y1="-6.6052" x2="106.80471449999999" y2="-6.603422999999999" style="stroke:rgb(0,0,0);stroke-width:.00002" />
    <line x1="106.80471449999999" y1="-6.603422999999999" x2="106.80471449999999" y2="-6.603422999999999" style="stroke:rgb(0,0,0);stroke-width:.00002" />
    <line x1="106.80471449999999" y1="-6.603422999999999" x2="106.804329" y2="-6.601646" style="stroke:rgb(0,0,0);stroke-width:.00002" />
    <circle cx="106.8051" cy="-6.6052" fill="rgb(255,0,0)" r=".0001" />
    <text x="106.8051" y="-6.6052" stroke="rgb(0,0,0)" transform="translate(106.8051 -6.6052),scale(0.00001 -0.00001),translate(-106.8051 6.6052),translate(106.7975 -6.592499999999999),rotate(0),translate(-106.7975 6.592499999999999)" >bangka-7</text>
    <line x1="106.804329" y1="-6.601646" x2="106.7999" y2="-6.6027" style="stroke:rgb(255,0,0);stroke-width:.00002" />
    <line x1="106.804329" y1="-6.601646" x2="106.803087332133" y2="-6.6019414883566965" style="stroke:rgb(0,0,0);stroke-width:.00002" />
    <line x1="106.803087332133" y1="-6.6019414883566965" x2="106.80114166786697" y2="-6.602404511643303" style="stroke:rgb(0,0,0);stroke-width:.00002" />
    <line x1="106.80114166786697" y1="-6.602404511643303" x2="106.7999" y2="-6.6027" style="stroke:rgb(0,0,0);stroke-width:.00002" />
    <circle cx="106.804329" cy="-6.601646" fill="rgb(255,0,0)" r=".0001" />
    <text x="106.804329" y="-6.601646" stroke="rgb(0,0,0)" transform="translate(106.804329 -6.601646),scale(0.00001 -0.00001),translate(-106.804329 6.601646),translate(106.7975 -6.592499999999999),rotate(0),translate(-106.7975 6.592499999999999)" >bangka-otista</text>
    <line x1="106.7999" y1="-6.6027" x2="106.7996" y2="-6.6027" style="stroke:rgb(255,0,0);stroke-width:.00002" />
    <line x1="106.7999" y1="-6.6027" x2="106.79974999999999" y2="-6.6027" style="stroke:rgb(0,0,0);stroke-width:.00002" />
    <line x1="106.79974999999999" y1="-6.6027" x2="106.79974999999999" y2="-6.6027" style="stroke:rgb(0,0,0);stroke-width:.00002" />
    <line x1="106.79974999999999" y1="-6.6027" x2="106.7996" y2="-6.6027" style="stroke:rgb(0,0,0);stroke-width:.00002" />
    <circle cx="106.7999" cy="-6.6027" fill="rgb(255,0,0)" r=".0001" />
    <text x="106.7999" y="-6.6027" stroke="rgb(0,0,0)" transform="translate(106.7999 -6.6027),scale(0.00001 -0.00001),translate(-106.7999 6.6027),translate(106.7975 -6.592499999999999),rotate(0),translate(-106.7975 6.592499999999999)" >otista-roda</text>
    <line x1="106.7996" y1="-6.6027" x2="106.7988" y2="-6.6031" style="stroke:rgb(255,0,0);stroke-width:.00002" />
    <line x1="106.7996" y1="-6.6027" x2="106.7997366563146" y2="-6.602631671842699" style="stroke:rgb(0,0,0);stroke-width:.00002" />
    <line x1="106.7997366563146" y1="-6.602631671842699" x2="106.7986633436854" y2="-6.603168328157301" style="stroke:rgb(0,0,0);stroke-width:.00002" />
    <line x1="106.7986633436854" y1="-6.603168328157301" x2="106.7988" y2="-6.6031" style="stroke:rgb(0,0,0);stroke-width:.00002" />
    <circle cx="106.7996" cy="-6.6027" fill="rgb(255,0,0)" r=".0001" />
    <text x="106.7996" y="-6.6027" stroke="rgb(0,0,0)" transform="translate(106.7996 -6.6027),scale(0.00001 -0.00001),translate(-106.7996 6.6027),translate(106.7975 -6.592499999999999),rotate(0),translate(-106.7975 6.592499999999999)" >kb-otista</text>
    <line x1="106.7988" y1="-6.6031" x2="106.797256" y2="-6.603941" style="stroke:rgb(255,0,0);stroke-width:.00002" />
    <line x1="106.7988" y1="-6.6031" x2="106.798028" y2="-6.6035205" style="stroke:rgb(0,0,0);stroke-width:.00002" />
    <line x1="106.798028" y1="-6.6035205" x2="106.798028" y2="-6.6035205" style="stroke:rgb(0,0,0);stroke-width:.00002" />
    <line x1="106.798028" y1="-6.6035205" x2="106.797256" y2="-6.603941" style="stroke:rgb(0,0,0);stroke-width:.00002" />
    <circle cx="106.7988" cy="-6.6031" fill="rgb(255,0,0)" r=".0001" />
    <text x="106.7988" y="-6.6031" stroke="rgb(0,0,0)" transform="translate(106.7988 -6.6031),scale(0.00001 -0.00001),translate(-106.7988 6.6031),translate(106.7975 -6.592499999999999),rotate(0),translate(-106.7975 6.592499999999999)" >kb-suryakencana</text>
    <line x1="106.797256" y1="-6.603941" x2="106.7967" y2="-6.6042" style="stroke:rgb(255,0,0);stroke-width:.00002" />
    <line x1="106.797256" y1="-6.603941" x2="106.796978" y2="-6.6040705" style="stroke:rgb(0,0,0);stroke-width:.00002" />
    <line x1="106.796978" y1="-6.6040705" x2="106.796978" y2="-6.6040705" style="stroke:rgb(0,0,0);stroke-width:.00002" />
    <line x1="106.796978" y1="-6.6040705" x2="106.7967" y2="-6.6042" style="stroke:rgb(0,0,0);stroke-width:.00002" />
    <circle cx="106.797256" cy="-6.603941" fill="rgb(255,0,0)" r=".0001" />
    <text x="106.797256" y="-6.603941" stroke="rgb(0,0,0)" transform="translate(106.797256 -6.603941),scale(0.00001 -0.00001),translate(-106.797256 6.603941),translate(106.7975 -6.592499999999999),rotate(0),translate(-106.7975 6.592499999999999)" >cincau-kb</text>
    <line x1="106.7967" y1="-6.6042" x2="106.7961" y2="-6.6038" style="stroke:rgb(255,0,0);stroke-width:.00002" />
    <line x1="106.7967" y1="-6.6042" x2="106.7964" y2="-6.603999999999999" style="stroke:rgb(0,0,0);stroke-width:.00002" />
    <line x1="106.7964" y1="-6.603999999999999" x2="106.7964" y2="-6.603999999999999" style="stroke:rgb(0,0,0);stroke-width:.00002" />
    <line x1="106.7964" y1="-6.603999999999999" x2="106.7961" y2="-6.6038" style="stroke:rgb(0,0,0);stroke-width:.00002" />
    <circle cx="106.7967" cy="-6.6042" fill="rgb(255,0,0)" r=".0001" />
    <text x="106.7967" y="-6.6042" stroke="rgb(0,0,0)" transform="translate(106.7967 -6.6042),scale(0.00001 -0.00001),translate(-106.7967 6.6042),translate(106.7975 -6.592499999999999),rotate(0),translate(-106.7975 6.592499999999999)" >kb-btm-1</text>
    <line x1="106.7961" y1="-6.6038" x2="106.7937" y2="-6.5969" style="stroke:rgb(255,0,0);stroke-width:.00002" />
    <line x1="106.7961" y1="-6.6038" x2="106.79496570412499" y2="-6.600538899359341" style="stroke:rgb(0,0,0);stroke-width:.00002" />
    <line x1="106.79496570412499" y1="-6.600538899359341" x2="106.794834295875" y2="-6.600161100640658" style="stroke:rgb(0,0,0);stroke-width:.00002" />
    <line x1="106.794834295875" y1="-6.600161100640658" x2="106.7937" y2="-6.5969" style="stroke:rgb(0,0,0);stroke-width:.00002" />
    <circle cx="106.7961" cy="-6.6038" fill="rgb(255,0,0)" r=".0001" />
    <text x="106.7961" y="-6.6038" stroke="rgb(0,0,0)" transform="translate(106.7961 -6.6038),scale(0.00001 -0.00001),translate(-106.7961 6.6038),translate(106.7975 -6.592499999999999),rotate(0),translate(-106.7975 6.592499999999999)" >kb-btm-2</text>
    <line x1="106.7937" y1="-6.5969" x2="106.7946" y2="-6.5945" style="stroke:rgb(255,0,0);stroke-width:.00002" />
    <line x1="106.7937" y1="-6.5969" x2="106.79386910124673" y2="-6.596449063342055" style="stroke:rgb(0,0,0);stroke-width:.00002" />
    <line x1="106.79386910124673" y1="-6.596449063342055" x2="106.79443089875328" y2="-6.594950936657945" style="stroke:rgb(0,0,0);stroke-width:.00002" />
    <line x1="106.79443089875328" y1="-6.594950936657945" x2="106.7946" y2="-6.5945" style="stroke:rgb(0,0,0);stroke-width:.00002" />
    <circle cx="106.7937" cy="-6.5969" fill="rgb(255,0,0)" r=".0001" />
    <text x="106.7937" y="-6.5969" stroke="rgb(0,0,0)" transform="translate(106.7937 -6.5969),scale(0.00001 -0.00001),translate(-106.7937 6.5969),translate(106.7975 -6.592499999999999),rotate(0),translate(-106.7975 6.592499999999999)" >kb-muslihat</text>
    <line x1="106.7946" y1="-6.5945" x2="106.7973" y2="-6.593" style="stroke:rgb(255,0,0);stroke-width:.00002" />
    <line x1="106.7946" y1="-6.5945" x2="106.79542550563433" y2="-6.594041385758707" style="stroke:rgb(0,0,0);stroke-width:.00002" />
    <line x1="106.79542550563433" y1="-6.594041385758707" x2="106.79647449436568" y2="-6.593458614241293" style="stroke:rgb(0,0,0);stroke-width:.00002" />
    <line x1="106.79647449436568" y1="-6.593458614241293" x2="106.7973" y2="-6.593" style="stroke:rgb(0,0,0);stroke-width:.00002" />
    <circle cx="106.7946" cy="-6.5945" fill="rgb(255,0,0)" r=".0001" />
    <text x="106.7946" y="-6.5945" stroke="rgb(0,0,0)" transform="translate(106.7946 -6.5945),scale(0.00001 -0.00001),translate(-106.7946 6.5945),translate(106.7975 -6.592499999999999),rotate(0),translate(-106.7975 6.592499999999999)" >kb-gedong-sawah</text>
    <line x1="106.7973" y1="-6.593" x2="106.7984" y2="-6.5935" style="stroke:rgb(255,0,0);stroke-width:.00002" />
    <line x1="106.7973" y1="-6.593" x2="106.79730378011354" y2="-6.593001718233418" style="stroke:rgb(0,0,0);stroke-width:.00002" />
    <line x1="106.79730378011354" y1="-6.593001718233418" x2="106.79839621988648" y2="-6.593498281766581" style="stroke:rgb(0,0,0);stroke-width:.00002" />
    <line x1="106.79839621988648" y1="-6.593498281766581" x2="106.7984" y2="-6.5935" style="stroke:rgb(0,0,0);stroke-width:.00002" />
    <circle cx="106.7973" cy="-6.593" fill="rgb(255,0,0)" r=".0001" />
    <text x="106.7973" y="-6.593" stroke="rgb(0,0,0)" transform="translate(106.7973 -6.593),scale(0.00001 -0.00001),translate(-106.7973 6.593),translate(106.7975 -6.592499999999999),rotate(0),translate(-106.7975 6.592499999999999)" >kb-polisi-militer</text>
    <line x1="106.7984" y1="-6.5935" x2="106.800814" y2="-6.592262" style="stroke:rgb(255,0,0);stroke-width:.00002" />
    <line x1="106.7984" y1="-6.5935" x2="106.79960700000001" y2="-6.592881" style="stroke:rgb(0,0,0);stroke-width:.00002" />
    <line x1="106.79960700000001" y1="-6.592881" x2="106.79960700000001" y2="-6.592881" style="stroke:rgb(0,0,0);stroke-width:.00002" />
    <line x1="106.79960700000001" y1="-6.592881" x2="106.800814" y2="-6.592262" style="stroke:rgb(0,0,0);stroke-width:.00002" />
    <circle cx="106.7984" cy="-6.5935" fill="rgb(255,0,0)" r=".0001" />
    <text x="106.7984" y="-6.5935" stroke="rgb(0,0,0)" transform="translate(106.7984 -6.5935),scale(0.00001 -0.00001),translate(-106.7984 6.5935),translate(106.7975 -6.592499999999999),rotate(0),translate(-106.7975 6.592499999999999)" >kb-jalak-harupat</text>
    <line x1="106.800814" y1="-6.592262" x2="106.801806" y2="-6.592667" style="stroke:rgb(255,0,0);stroke-width:.00002" />
    <line x1="106.800814" y1="-6.592262" x2="106.80112483713589" y2="-6.592388904274229" style="stroke:rgb(0,0,0);stroke-width:.00002" />
    <line x1="106.80112483713589" y1="-6.592388904274229" x2="106.80149516286411" y2="-6.592540095725771" style="stroke:rgb(0,0,0);stroke-width:.00002" />
    <line x1="106.80149516286411" y1="-6.592540095725771" x2="106.801806" y2="-6.592667" style="stroke:rgb(0,0,0);stroke-width:.00002" />
    <circle cx="106.800814" cy="-6.592262" fill="rgb(255,0,0)" r=".0001" />
    <text x="106.800814" y="-6.592262" stroke="rgb(0,0,0)" transform="translate(106.800814 -6.592262),scale(0.00001 -0.00001),translate(-106.800814 6.592262),translate(106.7975 -6.592499999999999),rotate(0),translate(-106.7975 6.592499999999999)" >kb-sempur</text>
    <line x1="106.801806" y1="-6.592667" x2="106.8029" y2="-6.5935" style="stroke:rgb(255,0,0);stroke-width:.00002" />
    <line x1="106.801806" y1="-6.592667" x2="106.8018756308063" y2="-6.592720018703509" style="stroke:rgb(0,0,0);stroke-width:.00002" />
    <line x1="106.8018756308063" y1="-6.592720018703509" x2="106.8028303691937" y2="-6.59344698129649" style="stroke:rgb(0,0,0);stroke-width:.00002" />
    <line x1="106.8028303691937" y1="-6.59344698129649" x2="106.8029" y2="-6.5935" style="stroke:rgb(0,0,0);stroke-width:.00002" />
    <circle cx="106.801806" cy="-6.592667" fill="rgb(255,0,0)" r=".0001" />
    <text x="106.801806" y="-6.592667" stroke="rgb(0,0,0)" transform="translate(106.801806 -6.592667),scale(0.00001 -0.00001),translate(-106.801806 6.592667),translate(106.7975 -6.592499999999999),rotate(0),translate(-106.7975 6.592499999999999)" >kb-salak</text>
    <line x1="106.8029" y1="-6.5935" x2="106.8044" y2="-6.5959" style="stroke:rgb(255,0,0);stroke-width:.00002" />
    <line x1="106.8029" y1="-6.5935" x2="106.80365" y2="-6.5947" style="stroke:rgb(0,0,0);stroke-width:.00002" />
    <line x1="106.80365" y1="-6.5947" x2="106.80365" y2="-6.5947" style="stroke:rgb(0,0,0);stroke-width:.00002" />
    <line x1="106.80365" y1="-6.5947" x2="106.8044" y2="-6.5959" style="stroke:rgb(0,0,0);stroke-width:.00002" />
    <circle cx="106.8029" cy="-6.5935" fill="rgb(255,0,0)" r=".0001" />
    <text x="106.8029" y="-6.5935" stroke="rgb(0,0,0)" transform="translate(106.8029 -6.5935),scale(0.00001 -0.00001),translate(-106.8029 6.5935),translate(106.7975 -6.592499999999999),rotate(0),translate(-106.7975 6.592499999999999)" >kb-pangrango</text>
    <line x1="106.8044" y1="-6.5959" x2="106.8052" y2="-6.6009" style="stroke:rgb(255,0,0);stroke-width:.00002" />
    <line x1="106.8044" y1="-6.5959" x2="106.80464200949889" y2="-6.597412559368083" style="stroke:rgb(0,0,0);stroke-width:.00002" />
    <line x1="106.80464200949889" y1="-6.597412559368083" x2="106.80495799050111" y2="-6.599387440631917" style="stroke:rgb(0,0,0);stroke-width:.00002" />
    <line x1="106.80495799050111" y1="-6.599387440631917" x2="106.8052" y2="-6.6009" style="stroke:rgb(0,0,0);stroke-width:.00002" />
    <circle cx="106.8044" cy="-6.5959" fill="rgb(255,0,0)" r=".0001" />
    <text x="106.8044" y="-6.5959" stroke="rgb(0,0,0)" transform="translate(106.8044 -6.5959),scale(0.00001 -0.00001),translate(-106.8044 6.5959),translate(106.7975 -6.592499999999999),rotate(0),translate(-106.7975 6.592499999999999)" >kb-astrid</text>
    <line x1="106.8052" y1="-6.6009" x2="106.805305" y2="-6.601624" style="stroke:rgb(255,0,0);stroke-width:.00002" />
    <line x1="106.8052" y1="-6.6009" x2="106.80508026869707" y2="-6.60007442415893" style="stroke:rgb(0,0,0);stroke-width:.00002" />
    <line x1="106.80508026869707" y1="-6.60007442415893" x2="106.80542473130292" y2="-6.60244957584107" style="stroke:rgb(0,0,0);stroke-width:.00002" />
    <line x1="106.80542473130292" y1="-6.60244957584107" x2="106.805305" y2="-6.601624" style="stroke:rgb(0,0,0);stroke-width:.00002" />
    <circle cx="106.8052" cy="-6.6009" fill="rgb(255,0,0)" r=".0001" />
    <text x="106.8052" y="-6.6009" stroke="rgb(0,0,0)" transform="translate(106.8052 -6.6009),scale(0.00001 -0.00001),translate(-106.8052 6.6009),translate(106.7975 -6.592499999999999),rotate(0),translate(-106.7975 6.592499999999999)" >kb-botani-1</text>
    <line x1="106.805305" y1="-6.601624" x2="106.8068" y2="-6.6043" style="stroke:rgb(255,0,0);stroke-width:.00002" />
    <line x1="106.805305" y1="-6.601624" x2="106.80605249999999" y2="-6.602962" style="stroke:rgb(0,0,0);stroke-width:.00002" />
    <line x1="106.80605249999999" y1="-6.602962" x2="106.80605249999999" y2="-6.602962" style="stroke:rgb(0,0,0);stroke-width:.00002" />
    <line x1="106.80605249999999" y1="-6.602962" x2="106.8068" y2="-6.6043" style="stroke:rgb(0,0,0);stroke-width:.00002" />
    <circle cx="106.805305" cy="-6.601624" fill="rgb(255,0,0)" r=".0001" />
    <text x="106.805305" y="-6.601624" stroke="rgb(0,0,0)" transform="translate(106.805305 -6.601624),scale(0.00001 -0.00001),translate(-106.805305 6.601624),translate(106.7975 -6.592499999999999),rotate(0),translate(-106.7975 6.592499999999999)" >pajajaran-otista</text>
    <line x1="106.8068" y1="-6.6043" x2="106.8111" y2="-6.6017" style="stroke:rgb(255,0,0);stroke-width:.00002" />
    <line x1="106.8068" y1="-6.6043" x2="106.80895" y2="-6.603" style="stroke:rgb(0,0,0);stroke-width:.00002" />
    <line x1="106.80895" y1="-6.603" x2="106.80895" y2="-6.603" style="stroke:rgb(0,0,0);stroke-width:.00002" />
    <line x1="106.80895" y1="-6.603" x2="106.8111" y2="-6.6017" style="stroke:rgb(0,0,0);stroke-width:.00002" />
    <circle cx="106.8068" cy="-6.6043" fill="rgb(255,0,0)" r=".0001" />
    <text x="106.8068" y="-6.6043" stroke="rgb(0,0,0)" transform="translate(106.8068 -6.6043),scale(0.00001 -0.00001),translate(-106.8068 6.6043),translate(106.7975 -6.592499999999999),rotate(0),translate(-106.7975 6.592499999999999)" >tol-1</text>
    <line x1="106.8111" y1="-6.6017" x2="106.8071" y2="-6.6045" style="stroke:rgb(255,0,0);stroke-width:.00002" />
    <line x1="106.8111" y1="-6.6017" x2="106.8091" y2="-6.6030999999999995" style="stroke:rgb(0,0,0);stroke-width:.00002" />
    <line x1="106.8091" y1="-6.6030999999999995" x2="106.8091" y2="-6.6030999999999995" style="stroke:rgb(0,0,0);stroke-width:.00002" />
    <line x1="106.8091" y1="-6.6030999999999995" x2="106.8071" y2="-6.6045" style="stroke:rgb(0,0,0);stroke-width:.00002" />
    <circle cx="106.8111" cy="-6.6017" fill="rgb(255,0,0)" r=".0001" />
    <text x="106.8111" y="-6.6017" stroke="rgb(0,0,0)" transform="translate(106.8111 -6.6017),scale(0.00001 -0.00001),translate(-106.8111 6.6017),translate(106.7975 -6.592499999999999),rotate(0),translate(-106.7975 6.592499999999999)" >tol-2</text>
    <line x1="106.8071" y1="-6.6045" x2="106.8087" y2="-6.6066" style="stroke:rgb(255,0,0);stroke-width:.00002" />
    <line x1="106.8071" y1="-6.6045" x2="106.8079" y2="-6.60555" style="stroke:rgb(0,0,0);stroke-width:.00002" />
    <line x1="106.8079" y1="-6.60555" x2="106.8079" y2="-6.60555" style="stroke:rgb(0,0,0);stroke-width:.00002" />
    <line x1="106.8079" y1="-6.60555" x2="106.8087" y2="-6.6066" style="stroke:rgb(0,0,0);stroke-width:.00002" />
    <circle cx="106.8071" cy="-6.6045" fill="rgb(255,0,0)" r=".0001" />
    <text x="106.8071" y="-6.6045" stroke="rgb(0,0,0)" transform="translate(106.8071 -6.6045),scale(0.00001 -0.00001),translate(-106.8071 6.6045),translate(106.7975 -6.592499999999999),rotate(0),translate(-106.7975 6.592499999999999)" >tol-3</text>
    <line x1="106.8087" y1="-6.6066" x2="106.8099" y2="-6.6078" style="stroke:rgb(255,0,0);stroke-width:.00002" />
    <line x1="106.8087" y1="-6.6066" x2="106.80915857864377" y2="-6.6070585786437634" style="stroke:rgb(0,0,0);stroke-width:.00002" />
    <line x1="106.80915857864377" y1="-6.6070585786437634" x2="106.80944142135624" y2="-6.607341421356238" style="stroke:rgb(0,0,0);stroke-width:.00002" />
    <line x1="106.80944142135624" y1="-6.607341421356238" x2="106.8099" y2="-6.6078" style="stroke:rgb(0,0,0);stroke-width:.00002" />
    <circle cx="106.8087" cy="-6.6066" fill="rgb(255,0,0)" r=".0001" />
    <text x="106.8087" y="-6.6066" stroke="rgb(0,0,0)" transform="translate(106.8087 -6.6066),scale(0.00001 -0.00001),translate(-106.8087 6.6066),translate(106.7975 -6.592499999999999),rotate(0),translate(-106.7975 6.592499999999999)" >bangka-1</text>
    <line x1="106.8099" y1="-6.6078" x2="106.8105" y2="-6.6087" style="stroke:rgb(255,0,0);stroke-width:.00002" />
    <line x1="106.8099" y1="-6.6078" x2="106.81008905996076" y2="-6.608083589941133" style="stroke:rgb(0,0,0);stroke-width:.00002" />
    <line x1="106.81008905996076" y1="-6.608083589941133" x2="106.81031094003926" y2="-6.608416410058867" style="stroke:rgb(0,0,0);stroke-width:.00002" />
    <line x1="106.81031094003926" y1="-6.608416410058867" x2="106.8105" y2="-6.6087" style="stroke:rgb(0,0,0);stroke-width:.00002" />
    <circle cx="106.8099" cy="-6.6078" fill="rgb(255,0,0)" r=".0001" />
    <text x="106.8099" y="-6.6078" stroke="rgb(0,0,0)" transform="translate(106.8099 -6.6078),scale(0.00001 -0.00001),translate(-106.8099 6.6078),translate(106.7975 -6.592499999999999),rotate(0),translate(-106.7975 6.592499999999999)" >pajajaran-ciheuleut</text>
    <line x1="106.8105" y1="-6.6087" x2="106.813" y2="-6.6125" style="stroke:rgb(255,0,0);stroke-width:.00002" />
    <line x1="106.8105" y1="-6.6087" x2="106.81153015339942" y2="-6.6102658331671025" style="stroke:rgb(0,0,0);stroke-width:.00002" />
    <line x1="106.81153015339942" y1="-6.6102658331671025" x2="106.81196984660059" y2="-6.610934166832897" style="stroke:rgb(0,0,0);stroke-width:.00002" />
    <line x1="106.81196984660059" y1="-6.610934166832897" x2="106.813" y2="-6.6125" style="stroke:rgb(0,0,0);stroke-width:.00002" />
    <circle cx="106.8105" cy="-6.6087" fill="rgb(255,0,0)" r=".0001" />
    <text x="106.8105" y="-6.6087" stroke="rgb(0,0,0)" transform="translate(106.8105 -6.6087),scale(0.00001 -0.00001),translate(-106.8105 6.6087),translate(106.7975 -6.592499999999999),rotate(0),translate(-106.7975 6.592499999999999)" >pajajaran-michelle-bakery</text>
    <line x1="106.813" y1="-6.6125" x2="106.8145" y2="-6.6161" style="stroke:rgb(255,0,0);stroke-width:.00002" />
    <line x1="106.813" y1="-6.6125" x2="106.81359615384615" y2="-6.613930769230769" style="stroke:rgb(0,0,0);stroke-width:.00002" />
    <line x1="106.81359615384615" y1="-6.613930769230769" x2="106.81390384615385" y2="-6.614669230769231" style="stroke:rgb(0,0,0);stroke-width:.00002" />
    <line x1="106.81390384615385" y1="-6.614669230769231" x2="106.8145" y2="-6.6161" style="stroke:rgb(0,0,0);stroke-width:.00002" />
    <circle cx="106.813" cy="-6.6125" fill="rgb(255,0,0)" r=".0001" />
    <text x="106.813" y="-6.6125" stroke="rgb(0,0,0)" transform="translate(106.813 -6.6125),scale(0.00001 -0.00001),translate(-106.813 6.6125),translate(106.7975 -6.592499999999999),rotate(0),translate(-106.7975 6.592499999999999)" >pajajaran-pjjindah</text>
  </g>
</svg>
