<svg width="1049.9999999998977" height="1849.9999999999961" xmlns="http://www.w3.org/2000/svg" xmlns:xlink="http://www.w3.org/1999/xlink" >
  <g transform="translate(524.9999999999488 924.9999999999981) rotate(30) scale(10000 -10000) translate(-106.8125 6.592499999999999)">
    <path d="M106.76 -6.5 L106.865 -6.5 L106.865 -6.685 L106.76 -6.685 Z" fill="none" stroke="black" stroke-width="0.0025" transform="translate(106.8125 -6.592499999999999) rotate(30) translate(-106.8125 6.592499999999999)" />
    <path d="M106.79511318651828 -6.588996677372213 L106.79481364418876 -6.591044548431744 L106.79360001786208 -6.59101829694714 L106.79367224038897 -6.590617702664584 L106.79668420562521 -6.59055985442061 L106.79640024106718 -6.581713928187836 L106.79608123978502 -6.573225852670997 L106.79852293811336 -6.569733232816908 L106.79865265690867 -6.569047432674363 L106.80150646292921 -6.565121588218258 L106.80155856288991 -6.562379827786846 L106.79707705995624 -6.5633037919719355 L106.77826221510813 -6.556388218061792 L106.77605526353616 -6.554308529434872 L106.76958890778245 -6.537461707116852 L106.76744270007168 -6.534083435542596 L106.75945 -6.520573 L106.76811929992806 -6.533656564456997 L106.77030709221754 -6.537100292883108 L106.77673673646385 -6.553851470565141 L106.77869178489188 -6.555693781938212 L106.79713894004375 -6.562474208028065 L106.80184288658413 -6.56150438201295 L106.802644 -6.561578 L106.80236314707248 -6.562146185442834 L106.80230153707079 -6.565388411781727 L106.79940534309135 -6.569372567325618 L106.79927706188664 -6.5700507671830914 L106.79689076021498 -6.5734641473290125 L106.79724839366821 -6.582980158481118 L106.77623513475856 -6.5541988375954565 L106.77656787641848 -6.5539777332078675 L106.7976835582182 -6.589075028101919 Z" stroke="lightgrey" stroke-width="0.0005" fill="none" />
    <circle 
      cx="106.79707705995624" cy="-12.563303791971936"
      r="15" transform="translate(106.79707705995624 -6.5633037919719355) scale(0.000014999999999999999 -0.000014999999999999999) translate(-106.79707705995624 6.5633037919719355) translate(106.8125 -6.592499999999999) rotate(-30) translate(-106.8125 6.592499999999999)"
      fill="white" stroke="black" stroke-width="2"/>
    <circle 
      cx="106.76958890778245" cy="-12.53746170711685"
      r="15" transform="translate(106.76958890778245 -6.537461707116852) scale(0.000014999999999999999 -0.000014999999999999999) translate(-106.76958890778245 6.537461707116852) translate(106.8125 -6.592499999999999) rotate(-30) translate(-106.8125 6.592499999999999)"
      fill="white" stroke="black" stroke-width="2"/>
    <circle 
      cx="106.76744270007168" cy="-12.534083435542595"
      r="15" transform="translate(106.76744270007168 -6.534083435542596) scale(0.000014999999999999999 -0.000014999999999999999) translate(-106.76744270007168 6.534083435542596) translate(106.8125 -6.592499999999999) rotate(-30) translate(-106.8125 6.592499999999999)"
      fill="white" stroke="black" stroke-width="2"/>
    <circle 
      cx="106.76811929992806" cy="-12.533656564456997"
      r="15" transform="translate(106.76811929992806 -6.533656564456997) scale(0.000014999999999999999 -0.000014999999999999999) translate(-106.76811929992806 6.533656564456997) translate(106.8125 -6.592499999999999) rotate(-30) translate(-106.8125 6.592499999999999)"
      fill="white" stroke="black" stroke-width="2"/>
    <circle 
      cx="106.77030709221754" cy="-12.537100292883107"
      r="15" transform="translate(106.77030709221754 -6.537100292883108) scale(0.000014999999999999999 -0.000014999999999999999) translate(-106.77030709221754 6.537100292883108) translate(106.8125 -6.592499999999999) rotate(-30) translate(-106.8125 6.592499999999999)"
      fill="white" stroke="black" stroke-width="2"/>
    <circle 
      cx="106.79713894004375" cy="-12.562474208028064"
      r="15" transform="translate(106.79713894004375 -6.562474208028065) scale(0.000014999999999999999 -0.000014999999999999999) translate(-106.79713894004375 6.562474208028065) translate(106.8125 -6.592499999999999) rotate(-30) translate(-106.8125 6.592499999999999)"
      fill="white" stroke="black" stroke-width="2"/>
    <circle 
      cx="106.79724839366821" cy="-12.582980158481117"
      r="15" transform="translate(106.79724839366821 -6.582980158481118) scale(0.000014999999999999999 -0.000014999999999999999) translate(-106.79724839366821 6.582980158481118) translate(106.8125 -6.592499999999999) rotate(-30) translate(-106.8125 6.592499999999999)"
      fill="white" stroke="black" stroke-width="2"/>
    <circle 
      cx="106.7976835582182" cy="-12.58907502810192"
      r="15" transform="translate(106.7976835582182 -6.589075028101919) scale(0.000014999999999999999 -0.000014999999999999999) translate(-106.7976835582182 6.589075028101919) translate(106.8125 -6.592499999999999) rotate(-30) translate(-106.8125 6.592499999999999)"
      fill="white" stroke="black" stroke-width="2"/>
    <circle 
      cx="106.79707705995624" cy="-12.563303791971936"
      r="15" transform="translate(106.79707705995624 -6.5633037919719355) scale(0.000014999999999999999 -0.000014999999999999999) translate(-106.79707705995624 6.5633037919719355) translate(106.8125 -6.592499999999999) rotate(-30) translate(-106.8125 6.592499999999999)"
      fill="white" stroke="none"/>
    <circle 
      cx="106.76958890778245" cy="-12.53746170711685"
      r="15" transform="translate(106.76958890778245 -6.537461707116852) scale(0.000014999999999999999 -0.000014999999999999999) translate(-106.76958890778245 6.537461707116852) translate(106.8125 -6.592499999999999) rotate(-30) translate(-106.8125 6.592499999999999)"
      fill="white" stroke="none"/>
    <circle 
      cx="106.76744270007168" cy="-12.534083435542595"
      r="15" transform="translate(106.76744270007168 -6.534083435542596) scale(0.000014999999999999999 -0.000014999999999999999) translate(-106.76744270007168 6.534083435542596) translate(106.8125 -6.592499999999999) rotate(-30) translate(-106.8125 6.592499999999999)"
      fill="white" stroke="none"/>
    <circle 
      cx="106.76811929992806" cy="-12.533656564456997"
      r="15" transform="translate(106.76811929992806 -6.533656564456997) scale(0.000014999999999999999 -0.000014999999999999999) translate(-106.76811929992806 6.533656564456997) translate(106.8125 -6.592499999999999) rotate(-30) translate(-106.8125 6.592499999999999)"
      fill="white" stroke="none"/>
    <circle 
      cx="106.77030709221754" cy="-12.537100292883107"
      r="15" transform="translate(106.77030709221754 -6.537100292883108) scale(0.000014999999999999999 -0.000014999999999999999) translate(-106.77030709221754 6.537100292883108) translate(106.8125 -6.592499999999999) rotate(-30) translate(-106.8125 6.592499999999999)"
      fill="white" stroke="none"/>
    <circle 
      cx="106.79713894004375" cy="-12.562474208028064"
      r="15" transform="translate(106.79713894004375 -6.562474208028065) scale(0.000014999999999999999 -0.000014999999999999999) translate(-106.79713894004375 6.562474208028065) translate(106.8125 -6.592499999999999) rotate(-30) translate(-106.8125 6.592499999999999)"
      fill="white" stroke="none"/>
    <circle 
      cx="106.79724839366821" cy="-12.582980158481117"
      r="15" transform="translate(106.79724839366821 -6.582980158481118) scale(0.000014999999999999999 -0.000014999999999999999) translate(-106.79724839366821 6.582980158481118) translate(106.8125 -6.592499999999999) rotate(-30) translate(-106.8125 6.592499999999999)"
      fill="white" stroke="none"/>
    <circle 
      cx="106.7976835582182" cy="-12.58907502810192"
      r="15" transform="translate(106.7976835582182 -6.589075028101919) scale(0.000014999999999999999 -0.000014999999999999999) translate(-106.7976835582182 6.589075028101919) translate(106.8125 -6.592499999999999) rotate(-30) translate(-106.8125 6.592499999999999)"
      fill="white" stroke="none"/>
    <text x="106.79707705995624" y="-6.5633037919719355" fill="black" text-anchor="middle" transform="translate(106.79707705995624 -6.5633037919719355) scale(0.000014999999999999999 -0.000014999999999999999) translate(-106.79707705995624 6.5633037919719355) translate(106.8125 -6.592499999999999) rotate(-30) translate(-106.8125 6.592499999999999)">16</text>
    <text x="106.76958890778245" y="-6.537461707116852" fill="black" text-anchor="middle" transform="translate(106.76958890778245 -6.537461707116852) scale(0.000014999999999999999 -0.000014999999999999999) translate(-106.76958890778245 6.537461707116852) translate(106.8125 -6.592499999999999) rotate(-30) translate(-106.8125 6.592499999999999)">16</text>
    <text x="106.76744270007168" y="-6.534083435542596" fill="black" text-anchor="middle" transform="translate(106.76744270007168 -6.534083435542596) scale(0.000014999999999999999 -0.000014999999999999999) translate(-106.76744270007168 6.534083435542596) translate(106.8125 -6.592499999999999) rotate(-30) translate(-106.8125 6.592499999999999)">16</text>
    <text x="106.76811929992806" y="-6.533656564456997" fill="black" text-anchor="middle" transform="translate(106.76811929992806 -6.533656564456997) scale(0.000014999999999999999 -0.000014999999999999999) translate(-106.76811929992806 6.533656564456997) translate(106.8125 -6.592499999999999) rotate(-30) translate(-106.8125 6.592499999999999)">16</text>
    <text x="106.77030709221754" y="-6.537100292883108" fill="black" text-anchor="middle" transform="translate(106.77030709221754 -6.537100292883108) scale(0.000014999999999999999 -0.000014999999999999999) translate(-106.77030709221754 6.537100292883108) translate(106.8125 -6.592499999999999) rotate(-30) translate(-106.8125 6.592499999999999)">16</text>
    <text x="106.79713894004375" y="-6.562474208028065" fill="black" text-anchor="middle" transform="translate(106.79713894004375 -6.562474208028065) scale(0.000014999999999999999 -0.000014999999999999999) translate(-106.79713894004375 6.562474208028065) translate(106.8125 -6.592499999999999) rotate(-30) translate(-106.8125 6.592499999999999)">16</text>
    <text x="106.79724839366821" y="-6.582980158481118" fill="black" text-anchor="middle" transform="translate(106.79724839366821 -6.582980158481118) scale(0.000014999999999999999 -0.000014999999999999999) translate(-106.79724839366821 6.582980158481118) translate(106.8125 -6.592499999999999) rotate(-30) translate(-106.8125 6.592499999999999)">16</text>
    <text x="106.7976835582182" y="-6.589075028101919" fill="black" text-anchor="middle" transform="translate(106.7976835582182 -6.589075028101919) scale(0.000014999999999999999 -0.000014999999999999999) translate(-106.7976835582182 6.589075028101919) translate(106.8125 -6.592499999999999) rotate(-30) translate(-106.8125 6.592499999999999)">16</text>
  </g>
</svg>
