<svg width="1049.9999999998977" height="1849.9999999999961" xmlns="http://www.w3.org/2000/svg" xmlns:xlink="http://www.w3.org/1999/xlink" >
  <g transform="translate(524.9999999999488 924.9999999999981) rotate(30) scale(10000 -10000) translate(-106.8125 6.592499999999999)">
    <path d="M106.76 -6.5 L106.865 -6.5 L106.865 -6.685 L106.76 -6.685 Z" fill="none" stroke="black" stroke-width="0.0005" transform="translate(106.8125 -6.592499999999999) rotate(30) translate(-106.8125 6.592499999999999)" />
    <path d="M106.75629838452689 -6.5701224385360515 L106.75983401735407 -6.5679939894847355 L106.7705748202908 -6.557772757498138 L106.7783354199656 -6.5559712073635215 L106.77015799658393 -6.537984519282858 L106.767781 -6.53387 L106.77006013903102 -6.537084543284111 L106.77174187939971 -6.535948232224185 L106.77295147130057 -6.536248114409256 L106.7764889450885 -6.534495814664683 L106.78470392173571 -6.534208681414624 L106.78920377300334 -6.534266000065569 L106.79015183839638 -6.533389164982478 L106.7957493962957 -6.533660853003875 L106.79593997530081 -6.531324532143265 L106.79632601836109 -6.531279053097809 L106.7964351321738 -6.530779373020942 L106.800305 -6.530774 L106.79676086782621 -6.531162626979058 L106.79665598163892 -6.531642946902192 L106.79631202469919 -6.531683467856735 L106.7961166037043 -6.534079146996125 L106.79030016160362 -6.5337968350175215 L106.78935822699667 -6.534667999934433 L106.78051207826428 -6.534555318585376 L106.77653905491151 -6.534694185335318 L106.77297452869944 -6.536459885590745 L106.77178012060028 -6.5361637677758155 L106.77007400989935 -6.537316545276452 L106.77861858003439 -6.556110792636478 L106.77067317970919 -6.557955242501863 L106.75995598264593 -6.568154010515266 L106.75675800504054 -6.570079191305544 L106.7553305898767 -6.571311879918418 L106.75478771312598 -6.568567961419276 Z" stroke="darkgreen" stroke-width="0.0001" fill="none" />
  </g>
</svg>
