<svg width="1450.0000000001023" height="1550.0000000000025" xmlns="http://www.w3.org/2000/svg" xmlns:xlink="http://www.w3.org/1999/xlink" >
  <g transform="translate(725.0000000000512 775.0000000000013) rotate(0) scale(10000 -10000) translate(-106.7975 6.592499999999999)">
    <path d="M106.725 -6.515 L106.87 -6.515 L106.87 -6.67 L106.725 -6.67 Z" fill="none" stroke="black" stroke-width="0.001" transform="translate(106.7975 -6.592499999999999) rotate(0) translate(-106.7975 6.592499999999999)" />
    <path d="M106.79354722266085 -6.59768755194394 L106.79123178948988 -6.597056070170041 L106.79130787212341 -6.597076819979183 L106.79042645563375 -6.596880949648147 L106.79042645563375 -6.596880949648147 L106.7897 -6.5959 L106.79053492086264 -6.595470901672326 L106.79092539568673 -6.5955576738554536 L106.79164409590749 -6.595717385015626 L106.79230180027342 -6.596933282047337 L106.79268770580192 -6.597038529009654 L106.79394651042658 -6.597381839361831 L106.7934945695757 -6.5963086139654195 L106.79405636708225 -6.594810487281309 L106.79427712881906 -6.5942217893164825 L106.79548378278608 -6.593322634220562 L106.79583344569653 -6.5931283770480915 L106.79727297289328 -6.5923286397165635 L106.79783344788224 -6.592803092820154 L106.79819759447322 -6.592968613997875 L106.79839179703228 -6.593056887888357 L106.7994211145618 -6.5925422291236 L106.7994211145618 -6.5925422291236 L106.80078177732118 -6.591861897743902 L106.8011885827971 -6.592240026526551 L106.80155997347345 -6.592388582797093 L106.80189745044072 -6.592523573584003 L106.80162948967033 -6.593070591415114 L106.80259997297149 -6.593776397452326 L106.8026019463341 -6.593777832625127 L106.8033108006784 -6.594911999576001 L106.8033108006784 -6.594911999576001 L106.80401783241082 -6.596043250347883 L106.80457091377339 -6.598234109973838 L106.80463410997383 -6.598629086226605 L106.80498954354238 -6.600850546029984 L106.80478725330575 -6.601133752361256 L106.80478725330575 -6.601133752361256 L106.80458005414835 -6.601423831181622 L106.80469402850002 -6.601601492874993 L106.80430597149996 -6.601698507125008 L106.8043 -6.6017 L106.80257870158374 -6.602501404700881 L106.80179859529912 -6.602678701583752 L106.79994488226762 -6.6030999999999995 L106.79974999999999 -6.6030999999999995 L106.79974999999999 -6.6030999999999995 L106.79969442719101 -6.6030999999999995 L106.79991554175281 -6.6034366563145985 L106.7992 -6.6037944271910005 L106.79989014660316 -6.603449353889374 L106.79912522994123 -6.602431964284863 L106.8004353155584 -6.604906570450634 L106.8002018183785 -6.604465520221942 L106.80156315814136 -6.606118575648284 L106.80156315814136 -6.606118575648284 L106.80292924104681 -6.607777390604895 L106.80388858905205 -6.608592836409343 L106.80388858905205 -6.608592836409343 L106.80490122568546 -6.609453577547723 L106.80591324967715 -6.610415000339843 L106.80591324967715 -6.610415000339843 L106.80693950918236 -6.611389946869787 L106.80886257705099 -6.613717871131802 L106.80886257705099 -6.613717871131802 L106.81072589035313 -6.615973460918618 L106.81153142435171 -6.61663684185863 L106.81153142435171 -6.61663684185863 L106.81239412529145 -6.617347301456056 L106.8136444590223 -6.618225843884426 L106.81393883142701 -6.618496666496755 L106.81500524215211 -6.619477764363847 L106.81482800755602 -6.620088510389528 L106.81580448772148 -6.620785996221989 L106.81594109304957 -6.620883571456342 L106.81580895724996 -6.62071045012495 L106.81619701425002 -6.620613435874935 L106.81576942323993 -6.620720333627652 L106.8152750298912 -6.619389274611842 L106.8152750298912 -6.619389274611842 L106.81462415161806 -6.617636910030348 L106.81462891889709 -6.617055615661719 L106.81449438433827 -6.6166789188970805 L106.81420235544164 -6.615861237986499 L106.81612480694692 -6.616101544424658 L106.81612480694692 -6.616101544424658 L106.81777937750755 -6.616308365744737 L106.81827278812271 -6.616692129556525 L106.81827278812271 -6.616692129556525 L106.81874392982994 -6.617058573106592 L106.81921 -6.617680000000001 L106.81921 -6.617680000000001 L106.8195 -6.6184 L106.81889000000001 -6.617920000000001 L106.81889000000001 -6.617920000000001 L106.81845607017009 -6.617341426893421 L106.8180272118773 -6.617007870443476 L106.8180272118773 -6.617007870443476 L106.81762062249244 -6.616691634255262 L106.8160751930531 -6.616498455575344 L106.8160751930531 -6.616498455575344 L106.81479764455837 -6.616338762013503 L106.81530159169108 -6.615965885735443 L106.81570519536749 -6.617095976029356 L106.81575169676489 -6.617226179942116 L106.81588569549697 -6.618735755279355 L106.81616424472065 -6.619485695496962 L106.81666744114217 -6.620840455093354 L106.81670777087639 -6.620921114561795 L106.81670777087639 -6.620921114561795 L106.81688670420532 -6.621278981219636 L106.81658284271246 -6.6215828427124785 L106.81658284271246 -6.6215828427124785 L106.81620000000015 -6.62196568542478 L106.81576715728751 -6.621815685424947 L106.81548431457504 -6.621532842712471 L106.81551084909908 -6.621559377236522 L106.81540924574975 -6.620995241971728 L106.81475825897277 -6.620530251416754 L106.81446662698018 -6.620321942850617 L106.81401920997881 -6.620892718872423 L106.81326026334038 -6.621145701085237 L106.81298419944142 -6.621237722384894 L106.81294958890025 -6.622172206996306 L106.81294958890025 -6.622172206996306 L106.81288091742586 -6.62402633680496 L106.81128106792283 -6.624244498100826 L106.81128106792283 -6.624244498100826 L106.8105835627326 -6.624339612444949 L106.81058208550009 -6.624345521375027 L106.81058208550009 -6.624345521375027 L106.81042582593608 -6.624970559631049 L106.81021017021584 -6.625354700196229 L106.8098773500981 -6.625576580274717 L106.80919806569413 -6.626029436544045 L106.80919999999999 -6.62546568542495 L106.80863431457506 -6.624899999999989 L106.8087891503397 -6.625054835764653 L106.80861170986265 -6.62514923017661 L106.80838982978415 -6.624816410058878 L106.80831979123995 -6.624711352242612 L106.80815366975919 -6.623216258915645 L106.80815366975919 -6.623216258915645 L106.80804228077139 -6.622213758025383 L106.80801364842085 -6.622201487018011 L106.80801364842085 -6.622201487018011 L106.80742683475613 -6.621949995447414 L106.80683735074356 -6.620358388613496 L106.80683735074356 -6.620358388613496 L106.80638071029145 -6.619125459392825 L106.80526716760738 -6.617965519096913 L106.80526716760738 -6.617965519096913 L106.80400808639885 -6.616653976171357 L106.80341850107884 -6.615528404196803 L106.80341850107884 -6.615528404196803 L106.80288488132653 -6.614509675578773 L106.80220269097413 -6.613866808584725 L106.80197681740788 -6.6135366856802245 L106.80159171678149 -6.61297384630321 L106.8015 -6.612732455532034 L106.80112052668079 -6.612605964425627 L106.80063403583083 -6.6124438008089745 L106.80011717988226 -6.612099230176603 L106.80011717988226 -6.612099230176603 L106.79963646181928 -6.611778751467942 L106.7978084861188 -6.610204661281411 L106.7978084861188 -6.610204661281411 L106.79609808751079 -6.608731818035625 L106.79546026334039 -6.608519209978831 L106.79546026334039 -6.608519209978831 L106.79416101938848 -6.608086128661528 L106.79457438069906 -6.606680700205604 L106.79457438069906 -6.606680700205604 L106.79485693319211 -6.605720021729245 L106.79547820899671 -6.604929307068842 L106.79547820899671 -6.604929307068842 L106.79579331264055 -6.604528266067591 L106.7968366563146 -6.6039316718427 L106.7968366563146 -6.6039316718427 L106.79665397550032 -6.603566310214176 L106.79460433143755 -6.601935112015341 L106.79368447368772 -6.599290520984563 L106.79308286997187 -6.597560910301467 Z" stroke="silver" stroke-width="0.0002" fill="none" />
    <circle 
      cx="106.7897" cy="-12.5959"
      r="15" transform="translate(106.7897 -6.5959) scale(0.00001 -0.00001) translate(-106.7897 6.5959) translate(106.7975 -6.592499999999999) rotate(0) translate(-106.7975 6.592499999999999)"
      fill="white" stroke="black" stroke-width="2"/>
    <circle 
      cx="106.8195" cy="-12.618400000000001"
      r="15" transform="translate(106.8195 -6.6184) scale(0.00001 -0.00001) translate(-106.8195 6.6184) translate(106.7975 -6.592499999999999) rotate(0) translate(-106.7975 6.592499999999999)"
      fill="white" stroke="black" stroke-width="2"/>
    <circle 
      cx="106.7897" cy="-12.5959"
      r="15" transform="translate(106.7897 -6.5959) scale(0.00001 -0.00001) translate(-106.7897 6.5959) translate(106.7975 -6.592499999999999) rotate(0) translate(-106.7975 6.592499999999999)"
      fill="white" stroke="none"/>
    <circle 
      cx="106.8195" cy="-12.618400000000001"
      r="15" transform="translate(106.8195 -6.6184) scale(0.00001 -0.00001) translate(-106.8195 6.6184) translate(106.7975 -6.592499999999999) rotate(0) translate(-106.7975 6.592499999999999)"
      fill="white" stroke="none"/>
    <text x="106.7897" y="-6.5959" fill="black" text-anchor="middle" transform="translate(106.7897 -6.5959) scale(0.00001 -0.00001) translate(-106.7897 6.5959) translate(106.7975 -6.592499999999999) rotate(0) translate(-106.7975 6.592499999999999)">10</text>
    <text x="106.8195" y="-6.6184" fill="black" text-anchor="middle" transform="translate(106.8195 -6.6184) scale(0.00001 -0.00001) translate(-106.8195 6.6184) translate(106.7975 -6.592499999999999) rotate(0) translate(-106.7975 6.592499999999999)">10</text>
    <line x1="106.7937" y1="-6.5969" x2="106.7915" y2="-6.5963" style="stroke:rgb(255,0,0);stroke-width:.00002" />
    <line x1="106.7937" y1="-6.5969" x2="106.79375771658547" y2="-6.59691574088695" style="stroke:rgb(0,0,0);stroke-width:.00002" />
    <line x1="106.79375771658547" y1="-6.59691574088695" x2="106.79144228341451" y2="-6.596284259113051" style="stroke:rgb(0,0,0);stroke-width:.00002" />
    <line x1="106.79144228341451" y1="-6.596284259113051" x2="106.7915" y2="-6.5963" style="stroke:rgb(0,0,0);stroke-width:.00002" />
    <circle cx="106.7937" cy="-6.5969" fill="rgb(255,0,0)" r=".0001" />
    <text x="106.7937" y="-6.5969" stroke="rgb(0,0,0)" transform="translate(106.7937 -6.5969),scale(0.00001 -0.00001),translate(-106.7937 6.5969),translate(106.7975 -6.592499999999999),rotate(0),translate(-106.7975 6.592499999999999)" >kb-muslihat</text>
    <line x1="106.7915" y1="-6.5963" x2="106.7897" y2="-6.5959" style="stroke:rgb(255,0,0);stroke-width:.00002" />
    <line x1="106.7915" y1="-6.5963" x2="106.7906" y2="-6.5961" style="stroke:rgb(0,0,0);stroke-width:.00002" />
    <line x1="106.7906" y1="-6.5961" x2="106.7906" y2="-6.5961" style="stroke:rgb(0,0,0);stroke-width:.00002" />
    <line x1="106.7906" y1="-6.5961" x2="106.7897" y2="-6.5959" style="stroke:rgb(0,0,0);stroke-width:.00002" />
    <circle cx="106.7915" cy="-6.5963" fill="rgb(255,0,0)" r=".0001" />
    <text x="106.7915" y="-6.5963" stroke="rgb(0,0,0)" transform="translate(106.7915 -6.5963),scale(0.00001 -0.00001),translate(-106.7915 6.5963),translate(106.7975 -6.592499999999999),rotate(0),translate(-106.7975 6.592499999999999)" >muslihat-dewisartika</text>
    <line x1="106.7897" y1="-6.5959" x2="106.7915" y2="-6.5963" style="stroke:rgb(255,0,0);stroke-width:.00002" />
    <line x1="106.7897" y1="-6.5959" x2="106.79040476258795" y2="-6.596056613908436" style="stroke:rgb(0,0,0);stroke-width:.00002" />
    <line x1="106.79040476258795" y1="-6.596056613908436" x2="106.79079523741204" y2="-6.596143386091564" style="stroke:rgb(0,0,0);stroke-width:.00002" />
    <line x1="106.79079523741204" y1="-6.596143386091564" x2="106.7915" y2="-6.5963" style="stroke:rgb(0,0,0);stroke-width:.00002" />
    <circle cx="106.7897" cy="-6.5959" fill="rgb(255,0,0)" r=".0001" />
    <text x="106.7897" y="-6.5959" stroke="rgb(0,0,0)" transform="translate(106.7897 -6.5959),scale(0.00001 -0.00001),translate(-106.7897 6.5959),translate(106.7975 -6.592499999999999),rotate(0),translate(-106.7975 6.592499999999999)" >stasiun-paledang</text>
    <line x1="106.7915" y1="-6.5963" x2="106.7937" y2="-6.5969" style="stroke:rgb(255,0,0);stroke-width:.00002" />
    <line x1="106.7915" y1="-6.5963" x2="106.79240704723574" y2="-6.596547376518842" style="stroke:rgb(0,0,0);stroke-width:.00002" />
    <line x1="106.79240704723574" y1="-6.596547376518842" x2="106.79279295276424" y2="-6.596652623481159" style="stroke:rgb(0,0,0);stroke-width:.00002" />
    <line x1="106.79279295276424" y1="-6.596652623481159" x2="106.7937" y2="-6.5969" style="stroke:rgb(0,0,0);stroke-width:.00002" />
    <circle cx="106.7915" cy="-6.5963" fill="rgb(255,0,0)" r=".0001" />
    <text x="106.7915" y="-6.5963" stroke="rgb(0,0,0)" transform="translate(106.7915 -6.5963),scale(0.00001 -0.00001),translate(-106.7915 6.5963),translate(106.7975 -6.592499999999999),rotate(0),translate(-106.7975 6.592499999999999)" >muslihat-dewisartika</text>
    <line x1="106.7937" y1="-6.5969" x2="106.7946" y2="-6.5945" style="stroke:rgb(255,0,0);stroke-width:.00002" />
    <line x1="106.7937" y1="-6.5969" x2="106.79386910124673" y2="-6.596449063342055" style="stroke:rgb(0,0,0);stroke-width:.00002" />
    <line x1="106.79386910124673" y1="-6.596449063342055" x2="106.79443089875328" y2="-6.594950936657945" style="stroke:rgb(0,0,0);stroke-width:.00002" />
    <line x1="106.79443089875328" y1="-6.594950936657945" x2="106.7946" y2="-6.5945" style="stroke:rgb(0,0,0);stroke-width:.00002" />
    <circle cx="106.7937" cy="-6.5969" fill="rgb(255,0,0)" r=".0001" />
    <text x="106.7937" y="-6.5969" stroke="rgb(0,0,0)" transform="translate(106.7937 -6.5969),scale(0.00001 -0.00001),translate(-106.7937 6.5969),translate(106.7975 -6.592499999999999),rotate(0),translate(-106.7975 6.592499999999999)" >kb-muslihat</text>
    <line x1="106.7946" y1="-6.5945" x2="106.7973" y2="-6.593" style="stroke:rgb(255,0,0);stroke-width:.00002" />
    <line x1="106.7946" y1="-6.5945" x2="106.79577516854478" y2="-6.593847128586235" style="stroke:rgb(0,0,0);stroke-width:.00002" />
    <line x1="106.79577516854478" y1="-6.593847128586235" x2="106.79612483145523" y2="-6.593652871413765" style="stroke:rgb(0,0,0);stroke-width:.00002" />
    <line x1="106.79612483145523" y1="-6.593652871413765" x2="106.7973" y2="-6.593" style="stroke:rgb(0,0,0);stroke-width:.00002" />
    <circle cx="106.7946" cy="-6.5945" fill="rgb(255,0,0)" r=".0001" />
    <text x="106.7946" y="-6.5945" stroke="rgb(0,0,0)" transform="translate(106.7946 -6.5945),scale(0.00001 -0.00001),translate(-106.7946 6.5945),translate(106.7975 -6.592499999999999),rotate(0),translate(-106.7975 6.592499999999999)" >kb-gedong-sawah</text>
    <line x1="106.7973" y1="-6.593" x2="106.7984" y2="-6.5935" style="stroke:rgb(255,0,0);stroke-width:.00002" />
    <line x1="106.7973" y1="-6.593" x2="106.79766792670452" y2="-6.593167239411139" style="stroke:rgb(0,0,0);stroke-width:.00002" />
    <line x1="106.79766792670452" y1="-6.593167239411139" x2="106.7980320732955" y2="-6.59333276058886" style="stroke:rgb(0,0,0);stroke-width:.00002" />
    <line x1="106.7980320732955" y1="-6.59333276058886" x2="106.7984" y2="-6.5935" style="stroke:rgb(0,0,0);stroke-width:.00002" />
    <circle cx="106.7973" cy="-6.593" fill="rgb(255,0,0)" r=".0001" />
    <text x="106.7973" y="-6.593" stroke="rgb(0,0,0)" transform="translate(106.7973 -6.593),scale(0.00001 -0.00001),translate(-106.7973 6.593),translate(106.7975 -6.592499999999999),rotate(0),translate(-106.7975 6.592499999999999)" >kb-polisi-militer</text>
    <line x1="106.7984" y1="-6.5935" x2="106.8008" y2="-6.5923" style="stroke:rgb(255,0,0);stroke-width:.00002" />
    <line x1="106.7984" y1="-6.5935" x2="106.7996" y2="-6.5929" style="stroke:rgb(0,0,0);stroke-width:.00002" />
    <line x1="106.7996" y1="-6.5929" x2="106.7996" y2="-6.5929" style="stroke:rgb(0,0,0);stroke-width:.00002" />
    <line x1="106.7996" y1="-6.5929" x2="106.8008" y2="-6.5923" style="stroke:rgb(0,0,0);stroke-width:.00002" />
    <circle cx="106.7984" cy="-6.5935" fill="rgb(255,0,0)" r=".0001" />
    <text x="106.7984" y="-6.5935" stroke="rgb(0,0,0)" transform="translate(106.7984 -6.5935),scale(0.00001 -0.00001),translate(-106.7984 6.5935),translate(106.7975 -6.592499999999999),rotate(0),translate(-106.7975 6.592499999999999)" >kb-jalak-harupat</text>
    <line x1="106.8008" y1="-6.5923" x2="106.8018" y2="-6.5927" style="stroke:rgb(255,0,0);stroke-width:.00002" />
    <line x1="106.8008" y1="-6.5923" x2="106.80111430466182" y2="-6.592425721864728" style="stroke:rgb(0,0,0);stroke-width:.00002" />
    <line x1="106.80111430466182" y1="-6.592425721864728" x2="106.80148569533817" y2="-6.59257427813527" style="stroke:rgb(0,0,0);stroke-width:.00002" />
    <line x1="106.80148569533817" y1="-6.59257427813527" x2="106.8018" y2="-6.5927" style="stroke:rgb(0,0,0);stroke-width:.00002" />
    <circle cx="106.8008" cy="-6.5923" fill="rgb(255,0,0)" r=".0001" />
    <text x="106.8008" y="-6.5923" stroke="rgb(0,0,0)" transform="translate(106.8008 -6.5923),scale(0.00001 -0.00001),translate(-106.8008 6.5923),translate(106.7975 -6.592499999999999),rotate(0),translate(-106.7975 6.592499999999999)" >kb-sempur</text>
    <line x1="106.8018" y1="-6.5927" x2="106.8029" y2="-6.5935" style="stroke:rgb(255,0,0);stroke-width:.00002" />
    <line x1="106.8018" y1="-6.5927" x2="106.80186475834941" y2="-6.592747096981394" style="stroke:rgb(0,0,0);stroke-width:.00002" />
    <line x1="106.80186475834941" y1="-6.592747096981394" x2="106.80283524165057" y2="-6.593452903018606" style="stroke:rgb(0,0,0);stroke-width:.00002" />
    <line x1="106.80283524165057" y1="-6.593452903018606" x2="106.8029" y2="-6.5935" style="stroke:rgb(0,0,0);stroke-width:.00002" />
    <circle cx="106.8018" cy="-6.5927" fill="rgb(255,0,0)" r=".0001" />
    <text x="106.8018" y="-6.5927" stroke="rgb(0,0,0)" transform="translate(106.8018 -6.5927),scale(0.00001 -0.00001),translate(-106.8018 6.5927),translate(106.7975 -6.592499999999999),rotate(0),translate(-106.7975 6.592499999999999)" >kb-salak</text>
    <line x1="106.8029" y1="-6.5935" x2="106.8044" y2="-6.5959" style="stroke:rgb(255,0,0);stroke-width:.00002" />
    <line x1="106.8029" y1="-6.5935" x2="106.80365" y2="-6.5947" style="stroke:rgb(0,0,0);stroke-width:.00002" />
    <line x1="106.80365" y1="-6.5947" x2="106.80365" y2="-6.5947" style="stroke:rgb(0,0,0);stroke-width:.00002" />
    <line x1="106.80365" y1="-6.5947" x2="106.8044" y2="-6.5959" style="stroke:rgb(0,0,0);stroke-width:.00002" />
    <circle cx="106.8029" cy="-6.5935" fill="rgb(255,0,0)" r=".0001" />
    <text x="106.8029" y="-6.5935" stroke="rgb(0,0,0)" transform="translate(106.8029 -6.5935),scale(0.00001 -0.00001),translate(-106.8029 6.5935),translate(106.7975 -6.592499999999999),rotate(0),translate(-106.7975 6.592499999999999)" >kb-pangrango</text>
    <line x1="106.8044" y1="-6.5959" x2="106.8052" y2="-6.6009" style="stroke:rgb(255,0,0);stroke-width:.00002" />
    <line x1="106.8044" y1="-6.5959" x2="106.80476840189978" y2="-6.598202511873616" style="stroke:rgb(0,0,0);stroke-width:.00002" />
    <line x1="106.80476840189978" y1="-6.598202511873616" x2="106.80483159810022" y2="-6.598597488126384" style="stroke:rgb(0,0,0);stroke-width:.00002" />
    <line x1="106.80483159810022" y1="-6.598597488126384" x2="106.8052" y2="-6.6009" style="stroke:rgb(0,0,0);stroke-width:.00002" />
    <circle cx="106.8044" cy="-6.5959" fill="rgb(255,0,0)" r=".0001" />
    <text x="106.8044" y="-6.5959" stroke="rgb(0,0,0)" transform="translate(106.8044 -6.5959),scale(0.00001 -0.00001),translate(-106.8044 6.5959),translate(106.7975 -6.592499999999999),rotate(0),translate(-106.7975 6.592499999999999)" >kb-astrid</text>
    <line x1="106.8052" y1="-6.6009" x2="106.8047" y2="-6.6016" style="stroke:rgb(255,0,0);stroke-width:.00002" />
    <line x1="106.8052" y1="-6.6009" x2="106.80494999999999" y2="-6.60125" style="stroke:rgb(0,0,0);stroke-width:.00002" />
    <line x1="106.80494999999999" y1="-6.60125" x2="106.80494999999999" y2="-6.60125" style="stroke:rgb(0,0,0);stroke-width:.00002" />
    <line x1="106.80494999999999" y1="-6.60125" x2="106.8047" y2="-6.6016" style="stroke:rgb(0,0,0);stroke-width:.00002" />
    <circle cx="106.8052" cy="-6.6009" fill="rgb(255,0,0)" r=".0001" />
    <text x="106.8052" y="-6.6009" stroke="rgb(0,0,0)" transform="translate(106.8052 -6.6009),scale(0.00001 -0.00001),translate(-106.8052 6.6009),translate(106.7975 -6.592499999999999),rotate(0),translate(-106.7975 6.592499999999999)" >kb-botani-1</text>
    <line x1="106.8047" y1="-6.6016" x2="106.8043" y2="-6.6017" style="stroke:rgb(255,0,0);stroke-width:.00002" />
    <line x1="106.8047" y1="-6.6016" x2="106.80469402850002" y2="-6.601601492874993" style="stroke:rgb(0,0,0);stroke-width:.00002" />
    <line x1="106.80469402850002" y1="-6.601601492874993" x2="106.80430597149996" y2="-6.601698507125008" style="stroke:rgb(0,0,0);stroke-width:.00002" />
    <line x1="106.80430597149996" y1="-6.601698507125008" x2="106.8043" y2="-6.6017" style="stroke:rgb(0,0,0);stroke-width:.00002" />
    <circle cx="106.8047" cy="-6.6016" fill="rgb(255,0,0)" r=".0001" />
    <text x="106.8047" y="-6.6016" stroke="rgb(0,0,0)" transform="translate(106.8047 -6.6016),scale(0.00001 -0.00001),translate(-106.8047 6.6016),translate(106.7975 -6.592499999999999),rotate(0),translate(-106.7975 6.592499999999999)" >kb-botani-2</text>
    <line x1="106.8043" y1="-6.6017" x2="106.7999" y2="-6.6027" style="stroke:rgb(255,0,0);stroke-width:.00002" />
    <line x1="106.8043" y1="-6.6017" x2="106.80249005314231" y2="-6.602111351558564" style="stroke:rgb(0,0,0);stroke-width:.00002" />
    <line x1="106.80249005314231" y1="-6.602111351558564" x2="106.80170994685768" y2="-6.602288648441435" style="stroke:rgb(0,0,0);stroke-width:.00002" />
    <line x1="106.80170994685768" y1="-6.602288648441435" x2="106.7999" y2="-6.6027" style="stroke:rgb(0,0,0);stroke-width:.00002" />
    <circle cx="106.8043" cy="-6.6017" fill="rgb(255,0,0)" r=".0001" />
    <text x="106.8043" y="-6.6017" stroke="rgb(0,0,0)" transform="translate(106.8043 -6.6017),scale(0.00001 -0.00001),translate(-106.8043 6.6017),translate(106.7975 -6.592499999999999),rotate(0),translate(-106.7975 6.592499999999999)" >bangka-otista</text>
    <line x1="106.7999" y1="-6.6027" x2="106.7996" y2="-6.6027" style="stroke:rgb(255,0,0);stroke-width:.00002" />
    <line x1="106.7999" y1="-6.6027" x2="106.79974999999999" y2="-6.6027" style="stroke:rgb(0,0,0);stroke-width:.00002" />
    <line x1="106.79974999999999" y1="-6.6027" x2="106.79974999999999" y2="-6.6027" style="stroke:rgb(0,0,0);stroke-width:.00002" />
    <line x1="106.79974999999999" y1="-6.6027" x2="106.7996" y2="-6.6027" style="stroke:rgb(0,0,0);stroke-width:.00002" />
    <circle cx="106.7999" cy="-6.6027" fill="rgb(255,0,0)" r=".0001" />
    <text x="106.7999" y="-6.6027" stroke="rgb(0,0,0)" transform="translate(106.7999 -6.6027),scale(0.00001 -0.00001),translate(-106.7999 6.6027),translate(106.7975 -6.592499999999999),rotate(0),translate(-106.7975 6.592499999999999)" >otista-roda</text>
    <line x1="106.7996" y1="-6.6027" x2="106.7988" y2="-6.6031" style="stroke:rgb(255,0,0);stroke-width:.00002" />
    <line x1="106.7996" y1="-6.6027" x2="106.7995577708764" y2="-6.602721114561799" style="stroke:rgb(0,0,0);stroke-width:.00002" />
    <line x1="106.7995577708764" y1="-6.602721114561799" x2="106.7988422291236" y2="-6.603078885438201" style="stroke:rgb(0,0,0);stroke-width:.00002" />
    <line x1="106.7988422291236" y1="-6.603078885438201" x2="106.7988" y2="-6.6031" style="stroke:rgb(0,0,0);stroke-width:.00002" />
    <circle cx="106.7996" cy="-6.6027" fill="rgb(255,0,0)" r=".0001" />
    <text x="106.7996" y="-6.6027" stroke="rgb(0,0,0)" transform="translate(106.7996 -6.6027),scale(0.00001 -0.00001),translate(-106.7996 6.6027),translate(106.7975 -6.592499999999999),rotate(0),translate(-106.7975 6.592499999999999)" >kb-otista</text>
    <line x1="106.7988" y1="-6.6031" x2="106.7997" y2="-6.6048" style="stroke:rgb(255,0,0);stroke-width:.00002" />
    <line x1="106.7988" y1="-6.6031" x2="106.79859495719141" y2="-6.602712696917115" style="stroke:rgb(0,0,0);stroke-width:.00002" />
    <line x1="106.79859495719141" y1="-6.602712696917115" x2="106.79990504280859" y2="-6.605187303082886" style="stroke:rgb(0,0,0);stroke-width:.00002" />
    <line x1="106.79990504280859" y1="-6.605187303082886" x2="106.7997" y2="-6.6048" style="stroke:rgb(0,0,0);stroke-width:.00002" />
    <circle cx="106.7988" cy="-6.6031" fill="rgb(255,0,0)" r=".0001" />
    <text x="106.7988" y="-6.6031" stroke="rgb(0,0,0)" transform="translate(106.7988 -6.6031),scale(0.00001 -0.00001),translate(-106.7988 6.6031),translate(106.7975 -6.592499999999999),rotate(0),translate(-106.7975 6.592499999999999)" >kb-suryakencana</text>
    <line x1="106.7997" y1="-6.6048" x2="106.8025" y2="-6.6082" style="stroke:rgb(255,0,0);stroke-width:.00002" />
    <line x1="106.7997" y1="-6.6048" x2="106.80109999999999" y2="-6.6065000000000005" style="stroke:rgb(0,0,0);stroke-width:.00002" />
    <line x1="106.80109999999999" y1="-6.6065000000000005" x2="106.80109999999999" y2="-6.6065000000000005" style="stroke:rgb(0,0,0);stroke-width:.00002" />
    <line x1="106.80109999999999" y1="-6.6065000000000005" x2="106.8025" y2="-6.6082" style="stroke:rgb(0,0,0);stroke-width:.00002" />
    <circle cx="106.7997" cy="-6.6048" fill="rgb(255,0,0)" r=".0001" />
    <text x="106.7997" y="-6.6048" stroke="rgb(0,0,0)" transform="translate(106.7997 -6.6048),scale(0.00001 -0.00001),translate(-106.7997 6.6048),translate(106.7975 -6.592499999999999),rotate(0),translate(-106.7975 6.592499999999999)" >suryakencana-1</text>
    <line x1="106.8025" y1="-6.6082" x2="106.8045" y2="-6.6099" style="stroke:rgb(255,0,0);stroke-width:.00002" />
    <line x1="106.8025" y1="-6.6082" x2="106.8035" y2="-6.60905" style="stroke:rgb(0,0,0);stroke-width:.00002" />
    <line x1="106.8035" y1="-6.60905" x2="106.8035" y2="-6.60905" style="stroke:rgb(0,0,0);stroke-width:.00002" />
    <line x1="106.8035" y1="-6.60905" x2="106.8045" y2="-6.6099" style="stroke:rgb(0,0,0);stroke-width:.00002" />
    <circle cx="106.8025" cy="-6.6082" fill="rgb(255,0,0)" r=".0001" />
    <text x="106.8025" y="-6.6082" stroke="rgb(0,0,0)" transform="translate(106.8025 -6.6082),scale(0.00001 -0.00001),translate(-106.8025 6.6082),translate(106.7975 -6.592499999999999),rotate(0),translate(-106.7975 6.592499999999999)" >suryakencana-2</text>
    <line x1="106.8045" y1="-6.6099" x2="106.8065" y2="-6.6118" style="stroke:rgb(255,0,0);stroke-width:.00002" />
    <line x1="106.8045" y1="-6.6099" x2="106.8055" y2="-6.610849999999999" style="stroke:rgb(0,0,0);stroke-width:.00002" />
    <line x1="106.8055" y1="-6.610849999999999" x2="106.8055" y2="-6.610849999999999" style="stroke:rgb(0,0,0);stroke-width:.00002" />
    <line x1="106.8055" y1="-6.610849999999999" x2="106.8065" y2="-6.6118" style="stroke:rgb(0,0,0);stroke-width:.00002" />
    <circle cx="106.8045" cy="-6.6099" fill="rgb(255,0,0)" r=".0001" />
    <text x="106.8045" y="-6.6099" stroke="rgb(0,0,0)" transform="translate(106.8045 -6.6099),scale(0.00001 -0.00001),translate(-106.8045 6.6099),translate(106.7975 -6.592499999999999),rotate(0),translate(-106.7975 6.592499999999999)" >roda-siliwangi</text>
    <line x1="106.8065" y1="-6.6118" x2="106.8103" y2="-6.6164" style="stroke:rgb(255,0,0);stroke-width:.00002" />
    <line x1="106.8065" y1="-6.6118" x2="106.8084" y2="-6.6141" style="stroke:rgb(0,0,0);stroke-width:.00002" />
    <line x1="106.8084" y1="-6.6141" x2="106.8084" y2="-6.6141" style="stroke:rgb(0,0,0);stroke-width:.00002" />
    <line x1="106.8084" y1="-6.6141" x2="106.8103" y2="-6.6164" style="stroke:rgb(0,0,0);stroke-width:.00002" />
    <circle cx="106.8065" cy="-6.6118" fill="rgb(255,0,0)" r=".0001" />
    <text x="106.8065" y="-6.6118" stroke="rgb(0,0,0)" transform="translate(106.8065 -6.6118),scale(0.00001 -0.00001),translate(-106.8065 6.6118),translate(106.7975 -6.592499999999999),rotate(0),translate(-106.7975 6.592499999999999)" >siliwangi-1</text>
    <line x1="106.8103" y1="-6.6164" x2="106.812" y2="-6.6178" style="stroke:rgb(255,0,0);stroke-width:.00002" />
    <line x1="106.8103" y1="-6.6164" x2="106.81115" y2="-6.6171" style="stroke:rgb(0,0,0);stroke-width:.00002" />
    <line x1="106.81115" y1="-6.6171" x2="106.81115" y2="-6.6171" style="stroke:rgb(0,0,0);stroke-width:.00002" />
    <line x1="106.81115" y1="-6.6171" x2="106.812" y2="-6.6178" style="stroke:rgb(0,0,0);stroke-width:.00002" />
    <circle cx="106.8103" cy="-6.6164" fill="rgb(255,0,0)" r=".0001" />
    <text x="106.8103" y="-6.6164" stroke="rgb(0,0,0)" transform="translate(106.8103 -6.6164),scale(0.00001 -0.00001),translate(-106.8103 6.6164),translate(106.7975 -6.592499999999999),rotate(0),translate(-106.7975 6.592499999999999)" >siliwangi-2</text>
    <line x1="106.812" y1="-6.6178" x2="106.8145" y2="-6.6201" style="stroke:rgb(255,0,0);stroke-width:.00002" />
    <line x1="106.812" y1="-6.6178" x2="106.81310281379764" y2="-6.618814588693835" style="stroke:rgb(0,0,0);stroke-width:.00002" />
    <line x1="106.81310281379764" y1="-6.618814588693835" x2="106.81339718620235" y2="-6.619085411306164" style="stroke:rgb(0,0,0);stroke-width:.00002" />
    <line x1="106.81339718620235" y1="-6.619085411306164" x2="106.8145" y2="-6.6201" style="stroke:rgb(0,0,0);stroke-width:.00002" />
    <circle cx="106.812" cy="-6.6178" fill="rgb(255,0,0)" r=".0001" />
    <text x="106.812" y="-6.6178" stroke="rgb(0,0,0)" transform="translate(106.812 -6.6178),scale(0.00001 -0.00001),translate(-106.812 6.6178),translate(106.7975 -6.592499999999999),rotate(0),translate(-106.7975 6.592499999999999)" >siliwangi-jlsukasari</text>
    <line x1="106.8145" y1="-6.6201" x2="106.8159" y2="-6.6211" style="stroke:rgb(255,0,0);stroke-width:.00002" />
    <line x1="106.8145" y1="-6.6201" x2="106.81471175991727" y2="-6.620251257083769" style="stroke:rgb(0,0,0);stroke-width:.00002" />
    <line x1="106.81471175991727" y1="-6.620251257083769" x2="106.81568824008274" y2="-6.62094874291623" style="stroke:rgb(0,0,0);stroke-width:.00002" />
    <line x1="106.81568824008274" y1="-6.62094874291623" x2="106.8159" y2="-6.6211" style="stroke:rgb(0,0,0);stroke-width:.00002" />
    <circle cx="106.8145" cy="-6.6201" fill="rgb(255,0,0)" r=".0001" />
    <text x="106.8145" y="-6.6201" stroke="rgb(0,0,0)" transform="translate(106.8145 -6.6201),scale(0.00001 -0.00001),translate(-106.8145 6.6201),translate(106.7975 -6.592499999999999),rotate(0),translate(-106.7975 6.592499999999999)" >siliwangi-lawanggintung</text>
    <line x1="106.8159" y1="-6.6211" x2="106.8163" y2="-6.621" style="stroke:rgb(255,0,0);stroke-width:.00002" />
    <line x1="106.8159" y1="-6.6211" x2="106.81590597149997" y2="-6.621098507125008" style="stroke:rgb(0,0,0);stroke-width:.00002" />
    <line x1="106.81590597149997" y1="-6.621098507125008" x2="106.81629402850004" y2="-6.621001492874993" style="stroke:rgb(0,0,0);stroke-width:.00002" />
    <line x1="106.81629402850004" y1="-6.621001492874993" x2="106.8163" y2="-6.621" style="stroke:rgb(0,0,0);stroke-width:.00002" />
    <circle cx="106.8159" cy="-6.6211" fill="rgb(255,0,0)" r=".0001" />
    <text x="106.8159" y="-6.6211" stroke="rgb(0,0,0)" transform="translate(106.8159 -6.6211),scale(0.00001 -0.00001),translate(-106.8159 6.6211),translate(106.7975 -6.592499999999999),rotate(0),translate(-106.7975 6.592499999999999)" >lippo-w</text>
    <line x1="106.8163" y1="-6.621" x2="106.815" y2="-6.6175" style="stroke:rgb(255,0,0);stroke-width:.00002" />
    <line x1="106.8163" y1="-6.621" x2="106.81565" y2="-6.61925" style="stroke:rgb(0,0,0);stroke-width:.00002" />
    <line x1="106.81565" y1="-6.61925" x2="106.81565" y2="-6.61925" style="stroke:rgb(0,0,0);stroke-width:.00002" />
    <line x1="106.81565" y1="-6.61925" x2="106.815" y2="-6.6175" style="stroke:rgb(0,0,0);stroke-width:.00002" />
    <circle cx="106.8163" cy="-6.621" fill="rgb(255,0,0)" r=".0001" />
    <text x="106.8163" y="-6.621" stroke="rgb(0,0,0)" transform="translate(106.8163 -6.621),scale(0.00001 -0.00001),translate(-106.8163 6.621),translate(106.7975 -6.592499999999999),rotate(0),translate(-106.7975 6.592499999999999)" >lippo-n</text>
    <line x1="106.815" y1="-6.6175" x2="106.8145" y2="-6.6161" style="stroke:rgb(255,0,0);stroke-width:.00002" />
    <line x1="106.815" y1="-6.6175" x2="106.81481726727941" y2="-6.616988348382319" style="stroke:rgb(0,0,0);stroke-width:.00002" />
    <line x1="106.81481726727941" y1="-6.616988348382319" x2="106.8146827327206" y2="-6.6166116516176805" style="stroke:rgb(0,0,0);stroke-width:.00002" />
    <line x1="106.8146827327206" y1="-6.6166116516176805" x2="106.8145" y2="-6.6161" style="stroke:rgb(0,0,0);stroke-width:.00002" />
    <circle cx="106.815" cy="-6.6175" fill="rgb(255,0,0)" r=".0001" />
    <text x="106.815" y="-6.6175" stroke="rgb(0,0,0)" transform="translate(106.815 -6.6175),scale(0.00001 -0.00001),translate(-106.815 6.6175),translate(106.7975 -6.592499999999999),rotate(0),translate(-106.7975 6.592499999999999)" >pajajaran-ggmesjid</text>
    <line x1="106.8145" y1="-6.6161" x2="106.8177" y2="-6.6165" style="stroke:rgb(255,0,0);stroke-width:.00002" />
    <line x1="106.8145" y1="-6.6161" x2="106.8161" y2="-6.616300000000001" style="stroke:rgb(0,0,0);stroke-width:.00002" />
    <line x1="106.8161" y1="-6.616300000000001" x2="106.8161" y2="-6.616300000000001" style="stroke:rgb(0,0,0);stroke-width:.00002" />
    <line x1="106.8161" y1="-6.616300000000001" x2="106.8177" y2="-6.6165" style="stroke:rgb(0,0,0);stroke-width:.00002" />
    <circle cx="106.8145" cy="-6.6161" fill="rgb(255,0,0)" r=".0001" />
    <text x="106.8145" y="-6.6161" stroke="rgb(0,0,0)" transform="translate(106.8145 -6.6161),scale(0.00001 -0.00001),translate(-106.8145 6.6161),translate(106.7975 -6.592499999999999),rotate(0),translate(-106.7975 6.592499999999999)" >pajajaran-durian</text>
    <line x1="106.8177" y1="-6.6165" x2="106.8186" y2="-6.6172" style="stroke:rgb(255,0,0);stroke-width:.00002" />
    <line x1="106.8177" y1="-6.6165" x2="106.81815" y2="-6.61685" style="stroke:rgb(0,0,0);stroke-width:.00002" />
    <line x1="106.81815" y1="-6.61685" x2="106.81815" y2="-6.61685" style="stroke:rgb(0,0,0);stroke-width:.00002" />
    <line x1="106.81815" y1="-6.61685" x2="106.8186" y2="-6.6172" style="stroke:rgb(0,0,0);stroke-width:.00002" />
    <circle cx="106.8177" cy="-6.6165" fill="rgb(255,0,0)" r=".0001" />
    <text x="106.8177" y="-6.6165" stroke="rgb(0,0,0)" transform="translate(106.8177 -6.6165),scale(0.00001 -0.00001),translate(-106.8177 6.6165),translate(106.7975 -6.592499999999999),rotate(0),translate(-106.7975 6.592499999999999)" >durian-1</text>
    <line x1="106.8186" y1="-6.6172" x2="106.8195" y2="-6.6184" style="stroke:rgb(255,0,0);stroke-width:.00002" />
    <line x1="106.8186" y1="-6.6172" x2="106.81905" y2="-6.617800000000001" style="stroke:rgb(0,0,0);stroke-width:.00002" />
    <line x1="106.81905" y1="-6.617800000000001" x2="106.81905" y2="-6.617800000000001" style="stroke:rgb(0,0,0);stroke-width:.00002" />
    <line x1="106.81905" y1="-6.617800000000001" x2="106.8195" y2="-6.6184" style="stroke:rgb(0,0,0);stroke-width:.00002" />
    <circle cx="106.8186" cy="-6.6172" fill="rgb(255,0,0)" r=".0001" />
    <text x="106.8186" y="-6.6172" stroke="rgb(0,0,0)" transform="translate(106.8186 -6.6172),scale(0.00001 -0.00001),translate(-106.8186 6.6172),translate(106.7975 -6.592499999999999),rotate(0),translate(-106.7975 6.592499999999999)" >durian-2</text>
    <line x1="106.8195" y1="-6.6184" x2="106.8186" y2="-6.6172" style="stroke:rgb(255,0,0);stroke-width:.00002" />
    <line x1="106.8195" y1="-6.6184" x2="106.81905" y2="-6.617800000000001" style="stroke:rgb(0,0,0);stroke-width:.00002" />
    <line x1="106.81905" y1="-6.617800000000001" x2="106.81905" y2="-6.617800000000001" style="stroke:rgb(0,0,0);stroke-width:.00002" />
    <line x1="106.81905" y1="-6.617800000000001" x2="106.8186" y2="-6.6172" style="stroke:rgb(0,0,0);stroke-width:.00002" />
    <circle cx="106.8195" cy="-6.6184" fill="rgb(255,0,0)" r=".0001" />
    <text x="106.8195" y="-6.6184" stroke="rgb(0,0,0)" transform="translate(106.8195 -6.6184),scale(0.00001 -0.00001),translate(-106.8195 6.6184),translate(106.7975 -6.592499999999999),rotate(0),translate(-106.7975 6.592499999999999)" >durian-3</text>
    <line x1="106.8186" y1="-6.6172" x2="106.8177" y2="-6.6165" style="stroke:rgb(255,0,0);stroke-width:.00002" />
    <line x1="106.8186" y1="-6.6172" x2="106.81815" y2="-6.61685" style="stroke:rgb(0,0,0);stroke-width:.00002" />
    <line x1="106.81815" y1="-6.61685" x2="106.81815" y2="-6.61685" style="stroke:rgb(0,0,0);stroke-width:.00002" />
    <line x1="106.81815" y1="-6.61685" x2="106.8177" y2="-6.6165" style="stroke:rgb(0,0,0);stroke-width:.00002" />
    <circle cx="106.8186" cy="-6.6172" fill="rgb(255,0,0)" r=".0001" />
    <text x="106.8186" y="-6.6172" stroke="rgb(0,0,0)" transform="translate(106.8186 -6.6172),scale(0.00001 -0.00001),translate(-106.8186 6.6172),translate(106.7975 -6.592499999999999),rotate(0),translate(-106.7975 6.592499999999999)" >durian-2</text>
    <line x1="106.8177" y1="-6.6165" x2="106.8145" y2="-6.6161" style="stroke:rgb(255,0,0);stroke-width:.00002" />
    <line x1="106.8177" y1="-6.6165" x2="106.8161" y2="-6.616300000000001" style="stroke:rgb(0,0,0);stroke-width:.00002" />
    <line x1="106.8161" y1="-6.616300000000001" x2="106.8161" y2="-6.616300000000001" style="stroke:rgb(0,0,0);stroke-width:.00002" />
    <line x1="106.8161" y1="-6.616300000000001" x2="106.8145" y2="-6.6161" style="stroke:rgb(0,0,0);stroke-width:.00002" />
    <circle cx="106.8177" cy="-6.6165" fill="rgb(255,0,0)" r=".0001" />
    <text x="106.8177" y="-6.6165" stroke="rgb(0,0,0)" transform="translate(106.8177 -6.6165),scale(0.00001 -0.00001),translate(-106.8177 6.6165),translate(106.7975 -6.592499999999999),rotate(0),translate(-106.7975 6.592499999999999)" >durian-1</text>
    <line x1="106.8145" y1="-6.6161" x2="106.815" y2="-6.6175" style="stroke:rgb(255,0,0);stroke-width:.00002" />
    <line x1="106.8145" y1="-6.6161" x2="106.8145481981618" y2="-6.616234954853043" style="stroke:rgb(0,0,0);stroke-width:.00002" />
    <line x1="106.8145481981618" y1="-6.616234954853043" x2="106.8149518018382" y2="-6.617365045146956" style="stroke:rgb(0,0,0);stroke-width:.00002" />
    <line x1="106.8149518018382" y1="-6.617365045146956" x2="106.815" y2="-6.6175" style="stroke:rgb(0,0,0);stroke-width:.00002" />
    <circle cx="106.8145" cy="-6.6161" fill="rgb(255,0,0)" r=".0001" />
    <text x="106.8145" y="-6.6161" stroke="rgb(0,0,0)" transform="translate(106.8145 -6.6161),scale(0.00001 -0.00001),translate(-106.8145 6.6161),translate(106.7975 -6.592499999999999),rotate(0),translate(-106.7975 6.592499999999999)" >pajajaran-durian</text>
    <line x1="106.815" y1="-6.6175" x2="106.8163" y2="-6.621" style="stroke:rgb(255,0,0);stroke-width:.00002" />
    <line x1="106.815" y1="-6.6175" x2="106.81551072538817" y2="-6.618875029891196" style="stroke:rgb(0,0,0);stroke-width:.00002" />
    <line x1="106.81551072538817" y1="-6.618875029891196" x2="106.81578927461184" y2="-6.619624970108804" style="stroke:rgb(0,0,0);stroke-width:.00002" />
    <line x1="106.81578927461184" y1="-6.619624970108804" x2="106.8163" y2="-6.621" style="stroke:rgb(0,0,0);stroke-width:.00002" />
    <circle cx="106.815" cy="-6.6175" fill="rgb(255,0,0)" r=".0001" />
    <text x="106.815" y="-6.6175" stroke="rgb(0,0,0)" transform="translate(106.815 -6.6175),scale(0.00001 -0.00001),translate(-106.815 6.6175),translate(106.7975 -6.592499999999999),rotate(0),translate(-106.7975 6.592499999999999)" >pajajaran-ggmesjid</text>
    <line x1="106.8163" y1="-6.621" x2="106.8164" y2="-6.6212" style="stroke:rgb(255,0,0);stroke-width:.00002" />
    <line x1="106.8163" y1="-6.621" x2="106.81635" y2="-6.6211" style="stroke:rgb(0,0,0);stroke-width:.00002" />
    <line x1="106.81635" y1="-6.6211" x2="106.81635" y2="-6.6211" style="stroke:rgb(0,0,0);stroke-width:.00002" />
    <line x1="106.81635" y1="-6.6211" x2="106.8164" y2="-6.6212" style="stroke:rgb(0,0,0);stroke-width:.00002" />
    <circle cx="106.8163" cy="-6.621" fill="rgb(255,0,0)" r=".0001" />
    <text x="106.8163" y="-6.621" stroke="rgb(0,0,0)" transform="translate(106.8163 -6.621),scale(0.00001 -0.00001),translate(-106.8163 6.621),translate(106.7975 -6.592499999999999),rotate(0),translate(-106.7975 6.592499999999999)" >lippo-n</text>
    <line x1="106.8164" y1="-6.6212" x2="106.8162" y2="-6.6214" style="stroke:rgb(255,0,0);stroke-width:.00002" />
    <line x1="106.8164" y1="-6.6212" x2="106.8163" y2="-6.6213" style="stroke:rgb(0,0,0);stroke-width:.00002" />
    <line x1="106.8163" y1="-6.6213" x2="106.8163" y2="-6.6213" style="stroke:rgb(0,0,0);stroke-width:.00002" />
    <line x1="106.8163" y1="-6.6213" x2="106.8162" y2="-6.6214" style="stroke:rgb(0,0,0);stroke-width:.00002" />
    <circle cx="106.8164" cy="-6.6212" fill="rgb(255,0,0)" r=".0001" />
    <text x="106.8164" y="-6.6212" stroke="rgb(0,0,0)" transform="translate(106.8164 -6.6212),scale(0.00001 -0.00001),translate(-106.8164 6.6212),translate(106.7975 -6.592499999999999),rotate(0),translate(-106.7975 6.592499999999999)" >lippo-e</text>
    <line x1="106.8162" y1="-6.6214" x2="106.8159" y2="-6.6211" style="stroke:rgb(255,0,0);stroke-width:.00002" />
    <line x1="106.8162" y1="-6.6214" x2="106.81619142135622" y2="-6.621391421356238" style="stroke:rgb(0,0,0);stroke-width:.00002" />
    <line x1="106.81619142135622" y1="-6.621391421356238" x2="106.81590857864376" y2="-6.621108578643762" style="stroke:rgb(0,0,0);stroke-width:.00002" />
    <line x1="106.81590857864376" y1="-6.621108578643762" x2="106.8159" y2="-6.6211" style="stroke:rgb(0,0,0);stroke-width:.00002" />
    <circle cx="106.8162" cy="-6.6214" fill="rgb(255,0,0)" r=".0001" />
    <text x="106.8162" y="-6.6214" stroke="rgb(0,0,0)" transform="translate(106.8162 -6.6214),scale(0.00001 -0.00001),translate(-106.8162 6.6214),translate(106.7975 -6.592499999999999),rotate(0),translate(-106.7975 6.592499999999999)" >lippo-s</text>
    <line x1="106.8159" y1="-6.6211" x2="106.8145" y2="-6.6201" style="stroke:rgb(255,0,0);stroke-width:.00002" />
    <line x1="106.8159" y1="-6.6211" x2="106.81552549338849" y2="-6.620832495277487" style="stroke:rgb(0,0,0);stroke-width:.00002" />
    <line x1="106.81552549338849" y1="-6.620832495277487" x2="106.81487450661152" y2="-6.620367504722513" style="stroke:rgb(0,0,0);stroke-width:.00002" />
    <line x1="106.81487450661152" y1="-6.620367504722513" x2="106.8145" y2="-6.6201" style="stroke:rgb(0,0,0);stroke-width:.00002" />
    <circle cx="106.8159" cy="-6.6211" fill="rgb(255,0,0)" r=".0001" />
    <text x="106.8159" y="-6.6211" stroke="rgb(0,0,0)" transform="translate(106.8159 -6.6211),scale(0.00001 -0.00001),translate(-106.8159 6.6211),translate(106.7975 -6.592499999999999),rotate(0),translate(-106.7975 6.592499999999999)" >lippo-w</text>
    <line x1="106.8145" y1="-6.6201" x2="106.8124" y2="-6.6208" style="stroke:rgb(255,0,0);stroke-width:.00002" />
    <line x1="106.8145" y1="-6.6201" x2="106.8138294733192" y2="-6.620323508893593" style="stroke:rgb(0,0,0);stroke-width:.00002" />
    <line x1="106.8138294733192" y1="-6.620323508893593" x2="106.81307052668078" y2="-6.620576491106407" style="stroke:rgb(0,0,0);stroke-width:.00002" />
    <line x1="106.81307052668078" y1="-6.620576491106407" x2="106.8124" y2="-6.6208" style="stroke:rgb(0,0,0);stroke-width:.00002" />
    <circle cx="106.8145" cy="-6.6201" fill="rgb(255,0,0)" r=".0001" />
    <text x="106.8145" y="-6.6201" stroke="rgb(0,0,0)" transform="translate(106.8145 -6.6201),scale(0.00001 -0.00001),translate(-106.8145 6.6201),translate(106.7975 -6.592499999999999),rotate(0),translate(-106.7975 6.592499999999999)" >siliwangi-lawanggintung</text>
    <line x1="106.8124" y1="-6.6208" x2="106.8123" y2="-6.6235" style="stroke:rgb(255,0,0);stroke-width:.00002" />
    <line x1="106.8124" y1="-6.6208" x2="106.81235" y2="-6.6221499999999995" style="stroke:rgb(0,0,0);stroke-width:.00002" />
    <line x1="106.81235" y1="-6.6221499999999995" x2="106.81235" y2="-6.6221499999999995" style="stroke:rgb(0,0,0);stroke-width:.00002" />
    <line x1="106.81235" y1="-6.6221499999999995" x2="106.8123" y2="-6.6235" style="stroke:rgb(0,0,0);stroke-width:.00002" />
    <circle cx="106.8124" cy="-6.6208" fill="rgb(255,0,0)" r=".0001" />
    <text x="106.8124" y="-6.6208" stroke="rgb(0,0,0)" transform="translate(106.8124 -6.6208),scale(0.00001 -0.00001),translate(-106.8124 6.6208),translate(106.7975 -6.592499999999999),rotate(0),translate(-106.7975 6.592499999999999)" >lawanggintung-1</text>
    <line x1="106.8123" y1="-6.6235" x2="106.8101" y2="-6.6238" style="stroke:rgb(255,0,0);stroke-width:.00002" />
    <line x1="106.8123" y1="-6.6235" x2="106.8112" y2="-6.62365" style="stroke:rgb(0,0,0);stroke-width:.00002" />
    <line x1="106.8112" y1="-6.62365" x2="106.8112" y2="-6.62365" style="stroke:rgb(0,0,0);stroke-width:.00002" />
    <line x1="106.8112" y1="-6.62365" x2="106.8101" y2="-6.6238" style="stroke:rgb(0,0,0);stroke-width:.00002" />
    <circle cx="106.8123" cy="-6.6235" fill="rgb(255,0,0)" r=".0001" />
    <text x="106.8123" y="-6.6235" stroke="rgb(0,0,0)" transform="translate(106.8123 -6.6235),scale(0.00001 -0.00001),translate(-106.8123 6.6235),translate(106.7975 -6.592499999999999),rotate(0),translate(-106.7975 6.592499999999999)" >lawanggintung-2</text>
    <line x1="106.8101" y1="-6.6238" x2="106.8099" y2="-6.6246" style="stroke:rgb(255,0,0);stroke-width:.00002" />
    <line x1="106.8101" y1="-6.6238" x2="106.81" y2="-6.6242" style="stroke:rgb(0,0,0);stroke-width:.00002" />
    <line x1="106.81" y1="-6.6242" x2="106.81" y2="-6.6242" style="stroke:rgb(0,0,0);stroke-width:.00002" />
    <line x1="106.81" y1="-6.6242" x2="106.8099" y2="-6.6246" style="stroke:rgb(0,0,0);stroke-width:.00002" />
    <circle cx="106.8101" cy="-6.6238" fill="rgb(255,0,0)" r=".0001" />
    <text x="106.8101" y="-6.6238" stroke="rgb(0,0,0)" transform="translate(106.8101 -6.6238),scale(0.00001 -0.00001),translate(-106.8101 6.6238),translate(106.7975 -6.592499999999999),rotate(0),translate(-106.7975 6.592499999999999)" >lawanggintung-3</text>
    <line x1="106.8099" y1="-6.6246" x2="106.8093" y2="-6.625" style="stroke:rgb(255,0,0);stroke-width:.00002" />
    <line x1="106.8099" y1="-6.6246" x2="106.80976641005886" y2="-6.624689059960756" style="stroke:rgb(0,0,0);stroke-width:.00002" />
    <line x1="106.80976641005886" y1="-6.624689059960756" x2="106.80943358994112" y2="-6.6249109400392445" style="stroke:rgb(0,0,0);stroke-width:.00002" />
    <line x1="106.80943358994112" y1="-6.6249109400392445" x2="106.8093" y2="-6.625" style="stroke:rgb(0,0,0);stroke-width:.00002" />
    <circle cx="106.8099" cy="-6.6246" fill="rgb(255,0,0)" r=".0001" />
    <text x="106.8099" y="-6.6246" stroke="rgb(0,0,0)" transform="translate(106.8099 -6.6246),scale(0.00001 -0.00001),translate(-106.8099 6.6246),translate(106.7975 -6.592499999999999),rotate(0),translate(-106.7975 6.592499999999999)" >lawanggintung-4</text>
    <line x1="106.8093" y1="-6.625" x2="106.8091" y2="-6.6248" style="stroke:rgb(255,0,0);stroke-width:.00002" />
    <line x1="106.8093" y1="-6.625" x2="106.80948284271247" y2="-6.625182842712481" style="stroke:rgb(0,0,0);stroke-width:.00002" />
    <line x1="106.80948284271247" y1="-6.625182842712481" x2="106.80891715728754" y2="-6.62461715728752" style="stroke:rgb(0,0,0);stroke-width:.00002" />
    <line x1="106.80891715728754" y1="-6.62461715728752" x2="106.8091" y2="-6.6248" style="stroke:rgb(0,0,0);stroke-width:.00002" />
    <circle cx="106.8093" cy="-6.625" fill="rgb(255,0,0)" r=".0001" />
    <text x="106.8093" y="-6.625" stroke="rgb(0,0,0)" transform="translate(106.8093 -6.625),scale(0.00001 -0.00001),translate(-106.8093 6.625),translate(106.7975 -6.592499999999999),rotate(0),translate(-106.7975 6.592499999999999)" >lawanggintung-5</text>
    <line x1="106.8091" y1="-6.6248" x2="106.8089" y2="-6.6245" style="stroke:rgb(255,0,0);stroke-width:.00002" />
    <line x1="106.8091" y1="-6.6248" x2="106.80911094003925" y2="-6.624816410058866" style="stroke:rgb(0,0,0);stroke-width:.00002" />
    <line x1="106.80911094003925" y1="-6.624816410058866" x2="106.80888905996075" y2="-6.624483589941134" style="stroke:rgb(0,0,0);stroke-width:.00002" />
    <line x1="106.80888905996075" y1="-6.624483589941134" x2="106.8089" y2="-6.6245" style="stroke:rgb(0,0,0);stroke-width:.00002" />
    <circle cx="106.8091" cy="-6.6248" fill="rgb(255,0,0)" r=".0001" />
    <text x="106.8091" y="-6.6248" stroke="rgb(0,0,0)" transform="translate(106.8091 -6.6248),scale(0.00001 -0.00001),translate(-106.8091 6.6248),translate(106.7975 -6.592499999999999),rotate(0),translate(-106.7975 6.592499999999999)" >lawanggintung-cipaku</text>
    <line x1="106.8089" y1="-6.6245" x2="106.8086" y2="-6.6218" style="stroke:rgb(255,0,0);stroke-width:.00002" />
    <line x1="106.8089" y1="-6.6245" x2="106.80875" y2="-6.623150000000001" style="stroke:rgb(0,0,0);stroke-width:.00002" />
    <line x1="106.80875" y1="-6.623150000000001" x2="106.80875" y2="-6.623150000000001" style="stroke:rgb(0,0,0);stroke-width:.00002" />
    <line x1="106.80875" y1="-6.623150000000001" x2="106.8086" y2="-6.6218" style="stroke:rgb(0,0,0);stroke-width:.00002" />
    <circle cx="106.8089" cy="-6.6245" fill="rgb(255,0,0)" r=".0001" />
    <text x="106.8089" y="-6.6245" stroke="rgb(0,0,0)" transform="translate(106.8089 -6.6245),scale(0.00001 -0.00001),translate(-106.8089 6.6245),translate(106.7975 -6.592499999999999),rotate(0),translate(-106.7975 6.592499999999999)" >batutulis-1</text>
    <line x1="106.8086" y1="-6.6218" x2="106.8079" y2="-6.6215" style="stroke:rgb(255,0,0);stroke-width:.00002" />
    <line x1="106.8086" y1="-6.6218" x2="106.80825" y2="-6.621650000000001" style="stroke:rgb(0,0,0);stroke-width:.00002" />
    <line x1="106.80825" y1="-6.621650000000001" x2="106.80825" y2="-6.621650000000001" style="stroke:rgb(0,0,0);stroke-width:.00002" />
    <line x1="106.80825" y1="-6.621650000000001" x2="106.8079" y2="-6.6215" style="stroke:rgb(0,0,0);stroke-width:.00002" />
    <circle cx="106.8086" cy="-6.6218" fill="rgb(255,0,0)" r=".0001" />
    <text x="106.8086" y="-6.6218" stroke="rgb(0,0,0)" transform="translate(106.8086 -6.6218),scale(0.00001 -0.00001),translate(-106.8086 6.6218),translate(106.7975 -6.592499999999999),rotate(0),translate(-106.7975 6.592499999999999)" >batutulis-2</text>
    <line x1="106.8079" y1="-6.6215" x2="106.8069" y2="-6.6188" style="stroke:rgb(255,0,0);stroke-width:.00002" />
    <line x1="106.8079" y1="-6.6215" x2="106.8074" y2="-6.620150000000001" style="stroke:rgb(0,0,0);stroke-width:.00002" />
    <line x1="106.8074" y1="-6.620150000000001" x2="106.8074" y2="-6.620150000000001" style="stroke:rgb(0,0,0);stroke-width:.00002" />
    <line x1="106.8074" y1="-6.620150000000001" x2="106.8069" y2="-6.6188" style="stroke:rgb(0,0,0);stroke-width:.00002" />
    <circle cx="106.8079" cy="-6.6215" fill="rgb(255,0,0)" r=".0001" />
    <text x="106.8079" y="-6.6215" stroke="rgb(0,0,0)" transform="translate(106.8079 -6.6215),scale(0.00001 -0.00001),translate(-106.8079 6.6215),translate(106.7975 -6.592499999999999),rotate(0),translate(-106.7975 6.592499999999999)" >batutulis-3</text>
    <line x1="106.8069" y1="-6.6188" x2="106.8045" y2="-6.6163" style="stroke:rgb(255,0,0);stroke-width:.00002" />
    <line x1="106.8069" y1="-6.6188" x2="106.8057" y2="-6.61755" style="stroke:rgb(0,0,0);stroke-width:.00002" />
    <line x1="106.8057" y1="-6.61755" x2="106.8057" y2="-6.61755" style="stroke:rgb(0,0,0);stroke-width:.00002" />
    <line x1="106.8057" y1="-6.61755" x2="106.8045" y2="-6.6163" style="stroke:rgb(0,0,0);stroke-width:.00002" />
    <circle cx="106.8069" cy="-6.6188" fill="rgb(255,0,0)" r=".0001" />
    <text x="106.8069" y="-6.6188" stroke="rgb(0,0,0)" transform="translate(106.8069 -6.6188),scale(0.00001 -0.00001),translate(-106.8069 6.6188),translate(106.7975 -6.592499999999999),rotate(0),translate(-106.7975 6.592499999999999)" >batutulis-pahlawan</text>
    <line x1="106.8045" y1="-6.6163" x2="106.8034" y2="-6.6142" style="stroke:rgb(255,0,0);stroke-width:.00002" />
    <line x1="106.8045" y1="-6.6163" x2="106.80395" y2="-6.61525" style="stroke:rgb(0,0,0);stroke-width:.00002" />
    <line x1="106.80395" y1="-6.61525" x2="106.80395" y2="-6.61525" style="stroke:rgb(0,0,0);stroke-width:.00002" />
    <line x1="106.80395" y1="-6.61525" x2="106.8034" y2="-6.6142" style="stroke:rgb(0,0,0);stroke-width:.00002" />
    <circle cx="106.8045" cy="-6.6163" fill="rgb(255,0,0)" r=".0001" />
    <text x="106.8045" y="-6.6163" stroke="rgb(0,0,0)" transform="translate(106.8045 -6.6163),scale(0.00001 -0.00001),translate(-106.8045 6.6163),translate(106.7975 -6.592499999999999),rotate(0),translate(-106.7975 6.592499999999999)" >pahlawan-1</text>
    <line x1="106.8034" y1="-6.6142" x2="106.8021" y2="-6.6123" style="stroke:rgb(255,0,0);stroke-width:.00002" />
    <line x1="106.8034" y1="-6.6142" x2="106.80286293678313" y2="-6.613415061452251" style="stroke:rgb(0,0,0);stroke-width:.00002" />
    <line x1="106.80286293678313" y1="-6.613415061452251" x2="106.80263706321688" y2="-6.61308493854775" style="stroke:rgb(0,0,0);stroke-width:.00002" />
    <line x1="106.80263706321688" y1="-6.61308493854775" x2="106.8021" y2="-6.6123" style="stroke:rgb(0,0,0);stroke-width:.00002" />
    <circle cx="106.8034" cy="-6.6142" fill="rgb(255,0,0)" r=".0001" />
    <text x="106.8034" y="-6.6142" stroke="rgb(0,0,0)" transform="translate(106.8034 -6.6142),scale(0.00001 -0.00001),translate(-106.8034 6.6142),translate(106.7975 -6.592499999999999),rotate(0),translate(-106.7975 6.592499999999999)" >dreded-pahlawan</text>
    <line x1="106.8021" y1="-6.6123" x2="106.8009" y2="-6.6119" style="stroke:rgb(255,0,0);stroke-width:.00002" />
    <line x1="106.8021" y1="-6.6123" x2="106.80168973665961" y2="-6.612163245553203" style="stroke:rgb(0,0,0);stroke-width:.00002" />
    <line x1="106.80168973665961" y1="-6.612163245553203" x2="106.8013102633404" y2="-6.612036754446796" style="stroke:rgb(0,0,0);stroke-width:.00002" />
    <line x1="106.8013102633404" y1="-6.612036754446796" x2="106.8009" y2="-6.6119" style="stroke:rgb(0,0,0);stroke-width:.00002" />
    <circle cx="106.8021" cy="-6.6123" fill="rgb(255,0,0)" r=".0001" />
    <text x="106.8021" y="-6.6123" stroke="rgb(0,0,0)" transform="translate(106.8021 -6.6123),scale(0.00001 -0.00001),translate(-106.8021 6.6123),translate(106.7975 -6.592499999999999),rotate(0),translate(-106.7975 6.592499999999999)" >pahlawan-ggaut</text>
    <line x1="106.8009" y1="-6.6119" x2="106.8" y2="-6.6113" style="stroke:rgb(255,0,0);stroke-width:.00002" />
    <line x1="106.8009" y1="-6.6119" x2="106.80045" y2="-6.6116" style="stroke:rgb(0,0,0);stroke-width:.00002" />
    <line x1="106.80045" y1="-6.6116" x2="106.80045" y2="-6.6116" style="stroke:rgb(0,0,0);stroke-width:.00002" />
    <line x1="106.80045" y1="-6.6116" x2="106.8" y2="-6.6113" style="stroke:rgb(0,0,0);stroke-width:.00002" />
    <circle cx="106.8009" cy="-6.6119" fill="rgb(255,0,0)" r=".0001" />
    <text x="106.8009" y="-6.6119" stroke="rgb(0,0,0)" transform="translate(106.8009 -6.6119),scale(0.00001 -0.00001),translate(-106.8009 6.6119),translate(106.7975 -6.592499999999999),rotate(0),translate(-106.7975 6.592499999999999)" >pahlawan-layungsari</text>
    <line x1="106.8" y1="-6.6113" x2="106.7964" y2="-6.6082" style="stroke:rgb(255,0,0);stroke-width:.00002" />
    <line x1="106.8" y1="-6.6113" x2="106.79820000000001" y2="-6.60975" style="stroke:rgb(0,0,0);stroke-width:.00002" />
    <line x1="106.79820000000001" y1="-6.60975" x2="106.79820000000001" y2="-6.60975" style="stroke:rgb(0,0,0);stroke-width:.00002" />
    <line x1="106.79820000000001" y1="-6.60975" x2="106.7964" y2="-6.6082" style="stroke:rgb(0,0,0);stroke-width:.00002" />
    <circle cx="106.8" cy="-6.6113" fill="rgb(255,0,0)" r=".0001" />
    <text x="106.8" y="-6.6113" stroke="rgb(0,0,0)" transform="translate(106.8 -6.6113),scale(0.00001 -0.00001),translate(-106.8 6.6113),translate(106.7975 -6.592499999999999),rotate(0),translate(-106.7975 6.592499999999999)" >pahlawan-3</text>
    <line x1="106.7964" y1="-6.6082" x2="106.7949" y2="-6.6077" style="stroke:rgb(255,0,0);stroke-width:.00002" />
    <line x1="106.7964" y1="-6.6082" x2="106.79565" y2="-6.607950000000001" style="stroke:rgb(0,0,0);stroke-width:.00002" />
    <line x1="106.79565" y1="-6.607950000000001" x2="106.79565" y2="-6.607950000000001" style="stroke:rgb(0,0,0);stroke-width:.00002" />
    <line x1="106.79565" y1="-6.607950000000001" x2="106.7949" y2="-6.6077" style="stroke:rgb(0,0,0);stroke-width:.00002" />
    <circle cx="106.7964" cy="-6.6082" fill="rgb(255,0,0)" r=".0001" />
    <text x="106.7964" y="-6.6082" stroke="rgb(0,0,0)" transform="translate(106.7964 -6.6082),scale(0.00001 -0.00001),translate(-106.7964 6.6082),translate(106.7975 -6.592499999999999),rotate(0),translate(-106.7975 6.592499999999999)" >pahlawan-4</text>
    <line x1="106.7949" y1="-6.6077" x2="106.7954" y2="-6.606" style="stroke:rgb(255,0,0);stroke-width:.00002" />
    <line x1="106.7949" y1="-6.6077" x2="106.79515" y2="-6.60685" style="stroke:rgb(0,0,0);stroke-width:.00002" />
    <line x1="106.79515" y1="-6.60685" x2="106.79515" y2="-6.60685" style="stroke:rgb(0,0,0);stroke-width:.00002" />
    <line x1="106.79515" y1="-6.60685" x2="106.7954" y2="-6.606" style="stroke:rgb(0,0,0);stroke-width:.00002" />
    <circle cx="106.7949" cy="-6.6077" fill="rgb(255,0,0)" r=".0001" />
    <text x="106.7949" y="-6.6077" stroke="rgb(0,0,0)" transform="translate(106.7949 -6.6077),scale(0.00001 -0.00001),translate(-106.7949 6.6077),translate(106.7975 -6.592499999999999),rotate(0),translate(-106.7975 6.592499999999999)" >pahlawan-empang</text>
    <line x1="106.7954" y1="-6.606" x2="106.7965" y2="-6.6046" style="stroke:rgb(255,0,0);stroke-width:.00002" />
    <line x1="106.7954" y1="-6.606" x2="106.79595" y2="-6.6053" style="stroke:rgb(0,0,0);stroke-width:.00002" />
    <line x1="106.79595" y1="-6.6053" x2="106.79595" y2="-6.6053" style="stroke:rgb(0,0,0);stroke-width:.00002" />
    <line x1="106.79595" y1="-6.6053" x2="106.7965" y2="-6.6046" style="stroke:rgb(0,0,0);stroke-width:.00002" />
    <circle cx="106.7954" cy="-6.606" fill="rgb(255,0,0)" r=".0001" />
    <text x="106.7954" y="-6.606" stroke="rgb(0,0,0)" transform="translate(106.7954 -6.606),scale(0.00001 -0.00001),translate(-106.7954 6.606),translate(106.7975 -6.592499999999999),rotate(0),translate(-106.7975 6.592499999999999)" >halte-empang</text>
    <line x1="106.7965" y1="-6.6046" x2="106.7961" y2="-6.6038" style="stroke:rgb(255,0,0);stroke-width:.00002" />
    <line x1="106.7965" y1="-6.6046" x2="106.7963" y2="-6.6042" style="stroke:rgb(0,0,0);stroke-width:.00002" />
    <line x1="106.7963" y1="-6.6042" x2="106.7963" y2="-6.6042" style="stroke:rgb(0,0,0);stroke-width:.00002" />
    <line x1="106.7963" y1="-6.6042" x2="106.7961" y2="-6.6038" style="stroke:rgb(0,0,0);stroke-width:.00002" />
    <circle cx="106.7965" cy="-6.6046" fill="rgb(255,0,0)" r=".0001" />
    <text x="106.7965" y="-6.6046" stroke="rgb(0,0,0)" transform="translate(106.7965 -6.6046),scale(0.00001 -0.00001),translate(-106.7965 6.6046),translate(106.7975 -6.592499999999999),rotate(0),translate(-106.7975 6.592499999999999)" >btm-3</text>
    <line x1="106.7961" y1="-6.6038" x2="106.7937" y2="-6.5969" style="stroke:rgb(255,0,0);stroke-width:.00002" />
    <line x1="106.7961" y1="-6.6038" x2="106.79535992887492" y2="-6.601672295515389" style="stroke:rgb(0,0,0);stroke-width:.00002" />
    <line x1="106.79535992887492" y1="-6.601672295515389" x2="106.79444007112508" y2="-6.599027704484611" style="stroke:rgb(0,0,0);stroke-width:.00002" />
    <line x1="106.79444007112508" y1="-6.599027704484611" x2="106.7937" y2="-6.5969" style="stroke:rgb(0,0,0);stroke-width:.00002" />
    <circle cx="106.7961" cy="-6.6038" fill="rgb(255,0,0)" r=".0001" />
    <text x="106.7961" y="-6.6038" stroke="rgb(0,0,0)" transform="translate(106.7961 -6.6038),scale(0.00001 -0.00001),translate(-106.7961 6.6038),translate(106.7975 -6.592499999999999),rotate(0),translate(-106.7975 6.592499999999999)" >kb-btm-2</text>
  </g>
</svg>
