<svg width="3500" height="3500" xmlns="http://www.w3.org/2000/svg" xmlns:xlink="http://www.w3.org/1999/xlink" >
  <path d="M1360.4406626134846 1590.7793323249168 L1374.9089474490715 1602.0324427527125 L1388.1646600670906 1619.7067262432934 L1398.463310883713 1615.3152260837094 L1514.701708008488 1719.123811521484 L1528.899999999993 1752.038846153852 L1511.7769556582061 1719.9651547165965 L1538.029338216802 1676.313293402534 L1599.742991904307 1623.3451574835738 L1649.8206659191083 1541.2452282733561 L1675.0599999999595 1421.888846153854 L1652.6593340808658 1542.3524640343537 L1602.0570080957698 1625.3125348241065 L1540.3506617832363 1678.2743989051512 L1513.8318892664415 1722.3692073492416 L1397.886689116419 1618.822466223993 L1384.335339933145 1624.6009660644181 L1370.59105255112 1606.2752495550162 L1358.0593373866634 1596.5283599827944 L1314.047445712063 1591.0268735234692 L1318.7500000000086 1608.6538461538473 L1319.600448439573 1615.4949224088891 L1288.594588698757 1541.0808590305396 L1223.6322024316592 1451.9464220595605 L1213.1261201017905 1456.4490287724489 L1203.3291804145563 1449.9177356476614 L1191.2856855028053 1451.638234920765 L1177.4742927241277 1430.1538461538503 L1165.4666892327725 1430.1538461538503 L1153.3835233460366 1377.289995398954 L1100.372193612884 1388.5690017251754 L1042.2458093630382 1418.634372888881 L1023.6074038524379 1406.2087692152984 L985.7206038185495 1297.2842191174298 L1002.665910549041 1252.0967345027416 L1050.9431111254485 1225.2760675159107 L1069.3958614716337 1233.6636813096784 L1105.3194406436974 1215.2405698701689 L1122.2583611399273 1222.1561573711974 L1136.1389543054656 1232.7252013446182 L1175.082731910635 1295.0352455126306 L1185.2811187115008 1358.7751630185223 L1172.7957151158107 1376.2547280524643 L1194.6258390472763 1404.3220302500229 L1410.5976593918967 1273.734417948647 L1207.8511767951027 1415.6569557667224 L1245.8497739204688 1460.4410166645514 L1118.5430515789108 1269.4809331540396 L1291.410964318942 1532.2401605190942 L1313.3496278435075 1584.8929529787097 Z" stroke="orange" stroke-width="0.5" fill="none" />
</svg>
