<svg width="1049.9999999998977" height="1849.9999999999961" xmlns="http://www.w3.org/2000/svg" xmlns:xlink="http://www.w3.org/1999/xlink" >
  <g transform="translate(524.9999999999488 924.9999999999981) rotate(30) scale(10000 -10000) translate(-106.8125 6.592499999999999)">
    <path d="M106.76 -6.5 L106.865 -6.5 L106.865 -6.685 L106.76 -6.685 Z" fill="none" stroke="black" stroke-width="0.001" transform="translate(106.8125 -6.592499999999999) rotate(30) translate(-106.8125 6.592499999999999)" />
    <path d="M106.75484385998695 -6.569199682165024 L106.75165480289725 -6.565945151698547 L106.7493340835928 -6.561075279917678 L106.74903718067624 -6.559646102079249 L106.75027862157053 -6.556819206548869 L106.75014409148268 -6.556358458424145 L106.74808229931494 -6.556165323405 L106.74801848475717 -6.555697682348768 L106.74499576945725 -6.555440087436389 L106.74492488865522 -6.552743345538253 L106.74523875271524 -6.552032198398949 L106.74570461755754 -6.550443081659097 L106.74615666686181 -6.550122337141658 L106.74649159285265 -6.549026716229074 L106.74645649787318 -6.548279111549953 L106.73459446124512 -6.544028285175081 L106.72880136370632 -6.543741032079874 L106.72878542617933 -6.545003132431478 L106.73098572289064 -6.545104714074073 L106.73272907393999 -6.547564160419973 L106.73201782944805 -6.550858345435238 L106.74572396346343 -6.551923474578305 L106.74532711134478 -6.552822654461744 L106.74538623054276 -6.55507191256361 L106.74837151524282 -6.555326317651232 L106.74843570068506 -6.555796676595 L106.75045190851732 -6.555985541575856 L106.75070337842946 -6.556846793451139 L106.74945481932376 -6.559689897920756 L106.74971591640721 -6.560946720082309 L106.75198719710276 -6.565712848301442 L106.75513014001324 -6.568920317835172 L106.75648525778432 -6.570314730653483 L106.7521402950404 -6.574066957919611 L106.75252512182932 -6.573816762725011 L106.75382925001645 -6.575582041394824 L106.76370250919733 -6.579708984738649 L106.76767757879684 -6.579462197843716 L106.77177560249989 -6.584450672375181 L106.77433521785352 -6.583580199076445 L106.77702958955908 -6.583726344465643 L106.77784423992166 -6.582882599447271 L106.77691948882357 -6.5818610609285555 L106.77729055619508 -6.5809732735723685 L106.7849291561887 -6.587769904419051 L106.78618176277722 -6.5900827172240835 L106.78615940740002 -6.5900605810172594 L106.78792684977023 -6.589147750308963 L106.78798555247465 -6.593744308581989 L106.78751471431848 -6.592762923027533 L106.78638716133642 -6.5933122701385285 L106.7858450227452 -6.591413174756546 L106.78491152472823 -6.591083300610673 L106.7853165332022 -6.590294440821807 L106.78574067403765 -6.5901082141109 L106.78461084381131 -6.588022095580966 L106.77744344380491 -6.581644726427626 L106.77738651117643 -6.5817809390714475 L106.77839176007836 -6.582891400552728 L106.7771904104409 -6.584135655534356 L106.77439078214647 -6.583983800923556 L106.77042839750011 -6.585331327624816 L106.76696042120317 -6.581109802156284 L106.76342949080266 -6.581329015261351 L106.75280474998353 -6.576887958605172 L106.75022887817069 -6.573401237274985 L106.75860570495962 -6.567955042080382 L106.75590274221567 -6.570289269346522 Z" stroke="brown" stroke-width="0.0002" fill="none" />
    <circle 
      cx="106.75513014001324" cy="-12.568920317835172"
      r="15" transform="translate(106.75513014001324 -6.568920317835172) scale(0.00001 -0.00001) translate(-106.75513014001324 6.568920317835172) translate(106.8125 -6.592499999999999) rotate(-30) translate(-106.8125 6.592499999999999)"
      fill="white" stroke="black" stroke-width="2"/>
    <circle 
      cx="106.7521402950404" cy="-12.574066957919612"
      r="15" transform="translate(106.7521402950404 -6.574066957919611) scale(0.00001 -0.00001) translate(-106.7521402950404 6.574066957919611) translate(106.8125 -6.592499999999999) rotate(-30) translate(-106.8125 6.592499999999999)"
      fill="white" stroke="black" stroke-width="2"/>
    <circle 
      cx="106.77177560249989" cy="-12.58445067237518"
      r="15" transform="translate(106.77177560249989 -6.584450672375181) scale(0.00001 -0.00001) translate(-106.77177560249989 6.584450672375181) translate(106.8125 -6.592499999999999) rotate(-30) translate(-106.8125 6.592499999999999)"
      fill="white" stroke="black" stroke-width="2"/>
    <circle 
      cx="106.77042839750011" cy="-12.585331327624816"
      r="15" transform="translate(106.77042839750011 -6.585331327624816) scale(0.00001 -0.00001) translate(-106.77042839750011 6.585331327624816) translate(106.8125 -6.592499999999999) rotate(-30) translate(-106.8125 6.592499999999999)"
      fill="white" stroke="black" stroke-width="2"/>
    <circle 
      cx="106.75860570495962" cy="-12.567955042080381"
      r="15" transform="translate(106.75860570495962 -6.567955042080382) scale(0.00001 -0.00001) translate(-106.75860570495962 6.567955042080382) translate(106.8125 -6.592499999999999) rotate(-30) translate(-106.8125 6.592499999999999)"
      fill="white" stroke="black" stroke-width="2"/>
    <circle 
      cx="106.75513014001324" cy="-12.568920317835172"
      r="15" transform="translate(106.75513014001324 -6.568920317835172) scale(0.00001 -0.00001) translate(-106.75513014001324 6.568920317835172) translate(106.8125 -6.592499999999999) rotate(-30) translate(-106.8125 6.592499999999999)"
      fill="white" stroke="none"/>
    <circle 
      cx="106.7521402950404" cy="-12.574066957919612"
      r="15" transform="translate(106.7521402950404 -6.574066957919611) scale(0.00001 -0.00001) translate(-106.7521402950404 6.574066957919611) translate(106.8125 -6.592499999999999) rotate(-30) translate(-106.8125 6.592499999999999)"
      fill="white" stroke="none"/>
    <circle 
      cx="106.77177560249989" cy="-12.58445067237518"
      r="15" transform="translate(106.77177560249989 -6.584450672375181) scale(0.00001 -0.00001) translate(-106.77177560249989 6.584450672375181) translate(106.8125 -6.592499999999999) rotate(-30) translate(-106.8125 6.592499999999999)"
      fill="white" stroke="none"/>
    <circle 
      cx="106.77042839750011" cy="-12.585331327624816"
      r="15" transform="translate(106.77042839750011 -6.585331327624816) scale(0.00001 -0.00001) translate(-106.77042839750011 6.585331327624816) translate(106.8125 -6.592499999999999) rotate(-30) translate(-106.8125 6.592499999999999)"
      fill="white" stroke="none"/>
    <circle 
      cx="106.75860570495962" cy="-12.567955042080381"
      r="15" transform="translate(106.75860570495962 -6.567955042080382) scale(0.00001 -0.00001) translate(-106.75860570495962 6.567955042080382) translate(106.8125 -6.592499999999999) rotate(-30) translate(-106.8125 6.592499999999999)"
      fill="white" stroke="none"/>
    <text x="106.75513014001324" y="-6.568920317835172" fill="black" text-anchor="middle" transform="translate(106.75513014001324 -6.568920317835172) scale(0.00001 -0.00001) translate(-106.75513014001324 6.568920317835172) translate(106.8125 -6.592499999999999) rotate(-30) translate(-106.8125 6.592499999999999)">15</text>
    <text x="106.7521402950404" y="-6.574066957919611" fill="black" text-anchor="middle" transform="translate(106.7521402950404 -6.574066957919611) scale(0.00001 -0.00001) translate(-106.7521402950404 6.574066957919611) translate(106.8125 -6.592499999999999) rotate(-30) translate(-106.8125 6.592499999999999)">15</text>
    <text x="106.77177560249989" y="-6.584450672375181" fill="black" text-anchor="middle" transform="translate(106.77177560249989 -6.584450672375181) scale(0.00001 -0.00001) translate(-106.77177560249989 6.584450672375181) translate(106.8125 -6.592499999999999) rotate(-30) translate(-106.8125 6.592499999999999)">15</text>
    <text x="106.77042839750011" y="-6.585331327624816" fill="black" text-anchor="middle" transform="translate(106.77042839750011 -6.585331327624816) scale(0.00001 -0.00001) translate(-106.77042839750011 6.585331327624816) translate(106.8125 -6.592499999999999) rotate(-30) translate(-106.8125 6.592499999999999)">15</text>
    <text x="106.75860570495962" y="-6.567955042080382" fill="black" text-anchor="middle" transform="translate(106.75860570495962 -6.567955042080382) scale(0.00001 -0.00001) translate(-106.75860570495962 6.567955042080382) translate(106.8125 -6.592499999999999) rotate(-30) translate(-106.8125 6.592499999999999)">15</text>
    <line x1="106.756194" y1="-6.570302" x2="106.754987" y2="-6.56906" style="stroke:rgb(255,0,0);stroke-width:.00002" />
    <line x1="106.754987" y1="-6.56906" x2="106.751821" y2="-6.565829" style="stroke:rgb(255,0,0);stroke-width:.00002" />
    <line x1="106.751821" y1="-6.565829" x2="106.749525" y2="-6.561011" style="stroke:rgb(255,0,0);stroke-width:.00002" />
    <line x1="106.749525" y1="-6.561011" x2="106.749246" y2="-6.559668" style="stroke:rgb(255,0,0);stroke-width:.00002" />
    <line x1="106.749246" y1="-6.559668" x2="106.750491" y2="-6.556833" style="stroke:rgb(255,0,0);stroke-width:.00002" />
    <line x1="106.750491" y1="-6.556833" x2="106.750298" y2="-6.556172" style="stroke:rgb(255,0,0);stroke-width:.00002" />
    <line x1="106.750298" y1="-6.556172" x2="106.748259" y2="-6.555981" style="stroke:rgb(255,0,0);stroke-width:.00002" />
    <line x1="106.748259" y1="-6.555981" x2="106.748195" y2="-6.555512" style="stroke:rgb(255,0,0);stroke-width:.00002" />
    <line x1="106.748195" y1="-6.555512" x2="106.745191" y2="-6.555256" style="stroke:rgb(255,0,0);stroke-width:.00002" />
    <line x1="106.745191" y1="-6.555256" x2="106.745126" y2="-6.552783" style="stroke:rgb(255,0,0);stroke-width:.00002" />
    <line x1="106.745126" y1="-6.552783" x2="106.745427" y2="-6.552101" style="stroke:rgb(255,0,0);stroke-width:.00002" />
    <line x1="106.745427" y1="-6.552101" x2="106.745877" y2="-6.550566" style="stroke:rgb(255,0,0);stroke-width:.00002" />
    <line x1="106.745877" y1="-6.550566" x2="106.746328" y2="-6.550246" style="stroke:rgb(255,0,0);stroke-width:.00002" />
    <line x1="106.746328" y1="-6.550246" x2="106.746693" y2="-6.549052" style="stroke:rgb(255,0,0);stroke-width:.00002" />
    <line x1="106.746693" y1="-6.549052" x2="106.74665" y2="-6.548136" style="stroke:rgb(255,0,0);stroke-width:.00002" />
    <line x1="106.74665" y1="-6.548136" x2="106.734634" y2="-6.54383" style="stroke:rgb(255,0,0);stroke-width:.00002" />
    <line x1="106.734634" y1="-6.54383" x2="106.728604" y2="-6.543531" style="stroke:rgb(255,0,0);stroke-width:.00002" />
    <line x1="106.728604" y1="-6.543531" x2="106.728583" y2="-6.545194" style="stroke:rgb(255,0,0);stroke-width:.00002" />
    <line x1="106.728583" y1="-6.545194" x2="106.730879" y2="-6.5453" style="stroke:rgb(255,0,0);stroke-width:.00002" />
    <line x1="106.730879" y1="-6.5453" x2="106.732515" y2="-6.547608" style="stroke:rgb(255,0,0);stroke-width:.00002" />
    <line x1="106.732515" y1="-6.547608" x2="106.731774" y2="-6.55104" style="stroke:rgb(255,0,0);stroke-width:.00002" />
    <line x1="106.731774" y1="-6.55104" x2="106.745427" y2="-6.552101" style="stroke:rgb(255,0,0);stroke-width:.00002" />
    <line x1="106.745427" y1="-6.552101" x2="106.745126" y2="-6.552783" style="stroke:rgb(255,0,0);stroke-width:.00002" />
    <line x1="106.745126" y1="-6.552783" x2="106.745191" y2="-6.555256" style="stroke:rgb(255,0,0);stroke-width:.00002" />
    <line x1="106.745191" y1="-6.555256" x2="106.748195" y2="-6.555512" style="stroke:rgb(255,0,0);stroke-width:.00002" />
    <line x1="106.748195" y1="-6.555512" x2="106.748259" y2="-6.555981" style="stroke:rgb(255,0,0);stroke-width:.00002" />
    <line x1="106.748259" y1="-6.555981" x2="106.750298" y2="-6.556172" style="stroke:rgb(255,0,0);stroke-width:.00002" />
    <line x1="106.750298" y1="-6.556172" x2="106.750491" y2="-6.556833" style="stroke:rgb(255,0,0);stroke-width:.00002" />
    <line x1="106.750491" y1="-6.556833" x2="106.749246" y2="-6.559668" style="stroke:rgb(255,0,0);stroke-width:.00002" />
    <line x1="106.749246" y1="-6.559668" x2="106.749525" y2="-6.561011" style="stroke:rgb(255,0,0);stroke-width:.00002" />
    <line x1="106.749525" y1="-6.561011" x2="106.751821" y2="-6.565829" style="stroke:rgb(255,0,0);stroke-width:.00002" />
    <line x1="106.751821" y1="-6.565829" x2="106.754987" y2="-6.56906" style="stroke:rgb(255,0,0);stroke-width:.00002" />
    <line x1="106.754987" y1="-6.56906" x2="106.756194" y2="-6.570302" style="stroke:rgb(255,0,0);stroke-width:.00002" />
    <line x1="106.756194" y1="-6.570302" x2="106.755373" y2="-6.571011" style="stroke:rgb(255,0,0);stroke-width:.00002" />
    <line x1="106.755373" y1="-6.571011" x2="106.751377" y2="-6.573609" style="stroke:rgb(255,0,0);stroke-width:.00002" />
    <line x1="106.751377" y1="-6.573609" x2="106.753317" y2="-6.576235" style="stroke:rgb(255,0,0);stroke-width:.00002" />
    <line x1="106.753317" y1="-6.576235" x2="106.763566" y2="-6.580519" style="stroke:rgb(255,0,0);stroke-width:.00002" />
    <line x1="106.763566" y1="-6.580519" x2="106.767319" y2="-6.580286" style="stroke:rgb(255,0,0);stroke-width:.00002" />
    <line x1="106.767319" y1="-6.580286" x2="106.771102" y2="-6.584891" style="stroke:rgb(255,0,0);stroke-width:.00002" />
    <line x1="106.771102" y1="-6.584891" x2="106.774363" y2="-6.583782" style="stroke:rgb(255,0,0);stroke-width:.00002" />
    <line x1="106.774363" y1="-6.583782" x2="106.77711" y2="-6.583931" style="stroke:rgb(255,0,0);stroke-width:.00002" />
    <line x1="106.77711" y1="-6.583931" x2="106.778118" y2="-6.582887" style="stroke:rgb(255,0,0);stroke-width:.00002" />
    <line x1="106.778118" y1="-6.582887" x2="106.777153" y2="-6.581821" style="stroke:rgb(255,0,0);stroke-width:.00002" />
    <line x1="106.777153" y1="-6.581821" x2="106.777367" y2="-6.581309" style="stroke:rgb(255,0,0);stroke-width:.00002" />
    <line x1="106.777367" y1="-6.581309" x2="106.78477" y2="-6.587896" style="stroke:rgb(255,0,0);stroke-width:.00002" />
    <line x1="106.78477" y1="-6.587896" x2="106.78602" y2="-6.590204" style="stroke:rgb(255,0,0);stroke-width:.00002" />
    <line x1="106.78602" y1="-6.590204" x2="106.786122" y2="-6.590305" style="stroke:rgb(255,0,0);stroke-width:.00002" />
    <line x1="106.786122" y1="-6.590305" x2="106.787731" y2="-6.589474" style="stroke:rgb(255,0,0);stroke-width:.00002" />
    <line x1="106.787731" y1="-6.589474" x2="106.787774" y2="-6.592841" style="stroke:rgb(255,0,0);stroke-width:.00002" />
    <line x1="106.787774" y1="-6.592841" x2="106.787608" y2="-6.592495" style="stroke:rgb(255,0,0);stroke-width:.00002" />
    <line x1="106.787608" y1="-6.592495" x2="106.786514" y2="-6.593028" style="stroke:rgb(255,0,0);stroke-width:.00002" />
    <line x1="106.786514" y1="-6.593028" x2="106.786009" y2="-6.591259" style="stroke:rgb(255,0,0);stroke-width:.00002" />
    <line x1="106.786009" y1="-6.591259" x2="106.785194" y2="-6.590971" style="stroke:rgb(255,0,0);stroke-width:.00002" />
    <line x1="106.785194" y1="-6.590971" x2="106.785462" y2="-6.590449" style="stroke:rgb(255,0,0);stroke-width:.00002" />
    <line x1="106.785462" y1="-6.590449" x2="106.78602" y2="-6.590204" style="stroke:rgb(255,0,0);stroke-width:.00002" />
    <line x1="106.78602" y1="-6.590204" x2="106.78477" y2="-6.587896" style="stroke:rgb(255,0,0);stroke-width:.00002" />
    <line x1="106.78477" y1="-6.587896" x2="106.777367" y2="-6.581309" style="stroke:rgb(255,0,0);stroke-width:.00002" />
    <line x1="106.777367" y1="-6.581309" x2="106.777153" y2="-6.581821" style="stroke:rgb(255,0,0);stroke-width:.00002" />
    <line x1="106.777153" y1="-6.581821" x2="106.778118" y2="-6.582887" style="stroke:rgb(255,0,0);stroke-width:.00002" />
    <line x1="106.778118" y1="-6.582887" x2="106.77711" y2="-6.583931" style="stroke:rgb(255,0,0);stroke-width:.00002" />
    <line x1="106.77711" y1="-6.583931" x2="106.774363" y2="-6.583782" style="stroke:rgb(255,0,0);stroke-width:.00002" />
    <line x1="106.774363" y1="-6.583782" x2="106.771102" y2="-6.584891" style="stroke:rgb(255,0,0);stroke-width:.00002" />
    <line x1="106.771102" y1="-6.584891" x2="106.767319" y2="-6.580286" style="stroke:rgb(255,0,0);stroke-width:.00002" />
    <line x1="106.767319" y1="-6.580286" x2="106.763566" y2="-6.580519" style="stroke:rgb(255,0,0);stroke-width:.00002" />
    <line x1="106.763566" y1="-6.580519" x2="106.753317" y2="-6.576235" style="stroke:rgb(255,0,0);stroke-width:.00002" />
    <line x1="106.753317" y1="-6.576235" x2="106.751377" y2="-6.573609" style="stroke:rgb(255,0,0);stroke-width:.00002" />
    <line x1="106.751377" y1="-6.573609" x2="106.755373" y2="-6.571011" style="stroke:rgb(255,0,0);stroke-width:.00002" />
    <line x1="106.755373" y1="-6.571011" x2="106.756194" y2="-6.570302" style="stroke:rgb(255,0,0);stroke-width:.00002" />
  </g>
</svg>
