<svg width="2500" height="1500" xmlns="http://www.w3.org/2000/svg" xmlns:xlink="http://www.w3.org/1999/xlink" >
  <path d="M626.5680982813393 516.1506837981975 L676.6228498906202 523.2527955668841 L691.3766774774643 483.90925533527286 L738.5106788922968 457.7236989937703 L756.9352101968718 466.0984859504656 L792.8906139055414 447.65905355980556 L809.0076021058934 454.239073944047 L822.512206907362 464.52183061660196 L861.14960345121 526.3416650864604 L871.202695279436 589.1734890125531 L858.3459856902209 607.172882437441 L771.8584466714873 625.8270575199031 L770.0840959846289 626.7142328632523 L780.51363783878 646.4144785877155 L822.0100882859072 696.8030255593336 L882.0075287131601 750.8007219437627 L938.9922157298258 819.7821851743356 L1023.672644005913 894.3816100843425 L1020.0581978717338 891.799862845588 L1023.76620071432 890.8728621349147 L996.4930498670554 816.6292848286647 L1047.3453313066727 822.9858200085903 L1061.329473724797 833.8623752227223 L1073.7500000001178 852.9230769230865 L1059.1705262753949 835.9837786234546 L1046.1546686934753 825.8603338375823 L1002.6818656157843 820.4262334528576 L1028.5082251420617 890.7313232746293 L1030.900281539928 895.515436070282 L1024.2499999999666 902.1657176101371 L1011.3525015459857 889.2682191560762 L1001.5182401179601 882.2437467073761 L971.6314958106409 892.205994809807 L970.1068806938196 933.3706029602793 L936.3767204948203 937.9701702601938 L933.6936945208407 948.7022741558192 L921.0661654270069 957.1206268849705 L911.8643468081444 945.6183536113924 L907.4614038568996 905.9918670499753 L897.384173780793 901.6730541602078 L883.4596612653911 864.0768703686706 L845.0606479913603 824.0778982081551 L834.3218994225765 803.5766509406249 L807.0248604264663 763.6809785617979 L778.7707144144207 750.226623317951 L724.985656330972 703.9117121902881 L699.2076454136509 695.3190418845899 L708.1769989408571 664.8232398924912 L723.4498448039517 645.3850724300801 L692.5041930438169 583.4937689095441 L675.1908653155425 533.7179516903687 Z" stroke="silver" stroke-width="0.5" fill="none" />
</svg>
