<svg width="1049.9999999998977" height="1849.9999999999961" xmlns="http://www.w3.org/2000/svg" xmlns:xlink="http://www.w3.org/1999/xlink" >
  <g transform="translate(524.9999999999488 924.9999999999981) rotate(30) scale(10000 -10000) translate(-106.8125 6.592499999999999)">
    <path d="M106.76 -6.5 L106.865 -6.5 L106.865 -6.685 L106.76 -6.685 Z" fill="none" stroke="black" stroke-width="0.001" transform="translate(106.8125 -6.592499999999999) rotate(30) translate(-106.8125 6.592499999999999)" />
    <path d="M106.794769 -6.588586 L106.794469 -6.590637 L106.793267 -6.590611 L106.793192 -6.591027 L106.797097 -6.590952 L106.796967 -6.588653 L106.7968 -6.5817 L106.796486 -6.573345 L106.7989 -6.569892 L106.799029 -6.56921 L106.801904 -6.565255 L106.801968 -6.561887 L106.797108 -6.562889 L106.787495 -6.560033 L106.778477 -6.556041 L106.776396 -6.55408 L106.769948 -6.537281 L106.767781 -6.53387 L106.75945 -6.520573 L106.767781 -6.53387 L106.769948 -6.537281 L106.776396 -6.55408 L106.778477 -6.556041 L106.787495 -6.560033 L106.797108 -6.562889 L106.801968 -6.561887 L106.802644 -6.561578 L106.801968 -6.561887 L106.801904 -6.565255 L106.799029 -6.56921 L106.7989 -6.569892 L106.796486 -6.573345 L106.7968 -6.5817 L106.796967 -6.588653 Z" stroke="lightgrey" stroke-width="0.0002" fill="none" />



    <line x1="106.796967" y1="-6.588653" x2="106.794769" y2="-6.588586" style="stroke:rgb(255,0,0);stroke-width:.00002" />
    <line x1="106.796967" y1="-6.588653" x2="106.794769" y2="-6.588586" style="stroke:rgb(0,0,0);stroke-width:.00002" />
    <circle cx="106.796967" cy="-6.588653" fill="rgb(255,0,0)" r=".0001" />
    <text x="106.796967" y="-6.588653" stroke="rgb(0,0,0)" transform="translate(106.796967 -6.588653),scale(0.00001 -0.00001),translate(-106.796967 6.588653),translate(106.8125 -6.592499999999999),rotate(-30),translate(-106.8125 6.592499999999999)" >sudirman-sawojajar</text>
    <line x1="106.794769" y1="-6.588586" x2="106.794469" y2="-6.590637" style="stroke:rgb(255,0,0);stroke-width:.00002" />
    <line x1="106.794769" y1="-6.588586" x2="106.794469" y2="-6.590637" style="stroke:rgb(0,0,0);stroke-width:.00002" />
    <circle cx="106.794769" cy="-6.588586" fill="rgb(255,0,0)" r=".0001" />
    <text x="106.794769" y="-6.588586" stroke="rgb(0,0,0)" transform="translate(106.794769 -6.588586),scale(0.00001 -0.00001),translate(-106.794769 6.588586),translate(106.8125 -6.592499999999999),rotate(-30),translate(-106.8125 6.592499999999999)" >sawojajar-cibalok</text>
    <line x1="106.794469" y1="-6.590637" x2="106.793267" y2="-6.590611" style="stroke:rgb(255,0,0);stroke-width:.00002" />
    <line x1="106.794469" y1="-6.590637" x2="106.793267" y2="-6.590611" style="stroke:rgb(0,0,0);stroke-width:.00002" />
    <circle cx="106.794469" cy="-6.590637" fill="rgb(255,0,0)" r=".0001" />
    <text x="106.794469" y="-6.590637" stroke="rgb(0,0,0)" transform="translate(106.794469 -6.590637),scale(0.00001 -0.00001),translate(-106.794469 6.590637),translate(106.8125 -6.592499999999999),rotate(-30),translate(-106.8125 6.592499999999999)" >cibalok-pabaton</text>
    <line x1="106.793267" y1="-6.590611" x2="106.793192" y2="-6.591027" style="stroke:rgb(255,0,0);stroke-width:.00002" />
    <line x1="106.793267" y1="-6.590611" x2="106.793192" y2="-6.591027" style="stroke:rgb(0,0,0);stroke-width:.00002" />
    <circle cx="106.793267" cy="-6.590611" fill="rgb(255,0,0)" r=".0001" />
    <text x="106.793267" y="-6.590611" stroke="rgb(0,0,0)" transform="translate(106.793267 -6.590611),scale(0.00001 -0.00001),translate(-106.793267 6.590611),translate(106.8125 -6.592499999999999),rotate(-30),translate(-106.8125 6.592499999999999)" >pabaton-turnsouth</text>
    <line x1="106.793192" y1="-6.591027" x2="106.797097" y2="-6.590952" style="stroke:rgb(255,0,0);stroke-width:.00002" />
    <line x1="106.793192" y1="-6.591027" x2="106.797097" y2="-6.590952" style="stroke:rgb(0,0,0);stroke-width:.00002" />
    <circle cx="106.793192" cy="-6.591027" fill="rgb(255,0,0)" r=".0001" />
    <text x="106.793192" y="-6.591027" stroke="rgb(0,0,0)" transform="translate(106.793192 -6.591027),scale(0.00001 -0.00001),translate(-106.793192 6.591027),translate(106.8125 -6.592499999999999),rotate(-30),translate(-106.8125 6.592499999999999)" >pabaton-ggbaru</text>
    <line x1="106.797097" y1="-6.590952" x2="106.796967" y2="-6.588653" style="stroke:rgb(255,0,0);stroke-width:.00002" />
    <line x1="106.797097" y1="-6.590952" x2="106.796967" y2="-6.588653" style="stroke:rgb(0,0,0);stroke-width:.00002" />
    <circle cx="106.797097" cy="-6.590952" fill="rgb(255,0,0)" r=".0001" />
    <text x="106.797097" y="-6.590952" stroke="rgb(0,0,0)" transform="translate(106.797097 -6.590952),scale(0.00001 -0.00001),translate(-106.797097 6.590952),translate(106.8125 -6.592499999999999),rotate(-30),translate(-106.8125 6.592499999999999)" >ggbaru-sudirman</text>
    <line x1="106.796967" y1="-6.588653" x2="106.7968" y2="-6.5817" style="stroke:rgb(255,0,0);stroke-width:.00002" />
    <line x1="106.796967" y1="-6.588653" x2="106.7968" y2="-6.5817" style="stroke:rgb(0,0,0);stroke-width:.00002" />
    <circle cx="106.796967" cy="-6.588653" fill="rgb(255,0,0)" r=".0001" />
    <text x="106.796967" y="-6.588653" stroke="rgb(0,0,0)" transform="translate(106.796967 -6.588653),scale(0.00001 -0.00001),translate(-106.796967 6.588653),translate(106.8125 -6.592499999999999),rotate(-30),translate(-106.8125 6.592499999999999)" >sudirman-sawojajar</text>
    <line x1="106.7968" y1="-6.5817" x2="106.796486" y2="-6.573345" style="stroke:rgb(255,0,0);stroke-width:.00002" />
    <line x1="106.7968" y1="-6.5817" x2="106.796486" y2="-6.573345" style="stroke:rgb(0,0,0);stroke-width:.00002" />
    <circle cx="106.7968" cy="-6.5817" fill="rgb(255,0,0)" r=".0001" />
    <text x="106.7968" y="-6.5817" stroke="rgb(0,0,0)" transform="translate(106.7968 -6.5817),scale(0.00001 -0.00001),translate(-106.7968 6.5817),translate(106.8125 -6.592499999999999),rotate(-30),translate(-106.8125 6.592499999999999)" >sudirman-airmancur</text>
    <line x1="106.796486" y1="-6.573345" x2="106.7989" y2="-6.569892" style="stroke:rgb(255,0,0);stroke-width:.00002" />
    <line x1="106.796486" y1="-6.573345" x2="106.7989" y2="-6.569892" style="stroke:rgb(0,0,0);stroke-width:.00002" />
    <circle cx="106.796486" cy="-6.573345" fill="rgb(255,0,0)" r=".0001" />
    <text x="106.796486" y="-6.573345" stroke="rgb(0,0,0)" transform="translate(106.796486 -6.573345),scale(0.00001 -0.00001),translate(-106.796486 6.573345),translate(106.8125 -6.592499999999999),rotate(-30),translate(-106.8125 6.592499999999999)" >pemuda-hewan</text>
    <line x1="106.7989" y1="-6.569892" x2="106.799029" y2="-6.56921" style="stroke:rgb(255,0,0);stroke-width:.00002" />
    <line x1="106.7989" y1="-6.569892" x2="106.799029" y2="-6.56921" style="stroke:rgb(0,0,0);stroke-width:.00002" />
    <circle cx="106.7989" cy="-6.569892" fill="rgb(255,0,0)" r=".0001" />
    <text x="106.7989" y="-6.569892" stroke="rgb(0,0,0)" transform="translate(106.7989 -6.569892),scale(0.00001 -0.00001),translate(-106.7989 6.569892),translate(106.8125 -6.592499999999999),rotate(-30),translate(-106.8125 6.592499999999999)" >pemuda-pedes</text>
    <line x1="106.799029" y1="-6.56921" x2="106.801904" y2="-6.565255" style="stroke:rgb(255,0,0);stroke-width:.00002" />
    <line x1="106.799029" y1="-6.56921" x2="106.801904" y2="-6.565255" style="stroke:rgb(0,0,0);stroke-width:.00002" />
    <circle cx="106.799029" cy="-6.56921" fill="rgb(255,0,0)" r=".0001" />
    <text x="106.799029" y="-6.56921" stroke="rgb(0,0,0)" transform="translate(106.799029 -6.56921),scale(0.00001 -0.00001),translate(-106.799029 6.56921),translate(106.8125 -6.592499999999999),rotate(-30),translate(-106.8125 6.592499999999999)" >pedes-bendrightatstart</text>
    <line x1="106.801904" y1="-6.565255" x2="106.801968" y2="-6.561887" style="stroke:rgb(255,0,0);stroke-width:.00002" />
    <line x1="106.801904" y1="-6.565255" x2="106.801968" y2="-6.561887" style="stroke:rgb(0,0,0);stroke-width:.00002" />
    <circle cx="106.801904" cy="-6.565255" fill="rgb(255,0,0)" r=".0001" />
    <text x="106.801904" y="-6.565255" stroke="rgb(0,0,0)" transform="translate(106.801904 -6.565255),scale(0.00001 -0.00001),translate(-106.801904 6.565255),translate(106.8125 -6.592499999999999),rotate(-30),translate(-106.8125 6.592499999999999)" >pedes-sungai</text>
    <line x1="106.801968" y1="-6.561887" x2="106.797108" y2="-6.562889" style="stroke:rgb(255,0,0);stroke-width:.00002" />
    <line x1="106.801968" y1="-6.561887" x2="106.797108" y2="-6.562889" style="stroke:rgb(0,0,0);stroke-width:.00002" />
    <circle cx="106.801968" cy="-6.561887" fill="rgb(255,0,0)" r=".0001" />
    <text x="106.801968" y="-6.561887" stroke="rgb(0,0,0)" transform="translate(106.801968 -6.561887),scale(0.00001 -0.00001),translate(-106.801968 6.561887),translate(106.8125 -6.592499999999999),rotate(-30),translate(-106.8125 6.592499999999999)" >pedes-iskandar</text>
    <line x1="106.797108" y1="-6.562889" x2="106.787495" y2="-6.560033" style="stroke:rgb(255,0,0);stroke-width:.00002" />
    <line x1="106.797108" y1="-6.562889" x2="106.787495" y2="-6.560033" style="stroke:rgb(0,0,0);stroke-width:.00002" />
    <circle cx="106.797108" cy="-6.562889" fill="rgb(255,0,0)" r=".0001" />
    <text x="106.797108" y="-6.562889" stroke="rgb(0,0,0)" transform="translate(106.797108 -6.562889),scale(0.00001 -0.00001),translate(-106.797108 6.562889),translate(106.8125 -6.592499999999999),rotate(-30),translate(-106.8125 6.592499999999999)" >iskandar-majujaya</text>
    <line x1="106.787495" y1="-6.560033" x2="106.778477" y2="-6.556041" style="stroke:rgb(255,0,0);stroke-width:.00002" />
    <line x1="106.787495" y1="-6.560033" x2="106.778477" y2="-6.556041" style="stroke:rgb(0,0,0);stroke-width:.00002" />
    <circle cx="106.787495" cy="-6.560033" fill="rgb(255,0,0)" r=".0001" />
    <text x="106.787495" y="-6.560033" stroke="rgb(0,0,0)" transform="translate(106.787495 -6.560033),scale(0.00001 -0.00001),translate(-106.787495 6.560033),translate(106.8125 -6.592499999999999),rotate(-30),translate(-106.8125 6.592499999999999)" >iskandar-20-rejions</text>
    <line x1="106.778477" y1="-6.556041" x2="106.776396" y2="-6.55408" style="stroke:rgb(255,0,0);stroke-width:.00002" />
    <line x1="106.778477" y1="-6.556041" x2="106.776396" y2="-6.55408" style="stroke:rgb(0,0,0);stroke-width:.00002" />
    <circle cx="106.778477" cy="-6.556041" fill="rgb(255,0,0)" r=".0001" />
    <text x="106.778477" y="-6.556041" stroke="rgb(0,0,0)" transform="translate(106.778477 -6.556041),scale(0.00001 -0.00001),translate(-106.778477 6.556041),translate(106.8125 -6.592499999999999),rotate(-30),translate(-106.8125 6.592499999999999)" >iskandar-ciampea-Y</text>
    <line x1="106.776396" y1="-6.55408" x2="106.769948" y2="-6.537281" style="stroke:rgb(255,0,0);stroke-width:.00002" />
    <line x1="106.776396" y1="-6.55408" x2="106.769948" y2="-6.537281" style="stroke:rgb(0,0,0);stroke-width:.00002" />
    <circle cx="106.776396" cy="-6.55408" fill="rgb(255,0,0)" r=".0001" />
    <text x="106.776396" y="-6.55408" stroke="rgb(0,0,0)" transform="translate(106.776396 -6.55408),scale(0.00001 -0.00001),translate(-106.776396 6.55408),translate(106.8125 -6.592499999999999),rotate(-30),translate(-106.8125 6.592499999999999)" >iskandar-bendright</text>
    <line x1="106.769948" y1="-6.537281" x2="106.767781" y2="-6.53387" style="stroke:rgb(255,0,0);stroke-width:.00002" />
    <line x1="106.769948" y1="-6.537281" x2="106.767781" y2="-6.53387" style="stroke:rgb(0,0,0);stroke-width:.00002" />
    <circle cx="106.769948" cy="-6.537281" fill="rgb(255,0,0)" r=".0001" />
    <text x="106.769948" y="-6.537281" stroke="rgb(0,0,0)" transform="translate(106.769948 -6.537281),scale(0.00001 -0.00001),translate(-106.769948 6.537281),translate(106.8125 -6.592499999999999),rotate(-30),translate(-106.8125 6.592499999999999)" >iskandar-kencana</text>
    <line x1="106.767781" y1="-6.53387" x2="106.75945" y2="-6.520573" style="stroke:rgb(255,0,0);stroke-width:.00002" />
    <line x1="106.767781" y1="-6.53387" x2="106.75945" y2="-6.520573" style="stroke:rgb(0,0,0);stroke-width:.00002" />
    <circle cx="106.767781" cy="-6.53387" fill="rgb(255,0,0)" r=".0001" />
    <text x="106.767781" y="-6.53387" stroke="rgb(0,0,0)" transform="translate(106.767781 -6.53387),scale(0.00001 -0.00001),translate(-106.767781 6.53387),translate(106.8125 -6.592499999999999),rotate(-30),translate(-106.8125 6.592499999999999)" >iskandar-19-turns-N</text>
    <line x1="106.75945" y1="-6.520573" x2="106.767781" y2="-6.53387" style="stroke:rgb(255,0,0);stroke-width:.00002" />
    <line x1="106.75945" y1="-6.520573" x2="106.767781" y2="-6.53387" style="stroke:rgb(0,0,0);stroke-width:.00002" />
    <circle cx="106.75945" cy="-6.520573" fill="rgb(255,0,0)" r=".0001" />
    <text x="106.75945" y="-6.520573" stroke="rgb(0,0,0)" transform="translate(106.75945 -6.520573),scale(0.00001 -0.00001),translate(-106.75945 6.520573),translate(106.8125 -6.592499999999999),rotate(-30),translate(-106.8125 6.592499999999999)" >iskandar-tariganta</text>
    <line x1="106.767781" y1="-6.53387" x2="106.769948" y2="-6.537281" style="stroke:rgb(255,0,0);stroke-width:.00002" />
    <line x1="106.767781" y1="-6.53387" x2="106.769948" y2="-6.537281" style="stroke:rgb(0,0,0);stroke-width:.00002" />
    <circle cx="106.767781" cy="-6.53387" fill="rgb(255,0,0)" r=".0001" />
    <text x="106.767781" y="-6.53387" stroke="rgb(0,0,0)" transform="translate(106.767781 -6.53387),scale(0.00001 -0.00001),translate(-106.767781 6.53387),translate(106.8125 -6.592499999999999),rotate(-30),translate(-106.8125 6.592499999999999)" >iskandar-19-turns-N</text>
    <line x1="106.769948" y1="-6.537281" x2="106.776396" y2="-6.55408" style="stroke:rgb(255,0,0);stroke-width:.00002" />
    <line x1="106.769948" y1="-6.537281" x2="106.776396" y2="-6.55408" style="stroke:rgb(0,0,0);stroke-width:.00002" />
    <circle cx="106.769948" cy="-6.537281" fill="rgb(255,0,0)" r=".0001" />
    <text x="106.769948" y="-6.537281" stroke="rgb(0,0,0)" transform="translate(106.769948 -6.537281),scale(0.00001 -0.00001),translate(-106.769948 6.537281),translate(106.8125 -6.592499999999999),rotate(-30),translate(-106.8125 6.592499999999999)" >iskandar-kencana</text>
    <line x1="106.776396" y1="-6.55408" x2="106.778477" y2="-6.556041" style="stroke:rgb(255,0,0);stroke-width:.00002" />
    <line x1="106.776396" y1="-6.55408" x2="106.778477" y2="-6.556041" style="stroke:rgb(0,0,0);stroke-width:.00002" />
    <circle cx="106.776396" cy="-6.55408" fill="rgb(255,0,0)" r=".0001" />
    <text x="106.776396" y="-6.55408" stroke="rgb(0,0,0)" transform="translate(106.776396 -6.55408),scale(0.00001 -0.00001),translate(-106.776396 6.55408),translate(106.8125 -6.592499999999999),rotate(-30),translate(-106.8125 6.592499999999999)" >iskandar-bendright</text>
    <line x1="106.778477" y1="-6.556041" x2="106.787495" y2="-6.560033" style="stroke:rgb(255,0,0);stroke-width:.00002" />
    <line x1="106.778477" y1="-6.556041" x2="106.787495" y2="-6.560033" style="stroke:rgb(0,0,0);stroke-width:.00002" />
    <circle cx="106.778477" cy="-6.556041" fill="rgb(255,0,0)" r=".0001" />
    <text x="106.778477" y="-6.556041" stroke="rgb(0,0,0)" transform="translate(106.778477 -6.556041),scale(0.00001 -0.00001),translate(-106.778477 6.556041),translate(106.8125 -6.592499999999999),rotate(-30),translate(-106.8125 6.592499999999999)" >iskandar-ciampea-Y</text>
    <line x1="106.787495" y1="-6.560033" x2="106.797108" y2="-6.562889" style="stroke:rgb(255,0,0);stroke-width:.00002" />
    <line x1="106.787495" y1="-6.560033" x2="106.797108" y2="-6.562889" style="stroke:rgb(0,0,0);stroke-width:.00002" />
    <circle cx="106.787495" cy="-6.560033" fill="rgb(255,0,0)" r=".0001" />
    <text x="106.787495" y="-6.560033" stroke="rgb(0,0,0)" transform="translate(106.787495 -6.560033),scale(0.00001 -0.00001),translate(-106.787495 6.560033),translate(106.8125 -6.592499999999999),rotate(-30),translate(-106.8125 6.592499999999999)" >iskandar-20-rejions</text>
    <line x1="106.797108" y1="-6.562889" x2="106.801968" y2="-6.561887" style="stroke:rgb(255,0,0);stroke-width:.00002" />
    <line x1="106.797108" y1="-6.562889" x2="106.801968" y2="-6.561887" style="stroke:rgb(0,0,0);stroke-width:.00002" />
    <circle cx="106.797108" cy="-6.562889" fill="rgb(255,0,0)" r=".0001" />
    <text x="106.797108" y="-6.562889" stroke="rgb(0,0,0)" transform="translate(106.797108 -6.562889),scale(0.00001 -0.00001),translate(-106.797108 6.562889),translate(106.8125 -6.592499999999999),rotate(-30),translate(-106.8125 6.592499999999999)" >iskandar-majujaya</text>
    <line x1="106.801968" y1="-6.561887" x2="106.802644" y2="-6.561578" style="stroke:rgb(255,0,0);stroke-width:.00002" />
    <line x1="106.801968" y1="-6.561887" x2="106.802644" y2="-6.561578" style="stroke:rgb(0,0,0);stroke-width:.00002" />
    <circle cx="106.801968" cy="-6.561887" fill="rgb(255,0,0)" r=".0001" />
    <text x="106.801968" y="-6.561887" stroke="rgb(0,0,0)" transform="translate(106.801968 -6.561887),scale(0.00001 -0.00001),translate(-106.801968 6.561887),translate(106.8125 -6.592499999999999),rotate(-30),translate(-106.8125 6.592499999999999)" >pedes-iskandar</text>
    <line x1="106.802644" y1="-6.561578" x2="106.801968" y2="-6.561887" style="stroke:rgb(255,0,0);stroke-width:.00002" />
    <line x1="106.802644" y1="-6.561578" x2="106.801968" y2="-6.561887" style="stroke:rgb(0,0,0);stroke-width:.00002" />
    <circle cx="106.802644" cy="-6.561578" fill="rgb(255,0,0)" r=".0001" />
    <text x="106.802644" y="-6.561578" stroke="rgb(0,0,0)" transform="translate(106.802644 -6.561578),scale(0.00001 -0.00001),translate(-106.802644 6.561578),translate(106.8125 -6.592499999999999),rotate(-30),translate(-106.8125 6.592499999999999)" >iskandar-underloop</text>
    <line x1="106.801968" y1="-6.561887" x2="106.801904" y2="-6.565255" style="stroke:rgb(255,0,0);stroke-width:.00002" />
    <line x1="106.801968" y1="-6.561887" x2="106.801904" y2="-6.565255" style="stroke:rgb(0,0,0);stroke-width:.00002" />
    <circle cx="106.801968" cy="-6.561887" fill="rgb(255,0,0)" r=".0001" />
    <text x="106.801968" y="-6.561887" stroke="rgb(0,0,0)" transform="translate(106.801968 -6.561887),scale(0.00001 -0.00001),translate(-106.801968 6.561887),translate(106.8125 -6.592499999999999),rotate(-30),translate(-106.8125 6.592499999999999)" >pedes-iskandar</text>
    <line x1="106.801904" y1="-6.565255" x2="106.799029" y2="-6.56921" style="stroke:rgb(255,0,0);stroke-width:.00002" />
    <line x1="106.801904" y1="-6.565255" x2="106.799029" y2="-6.56921" style="stroke:rgb(0,0,0);stroke-width:.00002" />
    <circle cx="106.801904" cy="-6.565255" fill="rgb(255,0,0)" r=".0001" />
    <text x="106.801904" y="-6.565255" stroke="rgb(0,0,0)" transform="translate(106.801904 -6.565255),scale(0.00001 -0.00001),translate(-106.801904 6.565255),translate(106.8125 -6.592499999999999),rotate(-30),translate(-106.8125 6.592499999999999)" >pedes-sungai</text>
    <line x1="106.799029" y1="-6.56921" x2="106.7989" y2="-6.569892" style="stroke:rgb(255,0,0);stroke-width:.00002" />
    <line x1="106.799029" y1="-6.56921" x2="106.7989" y2="-6.569892" style="stroke:rgb(0,0,0);stroke-width:.00002" />
    <circle cx="106.799029" cy="-6.56921" fill="rgb(255,0,0)" r=".0001" />
    <text x="106.799029" y="-6.56921" stroke="rgb(0,0,0)" transform="translate(106.799029 -6.56921),scale(0.00001 -0.00001),translate(-106.799029 6.56921),translate(106.8125 -6.592499999999999),rotate(-30),translate(-106.8125 6.592499999999999)" >pedes-bendrightatstart</text>
    <line x1="106.7989" y1="-6.569892" x2="106.796486" y2="-6.573345" style="stroke:rgb(255,0,0);stroke-width:.00002" />
    <line x1="106.7989" y1="-6.569892" x2="106.796486" y2="-6.573345" style="stroke:rgb(0,0,0);stroke-width:.00002" />
    <circle cx="106.7989" cy="-6.569892" fill="rgb(255,0,0)" r=".0001" />
    <text x="106.7989" y="-6.569892" stroke="rgb(0,0,0)" transform="translate(106.7989 -6.569892),scale(0.00001 -0.00001),translate(-106.7989 6.569892),translate(106.8125 -6.592499999999999),rotate(-30),translate(-106.8125 6.592499999999999)" >pemuda-pedes</text>
    <line x1="106.796486" y1="-6.573345" x2="106.7968" y2="-6.5817" style="stroke:rgb(255,0,0);stroke-width:.00002" />
    <line x1="106.796486" y1="-6.573345" x2="106.7968" y2="-6.5817" style="stroke:rgb(0,0,0);stroke-width:.00002" />
    <circle cx="106.796486" cy="-6.573345" fill="rgb(255,0,0)" r=".0001" />
    <text x="106.796486" y="-6.573345" stroke="rgb(0,0,0)" transform="translate(106.796486 -6.573345),scale(0.00001 -0.00001),translate(-106.796486 6.573345),translate(106.8125 -6.592499999999999),rotate(-30),translate(-106.8125 6.592499999999999)" >pemuda-hewan</text>
    <line x1="106.7968" y1="-6.5817" x2="106.796967" y2="-6.588653" style="stroke:rgb(255,0,0);stroke-width:.00002" />
    <line x1="106.7968" y1="-6.5817" x2="106.796967" y2="-6.588653" style="stroke:rgb(0,0,0);stroke-width:.00002" />
    <circle cx="106.7968" cy="-6.5817" fill="rgb(255,0,0)" r=".0001" />
    <text x="106.7968" y="-6.5817" stroke="rgb(0,0,0)" transform="translate(106.7968 -6.5817),scale(0.00001 -0.00001),translate(-106.7968 6.5817),translate(106.8125 -6.592499999999999),rotate(-30),translate(-106.8125 6.592499999999999)" >sudirman-airmancur</text>
  </g>
</svg>
