<svg width="2100" height="2970" xmlns="http://www.w3.org/2000/svg" xmlns:xlink="http://www.w3.org/1999/xlink" >
  <g transform="translate(280 20) rotate(30) scale(0.5)">    <path d="M501.5680982813393 1081.535299182813 L551.6228498906202 1088.6374109514995 L566.3766774774643 1049.2938707198884 L613.5106788922968 1023.1083143783858 L631.9352101968718 1031.483101335081 L667.8906139055414 1013.043668944421 L684.0076021058934 1019.6236893286625 L697.512206907362 1029.9064460012173 L736.14960345121 1091.7262804710758 L746.202695279436 1154.5581043971686 L733.3459856902209 1172.5574978220563 L646.8584466714873 1191.2116729045185 L645.0840959846289 1192.0988482478676 L655.51363783878 1211.799093972331 L697.0100882859072 1262.1876409439492 L757.0075287131601 1316.1853373283782 L813.9922157298258 1385.166800558951 L898.672644005913 1459.766225468958 L895.0581978717338 1457.1844782302035 L898.76620071432 1456.2574775195303 L871.4930498670554 1382.0139002132803 L922.3453313066727 1388.3704353932058 L936.3294737247969 1399.246990607338 L948.7500000001177 1418.307692307702 L934.1705262753948 1401.36839400807 L921.1546686934753 1391.2449492221979 L877.6818656157843 1385.810848837473 L903.5082251420619 1456.1159386592449 L905.9002815399282 1460.9000514548975 L899.2499999999666 1467.5503329947526 L886.3525015459857 1454.6528345406916 L876.5182401179601 1447.6283620919917 L846.6314958106409 1457.5906101944224 L845.1068806938196 1498.7552183448947 L811.3767204948203 1503.3547856448092 L808.6936945208407 1514.0868895404346 L796.0661654270069 1522.505242269586 L786.8643468081444 1511.002968996008 L782.4614038568996 1471.3764824345908 L772.384173780793 1467.0576695448233 L758.4596612653911 1429.461485753286 L720.0606479913603 1389.4625135927706 L709.3218994225765 1368.9612663252403 L682.0248604264663 1329.0655939464134 L653.7707144144207 1315.6112387025664 L599.985656330972 1269.2963275749034 L574.2076454136509 1260.7036572692052 L583.1769989408571 1230.2078552771065 L598.4498448039517 1210.7696878146955 L572.7223911842856 1159.31478057519 L551.9302646956987 1099.5374169200234 Z" stroke="silver" stroke-width="0.5" fill="none" />
  </g>
</svg>
