<svg width="1049.9999999998977" height="1849.9999999999961" xmlns="http://www.w3.org/2000/svg" xmlns:xlink="http://www.w3.org/1999/xlink" >
  <g transform="translate(524.9999999999488 924.9999999999981) rotate(30) scale(10000 -10000) translate(-106.8125 6.592499999999999)">
    <path d="M106.76 -6.5 L106.865 -6.5 L106.865 -6.685 L106.76 -6.685 Z" fill="none" stroke="black" stroke-width="0.0005" transform="translate(106.8125 -6.592499999999999) rotate(30) translate(-106.8125 6.592499999999999)" />
    <path d="M106.75491542999347 -6.569129841082513 L106.75173790144864 -6.565887075849288 L106.74942954179642 -6.561043139958866 L106.74914159033813 -6.559657051039614 L106.75038481078526 -6.556826103274434 L106.75022104574136 -6.556265229212074 L106.74817064965748 -6.556073161702501 L106.74810674237858 -6.555604841174384 L106.74509338472862 -6.555348043718195 L106.74502544432761 -6.552763172769157 L106.74533287635764 -6.552066599199475 L106.74579080877878 -6.55050454082953 L106.74624233343091 -6.550184168570823 L106.74659229642633 -6.549039358114577 L106.74655324893659 -6.548207555774978 L106.73461423062255 -6.543929142587539 L106.72870268185316 -6.543636016039936 L106.72868421308966 -6.5450985662157395 L106.73093236144533 -6.545202357037037 L106.73262203697 -6.547586080209979 L106.73189591472403 -6.550949172717619 L106.74557548173172 -6.552012237289153 L106.74522655567239 -6.552802827230856 L106.7452886152714 -6.555163956281806 L106.74828325762141 -6.555419158825615 L106.74834735034251 -6.5558888382974985 L106.75037495425866 -6.556078770787926 L106.75059718921473 -6.55683989672556 L106.74935040966187 -6.559678948960389 L106.74962045820361 -6.560978860041154 L106.75190409855136 -6.565770924150707 L106.75505857000663 -6.568990158917586 L106.75633962889216 -6.570308365326735 L106.75375664752018 -6.572538978959824 L106.75195106091466 -6.573712881362506 L106.75357312500823 -6.575908520697412 L106.76363425459867 -6.5801139923693235 L106.76749828939842 -6.579874098921858 L106.77143880124994 -6.5846708361875885 L106.77434910892674 -6.583681099538222 L106.77706979477955 -6.583828672232822 L106.77798111996084 -6.582884799723639 L106.77703624441178 -6.581841030464272 L106.77732877809754 -6.581141136786189 L106.78484957809435 -6.587832952209525 L106.78610088138859 -6.5901433586120275 L106.78614070370001 -6.590182790508624 L106.7878289248851 -6.589310875154477 L106.78787977623732 -6.5932926542909795 L106.78756135715923 -6.592628961513769 L106.7864505806682 -6.593170135069268 L106.78592701137259 -6.591336087378274 L106.78505276236412 -6.59102715030534 L106.7853892666011 -6.590371720410904 L106.78588033701882 -6.590156107055453 L106.78469042190564 -6.587959047790471 L106.77740522190246 -6.581476863213809 L106.77726975558822 -6.581800969535729 L106.77825488003917 -6.582889200276363 L106.77715020522045 -6.5840333277671785 L106.77437689107323 -6.583882900461779 L106.7708663546828 -6.585076762730103 L106.76726284681948 -6.58069025633027 L106.76349774540132 -6.580924007630676 L106.75306087499176 -6.576561479302586 L106.75080293908533 -6.573505118637499 L106.75698935247986 -6.569483021040154 L106.75604837110782 -6.570295634673264 Z" stroke="brown" stroke-width="0.0001" fill="none" />
  </g>
</svg>
