<svg width="1049.9999999998977" height="1849.9999999999961" xmlns="http://www.w3.org/2000/svg" xmlns:xlink="http://www.w3.org/1999/xlink" >
  <g transform="translate(524.9999999999488 924.9999999999981) rotate(30) scale(10000 -10000) translate(-106.8125 6.592499999999999)">
    <path d="M106.76 -6.5 L106.865 -6.5 L106.865 -6.685 L106.76 -6.685 Z" fill="none" stroke="black" stroke-width="0.001" transform="translate(106.8125 -6.592499999999999) rotate(30) translate(-106.8125 6.592499999999999)" />
    <path d="M106.81069284989329 -6.602527691929102 L106.81090888705299 -6.602136120804492 L106.81347031423228 -6.60037249981883 L106.81505475802827 -6.5992407542502605 L106.8154964990555 -6.599171005667015 L106.81708785036793 -6.598034326158138 L106.81728559050084 -6.597907608967019 L106.81728559050084 -6.597907608967019 L106.81772083868934 -6.597628690231227 L106.81797285575969 -6.5987776499456325 L106.81797285575969 -6.5987776499456325 L106.81803029120653 -6.599039501313534 L106.81781884957303 -6.599529800753352 L106.81781884957303 -6.599529800753352 L106.81783265949348 -6.599497777749407 L106.81758607870532 -6.5971332441201165 L106.81758607870532 -6.5971332441201165 L106.81733570465278 -6.594732335794983 L106.81714274000552 -6.59400798373078 L106.81714274000552 -6.59400798373078 L106.8169432637012 -6.59325918816207 L106.81673769097522 -6.592018697840012 L106.81673769097522 -6.592018697840012 L106.81653314343875 -6.590784393833084 L106.81630220683161 -6.589028073345873 L106.81630220683161 -6.589028073345873 L106.81627 -6.587249 L106.8166987931684 -6.588975926654126 L106.8166987931684 -6.588975926654126 L106.81689941219632 -6.590501675703728 L106.81758080416752 -6.590315566982507 L106.81758080416752 -6.590315566982507 L106.81833063070003 -6.590110766716282 L106.81832012034997 -6.589807937254663 L106.81832012034997 -6.589807937254663 L106.81829798688022 -6.589170216657956 L106.8195806244102 -6.588966476400489 L106.8195806244102 -6.588966476400489 L106.82061241926404 -6.588802581189045 L106.82070309035547 -6.588689731557279 L106.82070309035547 -6.588689731557279 L106.82082068148061 -6.588543377135348 L106.82180733694338 -6.585739120401726 L106.82180733694338 -6.585739120401726 L106.82272911764471 -6.583119249700975 L106.82243266263744 -6.5830589923073575 L106.82243266263744 -6.5830589923073575 L106.82172968840067 -6.582916105885311 L106.82228902679245 -6.5784153345203045 L106.82228902679245 -6.5784153345203045 L106.82281124318034 -6.57421326900967 L106.82254931969307 -6.574016364610919 L106.82254931969307 -6.574016364610919 L106.82212357545143 -6.573696305822777 L106.82194426864724 -6.571657017650346 L106.82194426864724 -6.571657017650346 L106.82177124001201 -6.569689132210149 L106.82233624574762 -6.563164744771598 L106.82233624574762 -6.563164744771598 L106.82290247377382 -6.55662624296766 L106.82383178662867 -6.554428119104884 L106.82383178662867 -6.554428119104884 L106.8247272394597 -6.552310085091248 L106.82459545256154 -6.551373878524384 L106.82459545256154 -6.551373878524384 L106.82446249815807 -6.550429378066742 L106.82418905422963 -6.550030605671108 L106.82418905422963 -6.550030605671108 L106.82392270388749 -6.549642178088818 L106.8235912057128 -6.5495053761253965 L106.8235912057128 -6.5495053761253965 L106.82309824209396 -6.549301940945048 L106.82300780472042 -6.548633307296606 L106.82300780472042 -6.548633307296606 L106.823131 -6.548052 L106.82340419527958 -6.548579692703394 L106.82340419527958 -6.548579692703394 L106.82346375790603 -6.549020059054952 L106.8237437942872 -6.549135623874604 L106.8237437942872 -6.549135623874604 L106.82418529611252 -6.549317821911182 L106.82451894577036 -6.54980439432889 L106.82451894577036 -6.54980439432889 L106.82484550184193 -6.550280621933267 L106.82499154743846 -6.5513181214756155 L106.82499154743846 -6.5513181214756155 L106.8251387605403 -6.5523639149087565 L106.82420021337133 -6.554583880895116 L106.82420021337133 -6.554583880895116 L106.82329552622618 -6.556723757032335 L106.82273475425238 -6.563199255228403 L106.82273475425238 -6.563199255228403 L106.82217275998799 -6.569688867789853 L106.82234273135278 -6.571621982349654 L106.82234273135278 -6.571621982349654 L106.82250642454858 -6.573483694177228 L106.82278968030694 -6.573696635389081 L106.82278968030694 -6.573696635389081 L106.82323675681968 -6.574032730990333 L106.82268597320754 -6.5784646654796965 L106.82268597320754 -6.5784646654796965 L106.82217231159932 -6.582597894114687 L106.82251233736257 -6.582667007692642 L106.82251233736257 -6.582667007692642 L106.82325888235528 -6.582818750299024 L106.82218466305662 -6.585871879598274 L106.82218466305662 -6.585871879598274 L106.82117531851938 -6.588740622864671 L106.82101490964453 -6.588940268442721 L106.82101490964453 -6.588940268442721 L106.82082758073595 -6.589173418810954 L106.81964337558982 -6.5893615235995115 L106.81964337558982 -6.5893615235995115 L106.81871001311978 -6.589509783342044 L106.81871987965005 -6.589794062745336 L106.81871987965005 -6.589794062745336 L106.81874136929996 -6.590413233283717 L106.81768619583248 -6.590701433017494 L106.81768619583248 -6.590701433017494 L106.81695781901816 -6.590900374718028 L106.81713230902479 -6.591953302159989 L106.81713230902479 -6.591953302159989 L106.8173347362988 -6.593174811838036 L106.81752925999447 -6.59390501626922 L106.81752925999447 -6.59390501626922 L106.8177302953472 -6.594659664205012 L106.81798392129468 -6.597091755879883 L106.81798392129468 -6.597091755879883 L106.8182358057913 -6.599507148284869 L106.81836717796138 -6.600644042045764 L106.81836717796138 -6.600644042045764 L106.81962980092378 -6.6115707715611265 L106.81793641721605 -6.6007780007014505 L106.81793641721605 -6.6007780007014505 L106.81777135206518 -6.599725958956732 L106.81758214424032 -6.598863350054368 L106.81758214424032 -6.598863350054368 L106.81745316131068 -6.598275309768829 L106.81766980053216 -6.598136481533811 L106.81744092796536 -6.5985206915651355 L106.81742429926389 -6.598531347683904 L106.81584524197173 -6.59965924574974 L106.8154035009445 -6.599728994332985 L106.81381484288397 -6.600863750090505 L106.8110844210179 -6.602743729088803 L106.8110844210179 -6.602743729088803 L106.808242 -6.604458 Z" stroke="grey" stroke-width="0.0002" fill="none" />



    <line x1="106.808242" y1="-6.604458" x2="106.8137" y2="-6.6007" style="stroke:rgb(255,0,0);stroke-width:.00002" />
    <line x1="106.8081285789821" y1="-6.604293270911198" x2="106.81069284989329" y2="-6.602527691929102" style="stroke:rgb(0,0,0);stroke-width:.00002" />
    <line x1="106.81069284989329" y1="-6.602527691929102" x2="106.81090888705299" y2="-6.602136120804492" style="stroke:rgb(0,0,0);stroke-width:.00002" />
    <line x1="106.81090888705299" y1="-6.602136120804492" x2="106.81347315796418" y2="-6.600370541822396" style="stroke:rgb(0,0,0);stroke-width:.00002" />
    <circle cx="106.808242" cy="-6.604458" fill="rgb(255,0,0)" r=".0001" />
    <text x="106.808242" y="-6.604458" stroke="rgb(0,0,0)" transform="translate(106.808242 -6.604458),scale(0.00001 -0.00001),translate(-106.808242 6.604458),translate(106.8125 -6.592499999999999),rotate(-30),translate(-106.8125 6.592499999999999)" >binamarga-pos</text>
    <line x1="106.8137" y1="-6.6007" x2="106.8172" y2="-6.5982" style="stroke:rgb(255,0,0);stroke-width:.00002" />
    <line x1="106.81346750472251" y1="-6.600374506611517" x2="106.81505475802827" y2="-6.5992407542502605" style="stroke:rgb(0,0,0);stroke-width:.00002" />
    <line x1="106.81505475802827" y1="-6.5992407542502605" x2="106.8154964990555" y2="-6.599171005667015" style="stroke:rgb(0,0,0);stroke-width:.00002" />
    <line x1="106.8154964990555" y1="-6.599171005667015" x2="106.81708375236126" y2="-6.598037253305759" style="stroke:rgb(0,0,0);stroke-width:.00002" />
    <circle cx="106.8137" cy="-6.6007" fill="rgb(255,0,0)" r=".0001" />
    <text x="106.8137" y="-6.6007" stroke="rgb(0,0,0)" transform="translate(106.8137 -6.6007),scale(0.00001 -0.00001),translate(-106.8137 6.6007),translate(106.8125 -6.592499999999999),rotate(-30),translate(-106.8125 6.592499999999999)" >ciheuleut-binamarga</text>
    <line x1="106.8172" y1="-6.5982" x2="106.817587" y2="-6.597952" style="stroke:rgb(255,0,0);stroke-width:.00002" />
    <line x1="106.81709209050084" y1="-6.598031608967019" x2="106.81728559050084" y2="-6.597907608967019" style="stroke:rgb(0,0,0);stroke-width:.00002" />
    <line x1="106.81728559050084" y1="-6.597907608967019" x2="106.81728559050084" y2="-6.597907608967019" style="stroke:rgb(0,0,0);stroke-width:.00002" />
    <line x1="106.81728559050084" y1="-6.597907608967019" x2="106.81747909050084" y2="-6.597783608967019" style="stroke:rgb(0,0,0);stroke-width:.00002" />
    <circle cx="106.8172" cy="-6.5982" fill="rgb(255,0,0)" r=".0001" />
    <text x="106.8172" y="-6.5982" stroke="rgb(0,0,0)" transform="translate(106.8172 -6.5982),scale(0.00001 -0.00001),translate(-106.8172 6.5982),translate(106.8125 -6.592499999999999),rotate(-30),translate(-106.8125 6.592499999999999)" >padi-jagung</text>
    <line x1="106.817587" y1="-6.597952" x2="106.817968" y2="-6.599689" style="stroke:rgb(255,0,0);stroke-width:.00002" />
    <line x1="106.81778235575969" y1="-6.597909149945632" x2="106.81797285575969" y2="-6.5987776499456325" style="stroke:rgb(0,0,0);stroke-width:.00002" />
    <line x1="106.81797285575969" y1="-6.5987776499456325" x2="106.81797285575969" y2="-6.5987776499456325" style="stroke:rgb(0,0,0);stroke-width:.00002" />
    <line x1="106.81797285575969" y1="-6.5987776499456325" x2="106.81816335575968" y2="-6.599646149945632" style="stroke:rgb(0,0,0);stroke-width:.00002" />
    <circle cx="106.817587" cy="-6.597952" fill="rgb(255,0,0)" r=".0001" />
    <text x="106.817587" y="-6.597952" stroke="rgb(0,0,0)" transform="translate(106.817587 -6.597952),scale(0.00001 -0.00001),translate(-106.817587 6.597952),translate(106.8125 -6.592499999999999),rotate(-30),translate(-106.8125 6.592499999999999)" >padi-ramp</text>
    <line x1="106.817968" y1="-6.599689" x2="106.818037" y2="-6.599529" style="stroke:rgb(255,0,0);stroke-width:.00002" />
    <line x1="106.81778434957302" y1="-6.599609800753352" x2="106.81781884957303" y2="-6.599529800753352" style="stroke:rgb(0,0,0);stroke-width:.00002" />
    <line x1="106.81781884957303" y1="-6.599529800753352" x2="106.81781884957303" y2="-6.599529800753352" style="stroke:rgb(0,0,0);stroke-width:.00002" />
    <line x1="106.81781884957303" y1="-6.599529800753352" x2="106.81785334957303" y2="-6.599449800753352" style="stroke:rgb(0,0,0);stroke-width:.00002" />
    <circle cx="106.817968" cy="-6.599689" fill="rgb(255,0,0)" r=".0001" />
    <text x="106.817968" y="-6.599689" stroke="rgb(0,0,0)" transform="translate(106.817968 -6.599689),scale(0.00001 -0.00001),translate(-106.817968 6.599689),translate(106.8125 -6.592499999999999),rotate(-30),translate(-106.8125 6.592499999999999)" >ramp-syam</text>
    <line x1="106.818037" y1="-6.599529" x2="106.817533" y2="-6.594696" style="stroke:rgb(255,0,0);stroke-width:.00002" />
    <line x1="106.81783807870532" y1="-6.599549744120117" x2="106.81758607870532" y2="-6.5971332441201165" style="stroke:rgb(0,0,0);stroke-width:.00002" />
    <line x1="106.81758607870532" y1="-6.5971332441201165" x2="106.81758607870532" y2="-6.5971332441201165" style="stroke:rgb(0,0,0);stroke-width:.00002" />
    <line x1="106.81758607870532" y1="-6.5971332441201165" x2="106.81733407870531" y2="-6.594716744120117" style="stroke:rgb(0,0,0);stroke-width:.00002" />
    <circle cx="106.818037" cy="-6.599529" fill="rgb(255,0,0)" r=".0001" />
    <text x="106.818037" y="-6.599529" stroke="rgb(0,0,0)" transform="translate(106.818037 -6.599529),scale(0.00001 -0.00001),translate(-106.818037 6.599529),translate(106.8125 -6.592499999999999),rotate(-30),translate(-106.8125 6.592499999999999)" >syam-start</text>
    <line x1="106.817533" y1="-6.594696" x2="106.817139" y2="-6.593217" style="stroke:rgb(255,0,0);stroke-width:.00002" />
    <line x1="106.81733974000552" y1="-6.59474748373078" x2="106.81714274000552" y2="-6.59400798373078" style="stroke:rgb(0,0,0);stroke-width:.00002" />
    <line x1="106.81714274000552" y1="-6.59400798373078" x2="106.81714274000552" y2="-6.59400798373078" style="stroke:rgb(0,0,0);stroke-width:.00002" />
    <line x1="106.81714274000552" y1="-6.59400798373078" x2="106.81694574000552" y2="-6.59326848373078" style="stroke:rgb(0,0,0);stroke-width:.00002" />
    <circle cx="106.817533" cy="-6.594696" fill="rgb(255,0,0)" r=".0001" />
    <text x="106.817533" y="-6.594696" stroke="rgb(0,0,0)" transform="translate(106.817533 -6.594696),scale(0.00001 -0.00001),translate(-106.817533 6.594696),translate(106.8125 -6.592499999999999),rotate(-30),translate(-106.8125 6.592499999999999)" >syam-papapia</text>
    <line x1="106.817139" y1="-6.593217" x2="106.816731" y2="-6.590755" style="stroke:rgb(255,0,0);stroke-width:.00002" />
    <line x1="106.81694169097521" y1="-6.593249697840012" x2="106.81673769097522" y2="-6.592018697840012" style="stroke:rgb(0,0,0);stroke-width:.00002" />
    <line x1="106.81673769097522" y1="-6.592018697840012" x2="106.81673769097522" y2="-6.592018697840012" style="stroke:rgb(0,0,0);stroke-width:.00002" />
    <line x1="106.81673769097522" y1="-6.592018697840012" x2="106.81653369097522" y2="-6.590787697840011" style="stroke:rgb(0,0,0);stroke-width:.00002" />
    <circle cx="106.817139" cy="-6.593217" fill="rgb(255,0,0)" r=".0001" />
    <text x="106.817139" y="-6.593217" stroke="rgb(0,0,0)" transform="translate(106.817139 -6.593217),scale(0.00001 -0.00001),translate(-106.817139 6.593217),translate(106.8125 -6.592499999999999),rotate(-30),translate(-106.8125 6.592499999999999)" >syam-southturn</text>
    <line x1="106.816731" y1="-6.590755" x2="106.81627" y2="-6.587249" style="stroke:rgb(255,0,0);stroke-width:.00002" />
    <line x1="106.81653270683161" y1="-6.590781073345873" x2="106.81630220683161" y2="-6.589028073345873" style="stroke:rgb(0,0,0);stroke-width:.00002" />
    <line x1="106.81630220683161" y1="-6.589028073345873" x2="106.81630220683161" y2="-6.589028073345873" style="stroke:rgb(0,0,0);stroke-width:.00002" />
    <line x1="106.81630220683161" y1="-6.589028073345873" x2="106.81607170683161" y2="-6.587275073345873" style="stroke:rgb(0,0,0);stroke-width:.00002" />
    <circle cx="106.816731" cy="-6.590755" fill="rgb(255,0,0)" r=".0001" />
    <text x="106.816731" y="-6.590755" stroke="rgb(0,0,0)" transform="translate(106.816731 -6.590755),scale(0.00001 -0.00001),translate(-106.816731 6.590755),translate(106.8125 -6.592499999999999),rotate(-30),translate(-106.8125 6.592499999999999)" >syam-tohir</text>
    <line x1="106.81627" y1="-6.587249" x2="106.816731" y2="-6.590755" style="stroke:rgb(255,0,0);stroke-width:.00002" />
    <line x1="106.8164682931684" y1="-6.5872229266541265" x2="106.8166987931684" y2="-6.588975926654126" style="stroke:rgb(0,0,0);stroke-width:.00002" />
    <line x1="106.8166987931684" y1="-6.588975926654126" x2="106.8166987931684" y2="-6.588975926654126" style="stroke:rgb(0,0,0);stroke-width:.00002" />
    <line x1="106.8166987931684" y1="-6.588975926654126" x2="106.8169292931684" y2="-6.590728926654126" style="stroke:rgb(0,0,0);stroke-width:.00002" />
    <circle cx="106.81627" cy="-6.587249" fill="rgb(255,0,0)" r=".0001" />
    <text x="106.81627" y="-6.587249" stroke="rgb(0,0,0)" transform="translate(106.81627 -6.587249),scale(0.00001 -0.00001),translate(-106.81627 6.587249),translate(106.8125 -6.592499999999999),rotate(-30),translate(-106.8125 6.592499999999999)" >syam-norththturn</text>
    <line x1="106.816731" y1="-6.590755" x2="106.818536" y2="-6.590262" style="stroke:rgb(255,0,0);stroke-width:.00002" />
    <line x1="106.81667830416752" y1="-6.590562066982506" x2="106.81758080416752" y2="-6.590315566982507" style="stroke:rgb(0,0,0);stroke-width:.00002" />
    <line x1="106.81758080416752" y1="-6.590315566982507" x2="106.81758080416752" y2="-6.590315566982507" style="stroke:rgb(0,0,0);stroke-width:.00002" />
    <line x1="106.81758080416752" y1="-6.590315566982507" x2="106.81848330416751" y2="-6.590069066982506" style="stroke:rgb(0,0,0);stroke-width:.00002" />
    <circle cx="106.816731" cy="-6.590755" fill="rgb(255,0,0)" r=".0001" />
    <text x="106.816731" y="-6.590755" stroke="rgb(0,0,0)" transform="translate(106.816731 -6.590755),scale(0.00001 -0.00001),translate(-106.816731 6.590755),translate(106.8125 -6.592499999999999),rotate(-30),translate(-106.8125 6.592499999999999)" >syam-tohir</text>
    <line x1="106.818536" y1="-6.590262" x2="106.818504" y2="-6.58934" style="stroke:rgb(255,0,0);stroke-width:.00002" />
    <line x1="106.81833612034995" y1="-6.590268937254663" x2="106.81832012034997" y2="-6.589807937254663" style="stroke:rgb(0,0,0);stroke-width:.00002" />
    <line x1="106.81832012034997" y1="-6.589807937254663" x2="106.81832012034997" y2="-6.589807937254663" style="stroke:rgb(0,0,0);stroke-width:.00002" />
    <line x1="106.81832012034997" y1="-6.589807937254663" x2="106.81830412034996" y2="-6.589346937254663" style="stroke:rgb(0,0,0);stroke-width:.00002" />
    <circle cx="106.818536" cy="-6.590262" fill="rgb(255,0,0)" r=".0001" />
    <text x="106.818536" y="-6.590262" stroke="rgb(0,0,0)" transform="translate(106.818536 -6.590262),scale(0.00001 -0.00001),translate(-106.818536 6.590262),translate(106.8125 -6.592499999999999),rotate(-30),translate(-106.8125 6.592499999999999)" >wiradiredja-swingleft</text>
    <line x1="106.818504" y1="-6.58934" x2="106.82072" y2="-6.588988" style="stroke:rgb(255,0,0);stroke-width:.00002" />
    <line x1="106.81847262441019" y1="-6.589142476400489" x2="106.8195806244102" y2="-6.588966476400489" style="stroke:rgb(0,0,0);stroke-width:.00002" />
    <line x1="106.8195806244102" y1="-6.588966476400489" x2="106.8195806244102" y2="-6.588966476400489" style="stroke:rgb(0,0,0);stroke-width:.00002" />
    <line x1="106.8195806244102" y1="-6.588966476400489" x2="106.82068862441018" y2="-6.588790476400488" style="stroke:rgb(0,0,0);stroke-width:.00002" />
    <circle cx="106.818504" cy="-6.58934" fill="rgb(255,0,0)" r=".0001" />
    <text x="106.818504" y="-6.58934" stroke="rgb(0,0,0)" transform="translate(106.818504 -6.58934),scale(0.00001 -0.00001),translate(-106.818504 6.58934),translate(106.8125 -6.592499999999999),rotate(-30),translate(-106.8125 6.592499999999999)" >wiradiredja-swingright</text>
    <line x1="106.82072" y1="-6.588988" x2="106.820998" y2="-6.588642" style="stroke:rgb(255,0,0);stroke-width:.00002" />
    <line x1="106.82056409035546" y1="-6.5888627315572785" x2="106.82070309035547" y2="-6.588689731557279" style="stroke:rgb(0,0,0);stroke-width:.00002" />
    <line x1="106.82070309035547" y1="-6.588689731557279" x2="106.82070309035547" y2="-6.588689731557279" style="stroke:rgb(0,0,0);stroke-width:.00002" />
    <line x1="106.82070309035547" y1="-6.588689731557279" x2="106.82084209035547" y2="-6.588516731557279" style="stroke:rgb(0,0,0);stroke-width:.00002" />
    <circle cx="106.82072" cy="-6.588988" fill="rgb(255,0,0)" r=".0001" />
    <text x="106.82072" y="-6.588988" stroke="rgb(0,0,0)" transform="translate(106.82072 -6.588988),scale(0.00001 -0.00001),translate(-106.82072 6.588988),translate(106.8125 -6.592499999999999),rotate(-30),translate(-106.8125 6.592499999999999)" >wiradiredja-ikhwan</text>
    <line x1="106.820998" y1="-6.588642" x2="106.822994" y2="-6.582969" style="stroke:rgb(255,0,0);stroke-width:.00002" />
    <line x1="106.82080933694338" y1="-6.588575620401726" x2="106.82180733694338" y2="-6.585739120401726" style="stroke:rgb(0,0,0);stroke-width:.00002" />
    <line x1="106.82180733694338" y1="-6.585739120401726" x2="106.82180733694338" y2="-6.585739120401726" style="stroke:rgb(0,0,0);stroke-width:.00002" />
    <line x1="106.82180733694338" y1="-6.585739120401726" x2="106.82280533694338" y2="-6.582902620401726" style="stroke:rgb(0,0,0);stroke-width:.00002" />
    <circle cx="106.820998" cy="-6.588642" fill="rgb(255,0,0)" r=".0001" />
    <text x="106.820998" y="-6.588642" stroke="rgb(0,0,0)" transform="translate(106.820998 -6.588642),scale(0.00001 -0.00001),translate(-106.820998 6.588642),translate(106.8125 -6.592499999999999),rotate(-30),translate(-106.8125 6.592499999999999)" >wiradiredja-sogiri</text>
    <line x1="106.822994" y1="-6.582969" x2="106.821951" y2="-6.582757" style="stroke:rgb(255,0,0);stroke-width:.00002" />
    <line x1="106.82295416263743" y1="-6.583164992307358" x2="106.82243266263744" y2="-6.5830589923073575" style="stroke:rgb(0,0,0);stroke-width:.00002" />
    <line x1="106.82243266263744" y1="-6.5830589923073575" x2="106.82243266263744" y2="-6.5830589923073575" style="stroke:rgb(0,0,0);stroke-width:.00002" />
    <line x1="106.82243266263744" y1="-6.5830589923073575" x2="106.82191116263743" y2="-6.582952992307358" style="stroke:rgb(0,0,0);stroke-width:.00002" />
    <circle cx="106.822994" cy="-6.582969" fill="rgb(255,0,0)" r=".0001" />
    <text x="106.822994" y="-6.582969" stroke="rgb(0,0,0)" transform="translate(106.822994 -6.582969),scale(0.00001 -0.00001),translate(-106.822994 6.582969),translate(106.8125 -6.592499999999999),rotate(-30),translate(-106.8125 6.592499999999999)" >sogiri-swingleft</text>
    <line x1="106.821951" y1="-6.582757" x2="106.823024" y2="-6.574123" style="stroke:rgb(255,0,0);stroke-width:.00002" />
    <line x1="106.82175252679245" y1="-6.582732334520304" x2="106.82228902679245" y2="-6.5784153345203045" style="stroke:rgb(0,0,0);stroke-width:.00002" />
    <line x1="106.82228902679245" y1="-6.5784153345203045" x2="106.82228902679245" y2="-6.5784153345203045" style="stroke:rgb(0,0,0);stroke-width:.00002" />
    <line x1="106.82228902679245" y1="-6.5784153345203045" x2="106.82282552679246" y2="-6.574098334520304" style="stroke:rgb(0,0,0);stroke-width:.00002" />
    <circle cx="106.821951" cy="-6.582757" fill="rgb(255,0,0)" r=".0001" />
    <text x="106.821951" y="-6.582757" stroke="rgb(0,0,0)" transform="translate(106.821951 -6.582757),scale(0.00001 -0.00001),translate(-106.821951 6.582757),translate(106.8125 -6.592499999999999),rotate(-30),translate(-106.8125 6.592499999999999)" >sogiri-swingright</text>
    <line x1="106.823024" y1="-6.574123" x2="106.822315" y2="-6.57359" style="stroke:rgb(255,0,0);stroke-width:.00002" />
    <line x1="106.82290381969307" y1="-6.574282864610919" x2="106.82254931969307" y2="-6.574016364610919" style="stroke:rgb(0,0,0);stroke-width:.00002" />
    <line x1="106.82254931969307" y1="-6.574016364610919" x2="106.82254931969307" y2="-6.574016364610919" style="stroke:rgb(0,0,0);stroke-width:.00002" />
    <line x1="106.82254931969307" y1="-6.574016364610919" x2="106.82219481969307" y2="-6.573749864610919" style="stroke:rgb(0,0,0);stroke-width:.00002" />
    <circle cx="106.823024" cy="-6.574123" fill="rgb(255,0,0)" r=".0001" />
    <text x="106.823024" y="-6.574123" stroke="rgb(0,0,0)" transform="translate(106.823024 -6.574123),scale(0.00001 -0.00001),translate(-106.823024 6.574123),translate(106.8125 -6.592499999999999),rotate(-30),translate(-106.8125 6.592499999999999)" >tanahbaru-swingleft</text>
    <line x1="106.822315" y1="-6.57359" x2="106.821972" y2="-6.569689" style="stroke:rgb(255,0,0);stroke-width:.00002" />
    <line x1="106.82211576864724" y1="-6.573607517650347" x2="106.82194426864724" y2="-6.571657017650346" style="stroke:rgb(0,0,0);stroke-width:.00002" />
    <line x1="106.82194426864724" y1="-6.571657017650346" x2="106.82194426864724" y2="-6.571657017650346" style="stroke:rgb(0,0,0);stroke-width:.00002" />
    <line x1="106.82194426864724" y1="-6.571657017650346" x2="106.82177276864724" y2="-6.569706517650347" style="stroke:rgb(0,0,0);stroke-width:.00002" />
    <circle cx="106.822315" cy="-6.57359" fill="rgb(255,0,0)" r=".0001" />
    <text x="106.822315" y="-6.57359" stroke="rgb(0,0,0)" transform="translate(106.822315 -6.57359),scale(0.00001 -0.00001),translate(-106.822315 6.57359),translate(106.8125 -6.592499999999999),rotate(-30),translate(-106.8125 6.592499999999999)" >tanahbaru-swingright</text>
    <line x1="106.821972" y1="-6.569689" x2="106.823099" y2="-6.556675" style="stroke:rgb(255,0,0);stroke-width:.00002" />
    <line x1="106.82177274574762" y1="-6.569671744771598" x2="106.82233624574762" y2="-6.563164744771598" style="stroke:rgb(0,0,0);stroke-width:.00002" />
    <line x1="106.82233624574762" y1="-6.563164744771598" x2="106.82233624574762" y2="-6.563164744771598" style="stroke:rgb(0,0,0);stroke-width:.00002" />
    <line x1="106.82233624574762" y1="-6.563164744771598" x2="106.82289974574762" y2="-6.556657744771598" style="stroke:rgb(0,0,0);stroke-width:.00002" />
    <circle cx="106.821972" cy="-6.569689" fill="rgb(255,0,0)" r=".0001" />
    <text x="106.821972" y="-6.569689" stroke="rgb(0,0,0)" transform="translate(106.821972 -6.569689),scale(0.00001 -0.00001),translate(-106.821972 6.569689),translate(106.8125 -6.592499999999999),rotate(-30),translate(-106.8125 6.592499999999999)" >tanahbaru-tol</text>
    <line x1="106.823099" y1="-6.556675" x2="106.824933" y2="-6.552337" style="stroke:rgb(255,0,0);stroke-width:.00002" />
    <line x1="106.82291478662867" y1="-6.556597119104884" x2="106.82383178662867" y2="-6.554428119104884" style="stroke:rgb(0,0,0);stroke-width:.00002" />
    <line x1="106.82383178662867" y1="-6.554428119104884" x2="106.82383178662867" y2="-6.554428119104884" style="stroke:rgb(0,0,0);stroke-width:.00002" />
    <line x1="106.82383178662867" y1="-6.554428119104884" x2="106.82474878662867" y2="-6.552259119104884" style="stroke:rgb(0,0,0);stroke-width:.00002" />
    <circle cx="106.823099" cy="-6.556675" fill="rgb(255,0,0)" r=".0001" />
    <text x="106.823099" y="-6.556675" stroke="rgb(0,0,0)" transform="translate(106.823099 -6.556675),scale(0.00001 -0.00001),translate(-106.823099 6.556675),translate(106.8125 -6.592499999999999),rotate(-30),translate(-106.8125 6.592499999999999)" >tanahbaru-bendright</text>
    <line x1="106.824933" y1="-6.552337" x2="106.824654" y2="-6.550355" style="stroke:rgb(255,0,0);stroke-width:.00002" />
    <line x1="106.82473495256154" y1="-6.552364878524384" x2="106.82459545256154" y2="-6.551373878524384" style="stroke:rgb(0,0,0);stroke-width:.00002" />
    <line x1="106.82459545256154" y1="-6.551373878524384" x2="106.82459545256154" y2="-6.551373878524384" style="stroke:rgb(0,0,0);stroke-width:.00002" />
    <line x1="106.82459545256154" y1="-6.551373878524384" x2="106.82445595256154" y2="-6.550382878524384" style="stroke:rgb(0,0,0);stroke-width:.00002" />
    <circle cx="106.824933" cy="-6.552337" fill="rgb(255,0,0)" r=".0001" />
    <text x="106.824933" y="-6.552337" stroke="rgb(0,0,0)" transform="translate(106.824933 -6.552337),scale(0.00001 -0.00001),translate(-106.824933 6.552337),translate(106.8125 -6.592499999999999),rotate(-30),translate(-106.8125 6.592499999999999)" >tanahbaru-bendleft1</text>
    <line x1="106.824654" y1="-6.550355" x2="106.824054" y2="-6.54948" style="stroke:rgb(255,0,0);stroke-width:.00002" />
    <line x1="106.82448905422963" y1="-6.550468105671109" x2="106.82418905422963" y2="-6.550030605671108" style="stroke:rgb(0,0,0);stroke-width:.00002" />
    <line x1="106.82418905422963" y1="-6.550030605671108" x2="106.82418905422963" y2="-6.550030605671108" style="stroke:rgb(0,0,0);stroke-width:.00002" />
    <line x1="106.82418905422963" y1="-6.550030605671108" x2="106.82388905422964" y2="-6.549593105671109" style="stroke:rgb(0,0,0);stroke-width:.00002" />
    <circle cx="106.824654" cy="-6.550355" fill="rgb(255,0,0)" r=".0001" />
    <text x="106.824654" y="-6.550355" stroke="rgb(0,0,0)" transform="translate(106.824654 -6.550355),scale(0.00001 -0.00001),translate(-106.824654 6.550355),translate(106.8125 -6.592499999999999),rotate(-30),translate(-106.8125 6.592499999999999)" >tanahbaru-bendleft2</text>
    <line x1="106.824054" y1="-6.54948" x2="106.823281" y2="-6.549161" style="stroke:rgb(255,0,0);stroke-width:.00002" />
    <line x1="106.8239777057128" y1="-6.549664876125396" x2="106.8235912057128" y2="-6.5495053761253965" style="stroke:rgb(0,0,0);stroke-width:.00002" />
    <line x1="106.8235912057128" y1="-6.5495053761253965" x2="106.8235912057128" y2="-6.5495053761253965" style="stroke:rgb(0,0,0);stroke-width:.00002" />
    <line x1="106.8235912057128" y1="-6.5495053761253965" x2="106.8232047057128" y2="-6.549345876125396" style="stroke:rgb(0,0,0);stroke-width:.00002" />
    <circle cx="106.824054" cy="-6.54948" fill="rgb(255,0,0)" r=".0001" />
    <text x="106.824054" y="-6.54948" stroke="rgb(0,0,0)" transform="translate(106.824054 -6.54948),scale(0.00001 -0.00001),translate(-106.824054 6.54948),translate(106.8125 -6.592499999999999),rotate(-30),translate(-106.8125 6.592499999999999)" >tanahbaru-bendleft3</text>
    <line x1="106.823281" y1="-6.549161" x2="106.823131" y2="-6.548052" style="stroke:rgb(255,0,0);stroke-width:.00002" />
    <line x1="106.82308280472041" y1="-6.549187807296605" x2="106.82300780472042" y2="-6.548633307296606" style="stroke:rgb(0,0,0);stroke-width:.00002" />
    <line x1="106.82300780472042" y1="-6.548633307296606" x2="106.82300780472042" y2="-6.548633307296606" style="stroke:rgb(0,0,0);stroke-width:.00002" />
    <line x1="106.82300780472042" y1="-6.548633307296606" x2="106.82293280472042" y2="-6.548078807296606" style="stroke:rgb(0,0,0);stroke-width:.00002" />
    <circle cx="106.823281" cy="-6.549161" fill="rgb(255,0,0)" r=".0001" />
    <text x="106.823281" y="-6.549161" stroke="rgb(0,0,0)" transform="translate(106.823281 -6.549161),scale(0.00001 -0.00001),translate(-106.823281 6.549161),translate(106.8125 -6.592499999999999),rotate(-30),translate(-106.8125 6.592499999999999)" >tanahbaru-almostthere</text>
    <line x1="106.823131" y1="-6.548052" x2="106.823281" y2="-6.549161" style="stroke:rgb(255,0,0);stroke-width:.00002" />
    <line x1="106.82332919527958" y1="-6.548025192703395" x2="106.82340419527958" y2="-6.548579692703394" style="stroke:rgb(0,0,0);stroke-width:.00002" />
    <line x1="106.82340419527958" y1="-6.548579692703394" x2="106.82340419527958" y2="-6.548579692703394" style="stroke:rgb(0,0,0);stroke-width:.00002" />
    <line x1="106.82340419527958" y1="-6.548579692703394" x2="106.82347919527957" y2="-6.549134192703394" style="stroke:rgb(0,0,0);stroke-width:.00002" />
    <circle cx="106.823131" cy="-6.548052" fill="rgb(255,0,0)" r=".0001" />
    <text x="106.823131" y="-6.548052" stroke="rgb(0,0,0)" transform="translate(106.823131 -6.548052),scale(0.00001 -0.00001),translate(-106.823131 6.548052),translate(106.8125 -6.592499999999999),rotate(-30),translate(-106.8125 6.592499999999999)" >tanahbaru-cibuluh</text>
    <line x1="106.823281" y1="-6.549161" x2="106.824054" y2="-6.54948" style="stroke:rgb(255,0,0);stroke-width:.00002" />
    <line x1="106.82335729428719" y1="-6.548976123874604" x2="106.8237437942872" y2="-6.549135623874604" style="stroke:rgb(0,0,0);stroke-width:.00002" />
    <line x1="106.8237437942872" y1="-6.549135623874604" x2="106.8237437942872" y2="-6.549135623874604" style="stroke:rgb(0,0,0);stroke-width:.00002" />
    <line x1="106.8237437942872" y1="-6.549135623874604" x2="106.8241302942872" y2="-6.549295123874604" style="stroke:rgb(0,0,0);stroke-width:.00002" />
    <circle cx="106.823281" cy="-6.549161" fill="rgb(255,0,0)" r=".0001" />
    <text x="106.823281" y="-6.549161" stroke="rgb(0,0,0)" transform="translate(106.823281 -6.549161),scale(0.00001 -0.00001),translate(-106.823281 6.549161),translate(106.8125 -6.592499999999999),rotate(-30),translate(-106.8125 6.592499999999999)" >tanahbaru-almostthere</text>
    <line x1="106.824054" y1="-6.54948" x2="106.824654" y2="-6.550355" style="stroke:rgb(255,0,0);stroke-width:.00002" />
    <line x1="106.82421894577037" y1="-6.549366894328891" x2="106.82451894577036" y2="-6.54980439432889" style="stroke:rgb(0,0,0);stroke-width:.00002" />
    <line x1="106.82451894577036" y1="-6.54980439432889" x2="106.82451894577036" y2="-6.54980439432889" style="stroke:rgb(0,0,0);stroke-width:.00002" />
    <line x1="106.82451894577036" y1="-6.54980439432889" x2="106.82481894577036" y2="-6.550241894328891" style="stroke:rgb(0,0,0);stroke-width:.00002" />
    <circle cx="106.824054" cy="-6.54948" fill="rgb(255,0,0)" r=".0001" />
    <text x="106.824054" y="-6.54948" stroke="rgb(0,0,0)" transform="translate(106.824054 -6.54948),scale(0.00001 -0.00001),translate(-106.824054 6.54948),translate(106.8125 -6.592499999999999),rotate(-30),translate(-106.8125 6.592499999999999)" >tanahbaru-bendleft3</text>
    <line x1="106.824654" y1="-6.550355" x2="106.824933" y2="-6.552337" style="stroke:rgb(255,0,0);stroke-width:.00002" />
    <line x1="106.82485204743845" y1="-6.550327121475616" x2="106.82499154743846" y2="-6.5513181214756155" style="stroke:rgb(0,0,0);stroke-width:.00002" />
    <line x1="106.82499154743846" y1="-6.5513181214756155" x2="106.82499154743846" y2="-6.5513181214756155" style="stroke:rgb(0,0,0);stroke-width:.00002" />
    <line x1="106.82499154743846" y1="-6.5513181214756155" x2="106.82513104743846" y2="-6.5523091214756155" style="stroke:rgb(0,0,0);stroke-width:.00002" />
    <circle cx="106.824654" cy="-6.550355" fill="rgb(255,0,0)" r=".0001" />
    <text x="106.824654" y="-6.550355" stroke="rgb(0,0,0)" transform="translate(106.824654 -6.550355),scale(0.00001 -0.00001),translate(-106.824654 6.550355),translate(106.8125 -6.592499999999999),rotate(-30),translate(-106.8125 6.592499999999999)" >tanahbaru-bendleft2</text>
    <line x1="106.824933" y1="-6.552337" x2="106.823099" y2="-6.556675" style="stroke:rgb(255,0,0);stroke-width:.00002" />
    <line x1="106.82511721337133" y1="-6.552414880895116" x2="106.82420021337133" y2="-6.554583880895116" style="stroke:rgb(0,0,0);stroke-width:.00002" />
    <line x1="106.82420021337133" y1="-6.554583880895116" x2="106.82420021337133" y2="-6.554583880895116" style="stroke:rgb(0,0,0);stroke-width:.00002" />
    <line x1="106.82420021337133" y1="-6.554583880895116" x2="106.82328321337133" y2="-6.556752880895116" style="stroke:rgb(0,0,0);stroke-width:.00002" />
    <circle cx="106.824933" cy="-6.552337" fill="rgb(255,0,0)" r=".0001" />
    <text x="106.824933" y="-6.552337" stroke="rgb(0,0,0)" transform="translate(106.824933 -6.552337),scale(0.00001 -0.00001),translate(-106.824933 6.552337),translate(106.8125 -6.592499999999999),rotate(-30),translate(-106.8125 6.592499999999999)" >tanahbaru-bendleft1</text>
    <line x1="106.823099" y1="-6.556675" x2="106.821972" y2="-6.569689" style="stroke:rgb(255,0,0);stroke-width:.00002" />
    <line x1="106.82329825425238" y1="-6.556692255228403" x2="106.82273475425238" y2="-6.563199255228403" style="stroke:rgb(0,0,0);stroke-width:.00002" />
    <line x1="106.82273475425238" y1="-6.563199255228403" x2="106.82273475425238" y2="-6.563199255228403" style="stroke:rgb(0,0,0);stroke-width:.00002" />
    <line x1="106.82273475425238" y1="-6.563199255228403" x2="106.82217125425238" y2="-6.569706255228403" style="stroke:rgb(0,0,0);stroke-width:.00002" />
    <circle cx="106.823099" cy="-6.556675" fill="rgb(255,0,0)" r=".0001" />
    <text x="106.823099" y="-6.556675" stroke="rgb(0,0,0)" transform="translate(106.823099 -6.556675),scale(0.00001 -0.00001),translate(-106.823099 6.556675),translate(106.8125 -6.592499999999999),rotate(-30),translate(-106.8125 6.592499999999999)" >tanahbaru-bendright</text>
    <line x1="106.821972" y1="-6.569689" x2="106.822315" y2="-6.57359" style="stroke:rgb(255,0,0);stroke-width:.00002" />
    <line x1="106.82217123135277" y1="-6.569671482349654" x2="106.82234273135278" y2="-6.571621982349654" style="stroke:rgb(0,0,0);stroke-width:.00002" />
    <line x1="106.82234273135278" y1="-6.571621982349654" x2="106.82234273135278" y2="-6.571621982349654" style="stroke:rgb(0,0,0);stroke-width:.00002" />
    <line x1="106.82234273135278" y1="-6.571621982349654" x2="106.82251423135277" y2="-6.573572482349654" style="stroke:rgb(0,0,0);stroke-width:.00002" />
    <circle cx="106.821972" cy="-6.569689" fill="rgb(255,0,0)" r=".0001" />
    <text x="106.821972" y="-6.569689" stroke="rgb(0,0,0)" transform="translate(106.821972 -6.569689),scale(0.00001 -0.00001),translate(-106.821972 6.569689),translate(106.8125 -6.592499999999999),rotate(-30),translate(-106.8125 6.592499999999999)" >tanahbaru-tol</text>
    <line x1="106.822315" y1="-6.57359" x2="106.823024" y2="-6.574123" style="stroke:rgb(255,0,0);stroke-width:.00002" />
    <line x1="106.82243518030694" y1="-6.573430135389081" x2="106.82278968030694" y2="-6.573696635389081" style="stroke:rgb(0,0,0);stroke-width:.00002" />
    <line x1="106.82278968030694" y1="-6.573696635389081" x2="106.82278968030694" y2="-6.573696635389081" style="stroke:rgb(0,0,0);stroke-width:.00002" />
    <line x1="106.82278968030694" y1="-6.573696635389081" x2="106.82314418030694" y2="-6.573963135389081" style="stroke:rgb(0,0,0);stroke-width:.00002" />
    <circle cx="106.822315" cy="-6.57359" fill="rgb(255,0,0)" r=".0001" />
    <text x="106.822315" y="-6.57359" stroke="rgb(0,0,0)" transform="translate(106.822315 -6.57359),scale(0.00001 -0.00001),translate(-106.822315 6.57359),translate(106.8125 -6.592499999999999),rotate(-30),translate(-106.8125 6.592499999999999)" >tanahbaru-swingright</text>
    <line x1="106.823024" y1="-6.574123" x2="106.821951" y2="-6.582757" style="stroke:rgb(255,0,0);stroke-width:.00002" />
    <line x1="106.82322247320755" y1="-6.574147665479696" x2="106.82268597320754" y2="-6.5784646654796965" style="stroke:rgb(0,0,0);stroke-width:.00002" />
    <line x1="106.82268597320754" y1="-6.5784646654796965" x2="106.82268597320754" y2="-6.5784646654796965" style="stroke:rgb(0,0,0);stroke-width:.00002" />
    <line x1="106.82268597320754" y1="-6.5784646654796965" x2="106.82214947320755" y2="-6.582781665479696" style="stroke:rgb(0,0,0);stroke-width:.00002" />
    <circle cx="106.823024" cy="-6.574123" fill="rgb(255,0,0)" r=".0001" />
    <text x="106.823024" y="-6.574123" stroke="rgb(0,0,0)" transform="translate(106.823024 -6.574123),scale(0.00001 -0.00001),translate(-106.823024 6.574123),translate(106.8125 -6.592499999999999),rotate(-30),translate(-106.8125 6.592499999999999)" >tanahbaru-swingleft</text>
    <line x1="106.821951" y1="-6.582757" x2="106.822994" y2="-6.582969" style="stroke:rgb(255,0,0);stroke-width:.00002" />
    <line x1="106.82199083736256" y1="-6.582561007692642" x2="106.82251233736257" y2="-6.582667007692642" style="stroke:rgb(0,0,0);stroke-width:.00002" />
    <line x1="106.82251233736257" y1="-6.582667007692642" x2="106.82251233736257" y2="-6.582667007692642" style="stroke:rgb(0,0,0);stroke-width:.00002" />
    <line x1="106.82251233736257" y1="-6.582667007692642" x2="106.82303383736256" y2="-6.5827730076926425" style="stroke:rgb(0,0,0);stroke-width:.00002" />
    <circle cx="106.821951" cy="-6.582757" fill="rgb(255,0,0)" r=".0001" />
    <text x="106.821951" y="-6.582757" stroke="rgb(0,0,0)" transform="translate(106.821951 -6.582757),scale(0.00001 -0.00001),translate(-106.821951 6.582757),translate(106.8125 -6.592499999999999),rotate(-30),translate(-106.8125 6.592499999999999)" >sogiri-swingright</text>
    <line x1="106.822994" y1="-6.582969" x2="106.820998" y2="-6.588642" style="stroke:rgb(255,0,0);stroke-width:.00002" />
    <line x1="106.82318266305661" y1="-6.583035379598274" x2="106.82218466305662" y2="-6.585871879598274" style="stroke:rgb(0,0,0);stroke-width:.00002" />
    <line x1="106.82218466305662" y1="-6.585871879598274" x2="106.82218466305662" y2="-6.585871879598274" style="stroke:rgb(0,0,0);stroke-width:.00002" />
    <line x1="106.82218466305662" y1="-6.585871879598274" x2="106.82118666305662" y2="-6.588708379598274" style="stroke:rgb(0,0,0);stroke-width:.00002" />
    <circle cx="106.822994" cy="-6.582969" fill="rgb(255,0,0)" r=".0001" />
    <text x="106.822994" y="-6.582969" stroke="rgb(0,0,0)" transform="translate(106.822994 -6.582969),scale(0.00001 -0.00001),translate(-106.822994 6.582969),translate(106.8125 -6.592499999999999),rotate(-30),translate(-106.8125 6.592499999999999)" >sogiri-swingleft</text>
    <line x1="106.820998" y1="-6.588642" x2="106.82072" y2="-6.588988" style="stroke:rgb(255,0,0);stroke-width:.00002" />
    <line x1="106.82115390964454" y1="-6.588767268442721" x2="106.82101490964453" y2="-6.588940268442721" style="stroke:rgb(0,0,0);stroke-width:.00002" />
    <line x1="106.82101490964453" y1="-6.588940268442721" x2="106.82101490964453" y2="-6.588940268442721" style="stroke:rgb(0,0,0);stroke-width:.00002" />
    <line x1="106.82101490964453" y1="-6.588940268442721" x2="106.82087590964453" y2="-6.589113268442721" style="stroke:rgb(0,0,0);stroke-width:.00002" />
    <circle cx="106.820998" cy="-6.588642" fill="rgb(255,0,0)" r=".0001" />
    <text x="106.820998" y="-6.588642" stroke="rgb(0,0,0)" transform="translate(106.820998 -6.588642),scale(0.00001 -0.00001),translate(-106.820998 6.588642),translate(106.8125 -6.592499999999999),rotate(-30),translate(-106.8125 6.592499999999999)" >wiradiredja-sogiri</text>
    <line x1="106.82072" y1="-6.588988" x2="106.818504" y2="-6.58934" style="stroke:rgb(255,0,0);stroke-width:.00002" />
    <line x1="106.82075137558981" y1="-6.589185523599511" x2="106.81964337558982" y2="-6.5893615235995115" style="stroke:rgb(0,0,0);stroke-width:.00002" />
    <line x1="106.81964337558982" y1="-6.5893615235995115" x2="106.81964337558982" y2="-6.5893615235995115" style="stroke:rgb(0,0,0);stroke-width:.00002" />
    <line x1="106.81964337558982" y1="-6.5893615235995115" x2="106.81853537558982" y2="-6.589537523599511" style="stroke:rgb(0,0,0);stroke-width:.00002" />
    <circle cx="106.82072" cy="-6.588988" fill="rgb(255,0,0)" r=".0001" />
    <text x="106.82072" y="-6.588988" stroke="rgb(0,0,0)" transform="translate(106.82072 -6.588988),scale(0.00001 -0.00001),translate(-106.82072 6.588988),translate(106.8125 -6.592499999999999),rotate(-30),translate(-106.8125 6.592499999999999)" >wiradiredja-ikhwan</text>
    <line x1="106.818504" y1="-6.58934" x2="106.818536" y2="-6.590262" style="stroke:rgb(255,0,0);stroke-width:.00002" />
    <line x1="106.81870387965004" y1="-6.589333062745337" x2="106.81871987965005" y2="-6.589794062745336" style="stroke:rgb(0,0,0);stroke-width:.00002" />
    <line x1="106.81871987965005" y1="-6.589794062745336" x2="106.81871987965005" y2="-6.589794062745336" style="stroke:rgb(0,0,0);stroke-width:.00002" />
    <line x1="106.81871987965005" y1="-6.589794062745336" x2="106.81873587965003" y2="-6.590255062745337" style="stroke:rgb(0,0,0);stroke-width:.00002" />
    <circle cx="106.818504" cy="-6.58934" fill="rgb(255,0,0)" r=".0001" />
    <text x="106.818504" y="-6.58934" stroke="rgb(0,0,0)" transform="translate(106.818504 -6.58934),scale(0.00001 -0.00001),translate(-106.818504 6.58934),translate(106.8125 -6.592499999999999),rotate(-30),translate(-106.8125 6.592499999999999)" >wiradiredja-swingright</text>
    <line x1="106.818536" y1="-6.590262" x2="106.816731" y2="-6.590755" style="stroke:rgb(255,0,0);stroke-width:.00002" />
    <line x1="106.81858869583247" y1="-6.590454933017494" x2="106.81768619583248" y2="-6.590701433017494" style="stroke:rgb(0,0,0);stroke-width:.00002" />
    <line x1="106.81768619583248" y1="-6.590701433017494" x2="106.81768619583248" y2="-6.590701433017494" style="stroke:rgb(0,0,0);stroke-width:.00002" />
    <line x1="106.81768619583248" y1="-6.590701433017494" x2="106.81678369583248" y2="-6.590947933017493" style="stroke:rgb(0,0,0);stroke-width:.00002" />
    <circle cx="106.818536" cy="-6.590262" fill="rgb(255,0,0)" r=".0001" />
    <text x="106.818536" y="-6.590262" stroke="rgb(0,0,0)" transform="translate(106.818536 -6.590262),scale(0.00001 -0.00001),translate(-106.818536 6.590262),translate(106.8125 -6.592499999999999),rotate(-30),translate(-106.8125 6.592499999999999)" >wiradiredja-swingleft</text>
    <line x1="106.816731" y1="-6.590755" x2="106.817139" y2="-6.593217" style="stroke:rgb(255,0,0);stroke-width:.00002" />
    <line x1="106.81692830902479" y1="-6.590722302159988" x2="106.81713230902479" y2="-6.591953302159989" style="stroke:rgb(0,0,0);stroke-width:.00002" />
    <line x1="106.81713230902479" y1="-6.591953302159989" x2="106.81713230902479" y2="-6.591953302159989" style="stroke:rgb(0,0,0);stroke-width:.00002" />
    <line x1="106.81713230902479" y1="-6.591953302159989" x2="106.81733630902478" y2="-6.5931843021599885" style="stroke:rgb(0,0,0);stroke-width:.00002" />
    <circle cx="106.816731" cy="-6.590755" fill="rgb(255,0,0)" r=".0001" />
    <text x="106.816731" y="-6.590755" stroke="rgb(0,0,0)" transform="translate(106.816731 -6.590755),scale(0.00001 -0.00001),translate(-106.816731 6.590755),translate(106.8125 -6.592499999999999),rotate(-30),translate(-106.8125 6.592499999999999)" >syam-tohir</text>
    <line x1="106.817139" y1="-6.593217" x2="106.817533" y2="-6.594696" style="stroke:rgb(255,0,0);stroke-width:.00002" />
    <line x1="106.81733225999447" y1="-6.59316551626922" x2="106.81752925999447" y2="-6.59390501626922" style="stroke:rgb(0,0,0);stroke-width:.00002" />
    <line x1="106.81752925999447" y1="-6.59390501626922" x2="106.81752925999447" y2="-6.59390501626922" style="stroke:rgb(0,0,0);stroke-width:.00002" />
    <line x1="106.81752925999447" y1="-6.59390501626922" x2="106.81772625999447" y2="-6.59464451626922" style="stroke:rgb(0,0,0);stroke-width:.00002" />
    <circle cx="106.817139" cy="-6.593217" fill="rgb(255,0,0)" r=".0001" />
    <text x="106.817139" y="-6.593217" stroke="rgb(0,0,0)" transform="translate(106.817139 -6.593217),scale(0.00001 -0.00001),translate(-106.817139 6.593217),translate(106.8125 -6.592499999999999),rotate(-30),translate(-106.8125 6.592499999999999)" >syam-southturn</text>
    <line x1="106.817533" y1="-6.594696" x2="106.818037" y2="-6.599529" style="stroke:rgb(255,0,0);stroke-width:.00002" />
    <line x1="106.81773192129468" y1="-6.594675255879883" x2="106.81798392129468" y2="-6.597091755879883" style="stroke:rgb(0,0,0);stroke-width:.00002" />
    <line x1="106.81798392129468" y1="-6.597091755879883" x2="106.81798392129468" y2="-6.597091755879883" style="stroke:rgb(0,0,0);stroke-width:.00002" />
    <line x1="106.81798392129468" y1="-6.597091755879883" x2="106.81823592129469" y2="-6.599508255879884" style="stroke:rgb(0,0,0);stroke-width:.00002" />
    <circle cx="106.817533" cy="-6.594696" fill="rgb(255,0,0)" r=".0001" />
    <text x="106.817533" y="-6.594696" stroke="rgb(0,0,0)" transform="translate(106.817533 -6.594696),scale(0.00001 -0.00001),translate(-106.817533 6.594696),translate(106.8125 -6.592499999999999),rotate(-30),translate(-106.8125 6.592499999999999)" >syam-papapia</text>
    <line x1="106.818037" y1="-6.599529" x2="106.8183" y2="-6.601805" style="stroke:rgb(255,0,0);stroke-width:.00002" />
    <line x1="106.81823567796138" y1="-6.599506042045765" x2="106.81836717796138" y2="-6.600644042045764" style="stroke:rgb(0,0,0);stroke-width:.00002" />
    <line x1="106.81836717796138" y1="-6.600644042045764" x2="106.81836717796138" y2="-6.600644042045764" style="stroke:rgb(0,0,0);stroke-width:.00002" />
    <line x1="106.81836717796138" y1="-6.600644042045764" x2="106.81849867796137" y2="-6.601782042045764" style="stroke:rgb(0,0,0);stroke-width:.00002" />
    <circle cx="106.818037" cy="-6.599529" fill="rgb(255,0,0)" r=".0001" />
    <text x="106.818037" y="-6.599529" stroke="rgb(0,0,0)" transform="translate(106.818037 -6.599529),scale(0.00001 -0.00001),translate(-106.818037 6.599529),translate(106.8125 -6.592499999999999),rotate(-30),translate(-106.8125 6.592499999999999)" >syam-start</text>
    <line x1="106.8183" y1="-6.601805" x2="106.817968" y2="-6.599689" style="stroke:rgb(255,0,0);stroke-width:.00002" />
    <line x1="106.81810241721605" y1="-6.60183600070145" x2="106.81793641721605" y2="-6.6007780007014505" style="stroke:rgb(0,0,0);stroke-width:.00002" />
    <line x1="106.81793641721605" y1="-6.6007780007014505" x2="106.81793641721605" y2="-6.6007780007014505" style="stroke:rgb(0,0,0);stroke-width:.00002" />
    <line x1="106.81793641721605" y1="-6.6007780007014505" x2="106.81777041721605" y2="-6.59972000070145" style="stroke:rgb(0,0,0);stroke-width:.00002" />
    <circle cx="106.8183" cy="-6.601805" fill="rgb(255,0,0)" r=".0001" />
    <text x="106.8183" y="-6.601805" stroke="rgb(0,0,0)" transform="translate(106.8183 -6.601805),scale(0.00001 -0.00001),translate(-106.8183 6.601805),translate(106.8125 -6.592499999999999),rotate(-30),translate(-106.8125 6.592499999999999)" >syam-turn</text>
    <line x1="106.817968" y1="-6.599689" x2="106.817587" y2="-6.597952" style="stroke:rgb(255,0,0);stroke-width:.00002" />
    <line x1="106.8177726442403" y1="-6.599731850054368" x2="106.81758214424032" y2="-6.598863350054368" style="stroke:rgb(0,0,0);stroke-width:.00002" />
    <line x1="106.81758214424032" y1="-6.598863350054368" x2="106.81758214424032" y2="-6.598863350054368" style="stroke:rgb(0,0,0);stroke-width:.00002" />
    <line x1="106.81758214424032" y1="-6.598863350054368" x2="106.81739164424032" y2="-6.597994850054368" style="stroke:rgb(0,0,0);stroke-width:.00002" />
    <circle cx="106.817968" cy="-6.599689" fill="rgb(255,0,0)" r=".0001" />
    <text x="106.817968" y="-6.599689" stroke="rgb(0,0,0)" transform="translate(106.817968 -6.599689),scale(0.00001 -0.00001),translate(-106.817968 6.599689),translate(106.8125 -6.592499999999999),rotate(-30),translate(-106.8125 6.592499999999999)" >ramp-syam</text>
    <line x1="106.817587" y1="-6.597952" x2="106.8172" y2="-6.5982" style="stroke:rgb(255,0,0);stroke-width:.00002" />
    <line x1="106.81769490949917" y1="-6.598120391032982" x2="106.81766980053216" y2="-6.598136481533811" style="stroke:rgb(0,0,0);stroke-width:.00002" />
    <line x1="106.81766980053216" y1="-6.598136481533811" x2="106.81744092796536" y2="-6.5985206915651355" style="stroke:rgb(0,0,0);stroke-width:.00002" />
    <line x1="106.81744092796536" y1="-6.5985206915651355" x2="106.81741581899834" y2="-6.598536782065964" style="stroke:rgb(0,0,0);stroke-width:.00002" />
    <circle cx="106.817587" cy="-6.597952" fill="rgb(255,0,0)" r=".0001" />
    <text x="106.817587" y="-6.597952" stroke="rgb(0,0,0)" transform="translate(106.817587 -6.597952),scale(0.00001 -0.00001),translate(-106.817587 6.597952),translate(106.8125 -6.592499999999999),rotate(-30),translate(-106.8125 6.592499999999999)" >padi-ramp</text>
    <line x1="106.8172" y1="-6.5982" x2="106.8137" y2="-6.6007" style="stroke:rgb(255,0,0);stroke-width:.00002" />
    <line x1="106.81743249527749" y1="-6.598525493388483" x2="106.81584524197173" y2="-6.59965924574974" style="stroke:rgb(0,0,0);stroke-width:.00002" />
    <line x1="106.81584524197173" y1="-6.59965924574974" x2="106.8154035009445" y2="-6.599728994332985" style="stroke:rgb(0,0,0);stroke-width:.00002" />
    <line x1="106.8154035009445" y1="-6.599728994332985" x2="106.81381624763874" y2="-6.600862746694241" style="stroke:rgb(0,0,0);stroke-width:.00002" />
    <circle cx="106.8172" cy="-6.5982" fill="rgb(255,0,0)" r=".0001" />
    <text x="106.8172" y="-6.5982" stroke="rgb(0,0,0)" transform="translate(106.8172 -6.5982),scale(0.00001 -0.00001),translate(-106.8172 6.5982),translate(106.8125 -6.592499999999999),rotate(-30),translate(-106.8125 6.592499999999999)" >padi-jagung</text>
    <line x1="106.8137" y1="-6.6007" x2="106.808242" y2="-6.604458" style="stroke:rgb(255,0,0);stroke-width:.00002" />
    <line x1="106.8138134210179" y1="-6.600864729088802" x2="106.8110844210179" y2="-6.602743729088803" style="stroke:rgb(0,0,0);stroke-width:.00002" />
    <line x1="106.8110844210179" y1="-6.602743729088803" x2="106.8110844210179" y2="-6.602743729088803" style="stroke:rgb(0,0,0);stroke-width:.00002" />
    <line x1="106.8110844210179" y1="-6.602743729088803" x2="106.80835542101791" y2="-6.604622729088803" style="stroke:rgb(0,0,0);stroke-width:.00002" />
    <circle cx="106.8137" cy="-6.6007" fill="rgb(255,0,0)" r=".0001" />
    <text x="106.8137" y="-6.6007" stroke="rgb(0,0,0)" transform="translate(106.8137 -6.6007),scale(0.00001 -0.00001),translate(-106.8137 6.6007),translate(106.8125 -6.592499999999999),rotate(-30),translate(-106.8125 6.592499999999999)" >ciheuleut-binamarga</text>
  </g>
</svg>
