<svg width="1049.9999999998977" height="1849.9999999999961" xmlns="http://www.w3.org/2000/svg" xmlns:xlink="http://www.w3.org/1999/xlink" >
  <g transform="translate(524.9999999999488 924.9999999999981) rotate(30) scale(10000 -10000) translate(-106.8125 6.592499999999999)">
    <path d="M106.76 -6.5 L106.865 -6.5 L106.865 -6.685 L106.76 -6.685 Z" fill="none" stroke="black" stroke-width="0.001" transform="translate(106.8125 -6.592499999999999) rotate(30) translate(-106.8125 6.592499999999999)" />
    <path d="M106.79225154442466 -6.592375193053081 L106.79225154442466 -6.592375193053081 L106.79232296839884 -6.591803801259672 L106.79479565320092 -6.591750047242235 L106.79479565320092 -6.591750047242235 L106.79689416138113 -6.591704427499187 L106.79675008644912 -6.586805879810321 L106.79675008644912 -6.586805879810321 L106.79660195079978 -6.581769267733042 L106.79649 -6.581620000000003 L106.79649 -6.581620000000003 L106.79641788760544 -6.581523850140591 L106.79491045316101 -6.581867497221714 L106.79491045316101 -6.581867497221714 L106.79340251523631 -6.582211259080312 L106.7933620583613 -6.582412010998005 L106.7933620583613 -6.582412010998005 L106.79327266743506 -6.582855579609218 L106.79235965499862 -6.583140895995608 L106.79235965499862 -6.583140895995608 L106.79152277670727 -6.5834024204616535 L106.78958425950292 -6.583249379629731 L106.78958425950292 -6.583249379629731 L106.78749437834988 -6.583084389012386 L106.78765008993929 -6.577894002698178 L106.78765008993929 -6.577894002698178 L106.78779966748772 -6.572908084417214 L106.78765122325305 -6.571572086305215 L106.78765122325305 -6.571572086305215 L106.7877 -6.5702 L106.78804877674693 -6.571527913694785 L106.78804877674693 -6.571527913694785 L106.78820033251228 -6.572891915582799 L106.78804991006069 -6.577905997301821 L106.78804991006069 -6.577905997301821 L106.78790000000001 -6.582902999324997 L106.78790000000001 -6.5864 L106.7881 -6.586800000000001 L106.7881 -6.5899392446969065 L106.78919115966045 -6.59005212328247 L106.78919115966045 -6.59005212328247 L106.7910833415956 -6.590247866241279 L106.79044133988126 -6.5932827834364165 L106.79044133988126 -6.5932827834364165 L106.78997115448061 -6.59550547805759 L106.79059701425003 -6.595661942999942 L106.79059701425003 -6.595661942999942 L106.79121155291982 -6.59581557766739 L106.791512794619 -6.594644082170595 L106.79180610962145 -6.594306493205518 L106.79220312595818 -6.592762540784857 Z" stroke="yellow" stroke-width="0.0002" fill="none" />



    <line x1="106.7924" y1="-6.5928" x2="106.7925" y2="-6.592" style="stroke:rgb(255,0,0);stroke-width:.00002" />
    <line x1="106.79220154442466" y1="-6.592775193053082" x2="106.79225154442466" y2="-6.592375193053081" style="stroke:rgb(0,0,0);stroke-width:.00002" />
    <line x1="106.79225154442466" y1="-6.592375193053081" x2="106.79225154442466" y2="-6.592375193053081" style="stroke:rgb(0,0,0);stroke-width:.00002" />
    <line x1="106.79225154442466" y1="-6.592375193053081" x2="106.79230154442466" y2="-6.591975193053081" style="stroke:rgb(0,0,0);stroke-width:.00002" />
    <circle cx="106.7924" cy="-6.5928" fill="rgb(255,0,0)" r=".0001" />
    <text x="106.7924" y="-6.5928" stroke="rgb(0,0,0)" transform="translate(106.7924 -6.5928),scale(0.00001 -0.00001),translate(-106.7924 6.5928),translate(106.8125 -6.592499999999999),rotate(-30),translate(-106.8125 6.592499999999999)" >dewisartika-mekah</text>
    <line x1="106.7925" y1="-6.592" x2="106.7971" y2="-6.5919" style="stroke:rgb(255,0,0);stroke-width:.00002" />
    <line x1="106.79249565320092" y1="-6.591800047242235" x2="106.79479565320092" y2="-6.591750047242235" style="stroke:rgb(0,0,0);stroke-width:.00002" />
    <line x1="106.79479565320092" y1="-6.591750047242235" x2="106.79479565320092" y2="-6.591750047242235" style="stroke:rgb(0,0,0);stroke-width:.00002" />
    <line x1="106.79479565320092" y1="-6.591750047242235" x2="106.79709565320091" y2="-6.591700047242235" style="stroke:rgb(0,0,0);stroke-width:.00002" />
    <circle cx="106.7925" cy="-6.592" fill="rgb(255,0,0)" r=".0001" />
    <text x="106.7925" y="-6.592" stroke="rgb(0,0,0)" transform="translate(106.7925 -6.592),scale(0.00001 -0.00001),translate(-106.7925 6.592),translate(106.8125 -6.592499999999999),rotate(-30),translate(-106.8125 6.592499999999999)" >dewisartika-pengadilan</text>
    <line x1="106.7971" y1="-6.5919" x2="106.7968" y2="-6.5817" style="stroke:rgb(255,0,0);stroke-width:.00002" />
    <line x1="106.79690008644911" y1="-6.59190587981032" x2="106.79675008644912" y2="-6.586805879810321" style="stroke:rgb(0,0,0);stroke-width:.00002" />
    <line x1="106.79675008644912" y1="-6.586805879810321" x2="106.79675008644912" y2="-6.586805879810321" style="stroke:rgb(0,0,0);stroke-width:.00002" />
    <line x1="106.79675008644912" y1="-6.586805879810321" x2="106.79660008644912" y2="-6.58170587981032" style="stroke:rgb(0,0,0);stroke-width:.00002" />
    <circle cx="106.7971" cy="-6.5919" fill="rgb(255,0,0)" r=".0001" />
    <text x="106.7971" y="-6.5919" stroke="rgb(0,0,0)" transform="translate(106.7971 -6.5919),scale(0.00001 -0.00001),translate(-106.7971 6.5919),translate(106.8125 -6.592499999999999),rotate(-30),translate(-106.8125 6.592499999999999)" >sudirman-pengadilan</text>
    <line x1="106.7968" y1="-6.5817" x2="106.7965" y2="-6.5813" style="stroke:rgb(255,0,0);stroke-width:.00002" />
    <line x1="106.79664000000001" y1="-6.581820000000002" x2="106.79649" y2="-6.581620000000003" style="stroke:rgb(0,0,0);stroke-width:.00002" />
    <line x1="106.79649" y1="-6.581620000000003" x2="106.79649" y2="-6.581620000000003" style="stroke:rgb(0,0,0);stroke-width:.00002" />
    <line x1="106.79649" y1="-6.581620000000003" x2="106.79634" y2="-6.581420000000002" style="stroke:rgb(0,0,0);stroke-width:.00002" />
    <circle cx="106.7968" cy="-6.5817" fill="rgb(255,0,0)" r=".0001" />
    <text x="106.7968" y="-6.5817" stroke="rgb(0,0,0)" transform="translate(106.7968 -6.5817),scale(0.00001 -0.00001),translate(-106.7968 6.5817),translate(106.8125 -6.592499999999999),rotate(-30),translate(-106.8125 6.592499999999999)" >sudirman-airmancur</text>
    <line x1="106.7965" y1="-6.5813" x2="106.793232" y2="-6.582045" style="stroke:rgb(255,0,0);stroke-width:.00002" />
    <line x1="106.796544453161" y1="-6.581494997221714" x2="106.79491045316101" y2="-6.581867497221714" style="stroke:rgb(0,0,0);stroke-width:.00002" />
    <line x1="106.79491045316101" y1="-6.581867497221714" x2="106.79491045316101" y2="-6.581867497221714" style="stroke:rgb(0,0,0);stroke-width:.00002" />
    <line x1="106.79491045316101" y1="-6.581867497221714" x2="106.79327645316101" y2="-6.5822399972217145" style="stroke:rgb(0,0,0);stroke-width:.00002" />
    <circle cx="106.7965" cy="-6.5813" fill="rgb(255,0,0)" r=".0001" />
    <text x="106.7965" y="-6.5813" stroke="rgb(0,0,0)" transform="translate(106.7965 -6.5813),scale(0.00001 -0.00001),translate(-106.7965 6.5813),translate(106.8125 -6.592499999999999),rotate(-30),translate(-106.8125 6.592499999999999)" >martadinata-airmancur</text>
    <line x1="106.793232" y1="-6.582045" x2="106.7931" y2="-6.5827" style="stroke:rgb(255,0,0);stroke-width:.00002" />
    <line x1="106.7934280583613" y1="-6.582084510998005" x2="106.7933620583613" y2="-6.582412010998005" style="stroke:rgb(0,0,0);stroke-width:.00002" />
    <line x1="106.7933620583613" y1="-6.582412010998005" x2="106.7933620583613" y2="-6.582412010998005" style="stroke:rgb(0,0,0);stroke-width:.00002" />
    <line x1="106.7933620583613" y1="-6.582412010998005" x2="106.79329605836129" y2="-6.582739510998005" style="stroke:rgb(0,0,0);stroke-width:.00002" />
    <circle cx="106.793232" cy="-6.582045" fill="rgb(255,0,0)" r=".0001" />
    <text x="106.793232" y="-6.582045" stroke="rgb(0,0,0)" transform="translate(106.793232 -6.582045),scale(0.00001 -0.00001),translate(-106.793232 6.582045),translate(106.8125 -6.592499999999999),rotate(-30),translate(-106.8125 6.592499999999999)" >martadinata-bubulak</text>
    <line x1="106.7931" y1="-6.5827" x2="106.7915" y2="-6.5832" style="stroke:rgb(255,0,0);stroke-width:.00002" />
    <line x1="106.79315965499862" y1="-6.582890895995607" x2="106.79235965499862" y2="-6.583140895995608" style="stroke:rgb(0,0,0);stroke-width:.00002" />
    <line x1="106.79235965499862" y1="-6.583140895995608" x2="106.79235965499862" y2="-6.583140895995608" style="stroke:rgb(0,0,0);stroke-width:.00002" />
    <line x1="106.79235965499862" y1="-6.583140895995608" x2="106.79155965499862" y2="-6.583390895995607" style="stroke:rgb(0,0,0);stroke-width:.00002" />
    <circle cx="106.7931" cy="-6.5827" fill="rgb(255,0,0)" r=".0001" />
    <text x="106.7931" y="-6.5827" stroke="rgb(0,0,0)" transform="translate(106.7931 -6.5827),scale(0.00001 -0.00001),translate(-106.7931 6.5827),translate(106.8125 -6.592499999999999),rotate(-30),translate(-106.8125 6.592499999999999)" >martadinata-2</text>
    <line x1="106.7915" y1="-6.5832" x2="106.7877" y2="-6.5829" style="stroke:rgb(255,0,0);stroke-width:.00002" />
    <line x1="106.79148425950291" y1="-6.58339937962973" x2="106.78958425950292" y2="-6.583249379629731" style="stroke:rgb(0,0,0);stroke-width:.00002" />
    <line x1="106.78958425950292" y1="-6.583249379629731" x2="106.78958425950292" y2="-6.583249379629731" style="stroke:rgb(0,0,0);stroke-width:.00002" />
    <line x1="106.78958425950292" y1="-6.583249379629731" x2="106.78768425950291" y2="-6.583099379629731" style="stroke:rgb(0,0,0);stroke-width:.00002" />
    <circle cx="106.7915" cy="-6.5832" fill="rgb(255,0,0)" r=".0001" />
    <text x="106.7915" y="-6.5832" stroke="rgb(0,0,0)" transform="translate(106.7915 -6.5832),scale(0.00001 -0.00001),translate(-106.7915 6.5832),translate(106.8125 -6.592499999999999),rotate(-30),translate(-106.8125 6.592499999999999)" >martadinata-3</text>
    <line x1="106.7877" y1="-6.5829" x2="106.788" y2="-6.5729" style="stroke:rgb(255,0,0);stroke-width:.00002" />
    <line x1="106.7875000899393" y1="-6.582894002698179" x2="106.78765008993929" y2="-6.577894002698178" style="stroke:rgb(0,0,0);stroke-width:.00002" />
    <line x1="106.78765008993929" y1="-6.577894002698178" x2="106.78765008993929" y2="-6.577894002698178" style="stroke:rgb(0,0,0);stroke-width:.00002" />
    <line x1="106.78765008993929" y1="-6.577894002698178" x2="106.7878000899393" y2="-6.572894002698178" style="stroke:rgb(0,0,0);stroke-width:.00002" />
    <circle cx="106.7877" cy="-6.5829" fill="rgb(255,0,0)" r=".0001" />
    <text x="106.7877" y="-6.5829" stroke="rgb(0,0,0)" transform="translate(106.7877 -6.5829),scale(0.00001 -0.00001),translate(-106.7877 6.5829),translate(106.8125 -6.592499999999999),rotate(-30),translate(-106.8125 6.592499999999999)" >martadinata-tentpelajar</text>
    <line x1="106.788" y1="-6.5729" x2="106.7877" y2="-6.5702" style="stroke:rgb(255,0,0);stroke-width:.00002" />
    <line x1="106.78780122325306" y1="-6.572922086305215" x2="106.78765122325305" y2="-6.571572086305215" style="stroke:rgb(0,0,0);stroke-width:.00002" />
    <line x1="106.78765122325305" y1="-6.571572086305215" x2="106.78765122325305" y2="-6.571572086305215" style="stroke:rgb(0,0,0);stroke-width:.00002" />
    <line x1="106.78765122325305" y1="-6.571572086305215" x2="106.78750122325306" y2="-6.570222086305215" style="stroke:rgb(0,0,0);stroke-width:.00002" />
    <circle cx="106.788" cy="-6.5729" fill="rgb(255,0,0)" r=".0001" />
    <text x="106.788" y="-6.5729" stroke="rgb(0,0,0)" transform="translate(106.788 -6.5729),scale(0.00001 -0.00001),translate(-106.788 6.5729),translate(106.8125 -6.592499999999999),rotate(-30),translate(-106.8125 6.592499999999999)" >tentpelajar</text>
    <line x1="106.7877" y1="-6.5702" x2="106.788" y2="-6.5729" style="stroke:rgb(255,0,0);stroke-width:.00002" />
    <line x1="106.78789877674694" y1="-6.570177913694785" x2="106.78804877674693" y2="-6.571527913694785" style="stroke:rgb(0,0,0);stroke-width:.00002" />
    <line x1="106.78804877674693" y1="-6.571527913694785" x2="106.78804877674693" y2="-6.571527913694785" style="stroke:rgb(0,0,0);stroke-width:.00002" />
    <line x1="106.78804877674693" y1="-6.571527913694785" x2="106.78819877674694" y2="-6.572877913694785" style="stroke:rgb(0,0,0);stroke-width:.00002" />
    <circle cx="106.7877" cy="-6.5702" fill="rgb(255,0,0)" r=".0001" />
    <text x="106.7877" y="-6.5702" stroke="rgb(0,0,0)" transform="translate(106.7877 -6.5702),scale(0.00001 -0.00001),translate(-106.7877 6.5702),translate(106.8125 -6.592499999999999),rotate(-30),translate(-106.8125 6.592499999999999)" >tentpelajar-cimanggu</text>
    <line x1="106.788" y1="-6.5729" x2="106.7877" y2="-6.5829" style="stroke:rgb(255,0,0);stroke-width:.00002" />
    <line x1="106.7881999100607" y1="-6.572905997301821" x2="106.78804991006069" y2="-6.577905997301821" style="stroke:rgb(0,0,0);stroke-width:.00002" />
    <line x1="106.78804991006069" y1="-6.577905997301821" x2="106.78804991006069" y2="-6.577905997301821" style="stroke:rgb(0,0,0);stroke-width:.00002" />
    <line x1="106.78804991006069" y1="-6.577905997301821" x2="106.7878999100607" y2="-6.582905997301822" style="stroke:rgb(0,0,0);stroke-width:.00002" />
    <circle cx="106.788" cy="-6.5729" fill="rgb(255,0,0)" r=".0001" />
    <text x="106.788" y="-6.5729" stroke="rgb(0,0,0)" transform="translate(106.788 -6.5729),scale(0.00001 -0.00001),translate(-106.788 6.5729),translate(106.8125 -6.592499999999999),rotate(-30),translate(-106.8125 6.592499999999999)" >tentpelajar</text>
    <line x1="106.7877" y1="-6.5829" x2="106.7877" y2="-6.5903" style="stroke:rgb(255,0,0);stroke-width:.00002" />
    <line x1="106.78790000000001" y1="-6.5829" x2="106.78790000000001" y2="-6.5864" style="stroke:rgb(0,0,0);stroke-width:.00002" />
    <line x1="106.78790000000001" y1="-6.5864" x2="106.7881" y2="-6.586800000000001" style="stroke:rgb(0,0,0);stroke-width:.00002" />
    <line x1="106.7881" y1="-6.586800000000001" x2="106.7881" y2="-6.5903" style="stroke:rgb(0,0,0);stroke-width:.00002" />
    <circle cx="106.7877" cy="-6.5829" fill="rgb(255,0,0)" r=".0001" />
    <text x="106.7877" y="-6.5829" stroke="rgb(0,0,0)" transform="translate(106.7877 -6.5829),scale(0.00001 -0.00001),translate(-106.7877 6.5829),translate(106.8125 -6.592499999999999),rotate(-30),translate(-106.8125 6.592499999999999)" >martadinata-tentpelajar</text>
    <line x1="106.7877" y1="-6.5903" x2="106.7906" y2="-6.5906" style="stroke:rgb(255,0,0);stroke-width:.00002" />
    <line x1="106.78774115966044" y1="-6.589902123282469" x2="106.78919115966045" y2="-6.59005212328247" style="stroke:rgb(0,0,0);stroke-width:.00002" />
    <line x1="106.78919115966045" y1="-6.59005212328247" x2="106.78919115966045" y2="-6.59005212328247" style="stroke:rgb(0,0,0);stroke-width:.00002" />
    <line x1="106.78919115966045" y1="-6.59005212328247" x2="106.79064115966044" y2="-6.590202123282469" style="stroke:rgb(0,0,0);stroke-width:.00002" />
    <circle cx="106.7877" cy="-6.5903" fill="rgb(255,0,0)" r=".0001" />
    <text x="106.7877" y="-6.5903" stroke="rgb(0,0,0)" transform="translate(106.7877 -6.5903),scale(0.00001 -0.00001),translate(-106.7877 6.5903),translate(106.8125 -6.592499999999999),rotate(-30),translate(-106.8125 6.592499999999999)" >merdeka-salamun</text>
    <line x1="106.7906" y1="-6.5906" x2="106.7895" y2="-6.5958" style="stroke:rgb(255,0,0);stroke-width:.00002" />
    <line x1="106.79099133988124" y1="-6.590682783436417" x2="106.79044133988126" y2="-6.5932827834364165" style="stroke:rgb(0,0,0);stroke-width:.00002" />
    <line x1="106.79044133988126" y1="-6.5932827834364165" x2="106.79044133988126" y2="-6.5932827834364165" style="stroke:rgb(0,0,0);stroke-width:.00002" />
    <line x1="106.79044133988126" y1="-6.5932827834364165" x2="106.78989133988125" y2="-6.595882783436417" style="stroke:rgb(0,0,0);stroke-width:.00002" />
    <circle cx="106.7906" cy="-6.5906" fill="rgb(255,0,0)" r=".0001" />
    <text x="106.7906" y="-6.5906" stroke="rgb(0,0,0)" transform="translate(106.7906 -6.5906),scale(0.00001 -0.00001),translate(-106.7906 6.5906),translate(106.8125 -6.592499999999999),rotate(-30),translate(-106.8125 6.592499999999999)" >salamun-oking</text>
    <line x1="106.7895" y1="-6.5958" x2="106.7915" y2="-6.5963" style="stroke:rgb(255,0,0);stroke-width:.00002" />
    <line x1="106.78959701425002" y1="-6.595411942999942" x2="106.79059701425003" y2="-6.595661942999942" style="stroke:rgb(0,0,0);stroke-width:.00002" />
    <line x1="106.79059701425003" y1="-6.595661942999942" x2="106.79059701425003" y2="-6.595661942999942" style="stroke:rgb(0,0,0);stroke-width:.00002" />
    <line x1="106.79059701425003" y1="-6.595661942999942" x2="106.79159701425002" y2="-6.595911942999942" style="stroke:rgb(0,0,0);stroke-width:.00002" />
    <circle cx="106.7895" cy="-6.5958" fill="rgb(255,0,0)" r=".0001" />
    <text x="106.7895" y="-6.5958" stroke="rgb(0,0,0)" transform="translate(106.7895 -6.5958),scale(0.00001 -0.00001),translate(-106.7895 6.5958),translate(106.8125 -6.592499999999999),rotate(-30),translate(-106.8125 6.592499999999999)" >muslihat-oking</text>
    <line x1="106.7915" y1="-6.5963" x2="106.7924" y2="-6.5928" style="stroke:rgb(255,0,0);stroke-width:.00002" />
    <line x1="106.79111260282696" y1="-6.596200383584076" x2="106.791512794619" y2="-6.594644082170595" style="stroke:rgb(0,0,0);stroke-width:.00002" />
    <line x1="106.791512794619" y1="-6.594644082170595" x2="106.79180610962145" y2="-6.594306493205518" style="stroke:rgb(0,0,0);stroke-width:.00002" />
    <line x1="106.79180610962145" y1="-6.594306493205518" x2="106.79220630141349" y2="-6.592750191792038" style="stroke:rgb(0,0,0);stroke-width:.00002" />
    <circle cx="106.7915" cy="-6.5963" fill="rgb(255,0,0)" r=".0001" />
    <text x="106.7915" y="-6.5963" stroke="rgb(0,0,0)" transform="translate(106.7915 -6.5963),scale(0.00001 -0.00001),translate(-106.7915 6.5963),translate(106.8125 -6.592499999999999),rotate(-30),translate(-106.8125 6.592499999999999)" >muslihat-dewisartika</text>
  </g>
</svg>
