<svg width="3500" height="2500" xmlns="http://www.w3.org/2000/svg" xmlns:xlink="http://www.w3.org/1999/xlink" >
  <path d="M1284.059174258587 1319.3018295880677 L1250.0856273261006 1323.934585987997 L1247.5082593607567 1334.2440578488802 L1233.2539588436475 1343.746924860171 L1222.921520212239 1330.8313765709502 L1218.567105785553 1291.6416467288973 L1208.7012606710346 1287.4134273941074 L1194.6614369940535 1249.5059034661383 L1156.330863988515 1209.5782232520492 L1133.3201999964615 1165.6487738129274 L1107.957304378715 1141.309165050085 L1026.996027013496 1171.6299867840075 L994.275841953538 1072.7991857274678 L985.1185523792338 1040.5382432178046 L975.3899448784153 1040.7492250672092 L976.6714331681925 1061.1676051501586 L971.0560638360022 1070.4632011525728 L910.4875513521193 1063.5322449347652 L907.4492767902598 1055.9953096958352 L891.380194157847 1020.0700685791098 L837.9983859341422 976.6906338413718 L838.496096278547 976.8528166088277 L785.3413130931841 979.809246770097 L782.254251225396 908.6645628950974 L671.8867922221959 780.2543432480736 L665.6655379222087 748.4242693080068 L657.8656111614123 736.6905644556343 L603.3650375363209 670.34767744948 L546.4721357650859 673.8797973835754 L390.62359365722443 608.7363536925172 L357.94786899337794 564.5062232968091 L423.28206550003245 527.3634615384716 L370.8621310068594 566.8406997801324 L396.38640634272804 601.3905693844047 L548.0078642349184 664.767125693352 L605.5520057321928 661.1945744093618 L663.9015832573136 732.222807162123 L674.9043041557456 748.7745881666486 L680.2632077778269 776.1925798288817 L784.7857487747945 897.8023601818331 L788.2086869067706 976.6876763068345 L838.4339037217359 975.3541064681172 L838.9316140661407 975.5162892355729 L893.8198058423552 1018.1768544978177 L910.2107232098433 1054.8216133810974 L912.6024486479167 1060.7546781421718 L969.4839361642238 1067.2637219243509 L973.6185668317177 1060.419317926774 L972.2000551214904 1037.817698009732 L987.3714476209017 1037.4886798591544 L996.9073941736184 1071.0836231024946 L1031.2706544633697 1078.5497353660335 L1041.2595624461574 1081.8793713602604 L1095.4028570569817 1128.502763941891 L1177.4368892070443 1167.5665887753785 L1114.6907584322462 1143.613017150792 L1149.3700573740994 1176.893151294024 L1163.709568006013 1204.2685806818854 L1199.6884991432212 1241.7466339498196 L1231.7137885035834 1238.0451504632085 L1248.6909228630338 1205.1599306185724 L1285.4422594691073 1281.9585289075021 Z" stroke="pink" stroke-width="0.5" fill="none" />
</svg>
