<svg width="1450.0000000001023" height="1550.0000000000025" xmlns="http://www.w3.org/2000/svg" xmlns:xlink="http://www.w3.org/1999/xlink" >
  <g transform="translate(725.0000000000512 775.0000000000013) rotate(0) scale(10000 -10000) translate(-106.7975 6.592499999999999)">
    <path d="M106.725 -6.515 L106.87 -6.515 L106.87 -6.67 L106.725 -6.67 Z" fill="none" stroke="black" stroke-width="0.001" transform="translate(106.7975 -6.592499999999999) rotate(0) translate(-106.7975 6.592499999999999)" />
    <path d="M106.810836313626 -6.602435453932381 L106.810836313626 -6.602435453932381 L106.8135850259529 -6.600536343597436 L106.81533375236125 -6.599287253305759 L106.81533375236125 -6.599287253305759 L106.81708637662538 -6.598035378831377 L106.81723905996076 -6.5979335899411335 L106.81723905996076 -6.5979335899411335 L106.81762871370334 -6.597673820779397 L106.81789468343366 -6.598804192133255 L106.81789468343366 -6.598804192133255 L106.81801245138045 -6.599304705907083 L106.81780857864376 -6.5995085786437615 L106.81780857864376 -6.5995085786437615 L106.81779138700283 -6.599525770284699 L106.81755103317148 -6.597170302737602 L106.81755103317148 -6.597170302737602 L106.81730283068761 -6.5947379183955706 L106.81710769521047 -6.5940549442255785 L106.81710769521047 -6.5940549442255785 L106.81690440439954 -6.593343426387275 L106.81670251187361 -6.592081598100222 L106.81670251187361 -6.592081598100222 L106.81650224710361 -6.590829943287756 L106.8160823044738 -6.589304558441228 L106.81602573593129 -6.588908578643764 L106.8162 -6.5873 L106.81684597979746 -6.588993431457505 L106.81684597979746 -6.588993431457505 L106.81703159596616 -6.590292744638458 L106.81749294245448 -6.590164592836149 L106.81749294245448 -6.590164592836149 L106.8181 -6.589995965740171 L106.8181 -6.58985 L106.8181 -6.58985 L106.8181 -6.589066169458636 L106.81952844582473 -6.58880645203596 L106.81952844582473 -6.58880645203596 L106.82046137401028 -6.588636828729496 L106.82052264990189 -6.588905470019628 L106.82074452998036 -6.588572649901889 L106.82071961895932 -6.588610016433508 L106.82171128000357 -6.585783782457394 L106.82171128000357 -6.585783782457394 L106.82263507202853 -6.583150975186252 L106.82236077677297 -6.583096116135138 L106.82236077677297 -6.583096116135138 L106.82167796263651 -6.582959553307846 L106.8222516162151 -6.578474625329838 L106.8222516162151 -6.578474625329838 L106.82278792831448 -6.574281639825479 L106.82251984172531 -6.574051851320473 L106.82251984172531 -6.574051851320473 L106.82210919360391 -6.573699867216405 L106.82190104371229 -6.5716704057731 L106.82190104371229 -6.5716704057731 L106.82169913409368 -6.569701786991692 L106.82225071215447 -6.563183137182301 L106.82225071215447 -6.563183137182301 L106.82280353434864 -6.556649783978413 L106.82376706267918 -6.5544691672303355 L106.82376706267918 -6.5544691672303355 L106.82469360191308 -6.552372262648361 L106.82455221272942 -6.551429668090585 L106.82455221272942 -6.551429668090585 L106.82440883327094 -6.550473805033942 L106.82413358994113 -6.550060940039246 L106.82413358994113 -6.550060940039246 L106.82386937330318 -6.549664615082326 L106.82352977531168 -6.549537265835514 L106.82352977531168 -6.549537265835514 L106.82301219086025 -6.549343171666224 L106.8229508213587 -6.54866810714921 L106.8229508213587 -6.54866810714921 L106.8231 -6.5481 L106.8233491786413 -6.548631892850791 L106.8233491786413 -6.548631892850791 L106.82338780913976 -6.549056828333776 L106.82367022468831 -6.5491627341644865 L106.82367022468831 -6.5491627341644865 L106.82413062669681 -6.54933538491767 L106.82446641005886 -6.549839059960754 L106.82446641005886 -6.549839059960754 L106.82479116672909 -6.5503261949660745 L106.82494778727057 -6.551370331909413 L106.82494778727057 -6.551370331909413 L106.82510639808692 -6.552427737351649 L106.82413293732081 -6.554630832769664 L106.82413293732081 -6.554630832769664 L106.82319646565135 -6.556750216021617 L106.82264928784554 -6.5632168628177 L106.82264928784554 -6.5632168628177 L106.82210086590632 -6.569698213008288 L106.82229895628772 -6.5716295942269 L106.82229895628772 -6.5716295942269 L106.82249080639609 -6.57350013278359 L106.82278015827468 -6.5737481486795275 L106.82278015827468 -6.5737481486795275 L106.8232120716855 -6.57411836017452 L106.82264838378491 -6.578525374670162 L106.82264838378491 -6.578525374670162 L106.82212203736348 -6.582640446692152 L106.82243922322704 -6.582703883864863 L106.82243922322704 -6.582703883864863 L106.82316492797148 -6.582849024813748 L106.82208871999643 -6.585916217542607 L106.82208871999643 -6.585916217542607 L106.82108038104064 -6.588789983566564 L106.82096641005886 -6.588960940039243 L106.82096641005886 -6.588960940039243 L106.82081931299487 -6.589181585635253 L106.81986832815731 -6.5895577708764 L106.81947478019326 -6.58962932505168 L106.8189 -6.589733830541365 L106.8189 -6.58985 L106.8189 -6.58985 L106.8189 -6.5906040342598295 L106.81770705754552 -6.590935407163852 L106.81770705754552 -6.590935407163852 L106.8171514466104 -6.591089743534722 L106.81729497625277 -6.591986803799558 L106.81729497625277 -6.591986803799558 L106.81749119120086 -6.593213147225176 L106.81743736056393 -6.593752750984892 L106.81754724901509 -6.594137360563948 L106.81769716931238 -6.5946620816044685 L106.8179489668285 -6.597129697262396 L106.8179489668285 -6.597129697262396 L106.8181986824327 -6.599576910183382 L106.81834832008224 -6.600724132163187 L106.81834832008224 -6.600724132163187 L106.81952970267166 -6.609781398682654 L106.81790322601796 -6.60083577708764 L106.81790322601796 -6.60083577708764 L106.81770414277682 -6.599740819261337 L106.81750531656634 -6.598895807866746 L106.81750531656634 -6.598895807866746 L106.81737128629665 -6.5983261792206065 L106.81746094003925 -6.5982664100588675 L106.81746094003925 -6.5982664100588675 L106.81731362337457 -6.598364621168647 L106.81556624763874 -6.599612746694241 L106.81556624763874 -6.599612746694241 L106.8138149740468 -6.600863656402759 L106.81106368637398 -6.602764546067618 L106.81106368637398 -6.602764546067618 L106.8082 -6.6045 Z" stroke="grey" stroke-width="0.0002" fill="none" />
    <circle 
      cx="106.8162" cy="-12.587299999999999"
      r="15" transform="translate(106.8162 -6.5873) scale(0.00001 -0.00001) translate(-106.8162 6.5873) translate(106.7975 -6.592499999999999) rotate(0) translate(-106.7975 6.592499999999999)"
      fill="white" stroke="black" stroke-width="2"/>
    <circle 
      cx="106.8231" cy="-12.5481"
      r="15" transform="translate(106.8231 -6.5481) scale(0.00001 -0.00001) translate(-106.8231 6.5481) translate(106.7975 -6.592499999999999) rotate(0) translate(-106.7975 6.592499999999999)"
      fill="white" stroke="black" stroke-width="2"/>
    <circle 
      cx="106.8082" cy="-12.6045"
      r="15" transform="translate(106.8082 -6.6045) scale(0.00001 -0.00001) translate(-106.8082 6.6045) translate(106.7975 -6.592499999999999) rotate(0) translate(-106.7975 6.592499999999999)"
      fill="white" stroke="black" stroke-width="2"/>
    <circle 
      cx="106.8162" cy="-12.587299999999999"
      r="15" transform="translate(106.8162 -6.5873) scale(0.00001 -0.00001) translate(-106.8162 6.5873) translate(106.7975 -6.592499999999999) rotate(0) translate(-106.7975 6.592499999999999)"
      fill="white" stroke="none"/>
    <circle 
      cx="106.8231" cy="-12.5481"
      r="15" transform="translate(106.8231 -6.5481) scale(0.00001 -0.00001) translate(-106.8231 6.5481) translate(106.7975 -6.592499999999999) rotate(0) translate(-106.7975 6.592499999999999)"
      fill="white" stroke="none"/>
    <circle 
      cx="106.8082" cy="-12.6045"
      r="15" transform="translate(106.8082 -6.6045) scale(0.00001 -0.00001) translate(-106.8082 6.6045) translate(106.7975 -6.592499999999999) rotate(0) translate(-106.7975 6.592499999999999)"
      fill="white" stroke="none"/>
    <text x="106.8162" y="-6.5873" fill="black" text-anchor="middle" transform="translate(106.8162 -6.5873) scale(0.00001 -0.00001) translate(-106.8162 6.5873) translate(106.7975 -6.592499999999999) rotate(0) translate(-106.7975 6.592499999999999)">17</text>
    <text x="106.8231" y="-6.5481" fill="black" text-anchor="middle" transform="translate(106.8231 -6.5481) scale(0.00001 -0.00001) translate(-106.8231 6.5481) translate(106.7975 -6.592499999999999) rotate(0) translate(-106.7975 6.592499999999999)">17</text>
    <text x="106.8082" y="-6.6045" fill="black" text-anchor="middle" transform="translate(106.8082 -6.6045) scale(0.00001 -0.00001) translate(-106.8082 6.6045) translate(106.7975 -6.592499999999999) rotate(0) translate(-106.7975 6.592499999999999)">17</text>
    <line x1="106.8082" y1="-6.6045" x2="106.8137" y2="-6.6007" style="stroke:rgb(255,0,0);stroke-width:.00002" />
    <line x1="106.8082" y1="-6.6045" x2="106.81094999999999" y2="-6.6026" style="stroke:rgb(0,0,0);stroke-width:.00002" />
    <line x1="106.81094999999999" y1="-6.6026" x2="106.81094999999999" y2="-6.6026" style="stroke:rgb(0,0,0);stroke-width:.00002" />
    <line x1="106.81094999999999" y1="-6.6026" x2="106.8137" y2="-6.6007" style="stroke:rgb(0,0,0);stroke-width:.00002" />
    <circle cx="106.8082" cy="-6.6045" fill="rgb(255,0,0)" r=".0001" />
    <text x="106.8082" y="-6.6045" stroke="rgb(0,0,0)" transform="translate(106.8082 -6.6045),scale(0.00001 -0.00001),translate(-106.8082 6.6045),translate(106.7975 -6.592499999999999),rotate(0),translate(-106.7975 6.592499999999999)" >binamarga-pos</text>
    <line x1="106.8137" y1="-6.6007" x2="106.8172" y2="-6.5982" style="stroke:rgb(255,0,0);stroke-width:.00002" />
    <line x1="106.8137" y1="-6.6007" x2="106.81545" y2="-6.59945" style="stroke:rgb(0,0,0);stroke-width:.00002" />
    <line x1="106.81545" y1="-6.59945" x2="106.81545" y2="-6.59945" style="stroke:rgb(0,0,0);stroke-width:.00002" />
    <line x1="106.81545" y1="-6.59945" x2="106.8172" y2="-6.5982" style="stroke:rgb(0,0,0);stroke-width:.00002" />
    <circle cx="106.8137" cy="-6.6007" fill="rgb(255,0,0)" r=".0001" />
    <text x="106.8137" y="-6.6007" stroke="rgb(0,0,0)" transform="translate(106.8137 -6.6007),scale(0.00001 -0.00001),translate(-106.8137 6.6007),translate(106.7975 -6.592499999999999),rotate(0),translate(-106.7975 6.592499999999999)" >ciheuleut-binamarga</text>
    <line x1="106.8172" y1="-6.5982" x2="106.8175" y2="-6.598" style="stroke:rgb(255,0,0);stroke-width:.00002" />
    <line x1="106.8172" y1="-6.5982" x2="106.81735" y2="-6.5981000000000005" style="stroke:rgb(0,0,0);stroke-width:.00002" />
    <line x1="106.81735" y1="-6.5981000000000005" x2="106.81735" y2="-6.5981000000000005" style="stroke:rgb(0,0,0);stroke-width:.00002" />
    <line x1="106.81735" y1="-6.5981000000000005" x2="106.8175" y2="-6.598" style="stroke:rgb(0,0,0);stroke-width:.00002" />
    <circle cx="106.8172" cy="-6.5982" fill="rgb(255,0,0)" r=".0001" />
    <text x="106.8172" y="-6.5982" stroke="rgb(0,0,0)" transform="translate(106.8172 -6.5982),scale(0.00001 -0.00001),translate(-106.8172 6.5982),translate(106.7975 -6.592499999999999),rotate(0),translate(-106.7975 6.592499999999999)" >padi-jagung</text>
    <line x1="106.8175" y1="-6.598" x2="106.8179" y2="-6.5997" style="stroke:rgb(255,0,0);stroke-width:.00002" />
    <line x1="106.8175" y1="-6.598" x2="106.8177" y2="-6.5988500000000005" style="stroke:rgb(0,0,0);stroke-width:.00002" />
    <line x1="106.8177" y1="-6.5988500000000005" x2="106.8177" y2="-6.5988500000000005" style="stroke:rgb(0,0,0);stroke-width:.00002" />
    <line x1="106.8177" y1="-6.5988500000000005" x2="106.8179" y2="-6.5997" style="stroke:rgb(0,0,0);stroke-width:.00002" />
    <circle cx="106.8175" cy="-6.598" fill="rgb(255,0,0)" r=".0001" />
    <text x="106.8175" y="-6.598" stroke="rgb(0,0,0)" transform="translate(106.8175 -6.598),scale(0.00001 -0.00001),translate(-106.8175 6.598),translate(106.7975 -6.592499999999999),rotate(0),translate(-106.7975 6.592499999999999)" >padi-ramp</text>
    <line x1="106.8179" y1="-6.5997" x2="106.818" y2="-6.5996" style="stroke:rgb(255,0,0);stroke-width:.00002" />
    <line x1="106.8179" y1="-6.5997" x2="106.81795" y2="-6.5996500000000005" style="stroke:rgb(0,0,0);stroke-width:.00002" />
    <line x1="106.81795" y1="-6.5996500000000005" x2="106.81795" y2="-6.5996500000000005" style="stroke:rgb(0,0,0);stroke-width:.00002" />
    <line x1="106.81795" y1="-6.5996500000000005" x2="106.818" y2="-6.5996" style="stroke:rgb(0,0,0);stroke-width:.00002" />
    <circle cx="106.8179" cy="-6.5997" fill="rgb(255,0,0)" r=".0001" />
    <text x="106.8179" y="-6.5997" stroke="rgb(0,0,0)" transform="translate(106.8179 -6.5997),scale(0.00001 -0.00001),translate(-106.8179 6.5997),translate(106.7975 -6.592499999999999),rotate(0),translate(-106.7975 6.592499999999999)" >ramp-syam</text>
    <line x1="106.818" y1="-6.5996" x2="106.8175" y2="-6.5947" style="stroke:rgb(255,0,0);stroke-width:.00002" />
    <line x1="106.818" y1="-6.5996" x2="106.81774999999999" y2="-6.597149999999999" style="stroke:rgb(0,0,0);stroke-width:.00002" />
    <line x1="106.81774999999999" y1="-6.597149999999999" x2="106.81774999999999" y2="-6.597149999999999" style="stroke:rgb(0,0,0);stroke-width:.00002" />
    <line x1="106.81774999999999" y1="-6.597149999999999" x2="106.8175" y2="-6.5947" style="stroke:rgb(0,0,0);stroke-width:.00002" />
    <circle cx="106.818" cy="-6.5996" fill="rgb(255,0,0)" r=".0001" />
    <text x="106.818" y="-6.5996" stroke="rgb(0,0,0)" transform="translate(106.818 -6.5996),scale(0.00001 -0.00001),translate(-106.818 6.5996),translate(106.7975 -6.592499999999999),rotate(0),translate(-106.7975 6.592499999999999)" >syam-start</text>
    <line x1="106.8175" y1="-6.5947" x2="106.8171" y2="-6.5933" style="stroke:rgb(255,0,0);stroke-width:.00002" />
    <line x1="106.8175" y1="-6.5947" x2="106.81729999999999" y2="-6.593999999999999" style="stroke:rgb(0,0,0);stroke-width:.00002" />
    <line x1="106.81729999999999" y1="-6.593999999999999" x2="106.81729999999999" y2="-6.593999999999999" style="stroke:rgb(0,0,0);stroke-width:.00002" />
    <line x1="106.81729999999999" y1="-6.593999999999999" x2="106.8171" y2="-6.5933" style="stroke:rgb(0,0,0);stroke-width:.00002" />
    <circle cx="106.8175" cy="-6.5947" fill="rgb(255,0,0)" r=".0001" />
    <text x="106.8175" y="-6.5947" stroke="rgb(0,0,0)" transform="translate(106.8175 -6.5947),scale(0.00001 -0.00001),translate(-106.8175 6.5947),translate(106.7975 -6.592499999999999),rotate(0),translate(-106.7975 6.592499999999999)" >syam-papapia</text>
    <line x1="106.8171" y1="-6.5933" x2="106.8167" y2="-6.5908" style="stroke:rgb(255,0,0);stroke-width:.00002" />
    <line x1="106.8171" y1="-6.5933" x2="106.8169" y2="-6.59205" style="stroke:rgb(0,0,0);stroke-width:.00002" />
    <line x1="106.8169" y1="-6.59205" x2="106.8169" y2="-6.59205" style="stroke:rgb(0,0,0);stroke-width:.00002" />
    <line x1="106.8169" y1="-6.59205" x2="106.8167" y2="-6.5908" style="stroke:rgb(0,0,0);stroke-width:.00002" />
    <circle cx="106.8171" cy="-6.5933" fill="rgb(255,0,0)" r=".0001" />
    <text x="106.8171" y="-6.5933" stroke="rgb(0,0,0)" transform="translate(106.8171 -6.5933),scale(0.00001 -0.00001),translate(-106.8171 6.5933),translate(106.7975 -6.592499999999999),rotate(0),translate(-106.7975 6.592499999999999)" >syam-southturn</text>
    <line x1="106.8167" y1="-6.5908" x2="106.8162" y2="-6.5873" style="stroke:rgb(255,0,0);stroke-width:.00002" />
    <line x1="106.8167" y1="-6.5908" x2="106.81647828427126" y2="-6.589247989898732" style="stroke:rgb(0,0,0);stroke-width:.00002" />
    <line x1="106.81647828427126" y1="-6.589247989898732" x2="106.81642171572875" y2="-6.588852010101268" style="stroke:rgb(0,0,0);stroke-width:.00002" />
    <line x1="106.81642171572875" y1="-6.588852010101268" x2="106.8162" y2="-6.5873" style="stroke:rgb(0,0,0);stroke-width:.00002" />
    <circle cx="106.8167" cy="-6.5908" fill="rgb(255,0,0)" r=".0001" />
    <text x="106.8167" y="-6.5908" stroke="rgb(0,0,0)" transform="translate(106.8167 -6.5908),scale(0.00001 -0.00001),translate(-106.8167 6.5908),translate(106.7975 -6.592499999999999),rotate(0),translate(-106.7975 6.592499999999999)" >syam-tohir</text>
    <line x1="106.8162" y1="-6.5873" x2="106.8167" y2="-6.5908" style="stroke:rgb(255,0,0);stroke-width:.00002" />
    <line x1="106.8162" y1="-6.5873" x2="106.81645" y2="-6.58905" style="stroke:rgb(0,0,0);stroke-width:.00002" />
    <line x1="106.81645" y1="-6.58905" x2="106.81645" y2="-6.58905" style="stroke:rgb(0,0,0);stroke-width:.00002" />
    <line x1="106.81645" y1="-6.58905" x2="106.8167" y2="-6.5908" style="stroke:rgb(0,0,0);stroke-width:.00002" />
    <circle cx="106.8162" cy="-6.5873" fill="rgb(255,0,0)" r=".0001" />
    <text x="106.8162" y="-6.5873" stroke="rgb(0,0,0)" transform="translate(106.8162 -6.5873),scale(0.00001 -0.00001),translate(-106.8162 6.5873),translate(106.7975 -6.592499999999999),rotate(0),translate(-106.7975 6.592499999999999)" >syam-norththturn</text>
    <line x1="106.8167" y1="-6.5908" x2="106.8185" y2="-6.5903" style="stroke:rgb(255,0,0);stroke-width:.00002" />
    <line x1="106.8167" y1="-6.5908" x2="106.8176" y2="-6.59055" style="stroke:rgb(0,0,0);stroke-width:.00002" />
    <line x1="106.8176" y1="-6.59055" x2="106.8176" y2="-6.59055" style="stroke:rgb(0,0,0);stroke-width:.00002" />
    <line x1="106.8176" y1="-6.59055" x2="106.8185" y2="-6.5903" style="stroke:rgb(0,0,0);stroke-width:.00002" />
    <circle cx="106.8167" cy="-6.5908" fill="rgb(255,0,0)" r=".0001" />
    <text x="106.8167" y="-6.5908" stroke="rgb(0,0,0)" transform="translate(106.8167 -6.5908),scale(0.00001 -0.00001),translate(-106.8167 6.5908),translate(106.7975 -6.592499999999999),rotate(0),translate(-106.7975 6.592499999999999)" >syam-tohir</text>
    <line x1="106.8185" y1="-6.5903" x2="106.8185" y2="-6.5894" style="stroke:rgb(255,0,0);stroke-width:.00002" />
    <line x1="106.8185" y1="-6.5903" x2="106.8185" y2="-6.58985" style="stroke:rgb(0,0,0);stroke-width:.00002" />
    <line x1="106.8185" y1="-6.58985" x2="106.8185" y2="-6.58985" style="stroke:rgb(0,0,0);stroke-width:.00002" />
    <line x1="106.8185" y1="-6.58985" x2="106.8185" y2="-6.5894" style="stroke:rgb(0,0,0);stroke-width:.00002" />
    <circle cx="106.8185" cy="-6.5903" fill="rgb(255,0,0)" r=".0001" />
    <text x="106.8185" y="-6.5903" stroke="rgb(0,0,0)" transform="translate(106.8185 -6.5903),scale(0.00001 -0.00001),translate(-106.8185 6.5903),translate(106.7975 -6.592499999999999),rotate(0),translate(-106.7975 6.592499999999999)" >wiradiredja-swingleft</text>
    <line x1="106.8185" y1="-6.5894" x2="106.8207" y2="-6.589" style="stroke:rgb(255,0,0);stroke-width:.00002" />
    <line x1="106.8185" y1="-6.5894" x2="106.81960000000001" y2="-6.5892" style="stroke:rgb(0,0,0);stroke-width:.00002" />
    <line x1="106.81960000000001" y1="-6.5892" x2="106.81960000000001" y2="-6.5892" style="stroke:rgb(0,0,0);stroke-width:.00002" />
    <line x1="106.81960000000001" y1="-6.5892" x2="106.8207" y2="-6.589" style="stroke:rgb(0,0,0);stroke-width:.00002" />
    <circle cx="106.8185" cy="-6.5894" fill="rgb(255,0,0)" r=".0001" />
    <text x="106.8185" y="-6.5894" stroke="rgb(0,0,0)" transform="translate(106.8185 -6.5894),scale(0.00001 -0.00001),translate(-106.8185 6.5894),translate(106.7975 -6.592499999999999),rotate(0),translate(-106.7975 6.592499999999999)" >wiradiredja-swingright</text>
    <line x1="106.8207" y1="-6.589" x2="106.8209" y2="-6.5887" style="stroke:rgb(255,0,0);stroke-width:.00002" />
    <line x1="106.8207" y1="-6.589" x2="106.82068905996076" y2="-6.58901641005887" style="stroke:rgb(0,0,0);stroke-width:.00002" />
    <line x1="106.82068905996076" y1="-6.58901641005887" x2="106.82091094003923" y2="-6.588683589941131" style="stroke:rgb(0,0,0);stroke-width:.00002" />
    <line x1="106.82091094003923" y1="-6.588683589941131" x2="106.8209" y2="-6.5887" style="stroke:rgb(0,0,0);stroke-width:.00002" />
    <circle cx="106.8207" cy="-6.589" fill="rgb(255,0,0)" r=".0001" />
    <text x="106.8207" y="-6.589" stroke="rgb(0,0,0)" transform="translate(106.8207 -6.589),scale(0.00001 -0.00001),translate(-106.8207 6.589),translate(106.7975 -6.592499999999999),rotate(0),translate(-106.7975 6.592499999999999)" >wiradiredja-ikhwan</text>
    <line x1="106.8209" y1="-6.5887" x2="106.8229" y2="-6.583" style="stroke:rgb(255,0,0);stroke-width:.00002" />
    <line x1="106.8209" y1="-6.5887" x2="106.8219" y2="-6.585850000000001" style="stroke:rgb(0,0,0);stroke-width:.00002" />
    <line x1="106.8219" y1="-6.585850000000001" x2="106.8219" y2="-6.585850000000001" style="stroke:rgb(0,0,0);stroke-width:.00002" />
    <line x1="106.8219" y1="-6.585850000000001" x2="106.8229" y2="-6.583" style="stroke:rgb(0,0,0);stroke-width:.00002" />
    <circle cx="106.8209" cy="-6.5887" fill="rgb(255,0,0)" r=".0001" />
    <text x="106.8209" y="-6.5887" stroke="rgb(0,0,0)" transform="translate(106.8209 -6.5887),scale(0.00001 -0.00001),translate(-106.8209 6.5887),translate(106.7975 -6.592499999999999),rotate(0),translate(-106.7975 6.592499999999999)" >wiradiredja-sogiri</text>
    <line x1="106.8229" y1="-6.583" x2="106.8219" y2="-6.5828" style="stroke:rgb(255,0,0);stroke-width:.00002" />
    <line x1="106.8229" y1="-6.583" x2="106.8224" y2="-6.5829" style="stroke:rgb(0,0,0);stroke-width:.00002" />
    <line x1="106.8224" y1="-6.5829" x2="106.8224" y2="-6.5829" style="stroke:rgb(0,0,0);stroke-width:.00002" />
    <line x1="106.8224" y1="-6.5829" x2="106.8219" y2="-6.5828" style="stroke:rgb(0,0,0);stroke-width:.00002" />
    <circle cx="106.8229" cy="-6.583" fill="rgb(255,0,0)" r=".0001" />
    <text x="106.8229" y="-6.583" stroke="rgb(0,0,0)" transform="translate(106.8229 -6.583),scale(0.00001 -0.00001),translate(-106.8229 6.583),translate(106.7975 -6.592499999999999),rotate(0),translate(-106.7975 6.592499999999999)" >sogiri-swingleft</text>
    <line x1="106.8219" y1="-6.5828" x2="106.823" y2="-6.5742" style="stroke:rgb(255,0,0);stroke-width:.00002" />
    <line x1="106.8219" y1="-6.5828" x2="106.82245" y2="-6.5785" style="stroke:rgb(0,0,0);stroke-width:.00002" />
    <line x1="106.82245" y1="-6.5785" x2="106.82245" y2="-6.5785" style="stroke:rgb(0,0,0);stroke-width:.00002" />
    <line x1="106.82245" y1="-6.5785" x2="106.823" y2="-6.5742" style="stroke:rgb(0,0,0);stroke-width:.00002" />
    <circle cx="106.8219" cy="-6.5828" fill="rgb(255,0,0)" r=".0001" />
    <text x="106.8219" y="-6.5828" stroke="rgb(0,0,0)" transform="translate(106.8219 -6.5828),scale(0.00001 -0.00001),translate(-106.8219 6.5828),translate(106.7975 -6.592499999999999),rotate(0),translate(-106.7975 6.592499999999999)" >sogiri-swingright</text>
    <line x1="106.823" y1="-6.5742" x2="106.8223" y2="-6.5736" style="stroke:rgb(255,0,0);stroke-width:.00002" />
    <line x1="106.823" y1="-6.5742" x2="106.82265" y2="-6.5739" style="stroke:rgb(0,0,0);stroke-width:.00002" />
    <line x1="106.82265" y1="-6.5739" x2="106.82265" y2="-6.5739" style="stroke:rgb(0,0,0);stroke-width:.00002" />
    <line x1="106.82265" y1="-6.5739" x2="106.8223" y2="-6.5736" style="stroke:rgb(0,0,0);stroke-width:.00002" />
    <circle cx="106.823" cy="-6.5742" fill="rgb(255,0,0)" r=".0001" />
    <text x="106.823" y="-6.5742" stroke="rgb(0,0,0)" transform="translate(106.823 -6.5742),scale(0.00001 -0.00001),translate(-106.823 6.5742),translate(106.7975 -6.592499999999999),rotate(0),translate(-106.7975 6.592499999999999)" >tanahbaru-swingleft</text>
    <line x1="106.8223" y1="-6.5736" x2="106.8219" y2="-6.5697" style="stroke:rgb(255,0,0);stroke-width:.00002" />
    <line x1="106.8223" y1="-6.5736" x2="106.8221" y2="-6.57165" style="stroke:rgb(0,0,0);stroke-width:.00002" />
    <line x1="106.8221" y1="-6.57165" x2="106.8221" y2="-6.57165" style="stroke:rgb(0,0,0);stroke-width:.00002" />
    <line x1="106.8221" y1="-6.57165" x2="106.8219" y2="-6.5697" style="stroke:rgb(0,0,0);stroke-width:.00002" />
    <circle cx="106.8223" cy="-6.5736" fill="rgb(255,0,0)" r=".0001" />
    <text x="106.8223" y="-6.5736" stroke="rgb(0,0,0)" transform="translate(106.8223 -6.5736),scale(0.00001 -0.00001),translate(-106.8223 6.5736),translate(106.7975 -6.592499999999999),rotate(0),translate(-106.7975 6.592499999999999)" >tanahbaru-swingright</text>
    <line x1="106.8219" y1="-6.5697" x2="106.823" y2="-6.5567" style="stroke:rgb(255,0,0);stroke-width:.00002" />
    <line x1="106.8219" y1="-6.5697" x2="106.82245" y2="-6.5632" style="stroke:rgb(0,0,0);stroke-width:.00002" />
    <line x1="106.82245" y1="-6.5632" x2="106.82245" y2="-6.5632" style="stroke:rgb(0,0,0);stroke-width:.00002" />
    <line x1="106.82245" y1="-6.5632" x2="106.823" y2="-6.5567" style="stroke:rgb(0,0,0);stroke-width:.00002" />
    <circle cx="106.8219" cy="-6.5697" fill="rgb(255,0,0)" r=".0001" />
    <text x="106.8219" y="-6.5697" stroke="rgb(0,0,0)" transform="translate(106.8219 -6.5697),scale(0.00001 -0.00001),translate(-106.8219 6.5697),translate(106.7975 -6.592499999999999),rotate(0),translate(-106.7975 6.592499999999999)" >tanahbaru-tol</text>
    <line x1="106.823" y1="-6.5567" x2="106.8249" y2="-6.5524" style="stroke:rgb(255,0,0);stroke-width:.00002" />
    <line x1="106.823" y1="-6.5567" x2="106.82395" y2="-6.55455" style="stroke:rgb(0,0,0);stroke-width:.00002" />
    <line x1="106.82395" y1="-6.55455" x2="106.82395" y2="-6.55455" style="stroke:rgb(0,0,0);stroke-width:.00002" />
    <line x1="106.82395" y1="-6.55455" x2="106.8249" y2="-6.5524" style="stroke:rgb(0,0,0);stroke-width:.00002" />
    <circle cx="106.823" cy="-6.5567" fill="rgb(255,0,0)" r=".0001" />
    <text x="106.823" y="-6.5567" stroke="rgb(0,0,0)" transform="translate(106.823 -6.5567),scale(0.00001 -0.00001),translate(-106.823 6.5567),translate(106.7975 -6.592499999999999),rotate(0),translate(-106.7975 6.592499999999999)" >tanahbaru-bendright</text>
    <line x1="106.8249" y1="-6.5524" x2="106.8246" y2="-6.5504" style="stroke:rgb(255,0,0);stroke-width:.00002" />
    <line x1="106.8249" y1="-6.5524" x2="106.82475" y2="-6.551399999999999" style="stroke:rgb(0,0,0);stroke-width:.00002" />
    <line x1="106.82475" y1="-6.551399999999999" x2="106.82475" y2="-6.551399999999999" style="stroke:rgb(0,0,0);stroke-width:.00002" />
    <line x1="106.82475" y1="-6.551399999999999" x2="106.8246" y2="-6.5504" style="stroke:rgb(0,0,0);stroke-width:.00002" />
    <circle cx="106.8249" cy="-6.5524" fill="rgb(255,0,0)" r=".0001" />
    <text x="106.8249" y="-6.5524" stroke="rgb(0,0,0)" transform="translate(106.8249 -6.5524),scale(0.00001 -0.00001),translate(-106.8249 6.5524),translate(106.7975 -6.592499999999999),rotate(0),translate(-106.7975 6.592499999999999)" >tanahbaru-bendleft1</text>
    <line x1="106.8246" y1="-6.5504" x2="106.824" y2="-6.5495" style="stroke:rgb(255,0,0);stroke-width:.00002" />
    <line x1="106.8246" y1="-6.5504" x2="106.8243" y2="-6.54995" style="stroke:rgb(0,0,0);stroke-width:.00002" />
    <line x1="106.8243" y1="-6.54995" x2="106.8243" y2="-6.54995" style="stroke:rgb(0,0,0);stroke-width:.00002" />
    <line x1="106.8243" y1="-6.54995" x2="106.824" y2="-6.5495" style="stroke:rgb(0,0,0);stroke-width:.00002" />
    <circle cx="106.8246" cy="-6.5504" fill="rgb(255,0,0)" r=".0001" />
    <text x="106.8246" y="-6.5504" stroke="rgb(0,0,0)" transform="translate(106.8246 -6.5504),scale(0.00001 -0.00001),translate(-106.8246 6.5504),translate(106.7975 -6.592499999999999),rotate(0),translate(-106.7975 6.592499999999999)" >tanahbaru-bendleft2</text>
    <line x1="106.824" y1="-6.5495" x2="106.8232" y2="-6.5492" style="stroke:rgb(255,0,0);stroke-width:.00002" />
    <line x1="106.824" y1="-6.5495" x2="106.8236" y2="-6.5493500000000004" style="stroke:rgb(0,0,0);stroke-width:.00002" />
    <line x1="106.8236" y1="-6.5493500000000004" x2="106.8236" y2="-6.5493500000000004" style="stroke:rgb(0,0,0);stroke-width:.00002" />
    <line x1="106.8236" y1="-6.5493500000000004" x2="106.8232" y2="-6.5492" style="stroke:rgb(0,0,0);stroke-width:.00002" />
    <circle cx="106.824" cy="-6.5495" fill="rgb(255,0,0)" r=".0001" />
    <text x="106.824" y="-6.5495" stroke="rgb(0,0,0)" transform="translate(106.824 -6.5495),scale(0.00001 -0.00001),translate(-106.824 6.5495),translate(106.7975 -6.592499999999999),rotate(0),translate(-106.7975 6.592499999999999)" >tanahbaru-bendleft3</text>
    <line x1="106.8232" y1="-6.5492" x2="106.8231" y2="-6.5481" style="stroke:rgb(255,0,0);stroke-width:.00002" />
    <line x1="106.8232" y1="-6.5492" x2="106.82315" y2="-6.54865" style="stroke:rgb(0,0,0);stroke-width:.00002" />
    <line x1="106.82315" y1="-6.54865" x2="106.82315" y2="-6.54865" style="stroke:rgb(0,0,0);stroke-width:.00002" />
    <line x1="106.82315" y1="-6.54865" x2="106.8231" y2="-6.5481" style="stroke:rgb(0,0,0);stroke-width:.00002" />
    <circle cx="106.8232" cy="-6.5492" fill="rgb(255,0,0)" r=".0001" />
    <text x="106.8232" y="-6.5492" stroke="rgb(0,0,0)" transform="translate(106.8232 -6.5492),scale(0.00001 -0.00001),translate(-106.8232 6.5492),translate(106.7975 -6.592499999999999),rotate(0),translate(-106.7975 6.592499999999999)" >tanahbaru-almostthere</text>
    <line x1="106.8231" y1="-6.5481" x2="106.8232" y2="-6.5492" style="stroke:rgb(255,0,0);stroke-width:.00002" />
    <line x1="106.8231" y1="-6.5481" x2="106.82315" y2="-6.54865" style="stroke:rgb(0,0,0);stroke-width:.00002" />
    <line x1="106.82315" y1="-6.54865" x2="106.82315" y2="-6.54865" style="stroke:rgb(0,0,0);stroke-width:.00002" />
    <line x1="106.82315" y1="-6.54865" x2="106.8232" y2="-6.5492" style="stroke:rgb(0,0,0);stroke-width:.00002" />
    <circle cx="106.8231" cy="-6.5481" fill="rgb(255,0,0)" r=".0001" />
    <text x="106.8231" y="-6.5481" stroke="rgb(0,0,0)" transform="translate(106.8231 -6.5481),scale(0.00001 -0.00001),translate(-106.8231 6.5481),translate(106.7975 -6.592499999999999),rotate(0),translate(-106.7975 6.592499999999999)" >tanahbaru-cibuluh</text>
    <line x1="106.8232" y1="-6.5492" x2="106.824" y2="-6.5495" style="stroke:rgb(255,0,0);stroke-width:.00002" />
    <line x1="106.8232" y1="-6.5492" x2="106.8236" y2="-6.5493500000000004" style="stroke:rgb(0,0,0);stroke-width:.00002" />
    <line x1="106.8236" y1="-6.5493500000000004" x2="106.8236" y2="-6.5493500000000004" style="stroke:rgb(0,0,0);stroke-width:.00002" />
    <line x1="106.8236" y1="-6.5493500000000004" x2="106.824" y2="-6.5495" style="stroke:rgb(0,0,0);stroke-width:.00002" />
    <circle cx="106.8232" cy="-6.5492" fill="rgb(255,0,0)" r=".0001" />
    <text x="106.8232" y="-6.5492" stroke="rgb(0,0,0)" transform="translate(106.8232 -6.5492),scale(0.00001 -0.00001),translate(-106.8232 6.5492),translate(106.7975 -6.592499999999999),rotate(0),translate(-106.7975 6.592499999999999)" >tanahbaru-almostthere</text>
    <line x1="106.824" y1="-6.5495" x2="106.8246" y2="-6.5504" style="stroke:rgb(255,0,0);stroke-width:.00002" />
    <line x1="106.824" y1="-6.5495" x2="106.8243" y2="-6.54995" style="stroke:rgb(0,0,0);stroke-width:.00002" />
    <line x1="106.8243" y1="-6.54995" x2="106.8243" y2="-6.54995" style="stroke:rgb(0,0,0);stroke-width:.00002" />
    <line x1="106.8243" y1="-6.54995" x2="106.8246" y2="-6.5504" style="stroke:rgb(0,0,0);stroke-width:.00002" />
    <circle cx="106.824" cy="-6.5495" fill="rgb(255,0,0)" r=".0001" />
    <text x="106.824" y="-6.5495" stroke="rgb(0,0,0)" transform="translate(106.824 -6.5495),scale(0.00001 -0.00001),translate(-106.824 6.5495),translate(106.7975 -6.592499999999999),rotate(0),translate(-106.7975 6.592499999999999)" >tanahbaru-bendleft3</text>
    <line x1="106.8246" y1="-6.5504" x2="106.8249" y2="-6.5524" style="stroke:rgb(255,0,0);stroke-width:.00002" />
    <line x1="106.8246" y1="-6.5504" x2="106.82475" y2="-6.551399999999999" style="stroke:rgb(0,0,0);stroke-width:.00002" />
    <line x1="106.82475" y1="-6.551399999999999" x2="106.82475" y2="-6.551399999999999" style="stroke:rgb(0,0,0);stroke-width:.00002" />
    <line x1="106.82475" y1="-6.551399999999999" x2="106.8249" y2="-6.5524" style="stroke:rgb(0,0,0);stroke-width:.00002" />
    <circle cx="106.8246" cy="-6.5504" fill="rgb(255,0,0)" r=".0001" />
    <text x="106.8246" y="-6.5504" stroke="rgb(0,0,0)" transform="translate(106.8246 -6.5504),scale(0.00001 -0.00001),translate(-106.8246 6.5504),translate(106.7975 -6.592499999999999),rotate(0),translate(-106.7975 6.592499999999999)" >tanahbaru-bendleft2</text>
    <line x1="106.8249" y1="-6.5524" x2="106.823" y2="-6.5567" style="stroke:rgb(255,0,0);stroke-width:.00002" />
    <line x1="106.8249" y1="-6.5524" x2="106.82395" y2="-6.55455" style="stroke:rgb(0,0,0);stroke-width:.00002" />
    <line x1="106.82395" y1="-6.55455" x2="106.82395" y2="-6.55455" style="stroke:rgb(0,0,0);stroke-width:.00002" />
    <line x1="106.82395" y1="-6.55455" x2="106.823" y2="-6.5567" style="stroke:rgb(0,0,0);stroke-width:.00002" />
    <circle cx="106.8249" cy="-6.5524" fill="rgb(255,0,0)" r=".0001" />
    <text x="106.8249" y="-6.5524" stroke="rgb(0,0,0)" transform="translate(106.8249 -6.5524),scale(0.00001 -0.00001),translate(-106.8249 6.5524),translate(106.7975 -6.592499999999999),rotate(0),translate(-106.7975 6.592499999999999)" >tanahbaru-bendleft1</text>
    <line x1="106.823" y1="-6.5567" x2="106.8219" y2="-6.5697" style="stroke:rgb(255,0,0);stroke-width:.00002" />
    <line x1="106.823" y1="-6.5567" x2="106.82245" y2="-6.5632" style="stroke:rgb(0,0,0);stroke-width:.00002" />
    <line x1="106.82245" y1="-6.5632" x2="106.82245" y2="-6.5632" style="stroke:rgb(0,0,0);stroke-width:.00002" />
    <line x1="106.82245" y1="-6.5632" x2="106.8219" y2="-6.5697" style="stroke:rgb(0,0,0);stroke-width:.00002" />
    <circle cx="106.823" cy="-6.5567" fill="rgb(255,0,0)" r=".0001" />
    <text x="106.823" y="-6.5567" stroke="rgb(0,0,0)" transform="translate(106.823 -6.5567),scale(0.00001 -0.00001),translate(-106.823 6.5567),translate(106.7975 -6.592499999999999),rotate(0),translate(-106.7975 6.592499999999999)" >tanahbaru-bendright</text>
    <line x1="106.8219" y1="-6.5697" x2="106.8223" y2="-6.5736" style="stroke:rgb(255,0,0);stroke-width:.00002" />
    <line x1="106.8219" y1="-6.5697" x2="106.8221" y2="-6.57165" style="stroke:rgb(0,0,0);stroke-width:.00002" />
    <line x1="106.8221" y1="-6.57165" x2="106.8221" y2="-6.57165" style="stroke:rgb(0,0,0);stroke-width:.00002" />
    <line x1="106.8221" y1="-6.57165" x2="106.8223" y2="-6.5736" style="stroke:rgb(0,0,0);stroke-width:.00002" />
    <circle cx="106.8219" cy="-6.5697" fill="rgb(255,0,0)" r=".0001" />
    <text x="106.8219" y="-6.5697" stroke="rgb(0,0,0)" transform="translate(106.8219 -6.5697),scale(0.00001 -0.00001),translate(-106.8219 6.5697),translate(106.7975 -6.592499999999999),rotate(0),translate(-106.7975 6.592499999999999)" >tanahbaru-tol</text>
    <line x1="106.8223" y1="-6.5736" x2="106.823" y2="-6.5742" style="stroke:rgb(255,0,0);stroke-width:.00002" />
    <line x1="106.8223" y1="-6.5736" x2="106.82265" y2="-6.5739" style="stroke:rgb(0,0,0);stroke-width:.00002" />
    <line x1="106.82265" y1="-6.5739" x2="106.82265" y2="-6.5739" style="stroke:rgb(0,0,0);stroke-width:.00002" />
    <line x1="106.82265" y1="-6.5739" x2="106.823" y2="-6.5742" style="stroke:rgb(0,0,0);stroke-width:.00002" />
    <circle cx="106.8223" cy="-6.5736" fill="rgb(255,0,0)" r=".0001" />
    <text x="106.8223" y="-6.5736" stroke="rgb(0,0,0)" transform="translate(106.8223 -6.5736),scale(0.00001 -0.00001),translate(-106.8223 6.5736),translate(106.7975 -6.592499999999999),rotate(0),translate(-106.7975 6.592499999999999)" >tanahbaru-swingright</text>
    <line x1="106.823" y1="-6.5742" x2="106.8219" y2="-6.5828" style="stroke:rgb(255,0,0);stroke-width:.00002" />
    <line x1="106.823" y1="-6.5742" x2="106.82245" y2="-6.5785" style="stroke:rgb(0,0,0);stroke-width:.00002" />
    <line x1="106.82245" y1="-6.5785" x2="106.82245" y2="-6.5785" style="stroke:rgb(0,0,0);stroke-width:.00002" />
    <line x1="106.82245" y1="-6.5785" x2="106.8219" y2="-6.5828" style="stroke:rgb(0,0,0);stroke-width:.00002" />
    <circle cx="106.823" cy="-6.5742" fill="rgb(255,0,0)" r=".0001" />
    <text x="106.823" y="-6.5742" stroke="rgb(0,0,0)" transform="translate(106.823 -6.5742),scale(0.00001 -0.00001),translate(-106.823 6.5742),translate(106.7975 -6.592499999999999),rotate(0),translate(-106.7975 6.592499999999999)" >tanahbaru-swingleft</text>
    <line x1="106.8219" y1="-6.5828" x2="106.8229" y2="-6.583" style="stroke:rgb(255,0,0);stroke-width:.00002" />
    <line x1="106.8219" y1="-6.5828" x2="106.8224" y2="-6.5829" style="stroke:rgb(0,0,0);stroke-width:.00002" />
    <line x1="106.8224" y1="-6.5829" x2="106.8224" y2="-6.5829" style="stroke:rgb(0,0,0);stroke-width:.00002" />
    <line x1="106.8224" y1="-6.5829" x2="106.8229" y2="-6.583" style="stroke:rgb(0,0,0);stroke-width:.00002" />
    <circle cx="106.8219" cy="-6.5828" fill="rgb(255,0,0)" r=".0001" />
    <text x="106.8219" y="-6.5828" stroke="rgb(0,0,0)" transform="translate(106.8219 -6.5828),scale(0.00001 -0.00001),translate(-106.8219 6.5828),translate(106.7975 -6.592499999999999),rotate(0),translate(-106.7975 6.592499999999999)" >sogiri-swingright</text>
    <line x1="106.8229" y1="-6.583" x2="106.8209" y2="-6.5887" style="stroke:rgb(255,0,0);stroke-width:.00002" />
    <line x1="106.8229" y1="-6.583" x2="106.8219" y2="-6.585850000000001" style="stroke:rgb(0,0,0);stroke-width:.00002" />
    <line x1="106.8219" y1="-6.585850000000001" x2="106.8219" y2="-6.585850000000001" style="stroke:rgb(0,0,0);stroke-width:.00002" />
    <line x1="106.8219" y1="-6.585850000000001" x2="106.8209" y2="-6.5887" style="stroke:rgb(0,0,0);stroke-width:.00002" />
    <circle cx="106.8229" cy="-6.583" fill="rgb(255,0,0)" r=".0001" />
    <text x="106.8229" y="-6.583" stroke="rgb(0,0,0)" transform="translate(106.8229 -6.583),scale(0.00001 -0.00001),translate(-106.8229 6.583),translate(106.7975 -6.592499999999999),rotate(0),translate(-106.7975 6.592499999999999)" >sogiri-swingleft</text>
    <line x1="106.8209" y1="-6.5887" x2="106.8207" y2="-6.589" style="stroke:rgb(255,0,0);stroke-width:.00002" />
    <line x1="106.8209" y1="-6.5887" x2="106.82079999999999" y2="-6.588850000000001" style="stroke:rgb(0,0,0);stroke-width:.00002" />
    <line x1="106.82079999999999" y1="-6.588850000000001" x2="106.82079999999999" y2="-6.588850000000001" style="stroke:rgb(0,0,0);stroke-width:.00002" />
    <line x1="106.82079999999999" y1="-6.588850000000001" x2="106.8207" y2="-6.589" style="stroke:rgb(0,0,0);stroke-width:.00002" />
    <circle cx="106.8209" cy="-6.5887" fill="rgb(255,0,0)" r=".0001" />
    <text x="106.8209" y="-6.5887" stroke="rgb(0,0,0)" transform="translate(106.8209 -6.5887),scale(0.00001 -0.00001),translate(-106.8209 6.5887),translate(106.7975 -6.592499999999999),rotate(0),translate(-106.7975 6.592499999999999)" >wiradiredja-sogiri</text>
    <line x1="106.8207" y1="-6.589" x2="106.8185" y2="-6.5894" style="stroke:rgb(255,0,0);stroke-width:.00002" />
    <line x1="106.8207" y1="-6.589" x2="106.81979677398203" y2="-6.58916422291236" style="stroke:rgb(0,0,0);stroke-width:.00002" />
    <line x1="106.81979677398203" y1="-6.58916422291236" x2="106.81940322601798" y2="-6.58923577708764" style="stroke:rgb(0,0,0);stroke-width:.00002" />
    <line x1="106.81940322601798" y1="-6.58923577708764" x2="106.8185" y2="-6.5894" style="stroke:rgb(0,0,0);stroke-width:.00002" />
    <circle cx="106.8207" cy="-6.589" fill="rgb(255,0,0)" r=".0001" />
    <text x="106.8207" y="-6.589" stroke="rgb(0,0,0)" transform="translate(106.8207 -6.589),scale(0.00001 -0.00001),translate(-106.8207 6.589),translate(106.7975 -6.592499999999999),rotate(0),translate(-106.7975 6.592499999999999)" >wiradiredja-ikhwan</text>
    <line x1="106.8185" y1="-6.5894" x2="106.8185" y2="-6.5903" style="stroke:rgb(255,0,0);stroke-width:.00002" />
    <line x1="106.8185" y1="-6.5894" x2="106.8185" y2="-6.58985" style="stroke:rgb(0,0,0);stroke-width:.00002" />
    <line x1="106.8185" y1="-6.58985" x2="106.8185" y2="-6.58985" style="stroke:rgb(0,0,0);stroke-width:.00002" />
    <line x1="106.8185" y1="-6.58985" x2="106.8185" y2="-6.5903" style="stroke:rgb(0,0,0);stroke-width:.00002" />
    <circle cx="106.8185" cy="-6.5894" fill="rgb(255,0,0)" r=".0001" />
    <text x="106.8185" y="-6.5894" stroke="rgb(0,0,0)" transform="translate(106.8185 -6.5894),scale(0.00001 -0.00001),translate(-106.8185 6.5894),translate(106.7975 -6.592499999999999),rotate(0),translate(-106.7975 6.592499999999999)" >wiradiredja-swingright</text>
    <line x1="106.8185" y1="-6.5903" x2="106.8167" y2="-6.5908" style="stroke:rgb(255,0,0);stroke-width:.00002" />
    <line x1="106.8185" y1="-6.5903" x2="106.8176" y2="-6.59055" style="stroke:rgb(0,0,0);stroke-width:.00002" />
    <line x1="106.8176" y1="-6.59055" x2="106.8176" y2="-6.59055" style="stroke:rgb(0,0,0);stroke-width:.00002" />
    <line x1="106.8176" y1="-6.59055" x2="106.8167" y2="-6.5908" style="stroke:rgb(0,0,0);stroke-width:.00002" />
    <circle cx="106.8185" cy="-6.5903" fill="rgb(255,0,0)" r=".0001" />
    <text x="106.8185" y="-6.5903" stroke="rgb(0,0,0)" transform="translate(106.8185 -6.5903),scale(0.00001 -0.00001),translate(-106.8185 6.5903),translate(106.7975 -6.592499999999999),rotate(0),translate(-106.7975 6.592499999999999)" >wiradiredja-swingleft</text>
    <line x1="106.8167" y1="-6.5908" x2="106.8171" y2="-6.5933" style="stroke:rgb(255,0,0);stroke-width:.00002" />
    <line x1="106.8167" y1="-6.5908" x2="106.8169" y2="-6.59205" style="stroke:rgb(0,0,0);stroke-width:.00002" />
    <line x1="106.8169" y1="-6.59205" x2="106.8169" y2="-6.59205" style="stroke:rgb(0,0,0);stroke-width:.00002" />
    <line x1="106.8169" y1="-6.59205" x2="106.8171" y2="-6.5933" style="stroke:rgb(0,0,0);stroke-width:.00002" />
    <circle cx="106.8167" cy="-6.5908" fill="rgb(255,0,0)" r=".0001" />
    <text x="106.8167" y="-6.5908" stroke="rgb(0,0,0)" transform="translate(106.8167 -6.5908),scale(0.00001 -0.00001),translate(-106.8167 6.5908),translate(106.7975 -6.592499999999999),rotate(0),translate(-106.7975 6.592499999999999)" >syam-tohir</text>
    <line x1="106.8171" y1="-6.5933" x2="106.8175" y2="-6.5947" style="stroke:rgb(255,0,0);stroke-width:.00002" />
    <line x1="106.8171" y1="-6.5933" x2="106.8172450557744" y2="-6.593807695210471" style="stroke:rgb(0,0,0);stroke-width:.00002" />
    <line x1="106.8172450557744" y1="-6.593807695210471" x2="106.81735494422557" y2="-6.5941923047895274" style="stroke:rgb(0,0,0);stroke-width:.00002" />
    <line x1="106.81735494422557" y1="-6.5941923047895274" x2="106.8175" y2="-6.5947" style="stroke:rgb(0,0,0);stroke-width:.00002" />
    <circle cx="106.8171" cy="-6.5933" fill="rgb(255,0,0)" r=".0001" />
    <text x="106.8171" y="-6.5933" stroke="rgb(0,0,0)" transform="translate(106.8171 -6.5933),scale(0.00001 -0.00001),translate(-106.8171 6.5933),translate(106.7975 -6.592499999999999),rotate(0),translate(-106.7975 6.592499999999999)" >syam-southturn</text>
    <line x1="106.8175" y1="-6.5947" x2="106.818" y2="-6.5996" style="stroke:rgb(255,0,0);stroke-width:.00002" />
    <line x1="106.8175" y1="-6.5947" x2="106.81774999999999" y2="-6.597149999999999" style="stroke:rgb(0,0,0);stroke-width:.00002" />
    <line x1="106.81774999999999" y1="-6.597149999999999" x2="106.81774999999999" y2="-6.597149999999999" style="stroke:rgb(0,0,0);stroke-width:.00002" />
    <line x1="106.81774999999999" y1="-6.597149999999999" x2="106.818" y2="-6.5996" style="stroke:rgb(0,0,0);stroke-width:.00002" />
    <circle cx="106.8175" cy="-6.5947" fill="rgb(255,0,0)" r=".0001" />
    <text x="106.8175" y="-6.5947" stroke="rgb(0,0,0)" transform="translate(106.8175 -6.5947),scale(0.00001 -0.00001),translate(-106.8175 6.5947),translate(106.7975 -6.592499999999999),rotate(0),translate(-106.7975 6.592499999999999)" >syam-papapia</text>
    <line x1="106.818" y1="-6.5996" x2="106.8183" y2="-6.6019" style="stroke:rgb(255,0,0);stroke-width:.00002" />
    <line x1="106.818" y1="-6.5996" x2="106.81815" y2="-6.60075" style="stroke:rgb(0,0,0);stroke-width:.00002" />
    <line x1="106.81815" y1="-6.60075" x2="106.81815" y2="-6.60075" style="stroke:rgb(0,0,0);stroke-width:.00002" />
    <line x1="106.81815" y1="-6.60075" x2="106.8183" y2="-6.6019" style="stroke:rgb(0,0,0);stroke-width:.00002" />
    <circle cx="106.818" cy="-6.5996" fill="rgb(255,0,0)" r=".0001" />
    <text x="106.818" y="-6.5996" stroke="rgb(0,0,0)" transform="translate(106.818 -6.5996),scale(0.00001 -0.00001),translate(-106.818 6.5996),translate(106.7975 -6.592499999999999),rotate(0),translate(-106.7975 6.592499999999999)" >syam-start</text>
    <line x1="106.8183" y1="-6.6019" x2="106.8179" y2="-6.5997" style="stroke:rgb(255,0,0);stroke-width:.00002" />
    <line x1="106.8183" y1="-6.6019" x2="106.81809999999999" y2="-6.6008" style="stroke:rgb(0,0,0);stroke-width:.00002" />
    <line x1="106.81809999999999" y1="-6.6008" x2="106.81809999999999" y2="-6.6008" style="stroke:rgb(0,0,0);stroke-width:.00002" />
    <line x1="106.81809999999999" y1="-6.6008" x2="106.8179" y2="-6.5997" style="stroke:rgb(0,0,0);stroke-width:.00002" />
    <circle cx="106.8183" cy="-6.6019" fill="rgb(255,0,0)" r=".0001" />
    <text x="106.8183" y="-6.6019" stroke="rgb(0,0,0)" transform="translate(106.8183 -6.6019),scale(0.00001 -0.00001),translate(-106.8183 6.6019),translate(106.7975 -6.592499999999999),rotate(0),translate(-106.7975 6.592499999999999)" >syam-turn</text>
    <line x1="106.8179" y1="-6.5997" x2="106.8175" y2="-6.598" style="stroke:rgb(255,0,0);stroke-width:.00002" />
    <line x1="106.8179" y1="-6.5997" x2="106.8177" y2="-6.5988500000000005" style="stroke:rgb(0,0,0);stroke-width:.00002" />
    <line x1="106.8177" y1="-6.5988500000000005" x2="106.8177" y2="-6.5988500000000005" style="stroke:rgb(0,0,0);stroke-width:.00002" />
    <line x1="106.8177" y1="-6.5988500000000005" x2="106.8175" y2="-6.598" style="stroke:rgb(0,0,0);stroke-width:.00002" />
    <circle cx="106.8179" cy="-6.5997" fill="rgb(255,0,0)" r=".0001" />
    <text x="106.8179" y="-6.5997" stroke="rgb(0,0,0)" transform="translate(106.8179 -6.5997),scale(0.00001 -0.00001),translate(-106.8179 6.5997),translate(106.7975 -6.592499999999999),rotate(0),translate(-106.7975 6.592499999999999)" >ramp-syam</text>
    <line x1="106.8175" y1="-6.598" x2="106.8172" y2="-6.5982" style="stroke:rgb(255,0,0);stroke-width:.00002" />
    <line x1="106.8175" y1="-6.598" x2="106.81735" y2="-6.5981000000000005" style="stroke:rgb(0,0,0);stroke-width:.00002" />
    <line x1="106.81735" y1="-6.5981000000000005" x2="106.81735" y2="-6.5981000000000005" style="stroke:rgb(0,0,0);stroke-width:.00002" />
    <line x1="106.81735" y1="-6.5981000000000005" x2="106.8172" y2="-6.5982" style="stroke:rgb(0,0,0);stroke-width:.00002" />
    <circle cx="106.8175" cy="-6.598" fill="rgb(255,0,0)" r=".0001" />
    <text x="106.8175" y="-6.598" stroke="rgb(0,0,0)" transform="translate(106.8175 -6.598),scale(0.00001 -0.00001),translate(-106.8175 6.598),translate(106.7975 -6.592499999999999),rotate(0),translate(-106.7975 6.592499999999999)" >padi-ramp</text>
    <line x1="106.8172" y1="-6.5982" x2="106.8137" y2="-6.6007" style="stroke:rgb(255,0,0);stroke-width:.00002" />
    <line x1="106.8172" y1="-6.5982" x2="106.81545" y2="-6.59945" style="stroke:rgb(0,0,0);stroke-width:.00002" />
    <line x1="106.81545" y1="-6.59945" x2="106.81545" y2="-6.59945" style="stroke:rgb(0,0,0);stroke-width:.00002" />
    <line x1="106.81545" y1="-6.59945" x2="106.8137" y2="-6.6007" style="stroke:rgb(0,0,0);stroke-width:.00002" />
    <circle cx="106.8172" cy="-6.5982" fill="rgb(255,0,0)" r=".0001" />
    <text x="106.8172" y="-6.5982" stroke="rgb(0,0,0)" transform="translate(106.8172 -6.5982),scale(0.00001 -0.00001),translate(-106.8172 6.5982),translate(106.7975 -6.592499999999999),rotate(0),translate(-106.7975 6.592499999999999)" >padi-jagung</text>
    <line x1="106.8137" y1="-6.6007" x2="106.8082" y2="-6.6045" style="stroke:rgb(255,0,0);stroke-width:.00002" />
    <line x1="106.8137" y1="-6.6007" x2="106.81094999999999" y2="-6.6026" style="stroke:rgb(0,0,0);stroke-width:.00002" />
    <line x1="106.81094999999999" y1="-6.6026" x2="106.81094999999999" y2="-6.6026" style="stroke:rgb(0,0,0);stroke-width:.00002" />
    <line x1="106.81094999999999" y1="-6.6026" x2="106.8082" y2="-6.6045" style="stroke:rgb(0,0,0);stroke-width:.00002" />
    <circle cx="106.8137" cy="-6.6007" fill="rgb(255,0,0)" r=".0001" />
    <text x="106.8137" y="-6.6007" stroke="rgb(0,0,0)" transform="translate(106.8137 -6.6007),scale(0.00001 -0.00001),translate(-106.8137 6.6007),translate(106.7975 -6.592499999999999),rotate(0),translate(-106.7975 6.592499999999999)" >ciheuleut-binamarga</text>
  </g>
</svg>
