<svg width="1450.0000000001023" height="1550.0000000000025" xmlns="http://www.w3.org/2000/svg" xmlns:xlink="http://www.w3.org/1999/xlink" >
  <g transform="translate(725.0000000000512 775.0000000000013) rotate(0) scale(10000 -10000) translate(-106.7975 6.592499999999999)">
    <path d="M106.725 -6.515 L106.87 -6.515 L106.87 -6.67 L106.725 -6.67 Z" fill="none" stroke="black" stroke-width="0.001" transform="translate(106.7975 -6.592499999999999) rotate(0) translate(-106.7975 6.592499999999999)" />
    <path d="M106.81404230769232 -6.613961538461539 L106.81419615384615 -6.61433076923077 L106.81487321374937 -6.615955712998463 L106.81487108110292 -6.6165443843382805 L106.81500561566173 -6.616921081102919 L106.815 -6.6175 L106.81431948941184 -6.617378498602838 L106.81405042029425 -6.616625105073561 L106.8139401793758 -6.616316430501943 L106.81345769230768 -6.614638461538461 L106.81330384615384 -6.614269230769231 L106.8126452047575 -6.612688491417992 L106.8114158331671 -6.61081984660059 L106.8114158331671 -6.61081984660059 L106.81016650342484 -6.608920865392344 L106.80975623984303 -6.609026580274717 L106.80931247968606 -6.608360940039249 L106.80927830067942 -6.608309671529325 L106.80873431457505 -6.608048528137424 L106.80845147186258 -6.607765685424949 L106.80847162781691 -6.607785841379284 L106.80895400959116 -6.6071439192985775 L106.80821869356714 -6.607459054737443 L106.80793761201014 -6.6075795182618515 L106.80736717988228 -6.607199230176604 L106.80736717988228 -6.607199230176604 L106.80725791804144 -6.607126388949383 L106.80713485281375 -6.607143969696197 L106.80713485281375 -6.607143969696197 L106.8064035685503 -6.6072484388766926 L106.80574529291478 -6.606224454554789 L106.80574529291478 -6.606224454554789 L106.80547242927241 -6.6058 L106.80545000000001 -6.6058 L106.80545000000001 -6.6058 L106.80461620679917 -6.6058 L106.80530086085822 -6.603295795660747 L106.80530086085822 -6.603295795660747 L106.80478558628059 -6.600920587036978 L106.80390254305611 -6.602775413503723 L106.80078948023048 -6.6035162507622935 L106.80104861327631 -6.6034545830652265 L106.79989938604393 -6.601545675815584 L106.80059452737959 -6.605484810050851 L106.80038322273222 -6.604287417049169 L106.80112 -6.60484 L106.80112 -6.60484 L106.80193984271934 -6.605454882039497 L106.80280544897414 -6.606524160354266 L106.80280544897414 -6.606524160354266 L106.80366051492997 -6.607580418299718 L106.80431506145224 -6.6085370632168825 L106.80431506145224 -6.6085370632168825 L106.80505879065736 -6.609624052055107 L106.80479142135624 -6.609891421356236 L106.80479142135624 -6.609891421356236 L106.80478651538306 -6.609896327329415 L106.80561599990936 -6.609856750775975 L106.80648599922968 -6.610683250130274 L106.80708601224319 -6.611253262493113 L106.80901676940131 -6.613590494842403 L106.80901676940131 -6.613590494842403 L106.81086785380418 -6.615831281224826 L106.81163132120572 -6.616200928313811 L106.81194009329998 -6.616455211214955 L106.81220863434599 -6.6166763626646095 L106.81132780780835 -6.617813245553207 L106.81284570108524 -6.617307281127574 L106.81225791000746 -6.617503211486831 L106.81278009925619 -6.617450992561959 L106.81278009925619 -6.617450992561959 L106.81333330838105 -6.617395671649474 L106.81438207293547 -6.617867615698965 L106.81438207293547 -6.617867615698965 L106.81498254188811 -6.6181378267276525 L106.81495843474295 -6.618057469577113 L106.81495843474295 -6.618057469577113 L106.8148099168425 -6.61756240990893 L106.81431948941184 -6.617378498602838 L106.81405042029425 -6.616625105073561 L106.8139401793758 -6.616316430501943 L106.81345769230768 -6.614638461538461 L106.81330384615384 -6.614269230769231 L106.8126452047575 -6.612688491417992 L106.8114158331671 -6.61081984660059 L106.8114158331671 -6.61081984660059 L106.8105 -6.6087 L106.81219848706522 -6.6098261399659215 L106.81263818026639 -6.610494473631716 L106.81328607735632 -6.6114792772084146 L106.81332214002772 -6.612126104239065 L106.81440662543439 -6.611612400625377 L106.81495142126548 -6.611354339442225 L106.81605092110443 -6.6126187642570144 L106.81605092110443 -6.6126187642570144 L106.8168935995005 -6.613587844412499 L106.81694382623812 -6.613525060990489 L106.81694382623812 -6.613525060990489 L106.81719163311304 -6.613215302396817 L106.81756712020254 -6.613152721215235 L106.81756712020254 -6.613152721215235 L106.81796864339553 -6.613085800683066 L106.81819142135623 -6.61330857864376 L106.81819142135623 -6.61330857864376 L106.81826573494328 -6.613382892230801 L106.81841077677298 -6.613353883864862 L106.81841077677298 -6.613353883864862 L106.81883390460986 -6.613269258297484 L106.8189397366596 -6.6135867544468026 L106.8189397366596 -6.6135867544468026 L106.81893390460982 -6.61356925829749 L106.81901077677297 -6.613553883864862 L106.81901077677297 -6.613553883864862 L106.81904967830309 -6.6135461035588365 L106.81885729641807 -6.6128535287727574 L106.81885729641807 -6.6128535287727574 L106.818559332935 -6.611780860233715 L106.81922572186473 -6.611514304661823 L106.81922572186473 -6.611514304661823 L106.8195818090119 -6.611371869802959 L106.81940164442668 -6.609975594267525 L106.81940164442668 -6.609975594267525 L106.8194 -6.6084 L106.81979835557334 -6.609924405732474 L106.81979835557334 -6.609924405732474 L106.81996726162271 -6.611233427615084 L106.82003675444679 -6.611210263340389 L106.82003675444679 -6.611210263340389 L106.82035386299071 -6.611104560492416 L106.82072171572875 -6.611052010101268 L106.82072171572875 -6.611052010101268 L106.8211 -6.6112 L106.82077828427126 -6.611447989898732 L106.82077828427126 -6.611447989898732 L106.82044613700928 -6.611495439507586 L106.8201632455532 -6.61158973665961 L106.8201632455532 -6.61158973665961 L106.82003074170252 -6.611633904609838 L106.82014611613515 -6.612210776772973 L106.82014611613515 -6.612210776772973 L106.82028227093924 -6.612891550793516 L106.82052803687994 -6.613096355744081 L106.82052803687994 -6.613096355744081 L106.8207 -6.6135 L106.82027196312008 -6.6134036442559205 L106.82027196312008 -6.6134036442559205 L106.81991772906075 -6.613108449206483 L106.81975388386486 -6.612289223227028 L106.81975388386486 -6.612289223227028 L106.81965103753511 -6.611774991578245 L106.81937427813527 -6.611885695338178 L106.81937427813527 -6.611885695338178 L106.819040667065 -6.612019139766287 L106.81924270358193 -6.612746471227243 L106.81924270358193 -6.612746471227243 L106.81955032169691 -6.613853896441163 L106.81908922322704 -6.613946116135137 L106.81908922322704 -6.613946116135137 L106.81866609539016 -6.614030741702511 L106.81856026334039 -6.613713245553197 L106.81856026334039 -6.613713245553197 L106.81856609539015 -6.613730741702515 L106.81848922322705 -6.613746116135138 L106.81848922322705 -6.613746116135138 L106.81813426505673 -6.613817107769197 L106.81790857864377 -6.61359142135624 L106.81790857864377 -6.61359142135624 L106.81783135660444 -6.613514199316933 L106.81763287979746 -6.6135472787847664 L106.81763287979746 -6.6135472787847664 L106.81740836688697 -6.6135846976031845 L106.8172561737619 -6.61377493900951 L106.8172561737619 -6.61377493900951 L106.81690640049949 -6.614212155587501 L106.81574907889556 -6.612881235742986 L106.81574907889556 -6.612881235742986 L106.81484857873451 -6.611845660557775 L106.81403561726896 -6.612230747567779 L106.81403561726896 -6.612230747567779 L106.81325796262286 -6.612599110294875 Z" stroke="brown" stroke-width="0.0002" fill="none" />
    <circle 
      cx="106.815" cy="-12.6175"
      r="15" transform="translate(106.815 -6.6175) scale(0.00001 -0.00001) translate(-106.815 6.6175) translate(106.7975 -6.592499999999999) rotate(0) translate(-106.7975 6.592499999999999)"
      fill="white" stroke="black" stroke-width="2"/>
    <circle 
      cx="106.8105" cy="-12.608699999999999"
      r="15" transform="translate(106.8105 -6.6087) scale(0.00001 -0.00001) translate(-106.8105 6.6087) translate(106.7975 -6.592499999999999) rotate(0) translate(-106.7975 6.592499999999999)"
      fill="white" stroke="black" stroke-width="2"/>
    <circle 
      cx="106.8194" cy="-12.6084"
      r="15" transform="translate(106.8194 -6.6084) scale(0.00001 -0.00001) translate(-106.8194 6.6084) translate(106.7975 -6.592499999999999) rotate(0) translate(-106.7975 6.592499999999999)"
      fill="white" stroke="black" stroke-width="2"/>
    <circle 
      cx="106.8211" cy="-12.6112"
      r="15" transform="translate(106.8211 -6.6112) scale(0.00001 -0.00001) translate(-106.8211 6.6112) translate(106.7975 -6.592499999999999) rotate(0) translate(-106.7975 6.592499999999999)"
      fill="white" stroke="black" stroke-width="2"/>
    <circle 
      cx="106.8207" cy="-12.6135"
      r="15" transform="translate(106.8207 -6.6135) scale(0.00001 -0.00001) translate(-106.8207 6.6135) translate(106.7975 -6.592499999999999) rotate(0) translate(-106.7975 6.592499999999999)"
      fill="white" stroke="black" stroke-width="2"/>
    <circle 
      cx="106.815" cy="-12.6175"
      r="15" transform="translate(106.815 -6.6175) scale(0.00001 -0.00001) translate(-106.815 6.6175) translate(106.7975 -6.592499999999999) rotate(0) translate(-106.7975 6.592499999999999)"
      fill="white" stroke="none"/>
    <circle 
      cx="106.8105" cy="-12.608699999999999"
      r="15" transform="translate(106.8105 -6.6087) scale(0.00001 -0.00001) translate(-106.8105 6.6087) translate(106.7975 -6.592499999999999) rotate(0) translate(-106.7975 6.592499999999999)"
      fill="white" stroke="none"/>
    <circle 
      cx="106.8194" cy="-12.6084"
      r="15" transform="translate(106.8194 -6.6084) scale(0.00001 -0.00001) translate(-106.8194 6.6084) translate(106.7975 -6.592499999999999) rotate(0) translate(-106.7975 6.592499999999999)"
      fill="white" stroke="none"/>
    <circle 
      cx="106.8211" cy="-12.6112"
      r="15" transform="translate(106.8211 -6.6112) scale(0.00001 -0.00001) translate(-106.8211 6.6112) translate(106.7975 -6.592499999999999) rotate(0) translate(-106.7975 6.592499999999999)"
      fill="white" stroke="none"/>
    <circle 
      cx="106.8207" cy="-12.6135"
      r="15" transform="translate(106.8207 -6.6135) scale(0.00001 -0.00001) translate(-106.8207 6.6135) translate(106.7975 -6.592499999999999) rotate(0) translate(-106.7975 6.592499999999999)"
      fill="white" stroke="none"/>
    <text x="106.815" y="-6.6175" fill="black" text-anchor="middle" transform="translate(106.815 -6.6175) scale(0.00001 -0.00001) translate(-106.815 6.6175) translate(106.7975 -6.592499999999999) rotate(0) translate(-106.7975 6.592499999999999)">11</text>
    <text x="106.8105" y="-6.6087" fill="black" text-anchor="middle" transform="translate(106.8105 -6.6087) scale(0.00001 -0.00001) translate(-106.8105 6.6087) translate(106.7975 -6.592499999999999) rotate(0) translate(-106.7975 6.592499999999999)">11</text>
    <text x="106.8194" y="-6.6084" fill="black" text-anchor="middle" transform="translate(106.8194 -6.6084) scale(0.00001 -0.00001) translate(-106.8194 6.6084) translate(106.7975 -6.592499999999999) rotate(0) translate(-106.7975 6.592499999999999)">11</text>
    <text x="106.8211" y="-6.6112" fill="black" text-anchor="middle" transform="translate(106.8211 -6.6112) scale(0.00001 -0.00001) translate(-106.8211 6.6112) translate(106.7975 -6.592499999999999) rotate(0) translate(-106.7975 6.592499999999999)">11</text>
    <text x="106.8207" y="-6.6135" fill="black" text-anchor="middle" transform="translate(106.8207 -6.6135) scale(0.00001 -0.00001) translate(-106.8207 6.6135) translate(106.7975 -6.592499999999999) rotate(0) translate(-106.7975 6.592499999999999)">11</text>
    <line x1="106.813" y1="-6.6125" x2="106.8145" y2="-6.6161" style="stroke:rgb(255,0,0);stroke-width:.00002" />
    <line x1="106.813" y1="-6.6125" x2="106.81367307692308" y2="-6.614115384615385" style="stroke:rgb(0,0,0);stroke-width:.00002" />
    <line x1="106.81367307692308" y1="-6.614115384615385" x2="106.81382692307692" y2="-6.614484615384615" style="stroke:rgb(0,0,0);stroke-width:.00002" />
    <line x1="106.81382692307692" y1="-6.614484615384615" x2="106.8145" y2="-6.6161" style="stroke:rgb(0,0,0);stroke-width:.00002" />
    <circle cx="106.813" cy="-6.6125" fill="rgb(255,0,0)" r=".0001" />
    <text x="106.813" y="-6.6125" stroke="rgb(0,0,0)" transform="translate(106.813 -6.6125),scale(0.00001 -0.00001),translate(-106.813 6.6125),translate(106.7975 -6.592499999999999),rotate(0),translate(-106.7975 6.592499999999999)" >pajajaran-pjjindah</text>
    <line x1="106.8145" y1="-6.6161" x2="106.815" y2="-6.6175" style="stroke:rgb(255,0,0);stroke-width:.00002" />
    <line x1="106.8145" y1="-6.6161" x2="106.8146827327206" y2="-6.6166116516176805" style="stroke:rgb(0,0,0);stroke-width:.00002" />
    <line x1="106.8146827327206" y1="-6.6166116516176805" x2="106.81481726727941" y2="-6.616988348382319" style="stroke:rgb(0,0,0);stroke-width:.00002" />
    <line x1="106.81481726727941" y1="-6.616988348382319" x2="106.815" y2="-6.6175" style="stroke:rgb(0,0,0);stroke-width:.00002" />
    <circle cx="106.8145" cy="-6.6161" fill="rgb(255,0,0)" r=".0001" />
    <text x="106.8145" y="-6.6161" stroke="rgb(0,0,0)" transform="translate(106.8145 -6.6161),scale(0.00001 -0.00001),translate(-106.8145 6.6161),translate(106.7975 -6.592499999999999),rotate(0),translate(-106.7975 6.592499999999999)" >pajajaran-durian</text>
    <line x1="106.815" y1="-6.6175" x2="106.8145" y2="-6.6161" style="stroke:rgb(255,0,0);stroke-width:.00002" />
    <line x1="106.815" y1="-6.6175" x2="106.8148845345588" y2="-6.617176696764638" style="stroke:rgb(0,0,0);stroke-width:.00002" />
    <line x1="106.8148845345588" y1="-6.617176696764638" x2="106.81461546544121" y2="-6.616423303235361" style="stroke:rgb(0,0,0);stroke-width:.00002" />
    <line x1="106.81461546544121" y1="-6.616423303235361" x2="106.8145" y2="-6.6161" style="stroke:rgb(0,0,0);stroke-width:.00002" />
    <circle cx="106.815" cy="-6.6175" fill="rgb(255,0,0)" r=".0001" />
    <text x="106.815" y="-6.6175" stroke="rgb(0,0,0)" transform="translate(106.815 -6.6175),scale(0.00001 -0.00001),translate(-106.815 6.6175),translate(106.7975 -6.592499999999999),rotate(0),translate(-106.7975 6.592499999999999)" >pajajaran-ggmesjid</text>
    <line x1="106.8145" y1="-6.6161" x2="106.813" y2="-6.6125" style="stroke:rgb(255,0,0);stroke-width:.00002" />
    <line x1="106.8145" y1="-6.6161" x2="106.81382692307692" y2="-6.614484615384615" style="stroke:rgb(0,0,0);stroke-width:.00002" />
    <line x1="106.81382692307692" y1="-6.614484615384615" x2="106.81367307692308" y2="-6.614115384615385" style="stroke:rgb(0,0,0);stroke-width:.00002" />
    <line x1="106.81367307692308" y1="-6.614115384615385" x2="106.813" y2="-6.6125" style="stroke:rgb(0,0,0);stroke-width:.00002" />
    <circle cx="106.8145" cy="-6.6161" fill="rgb(255,0,0)" r=".0001" />
    <text x="106.8145" y="-6.6161" stroke="rgb(0,0,0)" transform="translate(106.8145 -6.6161),scale(0.00001 -0.00001),translate(-106.8145 6.6161),translate(106.7975 -6.592499999999999),rotate(0),translate(-106.7975 6.592499999999999)" >pajajaran-durian</text>
    <line x1="106.813" y1="-6.6125" x2="106.8105" y2="-6.6087" style="stroke:rgb(255,0,0);stroke-width:.00002" />
    <line x1="106.813" y1="-6.6125" x2="106.81175" y2="-6.6106" style="stroke:rgb(0,0,0);stroke-width:.00002" />
    <line x1="106.81175" y1="-6.6106" x2="106.81175" y2="-6.6106" style="stroke:rgb(0,0,0);stroke-width:.00002" />
    <line x1="106.81175" y1="-6.6106" x2="106.8105" y2="-6.6087" style="stroke:rgb(0,0,0);stroke-width:.00002" />
    <circle cx="106.813" cy="-6.6125" fill="rgb(255,0,0)" r=".0001" />
    <text x="106.813" y="-6.6125" stroke="rgb(0,0,0)" transform="translate(106.813 -6.6125),scale(0.00001 -0.00001),translate(-106.813 6.6125),translate(106.7975 -6.592499999999999),rotate(0),translate(-106.7975 6.592499999999999)" >pajajaran-pjjindah</text>
    <line x1="106.8105" y1="-6.6087" x2="106.8099" y2="-6.6078" style="stroke:rgb(255,0,0);stroke-width:.00002" />
    <line x1="106.8105" y1="-6.6087" x2="106.8104218800785" y2="-6.608582820117734" style="stroke:rgb(0,0,0);stroke-width:.00002" />
    <line x1="106.8104218800785" y1="-6.608582820117734" x2="106.80997811992152" y2="-6.607917179882266" style="stroke:rgb(0,0,0);stroke-width:.00002" />
    <line x1="106.80997811992152" y1="-6.607917179882266" x2="106.8099" y2="-6.6078" style="stroke:rgb(0,0,0);stroke-width:.00002" />
    <circle cx="106.8105" cy="-6.6087" fill="rgb(255,0,0)" r=".0001" />
    <text x="106.8105" y="-6.6087" stroke="rgb(0,0,0)" transform="translate(106.8105 -6.6087),scale(0.00001 -0.00001),translate(-106.8105 6.6087),translate(106.7975 -6.592499999999999),rotate(0),translate(-106.7975 6.592499999999999)" >pajajaran-michelle-bakery</text>
    <line x1="106.8099" y1="-6.6078" x2="106.8087" y2="-6.6066" style="stroke:rgb(255,0,0);stroke-width:.00002" />
    <line x1="106.8099" y1="-6.6078" x2="106.80944142135624" y2="-6.607341421356238" style="stroke:rgb(0,0,0);stroke-width:.00002" />
    <line x1="106.80944142135624" y1="-6.607341421356238" x2="106.80915857864377" y2="-6.6070585786437634" style="stroke:rgb(0,0,0);stroke-width:.00002" />
    <line x1="106.80915857864377" y1="-6.6070585786437634" x2="106.8087" y2="-6.6066" style="stroke:rgb(0,0,0);stroke-width:.00002" />
    <circle cx="106.8099" cy="-6.6078" fill="rgb(255,0,0)" r=".0001" />
    <text x="106.8099" y="-6.6078" stroke="rgb(0,0,0)" transform="translate(106.8099 -6.6078),scale(0.00001 -0.00001),translate(-106.8099 6.6078),translate(106.7975 -6.592499999999999),rotate(0),translate(-106.7975 6.592499999999999)" >pajajaran-ciheuleut</text>
    <line x1="106.8087" y1="-6.6066" x2="106.808" y2="-6.6069" style="stroke:rgb(255,0,0);stroke-width:.00002" />
    <line x1="106.8087" y1="-6.6066" x2="106.80871765801201" y2="-6.606592432280567" style="stroke:rgb(0,0,0);stroke-width:.00002" />
    <line x1="106.80871765801201" y1="-6.606592432280567" x2="106.807982341988" y2="-6.606907567719433" style="stroke:rgb(0,0,0);stroke-width:.00002" />
    <line x1="106.807982341988" y1="-6.606907567719433" x2="106.808" y2="-6.6069" style="stroke:rgb(0,0,0);stroke-width:.00002" />
    <circle cx="106.8087" cy="-6.6066" fill="rgb(255,0,0)" r=".0001" />
    <text x="106.8087" y="-6.6066" stroke="rgb(0,0,0)" transform="translate(106.8087 -6.6066),scale(0.00001 -0.00001),translate(-106.8087 6.6066),translate(106.7975 -6.592499999999999),rotate(0),translate(-106.7975 6.592499999999999)" >bangka-1</text>
    <line x1="106.808" y1="-6.6069" x2="106.8074" y2="-6.6065" style="stroke:rgb(255,0,0);stroke-width:.00002" />
    <line x1="106.808" y1="-6.6069" x2="106.80770000000001" y2="-6.6067" style="stroke:rgb(0,0,0);stroke-width:.00002" />
    <line x1="106.80770000000001" y1="-6.6067" x2="106.80770000000001" y2="-6.6067" style="stroke:rgb(0,0,0);stroke-width:.00002" />
    <line x1="106.80770000000001" y1="-6.6067" x2="106.8074" y2="-6.6065" style="stroke:rgb(0,0,0);stroke-width:.00002" />
    <circle cx="106.808" cy="-6.6069" fill="rgb(255,0,0)" r=".0001" />
    <text x="106.808" y="-6.6069" stroke="rgb(0,0,0)" transform="translate(106.808 -6.6069),scale(0.00001 -0.00001),translate(-106.808 6.6069),translate(106.7975 -6.592499999999999),rotate(0),translate(-106.7975 6.592499999999999)" >bangka-2</text>
    <line x1="106.8074" y1="-6.6065" x2="106.8067" y2="-6.6066" style="stroke:rgb(255,0,0);stroke-width:.00002" />
    <line x1="106.8074" y1="-6.6065" x2="106.80705" y2="-6.60655" style="stroke:rgb(0,0,0);stroke-width:.00002" />
    <line x1="106.80705" y1="-6.60655" x2="106.80705" y2="-6.60655" style="stroke:rgb(0,0,0);stroke-width:.00002" />
    <line x1="106.80705" y1="-6.60655" x2="106.8067" y2="-6.6066" style="stroke:rgb(0,0,0);stroke-width:.00002" />
    <circle cx="106.8074" cy="-6.6065" fill="rgb(255,0,0)" r=".0001" />
    <text x="106.8074" y="-6.6065" stroke="rgb(0,0,0)" transform="translate(106.8074 -6.6065),scale(0.00001 -0.00001),translate(-106.8074 6.6065),translate(106.7975 -6.592499999999999),rotate(0),translate(-106.7975 6.592499999999999)" >bangka-3</text>
    <line x1="106.8067" y1="-6.6066" x2="106.8058" y2="-6.6052" style="stroke:rgb(255,0,0);stroke-width:.00002" />
    <line x1="106.8067" y1="-6.6066" x2="106.80625" y2="-6.6059" style="stroke:rgb(0,0,0);stroke-width:.00002" />
    <line x1="106.80625" y1="-6.6059" x2="106.80625" y2="-6.6059" style="stroke:rgb(0,0,0);stroke-width:.00002" />
    <line x1="106.80625" y1="-6.6059" x2="106.8058" y2="-6.6052" style="stroke:rgb(0,0,0);stroke-width:.00002" />
    <circle cx="106.8067" cy="-6.6066" fill="rgb(255,0,0)" r=".0001" />
    <text x="106.8067" y="-6.6066" stroke="rgb(0,0,0)" transform="translate(106.8067 -6.6066),scale(0.00001 -0.00001),translate(-106.8067 6.6066),translate(106.7975 -6.592499999999999),rotate(0),translate(-106.7975 6.592499999999999)" >bangka-5</text>
    <line x1="106.8058" y1="-6.6052" x2="106.8051" y2="-6.6052" style="stroke:rgb(255,0,0);stroke-width:.00002" />
    <line x1="106.8058" y1="-6.6052" x2="106.80545000000001" y2="-6.6052" style="stroke:rgb(0,0,0);stroke-width:.00002" />
    <line x1="106.80545000000001" y1="-6.6052" x2="106.80545000000001" y2="-6.6052" style="stroke:rgb(0,0,0);stroke-width:.00002" />
    <line x1="106.80545000000001" y1="-6.6052" x2="106.8051" y2="-6.6052" style="stroke:rgb(0,0,0);stroke-width:.00002" />
    <circle cx="106.8058" cy="-6.6052" fill="rgb(255,0,0)" r=".0001" />
    <text x="106.8058" y="-6.6052" stroke="rgb(0,0,0)" transform="translate(106.8058 -6.6052),scale(0.00001 -0.00001),translate(-106.8058 6.6052),translate(106.7975 -6.592499999999999),rotate(0),translate(-106.7975 6.592499999999999)" >bangka-6</text>
    <line x1="106.8051" y1="-6.6052" x2="106.804329" y2="-6.601646" style="stroke:rgb(255,0,0);stroke-width:.00002" />
    <line x1="106.8051" y1="-6.6052" x2="106.80471449999999" y2="-6.603422999999999" style="stroke:rgb(0,0,0);stroke-width:.00002" />
    <line x1="106.80471449999999" y1="-6.603422999999999" x2="106.80471449999999" y2="-6.603422999999999" style="stroke:rgb(0,0,0);stroke-width:.00002" />
    <line x1="106.80471449999999" y1="-6.603422999999999" x2="106.804329" y2="-6.601646" style="stroke:rgb(0,0,0);stroke-width:.00002" />
    <circle cx="106.8051" cy="-6.6052" fill="rgb(255,0,0)" r=".0001" />
    <text x="106.8051" y="-6.6052" stroke="rgb(0,0,0)" transform="translate(106.8051 -6.6052),scale(0.00001 -0.00001),translate(-106.8051 6.6052),translate(106.7975 -6.592499999999999),rotate(0),translate(-106.7975 6.592499999999999)" >bangka-7</text>
    <line x1="106.804329" y1="-6.601646" x2="106.7999" y2="-6.6027" style="stroke:rgb(255,0,0);stroke-width:.00002" />
    <line x1="106.804329" y1="-6.601646" x2="106.8036710314128" y2="-6.601802581370714" style="stroke:rgb(0,0,0);stroke-width:.00002" />
    <line x1="106.8036710314128" y1="-6.601802581370714" x2="106.80055796858717" y2="-6.602543418629285" style="stroke:rgb(0,0,0);stroke-width:.00002" />
    <line x1="106.80055796858717" y1="-6.602543418629285" x2="106.7999" y2="-6.6027" style="stroke:rgb(0,0,0);stroke-width:.00002" />
    <circle cx="106.804329" cy="-6.601646" fill="rgb(255,0,0)" r=".0001" />
    <text x="106.804329" y="-6.601646" stroke="rgb(0,0,0)" transform="translate(106.804329 -6.601646),scale(0.00001 -0.00001),translate(-106.804329 6.601646),translate(106.7975 -6.592499999999999),rotate(0),translate(-106.7975 6.592499999999999)" >bangka-otista</text>
    <line x1="106.7999" y1="-6.6027" x2="106.8002" y2="-6.6044" style="stroke:rgb(255,0,0);stroke-width:.00002" />
    <line x1="106.7999" y1="-6.6027" x2="106.79970242933217" y2="-6.601580432882367" style="stroke:rgb(0,0,0);stroke-width:.00002" />
    <line x1="106.79970242933217" y1="-6.601580432882367" x2="106.80039757066783" y2="-6.605519567117634" style="stroke:rgb(0,0,0);stroke-width:.00002" />
    <line x1="106.80039757066783" y1="-6.605519567117634" x2="106.8002" y2="-6.6044" style="stroke:rgb(0,0,0);stroke-width:.00002" />
    <circle cx="106.7999" cy="-6.6027" fill="rgb(255,0,0)" r=".0001" />
    <text x="106.7999" y="-6.6027" stroke="rgb(0,0,0)" transform="translate(106.7999 -6.6027),scale(0.00001 -0.00001),translate(-106.7999 6.6027),translate(106.7975 -6.592499999999999),rotate(0),translate(-106.7975 6.592499999999999)" >otista-roda</text>
    <line x1="106.8002" y1="-6.6044" x2="106.8018" y2="-6.6056" style="stroke:rgb(255,0,0);stroke-width:.00002" />
    <line x1="106.8002" y1="-6.6044" x2="106.801" y2="-6.605" style="stroke:rgb(0,0,0);stroke-width:.00002" />
    <line x1="106.801" y1="-6.605" x2="106.801" y2="-6.605" style="stroke:rgb(0,0,0);stroke-width:.00002" />
    <line x1="106.801" y1="-6.605" x2="106.8018" y2="-6.6056" style="stroke:rgb(0,0,0);stroke-width:.00002" />
    <circle cx="106.8002" cy="-6.6044" fill="rgb(255,0,0)" r=".0001" />
    <text x="106.8002" y="-6.6044" stroke="rgb(0,0,0)" transform="translate(106.8002 -6.6044),scale(0.00001 -0.00001),translate(-106.8002 6.6044),translate(106.7975 -6.592499999999999),rotate(0),translate(-106.7975 6.592499999999999)" >roda-1</text>
    <line x1="106.8018" y1="-6.6056" x2="106.8035" y2="-6.6077" style="stroke:rgb(255,0,0);stroke-width:.00002" />
    <line x1="106.8018" y1="-6.6056" x2="106.80265" y2="-6.60665" style="stroke:rgb(0,0,0);stroke-width:.00002" />
    <line x1="106.80265" y1="-6.60665" x2="106.80265" y2="-6.60665" style="stroke:rgb(0,0,0);stroke-width:.00002" />
    <line x1="106.80265" y1="-6.60665" x2="106.8035" y2="-6.6077" style="stroke:rgb(0,0,0);stroke-width:.00002" />
    <circle cx="106.8018" cy="-6.6056" fill="rgb(255,0,0)" r=".0001" />
    <text x="106.8018" y="-6.6056" stroke="rgb(0,0,0)" transform="translate(106.8018 -6.6056),scale(0.00001 -0.00001),translate(-106.8018 6.6056),translate(106.7975 -6.592499999999999),rotate(0),translate(-106.7975 6.592499999999999)" >roda-2</text>
    <line x1="106.8035" y1="-6.6077" x2="106.8048" y2="-6.6096" style="stroke:rgb(255,0,0);stroke-width:.00002" />
    <line x1="106.8035" y1="-6.6077" x2="106.80414999999999" y2="-6.608650000000001" style="stroke:rgb(0,0,0);stroke-width:.00002" />
    <line x1="106.80414999999999" y1="-6.608650000000001" x2="106.80414999999999" y2="-6.608650000000001" style="stroke:rgb(0,0,0);stroke-width:.00002" />
    <line x1="106.80414999999999" y1="-6.608650000000001" x2="106.8048" y2="-6.6096" style="stroke:rgb(0,0,0);stroke-width:.00002" />
    <circle cx="106.8035" cy="-6.6077" fill="rgb(255,0,0)" r=".0001" />
    <text x="106.8035" y="-6.6077" stroke="rgb(0,0,0)" transform="translate(106.8035 -6.6077),scale(0.00001 -0.00001),translate(-106.8035 6.6077),translate(106.7975 -6.592499999999999),rotate(0),translate(-106.7975 6.592499999999999)" >roda-3</text>
    <line x1="106.8048" y1="-6.6096" x2="106.8045" y2="-6.6099" style="stroke:rgb(255,0,0);stroke-width:.00002" />
    <line x1="106.8048" y1="-6.6096" x2="106.80465000000001" y2="-6.60975" style="stroke:rgb(0,0,0);stroke-width:.00002" />
    <line x1="106.80465000000001" y1="-6.60975" x2="106.80465000000001" y2="-6.60975" style="stroke:rgb(0,0,0);stroke-width:.00002" />
    <line x1="106.80465000000001" y1="-6.60975" x2="106.8045" y2="-6.6099" style="stroke:rgb(0,0,0);stroke-width:.00002" />
    <circle cx="106.8048" cy="-6.6096" fill="rgb(255,0,0)" r=".0001" />
    <text x="106.8048" y="-6.6096" stroke="rgb(0,0,0)" transform="translate(106.8048 -6.6096),scale(0.00001 -0.00001),translate(-106.8048 6.6096),translate(106.7975 -6.592499999999999),rotate(0),translate(-106.7975 6.592499999999999)" >roda-4</text>
    <line x1="106.8045" y1="-6.6099" x2="106.8065" y2="-6.6118" style="stroke:rgb(255,0,0);stroke-width:.00002" />
    <line x1="106.8045" y1="-6.6099" x2="106.80506500033984" y2="-6.61043675032285" style="stroke:rgb(0,0,0);stroke-width:.00002" />
    <line x1="106.80506500033984" y1="-6.61043675032285" x2="106.80593499966015" y2="-6.611263249677148" style="stroke:rgb(0,0,0);stroke-width:.00002" />
    <line x1="106.80593499966015" y1="-6.611263249677148" x2="106.8065" y2="-6.6118" style="stroke:rgb(0,0,0);stroke-width:.00002" />
    <circle cx="106.8045" cy="-6.6099" fill="rgb(255,0,0)" r=".0001" />
    <text x="106.8045" y="-6.6099" stroke="rgb(0,0,0)" transform="translate(106.8045 -6.6099),scale(0.00001 -0.00001),translate(-106.8045 6.6099),translate(106.7975 -6.592499999999999),rotate(0),translate(-106.7975 6.592499999999999)" >roda-siliwangi</text>
    <line x1="106.8065" y1="-6.6118" x2="106.8103" y2="-6.6164" style="stroke:rgb(255,0,0);stroke-width:.00002" />
    <line x1="106.8065" y1="-6.6118" x2="106.8084" y2="-6.6141" style="stroke:rgb(0,0,0);stroke-width:.00002" />
    <line x1="106.8084" y1="-6.6141" x2="106.8084" y2="-6.6141" style="stroke:rgb(0,0,0);stroke-width:.00002" />
    <line x1="106.8084" y1="-6.6141" x2="106.8103" y2="-6.6164" style="stroke:rgb(0,0,0);stroke-width:.00002" />
    <circle cx="106.8065" cy="-6.6118" fill="rgb(255,0,0)" r=".0001" />
    <text x="106.8065" y="-6.6118" stroke="rgb(0,0,0)" transform="translate(106.8065 -6.6118),scale(0.00001 -0.00001),translate(-106.8065 6.6118),translate(106.7975 -6.592499999999999),rotate(0),translate(-106.7975 6.592499999999999)" >siliwangi-1</text>
    <line x1="106.8103" y1="-6.6164" x2="106.812" y2="-6.6178" style="stroke:rgb(255,0,0);stroke-width:.00002" />
    <line x1="106.8103" y1="-6.6164" x2="106.81099561395287" y2="-6.616972858549428" style="stroke:rgb(0,0,0);stroke-width:.00002" />
    <line x1="106.81099561395287" y1="-6.616972858549428" x2="106.81130438604713" y2="-6.617227141450572" style="stroke:rgb(0,0,0);stroke-width:.00002" />
    <line x1="106.81130438604713" y1="-6.617227141450572" x2="106.812" y2="-6.6178" style="stroke:rgb(0,0,0);stroke-width:.00002" />
    <circle cx="106.8103" cy="-6.6164" fill="rgb(255,0,0)" r=".0001" />
    <text x="106.8103" y="-6.6164" stroke="rgb(0,0,0)" transform="translate(106.8103 -6.6164),scale(0.00001 -0.00001),translate(-106.8103 6.6164),translate(106.7975 -6.592499999999999),rotate(0),translate(-106.7975 6.592499999999999)" >siliwangi-2</text>
    <line x1="106.812" y1="-6.6178" x2="106.8123" y2="-6.6177" style="stroke:rgb(255,0,0);stroke-width:.00002" />
    <line x1="106.812" y1="-6.6178" x2="106.81139105336156" y2="-6.618002982212817" style="stroke:rgb(0,0,0);stroke-width:.00002" />
    <line x1="106.81139105336156" y1="-6.618002982212817" x2="106.81290894663844" y2="-6.6174970177871835" style="stroke:rgb(0,0,0);stroke-width:.00002" />
    <line x1="106.81290894663844" y1="-6.6174970177871835" x2="106.8123" y2="-6.6177" style="stroke:rgb(0,0,0);stroke-width:.00002" />
    <circle cx="106.812" cy="-6.6178" fill="rgb(255,0,0)" r=".0001" />
    <text x="106.812" y="-6.6178" stroke="rgb(0,0,0)" transform="translate(106.812 -6.6178),scale(0.00001 -0.00001),translate(-106.812 6.6178),translate(106.7975 -6.592499999999999),rotate(0),translate(-106.7975 6.592499999999999)" >siliwangi-jlsukasari</text>
    <line x1="106.8123" y1="-6.6177" x2="106.8133" y2="-6.6176" style="stroke:rgb(255,0,0);stroke-width:.00002" />
    <line x1="106.8123" y1="-6.6177" x2="106.8128" y2="-6.61765" style="stroke:rgb(0,0,0);stroke-width:.00002" />
    <line x1="106.8128" y1="-6.61765" x2="106.8128" y2="-6.61765" style="stroke:rgb(0,0,0);stroke-width:.00002" />
    <line x1="106.8128" y1="-6.61765" x2="106.8133" y2="-6.6176" style="stroke:rgb(0,0,0);stroke-width:.00002" />
    <circle cx="106.8123" cy="-6.6177" fill="rgb(255,0,0)" r=".0001" />
    <text x="106.8123" y="-6.6177" stroke="rgb(0,0,0)" transform="translate(106.8123 -6.6177),scale(0.00001 -0.00001),translate(-106.8123 6.6177),translate(106.7975 -6.592499999999999),rotate(0),translate(-106.7975 6.592499999999999)" >jlsukasari-1</text>
    <line x1="106.8133" y1="-6.6176" x2="106.8153" y2="-6.6185" style="stroke:rgb(255,0,0);stroke-width:.00002" />
    <line x1="106.8133" y1="-6.6176" x2="106.8143" y2="-6.61805" style="stroke:rgb(0,0,0);stroke-width:.00002" />
    <line x1="106.8143" y1="-6.61805" x2="106.8143" y2="-6.61805" style="stroke:rgb(0,0,0);stroke-width:.00002" />
    <line x1="106.8143" y1="-6.61805" x2="106.8153" y2="-6.6185" style="stroke:rgb(0,0,0);stroke-width:.00002" />
    <circle cx="106.8133" cy="-6.6176" fill="rgb(255,0,0)" r=".0001" />
    <text x="106.8133" y="-6.6176" stroke="rgb(0,0,0)" transform="translate(106.8133 -6.6176),scale(0.00001 -0.00001),translate(-106.8133 6.6176),translate(106.7975 -6.592499999999999),rotate(0),translate(-106.7975 6.592499999999999)" >jlsukasari-2</text>
    <line x1="106.8153" y1="-6.6185" x2="106.815" y2="-6.6175" style="stroke:rgb(255,0,0);stroke-width:.00002" />
    <line x1="106.8153" y1="-6.6185" x2="106.81514999999999" y2="-6.618" style="stroke:rgb(0,0,0);stroke-width:.00002" />
    <line x1="106.81514999999999" y1="-6.618" x2="106.81514999999999" y2="-6.618" style="stroke:rgb(0,0,0);stroke-width:.00002" />
    <line x1="106.81514999999999" y1="-6.618" x2="106.815" y2="-6.6175" style="stroke:rgb(0,0,0);stroke-width:.00002" />
    <circle cx="106.8153" cy="-6.6185" fill="rgb(255,0,0)" r=".0001" />
    <text x="106.8153" y="-6.6185" stroke="rgb(0,0,0)" transform="translate(106.8153 -6.6185),scale(0.00001 -0.00001),translate(-106.8153 6.6185),translate(106.7975 -6.592499999999999),rotate(0),translate(-106.7975 6.592499999999999)" >jlsukasari-pajajaran</text>
    <line x1="106.815" y1="-6.6175" x2="106.8145" y2="-6.6161" style="stroke:rgb(255,0,0);stroke-width:.00002" />
    <line x1="106.815" y1="-6.6175" x2="106.8148845345588" y2="-6.617176696764638" style="stroke:rgb(0,0,0);stroke-width:.00002" />
    <line x1="106.8148845345588" y1="-6.617176696764638" x2="106.81461546544121" y2="-6.616423303235361" style="stroke:rgb(0,0,0);stroke-width:.00002" />
    <line x1="106.81461546544121" y1="-6.616423303235361" x2="106.8145" y2="-6.6161" style="stroke:rgb(0,0,0);stroke-width:.00002" />
    <circle cx="106.815" cy="-6.6175" fill="rgb(255,0,0)" r=".0001" />
    <text x="106.815" y="-6.6175" stroke="rgb(0,0,0)" transform="translate(106.815 -6.6175),scale(0.00001 -0.00001),translate(-106.815 6.6175),translate(106.7975 -6.592499999999999),rotate(0),translate(-106.7975 6.592499999999999)" >pajajaran-ggmesjid</text>
    <line x1="106.8145" y1="-6.6161" x2="106.813" y2="-6.6125" style="stroke:rgb(255,0,0);stroke-width:.00002" />
    <line x1="106.8145" y1="-6.6161" x2="106.81382692307692" y2="-6.614484615384615" style="stroke:rgb(0,0,0);stroke-width:.00002" />
    <line x1="106.81382692307692" y1="-6.614484615384615" x2="106.81367307692308" y2="-6.614115384615385" style="stroke:rgb(0,0,0);stroke-width:.00002" />
    <line x1="106.81367307692308" y1="-6.614115384615385" x2="106.813" y2="-6.6125" style="stroke:rgb(0,0,0);stroke-width:.00002" />
    <circle cx="106.8145" cy="-6.6161" fill="rgb(255,0,0)" r=".0001" />
    <text x="106.8145" y="-6.6161" stroke="rgb(0,0,0)" transform="translate(106.8145 -6.6161),scale(0.00001 -0.00001),translate(-106.8145 6.6161),translate(106.7975 -6.592499999999999),rotate(0),translate(-106.7975 6.592499999999999)" >pajajaran-durian</text>
    <line x1="106.813" y1="-6.6125" x2="106.8105" y2="-6.6087" style="stroke:rgb(255,0,0);stroke-width:.00002" />
    <line x1="106.813" y1="-6.6125" x2="106.81175" y2="-6.6106" style="stroke:rgb(0,0,0);stroke-width:.00002" />
    <line x1="106.81175" y1="-6.6106" x2="106.81175" y2="-6.6106" style="stroke:rgb(0,0,0);stroke-width:.00002" />
    <line x1="106.81175" y1="-6.6106" x2="106.8105" y2="-6.6087" style="stroke:rgb(0,0,0);stroke-width:.00002" />
    <circle cx="106.813" cy="-6.6125" fill="rgb(255,0,0)" r=".0001" />
    <text x="106.813" y="-6.6125" stroke="rgb(0,0,0)" transform="translate(106.813 -6.6125),scale(0.00001 -0.00001),translate(-106.813 6.6125),translate(106.7975 -6.592499999999999),rotate(0),translate(-106.7975 6.592499999999999)" >pajajaran-pjjindah</text>
    <line x1="106.8105" y1="-6.6087" x2="106.813" y2="-6.6125" style="stroke:rgb(255,0,0);stroke-width:.00002" />
    <line x1="106.8105" y1="-6.6087" x2="106.81153015339942" y2="-6.6102658331671025" style="stroke:rgb(0,0,0);stroke-width:.00002" />
    <line x1="106.81153015339942" y1="-6.6102658331671025" x2="106.81196984660059" y2="-6.610934166832897" style="stroke:rgb(0,0,0);stroke-width:.00002" />
    <line x1="106.81196984660059" y1="-6.610934166832897" x2="106.813" y2="-6.6125" style="stroke:rgb(0,0,0);stroke-width:.00002" />
    <circle cx="106.8105" cy="-6.6087" fill="rgb(255,0,0)" r=".0001" />
    <text x="106.8105" y="-6.6087" stroke="rgb(0,0,0)" transform="translate(106.8105 -6.6087),scale(0.00001 -0.00001),translate(-106.8105 6.6087),translate(106.7975 -6.592499999999999),rotate(0),translate(-106.7975 6.592499999999999)" >pajajaran-michelle-bakery</text>
    <line x1="106.813" y1="-6.6125" x2="106.8149" y2="-6.6116" style="stroke:rgb(255,0,0);stroke-width:.00002" />
    <line x1="106.813" y1="-6.6125" x2="106.81340775729667" y2="-6.612306851806844" style="stroke:rgb(0,0,0);stroke-width:.00002" />
    <line x1="106.81340775729667" y1="-6.612306851806844" x2="106.81449224270334" y2="-6.611793148193156" style="stroke:rgb(0,0,0);stroke-width:.00002" />
    <line x1="106.81449224270334" y1="-6.611793148193156" x2="106.8149" y2="-6.6116" style="stroke:rgb(0,0,0);stroke-width:.00002" />
    <circle cx="106.813" cy="-6.6125" fill="rgb(255,0,0)" r=".0001" />
    <text x="106.813" y="-6.6125" stroke="rgb(0,0,0)" transform="translate(106.813 -6.6125),scale(0.00001 -0.00001),translate(-106.813 6.6125),translate(106.7975 -6.592499999999999),rotate(0),translate(-106.7975 6.592499999999999)" >pajajaran-pjjindah</text>
    <line x1="106.8149" y1="-6.6116" x2="106.8169" y2="-6.6139" style="stroke:rgb(255,0,0);stroke-width:.00002" />
    <line x1="106.8149" y1="-6.6116" x2="106.8159" y2="-6.61275" style="stroke:rgb(0,0,0);stroke-width:.00002" />
    <line x1="106.8159" y1="-6.61275" x2="106.8159" y2="-6.61275" style="stroke:rgb(0,0,0);stroke-width:.00002" />
    <line x1="106.8159" y1="-6.61275" x2="106.8169" y2="-6.6139" style="stroke:rgb(0,0,0);stroke-width:.00002" />
    <circle cx="106.8149" cy="-6.6116" fill="rgb(255,0,0)" r=".0001" />
    <text x="106.8149" y="-6.6116" stroke="rgb(0,0,0)" transform="translate(106.8149 -6.6116),scale(0.00001 -0.00001),translate(-106.8149 6.6116),translate(106.7975 -6.592499999999999),rotate(0),translate(-106.7975 6.592499999999999)" >pjjindah-1</text>
    <line x1="106.8169" y1="-6.6139" x2="106.8173" y2="-6.6134" style="stroke:rgb(255,0,0);stroke-width:.00002" />
    <line x1="106.8169" y1="-6.6139" x2="106.81710000000001" y2="-6.61365" style="stroke:rgb(0,0,0);stroke-width:.00002" />
    <line x1="106.81710000000001" y1="-6.61365" x2="106.81710000000001" y2="-6.61365" style="stroke:rgb(0,0,0);stroke-width:.00002" />
    <line x1="106.81710000000001" y1="-6.61365" x2="106.8173" y2="-6.6134" style="stroke:rgb(0,0,0);stroke-width:.00002" />
    <circle cx="106.8169" cy="-6.6139" fill="rgb(255,0,0)" r=".0001" />
    <text x="106.8169" y="-6.6139" stroke="rgb(0,0,0)" transform="translate(106.8169 -6.6139),scale(0.00001 -0.00001),translate(-106.8169 6.6139),translate(106.7975 -6.592499999999999),rotate(0),translate(-106.7975 6.592499999999999)" >pjjindah-2</text>
    <line x1="106.8173" y1="-6.6134" x2="106.8179" y2="-6.6133" style="stroke:rgb(255,0,0);stroke-width:.00002" />
    <line x1="106.8173" y1="-6.6134" x2="106.8176" y2="-6.6133500000000005" style="stroke:rgb(0,0,0);stroke-width:.00002" />
    <line x1="106.8176" y1="-6.6133500000000005" x2="106.8176" y2="-6.6133500000000005" style="stroke:rgb(0,0,0);stroke-width:.00002" />
    <line x1="106.8176" y1="-6.6133500000000005" x2="106.8179" y2="-6.6133" style="stroke:rgb(0,0,0);stroke-width:.00002" />
    <circle cx="106.8173" cy="-6.6134" fill="rgb(255,0,0)" r=".0001" />
    <text x="106.8173" y="-6.6134" stroke="rgb(0,0,0)" transform="translate(106.8173 -6.6134),scale(0.00001 -0.00001),translate(-106.8173 6.6134),translate(106.7975 -6.592499999999999),rotate(0),translate(-106.7975 6.592499999999999)" >pjjindah-3</text>
    <line x1="106.8179" y1="-6.6133" x2="106.8182" y2="-6.6136" style="stroke:rgb(255,0,0);stroke-width:.00002" />
    <line x1="106.8179" y1="-6.6133" x2="106.81805" y2="-6.61345" style="stroke:rgb(0,0,0);stroke-width:.00002" />
    <line x1="106.81805" y1="-6.61345" x2="106.81805" y2="-6.61345" style="stroke:rgb(0,0,0);stroke-width:.00002" />
    <line x1="106.81805" y1="-6.61345" x2="106.8182" y2="-6.6136" style="stroke:rgb(0,0,0);stroke-width:.00002" />
    <circle cx="106.8179" cy="-6.6133" fill="rgb(255,0,0)" r=".0001" />
    <text x="106.8179" y="-6.6133" stroke="rgb(0,0,0)" transform="translate(106.8179 -6.6133),scale(0.00001 -0.00001),translate(-106.8179 6.6133),translate(106.7975 -6.592499999999999),rotate(0),translate(-106.7975 6.592499999999999)" >pjjindah-4</text>
    <line x1="106.8182" y1="-6.6136" x2="106.8187" y2="-6.6135" style="stroke:rgb(255,0,0);stroke-width:.00002" />
    <line x1="106.8182" y1="-6.6136" x2="106.81845000000001" y2="-6.61355" style="stroke:rgb(0,0,0);stroke-width:.00002" />
    <line x1="106.81845000000001" y1="-6.61355" x2="106.81845000000001" y2="-6.61355" style="stroke:rgb(0,0,0);stroke-width:.00002" />
    <line x1="106.81845000000001" y1="-6.61355" x2="106.8187" y2="-6.6135" style="stroke:rgb(0,0,0);stroke-width:.00002" />
    <circle cx="106.8182" cy="-6.6136" fill="rgb(255,0,0)" r=".0001" />
    <text x="106.8182" y="-6.6136" stroke="rgb(0,0,0)" transform="translate(106.8182 -6.6136),scale(0.00001 -0.00001),translate(-106.8182 6.6136),translate(106.7975 -6.592499999999999),rotate(0),translate(-106.7975 6.592499999999999)" >pjjindah-5</text>
    <line x1="106.8187" y1="-6.6135" x2="106.8188" y2="-6.6138" style="stroke:rgb(255,0,0);stroke-width:.00002" />
    <line x1="106.8187" y1="-6.6135" x2="106.81875" y2="-6.61365" style="stroke:rgb(0,0,0);stroke-width:.00002" />
    <line x1="106.81875" y1="-6.61365" x2="106.81875" y2="-6.61365" style="stroke:rgb(0,0,0);stroke-width:.00002" />
    <line x1="106.81875" y1="-6.61365" x2="106.8188" y2="-6.6138" style="stroke:rgb(0,0,0);stroke-width:.00002" />
    <circle cx="106.8187" cy="-6.6135" fill="rgb(255,0,0)" r=".0001" />
    <text x="106.8187" y="-6.6135" stroke="rgb(0,0,0)" transform="translate(106.8187 -6.6135),scale(0.00001 -0.00001),translate(-106.8187 6.6135),translate(106.7975 -6.592499999999999),rotate(0),translate(-106.7975 6.592499999999999)" >pjjindah-6</text>
    <line x1="106.8188" y1="-6.6138" x2="106.8193" y2="-6.6137" style="stroke:rgb(255,0,0);stroke-width:.00002" />
    <line x1="106.8188" y1="-6.6138" x2="106.81905" y2="-6.61375" style="stroke:rgb(0,0,0);stroke-width:.00002" />
    <line x1="106.81905" y1="-6.61375" x2="106.81905" y2="-6.61375" style="stroke:rgb(0,0,0);stroke-width:.00002" />
    <line x1="106.81905" y1="-6.61375" x2="106.8193" y2="-6.6137" style="stroke:rgb(0,0,0);stroke-width:.00002" />
    <circle cx="106.8188" cy="-6.6138" fill="rgb(255,0,0)" r=".0001" />
    <text x="106.8188" y="-6.6138" stroke="rgb(0,0,0)" transform="translate(106.8188 -6.6138),scale(0.00001 -0.00001),translate(-106.8188 6.6138),translate(106.7975 -6.592499999999999),rotate(0),translate(-106.7975 6.592499999999999)" >pjjindah-7</text>
    <line x1="106.8193" y1="-6.6137" x2="106.8188" y2="-6.6119" style="stroke:rgb(255,0,0);stroke-width:.00002" />
    <line x1="106.8193" y1="-6.6137" x2="106.81905" y2="-6.6128" style="stroke:rgb(0,0,0);stroke-width:.00002" />
    <line x1="106.81905" y1="-6.6128" x2="106.81905" y2="-6.6128" style="stroke:rgb(0,0,0);stroke-width:.00002" />
    <line x1="106.81905" y1="-6.6128" x2="106.8188" y2="-6.6119" style="stroke:rgb(0,0,0);stroke-width:.00002" />
    <circle cx="106.8193" cy="-6.6137" fill="rgb(255,0,0)" r=".0001" />
    <text x="106.8193" y="-6.6137" stroke="rgb(0,0,0)" transform="translate(106.8193 -6.6137),scale(0.00001 -0.00001),translate(-106.8193 6.6137),translate(106.7975 -6.592499999999999),rotate(0),translate(-106.7975 6.592499999999999)" >pjjindah-8</text>
    <line x1="106.8188" y1="-6.6119" x2="106.8198" y2="-6.6115" style="stroke:rgb(255,0,0);stroke-width:.00002" />
    <line x1="106.8188" y1="-6.6119" x2="106.8193" y2="-6.611700000000001" style="stroke:rgb(0,0,0);stroke-width:.00002" />
    <line x1="106.8193" y1="-6.611700000000001" x2="106.8193" y2="-6.611700000000001" style="stroke:rgb(0,0,0);stroke-width:.00002" />
    <line x1="106.8193" y1="-6.611700000000001" x2="106.8198" y2="-6.6115" style="stroke:rgb(0,0,0);stroke-width:.00002" />
    <circle cx="106.8188" cy="-6.6119" fill="rgb(255,0,0)" r=".0001" />
    <text x="106.8188" y="-6.6119" stroke="rgb(0,0,0)" transform="translate(106.8188 -6.6119),scale(0.00001 -0.00001),translate(-106.8188 6.6119),translate(106.7975 -6.592499999999999),rotate(0),translate(-106.7975 6.592499999999999)" >pjjindah-9</text>
    <line x1="106.8198" y1="-6.6115" x2="106.8194" y2="-6.6084" style="stroke:rgb(255,0,0);stroke-width:.00002" />
    <line x1="106.8198" y1="-6.6115" x2="106.81960000000001" y2="-6.6099499999999995" style="stroke:rgb(0,0,0);stroke-width:.00002" />
    <line x1="106.81960000000001" y1="-6.6099499999999995" x2="106.81960000000001" y2="-6.6099499999999995" style="stroke:rgb(0,0,0);stroke-width:.00002" />
    <line x1="106.81960000000001" y1="-6.6099499999999995" x2="106.8194" y2="-6.6084" style="stroke:rgb(0,0,0);stroke-width:.00002" />
    <circle cx="106.8198" cy="-6.6115" fill="rgb(255,0,0)" r=".0001" />
    <text x="106.8198" y="-6.6115" stroke="rgb(0,0,0)" transform="translate(106.8198 -6.6115),scale(0.00001 -0.00001),translate(-106.8198 6.6115),translate(106.7975 -6.592499999999999),rotate(0),translate(-106.7975 6.592499999999999)" >pjjindah-bigroad</text>
    <line x1="106.8194" y1="-6.6084" x2="106.8198" y2="-6.6115" style="stroke:rgb(255,0,0);stroke-width:.00002" />
    <line x1="106.8194" y1="-6.6084" x2="106.81960000000001" y2="-6.6099499999999995" style="stroke:rgb(0,0,0);stroke-width:.00002" />
    <line x1="106.81960000000001" y1="-6.6099499999999995" x2="106.81960000000001" y2="-6.6099499999999995" style="stroke:rgb(0,0,0);stroke-width:.00002" />
    <line x1="106.81960000000001" y1="-6.6099499999999995" x2="106.8198" y2="-6.6115" style="stroke:rgb(0,0,0);stroke-width:.00002" />
    <circle cx="106.8194" cy="-6.6084" fill="rgb(255,0,0)" r=".0001" />
    <text x="106.8194" y="-6.6084" stroke="rgb(0,0,0)" transform="translate(106.8194 -6.6084),scale(0.00001 -0.00001),translate(-106.8194 6.6084),translate(106.7975 -6.592499999999999),rotate(0),translate(-106.7975 6.592499999999999)" >pjjindah-bigroadturnnorth</text>
    <line x1="106.8198" y1="-6.6115" x2="106.8204" y2="-6.6113" style="stroke:rgb(255,0,0);stroke-width:.00002" />
    <line x1="106.8198" y1="-6.6115" x2="106.8201" y2="-6.6114" style="stroke:rgb(0,0,0);stroke-width:.00002" />
    <line x1="106.8201" y1="-6.6114" x2="106.8201" y2="-6.6114" style="stroke:rgb(0,0,0);stroke-width:.00002" />
    <line x1="106.8201" y1="-6.6114" x2="106.8204" y2="-6.6113" style="stroke:rgb(0,0,0);stroke-width:.00002" />
    <circle cx="106.8198" cy="-6.6115" fill="rgb(255,0,0)" r=".0001" />
    <text x="106.8198" y="-6.6115" stroke="rgb(0,0,0)" transform="translate(106.8198 -6.6115),scale(0.00001 -0.00001),translate(-106.8198 6.6115),translate(106.7975 -6.592499999999999),rotate(0),translate(-106.7975 6.592499999999999)" >pjjindah-bigroad</text>
    <line x1="106.8204" y1="-6.6113" x2="106.8211" y2="-6.6112" style="stroke:rgb(255,0,0);stroke-width:.00002" />
    <line x1="106.8204" y1="-6.6113" x2="106.82075" y2="-6.61125" style="stroke:rgb(0,0,0);stroke-width:.00002" />
    <line x1="106.82075" y1="-6.61125" x2="106.82075" y2="-6.61125" style="stroke:rgb(0,0,0);stroke-width:.00002" />
    <line x1="106.82075" y1="-6.61125" x2="106.8211" y2="-6.6112" style="stroke:rgb(0,0,0);stroke-width:.00002" />
    <circle cx="106.8204" cy="-6.6113" fill="rgb(255,0,0)" r=".0001" />
    <text x="106.8204" y="-6.6113" stroke="rgb(0,0,0)" transform="translate(106.8204 -6.6113),scale(0.00001 -0.00001),translate(-106.8204 6.6113),translate(106.7975 -6.592499999999999),rotate(0),translate(-106.7975 6.592499999999999)" >pjjindah-east-1</text>
    <line x1="106.8211" y1="-6.6112" x2="106.8204" y2="-6.6113" style="stroke:rgb(255,0,0);stroke-width:.00002" />
    <line x1="106.8211" y1="-6.6112" x2="106.82075" y2="-6.61125" style="stroke:rgb(0,0,0);stroke-width:.00002" />
    <line x1="106.82075" y1="-6.61125" x2="106.82075" y2="-6.61125" style="stroke:rgb(0,0,0);stroke-width:.00002" />
    <line x1="106.82075" y1="-6.61125" x2="106.8204" y2="-6.6113" style="stroke:rgb(0,0,0);stroke-width:.00002" />
    <circle cx="106.8211" cy="-6.6112" fill="rgb(255,0,0)" r=".0001" />
    <text x="106.8211" y="-6.6112" stroke="rgb(0,0,0)" transform="translate(106.8211 -6.6112),scale(0.00001 -0.00001),translate(-106.8211 6.6112),translate(106.7975 -6.592499999999999),rotate(0),translate(-106.7975 6.592499999999999)" >pjjindah-east-2</text>
    <line x1="106.8204" y1="-6.6113" x2="106.8198" y2="-6.6115" style="stroke:rgb(255,0,0);stroke-width:.00002" />
    <line x1="106.8204" y1="-6.6113" x2="106.8201" y2="-6.6114" style="stroke:rgb(0,0,0);stroke-width:.00002" />
    <line x1="106.8201" y1="-6.6114" x2="106.8201" y2="-6.6114" style="stroke:rgb(0,0,0);stroke-width:.00002" />
    <line x1="106.8201" y1="-6.6114" x2="106.8198" y2="-6.6115" style="stroke:rgb(0,0,0);stroke-width:.00002" />
    <circle cx="106.8204" cy="-6.6113" fill="rgb(255,0,0)" r=".0001" />
    <text x="106.8204" y="-6.6113" stroke="rgb(0,0,0)" transform="translate(106.8204 -6.6113),scale(0.00001 -0.00001),translate(-106.8204 6.6113),translate(106.7975 -6.592499999999999),rotate(0),translate(-106.7975 6.592499999999999)" >pjjindah-east-1</text>
    <line x1="106.8198" y1="-6.6115" x2="106.8201" y2="-6.613" style="stroke:rgb(255,0,0);stroke-width:.00002" />
    <line x1="106.8198" y1="-6.6115" x2="106.81995" y2="-6.61225" style="stroke:rgb(0,0,0);stroke-width:.00002" />
    <line x1="106.81995" y1="-6.61225" x2="106.81995" y2="-6.61225" style="stroke:rgb(0,0,0);stroke-width:.00002" />
    <line x1="106.81995" y1="-6.61225" x2="106.8201" y2="-6.613" style="stroke:rgb(0,0,0);stroke-width:.00002" />
    <circle cx="106.8198" cy="-6.6115" fill="rgb(255,0,0)" r=".0001" />
    <text x="106.8198" y="-6.6115" stroke="rgb(0,0,0)" transform="translate(106.8198 -6.6115),scale(0.00001 -0.00001),translate(-106.8198 6.6115),translate(106.7975 -6.592499999999999),rotate(0),translate(-106.7975 6.592499999999999)" >pjjindah-bigroad</text>
    <line x1="106.8201" y1="-6.613" x2="106.8207" y2="-6.6135" style="stroke:rgb(255,0,0);stroke-width:.00002" />
    <line x1="106.8201" y1="-6.613" x2="106.8204" y2="-6.613250000000001" style="stroke:rgb(0,0,0);stroke-width:.00002" />
    <line x1="106.8204" y1="-6.613250000000001" x2="106.8204" y2="-6.613250000000001" style="stroke:rgb(0,0,0);stroke-width:.00002" />
    <line x1="106.8204" y1="-6.613250000000001" x2="106.8207" y2="-6.6135" style="stroke:rgb(0,0,0);stroke-width:.00002" />
    <circle cx="106.8201" cy="-6.613" fill="rgb(255,0,0)" r=".0001" />
    <text x="106.8201" y="-6.613" stroke="rgb(0,0,0)" transform="translate(106.8201 -6.613),scale(0.00001 -0.00001),translate(-106.8201 6.613),translate(106.7975 -6.592499999999999),rotate(0),translate(-106.7975 6.592499999999999)" >pjjindah-bigroadbend</text>
    <line x1="106.8207" y1="-6.6135" x2="106.8201" y2="-6.613" style="stroke:rgb(255,0,0);stroke-width:.00002" />
    <line x1="106.8207" y1="-6.6135" x2="106.8204" y2="-6.613250000000001" style="stroke:rgb(0,0,0);stroke-width:.00002" />
    <line x1="106.8204" y1="-6.613250000000001" x2="106.8204" y2="-6.613250000000001" style="stroke:rgb(0,0,0);stroke-width:.00002" />
    <line x1="106.8204" y1="-6.613250000000001" x2="106.8201" y2="-6.613" style="stroke:rgb(0,0,0);stroke-width:.00002" />
    <circle cx="106.8207" cy="-6.6135" fill="rgb(255,0,0)" r=".0001" />
    <text x="106.8207" y="-6.6135" stroke="rgb(0,0,0)" transform="translate(106.8207 -6.6135),scale(0.00001 -0.00001),translate(-106.8207 6.6135),translate(106.7975 -6.592499999999999),rotate(0),translate(-106.7975 6.592499999999999)" >pjjindah-bigroadturnsouth</text>
    <line x1="106.8201" y1="-6.613" x2="106.8198" y2="-6.6115" style="stroke:rgb(255,0,0);stroke-width:.00002" />
    <line x1="106.8201" y1="-6.613" x2="106.81995" y2="-6.61225" style="stroke:rgb(0,0,0);stroke-width:.00002" />
    <line x1="106.81995" y1="-6.61225" x2="106.81995" y2="-6.61225" style="stroke:rgb(0,0,0);stroke-width:.00002" />
    <line x1="106.81995" y1="-6.61225" x2="106.8198" y2="-6.6115" style="stroke:rgb(0,0,0);stroke-width:.00002" />
    <circle cx="106.8201" cy="-6.613" fill="rgb(255,0,0)" r=".0001" />
    <text x="106.8201" y="-6.613" stroke="rgb(0,0,0)" transform="translate(106.8201 -6.613),scale(0.00001 -0.00001),translate(-106.8201 6.613),translate(106.7975 -6.592499999999999),rotate(0),translate(-106.7975 6.592499999999999)" >pjjindah-bigroadbend</text>
    <line x1="106.8198" y1="-6.6115" x2="106.8188" y2="-6.6119" style="stroke:rgb(255,0,0);stroke-width:.00002" />
    <line x1="106.8198" y1="-6.6115" x2="106.8193" y2="-6.611700000000001" style="stroke:rgb(0,0,0);stroke-width:.00002" />
    <line x1="106.8193" y1="-6.611700000000001" x2="106.8193" y2="-6.611700000000001" style="stroke:rgb(0,0,0);stroke-width:.00002" />
    <line x1="106.8193" y1="-6.611700000000001" x2="106.8188" y2="-6.6119" style="stroke:rgb(0,0,0);stroke-width:.00002" />
    <circle cx="106.8198" cy="-6.6115" fill="rgb(255,0,0)" r=".0001" />
    <text x="106.8198" y="-6.6115" stroke="rgb(0,0,0)" transform="translate(106.8198 -6.6115),scale(0.00001 -0.00001),translate(-106.8198 6.6115),translate(106.7975 -6.592499999999999),rotate(0),translate(-106.7975 6.592499999999999)" >pjjindah-bigroad</text>
    <line x1="106.8188" y1="-6.6119" x2="106.8193" y2="-6.6137" style="stroke:rgb(255,0,0);stroke-width:.00002" />
    <line x1="106.8188" y1="-6.6119" x2="106.81905" y2="-6.6128" style="stroke:rgb(0,0,0);stroke-width:.00002" />
    <line x1="106.81905" y1="-6.6128" x2="106.81905" y2="-6.6128" style="stroke:rgb(0,0,0);stroke-width:.00002" />
    <line x1="106.81905" y1="-6.6128" x2="106.8193" y2="-6.6137" style="stroke:rgb(0,0,0);stroke-width:.00002" />
    <circle cx="106.8188" cy="-6.6119" fill="rgb(255,0,0)" r=".0001" />
    <text x="106.8188" y="-6.6119" stroke="rgb(0,0,0)" transform="translate(106.8188 -6.6119),scale(0.00001 -0.00001),translate(-106.8188 6.6119),translate(106.7975 -6.592499999999999),rotate(0),translate(-106.7975 6.592499999999999)" >pjjindah-9</text>
    <line x1="106.8193" y1="-6.6137" x2="106.8188" y2="-6.6138" style="stroke:rgb(255,0,0);stroke-width:.00002" />
    <line x1="106.8193" y1="-6.6137" x2="106.81905" y2="-6.61375" style="stroke:rgb(0,0,0);stroke-width:.00002" />
    <line x1="106.81905" y1="-6.61375" x2="106.81905" y2="-6.61375" style="stroke:rgb(0,0,0);stroke-width:.00002" />
    <line x1="106.81905" y1="-6.61375" x2="106.8188" y2="-6.6138" style="stroke:rgb(0,0,0);stroke-width:.00002" />
    <circle cx="106.8193" cy="-6.6137" fill="rgb(255,0,0)" r=".0001" />
    <text x="106.8193" y="-6.6137" stroke="rgb(0,0,0)" transform="translate(106.8193 -6.6137),scale(0.00001 -0.00001),translate(-106.8193 6.6137),translate(106.7975 -6.592499999999999),rotate(0),translate(-106.7975 6.592499999999999)" >pjjindah-8</text>
    <line x1="106.8188" y1="-6.6138" x2="106.8187" y2="-6.6135" style="stroke:rgb(255,0,0);stroke-width:.00002" />
    <line x1="106.8188" y1="-6.6138" x2="106.81875" y2="-6.61365" style="stroke:rgb(0,0,0);stroke-width:.00002" />
    <line x1="106.81875" y1="-6.61365" x2="106.81875" y2="-6.61365" style="stroke:rgb(0,0,0);stroke-width:.00002" />
    <line x1="106.81875" y1="-6.61365" x2="106.8187" y2="-6.6135" style="stroke:rgb(0,0,0);stroke-width:.00002" />
    <circle cx="106.8188" cy="-6.6138" fill="rgb(255,0,0)" r=".0001" />
    <text x="106.8188" y="-6.6138" stroke="rgb(0,0,0)" transform="translate(106.8188 -6.6138),scale(0.00001 -0.00001),translate(-106.8188 6.6138),translate(106.7975 -6.592499999999999),rotate(0),translate(-106.7975 6.592499999999999)" >pjjindah-7</text>
    <line x1="106.8187" y1="-6.6135" x2="106.8182" y2="-6.6136" style="stroke:rgb(255,0,0);stroke-width:.00002" />
    <line x1="106.8187" y1="-6.6135" x2="106.81845000000001" y2="-6.61355" style="stroke:rgb(0,0,0);stroke-width:.00002" />
    <line x1="106.81845000000001" y1="-6.61355" x2="106.81845000000001" y2="-6.61355" style="stroke:rgb(0,0,0);stroke-width:.00002" />
    <line x1="106.81845000000001" y1="-6.61355" x2="106.8182" y2="-6.6136" style="stroke:rgb(0,0,0);stroke-width:.00002" />
    <circle cx="106.8187" cy="-6.6135" fill="rgb(255,0,0)" r=".0001" />
    <text x="106.8187" y="-6.6135" stroke="rgb(0,0,0)" transform="translate(106.8187 -6.6135),scale(0.00001 -0.00001),translate(-106.8187 6.6135),translate(106.7975 -6.592499999999999),rotate(0),translate(-106.7975 6.592499999999999)" >pjjindah-6</text>
    <line x1="106.8182" y1="-6.6136" x2="106.8179" y2="-6.6133" style="stroke:rgb(255,0,0);stroke-width:.00002" />
    <line x1="106.8182" y1="-6.6136" x2="106.81805" y2="-6.61345" style="stroke:rgb(0,0,0);stroke-width:.00002" />
    <line x1="106.81805" y1="-6.61345" x2="106.81805" y2="-6.61345" style="stroke:rgb(0,0,0);stroke-width:.00002" />
    <line x1="106.81805" y1="-6.61345" x2="106.8179" y2="-6.6133" style="stroke:rgb(0,0,0);stroke-width:.00002" />
    <circle cx="106.8182" cy="-6.6136" fill="rgb(255,0,0)" r=".0001" />
    <text x="106.8182" y="-6.6136" stroke="rgb(0,0,0)" transform="translate(106.8182 -6.6136),scale(0.00001 -0.00001),translate(-106.8182 6.6136),translate(106.7975 -6.592499999999999),rotate(0),translate(-106.7975 6.592499999999999)" >pjjindah-5</text>
    <line x1="106.8179" y1="-6.6133" x2="106.8173" y2="-6.6134" style="stroke:rgb(255,0,0);stroke-width:.00002" />
    <line x1="106.8179" y1="-6.6133" x2="106.8176" y2="-6.6133500000000005" style="stroke:rgb(0,0,0);stroke-width:.00002" />
    <line x1="106.8176" y1="-6.6133500000000005" x2="106.8176" y2="-6.6133500000000005" style="stroke:rgb(0,0,0);stroke-width:.00002" />
    <line x1="106.8176" y1="-6.6133500000000005" x2="106.8173" y2="-6.6134" style="stroke:rgb(0,0,0);stroke-width:.00002" />
    <circle cx="106.8179" cy="-6.6133" fill="rgb(255,0,0)" r=".0001" />
    <text x="106.8179" y="-6.6133" stroke="rgb(0,0,0)" transform="translate(106.8179 -6.6133),scale(0.00001 -0.00001),translate(-106.8179 6.6133),translate(106.7975 -6.592499999999999),rotate(0),translate(-106.7975 6.592499999999999)" >pjjindah-4</text>
    <line x1="106.8173" y1="-6.6134" x2="106.8169" y2="-6.6139" style="stroke:rgb(255,0,0);stroke-width:.00002" />
    <line x1="106.8173" y1="-6.6134" x2="106.81710000000001" y2="-6.61365" style="stroke:rgb(0,0,0);stroke-width:.00002" />
    <line x1="106.81710000000001" y1="-6.61365" x2="106.81710000000001" y2="-6.61365" style="stroke:rgb(0,0,0);stroke-width:.00002" />
    <line x1="106.81710000000001" y1="-6.61365" x2="106.8169" y2="-6.6139" style="stroke:rgb(0,0,0);stroke-width:.00002" />
    <circle cx="106.8173" cy="-6.6134" fill="rgb(255,0,0)" r=".0001" />
    <text x="106.8173" y="-6.6134" stroke="rgb(0,0,0)" transform="translate(106.8173 -6.6134),scale(0.00001 -0.00001),translate(-106.8173 6.6134),translate(106.7975 -6.592499999999999),rotate(0),translate(-106.7975 6.592499999999999)" >pjjindah-3</text>
    <line x1="106.8169" y1="-6.6139" x2="106.8149" y2="-6.6116" style="stroke:rgb(255,0,0);stroke-width:.00002" />
    <line x1="106.8169" y1="-6.6139" x2="106.8159" y2="-6.61275" style="stroke:rgb(0,0,0);stroke-width:.00002" />
    <line x1="106.8159" y1="-6.61275" x2="106.8159" y2="-6.61275" style="stroke:rgb(0,0,0);stroke-width:.00002" />
    <line x1="106.8159" y1="-6.61275" x2="106.8149" y2="-6.6116" style="stroke:rgb(0,0,0);stroke-width:.00002" />
    <circle cx="106.8169" cy="-6.6139" fill="rgb(255,0,0)" r=".0001" />
    <text x="106.8169" y="-6.6139" stroke="rgb(0,0,0)" transform="translate(106.8169 -6.6139),scale(0.00001 -0.00001),translate(-106.8169 6.6139),translate(106.7975 -6.592499999999999),rotate(0),translate(-106.7975 6.592499999999999)" >pjjindah-2</text>
    <line x1="106.8149" y1="-6.6116" x2="106.813" y2="-6.6125" style="stroke:rgb(255,0,0);stroke-width:.00002" />
    <line x1="106.8149" y1="-6.6116" x2="106.81395" y2="-6.61205" style="stroke:rgb(0,0,0);stroke-width:.00002" />
    <line x1="106.81395" y1="-6.61205" x2="106.81395" y2="-6.61205" style="stroke:rgb(0,0,0);stroke-width:.00002" />
    <line x1="106.81395" y1="-6.61205" x2="106.813" y2="-6.6125" style="stroke:rgb(0,0,0);stroke-width:.00002" />
    <circle cx="106.8149" cy="-6.6116" fill="rgb(255,0,0)" r=".0001" />
    <text x="106.8149" y="-6.6116" stroke="rgb(0,0,0)" transform="translate(106.8149 -6.6116),scale(0.00001 -0.00001),translate(-106.8149 6.6116),translate(106.7975 -6.592499999999999),rotate(0),translate(-106.7975 6.592499999999999)" >pjjindah-1</text>
  </g>
</svg>
