<svg width="1049.9999999998977" height="1849.9999999999961" xmlns="http://www.w3.org/2000/svg" xmlns:xlink="http://www.w3.org/1999/xlink" >
  <g transform="translate(524.9999999999488 924.9999999999981) rotate(30) scale(10000 -10000) translate(-106.8125 6.592499999999999)">
    <path d="M106.76 -6.5 L106.865 -6.5 L106.865 -6.685 L106.76 -6.685 Z" fill="none" stroke="black" stroke-width="0.0025" transform="translate(106.8125 -6.592499999999999) rotate(30) translate(-106.8125 6.592499999999999)" />
    <path d="M106.815 -6.6175 L106.81324934148152 -6.614200386665222 L106.80867072977472 -6.6079181054861245 L106.80787522402032 -6.6082590365237275 L106.80711583608287 -6.607752777898767 L106.80610713710057 -6.607896877753384 L106.80514485854482 -6.6064 L106.80414333784655 -6.6064 L106.80321896966983 -6.602355889226772 L106.80036011513425 -6.603005628893947 L106.80056644546444 -6.604174834098327 L106.80207968543864 -6.605309764078969 L106.80382102985996 -6.607460836599435 L106.80531758131471 -6.609648104110236 L106.80505843425483 -6.609907251170128 L106.8121149008824 -6.617340062684506 L106.81221582001494 -6.617306422973662 L106.81336661676208 -6.6171913432989475 L106.81466508377623 -6.617775653455318 L106.81591443006594 -6.621940141087733 L106.81154460639158 -6.611015581901781 L106.8105 -6.6087 L106.81314303867816 -6.611989638604202 L106.81500284253097 -6.611108678884448 L106.81688719900102 -6.6132756888249915 L106.8170832662261 -6.613030604793631 L106.81803728679107 -6.612871601366135 L106.81833146988654 -6.613165784461605 L106.8189678092197 -6.613038516594974 L106.81906780921969 -6.613338516594974 L106.81879935660619 -6.613392207117674 L106.81831866587001 -6.611661720467421 L106.81936361802379 -6.611243739605913 L106.8194 -6.6084 L106.8201345232454 -6.610966855230182 L106.82030772598144 -6.610909120984831 L106.8211 -6.6112 L106.82049227401855 -6.611690879015171 L106.82026148340502 -6.611767809219682 L106.82046454187848 -6.612783101587006 L106.8207 -6.6135 L106.81973545812151 -6.6132168984129995 L106.8195020750702 -6.612049983156489 L106.81928133412998 -6.61213827953258 L106.8198006433938 -6.614007792882325 L106.8185321907803 -6.614261483405026 L106.81843219078031 -6.613961483405026 L106.81806853011346 -6.614034215538395 L106.81776271320892 -6.6137283986338655 L106.8175167337739 -6.61376939520637 L106.81691280099899 -6.614524311175007 L106.81479715746903 -6.6120913211155505 L106.81351102910945 -6.612700539812197 Z" stroke="brown" stroke-width="0.0005" fill="none" />
    <circle 
      cx="106.815" cy="-12.6175"
      r="15" transform="translate(106.815 -6.6175) scale(0.000014999999999999999 -0.000014999999999999999) translate(-106.815 6.6175) translate(106.8125 -6.592499999999999) rotate(-30) translate(-106.8125 6.592499999999999)"
      fill="white" stroke="black" stroke-width="2"/>
    <circle 
      cx="106.81324934148152" cy="-12.614200386665221"
      r="15" transform="translate(106.81324934148152 -6.614200386665222) scale(0.000014999999999999999 -0.000014999999999999999) translate(-106.81324934148152 6.614200386665222) translate(106.8125 -6.592499999999999) rotate(-30) translate(-106.8125 6.592499999999999)"
      fill="white" stroke="black" stroke-width="2"/>
    <circle 
      cx="106.80867072977472" cy="-12.607918105486124"
      r="15" transform="translate(106.80867072977472 -6.6079181054861245) scale(0.000014999999999999999 -0.000014999999999999999) translate(-106.80867072977472 6.6079181054861245) translate(106.8125 -6.592499999999999) rotate(-30) translate(-106.8125 6.592499999999999)"
      fill="white" stroke="black" stroke-width="2"/>
    <circle 
      cx="106.80321896966983" cy="-12.602355889226772"
      r="15" transform="translate(106.80321896966983 -6.602355889226772) scale(0.000014999999999999999 -0.000014999999999999999) translate(-106.80321896966983 6.602355889226772) translate(106.8125 -6.592499999999999) rotate(-30) translate(-106.8125 6.592499999999999)"
      fill="white" stroke="black" stroke-width="2"/>
    <circle 
      cx="106.81591443006594" cy="-12.621940141087734"
      r="15" transform="translate(106.81591443006594 -6.621940141087733) scale(0.000014999999999999999 -0.000014999999999999999) translate(-106.81591443006594 6.621940141087733) translate(106.8125 -6.592499999999999) rotate(-30) translate(-106.8125 6.592499999999999)"
      fill="white" stroke="black" stroke-width="2"/>
    <circle 
      cx="106.81154460639158" cy="-12.611015581901782"
      r="15" transform="translate(106.81154460639158 -6.611015581901781) scale(0.000014999999999999999 -0.000014999999999999999) translate(-106.81154460639158 6.611015581901781) translate(106.8125 -6.592499999999999) rotate(-30) translate(-106.8125 6.592499999999999)"
      fill="white" stroke="black" stroke-width="2"/>
    <circle 
      cx="106.8105" cy="-12.608699999999999"
      r="15" transform="translate(106.8105 -6.6087) scale(0.000014999999999999999 -0.000014999999999999999) translate(-106.8105 6.6087) translate(106.8125 -6.592499999999999) rotate(-30) translate(-106.8125 6.592499999999999)"
      fill="white" stroke="black" stroke-width="2"/>
    <circle 
      cx="106.81314303867816" cy="-12.611989638604202"
      r="15" transform="translate(106.81314303867816 -6.611989638604202) scale(0.000014999999999999999 -0.000014999999999999999) translate(-106.81314303867816 6.611989638604202) translate(106.8125 -6.592499999999999) rotate(-30) translate(-106.8125 6.592499999999999)"
      fill="white" stroke="black" stroke-width="2"/>
    <circle 
      cx="106.815" cy="-12.6175"
      r="15" transform="translate(106.815 -6.6175) scale(0.000014999999999999999 -0.000014999999999999999) translate(-106.815 6.6175) translate(106.8125 -6.592499999999999) rotate(-30) translate(-106.8125 6.592499999999999)"
      fill="white" stroke="none"/>
    <circle 
      cx="106.81324934148152" cy="-12.614200386665221"
      r="15" transform="translate(106.81324934148152 -6.614200386665222) scale(0.000014999999999999999 -0.000014999999999999999) translate(-106.81324934148152 6.614200386665222) translate(106.8125 -6.592499999999999) rotate(-30) translate(-106.8125 6.592499999999999)"
      fill="white" stroke="none"/>
    <circle 
      cx="106.80867072977472" cy="-12.607918105486124"
      r="15" transform="translate(106.80867072977472 -6.6079181054861245) scale(0.000014999999999999999 -0.000014999999999999999) translate(-106.80867072977472 6.6079181054861245) translate(106.8125 -6.592499999999999) rotate(-30) translate(-106.8125 6.592499999999999)"
      fill="white" stroke="none"/>
    <circle 
      cx="106.80321896966983" cy="-12.602355889226772"
      r="15" transform="translate(106.80321896966983 -6.602355889226772) scale(0.000014999999999999999 -0.000014999999999999999) translate(-106.80321896966983 6.602355889226772) translate(106.8125 -6.592499999999999) rotate(-30) translate(-106.8125 6.592499999999999)"
      fill="white" stroke="none"/>
    <circle 
      cx="106.81591443006594" cy="-12.621940141087734"
      r="15" transform="translate(106.81591443006594 -6.621940141087733) scale(0.000014999999999999999 -0.000014999999999999999) translate(-106.81591443006594 6.621940141087733) translate(106.8125 -6.592499999999999) rotate(-30) translate(-106.8125 6.592499999999999)"
      fill="white" stroke="none"/>
    <circle 
      cx="106.81154460639158" cy="-12.611015581901782"
      r="15" transform="translate(106.81154460639158 -6.611015581901781) scale(0.000014999999999999999 -0.000014999999999999999) translate(-106.81154460639158 6.611015581901781) translate(106.8125 -6.592499999999999) rotate(-30) translate(-106.8125 6.592499999999999)"
      fill="white" stroke="none"/>
    <circle 
      cx="106.8105" cy="-12.608699999999999"
      r="15" transform="translate(106.8105 -6.6087) scale(0.000014999999999999999 -0.000014999999999999999) translate(-106.8105 6.6087) translate(106.8125 -6.592499999999999) rotate(-30) translate(-106.8125 6.592499999999999)"
      fill="white" stroke="none"/>
    <circle 
      cx="106.81314303867816" cy="-12.611989638604202"
      r="15" transform="translate(106.81314303867816 -6.611989638604202) scale(0.000014999999999999999 -0.000014999999999999999) translate(-106.81314303867816 6.611989638604202) translate(106.8125 -6.592499999999999) rotate(-30) translate(-106.8125 6.592499999999999)"
      fill="white" stroke="none"/>
    <text x="106.815" y="-6.6175" fill="black" text-anchor="middle" transform="translate(106.815 -6.6175) scale(0.000014999999999999999 -0.000014999999999999999) translate(-106.815 6.6175) translate(106.8125 -6.592499999999999) rotate(-30) translate(-106.8125 6.592499999999999)">11</text>
    <text x="106.81324934148152" y="-6.614200386665222" fill="black" text-anchor="middle" transform="translate(106.81324934148152 -6.614200386665222) scale(0.000014999999999999999 -0.000014999999999999999) translate(-106.81324934148152 6.614200386665222) translate(106.8125 -6.592499999999999) rotate(-30) translate(-106.8125 6.592499999999999)">11</text>
    <text x="106.80867072977472" y="-6.6079181054861245" fill="black" text-anchor="middle" transform="translate(106.80867072977472 -6.6079181054861245) scale(0.000014999999999999999 -0.000014999999999999999) translate(-106.80867072977472 6.6079181054861245) translate(106.8125 -6.592499999999999) rotate(-30) translate(-106.8125 6.592499999999999)">11</text>
    <text x="106.80321896966983" y="-6.602355889226772" fill="black" text-anchor="middle" transform="translate(106.80321896966983 -6.602355889226772) scale(0.000014999999999999999 -0.000014999999999999999) translate(-106.80321896966983 6.602355889226772) translate(106.8125 -6.592499999999999) rotate(-30) translate(-106.8125 6.592499999999999)">11</text>
    <text x="106.81591443006594" y="-6.621940141087733" fill="black" text-anchor="middle" transform="translate(106.81591443006594 -6.621940141087733) scale(0.000014999999999999999 -0.000014999999999999999) translate(-106.81591443006594 6.621940141087733) translate(106.8125 -6.592499999999999) rotate(-30) translate(-106.8125 6.592499999999999)">11</text>
    <text x="106.81154460639158" y="-6.611015581901781" fill="black" text-anchor="middle" transform="translate(106.81154460639158 -6.611015581901781) scale(0.000014999999999999999 -0.000014999999999999999) translate(-106.81154460639158 6.611015581901781) translate(106.8125 -6.592499999999999) rotate(-30) translate(-106.8125 6.592499999999999)">11</text>
    <text x="106.8105" y="-6.6087" fill="black" text-anchor="middle" transform="translate(106.8105 -6.6087) scale(0.000014999999999999999 -0.000014999999999999999) translate(-106.8105 6.6087) translate(106.8125 -6.592499999999999) rotate(-30) translate(-106.8125 6.592499999999999)">11</text>
    <text x="106.81314303867816" y="-6.611989638604202" fill="black" text-anchor="middle" transform="translate(106.81314303867816 -6.611989638604202) scale(0.000014999999999999999 -0.000014999999999999999) translate(-106.81314303867816 6.611989638604202) translate(106.8125 -6.592499999999999) rotate(-30) translate(-106.8125 6.592499999999999)">11</text>
  </g>
</svg>
