<svg width="1049.9999999998977" height="1849.9999999999961" xmlns="http://www.w3.org/2000/svg" xmlns:xlink="http://www.w3.org/1999/xlink" >
  <g transform="translate(524.9999999999488 924.9999999999981) rotate(30) scale(10000 -10000) translate(-106.8125 6.592499999999999)">
    <path d="M106.76 -6.5 L106.865 -6.5 L106.865 -6.685 L106.76 -6.685 Z" fill="none" stroke="black" stroke-width="0.0001" transform="translate(106.8125 -6.592499999999999) rotate(30) translate(-106.8125 6.592499999999999)" />
    <text x="106.815" y="-6.6175" fill="black" transform="translate(106.815 -6.6175) scale(0.00002 -0.00002) rotate(-30) translate(-106.815 6.6175)">11</text>
    <text x="106.81306233537039" y="-6.6129250966663164" fill="black" transform="translate(106.81306233537039 -6.6129250966663164) scale(0.00002 -0.00002) rotate(-30) translate(-106.81306233537039 6.6129250966663164)">11</text>
    <text x="106.80869268244368" y="-6.606929526371536" fill="black" transform="translate(106.80869268244368 -6.606929526371536) scale(0.00002 -0.00002) rotate(-30) translate(-106.80869268244368 6.606929526371536)">11</text>
    <text x="106.80796880600509" y="-6.607239759130935" fill="black" transform="translate(106.80796880600509 -6.607239759130935) scale(0.00002 -0.00002) rotate(-30) translate(-106.80796880600509 6.607239759130935)">11</text>
    <text x="106.80732895902072" y="-6.606813194474693" fill="black" transform="translate(106.80732895902072 -6.606813194474693) scale(0.00002 -0.00002) rotate(-30) translate(-106.80732895902072 6.606813194474693)">11</text>
    <text x="106.80655178427516" y="-6.606924219438347" fill="black" transform="translate(106.80655178427516 -6.606924219438347) scale(0.00002 -0.00002) rotate(-30) translate(-106.80655178427516 6.606924219438347)">11</text>
    <text x="106.80563621463622" y="-6.6055" fill="black" transform="translate(106.80563621463622 -6.6055) scale(0.00002 -0.00002) rotate(-30) translate(-106.80563621463622 6.6055)">11</text>
    <text x="106.80486083446164" y="-6.6055" fill="black" transform="translate(106.80486083446164 -6.6055) scale(0.00002 -0.00002) rotate(-30) translate(-106.80486083446164 6.6055)">11</text>
    <text x="106.80402974241744" y="-6.601863972306694" fill="black" transform="translate(106.80402974241744 -6.601863972306694) scale(0.00002 -0.00002) rotate(-30) translate(-106.80402974241744 6.601863972306694)">11</text>
    <text x="106.80001502878356" y="-6.602776407223486" fill="black" transform="translate(106.80001502878356 -6.602776407223486) scale(0.00002 -0.00002) rotate(-30) translate(-106.80001502878356 6.602776407223486)">11</text>
    <text x="106.80029161136612" y="-6.604343708524579" fill="black" transform="translate(106.80029161136612 -6.604343708524579) scale(0.00002 -0.00002) rotate(-30) translate(-106.80029161136612 6.604343708524579)">11</text>
    <text x="106.80186992135965" y="-6.605527441019736" fill="black" transform="translate(106.80186992135965 -6.605527441019736) scale(0.00002 -0.00002) rotate(-30) translate(-106.80186992135965 6.605527441019736)">11</text>
    <text x="106.80358025746494" y="-6.607640209149802" fill="black" transform="translate(106.80358025746494 -6.607640209149802) scale(0.00002 -0.00002) rotate(-30) translate(-106.80358025746494 6.607640209149802)">11</text>
    <text x="106.80492939532867" y="-6.6096120260275635" fill="black" transform="translate(106.80492939532867 -6.6096120260275635) scale(0.00002 -0.00002) rotate(-30) translate(-106.80492939532867 6.6096120260275635)">11</text>
    <text x="106.8046396085637" y="-6.609901812792528" fill="black" transform="translate(106.8046396085637 -6.609901812792528) scale(0.00002 -0.00002) rotate(-30) translate(-106.8046396085637 6.609901812792528)">11</text>
    <text x="106.81202872522059" y="-6.617685015671129" fill="black" transform="translate(106.81202872522059 -6.617685015671129) scale(0.00002 -0.00002) rotate(-30) translate(-106.81202872522059 6.617685015671129)">11</text>
    <text x="106.81227895500373" y="-6.617601605743415" fill="black" transform="translate(106.81227895500373 -6.617601605743415) scale(0.00002 -0.00002) rotate(-30) translate(-106.81227895500373 6.617601605743415)">11</text>
    <text x="106.81331665419052" y="-6.617497835824737" fill="black" transform="translate(106.81331665419052 -6.617497835824737) scale(0.00002 -0.00002) rotate(-30) translate(-106.81331665419052 6.617497835824737)">11</text>
    <text x="106.81514127094405" y="-6.618318913363829" fill="black" transform="translate(106.81514127094405 -6.618318913363829) scale(0.00002 -0.00002) rotate(-30) translate(-106.81514127094405 6.618318913363829)">11</text>
    <text x="106.81522860751647" y="-6.618610035271898" fill="black" transform="translate(106.81522860751647 -6.618610035271898) scale(0.00002 -0.00002) rotate(-30) translate(-106.81522860751647 6.618610035271898)">11</text>
    <text x="106.8126361515979" y="-6.612128895475445" fill="black" transform="translate(106.8126361515979 -6.612128895475445) scale(0.00002 -0.00002) rotate(-30) translate(-106.8126361515979 6.612128895475445)">11</text>
    <text x="106.8105" y="-6.6087" fill="black" transform="translate(106.8105 -6.6087) scale(0.00002 -0.00002) rotate(-30) translate(-106.8105 6.6087)">11</text>
    <text x="106.81303575966955" y="-6.612372409651051" fill="black" transform="translate(106.81303575966955 -6.612372409651051) scale(0.00002 -0.00002) rotate(-30) translate(-106.81303575966955 6.612372409651051)">11</text>
    <text x="106.81492571063274" y="-6.611477169721113" fill="black" transform="translate(106.81492571063274 -6.611477169721113) scale(0.00002 -0.00002) rotate(-30) translate(-106.81492571063274 6.611477169721113)">11</text>
    <text x="106.81689679975025" y="-6.613743922206252" fill="black" transform="translate(106.81689679975025 -6.613743922206252) scale(0.00002 -0.00002) rotate(-30) translate(-106.81689679975025 6.613743922206252)">11</text>
    <text x="106.81724581655652" y="-6.613307651198411" fill="black" transform="translate(106.81724581655652 -6.613307651198411) scale(0.00002 -0.00002) rotate(-30) translate(-106.81724581655652 6.613307651198411)">11</text>
    <text x="106.81793432169776" y="-6.6131929003415335" fill="black" transform="translate(106.81793432169776 -6.6131929003415335) scale(0.00002 -0.00002) rotate(-30) translate(-106.81793432169776 6.6131929003415335)">11</text>
    <text x="106.81823286747164" y="-6.613491446115401" fill="black" transform="translate(106.81823286747164 -6.613491446115401) scale(0.00002 -0.00002) rotate(-30) translate(-106.81823286747164 6.613491446115401)">11</text>
    <text x="106.81876695230494" y="-6.613384629148743" fill="black" transform="translate(106.81876695230494 -6.613384629148743) scale(0.00002 -0.00002) rotate(-30) translate(-106.81876695230494 6.613384629148743)">11</text>
    <text x="106.81886695230492" y="-6.613684629148745" fill="black" transform="translate(106.81886695230492 -6.613684629148745) scale(0.00002 -0.00002) rotate(-30) translate(-106.81886695230492 6.613684629148745)">11</text>
    <text x="106.81917483915156" y="-6.6136230517794194" fill="black" transform="translate(106.81917483915156 -6.6136230517794194) scale(0.00002 -0.00002) rotate(-30) translate(-106.81917483915156 6.6136230517794194)">11</text>
    <text x="106.8186796664675" y="-6.611840430116856" fill="black" transform="translate(106.8186796664675 -6.611840430116856) scale(0.00002 -0.00002) rotate(-30) translate(-106.8186796664675 6.611840430116856)">11</text>
    <text x="106.81969090450595" y="-6.611435934901483" fill="black" transform="translate(106.81969090450595 -6.611435934901483) scale(0.00002 -0.00002) rotate(-30) translate(-106.81969090450595 6.611435934901483)">11</text>
    <text x="106.8194" y="-6.6084" fill="black" transform="translate(106.8194 -6.6084) scale(0.00002 -0.00002) rotate(-30) translate(-106.8194 6.6084)">11</text>
    <text x="106.81988363081135" y="-6.611366713807543" fill="black" transform="translate(106.81988363081135 -6.611366713807543) scale(0.00002 -0.00002) rotate(-30) translate(-106.81988363081135 6.611366713807543)">11</text>
    <text x="106.82037693149537" y="-6.611202280246206" fill="black" transform="translate(106.82037693149537 -6.611202280246206) scale(0.00002 -0.00002) rotate(-30) translate(-106.82037693149537 6.611202280246206)">11</text>
    <text x="106.8211" y="-6.6112" fill="black" transform="translate(106.8211 -6.6112) scale(0.00002 -0.00002) rotate(-30) translate(-106.8211 6.6112)">11</text>
    <text x="106.82042306850465" y="-6.611397719753791" fill="black" transform="translate(106.82042306850465 -6.611397719753791) scale(0.00002 -0.00002) rotate(-30) translate(-106.82042306850465 6.611397719753791)">11</text>
    <text x="106.81991537085125" y="-6.611566952304924" fill="black" transform="translate(106.81991537085125 -6.611566952304924) scale(0.00002 -0.00002) rotate(-30) translate(-106.81991537085125 6.611566952304924)">11</text>
    <text x="106.82019113546961" y="-6.612945775396745" fill="black" transform="translate(106.82019113546961 -6.612945775396745) scale(0.00002 -0.00002) rotate(-30) translate(-106.82019113546961 6.612945775396745)">11</text>
    <text x="106.8207" y="-6.6135" fill="black" transform="translate(106.8207 -6.6135) scale(0.00002 -0.00002) rotate(-30) translate(-106.8207 6.6135)">11</text>
    <text x="106.82000886453038" y="-6.61305422460325" fill="black" transform="translate(106.82000886453038 -6.61305422460325) scale(0.00002 -0.00002) rotate(-30) translate(-106.82000886453038 6.61305422460325)">11</text>
    <text x="106.81972551876756" y="-6.611637495789117" fill="black" transform="translate(106.81972551876756 -6.611637495789117) scale(0.00002 -0.00002) rotate(-30) translate(-106.81972551876756 6.611637495789117)">11</text>
    <text x="106.81892033353249" y="-6.611959569883141" fill="black" transform="translate(106.81892033353249 -6.611959569883141) scale(0.00002 -0.00002) rotate(-30) translate(-106.81892033353249 6.611959569883141)">11</text>
    <text x="106.81942516084845" y="-6.61377694822058" fill="black" transform="translate(106.81942516084845 -6.61377694822058) scale(0.00002 -0.00002) rotate(-30) translate(-106.81942516084845 6.61377694822058)">11</text>
    <text x="106.81873304769506" y="-6.613915370851256" fill="black" transform="translate(106.81873304769506 -6.613915370851256) scale(0.00002 -0.00002) rotate(-30) translate(-106.81873304769506 6.613915370851256)">11</text>
    <text x="106.81863304769509" y="-6.613615370851256" fill="black" transform="translate(106.81863304769509 -6.613615370851256) scale(0.00002 -0.00002) rotate(-30) translate(-106.81863304769509 6.613615370851256)">11</text>
    <text x="106.81816713252837" y="-6.613708553884598" fill="black" transform="translate(106.81816713252837 -6.613708553884598) scale(0.00002 -0.00002) rotate(-30) translate(-106.81816713252837 6.613708553884598)">11</text>
    <text x="106.81786567830223" y="-6.613407099658467" fill="black" transform="translate(106.81786567830223 -6.613407099658467) scale(0.00002 -0.00002) rotate(-30) translate(-106.81786567830223 6.613407099658467)">11</text>
    <text x="106.81735418344348" y="-6.613492348801592" fill="black" transform="translate(106.81735418344348 -6.613492348801592) scale(0.00002 -0.00002) rotate(-30) translate(-106.81735418344348 6.613492348801592)">11</text>
    <text x="106.81690320024975" y="-6.614056077793748" fill="black" transform="translate(106.81690320024975 -6.614056077793748) scale(0.00002 -0.00002) rotate(-30) translate(-106.81690320024975 6.614056077793748)">11</text>
    <text x="106.81487428936725" y="-6.611722830278885" fill="black" transform="translate(106.81487428936725 -6.611722830278885) scale(0.00002 -0.00002) rotate(-30) translate(-106.81487428936725 6.611722830278885)">11</text>
    <text x="106.81312775727737" y="-6.612550134953046" fill="black" transform="translate(106.81312775727737 -6.612550134953046) scale(0.00002 -0.00002) rotate(-30) translate(-106.81312775727737 6.612550134953046)">11</text>
    <path d="M106.815 -6.6175 L106.81306233537039 -6.6129250966663164 L106.80869268244368 -6.606929526371536 L106.80796880600509 -6.607239759130935 L106.80732895902072 -6.606813194474693 L106.80655178427516 -6.606924219438347 L106.80563621463622 -6.6055 L106.80486083446164 -6.6055 L106.80402974241744 -6.601863972306694 L106.80001502878356 -6.602776407223486 L106.80029161136612 -6.604343708524579 L106.80186992135965 -6.605527441019736 L106.80358025746494 -6.607640209149802 L106.80492939532867 -6.6096120260275635 L106.8046396085637 -6.609901812792528 L106.81202872522059 -6.617685015671129 L106.81227895500373 -6.617601605743415 L106.81331665419052 -6.617497835824737 L106.81514127094405 -6.618318913363829 L106.81522860751647 -6.618610035271898 L106.8126361515979 -6.612128895475445 L106.8105 -6.6087 L106.81303575966955 -6.612372409651051 L106.81492571063274 -6.611477169721113 L106.81689679975025 -6.613743922206252 L106.81724581655652 -6.613307651198411 L106.81793432169776 -6.6131929003415335 L106.81823286747164 -6.613491446115401 L106.81876695230494 -6.613384629148743 L106.81886695230492 -6.613684629148745 L106.81917483915156 -6.6136230517794194 L106.8186796664675 -6.611840430116856 L106.81969090450595 -6.611435934901483 L106.8194 -6.6084 L106.81988363081135 -6.611366713807543 L106.82037693149537 -6.611202280246206 L106.8211 -6.6112 L106.82042306850465 -6.611397719753791 L106.81991537085125 -6.611566952304924 L106.82019113546961 -6.612945775396745 L106.8207 -6.6135 L106.82000886453038 -6.61305422460325 L106.81972551876756 -6.611637495789117 L106.81892033353249 -6.611959569883141 L106.81942516084845 -6.61377694822058 L106.81873304769506 -6.613915370851256 L106.81863304769509 -6.613615370851256 L106.81816713252837 -6.613708553884598 L106.81786567830223 -6.613407099658467 L106.81735418344348 -6.613492348801592 L106.81690320024975 -6.614056077793748 L106.81487428936725 -6.611722830278885 L106.81312775727737 -6.612550134953046 Z" stroke="brown" stroke-width="0.00002" fill="none" />
  </g>
</svg>
