<svg width="1049.9999999998977" height="1849.9999999999961" xmlns="http://www.w3.org/2000/svg" xmlns:xlink="http://www.w3.org/1999/xlink" >
  <g transform="translate(524.9999999999488 924.9999999999981) rotate(30) scale(10000 -10000) translate(-106.8125 6.592499999999999)">
    <path d="M106.76 -6.5 L106.865 -6.5 L106.865 -6.685 L106.76 -6.685 Z" fill="none" stroke="black" stroke-width="0.0005" transform="translate(106.8125 -6.592499999999999) rotate(30) translate(-106.8125 6.592499999999999)" />
    <path d="M106.80887108553881 -6.603903443893209 L106.81547101067241 -6.599189211654935 L106.81765391934466 -6.597790345115619 L106.81799914560325 -6.599364250656742 L106.81793482974673 -6.5995133888747075 L106.81743435232639 -6.594714167897536 L106.81704113185062 -6.593238094081105 L106.81663207171934 -6.590769696916334 L106.81627 -6.587249 L106.81681520609816 -6.590628337851865 L106.81843331535002 -6.590186383358144 L106.81840099344012 -6.589255108328977 L106.82066620963202 -6.58889529059452 L106.8209093407403 -6.588592688567689 L106.82286155882235 -6.583044124850488 L106.82184034420034 -6.582836552942657 L106.82291762159016 -6.57416813450483 L106.8222192877257 -6.573643152911377 L106.82187162000601 -6.569689066105115 L106.82300073688693 -6.556650621483787 L106.82483011972985 -6.552323542545624 L106.82455824907902 -6.550392189033358 L106.82398835194375 -6.549561089044413 L106.82318962104698 -6.549231470472523 L106.823131 -6.548052 L106.82337237895301 -6.549090529527472 L106.82411964805625 -6.549398910955591 L106.82474975092096 -6.55031781096662 L106.82503588027015 -6.552350457454378 L106.82319726311309 -6.55669937851621 L106.822072379994 -6.569688933894887 L106.8224107122743 -6.57353684708862 L106.82313037840984 -6.574077865495166 L106.82206165579966 -6.582677447057343 L106.82312644117764 -6.582893875149511 L106.82108665925972 -6.588691311432289 L106.82077379036795 -6.58908070940548 L106.81860700655989 -6.5894248916710225 L106.81863868464998 -6.590337616641855 L106.81684440950907 -6.590827687359014 L106.81723686814935 -6.593195905918805 L106.81763164767361 -6.594677832102462 L106.81813640289565 -6.599518074142434 L106.818964900462 -6.606687885781538 L106.81786967603257 -6.599707479478252 L106.81752008065533 -6.598113654884388 L106.81892898932759 -6.59721078834507 L106.81852891446121 -6.597496556106764 L106.808242 -6.604458 Z" stroke="grey" stroke-width="0.0001" fill="none" />
  </g>
</svg>
