<svg width="1049.9999999998977" height="1849.9999999999961" xmlns="http://www.w3.org/2000/svg" xmlns:xlink="http://www.w3.org/1999/xlink" >
  <g transform="translate(524.9999999999488 924.9999999999981) rotate(30) scale(10000 -10000) translate(-106.8125 6.592499999999999)">
    <path d="M106.76 -6.5 L106.865 -6.5 L106.865 -6.685 L106.76 -6.685 Z" fill="none" stroke="black" stroke-width="0.0025" transform="translate(106.8125 -6.592499999999999) rotate(30) translate(-106.8125 6.592499999999999)" />
    <path d="M106.75661153810758 -6.569583754144197 L106.75965106941635 -6.567753957938864 L106.77042728116328 -6.557499029992545 L106.77791067986237 -6.555761829454093 L106.77078798633568 -6.540095077131332 L106.767781 -6.53387 L106.77039655612408 -6.536495173136448 L106.77168451759884 -6.535624928896742 L106.77291688520225 -6.535930457637019 L106.77641378035398 -6.534198258658735 L106.7909916869429 -6.533688725658497 L106.78897209201335 -6.533663000262271 L106.78992935358552 -6.532777659929911 L106.7951985851828 -6.5330334120155 L106.79538190120326 -6.530786128573059 L106.79583107344435 -6.530733212391231 L106.79594652869517 -6.530204492083766 L106.800305 -6.530774 L106.79724947130484 -6.531737507916234 L106.79715092655566 -6.532188787608769 L106.79687009879675 -6.532221871426942 L106.79666741481721 -6.534706587984502 L106.79052264641449 -6.534408340070088 L106.78958990798667 -6.53527099973773 L106.77422431305709 -6.535075274341503 L106.77661421964604 -6.5349917413412655 L106.77300911479776 -6.536777542362982 L106.77183748240115 -6.5364870711032586 L106.77045203959739 -6.537423181105804 L106.77904332013762 -6.556320170545907 L106.77082071883673 -6.558228970007452 L106.76013893058364 -6.568394042061143 L106.7584500201621 -6.569410765222221 L106.75520335950681 -6.572214519673673 L106.75418985250388 -6.56709184567707 Z" stroke="darkgreen" stroke-width="0.0005" fill="none" />
    <circle 
      cx="106.75661153810758" cy="-12.569583754144197"
      r="15" transform="translate(106.75661153810758 -6.569583754144197) scale(0.000014999999999999999 -0.000014999999999999999) translate(-106.75661153810758 6.569583754144197) translate(106.8125 -6.592499999999999) rotate(-30) translate(-106.8125 6.592499999999999)"
      fill="white" stroke="black" stroke-width="2"/>
    <circle 
      cx="106.77078798633568" cy="-12.540095077131333"
      r="15" transform="translate(106.77078798633568 -6.540095077131332) scale(0.000014999999999999999 -0.000014999999999999999) translate(-106.77078798633568 6.540095077131332) translate(106.8125 -6.592499999999999) rotate(-30) translate(-106.8125 6.592499999999999)"
      fill="white" stroke="black" stroke-width="2"/>
    <circle 
      cx="106.77039655612408" cy="-12.536495173136448"
      r="15" transform="translate(106.77039655612408 -6.536495173136448) scale(0.000014999999999999999 -0.000014999999999999999) translate(-106.77039655612408 6.536495173136448) translate(106.8125 -6.592499999999999) rotate(-30) translate(-106.8125 6.592499999999999)"
      fill="white" stroke="black" stroke-width="2"/>
    <circle 
      cx="106.7909916869429" cy="-12.533688725658497"
      r="15" transform="translate(106.7909916869429 -6.533688725658497) scale(0.000014999999999999999 -0.000014999999999999999) translate(-106.7909916869429 6.533688725658497) translate(106.8125 -6.592499999999999) rotate(-30) translate(-106.8125 6.592499999999999)"
      fill="white" stroke="black" stroke-width="2"/>
    <circle 
      cx="106.77422431305709" cy="-12.535075274341503"
      r="15" transform="translate(106.77422431305709 -6.535075274341503) scale(0.000014999999999999999 -0.000014999999999999999) translate(-106.77422431305709 6.535075274341503) translate(106.8125 -6.592499999999999) rotate(-30) translate(-106.8125 6.592499999999999)"
      fill="white" stroke="black" stroke-width="2"/>
    <circle 
      cx="106.7584500201621" cy="-12.569410765222221"
      r="15" transform="translate(106.7584500201621 -6.569410765222221) scale(0.000014999999999999999 -0.000014999999999999999) translate(-106.7584500201621 6.569410765222221) translate(106.8125 -6.592499999999999) rotate(-30) translate(-106.8125 6.592499999999999)"
      fill="white" stroke="black" stroke-width="2"/>
    <circle 
      cx="106.75520335950681" cy="-12.572214519673672"
      r="15" transform="translate(106.75520335950681 -6.572214519673673) scale(0.000014999999999999999 -0.000014999999999999999) translate(-106.75520335950681 6.572214519673673) translate(106.8125 -6.592499999999999) rotate(-30) translate(-106.8125 6.592499999999999)"
      fill="white" stroke="black" stroke-width="2"/>
    <circle 
      cx="106.75418985250388" cy="-12.56709184567707"
      r="15" transform="translate(106.75418985250388 -6.56709184567707) scale(0.000014999999999999999 -0.000014999999999999999) translate(-106.75418985250388 6.56709184567707) translate(106.8125 -6.592499999999999) rotate(-30) translate(-106.8125 6.592499999999999)"
      fill="white" stroke="black" stroke-width="2"/>
    <circle 
      cx="106.75661153810758" cy="-12.569583754144197"
      r="15" transform="translate(106.75661153810758 -6.569583754144197) scale(0.000014999999999999999 -0.000014999999999999999) translate(-106.75661153810758 6.569583754144197) translate(106.8125 -6.592499999999999) rotate(-30) translate(-106.8125 6.592499999999999)"
      fill="white" stroke="none"/>
    <circle 
      cx="106.77078798633568" cy="-12.540095077131333"
      r="15" transform="translate(106.77078798633568 -6.540095077131332) scale(0.000014999999999999999 -0.000014999999999999999) translate(-106.77078798633568 6.540095077131332) translate(106.8125 -6.592499999999999) rotate(-30) translate(-106.8125 6.592499999999999)"
      fill="white" stroke="none"/>
    <circle 
      cx="106.77039655612408" cy="-12.536495173136448"
      r="15" transform="translate(106.77039655612408 -6.536495173136448) scale(0.000014999999999999999 -0.000014999999999999999) translate(-106.77039655612408 6.536495173136448) translate(106.8125 -6.592499999999999) rotate(-30) translate(-106.8125 6.592499999999999)"
      fill="white" stroke="none"/>
    <circle 
      cx="106.7909916869429" cy="-12.533688725658497"
      r="15" transform="translate(106.7909916869429 -6.533688725658497) scale(0.000014999999999999999 -0.000014999999999999999) translate(-106.7909916869429 6.533688725658497) translate(106.8125 -6.592499999999999) rotate(-30) translate(-106.8125 6.592499999999999)"
      fill="white" stroke="none"/>
    <circle 
      cx="106.77422431305709" cy="-12.535075274341503"
      r="15" transform="translate(106.77422431305709 -6.535075274341503) scale(0.000014999999999999999 -0.000014999999999999999) translate(-106.77422431305709 6.535075274341503) translate(106.8125 -6.592499999999999) rotate(-30) translate(-106.8125 6.592499999999999)"
      fill="white" stroke="none"/>
    <circle 
      cx="106.7584500201621" cy="-12.569410765222221"
      r="15" transform="translate(106.7584500201621 -6.569410765222221) scale(0.000014999999999999999 -0.000014999999999999999) translate(-106.7584500201621 6.569410765222221) translate(106.8125 -6.592499999999999) rotate(-30) translate(-106.8125 6.592499999999999)"
      fill="white" stroke="none"/>
    <circle 
      cx="106.75520335950681" cy="-12.572214519673672"
      r="15" transform="translate(106.75520335950681 -6.572214519673673) scale(0.000014999999999999999 -0.000014999999999999999) translate(-106.75520335950681 6.572214519673673) translate(106.8125 -6.592499999999999) rotate(-30) translate(-106.8125 6.592499999999999)"
      fill="white" stroke="none"/>
    <circle 
      cx="106.75418985250388" cy="-12.56709184567707"
      r="15" transform="translate(106.75418985250388 -6.56709184567707) scale(0.000014999999999999999 -0.000014999999999999999) translate(-106.75418985250388 6.56709184567707) translate(106.8125 -6.592499999999999) rotate(-30) translate(-106.8125 6.592499999999999)"
      fill="white" stroke="none"/>
    <text x="106.75661153810758" y="-6.569583754144197" fill="black" text-anchor="middle" transform="translate(106.75661153810758 -6.569583754144197) scale(0.000014999999999999999 -0.000014999999999999999) translate(-106.75661153810758 6.569583754144197) translate(106.8125 -6.592499999999999) rotate(-30) translate(-106.8125 6.592499999999999)">19</text>
    <text x="106.77078798633568" y="-6.540095077131332" fill="black" text-anchor="middle" transform="translate(106.77078798633568 -6.540095077131332) scale(0.000014999999999999999 -0.000014999999999999999) translate(-106.77078798633568 6.540095077131332) translate(106.8125 -6.592499999999999) rotate(-30) translate(-106.8125 6.592499999999999)">19</text>
    <text x="106.77039655612408" y="-6.536495173136448" fill="black" text-anchor="middle" transform="translate(106.77039655612408 -6.536495173136448) scale(0.000014999999999999999 -0.000014999999999999999) translate(-106.77039655612408 6.536495173136448) translate(106.8125 -6.592499999999999) rotate(-30) translate(-106.8125 6.592499999999999)">19</text>
    <text x="106.7909916869429" y="-6.533688725658497" fill="black" text-anchor="middle" transform="translate(106.7909916869429 -6.533688725658497) scale(0.000014999999999999999 -0.000014999999999999999) translate(-106.7909916869429 6.533688725658497) translate(106.8125 -6.592499999999999) rotate(-30) translate(-106.8125 6.592499999999999)">19</text>
    <text x="106.77422431305709" y="-6.535075274341503" fill="black" text-anchor="middle" transform="translate(106.77422431305709 -6.535075274341503) scale(0.000014999999999999999 -0.000014999999999999999) translate(-106.77422431305709 6.535075274341503) translate(106.8125 -6.592499999999999) rotate(-30) translate(-106.8125 6.592499999999999)">19</text>
    <text x="106.7584500201621" y="-6.569410765222221" fill="black" text-anchor="middle" transform="translate(106.7584500201621 -6.569410765222221) scale(0.000014999999999999999 -0.000014999999999999999) translate(-106.7584500201621 6.569410765222221) translate(106.8125 -6.592499999999999) rotate(-30) translate(-106.8125 6.592499999999999)">19</text>
    <text x="106.75520335950681" y="-6.572214519673673" fill="black" text-anchor="middle" transform="translate(106.75520335950681 -6.572214519673673) scale(0.000014999999999999999 -0.000014999999999999999) translate(-106.75520335950681 6.572214519673673) translate(106.8125 -6.592499999999999) rotate(-30) translate(-106.8125 6.592499999999999)">19</text>
    <text x="106.75418985250388" y="-6.56709184567707" fill="black" text-anchor="middle" transform="translate(106.75418985250388 -6.56709184567707) scale(0.000014999999999999999 -0.000014999999999999999) translate(-106.75418985250388 6.56709184567707) translate(106.8125 -6.592499999999999) rotate(-30) translate(-106.8125 6.592499999999999)">19</text>
  </g>
</svg>
