<svg width="1049.9999999998977" height="1849.9999999999961" xmlns="http://www.w3.org/2000/svg" xmlns:xlink="http://www.w3.org/1999/xlink" >
  <g transform="translate(524.9999999999488 924.9999999999981) rotate(30) scale(10000 -10000) translate(-106.8125 6.592499999999999)">
    <path d="M106.76 -6.5 L106.865 -6.5 L106.865 -6.685 L106.76 -6.685 Z" fill="none" stroke="black" stroke-width="0.0025" transform="translate(106.8125 -6.592499999999999) rotate(30) translate(-106.8125 6.592499999999999)" />
    <path d="M106.79612408907718 -6.606373304361018 L106.79557063688702 -6.608255041807611 L106.79270156387913 -6.607631677755758 L106.79223222793549 -6.605978216895645 L106.79285363726848 -6.605964740548664 L106.79290709768968 -6.606816543259665 L106.79228777800823 -6.60784175553237 L106.79279617391504 -6.610896972839039 L106.79301173919063 -6.614786946221333 L106.79485823111915 -6.617764582115755 L106.79436914994962 -6.617558653202381 L106.79457272655227 -6.618637556592709 L106.79514534810504 -6.618806526886966 L106.79496194575891 -6.620565639530831 L106.79431319706546 -6.62196736531141 L106.79443286757072 -6.623263628179212 L106.79352166711372 -6.625069441706254 L106.79195554445162 -6.6264293343959055 L106.79031149208531 -6.628480962468313 L106.78919171684188 -6.630060083811577 L106.78877608813843 -6.632067393364327 L106.78731928776315 -6.633023973395695 L106.78660052356307 -6.634226911271689 L106.78648695747646 -6.635886237981629 L106.78577250741678 -6.636449761691233 L106.7857925337572 -6.639031252335202 L106.78537395268152 -6.6402128067522215 L106.787238 -6.64118 L106.7843380473185 -6.640741193247778 L106.7849914662428 -6.638896747664787 L106.78496949258322 -6.636064238308765 L106.78571304252355 -6.63547776201838 L106.78581547643695 -6.633981088728309 L106.78672671223687 -6.632456026604296 L106.78805991186155 -6.631580606635673 L106.78844228315812 -6.629733916188406 L106.78967250791476 -6.627999037531602 L106.79137645554842 -6.625872665604071 L106.79287833288627 -6.624568558293752 L106.79361513242928 -6.623108371820788 L106.79349680293454 -6.6218266346885795 L106.7941800542411 -6.620350360469194 L106.79428065189495 -6.6193854731130335 L106.7938772734477 -6.619266443407289 L106.79330685005037 -6.616243346797621 L106.79285576888086 -6.616053417884242 L106.79222426080938 -6.615035053778664 L106.79199982608499 -6.610985027161072 L106.79124822199178 -6.606468244467617 L106.79127890231031 -6.606417456740329 L106.7911523627315 -6.604401259451336 L106.79343377206452 -6.604351783104356 L106.79410261022593 -6.606708086167501 L106.79874485780431 -6.60771670820403 L106.79700382497846 -6.607136363928753 L106.80066114282282 -6.610285720961389 L106.80187402048398 -6.610863281752418 L106.8019052478223 -6.610794545191358 L106.80243759954296 -6.610741588737472 L106.80268917711663 -6.610462084175669 L106.80035381981902 -6.608873936095937 L106.80035539665244 -6.60886493660765 L106.80023318481948 -6.608868708577804 L106.79837809292466 -6.607384144296919 L106.79714492835954 -6.605316550222024 L106.79700312387786 -6.605382606626264 L106.79717922539376 -6.605030403594468 Z" stroke="yellow" stroke-width="0.0005" fill="none" />
    <circle 
      cx="106.79557063688702" cy="-12.608255041807611"
      r="15" transform="translate(106.79557063688702 -6.608255041807611) scale(0.000014999999999999999 -0.000014999999999999999) translate(-106.79557063688702 6.608255041807611) translate(106.8125 -6.592499999999999) rotate(-30) translate(-106.8125 6.592499999999999)"
      fill="white" stroke="black" stroke-width="2"/>
    <circle 
      cx="106.79270156387913" cy="-12.607631677755759"
      r="15" transform="translate(106.79270156387913 -6.607631677755758) scale(0.000014999999999999999 -0.000014999999999999999) translate(-106.79270156387913 6.607631677755758) translate(106.8125 -6.592499999999999) rotate(-30) translate(-106.8125 6.592499999999999)"
      fill="white" stroke="black" stroke-width="2"/>
    <circle 
      cx="106.79228777800823" cy="-12.60784175553237"
      r="15" transform="translate(106.79228777800823 -6.60784175553237) scale(0.000014999999999999999 -0.000014999999999999999) translate(-106.79228777800823 6.60784175553237) translate(106.8125 -6.592499999999999) rotate(-30) translate(-106.8125 6.592499999999999)"
      fill="white" stroke="black" stroke-width="2"/>
    <circle 
      cx="106.79124822199178" cy="-12.606468244467617"
      r="15" transform="translate(106.79124822199178 -6.606468244467617) scale(0.000014999999999999999 -0.000014999999999999999) translate(-106.79124822199178 6.606468244467617) translate(106.8125 -6.592499999999999) rotate(-30) translate(-106.8125 6.592499999999999)"
      fill="white" stroke="black" stroke-width="2"/>
    <circle 
      cx="106.79874485780431" cy="-12.60771670820403"
      r="15" transform="translate(106.79874485780431 -6.60771670820403) scale(0.000014999999999999999 -0.000014999999999999999) translate(-106.79874485780431 6.60771670820403) translate(106.8125 -6.592499999999999) rotate(-30) translate(-106.8125 6.592499999999999)"
      fill="white" stroke="black" stroke-width="2"/>
    <circle 
      cx="106.80187402048398" cy="-12.610863281752419"
      r="15" transform="translate(106.80187402048398 -6.610863281752418) scale(0.000014999999999999999 -0.000014999999999999999) translate(-106.80187402048398 6.610863281752418) translate(106.8125 -6.592499999999999) rotate(-30) translate(-106.8125 6.592499999999999)"
      fill="white" stroke="black" stroke-width="2"/>
    <circle 
      cx="106.79714492835954" cy="-12.605316550222025"
      r="15" transform="translate(106.79714492835954 -6.605316550222024) scale(0.000014999999999999999 -0.000014999999999999999) translate(-106.79714492835954 6.605316550222024) translate(106.8125 -6.592499999999999) rotate(-30) translate(-106.8125 6.592499999999999)"
      fill="white" stroke="black" stroke-width="2"/>
    <circle 
      cx="106.79700312387786" cy="-12.605382606626264"
      r="15" transform="translate(106.79700312387786 -6.605382606626264) scale(0.000014999999999999999 -0.000014999999999999999) translate(-106.79700312387786 6.605382606626264) translate(106.8125 -6.592499999999999) rotate(-30) translate(-106.8125 6.592499999999999)"
      fill="white" stroke="black" stroke-width="2"/>
    <circle 
      cx="106.79557063688702" cy="-12.608255041807611"
      r="15" transform="translate(106.79557063688702 -6.608255041807611) scale(0.000014999999999999999 -0.000014999999999999999) translate(-106.79557063688702 6.608255041807611) translate(106.8125 -6.592499999999999) rotate(-30) translate(-106.8125 6.592499999999999)"
      fill="white" stroke="none"/>
    <circle 
      cx="106.79270156387913" cy="-12.607631677755759"
      r="15" transform="translate(106.79270156387913 -6.607631677755758) scale(0.000014999999999999999 -0.000014999999999999999) translate(-106.79270156387913 6.607631677755758) translate(106.8125 -6.592499999999999) rotate(-30) translate(-106.8125 6.592499999999999)"
      fill="white" stroke="none"/>
    <circle 
      cx="106.79228777800823" cy="-12.60784175553237"
      r="15" transform="translate(106.79228777800823 -6.60784175553237) scale(0.000014999999999999999 -0.000014999999999999999) translate(-106.79228777800823 6.60784175553237) translate(106.8125 -6.592499999999999) rotate(-30) translate(-106.8125 6.592499999999999)"
      fill="white" stroke="none"/>
    <circle 
      cx="106.79124822199178" cy="-12.606468244467617"
      r="15" transform="translate(106.79124822199178 -6.606468244467617) scale(0.000014999999999999999 -0.000014999999999999999) translate(-106.79124822199178 6.606468244467617) translate(106.8125 -6.592499999999999) rotate(-30) translate(-106.8125 6.592499999999999)"
      fill="white" stroke="none"/>
    <circle 
      cx="106.79874485780431" cy="-12.60771670820403"
      r="15" transform="translate(106.79874485780431 -6.60771670820403) scale(0.000014999999999999999 -0.000014999999999999999) translate(-106.79874485780431 6.60771670820403) translate(106.8125 -6.592499999999999) rotate(-30) translate(-106.8125 6.592499999999999)"
      fill="white" stroke="none"/>
    <circle 
      cx="106.80187402048398" cy="-12.610863281752419"
      r="15" transform="translate(106.80187402048398 -6.610863281752418) scale(0.000014999999999999999 -0.000014999999999999999) translate(-106.80187402048398 6.610863281752418) translate(106.8125 -6.592499999999999) rotate(-30) translate(-106.8125 6.592499999999999)"
      fill="white" stroke="none"/>
    <circle 
      cx="106.79714492835954" cy="-12.605316550222025"
      r="15" transform="translate(106.79714492835954 -6.605316550222024) scale(0.000014999999999999999 -0.000014999999999999999) translate(-106.79714492835954 6.605316550222024) translate(106.8125 -6.592499999999999) rotate(-30) translate(-106.8125 6.592499999999999)"
      fill="white" stroke="none"/>
    <circle 
      cx="106.79700312387786" cy="-12.605382606626264"
      r="15" transform="translate(106.79700312387786 -6.605382606626264) scale(0.000014999999999999999 -0.000014999999999999999) translate(-106.79700312387786 6.605382606626264) translate(106.8125 -6.592499999999999) rotate(-30) translate(-106.8125 6.592499999999999)"
      fill="white" stroke="none"/>
    <text x="106.79557063688702" y="-6.608255041807611" fill="black" text-anchor="middle" transform="translate(106.79557063688702 -6.608255041807611) scale(0.000014999999999999999 -0.000014999999999999999) translate(-106.79557063688702 6.608255041807611) translate(106.8125 -6.592499999999999) rotate(-30) translate(-106.8125 6.592499999999999)">18</text>
    <text x="106.79270156387913" y="-6.607631677755758" fill="black" text-anchor="middle" transform="translate(106.79270156387913 -6.607631677755758) scale(0.000014999999999999999 -0.000014999999999999999) translate(-106.79270156387913 6.607631677755758) translate(106.8125 -6.592499999999999) rotate(-30) translate(-106.8125 6.592499999999999)">18</text>
    <text x="106.79228777800823" y="-6.60784175553237" fill="black" text-anchor="middle" transform="translate(106.79228777800823 -6.60784175553237) scale(0.000014999999999999999 -0.000014999999999999999) translate(-106.79228777800823 6.60784175553237) translate(106.8125 -6.592499999999999) rotate(-30) translate(-106.8125 6.592499999999999)">18</text>
    <text x="106.79124822199178" y="-6.606468244467617" fill="black" text-anchor="middle" transform="translate(106.79124822199178 -6.606468244467617) scale(0.000014999999999999999 -0.000014999999999999999) translate(-106.79124822199178 6.606468244467617) translate(106.8125 -6.592499999999999) rotate(-30) translate(-106.8125 6.592499999999999)">18</text>
    <text x="106.79874485780431" y="-6.60771670820403" fill="black" text-anchor="middle" transform="translate(106.79874485780431 -6.60771670820403) scale(0.000014999999999999999 -0.000014999999999999999) translate(-106.79874485780431 6.60771670820403) translate(106.8125 -6.592499999999999) rotate(-30) translate(-106.8125 6.592499999999999)">18</text>
    <text x="106.80187402048398" y="-6.610863281752418" fill="black" text-anchor="middle" transform="translate(106.80187402048398 -6.610863281752418) scale(0.000014999999999999999 -0.000014999999999999999) translate(-106.80187402048398 6.610863281752418) translate(106.8125 -6.592499999999999) rotate(-30) translate(-106.8125 6.592499999999999)">18</text>
    <text x="106.79714492835954" y="-6.605316550222024" fill="black" text-anchor="middle" transform="translate(106.79714492835954 -6.605316550222024) scale(0.000014999999999999999 -0.000014999999999999999) translate(-106.79714492835954 6.605316550222024) translate(106.8125 -6.592499999999999) rotate(-30) translate(-106.8125 6.592499999999999)">18</text>
    <text x="106.79700312387786" y="-6.605382606626264" fill="black" text-anchor="middle" transform="translate(106.79700312387786 -6.605382606626264) scale(0.000014999999999999999 -0.000014999999999999999) translate(-106.79700312387786 6.605382606626264) translate(106.8125 -6.592499999999999) rotate(-30) translate(-106.8125 6.592499999999999)">18</text>
  </g>
</svg>
