<svg width="1049.9999999998977" height="1849.9999999999961" xmlns="http://www.w3.org/2000/svg" xmlns:xlink="http://www.w3.org/1999/xlink" >
  <g transform="translate(524.9999999999488 924.9999999999981) rotate(30) scale(10000 -10000) translate(-106.8125 6.592499999999999)">
    <path d="M106.76 -6.5 L106.865 -6.5 L106.865 -6.685 L106.76 -6.685 Z" fill="none" stroke="black" stroke-width="0.0025" transform="translate(106.8125 -6.592499999999999) rotate(30) translate(-106.8125 6.592499999999999)" />
    <path d="M106.7943843421549 -6.613513775573109 L106.81028404268963 -6.6021568466197404 L106.81785467737868 -6.597305380462463 L106.81809258241302 -6.598390002626906 L106.81762831898693 -6.599466555498804 L106.81713840930557 -6.594768671589966 L106.81674752740243 -6.593301376324138 L106.8163352868774 -6.590813787665753 L106.81627 -6.587249 L106.81706782439264 -6.590248351407452 L106.81812526140008 -6.589959533432564 L106.81809197376047 -6.589000433315909 L106.8205048385281 -6.588617162378091 L106.82064336296123 -6.588444754270664 L106.82246423528943 -6.583269499401955 L106.82150837680135 -6.583075211770627 L106.82259848636068 -6.574303538019339 L106.82193215090285 -6.573802611645543 L106.82157048002402 -6.569689264420133 L106.82270594754763 -6.556577485935361 L106.82452147891941 -6.552283170182472 L106.82427099631616 -6.550503756133537 L106.82379140777496 -6.549804356177629 L106.82291548418793 -6.549442881890102 L106.823131 -6.548052 L106.82364651581206 -6.548879118109902 L106.82431659222503 -6.549155643822364 L106.82503700368383 -6.550206243866456 L106.8253445210806 -6.552390829817514 L106.82349205245237 -6.556772514064628 L106.82237351997598 -6.569688735579869 L106.82269784909717 -6.573377388354458 L106.82344951363933 -6.573942461980654 L106.82239362319865 -6.582438788229372 L106.82352376471056 -6.582668500598045 L106.82135263703877 -6.588839245729343 L106.82093516147191 -6.589358837621908 L106.81891602623953 -6.589679566684091 L106.8189467385999 -6.590564466567438 L106.8171846380363 -6.591045749436057 L106.81753047259754 -6.59313262367579 L106.81792759069444 -6.594623328410024 L106.81843461158273 -6.599485296570998 L106.82095960184795 -6.621336543125468 L106.81757470413032 -6.599762917913237 L106.81731932262133 -6.598598619537541 L106.82411595731034 -6.59424315338028 L106.83301565784524 -6.587886224426786 L106.808242 -6.604458 Z" stroke="grey" stroke-width="0.0005" fill="none" />
    <circle 
      cx="106.7943843421549" cy="-12.613513775573109"
      r="15" transform="translate(106.7943843421549 -6.613513775573109) scale(0.000014999999999999999 -0.000014999999999999999) translate(-106.7943843421549 6.613513775573109) translate(106.8125 -6.592499999999999) rotate(-30) translate(-106.8125 6.592499999999999)"
      fill="white" stroke="black" stroke-width="2"/>
    <circle 
      cx="106.81028404268963" cy="-12.60215684661974"
      r="15" transform="translate(106.81028404268963 -6.6021568466197404) scale(0.000014999999999999999 -0.000014999999999999999) translate(-106.81028404268963 6.6021568466197404) translate(106.8125 -6.592499999999999) rotate(-30) translate(-106.8125 6.592499999999999)"
      fill="white" stroke="black" stroke-width="2"/>
    <circle 
      cx="106.82411595731034" cy="-12.59424315338028"
      r="15" transform="translate(106.82411595731034 -6.59424315338028) scale(0.000014999999999999999 -0.000014999999999999999) translate(-106.82411595731034 6.59424315338028) translate(106.8125 -6.592499999999999) rotate(-30) translate(-106.8125 6.592499999999999)"
      fill="white" stroke="black" stroke-width="2"/>
    <circle 
      cx="106.83301565784524" cy="-12.587886224426786"
      r="15" transform="translate(106.83301565784524 -6.587886224426786) scale(0.000014999999999999999 -0.000014999999999999999) translate(-106.83301565784524 6.587886224426786) translate(106.8125 -6.592499999999999) rotate(-30) translate(-106.8125 6.592499999999999)"
      fill="white" stroke="black" stroke-width="2"/>
    <circle 
      cx="106.7943843421549" cy="-12.613513775573109"
      r="15" transform="translate(106.7943843421549 -6.613513775573109) scale(0.000014999999999999999 -0.000014999999999999999) translate(-106.7943843421549 6.613513775573109) translate(106.8125 -6.592499999999999) rotate(-30) translate(-106.8125 6.592499999999999)"
      fill="white" stroke="none"/>
    <circle 
      cx="106.81028404268963" cy="-12.60215684661974"
      r="15" transform="translate(106.81028404268963 -6.6021568466197404) scale(0.000014999999999999999 -0.000014999999999999999) translate(-106.81028404268963 6.6021568466197404) translate(106.8125 -6.592499999999999) rotate(-30) translate(-106.8125 6.592499999999999)"
      fill="white" stroke="none"/>
    <circle 
      cx="106.82411595731034" cy="-12.59424315338028"
      r="15" transform="translate(106.82411595731034 -6.59424315338028) scale(0.000014999999999999999 -0.000014999999999999999) translate(-106.82411595731034 6.59424315338028) translate(106.8125 -6.592499999999999) rotate(-30) translate(-106.8125 6.592499999999999)"
      fill="white" stroke="none"/>
    <circle 
      cx="106.83301565784524" cy="-12.587886224426786"
      r="15" transform="translate(106.83301565784524 -6.587886224426786) scale(0.000014999999999999999 -0.000014999999999999999) translate(-106.83301565784524 6.587886224426786) translate(106.8125 -6.592499999999999) rotate(-30) translate(-106.8125 6.592499999999999)"
      fill="white" stroke="none"/>
    <text x="106.7943843421549" y="-6.613513775573109" fill="black" text-anchor="middle" transform="translate(106.7943843421549 -6.613513775573109) scale(0.000014999999999999999 -0.000014999999999999999) translate(-106.7943843421549 6.613513775573109) translate(106.8125 -6.592499999999999) rotate(-30) translate(-106.8125 6.592499999999999)">17</text>
    <text x="106.81028404268963" y="-6.6021568466197404" fill="black" text-anchor="middle" transform="translate(106.81028404268963 -6.6021568466197404) scale(0.000014999999999999999 -0.000014999999999999999) translate(-106.81028404268963 6.6021568466197404) translate(106.8125 -6.592499999999999) rotate(-30) translate(-106.8125 6.592499999999999)">17</text>
    <text x="106.82411595731034" y="-6.59424315338028" fill="black" text-anchor="middle" transform="translate(106.82411595731034 -6.59424315338028) scale(0.000014999999999999999 -0.000014999999999999999) translate(-106.82411595731034 6.59424315338028) translate(106.8125 -6.592499999999999) rotate(-30) translate(-106.8125 6.592499999999999)">17</text>
    <text x="106.83301565784524" y="-6.587886224426786" fill="black" text-anchor="middle" transform="translate(106.83301565784524 -6.587886224426786) scale(0.000014999999999999999 -0.000014999999999999999) translate(-106.83301565784524 6.587886224426786) translate(106.8125 -6.592499999999999) rotate(-30) translate(-106.8125 6.592499999999999)">17</text>
    <line x1="106.808242" y1="-6.604458" x2="106.8137" y2="-6.6007" style="stroke:rgb(255,0,0);stroke-width:.00002" />
    <line x1="106.8137" y1="-6.6007" x2="106.8172" y2="-6.5982" style="stroke:rgb(255,0,0);stroke-width:.00002" />
    <line x1="106.8172" y1="-6.5982" x2="106.817587" y2="-6.597952" style="stroke:rgb(255,0,0);stroke-width:.00002" />
    <line x1="106.817587" y1="-6.597952" x2="106.817968" y2="-6.599689" style="stroke:rgb(255,0,0);stroke-width:.00002" />
    <line x1="106.817968" y1="-6.599689" x2="106.818037" y2="-6.599529" style="stroke:rgb(255,0,0);stroke-width:.00002" />
    <line x1="106.818037" y1="-6.599529" x2="106.817533" y2="-6.594696" style="stroke:rgb(255,0,0);stroke-width:.00002" />
    <line x1="106.817533" y1="-6.594696" x2="106.817139" y2="-6.593217" style="stroke:rgb(255,0,0);stroke-width:.00002" />
    <line x1="106.817139" y1="-6.593217" x2="106.816731" y2="-6.590755" style="stroke:rgb(255,0,0);stroke-width:.00002" />
    <line x1="106.816731" y1="-6.590755" x2="106.81627" y2="-6.587249" style="stroke:rgb(255,0,0);stroke-width:.00002" />
    <line x1="106.81627" y1="-6.587249" x2="106.816731" y2="-6.590755" style="stroke:rgb(255,0,0);stroke-width:.00002" />
    <line x1="106.816731" y1="-6.590755" x2="106.818536" y2="-6.590262" style="stroke:rgb(255,0,0);stroke-width:.00002" />
    <line x1="106.818536" y1="-6.590262" x2="106.818504" y2="-6.58934" style="stroke:rgb(255,0,0);stroke-width:.00002" />
    <line x1="106.818504" y1="-6.58934" x2="106.82072" y2="-6.588988" style="stroke:rgb(255,0,0);stroke-width:.00002" />
    <line x1="106.82072" y1="-6.588988" x2="106.820998" y2="-6.588642" style="stroke:rgb(255,0,0);stroke-width:.00002" />
    <line x1="106.820998" y1="-6.588642" x2="106.822994" y2="-6.582969" style="stroke:rgb(255,0,0);stroke-width:.00002" />
    <line x1="106.822994" y1="-6.582969" x2="106.821951" y2="-6.582757" style="stroke:rgb(255,0,0);stroke-width:.00002" />
    <line x1="106.821951" y1="-6.582757" x2="106.823024" y2="-6.574123" style="stroke:rgb(255,0,0);stroke-width:.00002" />
    <line x1="106.823024" y1="-6.574123" x2="106.822315" y2="-6.57359" style="stroke:rgb(255,0,0);stroke-width:.00002" />
    <line x1="106.822315" y1="-6.57359" x2="106.821972" y2="-6.569689" style="stroke:rgb(255,0,0);stroke-width:.00002" />
    <line x1="106.821972" y1="-6.569689" x2="106.823099" y2="-6.556675" style="stroke:rgb(255,0,0);stroke-width:.00002" />
    <line x1="106.823099" y1="-6.556675" x2="106.824933" y2="-6.552337" style="stroke:rgb(255,0,0);stroke-width:.00002" />
    <line x1="106.824933" y1="-6.552337" x2="106.824654" y2="-6.550355" style="stroke:rgb(255,0,0);stroke-width:.00002" />
    <line x1="106.824654" y1="-6.550355" x2="106.824054" y2="-6.54948" style="stroke:rgb(255,0,0);stroke-width:.00002" />
    <line x1="106.824054" y1="-6.54948" x2="106.823281" y2="-6.549161" style="stroke:rgb(255,0,0);stroke-width:.00002" />
    <line x1="106.823281" y1="-6.549161" x2="106.823131" y2="-6.548052" style="stroke:rgb(255,0,0);stroke-width:.00002" />
    <line x1="106.823131" y1="-6.548052" x2="106.823281" y2="-6.549161" style="stroke:rgb(255,0,0);stroke-width:.00002" />
    <line x1="106.823281" y1="-6.549161" x2="106.824054" y2="-6.54948" style="stroke:rgb(255,0,0);stroke-width:.00002" />
    <line x1="106.824054" y1="-6.54948" x2="106.824654" y2="-6.550355" style="stroke:rgb(255,0,0);stroke-width:.00002" />
    <line x1="106.824654" y1="-6.550355" x2="106.824933" y2="-6.552337" style="stroke:rgb(255,0,0);stroke-width:.00002" />
    <line x1="106.824933" y1="-6.552337" x2="106.823099" y2="-6.556675" style="stroke:rgb(255,0,0);stroke-width:.00002" />
    <line x1="106.823099" y1="-6.556675" x2="106.821972" y2="-6.569689" style="stroke:rgb(255,0,0);stroke-width:.00002" />
    <line x1="106.821972" y1="-6.569689" x2="106.822315" y2="-6.57359" style="stroke:rgb(255,0,0);stroke-width:.00002" />
    <line x1="106.822315" y1="-6.57359" x2="106.823024" y2="-6.574123" style="stroke:rgb(255,0,0);stroke-width:.00002" />
    <line x1="106.823024" y1="-6.574123" x2="106.821951" y2="-6.582757" style="stroke:rgb(255,0,0);stroke-width:.00002" />
    <line x1="106.821951" y1="-6.582757" x2="106.822994" y2="-6.582969" style="stroke:rgb(255,0,0);stroke-width:.00002" />
    <line x1="106.822994" y1="-6.582969" x2="106.820998" y2="-6.588642" style="stroke:rgb(255,0,0);stroke-width:.00002" />
    <line x1="106.820998" y1="-6.588642" x2="106.82072" y2="-6.588988" style="stroke:rgb(255,0,0);stroke-width:.00002" />
    <line x1="106.82072" y1="-6.588988" x2="106.818504" y2="-6.58934" style="stroke:rgb(255,0,0);stroke-width:.00002" />
    <line x1="106.818504" y1="-6.58934" x2="106.818536" y2="-6.590262" style="stroke:rgb(255,0,0);stroke-width:.00002" />
    <line x1="106.818536" y1="-6.590262" x2="106.816731" y2="-6.590755" style="stroke:rgb(255,0,0);stroke-width:.00002" />
    <line x1="106.816731" y1="-6.590755" x2="106.817139" y2="-6.593217" style="stroke:rgb(255,0,0);stroke-width:.00002" />
    <line x1="106.817139" y1="-6.593217" x2="106.817533" y2="-6.594696" style="stroke:rgb(255,0,0);stroke-width:.00002" />
    <line x1="106.817533" y1="-6.594696" x2="106.818037" y2="-6.599529" style="stroke:rgb(255,0,0);stroke-width:.00002" />
    <line x1="106.818037" y1="-6.599529" x2="106.8183" y2="-6.601805" style="stroke:rgb(255,0,0);stroke-width:.00002" />
    <line x1="106.8183" y1="-6.601805" x2="106.817968" y2="-6.599689" style="stroke:rgb(255,0,0);stroke-width:.00002" />
    <line x1="106.817968" y1="-6.599689" x2="106.817587" y2="-6.597952" style="stroke:rgb(255,0,0);stroke-width:.00002" />
    <line x1="106.817587" y1="-6.597952" x2="106.8172" y2="-6.5982" style="stroke:rgb(255,0,0);stroke-width:.00002" />
    <line x1="106.8172" y1="-6.5982" x2="106.8137" y2="-6.6007" style="stroke:rgb(255,0,0);stroke-width:.00002" />
    <line x1="106.8137" y1="-6.6007" x2="106.808242" y2="-6.604458" style="stroke:rgb(255,0,0);stroke-width:.00002" />
  </g>
</svg>
