<svg width="1049.9999999998977" height="1849.9999999999961" xmlns="http://www.w3.org/2000/svg" xmlns:xlink="http://www.w3.org/1999/xlink" >
  <g transform="translate(524.9999999999488 924.9999999999981) rotate(30) scale(10000 -10000) translate(-106.8125 6.592499999999999)">
    <path d="M106.76 -6.5 L106.865 -6.5 L106.865 -6.685 L106.76 -6.685 Z" fill="none" stroke="black" stroke-width="0.001" transform="translate(106.8125 -6.592499999999999) rotate(30) translate(-106.8125 6.592499999999999)" />
    <path d="M106.79286417100016 -6.596691042750043 L106.79053582899982 -6.596108957249957 L106.7897 -6.5959 L106.79150597149996 -6.596351492874993 L106.79189402850002 -6.596448507125007 L106.7937 -6.5969 L106.79379887655841 -6.596636329177569 L106.79450112344159 -6.594763670822431 L106.7946 -6.5945 L106.79577516854478 -6.593847128586235 L106.79612483145523 -6.593652871413765 L106.7973 -6.593 L106.79766792670452 -6.593167239411139 L106.7980320732955 -6.59333276058886 L106.7984 -6.5935 L106.79960700000001 -6.592881 L106.79960700000001 -6.592881 L106.800814 -6.592262 L106.80112483713589 -6.592388904274229 L106.80149516286411 -6.592540095725771 L106.801806 -6.592667 L106.8018756308063 -6.592720018703509 L106.8028303691937 -6.59344698129649 L106.8029 -6.5935 L106.80365 -6.5947 L106.80365 -6.5947 L106.8044 -6.5959 L106.80473680379956 -6.598005023747233 L106.80486319620044 -6.5987949762527665 L106.8052 -6.6009 L106.80518249527748 -6.600924506611518 L106.8047175047225 -6.6015754933884825 L106.8047 -6.6016 L106.8045145 -6.601623 L106.8045145 -6.601623 L106.804329 -6.601646 L106.80250363285319 -6.6020803953426785 L106.80172536714679 -6.602265604657321 L106.7999 -6.6027 L106.79974999999999 -6.6027 L106.79974999999999 -6.6027 L106.7996 -6.6027 L106.7997366563146 -6.602631671842699 L106.7986633436854 -6.603168328157301 L106.7988 -6.6031 L106.79868853473549 -6.602889454500384 L106.79981146526451 -6.605010545499616 L106.7997 -6.6048 L106.80109999999999 -6.6065000000000005 L106.80109999999999 -6.6065000000000005 L106.8025 -6.6082 L106.80449999999999 -6.609999999999999 L106.80449999999999 -6.609999999999999 L106.8065 -6.6118 L106.8084 -6.6141 L106.8084 -6.6141 L106.8103 -6.6164 L106.8124 -6.61825 L106.8124 -6.61825 L106.8145 -6.6201 L106.81487450661152 -6.620367504722513 L106.81552549338849 -6.620832495277487 L106.8159 -6.6211 L106.8161 -6.62105 L106.8161 -6.62105 L106.8163 -6.621 L106.8154 -6.618550000000001 L106.8154 -6.618550000000001 L106.8145 -6.6161 L106.8161 -6.616300000000001 L106.8161 -6.616300000000001 L106.8177 -6.6165 L106.81815 -6.61685 L106.81815 -6.61685 L106.8186 -6.6172 L106.81905 -6.617800000000001 L106.81905 -6.617800000000001 L106.8195 -6.6184 L106.81905 -6.617800000000001 L106.81905 -6.617800000000001 L106.8186 -6.6172 L106.81815 -6.61685 L106.81815 -6.61685 L106.8177 -6.6165 L106.81629845557535 -6.616324806946919 L106.81590154442466 -6.616275193053083 L106.8145 -6.6161 L106.8154 -6.618550000000001 L106.8154 -6.618550000000001 L106.8163 -6.621 L106.81635 -6.6211 L106.81635 -6.6211 L106.8164 -6.6212 L106.8163 -6.6213 L106.8163 -6.6213 L106.8162 -6.6214 L106.81604999999999 -6.62125 L106.81604999999999 -6.62125 L106.8159 -6.6211 L106.81536274669425 -6.620716247638743 L106.81503725330576 -6.620483752361256 L106.8145 -6.6201 L106.8138294733192 -6.620323508893593 L106.81307052668078 -6.620576491106407 L106.8124 -6.6208 L106.81235 -6.6221499999999995 L106.81235 -6.6221499999999995 L106.8123 -6.6235 L106.8112 -6.62365 L106.8112 -6.62365 L106.8101 -6.6238 L106.81 -6.6242 L106.81 -6.6242 L106.8099 -6.6246 L106.80976641005886 -6.624689059960756 L106.80943358994112 -6.6249109400392445 L106.8093 -6.625 L106.8091 -6.624750000000001 L106.8091 -6.624750000000001 L106.8089 -6.6245 L106.80875 -6.623150000000001 L106.80875 -6.623150000000001 L106.8086 -6.6218 L106.80825 -6.621650000000001 L106.80825 -6.621650000000001 L106.8079 -6.6215 L106.8074 -6.620150000000001 L106.8074 -6.620150000000001 L106.8069 -6.6188 L106.80583850636565 -6.617694277464206 L106.80556149363436 -6.617405722535794 L106.8045 -6.6163 L106.80395 -6.61525 L106.80395 -6.61525 L106.8034 -6.6142 L106.80286293678313 -6.613415061452251 L106.80263706321688 -6.61308493854775 L106.8021 -6.6123 L106.80123057210376 -6.6118859867160795 L106.80086942789625 -6.611714013283922 L106.8 -6.6113 L106.79820000000001 -6.60975 L106.79820000000001 -6.60975 L106.7964 -6.6082 L106.79565 -6.607950000000001 L106.79565 -6.607950000000001 L106.7949 -6.6077 L106.79515 -6.60685 L106.79515 -6.60685 L106.7954 -6.606 L106.79595 -6.6053 L106.79595 -6.6053 L106.7965 -6.6046 L106.7963 -6.6042 L106.7963 -6.6042 L106.7961 -6.6038 L106.79535992887492 -6.601672295515389 L106.79444007112508 -6.599027704484611 L106.7937 -6.5969 Z" stroke="silver" stroke-width="0.0002" fill="none" />
    <circle 
      cx="106.7897" cy="-12.5959"
      r="15" transform="translate(106.7897 -6.5959) scale(0.00001 -0.00001) translate(-106.7897 6.5959) translate(106.8125 -6.592499999999999) rotate(-30) translate(-106.8125 6.592499999999999)"
      fill="white" stroke="black" stroke-width="2"/>
    <circle 
      cx="106.8195" cy="-12.618400000000001"
      r="15" transform="translate(106.8195 -6.6184) scale(0.00001 -0.00001) translate(-106.8195 6.6184) translate(106.8125 -6.592499999999999) rotate(-30) translate(-106.8125 6.592499999999999)"
      fill="white" stroke="black" stroke-width="2"/>
    <circle 
      cx="106.7897" cy="-12.5959"
      r="15" transform="translate(106.7897 -6.5959) scale(0.00001 -0.00001) translate(-106.7897 6.5959) translate(106.8125 -6.592499999999999) rotate(-30) translate(-106.8125 6.592499999999999)"
      fill="white" stroke="none"/>
    <circle 
      cx="106.8195" cy="-12.618400000000001"
      r="15" transform="translate(106.8195 -6.6184) scale(0.00001 -0.00001) translate(-106.8195 6.6184) translate(106.8125 -6.592499999999999) rotate(-30) translate(-106.8125 6.592499999999999)"
      fill="white" stroke="none"/>
    <text x="106.7897" y="-6.5959" fill="black" text-anchor="middle" transform="translate(106.7897 -6.5959) scale(0.00001 -0.00001) translate(-106.7897 6.5959) translate(106.8125 -6.592499999999999) rotate(-30) translate(-106.8125 6.592499999999999)">10</text>
    <text x="106.8195" y="-6.6184" fill="black" text-anchor="middle" transform="translate(106.8195 -6.6184) scale(0.00001 -0.00001) translate(-106.8195 6.6184) translate(106.8125 -6.592499999999999) rotate(-30) translate(-106.8125 6.592499999999999)">10</text>
    <line x1="106.7937" y1="-6.5969" x2="106.7897" y2="-6.5959" style="stroke:rgb(255,0,0);stroke-width:.00002" />
    <line x1="106.7937" y1="-6.5969" x2="106.79286417100016" y2="-6.596691042750043" style="stroke:rgb(0,0,0);stroke-width:.00002" />
    <line x1="106.79286417100016" y1="-6.596691042750043" x2="106.79053582899982" y2="-6.596108957249957" style="stroke:rgb(0,0,0);stroke-width:.00002" />
    <line x1="106.79053582899982" y1="-6.596108957249957" x2="106.7897" y2="-6.5959" style="stroke:rgb(0,0,0);stroke-width:.00002" />
    <circle cx="106.7937" cy="-6.5969" fill="rgb(255,0,0)" r=".0001" />
    <text x="106.7937" y="-6.5969" stroke="rgb(0,0,0)" transform="translate(106.7937 -6.5969),scale(0.00001 -0.00001),translate(-106.7937 6.5969),translate(106.8125 -6.592499999999999),rotate(-30),translate(-106.8125 6.592499999999999)" >kb-muslihat</text>
    <line x1="106.7897" y1="-6.5959" x2="106.7937" y2="-6.5969" style="stroke:rgb(255,0,0);stroke-width:.00002" />
    <line x1="106.7897" y1="-6.5959" x2="106.79150597149996" y2="-6.596351492874993" style="stroke:rgb(0,0,0);stroke-width:.00002" />
    <line x1="106.79150597149996" y1="-6.596351492874993" x2="106.79189402850002" y2="-6.596448507125007" style="stroke:rgb(0,0,0);stroke-width:.00002" />
    <line x1="106.79189402850002" y1="-6.596448507125007" x2="106.7937" y2="-6.5969" style="stroke:rgb(0,0,0);stroke-width:.00002" />
    <circle cx="106.7897" cy="-6.5959" fill="rgb(255,0,0)" r=".0001" />
    <text x="106.7897" y="-6.5959" stroke="rgb(0,0,0)" transform="translate(106.7897 -6.5959),scale(0.00001 -0.00001),translate(-106.7897 6.5959),translate(106.8125 -6.592499999999999),rotate(-30),translate(-106.8125 6.592499999999999)" >stasiun-paledang</text>
    <line x1="106.7937" y1="-6.5969" x2="106.7946" y2="-6.5945" style="stroke:rgb(255,0,0);stroke-width:.00002" />
    <line x1="106.7937" y1="-6.5969" x2="106.79379887655841" y2="-6.596636329177569" style="stroke:rgb(0,0,0);stroke-width:.00002" />
    <line x1="106.79379887655841" y1="-6.596636329177569" x2="106.79450112344159" y2="-6.594763670822431" style="stroke:rgb(0,0,0);stroke-width:.00002" />
    <line x1="106.79450112344159" y1="-6.594763670822431" x2="106.7946" y2="-6.5945" style="stroke:rgb(0,0,0);stroke-width:.00002" />
    <circle cx="106.7937" cy="-6.5969" fill="rgb(255,0,0)" r=".0001" />
    <text x="106.7937" y="-6.5969" stroke="rgb(0,0,0)" transform="translate(106.7937 -6.5969),scale(0.00001 -0.00001),translate(-106.7937 6.5969),translate(106.8125 -6.592499999999999),rotate(-30),translate(-106.8125 6.592499999999999)" >kb-muslihat</text>
    <line x1="106.7946" y1="-6.5945" x2="106.7973" y2="-6.593" style="stroke:rgb(255,0,0);stroke-width:.00002" />
    <line x1="106.7946" y1="-6.5945" x2="106.79577516854478" y2="-6.593847128586235" style="stroke:rgb(0,0,0);stroke-width:.00002" />
    <line x1="106.79577516854478" y1="-6.593847128586235" x2="106.79612483145523" y2="-6.593652871413765" style="stroke:rgb(0,0,0);stroke-width:.00002" />
    <line x1="106.79612483145523" y1="-6.593652871413765" x2="106.7973" y2="-6.593" style="stroke:rgb(0,0,0);stroke-width:.00002" />
    <circle cx="106.7946" cy="-6.5945" fill="rgb(255,0,0)" r=".0001" />
    <text x="106.7946" y="-6.5945" stroke="rgb(0,0,0)" transform="translate(106.7946 -6.5945),scale(0.00001 -0.00001),translate(-106.7946 6.5945),translate(106.8125 -6.592499999999999),rotate(-30),translate(-106.8125 6.592499999999999)" >kb-gedong-sawah</text>
    <line x1="106.7973" y1="-6.593" x2="106.7984" y2="-6.5935" style="stroke:rgb(255,0,0);stroke-width:.00002" />
    <line x1="106.7973" y1="-6.593" x2="106.79766792670452" y2="-6.593167239411139" style="stroke:rgb(0,0,0);stroke-width:.00002" />
    <line x1="106.79766792670452" y1="-6.593167239411139" x2="106.7980320732955" y2="-6.59333276058886" style="stroke:rgb(0,0,0);stroke-width:.00002" />
    <line x1="106.7980320732955" y1="-6.59333276058886" x2="106.7984" y2="-6.5935" style="stroke:rgb(0,0,0);stroke-width:.00002" />
    <circle cx="106.7973" cy="-6.593" fill="rgb(255,0,0)" r=".0001" />
    <text x="106.7973" y="-6.593" stroke="rgb(0,0,0)" transform="translate(106.7973 -6.593),scale(0.00001 -0.00001),translate(-106.7973 6.593),translate(106.8125 -6.592499999999999),rotate(-30),translate(-106.8125 6.592499999999999)" >kb-polisi-militer</text>
    <line x1="106.7984" y1="-6.5935" x2="106.800814" y2="-6.592262" style="stroke:rgb(255,0,0);stroke-width:.00002" />
    <line x1="106.7984" y1="-6.5935" x2="106.79960700000001" y2="-6.592881" style="stroke:rgb(0,0,0);stroke-width:.00002" />
    <line x1="106.79960700000001" y1="-6.592881" x2="106.79960700000001" y2="-6.592881" style="stroke:rgb(0,0,0);stroke-width:.00002" />
    <line x1="106.79960700000001" y1="-6.592881" x2="106.800814" y2="-6.592262" style="stroke:rgb(0,0,0);stroke-width:.00002" />
    <circle cx="106.7984" cy="-6.5935" fill="rgb(255,0,0)" r=".0001" />
    <text x="106.7984" y="-6.5935" stroke="rgb(0,0,0)" transform="translate(106.7984 -6.5935),scale(0.00001 -0.00001),translate(-106.7984 6.5935),translate(106.8125 -6.592499999999999),rotate(-30),translate(-106.8125 6.592499999999999)" >kb-jalak-harupat</text>
    <line x1="106.800814" y1="-6.592262" x2="106.801806" y2="-6.592667" style="stroke:rgb(255,0,0);stroke-width:.00002" />
    <line x1="106.800814" y1="-6.592262" x2="106.80112483713589" y2="-6.592388904274229" style="stroke:rgb(0,0,0);stroke-width:.00002" />
    <line x1="106.80112483713589" y1="-6.592388904274229" x2="106.80149516286411" y2="-6.592540095725771" style="stroke:rgb(0,0,0);stroke-width:.00002" />
    <line x1="106.80149516286411" y1="-6.592540095725771" x2="106.801806" y2="-6.592667" style="stroke:rgb(0,0,0);stroke-width:.00002" />
    <circle cx="106.800814" cy="-6.592262" fill="rgb(255,0,0)" r=".0001" />
    <text x="106.800814" y="-6.592262" stroke="rgb(0,0,0)" transform="translate(106.800814 -6.592262),scale(0.00001 -0.00001),translate(-106.800814 6.592262),translate(106.8125 -6.592499999999999),rotate(-30),translate(-106.8125 6.592499999999999)" >kb-sempur</text>
    <line x1="106.801806" y1="-6.592667" x2="106.8029" y2="-6.5935" style="stroke:rgb(255,0,0);stroke-width:.00002" />
    <line x1="106.801806" y1="-6.592667" x2="106.8018756308063" y2="-6.592720018703509" style="stroke:rgb(0,0,0);stroke-width:.00002" />
    <line x1="106.8018756308063" y1="-6.592720018703509" x2="106.8028303691937" y2="-6.59344698129649" style="stroke:rgb(0,0,0);stroke-width:.00002" />
    <line x1="106.8028303691937" y1="-6.59344698129649" x2="106.8029" y2="-6.5935" style="stroke:rgb(0,0,0);stroke-width:.00002" />
    <circle cx="106.801806" cy="-6.592667" fill="rgb(255,0,0)" r=".0001" />
    <text x="106.801806" y="-6.592667" stroke="rgb(0,0,0)" transform="translate(106.801806 -6.592667),scale(0.00001 -0.00001),translate(-106.801806 6.592667),translate(106.8125 -6.592499999999999),rotate(-30),translate(-106.8125 6.592499999999999)" >kb-salak</text>
    <line x1="106.8029" y1="-6.5935" x2="106.8044" y2="-6.5959" style="stroke:rgb(255,0,0);stroke-width:.00002" />
    <line x1="106.8029" y1="-6.5935" x2="106.80365" y2="-6.5947" style="stroke:rgb(0,0,0);stroke-width:.00002" />
    <line x1="106.80365" y1="-6.5947" x2="106.80365" y2="-6.5947" style="stroke:rgb(0,0,0);stroke-width:.00002" />
    <line x1="106.80365" y1="-6.5947" x2="106.8044" y2="-6.5959" style="stroke:rgb(0,0,0);stroke-width:.00002" />
    <circle cx="106.8029" cy="-6.5935" fill="rgb(255,0,0)" r=".0001" />
    <text x="106.8029" y="-6.5935" stroke="rgb(0,0,0)" transform="translate(106.8029 -6.5935),scale(0.00001 -0.00001),translate(-106.8029 6.5935),translate(106.8125 -6.592499999999999),rotate(-30),translate(-106.8125 6.592499999999999)" >kb-pangrango</text>
    <line x1="106.8044" y1="-6.5959" x2="106.8052" y2="-6.6009" style="stroke:rgb(255,0,0);stroke-width:.00002" />
    <line x1="106.8044" y1="-6.5959" x2="106.80473680379956" y2="-6.598005023747233" style="stroke:rgb(0,0,0);stroke-width:.00002" />
    <line x1="106.80473680379956" y1="-6.598005023747233" x2="106.80486319620044" y2="-6.5987949762527665" style="stroke:rgb(0,0,0);stroke-width:.00002" />
    <line x1="106.80486319620044" y1="-6.5987949762527665" x2="106.8052" y2="-6.6009" style="stroke:rgb(0,0,0);stroke-width:.00002" />
    <circle cx="106.8044" cy="-6.5959" fill="rgb(255,0,0)" r=".0001" />
    <text x="106.8044" y="-6.5959" stroke="rgb(0,0,0)" transform="translate(106.8044 -6.5959),scale(0.00001 -0.00001),translate(-106.8044 6.5959),translate(106.8125 -6.592499999999999),rotate(-30),translate(-106.8125 6.592499999999999)" >kb-astrid</text>
    <line x1="106.8052" y1="-6.6009" x2="106.8047" y2="-6.6016" style="stroke:rgb(255,0,0);stroke-width:.00002" />
    <line x1="106.8052" y1="-6.6009" x2="106.80518249527748" y2="-6.600924506611518" style="stroke:rgb(0,0,0);stroke-width:.00002" />
    <line x1="106.80518249527748" y1="-6.600924506611518" x2="106.8047175047225" y2="-6.6015754933884825" style="stroke:rgb(0,0,0);stroke-width:.00002" />
    <line x1="106.8047175047225" y1="-6.6015754933884825" x2="106.8047" y2="-6.6016" style="stroke:rgb(0,0,0);stroke-width:.00002" />
    <circle cx="106.8052" cy="-6.6009" fill="rgb(255,0,0)" r=".0001" />
    <text x="106.8052" y="-6.6009" stroke="rgb(0,0,0)" transform="translate(106.8052 -6.6009),scale(0.00001 -0.00001),translate(-106.8052 6.6009),translate(106.8125 -6.592499999999999),rotate(-30),translate(-106.8125 6.592499999999999)" >kb-botani-1</text>
    <line x1="106.8047" y1="-6.6016" x2="106.804329" y2="-6.601646" style="stroke:rgb(255,0,0);stroke-width:.00002" />
    <line x1="106.8047" y1="-6.6016" x2="106.8045145" y2="-6.601623" style="stroke:rgb(0,0,0);stroke-width:.00002" />
    <line x1="106.8045145" y1="-6.601623" x2="106.8045145" y2="-6.601623" style="stroke:rgb(0,0,0);stroke-width:.00002" />
    <line x1="106.8045145" y1="-6.601623" x2="106.804329" y2="-6.601646" style="stroke:rgb(0,0,0);stroke-width:.00002" />
    <circle cx="106.8047" cy="-6.6016" fill="rgb(255,0,0)" r=".0001" />
    <text x="106.8047" y="-6.6016" stroke="rgb(0,0,0)" transform="translate(106.8047 -6.6016),scale(0.00001 -0.00001),translate(-106.8047 6.6016),translate(106.8125 -6.592499999999999),rotate(-30),translate(-106.8125 6.592499999999999)" >kb-botani-2</text>
    <line x1="106.804329" y1="-6.601646" x2="106.7999" y2="-6.6027" style="stroke:rgb(255,0,0);stroke-width:.00002" />
    <line x1="106.804329" y1="-6.601646" x2="106.80250363285319" y2="-6.6020803953426785" style="stroke:rgb(0,0,0);stroke-width:.00002" />
    <line x1="106.80250363285319" y1="-6.6020803953426785" x2="106.80172536714679" y2="-6.602265604657321" style="stroke:rgb(0,0,0);stroke-width:.00002" />
    <line x1="106.80172536714679" y1="-6.602265604657321" x2="106.7999" y2="-6.6027" style="stroke:rgb(0,0,0);stroke-width:.00002" />
    <circle cx="106.804329" cy="-6.601646" fill="rgb(255,0,0)" r=".0001" />
    <text x="106.804329" y="-6.601646" stroke="rgb(0,0,0)" transform="translate(106.804329 -6.601646),scale(0.00001 -0.00001),translate(-106.804329 6.601646),translate(106.8125 -6.592499999999999),rotate(-30),translate(-106.8125 6.592499999999999)" >bangka-otista</text>
    <line x1="106.7999" y1="-6.6027" x2="106.7996" y2="-6.6027" style="stroke:rgb(255,0,0);stroke-width:.00002" />
    <line x1="106.7999" y1="-6.6027" x2="106.79974999999999" y2="-6.6027" style="stroke:rgb(0,0,0);stroke-width:.00002" />
    <line x1="106.79974999999999" y1="-6.6027" x2="106.79974999999999" y2="-6.6027" style="stroke:rgb(0,0,0);stroke-width:.00002" />
    <line x1="106.79974999999999" y1="-6.6027" x2="106.7996" y2="-6.6027" style="stroke:rgb(0,0,0);stroke-width:.00002" />
    <circle cx="106.7999" cy="-6.6027" fill="rgb(255,0,0)" r=".0001" />
    <text x="106.7999" y="-6.6027" stroke="rgb(0,0,0)" transform="translate(106.7999 -6.6027),scale(0.00001 -0.00001),translate(-106.7999 6.6027),translate(106.8125 -6.592499999999999),rotate(-30),translate(-106.8125 6.592499999999999)" >otista-roda</text>
    <line x1="106.7996" y1="-6.6027" x2="106.7988" y2="-6.6031" style="stroke:rgb(255,0,0);stroke-width:.00002" />
    <line x1="106.7996" y1="-6.6027" x2="106.7997366563146" y2="-6.602631671842699" style="stroke:rgb(0,0,0);stroke-width:.00002" />
    <line x1="106.7997366563146" y1="-6.602631671842699" x2="106.7986633436854" y2="-6.603168328157301" style="stroke:rgb(0,0,0);stroke-width:.00002" />
    <line x1="106.7986633436854" y1="-6.603168328157301" x2="106.7988" y2="-6.6031" style="stroke:rgb(0,0,0);stroke-width:.00002" />
    <circle cx="106.7996" cy="-6.6027" fill="rgb(255,0,0)" r=".0001" />
    <text x="106.7996" y="-6.6027" stroke="rgb(0,0,0)" transform="translate(106.7996 -6.6027),scale(0.00001 -0.00001),translate(-106.7996 6.6027),translate(106.8125 -6.592499999999999),rotate(-30),translate(-106.8125 6.592499999999999)" >kb-otista</text>
    <line x1="106.7988" y1="-6.6031" x2="106.7997" y2="-6.6048" style="stroke:rgb(255,0,0);stroke-width:.00002" />
    <line x1="106.7988" y1="-6.6031" x2="106.79868853473549" y2="-6.602889454500384" style="stroke:rgb(0,0,0);stroke-width:.00002" />
    <line x1="106.79868853473549" y1="-6.602889454500384" x2="106.79981146526451" y2="-6.605010545499616" style="stroke:rgb(0,0,0);stroke-width:.00002" />
    <line x1="106.79981146526451" y1="-6.605010545499616" x2="106.7997" y2="-6.6048" style="stroke:rgb(0,0,0);stroke-width:.00002" />
    <circle cx="106.7988" cy="-6.6031" fill="rgb(255,0,0)" r=".0001" />
    <text x="106.7988" y="-6.6031" stroke="rgb(0,0,0)" transform="translate(106.7988 -6.6031),scale(0.00001 -0.00001),translate(-106.7988 6.6031),translate(106.8125 -6.592499999999999),rotate(-30),translate(-106.8125 6.592499999999999)" >kb-suryakencana</text>
    <line x1="106.7997" y1="-6.6048" x2="106.8025" y2="-6.6082" style="stroke:rgb(255,0,0);stroke-width:.00002" />
    <line x1="106.7997" y1="-6.6048" x2="106.80109999999999" y2="-6.6065000000000005" style="stroke:rgb(0,0,0);stroke-width:.00002" />
    <line x1="106.80109999999999" y1="-6.6065000000000005" x2="106.80109999999999" y2="-6.6065000000000005" style="stroke:rgb(0,0,0);stroke-width:.00002" />
    <line x1="106.80109999999999" y1="-6.6065000000000005" x2="106.8025" y2="-6.6082" style="stroke:rgb(0,0,0);stroke-width:.00002" />
    <circle cx="106.7997" cy="-6.6048" fill="rgb(255,0,0)" r=".0001" />
    <text x="106.7997" y="-6.6048" stroke="rgb(0,0,0)" transform="translate(106.7997 -6.6048),scale(0.00001 -0.00001),translate(-106.7997 6.6048),translate(106.8125 -6.592499999999999),rotate(-30),translate(-106.8125 6.592499999999999)" >suryakencana-1</text>
    <line x1="106.8025" y1="-6.6082" x2="106.8065" y2="-6.6118" style="stroke:rgb(255,0,0);stroke-width:.00002" />
    <line x1="106.8025" y1="-6.6082" x2="106.80449999999999" y2="-6.609999999999999" style="stroke:rgb(0,0,0);stroke-width:.00002" />
    <line x1="106.80449999999999" y1="-6.609999999999999" x2="106.80449999999999" y2="-6.609999999999999" style="stroke:rgb(0,0,0);stroke-width:.00002" />
    <line x1="106.80449999999999" y1="-6.609999999999999" x2="106.8065" y2="-6.6118" style="stroke:rgb(0,0,0);stroke-width:.00002" />
    <circle cx="106.8025" cy="-6.6082" fill="rgb(255,0,0)" r=".0001" />
    <text x="106.8025" y="-6.6082" stroke="rgb(0,0,0)" transform="translate(106.8025 -6.6082),scale(0.00001 -0.00001),translate(-106.8025 6.6082),translate(106.8125 -6.592499999999999),rotate(-30),translate(-106.8125 6.592499999999999)" >suryakencana-2</text>
    <line x1="106.8065" y1="-6.6118" x2="106.8103" y2="-6.6164" style="stroke:rgb(255,0,0);stroke-width:.00002" />
    <line x1="106.8065" y1="-6.6118" x2="106.8084" y2="-6.6141" style="stroke:rgb(0,0,0);stroke-width:.00002" />
    <line x1="106.8084" y1="-6.6141" x2="106.8084" y2="-6.6141" style="stroke:rgb(0,0,0);stroke-width:.00002" />
    <line x1="106.8084" y1="-6.6141" x2="106.8103" y2="-6.6164" style="stroke:rgb(0,0,0);stroke-width:.00002" />
    <circle cx="106.8065" cy="-6.6118" fill="rgb(255,0,0)" r=".0001" />
    <text x="106.8065" y="-6.6118" stroke="rgb(0,0,0)" transform="translate(106.8065 -6.6118),scale(0.00001 -0.00001),translate(-106.8065 6.6118),translate(106.8125 -6.592499999999999),rotate(-30),translate(-106.8125 6.592499999999999)" >siliwangi-1</text>
    <line x1="106.8103" y1="-6.6164" x2="106.8145" y2="-6.6201" style="stroke:rgb(255,0,0);stroke-width:.00002" />
    <line x1="106.8103" y1="-6.6164" x2="106.8124" y2="-6.61825" style="stroke:rgb(0,0,0);stroke-width:.00002" />
    <line x1="106.8124" y1="-6.61825" x2="106.8124" y2="-6.61825" style="stroke:rgb(0,0,0);stroke-width:.00002" />
    <line x1="106.8124" y1="-6.61825" x2="106.8145" y2="-6.6201" style="stroke:rgb(0,0,0);stroke-width:.00002" />
    <circle cx="106.8103" cy="-6.6164" fill="rgb(255,0,0)" r=".0001" />
    <text x="106.8103" y="-6.6164" stroke="rgb(0,0,0)" transform="translate(106.8103 -6.6164),scale(0.00001 -0.00001),translate(-106.8103 6.6164),translate(106.8125 -6.592499999999999),rotate(-30),translate(-106.8125 6.592499999999999)" >siliwangi-2</text>
    <line x1="106.8145" y1="-6.6201" x2="106.8159" y2="-6.6211" style="stroke:rgb(255,0,0);stroke-width:.00002" />
    <line x1="106.8145" y1="-6.6201" x2="106.81487450661152" y2="-6.620367504722513" style="stroke:rgb(0,0,0);stroke-width:.00002" />
    <line x1="106.81487450661152" y1="-6.620367504722513" x2="106.81552549338849" y2="-6.620832495277487" style="stroke:rgb(0,0,0);stroke-width:.00002" />
    <line x1="106.81552549338849" y1="-6.620832495277487" x2="106.8159" y2="-6.6211" style="stroke:rgb(0,0,0);stroke-width:.00002" />
    <circle cx="106.8145" cy="-6.6201" fill="rgb(255,0,0)" r=".0001" />
    <text x="106.8145" y="-6.6201" stroke="rgb(0,0,0)" transform="translate(106.8145 -6.6201),scale(0.00001 -0.00001),translate(-106.8145 6.6201),translate(106.8125 -6.592499999999999),rotate(-30),translate(-106.8125 6.592499999999999)" >siliwangi-lawanggintung</text>
    <line x1="106.8159" y1="-6.6211" x2="106.8163" y2="-6.621" style="stroke:rgb(255,0,0);stroke-width:.00002" />
    <line x1="106.8159" y1="-6.6211" x2="106.8161" y2="-6.62105" style="stroke:rgb(0,0,0);stroke-width:.00002" />
    <line x1="106.8161" y1="-6.62105" x2="106.8161" y2="-6.62105" style="stroke:rgb(0,0,0);stroke-width:.00002" />
    <line x1="106.8161" y1="-6.62105" x2="106.8163" y2="-6.621" style="stroke:rgb(0,0,0);stroke-width:.00002" />
    <circle cx="106.8159" cy="-6.6211" fill="rgb(255,0,0)" r=".0001" />
    <text x="106.8159" y="-6.6211" stroke="rgb(0,0,0)" transform="translate(106.8159 -6.6211),scale(0.00001 -0.00001),translate(-106.8159 6.6211),translate(106.8125 -6.592499999999999),rotate(-30),translate(-106.8125 6.592499999999999)" >lippo-w</text>
    <line x1="106.8163" y1="-6.621" x2="106.8145" y2="-6.6161" style="stroke:rgb(255,0,0);stroke-width:.00002" />
    <line x1="106.8163" y1="-6.621" x2="106.8154" y2="-6.618550000000001" style="stroke:rgb(0,0,0);stroke-width:.00002" />
    <line x1="106.8154" y1="-6.618550000000001" x2="106.8154" y2="-6.618550000000001" style="stroke:rgb(0,0,0);stroke-width:.00002" />
    <line x1="106.8154" y1="-6.618550000000001" x2="106.8145" y2="-6.6161" style="stroke:rgb(0,0,0);stroke-width:.00002" />
    <circle cx="106.8163" cy="-6.621" fill="rgb(255,0,0)" r=".0001" />
    <text x="106.8163" y="-6.621" stroke="rgb(0,0,0)" transform="translate(106.8163 -6.621),scale(0.00001 -0.00001),translate(-106.8163 6.621),translate(106.8125 -6.592499999999999),rotate(-30),translate(-106.8125 6.592499999999999)" >lippo-n</text>
    <line x1="106.8145" y1="-6.6161" x2="106.8177" y2="-6.6165" style="stroke:rgb(255,0,0);stroke-width:.00002" />
    <line x1="106.8145" y1="-6.6161" x2="106.8161" y2="-6.616300000000001" style="stroke:rgb(0,0,0);stroke-width:.00002" />
    <line x1="106.8161" y1="-6.616300000000001" x2="106.8161" y2="-6.616300000000001" style="stroke:rgb(0,0,0);stroke-width:.00002" />
    <line x1="106.8161" y1="-6.616300000000001" x2="106.8177" y2="-6.6165" style="stroke:rgb(0,0,0);stroke-width:.00002" />
    <circle cx="106.8145" cy="-6.6161" fill="rgb(255,0,0)" r=".0001" />
    <text x="106.8145" y="-6.6161" stroke="rgb(0,0,0)" transform="translate(106.8145 -6.6161),scale(0.00001 -0.00001),translate(-106.8145 6.6161),translate(106.8125 -6.592499999999999),rotate(-30),translate(-106.8125 6.592499999999999)" >pajajaran-durian</text>
    <line x1="106.8177" y1="-6.6165" x2="106.8186" y2="-6.6172" style="stroke:rgb(255,0,0);stroke-width:.00002" />
    <line x1="106.8177" y1="-6.6165" x2="106.81815" y2="-6.61685" style="stroke:rgb(0,0,0);stroke-width:.00002" />
    <line x1="106.81815" y1="-6.61685" x2="106.81815" y2="-6.61685" style="stroke:rgb(0,0,0);stroke-width:.00002" />
    <line x1="106.81815" y1="-6.61685" x2="106.8186" y2="-6.6172" style="stroke:rgb(0,0,0);stroke-width:.00002" />
    <circle cx="106.8177" cy="-6.6165" fill="rgb(255,0,0)" r=".0001" />
    <text x="106.8177" y="-6.6165" stroke="rgb(0,0,0)" transform="translate(106.8177 -6.6165),scale(0.00001 -0.00001),translate(-106.8177 6.6165),translate(106.8125 -6.592499999999999),rotate(-30),translate(-106.8125 6.592499999999999)" >durian-1</text>
    <line x1="106.8186" y1="-6.6172" x2="106.8195" y2="-6.6184" style="stroke:rgb(255,0,0);stroke-width:.00002" />
    <line x1="106.8186" y1="-6.6172" x2="106.81905" y2="-6.617800000000001" style="stroke:rgb(0,0,0);stroke-width:.00002" />
    <line x1="106.81905" y1="-6.617800000000001" x2="106.81905" y2="-6.617800000000001" style="stroke:rgb(0,0,0);stroke-width:.00002" />
    <line x1="106.81905" y1="-6.617800000000001" x2="106.8195" y2="-6.6184" style="stroke:rgb(0,0,0);stroke-width:.00002" />
    <circle cx="106.8186" cy="-6.6172" fill="rgb(255,0,0)" r=".0001" />
    <text x="106.8186" y="-6.6172" stroke="rgb(0,0,0)" transform="translate(106.8186 -6.6172),scale(0.00001 -0.00001),translate(-106.8186 6.6172),translate(106.8125 -6.592499999999999),rotate(-30),translate(-106.8125 6.592499999999999)" >durian-2</text>
    <line x1="106.8195" y1="-6.6184" x2="106.8186" y2="-6.6172" style="stroke:rgb(255,0,0);stroke-width:.00002" />
    <line x1="106.8195" y1="-6.6184" x2="106.81905" y2="-6.617800000000001" style="stroke:rgb(0,0,0);stroke-width:.00002" />
    <line x1="106.81905" y1="-6.617800000000001" x2="106.81905" y2="-6.617800000000001" style="stroke:rgb(0,0,0);stroke-width:.00002" />
    <line x1="106.81905" y1="-6.617800000000001" x2="106.8186" y2="-6.6172" style="stroke:rgb(0,0,0);stroke-width:.00002" />
    <circle cx="106.8195" cy="-6.6184" fill="rgb(255,0,0)" r=".0001" />
    <text x="106.8195" y="-6.6184" stroke="rgb(0,0,0)" transform="translate(106.8195 -6.6184),scale(0.00001 -0.00001),translate(-106.8195 6.6184),translate(106.8125 -6.592499999999999),rotate(-30),translate(-106.8125 6.592499999999999)" >durian-3</text>
    <line x1="106.8186" y1="-6.6172" x2="106.8177" y2="-6.6165" style="stroke:rgb(255,0,0);stroke-width:.00002" />
    <line x1="106.8186" y1="-6.6172" x2="106.81815" y2="-6.61685" style="stroke:rgb(0,0,0);stroke-width:.00002" />
    <line x1="106.81815" y1="-6.61685" x2="106.81815" y2="-6.61685" style="stroke:rgb(0,0,0);stroke-width:.00002" />
    <line x1="106.81815" y1="-6.61685" x2="106.8177" y2="-6.6165" style="stroke:rgb(0,0,0);stroke-width:.00002" />
    <circle cx="106.8186" cy="-6.6172" fill="rgb(255,0,0)" r=".0001" />
    <text x="106.8186" y="-6.6172" stroke="rgb(0,0,0)" transform="translate(106.8186 -6.6172),scale(0.00001 -0.00001),translate(-106.8186 6.6172),translate(106.8125 -6.592499999999999),rotate(-30),translate(-106.8125 6.592499999999999)" >durian-2</text>
    <line x1="106.8177" y1="-6.6165" x2="106.8145" y2="-6.6161" style="stroke:rgb(255,0,0);stroke-width:.00002" />
    <line x1="106.8177" y1="-6.6165" x2="106.81629845557535" y2="-6.616324806946919" style="stroke:rgb(0,0,0);stroke-width:.00002" />
    <line x1="106.81629845557535" y1="-6.616324806946919" x2="106.81590154442466" y2="-6.616275193053083" style="stroke:rgb(0,0,0);stroke-width:.00002" />
    <line x1="106.81590154442466" y1="-6.616275193053083" x2="106.8145" y2="-6.6161" style="stroke:rgb(0,0,0);stroke-width:.00002" />
    <circle cx="106.8177" cy="-6.6165" fill="rgb(255,0,0)" r=".0001" />
    <text x="106.8177" y="-6.6165" stroke="rgb(0,0,0)" transform="translate(106.8177 -6.6165),scale(0.00001 -0.00001),translate(-106.8177 6.6165),translate(106.8125 -6.592499999999999),rotate(-30),translate(-106.8125 6.592499999999999)" >durian-1</text>
    <line x1="106.8145" y1="-6.6161" x2="106.8163" y2="-6.621" style="stroke:rgb(255,0,0);stroke-width:.00002" />
    <line x1="106.8145" y1="-6.6161" x2="106.8154" y2="-6.618550000000001" style="stroke:rgb(0,0,0);stroke-width:.00002" />
    <line x1="106.8154" y1="-6.618550000000001" x2="106.8154" y2="-6.618550000000001" style="stroke:rgb(0,0,0);stroke-width:.00002" />
    <line x1="106.8154" y1="-6.618550000000001" x2="106.8163" y2="-6.621" style="stroke:rgb(0,0,0);stroke-width:.00002" />
    <circle cx="106.8145" cy="-6.6161" fill="rgb(255,0,0)" r=".0001" />
    <text x="106.8145" y="-6.6161" stroke="rgb(0,0,0)" transform="translate(106.8145 -6.6161),scale(0.00001 -0.00001),translate(-106.8145 6.6161),translate(106.8125 -6.592499999999999),rotate(-30),translate(-106.8125 6.592499999999999)" >pajajaran-durian</text>
    <line x1="106.8163" y1="-6.621" x2="106.8164" y2="-6.6212" style="stroke:rgb(255,0,0);stroke-width:.00002" />
    <line x1="106.8163" y1="-6.621" x2="106.81635" y2="-6.6211" style="stroke:rgb(0,0,0);stroke-width:.00002" />
    <line x1="106.81635" y1="-6.6211" x2="106.81635" y2="-6.6211" style="stroke:rgb(0,0,0);stroke-width:.00002" />
    <line x1="106.81635" y1="-6.6211" x2="106.8164" y2="-6.6212" style="stroke:rgb(0,0,0);stroke-width:.00002" />
    <circle cx="106.8163" cy="-6.621" fill="rgb(255,0,0)" r=".0001" />
    <text x="106.8163" y="-6.621" stroke="rgb(0,0,0)" transform="translate(106.8163 -6.621),scale(0.00001 -0.00001),translate(-106.8163 6.621),translate(106.8125 -6.592499999999999),rotate(-30),translate(-106.8125 6.592499999999999)" >lippo-n</text>
    <line x1="106.8164" y1="-6.6212" x2="106.8162" y2="-6.6214" style="stroke:rgb(255,0,0);stroke-width:.00002" />
    <line x1="106.8164" y1="-6.6212" x2="106.8163" y2="-6.6213" style="stroke:rgb(0,0,0);stroke-width:.00002" />
    <line x1="106.8163" y1="-6.6213" x2="106.8163" y2="-6.6213" style="stroke:rgb(0,0,0);stroke-width:.00002" />
    <line x1="106.8163" y1="-6.6213" x2="106.8162" y2="-6.6214" style="stroke:rgb(0,0,0);stroke-width:.00002" />
    <circle cx="106.8164" cy="-6.6212" fill="rgb(255,0,0)" r=".0001" />
    <text x="106.8164" y="-6.6212" stroke="rgb(0,0,0)" transform="translate(106.8164 -6.6212),scale(0.00001 -0.00001),translate(-106.8164 6.6212),translate(106.8125 -6.592499999999999),rotate(-30),translate(-106.8125 6.592499999999999)" >lippo-e</text>
    <line x1="106.8162" y1="-6.6214" x2="106.8159" y2="-6.6211" style="stroke:rgb(255,0,0);stroke-width:.00002" />
    <line x1="106.8162" y1="-6.6214" x2="106.81604999999999" y2="-6.62125" style="stroke:rgb(0,0,0);stroke-width:.00002" />
    <line x1="106.81604999999999" y1="-6.62125" x2="106.81604999999999" y2="-6.62125" style="stroke:rgb(0,0,0);stroke-width:.00002" />
    <line x1="106.81604999999999" y1="-6.62125" x2="106.8159" y2="-6.6211" style="stroke:rgb(0,0,0);stroke-width:.00002" />
    <circle cx="106.8162" cy="-6.6214" fill="rgb(255,0,0)" r=".0001" />
    <text x="106.8162" y="-6.6214" stroke="rgb(0,0,0)" transform="translate(106.8162 -6.6214),scale(0.00001 -0.00001),translate(-106.8162 6.6214),translate(106.8125 -6.592499999999999),rotate(-30),translate(-106.8125 6.592499999999999)" >lippo-s</text>
    <line x1="106.8159" y1="-6.6211" x2="106.8145" y2="-6.6201" style="stroke:rgb(255,0,0);stroke-width:.00002" />
    <line x1="106.8159" y1="-6.6211" x2="106.81536274669425" y2="-6.620716247638743" style="stroke:rgb(0,0,0);stroke-width:.00002" />
    <line x1="106.81536274669425" y1="-6.620716247638743" x2="106.81503725330576" y2="-6.620483752361256" style="stroke:rgb(0,0,0);stroke-width:.00002" />
    <line x1="106.81503725330576" y1="-6.620483752361256" x2="106.8145" y2="-6.6201" style="stroke:rgb(0,0,0);stroke-width:.00002" />
    <circle cx="106.8159" cy="-6.6211" fill="rgb(255,0,0)" r=".0001" />
    <text x="106.8159" y="-6.6211" stroke="rgb(0,0,0)" transform="translate(106.8159 -6.6211),scale(0.00001 -0.00001),translate(-106.8159 6.6211),translate(106.8125 -6.592499999999999),rotate(-30),translate(-106.8125 6.592499999999999)" >lippo-w</text>
    <line x1="106.8145" y1="-6.6201" x2="106.8124" y2="-6.6208" style="stroke:rgb(255,0,0);stroke-width:.00002" />
    <line x1="106.8145" y1="-6.6201" x2="106.8138294733192" y2="-6.620323508893593" style="stroke:rgb(0,0,0);stroke-width:.00002" />
    <line x1="106.8138294733192" y1="-6.620323508893593" x2="106.81307052668078" y2="-6.620576491106407" style="stroke:rgb(0,0,0);stroke-width:.00002" />
    <line x1="106.81307052668078" y1="-6.620576491106407" x2="106.8124" y2="-6.6208" style="stroke:rgb(0,0,0);stroke-width:.00002" />
    <circle cx="106.8145" cy="-6.6201" fill="rgb(255,0,0)" r=".0001" />
    <text x="106.8145" y="-6.6201" stroke="rgb(0,0,0)" transform="translate(106.8145 -6.6201),scale(0.00001 -0.00001),translate(-106.8145 6.6201),translate(106.8125 -6.592499999999999),rotate(-30),translate(-106.8125 6.592499999999999)" >siliwangi-lawanggintung</text>
    <line x1="106.8124" y1="-6.6208" x2="106.8123" y2="-6.6235" style="stroke:rgb(255,0,0);stroke-width:.00002" />
    <line x1="106.8124" y1="-6.6208" x2="106.81235" y2="-6.6221499999999995" style="stroke:rgb(0,0,0);stroke-width:.00002" />
    <line x1="106.81235" y1="-6.6221499999999995" x2="106.81235" y2="-6.6221499999999995" style="stroke:rgb(0,0,0);stroke-width:.00002" />
    <line x1="106.81235" y1="-6.6221499999999995" x2="106.8123" y2="-6.6235" style="stroke:rgb(0,0,0);stroke-width:.00002" />
    <circle cx="106.8124" cy="-6.6208" fill="rgb(255,0,0)" r=".0001" />
    <text x="106.8124" y="-6.6208" stroke="rgb(0,0,0)" transform="translate(106.8124 -6.6208),scale(0.00001 -0.00001),translate(-106.8124 6.6208),translate(106.8125 -6.592499999999999),rotate(-30),translate(-106.8125 6.592499999999999)" >lawanggintung-1</text>
    <line x1="106.8123" y1="-6.6235" x2="106.8101" y2="-6.6238" style="stroke:rgb(255,0,0);stroke-width:.00002" />
    <line x1="106.8123" y1="-6.6235" x2="106.8112" y2="-6.62365" style="stroke:rgb(0,0,0);stroke-width:.00002" />
    <line x1="106.8112" y1="-6.62365" x2="106.8112" y2="-6.62365" style="stroke:rgb(0,0,0);stroke-width:.00002" />
    <line x1="106.8112" y1="-6.62365" x2="106.8101" y2="-6.6238" style="stroke:rgb(0,0,0);stroke-width:.00002" />
    <circle cx="106.8123" cy="-6.6235" fill="rgb(255,0,0)" r=".0001" />
    <text x="106.8123" y="-6.6235" stroke="rgb(0,0,0)" transform="translate(106.8123 -6.6235),scale(0.00001 -0.00001),translate(-106.8123 6.6235),translate(106.8125 -6.592499999999999),rotate(-30),translate(-106.8125 6.592499999999999)" >lawanggintung-2</text>
    <line x1="106.8101" y1="-6.6238" x2="106.8099" y2="-6.6246" style="stroke:rgb(255,0,0);stroke-width:.00002" />
    <line x1="106.8101" y1="-6.6238" x2="106.81" y2="-6.6242" style="stroke:rgb(0,0,0);stroke-width:.00002" />
    <line x1="106.81" y1="-6.6242" x2="106.81" y2="-6.6242" style="stroke:rgb(0,0,0);stroke-width:.00002" />
    <line x1="106.81" y1="-6.6242" x2="106.8099" y2="-6.6246" style="stroke:rgb(0,0,0);stroke-width:.00002" />
    <circle cx="106.8101" cy="-6.6238" fill="rgb(255,0,0)" r=".0001" />
    <text x="106.8101" y="-6.6238" stroke="rgb(0,0,0)" transform="translate(106.8101 -6.6238),scale(0.00001 -0.00001),translate(-106.8101 6.6238),translate(106.8125 -6.592499999999999),rotate(-30),translate(-106.8125 6.592499999999999)" >lawanggintung-3</text>
    <line x1="106.8099" y1="-6.6246" x2="106.8093" y2="-6.625" style="stroke:rgb(255,0,0);stroke-width:.00002" />
    <line x1="106.8099" y1="-6.6246" x2="106.80976641005886" y2="-6.624689059960756" style="stroke:rgb(0,0,0);stroke-width:.00002" />
    <line x1="106.80976641005886" y1="-6.624689059960756" x2="106.80943358994112" y2="-6.6249109400392445" style="stroke:rgb(0,0,0);stroke-width:.00002" />
    <line x1="106.80943358994112" y1="-6.6249109400392445" x2="106.8093" y2="-6.625" style="stroke:rgb(0,0,0);stroke-width:.00002" />
    <circle cx="106.8099" cy="-6.6246" fill="rgb(255,0,0)" r=".0001" />
    <text x="106.8099" y="-6.6246" stroke="rgb(0,0,0)" transform="translate(106.8099 -6.6246),scale(0.00001 -0.00001),translate(-106.8099 6.6246),translate(106.8125 -6.592499999999999),rotate(-30),translate(-106.8125 6.592499999999999)" >lawanggintung-4</text>
    <line x1="106.8093" y1="-6.625" x2="106.8089" y2="-6.6245" style="stroke:rgb(255,0,0);stroke-width:.00002" />
    <line x1="106.8093" y1="-6.625" x2="106.8091" y2="-6.624750000000001" style="stroke:rgb(0,0,0);stroke-width:.00002" />
    <line x1="106.8091" y1="-6.624750000000001" x2="106.8091" y2="-6.624750000000001" style="stroke:rgb(0,0,0);stroke-width:.00002" />
    <line x1="106.8091" y1="-6.624750000000001" x2="106.8089" y2="-6.6245" style="stroke:rgb(0,0,0);stroke-width:.00002" />
    <circle cx="106.8093" cy="-6.625" fill="rgb(255,0,0)" r=".0001" />
    <text x="106.8093" y="-6.625" stroke="rgb(0,0,0)" transform="translate(106.8093 -6.625),scale(0.00001 -0.00001),translate(-106.8093 6.625),translate(106.8125 -6.592499999999999),rotate(-30),translate(-106.8125 6.592499999999999)" >lawanggintung-5</text>
    <line x1="106.8089" y1="-6.6245" x2="106.8086" y2="-6.6218" style="stroke:rgb(255,0,0);stroke-width:.00002" />
    <line x1="106.8089" y1="-6.6245" x2="106.80875" y2="-6.623150000000001" style="stroke:rgb(0,0,0);stroke-width:.00002" />
    <line x1="106.80875" y1="-6.623150000000001" x2="106.80875" y2="-6.623150000000001" style="stroke:rgb(0,0,0);stroke-width:.00002" />
    <line x1="106.80875" y1="-6.623150000000001" x2="106.8086" y2="-6.6218" style="stroke:rgb(0,0,0);stroke-width:.00002" />
    <circle cx="106.8089" cy="-6.6245" fill="rgb(255,0,0)" r=".0001" />
    <text x="106.8089" y="-6.6245" stroke="rgb(0,0,0)" transform="translate(106.8089 -6.6245),scale(0.00001 -0.00001),translate(-106.8089 6.6245),translate(106.8125 -6.592499999999999),rotate(-30),translate(-106.8125 6.592499999999999)" >batutulis-1</text>
    <line x1="106.8086" y1="-6.6218" x2="106.8079" y2="-6.6215" style="stroke:rgb(255,0,0);stroke-width:.00002" />
    <line x1="106.8086" y1="-6.6218" x2="106.80825" y2="-6.621650000000001" style="stroke:rgb(0,0,0);stroke-width:.00002" />
    <line x1="106.80825" y1="-6.621650000000001" x2="106.80825" y2="-6.621650000000001" style="stroke:rgb(0,0,0);stroke-width:.00002" />
    <line x1="106.80825" y1="-6.621650000000001" x2="106.8079" y2="-6.6215" style="stroke:rgb(0,0,0);stroke-width:.00002" />
    <circle cx="106.8086" cy="-6.6218" fill="rgb(255,0,0)" r=".0001" />
    <text x="106.8086" y="-6.6218" stroke="rgb(0,0,0)" transform="translate(106.8086 -6.6218),scale(0.00001 -0.00001),translate(-106.8086 6.6218),translate(106.8125 -6.592499999999999),rotate(-30),translate(-106.8125 6.592499999999999)" >batutulis-2</text>
    <line x1="106.8079" y1="-6.6215" x2="106.8069" y2="-6.6188" style="stroke:rgb(255,0,0);stroke-width:.00002" />
    <line x1="106.8079" y1="-6.6215" x2="106.8074" y2="-6.620150000000001" style="stroke:rgb(0,0,0);stroke-width:.00002" />
    <line x1="106.8074" y1="-6.620150000000001" x2="106.8074" y2="-6.620150000000001" style="stroke:rgb(0,0,0);stroke-width:.00002" />
    <line x1="106.8074" y1="-6.620150000000001" x2="106.8069" y2="-6.6188" style="stroke:rgb(0,0,0);stroke-width:.00002" />
    <circle cx="106.8079" cy="-6.6215" fill="rgb(255,0,0)" r=".0001" />
    <text x="106.8079" y="-6.6215" stroke="rgb(0,0,0)" transform="translate(106.8079 -6.6215),scale(0.00001 -0.00001),translate(-106.8079 6.6215),translate(106.8125 -6.592499999999999),rotate(-30),translate(-106.8125 6.592499999999999)" >batutulis-3</text>
    <line x1="106.8069" y1="-6.6188" x2="106.8045" y2="-6.6163" style="stroke:rgb(255,0,0);stroke-width:.00002" />
    <line x1="106.8069" y1="-6.6188" x2="106.80583850636565" y2="-6.617694277464206" style="stroke:rgb(0,0,0);stroke-width:.00002" />
    <line x1="106.80583850636565" y1="-6.617694277464206" x2="106.80556149363436" y2="-6.617405722535794" style="stroke:rgb(0,0,0);stroke-width:.00002" />
    <line x1="106.80556149363436" y1="-6.617405722535794" x2="106.8045" y2="-6.6163" style="stroke:rgb(0,0,0);stroke-width:.00002" />
    <circle cx="106.8069" cy="-6.6188" fill="rgb(255,0,0)" r=".0001" />
    <text x="106.8069" y="-6.6188" stroke="rgb(0,0,0)" transform="translate(106.8069 -6.6188),scale(0.00001 -0.00001),translate(-106.8069 6.6188),translate(106.8125 -6.592499999999999),rotate(-30),translate(-106.8125 6.592499999999999)" >batutulis-pahlawan</text>
    <line x1="106.8045" y1="-6.6163" x2="106.8034" y2="-6.6142" style="stroke:rgb(255,0,0);stroke-width:.00002" />
    <line x1="106.8045" y1="-6.6163" x2="106.80395" y2="-6.61525" style="stroke:rgb(0,0,0);stroke-width:.00002" />
    <line x1="106.80395" y1="-6.61525" x2="106.80395" y2="-6.61525" style="stroke:rgb(0,0,0);stroke-width:.00002" />
    <line x1="106.80395" y1="-6.61525" x2="106.8034" y2="-6.6142" style="stroke:rgb(0,0,0);stroke-width:.00002" />
    <circle cx="106.8045" cy="-6.6163" fill="rgb(255,0,0)" r=".0001" />
    <text x="106.8045" y="-6.6163" stroke="rgb(0,0,0)" transform="translate(106.8045 -6.6163),scale(0.00001 -0.00001),translate(-106.8045 6.6163),translate(106.8125 -6.592499999999999),rotate(-30),translate(-106.8125 6.592499999999999)" >pahlawan-1</text>
    <line x1="106.8034" y1="-6.6142" x2="106.8021" y2="-6.6123" style="stroke:rgb(255,0,0);stroke-width:.00002" />
    <line x1="106.8034" y1="-6.6142" x2="106.80286293678313" y2="-6.613415061452251" style="stroke:rgb(0,0,0);stroke-width:.00002" />
    <line x1="106.80286293678313" y1="-6.613415061452251" x2="106.80263706321688" y2="-6.61308493854775" style="stroke:rgb(0,0,0);stroke-width:.00002" />
    <line x1="106.80263706321688" y1="-6.61308493854775" x2="106.8021" y2="-6.6123" style="stroke:rgb(0,0,0);stroke-width:.00002" />
    <circle cx="106.8034" cy="-6.6142" fill="rgb(255,0,0)" r=".0001" />
    <text x="106.8034" y="-6.6142" stroke="rgb(0,0,0)" transform="translate(106.8034 -6.6142),scale(0.00001 -0.00001),translate(-106.8034 6.6142),translate(106.8125 -6.592499999999999),rotate(-30),translate(-106.8125 6.592499999999999)" >dreded-pahlawan</text>
    <line x1="106.8021" y1="-6.6123" x2="106.8" y2="-6.6113" style="stroke:rgb(255,0,0);stroke-width:.00002" />
    <line x1="106.8021" y1="-6.6123" x2="106.80123057210376" y2="-6.6118859867160795" style="stroke:rgb(0,0,0);stroke-width:.00002" />
    <line x1="106.80123057210376" y1="-6.6118859867160795" x2="106.80086942789625" y2="-6.611714013283922" style="stroke:rgb(0,0,0);stroke-width:.00002" />
    <line x1="106.80086942789625" y1="-6.611714013283922" x2="106.8" y2="-6.6113" style="stroke:rgb(0,0,0);stroke-width:.00002" />
    <circle cx="106.8021" cy="-6.6123" fill="rgb(255,0,0)" r=".0001" />
    <text x="106.8021" y="-6.6123" stroke="rgb(0,0,0)" transform="translate(106.8021 -6.6123),scale(0.00001 -0.00001),translate(-106.8021 6.6123),translate(106.8125 -6.592499999999999),rotate(-30),translate(-106.8125 6.592499999999999)" >pahlawan-ggaut</text>
    <line x1="106.8" y1="-6.6113" x2="106.7964" y2="-6.6082" style="stroke:rgb(255,0,0);stroke-width:.00002" />
    <line x1="106.8" y1="-6.6113" x2="106.79820000000001" y2="-6.60975" style="stroke:rgb(0,0,0);stroke-width:.00002" />
    <line x1="106.79820000000001" y1="-6.60975" x2="106.79820000000001" y2="-6.60975" style="stroke:rgb(0,0,0);stroke-width:.00002" />
    <line x1="106.79820000000001" y1="-6.60975" x2="106.7964" y2="-6.6082" style="stroke:rgb(0,0,0);stroke-width:.00002" />
    <circle cx="106.8" cy="-6.6113" fill="rgb(255,0,0)" r=".0001" />
    <text x="106.8" y="-6.6113" stroke="rgb(0,0,0)" transform="translate(106.8 -6.6113),scale(0.00001 -0.00001),translate(-106.8 6.6113),translate(106.8125 -6.592499999999999),rotate(-30),translate(-106.8125 6.592499999999999)" >pahlawan-3</text>
    <line x1="106.7964" y1="-6.6082" x2="106.7949" y2="-6.6077" style="stroke:rgb(255,0,0);stroke-width:.00002" />
    <line x1="106.7964" y1="-6.6082" x2="106.79565" y2="-6.607950000000001" style="stroke:rgb(0,0,0);stroke-width:.00002" />
    <line x1="106.79565" y1="-6.607950000000001" x2="106.79565" y2="-6.607950000000001" style="stroke:rgb(0,0,0);stroke-width:.00002" />
    <line x1="106.79565" y1="-6.607950000000001" x2="106.7949" y2="-6.6077" style="stroke:rgb(0,0,0);stroke-width:.00002" />
    <circle cx="106.7964" cy="-6.6082" fill="rgb(255,0,0)" r=".0001" />
    <text x="106.7964" y="-6.6082" stroke="rgb(0,0,0)" transform="translate(106.7964 -6.6082),scale(0.00001 -0.00001),translate(-106.7964 6.6082),translate(106.8125 -6.592499999999999),rotate(-30),translate(-106.8125 6.592499999999999)" >pahlawan-4</text>
    <line x1="106.7949" y1="-6.6077" x2="106.7954" y2="-6.606" style="stroke:rgb(255,0,0);stroke-width:.00002" />
    <line x1="106.7949" y1="-6.6077" x2="106.79515" y2="-6.60685" style="stroke:rgb(0,0,0);stroke-width:.00002" />
    <line x1="106.79515" y1="-6.60685" x2="106.79515" y2="-6.60685" style="stroke:rgb(0,0,0);stroke-width:.00002" />
    <line x1="106.79515" y1="-6.60685" x2="106.7954" y2="-6.606" style="stroke:rgb(0,0,0);stroke-width:.00002" />
    <circle cx="106.7949" cy="-6.6077" fill="rgb(255,0,0)" r=".0001" />
    <text x="106.7949" y="-6.6077" stroke="rgb(0,0,0)" transform="translate(106.7949 -6.6077),scale(0.00001 -0.00001),translate(-106.7949 6.6077),translate(106.8125 -6.592499999999999),rotate(-30),translate(-106.8125 6.592499999999999)" >pahlawan-empang</text>
    <line x1="106.7954" y1="-6.606" x2="106.7965" y2="-6.6046" style="stroke:rgb(255,0,0);stroke-width:.00002" />
    <line x1="106.7954" y1="-6.606" x2="106.79595" y2="-6.6053" style="stroke:rgb(0,0,0);stroke-width:.00002" />
    <line x1="106.79595" y1="-6.6053" x2="106.79595" y2="-6.6053" style="stroke:rgb(0,0,0);stroke-width:.00002" />
    <line x1="106.79595" y1="-6.6053" x2="106.7965" y2="-6.6046" style="stroke:rgb(0,0,0);stroke-width:.00002" />
    <circle cx="106.7954" cy="-6.606" fill="rgb(255,0,0)" r=".0001" />
    <text x="106.7954" y="-6.606" stroke="rgb(0,0,0)" transform="translate(106.7954 -6.606),scale(0.00001 -0.00001),translate(-106.7954 6.606),translate(106.8125 -6.592499999999999),rotate(-30),translate(-106.8125 6.592499999999999)" >halte-empang</text>
    <line x1="106.7965" y1="-6.6046" x2="106.7961" y2="-6.6038" style="stroke:rgb(255,0,0);stroke-width:.00002" />
    <line x1="106.7965" y1="-6.6046" x2="106.7963" y2="-6.6042" style="stroke:rgb(0,0,0);stroke-width:.00002" />
    <line x1="106.7963" y1="-6.6042" x2="106.7963" y2="-6.6042" style="stroke:rgb(0,0,0);stroke-width:.00002" />
    <line x1="106.7963" y1="-6.6042" x2="106.7961" y2="-6.6038" style="stroke:rgb(0,0,0);stroke-width:.00002" />
    <circle cx="106.7965" cy="-6.6046" fill="rgb(255,0,0)" r=".0001" />
    <text x="106.7965" y="-6.6046" stroke="rgb(0,0,0)" transform="translate(106.7965 -6.6046),scale(0.00001 -0.00001),translate(-106.7965 6.6046),translate(106.8125 -6.592499999999999),rotate(-30),translate(-106.8125 6.592499999999999)" >btm-3</text>
    <line x1="106.7961" y1="-6.6038" x2="106.7937" y2="-6.5969" style="stroke:rgb(255,0,0);stroke-width:.00002" />
    <line x1="106.7961" y1="-6.6038" x2="106.79535992887492" y2="-6.601672295515389" style="stroke:rgb(0,0,0);stroke-width:.00002" />
    <line x1="106.79535992887492" y1="-6.601672295515389" x2="106.79444007112508" y2="-6.599027704484611" style="stroke:rgb(0,0,0);stroke-width:.00002" />
    <line x1="106.79444007112508" y1="-6.599027704484611" x2="106.7937" y2="-6.5969" style="stroke:rgb(0,0,0);stroke-width:.00002" />
    <circle cx="106.7961" cy="-6.6038" fill="rgb(255,0,0)" r=".0001" />
    <text x="106.7961" y="-6.6038" stroke="rgb(0,0,0)" transform="translate(106.7961 -6.6038),scale(0.00001 -0.00001),translate(-106.7961 6.6038),translate(106.8125 -6.592499999999999),rotate(-30),translate(-106.8125 6.592499999999999)" >kb-btm-2</text>
  </g>
</svg>
