<svg width="1049.9999999998977" height="1849.9999999999961" xmlns="http://www.w3.org/2000/svg" xmlns:xlink="http://www.w3.org/1999/xlink" >
  <g transform="translate(524.9999999999488 924.9999999999981) rotate(30) scale(10000 -10000) translate(-106.8125 6.592499999999999)">
    <path d="M106.76 -6.5 L106.865 -6.5 L106.865 -6.685 L106.76 -6.685 Z" fill="none" stroke="black" stroke-width="0.001" transform="translate(106.8125 -6.592499999999999) rotate(30) translate(-106.8125 6.592499999999999)" />
    <path d="M106.7557379696869 -6.569258800175931 L106.75601674167139 -6.569545655855086 L106.75625963937664 -6.569795596990061 L106.75777000179454 -6.56911980370102 L106.75811269629898 -6.568913501794532 L106.75977303470816 -6.567913978969443 L106.76512162629919 -6.56282411783193 L106.76512162629919 -6.56282411783193 L106.77052564058164 -6.55768151499627 L106.77450527447891 -6.556757680462369 L106.77450527447891 -6.556757680462369 L106.77806819900874 -6.555930581084057 L106.77730773104688 -6.555488773927191 L106.77701661948637 -6.555214449193818 L106.77605526353616 -6.554308529434873 L106.77279856387348 -6.5458238368738515 L106.77279856387348 -6.5458238368738515 L106.76958890778245 -6.537461707116851 L106.76852687247302 -6.535789993946346 L106.76852687247302 -6.535789993946346 L106.767781 -6.53387 L106.769202127527 -6.535361006053654 L106.769202127527 -6.535361006053654 L106.77006498829901 -6.536719205450685 L106.77057681072401 -6.536614753688518 L106.77090824631148 -6.536390810724006 L106.77172275879943 -6.53584046444837 L106.77241012703173 -6.53601087687202 L106.77241012703173 -6.53601087687202 L106.77293994260113 -6.536142228818508 L106.77464972409895 -6.535295282703428 L106.77464972409895 -6.535295282703428 L106.776463890177 -6.534396629329367 L106.77955401378368 -6.53428862205529 L106.77955401378368 -6.53428862205529 L106.78260577931677 -6.534181955488412 L106.78594704737314 -6.534224516223433 L106.78594704737314 -6.534224516223433 L106.78920377300334 -6.534266000065569 L106.78961770207053 -6.533883170430942 L106.78961770207053 -6.533883170430942 L106.79015183839638 -6.533389164982478 L106.79308919596261 -6.533531735167487 L106.79308919596261 -6.533531735167487 L106.7957493962957 -6.533660853003875 L106.79583016210118 -6.532670739554323 L106.79583016210118 -6.532670739554323 L106.79593997530081 -6.531324532143265 L106.7962851001771 -6.531283873596197 L106.7962851001771 -6.531283873596197 L106.7963260183611 -6.531279053097809 L106.7963491044008 -6.531173331981399 L106.7963491044008 -6.531173331981399 L106.7964351321738 -6.530779373020942 L106.79844088643597 -6.530672781817907 L106.79844088643597 -6.530672781817907 L106.800305 -6.530774 L106.79846211356403 -6.531072218182093 L106.79846211356403 -6.531072218182093 L106.79676086782622 -6.531162626979058 L106.79673989559922 -6.531258668018602 L106.79673989559922 -6.531258668018602 L106.79665598163892 -6.531642946902191 L106.79633189982292 -6.531681126403803 L106.79633189982292 -6.531681126403803 L106.79631202469919 -6.531683467856735 L106.79622883789882 -6.532703260445677 L106.79622883789882 -6.532703260445677 L106.7961166037043 -6.534079146996125 L106.7930698040374 -6.533931264832513 L106.7930698040374 -6.533931264832513 L106.79030016160362 -6.5337968350175215 L106.78988929792948 -6.534176829569057 L106.78988929792948 -6.534176829569057 L106.78935822699665 -6.534667999934433 L106.78594195262686 -6.534624483776567 L106.78594195262686 -6.534624483776567 L106.78261022068321 -6.534582044511588 L106.77956798621632 -6.53468837794471 L106.77956798621632 -6.53468837794471 L106.77656410982301 -6.534793370670633 L106.77482727590107 -6.535653717296572 L106.77482727590107 -6.535653717296572 L106.77298605739888 -6.5365657711814915 L106.77231387296827 -6.536399123127981 L106.77231387296827 -6.536399123127981 L106.77179924120057 -6.53627153555163 L106.77096647148225 -6.536834217793738 L106.77096647148225 -6.536834217793738 L106.7701916772048 -6.53735772744067 L106.7734737676896 -6.545350445062885 L106.77361710456346 -6.54572388118941 L106.77673673646385 -6.553851470565141 L106.77742810658643 -6.554777781853061 L106.77771921814693 -6.555052106586435 L106.77888580099125 -6.5561514189159436 L106.7745957255211 -6.55714731953763 L106.7745957255211 -6.55714731953763 L106.77072235941836 -6.558046485003729 L106.76539737370081 -6.5631138821680715 L106.76539737370081 -6.5631138821680715 L106.76001696529185 -6.568234021030547 L106.75814765095323 -6.569359347252225 L106.75814765095323 -6.569359347252225 L106.75631178840185 -6.570464535516068 L106.75591421917382 -6.570807868747101 L106.75591421917382 -6.570807868747101 L106.75524352682926 -6.5713870659118925 L106.754983803062 -6.570074317026175 L106.754983803062 -6.570074317026175 L106.75465971666036 -6.568436253374287 Z" stroke="darkgreen" stroke-width="0.0002" fill="none" />
    <circle 
      cx="106.767781" cy="-12.53387"
      r="15" transform="translate(106.767781 -6.53387) scale(0.00001 -0.00001) translate(-106.767781 6.53387) translate(106.8125 -6.592499999999999) rotate(-30) translate(-106.8125 6.592499999999999)"
      fill="white" stroke="black" stroke-width="2"/>
    <circle 
      cx="106.800305" cy="-12.530774000000001"
      r="15" transform="translate(106.800305 -6.530774) scale(0.00001 -0.00001) translate(-106.800305 6.530774) translate(106.8125 -6.592499999999999) rotate(-30) translate(-106.8125 6.592499999999999)"
      fill="white" stroke="black" stroke-width="2"/>
    <circle 
      cx="106.767781" cy="-12.53387"
      r="15" transform="translate(106.767781 -6.53387) scale(0.00001 -0.00001) translate(-106.767781 6.53387) translate(106.8125 -6.592499999999999) rotate(-30) translate(-106.8125 6.592499999999999)"
      fill="white" stroke="none"/>
    <circle 
      cx="106.800305" cy="-12.530774000000001"
      r="15" transform="translate(106.800305 -6.530774) scale(0.00001 -0.00001) translate(-106.800305 6.530774) translate(106.8125 -6.592499999999999) rotate(-30) translate(-106.8125 6.592499999999999)"
      fill="white" stroke="none"/>
    <text x="106.767781" y="-6.53387" fill="black" text-anchor="middle" transform="translate(106.767781 -6.53387) scale(0.00001 -0.00001) translate(-106.767781 6.53387) translate(106.8125 -6.592499999999999) rotate(-30) translate(-106.8125 6.592499999999999)">19</text>
    <text x="106.800305" y="-6.530774" fill="black" text-anchor="middle" transform="translate(106.800305 -6.530774) scale(0.00001 -0.00001) translate(-106.800305 6.530774) translate(106.8125 -6.592499999999999) rotate(-30) translate(-106.8125 6.592499999999999)">19</text>
    <line x1="106.754987" y1="-6.56906" x2="106.756194" y2="-6.570302" style="stroke:rgb(255,0,0);stroke-width:.00002" />
    <line x1="106.754987" y1="-6.56906" x2="106.75545111400776" y2="-6.569537572160423" style="stroke:rgb(0,0,0);stroke-width:.00002" />
    <line x1="106.75545111400776" y1="-6.569537572160423" x2="106.75572988599224" y2="-6.569824427839578" style="stroke:rgb(0,0,0);stroke-width:.00002" />
    <line x1="106.75572988599224" y1="-6.569824427839578" x2="106.756194" y2="-6.570302" style="stroke:rgb(0,0,0);stroke-width:.00002" />
    <circle cx="106.754987" cy="-6.56906" fill="rgb(255,0,0)" r=".0001" />
    <text x="106.754987" y="-6.56906" stroke="rgb(0,0,0)" transform="translate(106.754987 -6.56906),scale(0.00001 -0.00001),translate(-106.754987 6.56906),translate(106.8125 -6.592499999999999),rotate(-30),translate(-106.8125 6.592499999999999)" >bubulak-far-exit</text>
    <line x1="106.756194" y1="-6.570302" x2="106.759895" y2="-6.568074" style="stroke:rgb(255,0,0);stroke-width:.00002" />
    <line x1="106.756194" y1="-6.570302" x2="106.75787315274778" y2="-6.569291150953244" style="stroke:rgb(0,0,0);stroke-width:.00002" />
    <line x1="106.75787315274778" y1="-6.569291150953244" x2="106.75821584725222" y2="-6.569084849046757" style="stroke:rgb(0,0,0);stroke-width:.00002" />
    <line x1="106.75821584725222" y1="-6.569084849046757" x2="106.759895" y2="-6.568074" style="stroke:rgb(0,0,0);stroke-width:.00002" />
    <circle cx="106.756194" cy="-6.570302" fill="rgb(255,0,0)" r=".0001" />
    <text x="106.756194" y="-6.570302" stroke="rgb(0,0,0)" transform="translate(106.756194 -6.570302),scale(0.00001 -0.00001),translate(-106.756194 6.570302),translate(106.8125 -6.592499999999999),rotate(-30),translate(-106.8125 6.592499999999999)" >cifor-ciampea</text>
    <line x1="106.759895" y1="-6.568074" x2="106.770624" y2="-6.557864" style="stroke:rgb(255,0,0);stroke-width:.00002" />
    <line x1="106.759895" y1="-6.568074" x2="106.7652595" y2="-6.562969000000001" style="stroke:rgb(0,0,0);stroke-width:.00002" />
    <line x1="106.7652595" y1="-6.562969000000001" x2="106.7652595" y2="-6.562969000000001" style="stroke:rgb(0,0,0);stroke-width:.00002" />
    <line x1="106.7652595" y1="-6.562969000000001" x2="106.770624" y2="-6.557864" style="stroke:rgb(0,0,0);stroke-width:.00002" />
    <circle cx="106.759895" cy="-6.568074" fill="rgb(255,0,0)" r=".0001" />
    <text x="106.759895" y="-6.568074" stroke="rgb(0,0,0)" transform="translate(106.759895 -6.568074),scale(0.00001 -0.00001),translate(-106.759895 6.568074),translate(106.8125 -6.592499999999999),rotate(-30),translate(-106.8125 6.592499999999999)" >ciampea-before-river</text>
    <line x1="106.770624" y1="-6.557864" x2="106.778477" y2="-6.556041" style="stroke:rgb(255,0,0);stroke-width:.00002" />
    <line x1="106.770624" y1="-6.557864" x2="106.7745505" y2="-6.5569524999999995" style="stroke:rgb(0,0,0);stroke-width:.00002" />
    <line x1="106.7745505" y1="-6.5569524999999995" x2="106.7745505" y2="-6.5569524999999995" style="stroke:rgb(0,0,0);stroke-width:.00002" />
    <line x1="106.7745505" y1="-6.5569524999999995" x2="106.778477" y2="-6.556041" style="stroke:rgb(0,0,0);stroke-width:.00002" />
    <circle cx="106.770624" cy="-6.557864" fill="rgb(255,0,0)" r=".0001" />
    <text x="106.770624" y="-6.557864" stroke="rgb(0,0,0)" transform="translate(106.770624 -6.557864),scale(0.00001 -0.00001),translate(-106.770624 6.557864),translate(106.8125 -6.592499999999999),rotate(-30),translate(-106.8125 6.592499999999999)" >ciampea-towards-iskandar</text>
    <line x1="106.778477" y1="-6.556041" x2="106.776396" y2="-6.55408" style="stroke:rgb(255,0,0);stroke-width:.00002" />
    <line x1="106.778477" y1="-6.556041" x2="106.77758205578024" y2="-6.5551976623666866" style="stroke:rgb(0,0,0);stroke-width:.00002" />
    <line x1="106.77758205578024" y1="-6.5551976623666866" x2="106.77729094421974" y2="-6.554923337633313" style="stroke:rgb(0,0,0);stroke-width:.00002" />
    <line x1="106.77729094421974" y1="-6.554923337633313" x2="106.776396" y2="-6.55408" style="stroke:rgb(0,0,0);stroke-width:.00002" />
    <circle cx="106.778477" cy="-6.556041" fill="rgb(255,0,0)" r=".0001" />
    <text x="106.778477" y="-6.556041" stroke="rgb(0,0,0)" transform="translate(106.778477 -6.556041),scale(0.00001 -0.00001),translate(-106.778477 6.556041),translate(106.8125 -6.592499999999999),rotate(-30),translate(-106.8125 6.592499999999999)" >iskandar-ciampea-Y</text>
    <line x1="106.776396" y1="-6.55408" x2="106.769948" y2="-6.537281" style="stroke:rgb(255,0,0);stroke-width:.00002" />
    <line x1="106.776396" y1="-6.55408" x2="106.773172" y2="-6.5456805" style="stroke:rgb(0,0,0);stroke-width:.00002" />
    <line x1="106.773172" y1="-6.5456805" x2="106.773172" y2="-6.5456805" style="stroke:rgb(0,0,0);stroke-width:.00002" />
    <line x1="106.773172" y1="-6.5456805" x2="106.769948" y2="-6.537281" style="stroke:rgb(0,0,0);stroke-width:.00002" />
    <circle cx="106.776396" cy="-6.55408" fill="rgb(255,0,0)" r=".0001" />
    <text x="106.776396" y="-6.55408" stroke="rgb(0,0,0)" transform="translate(106.776396 -6.55408),scale(0.00001 -0.00001),translate(-106.776396 6.55408),translate(106.8125 -6.592499999999999),rotate(-30),translate(-106.8125 6.592499999999999)" >iskandar-bendright</text>
    <line x1="106.769948" y1="-6.537281" x2="106.767781" y2="-6.53387" style="stroke:rgb(255,0,0);stroke-width:.00002" />
    <line x1="106.769948" y1="-6.537281" x2="106.7688645" y2="-6.5355755" style="stroke:rgb(0,0,0);stroke-width:.00002" />
    <line x1="106.7688645" y1="-6.5355755" x2="106.7688645" y2="-6.5355755" style="stroke:rgb(0,0,0);stroke-width:.00002" />
    <line x1="106.7688645" y1="-6.5355755" x2="106.767781" y2="-6.53387" style="stroke:rgb(0,0,0);stroke-width:.00002" />
    <circle cx="106.769948" cy="-6.537281" fill="rgb(255,0,0)" r=".0001" />
    <text x="106.769948" y="-6.537281" stroke="rgb(0,0,0)" transform="translate(106.769948 -6.537281),scale(0.00001 -0.00001),translate(-106.769948 6.537281),translate(106.8125 -6.592499999999999),rotate(-30),translate(-106.8125 6.592499999999999)" >iskandar-kencana</text>
    <line x1="106.767781" y1="-6.53387" x2="106.769948" y2="-6.537281" style="stroke:rgb(255,0,0);stroke-width:.00002" />
    <line x1="106.767781" y1="-6.53387" x2="106.7688645" y2="-6.5355755" style="stroke:rgb(0,0,0);stroke-width:.00002" />
    <line x1="106.7688645" y1="-6.5355755" x2="106.7688645" y2="-6.5355755" style="stroke:rgb(0,0,0);stroke-width:.00002" />
    <line x1="106.7688645" y1="-6.5355755" x2="106.769948" y2="-6.537281" style="stroke:rgb(0,0,0);stroke-width:.00002" />
    <circle cx="106.767781" cy="-6.53387" fill="rgb(255,0,0)" r=".0001" />
    <text x="106.767781" y="-6.53387" stroke="rgb(0,0,0)" transform="translate(106.767781 -6.53387),scale(0.00001 -0.00001),translate(-106.767781 6.53387),translate(106.8125 -6.592499999999999),rotate(-30),translate(-106.8125 6.592499999999999)" >iskandar-19-turns-N</text>
    <line x1="106.769948" y1="-6.537281" x2="106.771761" y2="-6.536056" style="stroke:rgb(255,0,0);stroke-width:.00002" />
    <line x1="106.769948" y1="-6.537281" x2="106.77068878220626" y2="-6.536780471482256" style="stroke:rgb(0,0,0);stroke-width:.00002" />
    <line x1="106.77068878220626" y1="-6.536780471482256" x2="106.77102021779373" y2="-6.536556528517744" style="stroke:rgb(0,0,0);stroke-width:.00002" />
    <line x1="106.77102021779373" y1="-6.536556528517744" x2="106.771761" y2="-6.536056" style="stroke:rgb(0,0,0);stroke-width:.00002" />
    <circle cx="106.769948" cy="-6.537281" fill="rgb(255,0,0)" r=".0001" />
    <text x="106.769948" y="-6.537281" stroke="rgb(0,0,0)" transform="translate(106.769948 -6.537281),scale(0.00001 -0.00001),translate(-106.769948 6.537281),translate(106.8125 -6.592499999999999),rotate(-30),translate(-106.8125 6.592499999999999)" >iskandar-kencana</text>
    <line x1="106.771761" y1="-6.536056" x2="106.772963" y2="-6.536354" style="stroke:rgb(255,0,0);stroke-width:.00002" />
    <line x1="106.771761" y1="-6.536056" x2="106.772362" y2="-6.536205000000001" style="stroke:rgb(0,0,0);stroke-width:.00002" />
    <line x1="106.772362" y1="-6.536205000000001" x2="106.772362" y2="-6.536205000000001" style="stroke:rgb(0,0,0);stroke-width:.00002" />
    <line x1="106.772362" y1="-6.536205000000001" x2="106.772963" y2="-6.536354" style="stroke:rgb(0,0,0);stroke-width:.00002" />
    <circle cx="106.771761" cy="-6.536056" fill="rgb(255,0,0)" r=".0001" />
    <text x="106.771761" y="-6.536056" stroke="rgb(0,0,0)" transform="translate(106.771761 -6.536056),scale(0.00001 -0.00001),translate(-106.771761 6.536056),translate(106.8125 -6.592499999999999),rotate(-30),translate(-106.8125 6.592499999999999)" >kencana-1-bend-right</text>
    <line x1="106.772963" y1="-6.536354" x2="106.776514" y2="-6.534595" style="stroke:rgb(255,0,0);stroke-width:.00002" />
    <line x1="106.772963" y1="-6.536354" x2="106.77473850000001" y2="-6.5354745" style="stroke:rgb(0,0,0);stroke-width:.00002" />
    <line x1="106.77473850000001" y1="-6.5354745" x2="106.77473850000001" y2="-6.5354745" style="stroke:rgb(0,0,0);stroke-width:.00002" />
    <line x1="106.77473850000001" y1="-6.5354745" x2="106.776514" y2="-6.534595" style="stroke:rgb(0,0,0);stroke-width:.00002" />
    <circle cx="106.772963" cy="-6.536354" fill="rgb(255,0,0)" r=".0001" />
    <text x="106.772963" y="-6.536354" stroke="rgb(0,0,0)" transform="translate(106.772963 -6.536354),scale(0.00001 -0.00001),translate(-106.772963 6.536354),translate(106.8125 -6.592499999999999),rotate(-30),translate(-106.8125 6.592499999999999)" >kencana-2-bend-left</text>
    <line x1="106.776514" y1="-6.534595" x2="106.782608" y2="-6.534382" style="stroke:rgb(255,0,0);stroke-width:.00002" />
    <line x1="106.776514" y1="-6.534595" x2="106.779561" y2="-6.5344885" style="stroke:rgb(0,0,0);stroke-width:.00002" />
    <line x1="106.779561" y1="-6.5344885" x2="106.779561" y2="-6.5344885" style="stroke:rgb(0,0,0);stroke-width:.00002" />
    <line x1="106.779561" y1="-6.5344885" x2="106.782608" y2="-6.534382" style="stroke:rgb(0,0,0);stroke-width:.00002" />
    <circle cx="106.776514" cy="-6.534595" fill="rgb(255,0,0)" r=".0001" />
    <text x="106.776514" y="-6.534595" stroke="rgb(0,0,0)" transform="translate(106.776514 -6.534595),scale(0.00001 -0.00001),translate(-106.776514 6.534595),translate(106.8125 -6.592499999999999),rotate(-30),translate(-106.8125 6.592499999999999)" >kencana-3-over-river</text>
    <line x1="106.782608" y1="-6.534382" x2="106.789281" y2="-6.534467" style="stroke:rgb(255,0,0);stroke-width:.00002" />
    <line x1="106.782608" y1="-6.534382" x2="106.7859445" y2="-6.5344245" style="stroke:rgb(0,0,0);stroke-width:.00002" />
    <line x1="106.7859445" y1="-6.5344245" x2="106.7859445" y2="-6.5344245" style="stroke:rgb(0,0,0);stroke-width:.00002" />
    <line x1="106.7859445" y1="-6.5344245" x2="106.789281" y2="-6.534467" style="stroke:rgb(0,0,0);stroke-width:.00002" />
    <circle cx="106.782608" cy="-6.534382" fill="rgb(255,0,0)" r=".0001" />
    <text x="106.782608" y="-6.534382" stroke="rgb(0,0,0)" transform="translate(106.782608 -6.534382),scale(0.00001 -0.00001),translate(-106.782608 6.534382),translate(106.8125 -6.592499999999999),rotate(-30),translate(-106.8125 6.592499999999999)" >kencana-4-setapak</text>
    <line x1="106.789281" y1="-6.534467" x2="106.790226" y2="-6.533593" style="stroke:rgb(255,0,0);stroke-width:.00002" />
    <line x1="106.789281" y1="-6.534467" x2="106.7897535" y2="-6.53403" style="stroke:rgb(0,0,0);stroke-width:.00002" />
    <line x1="106.7897535" y1="-6.53403" x2="106.7897535" y2="-6.53403" style="stroke:rgb(0,0,0);stroke-width:.00002" />
    <line x1="106.7897535" y1="-6.53403" x2="106.790226" y2="-6.533593" style="stroke:rgb(0,0,0);stroke-width:.00002" />
    <circle cx="106.789281" cy="-6.534467" fill="rgb(255,0,0)" r=".0001" />
    <text x="106.789281" y="-6.534467" stroke="rgb(0,0,0)" transform="translate(106.789281 -6.534467),scale(0.00001 -0.00001),translate(-106.789281 6.534467),translate(106.8125 -6.592499999999999),rotate(-30),translate(-106.8125 6.592499999999999)" >kencana-5-left</text>
    <line x1="106.790226" y1="-6.533593" x2="106.795933" y2="-6.53387" style="stroke:rgb(255,0,0);stroke-width:.00002" />
    <line x1="106.790226" y1="-6.533593" x2="106.7930795" y2="-6.5337315" style="stroke:rgb(0,0,0);stroke-width:.00002" />
    <line x1="106.7930795" y1="-6.5337315" x2="106.7930795" y2="-6.5337315" style="stroke:rgb(0,0,0);stroke-width:.00002" />
    <line x1="106.7930795" y1="-6.5337315" x2="106.795933" y2="-6.53387" style="stroke:rgb(0,0,0);stroke-width:.00002" />
    <circle cx="106.790226" cy="-6.533593" fill="rgb(255,0,0)" r=".0001" />
    <text x="106.790226" y="-6.533593" stroke="rgb(0,0,0)" transform="translate(106.790226 -6.533593),scale(0.00001 -0.00001),translate(-106.790226 6.533593),translate(106.8125 -6.592499999999999),rotate(-30),translate(-106.8125 6.592499999999999)" >kencana-6-right</text>
    <line x1="106.795933" y1="-6.53387" x2="106.796126" y2="-6.531504" style="stroke:rgb(255,0,0);stroke-width:.00002" />
    <line x1="106.795933" y1="-6.53387" x2="106.7960295" y2="-6.532687" style="stroke:rgb(0,0,0);stroke-width:.00002" />
    <line x1="106.7960295" y1="-6.532687" x2="106.7960295" y2="-6.532687" style="stroke:rgb(0,0,0);stroke-width:.00002" />
    <line x1="106.7960295" y1="-6.532687" x2="106.796126" y2="-6.531504" style="stroke:rgb(0,0,0);stroke-width:.00002" />
    <circle cx="106.795933" cy="-6.53387" fill="rgb(255,0,0)" r=".0001" />
    <text x="106.795933" y="-6.53387" stroke="rgb(0,0,0)" transform="translate(106.795933 -6.53387),scale(0.00001 -0.00001),translate(-106.795933 6.53387),translate(106.8125 -6.592499999999999),rotate(-30),translate(-106.8125 6.592499999999999)" >kencana-corner-kalimurni</text>
    <line x1="106.796126" y1="-6.531504" x2="106.796491" y2="-6.531461" style="stroke:rgb(255,0,0);stroke-width:.00002" />
    <line x1="106.796126" y1="-6.531504" x2="106.79630850000001" y2="-6.5314825" style="stroke:rgb(0,0,0);stroke-width:.00002" />
    <line x1="106.79630850000001" y1="-6.5314825" x2="106.79630850000001" y2="-6.5314825" style="stroke:rgb(0,0,0);stroke-width:.00002" />
    <line x1="106.79630850000001" y1="-6.5314825" x2="106.796491" y2="-6.531461" style="stroke:rgb(0,0,0);stroke-width:.00002" />
    <circle cx="106.796126" cy="-6.531504" fill="rgb(255,0,0)" r=".0001" />
    <text x="106.796126" y="-6.531504" stroke="rgb(0,0,0)" transform="translate(106.796126 -6.531504),scale(0.00001 -0.00001),translate(-106.796126 6.531504),translate(106.8125 -6.592499999999999),rotate(-30),translate(-106.8125 6.592499999999999)" >kalimurni-1-right</text>
    <line x1="106.796491" y1="-6.531461" x2="106.796598" y2="-6.530971" style="stroke:rgb(255,0,0);stroke-width:.00002" />
    <line x1="106.796491" y1="-6.531461" x2="106.79654450000001" y2="-6.531216000000001" style="stroke:rgb(0,0,0);stroke-width:.00002" />
    <line x1="106.79654450000001" y1="-6.531216000000001" x2="106.79654450000001" y2="-6.531216000000001" style="stroke:rgb(0,0,0);stroke-width:.00002" />
    <line x1="106.79654450000001" y1="-6.531216000000001" x2="106.796598" y2="-6.530971" style="stroke:rgb(0,0,0);stroke-width:.00002" />
    <circle cx="106.796491" cy="-6.531461" fill="rgb(255,0,0)" r=".0001" />
    <text x="106.796491" y="-6.531461" stroke="rgb(0,0,0)" transform="translate(106.796491 -6.531461),scale(0.00001 -0.00001),translate(-106.796491 6.531461),translate(106.8125 -6.592499999999999),rotate(-30),translate(-106.8125 6.592499999999999)" >kalimurni-2-left</text>
    <line x1="106.796598" y1="-6.530971" x2="106.800305" y2="-6.530774" style="stroke:rgb(255,0,0);stroke-width:.00002" />
    <line x1="106.796598" y1="-6.530971" x2="106.7984515" y2="-6.5308725" style="stroke:rgb(0,0,0);stroke-width:.00002" />
    <line x1="106.7984515" y1="-6.5308725" x2="106.7984515" y2="-6.5308725" style="stroke:rgb(0,0,0);stroke-width:.00002" />
    <line x1="106.7984515" y1="-6.5308725" x2="106.800305" y2="-6.530774" style="stroke:rgb(0,0,0);stroke-width:.00002" />
    <circle cx="106.796598" cy="-6.530971" fill="rgb(255,0,0)" r=".0001" />
    <text x="106.796598" y="-6.530971" stroke="rgb(0,0,0)" transform="translate(106.796598 -6.530971),scale(0.00001 -0.00001),translate(-106.796598 6.530971),translate(106.8125 -6.592499999999999),rotate(-30),translate(-106.8125 6.592499999999999)" >kalimurni-pendidikan</text>
    <line x1="106.800305" y1="-6.530774" x2="106.796598" y2="-6.530971" style="stroke:rgb(255,0,0);stroke-width:.00002" />
    <line x1="106.800305" y1="-6.530774" x2="106.7984515" y2="-6.5308725" style="stroke:rgb(0,0,0);stroke-width:.00002" />
    <line x1="106.7984515" y1="-6.5308725" x2="106.7984515" y2="-6.5308725" style="stroke:rgb(0,0,0);stroke-width:.00002" />
    <line x1="106.7984515" y1="-6.5308725" x2="106.796598" y2="-6.530971" style="stroke:rgb(0,0,0);stroke-width:.00002" />
    <circle cx="106.800305" cy="-6.530774" fill="rgb(255,0,0)" r=".0001" />
    <text x="106.800305" y="-6.530774" stroke="rgb(0,0,0)" transform="translate(106.800305 -6.530774),scale(0.00001 -0.00001),translate(-106.800305 6.530774),translate(106.8125 -6.592499999999999),rotate(-30),translate(-106.8125 6.592499999999999)" >pendidikan-cilebut</text>
    <line x1="106.796598" y1="-6.530971" x2="106.796491" y2="-6.531461" style="stroke:rgb(255,0,0);stroke-width:.00002" />
    <line x1="106.796598" y1="-6.530971" x2="106.79654450000001" y2="-6.531216000000001" style="stroke:rgb(0,0,0);stroke-width:.00002" />
    <line x1="106.79654450000001" y1="-6.531216000000001" x2="106.79654450000001" y2="-6.531216000000001" style="stroke:rgb(0,0,0);stroke-width:.00002" />
    <line x1="106.79654450000001" y1="-6.531216000000001" x2="106.796491" y2="-6.531461" style="stroke:rgb(0,0,0);stroke-width:.00002" />
    <circle cx="106.796598" cy="-6.530971" fill="rgb(255,0,0)" r=".0001" />
    <text x="106.796598" y="-6.530971" stroke="rgb(0,0,0)" transform="translate(106.796598 -6.530971),scale(0.00001 -0.00001),translate(-106.796598 6.530971),translate(106.8125 -6.592499999999999),rotate(-30),translate(-106.8125 6.592499999999999)" >kalimurni-pendidikan</text>
    <line x1="106.796491" y1="-6.531461" x2="106.796126" y2="-6.531504" style="stroke:rgb(255,0,0);stroke-width:.00002" />
    <line x1="106.796491" y1="-6.531461" x2="106.79630850000001" y2="-6.5314825" style="stroke:rgb(0,0,0);stroke-width:.00002" />
    <line x1="106.79630850000001" y1="-6.5314825" x2="106.79630850000001" y2="-6.5314825" style="stroke:rgb(0,0,0);stroke-width:.00002" />
    <line x1="106.79630850000001" y1="-6.5314825" x2="106.796126" y2="-6.531504" style="stroke:rgb(0,0,0);stroke-width:.00002" />
    <circle cx="106.796491" cy="-6.531461" fill="rgb(255,0,0)" r=".0001" />
    <text x="106.796491" y="-6.531461" stroke="rgb(0,0,0)" transform="translate(106.796491 -6.531461),scale(0.00001 -0.00001),translate(-106.796491 6.531461),translate(106.8125 -6.592499999999999),rotate(-30),translate(-106.8125 6.592499999999999)" >kalimurni-2-left</text>
    <line x1="106.796126" y1="-6.531504" x2="106.795933" y2="-6.53387" style="stroke:rgb(255,0,0);stroke-width:.00002" />
    <line x1="106.796126" y1="-6.531504" x2="106.7960295" y2="-6.532687" style="stroke:rgb(0,0,0);stroke-width:.00002" />
    <line x1="106.7960295" y1="-6.532687" x2="106.7960295" y2="-6.532687" style="stroke:rgb(0,0,0);stroke-width:.00002" />
    <line x1="106.7960295" y1="-6.532687" x2="106.795933" y2="-6.53387" style="stroke:rgb(0,0,0);stroke-width:.00002" />
    <circle cx="106.796126" cy="-6.531504" fill="rgb(255,0,0)" r=".0001" />
    <text x="106.796126" y="-6.531504" stroke="rgb(0,0,0)" transform="translate(106.796126 -6.531504),scale(0.00001 -0.00001),translate(-106.796126 6.531504),translate(106.8125 -6.592499999999999),rotate(-30),translate(-106.8125 6.592499999999999)" >kalimurni-1-right</text>
    <line x1="106.795933" y1="-6.53387" x2="106.790226" y2="-6.533593" style="stroke:rgb(255,0,0);stroke-width:.00002" />
    <line x1="106.795933" y1="-6.53387" x2="106.7930795" y2="-6.5337315" style="stroke:rgb(0,0,0);stroke-width:.00002" />
    <line x1="106.7930795" y1="-6.5337315" x2="106.7930795" y2="-6.5337315" style="stroke:rgb(0,0,0);stroke-width:.00002" />
    <line x1="106.7930795" y1="-6.5337315" x2="106.790226" y2="-6.533593" style="stroke:rgb(0,0,0);stroke-width:.00002" />
    <circle cx="106.795933" cy="-6.53387" fill="rgb(255,0,0)" r=".0001" />
    <text x="106.795933" y="-6.53387" stroke="rgb(0,0,0)" transform="translate(106.795933 -6.53387),scale(0.00001 -0.00001),translate(-106.795933 6.53387),translate(106.8125 -6.592499999999999),rotate(-30),translate(-106.8125 6.592499999999999)" >kencana-corner-kalimurni</text>
    <line x1="106.790226" y1="-6.533593" x2="106.789281" y2="-6.534467" style="stroke:rgb(255,0,0);stroke-width:.00002" />
    <line x1="106.790226" y1="-6.533593" x2="106.7897535" y2="-6.53403" style="stroke:rgb(0,0,0);stroke-width:.00002" />
    <line x1="106.7897535" y1="-6.53403" x2="106.7897535" y2="-6.53403" style="stroke:rgb(0,0,0);stroke-width:.00002" />
    <line x1="106.7897535" y1="-6.53403" x2="106.789281" y2="-6.534467" style="stroke:rgb(0,0,0);stroke-width:.00002" />
    <circle cx="106.790226" cy="-6.533593" fill="rgb(255,0,0)" r=".0001" />
    <text x="106.790226" y="-6.533593" stroke="rgb(0,0,0)" transform="translate(106.790226 -6.533593),scale(0.00001 -0.00001),translate(-106.790226 6.533593),translate(106.8125 -6.592499999999999),rotate(-30),translate(-106.8125 6.592499999999999)" >kencana-6-right</text>
    <line x1="106.789281" y1="-6.534467" x2="106.782608" y2="-6.534382" style="stroke:rgb(255,0,0);stroke-width:.00002" />
    <line x1="106.789281" y1="-6.534467" x2="106.7859445" y2="-6.5344245" style="stroke:rgb(0,0,0);stroke-width:.00002" />
    <line x1="106.7859445" y1="-6.5344245" x2="106.7859445" y2="-6.5344245" style="stroke:rgb(0,0,0);stroke-width:.00002" />
    <line x1="106.7859445" y1="-6.5344245" x2="106.782608" y2="-6.534382" style="stroke:rgb(0,0,0);stroke-width:.00002" />
    <circle cx="106.789281" cy="-6.534467" fill="rgb(255,0,0)" r=".0001" />
    <text x="106.789281" y="-6.534467" stroke="rgb(0,0,0)" transform="translate(106.789281 -6.534467),scale(0.00001 -0.00001),translate(-106.789281 6.534467),translate(106.8125 -6.592499999999999),rotate(-30),translate(-106.8125 6.592499999999999)" >kencana-5-left</text>
    <line x1="106.782608" y1="-6.534382" x2="106.776514" y2="-6.534595" style="stroke:rgb(255,0,0);stroke-width:.00002" />
    <line x1="106.782608" y1="-6.534382" x2="106.779561" y2="-6.5344885" style="stroke:rgb(0,0,0);stroke-width:.00002" />
    <line x1="106.779561" y1="-6.5344885" x2="106.779561" y2="-6.5344885" style="stroke:rgb(0,0,0);stroke-width:.00002" />
    <line x1="106.779561" y1="-6.5344885" x2="106.776514" y2="-6.534595" style="stroke:rgb(0,0,0);stroke-width:.00002" />
    <circle cx="106.782608" cy="-6.534382" fill="rgb(255,0,0)" r=".0001" />
    <text x="106.782608" y="-6.534382" stroke="rgb(0,0,0)" transform="translate(106.782608 -6.534382),scale(0.00001 -0.00001),translate(-106.782608 6.534382),translate(106.8125 -6.592499999999999),rotate(-30),translate(-106.8125 6.592499999999999)" >kencana-4-setapak</text>
    <line x1="106.776514" y1="-6.534595" x2="106.772963" y2="-6.536354" style="stroke:rgb(255,0,0);stroke-width:.00002" />
    <line x1="106.776514" y1="-6.534595" x2="106.77473850000001" y2="-6.5354745" style="stroke:rgb(0,0,0);stroke-width:.00002" />
    <line x1="106.77473850000001" y1="-6.5354745" x2="106.77473850000001" y2="-6.5354745" style="stroke:rgb(0,0,0);stroke-width:.00002" />
    <line x1="106.77473850000001" y1="-6.5354745" x2="106.772963" y2="-6.536354" style="stroke:rgb(0,0,0);stroke-width:.00002" />
    <circle cx="106.776514" cy="-6.534595" fill="rgb(255,0,0)" r=".0001" />
    <text x="106.776514" y="-6.534595" stroke="rgb(0,0,0)" transform="translate(106.776514 -6.534595),scale(0.00001 -0.00001),translate(-106.776514 6.534595),translate(106.8125 -6.592499999999999),rotate(-30),translate(-106.8125 6.592499999999999)" >kencana-3-over-river</text>
    <line x1="106.772963" y1="-6.536354" x2="106.771761" y2="-6.536056" style="stroke:rgb(255,0,0);stroke-width:.00002" />
    <line x1="106.772963" y1="-6.536354" x2="106.772362" y2="-6.536205000000001" style="stroke:rgb(0,0,0);stroke-width:.00002" />
    <line x1="106.772362" y1="-6.536205000000001" x2="106.772362" y2="-6.536205000000001" style="stroke:rgb(0,0,0);stroke-width:.00002" />
    <line x1="106.772362" y1="-6.536205000000001" x2="106.771761" y2="-6.536056" style="stroke:rgb(0,0,0);stroke-width:.00002" />
    <circle cx="106.772963" cy="-6.536354" fill="rgb(255,0,0)" r=".0001" />
    <text x="106.772963" y="-6.536354" stroke="rgb(0,0,0)" transform="translate(106.772963 -6.536354),scale(0.00001 -0.00001),translate(-106.772963 6.536354),translate(106.8125 -6.592499999999999),rotate(-30),translate(-106.8125 6.592499999999999)" >kencana-2-bend-left</text>
    <line x1="106.771761" y1="-6.536056" x2="106.769948" y2="-6.537281" style="stroke:rgb(255,0,0);stroke-width:.00002" />
    <line x1="106.771761" y1="-6.536056" x2="106.7708545" y2="-6.5366685" style="stroke:rgb(0,0,0);stroke-width:.00002" />
    <line x1="106.7708545" y1="-6.5366685" x2="106.7708545" y2="-6.5366685" style="stroke:rgb(0,0,0);stroke-width:.00002" />
    <line x1="106.7708545" y1="-6.5366685" x2="106.769948" y2="-6.537281" style="stroke:rgb(0,0,0);stroke-width:.00002" />
    <circle cx="106.771761" cy="-6.536056" fill="rgb(255,0,0)" r=".0001" />
    <text x="106.771761" y="-6.536056" stroke="rgb(0,0,0)" transform="translate(106.771761 -6.536056),scale(0.00001 -0.00001),translate(-106.771761 6.536056),translate(106.8125 -6.592499999999999),rotate(-30),translate(-106.8125 6.592499999999999)" >kencana-1-bend-right</text>
    <line x1="106.769948" y1="-6.537281" x2="106.776396" y2="-6.55408" style="stroke:rgb(255,0,0);stroke-width:.00002" />
    <line x1="106.769948" y1="-6.537281" x2="106.77310033156307" y2="-6.545493781936737" style="stroke:rgb(0,0,0);stroke-width:.00002" />
    <line x1="106.77310033156307" y1="-6.545493781936737" x2="106.77324366843693" y2="-6.545867218063262" style="stroke:rgb(0,0,0);stroke-width:.00002" />
    <line x1="106.77324366843693" y1="-6.545867218063262" x2="106.776396" y2="-6.55408" style="stroke:rgb(0,0,0);stroke-width:.00002" />
    <circle cx="106.769948" cy="-6.537281" fill="rgb(255,0,0)" r=".0001" />
    <text x="106.769948" y="-6.537281" stroke="rgb(0,0,0)" transform="translate(106.769948 -6.537281),scale(0.00001 -0.00001),translate(-106.769948 6.537281),translate(106.8125 -6.592499999999999),rotate(-30),translate(-106.8125 6.592499999999999)" >iskandar-kencana</text>
    <line x1="106.776396" y1="-6.55408" x2="106.778477" y2="-6.556041" style="stroke:rgb(255,0,0);stroke-width:.00002" />
    <line x1="106.776396" y1="-6.55408" x2="106.77729094421974" y2="-6.554923337633313" style="stroke:rgb(0,0,0);stroke-width:.00002" />
    <line x1="106.77729094421974" y1="-6.554923337633313" x2="106.77758205578024" y2="-6.5551976623666866" style="stroke:rgb(0,0,0);stroke-width:.00002" />
    <line x1="106.77758205578024" y1="-6.5551976623666866" x2="106.778477" y2="-6.556041" style="stroke:rgb(0,0,0);stroke-width:.00002" />
    <circle cx="106.776396" cy="-6.55408" fill="rgb(255,0,0)" r=".0001" />
    <text x="106.776396" y="-6.55408" stroke="rgb(0,0,0)" transform="translate(106.776396 -6.55408),scale(0.00001 -0.00001),translate(-106.776396 6.55408),translate(106.8125 -6.592499999999999),rotate(-30),translate(-106.8125 6.592499999999999)" >iskandar-bendright</text>
    <line x1="106.778477" y1="-6.556041" x2="106.770624" y2="-6.557864" style="stroke:rgb(255,0,0);stroke-width:.00002" />
    <line x1="106.778477" y1="-6.556041" x2="106.7745505" y2="-6.5569524999999995" style="stroke:rgb(0,0,0);stroke-width:.00002" />
    <line x1="106.7745505" y1="-6.5569524999999995" x2="106.7745505" y2="-6.5569524999999995" style="stroke:rgb(0,0,0);stroke-width:.00002" />
    <line x1="106.7745505" y1="-6.5569524999999995" x2="106.770624" y2="-6.557864" style="stroke:rgb(0,0,0);stroke-width:.00002" />
    <circle cx="106.778477" cy="-6.556041" fill="rgb(255,0,0)" r=".0001" />
    <text x="106.778477" y="-6.556041" stroke="rgb(0,0,0)" transform="translate(106.778477 -6.556041),scale(0.00001 -0.00001),translate(-106.778477 6.556041),translate(106.8125 -6.592499999999999),rotate(-30),translate(-106.8125 6.592499999999999)" >iskandar-ciampea-Y</text>
    <line x1="106.770624" y1="-6.557864" x2="106.759895" y2="-6.568074" style="stroke:rgb(255,0,0);stroke-width:.00002" />
    <line x1="106.770624" y1="-6.557864" x2="106.7652595" y2="-6.562969000000001" style="stroke:rgb(0,0,0);stroke-width:.00002" />
    <line x1="106.7652595" y1="-6.562969000000001" x2="106.7652595" y2="-6.562969000000001" style="stroke:rgb(0,0,0);stroke-width:.00002" />
    <line x1="106.7652595" y1="-6.562969000000001" x2="106.759895" y2="-6.568074" style="stroke:rgb(0,0,0);stroke-width:.00002" />
    <circle cx="106.770624" cy="-6.557864" fill="rgb(255,0,0)" r=".0001" />
    <text x="106.770624" y="-6.557864" stroke="rgb(0,0,0)" transform="translate(106.770624 -6.557864),scale(0.00001 -0.00001),translate(-106.770624 6.557864),translate(106.8125 -6.592499999999999),rotate(-30),translate(-106.8125 6.592499999999999)" >ciampea-towards-iskandar</text>
    <line x1="106.759895" y1="-6.568074" x2="106.756194" y2="-6.570302" style="stroke:rgb(255,0,0);stroke-width:.00002" />
    <line x1="106.759895" y1="-6.568074" x2="106.7580445" y2="-6.5691880000000005" style="stroke:rgb(0,0,0);stroke-width:.00002" />
    <line x1="106.7580445" y1="-6.5691880000000005" x2="106.7580445" y2="-6.5691880000000005" style="stroke:rgb(0,0,0);stroke-width:.00002" />
    <line x1="106.7580445" y1="-6.5691880000000005" x2="106.756194" y2="-6.570302" style="stroke:rgb(0,0,0);stroke-width:.00002" />
    <circle cx="106.759895" cy="-6.568074" fill="rgb(255,0,0)" r=".0001" />
    <text x="106.759895" y="-6.568074" stroke="rgb(0,0,0)" transform="translate(106.759895 -6.568074),scale(0.00001 -0.00001),translate(-106.759895 6.568074),translate(106.8125 -6.592499999999999),rotate(-30),translate(-106.8125 6.592499999999999)" >ciampea-before-river</text>
    <line x1="106.756194" y1="-6.570302" x2="106.755373" y2="-6.571011" style="stroke:rgb(255,0,0);stroke-width:.00002" />
    <line x1="106.756194" y1="-6.570302" x2="106.7557835" y2="-6.5706565" style="stroke:rgb(0,0,0);stroke-width:.00002" />
    <line x1="106.7557835" y1="-6.5706565" x2="106.7557835" y2="-6.5706565" style="stroke:rgb(0,0,0);stroke-width:.00002" />
    <line x1="106.7557835" y1="-6.5706565" x2="106.755373" y2="-6.571011" style="stroke:rgb(0,0,0);stroke-width:.00002" />
    <circle cx="106.756194" cy="-6.570302" fill="rgb(255,0,0)" r=".0001" />
    <text x="106.756194" y="-6.570302" stroke="rgb(0,0,0)" transform="translate(106.756194 -6.570302),scale(0.00001 -0.00001),translate(-106.756194 6.570302),translate(106.8125 -6.592499999999999),rotate(-30),translate(-106.8125 6.592499999999999)" >cifor-ciampea</text>
    <line x1="106.755373" y1="-6.571011" x2="106.754987" y2="-6.56906" style="stroke:rgb(255,0,0);stroke-width:.00002" />
    <line x1="106.755373" y1="-6.571011" x2="106.75518" y2="-6.5700355" style="stroke:rgb(0,0,0);stroke-width:.00002" />
    <line x1="106.75518" y1="-6.5700355" x2="106.75518" y2="-6.5700355" style="stroke:rgb(0,0,0);stroke-width:.00002" />
    <line x1="106.75518" y1="-6.5700355" x2="106.754987" y2="-6.56906" style="stroke:rgb(0,0,0);stroke-width:.00002" />
    <circle cx="106.755373" cy="-6.571011" fill="rgb(255,0,0)" r=".0001" />
    <text x="106.755373" y="-6.571011" stroke="rgb(0,0,0)" transform="translate(106.755373 -6.571011),scale(0.00001 -0.00001),translate(-106.755373 6.571011),translate(106.8125 -6.592499999999999),rotate(-30),translate(-106.8125 6.592499999999999)" >bubulak</text>
  </g>
</svg>
