<svg width="1450.0000000001023" height="1550.0000000000025" xmlns="http://www.w3.org/2000/svg" xmlns:xlink="http://www.w3.org/1999/xlink" >
  <g transform="translate(725.0000000000512 775.0000000000013) rotate(0) scale(10000 -10000) translate(-106.7975 6.592499999999999)">
    <path d="M106.725 -6.515 L106.87 -6.515 L106.87 -6.67 L106.725 -6.67 Z" fill="none" stroke="black" stroke-width="0.0005" transform="translate(106.7975 -6.592499999999999) rotate(0) translate(-106.7975 6.592499999999999)" />
    <path d="M106.75550282616712 -6.569679345822632 L106.75560739434961 -6.569718912161958 L106.756117411403 -6.570271430636459 L106.75785474232163 -6.5691914681735275 L106.75796606756019 -6.5691811390276795 L106.7597693283235 -6.568060193147792 L106.76516566882334 -6.5629636493423735 L106.76516566882334 -6.5629636493423735 L106.7705755344535 -6.557854331802795 L106.77448875702467 -6.556951280440216 L106.77448875702467 -6.556951280440216 L106.77829827013231 -6.556072162030762 L106.77735172413794 -6.5551706896551725 L106.77724482758622 -6.555137931034482 L106.77621462053162 -6.554156781458691 L106.7730065512265 -6.545735599532759 L106.7730065512265 -6.545735599532759 L106.76981030884026 -6.53734546326886 L106.76871604298428 -6.535654325127816 L106.76871604298428 -6.535654325127816 L106.7677 -6.5339 L106.76888395701572 -6.535545674872185 L106.76888395701572 -6.535545674872185 L106.7699288826112 -6.537160559883363 L106.77070292746568 -6.536644529980378 L106.77081386750491 -6.5366306624754715 L106.77169066868989 -6.536046128352152 L106.77231212678126 -6.536201492874993 L106.77231212678126 -6.536201492874993 L106.77289418282786 -6.53634700688664 L106.77467763932022 -6.535455278640451 L106.77467763932022 -6.535455278640451 L106.77648742579784 -6.534550385401646 L106.77954836153616 -6.534450026852848 L106.77954836153616 -6.534450026852848 L106.78259955925945 -6.534349987583232 L106.78590075748882 -6.534400005738222 L106.78590075748882 -6.534400005738222 L106.78918113713296 -6.534449708460103 L106.78966655176342 -6.534012835292688 L106.78966655176342 -6.534012835292688 L106.79018194588923 -6.533548980579458 L106.79305262794165 -6.533700069108533 L106.79305262794165 -6.533700069108533 L106.79585437397867 -6.533847529426271 L106.79595018797058 -6.532745668519182 L106.79595018797058 -6.532745668519182 L106.79605303296792 -6.531562951049689 L106.7962341886117 -6.531502565835098 L106.7962341886117 -6.531502565835098 L106.79635666149686 -6.53146174154005 L106.7964009709662 -6.531240194193244 L106.7964009709662 -6.531240194193244 L106.79645858772703 -6.530952110389128 L106.79839737205833 -6.530850069108533 L106.79839737205833 -6.530850069108533 L106.8003 -6.5308 L106.79840262794164 -6.530949930891467 L106.79840262794164 -6.530949930891467 L106.79654141227296 -6.531047889610871 L106.79649902903378 -6.531259805806756 L106.79649902903378 -6.531259805806756 L106.79644333850315 -6.531538258459953 L106.7962658113883 -6.531597434164903 L106.7962658113883 -6.531597434164903 L106.79614696703206 -6.5316370489503095 L106.79604981202941 -6.5327543314808185 L106.79604981202941 -6.5327543314808185 L106.79594562602134 -6.5339524705737295 L106.79304737205834 -6.533799930891466 L106.79304737205834 -6.533799930891466 L106.79021805411077 -6.5336510194205415 L106.78973344823657 -6.534087164707313 L106.78973344823657 -6.534087164707313 L106.78921886286703 -6.534550291539897 L106.78589924251118 -6.534499994261777 L106.78589924251118 -6.534499994261777 L106.78260044074055 -6.534450012416768 L106.77955163846384 -6.5345499731471515 L106.77955163846384 -6.5345499731471515 L106.77651257420217 -6.534649614598354 L106.77472236067977 -6.535544721359551 L106.77472236067977 -6.535544721359551 L106.77290581717216 -6.536452993113361 L106.77228787321874 -6.536298507125008 L106.77228787321874 -6.536298507125008 L106.7717093313101 -6.53615387164785 L106.77082773500982 -6.5367416025147165 L106.77082773500982 -6.5367416025147165 L106.7699609246996 -6.537319476054855 L106.77312892462037 -6.545635475846874 L106.77321124853988 -6.545711124853987 L106.77638537946838 -6.554043218541307 L106.7773827586207 -6.554993103448275 L106.77742068965519 -6.555098275862068 L106.77850172986771 -6.556127837969237 L106.77451124297534 -6.557048719559785 L106.77451124297534 -6.557048719559785 L106.7706244655465 -6.557945668197206 L106.76523433117664 -6.563036350657628 L106.76523433117664 -6.563036350657628 L106.75983067167651 -6.568139806852196 L106.75797639670606 -6.5692924642662645 L106.75797639670606 -6.5692924642662645 L106.75612985804034 -6.570440312626048 L106.7557329252304 -6.5707876288347355 L106.7557329252304 -6.5707876288347355 L106.755267912755 -6.571194514750709 L106.75505097096621 -6.570109805806757 L106.75505097096621 -6.570109805806757 L106.75481608506364 -6.568935376293881 Z" stroke="darkgreen" stroke-width="0.0001" fill="none" />
    <circle 
      cx="106.7561" cy="-12.5704"
      r="15" transform="translate(106.7561 -6.5704) scale(0.00001 -0.00001) translate(-106.7561 6.5704) translate(106.7975 -6.592499999999999) rotate(0) translate(-106.7975 6.592499999999999)"
      fill="white" stroke="black" stroke-width="2"/>
    <circle 
      cx="106.7598" cy="-12.568100000000001"
      r="15" transform="translate(106.7598 -6.5681) scale(0.00001 -0.00001) translate(-106.7598 6.5681) translate(106.7975 -6.592499999999999) rotate(0) translate(-106.7975 6.592499999999999)"
      fill="white" stroke="black" stroke-width="2"/>
    <circle 
      cx="106.7706" cy="-12.5579"
      r="15" transform="translate(106.7706 -6.5579) scale(0.00001 -0.00001) translate(-106.7706 6.5579) translate(106.7975 -6.592499999999999) rotate(0) translate(-106.7975 6.592499999999999)"
      fill="white" stroke="black" stroke-width="2"/>
    <circle 
      cx="106.7784" cy="-12.5561"
      r="15" transform="translate(106.7784 -6.5561) scale(0.00001 -0.00001) translate(-106.7784 6.5561) translate(106.7975 -6.592499999999999) rotate(0) translate(-106.7975 6.592499999999999)"
      fill="white" stroke="black" stroke-width="2"/>
    <circle 
      cx="106.7763" cy="-12.5541"
      r="15" transform="translate(106.7763 -6.5541) scale(0.00001 -0.00001) translate(-106.7763 6.5541) translate(106.7975 -6.592499999999999) rotate(0) translate(-106.7975 6.592499999999999)"
      fill="white" stroke="black" stroke-width="2"/>
    <circle 
      cx="106.7699" cy="-12.5373"
      r="15" transform="translate(106.7699 -6.5373) scale(0.00001 -0.00001) translate(-106.7699 6.5373) translate(106.7975 -6.592499999999999) rotate(0) translate(-106.7975 6.592499999999999)"
      fill="white" stroke="black" stroke-width="2"/>
    <circle 
      cx="106.7677" cy="-12.5339"
      r="15" transform="translate(106.7677 -6.5339) scale(0.00001 -0.00001) translate(-106.7677 6.5339) translate(106.7975 -6.592499999999999) rotate(0) translate(-106.7975 6.592499999999999)"
      fill="white" stroke="black" stroke-width="2"/>
    <circle 
      cx="106.7699" cy="-12.5373"
      r="15" transform="translate(106.7699 -6.5373) scale(0.00001 -0.00001) translate(-106.7699 6.5373) translate(106.7975 -6.592499999999999) rotate(0) translate(-106.7975 6.592499999999999)"
      fill="white" stroke="black" stroke-width="2"/>
    <circle 
      cx="106.7717" cy="-12.536100000000001"
      r="15" transform="translate(106.7717 -6.5361) scale(0.00001 -0.00001) translate(-106.7717 6.5361) translate(106.7975 -6.592499999999999) rotate(0) translate(-106.7975 6.592499999999999)"
      fill="white" stroke="black" stroke-width="2"/>
    <circle 
      cx="106.7729" cy="-12.5364"
      r="15" transform="translate(106.7729 -6.5364) scale(0.00001 -0.00001) translate(-106.7729 6.5364) translate(106.7975 -6.592499999999999) rotate(0) translate(-106.7975 6.592499999999999)"
      fill="white" stroke="black" stroke-width="2"/>
    <circle 
      cx="106.7765" cy="-12.534600000000001"
      r="15" transform="translate(106.7765 -6.5346) scale(0.00001 -0.00001) translate(-106.7765 6.5346) translate(106.7975 -6.592499999999999) rotate(0) translate(-106.7975 6.592499999999999)"
      fill="white" stroke="black" stroke-width="2"/>
    <circle 
      cx="106.7826" cy="-12.5344"
      r="15" transform="translate(106.7826 -6.5344) scale(0.00001 -0.00001) translate(-106.7826 6.5344) translate(106.7975 -6.592499999999999) rotate(0) translate(-106.7975 6.592499999999999)"
      fill="white" stroke="black" stroke-width="2"/>
    <circle 
      cx="106.7892" cy="-12.534500000000001"
      r="15" transform="translate(106.7892 -6.5345) scale(0.00001 -0.00001) translate(-106.7892 6.5345) translate(106.7975 -6.592499999999999) rotate(0) translate(-106.7975 6.592499999999999)"
      fill="white" stroke="black" stroke-width="2"/>
    <circle 
      cx="106.7902" cy="-12.5336"
      r="15" transform="translate(106.7902 -6.5336) scale(0.00001 -0.00001) translate(-106.7902 6.5336) translate(106.7975 -6.592499999999999) rotate(0) translate(-106.7975 6.592499999999999)"
      fill="white" stroke="black" stroke-width="2"/>
    <circle 
      cx="106.7959" cy="-12.5339"
      r="15" transform="translate(106.7959 -6.5339) scale(0.00001 -0.00001) translate(-106.7959 6.5339) translate(106.7975 -6.592499999999999) rotate(0) translate(-106.7975 6.592499999999999)"
      fill="white" stroke="black" stroke-width="2"/>
    <circle 
      cx="106.7961" cy="-12.531600000000001"
      r="15" transform="translate(106.7961 -6.5316) scale(0.00001 -0.00001) translate(-106.7961 6.5316) translate(106.7975 -6.592499999999999) rotate(0) translate(-106.7975 6.592499999999999)"
      fill="white" stroke="black" stroke-width="2"/>
    <circle 
      cx="106.7964" cy="-12.531500000000001"
      r="15" transform="translate(106.7964 -6.5315) scale(0.00001 -0.00001) translate(-106.7964 6.5315) translate(106.7975 -6.592499999999999) rotate(0) translate(-106.7975 6.592499999999999)"
      fill="white" stroke="black" stroke-width="2"/>
    <circle 
      cx="106.7965" cy="-12.530999999999999"
      r="15" transform="translate(106.7965 -6.531) scale(0.00001 -0.00001) translate(-106.7965 6.531) translate(106.7975 -6.592499999999999) rotate(0) translate(-106.7975 6.592499999999999)"
      fill="white" stroke="black" stroke-width="2"/>
    <circle 
      cx="106.8003" cy="-12.5308"
      r="15" transform="translate(106.8003 -6.5308) scale(0.00001 -0.00001) translate(-106.8003 6.5308) translate(106.7975 -6.592499999999999) rotate(0) translate(-106.7975 6.592499999999999)"
      fill="white" stroke="black" stroke-width="2"/>
    <circle 
      cx="106.7965" cy="-12.530999999999999"
      r="15" transform="translate(106.7965 -6.531) scale(0.00001 -0.00001) translate(-106.7965 6.531) translate(106.7975 -6.592499999999999) rotate(0) translate(-106.7975 6.592499999999999)"
      fill="white" stroke="black" stroke-width="2"/>
    <circle 
      cx="106.7964" cy="-12.531500000000001"
      r="15" transform="translate(106.7964 -6.5315) scale(0.00001 -0.00001) translate(-106.7964 6.5315) translate(106.7975 -6.592499999999999) rotate(0) translate(-106.7975 6.592499999999999)"
      fill="white" stroke="black" stroke-width="2"/>
    <circle 
      cx="106.7961" cy="-12.531600000000001"
      r="15" transform="translate(106.7961 -6.5316) scale(0.00001 -0.00001) translate(-106.7961 6.5316) translate(106.7975 -6.592499999999999) rotate(0) translate(-106.7975 6.592499999999999)"
      fill="white" stroke="black" stroke-width="2"/>
    <circle 
      cx="106.7959" cy="-12.5339"
      r="15" transform="translate(106.7959 -6.5339) scale(0.00001 -0.00001) translate(-106.7959 6.5339) translate(106.7975 -6.592499999999999) rotate(0) translate(-106.7975 6.592499999999999)"
      fill="white" stroke="black" stroke-width="2"/>
    <circle 
      cx="106.7902" cy="-12.5336"
      r="15" transform="translate(106.7902 -6.5336) scale(0.00001 -0.00001) translate(-106.7902 6.5336) translate(106.7975 -6.592499999999999) rotate(0) translate(-106.7975 6.592499999999999)"
      fill="white" stroke="black" stroke-width="2"/>
    <circle 
      cx="106.7892" cy="-12.534500000000001"
      r="15" transform="translate(106.7892 -6.5345) scale(0.00001 -0.00001) translate(-106.7892 6.5345) translate(106.7975 -6.592499999999999) rotate(0) translate(-106.7975 6.592499999999999)"
      fill="white" stroke="black" stroke-width="2"/>
    <circle 
      cx="106.7826" cy="-12.5344"
      r="15" transform="translate(106.7826 -6.5344) scale(0.00001 -0.00001) translate(-106.7826 6.5344) translate(106.7975 -6.592499999999999) rotate(0) translate(-106.7975 6.592499999999999)"
      fill="white" stroke="black" stroke-width="2"/>
    <circle 
      cx="106.7765" cy="-12.534600000000001"
      r="15" transform="translate(106.7765 -6.5346) scale(0.00001 -0.00001) translate(-106.7765 6.5346) translate(106.7975 -6.592499999999999) rotate(0) translate(-106.7975 6.592499999999999)"
      fill="white" stroke="black" stroke-width="2"/>
    <circle 
      cx="106.7729" cy="-12.5364"
      r="15" transform="translate(106.7729 -6.5364) scale(0.00001 -0.00001) translate(-106.7729 6.5364) translate(106.7975 -6.592499999999999) rotate(0) translate(-106.7975 6.592499999999999)"
      fill="white" stroke="black" stroke-width="2"/>
    <circle 
      cx="106.7717" cy="-12.536100000000001"
      r="15" transform="translate(106.7717 -6.5361) scale(0.00001 -0.00001) translate(-106.7717 6.5361) translate(106.7975 -6.592499999999999) rotate(0) translate(-106.7975 6.592499999999999)"
      fill="white" stroke="black" stroke-width="2"/>
    <circle 
      cx="106.7699" cy="-12.5373"
      r="15" transform="translate(106.7699 -6.5373) scale(0.00001 -0.00001) translate(-106.7699 6.5373) translate(106.7975 -6.592499999999999) rotate(0) translate(-106.7975 6.592499999999999)"
      fill="white" stroke="black" stroke-width="2"/>
    <circle 
      cx="106.7763" cy="-12.5541"
      r="15" transform="translate(106.7763 -6.5541) scale(0.00001 -0.00001) translate(-106.7763 6.5541) translate(106.7975 -6.592499999999999) rotate(0) translate(-106.7975 6.592499999999999)"
      fill="white" stroke="black" stroke-width="2"/>
    <circle 
      cx="106.7784" cy="-12.5561"
      r="15" transform="translate(106.7784 -6.5561) scale(0.00001 -0.00001) translate(-106.7784 6.5561) translate(106.7975 -6.592499999999999) rotate(0) translate(-106.7975 6.592499999999999)"
      fill="white" stroke="black" stroke-width="2"/>
    <circle 
      cx="106.7706" cy="-12.5579"
      r="15" transform="translate(106.7706 -6.5579) scale(0.00001 -0.00001) translate(-106.7706 6.5579) translate(106.7975 -6.592499999999999) rotate(0) translate(-106.7975 6.592499999999999)"
      fill="white" stroke="black" stroke-width="2"/>
    <circle 
      cx="106.7598" cy="-12.568100000000001"
      r="15" transform="translate(106.7598 -6.5681) scale(0.00001 -0.00001) translate(-106.7598 6.5681) translate(106.7975 -6.592499999999999) rotate(0) translate(-106.7975 6.592499999999999)"
      fill="white" stroke="black" stroke-width="2"/>
    <circle 
      cx="106.7561" cy="-12.5704"
      r="15" transform="translate(106.7561 -6.5704) scale(0.00001 -0.00001) translate(-106.7561 6.5704) translate(106.7975 -6.592499999999999) rotate(0) translate(-106.7975 6.592499999999999)"
      fill="white" stroke="black" stroke-width="2"/>
    <circle 
      cx="106.7553" cy="-12.571100000000001"
      r="15" transform="translate(106.7553 -6.5711) scale(0.00001 -0.00001) translate(-106.7553 6.5711) translate(106.7975 -6.592499999999999) rotate(0) translate(-106.7975 6.592499999999999)"
      fill="white" stroke="black" stroke-width="2"/>
    <circle 
      cx="106.7549" cy="-12.569099999999999"
      r="15" transform="translate(106.7549 -6.5691) scale(0.00001 -0.00001) translate(-106.7549 6.5691) translate(106.7975 -6.592499999999999) rotate(0) translate(-106.7975 6.592499999999999)"
      fill="white" stroke="black" stroke-width="2"/>
    <circle 
      cx="106.7561" cy="-12.5704"
      r="15" transform="translate(106.7561 -6.5704) scale(0.00001 -0.00001) translate(-106.7561 6.5704) translate(106.7975 -6.592499999999999) rotate(0) translate(-106.7975 6.592499999999999)"
      fill="white" stroke="none"/>
    <circle 
      cx="106.7598" cy="-12.568100000000001"
      r="15" transform="translate(106.7598 -6.5681) scale(0.00001 -0.00001) translate(-106.7598 6.5681) translate(106.7975 -6.592499999999999) rotate(0) translate(-106.7975 6.592499999999999)"
      fill="white" stroke="none"/>
    <circle 
      cx="106.7706" cy="-12.5579"
      r="15" transform="translate(106.7706 -6.5579) scale(0.00001 -0.00001) translate(-106.7706 6.5579) translate(106.7975 -6.592499999999999) rotate(0) translate(-106.7975 6.592499999999999)"
      fill="white" stroke="none"/>
    <circle 
      cx="106.7784" cy="-12.5561"
      r="15" transform="translate(106.7784 -6.5561) scale(0.00001 -0.00001) translate(-106.7784 6.5561) translate(106.7975 -6.592499999999999) rotate(0) translate(-106.7975 6.592499999999999)"
      fill="white" stroke="none"/>
    <circle 
      cx="106.7763" cy="-12.5541"
      r="15" transform="translate(106.7763 -6.5541) scale(0.00001 -0.00001) translate(-106.7763 6.5541) translate(106.7975 -6.592499999999999) rotate(0) translate(-106.7975 6.592499999999999)"
      fill="white" stroke="none"/>
    <circle 
      cx="106.7699" cy="-12.5373"
      r="15" transform="translate(106.7699 -6.5373) scale(0.00001 -0.00001) translate(-106.7699 6.5373) translate(106.7975 -6.592499999999999) rotate(0) translate(-106.7975 6.592499999999999)"
      fill="white" stroke="none"/>
    <circle 
      cx="106.7677" cy="-12.5339"
      r="15" transform="translate(106.7677 -6.5339) scale(0.00001 -0.00001) translate(-106.7677 6.5339) translate(106.7975 -6.592499999999999) rotate(0) translate(-106.7975 6.592499999999999)"
      fill="white" stroke="none"/>
    <circle 
      cx="106.7699" cy="-12.5373"
      r="15" transform="translate(106.7699 -6.5373) scale(0.00001 -0.00001) translate(-106.7699 6.5373) translate(106.7975 -6.592499999999999) rotate(0) translate(-106.7975 6.592499999999999)"
      fill="white" stroke="none"/>
    <circle 
      cx="106.7717" cy="-12.536100000000001"
      r="15" transform="translate(106.7717 -6.5361) scale(0.00001 -0.00001) translate(-106.7717 6.5361) translate(106.7975 -6.592499999999999) rotate(0) translate(-106.7975 6.592499999999999)"
      fill="white" stroke="none"/>
    <circle 
      cx="106.7729" cy="-12.5364"
      r="15" transform="translate(106.7729 -6.5364) scale(0.00001 -0.00001) translate(-106.7729 6.5364) translate(106.7975 -6.592499999999999) rotate(0) translate(-106.7975 6.592499999999999)"
      fill="white" stroke="none"/>
    <circle 
      cx="106.7765" cy="-12.534600000000001"
      r="15" transform="translate(106.7765 -6.5346) scale(0.00001 -0.00001) translate(-106.7765 6.5346) translate(106.7975 -6.592499999999999) rotate(0) translate(-106.7975 6.592499999999999)"
      fill="white" stroke="none"/>
    <circle 
      cx="106.7826" cy="-12.5344"
      r="15" transform="translate(106.7826 -6.5344) scale(0.00001 -0.00001) translate(-106.7826 6.5344) translate(106.7975 -6.592499999999999) rotate(0) translate(-106.7975 6.592499999999999)"
      fill="white" stroke="none"/>
    <circle 
      cx="106.7892" cy="-12.534500000000001"
      r="15" transform="translate(106.7892 -6.5345) scale(0.00001 -0.00001) translate(-106.7892 6.5345) translate(106.7975 -6.592499999999999) rotate(0) translate(-106.7975 6.592499999999999)"
      fill="white" stroke="none"/>
    <circle 
      cx="106.7902" cy="-12.5336"
      r="15" transform="translate(106.7902 -6.5336) scale(0.00001 -0.00001) translate(-106.7902 6.5336) translate(106.7975 -6.592499999999999) rotate(0) translate(-106.7975 6.592499999999999)"
      fill="white" stroke="none"/>
    <circle 
      cx="106.7959" cy="-12.5339"
      r="15" transform="translate(106.7959 -6.5339) scale(0.00001 -0.00001) translate(-106.7959 6.5339) translate(106.7975 -6.592499999999999) rotate(0) translate(-106.7975 6.592499999999999)"
      fill="white" stroke="none"/>
    <circle 
      cx="106.7961" cy="-12.531600000000001"
      r="15" transform="translate(106.7961 -6.5316) scale(0.00001 -0.00001) translate(-106.7961 6.5316) translate(106.7975 -6.592499999999999) rotate(0) translate(-106.7975 6.592499999999999)"
      fill="white" stroke="none"/>
    <circle 
      cx="106.7964" cy="-12.531500000000001"
      r="15" transform="translate(106.7964 -6.5315) scale(0.00001 -0.00001) translate(-106.7964 6.5315) translate(106.7975 -6.592499999999999) rotate(0) translate(-106.7975 6.592499999999999)"
      fill="white" stroke="none"/>
    <circle 
      cx="106.7965" cy="-12.530999999999999"
      r="15" transform="translate(106.7965 -6.531) scale(0.00001 -0.00001) translate(-106.7965 6.531) translate(106.7975 -6.592499999999999) rotate(0) translate(-106.7975 6.592499999999999)"
      fill="white" stroke="none"/>
    <circle 
      cx="106.8003" cy="-12.5308"
      r="15" transform="translate(106.8003 -6.5308) scale(0.00001 -0.00001) translate(-106.8003 6.5308) translate(106.7975 -6.592499999999999) rotate(0) translate(-106.7975 6.592499999999999)"
      fill="white" stroke="none"/>
    <circle 
      cx="106.7965" cy="-12.530999999999999"
      r="15" transform="translate(106.7965 -6.531) scale(0.00001 -0.00001) translate(-106.7965 6.531) translate(106.7975 -6.592499999999999) rotate(0) translate(-106.7975 6.592499999999999)"
      fill="white" stroke="none"/>
    <circle 
      cx="106.7964" cy="-12.531500000000001"
      r="15" transform="translate(106.7964 -6.5315) scale(0.00001 -0.00001) translate(-106.7964 6.5315) translate(106.7975 -6.592499999999999) rotate(0) translate(-106.7975 6.592499999999999)"
      fill="white" stroke="none"/>
    <circle 
      cx="106.7961" cy="-12.531600000000001"
      r="15" transform="translate(106.7961 -6.5316) scale(0.00001 -0.00001) translate(-106.7961 6.5316) translate(106.7975 -6.592499999999999) rotate(0) translate(-106.7975 6.592499999999999)"
      fill="white" stroke="none"/>
    <circle 
      cx="106.7959" cy="-12.5339"
      r="15" transform="translate(106.7959 -6.5339) scale(0.00001 -0.00001) translate(-106.7959 6.5339) translate(106.7975 -6.592499999999999) rotate(0) translate(-106.7975 6.592499999999999)"
      fill="white" stroke="none"/>
    <circle 
      cx="106.7902" cy="-12.5336"
      r="15" transform="translate(106.7902 -6.5336) scale(0.00001 -0.00001) translate(-106.7902 6.5336) translate(106.7975 -6.592499999999999) rotate(0) translate(-106.7975 6.592499999999999)"
      fill="white" stroke="none"/>
    <circle 
      cx="106.7892" cy="-12.534500000000001"
      r="15" transform="translate(106.7892 -6.5345) scale(0.00001 -0.00001) translate(-106.7892 6.5345) translate(106.7975 -6.592499999999999) rotate(0) translate(-106.7975 6.592499999999999)"
      fill="white" stroke="none"/>
    <circle 
      cx="106.7826" cy="-12.5344"
      r="15" transform="translate(106.7826 -6.5344) scale(0.00001 -0.00001) translate(-106.7826 6.5344) translate(106.7975 -6.592499999999999) rotate(0) translate(-106.7975 6.592499999999999)"
      fill="white" stroke="none"/>
    <circle 
      cx="106.7765" cy="-12.534600000000001"
      r="15" transform="translate(106.7765 -6.5346) scale(0.00001 -0.00001) translate(-106.7765 6.5346) translate(106.7975 -6.592499999999999) rotate(0) translate(-106.7975 6.592499999999999)"
      fill="white" stroke="none"/>
    <circle 
      cx="106.7729" cy="-12.5364"
      r="15" transform="translate(106.7729 -6.5364) scale(0.00001 -0.00001) translate(-106.7729 6.5364) translate(106.7975 -6.592499999999999) rotate(0) translate(-106.7975 6.592499999999999)"
      fill="white" stroke="none"/>
    <circle 
      cx="106.7717" cy="-12.536100000000001"
      r="15" transform="translate(106.7717 -6.5361) scale(0.00001 -0.00001) translate(-106.7717 6.5361) translate(106.7975 -6.592499999999999) rotate(0) translate(-106.7975 6.592499999999999)"
      fill="white" stroke="none"/>
    <circle 
      cx="106.7699" cy="-12.5373"
      r="15" transform="translate(106.7699 -6.5373) scale(0.00001 -0.00001) translate(-106.7699 6.5373) translate(106.7975 -6.592499999999999) rotate(0) translate(-106.7975 6.592499999999999)"
      fill="white" stroke="none"/>
    <circle 
      cx="106.7763" cy="-12.5541"
      r="15" transform="translate(106.7763 -6.5541) scale(0.00001 -0.00001) translate(-106.7763 6.5541) translate(106.7975 -6.592499999999999) rotate(0) translate(-106.7975 6.592499999999999)"
      fill="white" stroke="none"/>
    <circle 
      cx="106.7784" cy="-12.5561"
      r="15" transform="translate(106.7784 -6.5561) scale(0.00001 -0.00001) translate(-106.7784 6.5561) translate(106.7975 -6.592499999999999) rotate(0) translate(-106.7975 6.592499999999999)"
      fill="white" stroke="none"/>
    <circle 
      cx="106.7706" cy="-12.5579"
      r="15" transform="translate(106.7706 -6.5579) scale(0.00001 -0.00001) translate(-106.7706 6.5579) translate(106.7975 -6.592499999999999) rotate(0) translate(-106.7975 6.592499999999999)"
      fill="white" stroke="none"/>
    <circle 
      cx="106.7598" cy="-12.568100000000001"
      r="15" transform="translate(106.7598 -6.5681) scale(0.00001 -0.00001) translate(-106.7598 6.5681) translate(106.7975 -6.592499999999999) rotate(0) translate(-106.7975 6.592499999999999)"
      fill="white" stroke="none"/>
    <circle 
      cx="106.7561" cy="-12.5704"
      r="15" transform="translate(106.7561 -6.5704) scale(0.00001 -0.00001) translate(-106.7561 6.5704) translate(106.7975 -6.592499999999999) rotate(0) translate(-106.7975 6.592499999999999)"
      fill="white" stroke="none"/>
    <circle 
      cx="106.7553" cy="-12.571100000000001"
      r="15" transform="translate(106.7553 -6.5711) scale(0.00001 -0.00001) translate(-106.7553 6.5711) translate(106.7975 -6.592499999999999) rotate(0) translate(-106.7975 6.592499999999999)"
      fill="white" stroke="none"/>
    <circle 
      cx="106.7549" cy="-12.569099999999999"
      r="15" transform="translate(106.7549 -6.5691) scale(0.00001 -0.00001) translate(-106.7549 6.5691) translate(106.7975 -6.592499999999999) rotate(0) translate(-106.7975 6.592499999999999)"
      fill="white" stroke="none"/>
    <text x="106.7561" y="-6.5704" fill="black" text-anchor="middle" transform="translate(106.7561 -6.5704) scale(0.00001 -0.00001) translate(-106.7561 6.5704) translate(106.7975 -6.592499999999999) rotate(0) translate(-106.7975 6.592499999999999)">19</text>
    <text x="106.7598" y="-6.5681" fill="black" text-anchor="middle" transform="translate(106.7598 -6.5681) scale(0.00001 -0.00001) translate(-106.7598 6.5681) translate(106.7975 -6.592499999999999) rotate(0) translate(-106.7975 6.592499999999999)">19</text>
    <text x="106.7706" y="-6.5579" fill="black" text-anchor="middle" transform="translate(106.7706 -6.5579) scale(0.00001 -0.00001) translate(-106.7706 6.5579) translate(106.7975 -6.592499999999999) rotate(0) translate(-106.7975 6.592499999999999)">19</text>
    <text x="106.7784" y="-6.5561" fill="black" text-anchor="middle" transform="translate(106.7784 -6.5561) scale(0.00001 -0.00001) translate(-106.7784 6.5561) translate(106.7975 -6.592499999999999) rotate(0) translate(-106.7975 6.592499999999999)">19</text>
    <text x="106.7763" y="-6.5541" fill="black" text-anchor="middle" transform="translate(106.7763 -6.5541) scale(0.00001 -0.00001) translate(-106.7763 6.5541) translate(106.7975 -6.592499999999999) rotate(0) translate(-106.7975 6.592499999999999)">19</text>
    <text x="106.7699" y="-6.5373" fill="black" text-anchor="middle" transform="translate(106.7699 -6.5373) scale(0.00001 -0.00001) translate(-106.7699 6.5373) translate(106.7975 -6.592499999999999) rotate(0) translate(-106.7975 6.592499999999999)">19</text>
    <text x="106.7677" y="-6.5339" fill="black" text-anchor="middle" transform="translate(106.7677 -6.5339) scale(0.00001 -0.00001) translate(-106.7677 6.5339) translate(106.7975 -6.592499999999999) rotate(0) translate(-106.7975 6.592499999999999)">19</text>
    <text x="106.7699" y="-6.5373" fill="black" text-anchor="middle" transform="translate(106.7699 -6.5373) scale(0.00001 -0.00001) translate(-106.7699 6.5373) translate(106.7975 -6.592499999999999) rotate(0) translate(-106.7975 6.592499999999999)">19</text>
    <text x="106.7717" y="-6.5361" fill="black" text-anchor="middle" transform="translate(106.7717 -6.5361) scale(0.00001 -0.00001) translate(-106.7717 6.5361) translate(106.7975 -6.592499999999999) rotate(0) translate(-106.7975 6.592499999999999)">19</text>
    <text x="106.7729" y="-6.5364" fill="black" text-anchor="middle" transform="translate(106.7729 -6.5364) scale(0.00001 -0.00001) translate(-106.7729 6.5364) translate(106.7975 -6.592499999999999) rotate(0) translate(-106.7975 6.592499999999999)">19</text>
    <text x="106.7765" y="-6.5346" fill="black" text-anchor="middle" transform="translate(106.7765 -6.5346) scale(0.00001 -0.00001) translate(-106.7765 6.5346) translate(106.7975 -6.592499999999999) rotate(0) translate(-106.7975 6.592499999999999)">19</text>
    <text x="106.7826" y="-6.5344" fill="black" text-anchor="middle" transform="translate(106.7826 -6.5344) scale(0.00001 -0.00001) translate(-106.7826 6.5344) translate(106.7975 -6.592499999999999) rotate(0) translate(-106.7975 6.592499999999999)">19</text>
    <text x="106.7892" y="-6.5345" fill="black" text-anchor="middle" transform="translate(106.7892 -6.5345) scale(0.00001 -0.00001) translate(-106.7892 6.5345) translate(106.7975 -6.592499999999999) rotate(0) translate(-106.7975 6.592499999999999)">19</text>
    <text x="106.7902" y="-6.5336" fill="black" text-anchor="middle" transform="translate(106.7902 -6.5336) scale(0.00001 -0.00001) translate(-106.7902 6.5336) translate(106.7975 -6.592499999999999) rotate(0) translate(-106.7975 6.592499999999999)">19</text>
    <text x="106.7959" y="-6.5339" fill="black" text-anchor="middle" transform="translate(106.7959 -6.5339) scale(0.00001 -0.00001) translate(-106.7959 6.5339) translate(106.7975 -6.592499999999999) rotate(0) translate(-106.7975 6.592499999999999)">19</text>
    <text x="106.7961" y="-6.5316" fill="black" text-anchor="middle" transform="translate(106.7961 -6.5316) scale(0.00001 -0.00001) translate(-106.7961 6.5316) translate(106.7975 -6.592499999999999) rotate(0) translate(-106.7975 6.592499999999999)">19</text>
    <text x="106.7964" y="-6.5315" fill="black" text-anchor="middle" transform="translate(106.7964 -6.5315) scale(0.00001 -0.00001) translate(-106.7964 6.5315) translate(106.7975 -6.592499999999999) rotate(0) translate(-106.7975 6.592499999999999)">19</text>
    <text x="106.7965" y="-6.531" fill="black" text-anchor="middle" transform="translate(106.7965 -6.531) scale(0.00001 -0.00001) translate(-106.7965 6.531) translate(106.7975 -6.592499999999999) rotate(0) translate(-106.7975 6.592499999999999)">19</text>
    <text x="106.8003" y="-6.5308" fill="black" text-anchor="middle" transform="translate(106.8003 -6.5308) scale(0.00001 -0.00001) translate(-106.8003 6.5308) translate(106.7975 -6.592499999999999) rotate(0) translate(-106.7975 6.592499999999999)">19</text>
    <text x="106.7965" y="-6.531" fill="black" text-anchor="middle" transform="translate(106.7965 -6.531) scale(0.00001 -0.00001) translate(-106.7965 6.531) translate(106.7975 -6.592499999999999) rotate(0) translate(-106.7975 6.592499999999999)">19</text>
    <text x="106.7964" y="-6.5315" fill="black" text-anchor="middle" transform="translate(106.7964 -6.5315) scale(0.00001 -0.00001) translate(-106.7964 6.5315) translate(106.7975 -6.592499999999999) rotate(0) translate(-106.7975 6.592499999999999)">19</text>
    <text x="106.7961" y="-6.5316" fill="black" text-anchor="middle" transform="translate(106.7961 -6.5316) scale(0.00001 -0.00001) translate(-106.7961 6.5316) translate(106.7975 -6.592499999999999) rotate(0) translate(-106.7975 6.592499999999999)">19</text>
    <text x="106.7959" y="-6.5339" fill="black" text-anchor="middle" transform="translate(106.7959 -6.5339) scale(0.00001 -0.00001) translate(-106.7959 6.5339) translate(106.7975 -6.592499999999999) rotate(0) translate(-106.7975 6.592499999999999)">19</text>
    <text x="106.7902" y="-6.5336" fill="black" text-anchor="middle" transform="translate(106.7902 -6.5336) scale(0.00001 -0.00001) translate(-106.7902 6.5336) translate(106.7975 -6.592499999999999) rotate(0) translate(-106.7975 6.592499999999999)">19</text>
    <text x="106.7892" y="-6.5345" fill="black" text-anchor="middle" transform="translate(106.7892 -6.5345) scale(0.00001 -0.00001) translate(-106.7892 6.5345) translate(106.7975 -6.592499999999999) rotate(0) translate(-106.7975 6.592499999999999)">19</text>
    <text x="106.7826" y="-6.5344" fill="black" text-anchor="middle" transform="translate(106.7826 -6.5344) scale(0.00001 -0.00001) translate(-106.7826 6.5344) translate(106.7975 -6.592499999999999) rotate(0) translate(-106.7975 6.592499999999999)">19</text>
    <text x="106.7765" y="-6.5346" fill="black" text-anchor="middle" transform="translate(106.7765 -6.5346) scale(0.00001 -0.00001) translate(-106.7765 6.5346) translate(106.7975 -6.592499999999999) rotate(0) translate(-106.7975 6.592499999999999)">19</text>
    <text x="106.7729" y="-6.5364" fill="black" text-anchor="middle" transform="translate(106.7729 -6.5364) scale(0.00001 -0.00001) translate(-106.7729 6.5364) translate(106.7975 -6.592499999999999) rotate(0) translate(-106.7975 6.592499999999999)">19</text>
    <text x="106.7717" y="-6.5361" fill="black" text-anchor="middle" transform="translate(106.7717 -6.5361) scale(0.00001 -0.00001) translate(-106.7717 6.5361) translate(106.7975 -6.592499999999999) rotate(0) translate(-106.7975 6.592499999999999)">19</text>
    <text x="106.7699" y="-6.5373" fill="black" text-anchor="middle" transform="translate(106.7699 -6.5373) scale(0.00001 -0.00001) translate(-106.7699 6.5373) translate(106.7975 -6.592499999999999) rotate(0) translate(-106.7975 6.592499999999999)">19</text>
    <text x="106.7763" y="-6.5541" fill="black" text-anchor="middle" transform="translate(106.7763 -6.5541) scale(0.00001 -0.00001) translate(-106.7763 6.5541) translate(106.7975 -6.592499999999999) rotate(0) translate(-106.7975 6.592499999999999)">19</text>
    <text x="106.7784" y="-6.5561" fill="black" text-anchor="middle" transform="translate(106.7784 -6.5561) scale(0.00001 -0.00001) translate(-106.7784 6.5561) translate(106.7975 -6.592499999999999) rotate(0) translate(-106.7975 6.592499999999999)">19</text>
    <text x="106.7706" y="-6.5579" fill="black" text-anchor="middle" transform="translate(106.7706 -6.5579) scale(0.00001 -0.00001) translate(-106.7706 6.5579) translate(106.7975 -6.592499999999999) rotate(0) translate(-106.7975 6.592499999999999)">19</text>
    <text x="106.7598" y="-6.5681" fill="black" text-anchor="middle" transform="translate(106.7598 -6.5681) scale(0.00001 -0.00001) translate(-106.7598 6.5681) translate(106.7975 -6.592499999999999) rotate(0) translate(-106.7975 6.592499999999999)">19</text>
    <text x="106.7561" y="-6.5704" fill="black" text-anchor="middle" transform="translate(106.7561 -6.5704) scale(0.00001 -0.00001) translate(-106.7561 6.5704) translate(106.7975 -6.592499999999999) rotate(0) translate(-106.7975 6.592499999999999)">19</text>
    <text x="106.7553" y="-6.5711" fill="black" text-anchor="middle" transform="translate(106.7553 -6.5711) scale(0.00001 -0.00001) translate(-106.7553 6.5711) translate(106.7975 -6.592499999999999) rotate(0) translate(-106.7975 6.592499999999999)">19</text>
    <text x="106.7549" y="-6.5691" fill="black" text-anchor="middle" transform="translate(106.7549 -6.5691) scale(0.00001 -0.00001) translate(-106.7549 6.5691) translate(106.7975 -6.592499999999999) rotate(0) translate(-106.7975 6.592499999999999)">19</text>
    <line x1="106.75493674017224" y1="-6.569066085994863" x2="106.75550282616712" y2="-6.569679345822632" style="stroke:rgb(255,0,0);stroke-width:.00002" />
    <line x1="106.75560739434961" y1="-6.569718912161958" x2="106.75617348034447" y2="-6.570332171989727" style="stroke:rgb(0,0,255);stroke-width:.00002" />
    <circle cx="106.7549" cy="-6.5691" fill="rgb(255,0,0)" r=".0001" />
    <text x="106.7549" y="-6.5691" stroke="rgb(0,0,0)" transform="translate(106.7549 -6.5691),scale(0.00001 -0.00001),translate(-106.7549 6.5691),translate(106.7975 -6.592499999999999),rotate(0),translate(-106.7975 6.592499999999999)" >bubulak-far-exit</text>
    <line x1="106.7560472065879" y1="-6.570315071467471" x2="106.75785474232163" y2="-6.5691914681735275" style="stroke:rgb(255,0,0);stroke-width:.00002" />
    <line x1="106.75796606756019" y1="-6.5691811390276795" x2="106.75977360329394" y2="-6.568057535733736" style="stroke:rgb(0,0,255);stroke-width:.00002" />
    <circle cx="106.7561" cy="-6.5704" fill="rgb(255,0,0)" r=".0001" />
    <text x="106.7561" y="-6.5704" stroke="rgb(0,0,0)" transform="translate(106.7561 -6.5704),scale(0.00001 -0.00001),translate(-106.7561 6.5704),translate(106.7975 -6.592499999999999),rotate(0),translate(-106.7975 6.592499999999999)" >cifor-ciampea</text>
    <line x1="106.75976566882335" y1="-6.568063649342373" x2="106.76516566882334" y2="-6.5629636493423735" style="stroke:rgb(255,0,0);stroke-width:.00002" />
    <line x1="106.76516566882334" y1="-6.5629636493423735" x2="106.77056566882335" y2="-6.557863649342373" style="stroke:rgb(0,0,255);stroke-width:.00002" />
    <circle cx="106.7598" cy="-6.5681" fill="rgb(255,0,0)" r=".0001" />
    <text x="106.7598" y="-6.5681" stroke="rgb(0,0,0)" transform="translate(106.7598 -6.5681),scale(0.00001 -0.00001),translate(-106.7598 6.5681),translate(106.7975 -6.592499999999999),rotate(0),translate(-106.7975 6.592499999999999)" >ciampea-before-river</text>
    <line x1="106.77058875702467" y1="-6.557851280440215" x2="106.77448875702467" y2="-6.556951280440216" style="stroke:rgb(255,0,0);stroke-width:.00002" />
    <line x1="106.77448875702467" y1="-6.556951280440216" x2="106.77838875702467" y2="-6.556051280440215" style="stroke:rgb(0,0,255);stroke-width:.00002" />
    <circle cx="106.7706" cy="-6.5579" fill="rgb(255,0,0)" r=".0001" />
    <text x="106.7706" y="-6.5579" stroke="rgb(0,0,0)" transform="translate(106.7706 -6.5579),scale(0.00001 -0.00001),translate(-106.7706 6.5579),translate(106.7975 -6.592499999999999),rotate(0),translate(-106.7975 6.592499999999999)" >ciampea-towards-iskandar</text>
    <line x1="106.77836551724138" y1="-6.556136206896552" x2="106.77735172413794" y2="-6.5551706896551725" style="stroke:rgb(255,0,0);stroke-width:.00002" />
    <line x1="106.77724482758622" y1="-6.555137931034482" x2="106.77623103448276" y2="-6.554172413793103" style="stroke:rgb(0,0,255);stroke-width:.00002" />
    <circle cx="106.7784" cy="-6.5561" fill="rgb(255,0,0)" r=".0001" />
    <text x="106.7784" y="-6.5561" stroke="rgb(0,0,0)" transform="translate(106.7784 -6.5561),scale(0.00001 -0.00001),translate(-106.7784 6.5561),translate(106.7975 -6.592499999999999),rotate(0),translate(-106.7975 6.592499999999999)" >iskandar-ciampea-Y</text>
    <line x1="106.77620655122651" y1="-6.554135599532759" x2="106.7730065512265" y2="-6.545735599532759" style="stroke:rgb(255,0,0);stroke-width:.00002" />
    <line x1="106.7730065512265" y1="-6.545735599532759" x2="106.76980655122651" y2="-6.537335599532759" style="stroke:rgb(0,0,255);stroke-width:.00002" />
    <circle cx="106.7763" cy="-6.5541" fill="rgb(255,0,0)" r=".0001" />
    <text x="106.7763" y="-6.5541" stroke="rgb(0,0,0)" transform="translate(106.7763 -6.5541),scale(0.00001 -0.00001),translate(-106.7763 6.5541),translate(106.7975 -6.592499999999999),rotate(0),translate(-106.7975 6.592499999999999)" >iskandar-bendright</text>
    <line x1="106.76981604298429" y1="-6.537354325127816" x2="106.76871604298428" y2="-6.535654325127816" style="stroke:rgb(255,0,0);stroke-width:.00002" />
    <line x1="106.76871604298428" y1="-6.535654325127816" x2="106.76761604298429" y2="-6.533954325127816" style="stroke:rgb(0,0,255);stroke-width:.00002" />
    <circle cx="106.7699" cy="-6.5373" fill="rgb(255,0,0)" r=".0001" />
    <text x="106.7699" y="-6.5373" stroke="rgb(0,0,0)" transform="translate(106.7699 -6.5373),scale(0.00001 -0.00001),translate(-106.7699 6.5373),translate(106.7975 -6.592499999999999),rotate(0),translate(-106.7975 6.592499999999999)" >iskandar-kencana</text>
    <line x1="106.76778395701572" y1="-6.533845674872184" x2="106.76888395701572" y2="-6.535545674872185" style="stroke:rgb(255,0,0);stroke-width:.00002" />
    <line x1="106.76888395701572" y1="-6.535545674872185" x2="106.76998395701573" y2="-6.537245674872184" style="stroke:rgb(0,0,255);stroke-width:.00002" />
    <circle cx="106.7677" cy="-6.5339" fill="rgb(255,0,0)" r=".0001" />
    <text x="106.7677" y="-6.5339" stroke="rgb(0,0,0)" transform="translate(106.7677 -6.5339),scale(0.00001 -0.00001),translate(-106.7677 6.5339),translate(106.7975 -6.592499999999999),rotate(0),translate(-106.7975 6.592499999999999)" >iskandar-19-turns-N</text>
    <line x1="106.76984452998039" y1="-6.537216794970567" x2="106.77070292746568" y2="-6.536644529980378" style="stroke:rgb(255,0,0);stroke-width:.00002" />
    <line x1="106.77081386750491" y1="-6.5366306624754715" x2="106.77167226499019" y2="-6.5360583974852835" style="stroke:rgb(0,0,255);stroke-width:.00002" />
    <circle cx="106.7699" cy="-6.5373" fill="rgb(255,0,0)" r=".0001" />
    <text x="106.7699" y="-6.5373" stroke="rgb(0,0,0)" transform="translate(106.7699 -6.5373),scale(0.00001 -0.00001),translate(-106.7699 6.5373),translate(106.7975 -6.592499999999999),rotate(0),translate(-106.7975 6.592499999999999)" >iskandar-kencana</text>
    <line x1="106.77171212678125" y1="-6.536051492874993" x2="106.77231212678126" y2="-6.536201492874993" style="stroke:rgb(255,0,0);stroke-width:.00002" />
    <line x1="106.77231212678126" y1="-6.536201492874993" x2="106.77291212678126" y2="-6.536351492874993" style="stroke:rgb(0,0,255);stroke-width:.00002" />
    <circle cx="106.7717" cy="-6.5361" fill="rgb(255,0,0)" r=".0001" />
    <text x="106.7717" y="-6.5361" stroke="rgb(0,0,0)" transform="translate(106.7717 -6.5361),scale(0.00001 -0.00001),translate(-106.7717 6.5361),translate(106.7975 -6.592499999999999),rotate(0),translate(-106.7975 6.592499999999999)" >kencana-1-bend-right</text>
    <line x1="106.77287763932023" y1="-6.536355278640451" x2="106.77467763932022" y2="-6.535455278640451" style="stroke:rgb(255,0,0);stroke-width:.00002" />
    <line x1="106.77467763932022" y1="-6.535455278640451" x2="106.77647763932022" y2="-6.53455527864045" style="stroke:rgb(0,0,255);stroke-width:.00002" />
    <circle cx="106.7729" cy="-6.5364" fill="rgb(255,0,0)" r=".0001" />
    <text x="106.7729" y="-6.5364" stroke="rgb(0,0,0)" transform="translate(106.7729 -6.5364),scale(0.00001 -0.00001),translate(-106.7729 6.5364),translate(106.7975 -6.592499999999999),rotate(0),translate(-106.7975 6.592499999999999)" >kencana-2-bend-left</text>
    <line x1="106.77649836153616" y1="-6.534550026852848" x2="106.77954836153616" y2="-6.534450026852848" style="stroke:rgb(255,0,0);stroke-width:.00002" />
    <line x1="106.77954836153616" y1="-6.534450026852848" x2="106.78259836153616" y2="-6.534350026852848" style="stroke:rgb(0,0,255);stroke-width:.00002" />
    <circle cx="106.7765" cy="-6.5346" fill="rgb(255,0,0)" r=".0001" />
    <text x="106.7765" y="-6.5346" stroke="rgb(0,0,0)" transform="translate(106.7765 -6.5346),scale(0.00001 -0.00001),translate(-106.7765 6.5346),translate(106.7975 -6.592499999999999),rotate(0),translate(-106.7975 6.592499999999999)" >kencana-3-over-river</text>
    <line x1="106.78260075748882" y1="-6.534350005738222" x2="106.78590075748882" y2="-6.534400005738222" style="stroke:rgb(255,0,0);stroke-width:.00002" />
    <line x1="106.78590075748882" y1="-6.534400005738222" x2="106.78920075748881" y2="-6.534450005738223" style="stroke:rgb(0,0,255);stroke-width:.00002" />
    <circle cx="106.7826" cy="-6.5344" fill="rgb(255,0,0)" r=".0001" />
    <text x="106.7826" y="-6.5344" stroke="rgb(0,0,0)" transform="translate(106.7826 -6.5344),scale(0.00001 -0.00001),translate(-106.7826 6.5344),translate(106.7975 -6.592499999999999),rotate(0),translate(-106.7975 6.592499999999999)" >kencana-4-setapak</text>
    <line x1="106.78916655176342" y1="-6.534462835292688" x2="106.78966655176342" y2="-6.534012835292688" style="stroke:rgb(255,0,0);stroke-width:.00002" />
    <line x1="106.78966655176342" y1="-6.534012835292688" x2="106.79016655176342" y2="-6.533562835292687" style="stroke:rgb(0,0,255);stroke-width:.00002" />
    <circle cx="106.7892" cy="-6.5345" fill="rgb(255,0,0)" r=".0001" />
    <text x="106.7892" y="-6.5345" stroke="rgb(0,0,0)" transform="translate(106.7892 -6.5345),scale(0.00001 -0.00001),translate(-106.7892 6.5345),translate(106.7975 -6.592499999999999),rotate(0),translate(-106.7975 6.592499999999999)" >kencana-5-left</text>
    <line x1="106.79020262794165" y1="-6.533550069108533" x2="106.79305262794165" y2="-6.533700069108533" style="stroke:rgb(255,0,0);stroke-width:.00002" />
    <line x1="106.79305262794165" y1="-6.533700069108533" x2="106.79590262794166" y2="-6.533850069108533" style="stroke:rgb(0,0,255);stroke-width:.00002" />
    <circle cx="106.7902" cy="-6.5336" fill="rgb(255,0,0)" r=".0001" />
    <text x="106.7902" y="-6.5336" stroke="rgb(0,0,0)" transform="translate(106.7902 -6.5336),scale(0.00001 -0.00001),translate(-106.7902 6.5336),translate(106.7975 -6.592499999999999),rotate(0),translate(-106.7975 6.592499999999999)" >kencana-6-right</text>
    <line x1="106.79585018797059" y1="-6.533895668519182" x2="106.79595018797058" y2="-6.532745668519182" style="stroke:rgb(255,0,0);stroke-width:.00002" />
    <line x1="106.79595018797058" y1="-6.532745668519182" x2="106.79605018797058" y2="-6.531595668519182" style="stroke:rgb(0,0,255);stroke-width:.00002" />
    <circle cx="106.7959" cy="-6.5339" fill="rgb(255,0,0)" r=".0001" />
    <text x="106.7959" y="-6.5339" stroke="rgb(0,0,0)" transform="translate(106.7959 -6.5339),scale(0.00001 -0.00001),translate(-106.7959 6.5339),translate(106.7975 -6.592499999999999),rotate(0),translate(-106.7975 6.592499999999999)" >kencana-corner-kalimurni</text>
    <line x1="106.7960841886117" y1="-6.5315525658350975" x2="106.7962341886117" y2="-6.531502565835098" style="stroke:rgb(255,0,0);stroke-width:.00002" />
    <line x1="106.7962341886117" y1="-6.531502565835098" x2="106.79638418861171" y2="-6.531452565835098" style="stroke:rgb(0,0,255);stroke-width:.00002" />
    <circle cx="106.7961" cy="-6.5316" fill="rgb(255,0,0)" r=".0001" />
    <text x="106.7961" y="-6.5316" stroke="rgb(0,0,0)" transform="translate(106.7961 -6.5316),scale(0.00001 -0.00001),translate(-106.7961 6.5316),translate(106.7975 -6.592499999999999),rotate(0),translate(-106.7975 6.592499999999999)" >kalimurni-1-right</text>
    <line x1="106.79635097096622" y1="-6.531490194193244" x2="106.7964009709662" y2="-6.531240194193244" style="stroke:rgb(255,0,0);stroke-width:.00002" />
    <line x1="106.7964009709662" y1="-6.531240194193244" x2="106.7964509709662" y2="-6.530990194193244" style="stroke:rgb(0,0,255);stroke-width:.00002" />
    <circle cx="106.7964" cy="-6.5315" fill="rgb(255,0,0)" r=".0001" />
    <text x="106.7964" y="-6.5315" stroke="rgb(0,0,0)" transform="translate(106.7964 -6.5315),scale(0.00001 -0.00001),translate(-106.7964 6.5315),translate(106.7975 -6.592499999999999),rotate(0),translate(-106.7975 6.592499999999999)" >kalimurni-2-left</text>
    <line x1="106.79649737205834" y1="-6.530950069108533" x2="106.79839737205833" y2="-6.530850069108533" style="stroke:rgb(255,0,0);stroke-width:.00002" />
    <line x1="106.79839737205833" y1="-6.530850069108533" x2="106.80029737205834" y2="-6.530750069108533" style="stroke:rgb(0,0,255);stroke-width:.00002" />
    <circle cx="106.7965" cy="-6.531" fill="rgb(255,0,0)" r=".0001" />
    <text x="106.7965" y="-6.531" stroke="rgb(0,0,0)" transform="translate(106.7965 -6.531),scale(0.00001 -0.00001),translate(-106.7965 6.531),translate(106.7975 -6.592499999999999),rotate(0),translate(-106.7975 6.592499999999999)" >kalimurni-pendidikan</text>
    <line x1="106.80030262794165" y1="-6.530849930891467" x2="106.79840262794164" y2="-6.530949930891467" style="stroke:rgb(255,0,0);stroke-width:.00002" />
    <line x1="106.79840262794164" y1="-6.530949930891467" x2="106.79650262794165" y2="-6.5310499308914665" style="stroke:rgb(0,0,255);stroke-width:.00002" />
    <circle cx="106.8003" cy="-6.5308" fill="rgb(255,0,0)" r=".0001" />
    <text x="106.8003" y="-6.5308" stroke="rgb(0,0,0)" transform="translate(106.8003 -6.5308),scale(0.00001 -0.00001),translate(-106.8003 6.5308),translate(106.7975 -6.592499999999999),rotate(0),translate(-106.7975 6.592499999999999)" >pendidikan-cilebut</text>
    <line x1="106.79654902903378" y1="-6.531009805806756" x2="106.79649902903378" y2="-6.531259805806756" style="stroke:rgb(255,0,0);stroke-width:.00002" />
    <line x1="106.79649902903378" y1="-6.531259805806756" x2="106.7964490290338" y2="-6.531509805806756" style="stroke:rgb(0,0,255);stroke-width:.00002" />
    <circle cx="106.7965" cy="-6.531" fill="rgb(255,0,0)" r=".0001" />
    <text x="106.7965" y="-6.531" stroke="rgb(0,0,0)" transform="translate(106.7965 -6.531),scale(0.00001 -0.00001),translate(-106.7965 6.531),translate(106.7975 -6.592499999999999),rotate(0),translate(-106.7975 6.592499999999999)" >kalimurni-pendidikan</text>
    <line x1="106.7964158113883" y1="-6.531547434164903" x2="106.7962658113883" y2="-6.531597434164903" style="stroke:rgb(255,0,0);stroke-width:.00002" />
    <line x1="106.7962658113883" y1="-6.531597434164903" x2="106.79611581138829" y2="-6.531647434164903" style="stroke:rgb(0,0,255);stroke-width:.00002" />
    <circle cx="106.7964" cy="-6.5315" fill="rgb(255,0,0)" r=".0001" />
    <text x="106.7964" y="-6.5315" stroke="rgb(0,0,0)" transform="translate(106.7964 -6.5315),scale(0.00001 -0.00001),translate(-106.7964 6.5315),translate(106.7975 -6.592499999999999),rotate(0),translate(-106.7975 6.592499999999999)" >kalimurni-2-left</text>
    <line x1="106.79614981202941" y1="-6.5316043314808185" x2="106.79604981202941" y2="-6.5327543314808185" style="stroke:rgb(255,0,0);stroke-width:.00002" />
    <line x1="106.79604981202941" y1="-6.5327543314808185" x2="106.79594981202942" y2="-6.5339043314808185" style="stroke:rgb(0,0,255);stroke-width:.00002" />
    <circle cx="106.7961" cy="-6.5316" fill="rgb(255,0,0)" r=".0001" />
    <text x="106.7961" y="-6.5316" stroke="rgb(0,0,0)" transform="translate(106.7961 -6.5316),scale(0.00001 -0.00001),translate(-106.7961 6.5316),translate(106.7975 -6.592499999999999),rotate(0),translate(-106.7975 6.592499999999999)" >kalimurni-1-right</text>
    <line x1="106.79589737205835" y1="-6.533949930891467" x2="106.79304737205834" y2="-6.533799930891466" style="stroke:rgb(255,0,0);stroke-width:.00002" />
    <line x1="106.79304737205834" y1="-6.533799930891466" x2="106.79019737205834" y2="-6.533649930891467" style="stroke:rgb(0,0,255);stroke-width:.00002" />
    <circle cx="106.7959" cy="-6.5339" fill="rgb(255,0,0)" r=".0001" />
    <text x="106.7959" y="-6.5339" stroke="rgb(0,0,0)" transform="translate(106.7959 -6.5339),scale(0.00001 -0.00001),translate(-106.7959 6.5339),translate(106.7975 -6.592499999999999),rotate(0),translate(-106.7975 6.592499999999999)" >kencana-corner-kalimurni</text>
    <line x1="106.79023344823658" y1="-6.533637164707312" x2="106.78973344823657" y2="-6.534087164707313" style="stroke:rgb(255,0,0);stroke-width:.00002" />
    <line x1="106.78973344823657" y1="-6.534087164707313" x2="106.78923344823657" y2="-6.534537164707313" style="stroke:rgb(0,0,255);stroke-width:.00002" />
    <circle cx="106.7902" cy="-6.5336" fill="rgb(255,0,0)" r=".0001" />
    <text x="106.7902" y="-6.5336" stroke="rgb(0,0,0)" transform="translate(106.7902 -6.5336),scale(0.00001 -0.00001),translate(-106.7902 6.5336),translate(106.7975 -6.592499999999999),rotate(0),translate(-106.7975 6.592499999999999)" >kencana-6-right</text>
    <line x1="106.78919924251117" y1="-6.534549994261778" x2="106.78589924251118" y2="-6.534499994261777" style="stroke:rgb(255,0,0);stroke-width:.00002" />
    <line x1="106.78589924251118" y1="-6.534499994261777" x2="106.78259924251118" y2="-6.534449994261777" style="stroke:rgb(0,0,255);stroke-width:.00002" />
    <circle cx="106.7892" cy="-6.5345" fill="rgb(255,0,0)" r=".0001" />
    <text x="106.7892" y="-6.5345" stroke="rgb(0,0,0)" transform="translate(106.7892 -6.5345),scale(0.00001 -0.00001),translate(-106.7892 6.5345),translate(106.7975 -6.592499999999999),rotate(0),translate(-106.7975 6.592499999999999)" >kencana-5-left</text>
    <line x1="106.78260163846385" y1="-6.534449973147152" x2="106.77955163846384" y2="-6.5345499731471515" style="stroke:rgb(255,0,0);stroke-width:.00002" />
    <line x1="106.77955163846384" y1="-6.5345499731471515" x2="106.77650163846384" y2="-6.534649973147152" style="stroke:rgb(0,0,255);stroke-width:.00002" />
    <circle cx="106.7826" cy="-6.5344" fill="rgb(255,0,0)" r=".0001" />
    <text x="106.7826" y="-6.5344" stroke="rgb(0,0,0)" transform="translate(106.7826 -6.5344),scale(0.00001 -0.00001),translate(-106.7826 6.5344),translate(106.7975 -6.592499999999999),rotate(0),translate(-106.7975 6.592499999999999)" >kencana-4-setapak</text>
    <line x1="106.77652236067978" y1="-6.53464472135955" x2="106.77472236067977" y2="-6.535544721359551" style="stroke:rgb(255,0,0);stroke-width:.00002" />
    <line x1="106.77472236067977" y1="-6.535544721359551" x2="106.77292236067979" y2="-6.53644472135955" style="stroke:rgb(0,0,255);stroke-width:.00002" />
    <circle cx="106.7765" cy="-6.5346" fill="rgb(255,0,0)" r=".0001" />
    <text x="106.7765" y="-6.5346" stroke="rgb(0,0,0)" transform="translate(106.7765 -6.5346),scale(0.00001 -0.00001),translate(-106.7765 6.5346),translate(106.7975 -6.592499999999999),rotate(0),translate(-106.7975 6.592499999999999)" >kencana-3-over-river</text>
    <line x1="106.77288787321875" y1="-6.536448507125008" x2="106.77228787321874" y2="-6.536298507125008" style="stroke:rgb(255,0,0);stroke-width:.00002" />
    <line x1="106.77228787321874" y1="-6.536298507125008" x2="106.77168787321874" y2="-6.536148507125008" style="stroke:rgb(0,0,255);stroke-width:.00002" />
    <circle cx="106.7729" cy="-6.5364" fill="rgb(255,0,0)" r=".0001" />
    <text x="106.7729" y="-6.5364" stroke="rgb(0,0,0)" transform="translate(106.7729 -6.5364),scale(0.00001 -0.00001),translate(-106.7729 6.5364),translate(106.7975 -6.592499999999999),rotate(0),translate(-106.7975 6.592499999999999)" >kencana-2-bend-left</text>
    <line x1="106.7717277350098" y1="-6.536141602514717" x2="106.77082773500982" y2="-6.5367416025147165" style="stroke:rgb(255,0,0);stroke-width:.00002" />
    <line x1="106.77082773500982" y1="-6.5367416025147165" x2="106.76992773500982" y2="-6.537341602514717" style="stroke:rgb(0,0,255);stroke-width:.00002" />
    <circle cx="106.7717" cy="-6.5361" fill="rgb(255,0,0)" r=".0001" />
    <text x="106.7717" y="-6.5361" stroke="rgb(0,0,0)" transform="translate(106.7717 -6.5361),scale(0.00001 -0.00001),translate(-106.7717 6.5361),translate(106.7975 -6.592499999999999),rotate(0),translate(-106.7975 6.592499999999999)" >kencana-1-bend-right</text>
    <line x1="106.76994672438676" y1="-6.53728220023362" x2="106.77312892462037" y2="-6.545635475846874" style="stroke:rgb(255,0,0);stroke-width:.00002" />
    <line x1="106.77321124853988" y1="-6.545711124853987" x2="106.7763934487735" y2="-6.554064400467241" style="stroke:rgb(0,0,255);stroke-width:.00002" />
    <circle cx="106.7699" cy="-6.5373" fill="rgb(255,0,0)" r=".0001" />
    <text x="106.7699" y="-6.5373" stroke="rgb(0,0,0)" transform="translate(106.7699 -6.5373),scale(0.00001 -0.00001),translate(-106.7699 6.5373),translate(106.7975 -6.592499999999999),rotate(0),translate(-106.7975 6.592499999999999)" >iskandar-kencana</text>
    <line x1="106.77636896551725" y1="-6.554027586206897" x2="106.7773827586207" y2="-6.554993103448275" style="stroke:rgb(255,0,0);stroke-width:.00002" />
    <line x1="106.77742068965519" y1="-6.555098275862068" x2="106.77843448275863" y2="-6.556063793103448" style="stroke:rgb(0,0,255);stroke-width:.00002" />
    <circle cx="106.7763" cy="-6.5541" fill="rgb(255,0,0)" r=".0001" />
    <text x="106.7763" y="-6.5541" stroke="rgb(0,0,0)" transform="translate(106.7763 -6.5541),scale(0.00001 -0.00001),translate(-106.7763 6.5541),translate(106.7975 -6.592499999999999),rotate(0),translate(-106.7975 6.592499999999999)" >iskandar-bendright</text>
    <line x1="106.77841124297534" y1="-6.5561487195597845" x2="106.77451124297534" y2="-6.557048719559785" style="stroke:rgb(255,0,0);stroke-width:.00002" />
    <line x1="106.77451124297534" y1="-6.557048719559785" x2="106.77061124297533" y2="-6.557948719559785" style="stroke:rgb(0,0,255);stroke-width:.00002" />
    <circle cx="106.7784" cy="-6.5561" fill="rgb(255,0,0)" r=".0001" />
    <text x="106.7784" y="-6.5561" stroke="rgb(0,0,0)" transform="translate(106.7784 -6.5561),scale(0.00001 -0.00001),translate(-106.7784 6.5561),translate(106.7975 -6.592499999999999),rotate(0),translate(-106.7975 6.592499999999999)" >iskandar-ciampea-Y</text>
    <line x1="106.77063433117665" y1="-6.557936350657627" x2="106.76523433117664" y2="-6.563036350657628" style="stroke:rgb(255,0,0);stroke-width:.00002" />
    <line x1="106.76523433117664" y1="-6.563036350657628" x2="106.75983433117665" y2="-6.568136350657627" style="stroke:rgb(0,0,255);stroke-width:.00002" />
    <circle cx="106.7706" cy="-6.5579" fill="rgb(255,0,0)" r=".0001" />
    <text x="106.7706" y="-6.5579" stroke="rgb(0,0,0)" transform="translate(106.7706 -6.5579),scale(0.00001 -0.00001),translate(-106.7706 6.5579),translate(106.7975 -6.592499999999999),rotate(0),translate(-106.7975 6.592499999999999)" >ciampea-towards-iskandar</text>
    <line x1="106.75982639670606" y1="-6.5681424642662645" x2="106.75797639670606" y2="-6.5692924642662645" style="stroke:rgb(255,0,0);stroke-width:.00002" />
    <line x1="106.75797639670606" y1="-6.5692924642662645" x2="106.75612639670607" y2="-6.570442464266264" style="stroke:rgb(0,0,255);stroke-width:.00002" />
    <circle cx="106.7598" cy="-6.5681" fill="rgb(255,0,0)" r=".0001" />
    <text x="106.7598" y="-6.5681" stroke="rgb(0,0,0)" transform="translate(106.7598 -6.5681),scale(0.00001 -0.00001),translate(-106.7598 6.5681),translate(106.7975 -6.592499999999999),rotate(0),translate(-106.7975 6.592499999999999)" >ciampea-before-river</text>
    <line x1="106.7561329252304" y1="-6.5704376288347355" x2="106.7557329252304" y2="-6.5707876288347355" style="stroke:rgb(255,0,0);stroke-width:.00002" />
    <line x1="106.7557329252304" y1="-6.5707876288347355" x2="106.7553329252304" y2="-6.571137628834736" style="stroke:rgb(0,0,255);stroke-width:.00002" />
    <circle cx="106.7561" cy="-6.5704" fill="rgb(255,0,0)" r=".0001" />
    <text x="106.7561" y="-6.5704" stroke="rgb(0,0,0)" transform="translate(106.7561 -6.5704),scale(0.00001 -0.00001),translate(-106.7561 6.5704),translate(106.7975 -6.592499999999999),rotate(0),translate(-106.7975 6.592499999999999)" >cifor-ciampea</text>
    <line x1="106.75525097096622" y1="-6.571109805806757" x2="106.75505097096621" y2="-6.570109805806757" style="stroke:rgb(255,0,0);stroke-width:.00002" />
    <line x1="106.75505097096621" y1="-6.570109805806757" x2="106.75485097096622" y2="-6.5691098058067565" style="stroke:rgb(0,0,255);stroke-width:.00002" />
    <circle cx="106.7553" cy="-6.5711" fill="rgb(255,0,0)" r=".0001" />
    <text x="106.7553" y="-6.5711" stroke="rgb(0,0,0)" transform="translate(106.7553 -6.5711),scale(0.00001 -0.00001),translate(-106.7553 6.5711),translate(106.7975 -6.592499999999999),rotate(0),translate(-106.7975 6.592499999999999)" >bubulak</text>
  </g>
</svg>
