<svg width="1049.9999999998977" height="1849.9999999999961" xmlns="http://www.w3.org/2000/svg" xmlns:xlink="http://www.w3.org/1999/xlink" >
  <g transform="translate(524.9999999999488 924.9999999999981) rotate(30) scale(10000 -10000) translate(-106.8125 6.592499999999999)">
    <path d="M106.76 -6.5 L106.865 -6.5 L106.865 -6.685 L106.76 -6.685 Z" fill="none" stroke="black" stroke-width="0.0005" transform="translate(106.8125 -6.592499999999999) rotate(30) translate(-106.8125 6.592499999999999)" />
    <text x="106.81777937750755" y="-6.616308365744737" fill="black" transform="translate(106.81777937750755 -6.616308365744737) scale(0.0001 -0.0001) rotate(-30) translate(-106.81777937750755 6.616308365744737)">13</text>
    <text x="106.81874392982994" y="-6.617058573106592" fill="black" transform="translate(106.81874392982994 -6.617058573106592) scale(0.0001 -0.0001) rotate(-30) translate(-106.81874392982994 6.617058573106592)">13</text>
    <text x="106.81962764400447" y="-6.618236858672629" fill="black" transform="translate(106.81962764400447 -6.618236858672629) scale(0.0001 -0.0001) rotate(-30) translate(-106.81962764400447 6.618236858672629)">13</text>
    <text x="106.82031422072558" y="-6.617944091995322" fill="black" transform="translate(106.82031422072558 -6.617944091995322) scale(0.0001 -0.0001) rotate(-30) translate(-106.82031422072558 6.617944091995322)">13</text>
    <text x="106.82806344720056" y="-6.624864664357848" fill="black" transform="translate(106.82806344720056 -6.624864664357848) scale(0.0001 -0.0001) rotate(-30) translate(-106.82806344720056 6.624864664357848)">13</text>
    <text x="106.82901" y="-6.627059" fill="black" transform="translate(106.82901 -6.627059) scale(0.0001 -0.0001) rotate(-30) translate(-106.82901 6.627059)">13</text>
    <text x="106.82786846371054" y="-6.6249207539041866" fill="black" transform="translate(106.82786846371054 -6.6249207539041866) scale(0.0001 -0.0001) rotate(-30) translate(-106.82786846371054 6.6249207539041866)">13</text>
    <text x="106.82961862254777" y="-6.6220106298165895" fill="black" transform="translate(106.82961862254777 -6.6220106298165895) scale(0.0001 -0.0001) rotate(-30) translate(-106.82961862254777 6.6220106298165895)">13</text>
    <text x="106.83373286612695" y="-6.618479420755322" fill="black" transform="translate(106.83373286612695 -6.618479420755322) scale(0.0001 -0.0001) rotate(-30) translate(-106.83373286612695 6.618479420755322)">13</text>
    <text x="106.83707137772794" y="-6.613006092141298" fill="black" transform="translate(106.83707137772794 -6.613006092141298) scale(0.0001 -0.0001) rotate(-30) translate(-106.83707137772794 6.613006092141298)">13</text>
    <text x="106.838754" y="-6.605049" fill="black" transform="translate(106.838754 -6.605049) scale(0.0001 -0.0001) rotate(-30) translate(-106.838754 6.605049)">13</text>
    <text x="106.83726062227205" y="-6.613079907858691" fill="black" transform="translate(106.83726062227205 -6.613079907858691) scale(0.0001 -0.0001) rotate(-30) translate(-106.83726062227205 6.613079907858691)">13</text>
    <text x="106.83388713387303" y="-6.618610579244692" fill="black" transform="translate(106.83388713387303 -6.618610579244692) scale(0.0001 -0.0001) rotate(-30) translate(-106.83388713387303 6.618610579244692)">13</text>
    <text x="106.8297733774522" y="-6.6221413701834315" fill="black" transform="translate(106.8297733774522 -6.6221413701834315) scale(0.0001 -0.0001) rotate(-30) translate(-106.8297733774522 6.6221413701834315)">13</text>
    <text x="106.82800545928443" y="-6.625081024079693" fill="black" transform="translate(106.82800545928443 -6.625081024079693) scale(0.0001 -0.0001) rotate(-30) translate(-106.82800545928443 6.625081024079693)">13</text>
    <text x="106.82027577927441" y="-6.618177908004678" fill="black" transform="translate(106.82027577927441 -6.618177908004678) scale(0.0001 -0.0001) rotate(-30) translate(-106.82027577927441 6.618177908004678)">13</text>
    <text x="106.81937235599554" y="-6.618563141327371" fill="black" transform="translate(106.81937235599554 -6.618563141327371) scale(0.0001 -0.0001) rotate(-30) translate(-106.81937235599554 6.618563141327371)">13</text>
    <text x="106.81845607017009" y="-6.617341426893421" fill="black" transform="translate(106.81845607017009 -6.617341426893421) scale(0.0001 -0.0001) rotate(-30) translate(-106.81845607017009 6.617341426893421)">13</text>
    <text x="106.81762062249244" y="-6.616691634255262" fill="black" transform="translate(106.81762062249244 -6.616691634255262) scale(0.0001 -0.0001) rotate(-30) translate(-106.81762062249244 6.616691634255262)">13</text>
    <text x="106.8146864963808" y="-6.616324868491308" fill="black" transform="translate(106.8146864963808 -6.616324868491308) scale(0.0001 -0.0001) rotate(-30) translate(-106.8146864963808 6.616324868491308)">13</text>
    <text x="106.815" y="-6.6175" fill="black" transform="translate(106.815 -6.6175) scale(0.0001 -0.0001) rotate(-30) translate(-106.815 6.6175)">13</text>
    <text x="106.81505669656265" y="-6.617956071750374" fill="black" transform="translate(106.81505669656265 -6.617956071750374) scale(0.0001 -0.0001) rotate(-30) translate(-106.81505669656265 6.617956071750374)">13</text>
    <text x="106.81298963924657" y="-6.6129951341917605" fill="black" transform="translate(106.81298963924657 -6.6129951341917605) scale(0.0001 -0.0001) rotate(-30) translate(-106.81298963924657 6.6129951341917605)">13</text>
    <text x="106.80865881349544" y="-6.607052838393713" fill="black" transform="translate(106.80865881349544 -6.607052838393713) scale(0.0001 -0.0001) rotate(-30) translate(-106.80865881349544 6.607052838393713)">13</text>
    <text x="106.80795840800678" y="-6.607353012174573" fill="black" transform="translate(106.80795840800678 -6.607353012174573) scale(0.0001 -0.0001) rotate(-30) translate(-106.80795840800678 6.607353012174573)">13</text>
    <text x="106.8073052786943" y="-6.606917592632921" fill="black" transform="translate(106.8073052786943 -6.606917592632921) scale(0.0001 -0.0001) rotate(-30) translate(-106.8073052786943 6.606917592632921)">13</text>
    <text x="106.80650237903352" y="-6.607032292584462" fill="black" transform="translate(106.80650237903352 -6.607032292584462) scale(0.0001 -0.0001) rotate(-30) translate(-106.80650237903352 6.607032292584462)">13</text>
    <text x="106.80558161951494" y="-6.6056" fill="black" transform="translate(106.80558161951494 -6.6056) scale(0.0001 -0.0001) rotate(-30) translate(-106.80558161951494 6.6056)">13</text>
    <text x="106.80478111261552" y="-6.6056" fill="black" transform="translate(106.80478111261552 -6.6056) scale(0.0001 -0.0001) rotate(-30) translate(-106.80478111261552 6.6056)">13</text>
    <text x="106.80397556822307" y="-6.602075743283006" fill="black" transform="translate(106.80397556822307 -6.602075743283006) scale(0.0001 -0.0001) rotate(-30) translate(-106.80397556822307 6.602075743283006)">13</text>
    <text x="106.80044147957419" y="-6.602827677038089" fill="black" transform="translate(106.80044147957419 -6.602827677038089) scale(0.0001 -0.0001) rotate(-30) translate(-106.80044147957419 6.602827677038089)">13</text>
    <text x="106.79656638729087" y="-6.604832035115668" fill="black" transform="translate(106.79656638729087 -6.604832035115668) scale(0.0001 -0.0001) rotate(-30) translate(-106.79656638729087 6.604832035115668)">13</text>
    <text x="106.7953238269235" y="-6.604003661537431" fill="black" transform="translate(106.7953238269235 -6.604003661537431) scale(0.0001 -0.0001) rotate(-30) translate(-106.7953238269235 6.604003661537431)">13</text>
    <text x="106.79279804025457" y="-6.596742024864237" fill="black" transform="translate(106.79279804025457 -6.596742024864237) scale(0.0001 -0.0001) rotate(-30) translate(-106.79279804025457 6.596742024864237)">13</text>
    <text x="106.79392772736993" y="-6.5937295258899296" fill="black" transform="translate(106.79392772736993 -6.5937295258899296) scale(0.0001 -0.0001) rotate(-30) translate(-106.79392772736993 6.5937295258899296)">13</text>
    <text x="106.79714620740836" y="-6.591941481424137" fill="black" transform="translate(106.79714620740836 -6.591941481424137) scale(0.0001 -0.0001) rotate(-30) translate(-106.79714620740836 6.591941481424137)">13</text>
    <text x="106.79837639076477" y="-6.592500655677054" fill="black" transform="translate(106.79837639076477 -6.592500655677054) scale(0.0001 -0.0001) rotate(-30) translate(-106.79837639076477 6.592500655677054)">13</text>
    <text x="106.80077129604291" y="-6.591272448247754" fill="black" transform="translate(106.80077129604291 -6.591272448247754) scale(0.0001 -0.0001) rotate(-30) translate(-106.80077129604291 6.591272448247754)">13</text>
    <text x="106.80190055740933" y="-6.591733487414491" fill="black" transform="translate(106.80190055740933 -6.591733487414491) scale(0.0001 -0.0001) rotate(-30) translate(-106.80190055740933 6.591733487414491)">13</text>
    <text x="106.80282593028703" y="-6.592438090346044" fill="black" transform="translate(106.80282593028703 -6.592438090346044) scale(0.0001 -0.0001) rotate(-30) translate(-106.80282593028703 6.592438090346044)">13</text>
    <text x="106.80542218212737" y="-6.596592093290595" fill="black" transform="translate(106.80542218212737 -6.596592093290595) scale(0.0001 -0.0001) rotate(-30) translate(-106.80542218212737 6.596592093290595)">13</text>
    <text x="106.80610207458076" y="-6.6008414211243185" fill="black" transform="translate(106.80610207458076 -6.6008414211243185) scale(0.0001 -0.0001) rotate(-30) translate(-106.80610207458076 6.6008414211243185)">13</text>
    <text x="106.80526971434105" y="-6.602006725459905" fill="black" transform="translate(106.80526971434105 -6.602006725459905) scale(0.0001 -0.0001) rotate(-30) translate(-106.80526971434105 6.602006725459905)">13</text>
    <text x="106.80672505593648" y="-6.6038778789397465" fill="black" transform="translate(106.80672505593648 -6.6038778789397465) scale(0.0001 -0.0001) rotate(-30) translate(-106.80672505593648 6.6038778789397465)">13</text>
    <text x="106.82112317729278" y="-6.595172038119659" fill="black" transform="translate(106.82112317729278 -6.595172038119659) scale(0.0001 -0.0001) rotate(-30) translate(-106.82112317729278 6.595172038119659)">13</text>
    <text x="106.80760674511967" y="-6.604633540640861" fill="black" transform="translate(106.80760674511967 -6.604633540640861) scale(0.0001 -0.0001) rotate(-30) translate(-106.80760674511967 6.604633540640861)">13</text>
    <text x="106.81013998492801" y="-6.607619144700699" fill="black" transform="translate(106.81013998492801 -6.607619144700699) scale(0.0001 -0.0001) rotate(-30) translate(-106.81013998492801 6.607619144700699)">13</text>
    <text x="106.80165287010566" y="-6.594888472467287" fill="black" transform="translate(106.80165287010566 -6.594888472467287) scale(0.0001 -0.0001) rotate(-30) translate(-106.80165287010566 6.594888472467287)">13</text>
    <text x="106.81317739762126" y="-6.612405754291037" fill="black" transform="translate(106.81317739762126 -6.612405754291037) scale(0.0001 -0.0001) rotate(-30) translate(-106.81317739762126 6.612405754291037)">13</text>
    <text x="106.81463997518956" y="-6.61591594045499" fill="black" transform="translate(106.81463997518956 -6.61591594045499) scale(0.0001 -0.0001) rotate(-30) translate(-106.81463997518956 6.61591594045499)">13</text>
    <path d="M106.81777937750755 -6.616308365744737 L106.81874392982994 -6.617058573106592 L106.81962764400447 -6.618236858672629 L106.82031422072558 -6.617944091995322 L106.82806344720056 -6.624864664357848 L106.82901 -6.627059 L106.82786846371054 -6.6249207539041866 L106.82961862254777 -6.6220106298165895 L106.83373286612695 -6.618479420755322 L106.83707137772794 -6.613006092141298 L106.838754 -6.605049 L106.83726062227205 -6.613079907858691 L106.83388713387303 -6.618610579244692 L106.8297733774522 -6.6221413701834315 L106.82800545928443 -6.625081024079693 L106.82027577927441 -6.618177908004678 L106.81937235599554 -6.618563141327371 L106.81845607017009 -6.617341426893421 L106.81762062249244 -6.616691634255262 L106.8146864963808 -6.616324868491308 L106.815 -6.6175 L106.81505669656265 -6.617956071750374 L106.81298963924657 -6.6129951341917605 L106.80865881349544 -6.607052838393713 L106.80795840800678 -6.607353012174573 L106.8073052786943 -6.606917592632921 L106.80650237903352 -6.607032292584462 L106.80558161951494 -6.6056 L106.80478111261552 -6.6056 L106.80397556822307 -6.602075743283006 L106.80044147957419 -6.602827677038089 L106.79656638729087 -6.604832035115668 L106.7953238269235 -6.604003661537431 L106.79279804025457 -6.596742024864237 L106.79392772736993 -6.5937295258899296 L106.79714620740836 -6.591941481424137 L106.79837639076477 -6.592500655677054 L106.80077129604291 -6.591272448247754 L106.80190055740933 -6.591733487414491 L106.80282593028703 -6.592438090346044 L106.80542218212737 -6.596592093290595 L106.80610207458076 -6.6008414211243185 L106.80526971434105 -6.602006725459905 L106.80672505593648 -6.6038778789397465 L106.82112317729278 -6.595172038119659 L106.80760674511967 -6.604633540640861 L106.81013998492801 -6.607619144700699 L106.80165287010566 -6.594888472467287 L106.81317739762126 -6.612405754291037 L106.81463997518956 -6.61591594045499 Z" stroke="orange" stroke-width="0.0001" fill="none" />
  </g>
</svg>
