<svg width="1049.9999999998977" height="1849.9999999999961" xmlns="http://www.w3.org/2000/svg" xmlns:xlink="http://www.w3.org/1999/xlink" >
  <g transform="translate(524.9999999999488 924.9999999999981) rotate(30) scale(10000 -10000) translate(-106.8125 6.592499999999999)">
    <path d="M106.76 -6.5 L106.865 -6.5 L106.865 -6.685 L106.76 -6.685 Z" fill="none" stroke="black" stroke-width="0.0001" transform="translate(106.8125 -6.592499999999999) rotate(30) translate(-106.8125 6.592499999999999)" />
    <text x="106.79241148419942" y="-6.591901900629836" fill="black" transform="translate(106.79241148419942 -6.591901900629836) scale(0.00002 -0.00002) rotate(-30) translate(-106.79241148419942 6.591901900629836)">12</text>
    <text x="106.79699708069057" y="-6.5918022137495935" fill="black" transform="translate(106.79699708069057 -6.5918022137495935) scale(0.00002 -0.00002) rotate(-30) translate(-106.79699708069057 6.5918022137495935)">12</text>
    <text x="106.79670097539989" y="-6.581734633866511" fill="black" transform="translate(106.79670097539989 -6.581734633866511) scale(0.00002 -0.00002) rotate(-30) translate(-106.79670097539989 6.581734633866511)">12</text>
    <text x="106.79645894380272" y="-6.581411925070293" fill="black" transform="translate(106.79645894380272 -6.581411925070293) scale(0.00002 -0.00002) rotate(-30) translate(-106.79645894380272 6.581411925070293)">12</text>
    <text x="106.79331725761816" y="-6.582128129540155" fill="black" transform="translate(106.79331725761816 -6.582128129540155) scale(0.00002 -0.00002) rotate(-30) translate(-106.79331725761816 6.582128129540155)">12</text>
    <text x="106.79318633371753" y="-6.582777789804611" fill="black" transform="translate(106.79318633371753 -6.582777789804611) scale(0.00002 -0.00002) rotate(-30) translate(-106.79318633371753 6.582777789804611)">12</text>
    <text x="106.79151138835364" y="-6.583301210230827" fill="black" transform="translate(106.79151138835364 -6.583301210230827) scale(0.00002 -0.00002) rotate(-30) translate(-106.79151138835364 6.583301210230827)">12</text>
    <text x="106.78759718917493" y="-6.582992194506193" fill="black" transform="translate(106.78759718917493 -6.582992194506193) scale(0.00002 -0.00002) rotate(-30) translate(-106.78759718917493 6.582992194506193)">12</text>
    <text x="106.78789983374386" y="-6.572904042208656" fill="black" transform="translate(106.78789983374386 -6.572904042208656) scale(0.00002 -0.00002) rotate(-30) translate(-106.78789983374386 6.572904042208656)">12</text>
    <text x="106.7877" y="-6.5702" fill="black" transform="translate(106.7877 -6.5702) scale(0.00002 -0.00002) rotate(-30) translate(-106.7877 6.5702)">12</text>
    <text x="106.78810016625613" y="-6.572895957791399" fill="black" transform="translate(106.78810016625613 -6.572895957791399) scale(0.00002 -0.00002) rotate(-30) translate(-106.78810016625613 6.572895957791399)">12</text>
    <text x="106.7878" y="-6.582901499662499" fill="black" transform="translate(106.7878 -6.582901499662499) scale(0.00002 -0.00002) rotate(-30) translate(-106.7878 6.582901499662499)">12</text>
    <text x="106.7878" y="-6.590109277520868" fill="black" transform="translate(106.7878 -6.590109277520868) scale(0.00002 -0.00002) rotate(-30) translate(-106.7878 6.590109277520868)">12</text>
    <text x="106.7908416707978" y="-6.59042393312064" fill="black" transform="translate(106.7908416707978 -6.59042393312064) scale(0.00002 -0.00002) rotate(-30) translate(-106.7908416707978 6.59042393312064)">12</text>
    <text x="106.78973557724032" y="-6.595652739028799" fill="black" transform="translate(106.78973557724032 -6.595652739028799) scale(0.00002 -0.00002) rotate(-30) translate(-106.78973557724032 6.595652739028799)">12</text>
    <text x="106.79135577645991" y="-6.5960577888337015" fill="black" transform="translate(106.79135577645991 -6.5960577888337015) scale(0.00002 -0.00002) rotate(-30) translate(-106.79135577645991 6.5960577888337015)">12</text>
    <text x="106.79239923493044" y="-6.591999894781697" fill="black" transform="translate(106.79239923493044 -6.591999894781697) scale(0.00002 -0.00002) rotate(-30) translate(-106.79239923493044 6.591999894781697)">12</text>
    <path d="M106.79241148419942 -6.591901900629836 L106.79699708069057 -6.5918022137495935 L106.79670097539989 -6.581734633866511 L106.79645894380272 -6.581411925070293 L106.79331725761816 -6.582128129540155 L106.79318633371753 -6.582777789804611 L106.79151138835364 -6.583301210230827 L106.78759718917493 -6.582992194506193 L106.78789983374386 -6.572904042208656 L106.7877 -6.5702 L106.78810016625613 -6.572895957791399 L106.7878 -6.582901499662499 L106.7878 -6.590109277520868 L106.7908416707978 -6.59042393312064 L106.78973557724032 -6.595652739028799 L106.79135577645991 -6.5960577888337015 L106.79239923493044 -6.591999894781697 Z" stroke="yellow" stroke-width="0.00002" fill="none" />
  </g>
</svg>
