<svg width="1049.9999999998977" height="1849.9999999999961" xmlns="http://www.w3.org/2000/svg" xmlns:xlink="http://www.w3.org/1999/xlink" >
  <g transform="translate(524.9999999999488 924.9999999999981) rotate(30) scale(10000 -10000) translate(-106.8125 6.592499999999999)">
    <path d="M106.76 -6.5 L106.865 -6.5 L106.865 -6.685 L106.76 -6.685 Z" fill="none" stroke="black" stroke-width="0.001" transform="translate(106.8125 -6.592499999999999) rotate(30) translate(-106.8125 6.592499999999999)" />
    <path d="M106.79574188443681 -6.6062123104918875 L106.79502770933757 -6.607908856340647 L106.79315411535231 -6.607761145021338 L106.79253261396775 -6.605571608447822 L106.79242831863425 -6.605573870274331 L106.79250304799538 -6.606764558095262 L106.79198175465704 -6.60722113230898 L106.79259708695751 -6.610918986419456 L106.7928148695953 -6.614848973110641 L106.79435761555959 -6.617336791057881 L106.79410357497481 -6.617229826601191 L106.79439886327614 -6.618794778296353 L106.79492917405253 -6.618951263443481 L106.79476647287946 -6.620511819765396 L106.79410909853273 -6.621932182655692 L106.79422843378535 -6.623224814089618 L106.79336083355686 -6.6249442208531155 L106.79181077222586 -6.626290167197912 L106.7901517460426 -6.628360481234234 L106.78900435842095 -6.629978541905774 L106.78859704406922 -6.631945696682152 L106.78717114388158 -6.632881986697847 L106.78640426178154 -6.634165455635831 L106.78629347873824 -6.635784118990797 L106.78557175370838 -6.63635338084561 L106.7855922668786 -6.63899762616764 L106.78511497634076 -6.640344903376111 L106.787238 -6.64118 L106.78459702365924 -6.640609096623889 L106.7851917331214 -6.638930373832374 L106.7851702462916 -6.636160619154388 L106.78590652126178 -6.635579881009202 L106.78601173821846 -6.634042544364168 L106.78687485611842 -6.6325980133021565 L106.78823895593077 -6.631702303317842 L106.78862964157904 -6.629815458094231 L106.78983225395737 -6.628119518765802 L106.79152122777415 -6.626011832802097 L106.79303916644314 -6.624693779146886 L106.79381956621464 -6.623147185910394 L106.79370090146726 -6.6218618173443025 L106.79437552712055 -6.620404180234616 L106.79449682594748 -6.6192407365565185 L106.79405113672385 -6.619109221703645 L106.79357242502518 -6.616572173398808 L106.79335638444041 -6.616481208942121 L106.79242113040469 -6.614973026889344 L106.79219910925977 -6.610966554410434 L106.79134337441712 -6.607084324631902 L106.79168595115515 -6.6065172283701745 L106.79157768136574 -6.604792129725669 L106.79313338603225 -6.604758391552179 L106.79377388464769 -6.6070148549786625 L106.79504181719064 -6.607114816864845 L106.79670191248923 -6.607668181964373 L106.80035962002297 -6.610817874562884 L106.80191878205379 -6.611731822456641 L106.80217412391116 -6.611169772595678 L106.80263129977148 -6.611124294368736 L106.80329308855833 -6.610389042087835 L106.80079240990952 -6.608688468047968 L106.80083419832623 -6.608449968303825 L106.80036809240974 -6.608464354288902 L106.79975584860512 -6.6079743972759415 L106.77641957977782 -6.588614936470293 L106.79693870227622 -6.604617022638541 L106.79683961269686 -6.604815201797258 Z" stroke="yellow" stroke-width="0.0002" fill="none" />
    <circle 
      cx="106.79502770933757" cy="-12.607908856340647"
      r="15" transform="translate(106.79502770933757 -6.607908856340647) scale(0.00001 -0.00001) translate(-106.79502770933757 6.607908856340647) translate(106.8125 -6.592499999999999) rotate(-30) translate(-106.8125 6.592499999999999)"
      fill="white" stroke="black" stroke-width="2"/>
    <circle 
      cx="106.79315411535231" cy="-12.607761145021339"
      r="15" transform="translate(106.79315411535231 -6.607761145021338) scale(0.00001 -0.00001) translate(-106.79315411535231 6.607761145021338) translate(106.8125 -6.592499999999999) rotate(-30) translate(-106.8125 6.592499999999999)"
      fill="white" stroke="black" stroke-width="2"/>
    <circle 
      cx="106.79198175465704" cy="-12.607221132308979"
      r="15" transform="translate(106.79198175465704 -6.60722113230898) scale(0.00001 -0.00001) translate(-106.79198175465704 6.60722113230898) translate(106.8125 -6.592499999999999) rotate(-30) translate(-106.8125 6.592499999999999)"
      fill="white" stroke="black" stroke-width="2"/>
    <circle 
      cx="106.79134337441712" cy="-12.607084324631902"
      r="15" transform="translate(106.79134337441712 -6.607084324631902) scale(0.00001 -0.00001) translate(-106.79134337441712 6.607084324631902) translate(106.8125 -6.592499999999999) rotate(-30) translate(-106.8125 6.592499999999999)"
      fill="white" stroke="black" stroke-width="2"/>
    <circle 
      cx="106.79504181719064" cy="-12.607114816864845"
      r="15" transform="translate(106.79504181719064 -6.607114816864845) scale(0.00001 -0.00001) translate(-106.79504181719064 6.607114816864845) translate(106.8125 -6.592499999999999) rotate(-30) translate(-106.8125 6.592499999999999)"
      fill="white" stroke="black" stroke-width="2"/>
    <circle 
      cx="106.80191878205379" cy="-12.61173182245664"
      r="15" transform="translate(106.80191878205379 -6.611731822456641) scale(0.00001 -0.00001) translate(-106.80191878205379 6.611731822456641) translate(106.8125 -6.592499999999999) rotate(-30) translate(-106.8125 6.592499999999999)"
      fill="white" stroke="black" stroke-width="2"/>
    <circle 
      cx="106.77641957977782" cy="-12.588614936470293"
      r="15" transform="translate(106.77641957977782 -6.588614936470293) scale(0.00001 -0.00001) translate(-106.77641957977782 6.588614936470293) translate(106.8125 -6.592499999999999) rotate(-30) translate(-106.8125 6.592499999999999)"
      fill="white" stroke="black" stroke-width="2"/>
    <circle 
      cx="106.79693870227622" cy="-12.604617022638541"
      r="15" transform="translate(106.79693870227622 -6.604617022638541) scale(0.00001 -0.00001) translate(-106.79693870227622 6.604617022638541) translate(106.8125 -6.592499999999999) rotate(-30) translate(-106.8125 6.592499999999999)"
      fill="white" stroke="black" stroke-width="2"/>
    <circle 
      cx="106.79502770933757" cy="-12.607908856340647"
      r="15" transform="translate(106.79502770933757 -6.607908856340647) scale(0.00001 -0.00001) translate(-106.79502770933757 6.607908856340647) translate(106.8125 -6.592499999999999) rotate(-30) translate(-106.8125 6.592499999999999)"
      fill="white" stroke="none"/>
    <circle 
      cx="106.79315411535231" cy="-12.607761145021339"
      r="15" transform="translate(106.79315411535231 -6.607761145021338) scale(0.00001 -0.00001) translate(-106.79315411535231 6.607761145021338) translate(106.8125 -6.592499999999999) rotate(-30) translate(-106.8125 6.592499999999999)"
      fill="white" stroke="none"/>
    <circle 
      cx="106.79198175465704" cy="-12.607221132308979"
      r="15" transform="translate(106.79198175465704 -6.60722113230898) scale(0.00001 -0.00001) translate(-106.79198175465704 6.60722113230898) translate(106.8125 -6.592499999999999) rotate(-30) translate(-106.8125 6.592499999999999)"
      fill="white" stroke="none"/>
    <circle 
      cx="106.79134337441712" cy="-12.607084324631902"
      r="15" transform="translate(106.79134337441712 -6.607084324631902) scale(0.00001 -0.00001) translate(-106.79134337441712 6.607084324631902) translate(106.8125 -6.592499999999999) rotate(-30) translate(-106.8125 6.592499999999999)"
      fill="white" stroke="none"/>
    <circle 
      cx="106.79504181719064" cy="-12.607114816864845"
      r="15" transform="translate(106.79504181719064 -6.607114816864845) scale(0.00001 -0.00001) translate(-106.79504181719064 6.607114816864845) translate(106.8125 -6.592499999999999) rotate(-30) translate(-106.8125 6.592499999999999)"
      fill="white" stroke="none"/>
    <circle 
      cx="106.80191878205379" cy="-12.61173182245664"
      r="15" transform="translate(106.80191878205379 -6.611731822456641) scale(0.00001 -0.00001) translate(-106.80191878205379 6.611731822456641) translate(106.8125 -6.592499999999999) rotate(-30) translate(-106.8125 6.592499999999999)"
      fill="white" stroke="none"/>
    <circle 
      cx="106.77641957977782" cy="-12.588614936470293"
      r="15" transform="translate(106.77641957977782 -6.588614936470293) scale(0.00001 -0.00001) translate(-106.77641957977782 6.588614936470293) translate(106.8125 -6.592499999999999) rotate(-30) translate(-106.8125 6.592499999999999)"
      fill="white" stroke="none"/>
    <circle 
      cx="106.79693870227622" cy="-12.604617022638541"
      r="15" transform="translate(106.79693870227622 -6.604617022638541) scale(0.00001 -0.00001) translate(-106.79693870227622 6.604617022638541) translate(106.8125 -6.592499999999999) rotate(-30) translate(-106.8125 6.592499999999999)"
      fill="white" stroke="none"/>
    <text x="106.79502770933757" y="-6.607908856340647" fill="black" text-anchor="middle" transform="translate(106.79502770933757 -6.607908856340647) scale(0.00001 -0.00001) translate(-106.79502770933757 6.607908856340647) translate(106.8125 -6.592499999999999) rotate(-30) translate(-106.8125 6.592499999999999)">18</text>
    <text x="106.79315411535231" y="-6.607761145021338" fill="black" text-anchor="middle" transform="translate(106.79315411535231 -6.607761145021338) scale(0.00001 -0.00001) translate(-106.79315411535231 6.607761145021338) translate(106.8125 -6.592499999999999) rotate(-30) translate(-106.8125 6.592499999999999)">18</text>
    <text x="106.79198175465704" y="-6.60722113230898" fill="black" text-anchor="middle" transform="translate(106.79198175465704 -6.60722113230898) scale(0.00001 -0.00001) translate(-106.79198175465704 6.60722113230898) translate(106.8125 -6.592499999999999) rotate(-30) translate(-106.8125 6.592499999999999)">18</text>
    <text x="106.79134337441712" y="-6.607084324631902" fill="black" text-anchor="middle" transform="translate(106.79134337441712 -6.607084324631902) scale(0.00001 -0.00001) translate(-106.79134337441712 6.607084324631902) translate(106.8125 -6.592499999999999) rotate(-30) translate(-106.8125 6.592499999999999)">18</text>
    <text x="106.79504181719064" y="-6.607114816864845" fill="black" text-anchor="middle" transform="translate(106.79504181719064 -6.607114816864845) scale(0.00001 -0.00001) translate(-106.79504181719064 6.607114816864845) translate(106.8125 -6.592499999999999) rotate(-30) translate(-106.8125 6.592499999999999)">18</text>
    <text x="106.80191878205379" y="-6.611731822456641" fill="black" text-anchor="middle" transform="translate(106.80191878205379 -6.611731822456641) scale(0.00001 -0.00001) translate(-106.80191878205379 6.611731822456641) translate(106.8125 -6.592499999999999) rotate(-30) translate(-106.8125 6.592499999999999)">18</text>
    <text x="106.77641957977782" y="-6.588614936470293" fill="black" text-anchor="middle" transform="translate(106.77641957977782 -6.588614936470293) scale(0.00001 -0.00001) translate(-106.77641957977782 6.588614936470293) translate(106.8125 -6.592499999999999) rotate(-30) translate(-106.8125 6.592499999999999)">18</text>
    <text x="106.79693870227622" y="-6.604617022638541" fill="black" text-anchor="middle" transform="translate(106.79693870227622 -6.604617022638541) scale(0.00001 -0.00001) translate(-106.79693870227622 6.604617022638541) translate(106.8125 -6.592499999999999) rotate(-30) translate(-106.8125 6.592499999999999)">18</text>
    <line x1="106.7965" y1="-6.6046" x2="106.7954" y2="-6.606" style="stroke:rgb(255,0,0);stroke-width:.00002" />
    <line x1="106.79681452733553" y1="-6.604847128620771" x2="106.79571452733553" y2="-6.606247128620772" style="stroke:rgb(0,0,0);stroke-width:.00002" />
    <circle cx="106.7965" cy="-6.6046" fill="rgb(255,0,0)" r=".0001" />
    <text x="106.7965" y="-6.6046" stroke="rgb(0,0,0)" transform="translate(106.7965 -6.6046),scale(0.00001 -0.00001),translate(-106.7965 6.6046),translate(106.8125 -6.592499999999999),rotate(-30),translate(-106.8125 6.592499999999999)" >btm-3</text>
    <line x1="106.7954" y1="-6.606" x2="106.7949" y2="-6.6077" style="stroke:rgb(255,0,0);stroke-width:.00002" />
    <line x1="106.79578374620063" y1="-6.606112866529597" x2="106.79509187310032" y2="-6.607756433264799" style="stroke:rgb(0,0,0);stroke-width:.00002" />
    <circle cx="106.7954" cy="-6.606" fill="rgb(255,0,0)" r=".0001" />
    <text x="106.7954" y="-6.606" stroke="rgb(0,0,0)" transform="translate(106.7954 -6.606),scale(0.00001 -0.00001),translate(-106.7954 6.606),translate(106.8125 -6.592499999999999),rotate(-30),translate(-106.8125 6.592499999999999)" >halte-empang</text>
    <line x1="106.7949" y1="-6.6077" x2="106.793464" y2="-6.607388" style="stroke:rgb(255,0,0);stroke-width:.00002" />
    <line x1="106.79485753667292" y1="-6.60789544018485" x2="106.79337907334586" y2="-6.6077788803696995" style="stroke:rgb(0,0,0);stroke-width:.00002" />
    <circle cx="106.7949" cy="-6.6077" fill="rgb(255,0,0)" r=".0001" />
    <text x="106.7949" y="-6.6077" stroke="rgb(0,0,0)" transform="translate(106.7949 -6.6077),scale(0.00001 -0.00001),translate(-106.7949 6.6077),translate(106.8125 -6.592499999999999),rotate(-30),translate(-106.8125 6.592499999999999)" >pahlawan-empang</text>
    <line x1="106.793464" y1="-6.607388" x2="106.792833" y2="-6.605165" style="stroke:rgb(255,0,0);stroke-width:.00002" />
    <line x1="106.79307920156361" y1="-6.607497225287161" x2="106.79244820156362" y2="-6.605274225287161" style="stroke:rgb(0,0,0);stroke-width:.00002" />
    <circle cx="106.793464" cy="-6.607388" fill="rgb(255,0,0)" r=".0001" />
    <text x="106.793464" y="-6.607388" stroke="rgb(0,0,0)" transform="translate(106.793464 -6.607388),scale(0.00001 -0.00001),translate(-106.793464 6.607388),translate(106.8125 -6.592499999999999),rotate(-30),translate(-106.8125 6.592499999999999)" >sedane-pahlawan-empang</text>
    <line x1="106.792833" y1="-6.605165" x2="106.792003" y2="-6.605183" style="stroke:rgb(255,0,0);stroke-width:.00002" />
    <line x1="106.79284167265959" y1="-6.6055649059701675" x2="106.79201167265958" y2="-6.605582905970167" style="stroke:rgb(0,0,0);stroke-width:.00002" />
    <circle cx="106.792833" cy="-6.605165" fill="rgb(255,0,0)" r=".0001" />
    <text x="106.792833" y="-6.605165" stroke="rgb(0,0,0)" transform="translate(106.792833 -6.605165),scale(0.00001 -0.00001),translate(-106.792833 6.605165),translate(106.8125 -6.592499999999999),rotate(-30),translate(-106.8125 6.592499999999999)" >empang-1</text>
    <line x1="106.792003" y1="-6.605183" x2="106.792093" y2="-6.606617" style="stroke:rgb(255,0,0);stroke-width:.00002" />
    <line x1="106.79240221451842" y1="-6.605157944695497" x2="106.79249221451842" y2="-6.606591944695497" style="stroke:rgb(0,0,0);stroke-width:.00002" />
    <circle cx="106.792003" cy="-6.605183" fill="rgb(255,0,0)" r=".0001" />
    <text x="106.792003" y="-6.605183" stroke="rgb(0,0,0)" transform="translate(106.792003 -6.605183),scale(0.00001 -0.00001),translate(-106.792003 6.605183),translate(106.8125 -6.592499999999999),rotate(-30),translate(-106.8125 6.592499999999999)" >empang-2</text>
    <line x1="106.792093" y1="-6.606617" x2="106.791768" y2="-6.607155" style="stroke:rgb(255,0,0);stroke-width:.00002" />
    <line x1="106.79243537795251" y1="-6.606823826830047" x2="106.79193918897627" y2="-6.607258413415024" style="stroke:rgb(0,0,0);stroke-width:.00002" />
    <circle cx="106.792093" cy="-6.606617" fill="rgb(255,0,0)" r=".0001" />
    <text x="106.792093" y="-6.606617" stroke="rgb(0,0,0)" transform="translate(106.792093 -6.606617),scale(0.00001 -0.00001),translate(-106.792093 6.606617),translate(106.8125 -6.592499999999999),rotate(-30),translate(-106.8125 6.592499999999999)" >empang-3</text>
    <line x1="106.791768" y1="-6.607155" x2="106.792398" y2="-6.610941" style="stroke:rgb(255,0,0);stroke-width:.00002" />
    <line x1="106.79196528722848" y1="-6.60712217090493" x2="106.79259528722848" y2="-6.61090817090493" style="stroke:rgb(0,0,0);stroke-width:.00002" />
    <circle cx="106.791768" cy="-6.607155" fill="rgb(255,0,0)" r=".0001" />
    <text x="106.791768" y="-6.607155" stroke="rgb(0,0,0)" transform="translate(106.791768 -6.607155),scale(0.00001 -0.00001),translate(-106.791768 6.607155),translate(106.8125 -6.592499999999999),rotate(-30),translate(-106.8125 6.592499999999999)" >empang-suryalaga-kapten</text>
    <line x1="106.792398" y1="-6.610941" x2="106.792618" y2="-6.614911" style="stroke:rgb(255,0,0);stroke-width:.00002" />
    <line x1="106.79259769361641" y1="-6.610929933855011" x2="106.79281769361641" y2="-6.6148999338550105" style="stroke:rgb(0,0,0);stroke-width:.00002" />
    <circle cx="106.792398" cy="-6.610941" fill="rgb(255,0,0)" r=".0001" />
    <text x="106.792398" y="-6.610941" stroke="rgb(0,0,0)" transform="translate(106.792398 -6.610941),scale(0.00001 -0.00001),translate(-106.792398 6.610941),translate(106.8125 -6.592499999999999),rotate(-30),translate(-106.8125 6.592499999999999)" >kapten-Y</text>
    <line x1="106.792618" y1="-6.614911" x2="106.793857" y2="-6.616909" style="stroke:rgb(255,0,0);stroke-width:.00002" />
    <line x1="106.79278797139402" y1="-6.614805597318731" x2="106.79402697139402" y2="-6.6168035973187305" style="stroke:rgb(0,0,0);stroke-width:.00002" />
    <circle cx="106.792618" cy="-6.614911" fill="rgb(255,0,0)" r=".0001" />
    <text x="106.792618" y="-6.614911" stroke="rgb(0,0,0)" transform="translate(106.792618 -6.614911),scale(0.00001 -0.00001),translate(-106.792618 6.614911),translate(106.8125 -6.592499999999999),rotate(-30),translate(-106.8125 6.592499999999999)" >to-cibeureum-1</text>
    <line x1="106.793857" y1="-6.616909" x2="106.793838" y2="-6.616901" style="stroke:rgb(255,0,0);stroke-width:.00002" />
    <line x1="106.79377938860003" y1="-6.617093327075042" x2="106.79376038860002" y2="-6.617085327075043" style="stroke:rgb(0,0,0);stroke-width:.00002" />
    <circle cx="106.793857" cy="-6.616909" fill="rgb(255,0,0)" r=".0001" />
    <text x="106.793857" y="-6.616909" stroke="rgb(0,0,0)" transform="translate(106.793857 -6.616909),scale(0.00001 -0.00001),translate(-106.793857 6.616909),translate(106.8125 -6.592499999999999),rotate(-30),translate(-106.8125 6.592499999999999)" >to-cibeureum-2</text>
    <line x1="106.793838" y1="-6.616901" x2="106.794225" y2="-6.618952" style="stroke:rgb(255,0,0);stroke-width:.00002" />
    <line x1="106.79403453200133" y1="-6.616863916682341" x2="106.79442153200134" y2="-6.618914916682341" style="stroke:rgb(0,0,0);stroke-width:.00002" />
    <circle cx="106.793838" cy="-6.616901" fill="rgb(255,0,0)" r=".0001" />
    <text x="106.793838" y="-6.616901" stroke="rgb(0,0,0)" transform="translate(106.793838 -6.616901),scale(0.00001 -0.00001),translate(-106.793838 6.616901),translate(106.8125 -6.592499999999999),rotate(-30),translate(-106.8125 6.592499999999999)" >to-cibeureum-3</text>
    <line x1="106.794225" y1="-6.618952" x2="106.794713" y2="-6.619096" style="stroke:rgb(255,0,0);stroke-width:.00002" />
    <line x1="106.79428160349372" y1="-6.618760177049081" x2="106.79476960349372" y2="-6.618904177049081" style="stroke:rgb(0,0,0);stroke-width:.00002" />
    <circle cx="106.794225" cy="-6.618952" fill="rgb(255,0,0)" r=".0001" />
    <text x="106.794225" y="-6.618952" stroke="rgb(0,0,0)" transform="translate(106.794225 -6.618952),scale(0.00001 -0.00001),translate(-106.794225 6.618952),translate(106.8125 -6.592499999999999),rotate(-30),translate(-106.8125 6.592499999999999)" >to-cibeureum-4</text>
    <line x1="106.794713" y1="-6.619096" x2="106.794571" y2="-6.620458" style="stroke:rgb(255,0,0);stroke-width:.00002" />
    <line x1="106.79491192179967" y1="-6.619116739277204" x2="106.79476992179967" y2="-6.620478739277204" style="stroke:rgb(0,0,0);stroke-width:.00002" />
    <circle cx="106.794713" cy="-6.619096" fill="rgb(255,0,0)" r=".0001" />
    <text x="106.794713" y="-6.619096" stroke="rgb(0,0,0)" transform="translate(106.794713 -6.619096),scale(0.00001 -0.00001),translate(-106.794713 6.619096),translate(106.8125 -6.592499999999999),rotate(-30),translate(-106.8125 6.592499999999999)" >jl-cibeureum-1</text>
    <line x1="106.794571" y1="-6.620458" x2="106.793905" y2="-6.621897" style="stroke:rgb(255,0,0);stroke-width:.00002" />
    <line x1="106.79475250317577" y1="-6.620542003554597" x2="106.79408650317576" y2="-6.6219810035545965" style="stroke:rgb(0,0,0);stroke-width:.00002" />
    <circle cx="106.794571" cy="-6.620458" fill="rgb(255,0,0)" r=".0001" />
    <text x="106.794571" y="-6.620458" stroke="rgb(0,0,0)" transform="translate(106.794571 -6.620458),scale(0.00001 -0.00001),translate(-106.794571 6.620458),translate(106.8125 -6.592499999999999),rotate(-30),translate(-106.8125 6.592499999999999)" >jl-cibeureum-2</text>
    <line x1="106.793905" y1="-6.621897" x2="106.794024" y2="-6.623186" style="stroke:rgb(255,0,0);stroke-width:.00002" />
    <line x1="106.79410415311823" y1="-6.621878614258286" x2="106.79422315311822" y2="-6.623167614258286" style="stroke:rgb(0,0,0);stroke-width:.00002" />
    <circle cx="106.793905" cy="-6.621897" fill="rgb(255,0,0)" r=".0001" />
    <text x="106.793905" y="-6.621897" stroke="rgb(0,0,0)" transform="translate(106.793905 -6.621897),scale(0.00001 -0.00001),translate(-106.793905 6.621897),translate(106.8125 -6.592499999999999),rotate(-30),translate(-106.8125 6.592499999999999)" >jl-cibeureum-3</text>
    <line x1="106.794024" y1="-6.623186" x2="106.7932" y2="-6.624819" style="stroke:rgb(255,0,0);stroke-width:.00002" />
    <line x1="106.79420255620784" y1="-6.623276098172236" x2="106.79337855620784" y2="-6.624909098172236" style="stroke:rgb(0,0,0);stroke-width:.00002" />
    <circle cx="106.794024" cy="-6.623186" fill="rgb(255,0,0)" r=".0001" />
    <text x="106.794024" y="-6.623186" stroke="rgb(0,0,0)" transform="translate(106.794024 -6.623186),scale(0.00001 -0.00001),translate(-106.794024 6.623186),translate(106.8125 -6.592499999999999),rotate(-30),translate(-106.8125 6.592499999999999)" >jl-cibeureum--over-river</text>
    <line x1="106.7932" y1="-6.624819" x2="106.791666" y2="-6.626151" style="stroke:rgb(255,0,0);stroke-width:.00002" />
    <line x1="106.79333112846966" y1="-6.624970014318668" x2="106.79179712846967" y2="-6.626302014318669" style="stroke:rgb(0,0,0);stroke-width:.00002" />
    <circle cx="106.7932" cy="-6.624819" fill="rgb(255,0,0)" r=".0001" />
    <text x="106.7932" y="-6.624819" stroke="rgb(0,0,0)" transform="translate(106.7932 -6.624819),scale(0.00001 -0.00001),translate(-106.7932 6.624819),translate(106.8125 -6.592499999999999),rotate(-30),translate(-106.8125 6.592499999999999)" >jl-cibeureum-4</text>
    <line x1="106.791666" y1="-6.626151" x2="106.789992" y2="-6.62824" style="stroke:rgb(255,0,0);stroke-width:.00002" />
    <line x1="106.79182207166527" y1="-6.62627606652352" x2="106.79014807166526" y2="-6.62836506652352" style="stroke:rgb(0,0,0);stroke-width:.00002" />
    <circle cx="106.791666" cy="-6.626151" fill="rgb(255,0,0)" r=".0001" />
    <text x="106.791666" y="-6.626151" stroke="rgb(0,0,0)" transform="translate(106.791666 -6.626151),scale(0.00001 -0.00001),translate(-106.791666 6.626151),translate(106.8125 -6.592499999999999),rotate(-30),translate(-106.8125 6.592499999999999)" >jl-cibeureum-5</text>
    <line x1="106.789992" y1="-6.62824" x2="106.788817" y2="-6.629897" style="stroke:rgb(255,0,0);stroke-width:.00002" />
    <line x1="106.79015514488886" y1="-6.628355688137847" x2="106.78898014488885" y2="-6.630012688137847" style="stroke:rgb(0,0,0);stroke-width:.00002" />
    <circle cx="106.789992" cy="-6.62824" fill="rgb(255,0,0)" r=".0001" />
    <text x="106.789992" y="-6.62824" stroke="rgb(0,0,0)" transform="translate(106.789992 -6.62824),scale(0.00001 -0.00001),translate(-106.789992 6.62824),translate(106.8125 -6.592499999999999),rotate(-30),translate(-106.8125 6.592499999999999)" >jl-cibeureum-mekar-sari</text>
    <line x1="106.788817" y1="-6.629897" x2="106.788418" y2="-6.631824" style="stroke:rgb(255,0,0);stroke-width:.00002" />
    <line x1="106.78901284582369" y1="-6.629937551366711" x2="106.78861384582369" y2="-6.631864551366712" style="stroke:rgb(0,0,0);stroke-width:.00002" />
    <circle cx="106.788817" cy="-6.629897" fill="rgb(255,0,0)" r=".0001" />
    <text x="106.788817" y="-6.629897" stroke="rgb(0,0,0)" transform="translate(106.788817 -6.629897),scale(0.00001 -0.00001),translate(-106.788817 6.629897),translate(106.8125 -6.592499999999999),rotate(-30),translate(-106.8125 6.592499999999999)" >jl-cibeureum-meander</text>
    <line x1="106.788418" y1="-6.631824" x2="106.787023" y2="-6.63274" style="stroke:rgb(255,0,0);stroke-width:.00002" />
    <line x1="106.78852777578567" y1="-6.63199118037229" x2="106.78713277578568" y2="-6.63290718037229" style="stroke:rgb(0,0,0);stroke-width:.00002" />
    <circle cx="106.788418" cy="-6.631824" fill="rgb(255,0,0)" r=".0001" />
    <text x="106.788418" y="-6.631824" stroke="rgb(0,0,0)" transform="translate(106.788418 -6.631824),scale(0.00001 -0.00001),translate(-106.788418 6.631824),translate(106.8125 -6.592499999999999),rotate(-30),translate(-106.8125 6.592499999999999)" >jl-cibeureum-smallsideroad</text>
    <line x1="106.787023" y1="-6.63274" x2="106.786208" y2="-6.634104" style="stroke:rgb(255,0,0);stroke-width:.00002" />
    <line x1="106.78719468710192" y1="-6.632842584302097" x2="106.78637968710191" y2="-6.634206584302096" style="stroke:rgb(0,0,0);stroke-width:.00002" />
    <circle cx="106.787023" cy="-6.63274" fill="rgb(255,0,0)" r=".0001" />
    <text x="106.787023" y="-6.63274" stroke="rgb(0,0,0)" transform="translate(106.787023 -6.63274),scale(0.00001 -0.00001),translate(-106.787023 6.63274),translate(106.8125 -6.592499999999999),rotate(-30),translate(-106.8125 6.592499999999999)" >jl-cibeureum-backatriver</text>
    <line x1="106.786208" y1="-6.634104" x2="106.7861" y2="-6.635682" style="stroke:rgb(255,0,0);stroke-width:.00002" />
    <line x1="106.7864075332213" y1="-6.634117656266095" x2="106.7862995332213" y2="-6.635695656266095" style="stroke:rgb(0,0,0);stroke-width:.00002" />
    <circle cx="106.786208" cy="-6.634104" fill="rgb(255,0,0)" r=".0001" />
    <text x="106.786208" y="-6.634104" stroke="rgb(0,0,0)" transform="translate(106.786208 -6.634104),scale(0.00001 -0.00001),translate(-106.786208 6.634104),translate(106.8125 -6.592499999999999),rotate(-30),translate(-106.8125 6.592499999999999)" >jl-cibeureum-backatriveragain</text>
    <line x1="106.7861" y1="-6.635682" x2="106.785371" y2="-6.636257" style="stroke:rgb(255,0,0);stroke-width:.00002" />
    <line x1="106.7862238590036" y1="-6.6358390316758715" x2="106.78549485900359" y2="-6.636414031675871" style="stroke:rgb(0,0,0);stroke-width:.00002" />
    <circle cx="106.7861" cy="-6.635682" fill="rgb(255,0,0)" r=".0001" />
    <text x="106.7861" y="-6.635682" stroke="rgb(0,0,0)" transform="translate(106.7861 -6.635682),scale(0.00001 -0.00001),translate(-106.7861 6.635682),translate(106.8125 -6.592499999999999),rotate(-30),translate(-106.8125 6.592499999999999)" >jl-cibeureum-riverbendsright</text>
    <line x1="106.785371" y1="-6.636257" x2="106.785392" y2="-6.638964" style="stroke:rgb(255,0,0);stroke-width:.00002" />
    <line x1="106.78557099398213" y1="-6.636255448513621" x2="106.78559199398214" y2="-6.638962448513621" style="stroke:rgb(0,0,0);stroke-width:.00002" />
    <circle cx="106.785371" cy="-6.636257" fill="rgb(255,0,0)" r=".0001" />
    <text x="106.785371" y="-6.636257" stroke="rgb(0,0,0)" transform="translate(106.785371 -6.636257),scale(0.00001 -0.00001),translate(-106.785371 6.636257),translate(106.8125 -6.592499999999999),rotate(-30),translate(-106.8125 6.592499999999999)" >jl-cibeureum-riverbendsleft</text>
    <line x1="106.785392" y1="-6.638964" x2="106.784856" y2="-6.640477" style="stroke:rgb(255,0,0);stroke-width:.00002" />
    <line x1="106.78558051972611" y1="-6.63903078557382" x2="106.78504451972611" y2="-6.64054378557382" style="stroke:rgb(0,0,0);stroke-width:.00002" />
    <circle cx="106.785392" cy="-6.638964" fill="rgb(255,0,0)" r=".0001" />
    <text x="106.785392" y="-6.638964" stroke="rgb(0,0,0)" transform="translate(106.785392 -6.638964),scale(0.00001 -0.00001),translate(-106.785392 6.638964),translate(106.8125 -6.592499999999999),rotate(-30),translate(-106.8125 6.592499999999999)" >jl-cibeureum-lastbend</text>
    <line x1="106.784856" y1="-6.640477" x2="106.787238" y2="-6.64118" style="stroke:rgb(255,0,0);stroke-width:.00002" />
    <line x1="106.78491261199451" y1="-6.640285179557717" x2="106.78729461199451" y2="-6.640988179557717" style="stroke:rgb(0,0,0);stroke-width:.00002" />
    <circle cx="106.784856" cy="-6.640477" fill="rgb(255,0,0)" r=".0001" />
    <text x="106.784856" y="-6.640477" stroke="rgb(0,0,0)" transform="translate(106.784856 -6.640477),scale(0.00001 -0.00001),translate(-106.784856 6.640477),translate(106.8125 -6.592499999999999),rotate(-30),translate(-106.8125 6.592499999999999)" >jl-cibeureum-harmony</text>
    <line x1="106.787238" y1="-6.64118" x2="106.784856" y2="-6.640477" style="stroke:rgb(255,0,0);stroke-width:.00002" />
    <line x1="106.7871813880055" y1="-6.641371820442283" x2="106.7847993880055" y2="-6.640668820442283" style="stroke:rgb(0,0,0);stroke-width:.00002" />
    <circle cx="106.787238" cy="-6.64118" fill="rgb(255,0,0)" r=".0001" />
    <text x="106.787238" y="-6.64118" stroke="rgb(0,0,0)" transform="translate(106.787238 -6.64118),scale(0.00001 -0.00001),translate(-106.787238 6.64118),translate(106.8125 -6.592499999999999),rotate(-30),translate(-106.8125 6.592499999999999)" >jl-junglefest</text>
    <line x1="106.784856" y1="-6.640477" x2="106.785392" y2="-6.638964" style="stroke:rgb(255,0,0);stroke-width:.00002" />
    <line x1="106.7846674802739" y1="-6.640410214426179" x2="106.78520348027389" y2="-6.638897214426179" style="stroke:rgb(0,0,0);stroke-width:.00002" />
    <circle cx="106.784856" cy="-6.640477" fill="rgb(255,0,0)" r=".0001" />
    <text x="106.784856" y="-6.640477" stroke="rgb(0,0,0)" transform="translate(106.784856 -6.640477),scale(0.00001 -0.00001),translate(-106.784856 6.640477),translate(106.8125 -6.592499999999999),rotate(-30),translate(-106.8125 6.592499999999999)" >jl-cibeureum-harmony</text>
    <line x1="106.785392" y1="-6.638964" x2="106.785371" y2="-6.636257" style="stroke:rgb(255,0,0);stroke-width:.00002" />
    <line x1="106.78519200601787" y1="-6.638965551486378" x2="106.78517100601786" y2="-6.636258551486378" style="stroke:rgb(0,0,0);stroke-width:.00002" />
    <circle cx="106.785392" cy="-6.638964" fill="rgb(255,0,0)" r=".0001" />
    <text x="106.785392" y="-6.638964" stroke="rgb(0,0,0)" transform="translate(106.785392 -6.638964),scale(0.00001 -0.00001),translate(-106.785392 6.638964),translate(106.8125 -6.592499999999999),rotate(-30),translate(-106.8125 6.592499999999999)" >jl-cibeureum-lastbend</text>
    <line x1="106.785371" y1="-6.636257" x2="106.7861" y2="-6.635682" style="stroke:rgb(255,0,0);stroke-width:.00002" />
    <line x1="106.7852471409964" y1="-6.636099968324128" x2="106.78597614099641" y2="-6.635524968324129" style="stroke:rgb(0,0,0);stroke-width:.00002" />
    <circle cx="106.785371" cy="-6.636257" fill="rgb(255,0,0)" r=".0001" />
    <text x="106.785371" y="-6.636257" stroke="rgb(0,0,0)" transform="translate(106.785371 -6.636257),scale(0.00001 -0.00001),translate(-106.785371 6.636257),translate(106.8125 -6.592499999999999),rotate(-30),translate(-106.8125 6.592499999999999)" >jl-cibeureum-riverbendsleft</text>
    <line x1="106.7861" y1="-6.635682" x2="106.786208" y2="-6.634104" style="stroke:rgb(255,0,0);stroke-width:.00002" />
    <line x1="106.78590046677871" y1="-6.635668343733905" x2="106.78600846677871" y2="-6.634090343733905" style="stroke:rgb(0,0,0);stroke-width:.00002" />
    <circle cx="106.7861" cy="-6.635682" fill="rgb(255,0,0)" r=".0001" />
    <text x="106.7861" y="-6.635682" stroke="rgb(0,0,0)" transform="translate(106.7861 -6.635682),scale(0.00001 -0.00001),translate(-106.7861 6.635682),translate(106.8125 -6.592499999999999),rotate(-30),translate(-106.8125 6.592499999999999)" >jl-cibeureum-riverbendsright</text>
    <line x1="106.786208" y1="-6.634104" x2="106.787023" y2="-6.63274" style="stroke:rgb(255,0,0);stroke-width:.00002" />
    <line x1="106.78603631289809" y1="-6.634001415697903" x2="106.7868513128981" y2="-6.6326374156979035" style="stroke:rgb(0,0,0);stroke-width:.00002" />
    <circle cx="106.786208" cy="-6.634104" fill="rgb(255,0,0)" r=".0001" />
    <text x="106.786208" y="-6.634104" stroke="rgb(0,0,0)" transform="translate(106.786208 -6.634104),scale(0.00001 -0.00001),translate(-106.786208 6.634104),translate(106.8125 -6.592499999999999),rotate(-30),translate(-106.8125 6.592499999999999)" >jl-cibeureum-backatriveragain</text>
    <line x1="106.787023" y1="-6.63274" x2="106.788418" y2="-6.631824" style="stroke:rgb(255,0,0);stroke-width:.00002" />
    <line x1="106.78691322421433" y1="-6.63257281962771" x2="106.78830822421432" y2="-6.63165681962771" style="stroke:rgb(0,0,0);stroke-width:.00002" />
    <circle cx="106.787023" cy="-6.63274" fill="rgb(255,0,0)" r=".0001" />
    <text x="106.787023" y="-6.63274" stroke="rgb(0,0,0)" transform="translate(106.787023 -6.63274),scale(0.00001 -0.00001),translate(-106.787023 6.63274),translate(106.8125 -6.592499999999999),rotate(-30),translate(-106.8125 6.592499999999999)" >jl-cibeureum-backatriver</text>
    <line x1="106.788418" y1="-6.631824" x2="106.788817" y2="-6.629897" style="stroke:rgb(255,0,0);stroke-width:.00002" />
    <line x1="106.7882221541763" y1="-6.631783448633288" x2="106.7886211541763" y2="-6.629856448633288" style="stroke:rgb(0,0,0);stroke-width:.00002" />
    <circle cx="106.788418" cy="-6.631824" fill="rgb(255,0,0)" r=".0001" />
    <text x="106.788418" y="-6.631824" stroke="rgb(0,0,0)" transform="translate(106.788418 -6.631824),scale(0.00001 -0.00001),translate(-106.788418 6.631824),translate(106.8125 -6.592499999999999),rotate(-30),translate(-106.8125 6.592499999999999)" >jl-cibeureum-smallsideroad</text>
    <line x1="106.788817" y1="-6.629897" x2="106.789992" y2="-6.62824" style="stroke:rgb(255,0,0);stroke-width:.00002" />
    <line x1="106.78865385511114" y1="-6.6297813118621525" x2="106.78982885511114" y2="-6.628124311862153" style="stroke:rgb(0,0,0);stroke-width:.00002" />
    <circle cx="106.788817" cy="-6.629897" fill="rgb(255,0,0)" r=".0001" />
    <text x="106.788817" y="-6.629897" stroke="rgb(0,0,0)" transform="translate(106.788817 -6.629897),scale(0.00001 -0.00001),translate(-106.788817 6.629897),translate(106.8125 -6.592499999999999),rotate(-30),translate(-106.8125 6.592499999999999)" >jl-cibeureum-meander</text>
    <line x1="106.789992" y1="-6.62824" x2="106.791666" y2="-6.626151" style="stroke:rgb(255,0,0);stroke-width:.00002" />
    <line x1="106.78983592833474" y1="-6.62811493347648" x2="106.79150992833475" y2="-6.62602593347648" style="stroke:rgb(0,0,0);stroke-width:.00002" />
    <circle cx="106.789992" cy="-6.62824" fill="rgb(255,0,0)" r=".0001" />
    <text x="106.789992" y="-6.62824" stroke="rgb(0,0,0)" transform="translate(106.789992 -6.62824),scale(0.00001 -0.00001),translate(-106.789992 6.62824),translate(106.8125 -6.592499999999999),rotate(-30),translate(-106.8125 6.592499999999999)" >jl-cibeureum-mekar-sari</text>
    <line x1="106.791666" y1="-6.626151" x2="106.7932" y2="-6.624819" style="stroke:rgb(255,0,0);stroke-width:.00002" />
    <line x1="106.79153487153035" y1="-6.625999985681331" x2="106.79306887153034" y2="-6.624667985681331" style="stroke:rgb(0,0,0);stroke-width:.00002" />
    <circle cx="106.791666" cy="-6.626151" fill="rgb(255,0,0)" r=".0001" />
    <text x="106.791666" y="-6.626151" stroke="rgb(0,0,0)" transform="translate(106.791666 -6.626151),scale(0.00001 -0.00001),translate(-106.791666 6.626151),translate(106.8125 -6.592499999999999),rotate(-30),translate(-106.8125 6.592499999999999)" >jl-cibeureum-5</text>
    <line x1="106.7932" y1="-6.624819" x2="106.794024" y2="-6.623186" style="stroke:rgb(255,0,0);stroke-width:.00002" />
    <line x1="106.79302144379216" y1="-6.624728901827763" x2="106.79384544379215" y2="-6.623095901827763" style="stroke:rgb(0,0,0);stroke-width:.00002" />
    <circle cx="106.7932" cy="-6.624819" fill="rgb(255,0,0)" r=".0001" />
    <text x="106.7932" y="-6.624819" stroke="rgb(0,0,0)" transform="translate(106.7932 -6.624819),scale(0.00001 -0.00001),translate(-106.7932 6.624819),translate(106.8125 -6.592499999999999),rotate(-30),translate(-106.8125 6.592499999999999)" >jl-cibeureum-4</text>
    <line x1="106.794024" y1="-6.623186" x2="106.793905" y2="-6.621897" style="stroke:rgb(255,0,0);stroke-width:.00002" />
    <line x1="106.79382484688176" y1="-6.6232043857417136" x2="106.79370584688176" y2="-6.621915385741714" style="stroke:rgb(0,0,0);stroke-width:.00002" />
    <circle cx="106.794024" cy="-6.623186" fill="rgb(255,0,0)" r=".0001" />
    <text x="106.794024" y="-6.623186" stroke="rgb(0,0,0)" transform="translate(106.794024 -6.623186),scale(0.00001 -0.00001),translate(-106.794024 6.623186),translate(106.8125 -6.592499999999999),rotate(-30),translate(-106.8125 6.592499999999999)" >jl-cibeureum--over-river</text>
    <line x1="106.793905" y1="-6.621897" x2="106.794571" y2="-6.620458" style="stroke:rgb(255,0,0);stroke-width:.00002" />
    <line x1="106.79372349682423" y1="-6.621812996445403" x2="106.79438949682424" y2="-6.620373996445403" style="stroke:rgb(0,0,0);stroke-width:.00002" />
    <circle cx="106.793905" cy="-6.621897" fill="rgb(255,0,0)" r=".0001" />
    <text x="106.793905" y="-6.621897" stroke="rgb(0,0,0)" transform="translate(106.793905 -6.621897),scale(0.00001 -0.00001),translate(-106.793905 6.621897),translate(106.8125 -6.592499999999999),rotate(-30),translate(-106.8125 6.592499999999999)" >jl-cibeureum-3</text>
    <line x1="106.794571" y1="-6.620458" x2="106.794713" y2="-6.619096" style="stroke:rgb(255,0,0);stroke-width:.00002" />
    <line x1="106.79437207820034" y1="-6.620437260722796" x2="106.79451407820034" y2="-6.619075260722796" style="stroke:rgb(0,0,0);stroke-width:.00002" />
    <circle cx="106.794571" cy="-6.620458" fill="rgb(255,0,0)" r=".0001" />
    <text x="106.794571" y="-6.620458" stroke="rgb(0,0,0)" transform="translate(106.794571 -6.620458),scale(0.00001 -0.00001),translate(-106.794571 6.620458),translate(106.8125 -6.592499999999999),rotate(-30),translate(-106.8125 6.592499999999999)" >jl-cibeureum-2</text>
    <line x1="106.794713" y1="-6.619096" x2="106.794225" y2="-6.618952" style="stroke:rgb(255,0,0);stroke-width:.00002" />
    <line x1="106.79465639650628" y1="-6.619287822950919" x2="106.79416839650628" y2="-6.619143822950919" style="stroke:rgb(0,0,0);stroke-width:.00002" />
    <circle cx="106.794713" cy="-6.619096" fill="rgb(255,0,0)" r=".0001" />
    <text x="106.794713" y="-6.619096" stroke="rgb(0,0,0)" transform="translate(106.794713 -6.619096),scale(0.00001 -0.00001),translate(-106.794713 6.619096),translate(106.8125 -6.592499999999999),rotate(-30),translate(-106.8125 6.592499999999999)" >jl-cibeureum-1</text>
    <line x1="106.794225" y1="-6.618952" x2="106.793838" y2="-6.616901" style="stroke:rgb(255,0,0);stroke-width:.00002" />
    <line x1="106.79402846799866" y1="-6.6189890833176594" x2="106.79364146799865" y2="-6.61693808331766" style="stroke:rgb(0,0,0);stroke-width:.00002" />
    <circle cx="106.794225" cy="-6.618952" fill="rgb(255,0,0)" r=".0001" />
    <text x="106.794225" y="-6.618952" stroke="rgb(0,0,0)" transform="translate(106.794225 -6.618952),scale(0.00001 -0.00001),translate(-106.794225 6.618952),translate(106.8125 -6.592499999999999),rotate(-30),translate(-106.8125 6.592499999999999)" >to-cibeureum-4</text>
    <line x1="106.793838" y1="-6.616901" x2="106.793857" y2="-6.616909" style="stroke:rgb(255,0,0);stroke-width:.00002" />
    <line x1="106.79391561139997" y1="-6.616716672924958" x2="106.79393461139998" y2="-6.616724672924957" style="stroke:rgb(0,0,0);stroke-width:.00002" />
    <circle cx="106.793838" cy="-6.616901" fill="rgb(255,0,0)" r=".0001" />
    <text x="106.793838" y="-6.616901" stroke="rgb(0,0,0)" transform="translate(106.793838 -6.616901),scale(0.00001 -0.00001),translate(-106.793838 6.616901),translate(106.8125 -6.592499999999999),rotate(-30),translate(-106.8125 6.592499999999999)" >to-cibeureum-3</text>
    <line x1="106.793857" y1="-6.616909" x2="106.792618" y2="-6.614911" style="stroke:rgb(255,0,0);stroke-width:.00002" />
    <line x1="106.79368702860599" y1="-6.617014402681269" x2="106.79244802860599" y2="-6.6150164026812694" style="stroke:rgb(0,0,0);stroke-width:.00002" />
    <circle cx="106.793857" cy="-6.616909" fill="rgb(255,0,0)" r=".0001" />
    <text x="106.793857" y="-6.616909" stroke="rgb(0,0,0)" transform="translate(106.793857 -6.616909),scale(0.00001 -0.00001),translate(-106.793857 6.616909),translate(106.8125 -6.592499999999999),rotate(-30),translate(-106.8125 6.592499999999999)" >to-cibeureum-2</text>
    <line x1="106.792618" y1="-6.614911" x2="106.792398" y2="-6.610941" style="stroke:rgb(255,0,0);stroke-width:.00002" />
    <line x1="106.7924183063836" y1="-6.61492206614499" x2="106.7921983063836" y2="-6.61095206614499" style="stroke:rgb(0,0,0);stroke-width:.00002" />
    <circle cx="106.792618" cy="-6.614911" fill="rgb(255,0,0)" r=".0001" />
    <text x="106.792618" y="-6.614911" stroke="rgb(0,0,0)" transform="translate(106.792618 -6.614911),scale(0.00001 -0.00001),translate(-106.792618 6.614911),translate(106.8125 -6.592499999999999),rotate(-30),translate(-106.8125 6.592499999999999)" >to-cibeureum-1</text>
    <line x1="106.792398" y1="-6.610941" x2="106.791768" y2="-6.607155" style="stroke:rgb(255,0,0);stroke-width:.00002" />
    <line x1="106.79220071277153" y1="-6.61097382909507" x2="106.79137342554307" y2="-6.60722065819014" style="stroke:rgb(0,0,0);stroke-width:.00002" />
    <circle cx="106.792398" cy="-6.610941" fill="rgb(255,0,0)" r=".0001" />
    <text x="106.792398" y="-6.610941" stroke="rgb(0,0,0)" transform="translate(106.792398 -6.610941),scale(0.00001 -0.00001),translate(-106.792398 6.610941),translate(106.8125 -6.592499999999999),rotate(-30),translate(-106.8125 6.592499999999999)" >kapten-Y</text>
    <line x1="106.791768" y1="-6.607155" x2="106.792093" y2="-6.606617" style="stroke:rgb(255,0,0);stroke-width:.00002" />
    <line x1="106.79142562204748" y1="-6.606948173169952" x2="106.79175062204747" y2="-6.6064101731699525" style="stroke:rgb(0,0,0);stroke-width:.00002" />
    <circle cx="106.791768" cy="-6.607155" fill="rgb(255,0,0)" r=".0001" />
    <text x="106.791768" y="-6.607155" stroke="rgb(0,0,0)" transform="translate(106.791768 -6.607155),scale(0.00001 -0.00001),translate(-106.791768 6.607155),translate(106.8125 -6.592499999999999),rotate(-30),translate(-106.8125 6.592499999999999)" >empang-suryalaga-kapten</text>
    <line x1="106.792093" y1="-6.606617" x2="106.792003" y2="-6.605183" style="stroke:rgb(255,0,0);stroke-width:.00002" />
    <line x1="106.79169378548157" y1="-6.606642055304503" x2="106.79160378548157" y2="-6.605208055304503" style="stroke:rgb(0,0,0);stroke-width:.00002" />
    <circle cx="106.792093" cy="-6.606617" fill="rgb(255,0,0)" r=".0001" />
    <text x="106.792093" y="-6.606617" stroke="rgb(0,0,0)" transform="translate(106.792093 -6.606617),scale(0.00001 -0.00001),translate(-106.792093 6.606617),translate(106.8125 -6.592499999999999),rotate(-30),translate(-106.8125 6.592499999999999)" >empang-3</text>
    <line x1="106.792003" y1="-6.605183" x2="106.792833" y2="-6.605165" style="stroke:rgb(255,0,0);stroke-width:.00002" />
    <line x1="106.7919943273404" y1="-6.604783094029833" x2="106.79282432734041" y2="-6.604765094029833" style="stroke:rgb(0,0,0);stroke-width:.00002" />
    <circle cx="106.792003" cy="-6.605183" fill="rgb(255,0,0)" r=".0001" />
    <text x="106.792003" y="-6.605183" stroke="rgb(0,0,0)" transform="translate(106.792003 -6.605183),scale(0.00001 -0.00001),translate(-106.792003 6.605183),translate(106.8125 -6.592499999999999),rotate(-30),translate(-106.8125 6.592499999999999)" >empang-2</text>
    <line x1="106.792833" y1="-6.605165" x2="106.793464" y2="-6.607388" style="stroke:rgb(255,0,0);stroke-width:.00002" />
    <line x1="106.79321779843639" y1="-6.60505577471284" x2="106.79384879843639" y2="-6.60727877471284" style="stroke:rgb(0,0,0);stroke-width:.00002" />
    <circle cx="106.792833" cy="-6.605165" fill="rgb(255,0,0)" r=".0001" />
    <text x="106.792833" y="-6.605165" stroke="rgb(0,0,0)" transform="translate(106.792833 -6.605165),scale(0.00001 -0.00001),translate(-106.792833 6.605165),translate(106.8125 -6.592499999999999),rotate(-30),translate(-106.8125 6.592499999999999)" >empang-1</text>
    <line x1="106.793464" y1="-6.607388" x2="106.7949" y2="-6.6077" style="stroke:rgb(255,0,0);stroke-width:.00002" />
    <line x1="106.79354892665414" y1="-6.606997119630301" x2="106.79502738998121" y2="-6.607113679445451" style="stroke:rgb(0,0,0);stroke-width:.00002" />
    <circle cx="106.793464" cy="-6.607388" fill="rgb(255,0,0)" r=".0001" />
    <text x="106.793464" y="-6.607388" stroke="rgb(0,0,0)" transform="translate(106.793464 -6.607388),scale(0.00001 -0.00001),translate(-106.793464 6.607388),translate(106.8125 -6.592499999999999),rotate(-30),translate(-106.8125 6.592499999999999)" >sedane-pahlawan-empang</text>
    <line x1="106.7949" y1="-6.6077" x2="106.7964" y2="-6.6082" style="stroke:rgb(255,0,0);stroke-width:.00002" />
    <line x1="106.7950897366596" y1="-6.60713079002117" x2="106.79658973665961" y2="-6.60763079002117" style="stroke:rgb(0,0,0);stroke-width:.00002" />
    <circle cx="106.7949" cy="-6.6077" fill="rgb(255,0,0)" r=".0001" />
    <text x="106.7949" y="-6.6077" stroke="rgb(0,0,0)" transform="translate(106.7949 -6.6077),scale(0.00001 -0.00001),translate(-106.7949 6.6077),translate(106.8125 -6.592499999999999),rotate(-30),translate(-106.8125 6.592499999999999)" >pahlawan-empang</text>
    <line x1="106.7964" y1="-6.6082" x2="106.8" y2="-6.6113" style="stroke:rgb(255,0,0);stroke-width:.00002" />
    <line x1="106.79679151388122" y1="-6.607745338718589" x2="106.80039151388121" y2="-6.610845338718589" style="stroke:rgb(0,0,0);stroke-width:.00002" />
    <circle cx="106.7964" cy="-6.6082" fill="rgb(255,0,0)" r=".0001" />
    <text x="106.7964" y="-6.6082" stroke="rgb(0,0,0)" transform="translate(106.7964 -6.6082),scale(0.00001 -0.00001),translate(-106.7964 6.6082),translate(106.8125 -6.592499999999999),rotate(-30),translate(-106.8125 6.592499999999999)" >pahlawan-4</text>
    <line x1="106.8" y1="-6.6113" x2="106.8021" y2="-6.6123" style="stroke:rgb(255,0,0);stroke-width:.00002" />
    <line x1="106.80025796014823" y1="-6.610758283688706" x2="106.80227197343216" y2="-6.611938855792471" style="stroke:rgb(0,0,0);stroke-width:.00002" />
    <circle cx="106.8" cy="-6.6113" fill="rgb(255,0,0)" r=".0001" />
    <text x="106.8" y="-6.6113" stroke="rgb(0,0,0)" transform="translate(106.8 -6.6113),scale(0.00001 -0.00001),translate(-106.8 6.6113),translate(106.8125 -6.592499999999999),rotate(-30),translate(-106.8125 6.592499999999999)" >pahlawan-3</text>
    <line x1="106.8021" y1="-6.6123" x2="106.802443" y2="-6.611545" style="stroke:rgb(255,0,0);stroke-width:.00002" />
    <line x1="106.80173582037811" y1="-6.612134551509525" x2="106.80207882037811" y2="-6.611379551509525" style="stroke:rgb(0,0,0);stroke-width:.00002" />
    <circle cx="106.8021" cy="-6.6123" fill="rgb(255,0,0)" r=".0001" />
    <text x="106.8021" y="-6.6123" stroke="rgb(0,0,0)" transform="translate(106.8021 -6.6123),scale(0.00001 -0.00001),translate(-106.8021 6.6123),translate(106.8125 -6.592499999999999),rotate(-30),translate(-106.8125 6.592499999999999)" >pahlawan-ggaut</text>
    <line x1="106.802443" y1="-6.611545" x2="106.802825" y2="-6.611507" style="stroke:rgb(255,0,0);stroke-width:.00002" />
    <line x1="106.80240340484994" y1="-6.611146964544177" x2="106.80278540484994" y2="-6.611108964544177" style="stroke:rgb(0,0,0);stroke-width:.00002" />
    <circle cx="106.802443" cy="-6.611545" fill="rgb(255,0,0)" r=".0001" />
    <text x="106.802443" y="-6.611545" stroke="rgb(0,0,0)" transform="translate(106.802443 -6.611545),scale(0.00001 -0.00001),translate(-106.802443 6.611545),translate(106.8125 -6.592499999999999),rotate(-30),translate(-106.8125 6.592499999999999)" >ggaut-1</text>
    <line x1="106.802825" y1="-6.611507" x2="106.803897" y2="-6.610316" style="stroke:rgb(255,0,0);stroke-width:.00002" />
    <line x1="106.80252769475419" y1="-6.611239400316114" x2="106.8035996947542" y2="-6.610048400316114" style="stroke:rgb(0,0,0);stroke-width:.00002" />
    <circle cx="106.802825" cy="-6.611507" fill="rgb(255,0,0)" r=".0001" />
    <text x="106.802825" y="-6.611507" stroke="rgb(0,0,0)" transform="translate(106.802825 -6.611507),scale(0.00001 -0.00001),translate(-106.802825 6.611507),translate(106.8125 -6.592499999999999),rotate(-30),translate(-106.8125 6.592499999999999)" >ggaut-2</text>
    <line x1="106.803897" y1="-6.610316" x2="106.801231" y2="-6.608503" style="stroke:rgb(255,0,0);stroke-width:.00002" />
    <line x1="106.80367206581097" y1="-6.610646763677874" x2="106.80100606581097" y2="-6.608833763677874" style="stroke:rgb(0,0,0);stroke-width:.00002" />
    <circle cx="106.803897" cy="-6.610316" fill="rgb(255,0,0)" r=".0001" />
    <text x="106.803897" y="-6.610316" stroke="rgb(0,0,0)" transform="translate(106.803897 -6.610316),scale(0.00001 -0.00001),translate(-106.803897 6.610316),translate(106.8125 -6.592499999999999),rotate(-30),translate(-106.8125 6.592499999999999)" >ggaut-padasuka</text>
    <line x1="106.801231" y1="-6.608503" x2="106.801313" y2="-6.608035" style="stroke:rgb(255,0,0);stroke-width:.00002" />
    <line x1="106.80083700211665" y1="-6.6084339661828375" x2="106.80091900211664" y2="-6.607965966182838" style="stroke:rgb(0,0,0);stroke-width:.00002" />
    <circle cx="106.801231" cy="-6.608503" fill="rgb(255,0,0)" r=".0001" />
    <text x="106.801231" y="-6.608503" stroke="rgb(0,0,0)" transform="translate(106.801231 -6.608503),scale(0.00001 -0.00001),translate(-106.801231 6.608503),translate(106.8125 -6.592499999999999),rotate(-30),translate(-106.8125 6.592499999999999)" >padasuka-1</text>
    <line x1="106.801313" y1="-6.608035" x2="106.800503" y2="-6.60806" style="stroke:rgb(255,0,0);stroke-width:.00002" />
    <line x1="106.80132533980297" y1="-6.608434809616271" x2="106.80051533980298" y2="-6.608459809616271" style="stroke:rgb(0,0,0);stroke-width:.00002" />
    <circle cx="106.801313" cy="-6.608035" fill="rgb(255,0,0)" r=".0001" />
    <text x="106.801313" y="-6.608035" stroke="rgb(0,0,0)" transform="translate(106.801313 -6.608035),scale(0.00001 -0.00001),translate(-106.801313 6.608035),translate(106.8125 -6.592499999999999),rotate(-30),translate(-106.8125 6.592499999999999)" >padasuka-cincau</text>
    <line x1="106.800503" y1="-6.60806" x2="106.798991" y2="-6.60685" style="stroke:rgb(255,0,0);stroke-width:.00002" />
    <line x1="106.80025307160561" y1="-6.6083723072168095" x2="106.7987410716056" y2="-6.607162307216809" style="stroke:rgb(0,0,0);stroke-width:.00002" />
    <circle cx="106.800503" cy="-6.60806" fill="rgb(255,0,0)" r=".0001" />
    <text x="106.800503" y="-6.60806" stroke="rgb(0,0,0)" transform="translate(106.800503 -6.60806),scale(0.00001 -0.00001),translate(-106.800503 6.60806),translate(106.8125 -6.592499999999999),rotate(-30),translate(-106.8125 6.592499999999999)" >cincau-1</text>
    <line x1="106.798991" y1="-6.60685" x2="106.797256" y2="-6.603941" style="stroke:rgb(255,0,0);stroke-width:.00002" />
    <line x1="106.79864746217176" y1="-6.607054894510827" x2="106.79588184868705" y2="-6.60476057804331" style="stroke:rgb(0,0,0);stroke-width:.00002" />
    <circle cx="106.798991" cy="-6.60685" fill="rgb(255,0,0)" r=".0001" />
    <text x="106.798991" y="-6.60685" stroke="rgb(0,0,0)" transform="translate(106.798991 -6.60685),scale(0.00001 -0.00001),translate(-106.798991 6.60685),translate(106.8125 -6.592499999999999),rotate(-30),translate(-106.8125 6.592499999999999)" >cincau-2</text>
    <line x1="106.797256" y1="-6.603941" x2="106.7967" y2="-6.6042" style="stroke:rgb(255,0,0);stroke-width:.00002" />
    <line x1="106.79793161695319" y1="-6.605391359173642" x2="106.7968689042383" y2="-6.60456258979341" style="stroke:rgb(0,0,0);stroke-width:.00002" />
    <circle cx="106.797256" cy="-6.603941" fill="rgb(255,0,0)" r=".0001" />
    <text x="106.797256" y="-6.603941" stroke="rgb(0,0,0)" transform="translate(106.797256 -6.603941),scale(0.00001 -0.00001),translate(-106.797256 6.603941),translate(106.8125 -6.592499999999999),rotate(-30),translate(-106.8125 6.592499999999999)" >cincau-kb</text>
    <line x1="106.7967" y1="-6.6042" x2="106.7965" y2="-6.6046" style="stroke:rgb(255,0,0);stroke-width:.00002" />
    <line x1="106.79705777087639" y1="-6.604378885438204" x2="106.79685777087639" y2="-6.604778885438204" style="stroke:rgb(0,0,0);stroke-width:.00002" />
    <circle cx="106.7967" cy="-6.6042" fill="rgb(255,0,0)" r=".0001" />
    <text x="106.7967" y="-6.6042" stroke="rgb(0,0,0)" transform="translate(106.7967 -6.6042),scale(0.00001 -0.00001),translate(-106.7967 6.6042),translate(106.8125 -6.592499999999999),rotate(-30),translate(-106.8125 6.592499999999999)" >kb-btm-1</text>
  </g>
</svg>
