<svg width="1049.9999999998977" height="1849.9999999999961" xmlns="http://www.w3.org/2000/svg" xmlns:xlink="http://www.w3.org/1999/xlink" >
  <g transform="translate(524.9999999999488 924.9999999999981) rotate(30) scale(10000 -10000) translate(-106.8125 6.592499999999999)">
    <path d="M106.76 -6.5 L106.865 -6.5 L106.865 -6.685 L106.76 -6.685 Z" fill="none" stroke="black" stroke-width="0.0005" transform="translate(106.8125 -6.592499999999999) rotate(30) translate(-106.8125 6.592499999999999)" />
    <path d="M106.8126872782839 -6.623850891203307 L106.81042237515507 -6.624159741629969 L106.81025055062405 -6.6248470397540276 L106.8093002639229 -6.625480564221447 L106.80861143468081 -6.624619527668832 L106.8083211403857 -6.622006879012695 L106.80766341737807 -6.621724997723709 L106.80672742913293 -6.619197829461845 L106.80417205759923 -6.616535984114239 L106.8026380133331 -6.613607354151631 L106.80094715362524 -6.611984713567441 L106.79554973513423 -6.614006101683036 L106.79336838946357 -6.6074173816126 L106.79275790349195 -6.605266652111956 L106.79210932965856 -6.605280717568583 L106.79219476221121 -6.606641942907446 L106.79182040425573 -6.607261649307607 L106.78778250342347 -6.606799585559753 L106.78757995178601 -6.606297123210491 L106.78650867961052 -6.603902107136043 L106.7829498923956 -6.601010144820194 L106.78298307308523 -6.601020957004691 L106.77943942087288 -6.601218052348775 L106.77923361674836 -6.596475073423775 L106.77187578614814 -6.587914392113974 L106.77146103586148 -6.585792387184636 L106.77094104074409 -6.585010140194478 L106.76730766916909 -6.580587281060734 L106.763514809051 -6.580822755723007 L106.75312490624381 -6.576479859476937 L106.750946454314 -6.573531088978127 L106.755373 -6.571011 L106.751807545686 -6.573686911021873 L106.75350909375618 -6.5759901405230625 L106.76361719094899 -6.580215244276992 L106.76745346704881 -6.579977074191393 L106.77134343888382 -6.584712289708244 L106.77207695361038 -6.585815741775212 L106.77243421385185 -6.587643607886028 L106.77940238325165 -6.595750926576224 L106.77963057912712 -6.6010099476512245 L106.78297892691478 -6.60092104299531 L106.7830121076044 -6.600931855179807 L106.78667132038949 -6.603775892863957 L106.78776404821399 -6.606218876789509 L106.78792349657652 -6.606614414440247 L106.79171559574428 -6.607048350692392 L106.79199123778878 -6.606592057092554 L106.79189667034143 -6.605085282431418 L106.79290809650806 -6.605063347888046 L106.79354382627824 -6.607303010770935 L106.79583471029756 -6.607800751588504 L106.79650063749641 -6.608022727321453 L106.80011019047046 -6.611130953493562 L106.80557912594713 -6.613735208482461 L106.80139605056215 -6.612138303707488 L106.80370800382494 -6.614356979317037 L106.8046639712004 -6.616182007942895 L106.80706256660955 -6.6186805448274235 L106.80919758590024 -6.618433779261649 L106.81032939485753 -6.616241431272007 L106.8127794839646 -6.621361337824602 Z" stroke="pink" stroke-width="0.0001" fill="none" />
  </g>
</svg>
