<svg width="1049.9999999998977" height="1849.9999999999961" xmlns="http://www.w3.org/2000/svg" xmlns:xlink="http://www.w3.org/1999/xlink" >
  <g transform="translate(524.9999999999488 924.9999999999981) rotate(30) scale(10000 -10000) translate(-106.8125 6.592499999999999)">
    <path d="M106.76 -6.5 L106.865 -6.5 L106.865 -6.685 L106.76 -6.685 Z" fill="none" stroke="black" stroke-width="0.001" transform="translate(106.8125 -6.592499999999999) rotate(30) translate(-106.8125 6.592499999999999)" />
    <path d="M106.7954 -6.606 L106.7949 -6.6077 L106.793464 -6.607388 L106.792833 -6.605165 L106.792003 -6.605183 L106.792093 -6.606617 L106.791768 -6.607155 L106.792398 -6.610941 L106.792618 -6.614911 L106.793857 -6.616909 L106.794225 -6.618952 L106.794713 -6.619096 L106.794571 -6.620458 L106.793905 -6.621897 L106.794024 -6.623186 L106.7932 -6.624819 L106.791666 -6.626151 L106.789992 -6.62824 L106.788817 -6.629897 L106.788418 -6.631824 L106.787023 -6.63274 L106.786208 -6.634104 L106.7861 -6.635682 L106.785371 -6.636257 L106.785392 -6.638964 L106.784856 -6.640477 L106.787238 -6.64118 L106.784856 -6.640477 L106.785392 -6.638964 L106.785371 -6.636257 L106.7861 -6.635682 L106.786208 -6.634104 L106.787023 -6.63274 L106.788418 -6.631824 L106.788817 -6.629897 L106.789992 -6.62824 L106.791666 -6.626151 L106.7932 -6.624819 L106.794024 -6.623186 L106.793905 -6.621897 L106.794571 -6.620458 L106.794713 -6.619096 L106.794225 -6.618952 L106.793857 -6.616909 L106.792618 -6.614911 L106.792398 -6.610941 L106.791768 -6.607155 L106.792093 -6.606617 L106.792003 -6.605183 L106.792833 -6.605165 L106.793464 -6.607388 L106.7949 -6.6077 L106.7964 -6.6082 L106.8 -6.6113 L106.800971 -6.611869 L106.8021 -6.6123 L106.802443 -6.611545 L106.802825 -6.611507 L106.803897 -6.610316 L106.801231 -6.608503 L106.801313 -6.608035 L106.800503 -6.60806 L106.798991 -6.60685 L106.797256 -6.603941 L106.7967 -6.6042 L106.7965 -6.6046 Z" stroke="#563D00" stroke-width="0.0002" fill="none" />



    <line x1="106.7965" y1="-6.6046" x2="106.7954" y2="-6.606" style="stroke:rgb(255,0,0);stroke-width:.00002" />
    <line x1="106.7965" y1="-6.6046" x2="106.7954" y2="-6.606" style="stroke:rgb(0,0,0);stroke-width:.00002" />
    <circle cx="106.7965" cy="-6.6046" fill="rgb(255,0,0)" r=".0001" />
    <text x="106.7965" y="-6.6046" stroke="rgb(0,0,0)" transform="translate(106.7965 -6.6046),scale(0.00001 -0.00001),translate(-106.7965 6.6046),translate(106.8125 -6.592499999999999),rotate(-30),translate(-106.8125 6.592499999999999)" >btm-3</text>
    <line x1="106.7954" y1="-6.606" x2="106.7949" y2="-6.6077" style="stroke:rgb(255,0,0);stroke-width:.00002" />
    <line x1="106.7954" y1="-6.606" x2="106.7949" y2="-6.6077" style="stroke:rgb(0,0,0);stroke-width:.00002" />
    <circle cx="106.7954" cy="-6.606" fill="rgb(255,0,0)" r=".0001" />
    <text x="106.7954" y="-6.606" stroke="rgb(0,0,0)" transform="translate(106.7954 -6.606),scale(0.00001 -0.00001),translate(-106.7954 6.606),translate(106.8125 -6.592499999999999),rotate(-30),translate(-106.8125 6.592499999999999)" >halte-empang</text>
    <line x1="106.7949" y1="-6.6077" x2="106.793464" y2="-6.607388" style="stroke:rgb(255,0,0);stroke-width:.00002" />
    <line x1="106.7949" y1="-6.6077" x2="106.793464" y2="-6.607388" style="stroke:rgb(0,0,0);stroke-width:.00002" />
    <circle cx="106.7949" cy="-6.6077" fill="rgb(255,0,0)" r=".0001" />
    <text x="106.7949" y="-6.6077" stroke="rgb(0,0,0)" transform="translate(106.7949 -6.6077),scale(0.00001 -0.00001),translate(-106.7949 6.6077),translate(106.8125 -6.592499999999999),rotate(-30),translate(-106.8125 6.592499999999999)" >pahlawan-empang</text>
    <line x1="106.793464" y1="-6.607388" x2="106.792833" y2="-6.605165" style="stroke:rgb(255,0,0);stroke-width:.00002" />
    <line x1="106.793464" y1="-6.607388" x2="106.792833" y2="-6.605165" style="stroke:rgb(0,0,0);stroke-width:.00002" />
    <circle cx="106.793464" cy="-6.607388" fill="rgb(255,0,0)" r=".0001" />
    <text x="106.793464" y="-6.607388" stroke="rgb(0,0,0)" transform="translate(106.793464 -6.607388),scale(0.00001 -0.00001),translate(-106.793464 6.607388),translate(106.8125 -6.592499999999999),rotate(-30),translate(-106.8125 6.592499999999999)" >sedane-pahlawan-empang</text>
    <line x1="106.792833" y1="-6.605165" x2="106.792003" y2="-6.605183" style="stroke:rgb(255,0,0);stroke-width:.00002" />
    <line x1="106.792833" y1="-6.605165" x2="106.792003" y2="-6.605183" style="stroke:rgb(0,0,0);stroke-width:.00002" />
    <circle cx="106.792833" cy="-6.605165" fill="rgb(255,0,0)" r=".0001" />
    <text x="106.792833" y="-6.605165" stroke="rgb(0,0,0)" transform="translate(106.792833 -6.605165),scale(0.00001 -0.00001),translate(-106.792833 6.605165),translate(106.8125 -6.592499999999999),rotate(-30),translate(-106.8125 6.592499999999999)" >empang-1</text>
    <line x1="106.792003" y1="-6.605183" x2="106.792093" y2="-6.606617" style="stroke:rgb(255,0,0);stroke-width:.00002" />
    <line x1="106.792003" y1="-6.605183" x2="106.792093" y2="-6.606617" style="stroke:rgb(0,0,0);stroke-width:.00002" />
    <circle cx="106.792003" cy="-6.605183" fill="rgb(255,0,0)" r=".0001" />
    <text x="106.792003" y="-6.605183" stroke="rgb(0,0,0)" transform="translate(106.792003 -6.605183),scale(0.00001 -0.00001),translate(-106.792003 6.605183),translate(106.8125 -6.592499999999999),rotate(-30),translate(-106.8125 6.592499999999999)" >empang-2</text>
    <line x1="106.792093" y1="-6.606617" x2="106.791768" y2="-6.607155" style="stroke:rgb(255,0,0);stroke-width:.00002" />
    <line x1="106.792093" y1="-6.606617" x2="106.791768" y2="-6.607155" style="stroke:rgb(0,0,0);stroke-width:.00002" />
    <circle cx="106.792093" cy="-6.606617" fill="rgb(255,0,0)" r=".0001" />
    <text x="106.792093" y="-6.606617" stroke="rgb(0,0,0)" transform="translate(106.792093 -6.606617),scale(0.00001 -0.00001),translate(-106.792093 6.606617),translate(106.8125 -6.592499999999999),rotate(-30),translate(-106.8125 6.592499999999999)" >empang-3</text>
    <line x1="106.791768" y1="-6.607155" x2="106.792398" y2="-6.610941" style="stroke:rgb(255,0,0);stroke-width:.00002" />
    <line x1="106.791768" y1="-6.607155" x2="106.792398" y2="-6.610941" style="stroke:rgb(0,0,0);stroke-width:.00002" />
    <circle cx="106.791768" cy="-6.607155" fill="rgb(255,0,0)" r=".0001" />
    <text x="106.791768" y="-6.607155" stroke="rgb(0,0,0)" transform="translate(106.791768 -6.607155),scale(0.00001 -0.00001),translate(-106.791768 6.607155),translate(106.8125 -6.592499999999999),rotate(-30),translate(-106.8125 6.592499999999999)" >empang-suryalaga-kapten</text>
    <line x1="106.792398" y1="-6.610941" x2="106.792618" y2="-6.614911" style="stroke:rgb(255,0,0);stroke-width:.00002" />
    <line x1="106.792398" y1="-6.610941" x2="106.792618" y2="-6.614911" style="stroke:rgb(0,0,0);stroke-width:.00002" />
    <circle cx="106.792398" cy="-6.610941" fill="rgb(255,0,0)" r=".0001" />
    <text x="106.792398" y="-6.610941" stroke="rgb(0,0,0)" transform="translate(106.792398 -6.610941),scale(0.00001 -0.00001),translate(-106.792398 6.610941),translate(106.8125 -6.592499999999999),rotate(-30),translate(-106.8125 6.592499999999999)" >kapten-Y</text>
    <line x1="106.792618" y1="-6.614911" x2="106.793857" y2="-6.616909" style="stroke:rgb(255,0,0);stroke-width:.00002" />
    <line x1="106.792618" y1="-6.614911" x2="106.793857" y2="-6.616909" style="stroke:rgb(0,0,0);stroke-width:.00002" />
    <circle cx="106.792618" cy="-6.614911" fill="rgb(255,0,0)" r=".0001" />
    <text x="106.792618" y="-6.614911" stroke="rgb(0,0,0)" transform="translate(106.792618 -6.614911),scale(0.00001 -0.00001),translate(-106.792618 6.614911),translate(106.8125 -6.592499999999999),rotate(-30),translate(-106.8125 6.592499999999999)" >to-cibeureum-1</text>
    <line x1="106.793857" y1="-6.616909" x2="106.794225" y2="-6.618952" style="stroke:rgb(255,0,0);stroke-width:.00002" />
    <line x1="106.793857" y1="-6.616909" x2="106.794225" y2="-6.618952" style="stroke:rgb(0,0,0);stroke-width:.00002" />
    <circle cx="106.793857" cy="-6.616909" fill="rgb(255,0,0)" r=".0001" />
    <text x="106.793857" y="-6.616909" stroke="rgb(0,0,0)" transform="translate(106.793857 -6.616909),scale(0.00001 -0.00001),translate(-106.793857 6.616909),translate(106.8125 -6.592499999999999),rotate(-30),translate(-106.8125 6.592499999999999)" >to-cibeureum-2</text>
    <line x1="106.794225" y1="-6.618952" x2="106.794713" y2="-6.619096" style="stroke:rgb(255,0,0);stroke-width:.00002" />
    <line x1="106.794225" y1="-6.618952" x2="106.794713" y2="-6.619096" style="stroke:rgb(0,0,0);stroke-width:.00002" />
    <circle cx="106.794225" cy="-6.618952" fill="rgb(255,0,0)" r=".0001" />
    <text x="106.794225" y="-6.618952" stroke="rgb(0,0,0)" transform="translate(106.794225 -6.618952),scale(0.00001 -0.00001),translate(-106.794225 6.618952),translate(106.8125 -6.592499999999999),rotate(-30),translate(-106.8125 6.592499999999999)" >to-cibeureum-3</text>
    <line x1="106.794713" y1="-6.619096" x2="106.794571" y2="-6.620458" style="stroke:rgb(255,0,0);stroke-width:.00002" />
    <line x1="106.794713" y1="-6.619096" x2="106.794571" y2="-6.620458" style="stroke:rgb(0,0,0);stroke-width:.00002" />
    <circle cx="106.794713" cy="-6.619096" fill="rgb(255,0,0)" r=".0001" />
    <text x="106.794713" y="-6.619096" stroke="rgb(0,0,0)" transform="translate(106.794713 -6.619096),scale(0.00001 -0.00001),translate(-106.794713 6.619096),translate(106.8125 -6.592499999999999),rotate(-30),translate(-106.8125 6.592499999999999)" >jl-cibeureum-1</text>
    <line x1="106.794571" y1="-6.620458" x2="106.793905" y2="-6.621897" style="stroke:rgb(255,0,0);stroke-width:.00002" />
    <line x1="106.794571" y1="-6.620458" x2="106.793905" y2="-6.621897" style="stroke:rgb(0,0,0);stroke-width:.00002" />
    <circle cx="106.794571" cy="-6.620458" fill="rgb(255,0,0)" r=".0001" />
    <text x="106.794571" y="-6.620458" stroke="rgb(0,0,0)" transform="translate(106.794571 -6.620458),scale(0.00001 -0.00001),translate(-106.794571 6.620458),translate(106.8125 -6.592499999999999),rotate(-30),translate(-106.8125 6.592499999999999)" >jl-cibeureum-2</text>
    <line x1="106.793905" y1="-6.621897" x2="106.794024" y2="-6.623186" style="stroke:rgb(255,0,0);stroke-width:.00002" />
    <line x1="106.793905" y1="-6.621897" x2="106.794024" y2="-6.623186" style="stroke:rgb(0,0,0);stroke-width:.00002" />
    <circle cx="106.793905" cy="-6.621897" fill="rgb(255,0,0)" r=".0001" />
    <text x="106.793905" y="-6.621897" stroke="rgb(0,0,0)" transform="translate(106.793905 -6.621897),scale(0.00001 -0.00001),translate(-106.793905 6.621897),translate(106.8125 -6.592499999999999),rotate(-30),translate(-106.8125 6.592499999999999)" >jl-cibeureum-3</text>
    <line x1="106.794024" y1="-6.623186" x2="106.7932" y2="-6.624819" style="stroke:rgb(255,0,0);stroke-width:.00002" />
    <line x1="106.794024" y1="-6.623186" x2="106.7932" y2="-6.624819" style="stroke:rgb(0,0,0);stroke-width:.00002" />
    <circle cx="106.794024" cy="-6.623186" fill="rgb(255,0,0)" r=".0001" />
    <text x="106.794024" y="-6.623186" stroke="rgb(0,0,0)" transform="translate(106.794024 -6.623186),scale(0.00001 -0.00001),translate(-106.794024 6.623186),translate(106.8125 -6.592499999999999),rotate(-30),translate(-106.8125 6.592499999999999)" >jl-cibeureum--over-river</text>
    <line x1="106.7932" y1="-6.624819" x2="106.791666" y2="-6.626151" style="stroke:rgb(255,0,0);stroke-width:.00002" />
    <line x1="106.7932" y1="-6.624819" x2="106.791666" y2="-6.626151" style="stroke:rgb(0,0,0);stroke-width:.00002" />
    <circle cx="106.7932" cy="-6.624819" fill="rgb(255,0,0)" r=".0001" />
    <text x="106.7932" y="-6.624819" stroke="rgb(0,0,0)" transform="translate(106.7932 -6.624819),scale(0.00001 -0.00001),translate(-106.7932 6.624819),translate(106.8125 -6.592499999999999),rotate(-30),translate(-106.8125 6.592499999999999)" >jl-cibeureum-4</text>
    <line x1="106.791666" y1="-6.626151" x2="106.789992" y2="-6.62824" style="stroke:rgb(255,0,0);stroke-width:.00002" />
    <line x1="106.791666" y1="-6.626151" x2="106.789992" y2="-6.62824" style="stroke:rgb(0,0,0);stroke-width:.00002" />
    <circle cx="106.791666" cy="-6.626151" fill="rgb(255,0,0)" r=".0001" />
    <text x="106.791666" y="-6.626151" stroke="rgb(0,0,0)" transform="translate(106.791666 -6.626151),scale(0.00001 -0.00001),translate(-106.791666 6.626151),translate(106.8125 -6.592499999999999),rotate(-30),translate(-106.8125 6.592499999999999)" >jl-cibeureum-5</text>
    <line x1="106.789992" y1="-6.62824" x2="106.788817" y2="-6.629897" style="stroke:rgb(255,0,0);stroke-width:.00002" />
    <line x1="106.789992" y1="-6.62824" x2="106.788817" y2="-6.629897" style="stroke:rgb(0,0,0);stroke-width:.00002" />
    <circle cx="106.789992" cy="-6.62824" fill="rgb(255,0,0)" r=".0001" />
    <text x="106.789992" y="-6.62824" stroke="rgb(0,0,0)" transform="translate(106.789992 -6.62824),scale(0.00001 -0.00001),translate(-106.789992 6.62824),translate(106.8125 -6.592499999999999),rotate(-30),translate(-106.8125 6.592499999999999)" >jl-cibeureum-mekar-sari</text>
    <line x1="106.788817" y1="-6.629897" x2="106.788418" y2="-6.631824" style="stroke:rgb(255,0,0);stroke-width:.00002" />
    <line x1="106.788817" y1="-6.629897" x2="106.788418" y2="-6.631824" style="stroke:rgb(0,0,0);stroke-width:.00002" />
    <circle cx="106.788817" cy="-6.629897" fill="rgb(255,0,0)" r=".0001" />
    <text x="106.788817" y="-6.629897" stroke="rgb(0,0,0)" transform="translate(106.788817 -6.629897),scale(0.00001 -0.00001),translate(-106.788817 6.629897),translate(106.8125 -6.592499999999999),rotate(-30),translate(-106.8125 6.592499999999999)" >jl-cibeureum-meander</text>
    <line x1="106.788418" y1="-6.631824" x2="106.787023" y2="-6.63274" style="stroke:rgb(255,0,0);stroke-width:.00002" />
    <line x1="106.788418" y1="-6.631824" x2="106.787023" y2="-6.63274" style="stroke:rgb(0,0,0);stroke-width:.00002" />
    <circle cx="106.788418" cy="-6.631824" fill="rgb(255,0,0)" r=".0001" />
    <text x="106.788418" y="-6.631824" stroke="rgb(0,0,0)" transform="translate(106.788418 -6.631824),scale(0.00001 -0.00001),translate(-106.788418 6.631824),translate(106.8125 -6.592499999999999),rotate(-30),translate(-106.8125 6.592499999999999)" >jl-cibeureum-smallsideroad</text>
    <line x1="106.787023" y1="-6.63274" x2="106.786208" y2="-6.634104" style="stroke:rgb(255,0,0);stroke-width:.00002" />
    <line x1="106.787023" y1="-6.63274" x2="106.786208" y2="-6.634104" style="stroke:rgb(0,0,0);stroke-width:.00002" />
    <circle cx="106.787023" cy="-6.63274" fill="rgb(255,0,0)" r=".0001" />
    <text x="106.787023" y="-6.63274" stroke="rgb(0,0,0)" transform="translate(106.787023 -6.63274),scale(0.00001 -0.00001),translate(-106.787023 6.63274),translate(106.8125 -6.592499999999999),rotate(-30),translate(-106.8125 6.592499999999999)" >jl-cibeureum-backatriver</text>
    <line x1="106.786208" y1="-6.634104" x2="106.7861" y2="-6.635682" style="stroke:rgb(255,0,0);stroke-width:.00002" />
    <line x1="106.786208" y1="-6.634104" x2="106.7861" y2="-6.635682" style="stroke:rgb(0,0,0);stroke-width:.00002" />
    <circle cx="106.786208" cy="-6.634104" fill="rgb(255,0,0)" r=".0001" />
    <text x="106.786208" y="-6.634104" stroke="rgb(0,0,0)" transform="translate(106.786208 -6.634104),scale(0.00001 -0.00001),translate(-106.786208 6.634104),translate(106.8125 -6.592499999999999),rotate(-30),translate(-106.8125 6.592499999999999)" >jl-cibeureum-backatriveragain</text>
    <line x1="106.7861" y1="-6.635682" x2="106.785371" y2="-6.636257" style="stroke:rgb(255,0,0);stroke-width:.00002" />
    <line x1="106.7861" y1="-6.635682" x2="106.785371" y2="-6.636257" style="stroke:rgb(0,0,0);stroke-width:.00002" />
    <circle cx="106.7861" cy="-6.635682" fill="rgb(255,0,0)" r=".0001" />
    <text x="106.7861" y="-6.635682" stroke="rgb(0,0,0)" transform="translate(106.7861 -6.635682),scale(0.00001 -0.00001),translate(-106.7861 6.635682),translate(106.8125 -6.592499999999999),rotate(-30),translate(-106.8125 6.592499999999999)" >jl-cibeureum-riverbendsright</text>
    <line x1="106.785371" y1="-6.636257" x2="106.785392" y2="-6.638964" style="stroke:rgb(255,0,0);stroke-width:.00002" />
    <line x1="106.785371" y1="-6.636257" x2="106.785392" y2="-6.638964" style="stroke:rgb(0,0,0);stroke-width:.00002" />
    <circle cx="106.785371" cy="-6.636257" fill="rgb(255,0,0)" r=".0001" />
    <text x="106.785371" y="-6.636257" stroke="rgb(0,0,0)" transform="translate(106.785371 -6.636257),scale(0.00001 -0.00001),translate(-106.785371 6.636257),translate(106.8125 -6.592499999999999),rotate(-30),translate(-106.8125 6.592499999999999)" >jl-cibeureum-riverbendsleft</text>
    <line x1="106.785392" y1="-6.638964" x2="106.784856" y2="-6.640477" style="stroke:rgb(255,0,0);stroke-width:.00002" />
    <line x1="106.785392" y1="-6.638964" x2="106.784856" y2="-6.640477" style="stroke:rgb(0,0,0);stroke-width:.00002" />
    <circle cx="106.785392" cy="-6.638964" fill="rgb(255,0,0)" r=".0001" />
    <text x="106.785392" y="-6.638964" stroke="rgb(0,0,0)" transform="translate(106.785392 -6.638964),scale(0.00001 -0.00001),translate(-106.785392 6.638964),translate(106.8125 -6.592499999999999),rotate(-30),translate(-106.8125 6.592499999999999)" >jl-cibeureum-lastbend</text>
    <line x1="106.784856" y1="-6.640477" x2="106.787238" y2="-6.64118" style="stroke:rgb(255,0,0);stroke-width:.00002" />
    <line x1="106.784856" y1="-6.640477" x2="106.787238" y2="-6.64118" style="stroke:rgb(0,0,0);stroke-width:.00002" />
    <circle cx="106.784856" cy="-6.640477" fill="rgb(255,0,0)" r=".0001" />
    <text x="106.784856" y="-6.640477" stroke="rgb(0,0,0)" transform="translate(106.784856 -6.640477),scale(0.00001 -0.00001),translate(-106.784856 6.640477),translate(106.8125 -6.592499999999999),rotate(-30),translate(-106.8125 6.592499999999999)" >jl-cibeureum-harmony</text>
    <line x1="106.787238" y1="-6.64118" x2="106.784856" y2="-6.640477" style="stroke:rgb(255,0,0);stroke-width:.00002" />
    <line x1="106.787238" y1="-6.64118" x2="106.784856" y2="-6.640477" style="stroke:rgb(0,0,0);stroke-width:.00002" />
    <circle cx="106.787238" cy="-6.64118" fill="rgb(255,0,0)" r=".0001" />
    <text x="106.787238" y="-6.64118" stroke="rgb(0,0,0)" transform="translate(106.787238 -6.64118),scale(0.00001 -0.00001),translate(-106.787238 6.64118),translate(106.8125 -6.592499999999999),rotate(-30),translate(-106.8125 6.592499999999999)" >jl-junglefest</text>
    <line x1="106.784856" y1="-6.640477" x2="106.785392" y2="-6.638964" style="stroke:rgb(255,0,0);stroke-width:.00002" />
    <line x1="106.784856" y1="-6.640477" x2="106.785392" y2="-6.638964" style="stroke:rgb(0,0,0);stroke-width:.00002" />
    <circle cx="106.784856" cy="-6.640477" fill="rgb(255,0,0)" r=".0001" />
    <text x="106.784856" y="-6.640477" stroke="rgb(0,0,0)" transform="translate(106.784856 -6.640477),scale(0.00001 -0.00001),translate(-106.784856 6.640477),translate(106.8125 -6.592499999999999),rotate(-30),translate(-106.8125 6.592499999999999)" >jl-cibeureum-harmony</text>
    <line x1="106.785392" y1="-6.638964" x2="106.785371" y2="-6.636257" style="stroke:rgb(255,0,0);stroke-width:.00002" />
    <line x1="106.785392" y1="-6.638964" x2="106.785371" y2="-6.636257" style="stroke:rgb(0,0,0);stroke-width:.00002" />
    <circle cx="106.785392" cy="-6.638964" fill="rgb(255,0,0)" r=".0001" />
    <text x="106.785392" y="-6.638964" stroke="rgb(0,0,0)" transform="translate(106.785392 -6.638964),scale(0.00001 -0.00001),translate(-106.785392 6.638964),translate(106.8125 -6.592499999999999),rotate(-30),translate(-106.8125 6.592499999999999)" >jl-cibeureum-lastbend</text>
    <line x1="106.785371" y1="-6.636257" x2="106.7861" y2="-6.635682" style="stroke:rgb(255,0,0);stroke-width:.00002" />
    <line x1="106.785371" y1="-6.636257" x2="106.7861" y2="-6.635682" style="stroke:rgb(0,0,0);stroke-width:.00002" />
    <circle cx="106.785371" cy="-6.636257" fill="rgb(255,0,0)" r=".0001" />
    <text x="106.785371" y="-6.636257" stroke="rgb(0,0,0)" transform="translate(106.785371 -6.636257),scale(0.00001 -0.00001),translate(-106.785371 6.636257),translate(106.8125 -6.592499999999999),rotate(-30),translate(-106.8125 6.592499999999999)" >jl-cibeureum-riverbendsleft</text>
    <line x1="106.7861" y1="-6.635682" x2="106.786208" y2="-6.634104" style="stroke:rgb(255,0,0);stroke-width:.00002" />
    <line x1="106.7861" y1="-6.635682" x2="106.786208" y2="-6.634104" style="stroke:rgb(0,0,0);stroke-width:.00002" />
    <circle cx="106.7861" cy="-6.635682" fill="rgb(255,0,0)" r=".0001" />
    <text x="106.7861" y="-6.635682" stroke="rgb(0,0,0)" transform="translate(106.7861 -6.635682),scale(0.00001 -0.00001),translate(-106.7861 6.635682),translate(106.8125 -6.592499999999999),rotate(-30),translate(-106.8125 6.592499999999999)" >jl-cibeureum-riverbendsright</text>
    <line x1="106.786208" y1="-6.634104" x2="106.787023" y2="-6.63274" style="stroke:rgb(255,0,0);stroke-width:.00002" />
    <line x1="106.786208" y1="-6.634104" x2="106.787023" y2="-6.63274" style="stroke:rgb(0,0,0);stroke-width:.00002" />
    <circle cx="106.786208" cy="-6.634104" fill="rgb(255,0,0)" r=".0001" />
    <text x="106.786208" y="-6.634104" stroke="rgb(0,0,0)" transform="translate(106.786208 -6.634104),scale(0.00001 -0.00001),translate(-106.786208 6.634104),translate(106.8125 -6.592499999999999),rotate(-30),translate(-106.8125 6.592499999999999)" >jl-cibeureum-backatriveragain</text>
    <line x1="106.787023" y1="-6.63274" x2="106.788418" y2="-6.631824" style="stroke:rgb(255,0,0);stroke-width:.00002" />
    <line x1="106.787023" y1="-6.63274" x2="106.788418" y2="-6.631824" style="stroke:rgb(0,0,0);stroke-width:.00002" />
    <circle cx="106.787023" cy="-6.63274" fill="rgb(255,0,0)" r=".0001" />
    <text x="106.787023" y="-6.63274" stroke="rgb(0,0,0)" transform="translate(106.787023 -6.63274),scale(0.00001 -0.00001),translate(-106.787023 6.63274),translate(106.8125 -6.592499999999999),rotate(-30),translate(-106.8125 6.592499999999999)" >jl-cibeureum-backatriver</text>
    <line x1="106.788418" y1="-6.631824" x2="106.788817" y2="-6.629897" style="stroke:rgb(255,0,0);stroke-width:.00002" />
    <line x1="106.788418" y1="-6.631824" x2="106.788817" y2="-6.629897" style="stroke:rgb(0,0,0);stroke-width:.00002" />
    <circle cx="106.788418" cy="-6.631824" fill="rgb(255,0,0)" r=".0001" />
    <text x="106.788418" y="-6.631824" stroke="rgb(0,0,0)" transform="translate(106.788418 -6.631824),scale(0.00001 -0.00001),translate(-106.788418 6.631824),translate(106.8125 -6.592499999999999),rotate(-30),translate(-106.8125 6.592499999999999)" >jl-cibeureum-smallsideroad</text>
    <line x1="106.788817" y1="-6.629897" x2="106.789992" y2="-6.62824" style="stroke:rgb(255,0,0);stroke-width:.00002" />
    <line x1="106.788817" y1="-6.629897" x2="106.789992" y2="-6.62824" style="stroke:rgb(0,0,0);stroke-width:.00002" />
    <circle cx="106.788817" cy="-6.629897" fill="rgb(255,0,0)" r=".0001" />
    <text x="106.788817" y="-6.629897" stroke="rgb(0,0,0)" transform="translate(106.788817 -6.629897),scale(0.00001 -0.00001),translate(-106.788817 6.629897),translate(106.8125 -6.592499999999999),rotate(-30),translate(-106.8125 6.592499999999999)" >jl-cibeureum-meander</text>
    <line x1="106.789992" y1="-6.62824" x2="106.791666" y2="-6.626151" style="stroke:rgb(255,0,0);stroke-width:.00002" />
    <line x1="106.789992" y1="-6.62824" x2="106.791666" y2="-6.626151" style="stroke:rgb(0,0,0);stroke-width:.00002" />
    <circle cx="106.789992" cy="-6.62824" fill="rgb(255,0,0)" r=".0001" />
    <text x="106.789992" y="-6.62824" stroke="rgb(0,0,0)" transform="translate(106.789992 -6.62824),scale(0.00001 -0.00001),translate(-106.789992 6.62824),translate(106.8125 -6.592499999999999),rotate(-30),translate(-106.8125 6.592499999999999)" >jl-cibeureum-mekar-sari</text>
    <line x1="106.791666" y1="-6.626151" x2="106.7932" y2="-6.624819" style="stroke:rgb(255,0,0);stroke-width:.00002" />
    <line x1="106.791666" y1="-6.626151" x2="106.7932" y2="-6.624819" style="stroke:rgb(0,0,0);stroke-width:.00002" />
    <circle cx="106.791666" cy="-6.626151" fill="rgb(255,0,0)" r=".0001" />
    <text x="106.791666" y="-6.626151" stroke="rgb(0,0,0)" transform="translate(106.791666 -6.626151),scale(0.00001 -0.00001),translate(-106.791666 6.626151),translate(106.8125 -6.592499999999999),rotate(-30),translate(-106.8125 6.592499999999999)" >jl-cibeureum-5</text>
    <line x1="106.7932" y1="-6.624819" x2="106.794024" y2="-6.623186" style="stroke:rgb(255,0,0);stroke-width:.00002" />
    <line x1="106.7932" y1="-6.624819" x2="106.794024" y2="-6.623186" style="stroke:rgb(0,0,0);stroke-width:.00002" />
    <circle cx="106.7932" cy="-6.624819" fill="rgb(255,0,0)" r=".0001" />
    <text x="106.7932" y="-6.624819" stroke="rgb(0,0,0)" transform="translate(106.7932 -6.624819),scale(0.00001 -0.00001),translate(-106.7932 6.624819),translate(106.8125 -6.592499999999999),rotate(-30),translate(-106.8125 6.592499999999999)" >jl-cibeureum-4</text>
    <line x1="106.794024" y1="-6.623186" x2="106.793905" y2="-6.621897" style="stroke:rgb(255,0,0);stroke-width:.00002" />
    <line x1="106.794024" y1="-6.623186" x2="106.793905" y2="-6.621897" style="stroke:rgb(0,0,0);stroke-width:.00002" />
    <circle cx="106.794024" cy="-6.623186" fill="rgb(255,0,0)" r=".0001" />
    <text x="106.794024" y="-6.623186" stroke="rgb(0,0,0)" transform="translate(106.794024 -6.623186),scale(0.00001 -0.00001),translate(-106.794024 6.623186),translate(106.8125 -6.592499999999999),rotate(-30),translate(-106.8125 6.592499999999999)" >jl-cibeureum--over-river</text>
    <line x1="106.793905" y1="-6.621897" x2="106.794571" y2="-6.620458" style="stroke:rgb(255,0,0);stroke-width:.00002" />
    <line x1="106.793905" y1="-6.621897" x2="106.794571" y2="-6.620458" style="stroke:rgb(0,0,0);stroke-width:.00002" />
    <circle cx="106.793905" cy="-6.621897" fill="rgb(255,0,0)" r=".0001" />
    <text x="106.793905" y="-6.621897" stroke="rgb(0,0,0)" transform="translate(106.793905 -6.621897),scale(0.00001 -0.00001),translate(-106.793905 6.621897),translate(106.8125 -6.592499999999999),rotate(-30),translate(-106.8125 6.592499999999999)" >jl-cibeureum-3</text>
    <line x1="106.794571" y1="-6.620458" x2="106.794713" y2="-6.619096" style="stroke:rgb(255,0,0);stroke-width:.00002" />
    <line x1="106.794571" y1="-6.620458" x2="106.794713" y2="-6.619096" style="stroke:rgb(0,0,0);stroke-width:.00002" />
    <circle cx="106.794571" cy="-6.620458" fill="rgb(255,0,0)" r=".0001" />
    <text x="106.794571" y="-6.620458" stroke="rgb(0,0,0)" transform="translate(106.794571 -6.620458),scale(0.00001 -0.00001),translate(-106.794571 6.620458),translate(106.8125 -6.592499999999999),rotate(-30),translate(-106.8125 6.592499999999999)" >jl-cibeureum-2</text>
    <line x1="106.794713" y1="-6.619096" x2="106.794225" y2="-6.618952" style="stroke:rgb(255,0,0);stroke-width:.00002" />
    <line x1="106.794713" y1="-6.619096" x2="106.794225" y2="-6.618952" style="stroke:rgb(0,0,0);stroke-width:.00002" />
    <circle cx="106.794713" cy="-6.619096" fill="rgb(255,0,0)" r=".0001" />
    <text x="106.794713" y="-6.619096" stroke="rgb(0,0,0)" transform="translate(106.794713 -6.619096),scale(0.00001 -0.00001),translate(-106.794713 6.619096),translate(106.8125 -6.592499999999999),rotate(-30),translate(-106.8125 6.592499999999999)" >jl-cibeureum-1</text>
    <line x1="106.794225" y1="-6.618952" x2="106.793857" y2="-6.616909" style="stroke:rgb(255,0,0);stroke-width:.00002" />
    <line x1="106.794225" y1="-6.618952" x2="106.793857" y2="-6.616909" style="stroke:rgb(0,0,0);stroke-width:.00002" />
    <circle cx="106.794225" cy="-6.618952" fill="rgb(255,0,0)" r=".0001" />
    <text x="106.794225" y="-6.618952" stroke="rgb(0,0,0)" transform="translate(106.794225 -6.618952),scale(0.00001 -0.00001),translate(-106.794225 6.618952),translate(106.8125 -6.592499999999999),rotate(-30),translate(-106.8125 6.592499999999999)" >to-cibeureum-3</text>
    <line x1="106.793857" y1="-6.616909" x2="106.792618" y2="-6.614911" style="stroke:rgb(255,0,0);stroke-width:.00002" />
    <line x1="106.793857" y1="-6.616909" x2="106.792618" y2="-6.614911" style="stroke:rgb(0,0,0);stroke-width:.00002" />
    <circle cx="106.793857" cy="-6.616909" fill="rgb(255,0,0)" r=".0001" />
    <text x="106.793857" y="-6.616909" stroke="rgb(0,0,0)" transform="translate(106.793857 -6.616909),scale(0.00001 -0.00001),translate(-106.793857 6.616909),translate(106.8125 -6.592499999999999),rotate(-30),translate(-106.8125 6.592499999999999)" >to-cibeureum-2</text>
    <line x1="106.792618" y1="-6.614911" x2="106.792398" y2="-6.610941" style="stroke:rgb(255,0,0);stroke-width:.00002" />
    <line x1="106.792618" y1="-6.614911" x2="106.792398" y2="-6.610941" style="stroke:rgb(0,0,0);stroke-width:.00002" />
    <circle cx="106.792618" cy="-6.614911" fill="rgb(255,0,0)" r=".0001" />
    <text x="106.792618" y="-6.614911" stroke="rgb(0,0,0)" transform="translate(106.792618 -6.614911),scale(0.00001 -0.00001),translate(-106.792618 6.614911),translate(106.8125 -6.592499999999999),rotate(-30),translate(-106.8125 6.592499999999999)" >to-cibeureum-1</text>
    <line x1="106.792398" y1="-6.610941" x2="106.791768" y2="-6.607155" style="stroke:rgb(255,0,0);stroke-width:.00002" />
    <line x1="106.792398" y1="-6.610941" x2="106.791768" y2="-6.607155" style="stroke:rgb(0,0,0);stroke-width:.00002" />
    <circle cx="106.792398" cy="-6.610941" fill="rgb(255,0,0)" r=".0001" />
    <text x="106.792398" y="-6.610941" stroke="rgb(0,0,0)" transform="translate(106.792398 -6.610941),scale(0.00001 -0.00001),translate(-106.792398 6.610941),translate(106.8125 -6.592499999999999),rotate(-30),translate(-106.8125 6.592499999999999)" >kapten-Y</text>
    <line x1="106.791768" y1="-6.607155" x2="106.792093" y2="-6.606617" style="stroke:rgb(255,0,0);stroke-width:.00002" />
    <line x1="106.791768" y1="-6.607155" x2="106.792093" y2="-6.606617" style="stroke:rgb(0,0,0);stroke-width:.00002" />
    <circle cx="106.791768" cy="-6.607155" fill="rgb(255,0,0)" r=".0001" />
    <text x="106.791768" y="-6.607155" stroke="rgb(0,0,0)" transform="translate(106.791768 -6.607155),scale(0.00001 -0.00001),translate(-106.791768 6.607155),translate(106.8125 -6.592499999999999),rotate(-30),translate(-106.8125 6.592499999999999)" >empang-suryalaga-kapten</text>
    <line x1="106.792093" y1="-6.606617" x2="106.792003" y2="-6.605183" style="stroke:rgb(255,0,0);stroke-width:.00002" />
    <line x1="106.792093" y1="-6.606617" x2="106.792003" y2="-6.605183" style="stroke:rgb(0,0,0);stroke-width:.00002" />
    <circle cx="106.792093" cy="-6.606617" fill="rgb(255,0,0)" r=".0001" />
    <text x="106.792093" y="-6.606617" stroke="rgb(0,0,0)" transform="translate(106.792093 -6.606617),scale(0.00001 -0.00001),translate(-106.792093 6.606617),translate(106.8125 -6.592499999999999),rotate(-30),translate(-106.8125 6.592499999999999)" >empang-3</text>
    <line x1="106.792003" y1="-6.605183" x2="106.792833" y2="-6.605165" style="stroke:rgb(255,0,0);stroke-width:.00002" />
    <line x1="106.792003" y1="-6.605183" x2="106.792833" y2="-6.605165" style="stroke:rgb(0,0,0);stroke-width:.00002" />
    <circle cx="106.792003" cy="-6.605183" fill="rgb(255,0,0)" r=".0001" />
    <text x="106.792003" y="-6.605183" stroke="rgb(0,0,0)" transform="translate(106.792003 -6.605183),scale(0.00001 -0.00001),translate(-106.792003 6.605183),translate(106.8125 -6.592499999999999),rotate(-30),translate(-106.8125 6.592499999999999)" >empang-2</text>
    <line x1="106.792833" y1="-6.605165" x2="106.793464" y2="-6.607388" style="stroke:rgb(255,0,0);stroke-width:.00002" />
    <line x1="106.792833" y1="-6.605165" x2="106.793464" y2="-6.607388" style="stroke:rgb(0,0,0);stroke-width:.00002" />
    <circle cx="106.792833" cy="-6.605165" fill="rgb(255,0,0)" r=".0001" />
    <text x="106.792833" y="-6.605165" stroke="rgb(0,0,0)" transform="translate(106.792833 -6.605165),scale(0.00001 -0.00001),translate(-106.792833 6.605165),translate(106.8125 -6.592499999999999),rotate(-30),translate(-106.8125 6.592499999999999)" >empang-1</text>
    <line x1="106.793464" y1="-6.607388" x2="106.7949" y2="-6.6077" style="stroke:rgb(255,0,0);stroke-width:.00002" />
    <line x1="106.793464" y1="-6.607388" x2="106.7949" y2="-6.6077" style="stroke:rgb(0,0,0);stroke-width:.00002" />
    <circle cx="106.793464" cy="-6.607388" fill="rgb(255,0,0)" r=".0001" />
    <text x="106.793464" y="-6.607388" stroke="rgb(0,0,0)" transform="translate(106.793464 -6.607388),scale(0.00001 -0.00001),translate(-106.793464 6.607388),translate(106.8125 -6.592499999999999),rotate(-30),translate(-106.8125 6.592499999999999)" >sedane-pahlawan-empang</text>
    <line x1="106.7949" y1="-6.6077" x2="106.7964" y2="-6.6082" style="stroke:rgb(255,0,0);stroke-width:.00002" />
    <line x1="106.7949" y1="-6.6077" x2="106.7964" y2="-6.6082" style="stroke:rgb(0,0,0);stroke-width:.00002" />
    <circle cx="106.7949" cy="-6.6077" fill="rgb(255,0,0)" r=".0001" />
    <text x="106.7949" y="-6.6077" stroke="rgb(0,0,0)" transform="translate(106.7949 -6.6077),scale(0.00001 -0.00001),translate(-106.7949 6.6077),translate(106.8125 -6.592499999999999),rotate(-30),translate(-106.8125 6.592499999999999)" >pahlawan-empang</text>
    <line x1="106.7964" y1="-6.6082" x2="106.8" y2="-6.6113" style="stroke:rgb(255,0,0);stroke-width:.00002" />
    <line x1="106.7964" y1="-6.6082" x2="106.8" y2="-6.6113" style="stroke:rgb(0,0,0);stroke-width:.00002" />
    <circle cx="106.7964" cy="-6.6082" fill="rgb(255,0,0)" r=".0001" />
    <text x="106.7964" y="-6.6082" stroke="rgb(0,0,0)" transform="translate(106.7964 -6.6082),scale(0.00001 -0.00001),translate(-106.7964 6.6082),translate(106.8125 -6.592499999999999),rotate(-30),translate(-106.8125 6.592499999999999)" >pahlawan-4</text>
    <line x1="106.8" y1="-6.6113" x2="106.800971" y2="-6.611869" style="stroke:rgb(255,0,0);stroke-width:.00002" />
    <line x1="106.8" y1="-6.6113" x2="106.800971" y2="-6.611869" style="stroke:rgb(0,0,0);stroke-width:.00002" />
    <circle cx="106.8" cy="-6.6113" fill="rgb(255,0,0)" r=".0001" />
    <text x="106.8" y="-6.6113" stroke="rgb(0,0,0)" transform="translate(106.8 -6.6113),scale(0.00001 -0.00001),translate(-106.8 6.6113),translate(106.8125 -6.592499999999999),rotate(-30),translate(-106.8125 6.592499999999999)" >pahlawan-3</text>
    <line x1="106.800971" y1="-6.611869" x2="106.8021" y2="-6.6123" style="stroke:rgb(255,0,0);stroke-width:.00002" />
    <line x1="106.800971" y1="-6.611869" x2="106.8021" y2="-6.6123" style="stroke:rgb(0,0,0);stroke-width:.00002" />
    <circle cx="106.800971" cy="-6.611869" fill="rgb(255,0,0)" r=".0001" />
    <text x="106.800971" y="-6.611869" stroke="rgb(0,0,0)" transform="translate(106.800971 -6.611869),scale(0.00001 -0.00001),translate(-106.800971 6.611869),translate(106.8125 -6.592499999999999),rotate(-30),translate(-106.8125 6.592499999999999)" >pahlawan-layungsari</text>
    <line x1="106.8021" y1="-6.6123" x2="106.802443" y2="-6.611545" style="stroke:rgb(255,0,0);stroke-width:.00002" />
    <line x1="106.8021" y1="-6.6123" x2="106.802443" y2="-6.611545" style="stroke:rgb(0,0,0);stroke-width:.00002" />
    <circle cx="106.8021" cy="-6.6123" fill="rgb(255,0,0)" r=".0001" />
    <text x="106.8021" y="-6.6123" stroke="rgb(0,0,0)" transform="translate(106.8021 -6.6123),scale(0.00001 -0.00001),translate(-106.8021 6.6123),translate(106.8125 -6.592499999999999),rotate(-30),translate(-106.8125 6.592499999999999)" >pahlawan-ggaut</text>
    <line x1="106.802443" y1="-6.611545" x2="106.802825" y2="-6.611507" style="stroke:rgb(255,0,0);stroke-width:.00002" />
    <line x1="106.802443" y1="-6.611545" x2="106.802825" y2="-6.611507" style="stroke:rgb(0,0,0);stroke-width:.00002" />
    <circle cx="106.802443" cy="-6.611545" fill="rgb(255,0,0)" r=".0001" />
    <text x="106.802443" y="-6.611545" stroke="rgb(0,0,0)" transform="translate(106.802443 -6.611545),scale(0.00001 -0.00001),translate(-106.802443 6.611545),translate(106.8125 -6.592499999999999),rotate(-30),translate(-106.8125 6.592499999999999)" >ggaut-1</text>
    <line x1="106.802825" y1="-6.611507" x2="106.803897" y2="-6.610316" style="stroke:rgb(255,0,0);stroke-width:.00002" />
    <line x1="106.802825" y1="-6.611507" x2="106.803897" y2="-6.610316" style="stroke:rgb(0,0,0);stroke-width:.00002" />
    <circle cx="106.802825" cy="-6.611507" fill="rgb(255,0,0)" r=".0001" />
    <text x="106.802825" y="-6.611507" stroke="rgb(0,0,0)" transform="translate(106.802825 -6.611507),scale(0.00001 -0.00001),translate(-106.802825 6.611507),translate(106.8125 -6.592499999999999),rotate(-30),translate(-106.8125 6.592499999999999)" >ggaut-2</text>
    <line x1="106.803897" y1="-6.610316" x2="106.801231" y2="-6.608503" style="stroke:rgb(255,0,0);stroke-width:.00002" />
    <line x1="106.803897" y1="-6.610316" x2="106.801231" y2="-6.608503" style="stroke:rgb(0,0,0);stroke-width:.00002" />
    <circle cx="106.803897" cy="-6.610316" fill="rgb(255,0,0)" r=".0001" />
    <text x="106.803897" y="-6.610316" stroke="rgb(0,0,0)" transform="translate(106.803897 -6.610316),scale(0.00001 -0.00001),translate(-106.803897 6.610316),translate(106.8125 -6.592499999999999),rotate(-30),translate(-106.8125 6.592499999999999)" >ggaut-padasuka</text>
    <line x1="106.801231" y1="-6.608503" x2="106.801313" y2="-6.608035" style="stroke:rgb(255,0,0);stroke-width:.00002" />
    <line x1="106.801231" y1="-6.608503" x2="106.801313" y2="-6.608035" style="stroke:rgb(0,0,0);stroke-width:.00002" />
    <circle cx="106.801231" cy="-6.608503" fill="rgb(255,0,0)" r=".0001" />
    <text x="106.801231" y="-6.608503" stroke="rgb(0,0,0)" transform="translate(106.801231 -6.608503),scale(0.00001 -0.00001),translate(-106.801231 6.608503),translate(106.8125 -6.592499999999999),rotate(-30),translate(-106.8125 6.592499999999999)" >padasuka-1</text>
    <line x1="106.801313" y1="-6.608035" x2="106.800503" y2="-6.60806" style="stroke:rgb(255,0,0);stroke-width:.00002" />
    <line x1="106.801313" y1="-6.608035" x2="106.800503" y2="-6.60806" style="stroke:rgb(0,0,0);stroke-width:.00002" />
    <circle cx="106.801313" cy="-6.608035" fill="rgb(255,0,0)" r=".0001" />
    <text x="106.801313" y="-6.608035" stroke="rgb(0,0,0)" transform="translate(106.801313 -6.608035),scale(0.00001 -0.00001),translate(-106.801313 6.608035),translate(106.8125 -6.592499999999999),rotate(-30),translate(-106.8125 6.592499999999999)" >padasuka-cincau</text>
    <line x1="106.800503" y1="-6.60806" x2="106.798991" y2="-6.60685" style="stroke:rgb(255,0,0);stroke-width:.00002" />
    <line x1="106.800503" y1="-6.60806" x2="106.798991" y2="-6.60685" style="stroke:rgb(0,0,0);stroke-width:.00002" />
    <circle cx="106.800503" cy="-6.60806" fill="rgb(255,0,0)" r=".0001" />
    <text x="106.800503" y="-6.60806" stroke="rgb(0,0,0)" transform="translate(106.800503 -6.60806),scale(0.00001 -0.00001),translate(-106.800503 6.60806),translate(106.8125 -6.592499999999999),rotate(-30),translate(-106.8125 6.592499999999999)" >cincau-1</text>
    <line x1="106.798991" y1="-6.60685" x2="106.797256" y2="-6.603941" style="stroke:rgb(255,0,0);stroke-width:.00002" />
    <line x1="106.798991" y1="-6.60685" x2="106.797256" y2="-6.603941" style="stroke:rgb(0,0,0);stroke-width:.00002" />
    <circle cx="106.798991" cy="-6.60685" fill="rgb(255,0,0)" r=".0001" />
    <text x="106.798991" y="-6.60685" stroke="rgb(0,0,0)" transform="translate(106.798991 -6.60685),scale(0.00001 -0.00001),translate(-106.798991 6.60685),translate(106.8125 -6.592499999999999),rotate(-30),translate(-106.8125 6.592499999999999)" >cincau-2</text>
    <line x1="106.797256" y1="-6.603941" x2="106.7967" y2="-6.6042" style="stroke:rgb(255,0,0);stroke-width:.00002" />
    <line x1="106.797256" y1="-6.603941" x2="106.7967" y2="-6.6042" style="stroke:rgb(0,0,0);stroke-width:.00002" />
    <circle cx="106.797256" cy="-6.603941" fill="rgb(255,0,0)" r=".0001" />
    <text x="106.797256" y="-6.603941" stroke="rgb(0,0,0)" transform="translate(106.797256 -6.603941),scale(0.00001 -0.00001),translate(-106.797256 6.603941),translate(106.8125 -6.592499999999999),rotate(-30),translate(-106.8125 6.592499999999999)" >cincau-kb</text>
    <line x1="106.7967" y1="-6.6042" x2="106.7965" y2="-6.6046" style="stroke:rgb(255,0,0);stroke-width:.00002" />
    <line x1="106.7967" y1="-6.6042" x2="106.7965" y2="-6.6046" style="stroke:rgb(0,0,0);stroke-width:.00002" />
    <circle cx="106.7967" cy="-6.6042" fill="rgb(255,0,0)" r=".0001" />
    <text x="106.7967" y="-6.6042" stroke="rgb(0,0,0)" transform="translate(106.7967 -6.6042),scale(0.00001 -0.00001),translate(-106.7967 6.6042),translate(106.8125 -6.592499999999999),rotate(-30),translate(-106.8125 6.592499999999999)" >kb-btm-1</text>
  </g>
</svg>
