<svg width="1049.9999999998977" height="1849.9999999999961" xmlns="http://www.w3.org/2000/svg" xmlns:xlink="http://www.w3.org/1999/xlink" >
  <g transform="translate(524.9999999999488 924.9999999999981) rotate(30) scale(10000 -10000) translate(-106.8125 6.592499999999999)">
    <path d="M106.76 -6.5 L106.865 -6.5 L106.865 -6.685 L106.76 -6.685 Z" fill="none" stroke="black" stroke-width="0.001" transform="translate(106.8125 -6.592499999999999) rotate(30) translate(-106.8125 6.592499999999999)" />
    <path d="M106.81614961389384 -6.615903088849315 L106.81614961389384 -6.615903088849315 L106.8178587550151 -6.616116731489471 L106.81839557624541 -6.61653425911305 L106.81839557624541 -6.61653425911305 L106.81888785965994 -6.616917146213234 L106.81925000000001 -6.6174 L106.81933 -6.617840000000001 L106.81956586699394 -6.618154489325247 L106.81981905141926 -6.618046527664635 L106.81981905141926 -6.618046527664635 L106.82033344145118 -6.61782718399065 L106.82427172050659 -6.621344327962988 L106.82427172050659 -6.621344327962988 L106.82814489440109 -6.624803328715651 L106.82867616730556 -6.6259056683121855 L106.82867616730556 -6.6259056683121855 L106.82901 -6.627059 L106.82831583269444 -6.626079331687816 L106.82831583269444 -6.626079331687816 L106.82775492742108 -6.624915507808373 L106.82866760763137 -6.623397924028132 L106.82866760763137 -6.623397924028132 L106.82954124509557 -6.621945259633181 L106.83162274149974 -6.620158734644563 L106.83162274149974 -6.620158734644563 L106.83365573225392 -6.618413841510642 L106.83531725624287 -6.61568985313542 L106.83531725624287 -6.61568985313542 L106.83697675545588 -6.612969184282629 L106.83776383306424 -6.60900703163698 L106.83776383306424 -6.60900703163698 L106.838754 -6.605049 L106.83815616693575 -6.60908496836302 L106.83815616693575 -6.60908496836302 L106.8373552445441 -6.613116815717382 L106.83565874375712 -6.6158981468645806 L106.83565874375712 -6.6158981468645806 L106.83396426774608 -6.618676158489357 L106.83188325850024 -6.620462265355438 L106.83188325850024 -6.620462265355438 L106.82985075490444 -6.622206740366812 L106.82901039236863 -6.623604075971868 L106.82901039236863 -6.623604075971868 L106.82802891856883 -6.625236048159392 L106.82400527949342 -6.621642672037011 L106.82400527949342 -6.621642672037011 L106.82025655854882 -6.6182948160093495 L106.8201599209161 -6.618336023754624 L106.81987042482612 -6.618676893251472 L106.81936826601215 -6.618891021349518 L106.81873 -6.6180400000000015 L106.81873 -6.6180400000000015 L106.81831214034007 -6.617482853786761 L106.8179044237546 -6.617165740886951 L106.8179044237546 -6.617165740886951 L106.81754124498491 -6.616883268510529 L106.81624884168151 -6.616721718097605 L106.81587673747775 -6.616473648628426 L106.81479764455835 -6.616338762013502 L106.81493834838233 -6.6167327327206 L106.81493834838233 -6.6167327327206 L106.815 -6.6175 L106.81462891889709 -6.617055615661719 L106.81430603595597 -6.6167461861764805 L106.8141267862506 -6.616244287001459 L106.81345769230768 -6.614638461538461 L106.81311923076923 -6.614346153846153 L106.81247339614019 -6.612796150736445 L106.81048291115329 -6.610065020173015 L106.8100856881475 -6.60985955999761 L106.80842904841417 -6.6075864961774595 L106.80866513543887 -6.607485316024014 L106.80866513543887 -6.607485316024014 L106.80791681601355 -6.6078060243491565 L106.80725623984303 -6.6073656402354715 L106.80725623984303 -6.6073656402354715 L106.80721055738859 -6.607335185265844 L106.807163137085 -6.607341959594929 L106.807163137085 -6.607341959594929 L106.80630475806706 -6.607464585168921 L106.80557705721971 -6.606332606073051 L106.80557705721971 -6.606332606073051 L106.80536323902989 -6.606 L106.80545000000001 -6.606 L106.80545000000001 -6.606 L106.80445494239889 -6.606 L106.80410229130801 -6.604374420263322 L106.802981265259 -6.6029803970936864 L106.80311143658504 -6.603580434568068 L106.80267948505588 -6.603683229084153 L106.802244049874 -6.6035812673148735 L106.80006428985273 -6.6041 L106.80014999999999 -6.6041 L106.79934999999999 -6.6045 L106.80002492235951 -6.6045 L106.80054164078649 -6.604241640786498 L106.79920000000001 -6.6042416407864994 L106.79935549972124 -6.604163890925884 L106.79877763639539 -6.604478646791846 L106.79852203199775 -6.60484561598934 L106.79788703856394 -6.605191490003477 L106.79775045973074 -6.6052551121577885 L106.79730341781818 -6.60524272149938 L106.79659544271824 -6.605572515655669 L106.79623358994114 -6.60533128047094 L106.7949023094702 -6.605164870412079 L106.79459851594751 -6.604962341396934 L106.79319990576593 -6.600941337124893 L106.79319990576593 -6.600941337124893 L106.79178622370617 -6.596877001203056 L106.79239438279207 -6.595255243640654 L106.79234756633318 -6.5948104872813085 L106.79298564409527 -6.593108946582406 L106.79480388268242 -6.592098814033991 L106.79525067417912 -6.592079388316745 L106.79721891867982 -6.59098591914969 L106.79859484529976 -6.5916113403405685 L106.79859484529976 -6.5916113403405685 L106.79835278152954 -6.5915013113541105 L106.79878560309433 -6.591279342382614 L106.79878560309433 -6.591279342382614 L106.80072859208582 -6.59028289649551 L106.80180519866782 -6.590722438497244 L106.80209992867027 -6.591058792812896 L106.80260680963681 -6.591265735142984 L106.8028449142636 -6.591447034186954 L106.80343617135452 -6.592651365973643 L106.8036511649319 -6.592815067664648 L106.80407399915201 -6.593491602416791 L106.80560039609922 -6.594424400551194 L106.80611975415128 -6.595255373434507 L106.806514196937 -6.597720640845242 L106.80624561308512 -6.598573789551217 L106.80667319520335 -6.6012461777900855 L106.8066704650534 -6.601250000000004 L106.80469425519476 -6.602296228748694 L106.80519882999201 -6.601589824032545 L106.80582016464153 -6.602388682867644 L106.8066270580193 -6.602774588396139 L106.80699476947072 -6.603247360262248 L106.80853606452887 -6.602315414413135 L106.80853606452887 -6.602315414413135 L106.83114635458611 -6.5886440762389995 L106.80972261625959 -6.6036406930675415 L106.80928023102253 -6.603706231621183 L106.80798353451416 -6.604613919177036 L106.80895750548123 -6.605761813531083 L106.80895750548123 -6.605761813531083 L106.81037996985597 -6.607438289401317 L106.81058829013736 -6.6077507698233955 L106.81064376015699 -6.608194529980375 L106.81083349657546 -6.608479134608083 L106.8120841668329 -6.61038015339941 L106.8120841668329 -6.61038015339941 L106.81335479524252 -6.612311508582014 L106.81411923076924 -6.614146153846154 L106.81411923076924 -6.614146153846154 L106.81477995037916 -6.615731880909982 Z" stroke="orange" stroke-width="0.0002" fill="none" />



    <line x1="106.8145" y1="-6.6161" x2="106.8177" y2="-6.6165" style="stroke:rgb(255,0,0);stroke-width:.00002" />
    <line x1="106.81454961389383" y1="-6.6157030888493145" x2="106.81614961389384" y2="-6.615903088849315" style="stroke:rgb(0,0,0);stroke-width:.00002" />
    <line x1="106.81614961389384" y1="-6.615903088849315" x2="106.81614961389384" y2="-6.615903088849315" style="stroke:rgb(0,0,0);stroke-width:.00002" />
    <line x1="106.81614961389384" y1="-6.615903088849315" x2="106.81774961389384" y2="-6.616103088849314" style="stroke:rgb(0,0,0);stroke-width:.00002" />
    <circle cx="106.8145" cy="-6.6161" fill="rgb(255,0,0)" r=".0001" />
    <text x="106.8145" y="-6.6161" stroke="rgb(0,0,0)" transform="translate(106.8145 -6.6161),scale(0.00001 -0.00001),translate(-106.8145 6.6161),translate(106.8125 -6.592499999999999),rotate(-30),translate(-106.8125 6.592499999999999)" >pajajaran-durian</text>
    <line x1="106.8177" y1="-6.6165" x2="106.8186" y2="-6.6172" style="stroke:rgb(255,0,0);stroke-width:.00002" />
    <line x1="106.8179455762454" y1="-6.61618425911305" x2="106.81839557624541" y2="-6.61653425911305" style="stroke:rgb(0,0,0);stroke-width:.00002" />
    <line x1="106.81839557624541" y1="-6.61653425911305" x2="106.81839557624541" y2="-6.61653425911305" style="stroke:rgb(0,0,0);stroke-width:.00002" />
    <line x1="106.81839557624541" y1="-6.61653425911305" x2="106.81884557624541" y2="-6.61688425911305" style="stroke:rgb(0,0,0);stroke-width:.00002" />
    <circle cx="106.8177" cy="-6.6165" fill="rgb(255,0,0)" r=".0001" />
    <text x="106.8177" y="-6.6165" stroke="rgb(0,0,0)" transform="translate(106.8177 -6.6165),scale(0.00001 -0.00001),translate(-106.8177 6.6165),translate(106.8125 -6.592499999999999),rotate(-30),translate(-106.8125 6.592499999999999)" >durian-1</text>
    <line x1="106.8186" y1="-6.6172" x2="106.8195" y2="-6.6184" style="stroke:rgb(255,0,0);stroke-width:.00002" />
    <line x1="106.81892" y1="-6.61696" x2="106.81925000000001" y2="-6.6174" style="stroke:rgb(0,0,0);stroke-width:.00002" />
    <line x1="106.81925000000001" y1="-6.6174" x2="106.81933" y2="-6.617840000000001" style="stroke:rgb(0,0,0);stroke-width:.00002" />
    <line x1="106.81933" y1="-6.617840000000001" x2="106.81966" y2="-6.61828" style="stroke:rgb(0,0,0);stroke-width:.00002" />
    <circle cx="106.8186" cy="-6.6172" fill="rgb(255,0,0)" r=".0001" />
    <text x="106.8186" y="-6.6172" stroke="rgb(0,0,0)" transform="translate(106.8186 -6.6172),scale(0.00001 -0.00001),translate(-106.8186 6.6172),translate(106.8125 -6.592499999999999),rotate(-30),translate(-106.8125 6.592499999999999)" >durian-2</text>
    <line x1="106.8195" y1="-6.6184" x2="106.820295" y2="-6.618061" style="stroke:rgb(255,0,0);stroke-width:.00002" />
    <line x1="106.81942155141927" y1="-6.618216027664635" x2="106.81981905141926" y2="-6.618046527664635" style="stroke:rgb(0,0,0);stroke-width:.00002" />
    <line x1="106.81981905141926" y1="-6.618046527664635" x2="106.81981905141926" y2="-6.618046527664635" style="stroke:rgb(0,0,0);stroke-width:.00002" />
    <line x1="106.81981905141926" y1="-6.618046527664635" x2="106.82021655141926" y2="-6.617877027664635" style="stroke:rgb(0,0,0);stroke-width:.00002" />
    <circle cx="106.8195" cy="-6.6184" fill="rgb(255,0,0)" r=".0001" />
    <text x="106.8195" y="-6.6184" stroke="rgb(0,0,0)" transform="translate(106.8195 -6.6184),scale(0.00001 -0.00001),translate(-106.8195 6.6184),translate(106.8125 -6.592499999999999),rotate(-30),translate(-106.8125 6.592499999999999)" >durian-3</text>
    <line x1="106.820295" y1="-6.618061" x2="106.827982" y2="-6.624926" style="stroke:rgb(255,0,0);stroke-width:.00002" />
    <line x1="106.82042822050659" y1="-6.617911827962988" x2="106.82427172050659" y2="-6.621344327962988" style="stroke:rgb(0,0,0);stroke-width:.00002" />
    <line x1="106.82427172050659" y1="-6.621344327962988" x2="106.82427172050659" y2="-6.621344327962988" style="stroke:rgb(0,0,0);stroke-width:.00002" />
    <line x1="106.82427172050659" y1="-6.621344327962988" x2="106.82811522050659" y2="-6.624776827962989" style="stroke:rgb(0,0,0);stroke-width:.00002" />
    <circle cx="106.820295" cy="-6.618061" fill="rgb(255,0,0)" r=".0001" />
    <text x="106.820295" y="-6.618061" stroke="rgb(0,0,0)" transform="translate(106.820295 -6.618061),scale(0.00001 -0.00001),translate(-106.820295 6.618061),translate(106.8125 -6.592499999999999),rotate(-30),translate(-106.8125 6.592499999999999)" >rambutan</text>
    <line x1="106.827982" y1="-6.624926" x2="106.82901" y2="-6.627059" style="stroke:rgb(255,0,0);stroke-width:.00002" />
    <line x1="106.82816216730556" y1="-6.624839168312185" x2="106.82867616730556" y2="-6.6259056683121855" style="stroke:rgb(0,0,0);stroke-width:.00002" />
    <line x1="106.82867616730556" y1="-6.6259056683121855" x2="106.82867616730556" y2="-6.6259056683121855" style="stroke:rgb(0,0,0);stroke-width:.00002" />
    <line x1="106.82867616730556" y1="-6.6259056683121855" x2="106.82919016730555" y2="-6.626972168312185" style="stroke:rgb(0,0,0);stroke-width:.00002" />
    <circle cx="106.827982" cy="-6.624926" fill="rgb(255,0,0)" r=".0001" />
    <text x="106.827982" y="-6.624926" stroke="rgb(0,0,0)" transform="translate(106.827982 -6.624926),scale(0.00001 -0.00001),translate(-106.827982 6.624926),translate(106.8125 -6.592499999999999),rotate(-30),translate(-106.8125 6.592499999999999)" >banteng-sungai</text>
    <line x1="106.82901" y1="-6.627059" x2="106.827982" y2="-6.624926" style="stroke:rgb(255,0,0);stroke-width:.00002" />
    <line x1="106.82882983269444" y1="-6.627145831687815" x2="106.82831583269444" y2="-6.626079331687816" style="stroke:rgb(0,0,0);stroke-width:.00002" />
    <line x1="106.82831583269444" y1="-6.626079331687816" x2="106.82831583269444" y2="-6.626079331687816" style="stroke:rgb(0,0,0);stroke-width:.00002" />
    <line x1="106.82831583269444" y1="-6.626079331687816" x2="106.82780183269445" y2="-6.625012831687815" style="stroke:rgb(0,0,0);stroke-width:.00002" />
    <circle cx="106.82901" cy="-6.627059" fill="rgb(255,0,0)" r=".0001" />
    <text x="106.82901" y="-6.627059" stroke="rgb(0,0,0)" transform="translate(106.82901 -6.627059),scale(0.00001 -0.00001),translate(-106.82901 6.627059),translate(106.8125 -6.592499999999999),rotate(-30),translate(-106.8125 6.592499999999999)" >katulampa</text>
    <line x1="106.827982" y1="-6.624926" x2="106.829696" y2="-6.622076" style="stroke:rgb(255,0,0);stroke-width:.00002" />
    <line x1="106.82781060763138" y1="-6.624822924028132" x2="106.82866760763137" y2="-6.623397924028132" style="stroke:rgb(0,0,0);stroke-width:.00002" />
    <line x1="106.82866760763137" y1="-6.623397924028132" x2="106.82866760763137" y2="-6.623397924028132" style="stroke:rgb(0,0,0);stroke-width:.00002" />
    <line x1="106.82866760763137" y1="-6.623397924028132" x2="106.82952460763137" y2="-6.621972924028132" style="stroke:rgb(0,0,0);stroke-width:.00002" />
    <circle cx="106.827982" cy="-6.624926" fill="rgb(255,0,0)" r=".0001" />
    <text x="106.827982" y="-6.624926" stroke="rgb(0,0,0)" transform="translate(106.827982 -6.624926),scale(0.00001 -0.00001),translate(-106.827982 6.624926),translate(106.8125 -6.592499999999999),rotate(-30),translate(-106.8125 6.592499999999999)" >banteng-sungai</text>
    <line x1="106.829696" y1="-6.622076" x2="106.83381" y2="-6.618545" style="stroke:rgb(255,0,0);stroke-width:.00002" />
    <line x1="106.82956574149975" y1="-6.621924234644562" x2="106.83162274149974" y2="-6.620158734644563" style="stroke:rgb(0,0,0);stroke-width:.00002" />
    <line x1="106.83162274149974" y1="-6.620158734644563" x2="106.83162274149974" y2="-6.620158734644563" style="stroke:rgb(0,0,0);stroke-width:.00002" />
    <line x1="106.83162274149974" y1="-6.620158734644563" x2="106.83367974149975" y2="-6.618393234644563" style="stroke:rgb(0,0,0);stroke-width:.00002" />
    <circle cx="106.829696" cy="-6.622076" fill="rgb(255,0,0)" r=".0001" />
    <text x="106.829696" y="-6.622076" stroke="rgb(0,0,0)" transform="translate(106.829696 -6.622076),scale(0.00001 -0.00001),translate(-106.829696 6.622076),translate(106.8125 -6.592499999999999),rotate(-30),translate(-106.8125 6.592499999999999)" >banteng-busyro</text>
    <line x1="106.83381" y1="-6.618545" x2="106.837166" y2="-6.613043" style="stroke:rgb(255,0,0);stroke-width:.00002" />
    <line x1="106.83363925624288" y1="-6.61844085313542" x2="106.83531725624287" y2="-6.61568985313542" style="stroke:rgb(0,0,0);stroke-width:.00002" />
    <line x1="106.83531725624287" y1="-6.61568985313542" x2="106.83531725624287" y2="-6.61568985313542" style="stroke:rgb(0,0,0);stroke-width:.00002" />
    <line x1="106.83531725624287" y1="-6.61568985313542" x2="106.83699525624287" y2="-6.61293885313542" style="stroke:rgb(0,0,0);stroke-width:.00002" />
    <circle cx="106.83381" cy="-6.618545" fill="rgb(255,0,0)" r=".0001" />
    <text x="106.83381" y="-6.618545" stroke="rgb(0,0,0)" transform="translate(106.83381 -6.618545),scale(0.00001 -0.00001),translate(-106.83381 6.618545),translate(106.8125 -6.592499999999999),rotate(-30),translate(-106.8125 6.592499999999999)" >banteng-tol</text>
    <line x1="106.837166" y1="-6.613043" x2="106.838754" y2="-6.605049" style="stroke:rgb(255,0,0);stroke-width:.00002" />
    <line x1="106.83696983306424" y1="-6.61300403163698" x2="106.83776383306424" y2="-6.60900703163698" style="stroke:rgb(0,0,0);stroke-width:.00002" />
    <line x1="106.83776383306424" y1="-6.60900703163698" x2="106.83776383306424" y2="-6.60900703163698" style="stroke:rgb(0,0,0);stroke-width:.00002" />
    <line x1="106.83776383306424" y1="-6.60900703163698" x2="106.83855783306424" y2="-6.60501003163698" style="stroke:rgb(0,0,0);stroke-width:.00002" />
    <circle cx="106.837166" cy="-6.613043" fill="rgb(255,0,0)" r=".0001" />
    <text x="106.837166" y="-6.613043" stroke="rgb(0,0,0)" transform="translate(106.837166 -6.613043),scale(0.00001 -0.00001),translate(-106.837166 6.613043),translate(106.8125 -6.592499999999999),rotate(-30),translate(-106.8125 6.592499999999999)" >pasirangin-1</text>
    <line x1="106.838754" y1="-6.605049" x2="106.837166" y2="-6.613043" style="stroke:rgb(255,0,0);stroke-width:.00002" />
    <line x1="106.83895016693575" y1="-6.60508796836302" x2="106.83815616693575" y2="-6.60908496836302" style="stroke:rgb(0,0,0);stroke-width:.00002" />
    <line x1="106.83815616693575" y1="-6.60908496836302" x2="106.83815616693575" y2="-6.60908496836302" style="stroke:rgb(0,0,0);stroke-width:.00002" />
    <line x1="106.83815616693575" y1="-6.60908496836302" x2="106.83736216693575" y2="-6.61308196836302" style="stroke:rgb(0,0,0);stroke-width:.00002" />
    <circle cx="106.838754" cy="-6.605049" fill="rgb(255,0,0)" r=".0001" />
    <text x="106.838754" y="-6.605049" stroke="rgb(0,0,0)" transform="translate(106.838754 -6.605049),scale(0.00001 -0.00001),translate(-106.838754 6.605049),translate(106.8125 -6.592499999999999),rotate(-30),translate(-106.8125 6.592499999999999)" >pasirangin-novotel</text>
    <line x1="106.837166" y1="-6.613043" x2="106.83381" y2="-6.618545" style="stroke:rgb(255,0,0);stroke-width:.00002" />
    <line x1="106.83733674375712" y1="-6.613147146864581" x2="106.83565874375712" y2="-6.6158981468645806" style="stroke:rgb(0,0,0);stroke-width:.00002" />
    <line x1="106.83565874375712" y1="-6.6158981468645806" x2="106.83565874375712" y2="-6.6158981468645806" style="stroke:rgb(0,0,0);stroke-width:.00002" />
    <line x1="106.83565874375712" y1="-6.6158981468645806" x2="106.83398074375712" y2="-6.6186491468645805" style="stroke:rgb(0,0,0);stroke-width:.00002" />
    <circle cx="106.837166" cy="-6.613043" fill="rgb(255,0,0)" r=".0001" />
    <text x="106.837166" y="-6.613043" stroke="rgb(0,0,0)" transform="translate(106.837166 -6.613043),scale(0.00001 -0.00001),translate(-106.837166 6.613043),translate(106.8125 -6.592499999999999),rotate(-30),translate(-106.8125 6.592499999999999)" >pasirangin-1</text>
    <line x1="106.83381" y1="-6.618545" x2="106.829696" y2="-6.622076" style="stroke:rgb(255,0,0);stroke-width:.00002" />
    <line x1="106.83394025850025" y1="-6.618696765355438" x2="106.83188325850024" y2="-6.620462265355438" style="stroke:rgb(0,0,0);stroke-width:.00002" />
    <line x1="106.83188325850024" y1="-6.620462265355438" x2="106.83188325850024" y2="-6.620462265355438" style="stroke:rgb(0,0,0);stroke-width:.00002" />
    <line x1="106.83188325850024" y1="-6.620462265355438" x2="106.82982625850025" y2="-6.622227765355437" style="stroke:rgb(0,0,0);stroke-width:.00002" />
    <circle cx="106.83381" cy="-6.618545" fill="rgb(255,0,0)" r=".0001" />
    <text x="106.83381" y="-6.618545" stroke="rgb(0,0,0)" transform="translate(106.83381 -6.618545),scale(0.00001 -0.00001),translate(-106.83381 6.618545),translate(106.8125 -6.592499999999999),rotate(-30),translate(-106.8125 6.592499999999999)" >banteng-tol</text>
    <line x1="106.829696" y1="-6.622076" x2="106.827982" y2="-6.624926" style="stroke:rgb(255,0,0);stroke-width:.00002" />
    <line x1="106.82986739236863" y1="-6.622179075971868" x2="106.82901039236863" y2="-6.623604075971868" style="stroke:rgb(0,0,0);stroke-width:.00002" />
    <line x1="106.82901039236863" y1="-6.623604075971868" x2="106.82901039236863" y2="-6.623604075971868" style="stroke:rgb(0,0,0);stroke-width:.00002" />
    <line x1="106.82901039236863" y1="-6.623604075971868" x2="106.82815339236863" y2="-6.625029075971868" style="stroke:rgb(0,0,0);stroke-width:.00002" />
    <circle cx="106.829696" cy="-6.622076" fill="rgb(255,0,0)" r=".0001" />
    <text x="106.829696" y="-6.622076" stroke="rgb(0,0,0)" transform="translate(106.829696 -6.622076),scale(0.00001 -0.00001),translate(-106.829696 6.622076),translate(106.8125 -6.592499999999999),rotate(-30),translate(-106.8125 6.592499999999999)" >banteng-busyro</text>
    <line x1="106.827982" y1="-6.624926" x2="106.820295" y2="-6.618061" style="stroke:rgb(255,0,0);stroke-width:.00002" />
    <line x1="106.82784877949342" y1="-6.625075172037012" x2="106.82400527949342" y2="-6.621642672037011" style="stroke:rgb(0,0,0);stroke-width:.00002" />
    <line x1="106.82400527949342" y1="-6.621642672037011" x2="106.82400527949342" y2="-6.621642672037011" style="stroke:rgb(0,0,0);stroke-width:.00002" />
    <line x1="106.82400527949342" y1="-6.621642672037011" x2="106.82016177949342" y2="-6.618210172037012" style="stroke:rgb(0,0,0);stroke-width:.00002" />
    <circle cx="106.827982" cy="-6.624926" fill="rgb(255,0,0)" r=".0001" />
    <text x="106.827982" y="-6.624926" stroke="rgb(0,0,0)" transform="translate(106.827982 -6.624926),scale(0.00001 -0.00001),translate(-106.827982 6.624926),translate(106.8125 -6.592499999999999),rotate(-30),translate(-106.8125 6.592499999999999)" >banteng-sungai</text>
    <line x1="106.820295" y1="-6.618061" x2="106.8195" y2="-6.6184" style="stroke:rgb(255,0,0);stroke-width:.00002" />
    <line x1="106.82037344858074" y1="-6.618244972335365" x2="106.8201599209161" y2="-6.618336023754624" style="stroke:rgb(0,0,0);stroke-width:.00002" />
    <line x1="106.8201599209161" y1="-6.618336023754624" x2="106.81987042482612" y2="-6.618676893251472" style="stroke:rgb(0,0,0);stroke-width:.00002" />
    <line x1="106.81987042482612" y1="-6.618676893251472" x2="106.8196568971615" y2="-6.618767944670731" style="stroke:rgb(0,0,0);stroke-width:.00002" />
    <circle cx="106.820295" cy="-6.618061" fill="rgb(255,0,0)" r=".0001" />
    <text x="106.820295" y="-6.618061" stroke="rgb(0,0,0)" transform="translate(106.820295 -6.618061),scale(0.00001 -0.00001),translate(-106.820295 6.618061),translate(106.8125 -6.592499999999999),rotate(-30),translate(-106.8125 6.592499999999999)" >rambutan</text>
    <line x1="106.8195" y1="-6.6184" x2="106.8186" y2="-6.6172" style="stroke:rgb(255,0,0);stroke-width:.00002" />
    <line x1="106.81918" y1="-6.618640000000001" x2="106.81873" y2="-6.6180400000000015" style="stroke:rgb(0,0,0);stroke-width:.00002" />
    <line x1="106.81873" y1="-6.6180400000000015" x2="106.81873" y2="-6.6180400000000015" style="stroke:rgb(0,0,0);stroke-width:.00002" />
    <line x1="106.81873" y1="-6.6180400000000015" x2="106.81828" y2="-6.617440000000001" style="stroke:rgb(0,0,0);stroke-width:.00002" />
    <circle cx="106.8195" cy="-6.6184" fill="rgb(255,0,0)" r=".0001" />
    <text x="106.8195" y="-6.6184" stroke="rgb(0,0,0)" transform="translate(106.8195 -6.6184),scale(0.00001 -0.00001),translate(-106.8195 6.6184),translate(106.8125 -6.592499999999999),rotate(-30),translate(-106.8125 6.592499999999999)" >durian-3</text>
    <line x1="106.8186" y1="-6.6172" x2="106.8177" y2="-6.6165" style="stroke:rgb(255,0,0);stroke-width:.00002" />
    <line x1="106.8183544237546" y1="-6.617515740886951" x2="106.8179044237546" y2="-6.617165740886951" style="stroke:rgb(0,0,0);stroke-width:.00002" />
    <line x1="106.8179044237546" y1="-6.617165740886951" x2="106.8179044237546" y2="-6.617165740886951" style="stroke:rgb(0,0,0);stroke-width:.00002" />
    <line x1="106.8179044237546" y1="-6.617165740886951" x2="106.8174544237546" y2="-6.616815740886951" style="stroke:rgb(0,0,0);stroke-width:.00002" />
    <circle cx="106.8186" cy="-6.6172" fill="rgb(255,0,0)" r=".0001" />
    <text x="106.8186" y="-6.6172" stroke="rgb(0,0,0)" transform="translate(106.8186 -6.6172),scale(0.00001 -0.00001),translate(-106.8186 6.6172),translate(106.8125 -6.592499999999999),rotate(-30),translate(-106.8125 6.592499999999999)" >durian-2</text>
    <line x1="106.8177" y1="-6.6165" x2="106.8145" y2="-6.6161" style="stroke:rgb(255,0,0);stroke-width:.00002" />
    <line x1="106.81765038610617" y1="-6.616896911150686" x2="106.81624884168151" y2="-6.616721718097605" style="stroke:rgb(0,0,0);stroke-width:.00002" />
    <line x1="106.81624884168151" y1="-6.616721718097605" x2="106.81587673747775" y2="-6.616473648628426" style="stroke:rgb(0,0,0);stroke-width:.00002" />
    <line x1="106.81587673747775" y1="-6.616473648628426" x2="106.81447519305308" y2="-6.616298455575343" style="stroke:rgb(0,0,0);stroke-width:.00002" />
    <circle cx="106.8177" cy="-6.6165" fill="rgb(255,0,0)" r=".0001" />
    <text x="106.8177" y="-6.6165" stroke="rgb(0,0,0)" transform="translate(106.8177 -6.6165),scale(0.00001 -0.00001),translate(-106.8177 6.6165),translate(106.8125 -6.592499999999999),rotate(-30),translate(-106.8125 6.592499999999999)" >durian-1</text>
    <line x1="106.8145" y1="-6.6161" x2="106.815" y2="-6.6175" style="stroke:rgb(255,0,0);stroke-width:.00002" />
    <line x1="106.81468834838232" y1="-6.6160327327206" x2="106.81493834838233" y2="-6.6167327327206" style="stroke:rgb(0,0,0);stroke-width:.00002" />
    <line x1="106.81493834838233" y1="-6.6167327327206" x2="106.81493834838233" y2="-6.6167327327206" style="stroke:rgb(0,0,0);stroke-width:.00002" />
    <line x1="106.81493834838233" y1="-6.6167327327206" x2="106.81518834838232" y2="-6.6174327327206" style="stroke:rgb(0,0,0);stroke-width:.00002" />
    <circle cx="106.8145" cy="-6.6161" fill="rgb(255,0,0)" r=".0001" />
    <text x="106.8145" y="-6.6161" stroke="rgb(0,0,0)" transform="translate(106.8145 -6.6161),scale(0.00001 -0.00001),translate(-106.8145 6.6161),translate(106.8125 -6.592499999999999),rotate(-30),translate(-106.8125 6.592499999999999)" >pajajaran-durian</text>
    <line x1="106.815" y1="-6.6175" x2="106.8145" y2="-6.6161" style="stroke:rgb(255,0,0);stroke-width:.00002" />
    <line x1="106.81481165161767" y1="-6.6175672672794" x2="106.81462891889709" y2="-6.617055615661719" style="stroke:rgb(0,0,0);stroke-width:.00002" />
    <line x1="106.81462891889709" y1="-6.617055615661719" x2="106.81430603595597" y2="-6.6167461861764805" style="stroke:rgb(0,0,0);stroke-width:.00002" />
    <line x1="106.81430603595597" y1="-6.6167461861764805" x2="106.81412330323536" y2="-6.6162345345588" style="stroke:rgb(0,0,0);stroke-width:.00002" />
    <circle cx="106.815" cy="-6.6175" fill="rgb(255,0,0)" r=".0001" />
    <text x="106.815" y="-6.6175" stroke="rgb(0,0,0)" transform="translate(106.815 -6.6175),scale(0.00001 -0.00001),translate(-106.815 6.6175),translate(106.8125 -6.592499999999999),rotate(-30),translate(-106.8125 6.592499999999999)" >pajajaran-ggmesjid</text>
    <line x1="106.8145" y1="-6.6161" x2="106.813" y2="-6.6125" style="stroke:rgb(255,0,0);stroke-width:.00002" />
    <line x1="106.81413076923076" y1="-6.616253846153846" x2="106.81345769230768" y2="-6.614638461538461" style="stroke:rgb(0,0,0);stroke-width:.00002" />
    <line x1="106.81345769230768" y1="-6.614638461538461" x2="106.81311923076923" y2="-6.614346153846153" style="stroke:rgb(0,0,0);stroke-width:.00002" />
    <line x1="106.81311923076923" y1="-6.614346153846153" x2="106.81244615384615" y2="-6.612730769230768" style="stroke:rgb(0,0,0);stroke-width:.00002" />
    <circle cx="106.8145" cy="-6.6161" fill="rgb(255,0,0)" r=".0001" />
    <text x="106.8145" y="-6.6161" stroke="rgb(0,0,0)" transform="translate(106.8145 -6.6161),scale(0.00001 -0.00001),translate(-106.8145 6.6161),translate(106.8125 -6.592499999999999),rotate(-30),translate(-106.8125 6.592499999999999)" >pajajaran-durian</text>
    <line x1="106.813" y1="-6.6125" x2="106.8087" y2="-6.6066" style="stroke:rgb(255,0,0);stroke-width:.00002" />
    <line x1="106.81251511398605" y1="-6.612853391501696" x2="106.81048291115329" y2="-6.610065020173015" style="stroke:rgb(0,0,0);stroke-width:.00002" />
    <line x1="106.81048291115329" y1="-6.610065020173015" x2="106.8100856881475" y2="-6.60985955999761" style="stroke:rgb(0,0,0);stroke-width:.00002" />
    <line x1="106.8100856881475" y1="-6.60985955999761" x2="106.80805348531473" y2="-6.607071188668928" style="stroke:rgb(0,0,0);stroke-width:.00002" />
    <circle cx="106.813" cy="-6.6125" fill="rgb(255,0,0)" r=".0001" />
    <text x="106.813" y="-6.6125" stroke="rgb(0,0,0)" transform="translate(106.813 -6.6125),scale(0.00001 -0.00001),translate(-106.813 6.6125),translate(106.8125 -6.592499999999999),rotate(-30),translate(-106.8125 6.592499999999999)" >pajajaran-pjjindah</text>
    <line x1="106.8087" y1="-6.6066" x2="106.808" y2="-6.6069" style="stroke:rgb(255,0,0);stroke-width:.00002" />
    <line x1="106.80901513543887" y1="-6.607335316024014" x2="106.80866513543887" y2="-6.607485316024014" style="stroke:rgb(0,0,0);stroke-width:.00002" />
    <line x1="106.80866513543887" y1="-6.607485316024014" x2="106.80866513543887" y2="-6.607485316024014" style="stroke:rgb(0,0,0);stroke-width:.00002" />
    <line x1="106.80866513543887" y1="-6.607485316024014" x2="106.80831513543887" y2="-6.607635316024014" style="stroke:rgb(0,0,0);stroke-width:.00002" />
    <circle cx="106.8087" cy="-6.6066" fill="rgb(255,0,0)" r=".0001" />
    <text x="106.8087" y="-6.6066" stroke="rgb(0,0,0)" transform="translate(106.8087 -6.6066),scale(0.00001 -0.00001),translate(-106.8087 6.6066),translate(106.8125 -6.592499999999999),rotate(-30),translate(-106.8125 6.592499999999999)" >bangka-1</text>
    <line x1="106.808" y1="-6.6069" x2="106.8074" y2="-6.6065" style="stroke:rgb(255,0,0);stroke-width:.00002" />
    <line x1="106.80755623984302" y1="-6.607565640235472" x2="106.80725623984303" y2="-6.6073656402354715" style="stroke:rgb(0,0,0);stroke-width:.00002" />
    <line x1="106.80725623984303" y1="-6.6073656402354715" x2="106.80725623984303" y2="-6.6073656402354715" style="stroke:rgb(0,0,0);stroke-width:.00002" />
    <line x1="106.80725623984303" y1="-6.6073656402354715" x2="106.80695623984302" y2="-6.607165640235471" style="stroke:rgb(0,0,0);stroke-width:.00002" />
    <circle cx="106.808" cy="-6.6069" fill="rgb(255,0,0)" r=".0001" />
    <text x="106.808" y="-6.6069" stroke="rgb(0,0,0)" transform="translate(106.808 -6.6069),scale(0.00001 -0.00001),translate(-106.808 6.6069),translate(106.8125 -6.592499999999999),rotate(-30),translate(-106.8125 6.592499999999999)" >bangka-2</text>
    <line x1="106.8074" y1="-6.6065" x2="106.8067" y2="-6.6066" style="stroke:rgb(255,0,0);stroke-width:.00002" />
    <line x1="106.807513137085" y1="-6.607291959594928" x2="106.807163137085" y2="-6.607341959594929" style="stroke:rgb(0,0,0);stroke-width:.00002" />
    <line x1="106.807163137085" y1="-6.607341959594929" x2="106.807163137085" y2="-6.607341959594929" style="stroke:rgb(0,0,0);stroke-width:.00002" />
    <line x1="106.807163137085" y1="-6.607341959594929" x2="106.806813137085" y2="-6.607391959594929" style="stroke:rgb(0,0,0);stroke-width:.00002" />
    <circle cx="106.8074" cy="-6.6065" fill="rgb(255,0,0)" r=".0001" />
    <text x="106.8074" y="-6.6065" stroke="rgb(0,0,0)" transform="translate(106.8074 -6.6065),scale(0.00001 -0.00001),translate(-106.8074 6.6065),translate(106.8125 -6.592499999999999),rotate(-30),translate(-106.8125 6.592499999999999)" >bangka-3</text>
    <line x1="106.8067" y1="-6.6066" x2="106.8058" y2="-6.6052" style="stroke:rgb(255,0,0);stroke-width:.00002" />
    <line x1="106.80602705721971" y1="-6.6070326060730515" x2="106.80557705721971" y2="-6.606332606073051" style="stroke:rgb(0,0,0);stroke-width:.00002" />
    <line x1="106.80557705721971" y1="-6.606332606073051" x2="106.80557705721971" y2="-6.606332606073051" style="stroke:rgb(0,0,0);stroke-width:.00002" />
    <line x1="106.80557705721971" y1="-6.606332606073051" x2="106.8051270572197" y2="-6.605632606073051" style="stroke:rgb(0,0,0);stroke-width:.00002" />
    <circle cx="106.8067" cy="-6.6066" fill="rgb(255,0,0)" r=".0001" />
    <text x="106.8067" y="-6.6066" stroke="rgb(0,0,0)" transform="translate(106.8067 -6.6066),scale(0.00001 -0.00001),translate(-106.8067 6.6066),translate(106.8125 -6.592499999999999),rotate(-30),translate(-106.8125 6.592499999999999)" >bangka-5</text>
    <line x1="106.8058" y1="-6.6052" x2="106.8051" y2="-6.6052" style="stroke:rgb(255,0,0);stroke-width:.00002" />
    <line x1="106.8058" y1="-6.606" x2="106.80545000000001" y2="-6.606" style="stroke:rgb(0,0,0);stroke-width:.00002" />
    <line x1="106.80545000000001" y1="-6.606" x2="106.80545000000001" y2="-6.606" style="stroke:rgb(0,0,0);stroke-width:.00002" />
    <line x1="106.80545000000001" y1="-6.606" x2="106.8051" y2="-6.606" style="stroke:rgb(0,0,0);stroke-width:.00002" />
    <circle cx="106.8058" cy="-6.6052" fill="rgb(255,0,0)" r=".0001" />
    <text x="106.8058" y="-6.6052" stroke="rgb(0,0,0)" transform="translate(106.8058 -6.6052),scale(0.00001 -0.00001),translate(-106.8058 6.6052),translate(106.8125 -6.592499999999999),rotate(-30),translate(-106.8125 6.592499999999999)" >bangka-6</text>
    <line x1="106.8051" y1="-6.6052" x2="106.804329" y2="-6.601646" style="stroke:rgb(255,0,0);stroke-width:.00002" />
    <line x1="106.80431818552235" y1="-6.60536960578567" x2="106.80410229130801" y2="-6.604374420263322" style="stroke:rgb(0,0,0);stroke-width:.00002" />
    <line x1="106.80410229130801" y1="-6.604374420263322" x2="106.802981265259" y2="-6.6029803970936864" style="stroke:rgb(0,0,0);stroke-width:.00002" />
    <line x1="106.802981265259" y1="-6.6029803970936864" x2="106.80276537104469" y2="-6.601985211571339" style="stroke:rgb(0,0,0);stroke-width:.00002" />
    <circle cx="106.8051" cy="-6.6052" fill="rgb(255,0,0)" r=".0001" />
    <text x="106.8051" y="-6.6052" stroke="rgb(0,0,0)" transform="translate(106.8051 -6.6052),scale(0.00001 -0.00001),translate(-106.8051 6.6052),translate(106.8125 -6.592499999999999),rotate(-30),translate(-106.8125 6.592499999999999)" >bangka-7</text>
    <line x1="106.804329" y1="-6.601646" x2="106.7999" y2="-6.6027" style="stroke:rgb(255,0,0);stroke-width:.00002" />
    <line x1="106.80469941862928" y1="-6.603202531412814" x2="106.80267948505588" y2="-6.603683229084153" style="stroke:rgb(0,0,0);stroke-width:.00002" />
    <line x1="106.80267948505588" y1="-6.603683229084153" x2="106.802244049874" y2="-6.6035812673148735" style="stroke:rgb(0,0,0);stroke-width:.00002" />
    <line x1="106.802244049874" y1="-6.6035812673148735" x2="106.80022411630061" y2="-6.6040619649862125" style="stroke:rgb(0,0,0);stroke-width:.00002" />
    <circle cx="106.804329" cy="-6.601646" fill="rgb(255,0,0)" r=".0001" />
    <text x="106.804329" y="-6.601646" stroke="rgb(0,0,0)" transform="translate(106.804329 -6.601646),scale(0.00001 -0.00001),translate(-106.804329 6.601646),translate(106.8125 -6.592499999999999),rotate(-30),translate(-106.8125 6.592499999999999)" >bangka-otista</text>
    <line x1="106.7999" y1="-6.6027" x2="106.7996" y2="-6.6027" style="stroke:rgb(255,0,0);stroke-width:.00002" />
    <line x1="106.7999" y1="-6.6041" x2="106.80014999999999" y2="-6.6041" style="stroke:rgb(0,0,0);stroke-width:.00002" />
    <line x1="106.80014999999999" y1="-6.6041" x2="106.79934999999999" y2="-6.6045" style="stroke:rgb(0,0,0);stroke-width:.00002" />
    <line x1="106.79934999999999" y1="-6.6045" x2="106.7996" y2="-6.6045" style="stroke:rgb(0,0,0);stroke-width:.00002" />
    <circle cx="106.7999" cy="-6.6027" fill="rgb(255,0,0)" r=".0001" />
    <text x="106.7999" y="-6.6027" stroke="rgb(0,0,0)" transform="translate(106.7999 -6.6027),scale(0.00001 -0.00001),translate(-106.7999 6.6027),translate(106.8125 -6.592499999999999),rotate(-30),translate(-106.8125 6.592499999999999)" >otista-roda</text>
    <line x1="106.7996" y1="-6.6027" x2="106.7988" y2="-6.6031" style="stroke:rgb(255,0,0);stroke-width:.00002" />
    <line x1="106.8004049844719" y1="-6.604309968943798" x2="106.80054164078649" y2="-6.604241640786498" style="stroke:rgb(0,0,0);stroke-width:.00002" />
    <line x1="106.80054164078649" y1="-6.604241640786498" x2="106.79920000000001" y2="-6.6042416407864994" style="stroke:rgb(0,0,0);stroke-width:.00002" />
    <line x1="106.79920000000001" y1="-6.6042416407864994" x2="106.79933665631461" y2="-6.604173312629199" style="stroke:rgb(0,0,0);stroke-width:.00002" />
    <circle cx="106.7996" cy="-6.6027" fill="rgb(255,0,0)" r=".0001" />
    <text x="106.7996" y="-6.6027" stroke="rgb(0,0,0)" transform="translate(106.7996 -6.6027),scale(0.00001 -0.00001),translate(-106.7996 6.6027),translate(106.8125 -6.592499999999999),rotate(-30),translate(-106.8125 6.592499999999999)" >kb-otista</text>
    <line x1="106.7988" y1="-6.6031" x2="106.797256" y2="-6.603941" style="stroke:rgb(255,0,0);stroke-width:.00002" />
    <line x1="106.79937400079683" y1="-6.604153813591317" x2="106.79877763639539" y2="-6.604478646791846" style="stroke:rgb(0,0,0);stroke-width:.00002" />
    <line x1="106.79877763639539" y1="-6.604478646791846" x2="106.79852203199775" y2="-6.60484561598934" style="stroke:rgb(0,0,0);stroke-width:.00002" />
    <line x1="106.79852203199775" y1="-6.60484561598934" x2="106.7979256675963" y2="-6.605170449189869" style="stroke:rgb(0,0,0);stroke-width:.00002" />
    <circle cx="106.7988" cy="-6.6031" fill="rgb(255,0,0)" r=".0001" />
    <text x="106.7988" y="-6.6031" stroke="rgb(0,0,0)" transform="translate(106.7988 -6.6031),scale(0.00001 -0.00001),translate(-106.7988 6.6031),translate(106.8125 -6.592499999999999),rotate(-30),translate(-106.8125 6.592499999999999)" >kb-suryakencana</text>
    <line x1="106.797256" y1="-6.603941" x2="106.7967" y2="-6.6042" style="stroke:rgb(255,0,0);stroke-width:.00002" />
    <line x1="106.79784716483404" y1="-6.605210064276937" x2="106.79775045973074" y2="-6.6052551121577885" style="stroke:rgb(0,0,0);stroke-width:.00002" />
    <line x1="106.79775045973074" y1="-6.6052551121577885" x2="106.79730341781818" y2="-6.60524272149938" style="stroke:rgb(0,0,0);stroke-width:.00002" />
    <line x1="106.79730341781818" y1="-6.60524272149938" x2="106.7972067127149" y2="-6.605287769380231" style="stroke:rgb(0,0,0);stroke-width:.00002" />
    <circle cx="106.797256" cy="-6.603941" fill="rgb(255,0,0)" r=".0001" />
    <text x="106.797256" y="-6.603941" stroke="rgb(0,0,0)" transform="translate(106.797256 -6.603941),scale(0.00001 -0.00001),translate(-106.797256 6.603941),translate(106.8125 -6.592499999999999),rotate(-30),translate(-106.8125 6.592499999999999)" >cincau-kb</text>
    <line x1="106.7967" y1="-6.6042" x2="106.7961" y2="-6.6038" style="stroke:rgb(255,0,0);stroke-width:.00002" />
    <line x1="106.79603435976453" y1="-6.605198460353208" x2="106.79623358994114" y2="-6.60533128047094" style="stroke:rgb(0,0,0);stroke-width:.00002" />
    <line x1="106.79623358994114" y1="-6.60533128047094" x2="106.7949023094702" y2="-6.605164870412079" style="stroke:rgb(0,0,0);stroke-width:.00002" />
    <line x1="106.7949023094702" y1="-6.605164870412079" x2="106.7951015396468" y2="-6.605297690529812" style="stroke:rgb(0,0,0);stroke-width:.00002" />
    <circle cx="106.7967" cy="-6.6042" fill="rgb(255,0,0)" r=".0001" />
    <text x="106.7967" y="-6.6042" stroke="rgb(0,0,0)" transform="translate(106.7967 -6.6042),scale(0.00001 -0.00001),translate(-106.7967 6.6042),translate(106.8125 -6.592499999999999),rotate(-30),translate(-106.8125 6.592499999999999)" >kb-btm-1</text>
    <line x1="106.7961" y1="-6.6038" x2="106.7937" y2="-6.5969" style="stroke:rgb(255,0,0);stroke-width:.00002" />
    <line x1="106.79439990576593" y1="-6.604391337124893" x2="106.79319990576593" y2="-6.600941337124893" style="stroke:rgb(0,0,0);stroke-width:.00002" />
    <line x1="106.79319990576593" y1="-6.600941337124893" x2="106.79319990576593" y2="-6.600941337124893" style="stroke:rgb(0,0,0);stroke-width:.00002" />
    <line x1="106.79319990576593" y1="-6.600941337124893" x2="106.79199990576593" y2="-6.597491337124893" style="stroke:rgb(0,0,0);stroke-width:.00002" />
    <circle cx="106.7961" cy="-6.6038" fill="rgb(255,0,0)" r=".0001" />
    <text x="106.7961" y="-6.6038" stroke="rgb(0,0,0)" transform="translate(106.7961 -6.6038),scale(0.00001 -0.00001),translate(-106.7961 6.6038),translate(106.8125 -6.592499999999999),rotate(-30),translate(-106.8125 6.592499999999999)" >kb-btm-2</text>
    <line x1="106.7937" y1="-6.5969" x2="106.7946" y2="-6.5945" style="stroke:rgb(255,0,0);stroke-width:.00002" />
    <line x1="106.79201460748038" y1="-6.59626797780514" x2="106.79239438279207" y2="-6.595255243640654" style="stroke:rgb(0,0,0);stroke-width:.00002" />
    <line x1="106.79239438279207" y1="-6.595255243640654" x2="106.79234756633318" y2="-6.5948104872813085" style="stroke:rgb(0,0,0);stroke-width:.00002" />
    <line x1="106.79234756633318" y1="-6.5948104872813085" x2="106.79272734164486" y2="-6.593797753116823" style="stroke:rgb(0,0,0);stroke-width:.00002" />
    <circle cx="106.7937" cy="-6.5969" fill="rgb(255,0,0)" r=".0001" />
    <text x="106.7937" y="-6.5969" stroke="rgb(0,0,0)" transform="translate(106.7937 -6.5969),scale(0.00001 -0.00001),translate(-106.7937 6.5969),translate(106.8125 -6.592499999999999),rotate(-30),translate(-106.8125 6.592499999999999)" >kb-muslihat</text>
    <line x1="106.7946" y1="-6.5945" x2="106.7973" y2="-6.593" style="stroke:rgb(255,0,0);stroke-width:.00002" />
    <line x1="106.79362871413764" y1="-6.592751685447756" x2="106.79480388268242" y2="-6.592098814033991" style="stroke:rgb(0,0,0);stroke-width:.00002" />
    <line x1="106.79480388268242" y1="-6.592098814033991" x2="106.79525067417912" y2="-6.592079388316745" style="stroke:rgb(0,0,0);stroke-width:.00002" />
    <line x1="106.79525067417912" y1="-6.592079388316745" x2="106.79642584272389" y2="-6.59142651690298" style="stroke:rgb(0,0,0);stroke-width:.00002" />
    <circle cx="106.7946" cy="-6.5945" fill="rgb(255,0,0)" r=".0001" />
    <text x="106.7946" y="-6.5945" stroke="rgb(0,0,0)" transform="translate(106.7946 -6.5945),scale(0.00001 -0.00001),translate(-106.7946 6.5945),translate(106.8125 -6.592499999999999),rotate(-30),translate(-106.8125 6.592499999999999)" >kb-gedong-sawah</text>
    <line x1="106.7973" y1="-6.593" x2="106.7984" y2="-6.5935" style="stroke:rgb(255,0,0);stroke-width:.00002" />
    <line x1="106.79804484529976" y1="-6.591361340340569" x2="106.79859484529976" y2="-6.5916113403405685" style="stroke:rgb(0,0,0);stroke-width:.00002" />
    <line x1="106.79859484529976" y1="-6.5916113403405685" x2="106.79859484529976" y2="-6.5916113403405685" style="stroke:rgb(0,0,0);stroke-width:.00002" />
    <line x1="106.79859484529976" y1="-6.5916113403405685" x2="106.79914484529975" y2="-6.591861340340569" style="stroke:rgb(0,0,0);stroke-width:.00002" />
    <circle cx="106.7973" cy="-6.593" fill="rgb(255,0,0)" r=".0001" />
    <text x="106.7973" y="-6.593" stroke="rgb(0,0,0)" transform="translate(106.7973 -6.593),scale(0.00001 -0.00001),translate(-106.7973 6.593),translate(106.8125 -6.592499999999999),rotate(-30),translate(-106.8125 6.592499999999999)" >kb-polisi-militer</text>
    <line x1="106.7984" y1="-6.5935" x2="106.800814" y2="-6.592262" style="stroke:rgb(255,0,0);stroke-width:.00002" />
    <line x1="106.79757860309432" y1="-6.591898342382613" x2="106.79878560309433" y2="-6.591279342382614" style="stroke:rgb(0,0,0);stroke-width:.00002" />
    <line x1="106.79878560309433" y1="-6.591279342382614" x2="106.79878560309433" y2="-6.591279342382614" style="stroke:rgb(0,0,0);stroke-width:.00002" />
    <line x1="106.79878560309433" y1="-6.591279342382614" x2="106.79999260309432" y2="-6.590660342382614" style="stroke:rgb(0,0,0);stroke-width:.00002" />
    <circle cx="106.7984" cy="-6.5935" fill="rgb(255,0,0)" r=".0001" />
    <text x="106.7984" y="-6.5935" stroke="rgb(0,0,0)" transform="translate(106.7984 -6.5935),scale(0.00001 -0.00001),translate(-106.7984 6.5935),translate(106.8125 -6.592499999999999),rotate(-30),translate(-106.8125 6.592499999999999)" >kb-jalak-harupat</text>
    <line x1="106.800814" y1="-6.592262" x2="106.801806" y2="-6.592667" style="stroke:rgb(255,0,0);stroke-width:.00002" />
    <line x1="106.80149436153194" y1="-6.590595534223015" x2="106.80180519866782" y2="-6.590722438497244" style="stroke:rgb(0,0,0);stroke-width:.00002" />
    <line x1="106.80180519866782" y1="-6.590722438497244" x2="106.80209992867027" y2="-6.591058792812896" style="stroke:rgb(0,0,0);stroke-width:.00002" />
    <line x1="106.80209992867027" y1="-6.591058792812896" x2="106.80241076580616" y2="-6.591185697087124" style="stroke:rgb(0,0,0);stroke-width:.00002" />
    <circle cx="106.800814" cy="-6.592262" fill="rgb(255,0,0)" r=".0001" />
    <text x="106.800814" y="-6.592262" stroke="rgb(0,0,0)" transform="translate(106.800814 -6.592262),scale(0.00001 -0.00001),translate(-106.800814 6.592262),translate(106.8125 -6.592499999999999),rotate(-30),translate(-106.8125 6.592499999999999)" >kb-sempur</text>
    <line x1="106.801806" y1="-6.592667" x2="106.8029" y2="-6.5935" style="stroke:rgb(255,0,0);stroke-width:.00002" />
    <line x1="106.80277528345731" y1="-6.591394015483445" x2="106.8028449142636" y2="-6.591447034186954" style="stroke:rgb(0,0,0);stroke-width:.00002" />
    <line x1="106.8028449142636" y1="-6.591447034186954" x2="106.80343617135452" y2="-6.592651365973643" style="stroke:rgb(0,0,0);stroke-width:.00002" />
    <line x1="106.80343617135452" y1="-6.592651365973643" x2="106.80350580216081" y2="-6.592704384677153" style="stroke:rgb(0,0,0);stroke-width:.00002" />
    <circle cx="106.801806" cy="-6.592667" fill="rgb(255,0,0)" r=".0001" />
    <text x="106.801806" y="-6.592667" stroke="rgb(0,0,0)" transform="translate(106.801806 -6.592667),scale(0.00001 -0.00001),translate(-106.801806 6.592667),translate(106.8125 -6.592499999999999),rotate(-30),translate(-106.8125 6.592499999999999)" >kb-salak</text>
    <line x1="106.8029" y1="-6.5935" x2="106.8044" y2="-6.5959" style="stroke:rgb(255,0,0);stroke-width:.00002" />
    <line x1="106.803747998304" y1="-6.592970001059995" x2="106.80407399915201" y2="-6.593491602416791" style="stroke:rgb(0,0,0);stroke-width:.00002" />
    <line x1="106.80407399915201" y1="-6.593491602416791" x2="106.80560039609922" y2="-6.594424400551194" style="stroke:rgb(0,0,0);stroke-width:.00002" />
    <line x1="106.80560039609922" y1="-6.594424400551194" x2="106.80592639694721" y2="-6.594946001907991" style="stroke:rgb(0,0,0);stroke-width:.00002" />
    <circle cx="106.8029" cy="-6.5935" fill="rgb(255,0,0)" r=".0001" />
    <text x="106.8029" y="-6.5935" stroke="rgb(0,0,0)" transform="translate(106.8029 -6.5935),scale(0.00001 -0.00001),translate(-106.8029 6.5935),translate(106.8125 -6.592499999999999),rotate(-30),translate(-106.8125 6.592499999999999)" >kb-pangrango</text>
    <line x1="106.8044" y1="-6.5959" x2="106.8052" y2="-6.6009" style="stroke:rgb(255,0,0);stroke-width:.00002" />
    <line x1="106.80617739313745" y1="-6.595615617098009" x2="106.806514196937" y2="-6.597720640845242" style="stroke:rgb(0,0,0);stroke-width:.00002" />
    <line x1="106.806514196937" y1="-6.597720640845242" x2="106.80624561308512" y2="-6.598573789551217" style="stroke:rgb(0,0,0);stroke-width:.00002" />
    <line x1="106.80624561308512" y1="-6.598573789551217" x2="106.80658241688468" y2="-6.600678813298451" style="stroke:rgb(0,0,0);stroke-width:.00002" />
    <circle cx="106.8044" cy="-6.5959" fill="rgb(255,0,0)" r=".0001" />
    <text x="106.8044" y="-6.5959" stroke="rgb(0,0,0)" transform="translate(106.8044 -6.5959),scale(0.00001 -0.00001),translate(-106.8044 6.5959),translate(106.8125 -6.592499999999999),rotate(-30),translate(-106.8125 6.592499999999999)" >kb-astrid</text>
    <line x1="106.8052" y1="-6.6009" x2="106.8047" y2="-6.6016" style="stroke:rgb(255,0,0);stroke-width:.00002" />
    <line x1="106.80633922685969" y1="-6.601713733471209" x2="106.8066704650534" y2="-6.601250000000004" style="stroke:rgb(0,0,0);stroke-width:.00002" />
    <line x1="106.8066704650534" y1="-6.601250000000004" x2="106.80469425519476" y2="-6.602296228748694" style="stroke:rgb(0,0,0);stroke-width:.00002" />
    <line x1="106.80469425519476" y1="-6.602296228748694" x2="106.80502549338848" y2="-6.601832495277488" style="stroke:rgb(0,0,0);stroke-width:.00002" />
    <circle cx="106.8052" cy="-6.6009" fill="rgb(255,0,0)" r=".0001" />
    <text x="106.8052" y="-6.6009" stroke="rgb(0,0,0)" transform="translate(106.8052 -6.6009),scale(0.00001 -0.00001),translate(-106.8052 6.6009),translate(106.8125 -6.592499999999999),rotate(-30),translate(-106.8125 6.592499999999999)" >kb-botani-1</text>
    <line x1="106.8047" y1="-6.6016" x2="106.8068" y2="-6.6043" style="stroke:rgb(255,0,0);stroke-width:.00002" />
    <line x1="106.80501574088694" y1="-6.601354423754595" x2="106.80582016464153" y2="-6.602388682867644" style="stroke:rgb(0,0,0);stroke-width:.00002" />
    <line x1="106.80582016464153" y1="-6.602388682867644" x2="106.8066270580193" y2="-6.602774588396139" style="stroke:rgb(0,0,0);stroke-width:.00002" />
    <line x1="106.8066270580193" y1="-6.602774588396139" x2="106.8074314817739" y2="-6.603808847509189" style="stroke:rgb(0,0,0);stroke-width:.00002" />
    <circle cx="106.8047" cy="-6.6016" fill="rgb(255,0,0)" r=".0001" />
    <text x="106.8047" y="-6.6016" stroke="rgb(0,0,0)" transform="translate(106.8047 -6.6016),scale(0.00001 -0.00001),translate(-106.8047 6.6016),translate(106.8125 -6.592499999999999),rotate(-30),translate(-106.8125 6.592499999999999)" >kb-botani-2</text>
    <line x1="106.8068" y1="-6.6043" x2="106.8111" y2="-6.6017" style="stroke:rgb(255,0,0);stroke-width:.00002" />
    <line x1="106.80638606452887" y1="-6.603615414413135" x2="106.80853606452887" y2="-6.602315414413135" style="stroke:rgb(0,0,0);stroke-width:.00002" />
    <line x1="106.80853606452887" y1="-6.602315414413135" x2="106.80853606452887" y2="-6.602315414413135" style="stroke:rgb(0,0,0);stroke-width:.00002" />
    <line x1="106.80853606452887" y1="-6.602315414413135" x2="106.81068606452887" y2="-6.601015414413135" style="stroke:rgb(0,0,0);stroke-width:.00002" />
    <circle cx="106.8068" cy="-6.6043" fill="rgb(255,0,0)" r=".0001" />
    <text x="106.8068" y="-6.6043" stroke="rgb(0,0,0)" transform="translate(106.8068 -6.6043),scale(0.00001 -0.00001),translate(-106.8068 6.6043),translate(106.8125 -6.592499999999999),rotate(-30),translate(-106.8125 6.592499999999999)" >tol-1</text>
    <line x1="106.8111" y1="-6.6017" x2="106.8071" y2="-6.6045" style="stroke:rgb(255,0,0);stroke-width:.00002" />
    <line x1="106.81155876987549" y1="-6.6023553855364145" x2="106.80972261625959" y2="-6.6036406930675415" style="stroke:rgb(0,0,0);stroke-width:.00002" />
    <line x1="106.80972261625959" y1="-6.6036406930675415" x2="106.80928023102253" y2="-6.603706231621183" style="stroke:rgb(0,0,0);stroke-width:.00002" />
    <line x1="106.80928023102253" y1="-6.603706231621183" x2="106.80744407740663" y2="-6.604991539152311" style="stroke:rgb(0,0,0);stroke-width:.00002" />
    <circle cx="106.8111" cy="-6.6017" fill="rgb(255,0,0)" r=".0001" />
    <text x="106.8111" y="-6.6017" stroke="rgb(0,0,0)" transform="translate(106.8111 -6.6017),scale(0.00001 -0.00001),translate(-106.8111 6.6017),translate(106.8125 -6.592499999999999),rotate(-30),translate(-106.8125 6.592499999999999)" >tol-2</text>
    <line x1="106.8071" y1="-6.6045" x2="106.8099" y2="-6.6078" style="stroke:rgb(255,0,0);stroke-width:.00002" />
    <line x1="106.80755750548123" y1="-6.604111813531083" x2="106.80895750548123" y2="-6.605761813531083" style="stroke:rgb(0,0,0);stroke-width:.00002" />
    <line x1="106.80895750548123" y1="-6.605761813531083" x2="106.80895750548123" y2="-6.605761813531083" style="stroke:rgb(0,0,0);stroke-width:.00002" />
    <line x1="106.80895750548123" y1="-6.605761813531083" x2="106.81035750548122" y2="-6.607411813531083" style="stroke:rgb(0,0,0);stroke-width:.00002" />
    <circle cx="106.8071" cy="-6.6045" fill="rgb(255,0,0)" r=".0001" />
    <text x="106.8071" y="-6.6045" stroke="rgb(0,0,0)" transform="translate(106.8071 -6.6045),scale(0.00001 -0.00001),translate(-106.8071 6.6045),translate(106.8125 -6.592499999999999),rotate(-30),translate(-106.8125 6.592499999999999)" >tol-3</text>
    <line x1="106.8099" y1="-6.6078" x2="106.8105" y2="-6.6087" style="stroke:rgb(255,0,0);stroke-width:.00002" />
    <line x1="106.8103992301766" y1="-6.607467179882263" x2="106.81058829013736" y2="-6.6077507698233955" style="stroke:rgb(0,0,0);stroke-width:.00002" />
    <line x1="106.81058829013736" y1="-6.6077507698233955" x2="106.81064376015699" y2="-6.608194529980375" style="stroke:rgb(0,0,0);stroke-width:.00002" />
    <line x1="106.81064376015699" y1="-6.608194529980375" x2="106.81083282011774" y2="-6.608478119921508" style="stroke:rgb(0,0,0);stroke-width:.00002" />
    <circle cx="106.8099" cy="-6.6078" fill="rgb(255,0,0)" r=".0001" />
    <text x="106.8099" y="-6.6078" stroke="rgb(0,0,0)" transform="translate(106.8099 -6.6078),scale(0.00001 -0.00001),translate(-106.8099 6.6078),translate(106.8125 -6.592499999999999),rotate(-30),translate(-106.8125 6.592499999999999)" >pajajaran-ciheuleut</text>
    <line x1="106.8105" y1="-6.6087" x2="106.813" y2="-6.6125" style="stroke:rgb(255,0,0);stroke-width:.00002" />
    <line x1="106.8108341668329" y1="-6.60848015339941" x2="106.8120841668329" y2="-6.61038015339941" style="stroke:rgb(0,0,0);stroke-width:.00002" />
    <line x1="106.8120841668329" y1="-6.61038015339941" x2="106.8120841668329" y2="-6.61038015339941" style="stroke:rgb(0,0,0);stroke-width:.00002" />
    <line x1="106.8120841668329" y1="-6.61038015339941" x2="106.8133341668329" y2="-6.61228015339941" style="stroke:rgb(0,0,0);stroke-width:.00002" />
    <circle cx="106.8105" cy="-6.6087" fill="rgb(255,0,0)" r=".0001" />
    <text x="106.8105" y="-6.6087" stroke="rgb(0,0,0)" transform="translate(106.8105 -6.6087),scale(0.00001 -0.00001),translate(-106.8105 6.6087),translate(106.8125 -6.592499999999999),rotate(-30),translate(-106.8125 6.592499999999999)" >pajajaran-michelle-bakery</text>
    <line x1="106.813" y1="-6.6125" x2="106.8145" y2="-6.6161" style="stroke:rgb(255,0,0);stroke-width:.00002" />
    <line x1="106.81336923076924" y1="-6.612346153846154" x2="106.81411923076924" y2="-6.614146153846154" style="stroke:rgb(0,0,0);stroke-width:.00002" />
    <line x1="106.81411923076924" y1="-6.614146153846154" x2="106.81411923076924" y2="-6.614146153846154" style="stroke:rgb(0,0,0);stroke-width:.00002" />
    <line x1="106.81411923076924" y1="-6.614146153846154" x2="106.81486923076923" y2="-6.615946153846155" style="stroke:rgb(0,0,0);stroke-width:.00002" />
    <circle cx="106.813" cy="-6.6125" fill="rgb(255,0,0)" r=".0001" />
    <text x="106.813" y="-6.6125" stroke="rgb(0,0,0)" transform="translate(106.813 -6.6125),scale(0.00001 -0.00001),translate(-106.813 6.6125),translate(106.8125 -6.592499999999999),rotate(-30),translate(-106.8125 6.592499999999999)" >pajajaran-pjjindah</text>
  </g>
</svg>
