<svg width="2100" height="2970" xmlns="http://www.w3.org/2000/svg" xmlns:xlink="http://www.w3.org/1999/xlink" >
  <g transform="translate(280 20) rotate(30) scale(0.5)">    <path d="M589.9653340398032 1233.7075836611332 L582.2648883264065 1259.8890990862742 L555.3508645468526 1254.0414838918089 L546.4921047581868 1222.8322556663672 L539.4848897566646 1222.9842193651918 L540.6978663362167 1242.3109795317077 L534.7191675310654 1252.2080255541634 L543.7131521816525 1306.2575904543282 L546.9965219650703 1365.5074906379548 L567.8596166967793 1399.1511252417454 L565.8118123111961 1398.2888918166734 L570.9289745712027 1425.408529530413 L578.5663053940056 1427.6621681338397 L576.2810465960229 1449.5813405484525 L566.3557389955827 1471.0265622253826 L568.1432533902182 1490.3887979797657 L555.4562516767021 1515.5318487059144 L532.3257916939212 1535.6164462921151 L507.3280953193944 1566.8113015647023 L489.9101881571539 1591.3742566010335 L483.8628305191435 1620.5804174239568 L462.706079112138 1634.4725925415726 L450.84196336151194 1654.3286095765795 L449.20109053680335 1678.303584738695 L438.3206528128909 1686.8855486497823 L438.63200158962456 1727.019888564557 L431.03232255570845 1748.4719676284788 L464.8200000000742 1760.0076923077022 L427.1476774445233 1750.453416986909 L435.62799841051003 1726.5154960508276 L435.309347187129 1685.439835965602 L446.29890946342243 1676.771799876703 L447.8980366386338 1653.4067750387958 L460.48392088809464 1632.3427920738254 L481.1771694807305 1618.7549671914235 L487.09981184276785 1590.1511280143532 L504.93190468063176 1565.0040830507571 L530.1542083063566 1533.5289383233107 L553.043748323347 1513.6535359094682 L565.0767466096625 1489.806586635617 L563.2942610043585 1470.4988223900039 L573.3489534042064 1448.7740440669616 L575.3236946061264 1429.8332164815517 L568.3210254288014 1427.7668550849876 L561.8281876887039 1393.3564927987195 L560.3503833033869 1392.7342593736412 L544.0434780351495 1366.4378939774467 L540.726847818604 1306.5877941610793 L530.8208324691606 1247.057359061222 L534.5921336636934 1240.8144050836866 L533.1051102432411 1217.121165250211 L550.9978952419488 1216.73312894904 L560.6047883474048 1250.5780154358026 L594.168216766235 1257.8703480727859 L604.5143436692797 1261.319057040494 L658.7292855855793 1308.0041459128277 L686.9025768149157 1321.4199988792018 L690.8784293335941 1312.668486775309 L697.1722482863214 1312.0424000732132 L710.1756641874886 1297.5955079665346 L671.4255743214466 1271.2437026675116 L672.3539874465985 1265.9449545863788 L662.7831930732526 1266.240349474449 L638.8165984675993 1247.0607334212002 L614.6734813484329 1206.581005640198 L607.8867145420759 1209.7424671560684 L606.2970952269637 1212.9217057864394 Z" stroke="yellow" stroke-width="0.5" fill="none" />
  </g>
</svg>
