<svg width="1049.9999999998977" height="1849.9999999999961" xmlns="http://www.w3.org/2000/svg" xmlns:xlink="http://www.w3.org/1999/xlink" >
  <g transform="translate(524.9999999999488 924.9999999999981) rotate(30) scale(10000 -10000) translate(-106.8125 6.592499999999999)">
    <path d="M106.76 -6.5 L106.865 -6.5 L106.865 -6.685 L106.76 -6.685 Z" fill="none" stroke="black" stroke-width="0.001" transform="translate(106.8125 -6.592499999999999) rotate(30) translate(-106.8125 6.592499999999999)" />
    <path d="M106.81418569533817 -6.614925721864729 L106.81418569533817 -6.614925721864729 L106.815 -6.6175 L106.81388858279709 -6.6152599734734485 L106.81355433118837 -6.614962860932364 L106.81264722313934 -6.612695090809736 L106.8106445398246 -6.609947223005783 L106.81024731681882 -6.609741762830379 L106.80849678631063 -6.607339872133091 L106.80858635157915 -6.6073014870180105 L106.80858635157915 -6.6073014870180105 L106.80793761201016 -6.6075795182618675 L106.80736717988228 -6.607199230176604 L106.80736717988228 -6.607199230176604 L106.80725791804144 -6.607126388949383 L106.80713485281375 -6.607143969696197 L106.80713485281375 -6.607143969696197 L106.8064035685503 -6.6072484388766926 L106.80574529291478 -6.606224454554789 L106.80574529291478 -6.606224454554789 L106.80547242927241 -6.6058 L106.80545000000001 -6.6058 L106.80545000000001 -6.6058 L106.80461620679917 -6.6058 L106.80429774492742 -6.604332018816904 L106.80317671887842 -6.602937995647269 L106.8032636320119 -6.603338630247061 L106.80360601486022 -6.603257151014248 L106.80099340376903 -6.602645380398566 L106.80012972265526 -6.602850916613044 L106.80024695671176 -6.603515242933217 L106.80024695671176 -6.603515242933217 L106.80038322273222 -6.604287417049169 L106.80112 -6.60484 L106.80112 -6.60484 L106.80193984271934 -6.605454882039497 L106.80280544897414 -6.606524160354266 L106.80280544897414 -6.606524160354266 L106.80366051492997 -6.607580418299718 L106.80431506145224 -6.6085370632168825 L106.80431506145224 -6.6085370632168825 L106.80505879065736 -6.609624052055107 L106.80479142135624 -6.609891421356236 L106.80479142135624 -6.609891421356236 L106.80477921712742 -6.60990362558506 L106.80839504571892 -6.613712298368116 L106.80839504571892 -6.613712298368116 L106.8120574504412 -6.617570031342253 L106.8120867544468 -6.6175602633403905 L106.8120867544468 -6.6175602633403905 L106.81225791000746 -6.617503211486831 L106.81278009925619 -6.617450992561959 L106.81278009925619 -6.617450992561959 L106.81333330838105 -6.617395671649474 L106.81438207293547 -6.617867615698965 L106.81438207293547 -6.617867615698965 L106.81498254188811 -6.618137826727652 L106.81501590432006 -6.618249034834157 L106.81470939990878 -6.617923373897181 L106.81462199051222 -6.617632009241982 L106.81370288745892 -6.615334251608719 L106.81374002652655 -6.614888582797094 L106.81282180980874 -6.61259304100257 L106.81158291658356 -6.610709923300295 L106.81158291658356 -6.610709923300295 L106.8105 -6.6087 L106.81191708341645 -6.610490076699705 L106.81191708341645 -6.610490076699705 L106.81307151933908 -6.612244819302104 L106.81386438273105 -6.611869252432221 L106.81386438273105 -6.611869252432221 L106.81495142126548 -6.611354339442225 L106.81605092110443 -6.6126187642570144 L106.81605092110443 -6.6126187642570144 L106.8168935995005 -6.613587844412499 L106.81694382623812 -6.613525060990489 L106.81694382623812 -6.613525060990489 L106.81719163311304 -6.613215302396817 L106.81756712020254 -6.613152721215235 L106.81756712020254 -6.613152721215235 L106.81796864339553 -6.613085800683066 L106.81819142135623 -6.61330857864376 L106.81819142135623 -6.61330857864376 L106.81826573494328 -6.613382892230801 L106.81841077677298 -6.613353883864862 L106.81841077677298 -6.613353883864862 L106.81883390460986 -6.613269258297484 L106.8189397366596 -6.6135867544468026 L106.8189397366596 -6.6135867544468026 L106.81893390460982 -6.61356925829749 L106.81901077677297 -6.613553883864862 L106.81901077677297 -6.613553883864862 L106.81904967830309 -6.6135461035588365 L106.81885729641807 -6.6128535287727574 L106.81885729641807 -6.6128535287727574 L106.818559332935 -6.611780860233715 L106.81922572186473 -6.611514304661823 L106.81922572186473 -6.611514304661823 L106.8195818090119 -6.611371869802959 L106.81940164442668 -6.609975594267525 L106.81940164442668 -6.609975594267525 L106.8194 -6.6084 L106.81979835557334 -6.609924405732474 L106.81979835557334 -6.609924405732474 L106.81996726162271 -6.611233427615084 L106.82003675444679 -6.611210263340389 L106.82003675444679 -6.611210263340389 L106.82035386299071 -6.611104560492416 L106.82072171572875 -6.611052010101268 L106.82072171572875 -6.611052010101268 L106.8211 -6.6112 L106.82077828427126 -6.611447989898732 L106.82077828427126 -6.611447989898732 L106.82044613700928 -6.611495439507586 L106.8201632455532 -6.61158973665961 L106.8201632455532 -6.61158973665961 L106.82003074170252 -6.611633904609838 L106.82014611613515 -6.612210776772973 L106.82014611613515 -6.612210776772973 L106.82028227093924 -6.612891550793516 L106.82052803687994 -6.613096355744081 L106.82052803687994 -6.613096355744081 L106.8207 -6.6135 L106.82027196312008 -6.6134036442559205 L106.82027196312008 -6.6134036442559205 L106.81991772906075 -6.613108449206483 L106.81975388386486 -6.612289223227028 L106.81975388386486 -6.612289223227028 L106.81965103753511 -6.611774991578245 L106.81937427813527 -6.611885695338178 L106.81937427813527 -6.611885695338178 L106.819040667065 -6.612019139766287 L106.81924270358193 -6.612746471227243 L106.81924270358193 -6.612746471227243 L106.81955032169691 -6.613853896441163 L106.81908922322704 -6.613946116135137 L106.81908922322704 -6.613946116135137 L106.81866609539016 -6.614030741702511 L106.81856026334039 -6.613713245553197 L106.81856026334039 -6.613713245553197 L106.81856609539015 -6.613730741702515 L106.81848922322705 -6.613746116135138 L106.81848922322705 -6.613746116135138 L106.81813426505673 -6.613817107769197 L106.81790857864377 -6.61359142135624 L106.81790857864377 -6.61359142135624 L106.81783135660444 -6.613514199316933 L106.81763287979746 -6.6135472787847664 L106.81763287979746 -6.6135472787847664 L106.81740836688697 -6.6135846976031845 L106.8172561737619 -6.61377493900951 L106.8172561737619 -6.61377493900951 L106.81690640049949 -6.614212155587501 L106.81574907889556 -6.612881235742986 L106.81574907889556 -6.612881235742986 L106.81484857873451 -6.611845660557775 L106.81403561726896 -6.612230747567779 L106.81403561726896 -6.612230747567779 L106.81325551455473 -6.612600269906097 Z" stroke="brown" stroke-width="0.0002" fill="none" />



    <line x1="106.813" y1="-6.6125" x2="106.815" y2="-6.6175" style="stroke:rgb(255,0,0);stroke-width:.00002" />
    <line x1="106.81318569533818" y1="-6.612425721864729" x2="106.81418569533817" y2="-6.614925721864729" style="stroke:rgb(0,0,0);stroke-width:.00002" />
    <line x1="106.81418569533817" y1="-6.614925721864729" x2="106.81418569533817" y2="-6.614925721864729" style="stroke:rgb(0,0,0);stroke-width:.00002" />
    <line x1="106.81418569533817" y1="-6.614925721864729" x2="106.81518569533817" y2="-6.617425721864729" style="stroke:rgb(0,0,0);stroke-width:.00002" />
    <circle cx="106.813" cy="-6.6125" fill="rgb(255,0,0)" r=".0001" />
    <text x="106.813" y="-6.6125" stroke="rgb(0,0,0)" transform="translate(106.813 -6.6125),scale(0.00001 -0.00001),translate(-106.813 6.6125),translate(106.8125 -6.592499999999999),rotate(-30),translate(-106.8125 6.592499999999999)" >pajajaran-pjjindah</text>
    <line x1="106.815" y1="-6.6175" x2="106.813" y2="-6.6125" style="stroke:rgb(255,0,0);stroke-width:.00002" />
    <line x1="106.81481430466182" y1="-6.617574278135271" x2="106.81388858279709" y2="-6.6152599734734485" style="stroke:rgb(0,0,0);stroke-width:.00002" />
    <line x1="106.81388858279709" y1="-6.6152599734734485" x2="106.81355433118837" y2="-6.614962860932364" style="stroke:rgb(0,0,0);stroke-width:.00002" />
    <line x1="106.81355433118837" y1="-6.614962860932364" x2="106.81262860932365" y2="-6.612648556270541" style="stroke:rgb(0,0,0);stroke-width:.00002" />
    <circle cx="106.815" cy="-6.6175" fill="rgb(255,0,0)" r=".0001" />
    <text x="106.815" y="-6.6175" stroke="rgb(0,0,0)" transform="translate(106.815 -6.6175),scale(0.00001 -0.00001),translate(-106.815 6.6175),translate(106.8125 -6.592499999999999),rotate(-30),translate(-106.8125 6.592499999999999)" >pajajaran-ggmesjid</text>
    <line x1="106.813" y1="-6.6125" x2="106.8087" y2="-6.6066" style="stroke:rgb(255,0,0);stroke-width:.00002" />
    <line x1="106.81267674265736" y1="-6.612735594334464" x2="106.8106445398246" y2="-6.609947223005783" style="stroke:rgb(0,0,0);stroke-width:.00002" />
    <line x1="106.8106445398246" y1="-6.609947223005783" x2="106.81024731681882" y2="-6.609741762830379" style="stroke:rgb(0,0,0);stroke-width:.00002" />
    <line x1="106.81024731681882" y1="-6.609741762830379" x2="106.80821511398605" y2="-6.606953391501697" style="stroke:rgb(0,0,0);stroke-width:.00002" />
    <circle cx="106.813" cy="-6.6125" fill="rgb(255,0,0)" r=".0001" />
    <text x="106.813" y="-6.6125" stroke="rgb(0,0,0)" transform="translate(106.813 -6.6125),scale(0.00001 -0.00001),translate(-106.813 6.6125),translate(106.8125 -6.592499999999999),rotate(-30),translate(-106.8125 6.592499999999999)" >pajajaran-pjjindah</text>
    <line x1="106.8087" y1="-6.6066" x2="106.808" y2="-6.6069" style="stroke:rgb(255,0,0);stroke-width:.00002" />
    <line x1="106.80893635157915" y1="-6.607151487018011" x2="106.80858635157915" y2="-6.6073014870180105" style="stroke:rgb(0,0,0);stroke-width:.00002" />
    <line x1="106.80858635157915" y1="-6.6073014870180105" x2="106.80858635157915" y2="-6.6073014870180105" style="stroke:rgb(0,0,0);stroke-width:.00002" />
    <line x1="106.80858635157915" y1="-6.6073014870180105" x2="106.80823635157915" y2="-6.607451487018011" style="stroke:rgb(0,0,0);stroke-width:.00002" />
    <circle cx="106.8087" cy="-6.6066" fill="rgb(255,0,0)" r=".0001" />
    <text x="106.8087" y="-6.6066" stroke="rgb(0,0,0)" transform="translate(106.8087 -6.6066),scale(0.00001 -0.00001),translate(-106.8087 6.6066),translate(106.8125 -6.592499999999999),rotate(-30),translate(-106.8125 6.592499999999999)" >bangka-1</text>
    <line x1="106.808" y1="-6.6069" x2="106.8074" y2="-6.6065" style="stroke:rgb(255,0,0);stroke-width:.00002" />
    <line x1="106.80766717988227" y1="-6.607399230176604" x2="106.80736717988228" y2="-6.607199230176604" style="stroke:rgb(0,0,0);stroke-width:.00002" />
    <line x1="106.80736717988228" y1="-6.607199230176604" x2="106.80736717988228" y2="-6.607199230176604" style="stroke:rgb(0,0,0);stroke-width:.00002" />
    <line x1="106.80736717988228" y1="-6.607199230176604" x2="106.80706717988227" y2="-6.606999230176603" style="stroke:rgb(0,0,0);stroke-width:.00002" />
    <circle cx="106.808" cy="-6.6069" fill="rgb(255,0,0)" r=".0001" />
    <text x="106.808" y="-6.6069" stroke="rgb(0,0,0)" transform="translate(106.808 -6.6069),scale(0.00001 -0.00001),translate(-106.808 6.6069),translate(106.8125 -6.592499999999999),rotate(-30),translate(-106.8125 6.592499999999999)" >bangka-2</text>
    <line x1="106.8074" y1="-6.6065" x2="106.8067" y2="-6.6066" style="stroke:rgb(255,0,0);stroke-width:.00002" />
    <line x1="106.80748485281374" y1="-6.607093969696196" x2="106.80713485281375" y2="-6.607143969696197" style="stroke:rgb(0,0,0);stroke-width:.00002" />
    <line x1="106.80713485281375" y1="-6.607143969696197" x2="106.80713485281375" y2="-6.607143969696197" style="stroke:rgb(0,0,0);stroke-width:.00002" />
    <line x1="106.80713485281375" y1="-6.607143969696197" x2="106.80678485281375" y2="-6.607193969696197" style="stroke:rgb(0,0,0);stroke-width:.00002" />
    <circle cx="106.8074" cy="-6.6065" fill="rgb(255,0,0)" r=".0001" />
    <text x="106.8074" y="-6.6065" stroke="rgb(0,0,0)" transform="translate(106.8074 -6.6065),scale(0.00001 -0.00001),translate(-106.8074 6.6065),translate(106.8125 -6.592499999999999),rotate(-30),translate(-106.8125 6.592499999999999)" >bangka-3</text>
    <line x1="106.8067" y1="-6.6066" x2="106.8058" y2="-6.6052" style="stroke:rgb(255,0,0);stroke-width:.00002" />
    <line x1="106.80619529291478" y1="-6.606924454554789" x2="106.80574529291478" y2="-6.606224454554789" style="stroke:rgb(0,0,0);stroke-width:.00002" />
    <line x1="106.80574529291478" y1="-6.606224454554789" x2="106.80574529291478" y2="-6.606224454554789" style="stroke:rgb(0,0,0);stroke-width:.00002" />
    <line x1="106.80574529291478" y1="-6.606224454554789" x2="106.80529529291478" y2="-6.605524454554788" style="stroke:rgb(0,0,0);stroke-width:.00002" />
    <circle cx="106.8067" cy="-6.6066" fill="rgb(255,0,0)" r=".0001" />
    <text x="106.8067" y="-6.6066" stroke="rgb(0,0,0)" transform="translate(106.8067 -6.6066),scale(0.00001 -0.00001),translate(-106.8067 6.6066),translate(106.8125 -6.592499999999999),rotate(-30),translate(-106.8125 6.592499999999999)" >bangka-5</text>
    <line x1="106.8058" y1="-6.6052" x2="106.8051" y2="-6.6052" style="stroke:rgb(255,0,0);stroke-width:.00002" />
    <line x1="106.8058" y1="-6.6058" x2="106.80545000000001" y2="-6.6058" style="stroke:rgb(0,0,0);stroke-width:.00002" />
    <line x1="106.80545000000001" y1="-6.6058" x2="106.80545000000001" y2="-6.6058" style="stroke:rgb(0,0,0);stroke-width:.00002" />
    <line x1="106.80545000000001" y1="-6.6058" x2="106.8051" y2="-6.6058" style="stroke:rgb(0,0,0);stroke-width:.00002" />
    <circle cx="106.8058" cy="-6.6052" fill="rgb(255,0,0)" r=".0001" />
    <text x="106.8058" y="-6.6052" stroke="rgb(0,0,0)" transform="translate(106.8058 -6.6052),scale(0.00001 -0.00001),translate(-106.8058 6.6052),translate(106.8125 -6.592499999999999),rotate(-30),translate(-106.8125 6.592499999999999)" >bangka-6</text>
    <line x1="106.8051" y1="-6.6052" x2="106.804329" y2="-6.601646" style="stroke:rgb(255,0,0);stroke-width:.00002" />
    <line x1="106.80451363914176" y1="-6.605327204339252" x2="106.80429774492742" y2="-6.604332018816904" style="stroke:rgb(0,0,0);stroke-width:.00002" />
    <line x1="106.80429774492742" y1="-6.604332018816904" x2="106.80317671887842" y2="-6.602937995647269" style="stroke:rgb(0,0,0);stroke-width:.00002" />
    <line x1="106.80317671887842" y1="-6.602937995647269" x2="106.8029608246641" y2="-6.601942810124922" style="stroke:rgb(0,0,0);stroke-width:.00002" />
    <circle cx="106.8051" cy="-6.6052" fill="rgb(255,0,0)" r=".0001" />
    <text x="106.8051" y="-6.6052" stroke="rgb(0,0,0)" transform="translate(106.8051 -6.6052),scale(0.00001 -0.00001),translate(-106.8051 6.6052),translate(106.8125 -6.592499999999999),rotate(-30),translate(-106.8125 6.592499999999999)" >bangka-7</text>
    <line x1="106.804329" y1="-6.601646" x2="106.7999" y2="-6.6027" style="stroke:rgb(255,0,0);stroke-width:.00002" />
    <line x1="106.80465311630061" y1="-6.603007964986213" x2="106.80360601486022" y2="-6.603257151014248" style="stroke:rgb(0,0,0);stroke-width:.00002" />
    <line x1="106.80360601486022" y1="-6.603257151014248" x2="106.80099340376903" y2="-6.602645380398566" style="stroke:rgb(0,0,0);stroke-width:.00002" />
    <line x1="106.80099340376903" y1="-6.602645380398566" x2="106.79994630232865" y2="-6.602894566426602" style="stroke:rgb(0,0,0);stroke-width:.00002" />
    <circle cx="106.804329" cy="-6.601646" fill="rgb(255,0,0)" r=".0001" />
    <text x="106.804329" y="-6.601646" stroke="rgb(0,0,0)" transform="translate(106.804329 -6.601646),scale(0.00001 -0.00001),translate(-106.804329 6.601646),translate(106.8125 -6.592499999999999),rotate(-30),translate(-106.8125 6.592499999999999)" >bangka-otista</text>
    <line x1="106.7999" y1="-6.6027" x2="106.8002" y2="-6.6044" style="stroke:rgb(255,0,0);stroke-width:.00002" />
    <line x1="106.80009695671176" y1="-6.602665242933217" x2="106.80024695671176" y2="-6.603515242933217" style="stroke:rgb(0,0,0);stroke-width:.00002" />
    <line x1="106.80024695671176" y1="-6.603515242933217" x2="106.80024695671176" y2="-6.603515242933217" style="stroke:rgb(0,0,0);stroke-width:.00002" />
    <line x1="106.80024695671176" y1="-6.603515242933217" x2="106.80039695671177" y2="-6.604365242933217" style="stroke:rgb(0,0,0);stroke-width:.00002" />
    <circle cx="106.7999" cy="-6.6027" fill="rgb(255,0,0)" r=".0001" />
    <text x="106.7999" y="-6.6027" stroke="rgb(0,0,0)" transform="translate(106.7999 -6.6027),scale(0.00001 -0.00001),translate(-106.7999 6.6027),translate(106.8125 -6.592499999999999),rotate(-30),translate(-106.8125 6.592499999999999)" >otista-roda</text>
    <line x1="106.8002" y1="-6.6044" x2="106.8018" y2="-6.6056" style="stroke:rgb(255,0,0);stroke-width:.00002" />
    <line x1="106.80032" y1="-6.60424" x2="106.80112" y2="-6.60484" style="stroke:rgb(0,0,0);stroke-width:.00002" />
    <line x1="106.80112" y1="-6.60484" x2="106.80112" y2="-6.60484" style="stroke:rgb(0,0,0);stroke-width:.00002" />
    <line x1="106.80112" y1="-6.60484" x2="106.80192" y2="-6.60544" style="stroke:rgb(0,0,0);stroke-width:.00002" />
    <circle cx="106.8002" cy="-6.6044" fill="rgb(255,0,0)" r=".0001" />
    <text x="106.8002" y="-6.6044" stroke="rgb(0,0,0)" transform="translate(106.8002 -6.6044),scale(0.00001 -0.00001),translate(-106.8002 6.6044),translate(106.8125 -6.592499999999999),rotate(-30),translate(-106.8125 6.592499999999999)" >roda-1</text>
    <line x1="106.8018" y1="-6.6056" x2="106.8035" y2="-6.6077" style="stroke:rgb(255,0,0);stroke-width:.00002" />
    <line x1="106.80195544897414" y1="-6.605474160354266" x2="106.80280544897414" y2="-6.606524160354266" style="stroke:rgb(0,0,0);stroke-width:.00002" />
    <line x1="106.80280544897414" y1="-6.606524160354266" x2="106.80280544897414" y2="-6.606524160354266" style="stroke:rgb(0,0,0);stroke-width:.00002" />
    <line x1="106.80280544897414" y1="-6.606524160354266" x2="106.80365544897414" y2="-6.607574160354266" style="stroke:rgb(0,0,0);stroke-width:.00002" />
    <circle cx="106.8018" cy="-6.6056" fill="rgb(255,0,0)" r=".0001" />
    <text x="106.8018" y="-6.6056" stroke="rgb(0,0,0)" transform="translate(106.8018 -6.6056),scale(0.00001 -0.00001),translate(-106.8018 6.6056),translate(106.8125 -6.592499999999999),rotate(-30),translate(-106.8125 6.592499999999999)" >roda-2</text>
    <line x1="106.8035" y1="-6.6077" x2="106.8048" y2="-6.6096" style="stroke:rgb(255,0,0);stroke-width:.00002" />
    <line x1="106.80366506145225" y1="-6.607587063216882" x2="106.80431506145224" y2="-6.6085370632168825" style="stroke:rgb(0,0,0);stroke-width:.00002" />
    <line x1="106.80431506145224" y1="-6.6085370632168825" x2="106.80431506145224" y2="-6.6085370632168825" style="stroke:rgb(0,0,0);stroke-width:.00002" />
    <line x1="106.80431506145224" y1="-6.6085370632168825" x2="106.80496506145225" y2="-6.609487063216882" style="stroke:rgb(0,0,0);stroke-width:.00002" />
    <circle cx="106.8035" cy="-6.6077" fill="rgb(255,0,0)" r=".0001" />
    <text x="106.8035" y="-6.6077" stroke="rgb(0,0,0)" transform="translate(106.8035 -6.6077),scale(0.00001 -0.00001),translate(-106.8035 6.6077),translate(106.8125 -6.592499999999999),rotate(-30),translate(-106.8125 6.592499999999999)" >roda-3</text>
    <line x1="106.8048" y1="-6.6096" x2="106.8045" y2="-6.6099" style="stroke:rgb(255,0,0);stroke-width:.00002" />
    <line x1="106.80494142135623" y1="-6.609741421356237" x2="106.80479142135624" y2="-6.609891421356236" style="stroke:rgb(0,0,0);stroke-width:.00002" />
    <line x1="106.80479142135624" y1="-6.609891421356236" x2="106.80479142135624" y2="-6.609891421356236" style="stroke:rgb(0,0,0);stroke-width:.00002" />
    <line x1="106.80479142135624" y1="-6.609891421356236" x2="106.80464142135624" y2="-6.610041421356236" style="stroke:rgb(0,0,0);stroke-width:.00002" />
    <circle cx="106.8048" cy="-6.6096" fill="rgb(255,0,0)" r=".0001" />
    <text x="106.8048" y="-6.6096" stroke="rgb(0,0,0)" transform="translate(106.8048 -6.6096),scale(0.00001 -0.00001),translate(-106.8048 6.6096),translate(106.8125 -6.592499999999999),rotate(-30),translate(-106.8125 6.592499999999999)" >roda-4</text>
    <line x1="106.8045" y1="-6.6099" x2="106.812" y2="-6.6178" style="stroke:rgb(255,0,0);stroke-width:.00002" />
    <line x1="106.80464504571893" y1="-6.609762298368116" x2="106.80839504571892" y2="-6.613712298368116" style="stroke:rgb(0,0,0);stroke-width:.00002" />
    <line x1="106.80839504571892" y1="-6.613712298368116" x2="106.80839504571892" y2="-6.613712298368116" style="stroke:rgb(0,0,0);stroke-width:.00002" />
    <line x1="106.80839504571892" y1="-6.613712298368116" x2="106.81214504571892" y2="-6.617662298368116" style="stroke:rgb(0,0,0);stroke-width:.00002" />
    <circle cx="106.8045" cy="-6.6099" fill="rgb(255,0,0)" r=".0001" />
    <text x="106.8045" y="-6.6099" stroke="rgb(0,0,0)" transform="translate(106.8045 -6.6099),scale(0.00001 -0.00001),translate(-106.8045 6.6099),translate(106.8125 -6.592499999999999),rotate(-30),translate(-106.8125 6.592499999999999)" >roda-siliwangi</text>
    <line x1="106.812" y1="-6.6178" x2="106.8123" y2="-6.6177" style="stroke:rgb(255,0,0);stroke-width:.00002" />
    <line x1="106.81193675444679" y1="-6.61761026334039" x2="106.8120867544468" y2="-6.6175602633403905" style="stroke:rgb(0,0,0);stroke-width:.00002" />
    <line x1="106.8120867544468" y1="-6.6175602633403905" x2="106.8120867544468" y2="-6.6175602633403905" style="stroke:rgb(0,0,0);stroke-width:.00002" />
    <line x1="106.8120867544468" y1="-6.6175602633403905" x2="106.81223675444679" y2="-6.617510263340391" style="stroke:rgb(0,0,0);stroke-width:.00002" />
    <circle cx="106.812" cy="-6.6178" fill="rgb(255,0,0)" r=".0001" />
    <text x="106.812" y="-6.6178" stroke="rgb(0,0,0)" transform="translate(106.812 -6.6178),scale(0.00001 -0.00001),translate(-106.812 6.6178),translate(106.8125 -6.592499999999999),rotate(-30),translate(-106.8125 6.592499999999999)" >siliwangi-jlsukasari</text>
    <line x1="106.8123" y1="-6.6177" x2="106.8133" y2="-6.6176" style="stroke:rgb(255,0,0);stroke-width:.00002" />
    <line x1="106.81228009925618" y1="-6.617500992561959" x2="106.81278009925619" y2="-6.617450992561959" style="stroke:rgb(0,0,0);stroke-width:.00002" />
    <line x1="106.81278009925619" y1="-6.617450992561959" x2="106.81278009925619" y2="-6.617450992561959" style="stroke:rgb(0,0,0);stroke-width:.00002" />
    <line x1="106.81278009925619" y1="-6.617450992561959" x2="106.81328009925619" y2="-6.617400992561959" style="stroke:rgb(0,0,0);stroke-width:.00002" />
    <circle cx="106.8123" cy="-6.6177" fill="rgb(255,0,0)" r=".0001" />
    <text x="106.8123" y="-6.6177" stroke="rgb(0,0,0)" transform="translate(106.8123 -6.6177),scale(0.00001 -0.00001),translate(-106.8123 6.6177),translate(106.8125 -6.592499999999999),rotate(-30),translate(-106.8125 6.592499999999999)" >jlsukasari-1</text>
    <line x1="106.8133" y1="-6.6176" x2="106.8153" y2="-6.6185" style="stroke:rgb(255,0,0);stroke-width:.00002" />
    <line x1="106.81338207293547" y1="-6.617417615698965" x2="106.81438207293547" y2="-6.617867615698965" style="stroke:rgb(0,0,0);stroke-width:.00002" />
    <line x1="106.81438207293547" y1="-6.617867615698965" x2="106.81438207293547" y2="-6.617867615698965" style="stroke:rgb(0,0,0);stroke-width:.00002" />
    <line x1="106.81438207293547" y1="-6.617867615698965" x2="106.81538207293546" y2="-6.618317615698965" style="stroke:rgb(0,0,0);stroke-width:.00002" />
    <circle cx="106.8133" cy="-6.6176" fill="rgb(255,0,0)" r=".0001" />
    <text x="106.8133" y="-6.6176" stroke="rgb(0,0,0)" transform="translate(106.8133 -6.6176),scale(0.00001 -0.00001),translate(-106.8133 6.6176),translate(106.8125 -6.592499999999999),rotate(-30),translate(-106.8125 6.592499999999999)" >jlsukasari-2</text>
    <line x1="106.8153" y1="-6.6185" x2="106.815" y2="-6.6175" style="stroke:rgb(255,0,0);stroke-width:.00002" />
    <line x1="106.81510843474295" y1="-6.618557469577112" x2="106.81501590432006" y2="-6.618249034834157" style="stroke:rgb(0,0,0);stroke-width:.00002" />
    <line x1="106.81501590432006" y1="-6.618249034834157" x2="106.81470939990878" y2="-6.617923373897181" style="stroke:rgb(0,0,0);stroke-width:.00002" />
    <line x1="106.81470939990878" y1="-6.617923373897181" x2="106.8146168694859" y2="-6.617614939154225" style="stroke:rgb(0,0,0);stroke-width:.00002" />
    <circle cx="106.8153" cy="-6.6185" fill="rgb(255,0,0)" r=".0001" />
    <text x="106.8153" y="-6.6185" stroke="rgb(0,0,0)" transform="translate(106.8153 -6.6185),scale(0.00001 -0.00001),translate(-106.8153 6.6185),translate(106.8125 -6.592499999999999),rotate(-30),translate(-106.8125 6.592499999999999)" >jlsukasari-pajajaran</text>
    <line x1="106.815" y1="-6.6175" x2="106.813" y2="-6.6125" style="stroke:rgb(255,0,0);stroke-width:.00002" />
    <line x1="106.81462860932365" y1="-6.617648556270541" x2="106.81370288745892" y2="-6.615334251608719" style="stroke:rgb(0,0,0);stroke-width:.00002" />
    <line x1="106.81370288745892" y1="-6.615334251608719" x2="106.81374002652655" y2="-6.614888582797094" style="stroke:rgb(0,0,0);stroke-width:.00002" />
    <line x1="106.81374002652655" y1="-6.614888582797094" x2="106.81281430466183" y2="-6.612574278135271" style="stroke:rgb(0,0,0);stroke-width:.00002" />
    <circle cx="106.815" cy="-6.6175" fill="rgb(255,0,0)" r=".0001" />
    <text x="106.815" y="-6.6175" stroke="rgb(0,0,0)" transform="translate(106.815 -6.6175),scale(0.00001 -0.00001),translate(-106.815 6.6175),translate(106.8125 -6.592499999999999),rotate(-30),translate(-106.8125 6.592499999999999)" >pajajaran-ggmesjid</text>
    <line x1="106.813" y1="-6.6125" x2="106.8105" y2="-6.6087" style="stroke:rgb(255,0,0);stroke-width:.00002" />
    <line x1="106.81283291658356" y1="-6.612609923300295" x2="106.81158291658356" y2="-6.610709923300295" style="stroke:rgb(0,0,0);stroke-width:.00002" />
    <line x1="106.81158291658356" y1="-6.610709923300295" x2="106.81158291658356" y2="-6.610709923300295" style="stroke:rgb(0,0,0);stroke-width:.00002" />
    <line x1="106.81158291658356" y1="-6.610709923300295" x2="106.81033291658356" y2="-6.608809923300295" style="stroke:rgb(0,0,0);stroke-width:.00002" />
    <circle cx="106.813" cy="-6.6125" fill="rgb(255,0,0)" r=".0001" />
    <text x="106.813" y="-6.6125" stroke="rgb(0,0,0)" transform="translate(106.813 -6.6125),scale(0.00001 -0.00001),translate(-106.813 6.6125),translate(106.8125 -6.592499999999999),rotate(-30),translate(-106.8125 6.592499999999999)" >pajajaran-pjjindah</text>
    <line x1="106.8105" y1="-6.6087" x2="106.813" y2="-6.6125" style="stroke:rgb(255,0,0);stroke-width:.00002" />
    <line x1="106.81066708341645" y1="-6.608590076699705" x2="106.81191708341645" y2="-6.610490076699705" style="stroke:rgb(0,0,0);stroke-width:.00002" />
    <line x1="106.81191708341645" y1="-6.610490076699705" x2="106.81191708341645" y2="-6.610490076699705" style="stroke:rgb(0,0,0);stroke-width:.00002" />
    <line x1="106.81191708341645" y1="-6.610490076699705" x2="106.81316708341645" y2="-6.612390076699705" style="stroke:rgb(0,0,0);stroke-width:.00002" />
    <circle cx="106.8105" cy="-6.6087" fill="rgb(255,0,0)" r=".0001" />
    <text x="106.8105" y="-6.6087" stroke="rgb(0,0,0)" transform="translate(106.8105 -6.6087),scale(0.00001 -0.00001),translate(-106.8105 6.6087),translate(106.8125 -6.592499999999999),rotate(-30),translate(-106.8125 6.592499999999999)" >pajajaran-michelle-bakery</text>
    <line x1="106.813" y1="-6.6125" x2="106.8149" y2="-6.6116" style="stroke:rgb(255,0,0);stroke-width:.00002" />
    <line x1="106.81291438273105" y1="-6.612319252432221" x2="106.81386438273105" y2="-6.611869252432221" style="stroke:rgb(0,0,0);stroke-width:.00002" />
    <line x1="106.81386438273105" y1="-6.611869252432221" x2="106.81386438273105" y2="-6.611869252432221" style="stroke:rgb(0,0,0);stroke-width:.00002" />
    <line x1="106.81386438273105" y1="-6.611869252432221" x2="106.81481438273104" y2="-6.6114192524322215" style="stroke:rgb(0,0,0);stroke-width:.00002" />
    <circle cx="106.813" cy="-6.6125" fill="rgb(255,0,0)" r=".0001" />
    <text x="106.813" y="-6.6125" stroke="rgb(0,0,0)" transform="translate(106.813 -6.6125),scale(0.00001 -0.00001),translate(-106.813 6.6125),translate(106.8125 -6.592499999999999),rotate(-30),translate(-106.8125 6.592499999999999)" >pajajaran-pjjindah</text>
    <line x1="106.8149" y1="-6.6116" x2="106.8169" y2="-6.6139" style="stroke:rgb(255,0,0);stroke-width:.00002" />
    <line x1="106.81505092110443" y1="-6.6114687642570145" x2="106.81605092110443" y2="-6.6126187642570144" style="stroke:rgb(0,0,0);stroke-width:.00002" />
    <line x1="106.81605092110443" y1="-6.6126187642570144" x2="106.81605092110443" y2="-6.6126187642570144" style="stroke:rgb(0,0,0);stroke-width:.00002" />
    <line x1="106.81605092110443" y1="-6.6126187642570144" x2="106.81705092110444" y2="-6.613768764257014" style="stroke:rgb(0,0,0);stroke-width:.00002" />
    <circle cx="106.8149" cy="-6.6116" fill="rgb(255,0,0)" r=".0001" />
    <text x="106.8149" y="-6.6116" stroke="rgb(0,0,0)" transform="translate(106.8149 -6.6116),scale(0.00001 -0.00001),translate(-106.8149 6.6116),translate(106.8125 -6.592499999999999),rotate(-30),translate(-106.8125 6.592499999999999)" >pjjindah-1</text>
    <line x1="106.8169" y1="-6.6139" x2="106.8173" y2="-6.6134" style="stroke:rgb(255,0,0);stroke-width:.00002" />
    <line x1="106.81674382623811" y1="-6.6137750609904895" x2="106.81694382623812" y2="-6.613525060990489" style="stroke:rgb(0,0,0);stroke-width:.00002" />
    <line x1="106.81694382623812" y1="-6.613525060990489" x2="106.81694382623812" y2="-6.613525060990489" style="stroke:rgb(0,0,0);stroke-width:.00002" />
    <line x1="106.81694382623812" y1="-6.613525060990489" x2="106.81714382623811" y2="-6.61327506099049" style="stroke:rgb(0,0,0);stroke-width:.00002" />
    <circle cx="106.8169" cy="-6.6139" fill="rgb(255,0,0)" r=".0001" />
    <text x="106.8169" y="-6.6139" stroke="rgb(0,0,0)" transform="translate(106.8169 -6.6139),scale(0.00001 -0.00001),translate(-106.8169 6.6139),translate(106.8125 -6.592499999999999),rotate(-30),translate(-106.8125 6.592499999999999)" >pjjindah-2</text>
    <line x1="106.8173" y1="-6.6134" x2="106.8179" y2="-6.6133" style="stroke:rgb(255,0,0);stroke-width:.00002" />
    <line x1="106.81726712020254" y1="-6.6132027212152344" x2="106.81756712020254" y2="-6.613152721215235" style="stroke:rgb(0,0,0);stroke-width:.00002" />
    <line x1="106.81756712020254" y1="-6.613152721215235" x2="106.81756712020254" y2="-6.613152721215235" style="stroke:rgb(0,0,0);stroke-width:.00002" />
    <line x1="106.81756712020254" y1="-6.613152721215235" x2="106.81786712020254" y2="-6.613102721215234" style="stroke:rgb(0,0,0);stroke-width:.00002" />
    <circle cx="106.8173" cy="-6.6134" fill="rgb(255,0,0)" r=".0001" />
    <text x="106.8173" y="-6.6134" stroke="rgb(0,0,0)" transform="translate(106.8173 -6.6134),scale(0.00001 -0.00001),translate(-106.8173 6.6134),translate(106.8125 -6.592499999999999),rotate(-30),translate(-106.8125 6.592499999999999)" >pjjindah-3</text>
    <line x1="106.8179" y1="-6.6133" x2="106.8182" y2="-6.6136" style="stroke:rgb(255,0,0);stroke-width:.00002" />
    <line x1="106.81804142135623" y1="-6.61315857864376" x2="106.81819142135623" y2="-6.61330857864376" style="stroke:rgb(0,0,0);stroke-width:.00002" />
    <line x1="106.81819142135623" y1="-6.61330857864376" x2="106.81819142135623" y2="-6.61330857864376" style="stroke:rgb(0,0,0);stroke-width:.00002" />
    <line x1="106.81819142135623" y1="-6.61330857864376" x2="106.81834142135624" y2="-6.61345857864376" style="stroke:rgb(0,0,0);stroke-width:.00002" />
    <circle cx="106.8179" cy="-6.6133" fill="rgb(255,0,0)" r=".0001" />
    <text x="106.8179" y="-6.6133" stroke="rgb(0,0,0)" transform="translate(106.8179 -6.6133),scale(0.00001 -0.00001),translate(-106.8179 6.6133),translate(106.8125 -6.592499999999999),rotate(-30),translate(-106.8125 6.592499999999999)" >pjjindah-4</text>
    <line x1="106.8182" y1="-6.6136" x2="106.8187" y2="-6.6135" style="stroke:rgb(255,0,0);stroke-width:.00002" />
    <line x1="106.81816077677297" y1="-6.613403883864862" x2="106.81841077677298" y2="-6.613353883864862" style="stroke:rgb(0,0,0);stroke-width:.00002" />
    <line x1="106.81841077677298" y1="-6.613353883864862" x2="106.81841077677298" y2="-6.613353883864862" style="stroke:rgb(0,0,0);stroke-width:.00002" />
    <line x1="106.81841077677298" y1="-6.613353883864862" x2="106.81866077677297" y2="-6.613303883864862" style="stroke:rgb(0,0,0);stroke-width:.00002" />
    <circle cx="106.8182" cy="-6.6136" fill="rgb(255,0,0)" r=".0001" />
    <text x="106.8182" y="-6.6136" stroke="rgb(0,0,0)" transform="translate(106.8182 -6.6136),scale(0.00001 -0.00001),translate(-106.8182 6.6136),translate(106.8125 -6.592499999999999),rotate(-30),translate(-106.8125 6.592499999999999)" >pjjindah-5</text>
    <line x1="106.8187" y1="-6.6135" x2="106.8188" y2="-6.6138" style="stroke:rgb(255,0,0);stroke-width:.00002" />
    <line x1="106.81888973665961" y1="-6.613436754446803" x2="106.8189397366596" y2="-6.6135867544468026" style="stroke:rgb(0,0,0);stroke-width:.00002" />
    <line x1="106.8189397366596" y1="-6.6135867544468026" x2="106.8189397366596" y2="-6.6135867544468026" style="stroke:rgb(0,0,0);stroke-width:.00002" />
    <line x1="106.8189397366596" y1="-6.6135867544468026" x2="106.8189897366596" y2="-6.613736754446803" style="stroke:rgb(0,0,0);stroke-width:.00002" />
    <circle cx="106.8187" cy="-6.6135" fill="rgb(255,0,0)" r=".0001" />
    <text x="106.8187" y="-6.6135" stroke="rgb(0,0,0)" transform="translate(106.8187 -6.6135),scale(0.00001 -0.00001),translate(-106.8187 6.6135),translate(106.8125 -6.592499999999999),rotate(-30),translate(-106.8125 6.592499999999999)" >pjjindah-6</text>
    <line x1="106.8188" y1="-6.6138" x2="106.8193" y2="-6.6137" style="stroke:rgb(255,0,0);stroke-width:.00002" />
    <line x1="106.81876077677296" y1="-6.6136038838648625" x2="106.81901077677297" y2="-6.613553883864862" style="stroke:rgb(0,0,0);stroke-width:.00002" />
    <line x1="106.81901077677297" y1="-6.613553883864862" x2="106.81901077677297" y2="-6.613553883864862" style="stroke:rgb(0,0,0);stroke-width:.00002" />
    <line x1="106.81901077677297" y1="-6.613553883864862" x2="106.81926077677296" y2="-6.613503883864862" style="stroke:rgb(0,0,0);stroke-width:.00002" />
    <circle cx="106.8188" cy="-6.6138" fill="rgb(255,0,0)" r=".0001" />
    <text x="106.8188" y="-6.6138" stroke="rgb(0,0,0)" transform="translate(106.8188 -6.6138),scale(0.00001 -0.00001),translate(-106.8188 6.6138),translate(106.8125 -6.592499999999999),rotate(-30),translate(-106.8125 6.592499999999999)" >pjjindah-7</text>
    <line x1="106.8193" y1="-6.6137" x2="106.8188" y2="-6.6119" style="stroke:rgb(255,0,0);stroke-width:.00002" />
    <line x1="106.81910729641807" y1="-6.613753528772757" x2="106.81885729641807" y2="-6.6128535287727574" style="stroke:rgb(0,0,0);stroke-width:.00002" />
    <line x1="106.81885729641807" y1="-6.6128535287727574" x2="106.81885729641807" y2="-6.6128535287727574" style="stroke:rgb(0,0,0);stroke-width:.00002" />
    <line x1="106.81885729641807" y1="-6.6128535287727574" x2="106.81860729641807" y2="-6.611953528772758" style="stroke:rgb(0,0,0);stroke-width:.00002" />
    <circle cx="106.8193" cy="-6.6137" fill="rgb(255,0,0)" r=".0001" />
    <text x="106.8193" y="-6.6137" stroke="rgb(0,0,0)" transform="translate(106.8193 -6.6137),scale(0.00001 -0.00001),translate(-106.8193 6.6137),translate(106.8125 -6.592499999999999),rotate(-30),translate(-106.8125 6.592499999999999)" >pjjindah-8</text>
    <line x1="106.8188" y1="-6.6119" x2="106.8198" y2="-6.6115" style="stroke:rgb(255,0,0);stroke-width:.00002" />
    <line x1="106.81872572186472" y1="-6.611714304661823" x2="106.81922572186473" y2="-6.611514304661823" style="stroke:rgb(0,0,0);stroke-width:.00002" />
    <line x1="106.81922572186473" y1="-6.611514304661823" x2="106.81922572186473" y2="-6.611514304661823" style="stroke:rgb(0,0,0);stroke-width:.00002" />
    <line x1="106.81922572186473" y1="-6.611514304661823" x2="106.81972572186473" y2="-6.611314304661823" style="stroke:rgb(0,0,0);stroke-width:.00002" />
    <circle cx="106.8188" cy="-6.6119" fill="rgb(255,0,0)" r=".0001" />
    <text x="106.8188" y="-6.6119" stroke="rgb(0,0,0)" transform="translate(106.8188 -6.6119),scale(0.00001 -0.00001),translate(-106.8188 6.6119),translate(106.8125 -6.592499999999999),rotate(-30),translate(-106.8125 6.592499999999999)" >pjjindah-9</text>
    <line x1="106.8198" y1="-6.6115" x2="106.8194" y2="-6.6084" style="stroke:rgb(255,0,0);stroke-width:.00002" />
    <line x1="106.81960164442667" y1="-6.611525594267526" x2="106.81940164442668" y2="-6.609975594267525" style="stroke:rgb(0,0,0);stroke-width:.00002" />
    <line x1="106.81940164442668" y1="-6.609975594267525" x2="106.81940164442668" y2="-6.609975594267525" style="stroke:rgb(0,0,0);stroke-width:.00002" />
    <line x1="106.81940164442668" y1="-6.609975594267525" x2="106.81920164442667" y2="-6.608425594267525" style="stroke:rgb(0,0,0);stroke-width:.00002" />
    <circle cx="106.8198" cy="-6.6115" fill="rgb(255,0,0)" r=".0001" />
    <text x="106.8198" y="-6.6115" stroke="rgb(0,0,0)" transform="translate(106.8198 -6.6115),scale(0.00001 -0.00001),translate(-106.8198 6.6115),translate(106.8125 -6.592499999999999),rotate(-30),translate(-106.8125 6.592499999999999)" >pjjindah-bigroad</text>
    <line x1="106.8194" y1="-6.6084" x2="106.8198" y2="-6.6115" style="stroke:rgb(255,0,0);stroke-width:.00002" />
    <line x1="106.81959835557333" y1="-6.608374405732474" x2="106.81979835557334" y2="-6.609924405732474" style="stroke:rgb(0,0,0);stroke-width:.00002" />
    <line x1="106.81979835557334" y1="-6.609924405732474" x2="106.81979835557334" y2="-6.609924405732474" style="stroke:rgb(0,0,0);stroke-width:.00002" />
    <line x1="106.81979835557334" y1="-6.609924405732474" x2="106.81999835557333" y2="-6.611474405732475" style="stroke:rgb(0,0,0);stroke-width:.00002" />
    <circle cx="106.8194" cy="-6.6084" fill="rgb(255,0,0)" r=".0001" />
    <text x="106.8194" y="-6.6084" stroke="rgb(0,0,0)" transform="translate(106.8194 -6.6084),scale(0.00001 -0.00001),translate(-106.8194 6.6084),translate(106.8125 -6.592499999999999),rotate(-30),translate(-106.8125 6.592499999999999)" >pjjindah-bigroadturnnorth</text>
    <line x1="106.8198" y1="-6.6115" x2="106.8204" y2="-6.6113" style="stroke:rgb(255,0,0);stroke-width:.00002" />
    <line x1="106.8197367544468" y1="-6.61131026334039" x2="106.82003675444679" y2="-6.611210263340389" style="stroke:rgb(0,0,0);stroke-width:.00002" />
    <line x1="106.82003675444679" y1="-6.611210263340389" x2="106.82003675444679" y2="-6.611210263340389" style="stroke:rgb(0,0,0);stroke-width:.00002" />
    <line x1="106.82003675444679" y1="-6.611210263340389" x2="106.8203367544468" y2="-6.6111102633403895" style="stroke:rgb(0,0,0);stroke-width:.00002" />
    <circle cx="106.8198" cy="-6.6115" fill="rgb(255,0,0)" r=".0001" />
    <text x="106.8198" y="-6.6115" stroke="rgb(0,0,0)" transform="translate(106.8198 -6.6115),scale(0.00001 -0.00001),translate(-106.8198 6.6115),translate(106.8125 -6.592499999999999),rotate(-30),translate(-106.8125 6.592499999999999)" >pjjindah-bigroad</text>
    <line x1="106.8204" y1="-6.6113" x2="106.8211" y2="-6.6112" style="stroke:rgb(255,0,0);stroke-width:.00002" />
    <line x1="106.82037171572875" y1="-6.611102010101268" x2="106.82072171572875" y2="-6.611052010101268" style="stroke:rgb(0,0,0);stroke-width:.00002" />
    <line x1="106.82072171572875" y1="-6.611052010101268" x2="106.82072171572875" y2="-6.611052010101268" style="stroke:rgb(0,0,0);stroke-width:.00002" />
    <line x1="106.82072171572875" y1="-6.611052010101268" x2="106.82107171572875" y2="-6.611002010101268" style="stroke:rgb(0,0,0);stroke-width:.00002" />
    <circle cx="106.8204" cy="-6.6113" fill="rgb(255,0,0)" r=".0001" />
    <text x="106.8204" y="-6.6113" stroke="rgb(0,0,0)" transform="translate(106.8204 -6.6113),scale(0.00001 -0.00001),translate(-106.8204 6.6113),translate(106.8125 -6.592499999999999),rotate(-30),translate(-106.8125 6.592499999999999)" >pjjindah-east-1</text>
    <line x1="106.8211" y1="-6.6112" x2="106.8204" y2="-6.6113" style="stroke:rgb(255,0,0);stroke-width:.00002" />
    <line x1="106.82112828427125" y1="-6.611397989898732" x2="106.82077828427126" y2="-6.611447989898732" style="stroke:rgb(0,0,0);stroke-width:.00002" />
    <line x1="106.82077828427126" y1="-6.611447989898732" x2="106.82077828427126" y2="-6.611447989898732" style="stroke:rgb(0,0,0);stroke-width:.00002" />
    <line x1="106.82077828427126" y1="-6.611447989898732" x2="106.82042828427126" y2="-6.611497989898732" style="stroke:rgb(0,0,0);stroke-width:.00002" />
    <circle cx="106.8211" cy="-6.6112" fill="rgb(255,0,0)" r=".0001" />
    <text x="106.8211" y="-6.6112" stroke="rgb(0,0,0)" transform="translate(106.8211 -6.6112),scale(0.00001 -0.00001),translate(-106.8211 6.6112),translate(106.8125 -6.592499999999999),rotate(-30),translate(-106.8125 6.592499999999999)" >pjjindah-east-2</text>
    <line x1="106.8204" y1="-6.6113" x2="106.8198" y2="-6.6115" style="stroke:rgb(255,0,0);stroke-width:.00002" />
    <line x1="106.82046324555321" y1="-6.61148973665961" x2="106.8201632455532" y2="-6.61158973665961" style="stroke:rgb(0,0,0);stroke-width:.00002" />
    <line x1="106.8201632455532" y1="-6.61158973665961" x2="106.8201632455532" y2="-6.61158973665961" style="stroke:rgb(0,0,0);stroke-width:.00002" />
    <line x1="106.8201632455532" y1="-6.61158973665961" x2="106.81986324555321" y2="-6.611689736659611" style="stroke:rgb(0,0,0);stroke-width:.00002" />
    <circle cx="106.8204" cy="-6.6113" fill="rgb(255,0,0)" r=".0001" />
    <text x="106.8204" y="-6.6113" stroke="rgb(0,0,0)" transform="translate(106.8204 -6.6113),scale(0.00001 -0.00001),translate(-106.8204 6.6113),translate(106.8125 -6.592499999999999),rotate(-30),translate(-106.8125 6.592499999999999)" >pjjindah-east-1</text>
    <line x1="106.8198" y1="-6.6115" x2="106.8201" y2="-6.613" style="stroke:rgb(255,0,0);stroke-width:.00002" />
    <line x1="106.81999611613514" y1="-6.611460776772973" x2="106.82014611613515" y2="-6.612210776772973" style="stroke:rgb(0,0,0);stroke-width:.00002" />
    <line x1="106.82014611613515" y1="-6.612210776772973" x2="106.82014611613515" y2="-6.612210776772973" style="stroke:rgb(0,0,0);stroke-width:.00002" />
    <line x1="106.82014611613515" y1="-6.612210776772973" x2="106.82029611613514" y2="-6.612960776772973" style="stroke:rgb(0,0,0);stroke-width:.00002" />
    <circle cx="106.8198" cy="-6.6115" fill="rgb(255,0,0)" r=".0001" />
    <text x="106.8198" y="-6.6115" stroke="rgb(0,0,0)" transform="translate(106.8198 -6.6115),scale(0.00001 -0.00001),translate(-106.8198 6.6115),translate(106.8125 -6.592499999999999),rotate(-30),translate(-106.8125 6.592499999999999)" >pjjindah-bigroad</text>
    <line x1="106.8201" y1="-6.613" x2="106.8207" y2="-6.6135" style="stroke:rgb(255,0,0);stroke-width:.00002" />
    <line x1="106.82022803687993" y1="-6.612846355744081" x2="106.82052803687994" y2="-6.613096355744081" style="stroke:rgb(0,0,0);stroke-width:.00002" />
    <line x1="106.82052803687994" y1="-6.613096355744081" x2="106.82052803687994" y2="-6.613096355744081" style="stroke:rgb(0,0,0);stroke-width:.00002" />
    <line x1="106.82052803687994" y1="-6.613096355744081" x2="106.82082803687993" y2="-6.61334635574408" style="stroke:rgb(0,0,0);stroke-width:.00002" />
    <circle cx="106.8201" cy="-6.613" fill="rgb(255,0,0)" r=".0001" />
    <text x="106.8201" y="-6.613" stroke="rgb(0,0,0)" transform="translate(106.8201 -6.613),scale(0.00001 -0.00001),translate(-106.8201 6.613),translate(106.8125 -6.592499999999999),rotate(-30),translate(-106.8125 6.592499999999999)" >pjjindah-bigroadbend</text>
    <line x1="106.8207" y1="-6.6135" x2="106.8201" y2="-6.613" style="stroke:rgb(255,0,0);stroke-width:.00002" />
    <line x1="106.82057196312007" y1="-6.61365364425592" x2="106.82027196312008" y2="-6.6134036442559205" style="stroke:rgb(0,0,0);stroke-width:.00002" />
    <line x1="106.82027196312008" y1="-6.6134036442559205" x2="106.82027196312008" y2="-6.6134036442559205" style="stroke:rgb(0,0,0);stroke-width:.00002" />
    <line x1="106.82027196312008" y1="-6.6134036442559205" x2="106.81997196312007" y2="-6.61315364425592" style="stroke:rgb(0,0,0);stroke-width:.00002" />
    <circle cx="106.8207" cy="-6.6135" fill="rgb(255,0,0)" r=".0001" />
    <text x="106.8207" y="-6.6135" stroke="rgb(0,0,0)" transform="translate(106.8207 -6.6135),scale(0.00001 -0.00001),translate(-106.8207 6.6135),translate(106.8125 -6.592499999999999),rotate(-30),translate(-106.8125 6.592499999999999)" >pjjindah-bigroadturnsouth</text>
    <line x1="106.8201" y1="-6.613" x2="106.8198" y2="-6.6115" style="stroke:rgb(255,0,0);stroke-width:.00002" />
    <line x1="106.81990388386485" y1="-6.613039223227028" x2="106.81975388386486" y2="-6.612289223227028" style="stroke:rgb(0,0,0);stroke-width:.00002" />
    <line x1="106.81975388386486" y1="-6.612289223227028" x2="106.81975388386486" y2="-6.612289223227028" style="stroke:rgb(0,0,0);stroke-width:.00002" />
    <line x1="106.81975388386486" y1="-6.612289223227028" x2="106.81960388386486" y2="-6.611539223227028" style="stroke:rgb(0,0,0);stroke-width:.00002" />
    <circle cx="106.8201" cy="-6.613" fill="rgb(255,0,0)" r=".0001" />
    <text x="106.8201" y="-6.613" stroke="rgb(0,0,0)" transform="translate(106.8201 -6.613),scale(0.00001 -0.00001),translate(-106.8201 6.613),translate(106.8125 -6.592499999999999),rotate(-30),translate(-106.8125 6.592499999999999)" >pjjindah-bigroadbend</text>
    <line x1="106.8198" y1="-6.6115" x2="106.8188" y2="-6.6119" style="stroke:rgb(255,0,0);stroke-width:.00002" />
    <line x1="106.81987427813527" y1="-6.611685695338178" x2="106.81937427813527" y2="-6.611885695338178" style="stroke:rgb(0,0,0);stroke-width:.00002" />
    <line x1="106.81937427813527" y1="-6.611885695338178" x2="106.81937427813527" y2="-6.611885695338178" style="stroke:rgb(0,0,0);stroke-width:.00002" />
    <line x1="106.81937427813527" y1="-6.611885695338178" x2="106.81887427813527" y2="-6.612085695338178" style="stroke:rgb(0,0,0);stroke-width:.00002" />
    <circle cx="106.8198" cy="-6.6115" fill="rgb(255,0,0)" r=".0001" />
    <text x="106.8198" y="-6.6115" stroke="rgb(0,0,0)" transform="translate(106.8198 -6.6115),scale(0.00001 -0.00001),translate(-106.8198 6.6115),translate(106.8125 -6.592499999999999),rotate(-30),translate(-106.8125 6.592499999999999)" >pjjindah-bigroad</text>
    <line x1="106.8188" y1="-6.6119" x2="106.8193" y2="-6.6137" style="stroke:rgb(255,0,0);stroke-width:.00002" />
    <line x1="106.81899270358193" y1="-6.611846471227243" x2="106.81924270358193" y2="-6.612746471227243" style="stroke:rgb(0,0,0);stroke-width:.00002" />
    <line x1="106.81924270358193" y1="-6.612746471227243" x2="106.81924270358193" y2="-6.612746471227243" style="stroke:rgb(0,0,0);stroke-width:.00002" />
    <line x1="106.81924270358193" y1="-6.612746471227243" x2="106.81949270358193" y2="-6.613646471227242" style="stroke:rgb(0,0,0);stroke-width:.00002" />
    <circle cx="106.8188" cy="-6.6119" fill="rgb(255,0,0)" r=".0001" />
    <text x="106.8188" y="-6.6119" stroke="rgb(0,0,0)" transform="translate(106.8188 -6.6119),scale(0.00001 -0.00001),translate(-106.8188 6.6119),translate(106.8125 -6.592499999999999),rotate(-30),translate(-106.8125 6.592499999999999)" >pjjindah-9</text>
    <line x1="106.8193" y1="-6.6137" x2="106.8188" y2="-6.6138" style="stroke:rgb(255,0,0);stroke-width:.00002" />
    <line x1="106.81933922322703" y1="-6.6138961161351375" x2="106.81908922322704" y2="-6.613946116135137" style="stroke:rgb(0,0,0);stroke-width:.00002" />
    <line x1="106.81908922322704" y1="-6.613946116135137" x2="106.81908922322704" y2="-6.613946116135137" style="stroke:rgb(0,0,0);stroke-width:.00002" />
    <line x1="106.81908922322704" y1="-6.613946116135137" x2="106.81883922322703" y2="-6.613996116135138" style="stroke:rgb(0,0,0);stroke-width:.00002" />
    <circle cx="106.8193" cy="-6.6137" fill="rgb(255,0,0)" r=".0001" />
    <text x="106.8193" y="-6.6137" stroke="rgb(0,0,0)" transform="translate(106.8193 -6.6137),scale(0.00001 -0.00001),translate(-106.8193 6.6137),translate(106.8125 -6.592499999999999),rotate(-30),translate(-106.8125 6.592499999999999)" >pjjindah-8</text>
    <line x1="106.8188" y1="-6.6138" x2="106.8187" y2="-6.6135" style="stroke:rgb(255,0,0);stroke-width:.00002" />
    <line x1="106.81861026334039" y1="-6.613863245553198" x2="106.81856026334039" y2="-6.613713245553197" style="stroke:rgb(0,0,0);stroke-width:.00002" />
    <line x1="106.81856026334039" y1="-6.613713245553197" x2="106.81856026334039" y2="-6.613713245553197" style="stroke:rgb(0,0,0);stroke-width:.00002" />
    <line x1="106.81856026334039" y1="-6.613713245553197" x2="106.8185102633404" y2="-6.613563245553197" style="stroke:rgb(0,0,0);stroke-width:.00002" />
    <circle cx="106.8188" cy="-6.6138" fill="rgb(255,0,0)" r=".0001" />
    <text x="106.8188" y="-6.6138" stroke="rgb(0,0,0)" transform="translate(106.8188 -6.6138),scale(0.00001 -0.00001),translate(-106.8188 6.6138),translate(106.8125 -6.592499999999999),rotate(-30),translate(-106.8125 6.592499999999999)" >pjjindah-7</text>
    <line x1="106.8187" y1="-6.6135" x2="106.8182" y2="-6.6136" style="stroke:rgb(255,0,0);stroke-width:.00002" />
    <line x1="106.81873922322704" y1="-6.613696116135138" x2="106.81848922322705" y2="-6.613746116135138" style="stroke:rgb(0,0,0);stroke-width:.00002" />
    <line x1="106.81848922322705" y1="-6.613746116135138" x2="106.81848922322705" y2="-6.613746116135138" style="stroke:rgb(0,0,0);stroke-width:.00002" />
    <line x1="106.81848922322705" y1="-6.613746116135138" x2="106.81823922322704" y2="-6.613796116135138" style="stroke:rgb(0,0,0);stroke-width:.00002" />
    <circle cx="106.8187" cy="-6.6135" fill="rgb(255,0,0)" r=".0001" />
    <text x="106.8187" y="-6.6135" stroke="rgb(0,0,0)" transform="translate(106.8187 -6.6135),scale(0.00001 -0.00001),translate(-106.8187 6.6135),translate(106.8125 -6.592499999999999),rotate(-30),translate(-106.8125 6.592499999999999)" >pjjindah-6</text>
    <line x1="106.8182" y1="-6.6136" x2="106.8179" y2="-6.6133" style="stroke:rgb(255,0,0);stroke-width:.00002" />
    <line x1="106.81805857864377" y1="-6.61374142135624" x2="106.81790857864377" y2="-6.61359142135624" style="stroke:rgb(0,0,0);stroke-width:.00002" />
    <line x1="106.81790857864377" y1="-6.61359142135624" x2="106.81790857864377" y2="-6.61359142135624" style="stroke:rgb(0,0,0);stroke-width:.00002" />
    <line x1="106.81790857864377" y1="-6.61359142135624" x2="106.81775857864376" y2="-6.61344142135624" style="stroke:rgb(0,0,0);stroke-width:.00002" />
    <circle cx="106.8182" cy="-6.6136" fill="rgb(255,0,0)" r=".0001" />
    <text x="106.8182" y="-6.6136" stroke="rgb(0,0,0)" transform="translate(106.8182 -6.6136),scale(0.00001 -0.00001),translate(-106.8182 6.6136),translate(106.8125 -6.592499999999999),rotate(-30),translate(-106.8125 6.592499999999999)" >pjjindah-5</text>
    <line x1="106.8179" y1="-6.6133" x2="106.8173" y2="-6.6134" style="stroke:rgb(255,0,0);stroke-width:.00002" />
    <line x1="106.81793287979745" y1="-6.613497278784766" x2="106.81763287979746" y2="-6.6135472787847664" style="stroke:rgb(0,0,0);stroke-width:.00002" />
    <line x1="106.81763287979746" y1="-6.6135472787847664" x2="106.81763287979746" y2="-6.6135472787847664" style="stroke:rgb(0,0,0);stroke-width:.00002" />
    <line x1="106.81763287979746" y1="-6.6135472787847664" x2="106.81733287979746" y2="-6.613597278784766" style="stroke:rgb(0,0,0);stroke-width:.00002" />
    <circle cx="106.8179" cy="-6.6133" fill="rgb(255,0,0)" r=".0001" />
    <text x="106.8179" y="-6.6133" stroke="rgb(0,0,0)" transform="translate(106.8179 -6.6133),scale(0.00001 -0.00001),translate(-106.8179 6.6133),translate(106.8125 -6.592499999999999),rotate(-30),translate(-106.8125 6.592499999999999)" >pjjindah-4</text>
    <line x1="106.8173" y1="-6.6134" x2="106.8169" y2="-6.6139" style="stroke:rgb(255,0,0);stroke-width:.00002" />
    <line x1="106.8174561737619" y1="-6.613524939009511" x2="106.8172561737619" y2="-6.61377493900951" style="stroke:rgb(0,0,0);stroke-width:.00002" />
    <line x1="106.8172561737619" y1="-6.61377493900951" x2="106.8172561737619" y2="-6.61377493900951" style="stroke:rgb(0,0,0);stroke-width:.00002" />
    <line x1="106.8172561737619" y1="-6.61377493900951" x2="106.8170561737619" y2="-6.614024939009511" style="stroke:rgb(0,0,0);stroke-width:.00002" />
    <circle cx="106.8173" cy="-6.6134" fill="rgb(255,0,0)" r=".0001" />
    <text x="106.8173" y="-6.6134" stroke="rgb(0,0,0)" transform="translate(106.8173 -6.6134),scale(0.00001 -0.00001),translate(-106.8173 6.6134),translate(106.8125 -6.592499999999999),rotate(-30),translate(-106.8125 6.592499999999999)" >pjjindah-3</text>
    <line x1="106.8169" y1="-6.6139" x2="106.8149" y2="-6.6116" style="stroke:rgb(255,0,0);stroke-width:.00002" />
    <line x1="106.81674907889557" y1="-6.614031235742986" x2="106.81574907889556" y2="-6.612881235742986" style="stroke:rgb(0,0,0);stroke-width:.00002" />
    <line x1="106.81574907889556" y1="-6.612881235742986" x2="106.81574907889556" y2="-6.612881235742986" style="stroke:rgb(0,0,0);stroke-width:.00002" />
    <line x1="106.81574907889556" y1="-6.612881235742986" x2="106.81474907889556" y2="-6.611731235742986" style="stroke:rgb(0,0,0);stroke-width:.00002" />
    <circle cx="106.8169" cy="-6.6139" fill="rgb(255,0,0)" r=".0001" />
    <text x="106.8169" y="-6.6139" stroke="rgb(0,0,0)" transform="translate(106.8169 -6.6139),scale(0.00001 -0.00001),translate(-106.8169 6.6139),translate(106.8125 -6.592499999999999),rotate(-30),translate(-106.8125 6.592499999999999)" >pjjindah-2</text>
    <line x1="106.8149" y1="-6.6116" x2="106.813" y2="-6.6125" style="stroke:rgb(255,0,0);stroke-width:.00002" />
    <line x1="106.81498561726895" y1="-6.611780747567779" x2="106.81403561726896" y2="-6.612230747567779" style="stroke:rgb(0,0,0);stroke-width:.00002" />
    <line x1="106.81403561726896" y1="-6.612230747567779" x2="106.81403561726896" y2="-6.612230747567779" style="stroke:rgb(0,0,0);stroke-width:.00002" />
    <line x1="106.81403561726896" y1="-6.612230747567779" x2="106.81308561726895" y2="-6.6126807475677785" style="stroke:rgb(0,0,0);stroke-width:.00002" />
    <circle cx="106.8149" cy="-6.6116" fill="rgb(255,0,0)" r=".0001" />
    <text x="106.8149" y="-6.6116" stroke="rgb(0,0,0)" transform="translate(106.8149 -6.6116),scale(0.00001 -0.00001),translate(-106.8149 6.6116),translate(106.8125 -6.592499999999999),rotate(-30),translate(-106.8125 6.592499999999999)" >pjjindah-1</text>
  </g>
</svg>
