<svg width="3500" height="3500" xmlns="http://www.w3.org/2000/svg" xmlns:xlink="http://www.w3.org/1999/xlink" >
  <path d="M1284.059174258587 1703.9172142034522 L1250.0856273261006 1708.5499706033816 L1247.5082593607567 1718.859442464265 L1233.2539588436475 1728.3623094755555 L1222.921520212239 1715.4467611863347 L1218.567105785553 1676.2570313442818 L1208.7012606710346 1672.028812009492 L1194.6614369940535 1634.1212880815228 L1156.330863988515 1594.193607867434 L1133.3201999964615 1550.264158428312 L1107.957304378715 1525.9245496654698 L1026.996027013496 1556.245371399392 L994.275841953538 1457.4145703428524 L985.1185523792338 1425.1536278331891 L975.3899448784153 1425.3646096825937 L976.6714331681925 1445.782989765543 L971.0560638360022 1455.0785857679575 L910.4875513521193 1448.1476295501498 L907.4492767902598 1440.61069431122 L891.380194157847 1404.6854531944946 L837.9983859341422 1361.3060184567564 L838.496096278547 1361.4682012242122 L785.3413130931841 1364.4246313854817 L782.254251225396 1293.279947510482 L671.8867922221959 1164.8697278634581 L665.6655379222087 1133.0396539233916 L657.8656111614123 1121.305949071019 L603.3650375363209 1054.9630620648645 L546.4721357650859 1058.49518199896 L390.62359365722443 993.351738307902 L357.9468147101039 949.1201808257581 L424.3450000001304 911.3188461538572 L370.8631852901334 951.4575114819527 L396.38640634272804 986.0059539997894 L548.0078642349184 1049.3825103087365 L605.5520057321928 1045.8099590247464 L663.9015832573136 1116.8381917775075 L674.9043041557456 1133.3899727820333 L680.2632077778269 1160.8079644442664 L784.7857487747945 1282.4177447972177 L788.2086869067706 1361.3030609222192 L838.4339037217359 1359.9694910835017 L838.9316140661407 1360.1316738509577 L893.8198058423552 1402.7922391132024 L910.2107232098433 1439.436997996482 L912.6024486479167 1445.3700627575565 L969.4839361642238 1451.8791065397356 L973.6185668317177 1445.0347025421588 L972.2000551214904 1422.4330826251166 L987.3714476209017 1422.104064474539 L996.9073941736184 1455.6990077178793 L1031.2706544633697 1463.1651199814182 L1041.2595624461574 1466.4947559756451 L1095.4028570569817 1513.1181485572756 L1177.4368892070443 1552.181973390763 L1114.6907584322462 1528.2284017661766 L1149.3700573740994 1561.5085359094087 L1163.709568006013 1588.8839652972702 L1199.6884991432212 1626.3620185652044 L1231.7137885035834 1622.660535078593 L1248.6909228630338 1589.775315233957 L1285.4422594691073 1666.5739135228866 Z" stroke="pink" stroke-width="0.5" fill="none" />
</svg>
