<svg width="3500" height="3500" xmlns="http://www.w3.org/2000/svg" xmlns:xlink="http://www.w3.org/1999/xlink" >
  <path d="M438.225767903333 897.9904241946239 L491.2602603110372 866.0636884248834 L652.3723043621033 712.7452086259204 L768.781299484047 685.7219566066734 L646.1199487590363 415.92163539672583 L610.4650000000333 354.2038461538558 L644.652085465296 402.4219954155187 L669.8781909957319 385.3773295166277 L688.0220695086336 389.8755622926901 L741.0841763275755 363.5910661240963 L864.3088260357246 359.2840673732094 L931.8065950500909 360.14384713738 L946.0275759457915 346.9913208910217 L1029.9909444356103 351.0666412119749 L1032.8496295122136 316.0218283028287 L1038.640275416327 315.3396426209913 L1040.2769826070112 307.8444414679818 L1098.32499999996 307.7638461538527 L1045.1630173931649 313.5932508397236 L1043.5897245838532 320.79804968673056 L1038.4303704879017 321.4058640048736 L1035.4990555646282 357.3410510957235 L948.2524240544166 353.10637141667416 L934.1234049500713 366.17384517034384 L801.4311739642466 364.483624934491 L741.8358236726874 366.56662618361804 L688.3679304915802 393.05213001503284 L670.4518090042909 388.6103627910845 L644.8601484902383 405.90202530063334 L773.0287005158942 687.8157357010166 L653.8476956379213 715.4824836817934 L493.08973968905434 868.4640038828388 L445.1200756081164 897.341715737006 L423.70884815063914 915.8320449301186 L415.5656968897148 874.673267442985 Z" stroke="darkgreen" stroke-width="0.5" fill="none" />
</svg>
