<svg width="1049.9999999998977" height="1849.9999999999961" xmlns="http://www.w3.org/2000/svg" xmlns:xlink="http://www.w3.org/1999/xlink" >
  <g transform="translate(524.9999999999488 924.9999999999981) rotate(30) scale(10000 -10000) translate(-106.8125 6.592499999999999)">
    <path d="M106.76 -6.5 L106.865 -6.5 L106.865 -6.685 L106.76 -6.685 Z" fill="none" stroke="black" stroke-width="0.0005" transform="translate(106.8125 -6.592499999999999) rotate(30) translate(-106.8125 6.592499999999999)" />
    <path d="M106.79714796019712 -6.591826111762154 L106.79670930040875 -6.581912400544987 L106.79641788760544 -6.581523850140591 L106.79315770510075 -6.582267068000443 L106.79254529112404 -6.577117556288571 L106.79355556937973 -6.5736567519067215 L106.793859 -6.568567 L106.79375443062027 -6.573689248093266 L106.79274870887596 -6.5771344437114365 L106.79331817070351 -6.581922790257997 L106.79654105619727 -6.581188074929706 L106.79700315124104 -6.581804201654709 L106.79730739362238 -6.592148442620426 L106.79401714468692 -6.5914505110280555 L106.79419999999999 -6.594193340724415 L106.79419999999999 -6.593270820393265 L106.79398797768077 -6.593694865031692 L106.79353137084996 -6.5941514718625305 L106.79306666666668 -6.5945 L106.79267198901107 -6.5945 L106.79214820323045 -6.594350346919824 L106.79173749422806 -6.596157466530366 L106.79280161867374 -6.596447682288277 L106.7938470095747 -6.593659973219049 Z" stroke="black" stroke-width="0.0001" fill="none" />
  </g>
</svg>
