<svg width="1049.9999999998977" height="1849.9999999999961" xmlns="http://www.w3.org/2000/svg" xmlns:xlink="http://www.w3.org/1999/xlink" >
  <g transform="translate(524.9999999999488 924.9999999999981) rotate(30) scale(10000 -10000) translate(-106.8125 6.592499999999999)">
    <path d="M106.76 -6.5 L106.865 -6.5 L106.865 -6.685 L106.76 -6.685 Z" fill="none" stroke="black" stroke-width="0.001" transform="translate(106.8125 -6.592499999999999) rotate(30) translate(-106.8125 6.592499999999999)" />
    <path d="M106.79470675409618 -6.591923982578767 L106.79505641700663 -6.591729725406297 L106.7950419950806 -6.591737737587432 L106.79693860457061 -6.589356885910636 L106.7967617864287 -6.585360795903554 L106.79660292683629 -6.5817705691150525 L106.79645 -6.581900000000004 L106.79621 -6.581580000000007 L106.79633577521092 -6.581747700281179 L106.79510545038272 -6.581823044060705 L106.7947154559393 -6.5819119503827235 L106.79305965859298 -6.58228941948401 L106.79274089952558 -6.579609118881387 L106.79274089952558 -6.579609118881387 L106.79244358224808 -6.5771091125771095 L106.79295901308235 -6.575343455165659 L106.79295901308235 -6.575343455165659 L106.7934561387595 -6.573640503813332 L106.79355715943335 -6.571112015770546 L106.79355715943335 -6.571112015770546 L106.793859 -6.568567 L106.79395684056665 -6.571127984229455 L106.79395684056665 -6.571127984229455 L106.79385386124052 -6.573705496186644 L106.79334298691764 -6.57545554483434 L106.79334298691764 -6.57545554483434 L106.79285041775192 -6.577142887422873 L106.79313810047442 -6.579561881118614 L106.79313810047442 -6.579561881118614 L106.79340434140703 -6.581800580515988 L106.79482154683899 -6.581477502778285 L106.79482154683899 -6.581477502778285 L106.79658211239455 -6.581076149859407 L106.79681 -6.581379999999998 L106.79681 -6.581379999999998 L106.79699804920023 -6.581630732266964 L106.79734394729148 -6.586588326828466 L106.79735570691211 -6.586988153930252 L106.79751478724476 -6.592396885240851 L106.79536699831667 -6.591941293650041 L106.79536699831667 -6.591941293650041 L106.79423428937383 -6.591701022056103 L106.79424911406313 -6.591923392395793 L106.79424911406313 -6.591923392395793 L106.79429999999999 -6.592686681448618 L106.7945 -6.59275 L106.7945 -6.5931500000000005 L106.7945 -6.59334164078651 L106.7941972135955 -6.593499999999999 L106.79401832815729 -6.593857770876399 L106.79392874176605 -6.594036943658891 L106.79378284271247 -6.594182842712469 L106.79378284271247 -6.594182842712469 L106.79366274169982 -6.594302943725148 L106.79344000000002 -6.59447 L106.79344000000002 -6.59447 L106.79313333333334 -6.5947 L106.79285 -6.5947 L106.79285 -6.5947 L106.79264397802214 -6.5947 L106.79224011154884 -6.594584609579056 L106.79224011154884 -6.594584609579056 L106.7922964064609 -6.594600693839649 L106.79214005314232 -6.595288648441437 L106.79214005314232 -6.595288648441437 L106.7919749884561 -6.59601493306072 L106.79270524696231 -6.596214094471505 L106.79270524696231 -6.596214094471505 L106.79345348957342 -6.596418160638171 L106.79171554413831 -6.5964958798009325 L106.79283913915141 -6.593499626432712 L106.7929856440953 -6.593108946582392 Z" stroke="black" stroke-width="0.0002" fill="none" />
    <circle 
      cx="106.793859" cy="-12.568567"
      r="15" transform="translate(106.793859 -6.568567) scale(0.00001 -0.00001) translate(-106.793859 6.568567) translate(106.8125 -6.592499999999999) rotate(-30) translate(-106.8125 6.592499999999999)"
      fill="white" stroke="black" stroke-width="2"/>
    <circle 
      cx="106.793859" cy="-12.568567"
      r="15" transform="translate(106.793859 -6.568567) scale(0.00001 -0.00001) translate(-106.793859 6.568567) translate(106.8125 -6.592499999999999) rotate(-30) translate(-106.8125 6.592499999999999)"
      fill="white" stroke="none"/>
    <text x="106.793859" y="-6.568567" fill="black" text-anchor="middle" transform="translate(106.793859 -6.568567) scale(0.00001 -0.00001) translate(-106.793859 6.568567) translate(106.8125 -6.592499999999999) rotate(-30) translate(-106.8125 6.592499999999999)">22</text>
    <line x1="106.7946" y1="-6.5945" x2="106.7973" y2="-6.593" style="stroke:rgb(255,0,0);stroke-width:.00002" />
    <line x1="106.7946" y1="-6.5945" x2="106.79577516854478" y2="-6.593847128586235" style="stroke:rgb(0,0,0);stroke-width:.00002" />
    <line x1="106.79577516854478" y1="-6.593847128586235" x2="106.79612483145523" y2="-6.593652871413765" style="stroke:rgb(0,0,0);stroke-width:.00002" />
    <line x1="106.79612483145523" y1="-6.593652871413765" x2="106.7973" y2="-6.593" style="stroke:rgb(0,0,0);stroke-width:.00002" />
    <circle cx="106.7946" cy="-6.5945" fill="rgb(255,0,0)" r=".0001" />
    <text x="106.7946" y="-6.5945" stroke="rgb(0,0,0)" transform="translate(106.7946 -6.5945),scale(0.00001 -0.00001),translate(-106.7946 6.5945),translate(106.8125 -6.592499999999999),rotate(-30),translate(-106.8125 6.592499999999999)" >kb-gedong-sawah</text>
    <line x1="106.7973" y1="-6.593" x2="106.7968" y2="-6.5817" style="stroke:rgb(255,0,0);stroke-width:.00002" />
    <line x1="106.7973" y1="-6.593" x2="106.79713840907097" y2="-6.589348045003541" style="stroke:rgb(0,0,0);stroke-width:.00002" />
    <line x1="106.79713840907097" y1="-6.589348045003541" x2="106.79696159092906" y2="-6.585351954996459" style="stroke:rgb(0,0,0);stroke-width:.00002" />
    <line x1="106.79696159092906" y1="-6.585351954996459" x2="106.7968" y2="-6.5817" style="stroke:rgb(0,0,0);stroke-width:.00002" />
    <circle cx="106.7973" cy="-6.593" fill="rgb(255,0,0)" r=".0001" />
    <text x="106.7973" y="-6.593" stroke="rgb(0,0,0)" transform="translate(106.7973 -6.593),scale(0.00001 -0.00001),translate(-106.7973 6.593),translate(106.8125 -6.592499999999999),rotate(-30),translate(-106.8125 6.592499999999999)" >kb-polisi-militer</text>
    <line x1="106.7968" y1="-6.5817" x2="106.7965" y2="-6.5813" style="stroke:rgb(255,0,0);stroke-width:.00002" />
    <line x1="106.7968" y1="-6.5817" x2="106.79677" y2="-6.5816599999999985" style="stroke:rgb(0,0,0);stroke-width:.00002" />
    <line x1="106.79677" y1="-6.5816599999999985" x2="106.79653" y2="-6.581340000000002" style="stroke:rgb(0,0,0);stroke-width:.00002" />
    <line x1="106.79653" y1="-6.581340000000002" x2="106.7965" y2="-6.5813" style="stroke:rgb(0,0,0);stroke-width:.00002" />
    <circle cx="106.7968" cy="-6.5817" fill="rgb(255,0,0)" r=".0001" />
    <text x="106.7968" y="-6.5817" stroke="rgb(0,0,0)" transform="translate(106.7968 -6.5817),scale(0.00001 -0.00001),translate(-106.7968 6.5817),translate(106.8125 -6.592499999999999),rotate(-30),translate(-106.8125 6.592499999999999)" >sudirman-airmancur</text>
    <line x1="106.7965" y1="-6.5813" x2="106.793232" y2="-6.582045" style="stroke:rgb(255,0,0);stroke-width:.00002" />
    <line x1="106.7965" y1="-6.5813" x2="106.79506099722171" y2="-6.581628046838991" style="stroke:rgb(0,0,0);stroke-width:.00002" />
    <line x1="106.79506099722171" y1="-6.581628046838991" x2="106.79467100277829" y2="-6.581716953161009" style="stroke:rgb(0,0,0);stroke-width:.00002" />
    <line x1="106.79467100277829" y1="-6.581716953161009" x2="106.793232" y2="-6.582045" style="stroke:rgb(0,0,0);stroke-width:.00002" />
    <circle cx="106.7965" cy="-6.5813" fill="rgb(255,0,0)" r=".0001" />
    <text x="106.7965" y="-6.5813" stroke="rgb(0,0,0)" transform="translate(106.7965 -6.5813),scale(0.00001 -0.00001),translate(-106.7965 6.5813),translate(106.8125 -6.592499999999999),rotate(-30),translate(-106.8125 6.592499999999999)" >martadinata-airmancur</text>
    <line x1="106.793232" y1="-6.582045" x2="106.792647" y2="-6.577126" style="stroke:rgb(255,0,0);stroke-width:.00002" />
    <line x1="106.793232" y1="-6.582045" x2="106.7929395" y2="-6.5795855" style="stroke:rgb(0,0,0);stroke-width:.00002" />
    <line x1="106.7929395" y1="-6.5795855" x2="106.7929395" y2="-6.5795855" style="stroke:rgb(0,0,0);stroke-width:.00002" />
    <line x1="106.7929395" y1="-6.5795855" x2="106.792647" y2="-6.577126" style="stroke:rgb(0,0,0);stroke-width:.00002" />
    <circle cx="106.793232" cy="-6.582045" fill="rgb(255,0,0)" r=".0001" />
    <text x="106.793232" y="-6.582045" stroke="rgb(0,0,0)" transform="translate(106.793232 -6.582045),scale(0.00001 -0.00001),translate(-106.793232 6.582045),translate(106.8125 -6.592499999999999),rotate(-30),translate(-106.8125 6.592499999999999)" >martadinata-bubulak</text>
    <line x1="106.792647" y1="-6.577126" x2="106.793655" y2="-6.573673" style="stroke:rgb(255,0,0);stroke-width:.00002" />
    <line x1="106.792647" y1="-6.577126" x2="106.793151" y2="-6.5753995" style="stroke:rgb(0,0,0);stroke-width:.00002" />
    <line x1="106.793151" y1="-6.5753995" x2="106.793151" y2="-6.5753995" style="stroke:rgb(0,0,0);stroke-width:.00002" />
    <line x1="106.793151" y1="-6.5753995" x2="106.793655" y2="-6.573673" style="stroke:rgb(0,0,0);stroke-width:.00002" />
    <circle cx="106.792647" cy="-6.577126" fill="rgb(255,0,0)" r=".0001" />
    <text x="106.792647" y="-6.577126" stroke="rgb(0,0,0)" transform="translate(106.792647 -6.577126),scale(0.00001 -0.00001),translate(-106.792647 6.577126),translate(106.8125 -6.592499999999999),rotate(-30),translate(-106.8125 6.592499999999999)" >jl-bubulak-1</text>
    <line x1="106.793655" y1="-6.573673" x2="106.793859" y2="-6.568567" style="stroke:rgb(255,0,0);stroke-width:.00002" />
    <line x1="106.793655" y1="-6.573673" x2="106.793757" y2="-6.5711200000000005" style="stroke:rgb(0,0,0);stroke-width:.00002" />
    <line x1="106.793757" y1="-6.5711200000000005" x2="106.793757" y2="-6.5711200000000005" style="stroke:rgb(0,0,0);stroke-width:.00002" />
    <line x1="106.793757" y1="-6.5711200000000005" x2="106.793859" y2="-6.568567" style="stroke:rgb(0,0,0);stroke-width:.00002" />
    <circle cx="106.793655" cy="-6.573673" fill="rgb(255,0,0)" r=".0001" />
    <text x="106.793655" y="-6.573673" stroke="rgb(0,0,0)" transform="translate(106.793655 -6.573673),scale(0.00001 -0.00001),translate(-106.793655 6.573673),translate(106.8125 -6.592499999999999),rotate(-30),translate(-106.8125 6.592499999999999)" >jl-bubulak-pondok-rumput</text>
    <line x1="106.793859" y1="-6.568567" x2="106.793655" y2="-6.573673" style="stroke:rgb(255,0,0);stroke-width:.00002" />
    <line x1="106.793859" y1="-6.568567" x2="106.793757" y2="-6.5711200000000005" style="stroke:rgb(0,0,0);stroke-width:.00002" />
    <line x1="106.793757" y1="-6.5711200000000005" x2="106.793757" y2="-6.5711200000000005" style="stroke:rgb(0,0,0);stroke-width:.00002" />
    <line x1="106.793757" y1="-6.5711200000000005" x2="106.793655" y2="-6.573673" style="stroke:rgb(0,0,0);stroke-width:.00002" />
    <circle cx="106.793859" cy="-6.568567" fill="rgb(255,0,0)" r=".0001" />
    <text x="106.793859" y="-6.568567" stroke="rgb(0,0,0)" transform="translate(106.793859 -6.568567),scale(0.00001 -0.00001),translate(-106.793859 6.568567),translate(106.8125 -6.592499999999999),rotate(-30),translate(-106.8125 6.592499999999999)" >pondok-rumput-end</text>
    <line x1="106.793655" y1="-6.573673" x2="106.792647" y2="-6.577126" style="stroke:rgb(255,0,0);stroke-width:.00002" />
    <line x1="106.793655" y1="-6.573673" x2="106.793151" y2="-6.5753995" style="stroke:rgb(0,0,0);stroke-width:.00002" />
    <line x1="106.793151" y1="-6.5753995" x2="106.793151" y2="-6.5753995" style="stroke:rgb(0,0,0);stroke-width:.00002" />
    <line x1="106.793151" y1="-6.5753995" x2="106.792647" y2="-6.577126" style="stroke:rgb(0,0,0);stroke-width:.00002" />
    <circle cx="106.793655" cy="-6.573673" fill="rgb(255,0,0)" r=".0001" />
    <text x="106.793655" y="-6.573673" stroke="rgb(0,0,0)" transform="translate(106.793655 -6.573673),scale(0.00001 -0.00001),translate(-106.793655 6.573673),translate(106.8125 -6.592499999999999),rotate(-30),translate(-106.8125 6.592499999999999)" >jl-bubulak-pondok-rumput</text>
    <line x1="106.792647" y1="-6.577126" x2="106.793232" y2="-6.582045" style="stroke:rgb(255,0,0);stroke-width:.00002" />
    <line x1="106.792647" y1="-6.577126" x2="106.7929395" y2="-6.5795855" style="stroke:rgb(0,0,0);stroke-width:.00002" />
    <line x1="106.7929395" y1="-6.5795855" x2="106.7929395" y2="-6.5795855" style="stroke:rgb(0,0,0);stroke-width:.00002" />
    <line x1="106.7929395" y1="-6.5795855" x2="106.793232" y2="-6.582045" style="stroke:rgb(0,0,0);stroke-width:.00002" />
    <circle cx="106.792647" cy="-6.577126" fill="rgb(255,0,0)" r=".0001" />
    <text x="106.792647" y="-6.577126" stroke="rgb(0,0,0)" transform="translate(106.792647 -6.577126),scale(0.00001 -0.00001),translate(-106.792647 6.577126),translate(106.8125 -6.592499999999999),rotate(-30),translate(-106.8125 6.592499999999999)" >jl-bubulak-1</text>
    <line x1="106.793232" y1="-6.582045" x2="106.7965" y2="-6.5813" style="stroke:rgb(255,0,0);stroke-width:.00002" />
    <line x1="106.793232" y1="-6.582045" x2="106.794866" y2="-6.5816725" style="stroke:rgb(0,0,0);stroke-width:.00002" />
    <line x1="106.794866" y1="-6.5816725" x2="106.794866" y2="-6.5816725" style="stroke:rgb(0,0,0);stroke-width:.00002" />
    <line x1="106.794866" y1="-6.5816725" x2="106.7965" y2="-6.5813" style="stroke:rgb(0,0,0);stroke-width:.00002" />
    <circle cx="106.793232" cy="-6.582045" fill="rgb(255,0,0)" r=".0001" />
    <text x="106.793232" y="-6.582045" stroke="rgb(0,0,0)" transform="translate(106.793232 -6.582045),scale(0.00001 -0.00001),translate(-106.793232 6.582045),translate(106.8125 -6.592499999999999),rotate(-30),translate(-106.8125 6.592499999999999)" >martadinata-bubulak</text>
    <line x1="106.7965" y1="-6.5813" x2="106.7968" y2="-6.5817" style="stroke:rgb(255,0,0);stroke-width:.00002" />
    <line x1="106.7965" y1="-6.5813" x2="106.79665" y2="-6.5815" style="stroke:rgb(0,0,0);stroke-width:.00002" />
    <line x1="106.79665" y1="-6.5815" x2="106.79665" y2="-6.5815" style="stroke:rgb(0,0,0);stroke-width:.00002" />
    <line x1="106.79665" y1="-6.5815" x2="106.7968" y2="-6.5817" style="stroke:rgb(0,0,0);stroke-width:.00002" />
    <circle cx="106.7965" cy="-6.5813" fill="rgb(255,0,0)" r=".0001" />
    <text x="106.7965" y="-6.5813" stroke="rgb(0,0,0)" transform="translate(106.7965 -6.5813),scale(0.00001 -0.00001),translate(-106.7965 6.5813),translate(106.8125 -6.592499999999999),rotate(-30),translate(-106.8125 6.592499999999999)" >martadinata-airmancur</text>
    <line x1="106.7968" y1="-6.5817" x2="106.7971" y2="-6.5919" style="stroke:rgb(255,0,0);stroke-width:.00002" />
    <line x1="106.7968" y1="-6.5817" x2="106.79694412018969" y2="-6.586600086449107" style="stroke:rgb(0,0,0);stroke-width:.00002" />
    <line x1="106.79694412018969" y1="-6.586600086449107" x2="106.79695587981033" y2="-6.586999913550893" style="stroke:rgb(0,0,0);stroke-width:.00002" />
    <line x1="106.79695587981033" y1="-6.586999913550893" x2="106.7971" y2="-6.5919" style="stroke:rgb(0,0,0);stroke-width:.00002" />
    <circle cx="106.7968" cy="-6.5817" fill="rgb(255,0,0)" r=".0001" />
    <text x="106.7968" y="-6.5817" stroke="rgb(0,0,0)" transform="translate(106.7968 -6.5817),scale(0.00001 -0.00001),translate(-106.7968 6.5817),translate(106.8125 -6.592499999999999),rotate(-30),translate(-106.8125 6.592499999999999)" >sudirman-airmancur</text>
    <line x1="106.7971" y1="-6.5919" x2="106.7938" y2="-6.5912" style="stroke:rgb(255,0,0);stroke-width:.00002" />
    <line x1="106.7971" y1="-6.5919" x2="106.79545" y2="-6.59155" style="stroke:rgb(0,0,0);stroke-width:.00002" />
    <line x1="106.79545" y1="-6.59155" x2="106.79545" y2="-6.59155" style="stroke:rgb(0,0,0);stroke-width:.00002" />
    <line x1="106.79545" y1="-6.59155" x2="106.7938" y2="-6.5912" style="stroke:rgb(0,0,0);stroke-width:.00002" />
    <circle cx="106.7971" cy="-6.5919" fill="rgb(255,0,0)" r=".0001" />
    <text x="106.7971" y="-6.5919" stroke="rgb(0,0,0)" transform="translate(106.7971 -6.5919),scale(0.00001 -0.00001),translate(-106.7971 6.5919),translate(106.8125 -6.592499999999999),rotate(-30),translate(-106.8125 6.592499999999999)" >sudirman-pengadilan</text>
    <line x1="106.7938" y1="-6.5912" x2="106.7939" y2="-6.5927" style="stroke:rgb(255,0,0);stroke-width:.00002" />
    <line x1="106.7938" y1="-6.5912" x2="106.79384999999999" y2="-6.59195" style="stroke:rgb(0,0,0);stroke-width:.00002" />
    <line x1="106.79384999999999" y1="-6.59195" x2="106.79384999999999" y2="-6.59195" style="stroke:rgb(0,0,0);stroke-width:.00002" />
    <line x1="106.79384999999999" y1="-6.59195" x2="106.7939" y2="-6.5927" style="stroke:rgb(0,0,0);stroke-width:.00002" />
    <circle cx="106.7938" cy="-6.5912" fill="rgb(255,0,0)" r=".0001" />
    <text x="106.7938" y="-6.5912" stroke="rgb(0,0,0)" transform="translate(106.7938 -6.5912),scale(0.00001 -0.00001),translate(-106.7938 6.5912),translate(106.8125 -6.592499999999999),rotate(-30),translate(-106.8125 6.592499999999999)" >pengadilan-gedongsawah</text>
    <line x1="106.7939" y1="-6.5927" x2="106.7939" y2="-6.5932" style="stroke:rgb(255,0,0);stroke-width:.00002" />
    <line x1="106.7939" y1="-6.5927" x2="106.7939" y2="-6.59275" style="stroke:rgb(0,0,0);stroke-width:.00002" />
    <line x1="106.7939" y1="-6.59275" x2="106.7939" y2="-6.5931500000000005" style="stroke:rgb(0,0,0);stroke-width:.00002" />
    <line x1="106.7939" y1="-6.5931500000000005" x2="106.7939" y2="-6.5932" style="stroke:rgb(0,0,0);stroke-width:.00002" />
    <circle cx="106.7939" cy="-6.5927" fill="rgb(255,0,0)" r=".0001" />
    <text x="106.7939" y="-6.5927" stroke="rgb(0,0,0)" transform="translate(106.7939 -6.5927),scale(0.00001 -0.00001),translate(-106.7939 6.5927),translate(106.8125 -6.592499999999999),rotate(-30),translate(-106.8125 6.592499999999999)" >mekah-gedongsawah</text>
    <line x1="106.7939" y1="-6.5932" x2="106.7936" y2="-6.5938" style="stroke:rgb(255,0,0);stroke-width:.00002" />
    <line x1="106.7939" y1="-6.5932" x2="106.79383944271909" y2="-6.5933211145618005" style="stroke:rgb(0,0,0);stroke-width:.00002" />
    <line x1="106.79383944271909" y1="-6.5933211145618005" x2="106.79366055728089" y2="-6.593678885438201" style="stroke:rgb(0,0,0);stroke-width:.00002" />
    <line x1="106.79366055728089" y1="-6.593678885438201" x2="106.7936" y2="-6.5938" style="stroke:rgb(0,0,0);stroke-width:.00002" />
    <circle cx="106.7939" cy="-6.5932" fill="rgb(255,0,0)" r=".0001" />
    <text x="106.7939" y="-6.5932" stroke="rgb(0,0,0)" transform="translate(106.7939 -6.5932),scale(0.00001 -0.00001),translate(-106.7939 6.5932),translate(106.8125 -6.592499999999999),rotate(-30),translate(-106.8125 6.592499999999999)" >gedongsawah-1</text>
    <line x1="106.7936" y1="-6.5938" x2="106.7934" y2="-6.594" style="stroke:rgb(255,0,0);stroke-width:.00002" />
    <line x1="106.7936" y1="-6.5938" x2="106.7935" y2="-6.5939" style="stroke:rgb(0,0,0);stroke-width:.00002" />
    <line x1="106.7935" y1="-6.5939" x2="106.7935" y2="-6.5939" style="stroke:rgb(0,0,0);stroke-width:.00002" />
    <line x1="106.7935" y1="-6.5939" x2="106.7934" y2="-6.594" style="stroke:rgb(0,0,0);stroke-width:.00002" />
    <circle cx="106.7936" cy="-6.5938" fill="rgb(255,0,0)" r=".0001" />
    <text x="106.7936" y="-6.5938" stroke="rgb(0,0,0)" transform="translate(106.7936 -6.5938),scale(0.00001 -0.00001),translate(-106.7936 6.5938),translate(106.8125 -6.592499999999999),rotate(-30),translate(-106.8125 6.592499999999999)" >gedongsawah-crossing</text>
    <line x1="106.7934" y1="-6.594" x2="106.793" y2="-6.5943" style="stroke:rgb(255,0,0);stroke-width:.00002" />
    <line x1="106.7934" y1="-6.594" x2="106.79320000000001" y2="-6.59415" style="stroke:rgb(0,0,0);stroke-width:.00002" />
    <line x1="106.79320000000001" y1="-6.59415" x2="106.79320000000001" y2="-6.59415" style="stroke:rgb(0,0,0);stroke-width:.00002" />
    <line x1="106.79320000000001" y1="-6.59415" x2="106.793" y2="-6.5943" style="stroke:rgb(0,0,0);stroke-width:.00002" />
    <circle cx="106.7934" cy="-6.594" fill="rgb(255,0,0)" r=".0001" />
    <text x="106.7934" y="-6.594" stroke="rgb(0,0,0)" transform="translate(106.7934 -6.594),scale(0.00001 -0.00001),translate(-106.7934 6.594),translate(106.8125 -6.592499999999999),rotate(-30),translate(-106.8125 6.592499999999999)" >gedongsawah-2</text>
    <line x1="106.793" y1="-6.5943" x2="106.7927" y2="-6.5943" style="stroke:rgb(255,0,0);stroke-width:.00002" />
    <line x1="106.793" y1="-6.5943" x2="106.79285" y2="-6.5943" style="stroke:rgb(0,0,0);stroke-width:.00002" />
    <line x1="106.79285" y1="-6.5943" x2="106.79285" y2="-6.5943" style="stroke:rgb(0,0,0);stroke-width:.00002" />
    <line x1="106.79285" y1="-6.5943" x2="106.7927" y2="-6.5943" style="stroke:rgb(0,0,0);stroke-width:.00002" />
    <circle cx="106.793" cy="-6.5943" fill="rgb(255,0,0)" r=".0001" />
    <text x="106.793" y="-6.5943" stroke="rgb(0,0,0)" transform="translate(106.793 -6.5943),scale(0.00001 -0.00001),translate(-106.793 6.5943),translate(106.8125 -6.592499999999999),rotate(-30),translate(-106.8125 6.592499999999999)" >gedongsawah-3</text>
    <line x1="106.7927" y1="-6.5943" x2="106.792" y2="-6.5941" style="stroke:rgb(255,0,0);stroke-width:.00002" />
    <line x1="106.7927" y1="-6.5943" x2="106.79235" y2="-6.5942" style="stroke:rgb(0,0,0);stroke-width:.00002" />
    <line x1="106.79235" y1="-6.5942" x2="106.79235" y2="-6.5942" style="stroke:rgb(0,0,0);stroke-width:.00002" />
    <line x1="106.79235" y1="-6.5942" x2="106.792" y2="-6.5941" style="stroke:rgb(0,0,0);stroke-width:.00002" />
    <circle cx="106.7927" cy="-6.5943" fill="rgb(255,0,0)" r=".0001" />
    <text x="106.7927" y="-6.5943" stroke="rgb(0,0,0)" transform="translate(106.7927 -6.5943),scale(0.00001 -0.00001),translate(-106.7927 6.5943),translate(106.8125 -6.592499999999999),rotate(-30),translate(-106.8125 6.592499999999999)" >gedongsawah-4</text>
    <line x1="106.792" y1="-6.5941" x2="106.7915" y2="-6.5963" style="stroke:rgb(255,0,0);stroke-width:.00002" />
    <line x1="106.792" y1="-6.5941" x2="106.79175000000001" y2="-6.5952" style="stroke:rgb(0,0,0);stroke-width:.00002" />
    <line x1="106.79175000000001" y1="-6.5952" x2="106.79175000000001" y2="-6.5952" style="stroke:rgb(0,0,0);stroke-width:.00002" />
    <line x1="106.79175000000001" y1="-6.5952" x2="106.7915" y2="-6.5963" style="stroke:rgb(0,0,0);stroke-width:.00002" />
    <circle cx="106.792" cy="-6.5941" fill="rgb(255,0,0)" r=".0001" />
    <text x="106.792" y="-6.5941" stroke="rgb(0,0,0)" transform="translate(106.792 -6.5941),scale(0.00001 -0.00001),translate(-106.792 6.5941),translate(106.8125 -6.592499999999999),rotate(-30),translate(-106.8125 6.592499999999999)" >gedongsawah-dewisartika</text>
    <line x1="106.7915" y1="-6.5963" x2="106.7937" y2="-6.5969" style="stroke:rgb(255,0,0);stroke-width:.00002" />
    <line x1="106.7915" y1="-6.5963" x2="106.7926" y2="-6.5966000000000005" style="stroke:rgb(0,0,0);stroke-width:.00002" />
    <line x1="106.7926" y1="-6.5966000000000005" x2="106.7926" y2="-6.5966000000000005" style="stroke:rgb(0,0,0);stroke-width:.00002" />
    <line x1="106.7926" y1="-6.5966000000000005" x2="106.7937" y2="-6.5969" style="stroke:rgb(0,0,0);stroke-width:.00002" />
    <circle cx="106.7915" cy="-6.5963" fill="rgb(255,0,0)" r=".0001" />
    <text x="106.7915" y="-6.5963" stroke="rgb(0,0,0)" transform="translate(106.7915 -6.5963),scale(0.00001 -0.00001),translate(-106.7915 6.5963),translate(106.8125 -6.592499999999999),rotate(-30),translate(-106.8125 6.592499999999999)" >muslihat-dewisartika</text>
    <line x1="106.7937" y1="-6.5969" x2="106.7946" y2="-6.5945" style="stroke:rgb(255,0,0);stroke-width:.00002" />
    <line x1="106.7937" y1="-6.5969" x2="106.79358820249345" y2="-6.59719812668411" style="stroke:rgb(0,0,0);stroke-width:.00002" />
    <line x1="106.79358820249345" y1="-6.59719812668411" x2="106.79471179750655" y2="-6.59420187331589" style="stroke:rgb(0,0,0);stroke-width:.00002" />
    <line x1="106.79471179750655" y1="-6.59420187331589" x2="106.7946" y2="-6.5945" style="stroke:rgb(0,0,0);stroke-width:.00002" />
    <circle cx="106.7937" cy="-6.5969" fill="rgb(255,0,0)" r=".0001" />
    <text x="106.7937" y="-6.5969" stroke="rgb(0,0,0)" transform="translate(106.7937 -6.5969),scale(0.00001 -0.00001),translate(-106.7937 6.5969),translate(106.8125 -6.592499999999999),rotate(-30),translate(-106.8125 6.592499999999999)" >kb-muslihat</text>
  </g>
</svg>
