<svg width="1049.9999999998977" height="1849.9999999999961" xmlns="http://www.w3.org/2000/svg" xmlns:xlink="http://www.w3.org/1999/xlink" >
  <g transform="translate(524.9999999999488 924.9999999999981) rotate(30) scale(10000 -10000) translate(-106.8125 6.592499999999999)">
    <path d="M106.76 -6.5 L106.865 -6.5 L106.865 -6.685 L106.76 -6.685 Z" fill="none" stroke="black" stroke-width="0.0005" transform="translate(106.8125 -6.592499999999999) rotate(30) translate(-106.8125 6.592499999999999)" />
    <text x="106.817698066983" y="-6.573463317388168" fill="black" transform="translate(106.817698066983 -6.573463317388168) scale(0.0001 -0.0001) rotate(-30) translate(-106.817698066983 6.573463317388168)">23</text>
    <text x="106.8178992382896" y="-6.57698381525347" fill="black" transform="translate(106.8178992382896 -6.57698381525347) scale(0.0001 -0.0001) rotate(-30) translate(-106.8178992382896 6.57698381525347)">23</text>
    <text x="106.818502983963" y="-6.579197549389337" fill="black" transform="translate(106.818502983963 -6.579197549389337) scale(0.0001 -0.0001) rotate(-30) translate(-106.818502983963 6.579197549389337)">23</text>
    <text x="106.8178790246668" y="-6.58200536622237" fill="black" transform="translate(106.8178790246668 -6.58200536622237) scale(0.0001 -0.0001) rotate(-30) translate(-106.8178790246668 6.58200536622237)">23</text>
    <text x="106.81255276541617" y="-6.581658001488634" fill="black" transform="translate(106.81255276541617 -6.581658001488634) scale(0.0001 -0.0001) rotate(-30) translate(-106.81255276541617 6.581658001488634)">23</text>
    <text x="106.81033426247855" y="-6.581153796275537" fill="black" transform="translate(106.81033426247855 -6.581153796275537) scale(0.0001 -0.0001) rotate(-30) translate(-106.81033426247855 6.581153796275537)">23</text>
    <text x="106.80698023962887" y="-6.580919794681373" fill="black" transform="translate(106.80698023962887 -6.580919794681373) scale(0.0001 -0.0001) rotate(-30) translate(-106.80698023962887 6.580919794681373)">23</text>
    <text x="106.8052578818666" y="-6.588383344984524" fill="black" transform="translate(106.8052578818666 -6.588383344984524) scale(0.0001 -0.0001) rotate(-30) translate(-106.8052578818666 6.588383344984524)">23</text>
    <text x="106.80622359726141" y="-6.588635354380383" fill="black" transform="translate(106.80622359726141 -6.588635354380383) scale(0.0001 -0.0001) rotate(-30) translate(-106.80622359726141 6.588635354380383)">23</text>
    <text x="106.80611319024452" y="-6.589981427808666" fill="black" transform="translate(106.80611319024452 -6.589981427808666) scale(0.0001 -0.0001) rotate(-30) translate(-106.80611319024452 6.589981427808666)">23</text>
    <text x="106.80609883203857" y="-6.592568776518703" fill="black" transform="translate(106.80609883203857 -6.592568776518703) scale(0.0001 -0.0001) rotate(-30) translate(-106.80609883203857 6.592568776518703)">23</text>
    <text x="106.80507964520125" y="-6.59259006743356" fill="black" transform="translate(106.80507964520125 -6.59259006743356) scale(0.0001 -0.0001) rotate(-30) translate(-106.80507964520125 6.59259006743356)">23</text>
    <text x="106.80503002012554" y="-6.593508131334063" fill="black" transform="translate(106.80503002012554 -6.593508131334063) scale(0.0001 -0.0001) rotate(-30) translate(-106.80503002012554 6.593508131334063)">23</text>
    <text x="106.80620730280958" y="-6.600866148109309" fill="black" transform="translate(106.80620730280958 -6.600866148109309) scale(0.0001 -0.0001) rotate(-30) translate(-106.80620730280958 6.600866148109309)">23</text>
    <text x="106.80534389569988" y="-6.602074918062883" fill="black" transform="translate(106.80534389569988 -6.602074918062883) scale(0.0001 -0.0001) rotate(-30) translate(-106.80534389569988 6.602074918062883)">23</text>
    <text x="106.79980464778708" y="-6.603269657808781" fill="black" transform="translate(106.79980464778708 -6.603269657808781) scale(0.0001 -0.0001) rotate(-30) translate(-106.79980464778708 6.603269657808781)">23</text>
    <text x="106.79655996785331" y="-6.604947940533145" fill="black" transform="translate(106.79655996785331 -6.604947940533145) scale(0.0001 -0.0001) rotate(-30) translate(-106.79655996785331 6.604947940533145)">23</text>
    <text x="106.79524041114279" y="-6.604068236059476" fill="black" transform="translate(106.79524041114279 -6.604068236059476) scale(0.0001 -0.0001) rotate(-30) translate(-106.79524041114279 6.604068236059476)">23</text>
    <text x="106.79264032684561" y="-6.596592993705063" fill="black" transform="translate(106.79264032684561 -6.596592993705063) scale(0.0001 -0.0001) rotate(-30) translate(-106.79264032684561 6.596592993705063)">23</text>
    <text x="106.79376629177946" y="-6.59359042054817" fill="black" transform="translate(106.79376629177946 -6.59359042054817) scale(0.0001 -0.0001) rotate(-30) translate(-106.79376629177946 6.59359042054817)">23</text>
    <text x="106.79702845095902" y="-6.591778109892857" fill="black" transform="translate(106.79702845095902 -6.591778109892857) scale(0.0001 -0.0001) rotate(-30) translate(-106.79702845095902 6.591778109892857)">23</text>
    <text x="106.79837376751641" y="-6.592389617418948" fill="black" transform="translate(106.79837376751641 -6.592389617418948) scale(0.0001 -0.0001) rotate(-30) translate(-106.79837376751641 6.592389617418948)">23</text>
    <text x="106.80076655115877" y="-6.591162498053061" fill="black" transform="translate(106.80076655115877 -6.591162498053061) scale(0.0001 -0.0001) rotate(-30) translate(-106.80076655115877 6.591162498053061)">23</text>
    <text x="106.8020074339167" y="-6.591669108453221" fill="black" transform="translate(106.8020074339167 -6.591669108453221) scale(0.0001 -0.0001) rotate(-30) translate(-106.8020074339167 6.591669108453221)">23</text>
    <text x="106.80190966997937" y="-6.59190233614683" fill="black" transform="translate(106.80190966997937 -6.59190233614683) scale(0.0001 -0.0001) rotate(-30) translate(-106.80190966997937 6.59190233614683)">23</text>
    <text x="106.80187085913553" y="-6.591229013134982" fill="black" transform="translate(106.80187085913553 -6.591229013134982) scale(0.0001 -0.0001) rotate(-30) translate(-106.80187085913553 6.591229013134982)">23</text>
    <text x="106.80143682629311" y="-6.58992589094535" fill="black" transform="translate(106.80143682629311 -6.58992589094535) scale(0.0001 -0.0001) rotate(-30) translate(-106.80143682629311 6.58992589094535)">23</text>
    <text x="106.80160679357756" y="-6.589248214933798" fill="black" transform="translate(106.80160679357756 -6.589248214933798) scale(0.0001 -0.0001) rotate(-30) translate(-106.80160679357756 6.589248214933798)">23</text>
    <text x="106.80041315288335" y="-6.588054574239598" fill="black" transform="translate(106.80041315288335 -6.588054574239598) scale(0.0001 -0.0001) rotate(-30) translate(-106.80041315288335 6.588054574239598)">23</text>
    <text x="106.79969633315966" y="-6.586006517886176" fill="black" transform="translate(106.79969633315966 -6.586006517886176) scale(0.0001 -0.0001) rotate(-30) translate(-106.79969633315966 6.586006517886176)">23</text>
    <text x="106.80030399886382" y="-6.583170744600062" fill="black" transform="translate(106.80030399886382 -6.583170744600062) scale(0.0001 -0.0001) rotate(-30) translate(-106.80030399886382 6.583170744600062)">23</text>
    <text x="106.80093229670385" y="-6.5816" fill="black" transform="translate(106.80093229670385 -6.5816) scale(0.0001 -0.0001) rotate(-30) translate(-106.80093229670385 6.5816)">23</text>
    <text x="106.80171107504253" y="-6.5816" fill="black" transform="translate(106.80171107504253 -6.5816) scale(0.0001 -0.0001) rotate(-30) translate(-106.80171107504253 6.5816)">23</text>
    <text x="106.802306083775" y="-6.576542425774164" fill="black" transform="translate(106.802306083775 -6.576542425774164) scale(0.0001 -0.0001) rotate(-30) translate(-106.802306083775 6.576542425774164)">23</text>
    <text x="106.80441236234398" y="-6.5751382400615" fill="black" transform="translate(106.80441236234398 -6.5751382400615) scale(0.0001 -0.0001) rotate(-30) translate(-106.80441236234398 6.5751382400615)">23</text>
    <text x="106.80461208739746" y="-6.574339339847628" fill="black" transform="translate(106.80461208739746 -6.574339339847628) scale(0.0001 -0.0001) rotate(-30) translate(-106.80461208739746 6.574339339847628)">23</text>
    <text x="106.80692385020791" y="-6.572731157022972" fill="black" transform="translate(106.80692385020791 -6.572731157022972) scale(0.0001 -0.0001) rotate(-30) translate(-106.80692385020791 6.572731157022972)">23</text>
    <text x="106.80830756687932" y="-6.570240467014407" fill="black" transform="translate(106.80830756687932 -6.570240467014407) scale(0.0001 -0.0001) rotate(-30) translate(-106.80830756687932 6.570240467014407)">23</text>
    <text x="106.80745781329802" y="-6.5704104177306695" fill="black" transform="translate(106.80745781329802 -6.5704104177306695) scale(0.0001 -0.0001) rotate(-30) translate(-106.80745781329802 6.5704104177306695)">23</text>
    <text x="106.80679317337611" y="-6.569524231168139" fill="black" transform="translate(106.80679317337611 -6.569524231168139) scale(0.0001 -0.0001) rotate(-30) translate(-106.80679317337611 6.569524231168139)">23</text>
    <text x="106.80689611197444" y="-6.569009538176465" fill="black" transform="translate(106.80689611197444 -6.569009538176465) scale(0.0001 -0.0001) rotate(-30) translate(-106.80689611197444 6.569009538176465)">23</text>
    <text x="106.80666101089405" y="-6.568421785475487" fill="black" transform="translate(106.80666101089405 -6.568421785475487) scale(0.0001 -0.0001) rotate(-30) translate(-106.80666101089405 6.568421785475487)">23</text>
    <text x="106.80740619852737" y="-6.568297587536599" fill="black" transform="translate(106.80740619852737 -6.568297587536599) scale(0.0001 -0.0001) rotate(-30) translate(-106.80740619852737 6.568297587536599)">23</text>
    <text x="106.80912606087456" y="-6.568803429403418" fill="black" transform="translate(106.80912606087456 -6.568803429403418) scale(0.0001 -0.0001) rotate(-30) translate(-106.80912606087456 6.568803429403418)">23</text>
    <text x="106.81525773137841" y="-6.570311217232233" fill="black" transform="translate(106.81525773137841 -6.570311217232233) scale(0.0001 -0.0001) rotate(-30) translate(-106.81525773137841 6.570311217232233)">23</text>
    <path d="M106.817698066983 -6.573463317388168 L106.8178992382896 -6.57698381525347 L106.818502983963 -6.579197549389337 L106.8178790246668 -6.58200536622237 L106.81255276541617 -6.581658001488634 L106.81033426247855 -6.581153796275537 L106.80698023962887 -6.580919794681373 L106.8052578818666 -6.588383344984524 L106.80622359726141 -6.588635354380383 L106.80611319024452 -6.589981427808666 L106.80609883203857 -6.592568776518703 L106.80507964520125 -6.59259006743356 L106.80503002012554 -6.593508131334063 L106.80620730280958 -6.600866148109309 L106.80534389569988 -6.602074918062883 L106.79980464778708 -6.603269657808781 L106.79655996785331 -6.604947940533145 L106.79524041114279 -6.604068236059476 L106.79264032684561 -6.596592993705063 L106.79376629177946 -6.59359042054817 L106.79702845095902 -6.591778109892857 L106.79837376751641 -6.592389617418948 L106.80076655115877 -6.591162498053061 L106.8020074339167 -6.591669108453221 L106.80190966997937 -6.59190233614683 L106.80187085913553 -6.591229013134982 L106.80143682629311 -6.58992589094535 L106.80160679357756 -6.589248214933798 L106.80041315288335 -6.588054574239598 L106.79969633315966 -6.586006517886176 L106.80030399886382 -6.583170744600062 L106.80093229670385 -6.5816 L106.80171107504253 -6.5816 L106.802306083775 -6.576542425774164 L106.80441236234398 -6.5751382400615 L106.80461208739746 -6.574339339847628 L106.80692385020791 -6.572731157022972 L106.80830756687932 -6.570240467014407 L106.80745781329802 -6.5704104177306695 L106.80679317337611 -6.569524231168139 L106.80689611197444 -6.569009538176465 L106.80666101089405 -6.568421785475487 L106.80740619852737 -6.568297587536599 L106.80912606087456 -6.568803429403418 L106.81525773137841 -6.570311217232233 Z" stroke="black" stroke-width="0.0001" fill="none" />
  </g>
</svg>
