<svg width="1049.9999999998977" height="1849.9999999999961" xmlns="http://www.w3.org/2000/svg" xmlns:xlink="http://www.w3.org/1999/xlink" >
  <g transform="translate(524.9999999999488 924.9999999999981) rotate(30) scale(10000 -10000) translate(-106.8125 6.592499999999999)">
    <path d="M106.76 -6.5 L106.865 -6.5 L106.865 -6.685 L106.76 -6.685 Z" fill="none" stroke="black" stroke-width="0.0005" transform="translate(106.8125 -6.592499999999999) rotate(30) translate(-106.8125 6.592499999999999)" />
    <text x="106.79714796019712" y="-6.591826111762154" fill="black" transform="translate(106.79714796019712 -6.591826111762154) scale(0.0001 -0.0001) rotate(-30) translate(-106.79714796019712 6.591826111762154)">22</text>
    <text x="106.79670930040875" y="-6.581912400544987" fill="black" transform="translate(106.79670930040875 -6.581912400544987) scale(0.0001 -0.0001) rotate(-30) translate(-106.79670930040875 6.581912400544987)">22</text>
    <text x="106.79641788760544" y="-6.581523850140591" fill="black" transform="translate(106.79641788760544 -6.581523850140591) scale(0.0001 -0.0001) rotate(-30) translate(-106.79641788760544 6.581523850140591)">22</text>
    <text x="106.79315770510075" y="-6.582267068000443" fill="black" transform="translate(106.79315770510075 -6.582267068000443) scale(0.0001 -0.0001) rotate(-30) translate(-106.79315770510075 6.582267068000443)">22</text>
    <text x="106.79254529112404" y="-6.577117556288571" fill="black" transform="translate(106.79254529112404 -6.577117556288571) scale(0.0001 -0.0001) rotate(-30) translate(-106.79254529112404 6.577117556288571)">22</text>
    <text x="106.79355556937973" y="-6.5736567519067215" fill="black" transform="translate(106.79355556937973 -6.5736567519067215) scale(0.0001 -0.0001) rotate(-30) translate(-106.79355556937973 6.5736567519067215)">22</text>
    <text x="106.793859" y="-6.568567" fill="black" transform="translate(106.793859 -6.568567) scale(0.0001 -0.0001) rotate(-30) translate(-106.793859 6.568567)">22</text>
    <text x="106.79375443062027" y="-6.573689248093266" fill="black" transform="translate(106.79375443062027 -6.573689248093266) scale(0.0001 -0.0001) rotate(-30) translate(-106.79375443062027 6.573689248093266)">22</text>
    <text x="106.79274870887596" y="-6.5771344437114365" fill="black" transform="translate(106.79274870887596 -6.5771344437114365) scale(0.0001 -0.0001) rotate(-30) translate(-106.79274870887596 6.5771344437114365)">22</text>
    <text x="106.79331817070351" y="-6.581922790257997" fill="black" transform="translate(106.79331817070351 -6.581922790257997) scale(0.0001 -0.0001) rotate(-30) translate(-106.79331817070351 6.581922790257997)">22</text>
    <text x="106.79654105619727" y="-6.581188074929706" fill="black" transform="translate(106.79654105619727 -6.581188074929706) scale(0.0001 -0.0001) rotate(-30) translate(-106.79654105619727 6.581188074929706)">22</text>
    <text x="106.79700315124104" y="-6.581804201654709" fill="black" transform="translate(106.79700315124104 -6.581804201654709) scale(0.0001 -0.0001) rotate(-30) translate(-106.79700315124104 6.581804201654709)">22</text>
    <text x="106.79730739362238" y="-6.592148442620426" fill="black" transform="translate(106.79730739362238 -6.592148442620426) scale(0.0001 -0.0001) rotate(-30) translate(-106.79730739362238 6.592148442620426)">22</text>
    <text x="106.79401714468692" y="-6.5914505110280555" fill="black" transform="translate(106.79401714468692 -6.5914505110280555) scale(0.0001 -0.0001) rotate(-30) translate(-106.79401714468692 6.5914505110280555)">22</text>
    <text x="106.79419999999999" y="-6.594193340724415" fill="black" transform="translate(106.79419999999999 -6.594193340724415) scale(0.0001 -0.0001) rotate(-30) translate(-106.79419999999999 6.594193340724415)">22</text>
    <text x="106.79419999999999" y="-6.593270820393265" fill="black" transform="translate(106.79419999999999 -6.593270820393265) scale(0.0001 -0.0001) rotate(-30) translate(-106.79419999999999 6.593270820393265)">22</text>
    <text x="106.79398797768077" y="-6.593694865031692" fill="black" transform="translate(106.79398797768077 -6.593694865031692) scale(0.0001 -0.0001) rotate(-30) translate(-106.79398797768077 6.593694865031692)">22</text>
    <text x="106.79353137084996" y="-6.5941514718625305" fill="black" transform="translate(106.79353137084996 -6.5941514718625305) scale(0.0001 -0.0001) rotate(-30) translate(-106.79353137084996 6.5941514718625305)">22</text>
    <text x="106.79306666666668" y="-6.5945" fill="black" transform="translate(106.79306666666668 -6.5945) scale(0.0001 -0.0001) rotate(-30) translate(-106.79306666666668 6.5945)">22</text>
    <text x="106.79267198901107" y="-6.5945" fill="black" transform="translate(106.79267198901107 -6.5945) scale(0.0001 -0.0001) rotate(-30) translate(-106.79267198901107 6.5945)">22</text>
    <text x="106.79214820323045" y="-6.594350346919824" fill="black" transform="translate(106.79214820323045 -6.594350346919824) scale(0.0001 -0.0001) rotate(-30) translate(-106.79214820323045 6.594350346919824)">22</text>
    <text x="106.79173749422806" y="-6.596157466530366" fill="black" transform="translate(106.79173749422806 -6.596157466530366) scale(0.0001 -0.0001) rotate(-30) translate(-106.79173749422806 6.596157466530366)">22</text>
    <text x="106.79280161867374" y="-6.596447682288277" fill="black" transform="translate(106.79280161867374 -6.596447682288277) scale(0.0001 -0.0001) rotate(-30) translate(-106.79280161867374 6.596447682288277)">22</text>
    <text x="106.7938470095747" y="-6.593659973219049" fill="black" transform="translate(106.7938470095747 -6.593659973219049) scale(0.0001 -0.0001) rotate(-30) translate(-106.7938470095747 6.593659973219049)">22</text>
    <path d="M106.79714796019712 -6.591826111762154 L106.79670930040875 -6.581912400544987 L106.79641788760544 -6.581523850140591 L106.79315770510075 -6.582267068000443 L106.79254529112404 -6.577117556288571 L106.79355556937973 -6.5736567519067215 L106.793859 -6.568567 L106.79375443062027 -6.573689248093266 L106.79274870887596 -6.5771344437114365 L106.79331817070351 -6.581922790257997 L106.79654105619727 -6.581188074929706 L106.79700315124104 -6.581804201654709 L106.79730739362238 -6.592148442620426 L106.79401714468692 -6.5914505110280555 L106.79419999999999 -6.594193340724415 L106.79419999999999 -6.593270820393265 L106.79398797768077 -6.593694865031692 L106.79353137084996 -6.5941514718625305 L106.79306666666668 -6.5945 L106.79267198901107 -6.5945 L106.79214820323045 -6.594350346919824 L106.79173749422806 -6.596157466530366 L106.79280161867374 -6.596447682288277 L106.7938470095747 -6.593659973219049 Z" stroke="black" stroke-width="0.0001" fill="none" />
  </g>
</svg>
