<svg width="2000" height="3000" xmlns="http://www.w3.org/2000/svg" xmlns:xlink="http://www.w3.org/1999/xlink" >
  <g transform="rotate(30) translate(1000 0)">    <path d="M694.6222568143412 1175.7592522437574 L704.2232581128616 1167.8650956205013 L729.6615333156353 1216.4838109490136 L819.0607109369097 1157.8361931973675 L736.0563439552692 1222.9116169111085 L773.6462666370159 1266.937168378712 L821.7704157673467 1338.3714522442333 L844.7888774862378 1391.1785114818006 L875.3747842767723 1471.2416204334163 L879.6988437049436 1479.8897392896522 L921.5378552756448 1514.2574987941778 L978.7673249600459 1577.5111231823487 L1011.7831701627722 1649.5456945333895 L1038.5188049732365 1682.2225815239108 L1155.4279071513206 1760.1619829760157 L1262.1609994354799 1857.87537732077 L1280.2323529417947 1886.4883537057372 L1299.8038169016722 1912.0818065763065 L1329.281603222796 1980.3461538461593 L1323.0051100343585 1980.3461538461593 L1294.1970102681921 1912.116443873177 L1271.7145306154976 1883.6386363132758 L1261.270021825922 1861.2575460499188 L1158.0733305540036 1768.530084327335 L1074.1571412429353 1711.586955866293 L1036.5394550979802 1686.006929287642 L1013.7536983185669 1663.221172508242 L979.217665922647 1589.644407838353 L931.4264596608979 1529.905400011406 L863.2509255114229 1473.8499608217332 L866.4063901176178 1464.3835670029223 L841.09541692996 1398.8728128703217 L835.1227090731328 1382.4478662641 L808.2151147022643 1330.1275438763846 L767.8074383873223 1273.2574809144332 L715.514986362038 1209.544838216727 L703.4310502692165 1182.8408312956503 Z" stroke="black" stroke-width="0.5" fill="none" />
  </g>
</svg>
