<svg width="1049.9999999998977" height="1849.9999999999961" xmlns="http://www.w3.org/2000/svg" xmlns:xlink="http://www.w3.org/1999/xlink" >
  <g transform="translate(524.9999999999488 924.9999999999981) rotate(30) scale(10000 -10000) translate(-106.8125 6.592499999999999)">
    <path d="M106.76 -6.5 L106.865 -6.5 L106.865 -6.685 L106.76 -6.685 Z" fill="none" stroke="black" stroke-width="0.001" transform="translate(106.8125 -6.592499999999999) rotate(30) translate(-106.8125 6.592499999999999)" />
    <path d="M106.79511318651828 -6.588996677372213 L106.79481364418876 -6.591044548431744 L106.79360001786208 -6.59101829694714 L106.79367224038897 -6.590617702664584 L106.79668420562521 -6.59055985442061 L106.79640024106718 -6.581713928187836 L106.79608123978502 -6.573225852670997 L106.79852293811336 -6.569733232816908 L106.79865265690867 -6.569047432674363 L106.80150646292921 -6.565121588218258 L106.80155856288991 -6.562379827786846 L106.79708637688712 -6.56330187107384 L106.78721640272053 -6.560154030369197 L106.78815135210607 -6.558179521876655 L106.78798742363347 -6.553690251777957 L106.78741473047498 -6.548777355546006 L106.78624816571168 -6.546969456600052 L106.7856018779648 -6.547102241241465 L106.78381597789748 -6.543102406884758 L106.78337447135817 -6.542014816422633 L106.78254926044241 -6.541482690492066 L106.78230496808743 -6.537885589078822 L106.782624112315 -6.535794302370139 L106.78207001838454 -6.533975114795022 L106.78912654600667 -6.534065000131135 L106.79007767679275 -6.533185329964955 L106.7955657925914 -6.5334517060077495 L106.79575395060164 -6.5311450642865285 L106.79616103672218 -6.531097106195615 L106.79627226434759 -6.530587746041883 L106.800305 -6.530774 L106.79692373565243 -6.531354253958117 L106.79682096327782 -6.531824893804385 L106.79649804939838 -6.53186293571347 L106.79630020740859 -6.53428829399225 L106.79037432320725 -6.534000670035044 L106.7894305096176 -6.5348735727624 L106.78284342394501 -6.534592150697578 L106.7830303805054 -6.535783573868735 L106.78270703191257 -6.537902410921139 L106.78293473955759 -6.541255309507934 L106.78369752864182 -6.54174718357737 L106.78418402210258 -6.542945593115357 L106.7858361220352 -6.546645758758533 L106.78643583428833 -6.546522543399949 L106.78780126952503 -6.548638644453997 L106.7883865763665 -6.553659748221905 L106.78855417040954 -6.5582494019544395 L106.78801174687933 -6.559769244147349 L106.79712561910573 -6.562476954443681 L106.80184288658413 -6.56150438201295 L106.802644 -6.561578 L106.80236314707248 -6.562146185442834 L106.80230153707079 -6.565388411781727 L106.79940534309135 -6.569372567325618 L106.79927706188664 -6.5700507671830914 L106.79689076021498 -6.5734641473290125 L106.79719981959707 -6.581687685983266 L106.7973770273818 -6.5890656843503095 Z" stroke="black" stroke-width="0.0002" fill="none" />
    <circle 
      cx="106.78721640272053" cy="-12.560154030369198"
      r="15" transform="translate(106.78721640272053 -6.560154030369197) scale(0.00001 -0.00001) translate(-106.78721640272053 6.560154030369197) translate(106.8125 -6.592499999999999) rotate(-30) translate(-106.8125 6.592499999999999)"
      fill="white" stroke="black" stroke-width="2"/>
    <circle 
      cx="106.78207001838454" cy="-12.533975114795023"
      r="15" transform="translate(106.78207001838454 -6.533975114795022) scale(0.00001 -0.00001) translate(-106.78207001838454 6.533975114795022) translate(106.8125 -6.592499999999999) rotate(-30) translate(-106.8125 6.592499999999999)"
      fill="white" stroke="black" stroke-width="2"/>
    <circle 
      cx="106.78284342394501" cy="-12.534592150697577"
      r="15" transform="translate(106.78284342394501 -6.534592150697578) scale(0.00001 -0.00001) translate(-106.78284342394501 6.534592150697578) translate(106.8125 -6.592499999999999) rotate(-30) translate(-106.8125 6.592499999999999)"
      fill="white" stroke="black" stroke-width="2"/>
    <circle 
      cx="106.78801174687933" cy="-12.559769244147349"
      r="15" transform="translate(106.78801174687933 -6.559769244147349) scale(0.00001 -0.00001) translate(-106.78801174687933 6.559769244147349) translate(106.8125 -6.592499999999999) rotate(-30) translate(-106.8125 6.592499999999999)"
      fill="white" stroke="black" stroke-width="2"/>
    <circle 
      cx="106.78721640272053" cy="-12.560154030369198"
      r="15" transform="translate(106.78721640272053 -6.560154030369197) scale(0.00001 -0.00001) translate(-106.78721640272053 6.560154030369197) translate(106.8125 -6.592499999999999) rotate(-30) translate(-106.8125 6.592499999999999)"
      fill="white" stroke="none"/>
    <circle 
      cx="106.78207001838454" cy="-12.533975114795023"
      r="15" transform="translate(106.78207001838454 -6.533975114795022) scale(0.00001 -0.00001) translate(-106.78207001838454 6.533975114795022) translate(106.8125 -6.592499999999999) rotate(-30) translate(-106.8125 6.592499999999999)"
      fill="white" stroke="none"/>
    <circle 
      cx="106.78284342394501" cy="-12.534592150697577"
      r="15" transform="translate(106.78284342394501 -6.534592150697578) scale(0.00001 -0.00001) translate(-106.78284342394501 6.534592150697578) translate(106.8125 -6.592499999999999) rotate(-30) translate(-106.8125 6.592499999999999)"
      fill="white" stroke="none"/>
    <circle 
      cx="106.78801174687933" cy="-12.559769244147349"
      r="15" transform="translate(106.78801174687933 -6.559769244147349) scale(0.00001 -0.00001) translate(-106.78801174687933 6.559769244147349) translate(106.8125 -6.592499999999999) rotate(-30) translate(-106.8125 6.592499999999999)"
      fill="white" stroke="none"/>
    <text x="106.78721640272053" y="-6.560154030369197" fill="black" text-anchor="middle" transform="translate(106.78721640272053 -6.560154030369197) scale(0.00001 -0.00001) translate(-106.78721640272053 6.560154030369197) translate(106.8125 -6.592499999999999) rotate(-30) translate(-106.8125 6.592499999999999)">20</text>
    <text x="106.78207001838454" y="-6.533975114795022" fill="black" text-anchor="middle" transform="translate(106.78207001838454 -6.533975114795022) scale(0.00001 -0.00001) translate(-106.78207001838454 6.533975114795022) translate(106.8125 -6.592499999999999) rotate(-30) translate(-106.8125 6.592499999999999)">20</text>
    <text x="106.78284342394501" y="-6.534592150697578" fill="black" text-anchor="middle" transform="translate(106.78284342394501 -6.534592150697578) scale(0.00001 -0.00001) translate(-106.78284342394501 6.534592150697578) translate(106.8125 -6.592499999999999) rotate(-30) translate(-106.8125 6.592499999999999)">20</text>
    <text x="106.78801174687933" y="-6.559769244147349" fill="black" text-anchor="middle" transform="translate(106.78801174687933 -6.559769244147349) scale(0.00001 -0.00001) translate(-106.78801174687933 6.559769244147349) translate(106.8125 -6.592499999999999) rotate(-30) translate(-106.8125 6.592499999999999)">20</text>
    <line x1="106.796967" y1="-6.588653" x2="106.794769" y2="-6.588586" style="stroke:rgb(255,0,0);stroke-width:.00002" />
    <line x1="106.79695481275805" y1="-6.589052814295809" x2="106.79475681275805" y2="-6.5889858142958095" style="stroke:rgb(0,0,0);stroke-width:.00002" />
    <circle cx="106.796967" cy="-6.588653" fill="rgb(255,0,0)" r=".0001" />
    <text x="106.796967" y="-6.588653" stroke="rgb(0,0,0)" transform="translate(106.796967 -6.588653),scale(0.00001 -0.00001),translate(-106.796967 6.588653),translate(106.8125 -6.592499999999999),rotate(-30),translate(-106.8125 6.592499999999999)" >sudirman-sawojajar</text>
    <line x1="106.794769" y1="-6.588586" x2="106.794469" y2="-6.590637" style="stroke:rgb(255,0,0);stroke-width:.00002" />
    <line x1="106.79516478847073" y1="-6.588643892023996" x2="106.79486478847073" y2="-6.590694892023996" style="stroke:rgb(0,0,0);stroke-width:.00002" />
    <circle cx="106.794769" cy="-6.588586" fill="rgb(255,0,0)" r=".0001" />
    <text x="106.794769" y="-6.588586" stroke="rgb(0,0,0)" transform="translate(106.794769 -6.588586),scale(0.00001 -0.00001),translate(-106.794769 6.588586),translate(106.8125 -6.592499999999999),rotate(-30),translate(-106.8125 6.592499999999999)" >sawojajar-cibalok</text>
    <line x1="106.794469" y1="-6.590637" x2="106.793267" y2="-6.590611" style="stroke:rgb(255,0,0);stroke-width:.00002" />
    <line x1="106.79446034977717" y1="-6.591036906456118" x2="106.79325834977716" y2="-6.591010906456118" style="stroke:rgb(0,0,0);stroke-width:.00002" />
    <circle cx="106.794469" cy="-6.590637" fill="rgb(255,0,0)" r=".0001" />
    <text x="106.794469" y="-6.590637" stroke="rgb(0,0,0)" transform="translate(106.794469 -6.590637),scale(0.00001 -0.00001),translate(-106.794469 6.590637),translate(106.8125 -6.592499999999999),rotate(-30),translate(-106.8125 6.592499999999999)" >cibalok-pabaton</text>
    <line x1="106.793267" y1="-6.590611" x2="106.793192" y2="-6.591027" style="stroke:rgb(255,0,0);stroke-width:.00002" />
    <line x1="106.79366065351599" y1="-6.590681971186772" x2="106.79358565351599" y2="-6.591097971186772" style="stroke:rgb(0,0,0);stroke-width:.00002" />
    <circle cx="106.793267" cy="-6.590611" fill="rgb(255,0,0)" r=".0001" />
    <text x="106.793267" y="-6.590611" stroke="rgb(0,0,0)" transform="translate(106.793267 -6.590611),scale(0.00001 -0.00001),translate(-106.793267 6.590611),translate(106.8125 -6.592499999999999),rotate(-30),translate(-106.8125 6.592499999999999)" >pabaton-turnsouth</text>
    <line x1="106.793192" y1="-6.591027" x2="106.797097" y2="-6.590952" style="stroke:rgb(255,0,0);stroke-width:.00002" />
    <line x1="106.79318431895817" y1="-6.5906270737548045" x2="106.79708931895816" y2="-6.590552073754804" style="stroke:rgb(0,0,0);stroke-width:.00002" />
    <circle cx="106.793192" cy="-6.591027" fill="rgb(255,0,0)" r=".0001" />
    <text x="106.793192" y="-6.591027" stroke="rgb(0,0,0)" transform="translate(106.793192 -6.591027),scale(0.00001 -0.00001),translate(-106.793192 6.591027),translate(106.8125 -6.592499999999999),rotate(-30),translate(-106.8125 6.592499999999999)" >pabaton-ggbaru</text>
    <line x1="106.797097" y1="-6.590952" x2="106.7968" y2="-6.5817" style="stroke:rgb(255,0,0);stroke-width:.00002" />
    <line x1="106.79669720593783" y1="-6.59096483385608" x2="106.79640020593784" y2="-6.58171283385608" style="stroke:rgb(0,0,0);stroke-width:.00002" />
    <circle cx="106.797097" cy="-6.590952" fill="rgb(255,0,0)" r=".0001" />
    <text x="106.797097" y="-6.590952" stroke="rgb(0,0,0)" transform="translate(106.797097 -6.590952),scale(0.00001 -0.00001),translate(-106.797097 6.590952),translate(106.8125 -6.592499999999999),rotate(-30),translate(-106.8125 6.592499999999999)" >ggbaru-sudirman</text>
    <line x1="106.7968" y1="-6.5817" x2="106.796486" y2="-6.573345" style="stroke:rgb(255,0,0);stroke-width:.00002" />
    <line x1="106.79640028218675" y1="-6.581715022309199" x2="106.79608628218675" y2="-6.573360022309199" style="stroke:rgb(0,0,0);stroke-width:.00002" />
    <circle cx="106.7968" cy="-6.5817" fill="rgb(255,0,0)" r=".0001" />
    <text x="106.7968" y="-6.5817" stroke="rgb(0,0,0)" transform="translate(106.7968 -6.5817),scale(0.00001 -0.00001),translate(-106.7968 6.5817),translate(106.8125 -6.592499999999999),rotate(-30),translate(-106.8125 6.592499999999999)" >sudirman-airmancur</text>
    <line x1="106.796486" y1="-6.573345" x2="106.7989" y2="-6.569892" style="stroke:rgb(255,0,0);stroke-width:.00002" />
    <line x1="106.79615816902167" y1="-6.573115812632005" x2="106.79857216902167" y2="-6.569662812632005" style="stroke:rgb(0,0,0);stroke-width:.00002" />
    <circle cx="106.796486" cy="-6.573345" fill="rgb(255,0,0)" r=".0001" />
    <text x="106.796486" y="-6.573345" stroke="rgb(0,0,0)" transform="translate(106.796486 -6.573345),scale(0.00001 -0.00001),translate(-106.796486 6.573345),translate(106.8125 -6.592499999999999),rotate(-30),translate(-106.8125 6.592499999999999)" >pemuda-hewan</text>
    <line x1="106.7989" y1="-6.569892" x2="106.799029" y2="-6.56921" style="stroke:rgb(255,0,0);stroke-width:.00002" />
    <line x1="106.79850696905713" y1="-6.5698176583700425" x2="106.79863596905713" y2="-6.569135658370042" style="stroke:rgb(0,0,0);stroke-width:.00002" />
    <circle cx="106.7989" cy="-6.569892" fill="rgb(255,0,0)" r=".0001" />
    <text x="106.7989" y="-6.569892" stroke="rgb(0,0,0)" transform="translate(106.7989 -6.569892),scale(0.00001 -0.00001),translate(-106.7989 6.569892),translate(106.8125 -6.592499999999999),rotate(-30),translate(-106.8125 6.592499999999999)" >pemuda-pedes</text>
    <line x1="106.799029" y1="-6.56921" x2="106.801904" y2="-6.565255" style="stroke:rgb(255,0,0);stroke-width:.00002" />
    <line x1="106.79870545251038" y1="-6.568974804290097" x2="106.80158045251036" y2="-6.565019804290096" style="stroke:rgb(0,0,0);stroke-width:.00002" />
    <circle cx="106.799029" cy="-6.56921" fill="rgb(255,0,0)" r=".0001" />
    <text x="106.799029" y="-6.56921" stroke="rgb(0,0,0)" transform="translate(106.799029 -6.56921),scale(0.00001 -0.00001),translate(-106.799029 6.56921),translate(106.8125 -6.592499999999999),rotate(-30),translate(-106.8125 6.592499999999999)" >pedes-bendrightatstart</text>
    <line x1="106.801904" y1="-6.565255" x2="106.801968" y2="-6.561887" style="stroke:rgb(255,0,0);stroke-width:.00002" />
    <line x1="106.8015040721985" y1="-6.565247400421823" x2="106.8015680721985" y2="-6.561879400421823" style="stroke:rgb(0,0,0);stroke-width:.00002" />
    <circle cx="106.801904" cy="-6.565255" fill="rgb(255,0,0)" r=".0001" />
    <text x="106.801904" y="-6.565255" stroke="rgb(0,0,0)" transform="translate(106.801904 -6.565255),scale(0.00001 -0.00001),translate(-106.801904 6.565255),translate(106.8125 -6.592499999999999),rotate(-30),translate(-106.8125 6.592499999999999)" >pedes-sungai</text>
    <line x1="106.801968" y1="-6.561887" x2="106.797108" y2="-6.562889" style="stroke:rgb(255,0,0);stroke-width:.00002" />
    <line x1="106.80204877033866" y1="-6.562278760325191" x2="106.79718877033865" y2="-6.563280760325192" style="stroke:rgb(0,0,0);stroke-width:.00002" />
    <circle cx="106.801968" cy="-6.561887" fill="rgb(255,0,0)" r=".0001" />
    <text x="106.801968" y="-6.561887" stroke="rgb(0,0,0)" transform="translate(106.801968 -6.561887),scale(0.00001 -0.00001),translate(-106.801968 6.561887),translate(106.8125 -6.592499999999999),rotate(-30),translate(-106.8125 6.592499999999999)" >pedes-iskandar</text>
    <line x1="106.797108" y1="-6.562889" x2="106.787495" y2="-6.560033" style="stroke:rgb(255,0,0);stroke-width:.00002" />
    <line x1="106.79699408221926" y1="-6.563272435443369" x2="106.78743804110964" y2="-6.560224717721684" style="stroke:rgb(0,0,0);stroke-width:.00002" />
    <circle cx="106.797108" cy="-6.562889" fill="rgb(255,0,0)" r=".0001" />
    <text x="106.797108" y="-6.562889" stroke="rgb(0,0,0)" transform="translate(106.797108 -6.562889),scale(0.00001 -0.00001),translate(-106.797108 6.562889),translate(106.8125 -6.592499999999999),rotate(-30),translate(-106.8125 6.592499999999999)" >iskandar-majujaya</text>
    <line x1="106.787495" y1="-6.560033" x2="106.788353" y2="-6.558221" style="stroke:rgb(255,0,0);stroke-width:.00002" />
    <line x1="106.78731424024654" y1="-6.5599474084611105" x2="106.78817224024654" y2="-6.55813540846111" style="stroke:rgb(0,0,0);stroke-width:.00002" />
    <circle cx="106.787495" cy="-6.560033" fill="rgb(255,0,0)" r=".0001" />
    <text x="106.787495" y="-6.560033" stroke="rgb(0,0,0)" transform="translate(106.787495 -6.560033),scale(0.00001 -0.00001),translate(-106.787495 6.560033),translate(106.8125 -6.592499999999999),rotate(-30),translate(-106.8125 6.592499999999999)" >iskandar-20-rejions</text>
    <line x1="106.788353" y1="-6.558221" x2="106.788187" y2="-6.553675" style="stroke:rgb(255,0,0);stroke-width:.00002" />
    <line x1="106.78815313320584" y1="-6.5582282982595315" x2="106.78798713320583" y2="-6.553682298259532" style="stroke:rgb(0,0,0);stroke-width:.00002" />
    <circle cx="106.788353" cy="-6.558221" fill="rgb(255,0,0)" r=".0001" />
    <text x="106.788353" y="-6.558221" stroke="rgb(0,0,0)" transform="translate(106.788353 -6.558221),scale(0.00001 -0.00001),translate(-106.788353 6.558221),translate(106.8125 -6.592499999999999),rotate(-30),translate(-106.8125 6.592499999999999)" >cimanggu-wates-1</text>
    <line x1="106.788187" y1="-6.553675" x2="106.787608" y2="-6.548708" style="stroke:rgb(255,0,0);stroke-width:.00002" />
    <line x1="106.78798834514811" y1="-6.5536981570685" x2="106.78740934514812" y2="-6.5487311570685005" style="stroke:rgb(0,0,0);stroke-width:.00002" />
    <circle cx="106.788187" cy="-6.553675" fill="rgb(255,0,0)" r=".0001" />
    <text x="106.788187" y="-6.553675" stroke="rgb(0,0,0)" transform="translate(106.788187 -6.553675),scale(0.00001 -0.00001),translate(-106.788187 6.553675),translate(106.8125 -6.592499999999999),rotate(-30),translate(-106.8125 6.592499999999999)" >cimanggu-wates-setapak</text>
    <line x1="106.787608" y1="-6.548708" x2="106.786342" y2="-6.546746" style="stroke:rgb(255,0,0);stroke-width:.00002" />
    <line x1="106.78743994822285" y1="-6.548816437079443" x2="106.78617394822285" y2="-6.546854437079443" style="stroke:rgb(0,0,0);stroke-width:.00002" />
    <circle cx="106.787608" cy="-6.548708" fill="rgb(255,0,0)" r=".0001" />
    <text x="106.787608" y="-6.548708" stroke="rgb(0,0,0)" transform="translate(106.787608 -6.548708),scale(0.00001 -0.00001),translate(-106.787608 6.548708),translate(106.8125 -6.592499999999999),rotate(-30),translate(-106.8125 6.592499999999999)" >setapak-1</text>
    <line x1="106.786342" y1="-6.546746" x2="106.785719" y2="-6.546874" style="stroke:rgb(255,0,0);stroke-width:.00002" />
    <line x1="106.78638225072652" y1="-6.546941907832959" x2="106.78575925072651" y2="-6.5470699078329595" style="stroke:rgb(0,0,0);stroke-width:.00002" />
    <circle cx="106.786342" cy="-6.546746" fill="rgb(255,0,0)" r=".0001" />
    <text x="106.786342" y="-6.546746" stroke="rgb(0,0,0)" transform="translate(106.786342 -6.546746),scale(0.00001 -0.00001),translate(-106.786342 6.546746),translate(106.8125 -6.592499999999999),rotate(-30),translate(-106.8125 6.592499999999999)" >setapak-2</text>
    <line x1="106.785719" y1="-6.546874" x2="106.784" y2="-6.543024" style="stroke:rgb(255,0,0);stroke-width:.00002" />
    <line x1="106.78553637683807" y1="-6.546955540055941" x2="106.78381737683807" y2="-6.543105540055941" style="stroke:rgb(0,0,0);stroke-width:.00002" />
    <circle cx="106.785719" cy="-6.546874" fill="rgb(255,0,0)" r=".0001" />
    <text x="106.785719" y="-6.546874" stroke="rgb(0,0,0)" transform="translate(106.785719 -6.546874),scale(0.00001 -0.00001),translate(-106.785719 6.546874),translate(106.8125 -6.592499999999999),rotate(-30),translate(-106.8125 6.592499999999999)" >setapak-3</text>
    <line x1="106.784" y1="-6.543024" x2="106.783536" y2="-6.541881" style="stroke:rgb(255,0,0);stroke-width:.00002" />
    <line x1="106.78381468725709" y1="-6.543099227570177" x2="106.78335068725708" y2="-6.541956227570177" style="stroke:rgb(0,0,0);stroke-width:.00002" />
    <circle cx="106.784" cy="-6.543024" fill="rgb(255,0,0)" r=".0001" />
    <text x="106.784" y="-6.543024" stroke="rgb(0,0,0)" transform="translate(106.784 -6.543024),scale(0.00001 -0.00001),translate(-106.784 6.543024),translate(106.8125 -6.592499999999999),rotate(-30),translate(-106.8125 6.592499999999999)" >setapak-bukitcimanggu</text>
    <line x1="106.783536" y1="-6.541881" x2="106.782742" y2="-6.541369" style="stroke:rgb(255,0,0);stroke-width:.00002" />
    <line x1="106.78342761320336" y1="-6.542049084211973" x2="106.78263361320336" y2="-6.541537084211973" style="stroke:rgb(0,0,0);stroke-width:.00002" />
    <circle cx="106.783536" cy="-6.541881" fill="rgb(255,0,0)" r=".0001" />
    <text x="106.783536" y="-6.541881" stroke="rgb(0,0,0)" transform="translate(106.783536 -6.541881),scale(0.00001 -0.00001),translate(-106.783536 6.541881),translate(106.8125 -6.592499999999999),rotate(-30),translate(-106.8125 6.592499999999999)" >setapak-4</text>
    <line x1="106.782742" y1="-6.541369" x2="106.782506" y2="-6.537894" style="stroke:rgb(255,0,0);stroke-width:.00002" />
    <line x1="106.78254245963727" y1="-6.54138255151816" x2="106.78230645963727" y2="-6.537907551518159" style="stroke:rgb(0,0,0);stroke-width:.00002" />
    <circle cx="106.782742" cy="-6.541369" fill="rgb(255,0,0)" r=".0001" />
    <text x="106.782742" y="-6.541369" stroke="rgb(0,0,0)" transform="translate(106.782742 -6.541369),scale(0.00001 -0.00001),translate(-106.782742 6.541369),translate(106.8125 -6.592499999999999),rotate(-30),translate(-106.8125 6.592499999999999)" >setapak-5</text>
    <line x1="106.782506" y1="-6.537894" x2="106.782828" y2="-6.535784" style="stroke:rgb(255,0,0);stroke-width:.00002" />
    <line x1="106.78230828897463" y1="-6.537863827985702" x2="106.78263028897463" y2="-6.535753827985702" style="stroke:rgb(0,0,0);stroke-width:.00002" />
    <circle cx="106.782506" cy="-6.537894" fill="rgb(255,0,0)" r=".0001" />
    <text x="106.782506" y="-6.537894" stroke="rgb(0,0,0)" transform="translate(106.782506 -6.537894),scale(0.00001 -0.00001),translate(-106.782506 6.537894),translate(106.8125 -6.592499999999999),rotate(-30),translate(-106.8125 6.592499999999999)" >setapak-6</text>
    <line x1="106.782828" y1="-6.535784" x2="106.782608" y2="-6.534382" style="stroke:rgb(255,0,0);stroke-width:.00002" />
    <line x1="106.78263041778722" y1="-6.5358150043415195" x2="106.78221283557444" y2="-6.534444008683041" style="stroke:rgb(0,0,0);stroke-width:.00002" />
    <circle cx="106.782828" cy="-6.535784" fill="rgb(255,0,0)" r=".0001" />
    <text x="106.782828" y="-6.535784" stroke="rgb(0,0,0)" transform="translate(106.782828 -6.535784),scale(0.00001 -0.00001),translate(-106.782828 6.535784),translate(106.8125 -6.592499999999999),rotate(-30),translate(-106.8125 6.592499999999999)" >setapak-7</text>
    <line x1="106.782608" y1="-6.534382" x2="106.789281" y2="-6.534467" style="stroke:rgb(255,0,0);stroke-width:.00002" />
    <line x1="106.7826130947463" y1="-6.533982032446866" x2="106.7892860947463" y2="-6.534067032446866" style="stroke:rgb(0,0,0);stroke-width:.00002" />
    <circle cx="106.782608" cy="-6.534382" fill="rgb(255,0,0)" r=".0001" />
    <text x="106.782608" y="-6.534382" stroke="rgb(0,0,0)" transform="translate(106.782608 -6.534382),scale(0.00001 -0.00001),translate(-106.782608 6.534382),translate(106.8125 -6.592499999999999),rotate(-30),translate(-106.8125 6.592499999999999)" >kencana-4-setapak</text>
    <line x1="106.789281" y1="-6.534467" x2="106.790226" y2="-6.533593" style="stroke:rgb(255,0,0);stroke-width:.00002" />
    <line x1="106.78900940414104" y1="-6.534173340861885" x2="106.78995440414104" y2="-6.533299340861885" style="stroke:rgb(0,0,0);stroke-width:.00002" />
    <circle cx="106.789281" cy="-6.534467" fill="rgb(255,0,0)" r=".0001" />
    <text x="106.789281" y="-6.534467" stroke="rgb(0,0,0)" transform="translate(106.789281 -6.534467),scale(0.00001 -0.00001),translate(-106.789281 6.534467),translate(106.8125 -6.592499999999999),rotate(-30),translate(-106.8125 6.592499999999999)" >kencana-5-left</text>
    <line x1="106.790226" y1="-6.533593" x2="106.795933" y2="-6.53387" style="stroke:rgb(255,0,0);stroke-width:.00002" />
    <line x1="106.79024539192523" y1="-6.533193470334973" x2="106.79595239192523" y2="-6.533470470334974" style="stroke:rgb(0,0,0);stroke-width:.00002" />
    <circle cx="106.790226" cy="-6.533593" fill="rgb(255,0,0)" r=".0001" />
    <text x="106.790226" y="-6.533593" stroke="rgb(0,0,0)" transform="translate(106.790226 -6.533593),scale(0.00001 -0.00001),translate(-106.790226 6.533593),translate(106.8125 -6.592499999999999),rotate(-30),translate(-106.8125 6.592499999999999)" >kencana-6-right</text>
    <line x1="106.795933" y1="-6.53387" x2="106.796126" y2="-6.531504" style="stroke:rgb(255,0,0);stroke-width:.00002" />
    <line x1="106.79553432420236" y1="-6.533837479108646" x2="106.79572732420236" y2="-6.531471479108646" style="stroke:rgb(0,0,0);stroke-width:.00002" />
    <circle cx="106.795933" cy="-6.53387" fill="rgb(255,0,0)" r=".0001" />
    <text x="106.795933" y="-6.53387" stroke="rgb(0,0,0)" transform="translate(106.795933 -6.53387),scale(0.00001 -0.00001),translate(-106.795933 6.53387),translate(106.8125 -6.592499999999999),rotate(-30),translate(-106.8125 6.592499999999999)" >kencana-corner-kalimurni</text>
    <line x1="106.796126" y1="-6.531504" x2="106.796491" y2="-6.531461" style="stroke:rgb(255,0,0);stroke-width:.00002" />
    <line x1="106.79607920035417" y1="-6.5311067471923945" x2="106.79644420035417" y2="-6.531063747192395" style="stroke:rgb(0,0,0);stroke-width:.00002" />
    <circle cx="106.796126" cy="-6.531504" fill="rgb(255,0,0)" r=".0001" />
    <text x="106.796126" y="-6.531504" stroke="rgb(0,0,0)" transform="translate(106.796126 -6.531504),scale(0.00001 -0.00001),translate(-106.796126 6.531504),translate(106.8125 -6.592499999999999),rotate(-30),translate(-106.8125 6.592499999999999)" >kalimurni-1-right</text>
    <line x1="106.796491" y1="-6.531461" x2="106.796598" y2="-6.530971" style="stroke:rgb(255,0,0);stroke-width:.00002" />
    <line x1="106.79610020880159" y1="-6.5313756639627965" x2="106.79620720880159" y2="-6.530885663962796" style="stroke:rgb(0,0,0);stroke-width:.00002" />
    <circle cx="106.796491" cy="-6.531461" fill="rgb(255,0,0)" r=".0001" />
    <text x="106.796491" y="-6.531461" stroke="rgb(0,0,0)" transform="translate(106.796491 -6.531461),scale(0.00001 -0.00001),translate(-106.796491 6.531461),translate(106.8125 -6.592499999999999),rotate(-30),translate(-106.8125 6.592499999999999)" >kalimurni-2-left</text>
    <line x1="106.796598" y1="-6.530971" x2="106.800305" y2="-6.530774" style="stroke:rgb(255,0,0);stroke-width:.00002" />
    <line x1="106.79657677287193" y1="-6.530571563635815" x2="106.80028377287192" y2="-6.530374563635815" style="stroke:rgb(0,0,0);stroke-width:.00002" />
    <circle cx="106.796598" cy="-6.530971" fill="rgb(255,0,0)" r=".0001" />
    <text x="106.796598" y="-6.530971" stroke="rgb(0,0,0)" transform="translate(106.796598 -6.530971),scale(0.00001 -0.00001),translate(-106.796598 6.530971),translate(106.8125 -6.592499999999999),rotate(-30),translate(-106.8125 6.592499999999999)" >kalimurni-pendidikan</text>
    <line x1="106.800305" y1="-6.530774" x2="106.796598" y2="-6.530971" style="stroke:rgb(255,0,0);stroke-width:.00002" />
    <line x1="106.80032622712807" y1="-6.531173436364186" x2="106.79661922712808" y2="-6.531370436364186" style="stroke:rgb(0,0,0);stroke-width:.00002" />
    <circle cx="106.800305" cy="-6.530774" fill="rgb(255,0,0)" r=".0001" />
    <text x="106.800305" y="-6.530774" stroke="rgb(0,0,0)" transform="translate(106.800305 -6.530774),scale(0.00001 -0.00001),translate(-106.800305 6.530774),translate(106.8125 -6.592499999999999),rotate(-30),translate(-106.8125 6.592499999999999)" >pendidikan-cilebut</text>
    <line x1="106.796598" y1="-6.530971" x2="106.796491" y2="-6.531461" style="stroke:rgb(255,0,0);stroke-width:.00002" />
    <line x1="106.79698879119842" y1="-6.531056336037204" x2="106.79688179119842" y2="-6.531546336037204" style="stroke:rgb(0,0,0);stroke-width:.00002" />
    <circle cx="106.796598" cy="-6.530971" fill="rgb(255,0,0)" r=".0001" />
    <text x="106.796598" y="-6.530971" stroke="rgb(0,0,0)" transform="translate(106.796598 -6.530971),scale(0.00001 -0.00001),translate(-106.796598 6.530971),translate(106.8125 -6.592499999999999),rotate(-30),translate(-106.8125 6.592499999999999)" >kalimurni-pendidikan</text>
    <line x1="106.796491" y1="-6.531461" x2="106.796126" y2="-6.531504" style="stroke:rgb(255,0,0);stroke-width:.00002" />
    <line x1="106.79653779964583" y1="-6.531858252807606" x2="106.79617279964583" y2="-6.5319012528076055" style="stroke:rgb(0,0,0);stroke-width:.00002" />
    <circle cx="106.796491" cy="-6.531461" fill="rgb(255,0,0)" r=".0001" />
    <text x="106.796491" y="-6.531461" stroke="rgb(0,0,0)" transform="translate(106.796491 -6.531461),scale(0.00001 -0.00001),translate(-106.796491 6.531461),translate(106.8125 -6.592499999999999),rotate(-30),translate(-106.8125 6.592499999999999)" >kalimurni-2-left</text>
    <line x1="106.796126" y1="-6.531504" x2="106.795933" y2="-6.53387" style="stroke:rgb(255,0,0);stroke-width:.00002" />
    <line x1="106.79652467579764" y1="-6.531536520891354" x2="106.79633167579765" y2="-6.533902520891354" style="stroke:rgb(0,0,0);stroke-width:.00002" />
    <circle cx="106.796126" cy="-6.531504" fill="rgb(255,0,0)" r=".0001" />
    <text x="106.796126" y="-6.531504" stroke="rgb(0,0,0)" transform="translate(106.796126 -6.531504),scale(0.00001 -0.00001),translate(-106.796126 6.531504),translate(106.8125 -6.592499999999999),rotate(-30),translate(-106.8125 6.592499999999999)" >kalimurni-1-right</text>
    <line x1="106.795933" y1="-6.53387" x2="106.790226" y2="-6.533593" style="stroke:rgb(255,0,0);stroke-width:.00002" />
    <line x1="106.79591360807478" y1="-6.534269529665027" x2="106.79020660807478" y2="-6.533992529665026" style="stroke:rgb(0,0,0);stroke-width:.00002" />
    <circle cx="106.795933" cy="-6.53387" fill="rgb(255,0,0)" r=".0001" />
    <text x="106.795933" y="-6.53387" stroke="rgb(0,0,0)" transform="translate(106.795933 -6.53387),scale(0.00001 -0.00001),translate(-106.795933 6.53387),translate(106.8125 -6.592499999999999),rotate(-30),translate(-106.8125 6.592499999999999)" >kencana-corner-kalimurni</text>
    <line x1="106.790226" y1="-6.533593" x2="106.789281" y2="-6.534467" style="stroke:rgb(255,0,0);stroke-width:.00002" />
    <line x1="106.79049759585897" y1="-6.533886659138115" x2="106.78955259585896" y2="-6.534760659138115" style="stroke:rgb(0,0,0);stroke-width:.00002" />
    <circle cx="106.790226" cy="-6.533593" fill="rgb(255,0,0)" r=".0001" />
    <text x="106.790226" y="-6.533593" stroke="rgb(0,0,0)" transform="translate(106.790226 -6.533593),scale(0.00001 -0.00001),translate(-106.790226 6.533593),translate(106.8125 -6.592499999999999),rotate(-30),translate(-106.8125 6.592499999999999)" >kencana-6-right</text>
    <line x1="106.789281" y1="-6.534467" x2="106.782608" y2="-6.534382" style="stroke:rgb(255,0,0);stroke-width:.00002" />
    <line x1="106.7892759052537" y1="-6.534866967553135" x2="106.78260545262685" y2="-6.534581983776567" style="stroke:rgb(0,0,0);stroke-width:.00002" />
    <circle cx="106.789281" cy="-6.534467" fill="rgb(255,0,0)" r=".0001" />
    <text x="106.789281" y="-6.534467" stroke="rgb(0,0,0)" transform="translate(106.789281 -6.534467),scale(0.00001 -0.00001),translate(-106.789281 6.534467),translate(106.8125 -6.592499999999999),rotate(-30),translate(-106.8125 6.592499999999999)" >kencana-5-left</text>
    <line x1="106.782608" y1="-6.534382" x2="106.782828" y2="-6.535784" style="stroke:rgb(255,0,0);stroke-width:.00002" />
    <line x1="106.78280558221277" y1="-6.53435099565848" x2="106.78302558221277" y2="-6.53575299565848" style="stroke:rgb(0,0,0);stroke-width:.00002" />
    <circle cx="106.782608" cy="-6.534382" fill="rgb(255,0,0)" r=".0001" />
    <text x="106.782608" y="-6.534382" stroke="rgb(0,0,0)" transform="translate(106.782608 -6.534382),scale(0.00001 -0.00001),translate(-106.782608 6.534382),translate(106.8125 -6.592499999999999),rotate(-30),translate(-106.8125 6.592499999999999)" >kencana-4-setapak</text>
    <line x1="106.782828" y1="-6.535784" x2="106.782506" y2="-6.537894" style="stroke:rgb(255,0,0);stroke-width:.00002" />
    <line x1="106.78302571102536" y1="-6.535814172014297" x2="106.78270371102536" y2="-6.537924172014297" style="stroke:rgb(0,0,0);stroke-width:.00002" />
    <circle cx="106.782828" cy="-6.535784" fill="rgb(255,0,0)" r=".0001" />
    <text x="106.782828" y="-6.535784" stroke="rgb(0,0,0)" transform="translate(106.782828 -6.535784),scale(0.00001 -0.00001),translate(-106.782828 6.535784),translate(106.8125 -6.592499999999999),rotate(-30),translate(-106.8125 6.592499999999999)" >setapak-7</text>
    <line x1="106.782506" y1="-6.537894" x2="106.782742" y2="-6.541369" style="stroke:rgb(255,0,0);stroke-width:.00002" />
    <line x1="106.78270554036273" y1="-6.5378804484818405" x2="106.78294154036273" y2="-6.541355448481841" style="stroke:rgb(0,0,0);stroke-width:.00002" />
    <circle cx="106.782506" cy="-6.537894" fill="rgb(255,0,0)" r=".0001" />
    <text x="106.782506" y="-6.537894" stroke="rgb(0,0,0)" transform="translate(106.782506 -6.537894),scale(0.00001 -0.00001),translate(-106.782506 6.537894),translate(106.8125 -6.592499999999999),rotate(-30),translate(-106.8125 6.592499999999999)" >setapak-6</text>
    <line x1="106.782742" y1="-6.541369" x2="106.783536" y2="-6.541881" style="stroke:rgb(255,0,0);stroke-width:.00002" />
    <line x1="106.78285038679664" y1="-6.5412009157880275" x2="106.78364438679664" y2="-6.541712915788027" style="stroke:rgb(0,0,0);stroke-width:.00002" />
    <circle cx="106.782742" cy="-6.541369" fill="rgb(255,0,0)" r=".0001" />
    <text x="106.782742" y="-6.541369" stroke="rgb(0,0,0)" transform="translate(106.782742 -6.541369),scale(0.00001 -0.00001),translate(-106.782742 6.541369),translate(106.8125 -6.592499999999999),rotate(-30),translate(-106.8125 6.592499999999999)" >setapak-5</text>
    <line x1="106.783536" y1="-6.541881" x2="106.784" y2="-6.543024" style="stroke:rgb(255,0,0);stroke-width:.00002" />
    <line x1="106.78372131274291" y1="-6.541805772429823" x2="106.78418531274292" y2="-6.542948772429823" style="stroke:rgb(0,0,0);stroke-width:.00002" />
    <circle cx="106.783536" cy="-6.541881" fill="rgb(255,0,0)" r=".0001" />
    <text x="106.783536" y="-6.541881" stroke="rgb(0,0,0)" transform="translate(106.783536 -6.541881),scale(0.00001 -0.00001),translate(-106.783536 6.541881),translate(106.8125 -6.592499999999999),rotate(-30),translate(-106.8125 6.592499999999999)" >setapak-4</text>
    <line x1="106.784" y1="-6.543024" x2="106.785719" y2="-6.546874" style="stroke:rgb(255,0,0);stroke-width:.00002" />
    <line x1="106.78418262316194" y1="-6.542942459944059" x2="106.78590162316193" y2="-6.546792459944059" style="stroke:rgb(0,0,0);stroke-width:.00002" />
    <circle cx="106.784" cy="-6.543024" fill="rgb(255,0,0)" r=".0001" />
    <text x="106.784" y="-6.543024" stroke="rgb(0,0,0)" transform="translate(106.784 -6.543024),scale(0.00001 -0.00001),translate(-106.784 6.543024),translate(106.8125 -6.592499999999999),rotate(-30),translate(-106.8125 6.592499999999999)" >setapak-bukitcimanggu</text>
    <line x1="106.785719" y1="-6.546874" x2="106.786342" y2="-6.546746" style="stroke:rgb(255,0,0);stroke-width:.00002" />
    <line x1="106.78567874927349" y1="-6.54667809216704" x2="106.78630174927349" y2="-6.54655009216704" style="stroke:rgb(0,0,0);stroke-width:.00002" />
    <circle cx="106.785719" cy="-6.546874" fill="rgb(255,0,0)" r=".0001" />
    <text x="106.785719" y="-6.546874" stroke="rgb(0,0,0)" transform="translate(106.785719 -6.546874),scale(0.00001 -0.00001),translate(-106.785719 6.546874),translate(106.8125 -6.592499999999999),rotate(-30),translate(-106.8125 6.592499999999999)" >setapak-3</text>
    <line x1="106.786342" y1="-6.546746" x2="106.787608" y2="-6.548708" style="stroke:rgb(255,0,0);stroke-width:.00002" />
    <line x1="106.78651005177716" y1="-6.546637562920557" x2="106.78777605177716" y2="-6.548599562920558" style="stroke:rgb(0,0,0);stroke-width:.00002" />
    <circle cx="106.786342" cy="-6.546746" fill="rgb(255,0,0)" r=".0001" />
    <text x="106.786342" y="-6.546746" stroke="rgb(0,0,0)" transform="translate(106.786342 -6.546746),scale(0.00001 -0.00001),translate(-106.786342 6.546746),translate(106.8125 -6.592499999999999),rotate(-30),translate(-106.8125 6.592499999999999)" >setapak-2</text>
    <line x1="106.787608" y1="-6.548708" x2="106.788187" y2="-6.553675" style="stroke:rgb(255,0,0);stroke-width:.00002" />
    <line x1="106.78780665485189" y1="-6.5486848429315" x2="106.78838565485188" y2="-6.5536518429315" style="stroke:rgb(0,0,0);stroke-width:.00002" />
    <circle cx="106.787608" cy="-6.548708" fill="rgb(255,0,0)" r=".0001" />
    <text x="106.787608" y="-6.548708" stroke="rgb(0,0,0)" transform="translate(106.787608 -6.548708),scale(0.00001 -0.00001),translate(-106.787608 6.548708),translate(106.8125 -6.592499999999999),rotate(-30),translate(-106.8125 6.592499999999999)" >setapak-1</text>
    <line x1="106.788187" y1="-6.553675" x2="106.788353" y2="-6.558221" style="stroke:rgb(255,0,0);stroke-width:.00002" />
    <line x1="106.78838686679416" y1="-6.553667701740468" x2="106.78855286679416" y2="-6.558213701740468" style="stroke:rgb(0,0,0);stroke-width:.00002" />
    <circle cx="106.788187" cy="-6.553675" fill="rgb(255,0,0)" r=".0001" />
    <text x="106.788187" y="-6.553675" stroke="rgb(0,0,0)" transform="translate(106.788187 -6.553675),scale(0.00001 -0.00001),translate(-106.788187 6.553675),translate(106.8125 -6.592499999999999),rotate(-30),translate(-106.8125 6.592499999999999)" >cimanggu-wates-setapak</text>
    <line x1="106.788353" y1="-6.558221" x2="106.787495" y2="-6.560033" style="stroke:rgb(255,0,0);stroke-width:.00002" />
    <line x1="106.78853375975346" y1="-6.558306591538889" x2="106.78785651950693" y2="-6.5602041830777775" style="stroke:rgb(0,0,0);stroke-width:.00002" />
    <circle cx="106.788353" cy="-6.558221" fill="rgb(255,0,0)" r=".0001" />
    <text x="106.788353" y="-6.558221" stroke="rgb(0,0,0)" transform="translate(106.788353 -6.558221),scale(0.00001 -0.00001),translate(-106.788353 6.558221),translate(106.8125 -6.592499999999999),rotate(-30),translate(-106.8125 6.592499999999999)" >cimanggu-wates-1</text>
    <line x1="106.787495" y1="-6.560033" x2="106.797108" y2="-6.562889" style="stroke:rgb(255,0,0);stroke-width:.00002" />
    <line x1="106.78760891778074" y1="-6.559649564556631" x2="106.79722191778073" y2="-6.5625055645566315" style="stroke:rgb(0,0,0);stroke-width:.00002" />
    <circle cx="106.787495" cy="-6.560033" fill="rgb(255,0,0)" r=".0001" />
    <text x="106.787495" y="-6.560033" stroke="rgb(0,0,0)" transform="translate(106.787495 -6.560033),scale(0.00001 -0.00001),translate(-106.787495 6.560033),translate(106.8125 -6.592499999999999),rotate(-30),translate(-106.8125 6.592499999999999)" >iskandar-20-rejions</text>
    <line x1="106.797108" y1="-6.562889" x2="106.801968" y2="-6.561887" style="stroke:rgb(255,0,0);stroke-width:.00002" />
    <line x1="106.79702722966134" y1="-6.5624972396748085" x2="106.80188722966135" y2="-6.561495239674808" style="stroke:rgb(0,0,0);stroke-width:.00002" />
    <circle cx="106.797108" cy="-6.562889" fill="rgb(255,0,0)" r=".0001" />
    <text x="106.797108" y="-6.562889" stroke="rgb(0,0,0)" transform="translate(106.797108 -6.562889),scale(0.00001 -0.00001),translate(-106.797108 6.562889),translate(106.8125 -6.592499999999999),rotate(-30),translate(-106.8125 6.592499999999999)" >iskandar-majujaya</text>
    <line x1="106.801968" y1="-6.561887" x2="106.802644" y2="-6.561578" style="stroke:rgb(255,0,0);stroke-width:.00002" />
    <line x1="106.80180170881414" y1="-6.561523204395979" x2="106.80247770881414" y2="-6.561214204395979" style="stroke:rgb(0,0,0);stroke-width:.00002" />
    <circle cx="106.801968" cy="-6.561887" fill="rgb(255,0,0)" r=".0001" />
    <text x="106.801968" y="-6.561887" stroke="rgb(0,0,0)" transform="translate(106.801968 -6.561887),scale(0.00001 -0.00001),translate(-106.801968 6.561887),translate(106.8125 -6.592499999999999),rotate(-30),translate(-106.8125 6.592499999999999)" >pedes-iskandar</text>
    <line x1="106.802644" y1="-6.561578" x2="106.801968" y2="-6.561887" style="stroke:rgb(255,0,0);stroke-width:.00002" />
    <line x1="106.80281029118586" y1="-6.561941795604021" x2="106.80213429118587" y2="-6.562250795604021" style="stroke:rgb(0,0,0);stroke-width:.00002" />
    <circle cx="106.802644" cy="-6.561578" fill="rgb(255,0,0)" r=".0001" />
    <text x="106.802644" y="-6.561578" stroke="rgb(0,0,0)" transform="translate(106.802644 -6.561578),scale(0.00001 -0.00001),translate(-106.802644 6.561578),translate(106.8125 -6.592499999999999),rotate(-30),translate(-106.8125 6.592499999999999)" >iskandar-underloop</text>
    <line x1="106.801968" y1="-6.561887" x2="106.801904" y2="-6.565255" style="stroke:rgb(255,0,0);stroke-width:.00002" />
    <line x1="106.8023679278015" y1="-6.561894599578176" x2="106.80230392780149" y2="-6.565262599578176" style="stroke:rgb(0,0,0);stroke-width:.00002" />
    <circle cx="106.801968" cy="-6.561887" fill="rgb(255,0,0)" r=".0001" />
    <text x="106.801968" y="-6.561887" stroke="rgb(0,0,0)" transform="translate(106.801968 -6.561887),scale(0.00001 -0.00001),translate(-106.801968 6.561887),translate(106.8125 -6.592499999999999),rotate(-30),translate(-106.8125 6.592499999999999)" >pedes-iskandar</text>
    <line x1="106.801904" y1="-6.565255" x2="106.799029" y2="-6.56921" style="stroke:rgb(255,0,0);stroke-width:.00002" />
    <line x1="106.80222754748962" y1="-6.565490195709903" x2="106.79935254748963" y2="-6.569445195709903" style="stroke:rgb(0,0,0);stroke-width:.00002" />
    <circle cx="106.801904" cy="-6.565255" fill="rgb(255,0,0)" r=".0001" />
    <text x="106.801904" y="-6.565255" stroke="rgb(0,0,0)" transform="translate(106.801904 -6.565255),scale(0.00001 -0.00001),translate(-106.801904 6.565255),translate(106.8125 -6.592499999999999),rotate(-30),translate(-106.8125 6.592499999999999)" >pedes-sungai</text>
    <line x1="106.799029" y1="-6.56921" x2="106.7989" y2="-6.569892" style="stroke:rgb(255,0,0);stroke-width:.00002" />
    <line x1="106.79942203094288" y1="-6.569284341629958" x2="106.79929303094288" y2="-6.569966341629958" style="stroke:rgb(0,0,0);stroke-width:.00002" />
    <circle cx="106.799029" cy="-6.56921" fill="rgb(255,0,0)" r=".0001" />
    <text x="106.799029" y="-6.56921" stroke="rgb(0,0,0)" transform="translate(106.799029 -6.56921),scale(0.00001 -0.00001),translate(-106.799029 6.56921),translate(106.8125 -6.592499999999999),rotate(-30),translate(-106.8125 6.592499999999999)" >pedes-bendrightatstart</text>
    <line x1="106.7989" y1="-6.569892" x2="106.796486" y2="-6.573345" style="stroke:rgb(255,0,0);stroke-width:.00002" />
    <line x1="106.79922783097834" y1="-6.570121187367995" x2="106.79681383097834" y2="-6.573574187367995" style="stroke:rgb(0,0,0);stroke-width:.00002" />
    <circle cx="106.7989" cy="-6.569892" fill="rgb(255,0,0)" r=".0001" />
    <text x="106.7989" y="-6.569892" stroke="rgb(0,0,0)" transform="translate(106.7989 -6.569892),scale(0.00001 -0.00001),translate(-106.7989 6.569892),translate(106.8125 -6.592499999999999),rotate(-30),translate(-106.8125 6.592499999999999)" >pemuda-pedes</text>
    <line x1="106.796486" y1="-6.573345" x2="106.7968" y2="-6.5817" style="stroke:rgb(255,0,0);stroke-width:.00002" />
    <line x1="106.79688571781325" y1="-6.5733299776908005" x2="106.79719971781326" y2="-6.5816849776908" style="stroke:rgb(0,0,0);stroke-width:.00002" />
    <circle cx="106.796486" cy="-6.573345" fill="rgb(255,0,0)" r=".0001" />
    <text x="106.796486" y="-6.573345" stroke="rgb(0,0,0)" transform="translate(106.796486 -6.573345),scale(0.00001 -0.00001),translate(-106.796486 6.573345),translate(106.8125 -6.592499999999999),rotate(-30),translate(-106.8125 6.592499999999999)" >pemuda-hewan</text>
    <line x1="106.7968" y1="-6.5817" x2="106.796967" y2="-6.588653" style="stroke:rgb(255,0,0);stroke-width:.00002" />
    <line x1="106.7971998846731" y1="-6.581690395406241" x2="106.7973668846731" y2="-6.588643395406241" style="stroke:rgb(0,0,0);stroke-width:.00002" />
    <circle cx="106.7968" cy="-6.5817" fill="rgb(255,0,0)" r=".0001" />
    <text x="106.7968" y="-6.5817" stroke="rgb(0,0,0)" transform="translate(106.7968 -6.5817),scale(0.00001 -0.00001),translate(-106.7968 6.5817),translate(106.8125 -6.592499999999999),rotate(-30),translate(-106.8125 6.592499999999999)" >sudirman-airmancur</text>
  </g>
</svg>
