<svg width="1049.9999999998977" height="1849.9999999999961" xmlns="http://www.w3.org/2000/svg" xmlns:xlink="http://www.w3.org/1999/xlink" >
  <g transform="translate(524.9999999999488 924.9999999999981) rotate(30) scale(10000 -10000) translate(-106.8125 6.592499999999999)">
    <path d="M106.76 -6.5 L106.865 -6.5 L106.865 -6.685 L106.76 -6.685 Z" fill="none" stroke="black" stroke-width="0.001" transform="translate(106.8125 -6.592499999999999) rotate(30) translate(-106.8125 6.592499999999999)" />
    <path d="M106.817796133966 -6.573426634776355 L106.81799847657918 -6.576967630506876 L106.81860596792602 -6.579195098778674 L106.81795804933357 -6.582110732444738 L106.81190553083235 -6.581716002977268 L106.80966852495712 -6.581207592551075 L106.8072604792577 -6.581039589362745 L106.80561576373319 -6.588166689969049 L106.8065431945228 -6.588408708760767 L106.80652038048903 -6.5886868556169595 L106.80649666407714 -6.592960553037404 L106.80555929040251 -6.592980134867119 L106.8056600402511 -6.5911162626681925 L106.80721460561917 -6.600832296218618 L106.80598779139976 -6.60254983612577 L106.80000929557413 -6.603839315617573 L106.79641993570662 -6.605695881066287 L106.79410514389325 -6.604152686524056 L106.79147079688828 -6.5965789388847105 L106.79293258355891 -6.592680841096342 L106.79675690191803 -6.590556219785722 L106.79834753503283 -6.5912792348379 L106.80071910231757 -6.5900629961061234 L106.80220886783339 -6.590671216906437 L106.80170733995875 -6.591867672293659 L106.80167271827106 -6.591267026269965 L106.80122865258622 -6.589933781890726 L106.80141358715514 -6.589196429867608 L106.8003263057667 -6.588109148479174 L106.79959266631931 -6.586013035772327 L106.8002079977276 -6.583141489200275 L106.80086459340772 -6.581499999999999 L106.80162215008508 -6.581499999999999 L106.80221216754998 -6.576484851548316 L106.80432472468797 -6.575076480122989 L106.80452417479489 -6.5742786796952695 L106.80684770041577 -6.572662314045959 L106.80811513375862 -6.57038093402882 L106.80741562659601 -6.570520835461342 L106.8066863467522 -6.5695484623362645 L106.80679222394888 -6.569019076352882 L106.8065220217881 -6.568343570950974 L106.80741239705475 -6.568195175073199 L106.80915212174918 -6.568706858806856 L106.8153154627568 -6.5702224344644655 Z" stroke="black" stroke-width="0.0002" fill="none" />
    <circle 
      cx="106.81190553083235" cy="-12.581716002977268"
      r="15" transform="translate(106.81190553083235 -6.581716002977268) scale(0.00001 -0.00001) translate(-106.81190553083235 6.581716002977268) translate(106.8125 -6.592499999999999) rotate(-30) translate(-106.8125 6.592499999999999)"
      fill="white" stroke="black" stroke-width="2"/>
    <circle 
      cx="106.80966852495712" cy="-12.581207592551074"
      r="15" transform="translate(106.80966852495712 -6.581207592551075) scale(0.00001 -0.00001) translate(-106.80966852495712 6.581207592551075) translate(106.8125 -6.592499999999999) rotate(-30) translate(-106.8125 6.592499999999999)"
      fill="white" stroke="black" stroke-width="2"/>
    <circle 
      cx="106.8072604792577" cy="-12.581039589362746"
      r="15" transform="translate(106.8072604792577 -6.581039589362745) scale(0.00001 -0.00001) translate(-106.8072604792577 6.581039589362745) translate(106.8125 -6.592499999999999) rotate(-30) translate(-106.8125 6.592499999999999)"
      fill="white" stroke="black" stroke-width="2"/>
    <circle 
      cx="106.80652038048903" cy="-12.58868685561696"
      r="15" transform="translate(106.80652038048903 -6.5886868556169595) scale(0.00001 -0.00001) translate(-106.80652038048903 6.5886868556169595) translate(106.8125 -6.592499999999999) rotate(-30) translate(-106.8125 6.592499999999999)"
      fill="white" stroke="black" stroke-width="2"/>
    <circle 
      cx="106.80555929040251" cy="-12.592980134867119"
      r="15" transform="translate(106.80555929040251 -6.592980134867119) scale(0.00001 -0.00001) translate(-106.80555929040251 6.592980134867119) translate(106.8125 -6.592499999999999) rotate(-30) translate(-106.8125 6.592499999999999)"
      fill="white" stroke="black" stroke-width="2"/>
    <circle 
      cx="106.8056600402511" cy="-12.591116262668193"
      r="15" transform="translate(106.8056600402511 -6.5911162626681925) scale(0.00001 -0.00001) translate(-106.8056600402511 6.5911162626681925) translate(106.8125 -6.592499999999999) rotate(-30) translate(-106.8125 6.592499999999999)"
      fill="white" stroke="black" stroke-width="2"/>
    <circle 
      cx="106.80721460561917" cy="-12.600832296218618"
      r="15" transform="translate(106.80721460561917 -6.600832296218618) scale(0.00001 -0.00001) translate(-106.80721460561917 6.600832296218618) translate(106.8125 -6.592499999999999) rotate(-30) translate(-106.8125 6.592499999999999)"
      fill="white" stroke="black" stroke-width="2"/>
    <circle 
      cx="106.80598779139976" cy="-12.602549836125771"
      r="15" transform="translate(106.80598779139976 -6.60254983612577) scale(0.00001 -0.00001) translate(-106.80598779139976 6.60254983612577) translate(106.8125 -6.592499999999999) rotate(-30) translate(-106.8125 6.592499999999999)"
      fill="white" stroke="black" stroke-width="2"/>
    <circle 
      cx="106.80000929557413" cy="-12.603839315617574"
      r="15" transform="translate(106.80000929557413 -6.603839315617573) scale(0.00001 -0.00001) translate(-106.80000929557413 6.603839315617573) translate(106.8125 -6.592499999999999) rotate(-30) translate(-106.8125 6.592499999999999)"
      fill="white" stroke="black" stroke-width="2"/>
    <circle 
      cx="106.79641993570662" cy="-12.605695881066287"
      r="15" transform="translate(106.79641993570662 -6.605695881066287) scale(0.00001 -0.00001) translate(-106.79641993570662 6.605695881066287) translate(106.8125 -6.592499999999999) rotate(-30) translate(-106.8125 6.592499999999999)"
      fill="white" stroke="black" stroke-width="2"/>
    <circle 
      cx="106.79410514389325" cy="-12.604152686524056"
      r="15" transform="translate(106.79410514389325 -6.604152686524056) scale(0.00001 -0.00001) translate(-106.79410514389325 6.604152686524056) translate(106.8125 -6.592499999999999) rotate(-30) translate(-106.8125 6.592499999999999)"
      fill="white" stroke="black" stroke-width="2"/>
    <circle 
      cx="106.79147079688828" cy="-12.596578938884711"
      r="15" transform="translate(106.79147079688828 -6.5965789388847105) scale(0.00001 -0.00001) translate(-106.79147079688828 6.5965789388847105) translate(106.8125 -6.592499999999999) rotate(-30) translate(-106.8125 6.592499999999999)"
      fill="white" stroke="black" stroke-width="2"/>
    <circle 
      cx="106.79293258355891" cy="-12.592680841096342"
      r="15" transform="translate(106.79293258355891 -6.592680841096342) scale(0.00001 -0.00001) translate(-106.79293258355891 6.592680841096342) translate(106.8125 -6.592499999999999) rotate(-30) translate(-106.8125 6.592499999999999)"
      fill="white" stroke="black" stroke-width="2"/>
    <circle 
      cx="106.79675690191803" cy="-12.590556219785721"
      r="15" transform="translate(106.79675690191803 -6.590556219785722) scale(0.00001 -0.00001) translate(-106.79675690191803 6.590556219785722) translate(106.8125 -6.592499999999999) rotate(-30) translate(-106.8125 6.592499999999999)"
      fill="white" stroke="black" stroke-width="2"/>
    <circle 
      cx="106.80220886783339" cy="-12.590671216906436"
      r="15" transform="translate(106.80220886783339 -6.590671216906437) scale(0.00001 -0.00001) translate(-106.80220886783339 6.590671216906437) translate(106.8125 -6.592499999999999) rotate(-30) translate(-106.8125 6.592499999999999)"
      fill="white" stroke="black" stroke-width="2"/>
    <circle 
      cx="106.80141358715514" cy="-12.589196429867608"
      r="15" transform="translate(106.80141358715514 -6.589196429867608) scale(0.00001 -0.00001) translate(-106.80141358715514 6.589196429867608) translate(106.8125 -6.592499999999999) rotate(-30) translate(-106.8125 6.592499999999999)"
      fill="white" stroke="black" stroke-width="2"/>
    <circle 
      cx="106.81190553083235" cy="-12.581716002977268"
      r="15" transform="translate(106.81190553083235 -6.581716002977268) scale(0.00001 -0.00001) translate(-106.81190553083235 6.581716002977268) translate(106.8125 -6.592499999999999) rotate(-30) translate(-106.8125 6.592499999999999)"
      fill="white" stroke="none"/>
    <circle 
      cx="106.80966852495712" cy="-12.581207592551074"
      r="15" transform="translate(106.80966852495712 -6.581207592551075) scale(0.00001 -0.00001) translate(-106.80966852495712 6.581207592551075) translate(106.8125 -6.592499999999999) rotate(-30) translate(-106.8125 6.592499999999999)"
      fill="white" stroke="none"/>
    <circle 
      cx="106.8072604792577" cy="-12.581039589362746"
      r="15" transform="translate(106.8072604792577 -6.581039589362745) scale(0.00001 -0.00001) translate(-106.8072604792577 6.581039589362745) translate(106.8125 -6.592499999999999) rotate(-30) translate(-106.8125 6.592499999999999)"
      fill="white" stroke="none"/>
    <circle 
      cx="106.80652038048903" cy="-12.58868685561696"
      r="15" transform="translate(106.80652038048903 -6.5886868556169595) scale(0.00001 -0.00001) translate(-106.80652038048903 6.5886868556169595) translate(106.8125 -6.592499999999999) rotate(-30) translate(-106.8125 6.592499999999999)"
      fill="white" stroke="none"/>
    <circle 
      cx="106.80555929040251" cy="-12.592980134867119"
      r="15" transform="translate(106.80555929040251 -6.592980134867119) scale(0.00001 -0.00001) translate(-106.80555929040251 6.592980134867119) translate(106.8125 -6.592499999999999) rotate(-30) translate(-106.8125 6.592499999999999)"
      fill="white" stroke="none"/>
    <circle 
      cx="106.8056600402511" cy="-12.591116262668193"
      r="15" transform="translate(106.8056600402511 -6.5911162626681925) scale(0.00001 -0.00001) translate(-106.8056600402511 6.5911162626681925) translate(106.8125 -6.592499999999999) rotate(-30) translate(-106.8125 6.592499999999999)"
      fill="white" stroke="none"/>
    <circle 
      cx="106.80721460561917" cy="-12.600832296218618"
      r="15" transform="translate(106.80721460561917 -6.600832296218618) scale(0.00001 -0.00001) translate(-106.80721460561917 6.600832296218618) translate(106.8125 -6.592499999999999) rotate(-30) translate(-106.8125 6.592499999999999)"
      fill="white" stroke="none"/>
    <circle 
      cx="106.80598779139976" cy="-12.602549836125771"
      r="15" transform="translate(106.80598779139976 -6.60254983612577) scale(0.00001 -0.00001) translate(-106.80598779139976 6.60254983612577) translate(106.8125 -6.592499999999999) rotate(-30) translate(-106.8125 6.592499999999999)"
      fill="white" stroke="none"/>
    <circle 
      cx="106.80000929557413" cy="-12.603839315617574"
      r="15" transform="translate(106.80000929557413 -6.603839315617573) scale(0.00001 -0.00001) translate(-106.80000929557413 6.603839315617573) translate(106.8125 -6.592499999999999) rotate(-30) translate(-106.8125 6.592499999999999)"
      fill="white" stroke="none"/>
    <circle 
      cx="106.79641993570662" cy="-12.605695881066287"
      r="15" transform="translate(106.79641993570662 -6.605695881066287) scale(0.00001 -0.00001) translate(-106.79641993570662 6.605695881066287) translate(106.8125 -6.592499999999999) rotate(-30) translate(-106.8125 6.592499999999999)"
      fill="white" stroke="none"/>
    <circle 
      cx="106.79410514389325" cy="-12.604152686524056"
      r="15" transform="translate(106.79410514389325 -6.604152686524056) scale(0.00001 -0.00001) translate(-106.79410514389325 6.604152686524056) translate(106.8125 -6.592499999999999) rotate(-30) translate(-106.8125 6.592499999999999)"
      fill="white" stroke="none"/>
    <circle 
      cx="106.79147079688828" cy="-12.596578938884711"
      r="15" transform="translate(106.79147079688828 -6.5965789388847105) scale(0.00001 -0.00001) translate(-106.79147079688828 6.5965789388847105) translate(106.8125 -6.592499999999999) rotate(-30) translate(-106.8125 6.592499999999999)"
      fill="white" stroke="none"/>
    <circle 
      cx="106.79293258355891" cy="-12.592680841096342"
      r="15" transform="translate(106.79293258355891 -6.592680841096342) scale(0.00001 -0.00001) translate(-106.79293258355891 6.592680841096342) translate(106.8125 -6.592499999999999) rotate(-30) translate(-106.8125 6.592499999999999)"
      fill="white" stroke="none"/>
    <circle 
      cx="106.79675690191803" cy="-12.590556219785721"
      r="15" transform="translate(106.79675690191803 -6.590556219785722) scale(0.00001 -0.00001) translate(-106.79675690191803 6.590556219785722) translate(106.8125 -6.592499999999999) rotate(-30) translate(-106.8125 6.592499999999999)"
      fill="white" stroke="none"/>
    <circle 
      cx="106.80220886783339" cy="-12.590671216906436"
      r="15" transform="translate(106.80220886783339 -6.590671216906437) scale(0.00001 -0.00001) translate(-106.80220886783339 6.590671216906437) translate(106.8125 -6.592499999999999) rotate(-30) translate(-106.8125 6.592499999999999)"
      fill="white" stroke="none"/>
    <circle 
      cx="106.80141358715514" cy="-12.589196429867608"
      r="15" transform="translate(106.80141358715514 -6.589196429867608) scale(0.00001 -0.00001) translate(-106.80141358715514 6.589196429867608) translate(106.8125 -6.592499999999999) rotate(-30) translate(-106.8125 6.592499999999999)"
      fill="white" stroke="none"/>
    <text x="106.81190553083235" y="-6.581716002977268" fill="black" text-anchor="middle" transform="translate(106.81190553083235 -6.581716002977268) scale(0.00001 -0.00001) translate(-106.81190553083235 6.581716002977268) translate(106.8125 -6.592499999999999) rotate(-30) translate(-106.8125 6.592499999999999)">23</text>
    <text x="106.80966852495712" y="-6.581207592551075" fill="black" text-anchor="middle" transform="translate(106.80966852495712 -6.581207592551075) scale(0.00001 -0.00001) translate(-106.80966852495712 6.581207592551075) translate(106.8125 -6.592499999999999) rotate(-30) translate(-106.8125 6.592499999999999)">23</text>
    <text x="106.8072604792577" y="-6.581039589362745" fill="black" text-anchor="middle" transform="translate(106.8072604792577 -6.581039589362745) scale(0.00001 -0.00001) translate(-106.8072604792577 6.581039589362745) translate(106.8125 -6.592499999999999) rotate(-30) translate(-106.8125 6.592499999999999)">23</text>
    <text x="106.80652038048903" y="-6.5886868556169595" fill="black" text-anchor="middle" transform="translate(106.80652038048903 -6.5886868556169595) scale(0.00001 -0.00001) translate(-106.80652038048903 6.5886868556169595) translate(106.8125 -6.592499999999999) rotate(-30) translate(-106.8125 6.592499999999999)">23</text>
    <text x="106.80555929040251" y="-6.592980134867119" fill="black" text-anchor="middle" transform="translate(106.80555929040251 -6.592980134867119) scale(0.00001 -0.00001) translate(-106.80555929040251 6.592980134867119) translate(106.8125 -6.592499999999999) rotate(-30) translate(-106.8125 6.592499999999999)">23</text>
    <text x="106.8056600402511" y="-6.5911162626681925" fill="black" text-anchor="middle" transform="translate(106.8056600402511 -6.5911162626681925) scale(0.00001 -0.00001) translate(-106.8056600402511 6.5911162626681925) translate(106.8125 -6.592499999999999) rotate(-30) translate(-106.8125 6.592499999999999)">23</text>
    <text x="106.80721460561917" y="-6.600832296218618" fill="black" text-anchor="middle" transform="translate(106.80721460561917 -6.600832296218618) scale(0.00001 -0.00001) translate(-106.80721460561917 6.600832296218618) translate(106.8125 -6.592499999999999) rotate(-30) translate(-106.8125 6.592499999999999)">23</text>
    <text x="106.80598779139976" y="-6.60254983612577" fill="black" text-anchor="middle" transform="translate(106.80598779139976 -6.60254983612577) scale(0.00001 -0.00001) translate(-106.80598779139976 6.60254983612577) translate(106.8125 -6.592499999999999) rotate(-30) translate(-106.8125 6.592499999999999)">23</text>
    <text x="106.80000929557413" y="-6.603839315617573" fill="black" text-anchor="middle" transform="translate(106.80000929557413 -6.603839315617573) scale(0.00001 -0.00001) translate(-106.80000929557413 6.603839315617573) translate(106.8125 -6.592499999999999) rotate(-30) translate(-106.8125 6.592499999999999)">23</text>
    <text x="106.79641993570662" y="-6.605695881066287" fill="black" text-anchor="middle" transform="translate(106.79641993570662 -6.605695881066287) scale(0.00001 -0.00001) translate(-106.79641993570662 6.605695881066287) translate(106.8125 -6.592499999999999) rotate(-30) translate(-106.8125 6.592499999999999)">23</text>
    <text x="106.79410514389325" y="-6.604152686524056" fill="black" text-anchor="middle" transform="translate(106.79410514389325 -6.604152686524056) scale(0.00001 -0.00001) translate(-106.79410514389325 6.604152686524056) translate(106.8125 -6.592499999999999) rotate(-30) translate(-106.8125 6.592499999999999)">23</text>
    <text x="106.79147079688828" y="-6.5965789388847105" fill="black" text-anchor="middle" transform="translate(106.79147079688828 -6.5965789388847105) scale(0.00001 -0.00001) translate(-106.79147079688828 6.5965789388847105) translate(106.8125 -6.592499999999999) rotate(-30) translate(-106.8125 6.592499999999999)">23</text>
    <text x="106.79293258355891" y="-6.592680841096342" fill="black" text-anchor="middle" transform="translate(106.79293258355891 -6.592680841096342) scale(0.00001 -0.00001) translate(-106.79293258355891 6.592680841096342) translate(106.8125 -6.592499999999999) rotate(-30) translate(-106.8125 6.592499999999999)">23</text>
    <text x="106.79675690191803" y="-6.590556219785722" fill="black" text-anchor="middle" transform="translate(106.79675690191803 -6.590556219785722) scale(0.00001 -0.00001) translate(-106.79675690191803 6.590556219785722) translate(106.8125 -6.592499999999999) rotate(-30) translate(-106.8125 6.592499999999999)">23</text>
    <text x="106.80220886783339" y="-6.590671216906437" fill="black" text-anchor="middle" transform="translate(106.80220886783339 -6.590671216906437) scale(0.00001 -0.00001) translate(-106.80220886783339 6.590671216906437) translate(106.8125 -6.592499999999999) rotate(-30) translate(-106.8125 6.592499999999999)">23</text>
    <text x="106.80141358715514" y="-6.589196429867608" fill="black" text-anchor="middle" transform="translate(106.80141358715514 -6.589196429867608) scale(0.00001 -0.00001) translate(-106.80141358715514 6.589196429867608) translate(106.8125 -6.592499999999999) rotate(-30) translate(-106.8125 6.592499999999999)">23</text>
    <line x1="106.8152" y1="-6.5704" x2="106.8176" y2="-6.5735" style="stroke:rgb(255,0,0);stroke-width:.00002" />
    <line x1="106.8176" y1="-6.5735" x2="106.8178" y2="-6.577" style="stroke:rgb(255,0,0);stroke-width:.00002" />
    <line x1="106.8178" y1="-6.577" x2="106.8184" y2="-6.5792" style="stroke:rgb(255,0,0);stroke-width:.00002" />
    <line x1="106.8184" y1="-6.5792" x2="106.8178" y2="-6.5819" style="stroke:rgb(255,0,0);stroke-width:.00002" />
    <line x1="106.8178" y1="-6.5819" x2="106.8132" y2="-6.5816" style="stroke:rgb(255,0,0);stroke-width:.00002" />
    <line x1="106.8132" y1="-6.5816" x2="106.811" y2="-6.5811" style="stroke:rgb(255,0,0);stroke-width:.00002" />
    <line x1="106.811" y1="-6.5811" x2="106.8067" y2="-6.5808" style="stroke:rgb(255,0,0);stroke-width:.00002" />
    <line x1="106.8067" y1="-6.5808" x2="106.8049" y2="-6.5886" style="stroke:rgb(255,0,0);stroke-width:.00002" />
    <line x1="106.8049" y1="-6.5886" x2="106.805904" y2="-6.588862" style="stroke:rgb(255,0,0);stroke-width:.00002" />
    <line x1="106.805904" y1="-6.588862" x2="106.805706" y2="-6.591276" style="stroke:rgb(255,0,0);stroke-width:.00002" />
    <line x1="106.805706" y1="-6.591276" x2="106.805701" y2="-6.592177" style="stroke:rgb(255,0,0);stroke-width:.00002" />
    <line x1="106.805701" y1="-6.592177" x2="106.8046" y2="-6.5922" style="stroke:rgb(255,0,0);stroke-width:.00002" />
    <line x1="106.8046" y1="-6.5922" x2="106.8044" y2="-6.5959" style="stroke:rgb(255,0,0);stroke-width:.00002" />
    <line x1="106.8044" y1="-6.5959" x2="106.8052" y2="-6.6009" style="stroke:rgb(255,0,0);stroke-width:.00002" />
    <line x1="106.8052" y1="-6.6009" x2="106.8047" y2="-6.6016" style="stroke:rgb(255,0,0);stroke-width:.00002" />
    <line x1="106.8047" y1="-6.6016" x2="106.7996" y2="-6.6027" style="stroke:rgb(255,0,0);stroke-width:.00002" />
    <line x1="106.7996" y1="-6.6027" x2="106.7967" y2="-6.6042" style="stroke:rgb(255,0,0);stroke-width:.00002" />
    <line x1="106.7967" y1="-6.6042" x2="106.7961" y2="-6.6038" style="stroke:rgb(255,0,0);stroke-width:.00002" />
    <line x1="106.7961" y1="-6.6038" x2="106.7937" y2="-6.5969" style="stroke:rgb(255,0,0);stroke-width:.00002" />
    <line x1="106.7937" y1="-6.5969" x2="106.7946" y2="-6.5945" style="stroke:rgb(255,0,0);stroke-width:.00002" />
    <line x1="106.7946" y1="-6.5945" x2="106.7973" y2="-6.593" style="stroke:rgb(255,0,0);stroke-width:.00002" />
    <line x1="106.7973" y1="-6.593" x2="106.7984" y2="-6.5935" style="stroke:rgb(255,0,0);stroke-width:.00002" />
    <line x1="106.7984" y1="-6.5935" x2="106.800814" y2="-6.592262" style="stroke:rgb(255,0,0);stroke-width:.00002" />
    <line x1="106.800814" y1="-6.592262" x2="106.801806" y2="-6.592667" style="stroke:rgb(255,0,0);stroke-width:.00002" />
    <line x1="106.801806" y1="-6.592667" x2="106.802112" y2="-6.591937" style="stroke:rgb(255,0,0);stroke-width:.00002" />
    <line x1="106.802112" y1="-6.591937" x2="106.802069" y2="-6.591191" style="stroke:rgb(255,0,0);stroke-width:.00002" />
    <line x1="106.802069" y1="-6.591191" x2="106.801645" y2="-6.589918" style="stroke:rgb(255,0,0);stroke-width:.00002" />
    <line x1="106.801645" y1="-6.589918" x2="106.8018" y2="-6.5893" style="stroke:rgb(255,0,0);stroke-width:.00002" />
    <line x1="106.8018" y1="-6.5893" x2="106.8005" y2="-6.588" style="stroke:rgb(255,0,0);stroke-width:.00002" />
    <line x1="106.8005" y1="-6.588" x2="106.7998" y2="-6.586" style="stroke:rgb(255,0,0);stroke-width:.00002" />
    <line x1="106.7998" y1="-6.586" x2="106.8004" y2="-6.5832" style="stroke:rgb(255,0,0);stroke-width:.00002" />
    <line x1="106.8004" y1="-6.5832" x2="106.801" y2="-6.5817" style="stroke:rgb(255,0,0);stroke-width:.00002" />
    <line x1="106.801" y1="-6.5817" x2="106.8018" y2="-6.5817" style="stroke:rgb(255,0,0);stroke-width:.00002" />
    <line x1="106.8018" y1="-6.5817" x2="106.8024" y2="-6.5766" style="stroke:rgb(255,0,0);stroke-width:.00002" />
    <line x1="106.8024" y1="-6.5766" x2="106.8045" y2="-6.5752" style="stroke:rgb(255,0,0);stroke-width:.00002" />
    <line x1="106.8045" y1="-6.5752" x2="106.8047" y2="-6.5744" style="stroke:rgb(255,0,0);stroke-width:.00002" />
    <line x1="106.8047" y1="-6.5744" x2="106.807" y2="-6.5728" style="stroke:rgb(255,0,0);stroke-width:.00002" />
    <line x1="106.807" y1="-6.5728" x2="106.8085" y2="-6.5701" style="stroke:rgb(255,0,0);stroke-width:.00002" />
    <line x1="106.8085" y1="-6.5701" x2="106.8075" y2="-6.5703" style="stroke:rgb(255,0,0);stroke-width:.00002" />
    <line x1="106.8075" y1="-6.5703" x2="106.8069" y2="-6.5695" style="stroke:rgb(255,0,0);stroke-width:.00002" />
    <line x1="106.8069" y1="-6.5695" x2="106.807" y2="-6.569" style="stroke:rgb(255,0,0);stroke-width:.00002" />
    <line x1="106.807" y1="-6.569" x2="106.8068" y2="-6.5685" style="stroke:rgb(255,0,0);stroke-width:.00002" />
    <line x1="106.8068" y1="-6.5685" x2="106.8074" y2="-6.5684" style="stroke:rgb(255,0,0);stroke-width:.00002" />
    <line x1="106.8074" y1="-6.5684" x2="106.8091" y2="-6.5689" style="stroke:rgb(255,0,0);stroke-width:.00002" />
    <line x1="106.8091" y1="-6.5689" x2="106.8152" y2="-6.5704" style="stroke:rgb(255,0,0);stroke-width:.00002" />
  </g>
</svg>
