<svg width="1049.9999999998977" height="1849.9999999999961" xmlns="http://www.w3.org/2000/svg" xmlns:xlink="http://www.w3.org/1999/xlink" >
  <g transform="translate(524.9999999999488 924.9999999999981) rotate(30) scale(10000 -10000) translate(-106.8125 6.592499999999999)">
    <path d="M106.76 -6.5 L106.865 -6.5 L106.865 -6.685 L106.76 -6.685 Z" fill="none" stroke="black" stroke-width="0.0005" transform="translate(106.8125 -6.592499999999999) rotate(30) translate(-106.8125 6.592499999999999)" />
    <path d="M106.80464148378762 -6.6014608732265065 L106.80528155054085 -6.600934596118293 L106.80697743555437 -6.60417584380686 L106.81293738072917 -6.60026600262339 L106.80740375626368 -6.604604364204331 L106.8099097511091 -6.607539400968804 L106.81311802771782 -6.6123016865598645 L106.81465259183237 -6.615822157175596 L106.81669165228512 -6.621159697772484 L106.81697992291367 -6.621736239029575 L106.81976919035172 -6.624027422996549 L106.82358448833068 -6.6282443312890935 L106.82578554467752 -6.633046636045819 L106.82756792033156 -6.635225095178524 L106.83536186047678 -6.640421055275339 L106.84247739996236 -6.646935281564967 L106.84368215686281 -6.648842813324014 L106.84498692112678 -6.650549043515349 L106.8469241468468 -6.655035250445909 L106.83733142492264 -6.661737571180903 L106.74488441684483 -6.55505490556615 L106.86009551253544 -6.5912357744501415 L106.8466321756557 -6.655333293389654 L106.84461313401789 -6.650551352668481 L106.84311430204103 -6.6486528321644744 L106.84241800145506 -6.6471607594802435 L106.83553822203693 -6.640978928698746 L106.8299438094178 -6.637182720135763 L106.82743596367318 -6.63547738502942 L106.82591691322123 -6.633958334577477 L106.8236145110615 -6.629053216932818 L106.82042843064404 -6.625070616411004 L106.81588339503409 -6.621333587131703 L106.81609375934116 -6.620702494210442 L106.81440636112858 -6.616335110601375 L106.81400818060487 -6.615240114161188 L106.81221434098015 -6.6117520926686755 L106.80952049589246 -6.607960755137848 L106.80603433242412 -6.603713245624693 L106.80522873668461 -6.601932978496636 Z" stroke="black" stroke-width="0.0001" fill="none" />
  </g>
</svg>
