<svg width="1450.0000000001023" height="1550.0000000000025" xmlns="http://www.w3.org/2000/svg" xmlns:xlink="http://www.w3.org/1999/xlink" >
  <g transform="translate(725.0000000000512 775.0000000000013) rotate(0) scale(10000 -10000) translate(-106.7975 6.592499999999999)">
    <path d="M106.725 -6.515 L106.87 -6.515 L106.87 -6.67 L106.725 -6.67 Z" fill="none" stroke="black" stroke-width="0.001" transform="translate(106.7975 -6.592499999999999) rotate(0) translate(-106.7975 6.592499999999999)" />
    <path d="M106.80614305008905 -6.600382142964036 L106.80634150566439 -6.6019697875667775 L106.80626720429984 -6.601375376650421 L106.80691618558605 -6.602500277546512 L106.80691618558605 -6.602500277546512 L106.80715608474543 -6.602916102756121 L106.80843258066109 -6.602144268016419 L106.80843258066109 -6.602144268016419 L106.83615794323202 -6.585380095299124 L106.80967346234436 -6.603919231920518 L106.80967346234436 -6.603919231920518 L106.80852643622826 -6.604722150201786 L106.80869543172004 -6.604943956784738 L106.80869543172004 -6.604943956784738 L106.8094546681134 -6.605940454551022 L106.80972426406872 -6.606492893218815 L106.81000710678119 -6.606775735931289 L106.81052169932059 -6.607290328470694 L106.8109211102551 -6.607528889744904 L106.8111429903336 -6.607861709862638 L106.81133374143809 -6.608147836519396 L106.81203140364876 -6.6099360632662165 L106.81247109684993 -6.610604396932011 L106.81353219286378 -6.612217262873052 L106.81430384615385 -6.614069230769232 L106.81430384615385 -6.614069230769232 L106.81505982062419 -6.615883569498045 L106.8155572073528 -6.6160869668383615 L106.81582627647039 -6.616840360367638 L106.81593962095522 -6.617157724925182 L106.81607318055137 -6.618666117973434 L106.81635172977505 -6.6194160581910415 L106.8168511617132 -6.620760682639921 L106.8168866563146 -6.6208316718426925 L106.8168866563146 -6.6208316718426925 L106.81713005630799 -6.62131847182946 L106.81672426406871 -6.621724264068718 L106.81672426406871 -6.621724264068718 L106.81717973196521 -6.62126879617223 L106.81630193053083 -6.621227895796234 L106.81699652504453 -6.621624806946916 L106.81701389459639 -6.621634732405143 L106.81842694788466 -6.622795454749095 L106.81842694788466 -6.622795454749095 L106.8198383807034 -6.623954845993054 L106.82174830715581 -6.626065817335207 L106.82174830715581 -6.626065817335207 L106.82366897666138 -6.628188662578187 L106.82478181296459 -6.630616669057901 L106.82478181296459 -6.630616669057901 L106.82587108935506 -6.632993272091677 L106.82675479145983 -6.634073352441948 L106.82675479145983 -6.634073352441948 L106.82763584066306 -6.635150190357006 L106.83151094003925 -6.637733589941132 L106.83151094003925 -6.637733589941132 L106.83542372095347 -6.640342110550607 L106.83898505081345 -6.64360248295763 L106.83898505081345 -6.64360248295763 L106.84255479992473 -6.6468705631299345 L106.84316909778059 -6.647843201401723 L106.84316909778059 -6.647843201401723 L106.84376431372549 -6.648785626647816 L106.84440887156659 -6.649628509978486 L106.84440887156659 -6.649628509978486 L106.84507384225351 -6.650498087030614 L106.8460336124707 -6.65272071279674 L106.8460336124707 -6.65272071279674 L106.8468 -6.655 L106.84566638752929 -6.65287928720326 L106.84566638752929 -6.65287928720326 L106.84472615774649 -6.650701912969414 L106.84409112843339 -6.649871490021514 L106.84409112843339 -6.649871490021514 L106.8434356862745 -6.649014373352187 L106.84283090221939 -6.648056798598277 L106.84283090221939 -6.648056798598277 L106.84224520007527 -6.647129436870064 L106.83871494918657 -6.6438975170423715 L106.83871494918657 -6.6438975170423715 L106.83517627904652 -6.6406578894493755 L106.83128905996075 -6.638066410058868 L106.83128905996075 -6.638066410058868 L106.82736415933694 -6.635449809642995 L106.82644520854016 -6.634326647558051 L106.82644520854016 -6.634326647558051 L106.82552891064493 -6.633206727908313 L106.82441818703542 -6.630783330942099 L106.82441818703542 -6.630783330942099 L106.82333102333861 -6.62841133742181 L106.82145169284416 -6.626334182664794 L106.82145169284416 -6.626334182664794 L106.81956161929656 -6.624245154006918 L106.81817305211533 -6.623104545250905 L106.81817305211533 -6.623104545250905 L106.81678610540371 -6.621965267594923 L106.81645077221233 -6.621773648628427 L106.81645077221233 -6.621773648628427 L106.81607751752085 -6.621560360233302 L106.81590857864374 -6.6216742640687105 L106.81562573593128 -6.621391421356234 L106.81511760321007 -6.620883288634817 L106.81576045012496 -6.62051642162492 L106.81614850712502 -6.620419407374905 L106.81550413485989 -6.620580500441476 L106.8150875448368 -6.6194589119177625 L106.8150875448368 -6.6194589119177625 L106.81443622742655 -6.617705365044019 L106.81382171154429 -6.617768648823356 L106.81341810786789 -6.616638558529443 L106.8133803587516 -6.616532861003882 L106.81290384615384 -6.614869230769229 L106.81275000000001 -6.614499999999999 L106.81211301189374 -6.612971228544981 L106.8111915896345 -6.61120677661763 L106.8109717430339 -6.610872609784732 L106.80983300684967 -6.609141730784688 L106.80942341972529 -6.609248460353209 L106.80897965956832 -6.608582820117741 L106.80896745101917 -6.608564507294005 L106.80958284271247 -6.608048528137425 L106.80845147186258 -6.606917157287525 L106.80839813275468 -6.606863818179629 L106.80758182731199 -6.6057924172861044 L106.80758182731199 -6.6057924172861044 L106.80682240706729 -6.6047956782149155 L106.80672811992152 -6.604732820117738 L106.80672811992152 -6.604732820117738 L106.80650027735844 -6.6045809250756875 L106.80570352576558 -6.603199888981395 L106.80570352576558 -6.603199888981395 L106.80504791905169 -6.602063504010631 L106.80536167777208 -6.600696485873629 L106.80496712020255 -6.600630726278707 L106.80644527157986 -6.600877084841574 L106.8057637334712 -6.601831238193721 L106.8057637334712 -6.601831238193721 L106.80452534120265 -6.603564987369623 Z" stroke="black" stroke-width="0.0002" fill="none" />
    <circle 
      cx="106.8468" cy="-12.655000000000001"
      r="15" transform="translate(106.8468 -6.655) scale(0.00001 -0.00001) translate(-106.8468 6.655) translate(106.7975 -6.592499999999999) rotate(0) translate(-106.7975 6.592499999999999)"
      fill="white" stroke="black" stroke-width="2"/>
    <circle 
      cx="106.8468" cy="-12.655000000000001"
      r="15" transform="translate(106.8468 -6.655) scale(0.00001 -0.00001) translate(-106.8468 6.655) translate(106.7975 -6.592499999999999) rotate(0) translate(-106.7975 6.592499999999999)"
      fill="white" stroke="none"/>
    <text x="106.8468" y="-6.655" fill="black" text-anchor="middle" transform="translate(106.8468 -6.655) scale(0.00001 -0.00001) translate(-106.8468 6.655) translate(106.7975 -6.592499999999999) rotate(0) translate(-106.7975 6.592499999999999)">21</text>
    <line x1="106.8052" y1="-6.6009" x2="106.8053" y2="-6.6017" style="stroke:rgb(255,0,0);stroke-width:.00002" />
    <line x1="106.8052" y1="-6.6009" x2="106.80515077221233" y2="-6.600506177698629" style="stroke:rgb(0,0,0);stroke-width:.00002" />
    <line x1="106.80515077221233" y1="-6.600506177698629" x2="106.80534922778767" y2="-6.602093822301371" style="stroke:rgb(0,0,0);stroke-width:.00002" />
    <line x1="106.80534922778767" y1="-6.602093822301371" x2="106.8053" y2="-6.6017" style="stroke:rgb(0,0,0);stroke-width:.00002" />
    <circle cx="106.8052" cy="-6.6009" fill="rgb(255,0,0)" r=".0001" />
    <text x="106.8052" y="-6.6009" stroke="rgb(0,0,0)" transform="translate(106.8052 -6.6009),scale(0.00001 -0.00001),translate(-106.8052 6.6009),translate(106.7975 -6.592499999999999),rotate(0),translate(-106.7975 6.592499999999999)" >kb-botani-1</text>
    <line x1="106.8053" y1="-6.6017" x2="106.8068" y2="-6.6043" style="stroke:rgb(255,0,0);stroke-width:.00002" />
    <line x1="106.8053" y1="-6.6017" x2="106.80605" y2="-6.603" style="stroke:rgb(0,0,0);stroke-width:.00002" />
    <line x1="106.80605" y1="-6.603" x2="106.80605" y2="-6.603" style="stroke:rgb(0,0,0);stroke-width:.00002" />
    <line x1="106.80605" y1="-6.603" x2="106.8068" y2="-6.6043" style="stroke:rgb(0,0,0);stroke-width:.00002" />
    <circle cx="106.8053" cy="-6.6017" fill="rgb(255,0,0)" r=".0001" />
    <text x="106.8053" y="-6.6017" stroke="rgb(0,0,0)" transform="translate(106.8053 -6.6017),scale(0.00001 -0.00001),translate(-106.8053 6.6017),translate(106.7975 -6.592499999999999),rotate(0),translate(-106.7975 6.592499999999999)" >pajajaran-otista</text>
    <line x1="106.8068" y1="-6.6043" x2="106.8111" y2="-6.6017" style="stroke:rgb(255,0,0);stroke-width:.00002" />
    <line x1="106.8068" y1="-6.6043" x2="106.80895" y2="-6.603" style="stroke:rgb(0,0,0);stroke-width:.00002" />
    <line x1="106.80895" y1="-6.603" x2="106.80895" y2="-6.603" style="stroke:rgb(0,0,0);stroke-width:.00002" />
    <line x1="106.80895" y1="-6.603" x2="106.8111" y2="-6.6017" style="stroke:rgb(0,0,0);stroke-width:.00002" />
    <circle cx="106.8068" cy="-6.6043" fill="rgb(255,0,0)" r=".0001" />
    <text x="106.8068" y="-6.6043" stroke="rgb(0,0,0)" transform="translate(106.8068 -6.6043),scale(0.00001 -0.00001),translate(-106.8068 6.6043),translate(106.7975 -6.592499999999999),rotate(0),translate(-106.7975 6.592499999999999)" >tol-1</text>
    <line x1="106.8111" y1="-6.6017" x2="106.8071" y2="-6.6045" style="stroke:rgb(255,0,0);stroke-width:.00002" />
    <line x1="106.8111" y1="-6.6017" x2="106.8091" y2="-6.6030999999999995" style="stroke:rgb(0,0,0);stroke-width:.00002" />
    <line x1="106.8091" y1="-6.6030999999999995" x2="106.8091" y2="-6.6030999999999995" style="stroke:rgb(0,0,0);stroke-width:.00002" />
    <line x1="106.8091" y1="-6.6030999999999995" x2="106.8071" y2="-6.6045" style="stroke:rgb(0,0,0);stroke-width:.00002" />
    <circle cx="106.8111" cy="-6.6017" fill="rgb(255,0,0)" r=".0001" />
    <text x="106.8111" y="-6.6017" stroke="rgb(0,0,0)" transform="translate(106.8111 -6.6017),scale(0.00001 -0.00001),translate(-106.8111 6.6017),translate(106.7975 -6.592499999999999),rotate(0),translate(-106.7975 6.592499999999999)" >tol-2</text>
    <line x1="106.8071" y1="-6.6045" x2="106.8087" y2="-6.6066" style="stroke:rgb(255,0,0);stroke-width:.00002" />
    <line x1="106.8071" y1="-6.6045" x2="106.8079" y2="-6.60555" style="stroke:rgb(0,0,0);stroke-width:.00002" />
    <line x1="106.8079" y1="-6.60555" x2="106.8079" y2="-6.60555" style="stroke:rgb(0,0,0);stroke-width:.00002" />
    <line x1="106.8079" y1="-6.60555" x2="106.8087" y2="-6.6066" style="stroke:rgb(0,0,0);stroke-width:.00002" />
    <circle cx="106.8071" cy="-6.6045" fill="rgb(255,0,0)" r=".0001" />
    <text x="106.8071" y="-6.6045" stroke="rgb(0,0,0)" transform="translate(106.8071 -6.6045),scale(0.00001 -0.00001),translate(-106.8071 6.6045),translate(106.7975 -6.592499999999999),rotate(0),translate(-106.7975 6.592499999999999)" >tol-3</text>
    <line x1="106.8087" y1="-6.6066" x2="106.8099" y2="-6.6078" style="stroke:rgb(255,0,0);stroke-width:.00002" />
    <line x1="106.8087" y1="-6.6066" x2="106.80915857864377" y2="-6.6070585786437634" style="stroke:rgb(0,0,0);stroke-width:.00002" />
    <line x1="106.80915857864377" y1="-6.6070585786437634" x2="106.80944142135624" y2="-6.607341421356238" style="stroke:rgb(0,0,0);stroke-width:.00002" />
    <line x1="106.80944142135624" y1="-6.607341421356238" x2="106.8099" y2="-6.6078" style="stroke:rgb(0,0,0);stroke-width:.00002" />
    <circle cx="106.8087" cy="-6.6066" fill="rgb(255,0,0)" r=".0001" />
    <text x="106.8087" y="-6.6066" stroke="rgb(0,0,0)" transform="translate(106.8087 -6.6066),scale(0.00001 -0.00001),translate(-106.8087 6.6066),translate(106.7975 -6.592499999999999),rotate(0),translate(-106.7975 6.592499999999999)" >bangka-1</text>
    <line x1="106.8099" y1="-6.6078" x2="106.8105" y2="-6.6087" style="stroke:rgb(255,0,0);stroke-width:.00002" />
    <line x1="106.8099" y1="-6.6078" x2="106.81008905996076" y2="-6.608083589941133" style="stroke:rgb(0,0,0);stroke-width:.00002" />
    <line x1="106.81008905996076" y1="-6.608083589941133" x2="106.81031094003926" y2="-6.608416410058867" style="stroke:rgb(0,0,0);stroke-width:.00002" />
    <line x1="106.81031094003926" y1="-6.608416410058867" x2="106.8105" y2="-6.6087" style="stroke:rgb(0,0,0);stroke-width:.00002" />
    <circle cx="106.8099" cy="-6.6078" fill="rgb(255,0,0)" r=".0001" />
    <text x="106.8099" y="-6.6078" stroke="rgb(0,0,0)" transform="translate(106.8099 -6.6078),scale(0.00001 -0.00001),translate(-106.8099 6.6078),translate(106.7975 -6.592499999999999),rotate(0),translate(-106.7975 6.592499999999999)" >pajajaran-ciheuleut</text>
    <line x1="106.8105" y1="-6.6087" x2="106.813" y2="-6.6125" style="stroke:rgb(255,0,0);stroke-width:.00002" />
    <line x1="106.8105" y1="-6.6087" x2="106.81153015339942" y2="-6.6102658331671025" style="stroke:rgb(0,0,0);stroke-width:.00002" />
    <line x1="106.81153015339942" y1="-6.6102658331671025" x2="106.81196984660059" y2="-6.610934166832897" style="stroke:rgb(0,0,0);stroke-width:.00002" />
    <line x1="106.81196984660059" y1="-6.610934166832897" x2="106.813" y2="-6.6125" style="stroke:rgb(0,0,0);stroke-width:.00002" />
    <circle cx="106.8105" cy="-6.6087" fill="rgb(255,0,0)" r=".0001" />
    <text x="106.8105" y="-6.6087" stroke="rgb(0,0,0)" transform="translate(106.8105 -6.6087),scale(0.00001 -0.00001),translate(-106.8105 6.6087),translate(106.7975 -6.592499999999999),rotate(0),translate(-106.7975 6.592499999999999)" >pajajaran-michelle-bakery</text>
    <line x1="106.813" y1="-6.6125" x2="106.8145" y2="-6.6161" style="stroke:rgb(255,0,0);stroke-width:.00002" />
    <line x1="106.813" y1="-6.6125" x2="106.81375" y2="-6.6143" style="stroke:rgb(0,0,0);stroke-width:.00002" />
    <line x1="106.81375" y1="-6.6143" x2="106.81375" y2="-6.6143" style="stroke:rgb(0,0,0);stroke-width:.00002" />
    <line x1="106.81375" y1="-6.6143" x2="106.8145" y2="-6.6161" style="stroke:rgb(0,0,0);stroke-width:.00002" />
    <circle cx="106.813" cy="-6.6125" fill="rgb(255,0,0)" r=".0001" />
    <text x="106.813" y="-6.6125" stroke="rgb(0,0,0)" transform="translate(106.813 -6.6125),scale(0.00001 -0.00001),translate(-106.813 6.6125),translate(106.7975 -6.592499999999999),rotate(0),translate(-106.7975 6.592499999999999)" >pajajaran-pjjindah</text>
    <line x1="106.8145" y1="-6.6161" x2="106.815" y2="-6.6175" style="stroke:rgb(255,0,0);stroke-width:.00002" />
    <line x1="106.8145" y1="-6.6161" x2="106.81461546544121" y2="-6.616423303235361" style="stroke:rgb(0,0,0);stroke-width:.00002" />
    <line x1="106.81461546544121" y1="-6.616423303235361" x2="106.8148845345588" y2="-6.617176696764638" style="stroke:rgb(0,0,0);stroke-width:.00002" />
    <line x1="106.8148845345588" y1="-6.617176696764638" x2="106.815" y2="-6.6175" style="stroke:rgb(0,0,0);stroke-width:.00002" />
    <circle cx="106.8145" cy="-6.6161" fill="rgb(255,0,0)" r=".0001" />
    <text x="106.8145" y="-6.6161" stroke="rgb(0,0,0)" transform="translate(106.8145 -6.6161),scale(0.00001 -0.00001),translate(-106.8145 6.6161),translate(106.7975 -6.592499999999999),rotate(0),translate(-106.7975 6.592499999999999)" >pajajaran-durian</text>
    <line x1="106.815" y1="-6.6175" x2="106.8163" y2="-6.621" style="stroke:rgb(255,0,0);stroke-width:.00002" />
    <line x1="106.815" y1="-6.6175" x2="106.81551072538817" y2="-6.618875029891196" style="stroke:rgb(0,0,0);stroke-width:.00002" />
    <line x1="106.81551072538817" y1="-6.618875029891196" x2="106.81578927461184" y2="-6.619624970108804" style="stroke:rgb(0,0,0);stroke-width:.00002" />
    <line x1="106.81578927461184" y1="-6.619624970108804" x2="106.8163" y2="-6.621" style="stroke:rgb(0,0,0);stroke-width:.00002" />
    <circle cx="106.815" cy="-6.6175" fill="rgb(255,0,0)" r=".0001" />
    <text x="106.815" y="-6.6175" stroke="rgb(0,0,0)" transform="translate(106.815 -6.6175),scale(0.00001 -0.00001),translate(-106.815 6.6175),translate(106.7975 -6.592499999999999),rotate(0),translate(-106.7975 6.592499999999999)" >pajajaran-ggmesjid</text>
    <line x1="106.8163" y1="-6.621" x2="106.8164" y2="-6.6212" style="stroke:rgb(255,0,0);stroke-width:.00002" />
    <line x1="106.8163" y1="-6.621" x2="106.81635" y2="-6.6211" style="stroke:rgb(0,0,0);stroke-width:.00002" />
    <line x1="106.81635" y1="-6.6211" x2="106.81635" y2="-6.6211" style="stroke:rgb(0,0,0);stroke-width:.00002" />
    <line x1="106.81635" y1="-6.6211" x2="106.8164" y2="-6.6212" style="stroke:rgb(0,0,0);stroke-width:.00002" />
    <circle cx="106.8163" cy="-6.621" fill="rgb(255,0,0)" r=".0001" />
    <text x="106.8163" y="-6.621" stroke="rgb(0,0,0)" transform="translate(106.8163 -6.621),scale(0.00001 -0.00001),translate(-106.8163 6.621),translate(106.7975 -6.592499999999999),rotate(0),translate(-106.7975 6.592499999999999)" >lippo-n</text>
    <line x1="106.8164" y1="-6.6212" x2="106.8162" y2="-6.6214" style="stroke:rgb(255,0,0);stroke-width:.00002" />
    <line x1="106.8164" y1="-6.6212" x2="106.8163" y2="-6.6213" style="stroke:rgb(0,0,0);stroke-width:.00002" />
    <line x1="106.8163" y1="-6.6213" x2="106.8163" y2="-6.6213" style="stroke:rgb(0,0,0);stroke-width:.00002" />
    <line x1="106.8163" y1="-6.6213" x2="106.8162" y2="-6.6214" style="stroke:rgb(0,0,0);stroke-width:.00002" />
    <circle cx="106.8164" cy="-6.6212" fill="rgb(255,0,0)" r=".0001" />
    <text x="106.8164" y="-6.6212" stroke="rgb(0,0,0)" transform="translate(106.8164 -6.6212),scale(0.00001 -0.00001),translate(-106.8164 6.6212),translate(106.7975 -6.592499999999999),rotate(0),translate(-106.7975 6.592499999999999)" >lippo-e</text>
    <line x1="106.8162" y1="-6.6214" x2="106.8169" y2="-6.6218" style="stroke:rgb(255,0,0);stroke-width:.00002" />
    <line x1="106.8162" y1="-6.6214" x2="106.81620270274315" y2="-6.62140154442466" style="stroke:rgb(0,0,0);stroke-width:.00002" />
    <line x1="106.81620270274315" y1="-6.62140154442466" x2="106.81689729725686" y2="-6.621798455575342" style="stroke:rgb(0,0,0);stroke-width:.00002" />
    <line x1="106.81689729725686" y1="-6.621798455575342" x2="106.8169" y2="-6.6218" style="stroke:rgb(0,0,0);stroke-width:.00002" />
    <circle cx="106.8162" cy="-6.6214" fill="rgb(255,0,0)" r=".0001" />
    <text x="106.8162" y="-6.6214" stroke="rgb(0,0,0)" transform="translate(106.8162 -6.6214),scale(0.00001 -0.00001),translate(-106.8162 6.6214),translate(106.7975 -6.592499999999999),rotate(0),translate(-106.7975 6.592499999999999)" >lippo-s</text>
    <line x1="106.8169" y1="-6.6218" x2="106.8197" y2="-6.6241" style="stroke:rgb(255,0,0);stroke-width:.00002" />
    <line x1="106.8169" y1="-6.6218" x2="106.8183" y2="-6.62295" style="stroke:rgb(0,0,0);stroke-width:.00002" />
    <line x1="106.8183" y1="-6.62295" x2="106.8183" y2="-6.62295" style="stroke:rgb(0,0,0);stroke-width:.00002" />
    <line x1="106.8183" y1="-6.62295" x2="106.8197" y2="-6.6241" style="stroke:rgb(0,0,0);stroke-width:.00002" />
    <circle cx="106.8169" cy="-6.6218" fill="rgb(255,0,0)" r=".0001" />
    <text x="106.8169" y="-6.6218" stroke="rgb(0,0,0)" transform="translate(106.8169 -6.6218),scale(0.00001 -0.00001),translate(-106.8169 6.6218),translate(106.7975 -6.592499999999999),rotate(0),translate(-106.7975 6.592499999999999)" >line-21-11</text>
    <line x1="106.8197" y1="-6.6241" x2="106.8235" y2="-6.6283" style="stroke:rgb(255,0,0);stroke-width:.00002" />
    <line x1="106.8197" y1="-6.6241" x2="106.82159999999999" y2="-6.626200000000001" style="stroke:rgb(0,0,0);stroke-width:.00002" />
    <line x1="106.82159999999999" y1="-6.626200000000001" x2="106.82159999999999" y2="-6.626200000000001" style="stroke:rgb(0,0,0);stroke-width:.00002" />
    <line x1="106.82159999999999" y1="-6.626200000000001" x2="106.8235" y2="-6.6283" style="stroke:rgb(0,0,0);stroke-width:.00002" />
    <circle cx="106.8197" cy="-6.6241" fill="rgb(255,0,0)" r=".0001" />
    <text x="106.8197" y="-6.6241" stroke="rgb(0,0,0)" transform="translate(106.8197 -6.6241),scale(0.00001 -0.00001),translate(-106.8197 6.6241),translate(106.7975 -6.592499999999999),rotate(0),translate(-106.7975 6.592499999999999)" >line-21-12</text>
    <line x1="106.8235" y1="-6.6283" x2="106.8257" y2="-6.6331" style="stroke:rgb(255,0,0);stroke-width:.00002" />
    <line x1="106.8235" y1="-6.6283" x2="106.8246" y2="-6.6307" style="stroke:rgb(0,0,0);stroke-width:.00002" />
    <line x1="106.8246" y1="-6.6307" x2="106.8246" y2="-6.6307" style="stroke:rgb(0,0,0);stroke-width:.00002" />
    <line x1="106.8246" y1="-6.6307" x2="106.8257" y2="-6.6331" style="stroke:rgb(0,0,0);stroke-width:.00002" />
    <circle cx="106.8235" cy="-6.6283" fill="rgb(255,0,0)" r=".0001" />
    <text x="106.8235" y="-6.6283" stroke="rgb(0,0,0)" transform="translate(106.8235 -6.6283),scale(0.00001 -0.00001),translate(-106.8235 6.6283),translate(106.7975 -6.592499999999999),rotate(0),translate(-106.7975 6.592499999999999)" >line-21-13</text>
    <line x1="106.8257" y1="-6.6331" x2="106.8275" y2="-6.6353" style="stroke:rgb(255,0,0);stroke-width:.00002" />
    <line x1="106.8257" y1="-6.6331" x2="106.8266" y2="-6.6342" style="stroke:rgb(0,0,0);stroke-width:.00002" />
    <line x1="106.8266" y1="-6.6342" x2="106.8266" y2="-6.6342" style="stroke:rgb(0,0,0);stroke-width:.00002" />
    <line x1="106.8266" y1="-6.6342" x2="106.8275" y2="-6.6353" style="stroke:rgb(0,0,0);stroke-width:.00002" />
    <circle cx="106.8257" cy="-6.6331" fill="rgb(255,0,0)" r=".0001" />
    <text x="106.8257" y="-6.6331" stroke="rgb(0,0,0)" transform="translate(106.8257 -6.6331),scale(0.00001 -0.00001),translate(-106.8257 6.6331),translate(106.7975 -6.592499999999999),rotate(0),translate(-106.7975 6.592499999999999)" >line-21-14</text>
    <line x1="106.8275" y1="-6.6353" x2="106.8353" y2="-6.6405" style="stroke:rgb(255,0,0);stroke-width:.00002" />
    <line x1="106.8275" y1="-6.6353" x2="106.8314" y2="-6.6379" style="stroke:rgb(0,0,0);stroke-width:.00002" />
    <line x1="106.8314" y1="-6.6379" x2="106.8314" y2="-6.6379" style="stroke:rgb(0,0,0);stroke-width:.00002" />
    <line x1="106.8314" y1="-6.6379" x2="106.8353" y2="-6.6405" style="stroke:rgb(0,0,0);stroke-width:.00002" />
    <circle cx="106.8275" cy="-6.6353" fill="rgb(255,0,0)" r=".0001" />
    <text x="106.8275" y="-6.6353" stroke="rgb(0,0,0)" transform="translate(106.8275 -6.6353),scale(0.00001 -0.00001),translate(-106.8275 6.6353),translate(106.7975 -6.592499999999999),rotate(0),translate(-106.7975 6.592499999999999)" >line-21-15</text>
    <line x1="106.8353" y1="-6.6405" x2="106.8424" y2="-6.647" style="stroke:rgb(255,0,0);stroke-width:.00002" />
    <line x1="106.8353" y1="-6.6405" x2="106.83885000000001" y2="-6.643750000000001" style="stroke:rgb(0,0,0);stroke-width:.00002" />
    <line x1="106.83885000000001" y1="-6.643750000000001" x2="106.83885000000001" y2="-6.643750000000001" style="stroke:rgb(0,0,0);stroke-width:.00002" />
    <line x1="106.83885000000001" y1="-6.643750000000001" x2="106.8424" y2="-6.647" style="stroke:rgb(0,0,0);stroke-width:.00002" />
    <circle cx="106.8353" cy="-6.6405" fill="rgb(255,0,0)" r=".0001" />
    <text x="106.8353" y="-6.6405" stroke="rgb(0,0,0)" transform="translate(106.8353 -6.6405),scale(0.00001 -0.00001),translate(-106.8353 6.6405),translate(106.7975 -6.592499999999999),rotate(0),translate(-106.7975 6.592499999999999)" >line-21-16</text>
    <line x1="106.8424" y1="-6.647" x2="106.8436" y2="-6.6489" style="stroke:rgb(255,0,0);stroke-width:.00002" />
    <line x1="106.8424" y1="-6.647" x2="106.84299999999999" y2="-6.64795" style="stroke:rgb(0,0,0);stroke-width:.00002" />
    <line x1="106.84299999999999" y1="-6.64795" x2="106.84299999999999" y2="-6.64795" style="stroke:rgb(0,0,0);stroke-width:.00002" />
    <line x1="106.84299999999999" y1="-6.64795" x2="106.8436" y2="-6.6489" style="stroke:rgb(0,0,0);stroke-width:.00002" />
    <circle cx="106.8424" cy="-6.647" fill="rgb(255,0,0)" r=".0001" />
    <text x="106.8424" y="-6.647" stroke="rgb(0,0,0)" transform="translate(106.8424 -6.647),scale(0.00001 -0.00001),translate(-106.8424 6.647),translate(106.7975 -6.592499999999999),rotate(0),translate(-106.7975 6.592499999999999)" >line-21-17</text>
    <line x1="106.8436" y1="-6.6489" x2="106.8449" y2="-6.6506" style="stroke:rgb(255,0,0);stroke-width:.00002" />
    <line x1="106.8436" y1="-6.6489" x2="106.84424999999999" y2="-6.64975" style="stroke:rgb(0,0,0);stroke-width:.00002" />
    <line x1="106.84424999999999" y1="-6.64975" x2="106.84424999999999" y2="-6.64975" style="stroke:rgb(0,0,0);stroke-width:.00002" />
    <line x1="106.84424999999999" y1="-6.64975" x2="106.8449" y2="-6.6506" style="stroke:rgb(0,0,0);stroke-width:.00002" />
    <circle cx="106.8436" cy="-6.6489" fill="rgb(255,0,0)" r=".0001" />
    <text x="106.8436" y="-6.6489" stroke="rgb(0,0,0)" transform="translate(106.8436 -6.6489),scale(0.00001 -0.00001),translate(-106.8436 6.6489),translate(106.7975 -6.592499999999999),rotate(0),translate(-106.7975 6.592499999999999)" >line-21-18</text>
    <line x1="106.8449" y1="-6.6506" x2="106.8468" y2="-6.655" style="stroke:rgb(255,0,0);stroke-width:.00002" />
    <line x1="106.8449" y1="-6.6506" x2="106.84585" y2="-6.6528" style="stroke:rgb(0,0,0);stroke-width:.00002" />
    <line x1="106.84585" y1="-6.6528" x2="106.84585" y2="-6.6528" style="stroke:rgb(0,0,0);stroke-width:.00002" />
    <line x1="106.84585" y1="-6.6528" x2="106.8468" y2="-6.655" style="stroke:rgb(0,0,0);stroke-width:.00002" />
    <circle cx="106.8449" cy="-6.6506" fill="rgb(255,0,0)" r=".0001" />
    <text x="106.8449" y="-6.6506" stroke="rgb(0,0,0)" transform="translate(106.8449 -6.6506),scale(0.00001 -0.00001),translate(-106.8449 6.6506),translate(106.7975 -6.592499999999999),rotate(0),translate(-106.7975 6.592499999999999)" >line-21-19</text>
    <line x1="106.8468" y1="-6.655" x2="106.8449" y2="-6.6506" style="stroke:rgb(255,0,0);stroke-width:.00002" />
    <line x1="106.8468" y1="-6.655" x2="106.84585" y2="-6.6528" style="stroke:rgb(0,0,0);stroke-width:.00002" />
    <line x1="106.84585" y1="-6.6528" x2="106.84585" y2="-6.6528" style="stroke:rgb(0,0,0);stroke-width:.00002" />
    <line x1="106.84585" y1="-6.6528" x2="106.8449" y2="-6.6506" style="stroke:rgb(0,0,0);stroke-width:.00002" />
    <circle cx="106.8468" cy="-6.655" fill="rgb(255,0,0)" r=".0001" />
    <text x="106.8468" y="-6.655" stroke="rgb(0,0,0)" transform="translate(106.8468 -6.655),scale(0.00001 -0.00001),translate(-106.8468 6.655),translate(106.7975 -6.592499999999999),rotate(0),translate(-106.7975 6.592499999999999)" >line-21-20</text>
    <line x1="106.8449" y1="-6.6506" x2="106.8436" y2="-6.6489" style="stroke:rgb(255,0,0);stroke-width:.00002" />
    <line x1="106.8449" y1="-6.6506" x2="106.84424999999999" y2="-6.64975" style="stroke:rgb(0,0,0);stroke-width:.00002" />
    <line x1="106.84424999999999" y1="-6.64975" x2="106.84424999999999" y2="-6.64975" style="stroke:rgb(0,0,0);stroke-width:.00002" />
    <line x1="106.84424999999999" y1="-6.64975" x2="106.8436" y2="-6.6489" style="stroke:rgb(0,0,0);stroke-width:.00002" />
    <circle cx="106.8449" cy="-6.6506" fill="rgb(255,0,0)" r=".0001" />
    <text x="106.8449" y="-6.6506" stroke="rgb(0,0,0)" transform="translate(106.8449 -6.6506),scale(0.00001 -0.00001),translate(-106.8449 6.6506),translate(106.7975 -6.592499999999999),rotate(0),translate(-106.7975 6.592499999999999)" >line-21-19</text>
    <line x1="106.8436" y1="-6.6489" x2="106.8424" y2="-6.647" style="stroke:rgb(255,0,0);stroke-width:.00002" />
    <line x1="106.8436" y1="-6.6489" x2="106.84299999999999" y2="-6.64795" style="stroke:rgb(0,0,0);stroke-width:.00002" />
    <line x1="106.84299999999999" y1="-6.64795" x2="106.84299999999999" y2="-6.64795" style="stroke:rgb(0,0,0);stroke-width:.00002" />
    <line x1="106.84299999999999" y1="-6.64795" x2="106.8424" y2="-6.647" style="stroke:rgb(0,0,0);stroke-width:.00002" />
    <circle cx="106.8436" cy="-6.6489" fill="rgb(255,0,0)" r=".0001" />
    <text x="106.8436" y="-6.6489" stroke="rgb(0,0,0)" transform="translate(106.8436 -6.6489),scale(0.00001 -0.00001),translate(-106.8436 6.6489),translate(106.7975 -6.592499999999999),rotate(0),translate(-106.7975 6.592499999999999)" >line-21-18</text>
    <line x1="106.8424" y1="-6.647" x2="106.8353" y2="-6.6405" style="stroke:rgb(255,0,0);stroke-width:.00002" />
    <line x1="106.8424" y1="-6.647" x2="106.83885000000001" y2="-6.643750000000001" style="stroke:rgb(0,0,0);stroke-width:.00002" />
    <line x1="106.83885000000001" y1="-6.643750000000001" x2="106.83885000000001" y2="-6.643750000000001" style="stroke:rgb(0,0,0);stroke-width:.00002" />
    <line x1="106.83885000000001" y1="-6.643750000000001" x2="106.8353" y2="-6.6405" style="stroke:rgb(0,0,0);stroke-width:.00002" />
    <circle cx="106.8424" cy="-6.647" fill="rgb(255,0,0)" r=".0001" />
    <text x="106.8424" y="-6.647" stroke="rgb(0,0,0)" transform="translate(106.8424 -6.647),scale(0.00001 -0.00001),translate(-106.8424 6.647),translate(106.7975 -6.592499999999999),rotate(0),translate(-106.7975 6.592499999999999)" >line-21-17</text>
    <line x1="106.8353" y1="-6.6405" x2="106.8275" y2="-6.6353" style="stroke:rgb(255,0,0);stroke-width:.00002" />
    <line x1="106.8353" y1="-6.6405" x2="106.8314" y2="-6.6379" style="stroke:rgb(0,0,0);stroke-width:.00002" />
    <line x1="106.8314" y1="-6.6379" x2="106.8314" y2="-6.6379" style="stroke:rgb(0,0,0);stroke-width:.00002" />
    <line x1="106.8314" y1="-6.6379" x2="106.8275" y2="-6.6353" style="stroke:rgb(0,0,0);stroke-width:.00002" />
    <circle cx="106.8353" cy="-6.6405" fill="rgb(255,0,0)" r=".0001" />
    <text x="106.8353" y="-6.6405" stroke="rgb(0,0,0)" transform="translate(106.8353 -6.6405),scale(0.00001 -0.00001),translate(-106.8353 6.6405),translate(106.7975 -6.592499999999999),rotate(0),translate(-106.7975 6.592499999999999)" >line-21-16</text>
    <line x1="106.8275" y1="-6.6353" x2="106.8257" y2="-6.6331" style="stroke:rgb(255,0,0);stroke-width:.00002" />
    <line x1="106.8275" y1="-6.6353" x2="106.8266" y2="-6.6342" style="stroke:rgb(0,0,0);stroke-width:.00002" />
    <line x1="106.8266" y1="-6.6342" x2="106.8266" y2="-6.6342" style="stroke:rgb(0,0,0);stroke-width:.00002" />
    <line x1="106.8266" y1="-6.6342" x2="106.8257" y2="-6.6331" style="stroke:rgb(0,0,0);stroke-width:.00002" />
    <circle cx="106.8275" cy="-6.6353" fill="rgb(255,0,0)" r=".0001" />
    <text x="106.8275" y="-6.6353" stroke="rgb(0,0,0)" transform="translate(106.8275 -6.6353),scale(0.00001 -0.00001),translate(-106.8275 6.6353),translate(106.7975 -6.592499999999999),rotate(0),translate(-106.7975 6.592499999999999)" >line-21-15</text>
    <line x1="106.8257" y1="-6.6331" x2="106.8235" y2="-6.6283" style="stroke:rgb(255,0,0);stroke-width:.00002" />
    <line x1="106.8257" y1="-6.6331" x2="106.8246" y2="-6.6307" style="stroke:rgb(0,0,0);stroke-width:.00002" />
    <line x1="106.8246" y1="-6.6307" x2="106.8246" y2="-6.6307" style="stroke:rgb(0,0,0);stroke-width:.00002" />
    <line x1="106.8246" y1="-6.6307" x2="106.8235" y2="-6.6283" style="stroke:rgb(0,0,0);stroke-width:.00002" />
    <circle cx="106.8257" cy="-6.6331" fill="rgb(255,0,0)" r=".0001" />
    <text x="106.8257" y="-6.6331" stroke="rgb(0,0,0)" transform="translate(106.8257 -6.6331),scale(0.00001 -0.00001),translate(-106.8257 6.6331),translate(106.7975 -6.592499999999999),rotate(0),translate(-106.7975 6.592499999999999)" >line-21-14</text>
    <line x1="106.8235" y1="-6.6283" x2="106.8197" y2="-6.6241" style="stroke:rgb(255,0,0);stroke-width:.00002" />
    <line x1="106.8235" y1="-6.6283" x2="106.82159999999999" y2="-6.626200000000001" style="stroke:rgb(0,0,0);stroke-width:.00002" />
    <line x1="106.82159999999999" y1="-6.626200000000001" x2="106.82159999999999" y2="-6.626200000000001" style="stroke:rgb(0,0,0);stroke-width:.00002" />
    <line x1="106.82159999999999" y1="-6.626200000000001" x2="106.8197" y2="-6.6241" style="stroke:rgb(0,0,0);stroke-width:.00002" />
    <circle cx="106.8235" cy="-6.6283" fill="rgb(255,0,0)" r=".0001" />
    <text x="106.8235" y="-6.6283" stroke="rgb(0,0,0)" transform="translate(106.8235 -6.6283),scale(0.00001 -0.00001),translate(-106.8235 6.6283),translate(106.7975 -6.592499999999999),rotate(0),translate(-106.7975 6.592499999999999)" >line-21-13</text>
    <line x1="106.8197" y1="-6.6241" x2="106.8169" y2="-6.6218" style="stroke:rgb(255,0,0);stroke-width:.00002" />
    <line x1="106.8197" y1="-6.6241" x2="106.8183" y2="-6.62295" style="stroke:rgb(0,0,0);stroke-width:.00002" />
    <line x1="106.8183" y1="-6.62295" x2="106.8183" y2="-6.62295" style="stroke:rgb(0,0,0);stroke-width:.00002" />
    <line x1="106.8183" y1="-6.62295" x2="106.8169" y2="-6.6218" style="stroke:rgb(0,0,0);stroke-width:.00002" />
    <circle cx="106.8197" cy="-6.6241" fill="rgb(255,0,0)" r=".0001" />
    <text x="106.8197" y="-6.6241" stroke="rgb(0,0,0)" transform="translate(106.8197 -6.6241),scale(0.00001 -0.00001),translate(-106.8197 6.6241),translate(106.7975 -6.592499999999999),rotate(0),translate(-106.7975 6.592499999999999)" >line-21-12</text>
    <line x1="106.8169" y1="-6.6218" x2="106.8162" y2="-6.6214" style="stroke:rgb(255,0,0);stroke-width:.00002" />
    <line x1="106.8169" y1="-6.6218" x2="106.81655" y2="-6.621600000000001" style="stroke:rgb(0,0,0);stroke-width:.00002" />
    <line x1="106.81655" y1="-6.621600000000001" x2="106.81655" y2="-6.621600000000001" style="stroke:rgb(0,0,0);stroke-width:.00002" />
    <line x1="106.81655" y1="-6.621600000000001" x2="106.8162" y2="-6.6214" style="stroke:rgb(0,0,0);stroke-width:.00002" />
    <circle cx="106.8169" cy="-6.6218" fill="rgb(255,0,0)" r=".0001" />
    <text x="106.8169" y="-6.6218" stroke="rgb(0,0,0)" transform="translate(106.8169 -6.6218),scale(0.00001 -0.00001),translate(-106.8169 6.6218),translate(106.7975 -6.592499999999999),rotate(0),translate(-106.7975 6.592499999999999)" >line-21-11</text>
    <line x1="106.8162" y1="-6.6214" x2="106.8159" y2="-6.6211" style="stroke:rgb(255,0,0);stroke-width:.00002" />
    <line x1="106.8162" y1="-6.6214" x2="106.81619142135622" y2="-6.621391421356238" style="stroke:rgb(0,0,0);stroke-width:.00002" />
    <line x1="106.81619142135622" y1="-6.621391421356238" x2="106.81590857864376" y2="-6.621108578643762" style="stroke:rgb(0,0,0);stroke-width:.00002" />
    <line x1="106.81590857864376" y1="-6.621108578643762" x2="106.8159" y2="-6.6211" style="stroke:rgb(0,0,0);stroke-width:.00002" />
    <circle cx="106.8162" cy="-6.6214" fill="rgb(255,0,0)" r=".0001" />
    <text x="106.8162" y="-6.6214" stroke="rgb(0,0,0)" transform="translate(106.8162 -6.6214),scale(0.00001 -0.00001),translate(-106.8162 6.6214),translate(106.7975 -6.592499999999999),rotate(0),translate(-106.7975 6.592499999999999)" >lippo-s</text>
    <line x1="106.8159" y1="-6.6211" x2="106.8163" y2="-6.621" style="stroke:rgb(255,0,0);stroke-width:.00002" />
    <line x1="106.8159" y1="-6.6211" x2="106.81590597149997" y2="-6.621098507125008" style="stroke:rgb(0,0,0);stroke-width:.00002" />
    <line x1="106.81590597149997" y1="-6.621098507125008" x2="106.81629402850004" y2="-6.621001492874993" style="stroke:rgb(0,0,0);stroke-width:.00002" />
    <line x1="106.81629402850004" y1="-6.621001492874993" x2="106.8163" y2="-6.621" style="stroke:rgb(0,0,0);stroke-width:.00002" />
    <circle cx="106.8159" cy="-6.6211" fill="rgb(255,0,0)" r=".0001" />
    <text x="106.8159" y="-6.6211" stroke="rgb(0,0,0)" transform="translate(106.8159 -6.6211),scale(0.00001 -0.00001),translate(-106.8159 6.6211),translate(106.7975 -6.592499999999999),rotate(0),translate(-106.7975 6.592499999999999)" >lippo-w</text>
    <line x1="106.8163" y1="-6.621" x2="106.815" y2="-6.6175" style="stroke:rgb(255,0,0);stroke-width:.00002" />
    <line x1="106.8163" y1="-6.621" x2="106.81565" y2="-6.61925" style="stroke:rgb(0,0,0);stroke-width:.00002" />
    <line x1="106.81565" y1="-6.61925" x2="106.81565" y2="-6.61925" style="stroke:rgb(0,0,0);stroke-width:.00002" />
    <line x1="106.81565" y1="-6.61925" x2="106.815" y2="-6.6175" style="stroke:rgb(0,0,0);stroke-width:.00002" />
    <circle cx="106.8163" cy="-6.621" fill="rgb(255,0,0)" r=".0001" />
    <text x="106.8163" y="-6.621" stroke="rgb(0,0,0)" transform="translate(106.8163 -6.621),scale(0.00001 -0.00001),translate(-106.8163 6.621),translate(106.7975 -6.592499999999999),rotate(0),translate(-106.7975 6.592499999999999)" >lippo-n</text>
    <line x1="106.815" y1="-6.6175" x2="106.8145" y2="-6.6161" style="stroke:rgb(255,0,0);stroke-width:.00002" />
    <line x1="106.815" y1="-6.6175" x2="106.8149518018382" y2="-6.617365045146956" style="stroke:rgb(0,0,0);stroke-width:.00002" />
    <line x1="106.8149518018382" y1="-6.617365045146956" x2="106.8145481981618" y2="-6.616234954853043" style="stroke:rgb(0,0,0);stroke-width:.00002" />
    <line x1="106.8145481981618" y1="-6.616234954853043" x2="106.8145" y2="-6.6161" style="stroke:rgb(0,0,0);stroke-width:.00002" />
    <circle cx="106.815" cy="-6.6175" fill="rgb(255,0,0)" r=".0001" />
    <text x="106.815" y="-6.6175" stroke="rgb(0,0,0)" transform="translate(106.815 -6.6175),scale(0.00001 -0.00001),translate(-106.815 6.6175),translate(106.7975 -6.592499999999999),rotate(0),translate(-106.7975 6.592499999999999)" >pajajaran-ggmesjid</text>
    <line x1="106.8145" y1="-6.6161" x2="106.813" y2="-6.6125" style="stroke:rgb(255,0,0);stroke-width:.00002" />
    <line x1="106.8145" y1="-6.6161" x2="106.81382692307692" y2="-6.614484615384615" style="stroke:rgb(0,0,0);stroke-width:.00002" />
    <line x1="106.81382692307692" y1="-6.614484615384615" x2="106.81367307692308" y2="-6.614115384615385" style="stroke:rgb(0,0,0);stroke-width:.00002" />
    <line x1="106.81367307692308" y1="-6.614115384615385" x2="106.813" y2="-6.6125" style="stroke:rgb(0,0,0);stroke-width:.00002" />
    <circle cx="106.8145" cy="-6.6161" fill="rgb(255,0,0)" r=".0001" />
    <text x="106.8145" y="-6.6161" stroke="rgb(0,0,0)" transform="translate(106.8145 -6.6161),scale(0.00001 -0.00001),translate(-106.8145 6.6161),translate(106.7975 -6.592499999999999),rotate(0),translate(-106.7975 6.592499999999999)" >pajajaran-durian</text>
    <line x1="106.813" y1="-6.6125" x2="106.8105" y2="-6.6087" style="stroke:rgb(255,0,0);stroke-width:.00002" />
    <line x1="106.813" y1="-6.6125" x2="106.8118599233003" y2="-6.610767083416449" style="stroke:rgb(0,0,0);stroke-width:.00002" />
    <line x1="106.8118599233003" y1="-6.610767083416449" x2="106.8116400766997" y2="-6.610432916583551" style="stroke:rgb(0,0,0);stroke-width:.00002" />
    <line x1="106.8116400766997" y1="-6.610432916583551" x2="106.8105" y2="-6.6087" style="stroke:rgb(0,0,0);stroke-width:.00002" />
    <circle cx="106.813" cy="-6.6125" fill="rgb(255,0,0)" r=".0001" />
    <text x="106.813" y="-6.6125" stroke="rgb(0,0,0)" transform="translate(106.813 -6.6125),scale(0.00001 -0.00001),translate(-106.813 6.6125),translate(106.7975 -6.592499999999999),rotate(0),translate(-106.7975 6.592499999999999)" >pajajaran-pjjindah</text>
    <line x1="106.8105" y1="-6.6087" x2="106.8099" y2="-6.6078" style="stroke:rgb(255,0,0);stroke-width:.00002" />
    <line x1="106.8105" y1="-6.6087" x2="106.8104218800785" y2="-6.608582820117734" style="stroke:rgb(0,0,0);stroke-width:.00002" />
    <line x1="106.8104218800785" y1="-6.608582820117734" x2="106.80997811992152" y2="-6.607917179882266" style="stroke:rgb(0,0,0);stroke-width:.00002" />
    <line x1="106.80997811992152" y1="-6.607917179882266" x2="106.8099" y2="-6.6078" style="stroke:rgb(0,0,0);stroke-width:.00002" />
    <circle cx="106.8105" cy="-6.6087" fill="rgb(255,0,0)" r=".0001" />
    <text x="106.8105" y="-6.6087" stroke="rgb(0,0,0)" transform="translate(106.8105 -6.6087),scale(0.00001 -0.00001),translate(-106.8105 6.6087),translate(106.7975 -6.592499999999999),rotate(0),translate(-106.7975 6.592499999999999)" >pajajaran-michelle-bakery</text>
    <line x1="106.8099" y1="-6.6078" x2="106.8087" y2="-6.6066" style="stroke:rgb(255,0,0);stroke-width:.00002" />
    <line x1="106.8099" y1="-6.6078" x2="106.80986568542495" y2="-6.60776568542495" style="stroke:rgb(0,0,0);stroke-width:.00002" />
    <line x1="106.80986568542495" y1="-6.60776568542495" x2="106.80873431457506" y2="-6.606634314575051" style="stroke:rgb(0,0,0);stroke-width:.00002" />
    <line x1="106.80873431457506" y1="-6.606634314575051" x2="106.8087" y2="-6.6066" style="stroke:rgb(0,0,0);stroke-width:.00002" />
    <circle cx="106.8099" cy="-6.6078" fill="rgb(255,0,0)" r=".0001" />
    <text x="106.8099" y="-6.6078" stroke="rgb(0,0,0)" transform="translate(106.8099 -6.6078),scale(0.00001 -0.00001),translate(-106.8099 6.6078),translate(106.7975 -6.592499999999999),rotate(0),translate(-106.7975 6.592499999999999)" >pajajaran-ciheuleut</text>
    <line x1="106.8087" y1="-6.6066" x2="106.8071" y2="-6.6045" style="stroke:rgb(255,0,0);stroke-width:.00002" />
    <line x1="106.8087" y1="-6.6066" x2="106.8079" y2="-6.60555" style="stroke:rgb(0,0,0);stroke-width:.00002" />
    <line x1="106.8079" y1="-6.60555" x2="106.8079" y2="-6.60555" style="stroke:rgb(0,0,0);stroke-width:.00002" />
    <line x1="106.8079" y1="-6.60555" x2="106.8071" y2="-6.6045" style="stroke:rgb(0,0,0);stroke-width:.00002" />
    <circle cx="106.8087" cy="-6.6066" fill="rgb(255,0,0)" r=".0001" />
    <text x="106.8087" y="-6.6066" stroke="rgb(0,0,0)" transform="translate(106.8087 -6.6066),scale(0.00001 -0.00001),translate(-106.8087 6.6066),translate(106.7975 -6.592499999999999),rotate(0),translate(-106.7975 6.592499999999999)" >bangka-1</text>
    <line x1="106.8071" y1="-6.6045" x2="106.8068" y2="-6.6043" style="stroke:rgb(255,0,0);stroke-width:.00002" />
    <line x1="106.8071" y1="-6.6045" x2="106.80695" y2="-6.6044" style="stroke:rgb(0,0,0);stroke-width:.00002" />
    <line x1="106.80695" y1="-6.6044" x2="106.80695" y2="-6.6044" style="stroke:rgb(0,0,0);stroke-width:.00002" />
    <line x1="106.80695" y1="-6.6044" x2="106.8068" y2="-6.6043" style="stroke:rgb(0,0,0);stroke-width:.00002" />
    <circle cx="106.8071" cy="-6.6045" fill="rgb(255,0,0)" r=".0001" />
    <text x="106.8071" y="-6.6045" stroke="rgb(0,0,0)" transform="translate(106.8071 -6.6045),scale(0.00001 -0.00001),translate(-106.8071 6.6045),translate(106.7975 -6.592499999999999),rotate(0),translate(-106.7975 6.592499999999999)" >tol-3</text>
    <line x1="106.8068" y1="-6.6043" x2="106.8053" y2="-6.6017" style="stroke:rgb(255,0,0);stroke-width:.00002" />
    <line x1="106.8068" y1="-6.6043" x2="106.80605" y2="-6.603" style="stroke:rgb(0,0,0);stroke-width:.00002" />
    <line x1="106.80605" y1="-6.603" x2="106.80605" y2="-6.603" style="stroke:rgb(0,0,0);stroke-width:.00002" />
    <line x1="106.80605" y1="-6.603" x2="106.8053" y2="-6.6017" style="stroke:rgb(0,0,0);stroke-width:.00002" />
    <circle cx="106.8068" cy="-6.6043" fill="rgb(255,0,0)" r=".0001" />
    <text x="106.8068" y="-6.6043" stroke="rgb(0,0,0)" transform="translate(106.8068 -6.6043),scale(0.00001 -0.00001),translate(-106.8068 6.6043),translate(106.7975 -6.592499999999999),rotate(0),translate(-106.7975 6.592499999999999)" >tol-1</text>
    <line x1="106.8053" y1="-6.6017" x2="106.8047" y2="-6.6016" style="stroke:rgb(255,0,0);stroke-width:.00002" />
    <line x1="106.8053" y1="-6.6017" x2="106.80519727878477" y2="-6.601682879797461" style="stroke:rgb(0,0,0);stroke-width:.00002" />
    <line x1="106.80519727878477" y1="-6.601682879797461" x2="106.80480272121524" y2="-6.6016171202025395" style="stroke:rgb(0,0,0);stroke-width:.00002" />
    <line x1="106.80480272121524" y1="-6.6016171202025395" x2="106.8047" y2="-6.6016" style="stroke:rgb(0,0,0);stroke-width:.00002" />
    <circle cx="106.8053" cy="-6.6017" fill="rgb(255,0,0)" r=".0001" />
    <text x="106.8053" y="-6.6017" stroke="rgb(0,0,0)" transform="translate(106.8053 -6.6017),scale(0.00001 -0.00001),translate(-106.8053 6.6017),translate(106.7975 -6.592499999999999),rotate(0),translate(-106.7975 6.592499999999999)" >pajajaran-otista</text>
    <line x1="106.8047" y1="-6.6016" x2="106.8052" y2="-6.6009" style="stroke:rgb(255,0,0);stroke-width:.00002" />
    <line x1="106.8047" y1="-6.6016" x2="106.80494999999999" y2="-6.60125" style="stroke:rgb(0,0,0);stroke-width:.00002" />
    <line x1="106.80494999999999" y1="-6.60125" x2="106.80494999999999" y2="-6.60125" style="stroke:rgb(0,0,0);stroke-width:.00002" />
    <line x1="106.80494999999999" y1="-6.60125" x2="106.8052" y2="-6.6009" style="stroke:rgb(0,0,0);stroke-width:.00002" />
    <circle cx="106.8047" cy="-6.6016" fill="rgb(255,0,0)" r=".0001" />
    <text x="106.8047" y="-6.6016" stroke="rgb(0,0,0)" transform="translate(106.8047 -6.6016),scale(0.00001 -0.00001),translate(-106.8047 6.6016),translate(106.7975 -6.592499999999999),rotate(0),translate(-106.7975 6.592499999999999)" >kb-botani-2</text>
  </g>
</svg>
