<svg width="2100" height="2970" xmlns="http://www.w3.org/2000/svg" xmlns:xlink="http://www.w3.org/1999/xlink" >
  <g transform="translate(280 20) rotate(30) scale(0.5)">    <path d="M921.7210047450237 744.2574531303046 L924.7385743440191 797.0649211096058 L933.7947594450497 830.2709331476775 L924.4353700017456 872.3881856432524 L844.5414812426151 867.1777146372094 L811.2639371782677 859.6146364407475 L760.9535944331043 856.104612528291 L735.1182279989672 968.0578670755434 L749.6039589211563 971.8380080134269 L747.9478536677959 992.0291094366306 L747.7324805786196 1030.8393400882376 L732.4446780187372 1031.1587038111047 L731.7003018831798 1044.9296623185444 L749.3595421437789 1155.2999139473152 L736.4084354982054 1173.4314632509368 L653.3197168063083 1191.3525594394102 L604.6495177997286 1216.52680030487 L584.8561671418224 1203.331233199768 L545.8549026842547 1091.2025978837812 L562.7443766917679 1046.164000530293 L611.6767643853223 1018.9793407005686 L631.8565127461824 1028.1519535919015 L667.74826738164 1009.7451631036224 L686.3615087505366 1017.3443191060004 L684.8950496905388 1020.8427345103154 L684.3128870330446 1010.742889332058 L677.8023943967355 991.1960564880739 L680.3519036634782 981.0309163147123 L662.4472932503096 963.1263059015171 L651.6949973949266 932.4054606002973 L660.809982957204 889.8688613088211 L670.2344505577713 866.3076923076961 L681.9161256380397 866.3076923076961 L690.8412566249496 790.4440789202015 L722.4354351597668 769.3812932301902 L725.4313109617101 757.3977900221905 L760.1077531186746 733.275047652272 L780.8635031898632 695.9146975237861 L768.117199470268 698.4639582677398 L758.1476006416494 685.171159829746 L759.6916796166227 677.4507649547467 L756.165163410742 668.6344744400185 L767.3429779106584 666.7715053566858 L793.1409131184637 674.3591333589893 L885.115970676182 696.9759507911842 Z" stroke="black" stroke-width="0.5" fill="none" />
  </g>
</svg>
