<svg width="1049.9999999998977" height="1849.9999999999961" xmlns="http://www.w3.org/2000/svg" xmlns:xlink="http://www.w3.org/1999/xlink" >
  <g transform="translate(524.9999999999488 924.9999999999981) rotate(30) scale(10000 -10000) translate(-106.8125 6.592499999999999)">
    <path d="M106.76 -6.5 L106.865 -6.5 L106.865 -6.685 L106.76 -6.685 Z" fill="none" stroke="black" stroke-width="0.001" transform="translate(106.8125 -6.592499999999999) rotate(30) translate(-106.8125 6.592499999999999)" />
    <path d="M106.805305 -6.601624 L106.8068 -6.6043 L106.8111 -6.6017 L106.8071 -6.6045 L106.8087 -6.6066 L106.8099 -6.6078 L106.8105 -6.6087 L106.813 -6.6125 L106.8145 -6.6161 L106.8163 -6.621 L106.8164 -6.6212 L106.8162 -6.6214 L106.8169 -6.6218 L106.8197 -6.6241 L106.8235 -6.6283 L106.8257 -6.6331 L106.8275 -6.6353 L106.8353 -6.6405 L106.8424 -6.647 L106.8436 -6.6489 L106.8449 -6.6506 L106.8468 -6.655 L106.8449 -6.6506 L106.8436 -6.6489 L106.8424 -6.647 L106.8353 -6.6405 L106.8275 -6.6353 L106.8257 -6.6331 L106.8235 -6.6283 L106.8197 -6.6241 L106.8169 -6.6218 L106.8162 -6.6214 L106.8159 -6.6211 L106.8163 -6.621 L106.8145 -6.6161 L106.813 -6.6125 L106.8105 -6.6087 L106.8099 -6.6078 L106.8087 -6.6066 L106.8071 -6.6045 L106.8068 -6.6043 L106.805305 -6.601624 L106.8047 -6.6016 L106.8052 -6.6009 Z" stroke="black" stroke-width="0.0002" fill="none" />



    <line x1="106.8052" y1="-6.6009" x2="106.805305" y2="-6.601624" style="stroke:rgb(255,0,0);stroke-width:.00002" />
    <line x1="106.8052" y1="-6.6009" x2="106.805305" y2="-6.601624" style="stroke:rgb(0,0,0);stroke-width:.00002" />
    <circle cx="106.8052" cy="-6.6009" fill="rgb(255,0,0)" r=".0001" />
    <text x="106.8052" y="-6.6009" stroke="rgb(0,0,0)" transform="translate(106.8052 -6.6009),scale(0.00001 -0.00001),translate(-106.8052 6.6009),translate(106.8125 -6.592499999999999),rotate(-30),translate(-106.8125 6.592499999999999)" >kb-botani-1</text>
    <line x1="106.805305" y1="-6.601624" x2="106.8068" y2="-6.6043" style="stroke:rgb(255,0,0);stroke-width:.00002" />
    <line x1="106.805305" y1="-6.601624" x2="106.8068" y2="-6.6043" style="stroke:rgb(0,0,0);stroke-width:.00002" />
    <circle cx="106.805305" cy="-6.601624" fill="rgb(255,0,0)" r=".0001" />
    <text x="106.805305" y="-6.601624" stroke="rgb(0,0,0)" transform="translate(106.805305 -6.601624),scale(0.00001 -0.00001),translate(-106.805305 6.601624),translate(106.8125 -6.592499999999999),rotate(-30),translate(-106.8125 6.592499999999999)" >pajajaran-otista</text>
    <line x1="106.8068" y1="-6.6043" x2="106.8111" y2="-6.6017" style="stroke:rgb(255,0,0);stroke-width:.00002" />
    <line x1="106.8068" y1="-6.6043" x2="106.8111" y2="-6.6017" style="stroke:rgb(0,0,0);stroke-width:.00002" />
    <circle cx="106.8068" cy="-6.6043" fill="rgb(255,0,0)" r=".0001" />
    <text x="106.8068" y="-6.6043" stroke="rgb(0,0,0)" transform="translate(106.8068 -6.6043),scale(0.00001 -0.00001),translate(-106.8068 6.6043),translate(106.8125 -6.592499999999999),rotate(-30),translate(-106.8125 6.592499999999999)" >tol-1</text>
    <line x1="106.8111" y1="-6.6017" x2="106.8071" y2="-6.6045" style="stroke:rgb(255,0,0);stroke-width:.00002" />
    <line x1="106.8111" y1="-6.6017" x2="106.8071" y2="-6.6045" style="stroke:rgb(0,0,0);stroke-width:.00002" />
    <circle cx="106.8111" cy="-6.6017" fill="rgb(255,0,0)" r=".0001" />
    <text x="106.8111" y="-6.6017" stroke="rgb(0,0,0)" transform="translate(106.8111 -6.6017),scale(0.00001 -0.00001),translate(-106.8111 6.6017),translate(106.8125 -6.592499999999999),rotate(-30),translate(-106.8125 6.592499999999999)" >tol-2</text>
    <line x1="106.8071" y1="-6.6045" x2="106.8087" y2="-6.6066" style="stroke:rgb(255,0,0);stroke-width:.00002" />
    <line x1="106.8071" y1="-6.6045" x2="106.8087" y2="-6.6066" style="stroke:rgb(0,0,0);stroke-width:.00002" />
    <circle cx="106.8071" cy="-6.6045" fill="rgb(255,0,0)" r=".0001" />
    <text x="106.8071" y="-6.6045" stroke="rgb(0,0,0)" transform="translate(106.8071 -6.6045),scale(0.00001 -0.00001),translate(-106.8071 6.6045),translate(106.8125 -6.592499999999999),rotate(-30),translate(-106.8125 6.592499999999999)" >tol-3</text>
    <line x1="106.8087" y1="-6.6066" x2="106.8099" y2="-6.6078" style="stroke:rgb(255,0,0);stroke-width:.00002" />
    <line x1="106.8087" y1="-6.6066" x2="106.8099" y2="-6.6078" style="stroke:rgb(0,0,0);stroke-width:.00002" />
    <circle cx="106.8087" cy="-6.6066" fill="rgb(255,0,0)" r=".0001" />
    <text x="106.8087" y="-6.6066" stroke="rgb(0,0,0)" transform="translate(106.8087 -6.6066),scale(0.00001 -0.00001),translate(-106.8087 6.6066),translate(106.8125 -6.592499999999999),rotate(-30),translate(-106.8125 6.592499999999999)" >bangka-1</text>
    <line x1="106.8099" y1="-6.6078" x2="106.8105" y2="-6.6087" style="stroke:rgb(255,0,0);stroke-width:.00002" />
    <line x1="106.8099" y1="-6.6078" x2="106.8105" y2="-6.6087" style="stroke:rgb(0,0,0);stroke-width:.00002" />
    <circle cx="106.8099" cy="-6.6078" fill="rgb(255,0,0)" r=".0001" />
    <text x="106.8099" y="-6.6078" stroke="rgb(0,0,0)" transform="translate(106.8099 -6.6078),scale(0.00001 -0.00001),translate(-106.8099 6.6078),translate(106.8125 -6.592499999999999),rotate(-30),translate(-106.8125 6.592499999999999)" >pajajaran-ciheuleut</text>
    <line x1="106.8105" y1="-6.6087" x2="106.813" y2="-6.6125" style="stroke:rgb(255,0,0);stroke-width:.00002" />
    <line x1="106.8105" y1="-6.6087" x2="106.813" y2="-6.6125" style="stroke:rgb(0,0,0);stroke-width:.00002" />
    <circle cx="106.8105" cy="-6.6087" fill="rgb(255,0,0)" r=".0001" />
    <text x="106.8105" y="-6.6087" stroke="rgb(0,0,0)" transform="translate(106.8105 -6.6087),scale(0.00001 -0.00001),translate(-106.8105 6.6087),translate(106.8125 -6.592499999999999),rotate(-30),translate(-106.8125 6.592499999999999)" >pajajaran-michelle-bakery</text>
    <line x1="106.813" y1="-6.6125" x2="106.8145" y2="-6.6161" style="stroke:rgb(255,0,0);stroke-width:.00002" />
    <line x1="106.813" y1="-6.6125" x2="106.8145" y2="-6.6161" style="stroke:rgb(0,0,0);stroke-width:.00002" />
    <circle cx="106.813" cy="-6.6125" fill="rgb(255,0,0)" r=".0001" />
    <text x="106.813" y="-6.6125" stroke="rgb(0,0,0)" transform="translate(106.813 -6.6125),scale(0.00001 -0.00001),translate(-106.813 6.6125),translate(106.8125 -6.592499999999999),rotate(-30),translate(-106.8125 6.592499999999999)" >pajajaran-pjjindah</text>
    <line x1="106.8145" y1="-6.6161" x2="106.8163" y2="-6.621" style="stroke:rgb(255,0,0);stroke-width:.00002" />
    <line x1="106.8145" y1="-6.6161" x2="106.8163" y2="-6.621" style="stroke:rgb(0,0,0);stroke-width:.00002" />
    <circle cx="106.8145" cy="-6.6161" fill="rgb(255,0,0)" r=".0001" />
    <text x="106.8145" y="-6.6161" stroke="rgb(0,0,0)" transform="translate(106.8145 -6.6161),scale(0.00001 -0.00001),translate(-106.8145 6.6161),translate(106.8125 -6.592499999999999),rotate(-30),translate(-106.8125 6.592499999999999)" >pajajaran-durian</text>
    <line x1="106.8163" y1="-6.621" x2="106.8164" y2="-6.6212" style="stroke:rgb(255,0,0);stroke-width:.00002" />
    <line x1="106.8163" y1="-6.621" x2="106.8164" y2="-6.6212" style="stroke:rgb(0,0,0);stroke-width:.00002" />
    <circle cx="106.8163" cy="-6.621" fill="rgb(255,0,0)" r=".0001" />
    <text x="106.8163" y="-6.621" stroke="rgb(0,0,0)" transform="translate(106.8163 -6.621),scale(0.00001 -0.00001),translate(-106.8163 6.621),translate(106.8125 -6.592499999999999),rotate(-30),translate(-106.8125 6.592499999999999)" >lippo-n</text>
    <line x1="106.8164" y1="-6.6212" x2="106.8162" y2="-6.6214" style="stroke:rgb(255,0,0);stroke-width:.00002" />
    <line x1="106.8164" y1="-6.6212" x2="106.8162" y2="-6.6214" style="stroke:rgb(0,0,0);stroke-width:.00002" />
    <circle cx="106.8164" cy="-6.6212" fill="rgb(255,0,0)" r=".0001" />
    <text x="106.8164" y="-6.6212" stroke="rgb(0,0,0)" transform="translate(106.8164 -6.6212),scale(0.00001 -0.00001),translate(-106.8164 6.6212),translate(106.8125 -6.592499999999999),rotate(-30),translate(-106.8125 6.592499999999999)" >lippo-e</text>
    <line x1="106.8162" y1="-6.6214" x2="106.8169" y2="-6.6218" style="stroke:rgb(255,0,0);stroke-width:.00002" />
    <line x1="106.8162" y1="-6.6214" x2="106.8169" y2="-6.6218" style="stroke:rgb(0,0,0);stroke-width:.00002" />
    <circle cx="106.8162" cy="-6.6214" fill="rgb(255,0,0)" r=".0001" />
    <text x="106.8162" y="-6.6214" stroke="rgb(0,0,0)" transform="translate(106.8162 -6.6214),scale(0.00001 -0.00001),translate(-106.8162 6.6214),translate(106.8125 -6.592499999999999),rotate(-30),translate(-106.8125 6.592499999999999)" >lippo-s</text>
    <line x1="106.8169" y1="-6.6218" x2="106.8197" y2="-6.6241" style="stroke:rgb(255,0,0);stroke-width:.00002" />
    <line x1="106.8169" y1="-6.6218" x2="106.8197" y2="-6.6241" style="stroke:rgb(0,0,0);stroke-width:.00002" />
    <circle cx="106.8169" cy="-6.6218" fill="rgb(255,0,0)" r=".0001" />
    <text x="106.8169" y="-6.6218" stroke="rgb(0,0,0)" transform="translate(106.8169 -6.6218),scale(0.00001 -0.00001),translate(-106.8169 6.6218),translate(106.8125 -6.592499999999999),rotate(-30),translate(-106.8125 6.592499999999999)" >line-21-11</text>
    <line x1="106.8197" y1="-6.6241" x2="106.8235" y2="-6.6283" style="stroke:rgb(255,0,0);stroke-width:.00002" />
    <line x1="106.8197" y1="-6.6241" x2="106.8235" y2="-6.6283" style="stroke:rgb(0,0,0);stroke-width:.00002" />
    <circle cx="106.8197" cy="-6.6241" fill="rgb(255,0,0)" r=".0001" />
    <text x="106.8197" y="-6.6241" stroke="rgb(0,0,0)" transform="translate(106.8197 -6.6241),scale(0.00001 -0.00001),translate(-106.8197 6.6241),translate(106.8125 -6.592499999999999),rotate(-30),translate(-106.8125 6.592499999999999)" >line-21-12</text>
    <line x1="106.8235" y1="-6.6283" x2="106.8257" y2="-6.6331" style="stroke:rgb(255,0,0);stroke-width:.00002" />
    <line x1="106.8235" y1="-6.6283" x2="106.8257" y2="-6.6331" style="stroke:rgb(0,0,0);stroke-width:.00002" />
    <circle cx="106.8235" cy="-6.6283" fill="rgb(255,0,0)" r=".0001" />
    <text x="106.8235" y="-6.6283" stroke="rgb(0,0,0)" transform="translate(106.8235 -6.6283),scale(0.00001 -0.00001),translate(-106.8235 6.6283),translate(106.8125 -6.592499999999999),rotate(-30),translate(-106.8125 6.592499999999999)" >line-21-13</text>
    <line x1="106.8257" y1="-6.6331" x2="106.8275" y2="-6.6353" style="stroke:rgb(255,0,0);stroke-width:.00002" />
    <line x1="106.8257" y1="-6.6331" x2="106.8275" y2="-6.6353" style="stroke:rgb(0,0,0);stroke-width:.00002" />
    <circle cx="106.8257" cy="-6.6331" fill="rgb(255,0,0)" r=".0001" />
    <text x="106.8257" y="-6.6331" stroke="rgb(0,0,0)" transform="translate(106.8257 -6.6331),scale(0.00001 -0.00001),translate(-106.8257 6.6331),translate(106.8125 -6.592499999999999),rotate(-30),translate(-106.8125 6.592499999999999)" >line-21-14</text>
    <line x1="106.8275" y1="-6.6353" x2="106.8353" y2="-6.6405" style="stroke:rgb(255,0,0);stroke-width:.00002" />
    <line x1="106.8275" y1="-6.6353" x2="106.8353" y2="-6.6405" style="stroke:rgb(0,0,0);stroke-width:.00002" />
    <circle cx="106.8275" cy="-6.6353" fill="rgb(255,0,0)" r=".0001" />
    <text x="106.8275" y="-6.6353" stroke="rgb(0,0,0)" transform="translate(106.8275 -6.6353),scale(0.00001 -0.00001),translate(-106.8275 6.6353),translate(106.8125 -6.592499999999999),rotate(-30),translate(-106.8125 6.592499999999999)" >line-21-15</text>
    <line x1="106.8353" y1="-6.6405" x2="106.8424" y2="-6.647" style="stroke:rgb(255,0,0);stroke-width:.00002" />
    <line x1="106.8353" y1="-6.6405" x2="106.8424" y2="-6.647" style="stroke:rgb(0,0,0);stroke-width:.00002" />
    <circle cx="106.8353" cy="-6.6405" fill="rgb(255,0,0)" r=".0001" />
    <text x="106.8353" y="-6.6405" stroke="rgb(0,0,0)" transform="translate(106.8353 -6.6405),scale(0.00001 -0.00001),translate(-106.8353 6.6405),translate(106.8125 -6.592499999999999),rotate(-30),translate(-106.8125 6.592499999999999)" >line-21-16</text>
    <line x1="106.8424" y1="-6.647" x2="106.8436" y2="-6.6489" style="stroke:rgb(255,0,0);stroke-width:.00002" />
    <line x1="106.8424" y1="-6.647" x2="106.8436" y2="-6.6489" style="stroke:rgb(0,0,0);stroke-width:.00002" />
    <circle cx="106.8424" cy="-6.647" fill="rgb(255,0,0)" r=".0001" />
    <text x="106.8424" y="-6.647" stroke="rgb(0,0,0)" transform="translate(106.8424 -6.647),scale(0.00001 -0.00001),translate(-106.8424 6.647),translate(106.8125 -6.592499999999999),rotate(-30),translate(-106.8125 6.592499999999999)" >line-21-17</text>
    <line x1="106.8436" y1="-6.6489" x2="106.8449" y2="-6.6506" style="stroke:rgb(255,0,0);stroke-width:.00002" />
    <line x1="106.8436" y1="-6.6489" x2="106.8449" y2="-6.6506" style="stroke:rgb(0,0,0);stroke-width:.00002" />
    <circle cx="106.8436" cy="-6.6489" fill="rgb(255,0,0)" r=".0001" />
    <text x="106.8436" y="-6.6489" stroke="rgb(0,0,0)" transform="translate(106.8436 -6.6489),scale(0.00001 -0.00001),translate(-106.8436 6.6489),translate(106.8125 -6.592499999999999),rotate(-30),translate(-106.8125 6.592499999999999)" >line-21-18</text>
    <line x1="106.8449" y1="-6.6506" x2="106.8468" y2="-6.655" style="stroke:rgb(255,0,0);stroke-width:.00002" />
    <line x1="106.8449" y1="-6.6506" x2="106.8468" y2="-6.655" style="stroke:rgb(0,0,0);stroke-width:.00002" />
    <circle cx="106.8449" cy="-6.6506" fill="rgb(255,0,0)" r=".0001" />
    <text x="106.8449" y="-6.6506" stroke="rgb(0,0,0)" transform="translate(106.8449 -6.6506),scale(0.00001 -0.00001),translate(-106.8449 6.6506),translate(106.8125 -6.592499999999999),rotate(-30),translate(-106.8125 6.592499999999999)" >line-21-19</text>
    <line x1="106.8468" y1="-6.655" x2="106.8449" y2="-6.6506" style="stroke:rgb(255,0,0);stroke-width:.00002" />
    <line x1="106.8468" y1="-6.655" x2="106.8449" y2="-6.6506" style="stroke:rgb(0,0,0);stroke-width:.00002" />
    <circle cx="106.8468" cy="-6.655" fill="rgb(255,0,0)" r=".0001" />
    <text x="106.8468" y="-6.655" stroke="rgb(0,0,0)" transform="translate(106.8468 -6.655),scale(0.00001 -0.00001),translate(-106.8468 6.655),translate(106.8125 -6.592499999999999),rotate(-30),translate(-106.8125 6.592499999999999)" >line-21-20</text>
    <line x1="106.8449" y1="-6.6506" x2="106.8436" y2="-6.6489" style="stroke:rgb(255,0,0);stroke-width:.00002" />
    <line x1="106.8449" y1="-6.6506" x2="106.8436" y2="-6.6489" style="stroke:rgb(0,0,0);stroke-width:.00002" />
    <circle cx="106.8449" cy="-6.6506" fill="rgb(255,0,0)" r=".0001" />
    <text x="106.8449" y="-6.6506" stroke="rgb(0,0,0)" transform="translate(106.8449 -6.6506),scale(0.00001 -0.00001),translate(-106.8449 6.6506),translate(106.8125 -6.592499999999999),rotate(-30),translate(-106.8125 6.592499999999999)" >line-21-19</text>
    <line x1="106.8436" y1="-6.6489" x2="106.8424" y2="-6.647" style="stroke:rgb(255,0,0);stroke-width:.00002" />
    <line x1="106.8436" y1="-6.6489" x2="106.8424" y2="-6.647" style="stroke:rgb(0,0,0);stroke-width:.00002" />
    <circle cx="106.8436" cy="-6.6489" fill="rgb(255,0,0)" r=".0001" />
    <text x="106.8436" y="-6.6489" stroke="rgb(0,0,0)" transform="translate(106.8436 -6.6489),scale(0.00001 -0.00001),translate(-106.8436 6.6489),translate(106.8125 -6.592499999999999),rotate(-30),translate(-106.8125 6.592499999999999)" >line-21-18</text>
    <line x1="106.8424" y1="-6.647" x2="106.8353" y2="-6.6405" style="stroke:rgb(255,0,0);stroke-width:.00002" />
    <line x1="106.8424" y1="-6.647" x2="106.8353" y2="-6.6405" style="stroke:rgb(0,0,0);stroke-width:.00002" />
    <circle cx="106.8424" cy="-6.647" fill="rgb(255,0,0)" r=".0001" />
    <text x="106.8424" y="-6.647" stroke="rgb(0,0,0)" transform="translate(106.8424 -6.647),scale(0.00001 -0.00001),translate(-106.8424 6.647),translate(106.8125 -6.592499999999999),rotate(-30),translate(-106.8125 6.592499999999999)" >line-21-17</text>
    <line x1="106.8353" y1="-6.6405" x2="106.8275" y2="-6.6353" style="stroke:rgb(255,0,0);stroke-width:.00002" />
    <line x1="106.8353" y1="-6.6405" x2="106.8275" y2="-6.6353" style="stroke:rgb(0,0,0);stroke-width:.00002" />
    <circle cx="106.8353" cy="-6.6405" fill="rgb(255,0,0)" r=".0001" />
    <text x="106.8353" y="-6.6405" stroke="rgb(0,0,0)" transform="translate(106.8353 -6.6405),scale(0.00001 -0.00001),translate(-106.8353 6.6405),translate(106.8125 -6.592499999999999),rotate(-30),translate(-106.8125 6.592499999999999)" >line-21-16</text>
    <line x1="106.8275" y1="-6.6353" x2="106.8257" y2="-6.6331" style="stroke:rgb(255,0,0);stroke-width:.00002" />
    <line x1="106.8275" y1="-6.6353" x2="106.8257" y2="-6.6331" style="stroke:rgb(0,0,0);stroke-width:.00002" />
    <circle cx="106.8275" cy="-6.6353" fill="rgb(255,0,0)" r=".0001" />
    <text x="106.8275" y="-6.6353" stroke="rgb(0,0,0)" transform="translate(106.8275 -6.6353),scale(0.00001 -0.00001),translate(-106.8275 6.6353),translate(106.8125 -6.592499999999999),rotate(-30),translate(-106.8125 6.592499999999999)" >line-21-15</text>
    <line x1="106.8257" y1="-6.6331" x2="106.8235" y2="-6.6283" style="stroke:rgb(255,0,0);stroke-width:.00002" />
    <line x1="106.8257" y1="-6.6331" x2="106.8235" y2="-6.6283" style="stroke:rgb(0,0,0);stroke-width:.00002" />
    <circle cx="106.8257" cy="-6.6331" fill="rgb(255,0,0)" r=".0001" />
    <text x="106.8257" y="-6.6331" stroke="rgb(0,0,0)" transform="translate(106.8257 -6.6331),scale(0.00001 -0.00001),translate(-106.8257 6.6331),translate(106.8125 -6.592499999999999),rotate(-30),translate(-106.8125 6.592499999999999)" >line-21-14</text>
    <line x1="106.8235" y1="-6.6283" x2="106.8197" y2="-6.6241" style="stroke:rgb(255,0,0);stroke-width:.00002" />
    <line x1="106.8235" y1="-6.6283" x2="106.8197" y2="-6.6241" style="stroke:rgb(0,0,0);stroke-width:.00002" />
    <circle cx="106.8235" cy="-6.6283" fill="rgb(255,0,0)" r=".0001" />
    <text x="106.8235" y="-6.6283" stroke="rgb(0,0,0)" transform="translate(106.8235 -6.6283),scale(0.00001 -0.00001),translate(-106.8235 6.6283),translate(106.8125 -6.592499999999999),rotate(-30),translate(-106.8125 6.592499999999999)" >line-21-13</text>
    <line x1="106.8197" y1="-6.6241" x2="106.8169" y2="-6.6218" style="stroke:rgb(255,0,0);stroke-width:.00002" />
    <line x1="106.8197" y1="-6.6241" x2="106.8169" y2="-6.6218" style="stroke:rgb(0,0,0);stroke-width:.00002" />
    <circle cx="106.8197" cy="-6.6241" fill="rgb(255,0,0)" r=".0001" />
    <text x="106.8197" y="-6.6241" stroke="rgb(0,0,0)" transform="translate(106.8197 -6.6241),scale(0.00001 -0.00001),translate(-106.8197 6.6241),translate(106.8125 -6.592499999999999),rotate(-30),translate(-106.8125 6.592499999999999)" >line-21-12</text>
    <line x1="106.8169" y1="-6.6218" x2="106.8162" y2="-6.6214" style="stroke:rgb(255,0,0);stroke-width:.00002" />
    <line x1="106.8169" y1="-6.6218" x2="106.8162" y2="-6.6214" style="stroke:rgb(0,0,0);stroke-width:.00002" />
    <circle cx="106.8169" cy="-6.6218" fill="rgb(255,0,0)" r=".0001" />
    <text x="106.8169" y="-6.6218" stroke="rgb(0,0,0)" transform="translate(106.8169 -6.6218),scale(0.00001 -0.00001),translate(-106.8169 6.6218),translate(106.8125 -6.592499999999999),rotate(-30),translate(-106.8125 6.592499999999999)" >line-21-11</text>
    <line x1="106.8162" y1="-6.6214" x2="106.8159" y2="-6.6211" style="stroke:rgb(255,0,0);stroke-width:.00002" />
    <line x1="106.8162" y1="-6.6214" x2="106.8159" y2="-6.6211" style="stroke:rgb(0,0,0);stroke-width:.00002" />
    <circle cx="106.8162" cy="-6.6214" fill="rgb(255,0,0)" r=".0001" />
    <text x="106.8162" y="-6.6214" stroke="rgb(0,0,0)" transform="translate(106.8162 -6.6214),scale(0.00001 -0.00001),translate(-106.8162 6.6214),translate(106.8125 -6.592499999999999),rotate(-30),translate(-106.8125 6.592499999999999)" >lippo-s</text>
    <line x1="106.8159" y1="-6.6211" x2="106.8163" y2="-6.621" style="stroke:rgb(255,0,0);stroke-width:.00002" />
    <line x1="106.8159" y1="-6.6211" x2="106.8163" y2="-6.621" style="stroke:rgb(0,0,0);stroke-width:.00002" />
    <circle cx="106.8159" cy="-6.6211" fill="rgb(255,0,0)" r=".0001" />
    <text x="106.8159" y="-6.6211" stroke="rgb(0,0,0)" transform="translate(106.8159 -6.6211),scale(0.00001 -0.00001),translate(-106.8159 6.6211),translate(106.8125 -6.592499999999999),rotate(-30),translate(-106.8125 6.592499999999999)" >lippo-w</text>
    <line x1="106.8163" y1="-6.621" x2="106.8145" y2="-6.6161" style="stroke:rgb(255,0,0);stroke-width:.00002" />
    <line x1="106.8163" y1="-6.621" x2="106.8145" y2="-6.6161" style="stroke:rgb(0,0,0);stroke-width:.00002" />
    <circle cx="106.8163" cy="-6.621" fill="rgb(255,0,0)" r=".0001" />
    <text x="106.8163" y="-6.621" stroke="rgb(0,0,0)" transform="translate(106.8163 -6.621),scale(0.00001 -0.00001),translate(-106.8163 6.621),translate(106.8125 -6.592499999999999),rotate(-30),translate(-106.8125 6.592499999999999)" >lippo-n</text>
    <line x1="106.8145" y1="-6.6161" x2="106.813" y2="-6.6125" style="stroke:rgb(255,0,0);stroke-width:.00002" />
    <line x1="106.8145" y1="-6.6161" x2="106.813" y2="-6.6125" style="stroke:rgb(0,0,0);stroke-width:.00002" />
    <circle cx="106.8145" cy="-6.6161" fill="rgb(255,0,0)" r=".0001" />
    <text x="106.8145" y="-6.6161" stroke="rgb(0,0,0)" transform="translate(106.8145 -6.6161),scale(0.00001 -0.00001),translate(-106.8145 6.6161),translate(106.8125 -6.592499999999999),rotate(-30),translate(-106.8125 6.592499999999999)" >pajajaran-durian</text>
    <line x1="106.813" y1="-6.6125" x2="106.8105" y2="-6.6087" style="stroke:rgb(255,0,0);stroke-width:.00002" />
    <line x1="106.813" y1="-6.6125" x2="106.8105" y2="-6.6087" style="stroke:rgb(0,0,0);stroke-width:.00002" />
    <circle cx="106.813" cy="-6.6125" fill="rgb(255,0,0)" r=".0001" />
    <text x="106.813" y="-6.6125" stroke="rgb(0,0,0)" transform="translate(106.813 -6.6125),scale(0.00001 -0.00001),translate(-106.813 6.6125),translate(106.8125 -6.592499999999999),rotate(-30),translate(-106.8125 6.592499999999999)" >pajajaran-pjjindah</text>
    <line x1="106.8105" y1="-6.6087" x2="106.8099" y2="-6.6078" style="stroke:rgb(255,0,0);stroke-width:.00002" />
    <line x1="106.8105" y1="-6.6087" x2="106.8099" y2="-6.6078" style="stroke:rgb(0,0,0);stroke-width:.00002" />
    <circle cx="106.8105" cy="-6.6087" fill="rgb(255,0,0)" r=".0001" />
    <text x="106.8105" y="-6.6087" stroke="rgb(0,0,0)" transform="translate(106.8105 -6.6087),scale(0.00001 -0.00001),translate(-106.8105 6.6087),translate(106.8125 -6.592499999999999),rotate(-30),translate(-106.8125 6.592499999999999)" >pajajaran-michelle-bakery</text>
    <line x1="106.8099" y1="-6.6078" x2="106.8087" y2="-6.6066" style="stroke:rgb(255,0,0);stroke-width:.00002" />
    <line x1="106.8099" y1="-6.6078" x2="106.8087" y2="-6.6066" style="stroke:rgb(0,0,0);stroke-width:.00002" />
    <circle cx="106.8099" cy="-6.6078" fill="rgb(255,0,0)" r=".0001" />
    <text x="106.8099" y="-6.6078" stroke="rgb(0,0,0)" transform="translate(106.8099 -6.6078),scale(0.00001 -0.00001),translate(-106.8099 6.6078),translate(106.8125 -6.592499999999999),rotate(-30),translate(-106.8125 6.592499999999999)" >pajajaran-ciheuleut</text>
    <line x1="106.8087" y1="-6.6066" x2="106.8071" y2="-6.6045" style="stroke:rgb(255,0,0);stroke-width:.00002" />
    <line x1="106.8087" y1="-6.6066" x2="106.8071" y2="-6.6045" style="stroke:rgb(0,0,0);stroke-width:.00002" />
    <circle cx="106.8087" cy="-6.6066" fill="rgb(255,0,0)" r=".0001" />
    <text x="106.8087" y="-6.6066" stroke="rgb(0,0,0)" transform="translate(106.8087 -6.6066),scale(0.00001 -0.00001),translate(-106.8087 6.6066),translate(106.8125 -6.592499999999999),rotate(-30),translate(-106.8125 6.592499999999999)" >bangka-1</text>
    <line x1="106.8071" y1="-6.6045" x2="106.8068" y2="-6.6043" style="stroke:rgb(255,0,0);stroke-width:.00002" />
    <line x1="106.8071" y1="-6.6045" x2="106.8068" y2="-6.6043" style="stroke:rgb(0,0,0);stroke-width:.00002" />
    <circle cx="106.8071" cy="-6.6045" fill="rgb(255,0,0)" r=".0001" />
    <text x="106.8071" y="-6.6045" stroke="rgb(0,0,0)" transform="translate(106.8071 -6.6045),scale(0.00001 -0.00001),translate(-106.8071 6.6045),translate(106.8125 -6.592499999999999),rotate(-30),translate(-106.8125 6.592499999999999)" >tol-3</text>
    <line x1="106.8068" y1="-6.6043" x2="106.805305" y2="-6.601624" style="stroke:rgb(255,0,0);stroke-width:.00002" />
    <line x1="106.8068" y1="-6.6043" x2="106.805305" y2="-6.601624" style="stroke:rgb(0,0,0);stroke-width:.00002" />
    <circle cx="106.8068" cy="-6.6043" fill="rgb(255,0,0)" r=".0001" />
    <text x="106.8068" y="-6.6043" stroke="rgb(0,0,0)" transform="translate(106.8068 -6.6043),scale(0.00001 -0.00001),translate(-106.8068 6.6043),translate(106.8125 -6.592499999999999),rotate(-30),translate(-106.8125 6.592499999999999)" >tol-1</text>
    <line x1="106.805305" y1="-6.601624" x2="106.8047" y2="-6.6016" style="stroke:rgb(255,0,0);stroke-width:.00002" />
    <line x1="106.805305" y1="-6.601624" x2="106.8047" y2="-6.6016" style="stroke:rgb(0,0,0);stroke-width:.00002" />
    <circle cx="106.805305" cy="-6.601624" fill="rgb(255,0,0)" r=".0001" />
    <text x="106.805305" y="-6.601624" stroke="rgb(0,0,0)" transform="translate(106.805305 -6.601624),scale(0.00001 -0.00001),translate(-106.805305 6.601624),translate(106.8125 -6.592499999999999),rotate(-30),translate(-106.8125 6.592499999999999)" >pajajaran-otista</text>
    <line x1="106.8047" y1="-6.6016" x2="106.8052" y2="-6.6009" style="stroke:rgb(255,0,0);stroke-width:.00002" />
    <line x1="106.8047" y1="-6.6016" x2="106.8052" y2="-6.6009" style="stroke:rgb(0,0,0);stroke-width:.00002" />
    <circle cx="106.8047" cy="-6.6016" fill="rgb(255,0,0)" r=".0001" />
    <text x="106.8047" y="-6.6016" stroke="rgb(0,0,0)" transform="translate(106.8047 -6.6016),scale(0.00001 -0.00001),translate(-106.8047 6.6016),translate(106.8125 -6.592499999999999),rotate(-30),translate(-106.8125 6.592499999999999)" >kb-botani-2</text>
  </g>
</svg>
