<svg width="2100" height="2970" xmlns="http://www.w3.org/2000/svg" xmlns:xlink="http://www.w3.org/1999/xlink" >
  <g transform="translate(280 20) rotate(30) scale(0.5)">    <path d="M469.38701836292296 542.5670445811892 L613.3545740678699 975.1833266198228 L580.3663988871506 974.1777725993061 L575.8698314157158 1004.9193055457628 L557.7526339657197 1004.5274194112462 L557.7318029174734 1004.6429622920826 L609.6090421891915 1003.6466004622679 L605.2518080037856 867.9121537156431 L600.5042983878468 741.589087340152 L636.9220358505174 689.4969384343318 L638.8624268150096 679.2384373655025 L681.82847196897 620.132103944967 L682.6992216742696 574.3089007090673 L615.8471200309918 588.0919883318059 L466.57045462036706 543.7422373265465 L480.03264079557084 515.3116063827789 L477.558177250998 447.5470806430237 L468.92047856242414 373.44785890244805 L450.67624283791474 345.17361680808426 L441.1565847358929 347.12950161872914 L414.8698342332864 288.25574394805255 L408.07853518631987 271.5263154774293 L395.9344533179916 263.6953709980926 L392.33226065564963 210.65461039852948 L397.1521462093648 179.07088829220856 L393.61273512727735 156.51518675962143 L494.885797525086 157.80519279946384 L509.08378797284115 144.67392967627427 L593.8679722178648 148.7890898367616 L596.7448147561356 113.52168338220599 L602.3776377083152 112.8580905412623 L603.9984913034431 105.4354899647501 L660.82499999996 103.91769230769887 L606.441508696733 108.30989465064772 L604.8523622918651 115.58729407413875 L599.5351852439796 116.21370123318866 L596.6220277823737 151.92629477865592 L510.19621202736687 147.73145493911397 L496.0442024750762 160.8201918159391 L397.1272648726938 159.56019785575802 L400.18785379056965 179.06449632317458 L395.3477393443734 210.78077421685543 L398.8255466820618 261.99001361730245 L410.50146481370575 269.5190691379544 L417.63016576697964 287.0796406673413 L442.9134152642007 343.7058829966487 L452.0837571623133 341.8217678073031 L471.8195214378369 372.4075257129599 L480.5518227488932 447.31830397238934 L483.05735920453685 515.9337782326056 L470.7795453799264 541.8631472888424 L609.8928799689247 583.1933962835955 L684.8316493813229 567.7430574047626 L695.9100000000547 565.9776923076964 L688.733603043687 572.5565831288282 L687.7915280309139 622.1332806704171 L644.5075731852086 681.6769472498928 L642.5779641496661 691.8784461810723 L606.5757016122859 743.3762972752365 L611.6965953439575 879.6344728361648 L467.9858618673478 543.0986460773323 Z" stroke="black" stroke-width="0.5" fill="none" />
  </g>
</svg>
