<svg width="1049.9999999998977" height="1849.9999999999961" xmlns="http://www.w3.org/2000/svg" xmlns:xlink="http://www.w3.org/1999/xlink" >
  <g transform="translate(524.9999999999488 924.9999999999981) rotate(30) scale(10000 -10000) translate(-106.8125 6.592499999999999)">
    <path d="M106.76 -6.5 L106.865 -6.5 L106.865 -6.685 L106.76 -6.685 Z" fill="none" stroke="black" stroke-width="0.0005" transform="translate(106.8125 -6.592499999999999) rotate(30) translate(-106.8125 6.592499999999999)" />
    <text x="106.787495" y="-6.560033" fill="black" transform="translate(106.787495 -6.560033) scale(0.0001 -0.0001) rotate(-30) translate(-106.787495 6.560033)">20</text>
    <text x="106.79714030493784" y="-6.588858375620808" fill="black" transform="translate(106.79714030493784 -6.588858375620808) scale(0.0001 -0.0001) rotate(-30) translate(-106.79714030493784 6.588858375620808)">20</text>
    <text x="106.79494109325914" y="-6.588791338686106" fill="black" transform="translate(106.79494109325914 -6.588791338686106) scale(0.0001 -0.0001) rotate(-30) translate(-106.79494109325914 6.588791338686106)">20</text>
    <text x="106.79464132209438" y="-6.590840774215871" fill="black" transform="translate(106.79464132209438 -6.590840774215871) scale(0.0001 -0.0001) rotate(-30) translate(-106.79464132209438 6.590840774215871)">20</text>
    <text x="106.79343350893105" y="-6.590814648473569" fill="black" transform="translate(106.79343350893105 -6.590814648473569) scale(0.0001 -0.0001) rotate(-30) translate(-106.79343350893105 6.590814648473569)">20</text>
    <text x="106.7934321201945" y="-6.590822351332292" fill="black" transform="translate(106.7934321201945 -6.590822351332292) scale(0.0001 -0.0001) rotate(-30) translate(-106.7934321201945 6.590822351332292)">20</text>
    <text x="106.79689060281261" y="-6.590755927210305" fill="black" transform="translate(106.79689060281261 -6.590755927210305) scale(0.0001 -0.0001) rotate(-30) translate(-106.79689060281261 6.590755927210305)">20</text>
    <text x="106.79660012053358" y="-6.581706964093917" fill="black" transform="translate(106.79660012053358 -6.581706964093917) scale(0.0001 -0.0001) rotate(-30) translate(-106.79660012053358 6.581706964093917)">20</text>
    <text x="106.79628361989252" y="-6.573285426335489" fill="black" transform="translate(106.79628361989252 -6.573285426335489) scale(0.0001 -0.0001) rotate(-30) translate(-106.79628361989252 6.573285426335489)">20</text>
    <text x="106.7987114690567" y="-6.569812616408455" fill="black" transform="translate(106.7987114690567 -6.569812616408455) scale(0.0001 -0.0001) rotate(-30) translate(-106.7987114690567 6.569812616408455)">20</text>
    <text x="106.79884082845433" y="-6.569128716337195" fill="black" transform="translate(106.79884082845433 -6.569128716337195) scale(0.0001 -0.0001) rotate(-30) translate(-106.79884082845433 6.569128716337195)">20</text>
    <text x="106.8017052314646" y="-6.565188294109158" fill="black" transform="translate(106.8017052314646 -6.565188294109158) scale(0.0001 -0.0001) rotate(-30) translate(-106.8017052314646 6.565188294109158)">20</text>
    <text x="106.80176328144495" y="-6.562133413893425" fill="black" transform="translate(106.80176328144495 -6.562133413893425) scale(0.0001 -0.0001) rotate(-30) translate(-106.80176328144495 6.562133413893425)">20</text>
    <text x="106.79730647466873" y="-6.563052286401606" fill="black" transform="translate(106.79730647466873 -6.563052286401606) scale(0.0001 -0.0001) rotate(-30) translate(-106.79730647466873 6.563052286401606)">20</text>
    <text x="106.78735469697469" y="-6.560095636334589" fill="black" transform="translate(106.78735469697469 -6.560095636334589) scale(0.0001 -0.0001) rotate(-30) translate(-106.78735469697469 6.560095636334589)">20</text>
    <text x="106.78825217605304" y="-6.558200260938341" fill="black" transform="translate(106.78825217605304 -6.558200260938341) scale(0.0001 -0.0001) rotate(-30) translate(-106.78825217605304 6.558200260938341)">20</text>
    <text x="106.78808721181673" y="-6.553682625888979" fill="black" transform="translate(106.78808721181673 -6.553682625888979) scale(0.0001 -0.0001) rotate(-30) translate(-106.78808721181673 6.553682625888979)">20</text>
    <text x="106.78751136523748" y="-6.548742677772976" fill="black" transform="translate(106.78751136523748 -6.548742677772976) scale(0.0001 -0.0001) rotate(-30) translate(-106.78751136523748 6.548742677772976)">20</text>
    <text x="106.78629508285586" y="-6.546857728300027" fill="black" transform="translate(106.78629508285586 -6.546857728300027) scale(0.0001 -0.0001) rotate(-30) translate(-106.78629508285586 6.546857728300027)">20</text>
    <text x="106.78566043898239" y="-6.5469881206207345" fill="black" transform="translate(106.78566043898239 -6.5469881206207345) scale(0.0001 -0.0001) rotate(-30) translate(-106.78566043898239 6.5469881206207345)">20</text>
    <text x="106.78390798894883" y="-6.543063203442554" fill="black" transform="translate(106.78390798894883 -6.543063203442554) scale(0.0001 -0.0001) rotate(-30) translate(-106.78390798894883 6.543063203442554)">20</text>
    <text x="106.78345523567909" y="-6.54194790821131" fill="black" transform="translate(106.78345523567909 -6.54194790821131) scale(0.0001 -0.0001) rotate(-30) translate(-106.78345523567909 6.54194790821131)">20</text>
    <text x="106.7826456302212" y="-6.541425845246028" fill="black" transform="translate(106.7826456302212 -6.541425845246028) scale(0.0001 -0.0001) rotate(-30) translate(-106.7826456302212 6.541425845246028)">20</text>
    <text x="106.78240548404372" y="-6.537889794539378" fill="black" transform="translate(106.78240548404372 -6.537889794539378) scale(0.0001 -0.0001) rotate(-30) translate(-106.78240548404372 6.537889794539378)">20</text>
    <text x="106.78272680974729" y="-6.5357842130656305" fill="black" transform="translate(106.78272680974729 -6.5357842130656305) scale(0.0001 -0.0001) rotate(-30) translate(-106.78272680974729 6.5357842130656305)">20</text>
    <text x="106.78249084900847" y="-6.534280499630128" fill="black" transform="translate(106.78249084900847 -6.534280499630128) scale(0.0001 -0.0001) rotate(-30) translate(-106.78249084900847 6.534280499630128)">20</text>
    <text x="106.78924238650167" y="-6.534366500032784" fill="black" transform="translate(106.78924238650167 -6.534366500032784) scale(0.0001 -0.0001) rotate(-30) translate(-106.78924238650167 6.534366500032784)">20</text>
    <text x="106.7901889191982" y="-6.5334910824912384" fill="black" transform="translate(106.7901889191982 -6.5334910824912384) scale(0.0001 -0.0001) rotate(-30) translate(-106.7901889191982 6.5334910824912384)">20</text>
    <text x="106.79584119814785" y="-6.533765426501938" fill="black" transform="translate(106.79584119814785 -6.533765426501938) scale(0.0001 -0.0001) rotate(-30) translate(-106.79584119814785 6.533765426501938)">20</text>
    <text x="106.79603298765039" y="-6.531414266071634" fill="black" transform="translate(106.79603298765039 -6.531414266071634) scale(0.0001 -0.0001) rotate(-30) translate(-106.79603298765039 6.531414266071634)">20</text>
    <text x="106.79640850918055" y="-6.531370026548903" fill="black" transform="translate(106.79640850918055 -6.531370026548903) scale(0.0001 -0.0001) rotate(-30) translate(-106.79640850918055 6.531370026548903)">20</text>
    <text x="106.7965165660869" y="-6.53087518651047" fill="black" transform="translate(106.7965165660869 -6.53087518651047) scale(0.0001 -0.0001) rotate(-30) translate(-106.7965165660869 6.53087518651047)">20</text>
    <text x="106.800305" y="-6.530774" fill="black" transform="translate(106.800305 -6.530774) scale(0.0001 -0.0001) rotate(-30) translate(-106.800305 6.530774)">20</text>
    <text x="106.79667943391311" y="-6.53106681348953" fill="black" transform="translate(106.79667943391311 -6.53106681348953) scale(0.0001 -0.0001) rotate(-30) translate(-106.79667943391311 6.53106681348953)">20</text>
    <text x="106.79657349081945" y="-6.531551973451097" fill="black" transform="translate(106.79657349081945 -6.531551973451097) scale(0.0001 -0.0001) rotate(-30) translate(-106.79657349081945 6.531551973451097)">20</text>
    <text x="106.7962190123496" y="-6.531593733928366" fill="black" transform="translate(106.7962190123496 -6.531593733928366) scale(0.0001 -0.0001) rotate(-30) translate(-106.7962190123496 6.531593733928366)">20</text>
    <text x="106.79602480185217" y="-6.533974573498064" fill="black" transform="translate(106.79602480185217 -6.533974573498064) scale(0.0001 -0.0001) rotate(-30) translate(-106.79602480185217 6.533974573498064)">20</text>
    <text x="106.79026308080182" y="-6.533694917508761" fill="black" transform="translate(106.79026308080182 -6.533694917508761) scale(0.0001 -0.0001) rotate(-30) translate(-106.79026308080182 6.533694917508761)">20</text>
    <text x="106.78931961349835" y="-6.534567499967216" fill="black" transform="translate(106.78931961349835 -6.534567499967216) scale(0.0001 -0.0001) rotate(-30) translate(-106.78931961349835 6.534567499967216)">20</text>
    <text x="106.78272515099151" y="-6.534483500369872" fill="black" transform="translate(106.78272515099151 -6.534483500369872) scale(0.0001 -0.0001) rotate(-30) translate(-106.78272515099151 6.534483500369872)">20</text>
    <text x="106.7829291902527" y="-6.535783786934345" fill="black" transform="translate(106.7829291902527 -6.535783786934345) scale(0.0001 -0.0001) rotate(-30) translate(-106.7829291902527 6.535783786934345)">20</text>
    <text x="106.78260651595629" y="-6.537898205460634" fill="black" transform="translate(106.78260651595629 -6.537898205460634) scale(0.0001 -0.0001) rotate(-30) translate(-106.78260651595629 6.537898205460634)">20</text>
    <text x="106.7828383697788" y="-6.541312154753977" fill="black" transform="translate(106.7828383697788 -6.541312154753977) scale(0.0001 -0.0001) rotate(-30) translate(-106.7828383697788 6.541312154753977)">20</text>
    <text x="106.7836167643209" y="-6.5418140917886785" fill="black" transform="translate(106.7836167643209 -6.5418140917886785) scale(0.0001 -0.0001) rotate(-30) translate(-106.7836167643209 6.5418140917886785)">20</text>
    <text x="106.78409201105114" y="-6.542984796557328" fill="black" transform="translate(106.78409201105114 -6.542984796557328) scale(0.0001 -0.0001) rotate(-30) translate(-106.78409201105114 6.542984796557328)">20</text>
    <text x="106.7857775610176" y="-6.546759879379265" fill="black" transform="translate(106.7857775610176 -6.546759879379265) scale(0.0001 -0.0001) rotate(-30) translate(-106.7857775610176 6.546759879379265)">20</text>
    <text x="106.78638891714415" y="-6.546634271699972" fill="black" transform="translate(106.78638891714415 -6.546634271699972) scale(0.0001 -0.0001) rotate(-30) translate(-106.78638891714415 6.546634271699972)">20</text>
    <text x="106.78770463476252" y="-6.5486733222270255" fill="black" transform="translate(106.78770463476252 -6.5486733222270255) scale(0.0001 -0.0001) rotate(-30) translate(-106.78770463476252 6.5486733222270255)">20</text>
    <text x="106.78828678818326" y="-6.553667374110952" fill="black" transform="translate(106.78828678818326 -6.553667374110952) scale(0.0001 -0.0001) rotate(-30) translate(-106.78828678818326 6.553667374110952)">20</text>
    <text x="106.78845382394697" y="-6.558241739061665" fill="black" transform="translate(106.78845382394697 -6.558241739061665) scale(0.0001 -0.0001) rotate(-30) translate(-106.78845382394697 6.558241739061665)">20</text>
    <text x="106.78763530302534" y="-6.5599703636654105" fill="black" transform="translate(106.78763530302534 -6.5599703636654105) scale(0.0001 -0.0001) rotate(-30) translate(-106.78763530302534 6.5599703636654105)">20</text>
    <text x="106.79690952533126" y="-6.562725713598393" fill="black" transform="translate(106.79690952533126 -6.562725713598393) scale(0.0001 -0.0001) rotate(-30) translate(-106.79690952533126 6.562725713598393)">20</text>
    <text x="106.80190544329209" y="-6.561695691006473" fill="black" transform="translate(106.80190544329209 -6.561695691006473) scale(0.0001 -0.0001) rotate(-30) translate(-106.80190544329209 6.561695691006473)">20</text>
    <text x="106.802644" y="-6.561578" fill="black" transform="translate(106.802644 -6.561578) scale(0.0001 -0.0001) rotate(-30) translate(-106.802644 6.561578)">20</text>
    <text x="106.80216557353624" y="-6.562016592721407" fill="black" transform="translate(106.80216557353624 -6.562016592721407) scale(0.0001 -0.0001) rotate(-30) translate(-106.80216557353624 6.562016592721407)">20</text>
    <text x="106.80210276853539" y="-6.565321705890853" fill="black" transform="translate(106.80210276853539 -6.565321705890853) scale(0.0001 -0.0001) rotate(-30) translate(-106.80210276853539 6.565321705890853)">20</text>
    <text x="106.79921717154568" y="-6.569291283662809" fill="black" transform="translate(106.79921717154568 -6.569291283662809) scale(0.0001 -0.0001) rotate(-30) translate(-106.79921717154568 6.569291283662809)">20</text>
    <text x="106.79908853094331" y="-6.569971383591559" fill="black" transform="translate(106.79908853094331 -6.569971383591559) scale(0.0001 -0.0001) rotate(-30) translate(-106.79908853094331 6.569971383591559)">20</text>
    <text x="106.79668838010748" y="-6.573404573664506" fill="black" transform="translate(106.79668838010748 -6.573404573664506) scale(0.0001 -0.0001) rotate(-30) translate(-106.79668838010748 6.573404573664506)">20</text>
    <text x="106.79702977302293" y="-6.582488452035231" fill="black" transform="translate(106.79702977302293 -6.582488452035231) scale(0.0001 -0.0001) rotate(-30) translate(-106.79702977302293 6.582488452035231)">20</text>
    <text x="106.787495" y="-6.560033" fill="black" transform="translate(106.787495 -6.560033) scale(0.0001 -0.0001) rotate(-30) translate(-106.787495 6.560033)">20</text>
    <path d="M106.787495 -6.560033 L106.79714030493784 -6.588858375620808 L106.79494109325914 -6.588791338686106 L106.79464132209438 -6.590840774215871 L106.79343350893105 -6.590814648473569 L106.7934321201945 -6.590822351332292 L106.79689060281261 -6.590755927210305 L106.79660012053358 -6.581706964093917 L106.79628361989252 -6.573285426335489 L106.7987114690567 -6.569812616408455 L106.79884082845433 -6.569128716337195 L106.8017052314646 -6.565188294109158 L106.80176328144495 -6.562133413893425 L106.79730647466873 -6.563052286401606 L106.78735469697469 -6.560095636334589 L106.78825217605304 -6.558200260938341 L106.78808721181673 -6.553682625888979 L106.78751136523748 -6.548742677772976 L106.78629508285586 -6.546857728300027 L106.78566043898239 -6.5469881206207345 L106.78390798894883 -6.543063203442554 L106.78345523567909 -6.54194790821131 L106.7826456302212 -6.541425845246028 L106.78240548404372 -6.537889794539378 L106.78272680974729 -6.5357842130656305 L106.78249084900847 -6.534280499630128 L106.78924238650167 -6.534366500032784 L106.7901889191982 -6.5334910824912384 L106.79584119814785 -6.533765426501938 L106.79603298765039 -6.531414266071634 L106.79640850918055 -6.531370026548903 L106.7965165660869 -6.53087518651047 L106.800305 -6.530774 L106.79667943391311 -6.53106681348953 L106.79657349081945 -6.531551973451097 L106.7962190123496 -6.531593733928366 L106.79602480185217 -6.533974573498064 L106.79026308080182 -6.533694917508761 L106.78931961349835 -6.534567499967216 L106.78272515099151 -6.534483500369872 L106.7829291902527 -6.535783786934345 L106.78260651595629 -6.537898205460634 L106.7828383697788 -6.541312154753977 L106.7836167643209 -6.5418140917886785 L106.78409201105114 -6.542984796557328 L106.7857775610176 -6.546759879379265 L106.78638891714415 -6.546634271699972 L106.78770463476252 -6.5486733222270255 L106.78828678818326 -6.553667374110952 L106.78845382394697 -6.558241739061665 L106.78763530302534 -6.5599703636654105 L106.79690952533126 -6.562725713598393 L106.80190544329209 -6.561695691006473 L106.802644 -6.561578 L106.80216557353624 -6.562016592721407 L106.80210276853539 -6.565321705890853 L106.79921717154568 -6.569291283662809 L106.79908853094331 -6.569971383591559 L106.79668838010748 -6.573404573664506 L106.79702977302293 -6.582488452035231 L106.787495 -6.560033 Z" stroke="black" stroke-width="0.0001" fill="none" />
  </g>
</svg>
