<svg width="1450.0000000001023" height="1550.0000000000025" xmlns="http://www.w3.org/2000/svg" xmlns:xlink="http://www.w3.org/1999/xlink" >
  <g transform="translate(725.0000000000512 775.0000000000013) rotate(0) scale(10000 -10000) translate(-106.7975 6.592499999999999)">
    <path d="M106.725 -6.515 L106.87 -6.515 L106.87 -6.67 L106.725 -6.67 Z" fill="none" stroke="black" stroke-width="0.001" transform="translate(106.7975 -6.592499999999999) rotate(0) translate(-106.7975 6.592499999999999)" />
    <path d="M106.79578183693563 -6.589049587416084 L106.79578183693563 -6.589049587416084 L106.79504462135823 -6.589016077617111 L106.79494597979746 -6.589706568542496 L106.79494597979746 -6.589706568542496 L106.79474691816067 -6.5911 L106.7938 -6.5911 L106.7938 -6.5911 L106.79351231056255 -6.5911 L106.79353805700005 -6.590997014250017 L106.79353805700005 -6.590997014250017 L106.79361564887175 -6.590686646763224 L106.79503974695969 -6.590650131427636 L106.79503974695969 -6.590650131427636 L106.79658269031438 -6.590610568777516 L106.79616812996302 -6.590284372242764 L106.7961333801836 -6.58948512731608 L106.79610024827869 -6.588723093503268 L106.79625291806649 -6.58540855014903 L106.79624720436378 -6.585008590959109 L106.79620020637465 -6.581718731720299 L106.79600069555161 -6.577578882142092 L106.79600069555161 -6.577578882142092 L106.79579066688586 -6.573220787327752 L106.79716175991727 -6.5713012570837686 L106.79716175991727 -6.5713012570837686 L106.79833100467694 -6.569664314420238 L106.79852256263301 -6.569731519189841 L106.79858832222793 -6.5693369616203094 L106.7986209145192 -6.569141407872718 L106.80012615582265 -6.567065212971415 L106.80012615582265 -6.567065212971415 L106.8015 -6.5651702554854054 L106.8015 -6.563599999999999 L106.8015 -6.563599999999999 L106.8015 -6.562391921689071 L106.79958158170164 -6.562791592167895 L106.79958158170164 -6.562791592167895 L106.79708442002139 -6.563311834184616 L106.79238668727147 -6.561747621868617 L106.79200237813139 -6.561636687271476 L106.78711364055668 -6.560225505291148 L106.7876711145618 -6.5591105572809 L106.7876711145618 -6.5591105572809 L106.78809793762525 -6.558256911153984 L106.78800018876834 -6.556008687444856 L106.78800018876834 -6.556008687444856 L106.78790044180937 -6.553714507388738 L106.78765103317149 -6.551270302737603 L106.78765103317149 -6.551270302737603 L106.78740594445658 -6.5488684333314255 L106.78678231127672 -6.5479089976701195 L106.78678231127672 -6.5479089976701195 L106.78620368960539 -6.5470188104834435 L106.78603287979746 -6.547047278784766 L106.78603287979746 -6.547047278784766 L106.78558051515384 -6.547122672892037 L106.78466743634962 -6.545081673212011 L106.78466743634962 -6.545081673212011 L106.78381637975676 -6.543179311416191 L106.78356538461539 -6.542576923076924 L106.78356538461539 -6.542576923076924 L106.78333991522723 -6.542035796545317 L106.782994000212 -6.541819599660801 L106.782994000212 -6.541819599660801 L106.78250623051258 -6.541514743598662 L106.78240032573312 -6.539661409958108 L106.78240032573312 -6.539661409958108 L106.78229918680853 -6.537891478777835 L106.78245201010125 -6.5368217157287525 L106.78245201010125 -6.5368217157287525 L106.78259796949108 -6.535799999999993 L106.78250201010127 -6.535128284271246 L106.78250201010127 -6.535128284271246 L106.78236889455492 -6.534196475446823 L106.7857060828634 -6.534047015950519 L106.78610603695763 -6.534053075861038 L106.78904909706365 -6.534097667680827 L106.78943241410735 -6.533752682341501 L106.78943241410735 -6.533752682341501 L106.79005556711384 -6.533191844635666 L106.79307102353324 -6.533350552868266 L106.79307102353324 -6.533350552868266 L106.79553499182936 -6.533480235410167 L106.79560150376471 -6.532715348153455 L106.79560150376471 -6.532715348153455 L106.7957242637435 -6.531303608397474 L106.7961235088936 -6.5311705266807785 L106.7961235088936 -6.5311705266807785 L106.79605329197484 -6.531193932320367 L106.79605776772972 -6.531171553545953 L106.79605776772972 -6.531171553545953 L106.79616870181631 -6.5306168831130265 L106.79837897646674 -6.530500552868267 L106.79837897646674 -6.530500552868267 L106.8003 -6.5308 L106.79842102353324 -6.531299447131733 L106.79842102353324 -6.531299447131733 L106.79683129818368 -6.531383116886973 L106.79684223227027 -6.531328446454047 L106.79684223227027 -6.531328446454047 L106.79674670802517 -6.531806067679635 L106.7963764911064 -6.531929473319222 L106.7963764911064 -6.531929473319222 L106.7964757362565 -6.531896391602527 L106.79639849623527 -6.532784651846545 L106.79639849623527 -6.532784651846545 L106.79626500817066 -6.534319764589833 L106.79302897646674 -6.534149447131733 L106.79302897646674 -6.534149447131733 L106.79034443288616 -6.534008155364334 L106.78996758589264 -6.5343473176585 L106.78996758589264 -6.5343473176585 L106.78935090293633 -6.534902332319174 L106.78589394008948 -6.534849954094221 L106.78589394008948 -6.534849954094221 L106.78306221089015 -6.534807049106353 L106.78286970562749 -6.534873725830021 L106.78292627417 -6.535269705627487 L106.78300203050891 -6.535799999999992 L106.78284798989873 -6.536878284271246 L106.78284798989873 -6.536878284271246 L106.78270081319147 -6.537908521222154 L106.78279967426688 -6.539638590041892 L106.78279967426688 -6.539638590041892 L106.78289376948743 -6.541285256401336 L106.78320599978801 -6.5414804003392 L106.78320599978801 -6.5414804003392 L106.78366008477279 -6.54176420345469 L106.78393461538461 -6.542423076923077 L106.78393461538461 -6.542423076923077 L106.78418362024318 -6.5430206885836375 L106.78503256365039 -6.544918326787989 L106.78503256365039 -6.544918326787989 L106.78581948484617 -6.546677327107964 L106.78596712020254 -6.546652721215234 L106.78596712020254 -6.546652721215234 L106.78639631039461 -6.546581189516558 L106.78711768872326 -6.5476910023298815 L106.78711768872326 -6.5476910023298815 L106.78779405554343 -6.548731566668597 L106.7880489668285 -6.5512296972623965 L106.7880489668285 -6.5512296972623965 L106.78829955819062 -6.55368549261112 L106.78839981123167 -6.555991312555144 L106.78839981123167 -6.555991312555144 L106.78850206237475 -6.558343088846021 L106.78802888543821 -6.559289442719101 L106.78802888543821 -6.559289442719101 L106.78768635944334 -6.559974494708856 L106.7921687800271 -6.5610602235613396 L106.79255308916719 -6.56117115815848 L106.79711557997861 -6.562488165815383 L106.79941841829834 -6.5620084078321055 L106.79941841829834 -6.5620084078321055 L106.80177922762022 -6.561516572556717 L106.80209243228057 -6.561382341987993 L106.80209243228057 -6.561382341987993 L106.8026 -6.5616 L106.80240756771943 -6.562117658012007 L106.80240756771943 -6.562117658012007 L106.8023 -6.56216375846319 L106.8023 -6.563599999999999 L106.8023 -6.563599999999999 L106.8023 -6.5654297445145975 L106.80077384417737 -6.567534787028584 L106.80077384417737 -6.567534787028584 L106.79937908548082 -6.569458592127279 L106.79934455756954 -6.5696657595949235 L106.79934455756954 -6.5696657595949235 L106.7992793302154 -6.570057123719824 L106.79797549338849 -6.571882495277487 L106.79797549338849 -6.571882495277487 L106.7968062220761 -6.573519475114833 L106.79699953629894 -6.577530745238606 L106.79699953629894 -6.577530745238606 L106.79719986241692 -6.581687512186941 L106.79724995918993 -6.585194286297288 L106.79724995918993 -6.585194286297288 L106.79730602465246 -6.589118868675941 Z" stroke="black" stroke-width="0.0002" fill="none" />
    <circle 
      cx="106.8003" cy="-12.5308"
      r="15" transform="translate(106.8003 -6.5308) scale(0.00001 -0.00001) translate(-106.8003 6.5308) translate(106.7975 -6.592499999999999) rotate(0) translate(-106.7975 6.592499999999999)"
      fill="white" stroke="black" stroke-width="2"/>
    <circle 
      cx="106.8026" cy="-12.5616"
      r="15" transform="translate(106.8026 -6.5616) scale(0.00001 -0.00001) translate(-106.8026 6.5616) translate(106.7975 -6.592499999999999) rotate(0) translate(-106.7975 6.592499999999999)"
      fill="white" stroke="black" stroke-width="2"/>
    <circle 
      cx="106.8003" cy="-12.5308"
      r="15" transform="translate(106.8003 -6.5308) scale(0.00001 -0.00001) translate(-106.8003 6.5308) translate(106.7975 -6.592499999999999) rotate(0) translate(-106.7975 6.592499999999999)"
      fill="white" stroke="none"/>
    <circle 
      cx="106.8026" cy="-12.5616"
      r="15" transform="translate(106.8026 -6.5616) scale(0.00001 -0.00001) translate(-106.8026 6.5616) translate(106.7975 -6.592499999999999) rotate(0) translate(-106.7975 6.592499999999999)"
      fill="white" stroke="none"/>
    <text x="106.8003" y="-6.5308" fill="black" text-anchor="middle" transform="translate(106.8003 -6.5308) scale(0.00001 -0.00001) translate(-106.8003 6.5308) translate(106.7975 -6.592499999999999) rotate(0) translate(-106.7975 6.592499999999999)">20</text>
    <text x="106.8026" y="-6.5616" fill="black" text-anchor="middle" transform="translate(106.8026 -6.5616) scale(0.00001 -0.00001) translate(-106.8026 6.5616) translate(106.7975 -6.592499999999999) rotate(0) translate(-106.7975 6.592499999999999)">20</text>
    <line x1="106.7969" y1="-6.5887" x2="106.7947" y2="-6.5886" style="stroke:rgb(255,0,0);stroke-width:.00002" />
    <line x1="106.7969" y1="-6.5887" x2="106.7958" y2="-6.5886499999999995" style="stroke:rgb(0,0,0);stroke-width:.00002" />
    <line x1="106.7958" y1="-6.5886499999999995" x2="106.7958" y2="-6.5886499999999995" style="stroke:rgb(0,0,0);stroke-width:.00002" />
    <line x1="106.7958" y1="-6.5886499999999995" x2="106.7947" y2="-6.5886" style="stroke:rgb(0,0,0);stroke-width:.00002" />
    <circle cx="106.7969" cy="-6.5887" fill="rgb(255,0,0)" r=".0001" />
    <text x="106.7969" y="-6.5887" stroke="rgb(0,0,0)" transform="translate(106.7969 -6.5887),scale(0.00001 -0.00001),translate(-106.7969 6.5887),translate(106.7975 -6.592499999999999),rotate(0),translate(-106.7975 6.592499999999999)" >sudirman-sawojajar</text>
    <line x1="106.7947" y1="-6.5886" x2="106.7944" y2="-6.5907" style="stroke:rgb(255,0,0);stroke-width:.00002" />
    <line x1="106.7947" y1="-6.5886" x2="106.79455" y2="-6.58965" style="stroke:rgb(0,0,0);stroke-width:.00002" />
    <line x1="106.79455" y1="-6.58965" x2="106.79455" y2="-6.58965" style="stroke:rgb(0,0,0);stroke-width:.00002" />
    <line x1="106.79455" y1="-6.58965" x2="106.7944" y2="-6.5907" style="stroke:rgb(0,0,0);stroke-width:.00002" />
    <circle cx="106.7947" cy="-6.5886" fill="rgb(255,0,0)" r=".0001" />
    <text x="106.7947" y="-6.5886" stroke="rgb(0,0,0)" transform="translate(106.7947 -6.5886),scale(0.00001 -0.00001),translate(-106.7947 6.5886),translate(106.7975 -6.592499999999999),rotate(0),translate(-106.7975 6.592499999999999)" >sawojajar-cibalok</text>
    <line x1="106.7944" y1="-6.5907" x2="106.7932" y2="-6.5907" style="stroke:rgb(255,0,0);stroke-width:.00002" />
    <line x1="106.7944" y1="-6.5907" x2="106.7938" y2="-6.5907" style="stroke:rgb(0,0,0);stroke-width:.00002" />
    <line x1="106.7938" y1="-6.5907" x2="106.7938" y2="-6.5907" style="stroke:rgb(0,0,0);stroke-width:.00002" />
    <line x1="106.7938" y1="-6.5907" x2="106.7932" y2="-6.5907" style="stroke:rgb(0,0,0);stroke-width:.00002" />
    <circle cx="106.7944" cy="-6.5907" fill="rgb(255,0,0)" r=".0001" />
    <text x="106.7944" y="-6.5907" stroke="rgb(0,0,0)" transform="translate(106.7944 -6.5907),scale(0.00001 -0.00001),translate(-106.7944 6.5907),translate(106.7975 -6.592499999999999),rotate(0),translate(-106.7975 6.592499999999999)" >cibalok-pabaton</text>
    <line x1="106.7932" y1="-6.5907" x2="106.7931" y2="-6.5911" style="stroke:rgb(255,0,0);stroke-width:.00002" />
    <line x1="106.7932" y1="-6.5907" x2="106.79315" y2="-6.5908999999999995" style="stroke:rgb(0,0,0);stroke-width:.00002" />
    <line x1="106.79315" y1="-6.5908999999999995" x2="106.79315" y2="-6.5908999999999995" style="stroke:rgb(0,0,0);stroke-width:.00002" />
    <line x1="106.79315" y1="-6.5908999999999995" x2="106.7931" y2="-6.5911" style="stroke:rgb(0,0,0);stroke-width:.00002" />
    <circle cx="106.7932" cy="-6.5907" fill="rgb(255,0,0)" r=".0001" />
    <text x="106.7932" y="-6.5907" stroke="rgb(0,0,0)" transform="translate(106.7932 -6.5907),scale(0.00001 -0.00001),translate(-106.7932 6.5907),translate(106.7975 -6.592499999999999),rotate(0),translate(-106.7975 6.592499999999999)" >pabaton-turnsouth</text>
    <line x1="106.7931" y1="-6.5911" x2="106.797" y2="-6.591" style="stroke:rgb(255,0,0);stroke-width:.00002" />
    <line x1="106.7931" y1="-6.5911" x2="106.79505" y2="-6.59105" style="stroke:rgb(0,0,0);stroke-width:.00002" />
    <line x1="106.79505" y1="-6.59105" x2="106.79505" y2="-6.59105" style="stroke:rgb(0,0,0);stroke-width:.00002" />
    <line x1="106.79505" y1="-6.59105" x2="106.797" y2="-6.591" style="stroke:rgb(0,0,0);stroke-width:.00002" />
    <circle cx="106.7931" cy="-6.5911" fill="rgb(255,0,0)" r=".0001" />
    <text x="106.7931" y="-6.5911" stroke="rgb(0,0,0)" transform="translate(106.7931 -6.5911),scale(0.00001 -0.00001),translate(-106.7931 6.5911),translate(106.7975 -6.592499999999999),rotate(0),translate(-106.7975 6.592499999999999)" >pabaton-ggbaru</text>
    <line x1="106.797" y1="-6.591" x2="106.7969" y2="-6.5887" style="stroke:rgb(255,0,0);stroke-width:.00002" />
    <line x1="106.797" y1="-6.591" x2="106.7969673748897" y2="-6.590249622463342" style="stroke:rgb(0,0,0);stroke-width:.00002" />
    <line x1="106.7969673748897" y1="-6.590249622463342" x2="106.79693262511029" y2="-6.589450377536658" style="stroke:rgb(0,0,0);stroke-width:.00002" />
    <line x1="106.79693262511029" y1="-6.589450377536658" x2="106.7969" y2="-6.5887" style="stroke:rgb(0,0,0);stroke-width:.00002" />
    <circle cx="106.797" cy="-6.591" fill="rgb(255,0,0)" r=".0001" />
    <text x="106.797" y="-6.591" stroke="rgb(0,0,0)" transform="translate(106.797 -6.591),scale(0.00001 -0.00001),translate(-106.797 6.591),translate(106.7975 -6.592499999999999),rotate(0),translate(-106.7975 6.592499999999999)" >ggbaru-sudirman</text>
    <line x1="106.7969" y1="-6.5887" x2="106.7968" y2="-6.5817" style="stroke:rgb(255,0,0);stroke-width:.00002" />
    <line x1="106.7969" y1="-6.5887" x2="106.79685285685136" y2="-6.5853999795949605" style="stroke:rgb(0,0,0);stroke-width:.00002" />
    <line x1="106.79685285685136" y1="-6.5853999795949605" x2="106.79684714314865" y2="-6.58500002040504" style="stroke:rgb(0,0,0);stroke-width:.00002" />
    <line x1="106.79684714314865" y1="-6.58500002040504" x2="106.7968" y2="-6.5817" style="stroke:rgb(0,0,0);stroke-width:.00002" />
    <circle cx="106.7969" cy="-6.5887" fill="rgb(255,0,0)" r=".0001" />
    <text x="106.7969" y="-6.5887" stroke="rgb(0,0,0)" transform="translate(106.7969 -6.5887),scale(0.00001 -0.00001),translate(-106.7969 6.5887),translate(106.7975 -6.592499999999999),rotate(0),translate(-106.7975 6.592499999999999)" >sudirman-sawojajar</text>
    <line x1="106.7968" y1="-6.5817" x2="106.7964" y2="-6.5734" style="stroke:rgb(255,0,0);stroke-width:.00002" />
    <line x1="106.7968" y1="-6.5817" x2="106.79660000000001" y2="-6.5775500000000005" style="stroke:rgb(0,0,0);stroke-width:.00002" />
    <line x1="106.79660000000001" y1="-6.5775500000000005" x2="106.79660000000001" y2="-6.5775500000000005" style="stroke:rgb(0,0,0);stroke-width:.00002" />
    <line x1="106.79660000000001" y1="-6.5775500000000005" x2="106.7964" y2="-6.5734" style="stroke:rgb(0,0,0);stroke-width:.00002" />
    <circle cx="106.7968" cy="-6.5817" fill="rgb(255,0,0)" r=".0001" />
    <text x="106.7968" y="-6.5817" stroke="rgb(0,0,0)" transform="translate(106.7968 -6.5817),scale(0.00001 -0.00001),translate(-106.7968 6.5817),translate(106.7975 -6.592499999999999),rotate(0),translate(-106.7975 6.592499999999999)" >sudirman-airmancur</text>
    <line x1="106.7964" y1="-6.5734" x2="106.7989" y2="-6.5699" style="stroke:rgb(255,0,0);stroke-width:.00002" />
    <line x1="106.7964" y1="-6.5734" x2="106.79765" y2="-6.57165" style="stroke:rgb(0,0,0);stroke-width:.00002" />
    <line x1="106.79765" y1="-6.57165" x2="106.79765" y2="-6.57165" style="stroke:rgb(0,0,0);stroke-width:.00002" />
    <line x1="106.79765" y1="-6.57165" x2="106.7989" y2="-6.5699" style="stroke:rgb(0,0,0);stroke-width:.00002" />
    <circle cx="106.7964" cy="-6.5734" fill="rgb(255,0,0)" r=".0001" />
    <text x="106.7964" y="-6.5734" stroke="rgb(0,0,0)" transform="translate(106.7964 -6.5734),scale(0.00001 -0.00001),translate(-106.7964 6.5734),translate(106.7975 -6.592499999999999),rotate(0),translate(-106.7975 6.592499999999999)" >pemuda-hewan</text>
    <line x1="106.7989" y1="-6.5699" x2="106.799" y2="-6.5693" style="stroke:rgb(255,0,0);stroke-width:.00002" />
    <line x1="106.7989" y1="-6.5699" x2="106.79891712020255" y2="-6.569797278784765" style="stroke:rgb(0,0,0);stroke-width:.00002" />
    <line x1="106.79891712020255" y1="-6.569797278784765" x2="106.79898287979746" y2="-6.5694027212152335" style="stroke:rgb(0,0,0);stroke-width:.00002" />
    <line x1="106.79898287979746" y1="-6.5694027212152335" x2="106.799" y2="-6.5693" style="stroke:rgb(0,0,0);stroke-width:.00002" />
    <circle cx="106.7989" cy="-6.5699" fill="rgb(255,0,0)" r=".0001" />
    <text x="106.7989" y="-6.5699" stroke="rgb(0,0,0)" transform="translate(106.7989 -6.5699),scale(0.00001 -0.00001),translate(-106.7989 6.5699),translate(106.7975 -6.592499999999999),rotate(0),translate(-106.7975 6.592499999999999)" >pemuda-pedes</text>
    <line x1="106.799" y1="-6.5693" x2="106.8019" y2="-6.5653" style="stroke:rgb(255,0,0);stroke-width:.00002" />
    <line x1="106.799" y1="-6.5693" x2="106.80045000000001" y2="-6.5672999999999995" style="stroke:rgb(0,0,0);stroke-width:.00002" />
    <line x1="106.80045000000001" y1="-6.5672999999999995" x2="106.80045000000001" y2="-6.5672999999999995" style="stroke:rgb(0,0,0);stroke-width:.00002" />
    <line x1="106.80045000000001" y1="-6.5672999999999995" x2="106.8019" y2="-6.5653" style="stroke:rgb(0,0,0);stroke-width:.00002" />
    <circle cx="106.799" cy="-6.5693" fill="rgb(255,0,0)" r=".0001" />
    <text x="106.799" y="-6.5693" stroke="rgb(0,0,0)" transform="translate(106.799 -6.5693),scale(0.00001 -0.00001),translate(-106.799 6.5693),translate(106.7975 -6.592499999999999),rotate(0),translate(-106.7975 6.592499999999999)" >pedes-bendrightatstart</text>
    <line x1="106.8019" y1="-6.5653" x2="106.8019" y2="-6.5619" style="stroke:rgb(255,0,0);stroke-width:.00002" />
    <line x1="106.8019" y1="-6.5653" x2="106.8019" y2="-6.563599999999999" style="stroke:rgb(0,0,0);stroke-width:.00002" />
    <line x1="106.8019" y1="-6.563599999999999" x2="106.8019" y2="-6.563599999999999" style="stroke:rgb(0,0,0);stroke-width:.00002" />
    <line x1="106.8019" y1="-6.563599999999999" x2="106.8019" y2="-6.5619" style="stroke:rgb(0,0,0);stroke-width:.00002" />
    <circle cx="106.8019" cy="-6.5653" fill="rgb(255,0,0)" r=".0001" />
    <text x="106.8019" y="-6.5653" stroke="rgb(0,0,0)" transform="translate(106.8019 -6.5653),scale(0.00001 -0.00001),translate(-106.8019 6.5653),translate(106.7975 -6.592499999999999),rotate(0),translate(-106.7975 6.592499999999999)" >pedes-sungai</text>
    <line x1="106.8019" y1="-6.5619" x2="106.7971" y2="-6.5629" style="stroke:rgb(255,0,0);stroke-width:.00002" />
    <line x1="106.8019" y1="-6.5619" x2="106.7995" y2="-6.5624" style="stroke:rgb(0,0,0);stroke-width:.00002" />
    <line x1="106.7995" y1="-6.5624" x2="106.7995" y2="-6.5624" style="stroke:rgb(0,0,0);stroke-width:.00002" />
    <line x1="106.7995" y1="-6.5624" x2="106.7971" y2="-6.5629" style="stroke:rgb(0,0,0);stroke-width:.00002" />
    <circle cx="106.8019" cy="-6.5619" fill="rgb(255,0,0)" r=".0001" />
    <text x="106.8019" y="-6.5619" stroke="rgb(0,0,0)" transform="translate(106.8019 -6.5619),scale(0.00001 -0.00001),translate(-106.8019 6.5619),translate(106.7975 -6.592499999999999),rotate(0),translate(-106.7975 6.592499999999999)" >pedes-iskandar</text>
    <line x1="106.7971" y1="-6.5629" x2="106.7874" y2="-6.5601" style="stroke:rgb(255,0,0);stroke-width:.00002" />
    <line x1="106.7971" y1="-6.5629" x2="106.79244215457004" y2="-6.561555467298571" style="stroke:rgb(0,0,0);stroke-width:.00002" />
    <line x1="106.79244215457004" y1="-6.561555467298571" x2="106.79205784542995" y2="-6.56144453270143" style="stroke:rgb(0,0,0);stroke-width:.00002" />
    <line x1="106.79205784542995" y1="-6.56144453270143" x2="106.7874" y2="-6.5601" style="stroke:rgb(0,0,0);stroke-width:.00002" />
    <circle cx="106.7971" cy="-6.5629" fill="rgb(255,0,0)" r=".0001" />
    <text x="106.7971" y="-6.5629" stroke="rgb(0,0,0)" transform="translate(106.7971 -6.5629),scale(0.00001 -0.00001),translate(-106.7971 6.5629),translate(106.7975 -6.592499999999999),rotate(0),translate(-106.7975 6.592499999999999)" >iskandar-majujaya</text>
    <line x1="106.7874" y1="-6.5601" x2="106.7883" y2="-6.5583" style="stroke:rgb(255,0,0);stroke-width:.00002" />
    <line x1="106.7874" y1="-6.5601" x2="106.78785" y2="-6.559200000000001" style="stroke:rgb(0,0,0);stroke-width:.00002" />
    <line x1="106.78785" y1="-6.559200000000001" x2="106.78785" y2="-6.559200000000001" style="stroke:rgb(0,0,0);stroke-width:.00002" />
    <line x1="106.78785" y1="-6.559200000000001" x2="106.7883" y2="-6.5583" style="stroke:rgb(0,0,0);stroke-width:.00002" />
    <circle cx="106.7874" cy="-6.5601" fill="rgb(255,0,0)" r=".0001" />
    <text x="106.7874" y="-6.5601" stroke="rgb(0,0,0)" transform="translate(106.7874 -6.5601),scale(0.00001 -0.00001),translate(-106.7874 6.5601),translate(106.7975 -6.592499999999999),rotate(0),translate(-106.7975 6.592499999999999)" >iskandar-20-rejions</text>
    <line x1="106.7883" y1="-6.5583" x2="106.7881" y2="-6.5537" style="stroke:rgb(255,0,0);stroke-width:.00002" />
    <line x1="106.7883" y1="-6.5583" x2="106.7882" y2="-6.556" style="stroke:rgb(0,0,0);stroke-width:.00002" />
    <line x1="106.7882" y1="-6.556" x2="106.7882" y2="-6.556" style="stroke:rgb(0,0,0);stroke-width:.00002" />
    <line x1="106.7882" y1="-6.556" x2="106.7881" y2="-6.5537" style="stroke:rgb(0,0,0);stroke-width:.00002" />
    <circle cx="106.7883" cy="-6.5583" fill="rgb(255,0,0)" r=".0001" />
    <text x="106.7883" y="-6.5583" stroke="rgb(0,0,0)" transform="translate(106.7883 -6.5583),scale(0.00001 -0.00001),translate(-106.7883 6.5583),translate(106.7975 -6.592499999999999),rotate(0),translate(-106.7975 6.592499999999999)" >cimanggu-wates-1</text>
    <line x1="106.7881" y1="-6.5537" x2="106.7876" y2="-6.5488" style="stroke:rgb(255,0,0);stroke-width:.00002" />
    <line x1="106.7881" y1="-6.5537" x2="106.78784999999999" y2="-6.55125" style="stroke:rgb(0,0,0);stroke-width:.00002" />
    <line x1="106.78784999999999" y1="-6.55125" x2="106.78784999999999" y2="-6.55125" style="stroke:rgb(0,0,0);stroke-width:.00002" />
    <line x1="106.78784999999999" y1="-6.55125" x2="106.7876" y2="-6.5488" style="stroke:rgb(0,0,0);stroke-width:.00002" />
    <circle cx="106.7881" cy="-6.5537" fill="rgb(255,0,0)" r=".0001" />
    <text x="106.7881" y="-6.5537" stroke="rgb(0,0,0)" transform="translate(106.7881 -6.5537),scale(0.00001 -0.00001),translate(-106.7881 6.5537),translate(106.7975 -6.592499999999999),rotate(0),translate(-106.7975 6.592499999999999)" >cimanggu-wates-setapak</text>
    <line x1="106.7876" y1="-6.5488" x2="106.7863" y2="-6.5468" style="stroke:rgb(255,0,0);stroke-width:.00002" />
    <line x1="106.7876" y1="-6.5488" x2="106.78694999999999" y2="-6.5478000000000005" style="stroke:rgb(0,0,0);stroke-width:.00002" />
    <line x1="106.78694999999999" y1="-6.5478000000000005" x2="106.78694999999999" y2="-6.5478000000000005" style="stroke:rgb(0,0,0);stroke-width:.00002" />
    <line x1="106.78694999999999" y1="-6.5478000000000005" x2="106.7863" y2="-6.5468" style="stroke:rgb(0,0,0);stroke-width:.00002" />
    <circle cx="106.7876" cy="-6.5488" fill="rgb(255,0,0)" r=".0001" />
    <text x="106.7876" y="-6.5488" stroke="rgb(0,0,0)" transform="translate(106.7876 -6.5488),scale(0.00001 -0.00001),translate(-106.7876 6.5488),translate(106.7975 -6.592499999999999),rotate(0),translate(-106.7975 6.592499999999999)" >setapak-1</text>
    <line x1="106.7863" y1="-6.5468" x2="106.7857" y2="-6.5469" style="stroke:rgb(255,0,0);stroke-width:.00002" />
    <line x1="106.7863" y1="-6.5468" x2="106.786" y2="-6.54685" style="stroke:rgb(0,0,0);stroke-width:.00002" />
    <line x1="106.786" y1="-6.54685" x2="106.786" y2="-6.54685" style="stroke:rgb(0,0,0);stroke-width:.00002" />
    <line x1="106.786" y1="-6.54685" x2="106.7857" y2="-6.5469" style="stroke:rgb(0,0,0);stroke-width:.00002" />
    <circle cx="106.7863" cy="-6.5468" fill="rgb(255,0,0)" r=".0001" />
    <text x="106.7863" y="-6.5468" stroke="rgb(0,0,0)" transform="translate(106.7863 -6.5468),scale(0.00001 -0.00001),translate(-106.7863 6.5468),translate(106.7975 -6.592499999999999),rotate(0),translate(-106.7975 6.592499999999999)" >setapak-2</text>
    <line x1="106.7857" y1="-6.5469" x2="106.784" y2="-6.5431" style="stroke:rgb(255,0,0);stroke-width:.00002" />
    <line x1="106.7857" y1="-6.5469" x2="106.78485" y2="-6.545" style="stroke:rgb(0,0,0);stroke-width:.00002" />
    <line x1="106.78485" y1="-6.545" x2="106.78485" y2="-6.545" style="stroke:rgb(0,0,0);stroke-width:.00002" />
    <line x1="106.78485" y1="-6.545" x2="106.784" y2="-6.5431" style="stroke:rgb(0,0,0);stroke-width:.00002" />
    <circle cx="106.7857" cy="-6.5469" fill="rgb(255,0,0)" r=".0001" />
    <text x="106.7857" y="-6.5469" stroke="rgb(0,0,0)" transform="translate(106.7857 -6.5469),scale(0.00001 -0.00001),translate(-106.7857 6.5469),translate(106.7975 -6.592499999999999),rotate(0),translate(-106.7975 6.592499999999999)" >setapak-3</text>
    <line x1="106.784" y1="-6.5431" x2="106.7835" y2="-6.5419" style="stroke:rgb(255,0,0);stroke-width:.00002" />
    <line x1="106.784" y1="-6.5431" x2="106.78375" y2="-6.5425" style="stroke:rgb(0,0,0);stroke-width:.00002" />
    <line x1="106.78375" y1="-6.5425" x2="106.78375" y2="-6.5425" style="stroke:rgb(0,0,0);stroke-width:.00002" />
    <line x1="106.78375" y1="-6.5425" x2="106.7835" y2="-6.5419" style="stroke:rgb(0,0,0);stroke-width:.00002" />
    <circle cx="106.784" cy="-6.5431" fill="rgb(255,0,0)" r=".0001" />
    <text x="106.784" y="-6.5431" stroke="rgb(0,0,0)" transform="translate(106.784 -6.5431),scale(0.00001 -0.00001),translate(-106.784 6.5431),translate(106.7975 -6.592499999999999),rotate(0),translate(-106.7975 6.592499999999999)" >setapak-bukitcimanggu</text>
    <line x1="106.7835" y1="-6.5419" x2="106.7827" y2="-6.5414" style="stroke:rgb(255,0,0);stroke-width:.00002" />
    <line x1="106.7835" y1="-6.5419" x2="106.7831" y2="-6.541650000000001" style="stroke:rgb(0,0,0);stroke-width:.00002" />
    <line x1="106.7831" y1="-6.541650000000001" x2="106.7831" y2="-6.541650000000001" style="stroke:rgb(0,0,0);stroke-width:.00002" />
    <line x1="106.7831" y1="-6.541650000000001" x2="106.7827" y2="-6.5414" style="stroke:rgb(0,0,0);stroke-width:.00002" />
    <circle cx="106.7835" cy="-6.5419" fill="rgb(255,0,0)" r=".0001" />
    <text x="106.7835" y="-6.5419" stroke="rgb(0,0,0)" transform="translate(106.7835 -6.5419),scale(0.00001 -0.00001),translate(-106.7835 6.5419),translate(106.7975 -6.592499999999999),rotate(0),translate(-106.7975 6.592499999999999)" >setapak-4</text>
    <line x1="106.7827" y1="-6.5414" x2="106.7825" y2="-6.5379" style="stroke:rgb(255,0,0);stroke-width:.00002" />
    <line x1="106.7827" y1="-6.5414" x2="106.7826" y2="-6.53965" style="stroke:rgb(0,0,0);stroke-width:.00002" />
    <line x1="106.7826" y1="-6.53965" x2="106.7826" y2="-6.53965" style="stroke:rgb(0,0,0);stroke-width:.00002" />
    <line x1="106.7826" y1="-6.53965" x2="106.7825" y2="-6.5379" style="stroke:rgb(0,0,0);stroke-width:.00002" />
    <circle cx="106.7827" cy="-6.5414" fill="rgb(255,0,0)" r=".0001" />
    <text x="106.7827" y="-6.5414" stroke="rgb(0,0,0)" transform="translate(106.7827 -6.5414),scale(0.00001 -0.00001),translate(-106.7827 6.5414),translate(106.7975 -6.592499999999999),rotate(0),translate(-106.7975 6.592499999999999)" >setapak-5</text>
    <line x1="106.7825" y1="-6.5379" x2="106.7828" y2="-6.5358" style="stroke:rgb(255,0,0);stroke-width:.00002" />
    <line x1="106.7825" y1="-6.5379" x2="106.78264999999999" y2="-6.536849999999999" style="stroke:rgb(0,0,0);stroke-width:.00002" />
    <line x1="106.78264999999999" y1="-6.536849999999999" x2="106.78264999999999" y2="-6.536849999999999" style="stroke:rgb(0,0,0);stroke-width:.00002" />
    <line x1="106.78264999999999" y1="-6.536849999999999" x2="106.7828" y2="-6.5358" style="stroke:rgb(0,0,0);stroke-width:.00002" />
    <circle cx="106.7825" cy="-6.5379" fill="rgb(255,0,0)" r=".0001" />
    <text x="106.7825" y="-6.5379" stroke="rgb(0,0,0)" transform="translate(106.7825 -6.5379),scale(0.00001 -0.00001),translate(-106.7825 6.5379),translate(106.7975 -6.592499999999999),rotate(0),translate(-106.7975 6.592499999999999)" >setapak-6</text>
    <line x1="106.7828" y1="-6.5358" x2="106.7826" y2="-6.5344" style="stroke:rgb(255,0,0);stroke-width:.00002" />
    <line x1="106.7828" y1="-6.5358" x2="106.7827" y2="-6.5351" style="stroke:rgb(0,0,0);stroke-width:.00002" />
    <line x1="106.7827" y1="-6.5351" x2="106.7827" y2="-6.5351" style="stroke:rgb(0,0,0);stroke-width:.00002" />
    <line x1="106.7827" y1="-6.5351" x2="106.7826" y2="-6.5344" style="stroke:rgb(0,0,0);stroke-width:.00002" />
    <circle cx="106.7828" cy="-6.5358" fill="rgb(255,0,0)" r=".0001" />
    <text x="106.7828" y="-6.5358" stroke="rgb(0,0,0)" transform="translate(106.7828 -6.5358),scale(0.00001 -0.00001),translate(-106.7828 6.5358),translate(106.7975 -6.592499999999999),rotate(0),translate(-106.7975 6.592499999999999)" >setapak-7</text>
    <line x1="106.7826" y1="-6.5344" x2="106.7892" y2="-6.5345" style="stroke:rgb(255,0,0);stroke-width:.00002" />
    <line x1="106.7826" y1="-6.5344" x2="106.78570002295288" y2="-6.5344469700447405" style="stroke:rgb(0,0,0);stroke-width:.00002" />
    <line x1="106.78570002295288" y1="-6.5344469700447405" x2="106.78609997704712" y2="-6.534453029955259" style="stroke:rgb(0,0,0);stroke-width:.00002" />
    <line x1="106.78609997704712" y1="-6.534453029955259" x2="106.7892" y2="-6.5345" style="stroke:rgb(0,0,0);stroke-width:.00002" />
    <circle cx="106.7826" cy="-6.5344" fill="rgb(255,0,0)" r=".0001" />
    <text x="106.7826" y="-6.5344" stroke="rgb(0,0,0)" transform="translate(106.7826 -6.5344),scale(0.00001 -0.00001),translate(-106.7826 6.5344),translate(106.7975 -6.592499999999999),rotate(0),translate(-106.7975 6.592499999999999)" >kencana-4-setapak</text>
    <line x1="106.7892" y1="-6.5345" x2="106.7902" y2="-6.5336" style="stroke:rgb(255,0,0);stroke-width:.00002" />
    <line x1="106.7892" y1="-6.5345" x2="106.7897" y2="-6.534050000000001" style="stroke:rgb(0,0,0);stroke-width:.00002" />
    <line x1="106.7897" y1="-6.534050000000001" x2="106.7897" y2="-6.534050000000001" style="stroke:rgb(0,0,0);stroke-width:.00002" />
    <line x1="106.7897" y1="-6.534050000000001" x2="106.7902" y2="-6.5336" style="stroke:rgb(0,0,0);stroke-width:.00002" />
    <circle cx="106.7892" cy="-6.5345" fill="rgb(255,0,0)" r=".0001" />
    <text x="106.7892" y="-6.5345" stroke="rgb(0,0,0)" transform="translate(106.7892 -6.5345),scale(0.00001 -0.00001),translate(-106.7892 6.5345),translate(106.7975 -6.592499999999999),rotate(0),translate(-106.7975 6.592499999999999)" >kencana-5-left</text>
    <line x1="106.7902" y1="-6.5336" x2="106.7959" y2="-6.5339" style="stroke:rgb(255,0,0);stroke-width:.00002" />
    <line x1="106.7902" y1="-6.5336" x2="106.79305" y2="-6.5337499999999995" style="stroke:rgb(0,0,0);stroke-width:.00002" />
    <line x1="106.79305" y1="-6.5337499999999995" x2="106.79305" y2="-6.5337499999999995" style="stroke:rgb(0,0,0);stroke-width:.00002" />
    <line x1="106.79305" y1="-6.5337499999999995" x2="106.7959" y2="-6.5339" style="stroke:rgb(0,0,0);stroke-width:.00002" />
    <circle cx="106.7902" cy="-6.5336" fill="rgb(255,0,0)" r=".0001" />
    <text x="106.7902" y="-6.5336" stroke="rgb(0,0,0)" transform="translate(106.7902 -6.5336),scale(0.00001 -0.00001),translate(-106.7902 6.5336),translate(106.7975 -6.592499999999999),rotate(0),translate(-106.7975 6.592499999999999)" >kencana-6-right</text>
    <line x1="106.7959" y1="-6.5339" x2="106.7961" y2="-6.5316" style="stroke:rgb(255,0,0);stroke-width:.00002" />
    <line x1="106.7959" y1="-6.5339" x2="106.79599999999999" y2="-6.53275" style="stroke:rgb(0,0,0);stroke-width:.00002" />
    <line x1="106.79599999999999" y1="-6.53275" x2="106.79599999999999" y2="-6.53275" style="stroke:rgb(0,0,0);stroke-width:.00002" />
    <line x1="106.79599999999999" y1="-6.53275" x2="106.7961" y2="-6.5316" style="stroke:rgb(0,0,0);stroke-width:.00002" />
    <circle cx="106.7959" cy="-6.5339" fill="rgb(255,0,0)" r=".0001" />
    <text x="106.7959" y="-6.5339" stroke="rgb(0,0,0)" transform="translate(106.7959 -6.5339),scale(0.00001 -0.00001),translate(-106.7959 6.5339),translate(106.7975 -6.592499999999999),rotate(0),translate(-106.7975 6.592499999999999)" >kencana-corner-kalimurni</text>
    <line x1="106.7961" y1="-6.5316" x2="106.7964" y2="-6.5315" style="stroke:rgb(255,0,0);stroke-width:.00002" />
    <line x1="106.7961" y1="-6.5316" x2="106.79625" y2="-6.53155" style="stroke:rgb(0,0,0);stroke-width:.00002" />
    <line x1="106.79625" y1="-6.53155" x2="106.79625" y2="-6.53155" style="stroke:rgb(0,0,0);stroke-width:.00002" />
    <line x1="106.79625" y1="-6.53155" x2="106.7964" y2="-6.5315" style="stroke:rgb(0,0,0);stroke-width:.00002" />
    <circle cx="106.7961" cy="-6.5316" fill="rgb(255,0,0)" r=".0001" />
    <text x="106.7961" y="-6.5316" stroke="rgb(0,0,0)" transform="translate(106.7961 -6.5316),scale(0.00001 -0.00001),translate(-106.7961 6.5316),translate(106.7975 -6.592499999999999),rotate(0),translate(-106.7975 6.592499999999999)" >kalimurni-1-right</text>
    <line x1="106.7964" y1="-6.5315" x2="106.7965" y2="-6.531" style="stroke:rgb(255,0,0);stroke-width:.00002" />
    <line x1="106.7964" y1="-6.5315" x2="106.79645" y2="-6.53125" style="stroke:rgb(0,0,0);stroke-width:.00002" />
    <line x1="106.79645" y1="-6.53125" x2="106.79645" y2="-6.53125" style="stroke:rgb(0,0,0);stroke-width:.00002" />
    <line x1="106.79645" y1="-6.53125" x2="106.7965" y2="-6.531" style="stroke:rgb(0,0,0);stroke-width:.00002" />
    <circle cx="106.7964" cy="-6.5315" fill="rgb(255,0,0)" r=".0001" />
    <text x="106.7964" y="-6.5315" stroke="rgb(0,0,0)" transform="translate(106.7964 -6.5315),scale(0.00001 -0.00001),translate(-106.7964 6.5315),translate(106.7975 -6.592499999999999),rotate(0),translate(-106.7975 6.592499999999999)" >kalimurni-2-left</text>
    <line x1="106.7965" y1="-6.531" x2="106.8003" y2="-6.5308" style="stroke:rgb(255,0,0);stroke-width:.00002" />
    <line x1="106.7965" y1="-6.531" x2="106.79839999999999" y2="-6.5309" style="stroke:rgb(0,0,0);stroke-width:.00002" />
    <line x1="106.79839999999999" y1="-6.5309" x2="106.79839999999999" y2="-6.5309" style="stroke:rgb(0,0,0);stroke-width:.00002" />
    <line x1="106.79839999999999" y1="-6.5309" x2="106.8003" y2="-6.5308" style="stroke:rgb(0,0,0);stroke-width:.00002" />
    <circle cx="106.7965" cy="-6.531" fill="rgb(255,0,0)" r=".0001" />
    <text x="106.7965" y="-6.531" stroke="rgb(0,0,0)" transform="translate(106.7965 -6.531),scale(0.00001 -0.00001),translate(-106.7965 6.531),translate(106.7975 -6.592499999999999),rotate(0),translate(-106.7975 6.592499999999999)" >kalimurni-pendidikan</text>
    <line x1="106.8003" y1="-6.5308" x2="106.7965" y2="-6.531" style="stroke:rgb(255,0,0);stroke-width:.00002" />
    <line x1="106.8003" y1="-6.5308" x2="106.79839999999999" y2="-6.5309" style="stroke:rgb(0,0,0);stroke-width:.00002" />
    <line x1="106.79839999999999" y1="-6.5309" x2="106.79839999999999" y2="-6.5309" style="stroke:rgb(0,0,0);stroke-width:.00002" />
    <line x1="106.79839999999999" y1="-6.5309" x2="106.7965" y2="-6.531" style="stroke:rgb(0,0,0);stroke-width:.00002" />
    <circle cx="106.8003" cy="-6.5308" fill="rgb(255,0,0)" r=".0001" />
    <text x="106.8003" y="-6.5308" stroke="rgb(0,0,0)" transform="translate(106.8003 -6.5308),scale(0.00001 -0.00001),translate(-106.8003 6.5308),translate(106.7975 -6.592499999999999),rotate(0),translate(-106.7975 6.592499999999999)" >pendidikan-cilebut</text>
    <line x1="106.7965" y1="-6.531" x2="106.7964" y2="-6.5315" style="stroke:rgb(255,0,0);stroke-width:.00002" />
    <line x1="106.7965" y1="-6.531" x2="106.79645" y2="-6.53125" style="stroke:rgb(0,0,0);stroke-width:.00002" />
    <line x1="106.79645" y1="-6.53125" x2="106.79645" y2="-6.53125" style="stroke:rgb(0,0,0);stroke-width:.00002" />
    <line x1="106.79645" y1="-6.53125" x2="106.7964" y2="-6.5315" style="stroke:rgb(0,0,0);stroke-width:.00002" />
    <circle cx="106.7965" cy="-6.531" fill="rgb(255,0,0)" r=".0001" />
    <text x="106.7965" y="-6.531" stroke="rgb(0,0,0)" transform="translate(106.7965 -6.531),scale(0.00001 -0.00001),translate(-106.7965 6.531),translate(106.7975 -6.592499999999999),rotate(0),translate(-106.7975 6.592499999999999)" >kalimurni-pendidikan</text>
    <line x1="106.7964" y1="-6.5315" x2="106.7961" y2="-6.5316" style="stroke:rgb(255,0,0);stroke-width:.00002" />
    <line x1="106.7964" y1="-6.5315" x2="106.79625" y2="-6.53155" style="stroke:rgb(0,0,0);stroke-width:.00002" />
    <line x1="106.79625" y1="-6.53155" x2="106.79625" y2="-6.53155" style="stroke:rgb(0,0,0);stroke-width:.00002" />
    <line x1="106.79625" y1="-6.53155" x2="106.7961" y2="-6.5316" style="stroke:rgb(0,0,0);stroke-width:.00002" />
    <circle cx="106.7964" cy="-6.5315" fill="rgb(255,0,0)" r=".0001" />
    <text x="106.7964" y="-6.5315" stroke="rgb(0,0,0)" transform="translate(106.7964 -6.5315),scale(0.00001 -0.00001),translate(-106.7964 6.5315),translate(106.7975 -6.592499999999999),rotate(0),translate(-106.7975 6.592499999999999)" >kalimurni-2-left</text>
    <line x1="106.7961" y1="-6.5316" x2="106.7959" y2="-6.5339" style="stroke:rgb(255,0,0);stroke-width:.00002" />
    <line x1="106.7961" y1="-6.5316" x2="106.79599999999999" y2="-6.53275" style="stroke:rgb(0,0,0);stroke-width:.00002" />
    <line x1="106.79599999999999" y1="-6.53275" x2="106.79599999999999" y2="-6.53275" style="stroke:rgb(0,0,0);stroke-width:.00002" />
    <line x1="106.79599999999999" y1="-6.53275" x2="106.7959" y2="-6.5339" style="stroke:rgb(0,0,0);stroke-width:.00002" />
    <circle cx="106.7961" cy="-6.5316" fill="rgb(255,0,0)" r=".0001" />
    <text x="106.7961" y="-6.5316" stroke="rgb(0,0,0)" transform="translate(106.7961 -6.5316),scale(0.00001 -0.00001),translate(-106.7961 6.5316),translate(106.7975 -6.592499999999999),rotate(0),translate(-106.7975 6.592499999999999)" >kalimurni-1-right</text>
    <line x1="106.7959" y1="-6.5339" x2="106.7902" y2="-6.5336" style="stroke:rgb(255,0,0);stroke-width:.00002" />
    <line x1="106.7959" y1="-6.5339" x2="106.79305" y2="-6.5337499999999995" style="stroke:rgb(0,0,0);stroke-width:.00002" />
    <line x1="106.79305" y1="-6.5337499999999995" x2="106.79305" y2="-6.5337499999999995" style="stroke:rgb(0,0,0);stroke-width:.00002" />
    <line x1="106.79305" y1="-6.5337499999999995" x2="106.7902" y2="-6.5336" style="stroke:rgb(0,0,0);stroke-width:.00002" />
    <circle cx="106.7959" cy="-6.5339" fill="rgb(255,0,0)" r=".0001" />
    <text x="106.7959" y="-6.5339" stroke="rgb(0,0,0)" transform="translate(106.7959 -6.5339),scale(0.00001 -0.00001),translate(-106.7959 6.5339),translate(106.7975 -6.592499999999999),rotate(0),translate(-106.7975 6.592499999999999)" >kencana-corner-kalimurni</text>
    <line x1="106.7902" y1="-6.5336" x2="106.7892" y2="-6.5345" style="stroke:rgb(255,0,0);stroke-width:.00002" />
    <line x1="106.7902" y1="-6.5336" x2="106.7897" y2="-6.534050000000001" style="stroke:rgb(0,0,0);stroke-width:.00002" />
    <line x1="106.7897" y1="-6.534050000000001" x2="106.7897" y2="-6.534050000000001" style="stroke:rgb(0,0,0);stroke-width:.00002" />
    <line x1="106.7897" y1="-6.534050000000001" x2="106.7892" y2="-6.5345" style="stroke:rgb(0,0,0);stroke-width:.00002" />
    <circle cx="106.7902" cy="-6.5336" fill="rgb(255,0,0)" r=".0001" />
    <text x="106.7902" y="-6.5336" stroke="rgb(0,0,0)" transform="translate(106.7902 -6.5336),scale(0.00001 -0.00001),translate(-106.7902 6.5336),translate(106.7975 -6.592499999999999),rotate(0),translate(-106.7975 6.592499999999999)" >kencana-6-right</text>
    <line x1="106.7892" y1="-6.5345" x2="106.7826" y2="-6.5344" style="stroke:rgb(255,0,0);stroke-width:.00002" />
    <line x1="106.7892" y1="-6.5345" x2="106.7859" y2="-6.53445" style="stroke:rgb(0,0,0);stroke-width:.00002" />
    <line x1="106.7859" y1="-6.53445" x2="106.7859" y2="-6.53445" style="stroke:rgb(0,0,0);stroke-width:.00002" />
    <line x1="106.7859" y1="-6.53445" x2="106.7826" y2="-6.5344" style="stroke:rgb(0,0,0);stroke-width:.00002" />
    <circle cx="106.7892" cy="-6.5345" fill="rgb(255,0,0)" r=".0001" />
    <text x="106.7892" y="-6.5345" stroke="rgb(0,0,0)" transform="translate(106.7892 -6.5345),scale(0.00001 -0.00001),translate(-106.7892 6.5345),translate(106.7975 -6.592499999999999),rotate(0),translate(-106.7975 6.592499999999999)" >kencana-5-left</text>
    <line x1="106.7826" y1="-6.5344" x2="106.7828" y2="-6.5358" style="stroke:rgb(255,0,0);stroke-width:.00002" />
    <line x1="106.7826" y1="-6.5344" x2="106.78267171572875" y2="-6.534902010101267" style="stroke:rgb(0,0,0);stroke-width:.00002" />
    <line x1="106.78267171572875" y1="-6.534902010101267" x2="106.78272828427126" y2="-6.535297989898733" style="stroke:rgb(0,0,0);stroke-width:.00002" />
    <line x1="106.78272828427126" y1="-6.535297989898733" x2="106.7828" y2="-6.5358" style="stroke:rgb(0,0,0);stroke-width:.00002" />
    <circle cx="106.7826" cy="-6.5344" fill="rgb(255,0,0)" r=".0001" />
    <text x="106.7826" y="-6.5344" stroke="rgb(0,0,0)" transform="translate(106.7826 -6.5344),scale(0.00001 -0.00001),translate(-106.7826 6.5344),translate(106.7975 -6.592499999999999),rotate(0),translate(-106.7975 6.592499999999999)" >kencana-4-setapak</text>
    <line x1="106.7828" y1="-6.5358" x2="106.7825" y2="-6.5379" style="stroke:rgb(255,0,0);stroke-width:.00002" />
    <line x1="106.7828" y1="-6.5358" x2="106.78264999999999" y2="-6.536849999999999" style="stroke:rgb(0,0,0);stroke-width:.00002" />
    <line x1="106.78264999999999" y1="-6.536849999999999" x2="106.78264999999999" y2="-6.536849999999999" style="stroke:rgb(0,0,0);stroke-width:.00002" />
    <line x1="106.78264999999999" y1="-6.536849999999999" x2="106.7825" y2="-6.5379" style="stroke:rgb(0,0,0);stroke-width:.00002" />
    <circle cx="106.7828" cy="-6.5358" fill="rgb(255,0,0)" r=".0001" />
    <text x="106.7828" y="-6.5358" stroke="rgb(0,0,0)" transform="translate(106.7828 -6.5358),scale(0.00001 -0.00001),translate(-106.7828 6.5358),translate(106.7975 -6.592499999999999),rotate(0),translate(-106.7975 6.592499999999999)" >setapak-7</text>
    <line x1="106.7825" y1="-6.5379" x2="106.7827" y2="-6.5414" style="stroke:rgb(255,0,0);stroke-width:.00002" />
    <line x1="106.7825" y1="-6.5379" x2="106.7826" y2="-6.53965" style="stroke:rgb(0,0,0);stroke-width:.00002" />
    <line x1="106.7826" y1="-6.53965" x2="106.7826" y2="-6.53965" style="stroke:rgb(0,0,0);stroke-width:.00002" />
    <line x1="106.7826" y1="-6.53965" x2="106.7827" y2="-6.5414" style="stroke:rgb(0,0,0);stroke-width:.00002" />
    <circle cx="106.7825" cy="-6.5379" fill="rgb(255,0,0)" r=".0001" />
    <text x="106.7825" y="-6.5379" stroke="rgb(0,0,0)" transform="translate(106.7825 -6.5379),scale(0.00001 -0.00001),translate(-106.7825 6.5379),translate(106.7975 -6.592499999999999),rotate(0),translate(-106.7975 6.592499999999999)" >setapak-6</text>
    <line x1="106.7827" y1="-6.5414" x2="106.7835" y2="-6.5419" style="stroke:rgb(255,0,0);stroke-width:.00002" />
    <line x1="106.7827" y1="-6.5414" x2="106.7831" y2="-6.541650000000001" style="stroke:rgb(0,0,0);stroke-width:.00002" />
    <line x1="106.7831" y1="-6.541650000000001" x2="106.7831" y2="-6.541650000000001" style="stroke:rgb(0,0,0);stroke-width:.00002" />
    <line x1="106.7831" y1="-6.541650000000001" x2="106.7835" y2="-6.5419" style="stroke:rgb(0,0,0);stroke-width:.00002" />
    <circle cx="106.7827" cy="-6.5414" fill="rgb(255,0,0)" r=".0001" />
    <text x="106.7827" y="-6.5414" stroke="rgb(0,0,0)" transform="translate(106.7827 -6.5414),scale(0.00001 -0.00001),translate(-106.7827 6.5414),translate(106.7975 -6.592499999999999),rotate(0),translate(-106.7975 6.592499999999999)" >setapak-5</text>
    <line x1="106.7835" y1="-6.5419" x2="106.784" y2="-6.5431" style="stroke:rgb(255,0,0);stroke-width:.00002" />
    <line x1="106.7835" y1="-6.5419" x2="106.78375" y2="-6.5425" style="stroke:rgb(0,0,0);stroke-width:.00002" />
    <line x1="106.78375" y1="-6.5425" x2="106.78375" y2="-6.5425" style="stroke:rgb(0,0,0);stroke-width:.00002" />
    <line x1="106.78375" y1="-6.5425" x2="106.784" y2="-6.5431" style="stroke:rgb(0,0,0);stroke-width:.00002" />
    <circle cx="106.7835" cy="-6.5419" fill="rgb(255,0,0)" r=".0001" />
    <text x="106.7835" y="-6.5419" stroke="rgb(0,0,0)" transform="translate(106.7835 -6.5419),scale(0.00001 -0.00001),translate(-106.7835 6.5419),translate(106.7975 -6.592499999999999),rotate(0),translate(-106.7975 6.592499999999999)" >setapak-4</text>
    <line x1="106.784" y1="-6.5431" x2="106.7857" y2="-6.5469" style="stroke:rgb(255,0,0);stroke-width:.00002" />
    <line x1="106.784" y1="-6.5431" x2="106.78485" y2="-6.545" style="stroke:rgb(0,0,0);stroke-width:.00002" />
    <line x1="106.78485" y1="-6.545" x2="106.78485" y2="-6.545" style="stroke:rgb(0,0,0);stroke-width:.00002" />
    <line x1="106.78485" y1="-6.545" x2="106.7857" y2="-6.5469" style="stroke:rgb(0,0,0);stroke-width:.00002" />
    <circle cx="106.784" cy="-6.5431" fill="rgb(255,0,0)" r=".0001" />
    <text x="106.784" y="-6.5431" stroke="rgb(0,0,0)" transform="translate(106.784 -6.5431),scale(0.00001 -0.00001),translate(-106.784 6.5431),translate(106.7975 -6.592499999999999),rotate(0),translate(-106.7975 6.592499999999999)" >setapak-bukitcimanggu</text>
    <line x1="106.7857" y1="-6.5469" x2="106.7863" y2="-6.5468" style="stroke:rgb(255,0,0);stroke-width:.00002" />
    <line x1="106.7857" y1="-6.5469" x2="106.786" y2="-6.54685" style="stroke:rgb(0,0,0);stroke-width:.00002" />
    <line x1="106.786" y1="-6.54685" x2="106.786" y2="-6.54685" style="stroke:rgb(0,0,0);stroke-width:.00002" />
    <line x1="106.786" y1="-6.54685" x2="106.7863" y2="-6.5468" style="stroke:rgb(0,0,0);stroke-width:.00002" />
    <circle cx="106.7857" cy="-6.5469" fill="rgb(255,0,0)" r=".0001" />
    <text x="106.7857" y="-6.5469" stroke="rgb(0,0,0)" transform="translate(106.7857 -6.5469),scale(0.00001 -0.00001),translate(-106.7857 6.5469),translate(106.7975 -6.592499999999999),rotate(0),translate(-106.7975 6.592499999999999)" >setapak-3</text>
    <line x1="106.7863" y1="-6.5468" x2="106.7876" y2="-6.5488" style="stroke:rgb(255,0,0);stroke-width:.00002" />
    <line x1="106.7863" y1="-6.5468" x2="106.78694999999999" y2="-6.5478000000000005" style="stroke:rgb(0,0,0);stroke-width:.00002" />
    <line x1="106.78694999999999" y1="-6.5478000000000005" x2="106.78694999999999" y2="-6.5478000000000005" style="stroke:rgb(0,0,0);stroke-width:.00002" />
    <line x1="106.78694999999999" y1="-6.5478000000000005" x2="106.7876" y2="-6.5488" style="stroke:rgb(0,0,0);stroke-width:.00002" />
    <circle cx="106.7863" cy="-6.5468" fill="rgb(255,0,0)" r=".0001" />
    <text x="106.7863" y="-6.5468" stroke="rgb(0,0,0)" transform="translate(106.7863 -6.5468),scale(0.00001 -0.00001),translate(-106.7863 6.5468),translate(106.7975 -6.592499999999999),rotate(0),translate(-106.7975 6.592499999999999)" >setapak-2</text>
    <line x1="106.7876" y1="-6.5488" x2="106.7881" y2="-6.5537" style="stroke:rgb(255,0,0);stroke-width:.00002" />
    <line x1="106.7876" y1="-6.5488" x2="106.78784999999999" y2="-6.55125" style="stroke:rgb(0,0,0);stroke-width:.00002" />
    <line x1="106.78784999999999" y1="-6.55125" x2="106.78784999999999" y2="-6.55125" style="stroke:rgb(0,0,0);stroke-width:.00002" />
    <line x1="106.78784999999999" y1="-6.55125" x2="106.7881" y2="-6.5537" style="stroke:rgb(0,0,0);stroke-width:.00002" />
    <circle cx="106.7876" cy="-6.5488" fill="rgb(255,0,0)" r=".0001" />
    <text x="106.7876" y="-6.5488" stroke="rgb(0,0,0)" transform="translate(106.7876 -6.5488),scale(0.00001 -0.00001),translate(-106.7876 6.5488),translate(106.7975 -6.592499999999999),rotate(0),translate(-106.7975 6.592499999999999)" >setapak-1</text>
    <line x1="106.7881" y1="-6.5537" x2="106.7883" y2="-6.5583" style="stroke:rgb(255,0,0);stroke-width:.00002" />
    <line x1="106.7881" y1="-6.5537" x2="106.7882" y2="-6.556" style="stroke:rgb(0,0,0);stroke-width:.00002" />
    <line x1="106.7882" y1="-6.556" x2="106.7882" y2="-6.556" style="stroke:rgb(0,0,0);stroke-width:.00002" />
    <line x1="106.7882" y1="-6.556" x2="106.7883" y2="-6.5583" style="stroke:rgb(0,0,0);stroke-width:.00002" />
    <circle cx="106.7881" cy="-6.5537" fill="rgb(255,0,0)" r=".0001" />
    <text x="106.7881" y="-6.5537" stroke="rgb(0,0,0)" transform="translate(106.7881 -6.5537),scale(0.00001 -0.00001),translate(-106.7881 6.5537),translate(106.7975 -6.592499999999999),rotate(0),translate(-106.7975 6.592499999999999)" >cimanggu-wates-setapak</text>
    <line x1="106.7883" y1="-6.5583" x2="106.7874" y2="-6.5601" style="stroke:rgb(255,0,0);stroke-width:.00002" />
    <line x1="106.7883" y1="-6.5583" x2="106.78785" y2="-6.559200000000001" style="stroke:rgb(0,0,0);stroke-width:.00002" />
    <line x1="106.78785" y1="-6.559200000000001" x2="106.78785" y2="-6.559200000000001" style="stroke:rgb(0,0,0);stroke-width:.00002" />
    <line x1="106.78785" y1="-6.559200000000001" x2="106.7874" y2="-6.5601" style="stroke:rgb(0,0,0);stroke-width:.00002" />
    <circle cx="106.7883" cy="-6.5583" fill="rgb(255,0,0)" r=".0001" />
    <text x="106.7883" y="-6.5583" stroke="rgb(0,0,0)" transform="translate(106.7883 -6.5583),scale(0.00001 -0.00001),translate(-106.7883 6.5583),translate(106.7975 -6.592499999999999),rotate(0),translate(-106.7975 6.592499999999999)" >cimanggu-wates-1</text>
    <line x1="106.7874" y1="-6.5601" x2="106.7971" y2="-6.5629" style="stroke:rgb(255,0,0);stroke-width:.00002" />
    <line x1="106.7874" y1="-6.5601" x2="106.79205784542995" y2="-6.56144453270143" style="stroke:rgb(0,0,0);stroke-width:.00002" />
    <line x1="106.79205784542995" y1="-6.56144453270143" x2="106.79244215457004" y2="-6.561555467298571" style="stroke:rgb(0,0,0);stroke-width:.00002" />
    <line x1="106.79244215457004" y1="-6.561555467298571" x2="106.7971" y2="-6.5629" style="stroke:rgb(0,0,0);stroke-width:.00002" />
    <circle cx="106.7874" cy="-6.5601" fill="rgb(255,0,0)" r=".0001" />
    <text x="106.7874" y="-6.5601" stroke="rgb(0,0,0)" transform="translate(106.7874 -6.5601),scale(0.00001 -0.00001),translate(-106.7874 6.5601),translate(106.7975 -6.592499999999999),rotate(0),translate(-106.7975 6.592499999999999)" >iskandar-20-rejions</text>
    <line x1="106.7971" y1="-6.5629" x2="106.8019" y2="-6.5619" style="stroke:rgb(255,0,0);stroke-width:.00002" />
    <line x1="106.7971" y1="-6.5629" x2="106.7995" y2="-6.5624" style="stroke:rgb(0,0,0);stroke-width:.00002" />
    <line x1="106.7995" y1="-6.5624" x2="106.7995" y2="-6.5624" style="stroke:rgb(0,0,0);stroke-width:.00002" />
    <line x1="106.7995" y1="-6.5624" x2="106.8019" y2="-6.5619" style="stroke:rgb(0,0,0);stroke-width:.00002" />
    <circle cx="106.7971" cy="-6.5629" fill="rgb(255,0,0)" r=".0001" />
    <text x="106.7971" y="-6.5629" stroke="rgb(0,0,0)" transform="translate(106.7971 -6.5629),scale(0.00001 -0.00001),translate(-106.7971 6.5629),translate(106.7975 -6.592499999999999),rotate(0),translate(-106.7975 6.592499999999999)" >iskandar-majujaya</text>
    <line x1="106.8019" y1="-6.5619" x2="106.8026" y2="-6.5616" style="stroke:rgb(255,0,0);stroke-width:.00002" />
    <line x1="106.8019" y1="-6.5619" x2="106.80225" y2="-6.56175" style="stroke:rgb(0,0,0);stroke-width:.00002" />
    <line x1="106.80225" y1="-6.56175" x2="106.80225" y2="-6.56175" style="stroke:rgb(0,0,0);stroke-width:.00002" />
    <line x1="106.80225" y1="-6.56175" x2="106.8026" y2="-6.5616" style="stroke:rgb(0,0,0);stroke-width:.00002" />
    <circle cx="106.8019" cy="-6.5619" fill="rgb(255,0,0)" r=".0001" />
    <text x="106.8019" y="-6.5619" stroke="rgb(0,0,0)" transform="translate(106.8019 -6.5619),scale(0.00001 -0.00001),translate(-106.8019 6.5619),translate(106.7975 -6.592499999999999),rotate(0),translate(-106.7975 6.592499999999999)" >pedes-iskandar</text>
    <line x1="106.8026" y1="-6.5616" x2="106.8019" y2="-6.5619" style="stroke:rgb(255,0,0);stroke-width:.00002" />
    <line x1="106.8026" y1="-6.5616" x2="106.80225" y2="-6.56175" style="stroke:rgb(0,0,0);stroke-width:.00002" />
    <line x1="106.80225" y1="-6.56175" x2="106.80225" y2="-6.56175" style="stroke:rgb(0,0,0);stroke-width:.00002" />
    <line x1="106.80225" y1="-6.56175" x2="106.8019" y2="-6.5619" style="stroke:rgb(0,0,0);stroke-width:.00002" />
    <circle cx="106.8026" cy="-6.5616" fill="rgb(255,0,0)" r=".0001" />
    <text x="106.8026" y="-6.5616" stroke="rgb(0,0,0)" transform="translate(106.8026 -6.5616),scale(0.00001 -0.00001),translate(-106.8026 6.5616),translate(106.7975 -6.592499999999999),rotate(0),translate(-106.7975 6.592499999999999)" >iskandar-underloop</text>
    <line x1="106.8019" y1="-6.5619" x2="106.8019" y2="-6.5653" style="stroke:rgb(255,0,0);stroke-width:.00002" />
    <line x1="106.8019" y1="-6.5619" x2="106.8019" y2="-6.563599999999999" style="stroke:rgb(0,0,0);stroke-width:.00002" />
    <line x1="106.8019" y1="-6.563599999999999" x2="106.8019" y2="-6.563599999999999" style="stroke:rgb(0,0,0);stroke-width:.00002" />
    <line x1="106.8019" y1="-6.563599999999999" x2="106.8019" y2="-6.5653" style="stroke:rgb(0,0,0);stroke-width:.00002" />
    <circle cx="106.8019" cy="-6.5619" fill="rgb(255,0,0)" r=".0001" />
    <text x="106.8019" y="-6.5619" stroke="rgb(0,0,0)" transform="translate(106.8019 -6.5619),scale(0.00001 -0.00001),translate(-106.8019 6.5619),translate(106.7975 -6.592499999999999),rotate(0),translate(-106.7975 6.592499999999999)" >pedes-iskandar</text>
    <line x1="106.8019" y1="-6.5653" x2="106.799" y2="-6.5693" style="stroke:rgb(255,0,0);stroke-width:.00002" />
    <line x1="106.8019" y1="-6.5653" x2="106.80045000000001" y2="-6.5672999999999995" style="stroke:rgb(0,0,0);stroke-width:.00002" />
    <line x1="106.80045000000001" y1="-6.5672999999999995" x2="106.80045000000001" y2="-6.5672999999999995" style="stroke:rgb(0,0,0);stroke-width:.00002" />
    <line x1="106.80045000000001" y1="-6.5672999999999995" x2="106.799" y2="-6.5693" style="stroke:rgb(0,0,0);stroke-width:.00002" />
    <circle cx="106.8019" cy="-6.5653" fill="rgb(255,0,0)" r=".0001" />
    <text x="106.8019" y="-6.5653" stroke="rgb(0,0,0)" transform="translate(106.8019 -6.5653),scale(0.00001 -0.00001),translate(-106.8019 6.5653),translate(106.7975 -6.592499999999999),rotate(0),translate(-106.7975 6.592499999999999)" >pedes-sungai</text>
    <line x1="106.799" y1="-6.5693" x2="106.7989" y2="-6.5699" style="stroke:rgb(255,0,0);stroke-width:.00002" />
    <line x1="106.799" y1="-6.5693" x2="106.79895" y2="-6.569599999999999" style="stroke:rgb(0,0,0);stroke-width:.00002" />
    <line x1="106.79895" y1="-6.569599999999999" x2="106.79895" y2="-6.569599999999999" style="stroke:rgb(0,0,0);stroke-width:.00002" />
    <line x1="106.79895" y1="-6.569599999999999" x2="106.7989" y2="-6.5699" style="stroke:rgb(0,0,0);stroke-width:.00002" />
    <circle cx="106.799" cy="-6.5693" fill="rgb(255,0,0)" r=".0001" />
    <text x="106.799" y="-6.5693" stroke="rgb(0,0,0)" transform="translate(106.799 -6.5693),scale(0.00001 -0.00001),translate(-106.799 6.5693),translate(106.7975 -6.592499999999999),rotate(0),translate(-106.7975 6.592499999999999)" >pedes-bendrightatstart</text>
    <line x1="106.7989" y1="-6.5699" x2="106.7964" y2="-6.5734" style="stroke:rgb(255,0,0);stroke-width:.00002" />
    <line x1="106.7989" y1="-6.5699" x2="106.79765" y2="-6.57165" style="stroke:rgb(0,0,0);stroke-width:.00002" />
    <line x1="106.79765" y1="-6.57165" x2="106.79765" y2="-6.57165" style="stroke:rgb(0,0,0);stroke-width:.00002" />
    <line x1="106.79765" y1="-6.57165" x2="106.7964" y2="-6.5734" style="stroke:rgb(0,0,0);stroke-width:.00002" />
    <circle cx="106.7989" cy="-6.5699" fill="rgb(255,0,0)" r=".0001" />
    <text x="106.7989" y="-6.5699" stroke="rgb(0,0,0)" transform="translate(106.7989 -6.5699),scale(0.00001 -0.00001),translate(-106.7989 6.5699),translate(106.7975 -6.592499999999999),rotate(0),translate(-106.7975 6.592499999999999)" >pemuda-pedes</text>
    <line x1="106.7964" y1="-6.5734" x2="106.7968" y2="-6.5817" style="stroke:rgb(255,0,0);stroke-width:.00002" />
    <line x1="106.7964" y1="-6.5734" x2="106.79660000000001" y2="-6.5775500000000005" style="stroke:rgb(0,0,0);stroke-width:.00002" />
    <line x1="106.79660000000001" y1="-6.5775500000000005" x2="106.79660000000001" y2="-6.5775500000000005" style="stroke:rgb(0,0,0);stroke-width:.00002" />
    <line x1="106.79660000000001" y1="-6.5775500000000005" x2="106.7968" y2="-6.5817" style="stroke:rgb(0,0,0);stroke-width:.00002" />
    <circle cx="106.7964" cy="-6.5734" fill="rgb(255,0,0)" r=".0001" />
    <text x="106.7964" y="-6.5734" stroke="rgb(0,0,0)" transform="translate(106.7964 -6.5734),scale(0.00001 -0.00001),translate(-106.7964 6.5734),translate(106.7975 -6.592499999999999),rotate(0),translate(-106.7975 6.592499999999999)" >pemuda-hewan</text>
    <line x1="106.7968" y1="-6.5817" x2="106.7969" y2="-6.5887" style="stroke:rgb(255,0,0);stroke-width:.00002" />
    <line x1="106.7968" y1="-6.5817" x2="106.79685" y2="-6.5852" style="stroke:rgb(0,0,0);stroke-width:.00002" />
    <line x1="106.79685" y1="-6.5852" x2="106.79685" y2="-6.5852" style="stroke:rgb(0,0,0);stroke-width:.00002" />
    <line x1="106.79685" y1="-6.5852" x2="106.7969" y2="-6.5887" style="stroke:rgb(0,0,0);stroke-width:.00002" />
    <circle cx="106.7968" cy="-6.5817" fill="rgb(255,0,0)" r=".0001" />
    <text x="106.7968" y="-6.5817" stroke="rgb(0,0,0)" transform="translate(106.7968 -6.5817),scale(0.00001 -0.00001),translate(-106.7968 6.5817),translate(106.7975 -6.592499999999999),rotate(0),translate(-106.7975 6.592499999999999)" >sudirman-airmancur</text>
  </g>
</svg>
