<svg width="1450.0000000001023" height="1550.0000000000025" xmlns="http://www.w3.org/2000/svg" xmlns:xlink="http://www.w3.org/1999/xlink" >
  <g transform="translate(725.0000000000512 775.0000000000013) rotate(0) scale(10000 -10000) translate(-106.7975 6.592499999999999)">
    <path d="M106.725 -6.515 L106.87 -6.515 L106.87 -6.67 L106.725 -6.67 Z" fill="none" stroke="black" stroke-width="0.001" transform="translate(106.7975 -6.592499999999999) rotate(0) translate(-106.7975 6.592499999999999)" />
    <path d="M106.79501756557214 -6.592895268441125 L106.79571689139304 -6.592506754096182 L106.79596553043007 -6.5923686212978305 L106.79716422291237 -6.59448929399548 L106.79644868115956 -6.590553814355085 L106.79670397540636 -6.591957932712422 L106.79647575606441 -6.591715035662582 L106.79643158345397 -6.591317482168713 L106.79640144241164 -6.591046212787685 L106.79596831873135 -6.59029305968762 L106.79593356895194 -6.589493814760936 L106.79590031034839 -6.588728866879328 L106.79585010202521 -6.585214284256781 L106.79585010202521 -6.585214284256781 L106.79580475035205 -6.582039667136055 L106.79669 -6.5822199999999995 L106.79597 -6.581260000000011 L106.79633812195148 -6.581750829268642 L106.79509149002625 -6.581847250016013 L106.79470274998398 -6.581941490026262 L106.79302878772083 -6.582347299059753 L106.79270148272226 -6.579674308238091 L106.79270148272226 -6.579674308238091 L106.79239655340041 -6.57718405210964 L106.79290769521047 -6.57539505577442 L106.79290769521047 -6.57539505577442 L106.79340109504213 -6.573668156363651 L106.79350015360986 -6.57114216288666 L106.79350015360986 -6.57114216288666 L106.7938 -6.5686 L106.79389984639015 -6.571157837113339 L106.79389984639015 -6.571157837113339 L106.79379890495788 -6.573731843636332 L106.79329230478952 -6.57550494422558 L106.79329230478952 -6.57550494422558 L106.79280344659958 -6.577215947890359 L106.79309851727774 -6.579625691761909 L106.79309851727774 -6.579625691761909 L106.79337121227917 -6.581852700940247 L106.79480287999488 -6.581505629978862 L106.79480287999488 -6.581505629978862 L106.79658093902425 -6.5810745853656805 L106.79681 -6.581379999999998 L106.79681 -6.581379999999998 L106.79699904992958 -6.581632066572775 L106.79764134782577 -6.584588633809696 L106.79765848893392 -6.585788511379455 L106.7976997517213 -6.588676906496796 L106.79733224757364 -6.589433002646947 L106.79736699735305 -6.590232247573631 L106.79739903839224 -6.590969191474986 L106.79744755349387 -6.591405827389568 L106.79744755349387 -6.591405827389568 L106.79755870615881 -6.592406201374134 L106.79536699831667 -6.591941293650041 L106.79536699831667 -6.591941293650041 L106.79423428937383 -6.591701022056103 L106.79424911406313 -6.591923392395793 L106.79424911406313 -6.591923392395793 L106.79429999999999 -6.592686681448618 L106.7945 -6.59275 L106.7945 -6.5931500000000005 L106.7945 -6.59334164078651 L106.7941972135955 -6.593499999999999 L106.79401832815729 -6.593857770876399 L106.79392874176605 -6.594036943658891 L106.79378284271247 -6.594182842712469 L106.79378284271247 -6.594182842712469 L106.79366274169982 -6.594302943725148 L106.79344000000002 -6.59447 L106.79344000000002 -6.59447 L106.79313333333334 -6.5947 L106.79285 -6.5947 L106.79285 -6.5947 L106.79264397802214 -6.5947 L106.79224011154884 -6.594584609579056 L106.79224011154884 -6.594584609579056 L106.7922964064609 -6.594600693839649 L106.79214005314232 -6.595288648441437 L106.79214005314232 -6.595288648441437 L106.7919749884561 -6.5960149330607205 L106.7919685182261 -6.5966350823207724 L106.79312623481158 -6.596950823207723 L106.79382325521328 -6.597140919680911 L106.79304981321636 -6.596355430424298 L106.79375206009954 -6.59448277206916 L106.79395425763812 -6.593943578632956 Z" stroke="black" stroke-width="0.0002" fill="none" />
    <circle 
      cx="106.7938" cy="-12.5686"
      r="15" transform="translate(106.7938 -6.5686) scale(0.00001 -0.00001) translate(-106.7938 6.5686) translate(106.7975 -6.592499999999999) rotate(0) translate(-106.7975 6.592499999999999)"
      fill="white" stroke="black" stroke-width="2"/>
    <circle 
      cx="106.7938" cy="-12.5686"
      r="15" transform="translate(106.7938 -6.5686) scale(0.00001 -0.00001) translate(-106.7938 6.5686) translate(106.7975 -6.592499999999999) rotate(0) translate(-106.7975 6.592499999999999)"
      fill="white" stroke="none"/>
    <text x="106.7938" y="-6.5686" fill="black" text-anchor="middle" transform="translate(106.7938 -6.5686) scale(0.00001 -0.00001) translate(-106.7938 6.5686) translate(106.7975 -6.592499999999999) rotate(0) translate(-106.7975 6.592499999999999)">22</text>
    <line x1="106.7946" y1="-6.5945" x2="106.7973" y2="-6.593" style="stroke:rgb(255,0,0);stroke-width:.00002" />
    <line x1="106.7946" y1="-6.5945" x2="106.79560033708955" y2="-6.593944257172471" style="stroke:rgb(0,0,0);stroke-width:.00002" />
    <line x1="106.79560033708955" y1="-6.593944257172471" x2="106.79629966291046" y2="-6.593555742827529" style="stroke:rgb(0,0,0);stroke-width:.00002" />
    <line x1="106.79629966291046" y1="-6.593555742827529" x2="106.7973" y2="-6.593" style="stroke:rgb(0,0,0);stroke-width:.00002" />
    <circle cx="106.7946" cy="-6.5945" fill="rgb(255,0,0)" r=".0001" />
    <text x="106.7946" y="-6.5945" stroke="rgb(0,0,0)" transform="translate(106.7946 -6.5945),scale(0.00001 -0.00001),translate(-106.7946 6.5945),translate(106.7975 -6.592499999999999),rotate(0),translate(-106.7975 6.592499999999999)" >kb-gedong-sawah</text>
    <line x1="106.7973" y1="-6.593" x2="106.7971" y2="-6.5919" style="stroke:rgb(255,0,0);stroke-width:.00002" />
    <line x1="106.7973" y1="-6.593" x2="106.79755777087641" y2="-6.594417739820197" style="stroke:rgb(0,0,0);stroke-width:.00002" />
    <line x1="106.79755777087641" y1="-6.594417739820197" x2="106.7968422291236" y2="-6.590482260179802" style="stroke:rgb(0,0,0);stroke-width:.00002" />
    <line x1="106.7968422291236" y1="-6.590482260179802" x2="106.7971" y2="-6.5919" style="stroke:rgb(0,0,0);stroke-width:.00002" />
    <circle cx="106.7973" cy="-6.593" fill="rgb(255,0,0)" r=".0001" />
    <text x="106.7973" y="-6.593" stroke="rgb(0,0,0)" transform="translate(106.7973 -6.593),scale(0.00001 -0.00001),translate(-106.7973 6.593),translate(106.7975 -6.592499999999999),rotate(0),translate(-106.7975 6.592499999999999)" >kb-polisi-militer</text>
    <line x1="106.7971" y1="-6.5919" x2="106.797" y2="-6.591" style="stroke:rgb(255,0,0);stroke-width:.00002" />
    <line x1="106.7971" y1="-6.5919" x2="106.79707208630522" y2="-6.5916487767469345" style="stroke:rgb(0,0,0);stroke-width:.00002" />
    <line x1="106.79707208630522" y1="-6.5916487767469345" x2="106.79702791369478" y2="-6.591251223253066" style="stroke:rgb(0,0,0);stroke-width:.00002" />
    <line x1="106.79702791369478" y1="-6.591251223253066" x2="106.797" y2="-6.591" style="stroke:rgb(0,0,0);stroke-width:.00002" />
    <circle cx="106.7971" cy="-6.5919" fill="rgb(255,0,0)" r=".0001" />
    <text x="106.7971" y="-6.5919" stroke="rgb(0,0,0)" transform="translate(106.7971 -6.5919),scale(0.00001 -0.00001),translate(-106.7971 6.5919),translate(106.7975 -6.592499999999999),rotate(0),translate(-106.7975 6.592499999999999)" >sudirman-pengadilan</text>
    <line x1="106.797" y1="-6.591" x2="106.7969" y2="-6.5887" style="stroke:rgb(255,0,0);stroke-width:.00002" />
    <line x1="106.797" y1="-6.591" x2="106.7969673748897" y2="-6.590249622463342" style="stroke:rgb(0,0,0);stroke-width:.00002" />
    <line x1="106.7969673748897" y1="-6.590249622463342" x2="106.79693262511029" y2="-6.589450377536658" style="stroke:rgb(0,0,0);stroke-width:.00002" />
    <line x1="106.79693262511029" y1="-6.589450377536658" x2="106.7969" y2="-6.5887" style="stroke:rgb(0,0,0);stroke-width:.00002" />
    <circle cx="106.797" cy="-6.591" fill="rgb(255,0,0)" r=".0001" />
    <text x="106.797" y="-6.591" stroke="rgb(0,0,0)" transform="translate(106.797 -6.591),scale(0.00001 -0.00001),translate(-106.797 6.591),translate(106.7975 -6.592499999999999),rotate(0),translate(-106.7975 6.592499999999999)" >ggbaru-sudirman</text>
    <line x1="106.7969" y1="-6.5887" x2="106.7968" y2="-6.5817" style="stroke:rgb(255,0,0);stroke-width:.00002" />
    <line x1="106.7969" y1="-6.5887" x2="106.79685" y2="-6.5852" style="stroke:rgb(0,0,0);stroke-width:.00002" />
    <line x1="106.79685" y1="-6.5852" x2="106.79685" y2="-6.5852" style="stroke:rgb(0,0,0);stroke-width:.00002" />
    <line x1="106.79685" y1="-6.5852" x2="106.7968" y2="-6.5817" style="stroke:rgb(0,0,0);stroke-width:.00002" />
    <circle cx="106.7969" cy="-6.5887" fill="rgb(255,0,0)" r=".0001" />
    <text x="106.7969" y="-6.5887" stroke="rgb(0,0,0)" transform="translate(106.7969 -6.5887),scale(0.00001 -0.00001),translate(-106.7969 6.5887),translate(106.7975 -6.592499999999999),rotate(0),translate(-106.7975 6.592499999999999)" >sudirman-sawojajar</text>
    <line x1="106.7968" y1="-6.5817" x2="106.7965" y2="-6.5813" style="stroke:rgb(255,0,0);stroke-width:.00002" />
    <line x1="106.7968" y1="-6.5817" x2="106.79701" y2="-6.581979999999994" style="stroke:rgb(0,0,0);stroke-width:.00002" />
    <line x1="106.79701" y1="-6.581979999999994" x2="106.79629" y2="-6.581020000000006" style="stroke:rgb(0,0,0);stroke-width:.00002" />
    <line x1="106.79629" y1="-6.581020000000006" x2="106.7965" y2="-6.5813" style="stroke:rgb(0,0,0);stroke-width:.00002" />
    <circle cx="106.7968" cy="-6.5817" fill="rgb(255,0,0)" r=".0001" />
    <text x="106.7968" y="-6.5817" stroke="rgb(0,0,0)" transform="translate(106.7968 -6.5817),scale(0.00001 -0.00001),translate(-106.7968 6.5817),translate(106.7975 -6.592499999999999),rotate(0),translate(-106.7975 6.592499999999999)" >sudirman-airmancur</text>
    <line x1="106.7965" y1="-6.5813" x2="106.7932" y2="-6.5821" style="stroke:rgb(255,0,0);stroke-width:.00002" />
    <line x1="106.7965" y1="-6.5813" x2="106.79504437002113" y2="-6.581652879994875" style="stroke:rgb(0,0,0);stroke-width:.00002" />
    <line x1="106.79504437002113" y1="-6.581652879994875" x2="106.79465562997886" y2="-6.581747120005124" style="stroke:rgb(0,0,0);stroke-width:.00002" />
    <line x1="106.79465562997886" y1="-6.581747120005124" x2="106.7932" y2="-6.5821" style="stroke:rgb(0,0,0);stroke-width:.00002" />
    <circle cx="106.7965" cy="-6.5813" fill="rgb(255,0,0)" r=".0001" />
    <text x="106.7965" y="-6.5813" stroke="rgb(0,0,0)" transform="translate(106.7965 -6.5813),scale(0.00001 -0.00001),translate(-106.7965 6.5813),translate(106.7975 -6.592499999999999),rotate(0),translate(-106.7975 6.592499999999999)" >martadinata-airmancur</text>
    <line x1="106.7932" y1="-6.5821" x2="106.7926" y2="-6.5772" style="stroke:rgb(255,0,0);stroke-width:.00002" />
    <line x1="106.7932" y1="-6.5821" x2="106.7929" y2="-6.57965" style="stroke:rgb(0,0,0);stroke-width:.00002" />
    <line x1="106.7929" y1="-6.57965" x2="106.7929" y2="-6.57965" style="stroke:rgb(0,0,0);stroke-width:.00002" />
    <line x1="106.7929" y1="-6.57965" x2="106.7926" y2="-6.5772" style="stroke:rgb(0,0,0);stroke-width:.00002" />
    <circle cx="106.7932" cy="-6.5821" fill="rgb(255,0,0)" r=".0001" />
    <text x="106.7932" y="-6.5821" stroke="rgb(0,0,0)" transform="translate(106.7932 -6.5821),scale(0.00001 -0.00001),translate(-106.7932 6.5821),translate(106.7975 -6.592499999999999),rotate(0),translate(-106.7975 6.592499999999999)" >martadinata-bubulak</text>
    <line x1="106.7926" y1="-6.5772" x2="106.7936" y2="-6.5737" style="stroke:rgb(255,0,0);stroke-width:.00002" />
    <line x1="106.7926" y1="-6.5772" x2="106.7931" y2="-6.57545" style="stroke:rgb(0,0,0);stroke-width:.00002" />
    <line x1="106.7931" y1="-6.57545" x2="106.7931" y2="-6.57545" style="stroke:rgb(0,0,0);stroke-width:.00002" />
    <line x1="106.7931" y1="-6.57545" x2="106.7936" y2="-6.5737" style="stroke:rgb(0,0,0);stroke-width:.00002" />
    <circle cx="106.7926" cy="-6.5772" fill="rgb(255,0,0)" r=".0001" />
    <text x="106.7926" y="-6.5772" stroke="rgb(0,0,0)" transform="translate(106.7926 -6.5772),scale(0.00001 -0.00001),translate(-106.7926 6.5772),translate(106.7975 -6.592499999999999),rotate(0),translate(-106.7975 6.592499999999999)" >jl-bubulak-1</text>
    <line x1="106.7936" y1="-6.5737" x2="106.7938" y2="-6.5686" style="stroke:rgb(255,0,0);stroke-width:.00002" />
    <line x1="106.7936" y1="-6.5737" x2="106.7937" y2="-6.571149999999999" style="stroke:rgb(0,0,0);stroke-width:.00002" />
    <line x1="106.7937" y1="-6.571149999999999" x2="106.7937" y2="-6.571149999999999" style="stroke:rgb(0,0,0);stroke-width:.00002" />
    <line x1="106.7937" y1="-6.571149999999999" x2="106.7938" y2="-6.5686" style="stroke:rgb(0,0,0);stroke-width:.00002" />
    <circle cx="106.7936" cy="-6.5737" fill="rgb(255,0,0)" r=".0001" />
    <text x="106.7936" y="-6.5737" stroke="rgb(0,0,0)" transform="translate(106.7936 -6.5737),scale(0.00001 -0.00001),translate(-106.7936 6.5737),translate(106.7975 -6.592499999999999),rotate(0),translate(-106.7975 6.592499999999999)" >jl-bubulak-pondok-rumput</text>
    <line x1="106.7938" y1="-6.5686" x2="106.7936" y2="-6.5737" style="stroke:rgb(255,0,0);stroke-width:.00002" />
    <line x1="106.7938" y1="-6.5686" x2="106.7937" y2="-6.571149999999999" style="stroke:rgb(0,0,0);stroke-width:.00002" />
    <line x1="106.7937" y1="-6.571149999999999" x2="106.7937" y2="-6.571149999999999" style="stroke:rgb(0,0,0);stroke-width:.00002" />
    <line x1="106.7937" y1="-6.571149999999999" x2="106.7936" y2="-6.5737" style="stroke:rgb(0,0,0);stroke-width:.00002" />
    <circle cx="106.7938" cy="-6.5686" fill="rgb(255,0,0)" r=".0001" />
    <text x="106.7938" y="-6.5686" stroke="rgb(0,0,0)" transform="translate(106.7938 -6.5686),scale(0.00001 -0.00001),translate(-106.7938 6.5686),translate(106.7975 -6.592499999999999),rotate(0),translate(-106.7975 6.592499999999999)" >pondok-rumput-end</text>
    <line x1="106.7936" y1="-6.5737" x2="106.7926" y2="-6.5772" style="stroke:rgb(255,0,0);stroke-width:.00002" />
    <line x1="106.7936" y1="-6.5737" x2="106.7931" y2="-6.57545" style="stroke:rgb(0,0,0);stroke-width:.00002" />
    <line x1="106.7931" y1="-6.57545" x2="106.7931" y2="-6.57545" style="stroke:rgb(0,0,0);stroke-width:.00002" />
    <line x1="106.7931" y1="-6.57545" x2="106.7926" y2="-6.5772" style="stroke:rgb(0,0,0);stroke-width:.00002" />
    <circle cx="106.7936" cy="-6.5737" fill="rgb(255,0,0)" r=".0001" />
    <text x="106.7936" y="-6.5737" stroke="rgb(0,0,0)" transform="translate(106.7936 -6.5737),scale(0.00001 -0.00001),translate(-106.7936 6.5737),translate(106.7975 -6.592499999999999),rotate(0),translate(-106.7975 6.592499999999999)" >jl-bubulak-pondok-rumput</text>
    <line x1="106.7926" y1="-6.5772" x2="106.7932" y2="-6.5821" style="stroke:rgb(255,0,0);stroke-width:.00002" />
    <line x1="106.7926" y1="-6.5772" x2="106.7929" y2="-6.57965" style="stroke:rgb(0,0,0);stroke-width:.00002" />
    <line x1="106.7929" y1="-6.57965" x2="106.7929" y2="-6.57965" style="stroke:rgb(0,0,0);stroke-width:.00002" />
    <line x1="106.7929" y1="-6.57965" x2="106.7932" y2="-6.5821" style="stroke:rgb(0,0,0);stroke-width:.00002" />
    <circle cx="106.7926" cy="-6.5772" fill="rgb(255,0,0)" r=".0001" />
    <text x="106.7926" y="-6.5772" stroke="rgb(0,0,0)" transform="translate(106.7926 -6.5772),scale(0.00001 -0.00001),translate(-106.7926 6.5772),translate(106.7975 -6.592499999999999),rotate(0),translate(-106.7975 6.592499999999999)" >jl-bubulak-1</text>
    <line x1="106.7932" y1="-6.5821" x2="106.7965" y2="-6.5813" style="stroke:rgb(255,0,0);stroke-width:.00002" />
    <line x1="106.7932" y1="-6.5821" x2="106.79485" y2="-6.5817" style="stroke:rgb(0,0,0);stroke-width:.00002" />
    <line x1="106.79485" y1="-6.5817" x2="106.79485" y2="-6.5817" style="stroke:rgb(0,0,0);stroke-width:.00002" />
    <line x1="106.79485" y1="-6.5817" x2="106.7965" y2="-6.5813" style="stroke:rgb(0,0,0);stroke-width:.00002" />
    <circle cx="106.7932" cy="-6.5821" fill="rgb(255,0,0)" r=".0001" />
    <text x="106.7932" y="-6.5821" stroke="rgb(0,0,0)" transform="translate(106.7932 -6.5821),scale(0.00001 -0.00001),translate(-106.7932 6.5821),translate(106.7975 -6.592499999999999),rotate(0),translate(-106.7975 6.592499999999999)" >martadinata-bubulak</text>
    <line x1="106.7965" y1="-6.5813" x2="106.7968" y2="-6.5817" style="stroke:rgb(255,0,0);stroke-width:.00002" />
    <line x1="106.7965" y1="-6.5813" x2="106.79665" y2="-6.5815" style="stroke:rgb(0,0,0);stroke-width:.00002" />
    <line x1="106.79665" y1="-6.5815" x2="106.79665" y2="-6.5815" style="stroke:rgb(0,0,0);stroke-width:.00002" />
    <line x1="106.79665" y1="-6.5815" x2="106.7968" y2="-6.5817" style="stroke:rgb(0,0,0);stroke-width:.00002" />
    <circle cx="106.7965" cy="-6.5813" fill="rgb(255,0,0)" r=".0001" />
    <text x="106.7965" y="-6.5813" stroke="rgb(0,0,0)" transform="translate(106.7965 -6.5813),scale(0.00001 -0.00001),translate(-106.7965 6.5813),translate(106.7975 -6.592499999999999),rotate(0),translate(-106.7975 6.592499999999999)" >martadinata-airmancur</text>
    <line x1="106.7968" y1="-6.5817" x2="106.7969" y2="-6.5887" style="stroke:rgb(255,0,0);stroke-width:.00002" />
    <line x1="106.7968" y1="-6.5817" x2="106.79684142944593" y2="-6.584600061215121" style="stroke:rgb(0,0,0);stroke-width:.00002" />
    <line x1="106.79684142944593" y1="-6.584600061215121" x2="106.79685857055408" y2="-6.58579993878488" style="stroke:rgb(0,0,0);stroke-width:.00002" />
    <line x1="106.79685857055408" y1="-6.58579993878488" x2="106.7969" y2="-6.5887" style="stroke:rgb(0,0,0);stroke-width:.00002" />
    <circle cx="106.7968" cy="-6.5817" fill="rgb(255,0,0)" r=".0001" />
    <text x="106.7968" y="-6.5817" stroke="rgb(0,0,0)" transform="translate(106.7968 -6.5817),scale(0.00001 -0.00001),translate(-106.7968 6.5817),translate(106.7975 -6.592499999999999),rotate(0),translate(-106.7975 6.592499999999999)" >sudirman-airmancur</text>
    <line x1="106.7969" y1="-6.5887" x2="106.797" y2="-6.591" style="stroke:rgb(255,0,0);stroke-width:.00002" />
    <line x1="106.7969" y1="-6.5887" x2="106.79693262511029" y2="-6.589450377536658" style="stroke:rgb(0,0,0);stroke-width:.00002" />
    <line x1="106.79693262511029" y1="-6.589450377536658" x2="106.7969673748897" y2="-6.590249622463342" style="stroke:rgb(0,0,0);stroke-width:.00002" />
    <line x1="106.7969673748897" y1="-6.590249622463342" x2="106.797" y2="-6.591" style="stroke:rgb(0,0,0);stroke-width:.00002" />
    <circle cx="106.7969" cy="-6.5887" fill="rgb(255,0,0)" r=".0001" />
    <text x="106.7969" y="-6.5887" stroke="rgb(0,0,0)" transform="translate(106.7969 -6.5887),scale(0.00001 -0.00001),translate(-106.7969 6.5887),translate(106.7975 -6.592499999999999),rotate(0),translate(-106.7975 6.592499999999999)" >sudirman-sawojajar</text>
    <line x1="106.797" y1="-6.591" x2="106.7971" y2="-6.5919" style="stroke:rgb(255,0,0);stroke-width:.00002" />
    <line x1="106.797" y1="-6.591" x2="106.79705" y2="-6.59145" style="stroke:rgb(0,0,0);stroke-width:.00002" />
    <line x1="106.79705" y1="-6.59145" x2="106.79705" y2="-6.59145" style="stroke:rgb(0,0,0);stroke-width:.00002" />
    <line x1="106.79705" y1="-6.59145" x2="106.7971" y2="-6.5919" style="stroke:rgb(0,0,0);stroke-width:.00002" />
    <circle cx="106.797" cy="-6.591" fill="rgb(255,0,0)" r=".0001" />
    <text x="106.797" y="-6.591" stroke="rgb(0,0,0)" transform="translate(106.797 -6.591),scale(0.00001 -0.00001),translate(-106.797 6.591),translate(106.7975 -6.592499999999999),rotate(0),translate(-106.7975 6.592499999999999)" >ggbaru-sudirman</text>
    <line x1="106.7971" y1="-6.5919" x2="106.7938" y2="-6.5912" style="stroke:rgb(255,0,0);stroke-width:.00002" />
    <line x1="106.7971" y1="-6.5919" x2="106.79545" y2="-6.59155" style="stroke:rgb(0,0,0);stroke-width:.00002" />
    <line x1="106.79545" y1="-6.59155" x2="106.79545" y2="-6.59155" style="stroke:rgb(0,0,0);stroke-width:.00002" />
    <line x1="106.79545" y1="-6.59155" x2="106.7938" y2="-6.5912" style="stroke:rgb(0,0,0);stroke-width:.00002" />
    <circle cx="106.7971" cy="-6.5919" fill="rgb(255,0,0)" r=".0001" />
    <text x="106.7971" y="-6.5919" stroke="rgb(0,0,0)" transform="translate(106.7971 -6.5919),scale(0.00001 -0.00001),translate(-106.7971 6.5919),translate(106.7975 -6.592499999999999),rotate(0),translate(-106.7975 6.592499999999999)" >sudirman-pengadilan</text>
    <line x1="106.7938" y1="-6.5912" x2="106.7939" y2="-6.5927" style="stroke:rgb(255,0,0);stroke-width:.00002" />
    <line x1="106.7938" y1="-6.5912" x2="106.79384999999999" y2="-6.59195" style="stroke:rgb(0,0,0);stroke-width:.00002" />
    <line x1="106.79384999999999" y1="-6.59195" x2="106.79384999999999" y2="-6.59195" style="stroke:rgb(0,0,0);stroke-width:.00002" />
    <line x1="106.79384999999999" y1="-6.59195" x2="106.7939" y2="-6.5927" style="stroke:rgb(0,0,0);stroke-width:.00002" />
    <circle cx="106.7938" cy="-6.5912" fill="rgb(255,0,0)" r=".0001" />
    <text x="106.7938" y="-6.5912" stroke="rgb(0,0,0)" transform="translate(106.7938 -6.5912),scale(0.00001 -0.00001),translate(-106.7938 6.5912),translate(106.7975 -6.592499999999999),rotate(0),translate(-106.7975 6.592499999999999)" >pengadilan-gedongsawah</text>
    <line x1="106.7939" y1="-6.5927" x2="106.7939" y2="-6.5932" style="stroke:rgb(255,0,0);stroke-width:.00002" />
    <line x1="106.7939" y1="-6.5927" x2="106.7939" y2="-6.59275" style="stroke:rgb(0,0,0);stroke-width:.00002" />
    <line x1="106.7939" y1="-6.59275" x2="106.7939" y2="-6.5931500000000005" style="stroke:rgb(0,0,0);stroke-width:.00002" />
    <line x1="106.7939" y1="-6.5931500000000005" x2="106.7939" y2="-6.5932" style="stroke:rgb(0,0,0);stroke-width:.00002" />
    <circle cx="106.7939" cy="-6.5927" fill="rgb(255,0,0)" r=".0001" />
    <text x="106.7939" y="-6.5927" stroke="rgb(0,0,0)" transform="translate(106.7939 -6.5927),scale(0.00001 -0.00001),translate(-106.7939 6.5927),translate(106.7975 -6.592499999999999),rotate(0),translate(-106.7975 6.592499999999999)" >mekah-gedongsawah</text>
    <line x1="106.7939" y1="-6.5932" x2="106.7936" y2="-6.5938" style="stroke:rgb(255,0,0);stroke-width:.00002" />
    <line x1="106.7939" y1="-6.5932" x2="106.79383944271909" y2="-6.5933211145618005" style="stroke:rgb(0,0,0);stroke-width:.00002" />
    <line x1="106.79383944271909" y1="-6.5933211145618005" x2="106.79366055728089" y2="-6.593678885438201" style="stroke:rgb(0,0,0);stroke-width:.00002" />
    <line x1="106.79366055728089" y1="-6.593678885438201" x2="106.7936" y2="-6.5938" style="stroke:rgb(0,0,0);stroke-width:.00002" />
    <circle cx="106.7939" cy="-6.5932" fill="rgb(255,0,0)" r=".0001" />
    <text x="106.7939" y="-6.5932" stroke="rgb(0,0,0)" transform="translate(106.7939 -6.5932),scale(0.00001 -0.00001),translate(-106.7939 6.5932),translate(106.7975 -6.592499999999999),rotate(0),translate(-106.7975 6.592499999999999)" >gedongsawah-1</text>
    <line x1="106.7936" y1="-6.5938" x2="106.7934" y2="-6.594" style="stroke:rgb(255,0,0);stroke-width:.00002" />
    <line x1="106.7936" y1="-6.5938" x2="106.7935" y2="-6.5939" style="stroke:rgb(0,0,0);stroke-width:.00002" />
    <line x1="106.7935" y1="-6.5939" x2="106.7935" y2="-6.5939" style="stroke:rgb(0,0,0);stroke-width:.00002" />
    <line x1="106.7935" y1="-6.5939" x2="106.7934" y2="-6.594" style="stroke:rgb(0,0,0);stroke-width:.00002" />
    <circle cx="106.7936" cy="-6.5938" fill="rgb(255,0,0)" r=".0001" />
    <text x="106.7936" y="-6.5938" stroke="rgb(0,0,0)" transform="translate(106.7936 -6.5938),scale(0.00001 -0.00001),translate(-106.7936 6.5938),translate(106.7975 -6.592499999999999),rotate(0),translate(-106.7975 6.592499999999999)" >gedongsawah-crossing</text>
    <line x1="106.7934" y1="-6.594" x2="106.793" y2="-6.5943" style="stroke:rgb(255,0,0);stroke-width:.00002" />
    <line x1="106.7934" y1="-6.594" x2="106.79320000000001" y2="-6.59415" style="stroke:rgb(0,0,0);stroke-width:.00002" />
    <line x1="106.79320000000001" y1="-6.59415" x2="106.79320000000001" y2="-6.59415" style="stroke:rgb(0,0,0);stroke-width:.00002" />
    <line x1="106.79320000000001" y1="-6.59415" x2="106.793" y2="-6.5943" style="stroke:rgb(0,0,0);stroke-width:.00002" />
    <circle cx="106.7934" cy="-6.594" fill="rgb(255,0,0)" r=".0001" />
    <text x="106.7934" y="-6.594" stroke="rgb(0,0,0)" transform="translate(106.7934 -6.594),scale(0.00001 -0.00001),translate(-106.7934 6.594),translate(106.7975 -6.592499999999999),rotate(0),translate(-106.7975 6.592499999999999)" >gedongsawah-2</text>
    <line x1="106.793" y1="-6.5943" x2="106.7927" y2="-6.5943" style="stroke:rgb(255,0,0);stroke-width:.00002" />
    <line x1="106.793" y1="-6.5943" x2="106.79285" y2="-6.5943" style="stroke:rgb(0,0,0);stroke-width:.00002" />
    <line x1="106.79285" y1="-6.5943" x2="106.79285" y2="-6.5943" style="stroke:rgb(0,0,0);stroke-width:.00002" />
    <line x1="106.79285" y1="-6.5943" x2="106.7927" y2="-6.5943" style="stroke:rgb(0,0,0);stroke-width:.00002" />
    <circle cx="106.793" cy="-6.5943" fill="rgb(255,0,0)" r=".0001" />
    <text x="106.793" y="-6.5943" stroke="rgb(0,0,0)" transform="translate(106.793 -6.5943),scale(0.00001 -0.00001),translate(-106.793 6.5943),translate(106.7975 -6.592499999999999),rotate(0),translate(-106.7975 6.592499999999999)" >gedongsawah-3</text>
    <line x1="106.7927" y1="-6.5943" x2="106.792" y2="-6.5941" style="stroke:rgb(255,0,0);stroke-width:.00002" />
    <line x1="106.7927" y1="-6.5943" x2="106.79235" y2="-6.5942" style="stroke:rgb(0,0,0);stroke-width:.00002" />
    <line x1="106.79235" y1="-6.5942" x2="106.79235" y2="-6.5942" style="stroke:rgb(0,0,0);stroke-width:.00002" />
    <line x1="106.79235" y1="-6.5942" x2="106.792" y2="-6.5941" style="stroke:rgb(0,0,0);stroke-width:.00002" />
    <circle cx="106.7927" cy="-6.5943" fill="rgb(255,0,0)" r=".0001" />
    <text x="106.7927" y="-6.5943" stroke="rgb(0,0,0)" transform="translate(106.7927 -6.5943),scale(0.00001 -0.00001),translate(-106.7927 6.5943),translate(106.7975 -6.592499999999999),rotate(0),translate(-106.7975 6.592499999999999)" >gedongsawah-4</text>
    <line x1="106.792" y1="-6.5941" x2="106.7915" y2="-6.5963" style="stroke:rgb(255,0,0);stroke-width:.00002" />
    <line x1="106.792" y1="-6.5941" x2="106.79175000000001" y2="-6.5952" style="stroke:rgb(0,0,0);stroke-width:.00002" />
    <line x1="106.79175000000001" y1="-6.5952" x2="106.79175000000001" y2="-6.5952" style="stroke:rgb(0,0,0);stroke-width:.00002" />
    <line x1="106.79175000000001" y1="-6.5952" x2="106.7915" y2="-6.5963" style="stroke:rgb(0,0,0);stroke-width:.00002" />
    <circle cx="106.792" cy="-6.5941" fill="rgb(255,0,0)" r=".0001" />
    <text x="106.792" y="-6.5941" stroke="rgb(0,0,0)" transform="translate(106.792 -6.5941),scale(0.00001 -0.00001),translate(-106.792 6.5941),translate(106.7975 -6.592499999999999),rotate(0),translate(-106.7975 6.592499999999999)" >gedongsawah-dewisartika</text>
    <line x1="106.7915" y1="-6.5963" x2="106.7937" y2="-6.5969" style="stroke:rgb(255,0,0);stroke-width:.00002" />
    <line x1="106.7915" y1="-6.5963" x2="106.79202114170725" y2="-6.596442129556525" style="stroke:rgb(0,0,0);stroke-width:.00002" />
    <line x1="106.79202114170725" y1="-6.596442129556525" x2="106.79317885829273" y2="-6.596757870443476" style="stroke:rgb(0,0,0);stroke-width:.00002" />
    <line x1="106.79317885829273" y1="-6.596757870443476" x2="106.7937" y2="-6.5969" style="stroke:rgb(0,0,0);stroke-width:.00002" />
    <circle cx="106.7915" cy="-6.5963" fill="rgb(255,0,0)" r=".0001" />
    <text x="106.7915" y="-6.5963" stroke="rgb(0,0,0)" transform="translate(106.7915 -6.5963),scale(0.00001 -0.00001),translate(-106.7915 6.5963),translate(106.7975 -6.592499999999999),rotate(0),translate(-106.7975 6.592499999999999)" >muslihat-dewisartika</text>
    <line x1="106.7937" y1="-6.5969" x2="106.7946" y2="-6.5945" style="stroke:rgb(255,0,0);stroke-width:.00002" />
    <line x1="106.7937" y1="-6.5969" x2="106.79379887655841" y2="-6.596636329177569" style="stroke:rgb(0,0,0);stroke-width:.00002" />
    <line x1="106.79379887655841" y1="-6.596636329177569" x2="106.79450112344159" y2="-6.594763670822431" style="stroke:rgb(0,0,0);stroke-width:.00002" />
    <line x1="106.79450112344159" y1="-6.594763670822431" x2="106.7946" y2="-6.5945" style="stroke:rgb(0,0,0);stroke-width:.00002" />
    <circle cx="106.7937" cy="-6.5969" fill="rgb(255,0,0)" r=".0001" />
    <text x="106.7937" y="-6.5969" stroke="rgb(0,0,0)" transform="translate(106.7937 -6.5969),scale(0.00001 -0.00001),translate(-106.7937 6.5969),translate(106.7975 -6.592499999999999),rotate(0),translate(-106.7975 6.592499999999999)" >kb-muslihat</text>
  </g>
</svg>
