<svg width="1049.9999999998977" height="1849.9999999999961" xmlns="http://www.w3.org/2000/svg" xmlns:xlink="http://www.w3.org/1999/xlink" >
  <g transform="translate(524.9999999999488 924.9999999999981) rotate(30) scale(10000 -10000) translate(-106.8125 6.592499999999999)">
    <path d="M106.76 -6.5 L106.865 -6.5 L106.865 -6.685 L106.76 -6.685 Z" fill="none" stroke="black" stroke-width="0.0025" transform="translate(106.8125 -6.592499999999999) rotate(30) translate(-106.8125 6.592499999999999)" />
    <path d="M106.79669184078843 -6.588304447048616 L106.79643720163494 -6.58254960217991 L106.79617155042179 -6.582195400562369 L106.79293482040302 -6.582933272001782 L106.79224016449616 -6.577092225154287 L106.79325727751898 -6.573608007626774 L106.793859 -6.568567 L106.79405272248103 -6.573737992373231 L106.79305383550384 -6.577159774845712 L106.79357668281406 -6.581556161031977 L106.79666422478911 -6.580852299718814 L106.79761260496417 -6.582116806618859 L106.79792957448954 -6.592893770481706 L106.79466857874766 -6.592202044112213 L106.79509999999999 -6.598673362897873 L106.79509999999999 -6.593483281573001 L106.79515191072312 -6.593379460126737 L106.79392548339962 -6.5946058874502915 L106.79326666666667 -6.5950999999999995 L106.79258795604429 -6.5950999999999995 L106.79259281292181 -6.595101387679291 L106.79244997691224 -6.5957298661214505 L106.79010647469492 -6.595090729153095 L106.79158803829876 -6.591139892876209 Z" stroke="black" stroke-width="0.0005" fill="none" />
    <circle 
      cx="106.79669184078843" cy="-12.588304447048616"
      r="15" transform="translate(106.79669184078843 -6.588304447048616) scale(0.000014999999999999999 -0.000014999999999999999) translate(-106.79669184078843 6.588304447048616) translate(106.8125 -6.592499999999999) rotate(-30) translate(-106.8125 6.592499999999999)"
      fill="white" stroke="black" stroke-width="2"/>
    <circle 
      cx="106.79643720163494" cy="-12.58254960217991"
      r="15" transform="translate(106.79643720163494 -6.58254960217991) scale(0.000014999999999999999 -0.000014999999999999999) translate(-106.79643720163494 6.58254960217991) translate(106.8125 -6.592499999999999) rotate(-30) translate(-106.8125 6.592499999999999)"
      fill="white" stroke="black" stroke-width="2"/>
    <circle 
      cx="106.79293482040302" cy="-12.582933272001782"
      r="15" transform="translate(106.79293482040302 -6.582933272001782) scale(0.000014999999999999999 -0.000014999999999999999) translate(-106.79293482040302 6.582933272001782) translate(106.8125 -6.592499999999999) rotate(-30) translate(-106.8125 6.592499999999999)"
      fill="white" stroke="black" stroke-width="2"/>
    <circle 
      cx="106.79761260496417" cy="-12.58211680661886"
      r="15" transform="translate(106.79761260496417 -6.582116806618859) scale(0.000014999999999999999 -0.000014999999999999999) translate(-106.79761260496417 6.582116806618859) translate(106.8125 -6.592499999999999) rotate(-30) translate(-106.8125 6.592499999999999)"
      fill="white" stroke="black" stroke-width="2"/>
    <circle 
      cx="106.79509999999999" cy="-12.598673362897873"
      r="15" transform="translate(106.79509999999999 -6.598673362897873) scale(0.000014999999999999999 -0.000014999999999999999) translate(-106.79509999999999 6.598673362897873) translate(106.8125 -6.592499999999999) rotate(-30) translate(-106.8125 6.592499999999999)"
      fill="white" stroke="black" stroke-width="2"/>
    <circle 
      cx="106.79515191072312" cy="-12.593379460126737"
      r="15" transform="translate(106.79515191072312 -6.593379460126737) scale(0.000014999999999999999 -0.000014999999999999999) translate(-106.79515191072312 6.593379460126737) translate(106.8125 -6.592499999999999) rotate(-30) translate(-106.8125 6.592499999999999)"
      fill="white" stroke="black" stroke-width="2"/>
    <circle 
      cx="106.79010647469492" cy="-12.595090729153096"
      r="15" transform="translate(106.79010647469492 -6.595090729153095) scale(0.000014999999999999999 -0.000014999999999999999) translate(-106.79010647469492 6.595090729153095) translate(106.8125 -6.592499999999999) rotate(-30) translate(-106.8125 6.592499999999999)"
      fill="white" stroke="black" stroke-width="2"/>
    <circle 
      cx="106.79158803829876" cy="-12.591139892876209"
      r="15" transform="translate(106.79158803829876 -6.591139892876209) scale(0.000014999999999999999 -0.000014999999999999999) translate(-106.79158803829876 6.591139892876209) translate(106.8125 -6.592499999999999) rotate(-30) translate(-106.8125 6.592499999999999)"
      fill="white" stroke="black" stroke-width="2"/>
    <circle 
      cx="106.79669184078843" cy="-12.588304447048616"
      r="15" transform="translate(106.79669184078843 -6.588304447048616) scale(0.000014999999999999999 -0.000014999999999999999) translate(-106.79669184078843 6.588304447048616) translate(106.8125 -6.592499999999999) rotate(-30) translate(-106.8125 6.592499999999999)"
      fill="white" stroke="none"/>
    <circle 
      cx="106.79643720163494" cy="-12.58254960217991"
      r="15" transform="translate(106.79643720163494 -6.58254960217991) scale(0.000014999999999999999 -0.000014999999999999999) translate(-106.79643720163494 6.58254960217991) translate(106.8125 -6.592499999999999) rotate(-30) translate(-106.8125 6.592499999999999)"
      fill="white" stroke="none"/>
    <circle 
      cx="106.79293482040302" cy="-12.582933272001782"
      r="15" transform="translate(106.79293482040302 -6.582933272001782) scale(0.000014999999999999999 -0.000014999999999999999) translate(-106.79293482040302 6.582933272001782) translate(106.8125 -6.592499999999999) rotate(-30) translate(-106.8125 6.592499999999999)"
      fill="white" stroke="none"/>
    <circle 
      cx="106.79761260496417" cy="-12.58211680661886"
      r="15" transform="translate(106.79761260496417 -6.582116806618859) scale(0.000014999999999999999 -0.000014999999999999999) translate(-106.79761260496417 6.582116806618859) translate(106.8125 -6.592499999999999) rotate(-30) translate(-106.8125 6.592499999999999)"
      fill="white" stroke="none"/>
    <circle 
      cx="106.79509999999999" cy="-12.598673362897873"
      r="15" transform="translate(106.79509999999999 -6.598673362897873) scale(0.000014999999999999999 -0.000014999999999999999) translate(-106.79509999999999 6.598673362897873) translate(106.8125 -6.592499999999999) rotate(-30) translate(-106.8125 6.592499999999999)"
      fill="white" stroke="none"/>
    <circle 
      cx="106.79515191072312" cy="-12.593379460126737"
      r="15" transform="translate(106.79515191072312 -6.593379460126737) scale(0.000014999999999999999 -0.000014999999999999999) translate(-106.79515191072312 6.593379460126737) translate(106.8125 -6.592499999999999) rotate(-30) translate(-106.8125 6.592499999999999)"
      fill="white" stroke="none"/>
    <circle 
      cx="106.79010647469492" cy="-12.595090729153096"
      r="15" transform="translate(106.79010647469492 -6.595090729153095) scale(0.000014999999999999999 -0.000014999999999999999) translate(-106.79010647469492 6.595090729153095) translate(106.8125 -6.592499999999999) rotate(-30) translate(-106.8125 6.592499999999999)"
      fill="white" stroke="none"/>
    <circle 
      cx="106.79158803829876" cy="-12.591139892876209"
      r="15" transform="translate(106.79158803829876 -6.591139892876209) scale(0.000014999999999999999 -0.000014999999999999999) translate(-106.79158803829876 6.591139892876209) translate(106.8125 -6.592499999999999) rotate(-30) translate(-106.8125 6.592499999999999)"
      fill="white" stroke="none"/>
    <text x="106.79669184078843" y="-6.588304447048616" fill="black" text-anchor="middle" transform="translate(106.79669184078843 -6.588304447048616) scale(0.000014999999999999999 -0.000014999999999999999) translate(-106.79669184078843 6.588304447048616) translate(106.8125 -6.592499999999999) rotate(-30) translate(-106.8125 6.592499999999999)">22</text>
    <text x="106.79643720163494" y="-6.58254960217991" fill="black" text-anchor="middle" transform="translate(106.79643720163494 -6.58254960217991) scale(0.000014999999999999999 -0.000014999999999999999) translate(-106.79643720163494 6.58254960217991) translate(106.8125 -6.592499999999999) rotate(-30) translate(-106.8125 6.592499999999999)">22</text>
    <text x="106.79293482040302" y="-6.582933272001782" fill="black" text-anchor="middle" transform="translate(106.79293482040302 -6.582933272001782) scale(0.000014999999999999999 -0.000014999999999999999) translate(-106.79293482040302 6.582933272001782) translate(106.8125 -6.592499999999999) rotate(-30) translate(-106.8125 6.592499999999999)">22</text>
    <text x="106.79761260496417" y="-6.582116806618859" fill="black" text-anchor="middle" transform="translate(106.79761260496417 -6.582116806618859) scale(0.000014999999999999999 -0.000014999999999999999) translate(-106.79761260496417 6.582116806618859) translate(106.8125 -6.592499999999999) rotate(-30) translate(-106.8125 6.592499999999999)">22</text>
    <text x="106.79509999999999" y="-6.598673362897873" fill="black" text-anchor="middle" transform="translate(106.79509999999999 -6.598673362897873) scale(0.000014999999999999999 -0.000014999999999999999) translate(-106.79509999999999 6.598673362897873) translate(106.8125 -6.592499999999999) rotate(-30) translate(-106.8125 6.592499999999999)">22</text>
    <text x="106.79515191072312" y="-6.593379460126737" fill="black" text-anchor="middle" transform="translate(106.79515191072312 -6.593379460126737) scale(0.000014999999999999999 -0.000014999999999999999) translate(-106.79515191072312 6.593379460126737) translate(106.8125 -6.592499999999999) rotate(-30) translate(-106.8125 6.592499999999999)">22</text>
    <text x="106.79010647469492" y="-6.595090729153095" fill="black" text-anchor="middle" transform="translate(106.79010647469492 -6.595090729153095) scale(0.000014999999999999999 -0.000014999999999999999) translate(-106.79010647469492 6.595090729153095) translate(106.8125 -6.592499999999999) rotate(-30) translate(-106.8125 6.592499999999999)">22</text>
    <text x="106.79158803829876" y="-6.591139892876209" fill="black" text-anchor="middle" transform="translate(106.79158803829876 -6.591139892876209) scale(0.000014999999999999999 -0.000014999999999999999) translate(-106.79158803829876 6.591139892876209) translate(106.8125 -6.592499999999999) rotate(-30) translate(-106.8125 6.592499999999999)">22</text>
    <line x1="106.7946" y1="-6.5945" x2="106.7973" y2="-6.593" style="stroke:rgb(255,0,0);stroke-width:.00002" />
    <line x1="106.7973" y1="-6.593" x2="106.7968" y2="-6.5817" style="stroke:rgb(255,0,0);stroke-width:.00002" />
    <line x1="106.7968" y1="-6.5817" x2="106.7965" y2="-6.5813" style="stroke:rgb(255,0,0);stroke-width:.00002" />
    <line x1="106.7965" y1="-6.5813" x2="106.793232" y2="-6.582045" style="stroke:rgb(255,0,0);stroke-width:.00002" />
    <line x1="106.793232" y1="-6.582045" x2="106.792647" y2="-6.577126" style="stroke:rgb(255,0,0);stroke-width:.00002" />
    <line x1="106.792647" y1="-6.577126" x2="106.793655" y2="-6.573673" style="stroke:rgb(255,0,0);stroke-width:.00002" />
    <line x1="106.793655" y1="-6.573673" x2="106.793859" y2="-6.568567" style="stroke:rgb(255,0,0);stroke-width:.00002" />
    <line x1="106.793859" y1="-6.568567" x2="106.793655" y2="-6.573673" style="stroke:rgb(255,0,0);stroke-width:.00002" />
    <line x1="106.793655" y1="-6.573673" x2="106.792647" y2="-6.577126" style="stroke:rgb(255,0,0);stroke-width:.00002" />
    <line x1="106.792647" y1="-6.577126" x2="106.793232" y2="-6.582045" style="stroke:rgb(255,0,0);stroke-width:.00002" />
    <line x1="106.793232" y1="-6.582045" x2="106.7965" y2="-6.5813" style="stroke:rgb(255,0,0);stroke-width:.00002" />
    <line x1="106.7965" y1="-6.5813" x2="106.7968" y2="-6.5817" style="stroke:rgb(255,0,0);stroke-width:.00002" />
    <line x1="106.7968" y1="-6.5817" x2="106.7971" y2="-6.5919" style="stroke:rgb(255,0,0);stroke-width:.00002" />
    <line x1="106.7971" y1="-6.5919" x2="106.7938" y2="-6.5912" style="stroke:rgb(255,0,0);stroke-width:.00002" />
    <line x1="106.7938" y1="-6.5912" x2="106.7939" y2="-6.5927" style="stroke:rgb(255,0,0);stroke-width:.00002" />
    <line x1="106.7939" y1="-6.5927" x2="106.7939" y2="-6.5932" style="stroke:rgb(255,0,0);stroke-width:.00002" />
    <line x1="106.7939" y1="-6.5932" x2="106.7936" y2="-6.5938" style="stroke:rgb(255,0,0);stroke-width:.00002" />
    <line x1="106.7936" y1="-6.5938" x2="106.7934" y2="-6.594" style="stroke:rgb(255,0,0);stroke-width:.00002" />
    <line x1="106.7934" y1="-6.594" x2="106.793" y2="-6.5943" style="stroke:rgb(255,0,0);stroke-width:.00002" />
    <line x1="106.793" y1="-6.5943" x2="106.7927" y2="-6.5943" style="stroke:rgb(255,0,0);stroke-width:.00002" />
    <line x1="106.7927" y1="-6.5943" x2="106.792" y2="-6.5941" style="stroke:rgb(255,0,0);stroke-width:.00002" />
    <line x1="106.792" y1="-6.5941" x2="106.7915" y2="-6.5963" style="stroke:rgb(255,0,0);stroke-width:.00002" />
    <line x1="106.7915" y1="-6.5963" x2="106.7937" y2="-6.5969" style="stroke:rgb(255,0,0);stroke-width:.00002" />
    <line x1="106.7937" y1="-6.5969" x2="106.7946" y2="-6.5945" style="stroke:rgb(255,0,0);stroke-width:.00002" />
  </g>
</svg>
