<svg width="1049.9999999998977" height="1849.9999999999961" xmlns="http://www.w3.org/2000/svg" xmlns:xlink="http://www.w3.org/1999/xlink" >
  <g transform="translate(524.9999999999488 924.9999999999981) rotate(30) scale(10000 -10000) translate(-106.8125 6.592499999999999)">
    <path d="M106.76 -6.5 L106.865 -6.5 L106.865 -6.685 L106.76 -6.685 Z" fill="none" stroke="black" stroke-width="0.0025" transform="translate(106.8125 -6.592499999999999) rotate(30) translate(-106.8125 6.592499999999999)" />
    <path d="M106.78768487156343 -6.559970160606264 L106.79766021975144 -6.589474502483233 L106.79545737303657 -6.589407354744427 L106.79515828837752 -6.591452096863486 L106.79393303572415 -6.591425593894279 L106.79415248077795 -6.590208405329168 L106.79627141125043 -6.59016770884122 L106.79600048213425 -6.581727856373079 L106.79567647957006 -6.573106705341996 L106.79814587622673 -6.5695744656338455 L106.79827631381731 -6.5688848653487515 L106.80110892585841 -6.564988176436534 L106.8011491257798 -6.562872655573693 L106.79790189867494 -6.563542145606424 L106.78693378789869 -6.560283545338347 L106.78794970421214 -6.558138043753309 L106.78778784726696 -6.553705503556092 L106.78722146094994 -6.548846711091959 L106.78615433142338 -6.547192913200103 L106.78548475592959 -6.547330482482936 L106.7836319557951 -6.543180813769868 L106.78321294271635 -6.542148632845266 L106.78235652088482 -6.5415963809841315 L106.78210393617488 -6.53787717815758 L106.78242323898918 -6.535784852262476 L106.78213939603397 -6.533975998520513 L106.78912654600667 -6.534065000131135 L106.79007767679275 -6.533185329964955 L106.7955657925914 -6.5334517060077495 L106.79575395060164 -6.5311450642865285 L106.79616103672218 -6.531097106195615 L106.79627226434759 -6.530587746041883 L106.800305 -6.530774 L106.79692373565243 -6.531354253958117 L106.79682096327782 -6.531824893804385 L106.79649804939838 -6.53186293571347 L106.79630020740859 -6.53428829399225 L106.79037432320725 -6.534000670035044 L106.78943545399333 -6.5348689998688645 L106.78307660396604 -6.534788001479487 L106.7832327610108 -6.535783147737518 L106.78290806382512 -6.537910821842471 L106.78312747911518 -6.5411416190158675 L106.78385905728366 -6.5416133671547385 L106.78436804420501 -6.542867186230363 L106.78595324407041 -6.546417517517066 L106.78652966857663 -6.546299086799898 L106.78799453905008 -6.548569288908048 L106.78858615273303 -6.553644496443987 L106.78875629578788 -6.5583039562466885 L106.78805621210132 -6.559782454661653 L106.79631410132504 -6.5622358543935775 L106.80171777316825 -6.561121764025903 L106.802644 -6.561578 L106.80275829414495 -6.562405370885663 L106.80269907414156 -6.565521823563477 L106.7997816861827 -6.569535134651262 L106.79965412377328 -6.570209534366153 L106.79729552042994 -6.573583294658007 L106.79771909209165 -6.58485380814089 L106.78731122983123 -6.560111921005237 Z" stroke="black" stroke-width="0.0005" fill="none" />
    <circle 
      cx="106.79766021975144" cy="-12.589474502483233"
      r="15" transform="translate(106.79766021975144 -6.589474502483233) scale(0.000014999999999999999 -0.000014999999999999999) translate(-106.79766021975144 6.589474502483233) translate(106.8125 -6.592499999999999) rotate(-30) translate(-106.8125 6.592499999999999)"
      fill="white" stroke="black" stroke-width="2"/>
    <circle 
      cx="106.79790189867494" cy="-12.563542145606423"
      r="15" transform="translate(106.79790189867494 -6.563542145606424) scale(0.000014999999999999999 -0.000014999999999999999) translate(-106.79790189867494 6.563542145606424) translate(106.8125 -6.592499999999999) rotate(-30) translate(-106.8125 6.592499999999999)"
      fill="white" stroke="black" stroke-width="2"/>
    <circle 
      cx="106.78213939603397" cy="-12.533975998520514"
      r="15" transform="translate(106.78213939603397 -6.533975998520513) scale(0.000014999999999999999 -0.000014999999999999999) translate(-106.78213939603397 6.533975998520513) translate(106.8125 -6.592499999999999) rotate(-30) translate(-106.8125 6.592499999999999)"
      fill="white" stroke="black" stroke-width="2"/>
    <circle 
      cx="106.78307660396604" cy="-12.534788001479487"
      r="15" transform="translate(106.78307660396604 -6.534788001479487) scale(0.000014999999999999999 -0.000014999999999999999) translate(-106.78307660396604 6.534788001479487) translate(106.8125 -6.592499999999999) rotate(-30) translate(-106.8125 6.592499999999999)"
      fill="white" stroke="black" stroke-width="2"/>
    <circle 
      cx="106.79631410132504" cy="-12.562235854393577"
      r="15" transform="translate(106.79631410132504 -6.5622358543935775) scale(0.000014999999999999999 -0.000014999999999999999) translate(-106.79631410132504 6.5622358543935775) translate(106.8125 -6.592499999999999) rotate(-30) translate(-106.8125 6.592499999999999)"
      fill="white" stroke="black" stroke-width="2"/>
    <circle 
      cx="106.79771909209165" cy="-12.58485380814089"
      r="15" transform="translate(106.79771909209165 -6.58485380814089) scale(0.000014999999999999999 -0.000014999999999999999) translate(-106.79771909209165 6.58485380814089) translate(106.8125 -6.592499999999999) rotate(-30) translate(-106.8125 6.592499999999999)"
      fill="white" stroke="black" stroke-width="2"/>
    <circle 
      cx="106.79766021975144" cy="-12.589474502483233"
      r="15" transform="translate(106.79766021975144 -6.589474502483233) scale(0.000014999999999999999 -0.000014999999999999999) translate(-106.79766021975144 6.589474502483233) translate(106.8125 -6.592499999999999) rotate(-30) translate(-106.8125 6.592499999999999)"
      fill="white" stroke="none"/>
    <circle 
      cx="106.79790189867494" cy="-12.563542145606423"
      r="15" transform="translate(106.79790189867494 -6.563542145606424) scale(0.000014999999999999999 -0.000014999999999999999) translate(-106.79790189867494 6.563542145606424) translate(106.8125 -6.592499999999999) rotate(-30) translate(-106.8125 6.592499999999999)"
      fill="white" stroke="none"/>
    <circle 
      cx="106.78213939603397" cy="-12.533975998520514"
      r="15" transform="translate(106.78213939603397 -6.533975998520513) scale(0.000014999999999999999 -0.000014999999999999999) translate(-106.78213939603397 6.533975998520513) translate(106.8125 -6.592499999999999) rotate(-30) translate(-106.8125 6.592499999999999)"
      fill="white" stroke="none"/>
    <circle 
      cx="106.78307660396604" cy="-12.534788001479487"
      r="15" transform="translate(106.78307660396604 -6.534788001479487) scale(0.000014999999999999999 -0.000014999999999999999) translate(-106.78307660396604 6.534788001479487) translate(106.8125 -6.592499999999999) rotate(-30) translate(-106.8125 6.592499999999999)"
      fill="white" stroke="none"/>
    <circle 
      cx="106.79631410132504" cy="-12.562235854393577"
      r="15" transform="translate(106.79631410132504 -6.5622358543935775) scale(0.000014999999999999999 -0.000014999999999999999) translate(-106.79631410132504 6.5622358543935775) translate(106.8125 -6.592499999999999) rotate(-30) translate(-106.8125 6.592499999999999)"
      fill="white" stroke="none"/>
    <circle 
      cx="106.79771909209165" cy="-12.58485380814089"
      r="15" transform="translate(106.79771909209165 -6.58485380814089) scale(0.000014999999999999999 -0.000014999999999999999) translate(-106.79771909209165 6.58485380814089) translate(106.8125 -6.592499999999999) rotate(-30) translate(-106.8125 6.592499999999999)"
      fill="white" stroke="none"/>
    <text x="106.79766021975144" y="-6.589474502483233" fill="black" text-anchor="middle" transform="translate(106.79766021975144 -6.589474502483233) scale(0.000014999999999999999 -0.000014999999999999999) translate(-106.79766021975144 6.589474502483233) translate(106.8125 -6.592499999999999) rotate(-30) translate(-106.8125 6.592499999999999)">20</text>
    <text x="106.79790189867494" y="-6.563542145606424" fill="black" text-anchor="middle" transform="translate(106.79790189867494 -6.563542145606424) scale(0.000014999999999999999 -0.000014999999999999999) translate(-106.79790189867494 6.563542145606424) translate(106.8125 -6.592499999999999) rotate(-30) translate(-106.8125 6.592499999999999)">20</text>
    <text x="106.78213939603397" y="-6.533975998520513" fill="black" text-anchor="middle" transform="translate(106.78213939603397 -6.533975998520513) scale(0.000014999999999999999 -0.000014999999999999999) translate(-106.78213939603397 6.533975998520513) translate(106.8125 -6.592499999999999) rotate(-30) translate(-106.8125 6.592499999999999)">20</text>
    <text x="106.78307660396604" y="-6.534788001479487" fill="black" text-anchor="middle" transform="translate(106.78307660396604 -6.534788001479487) scale(0.000014999999999999999 -0.000014999999999999999) translate(-106.78307660396604 6.534788001479487) translate(106.8125 -6.592499999999999) rotate(-30) translate(-106.8125 6.592499999999999)">20</text>
    <text x="106.79631410132504" y="-6.5622358543935775" fill="black" text-anchor="middle" transform="translate(106.79631410132504 -6.5622358543935775) scale(0.000014999999999999999 -0.000014999999999999999) translate(-106.79631410132504 6.5622358543935775) translate(106.8125 -6.592499999999999) rotate(-30) translate(-106.8125 6.592499999999999)">20</text>
    <text x="106.79771909209165" y="-6.58485380814089" fill="black" text-anchor="middle" transform="translate(106.79771909209165 -6.58485380814089) scale(0.000014999999999999999 -0.000014999999999999999) translate(-106.79771909209165 6.58485380814089) translate(106.8125 -6.592499999999999) rotate(-30) translate(-106.8125 6.592499999999999)">20</text>
  </g>
</svg>
