<svg width="2100" height="2970" xmlns="http://www.w3.org/2000/svg" xmlns:xlink="http://www.w3.org/1999/xlink" >
  <g transform="translate(280 20) rotate(30) scale(0.5)">    <path d="M725.8722568143412 1164.220790705296 L735.4732581128616 1156.3266340820398 L760.9115333156353 1204.9453494105521 L850.3107109369097 1146.297731658906 L767.3063439552692 1211.373155372647 L804.8962666370159 1255.3987068402505 L853.0204157673467 1326.8329907057719 L876.0388774862378 1379.6400499433391 L906.6247842767723 1459.7031588949549 L910.9488437049436 1468.3512777511908 L952.7878552756448 1502.7190372557163 L1010.0173249600459 1565.9726616438872 L1043.0331701627722 1638.007232994928 L1069.7688049732365 1670.6841199854493 L1186.6779071513206 1748.6235214375542 L1293.4109994354799 1846.3369157823086 L1311.4823529417947 1874.9498921672757 L1331.0538169016722 1900.543345037845 L1360.531603222796 1968.8076923076978 L1354.2551100343585 1968.8076923076978 L1325.4470102681921 1900.5779823347157 L1302.9645306154976 1872.1001747748144 L1292.520021825922 1849.7190845114574 L1189.3233305540036 1756.9916227888737 L1105.4071412429353 1700.0484943278316 L1067.7894550979802 1674.4684677491805 L1045.0036983185669 1651.6827109697806 L1010.467665922647 1578.1059462998915 L962.6764596608979 1518.3669384729446 L894.5009255114229 1462.3114992832718 L897.6563901176178 1452.8451054644609 L872.34541692996 1387.3343513318603 L866.3727090731328 1370.9094047256385 L839.4651147022643 1318.5890823379232 L799.0574383873223 1261.7190193759718 L746.764986362038 1198.0063766782655 L734.6810502692165 1171.302369757189 Z" stroke="black" stroke-width="0.5" fill="none" />
  </g>
</svg>
