<svg width="1049.9999999998977" height="1849.9999999999961" xmlns="http://www.w3.org/2000/svg" xmlns:xlink="http://www.w3.org/1999/xlink" >
  <g transform="translate(524.9999999999488 924.9999999999981) rotate(30) scale(10000 -10000) translate(-106.8125 6.592499999999999)">
    <path d="M106.76 -6.5 L106.865 -6.5 L106.865 -6.685 L106.76 -6.685 Z" fill="none" stroke="black" stroke-width="0.001" transform="translate(106.8125 -6.592499999999999) rotate(30) translate(-106.8125 6.592499999999999)" />
    <path d="M106.80448296757523 -6.601461746453014 L106.80531310108171 -6.600779192236579 L106.80701487110875 -6.604031687613718 L106.8148647614581 -6.598882005246949 L106.80754751252735 -6.604618728408663 L106.80998950221831 -6.607478801937766 L106.81320605543564 -6.612253373119729 L106.81474518366497 -6.6157843143517185 L106.8167833045703 -6.621119395545088 L106.81705984582732 -6.62167247805913 L106.8198383807034 -6.623954845993053 L106.82366897666138 -6.628188662578187 L106.82587108935506 -6.632993272091678 L106.82763584066306 -6.635150190357006 L106.83542372095347 -6.640342110550607 L106.84255479992473 -6.6468705631299345 L106.84376431372549 -6.648785626647815 L106.84507384225351 -6.650498087030613 L106.84710421376303 -6.655200000000001 L106.84646734800458 -6.655200000000001 L106.84452626803572 -6.650602705336884 L106.84302860408208 -6.648705664328949 L106.84233600291014 -6.647221518960509 L106.83547644407393 -6.641057857397531 L106.82988761882883 -6.637265440266934 L106.82737192734643 -6.6355547700589 L106.82583382644248 -6.6340166691549545 L106.82352902212301 -6.629106433865636 L106.82035686128813 -6.625141232822043 L106.8157667900682 -6.621367174263416 L106.81598751868235 -6.620704988420924 L106.81431272225763 -6.616370221204001 L106.81391636120979 -6.615280228322469 L106.8121286819603 -6.611804185337352 L106.80944099178483 -6.608021510275567 L106.8059486648482 -6.603766491249347 L106.8051474733692 -6.601995956993255 Z" stroke="black" stroke-width="0.0002" fill="none" />



    <line x1="106.80531" y1="-6.60187" x2="106.8048" y2="-6.60146" style="stroke:rgb(255,0,0);stroke-width:.00002" />
    <line x1="106.80518468861764" y1="-6.602025875134162" x2="106.80467468861764" y2="-6.601615875134162" style="stroke:rgb(0,0,0);stroke-width:.00002" />
    <circle cx="106.80531" cy="-6.60187" fill="rgb(255,0,0)" r=".0001" />
    <text x="106.80531" y="-6.60187" stroke="rgb(0,0,0)" transform="translate(106.80531 -6.60187),scale(0.00001 -0.00001),translate(-106.80531 6.60187),translate(106.8125 -6.592499999999999),rotate(-30),translate(-106.8125 6.592499999999999)" >line-21-1</text>
    <line x1="106.8048" y1="-6.60146" x2="106.80525" y2="-6.60109" style="stroke:rgb(255,0,0);stroke-width:.00002" />
    <line x1="106.80467297892008" y1="-6.601305514902802" x2="106.80512297892008" y2="-6.600935514902802" style="stroke:rgb(0,0,0);stroke-width:.00002" />
    <circle cx="106.8048" cy="-6.60146" fill="rgb(255,0,0)" r=".0001" />
    <text x="106.8048" y="-6.60146" stroke="rgb(0,0,0)" transform="translate(106.8048 -6.60146),scale(0.00001 -0.00001),translate(-106.8048 6.60146),translate(106.8125 -6.592499999999999),rotate(-30),translate(-106.8125 6.592499999999999)" >line-21-2</text>
    <line x1="106.80525" y1="-6.60109" x2="106.80694" y2="-6.60432" style="stroke:rgb(255,0,0);stroke-width:.00002" />
    <line x1="106.80542720924174" y1="-6.600997280613455" x2="106.80711720924174" y2="-6.604227280613455" style="stroke:rgb(0,0,0);stroke-width:.00002" />
    <circle cx="106.80525" cy="-6.60109" fill="rgb(255,0,0)" r=".0001" />
    <text x="106.80525" y="-6.60109" stroke="rgb(0,0,0)" transform="translate(106.80525 -6.60109),scale(0.00001 -0.00001),translate(-106.80525 6.60109),translate(106.8125 -6.592499999999999),rotate(-30),translate(-106.8125 6.592499999999999)" >line-21-3</text>
    <line x1="106.80694" y1="-6.60432" x2="106.81101" y2="-6.60165" style="stroke:rgb(255,0,0);stroke-width:.00002" />
    <line x1="106.80683029563754" y1="-6.604152772750854" x2="106.81090029563754" y2="-6.601482772750854" style="stroke:rgb(0,0,0);stroke-width:.00002" />
    <circle cx="106.80694" cy="-6.60432" fill="rgb(255,0,0)" r=".0001" />
    <text x="106.80694" y="-6.60432" stroke="rgb(0,0,0)" transform="translate(106.80694 -6.60432),scale(0.00001 -0.00001),translate(-106.80694 6.60432),translate(106.8125 -6.592499999999999),rotate(-30),translate(-106.8125 6.592499999999999)" >line-21-4</text>
    <line x1="106.81101" y1="-6.60165" x2="106.80726" y2="-6.60459" style="stroke:rgb(255,0,0);stroke-width:.00002" />
    <line x1="106.81113339741245" y1="-6.60180739465874" x2="106.80738339741245" y2="-6.60474739465874" style="stroke:rgb(0,0,0);stroke-width:.00002" />
    <circle cx="106.81101" cy="-6.60165" fill="rgb(255,0,0)" r=".0001" />
    <text x="106.81101" y="-6.60165" stroke="rgb(0,0,0)" transform="translate(106.81101 -6.60165),scale(0.00001 -0.00001),translate(-106.81101 6.60165),translate(106.8125 -6.592499999999999),rotate(-30),translate(-106.8125 6.592499999999999)" >line-21-5</text>
    <line x1="106.80726" y1="-6.60459" x2="106.80983" y2="-6.6076" style="stroke:rgb(255,0,0);stroke-width:.00002" />
    <line x1="106.80741210072762" y1="-6.604460133265783" x2="106.80998210072762" y2="-6.607470133265783" style="stroke:rgb(0,0,0);stroke-width:.00002" />
    <circle cx="106.80726" cy="-6.60459" fill="rgb(255,0,0)" r=".0001" />
    <text x="106.80726" y="-6.60459" stroke="rgb(0,0,0)" transform="translate(106.80726 -6.60459),scale(0.00001 -0.00001),translate(-106.80726 6.60459),translate(106.8125 -6.592499999999999),rotate(-30),translate(-106.8125 6.592499999999999)" >line-21-6</text>
    <line x1="106.80983" y1="-6.6076" x2="106.81303" y2="-6.61235" style="stroke:rgb(255,0,0);stroke-width:.00002" />
    <line x1="106.80999587087408" y1="-6.6074882554111545" x2="106.81319587087407" y2="-6.612238255411155" style="stroke:rgb(0,0,0);stroke-width:.00002" />
    <circle cx="106.80983" cy="-6.6076" fill="rgb(255,0,0)" r=".0001" />
    <text x="106.80983" y="-6.6076" stroke="rgb(0,0,0)" transform="translate(106.80983 -6.6076),scale(0.00001 -0.00001),translate(-106.80983 6.6076),translate(106.8125 -6.592499999999999),rotate(-30),translate(-106.8125 6.592499999999999)" >line-21-7</text>
    <line x1="106.81303" y1="-6.61235" x2="106.81456" y2="-6.61586" style="stroke:rgb(255,0,0);stroke-width:.00002" />
    <line x1="106.81321333919294" y1="-6.612270082915897" x2="106.81474333919294" y2="-6.615780082915896" style="stroke:rgb(0,0,0);stroke-width:.00002" />
    <circle cx="106.81303" cy="-6.61235" fill="rgb(255,0,0)" r=".0001" />
    <text x="106.81303" y="-6.61235" stroke="rgb(0,0,0)" transform="translate(106.81303 -6.61235),scale(0.00001 -0.00001),translate(-106.81303 6.61235),translate(106.8125 -6.592499999999999),rotate(-30),translate(-106.8125 6.592499999999999)" >line-21-8</text>
    <line x1="106.81456" y1="-6.61586" x2="106.8166" y2="-6.6212" style="stroke:rgb(255,0,0);stroke-width:.00002" />
    <line x1="106.81474683095537" y1="-6.6157886263766015" x2="106.81678683095537" y2="-6.621128626376602" style="stroke:rgb(0,0,0);stroke-width:.00002" />
    <circle cx="106.81456" cy="-6.61586" fill="rgb(255,0,0)" r=".0001" />
    <text x="106.81456" y="-6.61586" stroke="rgb(0,0,0)" transform="translate(106.81456 -6.61586),scale(0.00001 -0.00001),translate(-106.81456 6.61586),translate(106.8125 -6.592499999999999),rotate(-30),translate(-106.8125 6.592499999999999)" >line-21-9</text>
    <line x1="106.8166" y1="-6.6212" x2="106.8169" y2="-6.6218" style="stroke:rgb(255,0,0);stroke-width:.00002" />
    <line x1="106.8167788854382" y1="-6.621110557280898" x2="106.8170788854382" y2="-6.621710557280898" style="stroke:rgb(0,0,0);stroke-width:.00002" />
    <circle cx="106.8166" cy="-6.6212" fill="rgb(255,0,0)" r=".0001" />
    <text x="106.8166" y="-6.6212" stroke="rgb(0,0,0)" transform="translate(106.8166 -6.6212),scale(0.00001 -0.00001),translate(-106.8166 6.6212),translate(106.8125 -6.592499999999999),rotate(-30),translate(-106.8125 6.592499999999999)" >line-21-10</text>
    <line x1="106.8169" y1="-6.6218" x2="106.8197" y2="-6.6241" style="stroke:rgb(255,0,0);stroke-width:.00002" />
    <line x1="106.81702694788467" y1="-6.621645454749095" x2="106.81982694788466" y2="-6.623945454749095" style="stroke:rgb(0,0,0);stroke-width:.00002" />
    <circle cx="106.8169" cy="-6.6218" fill="rgb(255,0,0)" r=".0001" />
    <text x="106.8169" y="-6.6218" stroke="rgb(0,0,0)" transform="translate(106.8169 -6.6218),scale(0.00001 -0.00001),translate(-106.8169 6.6218),translate(106.8125 -6.592499999999999),rotate(-30),translate(-106.8125 6.592499999999999)" >line-21-11</text>
    <line x1="106.8197" y1="-6.6241" x2="106.8235" y2="-6.6283" style="stroke:rgb(255,0,0);stroke-width:.00002" />
    <line x1="106.81984830715582" y1="-6.623965817335207" x2="106.82364830715582" y2="-6.628165817335207" style="stroke:rgb(0,0,0);stroke-width:.00002" />
    <circle cx="106.8197" cy="-6.6241" fill="rgb(255,0,0)" r=".0001" />
    <text x="106.8197" y="-6.6241" stroke="rgb(0,0,0)" transform="translate(106.8197 -6.6241),scale(0.00001 -0.00001),translate(-106.8197 6.6241),translate(106.8125 -6.592499999999999),rotate(-30),translate(-106.8125 6.592499999999999)" >line-21-12</text>
    <line x1="106.8235" y1="-6.6283" x2="106.8257" y2="-6.6331" style="stroke:rgb(255,0,0);stroke-width:.00002" />
    <line x1="106.82368181296458" y1="-6.628216669057902" x2="106.82588181296458" y2="-6.633016669057901" style="stroke:rgb(0,0,0);stroke-width:.00002" />
    <circle cx="106.8235" cy="-6.6283" fill="rgb(255,0,0)" r=".0001" />
    <text x="106.8235" y="-6.6283" stroke="rgb(0,0,0)" transform="translate(106.8235 -6.6283),scale(0.00001 -0.00001),translate(-106.8235 6.6283),translate(106.8125 -6.592499999999999),rotate(-30),translate(-106.8125 6.592499999999999)" >line-21-13</text>
    <line x1="106.8257" y1="-6.6331" x2="106.8275" y2="-6.6353" style="stroke:rgb(255,0,0);stroke-width:.00002" />
    <line x1="106.82585479145983" y1="-6.632973352441948" x2="106.82765479145984" y2="-6.6351733524419485" style="stroke:rgb(0,0,0);stroke-width:.00002" />
    <circle cx="106.8257" cy="-6.6331" fill="rgb(255,0,0)" r=".0001" />
    <text x="106.8257" y="-6.6331" stroke="rgb(0,0,0)" transform="translate(106.8257 -6.6331),scale(0.00001 -0.00001),translate(-106.8257 6.6331),translate(106.8125 -6.592499999999999),rotate(-30),translate(-106.8125 6.592499999999999)" >line-21-14</text>
    <line x1="106.8275" y1="-6.6353" x2="106.8353" y2="-6.6405" style="stroke:rgb(255,0,0);stroke-width:.00002" />
    <line x1="106.82761094003925" y1="-6.635133589941132" x2="106.83541094003925" y2="-6.640333589941132" style="stroke:rgb(0,0,0);stroke-width:.00002" />
    <circle cx="106.8275" cy="-6.6353" fill="rgb(255,0,0)" r=".0001" />
    <text x="106.8275" y="-6.6353" stroke="rgb(0,0,0)" transform="translate(106.8275 -6.6353),scale(0.00001 -0.00001),translate(-106.8275 6.6353),translate(106.8125 -6.592499999999999),rotate(-30),translate(-106.8125 6.592499999999999)" >line-21-15</text>
    <line x1="106.8353" y1="-6.6405" x2="106.8424" y2="-6.647" style="stroke:rgb(255,0,0);stroke-width:.00002" />
    <line x1="106.83543505081344" y1="-6.6403524829576295" x2="106.84253505081344" y2="-6.646852482957629" style="stroke:rgb(0,0,0);stroke-width:.00002" />
    <circle cx="106.8353" cy="-6.6405" fill="rgb(255,0,0)" r=".0001" />
    <text x="106.8353" y="-6.6405" stroke="rgb(0,0,0)" transform="translate(106.8353 -6.6405),scale(0.00001 -0.00001),translate(-106.8353 6.6405),translate(106.8125 -6.592499999999999),rotate(-30),translate(-106.8125 6.592499999999999)" >line-21-16</text>
    <line x1="106.8424" y1="-6.647" x2="106.8436" y2="-6.6489" style="stroke:rgb(255,0,0);stroke-width:.00002" />
    <line x1="106.8425690977806" y1="-6.646893201401723" x2="106.8437690977806" y2="-6.648793201401723" style="stroke:rgb(0,0,0);stroke-width:.00002" />
    <circle cx="106.8424" cy="-6.647" fill="rgb(255,0,0)" r=".0001" />
    <text x="106.8424" y="-6.647" stroke="rgb(0,0,0)" transform="translate(106.8424 -6.647),scale(0.00001 -0.00001),translate(-106.8424 6.647),translate(106.8125 -6.592499999999999),rotate(-30),translate(-106.8125 6.592499999999999)" >line-21-17</text>
    <line x1="106.8436" y1="-6.6489" x2="106.8449" y2="-6.6506" style="stroke:rgb(255,0,0);stroke-width:.00002" />
    <line x1="106.84375887156659" y1="-6.648778509978486" x2="106.8450588715666" y2="-6.650478509978486" style="stroke:rgb(0,0,0);stroke-width:.00002" />
    <circle cx="106.8436" cy="-6.6489" fill="rgb(255,0,0)" r=".0001" />
    <text x="106.8436" y="-6.6489" stroke="rgb(0,0,0)" transform="translate(106.8436 -6.6489),scale(0.00001 -0.00001),translate(-106.8436 6.6489),translate(106.8125 -6.592499999999999),rotate(-30),translate(-106.8125 6.592499999999999)" >line-21-18</text>
    <line x1="106.8449" y1="-6.6506" x2="106.8468" y2="-6.655" style="stroke:rgb(255,0,0);stroke-width:.00002" />
    <line x1="106.8450836124707" y1="-6.65052071279674" x2="106.84698361247071" y2="-6.6549207127967405" style="stroke:rgb(0,0,0);stroke-width:.00002" />
    <circle cx="106.8449" cy="-6.6506" fill="rgb(255,0,0)" r=".0001" />
    <text x="106.8449" y="-6.6506" stroke="rgb(0,0,0)" transform="translate(106.8449 -6.6506),scale(0.00001 -0.00001),translate(-106.8449 6.6506),translate(106.8125 -6.592499999999999),rotate(-30),translate(-106.8125 6.592499999999999)" >line-21-19</text>
    <line x1="106.8468" y1="-6.655" x2="106.8466" y2="-6.655" style="stroke:rgb(255,0,0);stroke-width:.00002" />
    <line x1="106.8468" y1="-6.655200000000001" x2="106.8466" y2="-6.655200000000001" style="stroke:rgb(0,0,0);stroke-width:.00002" />
    <circle cx="106.8468" cy="-6.655" fill="rgb(255,0,0)" r=".0001" />
    <text x="106.8468" y="-6.655" stroke="rgb(0,0,0)" transform="translate(106.8468 -6.655),scale(0.00001 -0.00001),translate(-106.8468 6.655),translate(106.8125 -6.592499999999999),rotate(-30),translate(-106.8125 6.592499999999999)" >line-21-20</text>
    <line x1="106.8466" y1="-6.655" x2="106.8447" y2="-6.6505" style="stroke:rgb(255,0,0);stroke-width:.00002" />
    <line x1="106.84641575008771" y1="-6.655077794407408" x2="106.84451575008772" y2="-6.650577794407408" style="stroke:rgb(0,0,0);stroke-width:.00002" />
    <circle cx="106.8466" cy="-6.655" fill="rgb(255,0,0)" r=".0001" />
    <text x="106.8466" y="-6.655" stroke="rgb(0,0,0)" transform="translate(106.8466 -6.655),scale(0.00001 -0.00001),translate(-106.8466 6.655),translate(106.8125 -6.592499999999999),rotate(-30),translate(-106.8125 6.592499999999999)" >line-21-21</text>
    <line x1="106.8447" y1="-6.6505" x2="106.8432" y2="-6.6486" style="stroke:rgb(255,0,0);stroke-width:.00002" />
    <line x1="106.8445430234469" y1="-6.6506239288577165" x2="106.8430430234469" y2="-6.6487239288577165" style="stroke:rgb(0,0,0);stroke-width:.00002" />
    <circle cx="106.8447" cy="-6.6505" fill="rgb(255,0,0)" r=".0001" />
    <text x="106.8447" y="-6.6505" stroke="rgb(0,0,0)" transform="translate(106.8447 -6.6505),scale(0.00001 -0.00001),translate(-106.8447 6.6505),translate(106.8125 -6.592499999999999),rotate(-30),translate(-106.8125 6.592499999999999)" >line-21-22</text>
    <line x1="106.8432" y1="-6.6486" x2="106.8425" y2="-6.6471" style="stroke:rgb(255,0,0);stroke-width:.00002" />
    <line x1="106.843018763372" y1="-6.648684577093066" x2="106.842318763372" y2="-6.647184577093066" style="stroke:rgb(0,0,0);stroke-width:.00002" />
    <circle cx="106.8432" cy="-6.6486" fill="rgb(255,0,0)" r=".0001" />
    <text x="106.8432" y="-6.6486" stroke="rgb(0,0,0)" transform="translate(106.8432 -6.6486),scale(0.00001 -0.00001),translate(-106.8432 6.6486),translate(106.8125 -6.592499999999999),rotate(-30),translate(-106.8125 6.592499999999999)" >line-21-23</text>
    <line x1="106.8425" y1="-6.6471" x2="106.8356" y2="-6.6409" style="stroke:rgb(255,0,0);stroke-width:.00002" />
    <line x1="106.84236632621425" y1="-6.647248765987378" x2="106.83546632621425" y2="-6.641048765987378" style="stroke:rgb(0,0,0);stroke-width:.00002" />
    <circle cx="106.8425" cy="-6.6471" fill="rgb(255,0,0)" r=".0001" />
    <text x="106.8425" y="-6.6471" stroke="rgb(0,0,0)" transform="translate(106.8425 -6.6471),scale(0.00001 -0.00001),translate(-106.8425 6.6471),translate(106.8125 -6.592499999999999),rotate(-30),translate(-106.8125 6.592499999999999)" >line-21-24</text>
    <line x1="106.8356" y1="-6.6409" x2="106.83" y2="-6.6371" style="stroke:rgb(255,0,0);stroke-width:.00002" />
    <line x1="106.83548769971634" y1="-6.641065495154878" x2="106.82988769971634" y2="-6.637265495154878" style="stroke:rgb(0,0,0);stroke-width:.00002" />
    <circle cx="106.8356" cy="-6.6409" fill="rgb(255,0,0)" r=".0001" />
    <text x="106.8356" y="-6.6409" stroke="rgb(0,0,0)" transform="translate(106.8356 -6.6409),scale(0.00001 -0.00001),translate(-106.8356 6.6409),translate(106.8125 -6.592499999999999),rotate(-30),translate(-106.8125 6.592499999999999)" >line-21-25</text>
    <line x1="106.83" y1="-6.6371" x2="106.8275" y2="-6.6354" style="stroke:rgb(255,0,0);stroke-width:.00002" />
    <line x1="106.82988753799572" y1="-6.637265385300414" x2="106.82738753799572" y2="-6.6355653853004135" style="stroke:rgb(0,0,0);stroke-width:.00002" />
    <circle cx="106.83" cy="-6.6371" fill="rgb(255,0,0)" r=".0001" />
    <text x="106.83" y="-6.6371" stroke="rgb(0,0,0)" transform="translate(106.83 -6.6371),scale(0.00001 -0.00001),translate(-106.83 6.6371),translate(106.8125 -6.592499999999999),rotate(-30),translate(-106.8125 6.592499999999999)" >line-21-26</text>
    <line x1="106.8275" y1="-6.6354" x2="106.826" y2="-6.6339" style="stroke:rgb(255,0,0);stroke-width:.00002" />
    <line x1="106.82735857864377" y1="-6.635541421356238" x2="106.82585857864376" y2="-6.634041421356238" style="stroke:rgb(0,0,0);stroke-width:.00002" />
    <circle cx="106.8275" cy="-6.6354" fill="rgb(255,0,0)" r=".0001" />
    <text x="106.8275" y="-6.6354" stroke="rgb(0,0,0)" transform="translate(106.8275 -6.6354),scale(0.00001 -0.00001),translate(-106.8275 6.6354),translate(106.8125 -6.592499999999999),rotate(-30),translate(-106.8125 6.592499999999999)" >line-21-27</text>
    <line x1="106.826" y1="-6.6339" x2="106.8237" y2="-6.629" style="stroke:rgb(255,0,0);stroke-width:.00002" />
    <line x1="106.82581895261117" y1="-6.633984981427402" x2="106.82351895261118" y2="-6.629084981427402" style="stroke:rgb(0,0,0);stroke-width:.00002" />
    <circle cx="106.826" cy="-6.6339" fill="rgb(255,0,0)" r=".0001" />
    <text x="106.826" y="-6.6339" stroke="rgb(0,0,0)" transform="translate(106.826 -6.6339),scale(0.00001 -0.00001),translate(-106.826 6.6339),translate(106.8125 -6.592499999999999),rotate(-30),translate(-106.8125 6.592499999999999)" >line-21-28</text>
    <line x1="106.8237" y1="-6.629" x2="106.8205" y2="-6.625" style="stroke:rgb(255,0,0);stroke-width:.00002" />
    <line x1="106.82354382623811" y1="-6.629124939009511" x2="106.8203438262381" y2="-6.6251249390095115" style="stroke:rgb(0,0,0);stroke-width:.00002" />
    <circle cx="106.8237" cy="-6.629" fill="rgb(255,0,0)" r=".0001" />
    <text x="106.8237" y="-6.629" stroke="rgb(0,0,0)" transform="translate(106.8237 -6.629),scale(0.00001 -0.00001),translate(-106.8237 6.629),translate(106.8125 -6.592499999999999),rotate(-30),translate(-106.8125 6.592499999999999)" >line-21-29</text>
    <line x1="106.8205" y1="-6.625" x2="106.816" y2="-6.6213" style="stroke:rgb(255,0,0);stroke-width:.00002" />
    <line x1="106.82037297892008" y1="-6.625154485097198" x2="106.81587297892008" y2="-6.621454485097198" style="stroke:rgb(0,0,0);stroke-width:.00002" />
    <circle cx="106.8205" cy="-6.625" fill="rgb(255,0,0)" r=".0001" />
    <text x="106.8205" y="-6.625" stroke="rgb(0,0,0)" transform="translate(106.8205 -6.625),scale(0.00001 -0.00001),translate(-106.8205 6.625),translate(106.8125 -6.592499999999999),rotate(-30),translate(-106.8125 6.592499999999999)" >line-21-30</text>
    <line x1="106.816" y1="-6.6213" x2="106.8162" y2="-6.6207" style="stroke:rgb(255,0,0);stroke-width:.00002" />
    <line x1="106.8158102633404" y1="-6.621236754446798" x2="106.81601026334039" y2="-6.6206367544467986" style="stroke:rgb(0,0,0);stroke-width:.00002" />
    <circle cx="106.816" cy="-6.6213" fill="rgb(255,0,0)" r=".0001" />
    <text x="106.816" y="-6.6213" stroke="rgb(0,0,0)" transform="translate(106.816 -6.6213),scale(0.00001 -0.00001),translate(-106.816 6.6213),translate(106.8125 -6.592499999999999),rotate(-30),translate(-106.8125 6.592499999999999)" >line-21-31</text>
    <line x1="106.8162" y1="-6.6207" x2="106.8145" y2="-6.6163" style="stroke:rgb(255,0,0);stroke-width:.00002" />
    <line x1="106.81601344037311" y1="-6.620772079855841" x2="106.81431344037311" y2="-6.61637207985584" style="stroke:rgb(0,0,0);stroke-width:.00002" />
    <circle cx="106.8162" cy="-6.6207" fill="rgb(255,0,0)" r=".0001" />
    <text x="106.8162" y="-6.6207" stroke="rgb(0,0,0)" transform="translate(106.8162 -6.6207),scale(0.00001 -0.00001),translate(-106.8162 6.6207),translate(106.8125 -6.592499999999999),rotate(-30),translate(-106.8125 6.592499999999999)" >line-21-32</text>
    <line x1="106.8145" y1="-6.6163" x2="106.8141" y2="-6.6152" style="stroke:rgb(255,0,0);stroke-width:.00002" />
    <line x1="106.8143120413153" y1="-6.6163683486126175" x2="106.8139120413153" y2="-6.615268348612617" style="stroke:rgb(0,0,0);stroke-width:.00002" />
    <circle cx="106.8145" cy="-6.6163" fill="rgb(255,0,0)" r=".0001" />
    <text x="106.8145" y="-6.6163" stroke="rgb(0,0,0)" transform="translate(106.8145 -6.6163),scale(0.00001 -0.00001),translate(-106.8145 6.6163),translate(106.8125 -6.592499999999999),rotate(-30),translate(-106.8125 6.592499999999999)" >line-21-33</text>
    <line x1="106.8141" y1="-6.6152" x2="106.8123" y2="-6.6117" style="stroke:rgb(255,0,0);stroke-width:.00002" />
    <line x1="106.81392214243954" y1="-6.615291469602524" x2="106.81212214243953" y2="-6.611791469602524" style="stroke:rgb(0,0,0);stroke-width:.00002" />
    <circle cx="106.8141" cy="-6.6152" fill="rgb(255,0,0)" r=".0001" />
    <text x="106.8141" y="-6.6152" stroke="rgb(0,0,0)" transform="translate(106.8141 -6.6152),scale(0.00001 -0.00001),translate(-106.8141 6.6152),translate(106.8125 -6.592499999999999),rotate(-30),translate(-106.8125 6.592499999999999)" >line-21-34</text>
    <line x1="106.8123" y1="-6.6117" x2="106.8096" y2="-6.6079" style="stroke:rgb(255,0,0);stroke-width:.00002" />
    <line x1="106.81213696391833" y1="-6.611815841426438" x2="106.80943696391834" y2="-6.608015841426438" style="stroke:rgb(0,0,0);stroke-width:.00002" />
    <circle cx="106.8123" cy="-6.6117" fill="rgb(255,0,0)" r=".0001" />
    <text x="106.8123" y="-6.6117" stroke="rgb(0,0,0)" transform="translate(106.8123 -6.6117),scale(0.00001 -0.00001),translate(-106.8123 6.6117),translate(106.8125 -6.592499999999999),rotate(-30),translate(-106.8125 6.592499999999999)" >line-21-35</text>
    <line x1="106.8096" y1="-6.6079" x2="106.80612" y2="-6.60366" style="stroke:rgb(255,0,0);stroke-width:.00002" />
    <line x1="106.80944540366568" y1="-6.60802688567063" x2="106.80596540366568" y2="-6.60378688567063" style="stroke:rgb(0,0,0);stroke-width:.00002" />
    <circle cx="106.8096" cy="-6.6079" fill="rgb(255,0,0)" r=".0001" />
    <text x="106.8096" y="-6.6079" stroke="rgb(0,0,0)" transform="translate(106.8096 -6.6079),scale(0.00001 -0.00001),translate(-106.8096 6.6079),translate(106.8125 -6.592499999999999),rotate(-30),translate(-106.8125 6.592499999999999)" >line-21-36</text>
    <line x1="106.80612" y1="-6.60366" x2="106.80531" y2="-6.60187" style="stroke:rgb(255,0,0);stroke-width:.00002" />
    <line x1="106.80593778751819" y1="-6.603742453692888" x2="106.80512778751819" y2="-6.601952453692888" style="stroke:rgb(0,0,0);stroke-width:.00002" />
    <circle cx="106.80612" cy="-6.60366" fill="rgb(255,0,0)" r=".0001" />
    <text x="106.80612" y="-6.60366" stroke="rgb(0,0,0)" transform="translate(106.80612 -6.60366),scale(0.00001 -0.00001),translate(-106.80612 6.60366),translate(106.8125 -6.592499999999999),rotate(-30),translate(-106.8125 6.592499999999999)" >line-21-37</text>
  </g>
</svg>
