<svg width="2500" height="1500" xmlns="http://www.w3.org/2000/svg" xmlns:xlink="http://www.w3.org/1999/xlink" >
  <path d="M1046.7210047450237 178.8728377456892 L1049.738574344019 231.68030572499038 L1058.7947594450497 264.88631776306204 L1049.4353700017455 307.00357025863696 L969.5414812426151 301.79309925259395 L936.2639371782677 294.230021056132 L885.9535944331043 290.7199971436756 L860.1182279989672 402.67325169092794 L874.6039589211563 406.45339262881146 L872.9478536677959 426.64449405201515 L872.7324805786196 465.4547247036221 L857.4446780187372 465.7740884264892 L856.7003018831798 479.5450469339289 L874.3595421437789 589.9152985626997 L861.4084354982054 608.0468478663213 L778.3197168063083 625.9679440547948 L729.6495177997286 651.1421849202545 L707.7885791994731 636.5682258535153 L670.8018642180491 530.2314202819612 L688.9551436206176 481.82267520881817 L738.3755433586003 454.3668975765523 L756.8565127461824 462.7673382072859 L792.74826738164 444.36054771900695 L811.3615087505366 451.959703721385 L809.8950496905388 455.4581191256999 L809.3128870330446 445.35827394744246 L802.8023943967355 425.8114411034584 L805.3519036634782 415.6463009300968 L787.4472932503096 397.7416905169016 L776.6949973949266 367.0208452156818 L785.809982957204 324.4842459242057 L795.2344505577713 300.92307692308066 L806.9161256380397 300.92307692308066 L815.8412566249496 225.05946353558608 L847.4354351597668 203.9966778455747 L850.4313109617101 192.0131746375751 L885.1077531186746 167.89043226765648 L905.8635031898632 130.53008213917064 L893.117199470268 133.0793428831243 L883.1476006416494 119.78654444513052 L884.6916796166227 112.06614957013119 L881.165163410742 103.24985905540302 L892.3429779106584 101.38688997207032 L918.1409131184637 108.97451797437378 L1010.115970676182 131.59133540656876 Z" stroke="black" stroke-width="0.5" fill="none" />
</svg>
