<svg width="1049.9999999998977" height="1849.9999999999961" xmlns="http://www.w3.org/2000/svg" xmlns:xlink="http://www.w3.org/1999/xlink" >
  <g transform="translate(524.9999999999488 924.9999999999981) rotate(30) scale(10000 -10000) translate(-106.8125 6.592499999999999)">
    <path d="M106.76 -6.5 L106.865 -6.5 L106.865 -6.685 L106.76 -6.685 Z" fill="none" stroke="black" stroke-width="0.001" transform="translate(106.8125 -6.592499999999999) rotate(30) translate(-106.8125 6.592499999999999)" />
    <path d="M106.80448296757523 -6.601461746453014 L106.80531310108171 -6.600779192236579 L106.80701487110875 -6.604031687613718 L106.8148647614581 -6.598882005246949 L106.80754751252735 -6.604618728408663 L106.80998950221831 -6.607478801937766 L106.81320605543564 -6.612253373119729 L106.81474518366497 -6.6157843143517185 L106.8167833045703 -6.621119395545088 L106.81705984582732 -6.62167247805913 L106.8198383807034 -6.623954845993053 L106.82366897666138 -6.628188662578187 L106.82587108935506 -6.632993272091678 L106.82763584066306 -6.635150190357006 L106.83542372095347 -6.640342110550607 L106.84255479992473 -6.6468705631299345 L106.84376431372549 -6.648785626647815 L106.84507384225351 -6.650498087030613 L106.84710421376303 -6.655200000000001 L106.84646734800458 -6.655200000000001 L106.84452626803572 -6.650602705336884 L106.84302860408208 -6.648705664328949 L106.84233600291014 -6.647221518960509 L106.83547644407393 -6.641057857397531 L106.82988761882883 -6.637265440266934 L106.82737192734643 -6.6355547700589 L106.82583382644248 -6.6340166691549545 L106.82352902212301 -6.629106433865636 L106.82035686128813 -6.625141232822043 L106.8157667900682 -6.621367174263416 L106.81598751868235 -6.620704988420924 L106.81431272225763 -6.616370221204001 L106.81391636120979 -6.615280228322469 L106.8121286819603 -6.611804185337352 L106.80944099178483 -6.608021510275567 L106.8059486648482 -6.603766491249347 L106.8051474733692 -6.601995956993255 Z" stroke="black" stroke-width="0.0002" fill="none" />



    <line x1="106.80531" y1="-6.60187" x2="106.8048" y2="-6.60146" style="stroke:rgb(255,0,0);stroke-width:.00002" />
    <line x1="106.8048" y1="-6.60146" x2="106.80525" y2="-6.60109" style="stroke:rgb(255,0,0);stroke-width:.00002" />
    <line x1="106.80525" y1="-6.60109" x2="106.80694" y2="-6.60432" style="stroke:rgb(255,0,0);stroke-width:.00002" />
    <line x1="106.80694" y1="-6.60432" x2="106.81101" y2="-6.60165" style="stroke:rgb(255,0,0);stroke-width:.00002" />
    <line x1="106.81101" y1="-6.60165" x2="106.80726" y2="-6.60459" style="stroke:rgb(255,0,0);stroke-width:.00002" />
    <line x1="106.80726" y1="-6.60459" x2="106.80983" y2="-6.6076" style="stroke:rgb(255,0,0);stroke-width:.00002" />
    <line x1="106.80983" y1="-6.6076" x2="106.81303" y2="-6.61235" style="stroke:rgb(255,0,0);stroke-width:.00002" />
    <line x1="106.81303" y1="-6.61235" x2="106.81456" y2="-6.61586" style="stroke:rgb(255,0,0);stroke-width:.00002" />
    <line x1="106.81456" y1="-6.61586" x2="106.8166" y2="-6.6212" style="stroke:rgb(255,0,0);stroke-width:.00002" />
    <line x1="106.8166" y1="-6.6212" x2="106.8169" y2="-6.6218" style="stroke:rgb(255,0,0);stroke-width:.00002" />
    <line x1="106.8169" y1="-6.6218" x2="106.8197" y2="-6.6241" style="stroke:rgb(255,0,0);stroke-width:.00002" />
    <line x1="106.8197" y1="-6.6241" x2="106.8235" y2="-6.6283" style="stroke:rgb(255,0,0);stroke-width:.00002" />
    <line x1="106.8235" y1="-6.6283" x2="106.8257" y2="-6.6331" style="stroke:rgb(255,0,0);stroke-width:.00002" />
    <line x1="106.8257" y1="-6.6331" x2="106.8275" y2="-6.6353" style="stroke:rgb(255,0,0);stroke-width:.00002" />
    <line x1="106.8275" y1="-6.6353" x2="106.8353" y2="-6.6405" style="stroke:rgb(255,0,0);stroke-width:.00002" />
    <line x1="106.8353" y1="-6.6405" x2="106.8424" y2="-6.647" style="stroke:rgb(255,0,0);stroke-width:.00002" />
    <line x1="106.8424" y1="-6.647" x2="106.8436" y2="-6.6489" style="stroke:rgb(255,0,0);stroke-width:.00002" />
    <line x1="106.8436" y1="-6.6489" x2="106.8449" y2="-6.6506" style="stroke:rgb(255,0,0);stroke-width:.00002" />
    <line x1="106.8449" y1="-6.6506" x2="106.8468" y2="-6.655" style="stroke:rgb(255,0,0);stroke-width:.00002" />
    <line x1="106.8468" y1="-6.655" x2="106.8466" y2="-6.655" style="stroke:rgb(255,0,0);stroke-width:.00002" />
    <line x1="106.8466" y1="-6.655" x2="106.8447" y2="-6.6505" style="stroke:rgb(255,0,0);stroke-width:.00002" />
    <line x1="106.8447" y1="-6.6505" x2="106.8432" y2="-6.6486" style="stroke:rgb(255,0,0);stroke-width:.00002" />
    <line x1="106.8432" y1="-6.6486" x2="106.8425" y2="-6.6471" style="stroke:rgb(255,0,0);stroke-width:.00002" />
    <line x1="106.8425" y1="-6.6471" x2="106.8356" y2="-6.6409" style="stroke:rgb(255,0,0);stroke-width:.00002" />
    <line x1="106.8356" y1="-6.6409" x2="106.83" y2="-6.6371" style="stroke:rgb(255,0,0);stroke-width:.00002" />
    <line x1="106.83" y1="-6.6371" x2="106.8275" y2="-6.6354" style="stroke:rgb(255,0,0);stroke-width:.00002" />
    <line x1="106.8275" y1="-6.6354" x2="106.826" y2="-6.6339" style="stroke:rgb(255,0,0);stroke-width:.00002" />
    <line x1="106.826" y1="-6.6339" x2="106.8237" y2="-6.629" style="stroke:rgb(255,0,0);stroke-width:.00002" />
    <line x1="106.8237" y1="-6.629" x2="106.8205" y2="-6.625" style="stroke:rgb(255,0,0);stroke-width:.00002" />
    <line x1="106.8205" y1="-6.625" x2="106.816" y2="-6.6213" style="stroke:rgb(255,0,0);stroke-width:.00002" />
    <line x1="106.816" y1="-6.6213" x2="106.8162" y2="-6.6207" style="stroke:rgb(255,0,0);stroke-width:.00002" />
    <line x1="106.8162" y1="-6.6207" x2="106.8145" y2="-6.6163" style="stroke:rgb(255,0,0);stroke-width:.00002" />
    <line x1="106.8145" y1="-6.6163" x2="106.8141" y2="-6.6152" style="stroke:rgb(255,0,0);stroke-width:.00002" />
    <line x1="106.8141" y1="-6.6152" x2="106.8123" y2="-6.6117" style="stroke:rgb(255,0,0);stroke-width:.00002" />
    <line x1="106.8123" y1="-6.6117" x2="106.8096" y2="-6.6079" style="stroke:rgb(255,0,0);stroke-width:.00002" />
    <line x1="106.8096" y1="-6.6079" x2="106.80612" y2="-6.60366" style="stroke:rgb(255,0,0);stroke-width:.00002" />
    <line x1="106.80612" y1="-6.60366" x2="106.80531" y2="-6.60187" style="stroke:rgb(255,0,0);stroke-width:.00002" />
  </g>
</svg>
