<svg width="1049.9999999998977" height="1849.9999999999961" xmlns="http://www.w3.org/2000/svg" xmlns:xlink="http://www.w3.org/1999/xlink" >
  <g transform="translate(524.9999999999488 924.9999999999981) rotate(30) scale(10000 -10000) translate(-106.8125 6.592499999999999)">
    <path d="M106.76 -6.5 L106.865 -6.5 L106.865 -6.685 L106.76 -6.685 Z" fill="none" stroke="black" stroke-width="0.001" transform="translate(106.8125 -6.592499999999999) rotate(30) translate(-106.8125 6.592499999999999)" />
    <path d="M106.79511318651828 -6.588996677372213 L106.79481364418876 -6.591044548431744 L106.79360001786208 -6.59101829694714 L106.79367224038897 -6.590617702664584 L106.79668420562521 -6.59055985442061 L106.79640024106718 -6.581713928187836 L106.79608123978502 -6.573225852670997 L106.79852293811336 -6.569733232816908 L106.79865265690867 -6.569047432674363 L106.80150646292921 -6.565121588218258 L106.80155856288991 -6.562379827786846 L106.79709038089426 -6.56330104555632 L106.78712778485578 -6.560341181384268 L106.78815135210607 -6.558179521876655 L106.78798742363347 -6.553690251777957 L106.78741473047498 -6.548777355546006 L106.78624816571168 -6.546969456600052 L106.7856018779648 -6.547102241241465 L106.78381597789748 -6.543102406884758 L106.78337447135817 -6.542014816422633 L106.78254926044241 -6.541482690492066 L106.78230496808743 -6.537885589078822 L106.7826256194946 -6.5357844261312605 L106.7823422488725 -6.533978582439482 L106.78912654600667 -6.534065000131135 L106.79007767679275 -6.533185329964955 L106.7955657925914 -6.5334517060077495 L106.79575395060164 -6.5311450642865285 L106.79616103672218 -6.531097106195615 L106.79627226434759 -6.530587746041883 L106.800305 -6.530774 L106.79692373565243 -6.531354253958117 L106.79682096327782 -6.531824893804385 L106.79649804939838 -6.53186293571347 L106.79630020740859 -6.53428829399225 L106.79037432320725 -6.534000670035044 L106.78943545399333 -6.5348689998688645 L106.7828737511275 -6.534785417560518 L106.7830303805054 -6.535783573868735 L106.78270703191257 -6.537902410921139 L106.78293473955759 -6.541255309507934 L106.78369752864182 -6.54174718357737 L106.78418402210258 -6.542945593115357 L106.7858361220352 -6.546645758758533 L106.78643583428833 -6.546522543399949 L106.78780126952503 -6.548638644453997 L106.7883865763665 -6.553659748221905 L106.78855464789393 -6.558262478123359 L106.78786221514423 -6.55972481861573 L106.79712561910573 -6.562476954443681 L106.80184288658413 -6.56150438201295 L106.802644 -6.561578 L106.80236314707248 -6.562146185442834 L106.80230153707079 -6.565388411781727 L106.79940534309135 -6.569372567325618 L106.79927706188664 -6.5700507671830914 L106.79689076021498 -6.5734641473290125 L106.79719981959707 -6.581687685983266 L106.7973770273818 -6.5890656843503095 Z" stroke="black" stroke-width="0.0002" fill="none" />
    <circle 
      cx="106.78712778485578" cy="-12.560341181384267"
      r="15" transform="translate(106.78712778485578 -6.560341181384268) scale(0.00001 -0.00001) translate(-106.78712778485578 6.560341181384268) translate(106.8125 -6.592499999999999) rotate(-30) translate(-106.8125 6.592499999999999)"
      fill="white" stroke="black" stroke-width="2"/>
    <circle 
      cx="106.7823422488725" cy="-12.533978582439481"
      r="15" transform="translate(106.7823422488725 -6.533978582439482) scale(0.00001 -0.00001) translate(-106.7823422488725 6.533978582439482) translate(106.8125 -6.592499999999999) rotate(-30) translate(-106.8125 6.592499999999999)"
      fill="white" stroke="black" stroke-width="2"/>
    <circle 
      cx="106.7828737511275" cy="-12.534785417560517"
      r="15" transform="translate(106.7828737511275 -6.534785417560518) scale(0.00001 -0.00001) translate(-106.7828737511275 6.534785417560518) translate(106.8125 -6.592499999999999) rotate(-30) translate(-106.8125 6.592499999999999)"
      fill="white" stroke="black" stroke-width="2"/>
    <circle 
      cx="106.78786221514423" cy="-12.55972481861573"
      r="15" transform="translate(106.78786221514423 -6.55972481861573) scale(0.00001 -0.00001) translate(-106.78786221514423 6.55972481861573) translate(106.8125 -6.592499999999999) rotate(-30) translate(-106.8125 6.592499999999999)"
      fill="white" stroke="black" stroke-width="2"/>
    <circle 
      cx="106.78712778485578" cy="-12.560341181384267"
      r="15" transform="translate(106.78712778485578 -6.560341181384268) scale(0.00001 -0.00001) translate(-106.78712778485578 6.560341181384268) translate(106.8125 -6.592499999999999) rotate(-30) translate(-106.8125 6.592499999999999)"
      fill="white" stroke="none"/>
    <circle 
      cx="106.7823422488725" cy="-12.533978582439481"
      r="15" transform="translate(106.7823422488725 -6.533978582439482) scale(0.00001 -0.00001) translate(-106.7823422488725 6.533978582439482) translate(106.8125 -6.592499999999999) rotate(-30) translate(-106.8125 6.592499999999999)"
      fill="white" stroke="none"/>
    <circle 
      cx="106.7828737511275" cy="-12.534785417560517"
      r="15" transform="translate(106.7828737511275 -6.534785417560518) scale(0.00001 -0.00001) translate(-106.7828737511275 6.534785417560518) translate(106.8125 -6.592499999999999) rotate(-30) translate(-106.8125 6.592499999999999)"
      fill="white" stroke="none"/>
    <circle 
      cx="106.78786221514423" cy="-12.55972481861573"
      r="15" transform="translate(106.78786221514423 -6.55972481861573) scale(0.00001 -0.00001) translate(-106.78786221514423 6.55972481861573) translate(106.8125 -6.592499999999999) rotate(-30) translate(-106.8125 6.592499999999999)"
      fill="white" stroke="none"/>
    <text x="106.78712778485578" y="-6.560341181384268" fill="black" text-anchor="middle" transform="translate(106.78712778485578 -6.560341181384268) scale(0.00001 -0.00001) translate(-106.78712778485578 6.560341181384268) translate(106.8125 -6.592499999999999) rotate(-30) translate(-106.8125 6.592499999999999)">20</text>
    <text x="106.7823422488725" y="-6.533978582439482" fill="black" text-anchor="middle" transform="translate(106.7823422488725 -6.533978582439482) scale(0.00001 -0.00001) translate(-106.7823422488725 6.533978582439482) translate(106.8125 -6.592499999999999) rotate(-30) translate(-106.8125 6.592499999999999)">20</text>
    <text x="106.7828737511275" y="-6.534785417560518" fill="black" text-anchor="middle" transform="translate(106.7828737511275 -6.534785417560518) scale(0.00001 -0.00001) translate(-106.7828737511275 6.534785417560518) translate(106.8125 -6.592499999999999) rotate(-30) translate(-106.8125 6.592499999999999)">20</text>
    <text x="106.78786221514423" y="-6.55972481861573" fill="black" text-anchor="middle" transform="translate(106.78786221514423 -6.55972481861573) scale(0.00001 -0.00001) translate(-106.78786221514423 6.55972481861573) translate(106.8125 -6.592499999999999) rotate(-30) translate(-106.8125 6.592499999999999)">20</text>
    <line x1="106.796967" y1="-6.588653" x2="106.794769" y2="-6.588586" style="stroke:rgb(255,0,0);stroke-width:.00002" />
    <line x1="106.794769" y1="-6.588586" x2="106.794469" y2="-6.590637" style="stroke:rgb(255,0,0);stroke-width:.00002" />
    <line x1="106.794469" y1="-6.590637" x2="106.793267" y2="-6.590611" style="stroke:rgb(255,0,0);stroke-width:.00002" />
    <line x1="106.793267" y1="-6.590611" x2="106.793192" y2="-6.591027" style="stroke:rgb(255,0,0);stroke-width:.00002" />
    <line x1="106.793192" y1="-6.591027" x2="106.797097" y2="-6.590952" style="stroke:rgb(255,0,0);stroke-width:.00002" />
    <line x1="106.797097" y1="-6.590952" x2="106.7968" y2="-6.5817" style="stroke:rgb(255,0,0);stroke-width:.00002" />
    <line x1="106.7968" y1="-6.5817" x2="106.796486" y2="-6.573345" style="stroke:rgb(255,0,0);stroke-width:.00002" />
    <line x1="106.796486" y1="-6.573345" x2="106.7989" y2="-6.569892" style="stroke:rgb(255,0,0);stroke-width:.00002" />
    <line x1="106.7989" y1="-6.569892" x2="106.799029" y2="-6.56921" style="stroke:rgb(255,0,0);stroke-width:.00002" />
    <line x1="106.799029" y1="-6.56921" x2="106.801904" y2="-6.565255" style="stroke:rgb(255,0,0);stroke-width:.00002" />
    <line x1="106.801904" y1="-6.565255" x2="106.801968" y2="-6.561887" style="stroke:rgb(255,0,0);stroke-width:.00002" />
    <line x1="106.801968" y1="-6.561887" x2="106.797108" y2="-6.562889" style="stroke:rgb(255,0,0);stroke-width:.00002" />
    <line x1="106.797108" y1="-6.562889" x2="106.787495" y2="-6.560033" style="stroke:rgb(255,0,0);stroke-width:.00002" />
    <line x1="106.787495" y1="-6.560033" x2="106.788353" y2="-6.558221" style="stroke:rgb(255,0,0);stroke-width:.00002" />
    <line x1="106.788353" y1="-6.558221" x2="106.788187" y2="-6.553675" style="stroke:rgb(255,0,0);stroke-width:.00002" />
    <line x1="106.788187" y1="-6.553675" x2="106.787608" y2="-6.548708" style="stroke:rgb(255,0,0);stroke-width:.00002" />
    <line x1="106.787608" y1="-6.548708" x2="106.786342" y2="-6.546746" style="stroke:rgb(255,0,0);stroke-width:.00002" />
    <line x1="106.786342" y1="-6.546746" x2="106.785719" y2="-6.546874" style="stroke:rgb(255,0,0);stroke-width:.00002" />
    <line x1="106.785719" y1="-6.546874" x2="106.784" y2="-6.543024" style="stroke:rgb(255,0,0);stroke-width:.00002" />
    <line x1="106.784" y1="-6.543024" x2="106.783536" y2="-6.541881" style="stroke:rgb(255,0,0);stroke-width:.00002" />
    <line x1="106.783536" y1="-6.541881" x2="106.782742" y2="-6.541369" style="stroke:rgb(255,0,0);stroke-width:.00002" />
    <line x1="106.782742" y1="-6.541369" x2="106.782506" y2="-6.537894" style="stroke:rgb(255,0,0);stroke-width:.00002" />
    <line x1="106.782506" y1="-6.537894" x2="106.782828" y2="-6.535784" style="stroke:rgb(255,0,0);stroke-width:.00002" />
    <line x1="106.782828" y1="-6.535784" x2="106.782608" y2="-6.534382" style="stroke:rgb(255,0,0);stroke-width:.00002" />
    <line x1="106.782608" y1="-6.534382" x2="106.789281" y2="-6.534467" style="stroke:rgb(255,0,0);stroke-width:.00002" />
    <line x1="106.789281" y1="-6.534467" x2="106.790226" y2="-6.533593" style="stroke:rgb(255,0,0);stroke-width:.00002" />
    <line x1="106.790226" y1="-6.533593" x2="106.795933" y2="-6.53387" style="stroke:rgb(255,0,0);stroke-width:.00002" />
    <line x1="106.795933" y1="-6.53387" x2="106.796126" y2="-6.531504" style="stroke:rgb(255,0,0);stroke-width:.00002" />
    <line x1="106.796126" y1="-6.531504" x2="106.796491" y2="-6.531461" style="stroke:rgb(255,0,0);stroke-width:.00002" />
    <line x1="106.796491" y1="-6.531461" x2="106.796598" y2="-6.530971" style="stroke:rgb(255,0,0);stroke-width:.00002" />
    <line x1="106.796598" y1="-6.530971" x2="106.800305" y2="-6.530774" style="stroke:rgb(255,0,0);stroke-width:.00002" />
    <line x1="106.800305" y1="-6.530774" x2="106.796598" y2="-6.530971" style="stroke:rgb(255,0,0);stroke-width:.00002" />
    <line x1="106.796598" y1="-6.530971" x2="106.796491" y2="-6.531461" style="stroke:rgb(255,0,0);stroke-width:.00002" />
    <line x1="106.796491" y1="-6.531461" x2="106.796126" y2="-6.531504" style="stroke:rgb(255,0,0);stroke-width:.00002" />
    <line x1="106.796126" y1="-6.531504" x2="106.795933" y2="-6.53387" style="stroke:rgb(255,0,0);stroke-width:.00002" />
    <line x1="106.795933" y1="-6.53387" x2="106.790226" y2="-6.533593" style="stroke:rgb(255,0,0);stroke-width:.00002" />
    <line x1="106.790226" y1="-6.533593" x2="106.789281" y2="-6.534467" style="stroke:rgb(255,0,0);stroke-width:.00002" />
    <line x1="106.789281" y1="-6.534467" x2="106.782608" y2="-6.534382" style="stroke:rgb(255,0,0);stroke-width:.00002" />
    <line x1="106.782608" y1="-6.534382" x2="106.782828" y2="-6.535784" style="stroke:rgb(255,0,0);stroke-width:.00002" />
    <line x1="106.782828" y1="-6.535784" x2="106.782506" y2="-6.537894" style="stroke:rgb(255,0,0);stroke-width:.00002" />
    <line x1="106.782506" y1="-6.537894" x2="106.782742" y2="-6.541369" style="stroke:rgb(255,0,0);stroke-width:.00002" />
    <line x1="106.782742" y1="-6.541369" x2="106.783536" y2="-6.541881" style="stroke:rgb(255,0,0);stroke-width:.00002" />
    <line x1="106.783536" y1="-6.541881" x2="106.784" y2="-6.543024" style="stroke:rgb(255,0,0);stroke-width:.00002" />
    <line x1="106.784" y1="-6.543024" x2="106.785719" y2="-6.546874" style="stroke:rgb(255,0,0);stroke-width:.00002" />
    <line x1="106.785719" y1="-6.546874" x2="106.786342" y2="-6.546746" style="stroke:rgb(255,0,0);stroke-width:.00002" />
    <line x1="106.786342" y1="-6.546746" x2="106.787608" y2="-6.548708" style="stroke:rgb(255,0,0);stroke-width:.00002" />
    <line x1="106.787608" y1="-6.548708" x2="106.788187" y2="-6.553675" style="stroke:rgb(255,0,0);stroke-width:.00002" />
    <line x1="106.788187" y1="-6.553675" x2="106.788353" y2="-6.558221" style="stroke:rgb(255,0,0);stroke-width:.00002" />
    <line x1="106.788353" y1="-6.558221" x2="106.787495" y2="-6.560033" style="stroke:rgb(255,0,0);stroke-width:.00002" />
    <line x1="106.787495" y1="-6.560033" x2="106.797108" y2="-6.562889" style="stroke:rgb(255,0,0);stroke-width:.00002" />
    <line x1="106.797108" y1="-6.562889" x2="106.801968" y2="-6.561887" style="stroke:rgb(255,0,0);stroke-width:.00002" />
    <line x1="106.801968" y1="-6.561887" x2="106.802644" y2="-6.561578" style="stroke:rgb(255,0,0);stroke-width:.00002" />
    <line x1="106.802644" y1="-6.561578" x2="106.801968" y2="-6.561887" style="stroke:rgb(255,0,0);stroke-width:.00002" />
    <line x1="106.801968" y1="-6.561887" x2="106.801904" y2="-6.565255" style="stroke:rgb(255,0,0);stroke-width:.00002" />
    <line x1="106.801904" y1="-6.565255" x2="106.799029" y2="-6.56921" style="stroke:rgb(255,0,0);stroke-width:.00002" />
    <line x1="106.799029" y1="-6.56921" x2="106.7989" y2="-6.569892" style="stroke:rgb(255,0,0);stroke-width:.00002" />
    <line x1="106.7989" y1="-6.569892" x2="106.796486" y2="-6.573345" style="stroke:rgb(255,0,0);stroke-width:.00002" />
    <line x1="106.796486" y1="-6.573345" x2="106.7968" y2="-6.5817" style="stroke:rgb(255,0,0);stroke-width:.00002" />
    <line x1="106.7968" y1="-6.5817" x2="106.796967" y2="-6.588653" style="stroke:rgb(255,0,0);stroke-width:.00002" />
  </g>
</svg>
