<svg width="3500" height="3500" xmlns="http://www.w3.org/2000/svg" xmlns:xlink="http://www.w3.org/1999/xlink" >
  <path d="M1359.2210047450237 948.1036069764584 L1362.238574344019 1000.9110749557597 L1371.2947594450497 1034.1170869938314 L1361.9353700017455 1076.2343394894062 L1282.0414812426152 1071.0238684833632 L1248.7639371782677 1063.4607902869013 L1198.4535944331042 1059.9507663744448 L1172.618227998967 1171.9040209216973 L1187.1039589211564 1175.6841618595809 L1185.447853667796 1195.8752632827845 L1185.2324805786197 1234.6854939343914 L1169.9446780187372 1235.0048576572585 L1169.2003018831797 1248.7758161646982 L1186.859542143779 1359.146067793469 L1173.9084354982056 1377.2776170970906 L1090.8197168063084 1395.198713285564 L1042.1495177997285 1420.3729541510238 L1022.3561671418224 1407.1773870459217 L983.3549026842547 1295.048751729935 L1000.2443766917679 1250.0101543764467 L1049.1767643853223 1222.8254945467224 L1069.3565127461825 1231.9981074380553 L1105.2482673816398 1213.5913169497762 L1123.8615087505366 1221.1904729521543 L1122.3950496905388 1224.6888883564693 L1121.8128870330447 1214.5890431782118 L1115.3023943967355 1195.0422103342275 L1117.8519036634782 1184.8770701608662 L1099.9472932503095 1166.9724597476709 L1089.1949973949268 1136.2516144464512 L1098.309982957204 1093.715015154975 L1107.7344505577712 1070.1538461538498 L1119.4161256380398 1070.1538461538498 L1128.3412566249494 994.2902327663553 L1159.9354351597667 973.227447076344 L1162.93131096171 961.2439438683443 L1197.6077531186747 937.1212014984258 L1218.3635031898632 899.7608513699399 L1205.6171994702681 902.3101121138936 L1195.6476006416494 889.0173136758998 L1197.1916796166227 881.2969188009005 L1193.665163410742 872.4806282861723 L1204.8429779106584 870.6176592028396 L1230.6409131184637 878.2052872051431 L1322.6159706761819 900.822104637338 Z" stroke="black" stroke-width="0.5" fill="none" />
</svg>
