<svg width="1049.9999999998977" height="1849.9999999999961" xmlns="http://www.w3.org/2000/svg" xmlns:xlink="http://www.w3.org/1999/xlink" >
  <g transform="translate(524.9999999999488 924.9999999999981) rotate(30) scale(10000 -10000) translate(-106.8125 6.592499999999999)">
    <path d="M106.76 -6.5 L106.865 -6.5 L106.865 -6.685 L106.76 -6.685 Z" fill="none" stroke="black" stroke-width="0.001" transform="translate(106.8125 -6.592499999999999) rotate(30) translate(-106.8125 6.592499999999999)" />
    <path d="M106.8164 -6.57195 L106.8164 -6.57195 L106.8176 -6.5735 L106.8177 -6.5752500000000005 L106.8177 -6.5752500000000005 L106.8178 -6.577 L106.8181 -6.5781 L106.8181 -6.5781 L106.8184 -6.5792 L106.8181 -6.580550000000001 L106.8181 -6.580550000000001 L106.8178 -6.5819 L106.8155 -6.5817499999999995 L106.8155 -6.5817499999999995 L106.8132 -6.5816 L106.81229502657116 -6.581394324220718 L106.81190497342884 -6.581305675779283 L106.811 -6.5811 L106.80904951502018 -6.58096391965257 L106.80865048497984 -6.5809360803474295 L106.8067 -6.5808 L106.80588994380268 -6.584310243521722 L106.80571005619733 -6.585089756478277 L106.8049 -6.5886 L106.805402 -6.588730999999999 L106.805402 -6.588730999999999 L106.805904 -6.588862 L106.80580499999999 -6.590069 L106.80580499999999 -6.590069 L106.805706 -6.591276 L106.80570460986081 -6.591526503079502 L106.80570239013917 -6.5919264969204985 L106.805701 -6.592177 L106.8051505 -6.592188500000001 L106.8051505 -6.592188500000001 L106.8046 -6.5922 L106.8045107950516 -6.593850291545345 L106.80448920494838 -6.594249708454655 L106.8044 -6.5959 L106.80470520569934 -6.597807535620849 L106.80489479430067 -6.59899246437915 L106.8052 -6.6009 L106.80529874291622 -6.600761759917277 L106.80460125708376 -6.601738240082724 L106.8047 -6.6016 L106.8045145 -6.601623 L106.8045145 -6.601623 L106.804329 -6.601646 L106.80269819927979 -6.602034093014018 L106.80153080072019 -6.602311906985982 L106.7999 -6.6027 L106.79974999999999 -6.6027 L106.79974999999999 -6.6027 L106.7996 -6.6027 L106.7993788854382 -6.6028105572808995 L106.7990211145618 -6.6029894427191005 L106.7988 -6.6031 L106.798028 -6.6035205 L106.798028 -6.6035205 L106.797256 -6.603941 L106.796978 -6.6040705 L106.796978 -6.6040705 L106.7967 -6.6042 L106.7964 -6.603999999999999 L106.7964 -6.603999999999999 L106.7961 -6.6038 L106.79496570412499 -6.600538899359341 L106.794834295875 -6.600161100640658 L106.7937 -6.5969 L106.79379887655841 -6.596636329177569 L106.79450112344159 -6.594763670822431 L106.7946 -6.5945 L106.79577516854478 -6.593847128586235 L106.79612483145523 -6.593652871413765 L106.7973 -6.593 L106.79785000000001 -6.593249999999999 L106.79785000000001 -6.593249999999999 L106.7984 -6.5935 L106.79960700000001 -6.592881 L106.79960700000001 -6.592881 L106.800814 -6.592262 L106.80131 -6.5924645 L106.80131 -6.5924645 L106.801806 -6.592667 L106.80134045913964 -6.5937776040133 L106.80257754086036 -6.5908263959867 L106.802112 -6.591937 L106.80209049999999 -6.591564 L106.80209049999999 -6.591564 L106.802069 -6.591191 L106.801857 -6.5905545 L106.801857 -6.5905545 L106.801645 -6.589918 L106.8017225 -6.589608999999999 L106.8017225 -6.589608999999999 L106.8018 -6.5893 L106.80129142135624 -6.588791421356237 L106.80100857864377 -6.588508578643762 L106.8005 -6.588 L106.80015 -6.587 L106.80015 -6.587 L106.7998 -6.586 L106.8001 -6.5846 L106.8001 -6.5846 L106.8004 -6.5832 L106.8007 -6.58245 L106.8007 -6.58245 L106.801 -6.5817 L106.8014 -6.5817 L106.8014 -6.5817 L106.8018 -6.5817 L106.8021 -6.57915 L106.8021 -6.57915 L106.8024 -6.5766 L106.80345 -6.5759 L106.80345 -6.5759 L106.8045 -6.5752 L106.8046 -6.5748 L106.8046 -6.5748 L106.8047 -6.5744 L106.80584999999999 -6.5736 L106.80584999999999 -6.5736 L106.807 -6.5728 L106.80775 -6.5714500000000005 L106.80775 -6.5714500000000005 L106.8085 -6.5701 L106.80799999999999 -6.5702 L106.80799999999999 -6.5702 L106.8075 -6.5703 L106.8072 -6.5699 L106.8072 -6.5699 L106.8069 -6.5695 L106.80695 -6.56925 L106.80695 -6.56925 L106.807 -6.569 L106.8069 -6.56875 L106.8069 -6.56875 L106.8068 -6.5685 L106.80709999999999 -6.56845 L106.80709999999999 -6.56845 L106.8074 -6.5684 L106.80825 -6.56865 L106.80825 -6.56865 L106.8091 -6.5689 L106.81215 -6.56965 L106.81215 -6.56965 L106.8152 -6.5704 Z" stroke="black" stroke-width="0.0002" fill="none" />



    <line x1="106.8152" y1="-6.5704" x2="106.8176" y2="-6.5735" style="stroke:rgb(255,0,0);stroke-width:.00002" />
    <line x1="106.8152" y1="-6.5704" x2="106.8164" y2="-6.57195" style="stroke:rgb(0,0,0);stroke-width:.00002" />
    <line x1="106.8164" y1="-6.57195" x2="106.8164" y2="-6.57195" style="stroke:rgb(0,0,0);stroke-width:.00002" />
    <line x1="106.8164" y1="-6.57195" x2="106.8176" y2="-6.5735" style="stroke:rgb(0,0,0);stroke-width:.00002" />
    <circle cx="106.8152" cy="-6.5704" fill="rgb(255,0,0)" r=".0001" />
    <text x="106.8152" y="-6.5704" stroke="rgb(0,0,0)" transform="translate(106.8152 -6.5704),scale(0.00001 -0.00001),translate(-106.8152 6.5704),translate(106.8125 -6.592499999999999),rotate(-30),translate(-106.8125 6.592499999999999)" >adnawijaya-1</text>
    <line x1="106.8176" y1="-6.5735" x2="106.8178" y2="-6.577" style="stroke:rgb(255,0,0);stroke-width:.00002" />
    <line x1="106.8176" y1="-6.5735" x2="106.8177" y2="-6.5752500000000005" style="stroke:rgb(0,0,0);stroke-width:.00002" />
    <line x1="106.8177" y1="-6.5752500000000005" x2="106.8177" y2="-6.5752500000000005" style="stroke:rgb(0,0,0);stroke-width:.00002" />
    <line x1="106.8177" y1="-6.5752500000000005" x2="106.8178" y2="-6.577" style="stroke:rgb(0,0,0);stroke-width:.00002" />
    <circle cx="106.8176" cy="-6.5735" fill="rgb(255,0,0)" r=".0001" />
    <text x="106.8176" y="-6.5735" stroke="rgb(0,0,0)" transform="translate(106.8176 -6.5735),scale(0.00001 -0.00001),translate(-106.8176 6.5735),translate(106.8125 -6.592499999999999),rotate(-30),translate(-106.8125 6.592499999999999)" >adnawijaya-2</text>
    <line x1="106.8178" y1="-6.577" x2="106.8184" y2="-6.5792" style="stroke:rgb(255,0,0);stroke-width:.00002" />
    <line x1="106.8178" y1="-6.577" x2="106.8181" y2="-6.5781" style="stroke:rgb(0,0,0);stroke-width:.00002" />
    <line x1="106.8181" y1="-6.5781" x2="106.8181" y2="-6.5781" style="stroke:rgb(0,0,0);stroke-width:.00002" />
    <line x1="106.8181" y1="-6.5781" x2="106.8184" y2="-6.5792" style="stroke:rgb(0,0,0);stroke-width:.00002" />
    <circle cx="106.8178" cy="-6.577" fill="rgb(255,0,0)" r=".0001" />
    <text x="106.8178" y="-6.577" stroke="rgb(0,0,0)" transform="translate(106.8178 -6.577),scale(0.00001 -0.00001),translate(-106.8178 6.577),translate(106.8125 -6.592499999999999),rotate(-30),translate(-106.8125 6.592499999999999)" >adnawijaya-3</text>
    <line x1="106.8184" y1="-6.5792" x2="106.8178" y2="-6.5819" style="stroke:rgb(255,0,0);stroke-width:.00002" />
    <line x1="106.8184" y1="-6.5792" x2="106.8181" y2="-6.580550000000001" style="stroke:rgb(0,0,0);stroke-width:.00002" />
    <line x1="106.8181" y1="-6.580550000000001" x2="106.8181" y2="-6.580550000000001" style="stroke:rgb(0,0,0);stroke-width:.00002" />
    <line x1="106.8181" y1="-6.580550000000001" x2="106.8178" y2="-6.5819" style="stroke:rgb(0,0,0);stroke-width:.00002" />
    <circle cx="106.8184" cy="-6.5792" fill="rgb(255,0,0)" r=".0001" />
    <text x="106.8184" y="-6.5792" stroke="rgb(0,0,0)" transform="translate(106.8184 -6.5792),scale(0.00001 -0.00001),translate(-106.8184 6.5792),translate(106.8125 -6.592499999999999),rotate(-30),translate(-106.8125 6.592499999999999)" >adnawijaya-4</text>
    <line x1="106.8178" y1="-6.5819" x2="106.8132" y2="-6.5816" style="stroke:rgb(255,0,0);stroke-width:.00002" />
    <line x1="106.8178" y1="-6.5819" x2="106.8155" y2="-6.5817499999999995" style="stroke:rgb(0,0,0);stroke-width:.00002" />
    <line x1="106.8155" y1="-6.5817499999999995" x2="106.8155" y2="-6.5817499999999995" style="stroke:rgb(0,0,0);stroke-width:.00002" />
    <line x1="106.8155" y1="-6.5817499999999995" x2="106.8132" y2="-6.5816" style="stroke:rgb(0,0,0);stroke-width:.00002" />
    <circle cx="106.8178" cy="-6.5819" fill="rgb(255,0,0)" r=".0001" />
    <text x="106.8178" y="-6.5819" stroke="rgb(0,0,0)" transform="translate(106.8178 -6.5819),scale(0.00001 -0.00001),translate(-106.8178 6.5819),translate(106.8125 -6.592499999999999),rotate(-30),translate(-106.8125 6.592499999999999)" >adnawijaya-5</text>
    <line x1="106.8132" y1="-6.5816" x2="106.811" y2="-6.5811" style="stroke:rgb(255,0,0);stroke-width:.00002" />
    <line x1="106.8132" y1="-6.5816" x2="106.81229502657116" y2="-6.581394324220718" style="stroke:rgb(0,0,0);stroke-width:.00002" />
    <line x1="106.81229502657116" y1="-6.581394324220718" x2="106.81190497342884" y2="-6.581305675779283" style="stroke:rgb(0,0,0);stroke-width:.00002" />
    <line x1="106.81190497342884" y1="-6.581305675779283" x2="106.811" y2="-6.5811" style="stroke:rgb(0,0,0);stroke-width:.00002" />
    <circle cx="106.8132" cy="-6.5816" fill="rgb(255,0,0)" r=".0001" />
    <text x="106.8132" y="-6.5816" stroke="rgb(0,0,0)" transform="translate(106.8132 -6.5816),scale(0.00001 -0.00001),translate(-106.8132 6.5816),translate(106.8125 -6.592499999999999),rotate(-30),translate(-106.8125 6.592499999999999)" >sobana-palapuhraya</text>
    <line x1="106.811" y1="-6.5811" x2="106.8067" y2="-6.5808" style="stroke:rgb(255,0,0);stroke-width:.00002" />
    <line x1="106.811" y1="-6.5811" x2="106.80904951502018" y2="-6.58096391965257" style="stroke:rgb(0,0,0);stroke-width:.00002" />
    <line x1="106.80904951502018" y1="-6.58096391965257" x2="106.80865048497984" y2="-6.5809360803474295" style="stroke:rgb(0,0,0);stroke-width:.00002" />
    <line x1="106.80865048497984" y1="-6.5809360803474295" x2="106.8067" y2="-6.5808" style="stroke:rgb(0,0,0);stroke-width:.00002" />
    <circle cx="106.811" cy="-6.5811" fill="rgb(255,0,0)" r=".0001" />
    <text x="106.811" y="-6.5811" stroke="rgb(0,0,0)" transform="translate(106.811 -6.5811),scale(0.00001 -0.00001),translate(-106.811 6.5811),translate(106.8125 -6.592499999999999),rotate(-30),translate(-106.8125 6.592499999999999)" >sobana-sungai</text>
    <line x1="106.8067" y1="-6.5808" x2="106.8049" y2="-6.5886" style="stroke:rgb(255,0,0);stroke-width:.00002" />
    <line x1="106.8067" y1="-6.5808" x2="106.80588994380268" y2="-6.584310243521722" style="stroke:rgb(0,0,0);stroke-width:.00002" />
    <line x1="106.80588994380268" y1="-6.584310243521722" x2="106.80571005619733" y2="-6.585089756478277" style="stroke:rgb(0,0,0);stroke-width:.00002" />
    <line x1="106.80571005619733" y1="-6.585089756478277" x2="106.8049" y2="-6.5886" style="stroke:rgb(0,0,0);stroke-width:.00002" />
    <circle cx="106.8067" cy="-6.5808" fill="rgb(255,0,0)" r=".0001" />
    <text x="106.8067" y="-6.5808" stroke="rgb(0,0,0)" transform="translate(106.8067 -6.5808),scale(0.00001 -0.00001),translate(-106.8067 6.5808),translate(106.8125 -6.592499999999999),rotate(-30),translate(-106.8125 6.592499999999999)" >pajajaran-sobana</text>
    <line x1="106.8049" y1="-6.5886" x2="106.805904" y2="-6.588862" style="stroke:rgb(255,0,0);stroke-width:.00002" />
    <line x1="106.8049" y1="-6.5886" x2="106.805402" y2="-6.588730999999999" style="stroke:rgb(0,0,0);stroke-width:.00002" />
    <line x1="106.805402" y1="-6.588730999999999" x2="106.805402" y2="-6.588730999999999" style="stroke:rgb(0,0,0);stroke-width:.00002" />
    <line x1="106.805402" y1="-6.588730999999999" x2="106.805904" y2="-6.588862" style="stroke:rgb(0,0,0);stroke-width:.00002" />
    <circle cx="106.8049" cy="-6.5886" fill="rgb(255,0,0)" r=".0001" />
    <text x="106.8049" y="-6.5886" stroke="rgb(0,0,0)" transform="translate(106.8049 -6.5886),scale(0.00001 -0.00001),translate(-106.8049 6.5886),translate(106.8125 -6.592499999999999),rotate(-30),translate(-106.8125 6.592499999999999)" >salak-pajajaran</text>
    <line x1="106.805904" y1="-6.588862" x2="106.805706" y2="-6.591276" style="stroke:rgb(255,0,0);stroke-width:.00002" />
    <line x1="106.805904" y1="-6.588862" x2="106.80580499999999" y2="-6.590069" style="stroke:rgb(0,0,0);stroke-width:.00002" />
    <line x1="106.80580499999999" y1="-6.590069" x2="106.80580499999999" y2="-6.590069" style="stroke:rgb(0,0,0);stroke-width:.00002" />
    <line x1="106.80580499999999" y1="-6.590069" x2="106.805706" y2="-6.591276" style="stroke:rgb(0,0,0);stroke-width:.00002" />
    <circle cx="106.805904" cy="-6.588862" fill="rgb(255,0,0)" r=".0001" />
    <text x="106.805904" y="-6.588862" stroke="rgb(0,0,0)" transform="translate(106.805904 -6.588862),scale(0.00001 -0.00001),translate(-106.805904 6.588862),translate(106.8125 -6.592499999999999),rotate(-30),translate(-106.8125 6.592499999999999)" >lodaya-N</text>
    <line x1="106.805706" y1="-6.591276" x2="106.805701" y2="-6.592177" style="stroke:rgb(255,0,0);stroke-width:.00002" />
    <line x1="106.805706" y1="-6.591276" x2="106.80570460986081" y2="-6.591526503079502" style="stroke:rgb(0,0,0);stroke-width:.00002" />
    <line x1="106.80570460986081" y1="-6.591526503079502" x2="106.80570239013917" y2="-6.5919264969204985" style="stroke:rgb(0,0,0);stroke-width:.00002" />
    <line x1="106.80570239013917" y1="-6.5919264969204985" x2="106.805701" y2="-6.592177" style="stroke:rgb(0,0,0);stroke-width:.00002" />
    <circle cx="106.805706" cy="-6.591276" fill="rgb(255,0,0)" r=".0001" />
    <text x="106.805706" y="-6.591276" stroke="rgb(0,0,0)" transform="translate(106.805706 -6.591276),scale(0.00001 -0.00001),translate(-106.805706 6.591276),translate(106.8125 -6.592499999999999),rotate(-30),translate(-106.8125 6.592499999999999)" >lodaya-M</text>
    <line x1="106.805701" y1="-6.592177" x2="106.8046" y2="-6.5922" style="stroke:rgb(255,0,0);stroke-width:.00002" />
    <line x1="106.805701" y1="-6.592177" x2="106.8051505" y2="-6.592188500000001" style="stroke:rgb(0,0,0);stroke-width:.00002" />
    <line x1="106.8051505" y1="-6.592188500000001" x2="106.8051505" y2="-6.592188500000001" style="stroke:rgb(0,0,0);stroke-width:.00002" />
    <line x1="106.8051505" y1="-6.592188500000001" x2="106.8046" y2="-6.5922" style="stroke:rgb(0,0,0);stroke-width:.00002" />
    <circle cx="106.805701" cy="-6.592177" fill="rgb(255,0,0)" r=".0001" />
    <text x="106.805701" y="-6.592177" stroke="rgb(0,0,0)" transform="translate(106.805701 -6.592177),scale(0.00001 -0.00001),translate(-106.805701 6.592177),translate(106.8125 -6.592499999999999),rotate(-30),translate(-106.8125 6.592499999999999)" >lodaya-S</text>
    <line x1="106.8046" y1="-6.5922" x2="106.8044" y2="-6.5959" style="stroke:rgb(255,0,0);stroke-width:.00002" />
    <line x1="106.8046" y1="-6.5922" x2="106.8045107950516" y2="-6.593850291545345" style="stroke:rgb(0,0,0);stroke-width:.00002" />
    <line x1="106.8045107950516" y1="-6.593850291545345" x2="106.80448920494838" y2="-6.594249708454655" style="stroke:rgb(0,0,0);stroke-width:.00002" />
    <line x1="106.80448920494838" y1="-6.594249708454655" x2="106.8044" y2="-6.5959" style="stroke:rgb(0,0,0);stroke-width:.00002" />
    <circle cx="106.8046" cy="-6.5922" fill="rgb(255,0,0)" r=".0001" />
    <text x="106.8046" y="-6.5922" stroke="rgb(0,0,0)" transform="translate(106.8046 -6.5922),scale(0.00001 -0.00001),translate(-106.8046 6.5922),translate(106.8125 -6.592499999999999),rotate(-30),translate(-106.8125 6.592499999999999)" >pangrango-pajajaran</text>
    <line x1="106.8044" y1="-6.5959" x2="106.8052" y2="-6.6009" style="stroke:rgb(255,0,0);stroke-width:.00002" />
    <line x1="106.8044" y1="-6.5959" x2="106.80470520569934" y2="-6.597807535620849" style="stroke:rgb(0,0,0);stroke-width:.00002" />
    <line x1="106.80470520569934" y1="-6.597807535620849" x2="106.80489479430067" y2="-6.59899246437915" style="stroke:rgb(0,0,0);stroke-width:.00002" />
    <line x1="106.80489479430067" y1="-6.59899246437915" x2="106.8052" y2="-6.6009" style="stroke:rgb(0,0,0);stroke-width:.00002" />
    <circle cx="106.8044" cy="-6.5959" fill="rgb(255,0,0)" r=".0001" />
    <text x="106.8044" y="-6.5959" stroke="rgb(0,0,0)" transform="translate(106.8044 -6.5959),scale(0.00001 -0.00001),translate(-106.8044 6.5959),translate(106.8125 -6.592499999999999),rotate(-30),translate(-106.8125 6.592499999999999)" >kb-astrid</text>
    <line x1="106.8052" y1="-6.6009" x2="106.8047" y2="-6.6016" style="stroke:rgb(255,0,0);stroke-width:.00002" />
    <line x1="106.8052" y1="-6.6009" x2="106.80529874291622" y2="-6.600761759917277" style="stroke:rgb(0,0,0);stroke-width:.00002" />
    <line x1="106.80529874291622" y1="-6.600761759917277" x2="106.80460125708376" y2="-6.601738240082724" style="stroke:rgb(0,0,0);stroke-width:.00002" />
    <line x1="106.80460125708376" y1="-6.601738240082724" x2="106.8047" y2="-6.6016" style="stroke:rgb(0,0,0);stroke-width:.00002" />
    <circle cx="106.8052" cy="-6.6009" fill="rgb(255,0,0)" r=".0001" />
    <text x="106.8052" y="-6.6009" stroke="rgb(0,0,0)" transform="translate(106.8052 -6.6009),scale(0.00001 -0.00001),translate(-106.8052 6.6009),translate(106.8125 -6.592499999999999),rotate(-30),translate(-106.8125 6.592499999999999)" >kb-botani-1</text>
    <line x1="106.8047" y1="-6.6016" x2="106.804329" y2="-6.601646" style="stroke:rgb(255,0,0);stroke-width:.00002" />
    <line x1="106.8047" y1="-6.6016" x2="106.8045145" y2="-6.601623" style="stroke:rgb(0,0,0);stroke-width:.00002" />
    <line x1="106.8045145" y1="-6.601623" x2="106.8045145" y2="-6.601623" style="stroke:rgb(0,0,0);stroke-width:.00002" />
    <line x1="106.8045145" y1="-6.601623" x2="106.804329" y2="-6.601646" style="stroke:rgb(0,0,0);stroke-width:.00002" />
    <circle cx="106.8047" cy="-6.6016" fill="rgb(255,0,0)" r=".0001" />
    <text x="106.8047" y="-6.6016" stroke="rgb(0,0,0)" transform="translate(106.8047 -6.6016),scale(0.00001 -0.00001),translate(-106.8047 6.6016),translate(106.8125 -6.592499999999999),rotate(-30),translate(-106.8125 6.592499999999999)" >kb-botani-2</text>
    <line x1="106.804329" y1="-6.601646" x2="106.7999" y2="-6.6027" style="stroke:rgb(255,0,0);stroke-width:.00002" />
    <line x1="106.804329" y1="-6.601646" x2="106.80269819927979" y2="-6.602034093014018" style="stroke:rgb(0,0,0);stroke-width:.00002" />
    <line x1="106.80269819927979" y1="-6.602034093014018" x2="106.80153080072019" y2="-6.602311906985982" style="stroke:rgb(0,0,0);stroke-width:.00002" />
    <line x1="106.80153080072019" y1="-6.602311906985982" x2="106.7999" y2="-6.6027" style="stroke:rgb(0,0,0);stroke-width:.00002" />
    <circle cx="106.804329" cy="-6.601646" fill="rgb(255,0,0)" r=".0001" />
    <text x="106.804329" y="-6.601646" stroke="rgb(0,0,0)" transform="translate(106.804329 -6.601646),scale(0.00001 -0.00001),translate(-106.804329 6.601646),translate(106.8125 -6.592499999999999),rotate(-30),translate(-106.8125 6.592499999999999)" >bangka-otista</text>
    <line x1="106.7999" y1="-6.6027" x2="106.7996" y2="-6.6027" style="stroke:rgb(255,0,0);stroke-width:.00002" />
    <line x1="106.7999" y1="-6.6027" x2="106.79974999999999" y2="-6.6027" style="stroke:rgb(0,0,0);stroke-width:.00002" />
    <line x1="106.79974999999999" y1="-6.6027" x2="106.79974999999999" y2="-6.6027" style="stroke:rgb(0,0,0);stroke-width:.00002" />
    <line x1="106.79974999999999" y1="-6.6027" x2="106.7996" y2="-6.6027" style="stroke:rgb(0,0,0);stroke-width:.00002" />
    <circle cx="106.7999" cy="-6.6027" fill="rgb(255,0,0)" r=".0001" />
    <text x="106.7999" y="-6.6027" stroke="rgb(0,0,0)" transform="translate(106.7999 -6.6027),scale(0.00001 -0.00001),translate(-106.7999 6.6027),translate(106.8125 -6.592499999999999),rotate(-30),translate(-106.8125 6.592499999999999)" >otista-roda</text>
    <line x1="106.7996" y1="-6.6027" x2="106.7988" y2="-6.6031" style="stroke:rgb(255,0,0);stroke-width:.00002" />
    <line x1="106.7996" y1="-6.6027" x2="106.7993788854382" y2="-6.6028105572808995" style="stroke:rgb(0,0,0);stroke-width:.00002" />
    <line x1="106.7993788854382" y1="-6.6028105572808995" x2="106.7990211145618" y2="-6.6029894427191005" style="stroke:rgb(0,0,0);stroke-width:.00002" />
    <line x1="106.7990211145618" y1="-6.6029894427191005" x2="106.7988" y2="-6.6031" style="stroke:rgb(0,0,0);stroke-width:.00002" />
    <circle cx="106.7996" cy="-6.6027" fill="rgb(255,0,0)" r=".0001" />
    <text x="106.7996" y="-6.6027" stroke="rgb(0,0,0)" transform="translate(106.7996 -6.6027),scale(0.00001 -0.00001),translate(-106.7996 6.6027),translate(106.8125 -6.592499999999999),rotate(-30),translate(-106.8125 6.592499999999999)" >kb-otista</text>
    <line x1="106.7988" y1="-6.6031" x2="106.797256" y2="-6.603941" style="stroke:rgb(255,0,0);stroke-width:.00002" />
    <line x1="106.7988" y1="-6.6031" x2="106.798028" y2="-6.6035205" style="stroke:rgb(0,0,0);stroke-width:.00002" />
    <line x1="106.798028" y1="-6.6035205" x2="106.798028" y2="-6.6035205" style="stroke:rgb(0,0,0);stroke-width:.00002" />
    <line x1="106.798028" y1="-6.6035205" x2="106.797256" y2="-6.603941" style="stroke:rgb(0,0,0);stroke-width:.00002" />
    <circle cx="106.7988" cy="-6.6031" fill="rgb(255,0,0)" r=".0001" />
    <text x="106.7988" y="-6.6031" stroke="rgb(0,0,0)" transform="translate(106.7988 -6.6031),scale(0.00001 -0.00001),translate(-106.7988 6.6031),translate(106.8125 -6.592499999999999),rotate(-30),translate(-106.8125 6.592499999999999)" >kb-suryakencana</text>
    <line x1="106.797256" y1="-6.603941" x2="106.7967" y2="-6.6042" style="stroke:rgb(255,0,0);stroke-width:.00002" />
    <line x1="106.797256" y1="-6.603941" x2="106.796978" y2="-6.6040705" style="stroke:rgb(0,0,0);stroke-width:.00002" />
    <line x1="106.796978" y1="-6.6040705" x2="106.796978" y2="-6.6040705" style="stroke:rgb(0,0,0);stroke-width:.00002" />
    <line x1="106.796978" y1="-6.6040705" x2="106.7967" y2="-6.6042" style="stroke:rgb(0,0,0);stroke-width:.00002" />
    <circle cx="106.797256" cy="-6.603941" fill="rgb(255,0,0)" r=".0001" />
    <text x="106.797256" y="-6.603941" stroke="rgb(0,0,0)" transform="translate(106.797256 -6.603941),scale(0.00001 -0.00001),translate(-106.797256 6.603941),translate(106.8125 -6.592499999999999),rotate(-30),translate(-106.8125 6.592499999999999)" >cincau-kb</text>
    <line x1="106.7967" y1="-6.6042" x2="106.7961" y2="-6.6038" style="stroke:rgb(255,0,0);stroke-width:.00002" />
    <line x1="106.7967" y1="-6.6042" x2="106.7964" y2="-6.603999999999999" style="stroke:rgb(0,0,0);stroke-width:.00002" />
    <line x1="106.7964" y1="-6.603999999999999" x2="106.7964" y2="-6.603999999999999" style="stroke:rgb(0,0,0);stroke-width:.00002" />
    <line x1="106.7964" y1="-6.603999999999999" x2="106.7961" y2="-6.6038" style="stroke:rgb(0,0,0);stroke-width:.00002" />
    <circle cx="106.7967" cy="-6.6042" fill="rgb(255,0,0)" r=".0001" />
    <text x="106.7967" y="-6.6042" stroke="rgb(0,0,0)" transform="translate(106.7967 -6.6042),scale(0.00001 -0.00001),translate(-106.7967 6.6042),translate(106.8125 -6.592499999999999),rotate(-30),translate(-106.8125 6.592499999999999)" >kb-btm-1</text>
    <line x1="106.7961" y1="-6.6038" x2="106.7937" y2="-6.5969" style="stroke:rgb(255,0,0);stroke-width:.00002" />
    <line x1="106.7961" y1="-6.6038" x2="106.79496570412499" y2="-6.600538899359341" style="stroke:rgb(0,0,0);stroke-width:.00002" />
    <line x1="106.79496570412499" y1="-6.600538899359341" x2="106.794834295875" y2="-6.600161100640658" style="stroke:rgb(0,0,0);stroke-width:.00002" />
    <line x1="106.794834295875" y1="-6.600161100640658" x2="106.7937" y2="-6.5969" style="stroke:rgb(0,0,0);stroke-width:.00002" />
    <circle cx="106.7961" cy="-6.6038" fill="rgb(255,0,0)" r=".0001" />
    <text x="106.7961" y="-6.6038" stroke="rgb(0,0,0)" transform="translate(106.7961 -6.6038),scale(0.00001 -0.00001),translate(-106.7961 6.6038),translate(106.8125 -6.592499999999999),rotate(-30),translate(-106.8125 6.592499999999999)" >kb-btm-2</text>
    <line x1="106.7937" y1="-6.5969" x2="106.7946" y2="-6.5945" style="stroke:rgb(255,0,0);stroke-width:.00002" />
    <line x1="106.7937" y1="-6.5969" x2="106.79379887655841" y2="-6.596636329177569" style="stroke:rgb(0,0,0);stroke-width:.00002" />
    <line x1="106.79379887655841" y1="-6.596636329177569" x2="106.79450112344159" y2="-6.594763670822431" style="stroke:rgb(0,0,0);stroke-width:.00002" />
    <line x1="106.79450112344159" y1="-6.594763670822431" x2="106.7946" y2="-6.5945" style="stroke:rgb(0,0,0);stroke-width:.00002" />
    <circle cx="106.7937" cy="-6.5969" fill="rgb(255,0,0)" r=".0001" />
    <text x="106.7937" y="-6.5969" stroke="rgb(0,0,0)" transform="translate(106.7937 -6.5969),scale(0.00001 -0.00001),translate(-106.7937 6.5969),translate(106.8125 -6.592499999999999),rotate(-30),translate(-106.8125 6.592499999999999)" >kb-muslihat</text>
    <line x1="106.7946" y1="-6.5945" x2="106.7973" y2="-6.593" style="stroke:rgb(255,0,0);stroke-width:.00002" />
    <line x1="106.7946" y1="-6.5945" x2="106.79577516854478" y2="-6.593847128586235" style="stroke:rgb(0,0,0);stroke-width:.00002" />
    <line x1="106.79577516854478" y1="-6.593847128586235" x2="106.79612483145523" y2="-6.593652871413765" style="stroke:rgb(0,0,0);stroke-width:.00002" />
    <line x1="106.79612483145523" y1="-6.593652871413765" x2="106.7973" y2="-6.593" style="stroke:rgb(0,0,0);stroke-width:.00002" />
    <circle cx="106.7946" cy="-6.5945" fill="rgb(255,0,0)" r=".0001" />
    <text x="106.7946" y="-6.5945" stroke="rgb(0,0,0)" transform="translate(106.7946 -6.5945),scale(0.00001 -0.00001),translate(-106.7946 6.5945),translate(106.8125 -6.592499999999999),rotate(-30),translate(-106.8125 6.592499999999999)" >kb-gedong-sawah</text>
    <line x1="106.7973" y1="-6.593" x2="106.7984" y2="-6.5935" style="stroke:rgb(255,0,0);stroke-width:.00002" />
    <line x1="106.7973" y1="-6.593" x2="106.79785000000001" y2="-6.593249999999999" style="stroke:rgb(0,0,0);stroke-width:.00002" />
    <line x1="106.79785000000001" y1="-6.593249999999999" x2="106.79785000000001" y2="-6.593249999999999" style="stroke:rgb(0,0,0);stroke-width:.00002" />
    <line x1="106.79785000000001" y1="-6.593249999999999" x2="106.7984" y2="-6.5935" style="stroke:rgb(0,0,0);stroke-width:.00002" />
    <circle cx="106.7973" cy="-6.593" fill="rgb(255,0,0)" r=".0001" />
    <text x="106.7973" y="-6.593" stroke="rgb(0,0,0)" transform="translate(106.7973 -6.593),scale(0.00001 -0.00001),translate(-106.7973 6.593),translate(106.8125 -6.592499999999999),rotate(-30),translate(-106.8125 6.592499999999999)" >kb-polisi-militer</text>
    <line x1="106.7984" y1="-6.5935" x2="106.800814" y2="-6.592262" style="stroke:rgb(255,0,0);stroke-width:.00002" />
    <line x1="106.7984" y1="-6.5935" x2="106.79960700000001" y2="-6.592881" style="stroke:rgb(0,0,0);stroke-width:.00002" />
    <line x1="106.79960700000001" y1="-6.592881" x2="106.79960700000001" y2="-6.592881" style="stroke:rgb(0,0,0);stroke-width:.00002" />
    <line x1="106.79960700000001" y1="-6.592881" x2="106.800814" y2="-6.592262" style="stroke:rgb(0,0,0);stroke-width:.00002" />
    <circle cx="106.7984" cy="-6.5935" fill="rgb(255,0,0)" r=".0001" />
    <text x="106.7984" y="-6.5935" stroke="rgb(0,0,0)" transform="translate(106.7984 -6.5935),scale(0.00001 -0.00001),translate(-106.7984 6.5935),translate(106.8125 -6.592499999999999),rotate(-30),translate(-106.8125 6.592499999999999)" >kb-jalak-harupat</text>
    <line x1="106.800814" y1="-6.592262" x2="106.801806" y2="-6.592667" style="stroke:rgb(255,0,0);stroke-width:.00002" />
    <line x1="106.800814" y1="-6.592262" x2="106.80131" y2="-6.5924645" style="stroke:rgb(0,0,0);stroke-width:.00002" />
    <line x1="106.80131" y1="-6.5924645" x2="106.80131" y2="-6.5924645" style="stroke:rgb(0,0,0);stroke-width:.00002" />
    <line x1="106.80131" y1="-6.5924645" x2="106.801806" y2="-6.592667" style="stroke:rgb(0,0,0);stroke-width:.00002" />
    <circle cx="106.800814" cy="-6.592262" fill="rgb(255,0,0)" r=".0001" />
    <text x="106.800814" y="-6.592262" stroke="rgb(0,0,0)" transform="translate(106.800814 -6.592262),scale(0.00001 -0.00001),translate(-106.800814 6.592262),translate(106.8125 -6.592499999999999),rotate(-30),translate(-106.8125 6.592499999999999)" >kb-sempur</text>
    <line x1="106.801806" y1="-6.592667" x2="106.802112" y2="-6.591937" style="stroke:rgb(255,0,0);stroke-width:.00002" />
    <line x1="106.801806" y1="-6.592667" x2="106.80134045913964" y2="-6.5937776040133" style="stroke:rgb(0,0,0);stroke-width:.00002" />
    <line x1="106.80134045913964" y1="-6.5937776040133" x2="106.80257754086036" y2="-6.5908263959867" style="stroke:rgb(0,0,0);stroke-width:.00002" />
    <line x1="106.80257754086036" y1="-6.5908263959867" x2="106.802112" y2="-6.591937" style="stroke:rgb(0,0,0);stroke-width:.00002" />
    <circle cx="106.801806" cy="-6.592667" fill="rgb(255,0,0)" r=".0001" />
    <text x="106.801806" y="-6.592667" stroke="rgb(0,0,0)" transform="translate(106.801806 -6.592667),scale(0.00001 -0.00001),translate(-106.801806 6.592667),translate(106.8125 -6.592499999999999),rotate(-30),translate(-106.8125 6.592499999999999)" >kb-salak</text>
    <line x1="106.802112" y1="-6.591937" x2="106.802069" y2="-6.591191" style="stroke:rgb(255,0,0);stroke-width:.00002" />
    <line x1="106.802112" y1="-6.591937" x2="106.80209049999999" y2="-6.591564" style="stroke:rgb(0,0,0);stroke-width:.00002" />
    <line x1="106.80209049999999" y1="-6.591564" x2="106.80209049999999" y2="-6.591564" style="stroke:rgb(0,0,0);stroke-width:.00002" />
    <line x1="106.80209049999999" y1="-6.591564" x2="106.802069" y2="-6.591191" style="stroke:rgb(0,0,0);stroke-width:.00002" />
    <circle cx="106.802112" cy="-6.591937" fill="rgb(255,0,0)" r=".0001" />
    <text x="106.802112" y="-6.591937" stroke="rgb(0,0,0)" transform="translate(106.802112 -6.591937),scale(0.00001 -0.00001),translate(-106.802112 6.591937),translate(106.8125 -6.592499999999999),rotate(-30),translate(-106.8125 6.592499999999999)" >salak-1</text>
    <line x1="106.802069" y1="-6.591191" x2="106.801645" y2="-6.589918" style="stroke:rgb(255,0,0);stroke-width:.00002" />
    <line x1="106.802069" y1="-6.591191" x2="106.801857" y2="-6.5905545" style="stroke:rgb(0,0,0);stroke-width:.00002" />
    <line x1="106.801857" y1="-6.5905545" x2="106.801857" y2="-6.5905545" style="stroke:rgb(0,0,0);stroke-width:.00002" />
    <line x1="106.801857" y1="-6.5905545" x2="106.801645" y2="-6.589918" style="stroke:rgb(0,0,0);stroke-width:.00002" />
    <circle cx="106.802069" cy="-6.591191" fill="rgb(255,0,0)" r=".0001" />
    <text x="106.802069" y="-6.591191" stroke="rgb(0,0,0)" transform="translate(106.802069 -6.591191),scale(0.00001 -0.00001),translate(-106.802069 6.591191),translate(106.8125 -6.592499999999999),rotate(-30),translate(-106.8125 6.592499999999999)" >salak-2</text>
    <line x1="106.801645" y1="-6.589918" x2="106.8018" y2="-6.5893" style="stroke:rgb(255,0,0);stroke-width:.00002" />
    <line x1="106.801645" y1="-6.589918" x2="106.8017225" y2="-6.589608999999999" style="stroke:rgb(0,0,0);stroke-width:.00002" />
    <line x1="106.8017225" y1="-6.589608999999999" x2="106.8017225" y2="-6.589608999999999" style="stroke:rgb(0,0,0);stroke-width:.00002" />
    <line x1="106.8017225" y1="-6.589608999999999" x2="106.8018" y2="-6.5893" style="stroke:rgb(0,0,0);stroke-width:.00002" />
    <circle cx="106.801645" cy="-6.589918" fill="rgb(255,0,0)" r=".0001" />
    <text x="106.801645" y="-6.589918" stroke="rgb(0,0,0)" transform="translate(106.801645 -6.589918),scale(0.00001 -0.00001),translate(-106.801645 6.589918),translate(106.8125 -6.592499999999999),rotate(-30),translate(-106.8125 6.592499999999999)" >salak-3</text>
    <line x1="106.8018" y1="-6.5893" x2="106.8005" y2="-6.588" style="stroke:rgb(255,0,0);stroke-width:.00002" />
    <line x1="106.8018" y1="-6.5893" x2="106.80129142135624" y2="-6.588791421356237" style="stroke:rgb(0,0,0);stroke-width:.00002" />
    <line x1="106.80129142135624" y1="-6.588791421356237" x2="106.80100857864377" y2="-6.588508578643762" style="stroke:rgb(0,0,0);stroke-width:.00002" />
    <line x1="106.80100857864377" y1="-6.588508578643762" x2="106.8005" y2="-6.588" style="stroke:rgb(0,0,0);stroke-width:.00002" />
    <circle cx="106.8018" cy="-6.5893" fill="rgb(255,0,0)" r=".0001" />
    <text x="106.8018" y="-6.5893" stroke="rgb(0,0,0)" transform="translate(106.8018 -6.5893),scale(0.00001 -0.00001),translate(-106.8018 6.5893),translate(106.8125 -6.592499999999999),rotate(-30),translate(-106.8125 6.592499999999999)" >kencana-1</text>
    <line x1="106.8005" y1="-6.588" x2="106.7998" y2="-6.586" style="stroke:rgb(255,0,0);stroke-width:.00002" />
    <line x1="106.8005" y1="-6.588" x2="106.80015" y2="-6.587" style="stroke:rgb(0,0,0);stroke-width:.00002" />
    <line x1="106.80015" y1="-6.587" x2="106.80015" y2="-6.587" style="stroke:rgb(0,0,0);stroke-width:.00002" />
    <line x1="106.80015" y1="-6.587" x2="106.7998" y2="-6.586" style="stroke:rgb(0,0,0);stroke-width:.00002" />
    <circle cx="106.8005" cy="-6.588" fill="rgb(255,0,0)" r=".0001" />
    <text x="106.8005" y="-6.588" stroke="rgb(0,0,0)" transform="translate(106.8005 -6.588),scale(0.00001 -0.00001),translate(-106.8005 6.588),translate(106.8125 -6.592499999999999),rotate(-30),translate(-106.8125 6.592499999999999)" >ciremai-1</text>
    <line x1="106.7998" y1="-6.586" x2="106.8004" y2="-6.5832" style="stroke:rgb(255,0,0);stroke-width:.00002" />
    <line x1="106.7998" y1="-6.586" x2="106.8001" y2="-6.5846" style="stroke:rgb(0,0,0);stroke-width:.00002" />
    <line x1="106.8001" y1="-6.5846" x2="106.8001" y2="-6.5846" style="stroke:rgb(0,0,0);stroke-width:.00002" />
    <line x1="106.8001" y1="-6.5846" x2="106.8004" y2="-6.5832" style="stroke:rgb(0,0,0);stroke-width:.00002" />
    <circle cx="106.7998" cy="-6.586" fill="rgb(255,0,0)" r=".0001" />
    <text x="106.7998" y="-6.586" stroke="rgb(0,0,0)" transform="translate(106.7998 -6.586),scale(0.00001 -0.00001),translate(-106.7998 6.586),translate(106.8125 -6.592499999999999),rotate(-30),translate(-106.8125 6.592499999999999)" >ciremai-2</text>
    <line x1="106.8004" y1="-6.5832" x2="106.801" y2="-6.5817" style="stroke:rgb(255,0,0);stroke-width:.00002" />
    <line x1="106.8004" y1="-6.5832" x2="106.8007" y2="-6.58245" style="stroke:rgb(0,0,0);stroke-width:.00002" />
    <line x1="106.8007" y1="-6.58245" x2="106.8007" y2="-6.58245" style="stroke:rgb(0,0,0);stroke-width:.00002" />
    <line x1="106.8007" y1="-6.58245" x2="106.801" y2="-6.5817" style="stroke:rgb(0,0,0);stroke-width:.00002" />
    <circle cx="106.8004" cy="-6.5832" fill="rgb(255,0,0)" r=".0001" />
    <text x="106.8004" y="-6.5832" stroke="rgb(0,0,0)" transform="translate(106.8004 -6.5832),scale(0.00001 -0.00001),translate(-106.8004 6.5832),translate(106.8125 -6.592499999999999),rotate(-30),translate(-106.8125 6.592499999999999)" >ciremai-3</text>
    <line x1="106.801" y1="-6.5817" x2="106.8018" y2="-6.5817" style="stroke:rgb(255,0,0);stroke-width:.00002" />
    <line x1="106.801" y1="-6.5817" x2="106.8014" y2="-6.5817" style="stroke:rgb(0,0,0);stroke-width:.00002" />
    <line x1="106.8014" y1="-6.5817" x2="106.8014" y2="-6.5817" style="stroke:rgb(0,0,0);stroke-width:.00002" />
    <line x1="106.8014" y1="-6.5817" x2="106.8018" y2="-6.5817" style="stroke:rgb(0,0,0);stroke-width:.00002" />
    <circle cx="106.801" cy="-6.5817" fill="rgb(255,0,0)" r=".0001" />
    <text x="106.801" y="-6.5817" stroke="rgb(0,0,0)" transform="translate(106.801 -6.5817),scale(0.00001 -0.00001),translate(-106.801 6.5817),translate(106.8125 -6.592499999999999),rotate(-30),translate(-106.8125 6.592499999999999)" >ciremai-4</text>
    <line x1="106.8018" y1="-6.5817" x2="106.8024" y2="-6.5766" style="stroke:rgb(255,0,0);stroke-width:.00002" />
    <line x1="106.8018" y1="-6.5817" x2="106.8021" y2="-6.57915" style="stroke:rgb(0,0,0);stroke-width:.00002" />
    <line x1="106.8021" y1="-6.57915" x2="106.8021" y2="-6.57915" style="stroke:rgb(0,0,0);stroke-width:.00002" />
    <line x1="106.8021" y1="-6.57915" x2="106.8024" y2="-6.5766" style="stroke:rgb(0,0,0);stroke-width:.00002" />
    <circle cx="106.8018" cy="-6.5817" fill="rgb(255,0,0)" r=".0001" />
    <text x="106.8018" y="-6.5817" stroke="rgb(0,0,0)" transform="translate(106.8018 -6.5817),scale(0.00001 -0.00001),translate(-106.8018 6.5817),translate(106.8125 -6.592499999999999),rotate(-30),translate(-106.8125 6.592499999999999)" >ciremai-5</text>
    <line x1="106.8024" y1="-6.5766" x2="106.8045" y2="-6.5752" style="stroke:rgb(255,0,0);stroke-width:.00002" />
    <line x1="106.8024" y1="-6.5766" x2="106.80345" y2="-6.5759" style="stroke:rgb(0,0,0);stroke-width:.00002" />
    <line x1="106.80345" y1="-6.5759" x2="106.80345" y2="-6.5759" style="stroke:rgb(0,0,0);stroke-width:.00002" />
    <line x1="106.80345" y1="-6.5759" x2="106.8045" y2="-6.5752" style="stroke:rgb(0,0,0);stroke-width:.00002" />
    <circle cx="106.8024" cy="-6.5766" fill="rgb(255,0,0)" r=".0001" />
    <text x="106.8024" y="-6.5766" stroke="rgb(0,0,0)" transform="translate(106.8024 -6.5766),scale(0.00001 -0.00001),translate(-106.8024 6.5766),translate(106.8125 -6.592499999999999),rotate(-30),translate(-106.8125 6.592499999999999)" >ciremai-6</text>
    <line x1="106.8045" y1="-6.5752" x2="106.8047" y2="-6.5744" style="stroke:rgb(255,0,0);stroke-width:.00002" />
    <line x1="106.8045" y1="-6.5752" x2="106.8046" y2="-6.5748" style="stroke:rgb(0,0,0);stroke-width:.00002" />
    <line x1="106.8046" y1="-6.5748" x2="106.8046" y2="-6.5748" style="stroke:rgb(0,0,0);stroke-width:.00002" />
    <line x1="106.8046" y1="-6.5748" x2="106.8047" y2="-6.5744" style="stroke:rgb(0,0,0);stroke-width:.00002" />
    <circle cx="106.8045" cy="-6.5752" fill="rgb(255,0,0)" r=".0001" />
    <text x="106.8045" y="-6.5752" stroke="rgb(0,0,0)" transform="translate(106.8045 -6.5752),scale(0.00001 -0.00001),translate(-106.8045 6.5752),translate(106.8125 -6.592499999999999),rotate(-30),translate(-106.8125 6.592499999999999)" >ciremai-7</text>
    <line x1="106.8047" y1="-6.5744" x2="106.807" y2="-6.5728" style="stroke:rgb(255,0,0);stroke-width:.00002" />
    <line x1="106.8047" y1="-6.5744" x2="106.80584999999999" y2="-6.5736" style="stroke:rgb(0,0,0);stroke-width:.00002" />
    <line x1="106.80584999999999" y1="-6.5736" x2="106.80584999999999" y2="-6.5736" style="stroke:rgb(0,0,0);stroke-width:.00002" />
    <line x1="106.80584999999999" y1="-6.5736" x2="106.807" y2="-6.5728" style="stroke:rgb(0,0,0);stroke-width:.00002" />
    <circle cx="106.8047" cy="-6.5744" fill="rgb(255,0,0)" r=".0001" />
    <text x="106.8047" y="-6.5744" stroke="rgb(0,0,0)" transform="translate(106.8047 -6.5744),scale(0.00001 -0.00001),translate(-106.8047 6.5744),translate(106.8125 -6.592499999999999),rotate(-30),translate(-106.8125 6.592499999999999)" >ciremai-8</text>
    <line x1="106.807" y1="-6.5728" x2="106.8085" y2="-6.5701" style="stroke:rgb(255,0,0);stroke-width:.00002" />
    <line x1="106.807" y1="-6.5728" x2="106.80775" y2="-6.5714500000000005" style="stroke:rgb(0,0,0);stroke-width:.00002" />
    <line x1="106.80775" y1="-6.5714500000000005" x2="106.80775" y2="-6.5714500000000005" style="stroke:rgb(0,0,0);stroke-width:.00002" />
    <line x1="106.80775" y1="-6.5714500000000005" x2="106.8085" y2="-6.5701" style="stroke:rgb(0,0,0);stroke-width:.00002" />
    <circle cx="106.807" cy="-6.5728" fill="rgb(255,0,0)" r=".0001" />
    <text x="106.807" y="-6.5728" stroke="rgb(0,0,0)" transform="translate(106.807 -6.5728),scale(0.00001 -0.00001),translate(-106.807 6.5728),translate(106.8125 -6.592499999999999),rotate(-30),translate(-106.8125 6.592499999999999)" >ciremai-9</text>
    <line x1="106.8085" y1="-6.5701" x2="106.8075" y2="-6.5703" style="stroke:rgb(255,0,0);stroke-width:.00002" />
    <line x1="106.8085" y1="-6.5701" x2="106.80799999999999" y2="-6.5702" style="stroke:rgb(0,0,0);stroke-width:.00002" />
    <line x1="106.80799999999999" y1="-6.5702" x2="106.80799999999999" y2="-6.5702" style="stroke:rgb(0,0,0);stroke-width:.00002" />
    <line x1="106.80799999999999" y1="-6.5702" x2="106.8075" y2="-6.5703" style="stroke:rgb(0,0,0);stroke-width:.00002" />
    <circle cx="106.8085" cy="-6.5701" fill="rgb(255,0,0)" r=".0001" />
    <text x="106.8085" y="-6.5701" stroke="rgb(0,0,0)" transform="translate(106.8085 -6.5701),scale(0.00001 -0.00001),translate(-106.8085 6.5701),translate(106.8125 -6.592499999999999),rotate(-30),translate(-106.8125 6.592499999999999)" >ciremai-jambudua</text>
    <line x1="106.8075" y1="-6.5703" x2="106.8069" y2="-6.5695" style="stroke:rgb(255,0,0);stroke-width:.00002" />
    <line x1="106.8075" y1="-6.5703" x2="106.8072" y2="-6.5699" style="stroke:rgb(0,0,0);stroke-width:.00002" />
    <line x1="106.8072" y1="-6.5699" x2="106.8072" y2="-6.5699" style="stroke:rgb(0,0,0);stroke-width:.00002" />
    <line x1="106.8072" y1="-6.5699" x2="106.8069" y2="-6.5695" style="stroke:rgb(0,0,0);stroke-width:.00002" />
    <circle cx="106.8075" cy="-6.5703" fill="rgb(255,0,0)" r=".0001" />
    <text x="106.8075" y="-6.5703" stroke="rgb(0,0,0)" transform="translate(106.8075 -6.5703),scale(0.00001 -0.00001),translate(-106.8075 6.5703),translate(106.8125 -6.592499999999999),rotate(-30),translate(-106.8125 6.592499999999999)" >jambudua-1</text>
    <line x1="106.8069" y1="-6.5695" x2="106.807" y2="-6.569" style="stroke:rgb(255,0,0);stroke-width:.00002" />
    <line x1="106.8069" y1="-6.5695" x2="106.80695" y2="-6.56925" style="stroke:rgb(0,0,0);stroke-width:.00002" />
    <line x1="106.80695" y1="-6.56925" x2="106.80695" y2="-6.56925" style="stroke:rgb(0,0,0);stroke-width:.00002" />
    <line x1="106.80695" y1="-6.56925" x2="106.807" y2="-6.569" style="stroke:rgb(0,0,0);stroke-width:.00002" />
    <circle cx="106.8069" cy="-6.5695" fill="rgb(255,0,0)" r=".0001" />
    <text x="106.8069" y="-6.5695" stroke="rgb(0,0,0)" transform="translate(106.8069 -6.5695),scale(0.00001 -0.00001),translate(-106.8069 6.5695),translate(106.8125 -6.592499999999999),rotate(-30),translate(-106.8125 6.592499999999999)" >jambudua-2</text>
    <line x1="106.807" y1="-6.569" x2="106.8068" y2="-6.5685" style="stroke:rgb(255,0,0);stroke-width:.00002" />
    <line x1="106.807" y1="-6.569" x2="106.8069" y2="-6.56875" style="stroke:rgb(0,0,0);stroke-width:.00002" />
    <line x1="106.8069" y1="-6.56875" x2="106.8069" y2="-6.56875" style="stroke:rgb(0,0,0);stroke-width:.00002" />
    <line x1="106.8069" y1="-6.56875" x2="106.8068" y2="-6.5685" style="stroke:rgb(0,0,0);stroke-width:.00002" />
    <circle cx="106.807" cy="-6.569" fill="rgb(255,0,0)" r=".0001" />
    <text x="106.807" y="-6.569" stroke="rgb(0,0,0)" transform="translate(106.807 -6.569),scale(0.00001 -0.00001),translate(-106.807 6.569),translate(106.8125 -6.592499999999999),rotate(-30),translate(-106.8125 6.592499999999999)" >jambudua-3</text>
    <line x1="106.8068" y1="-6.5685" x2="106.8074" y2="-6.5684" style="stroke:rgb(255,0,0);stroke-width:.00002" />
    <line x1="106.8068" y1="-6.5685" x2="106.80709999999999" y2="-6.56845" style="stroke:rgb(0,0,0);stroke-width:.00002" />
    <line x1="106.80709999999999" y1="-6.56845" x2="106.80709999999999" y2="-6.56845" style="stroke:rgb(0,0,0);stroke-width:.00002" />
    <line x1="106.80709999999999" y1="-6.56845" x2="106.8074" y2="-6.5684" style="stroke:rgb(0,0,0);stroke-width:.00002" />
    <circle cx="106.8068" cy="-6.5685" fill="rgb(255,0,0)" r=".0001" />
    <text x="106.8068" y="-6.5685" stroke="rgb(0,0,0)" transform="translate(106.8068 -6.5685),scale(0.00001 -0.00001),translate(-106.8068 6.5685),translate(106.8125 -6.592499999999999),rotate(-30),translate(-106.8125 6.592499999999999)" >jambudua-yani</text>
    <line x1="106.8074" y1="-6.5684" x2="106.8091" y2="-6.5689" style="stroke:rgb(255,0,0);stroke-width:.00002" />
    <line x1="106.8074" y1="-6.5684" x2="106.80825" y2="-6.56865" style="stroke:rgb(0,0,0);stroke-width:.00002" />
    <line x1="106.80825" y1="-6.56865" x2="106.80825" y2="-6.56865" style="stroke:rgb(0,0,0);stroke-width:.00002" />
    <line x1="106.80825" y1="-6.56865" x2="106.8091" y2="-6.5689" style="stroke:rgb(0,0,0);stroke-width:.00002" />
    <circle cx="106.8074" cy="-6.5684" fill="rgb(255,0,0)" r=".0001" />
    <text x="106.8074" y="-6.5684" stroke="rgb(0,0,0)" transform="translate(106.8074 -6.5684),scale(0.00001 -0.00001),translate(-106.8074 6.5684),translate(106.8125 -6.592499999999999),rotate(-30),translate(-106.8125 6.592499999999999)" >yani-sungai</text>
    <line x1="106.8091" y1="-6.5689" x2="106.8152" y2="-6.5704" style="stroke:rgb(255,0,0);stroke-width:.00002" />
    <line x1="106.8091" y1="-6.5689" x2="106.81215" y2="-6.56965" style="stroke:rgb(0,0,0);stroke-width:.00002" />
    <line x1="106.81215" y1="-6.56965" x2="106.81215" y2="-6.56965" style="stroke:rgb(0,0,0);stroke-width:.00002" />
    <line x1="106.81215" y1="-6.56965" x2="106.8152" y2="-6.5704" style="stroke:rgb(0,0,0);stroke-width:.00002" />
    <circle cx="106.8091" cy="-6.5689" fill="rgb(255,0,0)" r=".0001" />
    <text x="106.8091" y="-6.5689" stroke="rgb(0,0,0)" transform="translate(106.8091 -6.5689),scale(0.00001 -0.00001),translate(-106.8091 6.5689),translate(106.8125 -6.592499999999999),rotate(-30),translate(-106.8125 6.592499999999999)" >pajajaran-jambudua</text>
  </g>
</svg>
