<svg width="1049.9999999998977" height="1849.9999999999961" xmlns="http://www.w3.org/2000/svg" xmlns:xlink="http://www.w3.org/1999/xlink" >
  <g transform="translate(524.9999999999488 924.9999999999981) rotate(30) scale(10000 -10000) translate(-106.8125 6.592499999999999)">
    <path d="M106.76 -6.5 L106.865 -6.5 L106.865 -6.685 L106.76 -6.685 Z" fill="none" stroke="black" stroke-width="0.0025" transform="translate(106.8125 -6.592499999999999) rotate(30) translate(-106.8125 6.592499999999999)" />
    <path d="M106.817992267932 -6.573353269552689 L106.81819695315835 -6.576935261013817 L106.81881193585203 -6.5791901975573195 L106.81811609866712 -6.582321464889477 L106.81061106166473 -6.581832005954539 L106.80833704991423 -6.58131518510215 L106.80782095851544 -6.58127917872549 L106.80633152746637 -6.587733379938094 L106.80718238904564 -6.58795541752153 L106.80733476097805 -6.586097711234292 L106.80729232815429 -6.593744106074809 L106.80651858080503 -6.593760269734239 L106.8069200805022 -6.586332525336385 L106.80922921123833 -6.600764592437252 L106.80727558279955 -6.603499672251532 L106.80041859114826 -6.60497863123514 L106.79613987141323 -6.607191762132578 L106.7926616445712 -6.604872944237914 L106.78946130738247 -6.595671974820293 L106.79126516711783 -6.590861682192681 L106.79621380383605 -6.58811243957144 L106.79829507006563 -6.589058469675802 L106.80062420463513 -6.587863992212247 L106.80261173566677 -6.588675433812875 L106.80130267991751 -6.591798344587347 L106.80127643654211 -6.591343052539826 L106.80081230517246 -6.589949563781426 L106.80102717431028 -6.589092859735226 L106.80015261153342 -6.58821829695837 L106.79938533263862 -6.586026071544678 L106.80001599545521 -6.583082978400552 L106.80072918681543 -6.5813 L106.80144430017015 -6.5813 L106.80202433509997 -6.576369703096634 L106.80414944937594 -6.574952960245988 L106.8043483495898 -6.574157359390528 L106.80669540083156 -6.572524628091919 L106.80773026751727 -6.570661868057634 L106.80733125319202 -6.570741670922684 L106.8064726935044 -6.569596924672544 L106.80658444789776 -6.569038152705812 L106.8062440435762 -6.568187141901946 L106.8074247941095 -6.567990350146399 L106.8092042434982 -6.568513717613669 L106.81543092551361 -6.570044868928931 Z" stroke="black" stroke-width="0.0005" fill="none" />
    <text x="106.81811609866712" y="-6.582321464889477" fill="black" text-anchor="middle" transform="translate(106.81811609866712 -6.582321464889477) scale(0.00002 -0.00002) translate(-106.81811609866712 6.582321464889477) translate(106.8125 -6.592499999999999) rotate(-30) translate(-106.8125 6.592499999999999)">23</text>
    <text x="106.80833704991423" y="-6.58131518510215" fill="black" text-anchor="middle" transform="translate(106.80833704991423 -6.58131518510215) scale(0.00002 -0.00002) translate(-106.80833704991423 6.58131518510215) translate(106.8125 -6.592499999999999) rotate(-30) translate(-106.8125 6.592499999999999)">23</text>
    <text x="106.80782095851544" y="-6.58127917872549" fill="black" text-anchor="middle" transform="translate(106.80782095851544 -6.58127917872549) scale(0.00002 -0.00002) translate(-106.80782095851544 6.58127917872549) translate(106.8125 -6.592499999999999) rotate(-30) translate(-106.8125 6.592499999999999)">23</text>
    <text x="106.80718238904564" y="-6.58795541752153" fill="black" text-anchor="middle" transform="translate(106.80718238904564 -6.58795541752153) scale(0.00002 -0.00002) translate(-106.80718238904564 6.58795541752153) translate(106.8125 -6.592499999999999) rotate(-30) translate(-106.8125 6.592499999999999)">23</text>
    <text x="106.80733476097805" y="-6.586097711234292" fill="black" text-anchor="middle" transform="translate(106.80733476097805 -6.586097711234292) scale(0.00002 -0.00002) translate(-106.80733476097805 6.586097711234292) translate(106.8125 -6.592499999999999) rotate(-30) translate(-106.8125 6.592499999999999)">23</text>
    <text x="106.80729232815429" y="-6.593744106074809" fill="black" text-anchor="middle" transform="translate(106.80729232815429 -6.593744106074809) scale(0.00002 -0.00002) translate(-106.80729232815429 6.593744106074809) translate(106.8125 -6.592499999999999) rotate(-30) translate(-106.8125 6.592499999999999)">23</text>
    <text x="106.80651858080503" y="-6.593760269734239" fill="black" text-anchor="middle" transform="translate(106.80651858080503 -6.593760269734239) scale(0.00002 -0.00002) translate(-106.80651858080503 6.593760269734239) translate(106.8125 -6.592499999999999) rotate(-30) translate(-106.8125 6.592499999999999)">23</text>
    <text x="106.8069200805022" y="-6.586332525336385" fill="black" text-anchor="middle" transform="translate(106.8069200805022 -6.586332525336385) scale(0.00002 -0.00002) translate(-106.8069200805022 6.586332525336385) translate(106.8125 -6.592499999999999) rotate(-30) translate(-106.8125 6.592499999999999)">23</text>
    <text x="106.80922921123833" y="-6.600764592437252" fill="black" text-anchor="middle" transform="translate(106.80922921123833 -6.600764592437252) scale(0.00002 -0.00002) translate(-106.80922921123833 6.600764592437252) translate(106.8125 -6.592499999999999) rotate(-30) translate(-106.8125 6.592499999999999)">23</text>
    <text x="106.80727558279955" y="-6.603499672251532" fill="black" text-anchor="middle" transform="translate(106.80727558279955 -6.603499672251532) scale(0.00002 -0.00002) translate(-106.80727558279955 6.603499672251532) translate(106.8125 -6.592499999999999) rotate(-30) translate(-106.8125 6.592499999999999)">23</text>
    <text x="106.80041859114826" y="-6.60497863123514" fill="black" text-anchor="middle" transform="translate(106.80041859114826 -6.60497863123514) scale(0.00002 -0.00002) translate(-106.80041859114826 6.60497863123514) translate(106.8125 -6.592499999999999) rotate(-30) translate(-106.8125 6.592499999999999)">23</text>
    <text x="106.79613987141323" y="-6.607191762132578" fill="black" text-anchor="middle" transform="translate(106.79613987141323 -6.607191762132578) scale(0.00002 -0.00002) translate(-106.79613987141323 6.607191762132578) translate(106.8125 -6.592499999999999) rotate(-30) translate(-106.8125 6.592499999999999)">23</text>
    <text x="106.7926616445712" y="-6.604872944237914" fill="black" text-anchor="middle" transform="translate(106.7926616445712 -6.604872944237914) scale(0.00002 -0.00002) translate(-106.7926616445712 6.604872944237914) translate(106.8125 -6.592499999999999) rotate(-30) translate(-106.8125 6.592499999999999)">23</text>
    <text x="106.78946130738247" y="-6.595671974820293" fill="black" text-anchor="middle" transform="translate(106.78946130738247 -6.595671974820293) scale(0.00002 -0.00002) translate(-106.78946130738247 6.595671974820293) translate(106.8125 -6.592499999999999) rotate(-30) translate(-106.8125 6.592499999999999)">23</text>
    <text x="106.79126516711783" y="-6.590861682192681" fill="black" text-anchor="middle" transform="translate(106.79126516711783 -6.590861682192681) scale(0.00002 -0.00002) translate(-106.79126516711783 6.590861682192681) translate(106.8125 -6.592499999999999) rotate(-30) translate(-106.8125 6.592499999999999)">23</text>
    <text x="106.79621380383605" y="-6.58811243957144" fill="black" text-anchor="middle" transform="translate(106.79621380383605 -6.58811243957144) scale(0.00002 -0.00002) translate(-106.79621380383605 6.58811243957144) translate(106.8125 -6.592499999999999) rotate(-30) translate(-106.8125 6.592499999999999)">23</text>
    <text x="106.80062420463513" y="-6.587863992212247" fill="black" text-anchor="middle" transform="translate(106.80062420463513 -6.587863992212247) scale(0.00002 -0.00002) translate(-106.80062420463513 6.587863992212247) translate(106.8125 -6.592499999999999) rotate(-30) translate(-106.8125 6.592499999999999)">23</text>
    <text x="106.80261173566677" y="-6.588675433812875" fill="black" text-anchor="middle" transform="translate(106.80261173566677 -6.588675433812875) scale(0.00002 -0.00002) translate(-106.80261173566677 6.588675433812875) translate(106.8125 -6.592499999999999) rotate(-30) translate(-106.8125 6.592499999999999)">23</text>
    <text x="106.80081230517246" y="-6.589949563781426" fill="black" text-anchor="middle" transform="translate(106.80081230517246 -6.589949563781426) scale(0.00002 -0.00002) translate(-106.80081230517246 6.589949563781426) translate(106.8125 -6.592499999999999) rotate(-30) translate(-106.8125 6.592499999999999)">23</text>
    <text x="106.80102717431028" y="-6.589092859735226" fill="black" text-anchor="middle" transform="translate(106.80102717431028 -6.589092859735226) scale(0.00002 -0.00002) translate(-106.80102717431028 6.589092859735226) translate(106.8125 -6.592499999999999) rotate(-30) translate(-106.8125 6.592499999999999)">23</text>
  </g>
</svg>
