<svg width="1450.0000000001023" height="1550.0000000000025" xmlns="http://www.w3.org/2000/svg" xmlns:xlink="http://www.w3.org/1999/xlink" >
  <g transform="translate(725.0000000000512 775.0000000000013) rotate(0) scale(10000 -10000) translate(-106.7975 6.592499999999999)">
    <path d="M106.725 -6.515 L106.87 -6.515 L106.87 -6.67 L106.725 -6.67 Z" fill="none" stroke="black" stroke-width="0.001" transform="translate(106.7975 -6.592499999999999) rotate(0) translate(-106.7975 6.592499999999999)" />
    <path d="M106.79585581275805 -6.589019314295809 L106.79585581275805 -6.589019314295809 L106.7951131865183 -6.588996677372213 L106.79501478847074 -6.589669392023996 L106.79501478847074 -6.589669392023996 L106.79481364418875 -6.591044548431743 L106.79385934977716 -6.591023906456118 L106.79385934977716 -6.591023906456118 L106.79360001786206 -6.591018296947139 L106.79362315351598 -6.590889971186772 L106.79362315351598 -6.590889971186772 L106.79367224038896 -6.590617702664584 L106.79513681895816 -6.590589573754804 L106.79513681895816 -6.590589573754804 L106.79667419749104 -6.590560046638295 L106.79625585839077 -6.590247026942267 L106.79621069348065 -6.589448302877965 L106.7961675425652 -6.58868519553494 L106.79628847528724 -6.585390849227186 L106.79627887069347 -6.5849909645540885 L106.79620027060436 -6.581718471023988 L106.79604342328014 -6.577545033463799 L106.79604342328014 -6.577545033463799 L106.79587885967756 -6.573166279006486 L106.79720125353252 -6.571274718948008 L106.79720125353252 -6.571274718948008 L106.79833440717006 -6.569653849225375 L106.79853429824216 -6.569673173841479 L106.79860863987211 -6.569280142898607 L106.79865265690864 -6.569047432674385 L106.80014295251037 -6.566997304290096 L106.80014295251037 -6.566997304290096 L106.80150646292921 -6.565121588218258 L106.8015360721985 -6.563563400421823 L106.8015360721985 -6.563563400421823 L106.80155856288991 -6.562379827786846 L106.79961877033865 -6.562779760325192 L106.79961877033865 -6.562779760325192 L106.79709038089426 -6.56330104555632 L106.79243625883133 -6.561709676612054 L106.79205282338795 -6.561595758831313 L106.78721439394936 -6.560158272669175 L106.78774324024654 -6.559041408461111 L106.78774324024654 -6.559041408461111 L106.78815135210607 -6.558179521876655 L106.78807013320584 -6.555955298259532 L106.78807013320584 -6.555955298259532 L106.78798742363347 -6.553690251777957 L106.78769884514811 -6.5512146570685 L106.78769884514811 -6.5512146570685 L106.78741473047498 -6.548777355546005 L106.78680694822286 -6.547835437079443 L106.78680694822286 -6.547835437079443 L106.78624816571168 -6.546969456600053 L106.78607075072652 -6.547005907832959 L106.78607075072652 -6.547005907832959 L106.7856018779648 -6.547102241241465 L106.78467687683808 -6.545030540055941 L106.78467687683808 -6.545030540055941 L106.78381597789748 -6.543102406884757 L106.7835826872571 -6.542527727570176 L106.7835826872571 -6.542527727570176 L106.78337447135817 -6.542014816422631 L106.78303061320337 -6.541793084211973 L106.78303061320337 -6.541793084211973 L106.78254926044241 -6.541482690492064 L106.78242445963727 -6.53964505151816 L106.78242445963727 -6.53964505151816 L106.78230496808743 -6.537885589078822 L106.78246928897464 -6.536808827985702 L106.78246928897464 -6.536808827985702 L106.7826256194946 -6.5357844261312605 L106.78252041778721 -6.53511400434152 L106.78252041778721 -6.53511400434152 L106.78237369801698 -6.534178999260257 L106.78574961096973 -6.534021985073719 L106.78614957852287 -6.534027079820013 L106.78912654600667 -6.534065000131136 L106.78948190414104 -6.533736340861885 L106.78948190414104 -6.533736340861885 L106.79007767679275 -6.533185329964955 L106.79309889192523 -6.533331970334974 L106.79309889192523 -6.533331970334974 L106.7955657925914 -6.5334517060077495 L106.79563082420236 -6.532654479108646 L106.79563082420236 -6.532654479108646 L106.79575395060164 -6.531145064286527 L106.79626170035418 -6.531085247192395 L106.79626170035418 -6.531085247192395 L106.79616103672218 -6.531097106195617 L106.7961537088016 -6.531130663962797 L106.7961537088016 -6.531130663962797 L106.79627226434758 -6.530587746041884 L106.79843027287193 -6.530473063635815 L106.79843027287193 -6.530473063635815 L106.800305 -6.530774 L106.79847272712807 -6.531271936364186 L106.79847272712807 -6.531271936364186 L106.79692373565243 -6.531354253958116 L106.79693529119842 -6.531301336037204 L106.79693529119842 -6.531301336037204 L106.79682096327781 -6.531824893804385 L106.79635529964584 -6.531879752807606 L106.79635529964584 -6.531879752807606 L106.79649804939838 -6.531862935713472 L106.79642817579764 -6.532719520891354 L106.79642817579764 -6.532719520891354 L106.79630020740859 -6.53428829399225 L106.79306010807478 -6.534131029665026 L106.79306010807478 -6.534131029665026 L106.79037432320725 -6.534000670035044 L106.79002509585897 -6.534323659138114 L106.79002509585897 -6.534323659138114 L106.78943545399333 -6.5348689998688645 L106.7859394052537 -6.534824467553134 L106.7859394052537 -6.534824467553134 L106.78307660396602 -6.534788001479487 L106.78288457787124 -6.534854413445701 L106.78294658655429 -6.53524957787126 L106.7830303805054 -6.535783573868736 L106.78286471102537 -6.536869172014297 L106.78286471102537 -6.536869172014297 L106.78270703191257 -6.537902410921138 L106.78282354036273 -6.539617948481841 L106.78282354036273 -6.539617948481841 L106.78293473955759 -6.5412553095079335 L106.78324738679665 -6.541456915788027 L106.78324738679665 -6.541456915788027 L106.78369752864182 -6.5417471835773675 L106.78395331274292 -6.542377272429823 L106.78395331274292 -6.542377272429823 L106.78418402210258 -6.5429455931153555 L106.78504212316194 -6.544867459944059 L106.78504212316194 -6.544867459944059 L106.7858361220352 -6.546645758758534 L106.7859902492735 -6.54661409216704 L106.7859902492735 -6.54661409216704 L106.78643583428833 -6.546522543399947 L106.78714305177716 -6.547618562920557 L106.78714305177716 -6.547618562920557 L106.78780126952503 -6.548638644453997 L106.78809615485189 -6.5511683429315 L106.78809615485189 -6.5511683429315 L106.7883865763665 -6.553659748221905 L106.78846986679416 -6.555940701740468 L106.78846986679416 -6.555940701740468 L106.78855464789393 -6.558262478123359 L106.78810475975347 -6.5592125915388895 L106.78810475975347 -6.5592125915388895 L106.78777560605066 -6.559907727330825 L106.79222370005905 -6.56102060566626 L106.79260713550244 -6.561134523447001 L106.79712561910573 -6.562476954443681 L106.79945722966134 -6.561996239674809 L106.79945722966134 -6.561996239674809 L106.80184288658413 -6.56150438201295 L106.80213970881414 -6.561368704395979 L106.80213970881414 -6.561368704395979 L106.802644 -6.561578 L106.80247229118586 -6.562096295604021 L106.80247229118586 -6.562096295604021 L106.80236314707248 -6.562146185442834 L106.8023359278015 -6.563578599578176 L106.8023359278015 -6.563578599578176 L106.80230153707079 -6.565388411781727 L106.80079004748963 -6.567467695709903 L106.80079004748963 -6.567467695709903 L106.79940534309135 -6.5693725673256145 L106.79935753094288 -6.569625341629958 L106.79935753094288 -6.569625341629958 L106.79927706188664 -6.570050767183088 L106.79802083097834 -6.5718476873679945 L106.79802083097834 -6.5718476873679945 L106.79689076021498 -6.5734641473290125 L106.79704271781326 -6.5775074776908005 L106.79704271781326 -6.5775074776908005 L106.79719981959707 -6.581687685983265 L106.79728338467311 -6.585166895406241 L106.79728338467311 -6.585166895406241 L106.7973770273818 -6.5890656843503095 Z" stroke="black" stroke-width="0.0002" fill="none" />
    <circle 
      cx="106.800305" cy="-12.530774000000001"
      r="15" transform="translate(106.800305 -6.530774) scale(0.00001 -0.00001) translate(-106.800305 6.530774) translate(106.7975 -6.592499999999999) rotate(0) translate(-106.7975 6.592499999999999)"
      fill="white" stroke="black" stroke-width="2"/>
    <circle 
      cx="106.802644" cy="-12.561578"
      r="15" transform="translate(106.802644 -6.561578) scale(0.00001 -0.00001) translate(-106.802644 6.561578) translate(106.7975 -6.592499999999999) rotate(0) translate(-106.7975 6.592499999999999)"
      fill="white" stroke="black" stroke-width="2"/>
    <circle 
      cx="106.800305" cy="-12.530774000000001"
      r="15" transform="translate(106.800305 -6.530774) scale(0.00001 -0.00001) translate(-106.800305 6.530774) translate(106.7975 -6.592499999999999) rotate(0) translate(-106.7975 6.592499999999999)"
      fill="white" stroke="none"/>
    <circle 
      cx="106.802644" cy="-12.561578"
      r="15" transform="translate(106.802644 -6.561578) scale(0.00001 -0.00001) translate(-106.802644 6.561578) translate(106.7975 -6.592499999999999) rotate(0) translate(-106.7975 6.592499999999999)"
      fill="white" stroke="none"/>
    <text x="106.800305" y="-6.530774" fill="black" text-anchor="middle" transform="translate(106.800305 -6.530774) scale(0.00001 -0.00001) translate(-106.800305 6.530774) translate(106.7975 -6.592499999999999) rotate(0) translate(-106.7975 6.592499999999999)">20</text>
    <text x="106.802644" y="-6.561578" fill="black" text-anchor="middle" transform="translate(106.802644 -6.561578) scale(0.00001 -0.00001) translate(-106.802644 6.561578) translate(106.7975 -6.592499999999999) rotate(0) translate(-106.7975 6.592499999999999)">20</text>
    <line x1="106.796967" y1="-6.588653" x2="106.794769" y2="-6.588586" style="stroke:rgb(255,0,0);stroke-width:.00002" />
    <line x1="106.796967" y1="-6.588653" x2="106.795868" y2="-6.5886195" style="stroke:rgb(0,0,0);stroke-width:.00002" />
    <line x1="106.795868" y1="-6.5886195" x2="106.795868" y2="-6.5886195" style="stroke:rgb(0,0,0);stroke-width:.00002" />
    <line x1="106.795868" y1="-6.5886195" x2="106.794769" y2="-6.588586" style="stroke:rgb(0,0,0);stroke-width:.00002" />
    <circle cx="106.796967" cy="-6.588653" fill="rgb(255,0,0)" r=".0001" />
    <text x="106.796967" y="-6.588653" stroke="rgb(0,0,0)" transform="translate(106.796967 -6.588653),scale(0.00001 -0.00001),translate(-106.796967 6.588653),translate(106.7975 -6.592499999999999),rotate(0),translate(-106.7975 6.592499999999999)" >sudirman-sawojajar</text>
    <line x1="106.794769" y1="-6.588586" x2="106.794469" y2="-6.590637" style="stroke:rgb(255,0,0);stroke-width:.00002" />
    <line x1="106.794769" y1="-6.588586" x2="106.79461900000001" y2="-6.5896115" style="stroke:rgb(0,0,0);stroke-width:.00002" />
    <line x1="106.79461900000001" y1="-6.5896115" x2="106.79461900000001" y2="-6.5896115" style="stroke:rgb(0,0,0);stroke-width:.00002" />
    <line x1="106.79461900000001" y1="-6.5896115" x2="106.794469" y2="-6.590637" style="stroke:rgb(0,0,0);stroke-width:.00002" />
    <circle cx="106.794769" cy="-6.588586" fill="rgb(255,0,0)" r=".0001" />
    <text x="106.794769" y="-6.588586" stroke="rgb(0,0,0)" transform="translate(106.794769 -6.588586),scale(0.00001 -0.00001),translate(-106.794769 6.588586),translate(106.7975 -6.592499999999999),rotate(0),translate(-106.7975 6.592499999999999)" >sawojajar-cibalok</text>
    <line x1="106.794469" y1="-6.590637" x2="106.793267" y2="-6.590611" style="stroke:rgb(255,0,0);stroke-width:.00002" />
    <line x1="106.794469" y1="-6.590637" x2="106.793868" y2="-6.590624" style="stroke:rgb(0,0,0);stroke-width:.00002" />
    <line x1="106.793868" y1="-6.590624" x2="106.793868" y2="-6.590624" style="stroke:rgb(0,0,0);stroke-width:.00002" />
    <line x1="106.793868" y1="-6.590624" x2="106.793267" y2="-6.590611" style="stroke:rgb(0,0,0);stroke-width:.00002" />
    <circle cx="106.794469" cy="-6.590637" fill="rgb(255,0,0)" r=".0001" />
    <text x="106.794469" y="-6.590637" stroke="rgb(0,0,0)" transform="translate(106.794469 -6.590637),scale(0.00001 -0.00001),translate(-106.794469 6.590637),translate(106.7975 -6.592499999999999),rotate(0),translate(-106.7975 6.592499999999999)" >cibalok-pabaton</text>
    <line x1="106.793267" y1="-6.590611" x2="106.793192" y2="-6.591027" style="stroke:rgb(255,0,0);stroke-width:.00002" />
    <line x1="106.793267" y1="-6.590611" x2="106.7932295" y2="-6.590819" style="stroke:rgb(0,0,0);stroke-width:.00002" />
    <line x1="106.7932295" y1="-6.590819" x2="106.7932295" y2="-6.590819" style="stroke:rgb(0,0,0);stroke-width:.00002" />
    <line x1="106.7932295" y1="-6.590819" x2="106.793192" y2="-6.591027" style="stroke:rgb(0,0,0);stroke-width:.00002" />
    <circle cx="106.793267" cy="-6.590611" fill="rgb(255,0,0)" r=".0001" />
    <text x="106.793267" y="-6.590611" stroke="rgb(0,0,0)" transform="translate(106.793267 -6.590611),scale(0.00001 -0.00001),translate(-106.793267 6.590611),translate(106.7975 -6.592499999999999),rotate(0),translate(-106.7975 6.592499999999999)" >pabaton-turnsouth</text>
    <line x1="106.793192" y1="-6.591027" x2="106.797097" y2="-6.590952" style="stroke:rgb(255,0,0);stroke-width:.00002" />
    <line x1="106.793192" y1="-6.591027" x2="106.79514449999999" y2="-6.5909895" style="stroke:rgb(0,0,0);stroke-width:.00002" />
    <line x1="106.79514449999999" y1="-6.5909895" x2="106.79514449999999" y2="-6.5909895" style="stroke:rgb(0,0,0);stroke-width:.00002" />
    <line x1="106.79514449999999" y1="-6.5909895" x2="106.797097" y2="-6.590952" style="stroke:rgb(0,0,0);stroke-width:.00002" />
    <circle cx="106.793192" cy="-6.591027" fill="rgb(255,0,0)" r=".0001" />
    <text x="106.793192" y="-6.591027" stroke="rgb(0,0,0)" transform="translate(106.793192 -6.591027),scale(0.00001 -0.00001),translate(-106.793192 6.591027),translate(106.7975 -6.592499999999999),rotate(0),translate(-106.7975 6.592499999999999)" >pabaton-ggbaru</text>
    <line x1="106.797097" y1="-6.590952" x2="106.796967" y2="-6.588653" style="stroke:rgb(255,0,0);stroke-width:.00002" />
    <line x1="106.797097" y1="-6.590952" x2="106.79705458245506" y2="-6.59020186203215" style="stroke:rgb(0,0,0);stroke-width:.00002" />
    <line x1="106.79705458245506" y1="-6.59020186203215" x2="106.79700941754494" y2="-6.589403137967849" style="stroke:rgb(0,0,0);stroke-width:.00002" />
    <line x1="106.79700941754494" y1="-6.589403137967849" x2="106.796967" y2="-6.588653" style="stroke:rgb(0,0,0);stroke-width:.00002" />
    <circle cx="106.797097" cy="-6.590952" fill="rgb(255,0,0)" r=".0001" />
    <text x="106.797097" y="-6.590952" stroke="rgb(0,0,0)" transform="translate(106.797097 -6.590952),scale(0.00001 -0.00001),translate(-106.797097 6.590952),translate(106.7975 -6.592499999999999),rotate(0),translate(-106.7975 6.592499999999999)" >ggbaru-sudirman</text>
    <line x1="106.796967" y1="-6.588653" x2="106.7968" y2="-6.5817" style="stroke:rgb(255,0,0);stroke-width:.00002" />
    <line x1="106.796967" y1="-6.588653" x2="106.79688830229689" y2="-6.585376442336548" style="stroke:rgb(0,0,0);stroke-width:.00002" />
    <line x1="106.79688830229689" y1="-6.585376442336548" x2="106.79687869770312" y2="-6.584976557663451" style="stroke:rgb(0,0,0);stroke-width:.00002" />
    <line x1="106.79687869770312" y1="-6.584976557663451" x2="106.7968" y2="-6.5817" style="stroke:rgb(0,0,0);stroke-width:.00002" />
    <circle cx="106.796967" cy="-6.588653" fill="rgb(255,0,0)" r=".0001" />
    <text x="106.796967" y="-6.588653" stroke="rgb(0,0,0)" transform="translate(106.796967 -6.588653),scale(0.00001 -0.00001),translate(-106.796967 6.588653),translate(106.7975 -6.592499999999999),rotate(0),translate(-106.7975 6.592499999999999)" >sudirman-sawojajar</text>
    <line x1="106.7968" y1="-6.5817" x2="106.796486" y2="-6.573345" style="stroke:rgb(255,0,0);stroke-width:.00002" />
    <line x1="106.7968" y1="-6.5817" x2="106.796643" y2="-6.5775225" style="stroke:rgb(0,0,0);stroke-width:.00002" />
    <line x1="106.796643" y1="-6.5775225" x2="106.796643" y2="-6.5775225" style="stroke:rgb(0,0,0);stroke-width:.00002" />
    <line x1="106.796643" y1="-6.5775225" x2="106.796486" y2="-6.573345" style="stroke:rgb(0,0,0);stroke-width:.00002" />
    <circle cx="106.7968" cy="-6.5817" fill="rgb(255,0,0)" r=".0001" />
    <text x="106.7968" y="-6.5817" stroke="rgb(0,0,0)" transform="translate(106.7968 -6.5817),scale(0.00001 -0.00001),translate(-106.7968 6.5817),translate(106.7975 -6.592499999999999),rotate(0),translate(-106.7975 6.592499999999999)" >sudirman-airmancur</text>
    <line x1="106.796486" y1="-6.573345" x2="106.7989" y2="-6.569892" style="stroke:rgb(255,0,0);stroke-width:.00002" />
    <line x1="106.796486" y1="-6.573345" x2="106.79769300000001" y2="-6.5716185" style="stroke:rgb(0,0,0);stroke-width:.00002" />
    <line x1="106.79769300000001" y1="-6.5716185" x2="106.79769300000001" y2="-6.5716185" style="stroke:rgb(0,0,0);stroke-width:.00002" />
    <line x1="106.79769300000001" y1="-6.5716185" x2="106.7989" y2="-6.569892" style="stroke:rgb(0,0,0);stroke-width:.00002" />
    <circle cx="106.796486" cy="-6.573345" fill="rgb(255,0,0)" r=".0001" />
    <text x="106.796486" y="-6.573345" stroke="rgb(0,0,0)" transform="translate(106.796486 -6.573345),scale(0.00001 -0.00001),translate(-106.796486 6.573345),translate(106.7975 -6.592499999999999),rotate(0),translate(-106.7975 6.592499999999999)" >pemuda-hewan</text>
    <line x1="106.7989" y1="-6.569892" x2="106.799029" y2="-6.56921" style="stroke:rgb(255,0,0);stroke-width:.00002" />
    <line x1="106.7989" y1="-6.569892" x2="106.79892732918503" y2="-6.569747515471437" style="stroke:rgb(0,0,0);stroke-width:.00002" />
    <line x1="106.79892732918503" y1="-6.569747515471437" x2="106.79900167081499" y2="-6.5693544845285645" style="stroke:rgb(0,0,0);stroke-width:.00002" />
    <line x1="106.79900167081499" y1="-6.5693544845285645" x2="106.799029" y2="-6.56921" style="stroke:rgb(0,0,0);stroke-width:.00002" />
    <circle cx="106.7989" cy="-6.569892" fill="rgb(255,0,0)" r=".0001" />
    <text x="106.7989" y="-6.569892" stroke="rgb(0,0,0)" transform="translate(106.7989 -6.569892),scale(0.00001 -0.00001),translate(-106.7989 6.569892),translate(106.7975 -6.592499999999999),rotate(0),translate(-106.7975 6.592499999999999)" >pemuda-pedes</text>
    <line x1="106.799029" y1="-6.56921" x2="106.801904" y2="-6.565255" style="stroke:rgb(255,0,0);stroke-width:.00002" />
    <line x1="106.799029" y1="-6.56921" x2="106.8004665" y2="-6.567232499999999" style="stroke:rgb(0,0,0);stroke-width:.00002" />
    <line x1="106.8004665" y1="-6.567232499999999" x2="106.8004665" y2="-6.567232499999999" style="stroke:rgb(0,0,0);stroke-width:.00002" />
    <line x1="106.8004665" y1="-6.567232499999999" x2="106.801904" y2="-6.565255" style="stroke:rgb(0,0,0);stroke-width:.00002" />
    <circle cx="106.799029" cy="-6.56921" fill="rgb(255,0,0)" r=".0001" />
    <text x="106.799029" y="-6.56921" stroke="rgb(0,0,0)" transform="translate(106.799029 -6.56921),scale(0.00001 -0.00001),translate(-106.799029 6.56921),translate(106.7975 -6.592499999999999),rotate(0),translate(-106.7975 6.592499999999999)" >pedes-bendrightatstart</text>
    <line x1="106.801904" y1="-6.565255" x2="106.801968" y2="-6.561887" style="stroke:rgb(255,0,0);stroke-width:.00002" />
    <line x1="106.801904" y1="-6.565255" x2="106.801936" y2="-6.563571" style="stroke:rgb(0,0,0);stroke-width:.00002" />
    <line x1="106.801936" y1="-6.563571" x2="106.801936" y2="-6.563571" style="stroke:rgb(0,0,0);stroke-width:.00002" />
    <line x1="106.801936" y1="-6.563571" x2="106.801968" y2="-6.561887" style="stroke:rgb(0,0,0);stroke-width:.00002" />
    <circle cx="106.801904" cy="-6.565255" fill="rgb(255,0,0)" r=".0001" />
    <text x="106.801904" y="-6.565255" stroke="rgb(0,0,0)" transform="translate(106.801904 -6.565255),scale(0.00001 -0.00001),translate(-106.801904 6.565255),translate(106.7975 -6.592499999999999),rotate(0),translate(-106.7975 6.592499999999999)" >pedes-sungai</text>
    <line x1="106.801968" y1="-6.561887" x2="106.797108" y2="-6.562889" style="stroke:rgb(255,0,0);stroke-width:.00002" />
    <line x1="106.801968" y1="-6.561887" x2="106.799538" y2="-6.562388" style="stroke:rgb(0,0,0);stroke-width:.00002" />
    <line x1="106.799538" y1="-6.562388" x2="106.799538" y2="-6.562388" style="stroke:rgb(0,0,0);stroke-width:.00002" />
    <line x1="106.799538" y1="-6.562388" x2="106.797108" y2="-6.562889" style="stroke:rgb(0,0,0);stroke-width:.00002" />
    <circle cx="106.801968" cy="-6.561887" fill="rgb(255,0,0)" r=".0001" />
    <text x="106.801968" y="-6.561887" stroke="rgb(0,0,0)" transform="translate(106.801968 -6.561887),scale(0.00001 -0.00001),translate(-106.801968 6.561887),translate(106.7975 -6.592499999999999),rotate(0),translate(-106.7975 6.592499999999999)" >pedes-iskandar</text>
    <line x1="106.797108" y1="-6.562889" x2="106.787495" y2="-6.560033" style="stroke:rgb(255,0,0);stroke-width:.00002" />
    <line x1="106.797108" y1="-6.562889" x2="106.7924932177217" y2="-6.56151795889037" style="stroke:rgb(0,0,0);stroke-width:.00002" />
    <line x1="106.7924932177217" y1="-6.56151795889037" x2="106.79210978227832" y2="-6.561404041109629" style="stroke:rgb(0,0,0);stroke-width:.00002" />
    <line x1="106.79210978227832" y1="-6.561404041109629" x2="106.787495" y2="-6.560033" style="stroke:rgb(0,0,0);stroke-width:.00002" />
    <circle cx="106.797108" cy="-6.562889" fill="rgb(255,0,0)" r=".0001" />
    <text x="106.797108" y="-6.562889" stroke="rgb(0,0,0)" transform="translate(106.797108 -6.562889),scale(0.00001 -0.00001),translate(-106.797108 6.562889),translate(106.7975 -6.592499999999999),rotate(0),translate(-106.7975 6.592499999999999)" >iskandar-majujaya</text>
    <line x1="106.787495" y1="-6.560033" x2="106.788353" y2="-6.558221" style="stroke:rgb(255,0,0);stroke-width:.00002" />
    <line x1="106.787495" y1="-6.560033" x2="106.787924" y2="-6.559127" style="stroke:rgb(0,0,0);stroke-width:.00002" />
    <line x1="106.787924" y1="-6.559127" x2="106.787924" y2="-6.559127" style="stroke:rgb(0,0,0);stroke-width:.00002" />
    <line x1="106.787924" y1="-6.559127" x2="106.788353" y2="-6.558221" style="stroke:rgb(0,0,0);stroke-width:.00002" />
    <circle cx="106.787495" cy="-6.560033" fill="rgb(255,0,0)" r=".0001" />
    <text x="106.787495" y="-6.560033" stroke="rgb(0,0,0)" transform="translate(106.787495 -6.560033),scale(0.00001 -0.00001),translate(-106.787495 6.560033),translate(106.7975 -6.592499999999999),rotate(0),translate(-106.7975 6.592499999999999)" >iskandar-20-rejions</text>
    <line x1="106.788353" y1="-6.558221" x2="106.788187" y2="-6.553675" style="stroke:rgb(255,0,0);stroke-width:.00002" />
    <line x1="106.788353" y1="-6.558221" x2="106.78827" y2="-6.555948" style="stroke:rgb(0,0,0);stroke-width:.00002" />
    <line x1="106.78827" y1="-6.555948" x2="106.78827" y2="-6.555948" style="stroke:rgb(0,0,0);stroke-width:.00002" />
    <line x1="106.78827" y1="-6.555948" x2="106.788187" y2="-6.553675" style="stroke:rgb(0,0,0);stroke-width:.00002" />
    <circle cx="106.788353" cy="-6.558221" fill="rgb(255,0,0)" r=".0001" />
    <text x="106.788353" y="-6.558221" stroke="rgb(0,0,0)" transform="translate(106.788353 -6.558221),scale(0.00001 -0.00001),translate(-106.788353 6.558221),translate(106.7975 -6.592499999999999),rotate(0),translate(-106.7975 6.592499999999999)" >cimanggu-wates-1</text>
    <line x1="106.788187" y1="-6.553675" x2="106.787608" y2="-6.548708" style="stroke:rgb(255,0,0);stroke-width:.00002" />
    <line x1="106.788187" y1="-6.553675" x2="106.7878975" y2="-6.5511915" style="stroke:rgb(0,0,0);stroke-width:.00002" />
    <line x1="106.7878975" y1="-6.5511915" x2="106.7878975" y2="-6.5511915" style="stroke:rgb(0,0,0);stroke-width:.00002" />
    <line x1="106.7878975" y1="-6.5511915" x2="106.787608" y2="-6.548708" style="stroke:rgb(0,0,0);stroke-width:.00002" />
    <circle cx="106.788187" cy="-6.553675" fill="rgb(255,0,0)" r=".0001" />
    <text x="106.788187" y="-6.553675" stroke="rgb(0,0,0)" transform="translate(106.788187 -6.553675),scale(0.00001 -0.00001),translate(-106.788187 6.553675),translate(106.7975 -6.592499999999999),rotate(0),translate(-106.7975 6.592499999999999)" >cimanggu-wates-setapak</text>
    <line x1="106.787608" y1="-6.548708" x2="106.786342" y2="-6.546746" style="stroke:rgb(255,0,0);stroke-width:.00002" />
    <line x1="106.787608" y1="-6.548708" x2="106.78697500000001" y2="-6.547727" style="stroke:rgb(0,0,0);stroke-width:.00002" />
    <line x1="106.78697500000001" y1="-6.547727" x2="106.78697500000001" y2="-6.547727" style="stroke:rgb(0,0,0);stroke-width:.00002" />
    <line x1="106.78697500000001" y1="-6.547727" x2="106.786342" y2="-6.546746" style="stroke:rgb(0,0,0);stroke-width:.00002" />
    <circle cx="106.787608" cy="-6.548708" fill="rgb(255,0,0)" r=".0001" />
    <text x="106.787608" y="-6.548708" stroke="rgb(0,0,0)" transform="translate(106.787608 -6.548708),scale(0.00001 -0.00001),translate(-106.787608 6.548708),translate(106.7975 -6.592499999999999),rotate(0),translate(-106.7975 6.592499999999999)" >setapak-1</text>
    <line x1="106.786342" y1="-6.546746" x2="106.785719" y2="-6.546874" style="stroke:rgb(255,0,0);stroke-width:.00002" />
    <line x1="106.786342" y1="-6.546746" x2="106.78603050000001" y2="-6.54681" style="stroke:rgb(0,0,0);stroke-width:.00002" />
    <line x1="106.78603050000001" y1="-6.54681" x2="106.78603050000001" y2="-6.54681" style="stroke:rgb(0,0,0);stroke-width:.00002" />
    <line x1="106.78603050000001" y1="-6.54681" x2="106.785719" y2="-6.546874" style="stroke:rgb(0,0,0);stroke-width:.00002" />
    <circle cx="106.786342" cy="-6.546746" fill="rgb(255,0,0)" r=".0001" />
    <text x="106.786342" y="-6.546746" stroke="rgb(0,0,0)" transform="translate(106.786342 -6.546746),scale(0.00001 -0.00001),translate(-106.786342 6.546746),translate(106.7975 -6.592499999999999),rotate(0),translate(-106.7975 6.592499999999999)" >setapak-2</text>
    <line x1="106.785719" y1="-6.546874" x2="106.784" y2="-6.543024" style="stroke:rgb(255,0,0);stroke-width:.00002" />
    <line x1="106.785719" y1="-6.546874" x2="106.78485950000001" y2="-6.544949" style="stroke:rgb(0,0,0);stroke-width:.00002" />
    <line x1="106.78485950000001" y1="-6.544949" x2="106.78485950000001" y2="-6.544949" style="stroke:rgb(0,0,0);stroke-width:.00002" />
    <line x1="106.78485950000001" y1="-6.544949" x2="106.784" y2="-6.543024" style="stroke:rgb(0,0,0);stroke-width:.00002" />
    <circle cx="106.785719" cy="-6.546874" fill="rgb(255,0,0)" r=".0001" />
    <text x="106.785719" y="-6.546874" stroke="rgb(0,0,0)" transform="translate(106.785719 -6.546874),scale(0.00001 -0.00001),translate(-106.785719 6.546874),translate(106.7975 -6.592499999999999),rotate(0),translate(-106.7975 6.592499999999999)" >setapak-3</text>
    <line x1="106.784" y1="-6.543024" x2="106.783536" y2="-6.541881" style="stroke:rgb(255,0,0);stroke-width:.00002" />
    <line x1="106.784" y1="-6.543024" x2="106.78376800000001" y2="-6.5424525" style="stroke:rgb(0,0,0);stroke-width:.00002" />
    <line x1="106.78376800000001" y1="-6.5424525" x2="106.78376800000001" y2="-6.5424525" style="stroke:rgb(0,0,0);stroke-width:.00002" />
    <line x1="106.78376800000001" y1="-6.5424525" x2="106.783536" y2="-6.541881" style="stroke:rgb(0,0,0);stroke-width:.00002" />
    <circle cx="106.784" cy="-6.543024" fill="rgb(255,0,0)" r=".0001" />
    <text x="106.784" y="-6.543024" stroke="rgb(0,0,0)" transform="translate(106.784 -6.543024),scale(0.00001 -0.00001),translate(-106.784 6.543024),translate(106.7975 -6.592499999999999),rotate(0),translate(-106.7975 6.592499999999999)" >setapak-bukitcimanggu</text>
    <line x1="106.783536" y1="-6.541881" x2="106.782742" y2="-6.541369" style="stroke:rgb(255,0,0);stroke-width:.00002" />
    <line x1="106.783536" y1="-6.541881" x2="106.783139" y2="-6.541625" style="stroke:rgb(0,0,0);stroke-width:.00002" />
    <line x1="106.783139" y1="-6.541625" x2="106.783139" y2="-6.541625" style="stroke:rgb(0,0,0);stroke-width:.00002" />
    <line x1="106.783139" y1="-6.541625" x2="106.782742" y2="-6.541369" style="stroke:rgb(0,0,0);stroke-width:.00002" />
    <circle cx="106.783536" cy="-6.541881" fill="rgb(255,0,0)" r=".0001" />
    <text x="106.783536" y="-6.541881" stroke="rgb(0,0,0)" transform="translate(106.783536 -6.541881),scale(0.00001 -0.00001),translate(-106.783536 6.541881),translate(106.7975 -6.592499999999999),rotate(0),translate(-106.7975 6.592499999999999)" >setapak-4</text>
    <line x1="106.782742" y1="-6.541369" x2="106.782506" y2="-6.537894" style="stroke:rgb(255,0,0);stroke-width:.00002" />
    <line x1="106.782742" y1="-6.541369" x2="106.782624" y2="-6.5396315000000005" style="stroke:rgb(0,0,0);stroke-width:.00002" />
    <line x1="106.782624" y1="-6.5396315000000005" x2="106.782624" y2="-6.5396315000000005" style="stroke:rgb(0,0,0);stroke-width:.00002" />
    <line x1="106.782624" y1="-6.5396315000000005" x2="106.782506" y2="-6.537894" style="stroke:rgb(0,0,0);stroke-width:.00002" />
    <circle cx="106.782742" cy="-6.541369" fill="rgb(255,0,0)" r=".0001" />
    <text x="106.782742" y="-6.541369" stroke="rgb(0,0,0)" transform="translate(106.782742 -6.541369),scale(0.00001 -0.00001),translate(-106.782742 6.541369),translate(106.7975 -6.592499999999999),rotate(0),translate(-106.7975 6.592499999999999)" >setapak-5</text>
    <line x1="106.782506" y1="-6.537894" x2="106.782828" y2="-6.535784" style="stroke:rgb(255,0,0);stroke-width:.00002" />
    <line x1="106.782506" y1="-6.537894" x2="106.782667" y2="-6.536839" style="stroke:rgb(0,0,0);stroke-width:.00002" />
    <line x1="106.782667" y1="-6.536839" x2="106.782667" y2="-6.536839" style="stroke:rgb(0,0,0);stroke-width:.00002" />
    <line x1="106.782667" y1="-6.536839" x2="106.782828" y2="-6.535784" style="stroke:rgb(0,0,0);stroke-width:.00002" />
    <circle cx="106.782506" cy="-6.537894" fill="rgb(255,0,0)" r=".0001" />
    <text x="106.782506" y="-6.537894" stroke="rgb(0,0,0)" transform="translate(106.782506 -6.537894),scale(0.00001 -0.00001),translate(-106.782506 6.537894),translate(106.7975 -6.592499999999999),rotate(0),translate(-106.7975 6.592499999999999)" >setapak-6</text>
    <line x1="106.782828" y1="-6.535784" x2="106.782608" y2="-6.534382" style="stroke:rgb(255,0,0);stroke-width:.00002" />
    <line x1="106.782828" y1="-6.535784" x2="106.78271799999999" y2="-6.535083" style="stroke:rgb(0,0,0);stroke-width:.00002" />
    <line x1="106.78271799999999" y1="-6.535083" x2="106.78271799999999" y2="-6.535083" style="stroke:rgb(0,0,0);stroke-width:.00002" />
    <line x1="106.78271799999999" y1="-6.535083" x2="106.782608" y2="-6.534382" style="stroke:rgb(0,0,0);stroke-width:.00002" />
    <circle cx="106.782828" cy="-6.535784" fill="rgb(255,0,0)" r=".0001" />
    <text x="106.782828" y="-6.535784" stroke="rgb(0,0,0)" transform="translate(106.782828 -6.535784),scale(0.00001 -0.00001),translate(-106.782828 6.535784),translate(106.7975 -6.592499999999999),rotate(0),translate(-106.7975 6.592499999999999)" >setapak-7</text>
    <line x1="106.782608" y1="-6.534382" x2="106.789281" y2="-6.534467" style="stroke:rgb(255,0,0);stroke-width:.00002" />
    <line x1="106.782608" y1="-6.534382" x2="106.78574451622343" y2="-6.534421952626853" style="stroke:rgb(0,0,0);stroke-width:.00002" />
    <line x1="106.78574451622343" y1="-6.534421952626853" x2="106.78614448377657" y2="-6.534427047373147" style="stroke:rgb(0,0,0);stroke-width:.00002" />
    <line x1="106.78614448377657" y1="-6.534427047373147" x2="106.789281" y2="-6.534467" style="stroke:rgb(0,0,0);stroke-width:.00002" />
    <circle cx="106.782608" cy="-6.534382" fill="rgb(255,0,0)" r=".0001" />
    <text x="106.782608" y="-6.534382" stroke="rgb(0,0,0)" transform="translate(106.782608 -6.534382),scale(0.00001 -0.00001),translate(-106.782608 6.534382),translate(106.7975 -6.592499999999999),rotate(0),translate(-106.7975 6.592499999999999)" >kencana-4-setapak</text>
    <line x1="106.789281" y1="-6.534467" x2="106.790226" y2="-6.533593" style="stroke:rgb(255,0,0);stroke-width:.00002" />
    <line x1="106.789281" y1="-6.534467" x2="106.7897535" y2="-6.53403" style="stroke:rgb(0,0,0);stroke-width:.00002" />
    <line x1="106.7897535" y1="-6.53403" x2="106.7897535" y2="-6.53403" style="stroke:rgb(0,0,0);stroke-width:.00002" />
    <line x1="106.7897535" y1="-6.53403" x2="106.790226" y2="-6.533593" style="stroke:rgb(0,0,0);stroke-width:.00002" />
    <circle cx="106.789281" cy="-6.534467" fill="rgb(255,0,0)" r=".0001" />
    <text x="106.789281" y="-6.534467" stroke="rgb(0,0,0)" transform="translate(106.789281 -6.534467),scale(0.00001 -0.00001),translate(-106.789281 6.534467),translate(106.7975 -6.592499999999999),rotate(0),translate(-106.7975 6.592499999999999)" >kencana-5-left</text>
    <line x1="106.790226" y1="-6.533593" x2="106.795933" y2="-6.53387" style="stroke:rgb(255,0,0);stroke-width:.00002" />
    <line x1="106.790226" y1="-6.533593" x2="106.7930795" y2="-6.5337315" style="stroke:rgb(0,0,0);stroke-width:.00002" />
    <line x1="106.7930795" y1="-6.5337315" x2="106.7930795" y2="-6.5337315" style="stroke:rgb(0,0,0);stroke-width:.00002" />
    <line x1="106.7930795" y1="-6.5337315" x2="106.795933" y2="-6.53387" style="stroke:rgb(0,0,0);stroke-width:.00002" />
    <circle cx="106.790226" cy="-6.533593" fill="rgb(255,0,0)" r=".0001" />
    <text x="106.790226" y="-6.533593" stroke="rgb(0,0,0)" transform="translate(106.790226 -6.533593),scale(0.00001 -0.00001),translate(-106.790226 6.533593),translate(106.7975 -6.592499999999999),rotate(0),translate(-106.7975 6.592499999999999)" >kencana-6-right</text>
    <line x1="106.795933" y1="-6.53387" x2="106.796126" y2="-6.531504" style="stroke:rgb(255,0,0);stroke-width:.00002" />
    <line x1="106.795933" y1="-6.53387" x2="106.7960295" y2="-6.532687" style="stroke:rgb(0,0,0);stroke-width:.00002" />
    <line x1="106.7960295" y1="-6.532687" x2="106.7960295" y2="-6.532687" style="stroke:rgb(0,0,0);stroke-width:.00002" />
    <line x1="106.7960295" y1="-6.532687" x2="106.796126" y2="-6.531504" style="stroke:rgb(0,0,0);stroke-width:.00002" />
    <circle cx="106.795933" cy="-6.53387" fill="rgb(255,0,0)" r=".0001" />
    <text x="106.795933" y="-6.53387" stroke="rgb(0,0,0)" transform="translate(106.795933 -6.53387),scale(0.00001 -0.00001),translate(-106.795933 6.53387),translate(106.7975 -6.592499999999999),rotate(0),translate(-106.7975 6.592499999999999)" >kencana-corner-kalimurni</text>
    <line x1="106.796126" y1="-6.531504" x2="106.796491" y2="-6.531461" style="stroke:rgb(255,0,0);stroke-width:.00002" />
    <line x1="106.796126" y1="-6.531504" x2="106.79630850000001" y2="-6.5314825" style="stroke:rgb(0,0,0);stroke-width:.00002" />
    <line x1="106.79630850000001" y1="-6.5314825" x2="106.79630850000001" y2="-6.5314825" style="stroke:rgb(0,0,0);stroke-width:.00002" />
    <line x1="106.79630850000001" y1="-6.5314825" x2="106.796491" y2="-6.531461" style="stroke:rgb(0,0,0);stroke-width:.00002" />
    <circle cx="106.796126" cy="-6.531504" fill="rgb(255,0,0)" r=".0001" />
    <text x="106.796126" y="-6.531504" stroke="rgb(0,0,0)" transform="translate(106.796126 -6.531504),scale(0.00001 -0.00001),translate(-106.796126 6.531504),translate(106.7975 -6.592499999999999),rotate(0),translate(-106.7975 6.592499999999999)" >kalimurni-1-right</text>
    <line x1="106.796491" y1="-6.531461" x2="106.796598" y2="-6.530971" style="stroke:rgb(255,0,0);stroke-width:.00002" />
    <line x1="106.796491" y1="-6.531461" x2="106.79654450000001" y2="-6.531216000000001" style="stroke:rgb(0,0,0);stroke-width:.00002" />
    <line x1="106.79654450000001" y1="-6.531216000000001" x2="106.79654450000001" y2="-6.531216000000001" style="stroke:rgb(0,0,0);stroke-width:.00002" />
    <line x1="106.79654450000001" y1="-6.531216000000001" x2="106.796598" y2="-6.530971" style="stroke:rgb(0,0,0);stroke-width:.00002" />
    <circle cx="106.796491" cy="-6.531461" fill="rgb(255,0,0)" r=".0001" />
    <text x="106.796491" y="-6.531461" stroke="rgb(0,0,0)" transform="translate(106.796491 -6.531461),scale(0.00001 -0.00001),translate(-106.796491 6.531461),translate(106.7975 -6.592499999999999),rotate(0),translate(-106.7975 6.592499999999999)" >kalimurni-2-left</text>
    <line x1="106.796598" y1="-6.530971" x2="106.800305" y2="-6.530774" style="stroke:rgb(255,0,0);stroke-width:.00002" />
    <line x1="106.796598" y1="-6.530971" x2="106.7984515" y2="-6.5308725" style="stroke:rgb(0,0,0);stroke-width:.00002" />
    <line x1="106.7984515" y1="-6.5308725" x2="106.7984515" y2="-6.5308725" style="stroke:rgb(0,0,0);stroke-width:.00002" />
    <line x1="106.7984515" y1="-6.5308725" x2="106.800305" y2="-6.530774" style="stroke:rgb(0,0,0);stroke-width:.00002" />
    <circle cx="106.796598" cy="-6.530971" fill="rgb(255,0,0)" r=".0001" />
    <text x="106.796598" y="-6.530971" stroke="rgb(0,0,0)" transform="translate(106.796598 -6.530971),scale(0.00001 -0.00001),translate(-106.796598 6.530971),translate(106.7975 -6.592499999999999),rotate(0),translate(-106.7975 6.592499999999999)" >kalimurni-pendidikan</text>
    <line x1="106.800305" y1="-6.530774" x2="106.796598" y2="-6.530971" style="stroke:rgb(255,0,0);stroke-width:.00002" />
    <line x1="106.800305" y1="-6.530774" x2="106.7984515" y2="-6.5308725" style="stroke:rgb(0,0,0);stroke-width:.00002" />
    <line x1="106.7984515" y1="-6.5308725" x2="106.7984515" y2="-6.5308725" style="stroke:rgb(0,0,0);stroke-width:.00002" />
    <line x1="106.7984515" y1="-6.5308725" x2="106.796598" y2="-6.530971" style="stroke:rgb(0,0,0);stroke-width:.00002" />
    <circle cx="106.800305" cy="-6.530774" fill="rgb(255,0,0)" r=".0001" />
    <text x="106.800305" y="-6.530774" stroke="rgb(0,0,0)" transform="translate(106.800305 -6.530774),scale(0.00001 -0.00001),translate(-106.800305 6.530774),translate(106.7975 -6.592499999999999),rotate(0),translate(-106.7975 6.592499999999999)" >pendidikan-cilebut</text>
    <line x1="106.796598" y1="-6.530971" x2="106.796491" y2="-6.531461" style="stroke:rgb(255,0,0);stroke-width:.00002" />
    <line x1="106.796598" y1="-6.530971" x2="106.79654450000001" y2="-6.531216000000001" style="stroke:rgb(0,0,0);stroke-width:.00002" />
    <line x1="106.79654450000001" y1="-6.531216000000001" x2="106.79654450000001" y2="-6.531216000000001" style="stroke:rgb(0,0,0);stroke-width:.00002" />
    <line x1="106.79654450000001" y1="-6.531216000000001" x2="106.796491" y2="-6.531461" style="stroke:rgb(0,0,0);stroke-width:.00002" />
    <circle cx="106.796598" cy="-6.530971" fill="rgb(255,0,0)" r=".0001" />
    <text x="106.796598" y="-6.530971" stroke="rgb(0,0,0)" transform="translate(106.796598 -6.530971),scale(0.00001 -0.00001),translate(-106.796598 6.530971),translate(106.7975 -6.592499999999999),rotate(0),translate(-106.7975 6.592499999999999)" >kalimurni-pendidikan</text>
    <line x1="106.796491" y1="-6.531461" x2="106.796126" y2="-6.531504" style="stroke:rgb(255,0,0);stroke-width:.00002" />
    <line x1="106.796491" y1="-6.531461" x2="106.79630850000001" y2="-6.5314825" style="stroke:rgb(0,0,0);stroke-width:.00002" />
    <line x1="106.79630850000001" y1="-6.5314825" x2="106.79630850000001" y2="-6.5314825" style="stroke:rgb(0,0,0);stroke-width:.00002" />
    <line x1="106.79630850000001" y1="-6.5314825" x2="106.796126" y2="-6.531504" style="stroke:rgb(0,0,0);stroke-width:.00002" />
    <circle cx="106.796491" cy="-6.531461" fill="rgb(255,0,0)" r=".0001" />
    <text x="106.796491" y="-6.531461" stroke="rgb(0,0,0)" transform="translate(106.796491 -6.531461),scale(0.00001 -0.00001),translate(-106.796491 6.531461),translate(106.7975 -6.592499999999999),rotate(0),translate(-106.7975 6.592499999999999)" >kalimurni-2-left</text>
    <line x1="106.796126" y1="-6.531504" x2="106.795933" y2="-6.53387" style="stroke:rgb(255,0,0);stroke-width:.00002" />
    <line x1="106.796126" y1="-6.531504" x2="106.7960295" y2="-6.532687" style="stroke:rgb(0,0,0);stroke-width:.00002" />
    <line x1="106.7960295" y1="-6.532687" x2="106.7960295" y2="-6.532687" style="stroke:rgb(0,0,0);stroke-width:.00002" />
    <line x1="106.7960295" y1="-6.532687" x2="106.795933" y2="-6.53387" style="stroke:rgb(0,0,0);stroke-width:.00002" />
    <circle cx="106.796126" cy="-6.531504" fill="rgb(255,0,0)" r=".0001" />
    <text x="106.796126" y="-6.531504" stroke="rgb(0,0,0)" transform="translate(106.796126 -6.531504),scale(0.00001 -0.00001),translate(-106.796126 6.531504),translate(106.7975 -6.592499999999999),rotate(0),translate(-106.7975 6.592499999999999)" >kalimurni-1-right</text>
    <line x1="106.795933" y1="-6.53387" x2="106.790226" y2="-6.533593" style="stroke:rgb(255,0,0);stroke-width:.00002" />
    <line x1="106.795933" y1="-6.53387" x2="106.7930795" y2="-6.5337315" style="stroke:rgb(0,0,0);stroke-width:.00002" />
    <line x1="106.7930795" y1="-6.5337315" x2="106.7930795" y2="-6.5337315" style="stroke:rgb(0,0,0);stroke-width:.00002" />
    <line x1="106.7930795" y1="-6.5337315" x2="106.790226" y2="-6.533593" style="stroke:rgb(0,0,0);stroke-width:.00002" />
    <circle cx="106.795933" cy="-6.53387" fill="rgb(255,0,0)" r=".0001" />
    <text x="106.795933" y="-6.53387" stroke="rgb(0,0,0)" transform="translate(106.795933 -6.53387),scale(0.00001 -0.00001),translate(-106.795933 6.53387),translate(106.7975 -6.592499999999999),rotate(0),translate(-106.7975 6.592499999999999)" >kencana-corner-kalimurni</text>
    <line x1="106.790226" y1="-6.533593" x2="106.789281" y2="-6.534467" style="stroke:rgb(255,0,0);stroke-width:.00002" />
    <line x1="106.790226" y1="-6.533593" x2="106.7897535" y2="-6.53403" style="stroke:rgb(0,0,0);stroke-width:.00002" />
    <line x1="106.7897535" y1="-6.53403" x2="106.7897535" y2="-6.53403" style="stroke:rgb(0,0,0);stroke-width:.00002" />
    <line x1="106.7897535" y1="-6.53403" x2="106.789281" y2="-6.534467" style="stroke:rgb(0,0,0);stroke-width:.00002" />
    <circle cx="106.790226" cy="-6.533593" fill="rgb(255,0,0)" r=".0001" />
    <text x="106.790226" y="-6.533593" stroke="rgb(0,0,0)" transform="translate(106.790226 -6.533593),scale(0.00001 -0.00001),translate(-106.790226 6.533593),translate(106.7975 -6.592499999999999),rotate(0),translate(-106.7975 6.592499999999999)" >kencana-6-right</text>
    <line x1="106.789281" y1="-6.534467" x2="106.782608" y2="-6.534382" style="stroke:rgb(255,0,0);stroke-width:.00002" />
    <line x1="106.789281" y1="-6.534467" x2="106.7859445" y2="-6.5344245" style="stroke:rgb(0,0,0);stroke-width:.00002" />
    <line x1="106.7859445" y1="-6.5344245" x2="106.7859445" y2="-6.5344245" style="stroke:rgb(0,0,0);stroke-width:.00002" />
    <line x1="106.7859445" y1="-6.5344245" x2="106.782608" y2="-6.534382" style="stroke:rgb(0,0,0);stroke-width:.00002" />
    <circle cx="106.789281" cy="-6.534467" fill="rgb(255,0,0)" r=".0001" />
    <text x="106.789281" y="-6.534467" stroke="rgb(0,0,0)" transform="translate(106.789281 -6.534467),scale(0.00001 -0.00001),translate(-106.789281 6.534467),translate(106.7975 -6.592499999999999),rotate(0),translate(-106.7975 6.592499999999999)" >kencana-5-left</text>
    <line x1="106.782608" y1="-6.534382" x2="106.782828" y2="-6.535784" style="stroke:rgb(255,0,0);stroke-width:.00002" />
    <line x1="106.782608" y1="-6.534382" x2="106.78268699565847" y2="-6.534885417787221" style="stroke:rgb(0,0,0);stroke-width:.00002" />
    <line x1="106.78268699565847" y1="-6.534885417787221" x2="106.78274900434151" y2="-6.5352805822127795" style="stroke:rgb(0,0,0);stroke-width:.00002" />
    <line x1="106.78274900434151" y1="-6.5352805822127795" x2="106.782828" y2="-6.535784" style="stroke:rgb(0,0,0);stroke-width:.00002" />
    <circle cx="106.782608" cy="-6.534382" fill="rgb(255,0,0)" r=".0001" />
    <text x="106.782608" y="-6.534382" stroke="rgb(0,0,0)" transform="translate(106.782608 -6.534382),scale(0.00001 -0.00001),translate(-106.782608 6.534382),translate(106.7975 -6.592499999999999),rotate(0),translate(-106.7975 6.592499999999999)" >kencana-4-setapak</text>
    <line x1="106.782828" y1="-6.535784" x2="106.782506" y2="-6.537894" style="stroke:rgb(255,0,0);stroke-width:.00002" />
    <line x1="106.782828" y1="-6.535784" x2="106.782667" y2="-6.536839" style="stroke:rgb(0,0,0);stroke-width:.00002" />
    <line x1="106.782667" y1="-6.536839" x2="106.782667" y2="-6.536839" style="stroke:rgb(0,0,0);stroke-width:.00002" />
    <line x1="106.782667" y1="-6.536839" x2="106.782506" y2="-6.537894" style="stroke:rgb(0,0,0);stroke-width:.00002" />
    <circle cx="106.782828" cy="-6.535784" fill="rgb(255,0,0)" r=".0001" />
    <text x="106.782828" y="-6.535784" stroke="rgb(0,0,0)" transform="translate(106.782828 -6.535784),scale(0.00001 -0.00001),translate(-106.782828 6.535784),translate(106.7975 -6.592499999999999),rotate(0),translate(-106.7975 6.592499999999999)" >setapak-7</text>
    <line x1="106.782506" y1="-6.537894" x2="106.782742" y2="-6.541369" style="stroke:rgb(255,0,0);stroke-width:.00002" />
    <line x1="106.782506" y1="-6.537894" x2="106.782624" y2="-6.5396315000000005" style="stroke:rgb(0,0,0);stroke-width:.00002" />
    <line x1="106.782624" y1="-6.5396315000000005" x2="106.782624" y2="-6.5396315000000005" style="stroke:rgb(0,0,0);stroke-width:.00002" />
    <line x1="106.782624" y1="-6.5396315000000005" x2="106.782742" y2="-6.541369" style="stroke:rgb(0,0,0);stroke-width:.00002" />
    <circle cx="106.782506" cy="-6.537894" fill="rgb(255,0,0)" r=".0001" />
    <text x="106.782506" y="-6.537894" stroke="rgb(0,0,0)" transform="translate(106.782506 -6.537894),scale(0.00001 -0.00001),translate(-106.782506 6.537894),translate(106.7975 -6.592499999999999),rotate(0),translate(-106.7975 6.592499999999999)" >setapak-6</text>
    <line x1="106.782742" y1="-6.541369" x2="106.783536" y2="-6.541881" style="stroke:rgb(255,0,0);stroke-width:.00002" />
    <line x1="106.782742" y1="-6.541369" x2="106.783139" y2="-6.541625" style="stroke:rgb(0,0,0);stroke-width:.00002" />
    <line x1="106.783139" y1="-6.541625" x2="106.783139" y2="-6.541625" style="stroke:rgb(0,0,0);stroke-width:.00002" />
    <line x1="106.783139" y1="-6.541625" x2="106.783536" y2="-6.541881" style="stroke:rgb(0,0,0);stroke-width:.00002" />
    <circle cx="106.782742" cy="-6.541369" fill="rgb(255,0,0)" r=".0001" />
    <text x="106.782742" y="-6.541369" stroke="rgb(0,0,0)" transform="translate(106.782742 -6.541369),scale(0.00001 -0.00001),translate(-106.782742 6.541369),translate(106.7975 -6.592499999999999),rotate(0),translate(-106.7975 6.592499999999999)" >setapak-5</text>
    <line x1="106.783536" y1="-6.541881" x2="106.784" y2="-6.543024" style="stroke:rgb(255,0,0);stroke-width:.00002" />
    <line x1="106.783536" y1="-6.541881" x2="106.78376800000001" y2="-6.5424525" style="stroke:rgb(0,0,0);stroke-width:.00002" />
    <line x1="106.78376800000001" y1="-6.5424525" x2="106.78376800000001" y2="-6.5424525" style="stroke:rgb(0,0,0);stroke-width:.00002" />
    <line x1="106.78376800000001" y1="-6.5424525" x2="106.784" y2="-6.543024" style="stroke:rgb(0,0,0);stroke-width:.00002" />
    <circle cx="106.783536" cy="-6.541881" fill="rgb(255,0,0)" r=".0001" />
    <text x="106.783536" y="-6.541881" stroke="rgb(0,0,0)" transform="translate(106.783536 -6.541881),scale(0.00001 -0.00001),translate(-106.783536 6.541881),translate(106.7975 -6.592499999999999),rotate(0),translate(-106.7975 6.592499999999999)" >setapak-4</text>
    <line x1="106.784" y1="-6.543024" x2="106.785719" y2="-6.546874" style="stroke:rgb(255,0,0);stroke-width:.00002" />
    <line x1="106.784" y1="-6.543024" x2="106.78485950000001" y2="-6.544949" style="stroke:rgb(0,0,0);stroke-width:.00002" />
    <line x1="106.78485950000001" y1="-6.544949" x2="106.78485950000001" y2="-6.544949" style="stroke:rgb(0,0,0);stroke-width:.00002" />
    <line x1="106.78485950000001" y1="-6.544949" x2="106.785719" y2="-6.546874" style="stroke:rgb(0,0,0);stroke-width:.00002" />
    <circle cx="106.784" cy="-6.543024" fill="rgb(255,0,0)" r=".0001" />
    <text x="106.784" y="-6.543024" stroke="rgb(0,0,0)" transform="translate(106.784 -6.543024),scale(0.00001 -0.00001),translate(-106.784 6.543024),translate(106.7975 -6.592499999999999),rotate(0),translate(-106.7975 6.592499999999999)" >setapak-bukitcimanggu</text>
    <line x1="106.785719" y1="-6.546874" x2="106.786342" y2="-6.546746" style="stroke:rgb(255,0,0);stroke-width:.00002" />
    <line x1="106.785719" y1="-6.546874" x2="106.78603050000001" y2="-6.54681" style="stroke:rgb(0,0,0);stroke-width:.00002" />
    <line x1="106.78603050000001" y1="-6.54681" x2="106.78603050000001" y2="-6.54681" style="stroke:rgb(0,0,0);stroke-width:.00002" />
    <line x1="106.78603050000001" y1="-6.54681" x2="106.786342" y2="-6.546746" style="stroke:rgb(0,0,0);stroke-width:.00002" />
    <circle cx="106.785719" cy="-6.546874" fill="rgb(255,0,0)" r=".0001" />
    <text x="106.785719" y="-6.546874" stroke="rgb(0,0,0)" transform="translate(106.785719 -6.546874),scale(0.00001 -0.00001),translate(-106.785719 6.546874),translate(106.7975 -6.592499999999999),rotate(0),translate(-106.7975 6.592499999999999)" >setapak-3</text>
    <line x1="106.786342" y1="-6.546746" x2="106.787608" y2="-6.548708" style="stroke:rgb(255,0,0);stroke-width:.00002" />
    <line x1="106.786342" y1="-6.546746" x2="106.78697500000001" y2="-6.547727" style="stroke:rgb(0,0,0);stroke-width:.00002" />
    <line x1="106.78697500000001" y1="-6.547727" x2="106.78697500000001" y2="-6.547727" style="stroke:rgb(0,0,0);stroke-width:.00002" />
    <line x1="106.78697500000001" y1="-6.547727" x2="106.787608" y2="-6.548708" style="stroke:rgb(0,0,0);stroke-width:.00002" />
    <circle cx="106.786342" cy="-6.546746" fill="rgb(255,0,0)" r=".0001" />
    <text x="106.786342" y="-6.546746" stroke="rgb(0,0,0)" transform="translate(106.786342 -6.546746),scale(0.00001 -0.00001),translate(-106.786342 6.546746),translate(106.7975 -6.592499999999999),rotate(0),translate(-106.7975 6.592499999999999)" >setapak-2</text>
    <line x1="106.787608" y1="-6.548708" x2="106.788187" y2="-6.553675" style="stroke:rgb(255,0,0);stroke-width:.00002" />
    <line x1="106.787608" y1="-6.548708" x2="106.7878975" y2="-6.5511915" style="stroke:rgb(0,0,0);stroke-width:.00002" />
    <line x1="106.7878975" y1="-6.5511915" x2="106.7878975" y2="-6.5511915" style="stroke:rgb(0,0,0);stroke-width:.00002" />
    <line x1="106.7878975" y1="-6.5511915" x2="106.788187" y2="-6.553675" style="stroke:rgb(0,0,0);stroke-width:.00002" />
    <circle cx="106.787608" cy="-6.548708" fill="rgb(255,0,0)" r=".0001" />
    <text x="106.787608" y="-6.548708" stroke="rgb(0,0,0)" transform="translate(106.787608 -6.548708),scale(0.00001 -0.00001),translate(-106.787608 6.548708),translate(106.7975 -6.592499999999999),rotate(0),translate(-106.7975 6.592499999999999)" >setapak-1</text>
    <line x1="106.788187" y1="-6.553675" x2="106.788353" y2="-6.558221" style="stroke:rgb(255,0,0);stroke-width:.00002" />
    <line x1="106.788187" y1="-6.553675" x2="106.78827" y2="-6.555948" style="stroke:rgb(0,0,0);stroke-width:.00002" />
    <line x1="106.78827" y1="-6.555948" x2="106.78827" y2="-6.555948" style="stroke:rgb(0,0,0);stroke-width:.00002" />
    <line x1="106.78827" y1="-6.555948" x2="106.788353" y2="-6.558221" style="stroke:rgb(0,0,0);stroke-width:.00002" />
    <circle cx="106.788187" cy="-6.553675" fill="rgb(255,0,0)" r=".0001" />
    <text x="106.788187" y="-6.553675" stroke="rgb(0,0,0)" transform="translate(106.788187 -6.553675),scale(0.00001 -0.00001),translate(-106.788187 6.553675),translate(106.7975 -6.592499999999999),rotate(0),translate(-106.7975 6.592499999999999)" >cimanggu-wates-setapak</text>
    <line x1="106.788353" y1="-6.558221" x2="106.787495" y2="-6.560033" style="stroke:rgb(255,0,0);stroke-width:.00002" />
    <line x1="106.788353" y1="-6.558221" x2="106.787924" y2="-6.559127" style="stroke:rgb(0,0,0);stroke-width:.00002" />
    <line x1="106.787924" y1="-6.559127" x2="106.787924" y2="-6.559127" style="stroke:rgb(0,0,0);stroke-width:.00002" />
    <line x1="106.787924" y1="-6.559127" x2="106.787495" y2="-6.560033" style="stroke:rgb(0,0,0);stroke-width:.00002" />
    <circle cx="106.788353" cy="-6.558221" fill="rgb(255,0,0)" r=".0001" />
    <text x="106.788353" y="-6.558221" stroke="rgb(0,0,0)" transform="translate(106.788353 -6.558221),scale(0.00001 -0.00001),translate(-106.788353 6.558221),translate(106.7975 -6.592499999999999),rotate(0),translate(-106.7975 6.592499999999999)" >cimanggu-wates-1</text>
    <line x1="106.787495" y1="-6.560033" x2="106.797108" y2="-6.562889" style="stroke:rgb(255,0,0);stroke-width:.00002" />
    <line x1="106.787495" y1="-6.560033" x2="106.79210978227832" y2="-6.561404041109629" style="stroke:rgb(0,0,0);stroke-width:.00002" />
    <line x1="106.79210978227832" y1="-6.561404041109629" x2="106.7924932177217" y2="-6.56151795889037" style="stroke:rgb(0,0,0);stroke-width:.00002" />
    <line x1="106.7924932177217" y1="-6.56151795889037" x2="106.797108" y2="-6.562889" style="stroke:rgb(0,0,0);stroke-width:.00002" />
    <circle cx="106.787495" cy="-6.560033" fill="rgb(255,0,0)" r=".0001" />
    <text x="106.787495" y="-6.560033" stroke="rgb(0,0,0)" transform="translate(106.787495 -6.560033),scale(0.00001 -0.00001),translate(-106.787495 6.560033),translate(106.7975 -6.592499999999999),rotate(0),translate(-106.7975 6.592499999999999)" >iskandar-20-rejions</text>
    <line x1="106.797108" y1="-6.562889" x2="106.801968" y2="-6.561887" style="stroke:rgb(255,0,0);stroke-width:.00002" />
    <line x1="106.797108" y1="-6.562889" x2="106.799538" y2="-6.562388" style="stroke:rgb(0,0,0);stroke-width:.00002" />
    <line x1="106.799538" y1="-6.562388" x2="106.799538" y2="-6.562388" style="stroke:rgb(0,0,0);stroke-width:.00002" />
    <line x1="106.799538" y1="-6.562388" x2="106.801968" y2="-6.561887" style="stroke:rgb(0,0,0);stroke-width:.00002" />
    <circle cx="106.797108" cy="-6.562889" fill="rgb(255,0,0)" r=".0001" />
    <text x="106.797108" y="-6.562889" stroke="rgb(0,0,0)" transform="translate(106.797108 -6.562889),scale(0.00001 -0.00001),translate(-106.797108 6.562889),translate(106.7975 -6.592499999999999),rotate(0),translate(-106.7975 6.592499999999999)" >iskandar-majujaya</text>
    <line x1="106.801968" y1="-6.561887" x2="106.802644" y2="-6.561578" style="stroke:rgb(255,0,0);stroke-width:.00002" />
    <line x1="106.801968" y1="-6.561887" x2="106.802306" y2="-6.5617325" style="stroke:rgb(0,0,0);stroke-width:.00002" />
    <line x1="106.802306" y1="-6.5617325" x2="106.802306" y2="-6.5617325" style="stroke:rgb(0,0,0);stroke-width:.00002" />
    <line x1="106.802306" y1="-6.5617325" x2="106.802644" y2="-6.561578" style="stroke:rgb(0,0,0);stroke-width:.00002" />
    <circle cx="106.801968" cy="-6.561887" fill="rgb(255,0,0)" r=".0001" />
    <text x="106.801968" y="-6.561887" stroke="rgb(0,0,0)" transform="translate(106.801968 -6.561887),scale(0.00001 -0.00001),translate(-106.801968 6.561887),translate(106.7975 -6.592499999999999),rotate(0),translate(-106.7975 6.592499999999999)" >pedes-iskandar</text>
    <line x1="106.802644" y1="-6.561578" x2="106.801968" y2="-6.561887" style="stroke:rgb(255,0,0);stroke-width:.00002" />
    <line x1="106.802644" y1="-6.561578" x2="106.802306" y2="-6.5617325" style="stroke:rgb(0,0,0);stroke-width:.00002" />
    <line x1="106.802306" y1="-6.5617325" x2="106.802306" y2="-6.5617325" style="stroke:rgb(0,0,0);stroke-width:.00002" />
    <line x1="106.802306" y1="-6.5617325" x2="106.801968" y2="-6.561887" style="stroke:rgb(0,0,0);stroke-width:.00002" />
    <circle cx="106.802644" cy="-6.561578" fill="rgb(255,0,0)" r=".0001" />
    <text x="106.802644" y="-6.561578" stroke="rgb(0,0,0)" transform="translate(106.802644 -6.561578),scale(0.00001 -0.00001),translate(-106.802644 6.561578),translate(106.7975 -6.592499999999999),rotate(0),translate(-106.7975 6.592499999999999)" >iskandar-underloop</text>
    <line x1="106.801968" y1="-6.561887" x2="106.801904" y2="-6.565255" style="stroke:rgb(255,0,0);stroke-width:.00002" />
    <line x1="106.801968" y1="-6.561887" x2="106.801936" y2="-6.563571" style="stroke:rgb(0,0,0);stroke-width:.00002" />
    <line x1="106.801936" y1="-6.563571" x2="106.801936" y2="-6.563571" style="stroke:rgb(0,0,0);stroke-width:.00002" />
    <line x1="106.801936" y1="-6.563571" x2="106.801904" y2="-6.565255" style="stroke:rgb(0,0,0);stroke-width:.00002" />
    <circle cx="106.801968" cy="-6.561887" fill="rgb(255,0,0)" r=".0001" />
    <text x="106.801968" y="-6.561887" stroke="rgb(0,0,0)" transform="translate(106.801968 -6.561887),scale(0.00001 -0.00001),translate(-106.801968 6.561887),translate(106.7975 -6.592499999999999),rotate(0),translate(-106.7975 6.592499999999999)" >pedes-iskandar</text>
    <line x1="106.801904" y1="-6.565255" x2="106.799029" y2="-6.56921" style="stroke:rgb(255,0,0);stroke-width:.00002" />
    <line x1="106.801904" y1="-6.565255" x2="106.8004665" y2="-6.567232499999999" style="stroke:rgb(0,0,0);stroke-width:.00002" />
    <line x1="106.8004665" y1="-6.567232499999999" x2="106.8004665" y2="-6.567232499999999" style="stroke:rgb(0,0,0);stroke-width:.00002" />
    <line x1="106.8004665" y1="-6.567232499999999" x2="106.799029" y2="-6.56921" style="stroke:rgb(0,0,0);stroke-width:.00002" />
    <circle cx="106.801904" cy="-6.565255" fill="rgb(255,0,0)" r=".0001" />
    <text x="106.801904" y="-6.565255" stroke="rgb(0,0,0)" transform="translate(106.801904 -6.565255),scale(0.00001 -0.00001),translate(-106.801904 6.565255),translate(106.7975 -6.592499999999999),rotate(0),translate(-106.7975 6.592499999999999)" >pedes-sungai</text>
    <line x1="106.799029" y1="-6.56921" x2="106.7989" y2="-6.569892" style="stroke:rgb(255,0,0);stroke-width:.00002" />
    <line x1="106.799029" y1="-6.56921" x2="106.79896450000001" y2="-6.569551000000001" style="stroke:rgb(0,0,0);stroke-width:.00002" />
    <line x1="106.79896450000001" y1="-6.569551000000001" x2="106.79896450000001" y2="-6.569551000000001" style="stroke:rgb(0,0,0);stroke-width:.00002" />
    <line x1="106.79896450000001" y1="-6.569551000000001" x2="106.7989" y2="-6.569892" style="stroke:rgb(0,0,0);stroke-width:.00002" />
    <circle cx="106.799029" cy="-6.56921" fill="rgb(255,0,0)" r=".0001" />
    <text x="106.799029" y="-6.56921" stroke="rgb(0,0,0)" transform="translate(106.799029 -6.56921),scale(0.00001 -0.00001),translate(-106.799029 6.56921),translate(106.7975 -6.592499999999999),rotate(0),translate(-106.7975 6.592499999999999)" >pedes-bendrightatstart</text>
    <line x1="106.7989" y1="-6.569892" x2="106.796486" y2="-6.573345" style="stroke:rgb(255,0,0);stroke-width:.00002" />
    <line x1="106.7989" y1="-6.569892" x2="106.79769300000001" y2="-6.5716185" style="stroke:rgb(0,0,0);stroke-width:.00002" />
    <line x1="106.79769300000001" y1="-6.5716185" x2="106.79769300000001" y2="-6.5716185" style="stroke:rgb(0,0,0);stroke-width:.00002" />
    <line x1="106.79769300000001" y1="-6.5716185" x2="106.796486" y2="-6.573345" style="stroke:rgb(0,0,0);stroke-width:.00002" />
    <circle cx="106.7989" cy="-6.569892" fill="rgb(255,0,0)" r=".0001" />
    <text x="106.7989" y="-6.569892" stroke="rgb(0,0,0)" transform="translate(106.7989 -6.569892),scale(0.00001 -0.00001),translate(-106.7989 6.569892),translate(106.7975 -6.592499999999999),rotate(0),translate(-106.7975 6.592499999999999)" >pemuda-pedes</text>
    <line x1="106.796486" y1="-6.573345" x2="106.7968" y2="-6.5817" style="stroke:rgb(255,0,0);stroke-width:.00002" />
    <line x1="106.796486" y1="-6.573345" x2="106.796643" y2="-6.5775225" style="stroke:rgb(0,0,0);stroke-width:.00002" />
    <line x1="106.796643" y1="-6.5775225" x2="106.796643" y2="-6.5775225" style="stroke:rgb(0,0,0);stroke-width:.00002" />
    <line x1="106.796643" y1="-6.5775225" x2="106.7968" y2="-6.5817" style="stroke:rgb(0,0,0);stroke-width:.00002" />
    <circle cx="106.796486" cy="-6.573345" fill="rgb(255,0,0)" r=".0001" />
    <text x="106.796486" y="-6.573345" stroke="rgb(0,0,0)" transform="translate(106.796486 -6.573345),scale(0.00001 -0.00001),translate(-106.796486 6.573345),translate(106.7975 -6.592499999999999),rotate(0),translate(-106.7975 6.592499999999999)" >pemuda-hewan</text>
    <line x1="106.7968" y1="-6.5817" x2="106.796967" y2="-6.588653" style="stroke:rgb(255,0,0);stroke-width:.00002" />
    <line x1="106.7968" y1="-6.5817" x2="106.7968835" y2="-6.585176499999999" style="stroke:rgb(0,0,0);stroke-width:.00002" />
    <line x1="106.7968835" y1="-6.585176499999999" x2="106.7968835" y2="-6.585176499999999" style="stroke:rgb(0,0,0);stroke-width:.00002" />
    <line x1="106.7968835" y1="-6.585176499999999" x2="106.796967" y2="-6.588653" style="stroke:rgb(0,0,0);stroke-width:.00002" />
    <circle cx="106.7968" cy="-6.5817" fill="rgb(255,0,0)" r=".0001" />
    <text x="106.7968" y="-6.5817" stroke="rgb(0,0,0)" transform="translate(106.7968 -6.5817),scale(0.00001 -0.00001),translate(-106.7968 6.5817),translate(106.7975 -6.592499999999999),rotate(0),translate(-106.7975 6.592499999999999)" >sudirman-airmancur</text>
  </g>
</svg>
