<svg width="1049.9999999998977" height="1849.9999999999961" xmlns="http://www.w3.org/2000/svg" xmlns:xlink="http://www.w3.org/1999/xlink" >
  <g transform="translate(524.9999999999488 924.9999999999981) rotate(30) scale(10000 -10000) translate(-106.8125 6.592499999999999)">
    <path d="M106.76 -6.5 L106.865 -6.5 L106.865 -6.685 L106.76 -6.685 Z" fill="none" stroke="black" stroke-width="0.001" transform="translate(106.8125 -6.592499999999999) rotate(30) translate(-106.8125 6.592499999999999)" />
    <path d="M106.7973 -6.593 L106.7984 -6.5935 L106.800814 -6.592262 L106.801806 -6.592667 L106.8029 -6.5935 L106.8044 -6.5959 L106.8052 -6.6009 L106.8047 -6.6016 L106.804329 -6.601646 L106.7999 -6.6027 L106.7996 -6.6027 L106.7988 -6.6031 L106.7997 -6.6048 L106.8025 -6.6082 L106.8045 -6.6099 L106.8065 -6.6118 L106.8103 -6.6164 L106.812 -6.6178 L106.8145 -6.6201 L106.8124 -6.6208 L106.8123 -6.6235 L106.8101 -6.6238 L106.8099 -6.6246 L106.8093 -6.625 L106.8091 -6.6248 L106.8091 -6.6251 L106.8099 -6.6254 L106.8101 -6.6259 L106.8095 -6.6258 L106.8093 -6.626 L106.8097 -6.6264 L106.8102 -6.6277 L106.8085 -6.628 L106.8084 -6.6286 L106.8077 -6.6283 L106.8073 -6.6287 L106.8032 -6.6271 L106.8014 -6.6234 L106.8005 -6.623 L106.8006 -6.622 L106.7989 -6.6214 L106.8006 -6.622 L106.8005 -6.623 L106.7992 -6.6235 L106.7986 -6.6226 L106.7979 -6.6231 L106.7968 -6.6213 L106.7965 -6.6198 L106.7971 -6.6178 L106.7992 -6.6182 L106.7998 -6.6179 L106.8014 -6.6155 L106.8034 -6.6142 L106.8021 -6.6123 L106.800971 -6.611869 L106.8 -6.6113 L106.7964 -6.6082 L106.7949 -6.6077 L106.7954 -6.606 L106.7965 -6.6046 L106.7961 -6.6038 L106.7937 -6.5969 L106.7897 -6.5959 L106.7884 -6.5955 L106.7876 -6.5956 L106.7866 -6.5932 L106.7878 -6.5931 L106.7877 -6.5903 L106.7906 -6.5906 L106.7895 -6.5958 L106.7915 -6.5963 L106.7924 -6.5928 L106.7939 -6.5927 L106.7939 -6.5932 L106.7936 -6.5938 L106.7946 -6.5945 Z" stroke="blue" stroke-width="0.0002" fill="none" />
    <path d="M106.7897 -6.5959 L106.7884 -6.5955 L106.7876 -6.5956 L106.7846 -6.5953 L106.7826 -6.5944 L106.7807 -6.5963 L106.7795 -6.5961 L106.779318 -6.596113 L106.772155 -6.587779 L106.771794 -6.585932 L106.771102 -6.584891 L106.767319 -6.580286 L106.763566 -6.580519 L106.753317 -6.576235 L106.751377 -6.573609 L106.755373 -6.571011 L106.751377 -6.573609 L106.753317 -6.576235 L106.763566 -6.580519 L106.767319 -6.580286 L106.771102 -6.584891 L106.771794 -6.585932 L106.772155 -6.587779 L106.779318 -6.596113 L106.7795 -6.5961 L106.7807 -6.5963 L106.7826 -6.5944 L106.7846 -6.5953 L106.7876 -6.5956 L106.7866 -6.5932 L106.7878 -6.5931 L106.7884 -6.5955 L106.7897 -6.5959 L106.7937 -6.5969 L106.7946 -6.5945 L106.7973 -6.593 L106.7984 -6.5935 L106.800814 -6.592262 L106.801806 -6.592667 L106.8029 -6.5935 L106.8044 -6.5959 L106.8052 -6.6009 L106.8047 -6.6016 L106.804329 -6.601646 L106.7999 -6.6027 L106.7996 -6.6027 L106.7988 -6.6031 L106.7997 -6.6048 L106.8025 -6.6082 L106.8045 -6.6099 L106.8065 -6.6118 L106.8103 -6.6164 L106.812 -6.6178 L106.8145 -6.6201 L106.8124 -6.6208 L106.8123 -6.6235 L106.8101 -6.6238 L106.8099 -6.6246 L106.8093 -6.625 L106.8091 -6.6248 L106.8089 -6.6245 L106.8086 -6.6218 L106.8079 -6.6215 L106.8069 -6.6188 L106.8045 -6.6163 L106.8034 -6.6142 L106.8021 -6.6123 L106.800971 -6.611869 L106.8 -6.6113 L106.7964 -6.6082 L106.7949 -6.6077 L106.7954 -6.606 L106.7965 -6.6046 L106.7961 -6.6038 L106.7937 -6.5969 Z" stroke="orange" stroke-width="0.0002" fill="none" />
    <path d="M106.7897 -6.5959 L106.7884 -6.5955 L106.7876 -6.5956 L106.7846 -6.5953 L106.7826 -6.5944 L106.7807 -6.5963 L106.7795 -6.5961 L106.779318 -6.596113 L106.772155 -6.587779 L106.771794 -6.585932 L106.771102 -6.584891 L106.767319 -6.580286 L106.763566 -6.580519 L106.753317 -6.576235 L106.751377 -6.573609 L106.755373 -6.571011 L106.751377 -6.573609 L106.753317 -6.576235 L106.763566 -6.580519 L106.767319 -6.580286 L106.771102 -6.584891 L106.771794 -6.585932 L106.772155 -6.587779 L106.779318 -6.596113 L106.7795 -6.5961 L106.7807 -6.5963 L106.7826 -6.5944 L106.7846 -6.5953 L106.7876 -6.5956 L106.7866 -6.5932 L106.7878 -6.5931 L106.7884 -6.5955 L106.7897 -6.5959 L106.7937 -6.5969 L106.7946 -6.5945 L106.7973 -6.593 L106.7984 -6.5935 L106.800814 -6.592262 L106.801806 -6.592667 L106.802112 -6.591937 L106.802069 -6.591191 L106.801645 -6.589918 L106.8018 -6.5893 L106.8024 -6.5888 L106.803 -6.5884 L106.8041 -6.5883 L106.8049 -6.5886 L106.8046 -6.5922 L106.8044 -6.5959 L106.8052 -6.6009 L106.805305 -6.601624 L106.8068 -6.6043 L106.8111 -6.6017 L106.8071 -6.6045 L106.8087 -6.6066 L106.8099 -6.6078 L106.8105 -6.6087 L106.8099 -6.6078 L106.8087 -6.6066 L106.808 -6.6069 L106.8074 -6.6065 L106.8067 -6.6066 L106.8058 -6.6052 L106.8051 -6.6052 L106.804329 -6.601646 L106.7999 -6.6027 L106.7996 -6.6027 L106.7988 -6.6031 L106.797256 -6.603941 L106.7967 -6.6042 L106.7961 -6.6038 L106.7937 -6.5969 Z" stroke="blue" stroke-width="0.0002" fill="none" />
    <path d="M106.802825 -6.611507 L106.803897 -6.610316 L106.801231 -6.608503 L106.801313 -6.608035 L106.800503 -6.60806 L106.798991 -6.60685 L106.797256 -6.603941 L106.7967 -6.6042 L106.7965 -6.6046 L106.7954 -6.606 L106.7949 -6.6077 L106.7964 -6.6082 L106.8 -6.6113 L106.800971 -6.611869 L106.8021 -6.6123 L106.8034 -6.6142 L106.8045 -6.6163 L106.8069 -6.6188 L106.8079 -6.6215 L106.8086 -6.6218 L106.8089 -6.6245 L106.8091 -6.6248 L106.8091 -6.6251 L106.8099 -6.6254 L106.8101 -6.6259 L106.8095 -6.6258 L106.8093 -6.626 L106.8097 -6.6264 L106.8102 -6.6277 L106.809948 -6.629086 L106.810484 -6.63015 L106.81243 -6.632298 L106.813447 -6.636592 L106.813483 -6.636619 L106.814861 -6.638457 L106.815486 -6.638824 L106.815473 -6.639826 L106.816698 -6.639889 L106.819601 -6.644787 L106.826848 -6.650617 L106.828787 -6.650769 L106.830918 -6.656712 L106.831402 -6.656991 L106.831249 -6.657828 L106.833622 -6.659982 L106.836582 -6.660312 L106.837348 -6.661604 L106.836582 -6.660312 L106.833622 -6.659982 L106.831249 -6.657828 L106.831402 -6.656991 L106.830918 -6.656712 L106.828787 -6.650769 L106.826848 -6.650617 L106.819601 -6.644787 L106.816698 -6.639889 L106.815473 -6.639826 L106.815486 -6.638824 L106.814861 -6.638457 L106.813483 -6.636619 L106.813447 -6.636592 L106.81243 -6.632298 L106.810484 -6.63015 L106.809948 -6.629086 L106.8102 -6.6277 L106.8097 -6.6264 L106.8093 -6.626 L106.8095 -6.6258 L106.8101 -6.6259 L106.8099 -6.6254 L106.8091 -6.6251 L106.8091 -6.6248 L106.8089 -6.6245 L106.8086 -6.6218 L106.8079 -6.6215 L106.8069 -6.6188 L106.8045 -6.6163 L106.8034 -6.6142 L106.8021 -6.6123 L106.802443 -6.611545 Z" stroke="blue" stroke-width="0.0002" fill="none" />
    <path d="M106.853956 -6.590138 L106.852374 -6.587577 L106.853089 -6.586791 L106.848445 -6.585347 L106.843622 -6.586867 L106.841274 -6.588769 L106.836451 -6.588997 L106.835584 -6.58996 L106.82072 -6.588988 L106.818504 -6.58934 L106.818536 -6.590262 L106.816731 -6.590755 L106.817139 -6.593217 L106.816731 -6.590755 L106.815571 -6.591487 L106.814436 -6.591868 L106.808631 -6.591665 L106.808235 -6.591259 L106.805734 -6.591272 L106.805706 -6.591276 L106.805701 -6.592177 L106.8046 -6.5922 L106.8044 -6.5959 L106.8052 -6.6009 L106.8047 -6.6016 L106.804329 -6.601646 L106.7999 -6.6027 L106.7996 -6.6027 L106.7988 -6.6031 L106.797256 -6.603941 L106.7967 -6.6042 L106.7961 -6.6038 L106.7937 -6.5969 L106.7946 -6.5945 L106.7973 -6.593 L106.7984 -6.5935 L106.800814 -6.592262 L106.801806 -6.592667 L106.8029 -6.5935 L106.8046 -6.5922 L106.8057 -6.5921 L106.805734 -6.591272 L106.805734 -6.591272 L106.808235 -6.591259 L106.808631 -6.591665 L106.814436 -6.591868 L106.815571 -6.591487 L106.816731 -6.590755 L106.81627 -6.587249 L106.816731 -6.590755 L106.818536 -6.590262 L106.818504 -6.58934 L106.82072 -6.588988 L106.835584 -6.58996 L106.836451 -6.588997 L106.841274 -6.588769 L106.843622 -6.586867 L106.848445 -6.585347 L106.853089 -6.586791 L106.852374 -6.587577 L106.853956 -6.590138 L106.859979 -6.591304 L106.865159 -6.589352 L106.859979 -6.591304 Z" stroke="pink" stroke-width="0.0002" fill="none" />
    <path d="M106.8137 -6.6007 L106.8172 -6.5982 L106.8137 -6.6007 L106.813 -6.6054 L106.8099 -6.6078 L106.8105 -6.6087 L106.8099 -6.6078 L106.8087 -6.6066 L106.8071 -6.6045 L106.8068 -6.6043 L106.805305 -6.601624 L106.8047 -6.6016 L106.804329 -6.601646 L106.7999 -6.6027 L106.7996 -6.6027 L106.7988 -6.6031 L106.797256 -6.603941 L106.7967 -6.6042 L106.7961 -6.6038 L106.7937 -6.5969 L106.7946 -6.5945 L106.7973 -6.593 L106.7984 -6.5935 L106.800814 -6.592262 L106.801806 -6.592667 L106.8029 -6.5935 L106.8044 -6.5959 L106.8052 -6.6009 L106.805305 -6.601624 L106.8068 -6.6043 L106.8111 -6.6017 L106.8071 -6.6045 L106.8087 -6.6066 L106.8099 -6.6078 L106.813 -6.6054 L106.8137 -6.6007 L106.8126 -6.599 L106.8126 -6.599 Z" stroke="yellow" stroke-width="0.0002" fill="none" />
    <path d="M106.7973 -6.593 L106.796486 -6.573345 L106.7989 -6.569892 L106.8002 -6.5689 L106.8012 -6.5676 L106.8019 -6.5663 L106.8056 -6.5689 L106.8068 -6.5685 L106.8074 -6.5684 L106.8091 -6.5689 L106.8074 -6.5684 L106.8068 -6.5685 L106.8056 -6.5689 L106.8054 -6.5692 L106.8044 -6.5705 L106.7981 -6.5788 L106.7968 -6.5817 L106.7971 -6.5919 L106.7938 -6.5912 L106.7939 -6.5927 L106.7939 -6.5932 L106.7936 -6.5938 L106.7934 -6.594 L106.793 -6.5943 L106.7927 -6.5943 L106.792 -6.5941 L106.7915 -6.5963 L106.7937 -6.5969 L106.7946 -6.5945 Z" stroke="lightgrey" stroke-width="0.0002" fill="none" />
    <path d="M106.8049 -6.5886 L106.805904 -6.588862 L106.805706 -6.591276 L106.805701 -6.592177 L106.8046 -6.5922 L106.8044 -6.5959 L106.8052 -6.6009 L106.8047 -6.6016 L106.804329 -6.601646 L106.7999 -6.6027 L106.7996 -6.6027 L106.7988 -6.6031 L106.797256 -6.603941 L106.7967 -6.6042 L106.7961 -6.6038 L106.7937 -6.5969 L106.7946 -6.5945 L106.7973 -6.593 L106.7984 -6.5935 L106.800814 -6.592262 L106.801806 -6.592667 L106.8029 -6.5935 L106.8046 -6.5922 L106.8049 -6.5886 L106.8067 -6.5808 L106.811 -6.5811 L106.8132 -6.5816 L106.811 -6.5811 L106.8112 -6.5784 L106.8109 -6.577 L106.8125 -6.5699 L106.8091 -6.5689 L106.8067 -6.5808 Z" stroke="red" stroke-width="0.0002" fill="none" />
    <path d="M106.8049 -6.5886 L106.805904 -6.588862 L106.805706 -6.591276 L106.805701 -6.592177 L106.8046 -6.5922 L106.8044 -6.5959 L106.8052 -6.6009 L106.805305 -6.601624 L106.8068 -6.6043 L106.8111 -6.6017 L106.8071 -6.6045 L106.8087 -6.6066 L106.8099 -6.6078 L106.8105 -6.6087 L106.813 -6.6125 L106.8145 -6.6161 L106.815 -6.6175 L106.8163 -6.621 L106.8164 -6.6212 L106.8162 -6.6214 L106.8159 -6.6211 L106.8163 -6.621 L106.815 -6.6175 L106.8145 -6.6161 L106.813 -6.6125 L106.8105 -6.6087 L106.8099 -6.6078 L106.8087 -6.6066 L106.808 -6.6069 L106.8074 -6.6065 L106.8067 -6.6066 L106.8058 -6.6052 L106.8051 -6.6052 L106.804329 -6.601646 L106.7999 -6.6027 L106.7996 -6.6027 L106.7988 -6.6031 L106.797256 -6.603941 L106.7967 -6.6042 L106.7961 -6.6038 L106.7937 -6.5969 L106.7946 -6.5945 L106.7973 -6.593 L106.7984 -6.5935 L106.800814 -6.592262 L106.801806 -6.592667 L106.8029 -6.5935 L106.8046 -6.5922 L106.8049 -6.5886 L106.8067 -6.5808 L106.8091 -6.5689 L106.8067 -6.5808 Z" stroke="purple" stroke-width="0.0002" fill="none" />
    <path d="M106.7897 -6.5959 L106.7937 -6.5969 L106.7946 -6.5945 L106.7973 -6.593 L106.7984 -6.5935 L106.800814 -6.592262 L106.801806 -6.592667 L106.8029 -6.5935 L106.8044 -6.5959 L106.8052 -6.6009 L106.8047 -6.6016 L106.804329 -6.601646 L106.7999 -6.6027 L106.7996 -6.6027 L106.7988 -6.6031 L106.7997 -6.6048 L106.8025 -6.6082 L106.8045 -6.6099 L106.8065 -6.6118 L106.8103 -6.6164 L106.812 -6.6178 L106.8145 -6.6201 L106.8159 -6.6211 L106.8163 -6.621 L106.815 -6.6175 L106.8145 -6.6161 L106.8177 -6.6165 L106.8186 -6.6172 L106.8195 -6.6184 L106.8186 -6.6172 L106.8177 -6.6165 L106.8145 -6.6161 L106.815 -6.6175 L106.8163 -6.621 L106.8164 -6.6212 L106.8162 -6.6214 L106.8159 -6.6211 L106.8145 -6.6201 L106.8124 -6.6208 L106.8123 -6.6235 L106.8101 -6.6238 L106.8099 -6.6246 L106.8093 -6.625 L106.8091 -6.6248 L106.8089 -6.6245 L106.8086 -6.6218 L106.8079 -6.6215 L106.8069 -6.6188 L106.8045 -6.6163 L106.8034 -6.6142 L106.8021 -6.6123 L106.800971 -6.611869 L106.8 -6.6113 L106.7964 -6.6082 L106.7949 -6.6077 L106.7954 -6.606 L106.7965 -6.6046 L106.7961 -6.6038 L106.7937 -6.5969 Z" stroke="silver" stroke-width="0.0002" fill="none" />
    <path d="M106.8145 -6.6161 L106.815 -6.6175 L106.8145 -6.6161 L106.813 -6.6125 L106.8105 -6.6087 L106.8099 -6.6078 L106.8087 -6.6066 L106.808 -6.6069 L106.8074 -6.6065 L106.8067 -6.6066 L106.8058 -6.6052 L106.8051 -6.6052 L106.804329 -6.601646 L106.7999 -6.6027 L106.8002 -6.6044 L106.8018 -6.6056 L106.8035 -6.6077 L106.8048 -6.6096 L106.8045 -6.6099 L106.8065 -6.6118 L106.8103 -6.6164 L106.812 -6.6178 L106.8123 -6.6177 L106.8133 -6.6176 L106.8153 -6.6185 L106.815 -6.6175 L106.8145 -6.6161 L106.813 -6.6125 L106.8105 -6.6087 L106.813 -6.6125 L106.8149 -6.6116 L106.8169 -6.6139 L106.8173 -6.6134 L106.8179 -6.6133 L106.8182 -6.6136 L106.8187 -6.6135 L106.8188 -6.6138 L106.8193 -6.6137 L106.8188 -6.6119 L106.8198 -6.6115 L106.8194 -6.6084 L106.8198 -6.6115 L106.8204 -6.6113 L106.8211 -6.6112 L106.8204 -6.6113 L106.8198 -6.6115 L106.8201 -6.613 L106.8207 -6.6135 L106.8201 -6.613 L106.8198 -6.6115 L106.8188 -6.6119 L106.8193 -6.6137 L106.8188 -6.6138 L106.8187 -6.6135 L106.8182 -6.6136 L106.8179 -6.6133 L106.8173 -6.6134 L106.8169 -6.6139 L106.8149 -6.6116 L106.813 -6.6125 Z" stroke="brown" stroke-width="0.0002" fill="none" />
    <path d="M106.7925 -6.592 L106.7971 -6.5919 L106.7968 -6.5817 L106.7965 -6.5813 L106.793232 -6.582045 L106.7931 -6.5827 L106.7915 -6.5832 L106.7877 -6.5829 L106.788 -6.5729 L106.7877 -6.5702 L106.788 -6.5729 L106.7877 -6.5829 L106.7877 -6.5903 L106.7906 -6.5906 L106.7895 -6.5958 L106.7915 -6.5963 L106.7924 -6.5928 Z" stroke="yellow" stroke-width="0.0002" fill="none" />
    <path d="M106.8177 -6.6165 L106.8186 -6.6172 L106.8195 -6.6184 L106.820295 -6.618061 L106.827982 -6.624926 L106.82901 -6.627059 L106.827982 -6.624926 L106.829696 -6.622076 L106.83381 -6.618545 L106.837166 -6.613043 L106.838754 -6.605049 L106.837166 -6.613043 L106.83381 -6.618545 L106.829696 -6.622076 L106.827982 -6.624926 L106.820295 -6.618061 L106.8195 -6.6184 L106.8186 -6.6172 L106.8177 -6.6165 L106.8145 -6.6161 L106.815 -6.6175 L106.8145 -6.6161 L106.813 -6.6125 L106.8105 -6.6087 L106.8099 -6.6078 L106.8087 -6.6066 L106.808 -6.6069 L106.8074 -6.6065 L106.8067 -6.6066 L106.8058 -6.6052 L106.8051 -6.6052 L106.804329 -6.601646 L106.7999 -6.6027 L106.7996 -6.6027 L106.7988 -6.6031 L106.797256 -6.603941 L106.7967 -6.6042 L106.7961 -6.6038 L106.7937 -6.5969 L106.7946 -6.5945 L106.7973 -6.593 L106.7984 -6.5935 L106.800814 -6.592262 L106.801806 -6.592667 L106.8029 -6.5935 L106.8044 -6.5959 L106.8052 -6.6009 L106.805305 -6.601624 L106.8068 -6.6043 L106.8111 -6.6017 L106.8071 -6.6045 L106.8087 -6.6066 L106.8099 -6.6078 L106.8105 -6.6087 L106.813 -6.6125 L106.8145 -6.6161 Z" stroke="orange" stroke-width="0.0002" fill="none" />
    <path d="M106.8123 -6.6235 L106.8101 -6.6238 L106.8099 -6.6246 L106.8093 -6.625 L106.8089 -6.6245 L106.8086 -6.6218 L106.8079 -6.6215 L106.8069 -6.6188 L106.8045 -6.6163 L106.8034 -6.6142 L106.8021 -6.6123 L106.800971 -6.611869 L106.795612 -6.613876 L106.793464 -6.607388 L106.792833 -6.605165 L106.792003 -6.605183 L106.792093 -6.606617 L106.791768 -6.607155 L106.787853 -6.606707 L106.787672 -6.606258 L106.78659 -6.603839 L106.782981 -6.600971 L106.782981 -6.600971 L106.779535 -6.601114 L106.779318 -6.596113 L106.772155 -6.587779 L106.771794 -6.585932 L106.771102 -6.584891 L106.767319 -6.580286 L106.763566 -6.580519 L106.753317 -6.576235 L106.751377 -6.573609 L106.755373 -6.571011 L106.751377 -6.573609 L106.753317 -6.576235 L106.763566 -6.580519 L106.767319 -6.580286 L106.771102 -6.584891 L106.771794 -6.585932 L106.772155 -6.587779 L106.779318 -6.596113 L106.779535 -6.601114 L106.782981 -6.600971 L106.782981 -6.600971 L106.78659 -6.603839 L106.787672 -6.606258 L106.787853 -6.606707 L106.791768 -6.607155 L106.792093 -6.606617 L106.792003 -6.605183 L106.792833 -6.605165 L106.793464 -6.607388 L106.7949 -6.6077 L106.7964 -6.6082 L106.8 -6.6113 L106.800971 -6.611869 L106.8021 -6.6123 L106.8034 -6.6142 L106.8045 -6.6163 L106.8069 -6.6188 L106.809262 -6.618527 L106.8103 -6.6164 L106.812 -6.6178 L106.8145 -6.6201 L106.8124 -6.6208 Z" stroke="pink" stroke-width="0.0002" fill="none" />
    <path d="M106.754987 -6.56906 L106.751821 -6.565829 L106.749525 -6.561011 L106.749246 -6.559668 L106.750491 -6.556833 L106.750298 -6.556172 L106.748259 -6.555981 L106.748195 -6.555512 L106.745191 -6.555256 L106.745126 -6.552783 L106.745427 -6.552101 L106.745877 -6.550566 L106.746328 -6.550246 L106.746693 -6.549052 L106.74665 -6.548136 L106.734634 -6.54383 L106.728604 -6.543531 L106.728583 -6.545194 L106.730879 -6.5453 L106.732515 -6.547608 L106.731774 -6.55104 L106.745427 -6.552101 L106.745126 -6.552783 L106.745191 -6.555256 L106.748195 -6.555512 L106.748259 -6.555981 L106.750298 -6.556172 L106.750491 -6.556833 L106.749246 -6.559668 L106.749525 -6.561011 L106.751821 -6.565829 L106.754987 -6.56906 L106.756194 -6.570302 L106.755373 -6.571011 L106.751377 -6.573609 L106.753317 -6.576235 L106.763566 -6.580519 L106.767319 -6.580286 L106.771102 -6.584891 L106.774363 -6.583782 L106.77711 -6.583931 L106.778118 -6.582887 L106.777153 -6.581821 L106.777367 -6.581309 L106.78477 -6.587896 L106.78602 -6.590204 L106.786122 -6.590305 L106.787731 -6.589474 L106.787774 -6.592841 L106.787608 -6.592495 L106.786514 -6.593028 L106.786009 -6.591259 L106.785194 -6.590971 L106.785462 -6.590449 L106.78602 -6.590204 L106.78477 -6.587896 L106.777367 -6.581309 L106.777153 -6.581821 L106.778118 -6.582887 L106.77711 -6.583931 L106.774363 -6.583782 L106.771102 -6.584891 L106.767319 -6.580286 L106.763566 -6.580519 L106.753317 -6.576235 L106.751377 -6.573609 L106.755373 -6.571011 L106.756194 -6.570302 Z" stroke="brown" stroke-width="0.0002" fill="none" />
    <path d="M106.794769 -6.588586 L106.794469 -6.590637 L106.793267 -6.590611 L106.793192 -6.591027 L106.797097 -6.590952 L106.7968 -6.5817 L106.796486 -6.573345 L106.7989 -6.569892 L106.799029 -6.56921 L106.801904 -6.565255 L106.801968 -6.561887 L106.797108 -6.562889 L106.787495 -6.560033 L106.778477 -6.556041 L106.776396 -6.55408 L106.769948 -6.537281 L106.767781 -6.53387 L106.75945 -6.520573 L106.767781 -6.53387 L106.769948 -6.537281 L106.776396 -6.55408 L106.778477 -6.556041 L106.787495 -6.560033 L106.797108 -6.562889 L106.801968 -6.561887 L106.802644 -6.561578 L106.801968 -6.561887 L106.801904 -6.565255 L106.799029 -6.56921 L106.7989 -6.569892 L106.796486 -6.573345 L106.7968 -6.5817 L106.796967 -6.588653 Z" stroke="lightgrey" stroke-width="0.0002" fill="none" />
    <path d="M106.8137 -6.6007 L106.8172 -6.5982 L106.817587 -6.597952 L106.817968 -6.599689 L106.818037 -6.599529 L106.817533 -6.594696 L106.817139 -6.593217 L106.816731 -6.590755 L106.81627 -6.587249 L106.816731 -6.590755 L106.818536 -6.590262 L106.818504 -6.58934 L106.82072 -6.588988 L106.820998 -6.588642 L106.822994 -6.582969 L106.821951 -6.582757 L106.823024 -6.574123 L106.822315 -6.57359 L106.821972 -6.569689 L106.823099 -6.556675 L106.824933 -6.552337 L106.824654 -6.550355 L106.824054 -6.54948 L106.823281 -6.549161 L106.823131 -6.548052 L106.823281 -6.549161 L106.824054 -6.54948 L106.824654 -6.550355 L106.824933 -6.552337 L106.823099 -6.556675 L106.821972 -6.569689 L106.822315 -6.57359 L106.823024 -6.574123 L106.821951 -6.582757 L106.822994 -6.582969 L106.820998 -6.588642 L106.82072 -6.588988 L106.818504 -6.58934 L106.818536 -6.590262 L106.816731 -6.590755 L106.817139 -6.593217 L106.817533 -6.594696 L106.818037 -6.599529 L106.8183 -6.601805 L106.817968 -6.599689 L106.817587 -6.597952 L106.8172 -6.5982 L106.8137 -6.6007 L106.808242 -6.604458 Z" stroke="grey" stroke-width="0.0002" fill="none" />
    <path d="M106.7954 -6.606 L106.7949 -6.6077 L106.793464 -6.607388 L106.792833 -6.605165 L106.792003 -6.605183 L106.792093 -6.606617 L106.791768 -6.607155 L106.792398 -6.610941 L106.792618 -6.614911 L106.793857 -6.616909 L106.794225 -6.618952 L106.794713 -6.619096 L106.794571 -6.620458 L106.793905 -6.621897 L106.794024 -6.623186 L106.7932 -6.624819 L106.791666 -6.626151 L106.789992 -6.62824 L106.788817 -6.629897 L106.788418 -6.631824 L106.787023 -6.63274 L106.786208 -6.634104 L106.7861 -6.635682 L106.785371 -6.636257 L106.785392 -6.638964 L106.784856 -6.640477 L106.787238 -6.64118 L106.784856 -6.640477 L106.785392 -6.638964 L106.785371 -6.636257 L106.7861 -6.635682 L106.786208 -6.634104 L106.787023 -6.63274 L106.788418 -6.631824 L106.788817 -6.629897 L106.789992 -6.62824 L106.791666 -6.626151 L106.7932 -6.624819 L106.794024 -6.623186 L106.793905 -6.621897 L106.794571 -6.620458 L106.794713 -6.619096 L106.794225 -6.618952 L106.793857 -6.616909 L106.792618 -6.614911 L106.792398 -6.610941 L106.791768 -6.607155 L106.792093 -6.606617 L106.792003 -6.605183 L106.792833 -6.605165 L106.793464 -6.607388 L106.7949 -6.6077 L106.7964 -6.6082 L106.8 -6.6113 L106.800971 -6.611869 L106.8021 -6.6123 L106.802443 -6.611545 L106.802825 -6.611507 L106.803897 -6.610316 L106.801231 -6.608503 L106.801313 -6.608035 L106.800503 -6.60806 L106.798991 -6.60685 L106.797256 -6.603941 L106.7967 -6.6042 L106.7965 -6.6046 Z" stroke="yellow" stroke-width="0.0002" fill="none" />
    <path d="M106.756194 -6.570302 L106.759895 -6.568074 L106.770624 -6.557864 L106.778477 -6.556041 L106.776396 -6.55408 L106.769948 -6.537281 L106.767781 -6.53387 L106.769948 -6.537281 L106.771761 -6.536056 L106.772963 -6.536354 L106.776514 -6.534595 L106.782608 -6.534382 L106.789281 -6.534467 L106.790226 -6.533593 L106.795933 -6.53387 L106.796126 -6.531504 L106.796491 -6.531461 L106.796598 -6.530971 L106.800305 -6.530774 L106.796598 -6.530971 L106.796491 -6.531461 L106.796126 -6.531504 L106.795933 -6.53387 L106.790226 -6.533593 L106.789281 -6.534467 L106.782608 -6.534382 L106.776514 -6.534595 L106.772963 -6.536354 L106.771761 -6.536056 L106.769948 -6.537281 L106.776396 -6.55408 L106.778477 -6.556041 L106.770624 -6.557864 L106.759895 -6.568074 L106.756194 -6.570302 L106.755373 -6.571011 L106.754987 -6.56906 Z" stroke="darkgreen" stroke-width="0.0002" fill="none" />
    <path d="M106.794769 -6.588586 L106.794469 -6.590637 L106.793267 -6.590611 L106.793192 -6.591027 L106.797097 -6.590952 L106.7968 -6.5817 L106.796486 -6.573345 L106.7989 -6.569892 L106.799029 -6.56921 L106.801904 -6.565255 L106.801968 -6.561887 L106.797108 -6.562889 L106.787495 -6.560033 L106.788353 -6.558221 L106.788187 -6.553675 L106.787608 -6.548708 L106.786342 -6.546746 L106.785719 -6.546874 L106.784 -6.543024 L106.783536 -6.541881 L106.782742 -6.541369 L106.782506 -6.537894 L106.782828 -6.535784 L106.782608 -6.534382 L106.789281 -6.534467 L106.790226 -6.533593 L106.795933 -6.53387 L106.796126 -6.531504 L106.796491 -6.531461 L106.796598 -6.530971 L106.800305 -6.530774 L106.796598 -6.530971 L106.796491 -6.531461 L106.796126 -6.531504 L106.795933 -6.53387 L106.790226 -6.533593 L106.789281 -6.534467 L106.782608 -6.534382 L106.782828 -6.535784 L106.782506 -6.537894 L106.782742 -6.541369 L106.783536 -6.541881 L106.784 -6.543024 L106.785719 -6.546874 L106.786342 -6.546746 L106.787608 -6.548708 L106.788187 -6.553675 L106.788353 -6.558221 L106.787495 -6.560033 L106.797108 -6.562889 L106.801968 -6.561887 L106.802644 -6.561578 L106.801968 -6.561887 L106.801904 -6.565255 L106.799029 -6.56921 L106.7989 -6.569892 L106.796486 -6.573345 L106.7968 -6.5817 L106.796967 -6.588653 Z" stroke="black" stroke-width="0.0002" fill="none" />
    <path d="M106.805305 -6.601624 L106.8068 -6.6043 L106.8111 -6.6017 L106.8071 -6.6045 L106.8087 -6.6066 L106.8099 -6.6078 L106.8105 -6.6087 L106.813 -6.6125 L106.8145 -6.6161 L106.815 -6.6175 L106.8163 -6.621 L106.8164 -6.6212 L106.8162 -6.6214 L106.8169 -6.6218 L106.8197 -6.6241 L106.8235 -6.6283 L106.8257 -6.6331 L106.8275 -6.6353 L106.8353 -6.6405 L106.8424 -6.647 L106.8436 -6.6489 L106.8449 -6.6506 L106.8468 -6.655 L106.8449 -6.6506 L106.8436 -6.6489 L106.8424 -6.647 L106.8353 -6.6405 L106.8275 -6.6353 L106.8257 -6.6331 L106.8235 -6.6283 L106.8197 -6.6241 L106.8169 -6.6218 L106.8162 -6.6214 L106.8159 -6.6211 L106.8163 -6.621 L106.815 -6.6175 L106.8145 -6.6161 L106.813 -6.6125 L106.8105 -6.6087 L106.8099 -6.6078 L106.8087 -6.6066 L106.8071 -6.6045 L106.8068 -6.6043 L106.805305 -6.601624 L106.8047 -6.6016 L106.8052 -6.6009 Z" stroke="black" stroke-width="0.0002" fill="none" />
    <path d="M106.7973 -6.593 L106.7968 -6.5817 L106.7965 -6.5813 L106.793232 -6.582045 L106.792647 -6.577126 L106.793655 -6.573673 L106.793859 -6.568567 L106.793655 -6.573673 L106.792647 -6.577126 L106.793232 -6.582045 L106.7965 -6.5813 L106.7968 -6.5817 L106.7971 -6.5919 L106.7938 -6.5912 L106.7939 -6.5927 L106.7939 -6.5932 L106.7936 -6.5938 L106.7934 -6.594 L106.793 -6.5943 L106.7927 -6.5943 L106.792 -6.5941 L106.7915 -6.5963 L106.7937 -6.5969 L106.7946 -6.5945 Z" stroke="black" stroke-width="0.0002" fill="none" />
    <path d="M106.8152 -6.5704 L106.8176 -6.5735 L106.8178 -6.577 L106.8184 -6.5792 L106.8178 -6.5819 L106.8132 -6.5816 L106.811 -6.5811 L106.8067 -6.5808 L106.8049 -6.5886 L106.805904 -6.588862 L106.805706 -6.591276 L106.805701 -6.592177 L106.8046 -6.5922 L106.8044 -6.5959 L106.8052 -6.6009 L106.8047 -6.6016 L106.804329 -6.601646 L106.7999 -6.6027 L106.7996 -6.6027 L106.7988 -6.6031 L106.797256 -6.603941 L106.7967 -6.6042 L106.7961 -6.6038 L106.7937 -6.5969 L106.7946 -6.5945 L106.7973 -6.593 L106.7984 -6.5935 L106.800814 -6.592262 L106.801806 -6.592667 L106.802112 -6.591937 L106.802069 -6.591191 L106.801645 -6.589918 L106.8018 -6.5893 L106.8005 -6.588 L106.7998 -6.586 L106.8004 -6.5832 L106.801 -6.5817 L106.8018 -6.5817 L106.8024 -6.5766 L106.8045 -6.5752 L106.8047 -6.5744 L106.807 -6.5728 L106.8085 -6.5701 L106.8075 -6.5703 L106.8069 -6.5695 L106.807 -6.569 L106.8068 -6.5685 L106.8074 -6.5684 L106.8091 -6.5689 L106.8125 -6.5699 Z" stroke="black" stroke-width="0.0002" fill="none" />




  </g>
</svg>
