<svg width="1049.9999999998977" height="1849.9999999999961" xmlns="http://www.w3.org/2000/svg" xmlns:xlink="http://www.w3.org/1999/xlink" >
  <g transform="translate(524.9999999999488 924.9999999999981) rotate(30) scale(10000 -10000) translate(-106.8125 6.592499999999999)">
    <path d="M106.76 -6.5 L106.865 -6.5 L106.865 -6.685 L106.76 -6.685 Z" fill="none" stroke="black" stroke-width="0.001" transform="translate(106.8125 -6.592499999999999) rotate(30) translate(-106.8125 6.592499999999999)" />
    <path d="M106.805305 -6.601624 L106.8068 -6.6043 L106.8111 -6.6017 L106.8071 -6.6045 L106.8087 -6.6066 L106.8099 -6.6078 L106.8105 -6.6087 L106.813 -6.6125 L106.8145 -6.6161 L106.815 -6.6175 L106.8163 -6.621 L106.8164 -6.6212 L106.8162 -6.6214 L106.8169 -6.6218 L106.8197 -6.6241 L106.8235 -6.6283 L106.8257 -6.6331 L106.8275 -6.6353 L106.8353 -6.6405 L106.8424 -6.647 L106.8436 -6.6489 L106.8449 -6.6506 L106.8468 -6.655 L106.8449 -6.6506 L106.8436 -6.6489 L106.8424 -6.647 L106.8353 -6.6405 L106.8275 -6.6353 L106.8257 -6.6331 L106.8235 -6.6283 L106.8197 -6.6241 L106.8169 -6.6218 L106.8162 -6.6214 L106.8159 -6.6211 L106.8163 -6.621 L106.815 -6.6175 L106.8145 -6.6161 L106.813 -6.6125 L106.8105 -6.6087 L106.8099 -6.6078 L106.8087 -6.6066 L106.8071 -6.6045 L106.8068 -6.6043 L106.805305 -6.601624 L106.8047 -6.6016 L106.8052 -6.6009 Z" stroke="blue" stroke-width="0.0002" fill="none" />
    <path d="M106.7973 -6.593 L106.7971 -6.5919 L106.797097 -6.590952 L106.796967 -6.588653 L106.7968 -6.5817 L106.7965 -6.5813 L106.793232 -6.582045 L106.792647 -6.577126 L106.793655 -6.573673 L106.793859 -6.568567 L106.793655 -6.573673 L106.792647 -6.577126 L106.793232 -6.582045 L106.7965 -6.5813 L106.7968 -6.5817 L106.796967 -6.588653 L106.797097 -6.590952 L106.7971 -6.5919 L106.7938 -6.5912 L106.7939 -6.5927 L106.7939 -6.5932 L106.7936 -6.5938 L106.7934 -6.594 L106.793 -6.5943 L106.7927 -6.5943 L106.792 -6.5941 L106.7915 -6.5963 L106.7937 -6.5969 L106.7946 -6.5945 Z" stroke="orange" stroke-width="0.0002" fill="none" />
    <path d="M106.8152 -6.5704 L106.8176 -6.5735 L106.8178 -6.577 L106.8184 -6.5792 L106.8178 -6.5819 L106.8132 -6.5816 L106.811 -6.5811 L106.8067 -6.5808 L106.8049 -6.5886 L106.805904 -6.588862 L106.805706 -6.591276 L106.805701 -6.592177 L106.8046 -6.5922 L106.8044 -6.5959 L106.8052 -6.6009 L106.8047 -6.6016 L106.804329 -6.601646 L106.7999 -6.6027 L106.7996 -6.6027 L106.7988 -6.6031 L106.797256 -6.603941 L106.7967 -6.6042 L106.7961 -6.6038 L106.7937 -6.5969 L106.7946 -6.5945 L106.7973 -6.593 L106.7984 -6.5935 L106.800814 -6.592262 L106.801806 -6.592667 L106.802112 -6.591937 L106.802069 -6.591191 L106.801645 -6.589918 L106.8018 -6.5893 L106.8005 -6.588 L106.7998 -6.586 L106.8004 -6.5832 L106.801 -6.5817 L106.8018 -6.5817 L106.8024 -6.5766 L106.8045 -6.5752 L106.8047 -6.5744 L106.807 -6.5728 L106.8085 -6.5701 L106.8075 -6.5703 L106.8069 -6.5695 L106.807 -6.569 L106.8068 -6.5685 L106.8074 -6.5684 L106.8091 -6.5689 L106.8125 -6.5699 Z" stroke="red" stroke-width="0.0002" fill="none" />




  </g>
</svg>
