<svg width="1500" height="1500" xmlns="http://www.w3.org/2000/svg" xmlns:xlink="http://www.w3.org/1999/xlink" >
  <path d="M428.18243223329944 470.2446762144528 L444.7106512748178 477.75750305152116 L480.8888267382372 459.20382400268727 L496.59075903470296 465.61439111967064 L513.3767473978423 478.39567842003146 L536.1831284594842 514.8858881185013 L548.3284234323094 590.7939816980321 L540.1333839703426 602.2670369444792 L463.25140795666186 618.8494239278361 L452.7940248809159 624.0781154657092 L465.5045459462315 648.086877477969 L507.3366960952086 698.8830598018068 L567.3358429046971 752.8822919301679 L624.3307385766173 821.8761130068473 L689.1983851505046 879.0214207029899 L656.2104986035422 890.0173828853285 L654.7022935644975 930.7389189354851 L621.4589068316201 935.2721080354629 L618.5645648403693 946.8494760006129 L608.058873176347 953.8532704431123 L606.7500000001047 952.5443972667367 L606.7500000001047 952.3835762208164 L618.3967637193177 956.7511126154947 L622.6326703879437 967.3408792869396 L611.7648254665653 965.5295718000743 L610.3713203434324 966.9230769230873 L615.5357475872592 972.0875041667008 L623.8035761643346 993.5838584677124 L597.55521646224 998.2159219445762 L595.9154521536902 1008.0545077972467 L584.5925582746503 1003.2018389920314 L578.6176682602218 1009.17672900642 L515.6579111336157 984.6070676887318 L488.6406017783429 929.0714873470416 L474.64950417456464 922.8532217453965 L476.1402644153634 907.945619338195 L452.25000000009175 897.9230769230882 L479.3597355848078 905.9005345079661 L477.65063993772117 922.9914909790724 L456.16789622364706 931.2540847152404 L447.3612479807798 918.044112351126 L436.81044543788516 925.5803998817955 L419.3313165593082 896.9781889894056 L414.7057580969715 873.8503966784947 L424.20193404261397 842.1964768602639 L456.53263909272823 848.3547063936323 L464.7228875265341 844.2595821768227 L488.67337130538147 808.3338565083918 L517.6447187190547 789.5024806893789 L499.24023781187543 762.6036239786391 L467.9235714716157 747.6909257213624 L413.9952187772167 701.2526220121871 L390.4025484713003 693.3883985769394 L398.3923329803929 666.2231312459419 L414.4832816012922 645.743742092024 L409.5791796066095 634.2584871197075 L409.5416274024899 634.169467391785 L373.0996157091937 531.6816454599735 L313.84724554918364 516.868552920011 L294.616586222034 510.9514269731517 L281.8041280504957 512.5529842445807 L265.573409669031 473.5992601283432 L284.19989994667105 472.0470526051888 L282.6894206707209 429.75363288171513 L329.5625309835515 434.6025753278824 L313.01682930248376 512.8186196390748 L340.16832344946124 519.6064931758324 L353.56750098102907 467.4985805532004 L378.7499999999966 465.8197472852497 L378.7499999999966 475.27717888927714 L374.6704019660996 483.43637495697794 L387.8416287496833 492.6562337053373 Z" stroke="blue" stroke-width="0.5" fill="none" />
  <path d="M313.4444910975276 518.3140289166553 L294.4831724438757 512.4797770232158 L289.48717916634337 513.104276182894 L237.35743693762856 507.89130196001713 L208.07858064053164 494.7158166262276 L179.7648254665063 523.0295718000797 L160.4820859594014 519.8157818822111 L50.249999999962824 393.9230769230771 L162.01791404064636 517.0303719639489 L178.73517453345755 519.816582046093 L207.4214193596191 491.13033721994475 L238.14256306238235 504.95485188614555 L278.7032689812463 509.0109224780346 L263.39681933791326 472.275443333585 L286.52736974564164 470.3478974662654 L295.9999657070256 508.23828131273376 L314.6527544505773 513.9776009261496 L373.31542722419897 528.6432691195151 L387.35204597749373 491.2122857775645 L428.11486446666436 468.56627550587706 L444.6713025493665 476.091929179898 L480.81765347639305 457.5545710822413 L497.34151806873683 464.30070531603843 L514.5034947959459 477.36827991730496 L537.6162569189091 514.3486993139288 L549.9068468643742 591.164886473232 L541.016767941116 603.6109969657508 L463.7528159137361 620.2757709324234 L454.83804976200304 624.7331540083433 L466.75909189261233 647.2506780328156 L508.42339219066446 697.8430426806102 L568.4216858087154 751.8415069366189 L625.4114771532215 820.8291490905649 L692.1467703012496 879.6197644828727 L657.6709972070915 891.1116888475743 L656.1545871292651 932.0547609478889 L622.6678136631136 936.6211391478283 L619.8791296804984 947.7758750782891 L608.8783720101532 955.1097135250617 L600.8071734040499 945.020715267246 L596.3557019284593 904.9574719865315 L586.0670868903384 900.5480655415996 L570.9517757286875 859.736725405169 L535.0202159972639 822.3080173515893 L524.3974927899586 802.0282730467242 L498.23047562334466 763.7841710340319 L467.09714294323135 748.9587745196567 L413.24043755409434 702.5821671012909 L388.555096942369 694.353720230738 L397.03466596030523 665.5231855696429 L412.71656320262196 645.564407261132 L407.48012249821386 635.0915258523424 L371.94923141811387 532.9402139968151 Z" stroke="orange" stroke-width="0.5" fill="none" />
  <path d="M313.0417366471505 519.7595049137258 L294.34975866571733 514.0081270732798 L289.5058102092918 514.6136206303463 L236.96487387546483 509.3595269969529 L208.40716128077474 496.5085563293823 L180.27965093303067 524.6360666770731 L159.7141719187789 521.2084868413689 L50.249999999962824 393.9230769230771 L162.78582808126885 515.6376670047911 L178.22034906693318 518.2100871690996 L207.092838719376 489.33759751678997 L238.53512612454608 503.48662684920976 L276.35219013646406 507.2683332503856 L261.22022900679553 470.95162653882676 L287.6733597331338 468.7471989782675 L297.24993141407197 507.05348570231325 L315.05550890265965 512.5321249295454 L372.3808544483376 526.8634613159516 L386.14127904907036 490.16899571427723 L428.04729669960295 466.8878747973014 L444.6319538239152 474.42635530839476 L480.7464802147621 455.905318161862 L496.1909399214193 462.21076794130437 L498.91252484535187 455.71809802438895 L498.2989435166729 445.07317543527085 L491.86369719834033 425.75225901326985 L494.41403396038197 415.5838195371307 L503.8512793118599 407.71944841086355 L513.2348699227407 401.4637213368409 L530.455651941466 399.8981956987955 L543.8390418238725 404.91696690472463 L539.2466337082169 460.02586429152655 L537.0236661008931 501.15076502662987 L552.8008896628478 599.7584122890996 L571.3984051548238 639.2781327095086 L672.8369148483893 577.943219871526 L577.4588362856292 644.7078748657085 L618.4499246405295 693.0188004270408 L641.2771487141811 727.2596365370651 L598.8281603158185 677.7358167390732 L588.5940300255044 682.1218725777431 L579.3947951037381 675.9890492965302 L568.5089213759653 677.5441741148101 L554.9310731812795 656.4230769230782 L544.0541723081793 656.4230769230782 L532.1169496279765 604.1977276971243 L474.92674858951034 616.3658555776473 L376.3902668838881 665.6340964306848 L428.266112746698 637.377887641357 L419.1193033979346 641.6387214926476 L404.8635874044493 632.1349108304529 L370.79884712746036 534.19878253375 Z" stroke="blue" stroke-width="0.5" fill="none" />
  <path d="M510.3986241430647 748.0929308058369 L524.9403320939194 731.9369847524613 L485.5702871607548 705.1635821029276 L486.64949372337674 699.0042080624302 L475.7890965365874 699.3394055064715 L452.4657992337211 680.6745974796711 L427.76791910334566 639.2647223793422 L419.2790560045978 643.219066880427 L417.5235476133565 646.7300836627896 L401.10766701971556 667.623022600232 L394.09745152873654 691.4577552692356 L415.504781223035 698.5935318339796 L469.5764285283843 745.1552281247873 L501.2597621880843 760.2425298675206 L521.0377966839985 789.1488879768026 L537.4797840029544 820.5381364945706 L573.5499918839793 858.1112697040915 L608.2500000001545 952.7476554753475 L608.2500000001545 951.344075518634 L619.5435274381822 955.5791483079076 L625.0153407755477 969.2586816507885 L612.2796509330897 967.136066677081 L612.4926406871367 966.9230769230873 L616.8214951743778 971.2519314103149 L623.8169491212631 989.4401116721394 L619.5356954688691 1012.9870067611189 L627.2581485121975 1028.3166523547459 L656.5706966291884 1060.67192129357 L671.7894599219676 1124.9289218645472 L672.0665351798516 1125.1367283077739 L692.6843918640913 1152.637178660456 L702.5511816791408 1158.430957639782 L702.3635997705213 1172.8891939763096 L720.1002912611898 1173.8013666815327 L763.9168804111307 1247.729597358693 L872.0491813665633 1334.718877691283 L901.6394899799707 1337.0384892999818 L933.7461310541782 1426.5785023946064 L941.4458125253589 1431.0169551434337 L939.1104570701003 1443.7927232223144 L973.7286946260326 1475.2161044677134 L1018.3890736084322 1480.1951332055928 L20780330888589070 35049853143720196 L1016.5709263918643 1483.0110206405786 L972.4313053742151 1478.090049378473 L935.8595429299754 1444.893430623859 L938.114187474639 1432.5591987027074 L931.2938689458149 1428.6276514515503 L899.4705100202793 1339.877664546194 L870.8908186334696 1337.637276154868 L761.6131195891285 1249.7265564874715 L718.3397087389665 1176.714787164623 L699.3264002294808 1175.7369598698617 L699.5288183211557 1160.135196206371 L690.6456081357959 1154.9189751857034 L669.9234648203856 1127.279425538392 L669.120540078012 1126.677231981625 L653.8293033710829 1062.114232552582 L624.7618514879605 1030.029501491445 L616.4043045313861 1013.4391470850467 L620.1989171111677 992.5687778953417 L612.9642524130219 973.7586496794725 L606.1286796564502 966.9230769230873 L610.7351745335166 962.3165820460875 L617.8673296123094 963.5052745592152 L616.1032362807362 959.0950412306686 L603.7500000000051 954.462577625341 L603.7500000000051 949.1894074618456 L572.2349853606801 863.2393675364922 L533.7904319942055 823.1929577796458 L523.1096961059478 802.8024619930617 L497.08415195418354 764.7651282328093 L504.3867146667935 748.6909741568779 Z" stroke="blue" stroke-width="0.5" fill="none" />
  <path d="M1277.1593923783087 430.34076908574394 L1252.4898487723135 390.4048012125892 L1262.3904409398533 379.52107331931313 L1195.4280188029288 358.6998550665952 L1123.8027033241592 381.2730417818842 L1088.4220462911287 409.93318218943233 L1016.2110032880634 413.34684957585057 L1003.155604024002 427.847829381369 L748.1874847254488 418.47268213762703 L747.8095292782427 432.108151734296 L720.8642397430509 440.32480175300685 L718.5420474392146 427.4896813519889 L719.8421458949866 439.6473588017245 L709.8754917915784 441.2921824364056 L703.2502414775621 450.4963892486445 L685.5094505522885 456.45166796451457 L597.5612929321272 453.3761337703821 L591.6459048227551 447.3113671736571 L554.8704797265458 447.50252292184746 L555.8327979469624 447.36504889038224 L555.7568701446769 461.0472388682283 L540.6765854780105 461.36226752156546 L538.5301207534354 501.0718649280286 L552.7263476397337 589.7982829678192 L541.9001519116762 604.9549569871424 L453.08441606785266 624.1112921691204 L417.63097561648976 642.4492786095268 L403.61235069383383 633.1035286612628 L368.64163324324295 532.562715990028 L384.93051212022067 489.1257056512697 L427.9797289329679 465.20947408871234 L444.5926050984639 472.7607814367716 L480.6753069527048 454.25606524146934 L493.5045659678394 459.4938171578964 L514.7187787819973 475.64686951103255 L537.182867346786 458.4684488437472 L552.8051906708242 457.04823763248675 L554.010631509172 445.97230575317707 L554.7561016120994 445.2530870547664 L592.904095177218 444.3047866725201 L598.8687070681209 450.4200200757656 L685.0705494478149 453.43448588164506 L701.3797585226911 447.95976459751625 L708.1645082084975 438.533971409749 L716.5578541052042 437.14879504444616 L706.7579525608636 345.50647249419455 L723.2157602569345 436.4713520931638 L744.8704707218212 429.86800211189484 L745.2725152747774 415.363471708534 L1001.8643959759999 424.79832446478326 L1014.8189967117105 410.40930427032697 L1087.2979537089122 406.98297165673506 L1122.3572966758156 378.5831120642612 L1195.4219811971002 355.5562987795445 L1267.779559060145 378.0550805268466 L1256.2301512276977 390.7513526335624 L1279.020607621675 427.6453847604088 L1368.3033104135943 444.92973333347436 L1446.1350000001262 417.2030769230804 L1368.5666895863592 448.0364205126917 Z" stroke="lightpurple" stroke-width="0.5" fill="none" />
  <path d="M674.6561518895078 585.2896130161931 L726.7500000000382 549.9230769230866 L675.6398604364477 588.2736748829196 L665.1448473248678 658.740191489484 L620.4622698108153 693.3331547260722 L633.7489529823159 713.2631794831632 L464.3097189108403 619.9938763245802 L417.5346840531802 644.1878598716697 L402.3611139836447 634.0721464920726 L367.0468196649779 532.5435503258523 L383.7197451917973 488.0824155879824 L427.91216116611963 463.5310733800966 L444.55325637322574 471.0952075652151 L480.6041336910738 452.60681232107675 L494.2553250022996 458.18013135446404 L513.381981298835 472.743663982411 L543.1329301851662 520.345182200421 L554.3047710720117 590.1691877430058 L544.0033065756467 604.5912380378902 L570.1879195237325 638.2571689712233 L710.4238296953014 553.4633628209672 L579.6676725709204 644.9926728082443 L618.6531132541973 690.9397993279251 L662.3551526752891 657.105962356692 L672.6829203079632 587.7623796805296 L657.1203223823119 562.3305153817103 L658.379677617873 561.5156384644602 Z" stroke="yellow" stroke-width="0.5" fill="none" />
  <path d="M426.31610708681933 462.70183173398686 L417.75154860850705 279.99125086243674 L413.23008058569144 177.50464234613997 L448.1640338081405 124.3442787466995 L470.7119885016908 109.31230895108371 L485.48693483304817 90.10487871998077 L496.7302110413385 69.22450861899006 L552.9474800238177 108.72853547148713 L575.1325956740772 99.85448921138595 L602.9398975585565 106.39738377245169 L600.0792709602365 112.11863696917158 L591.2927572652649 110.36133423021988 L578.2338998808001 104.55739761489485 L550.6973163647899 116.15174856911307 L535.9418792528459 135.333816814611 L441.5485605579761 259.6932684284446 L422.25946379716106 302.7227919716833 L426.8054521679687 457.28639657625286 L377.3785851520728 446.80190963347616 L380.2500000000464 489.8731323586756 L380.2500000000464 475.6312808554395 L377.3368835891233 481.457513677299 L370.7352813738396 488.05911589278253 L364.2500000001547 492.9230769230728 L359.0399175830328 492.9230769230728 L349.8615242284586 490.3006788217755 L343.03120671047793 520.3540759007839 L367.51214005306565 527.0306940851175 L382.50897826316077 487.03912552484167 Z" stroke="lightgrey" stroke-width="0.5" fill="none" />
  <path d="M544.0394093331236 404.8398018456754 L558.9079863071333 408.71984882498526 L557.448535194851 426.51335885090384 L557.2487402893245 462.5164008133551 L542.0992829917282 462.83287448987335 L540.4201811300169 493.8962589299998 L555.8831945040765 590.5400925179658 L544.9626017196607 605.8289224160494 L459.1962567029384 624.327545851002 L417.4383924898706 645.9264411337593 L401.10987727324243 635.0407643228826 L364.68111853089624 530.3080829383442 L381.2982113347374 485.99583546155435 L426.1458144259933 461.0805004109218 L444.51390764777443 469.42963369359194 L480.5329604290165 450.95755940063077 L495.00608403654667 456.86644555085843 L515.9521903630804 472.81535466433525 L536.4784928895716 457.11877037936983 L540.7641443693478 405.69095262381376 L568.0764665959259 287.3375563091483 L633.9697116252552 291.9347594507269 L666.7499999999649 300.92307692308066 L632.1587347924407 294.59967767211583 L635.2381987108657 253.02691477147238 L630.7142107117159 231.91497077531528 L654.47751854947 126.46529224470828 L606.3968397338471 112.32391612246073 L570.7162733556714 289.24005774749725 Z" stroke="red" stroke-width="0.5" fill="none" />
  <path d="M545.8288186659388 403.7565267683283 L560.5059726140382 407.58662072690504 L558.9481944311103 426.57892645146615 L558.740610433972 463.98556275848193 L543.5219805052327 464.30348145816794 L541.9266357825592 493.81735883138526 L561.1534136718177 613.98472064053 L571.4046457332245 635.7685887709528 L748.0107445451978 528.9835057684364 L579.1509800536687 647.1853409126747 L665.0648566739648 763.6787329402026 L687.6469480703662 817.8757522918698 L714.6291125707194 891.3272000980464 L716.5751407701038 895.2192564966685 L711.7499999999666 900.044397266606 L705.9114987469428 894.2058960135422 L684.8302115904659 818.9155847403493 L662.4334903504092 765.1634537640082 L599.6482708787454 679.0162921633523 L588.4380600508621 683.8206682324376 L579.0395902072021 677.5550216700108 L567.7678427515787 679.1652713065341 L554.1121463622289 657.9230769230879 L542.858344616377 657.9230769230879 L530.9838992559435 605.9723784712044 L474.86246756207606 617.9131086188304 L417.3421009263478 647.6650223959555 L399.85864056284015 636.0093821536925 L363.08630495263117 530.2889172741818 L380.0874444061009 484.95254539841363 L426.0782466589319 459.40209970234605 L444.4745589223231 467.7640598220754 L480.4617871673855 449.3083064802381 L495.75684307122003 455.55275974745274 L515.9502347436273 470.9285323829191 L535.038915612347 456.3313058361571 L539.2782887383873 405.4588283260306 L578.4570578955339 235.68416197841316 L605.9851969269658 110.5713519335414 L572.1825467097119 289.5570385791866 Z" stroke="purple" stroke-width="0.5" fill="none" />
  <path d="M314.0680982813393 516.1506837981975 L364.12284989062016 523.2527955668841 L378.87667747746434 483.90925533527286 L426.0106788922968 457.7236989937703 L444.4352101968718 466.0984859504656 L480.3906139055414 447.65905355980556 L496.5076021058934 454.239073944047 L510.01220690736204 464.52183061660196 L548.64960345121 526.3416650864604 L558.702695279436 589.1734890125531 L545.8459856902209 607.172882437441 L459.3584466714873 625.8270575199031 L457.5840959846289 626.7142328632523 L468.01363783878 646.4144785877155 L509.51008828590716 696.8030255593336 L569.5075287131601 750.8007219437627 L626.4922157298258 819.7821851743356 L711.172644005913 894.3816100843425 L707.5581978717338 891.799862845588 L711.26620071432 890.8728621349147 L683.9930498670554 816.6292848286647 L734.8453313066727 822.9858200085903 L748.8294737247969 833.8623752227223 L761.2500000001177 852.9230769230865 L746.6705262753948 835.9837786234546 L733.6546686934753 825.8603338375823 L690.1818656157843 820.4262334528576 L716.0082251420619 890.7313232746293 L718.4002815399282 895.515436070282 L711.7499999999666 902.1657176101371 L698.8525015459857 889.2682191560762 L689.0182401179601 882.2437467073761 L659.1314958106409 892.205994809807 L657.6068806938196 933.3706029602793 L623.8767204948203 937.9701702601938 L621.1936945208407 948.7022741558192 L608.5661654270069 957.1206268849705 L599.3643468081444 945.6183536113924 L594.9614038568996 905.9918670499753 L584.884173780793 901.6730541602078 L570.9596612653911 864.0768703686706 L532.5606479913603 824.0778982081551 L521.8218994225765 803.5766509406249 L494.52486042646626 763.6809785617979 L466.2707144144207 750.226623317951 L412.485656330972 703.9117121902881 L386.7076454136509 695.3190418845899 L395.67699894085706 664.8232398924912 L410.9498448039517 645.3850724300801 L380.00419304381694 583.4937689095441 L362.6908653155425 533.7179516903687 Z" stroke="silver" stroke-width="0.5" fill="none" />
  <path d="M693.7500000000085 839.423076923078 L664.685030555674 770.7995269175226 L599.1402366552023 680.8659724961051 L588.282090076433 685.5194638870919 L578.6843853108792 679.1209940434782 L567.0267641274052 680.7863684982716 L553.2932195433915 659.4230769230844 L541.6625169245748 659.4230769230844 L529.1961362616604 604.8826615234868 L468.9754317534778 618.569185275366 L473.1241704918432 642.0787047917752 L496.7988203948437 659.8346922191587 L522.4538619741992 691.5262141699839 L542.690929930103 721.1034673364945 L538.3441284556056 725.4502688110584 L649.1808783090391 842.1983119899921 L652.9343250560515 840.9471630743213 L668.4998128577746 839.390614294133 L695.8690641608456 851.7067773805363 L697.1791127473637 856.0736060018946 L658.2922739685415 758.8565090547326 L626.2500000001125 707.4230769230792 L664.2863950432343 762.5092216888538 L692.6356594910743 749.080622739797 L722.201996253844 783.0819100168383 L727.4372483478686 776.5378448992142 L737.7648254664848 774.8165820460849 L742.2430120745815 779.2947686541016 L750.2542845741544 777.6925141542378 L751.7542845739911 782.1925141542406 L756.372587273404 781.2688536143606 L748.9449970125861 754.5295286759466 L764.1135675892485 748.4621004453217 L21622119940029984 167571429535659260 L767.0044621702488 747.4237840362428 L774.4039724304486 744.9572806162029 L785.2500000000617 744.9230769230851 L775.0960275698304 747.8888732299603 L767.4805627687675 750.4273614969368 L771.6170320442473 771.1097078742422 L779.2500000000757 779.4230769230846 L768.882967955733 772.7364459719486 L764.6327815133702 751.4855137598418 L752.5550029873784 756.3166251702278 L760.1274127266322 783.5773002317945 L749.7457154259735 785.6536396919342 L748.2457154261368 781.1536396919314 L741.2569879256381 782.5513851920472 L736.7351745334361 778.0295718000716 L729.0627516523074 779.3083089469619 L722.29800374636 787.7642438293295 L691.8643405088432 752.7655311063717 L665.6663591606105 765.1751012187689 Z" stroke="brown" stroke-width="0.5" fill="none" />
  <path d="M354.92226299133733 455.4515863706164 L423.7062103586453 453.95628316698503 L419.2646309985548 302.9425849208576 L415.6429573180276 298.1136866804788 L368.0666471825589 309.6473376224139 L366.57793097582214 318.5796348632606 L341.42082530465245 326.4412303854878 L282.70783762401663 321.80599451596885 L287.2475061580104 170.48371005234247 L284.25000000005696 129.92307692307952 L290.25249384197593 170.36244379381435 L285.75000000010675 320.4455718603081 L285.75000000010675 428.56223973609644 L331.3750619670941 433.28207373269237 L314.78365860465374 511.7141623550457 L339.0866468986786 517.7899094285918 L354.7385239566836 456.9214986478596 Z" stroke="yellow" stroke-width="0.5" fill="none" />
  <path d="M735.4406626134846 821.5485630941475 L749.9089474490717 832.8016735219433 L763.1646600670905 850.4759570125241 L773.463310883713 846.0844568529401 L889.7017080084879 949.8930422907147 L903.899999999993 982.8080769230828 L886.7769556582061 950.7343854858273 L913.029338216802 907.0825241717648 L974.7429919043071 854.1143882528045 L1024.8206659191083 772.0144590425869 L1050.0599999999595 652.6580769230848 L1027.6593340808658 773.1216948035844 L977.0570080957698 856.0817655933371 L915.3506617832363 909.0436296743819 L888.8318892664415 953.1384381184724 L772.8866891164188 849.5916969932236 L759.3353399331448 855.370196833649 L745.59105255112 837.0444803242469 L733.0593373866634 827.297590752025 L689.0474457120632 821.7961042927 L693.7500000000085 839.423076923078 L694.6004484395729 846.2641531781198 L663.5945886987571 771.8500897997702 L598.6322024316593 682.7156528287912 L588.1261201017907 687.2182595416796 L578.3291804145563 680.6869664168922 L566.2856855028053 682.4074656899957 L552.4742927241277 660.923076923081 L540.4666892327725 660.923076923081 L528.3835233460366 608.0592261681848 L475.3721936128841 619.3382324944062 L417.24580936303823 649.4036036581117 L396.53981590966225 635.5996080227053 L359.8966777963142 530.2505859461236 L377.665910549041 482.86596527197224 L425.9431111254486 456.0452982851413 L444.3958614716337 464.43291207890906 L480.31944064369725 446.0098006393996 L497.2583611399273 452.9253881404281 L511.13895430546563 463.4944321138488 L550.082731910635 525.8044762818613 L560.2811187115009 589.5443937877529 L547.7957151158108 607.023958821695 L569.6258390472764 635.0912610192537 L785.5976593918967 504.5036487178776 L582.8511767951028 646.4261865359531 L620.8497739204688 691.2102474337821 L493.54305157891076 500.2501639232702 L666.410964318942 763.0093912883249 L688.3496278435075 815.6621837479404 Z" stroke="orange" stroke-width="0.5" fill="none" />
  <path d="M538.3722568143412 598.8361753206804 L547.9732581128616 590.9420186974244 L573.4115333156353 639.5607340259367 L662.8107109369097 580.9131162742907 L579.8063439552692 645.9885399880314 L617.3962666370159 690.014091455635 L665.5204157673467 761.4483753211563 L688.5388774862378 814.2554345587237 L719.1247842767723 894.3185435103394 L723.4488437049436 902.9666623665753 L765.2878552756448 937.3344218711009 L822.5173249600459 1000.5880462592718 L855.5331701627722 1072.6226176103125 L882.2688049732363 1105.2995046008339 L999.1779071513207 1183.238906052939 L1105.9109994354799 1280.9523003976929 L1123.9823529417947 1309.5652767826602 L1143.5538169016722 1335.1587296532296 L1173.031603222796 1403.4230769230826 L1166.7551100343585 1403.4230769230826 L1137.9470102681921 1335.1933669501002 L1115.4645306154976 1306.715559390199 L1105.020021825922 1284.334469126842 L1001.8233305540036 1191.6070074042582 L917.9071412429352 1134.6638789432159 L880.2894550979802 1109.083852364565 L857.5036983185669 1086.2980955851651 L822.967665922647 1012.7213309152759 L775.1764596608979 952.9823230883292 L707.0009255114229 896.9268838986563 L710.1563901176178 887.4604900798454 L684.84541692996 821.9497359472448 L678.8727090731328 805.5247893410232 L651.9651147022643 753.2044669533076 L611.5574383873223 696.3344039913563 L559.264986362038 632.62176129365 L547.1810502692165 605.9177543725734 Z" stroke="black" stroke-width="0.5" fill="none" />
  <path d="M734.2210047450237 178.8728377456892 L737.2385743440191 231.68030572499038 L746.2947594450497 264.88631776306204 L736.9353700017456 307.00357025863696 L657.0414812426151 301.79309925259395 L623.7639371782677 294.230021056132 L573.4535944331043 290.7199971436756 L547.6182279989672 402.67325169092794 L562.1039589211563 406.45339262881146 L560.4478536677959 426.64449405201515 L560.2324805786196 465.4547247036221 L544.9446780187372 465.7740884264892 L544.2003018831798 479.5450469339289 L561.8595421437789 589.9152985626997 L548.9084354982054 608.0468478663213 L465.8197168063083 625.9679440547948 L417.14951779972864 651.1421849202545 L395.28857919947313 636.5682258535153 L358.3018642180491 530.2314202819612 L376.4551436206176 481.82267520881817 L425.87554335860034 454.3668975765523 L444.3565127461824 462.7673382072859 L480.24826738163995 444.36054771900695 L498.8615087505366 451.959703721385 L497.3950496905388 455.4581191256999 L496.8128870330446 445.35827394744246 L490.3023943967355 425.8114411034584 L492.8519036634782 415.6463009300968 L474.9472932503096 397.7416905169016 L464.19499739492665 367.0208452156818 L473.30998295720406 324.4842459242057 L482.7344505577713 300.92307692308066 L494.4161256380397 300.92307692308066 L503.34125662494955 225.05946353558608 L534.9354351597668 203.9966778455747 L537.9313109617101 192.0131746375751 L572.6077531186746 167.89043226765648 L593.3635031898632 130.53008213917064 L580.617199470268 133.0793428831243 L570.6476006416494 119.78654444513052 L572.1916796166227 112.06614957013119 L568.665163410742 103.24985905540302 L579.8429779106584 101.38688997207032 L605.6409131184637 108.97451797437378 L697.615970676182 131.59133540656876 Z" stroke="black" stroke-width="0.5" fill="none" />
</svg>
