<svg width="1500" height="1500" xmlns="http://www.w3.org/2000/svg" xmlns:xlink="http://www.w3.org/1999/xlink" >
  <path d="M313.4444910975276 518.3140289166553 L294.4831724438757 512.4797770232158 L289.48717916634337 513.104276182894 L237.35743693762856 507.89130196001713 L208.07858064053164 494.7158166262276 L179.7648254665063 523.0295718000797 L160.4820859594014 519.8157818822111 L50.249999999962824 393.9230769230771 L162.01791404064636 517.0303719639489 L178.73517453345755 519.816582046093 L207.4214193596191 491.13033721994475 L238.14256306238235 504.95485188614555 L278.7032689812463 509.0109224780346 L263.39681933791326 472.275443333585 L286.52736974564164 470.3478974662654 L295.9999657070256 508.23828131273376 L314.6527544505773 513.9776009261496 L373.31542722419897 528.6432691195151 L387.35204597749373 491.2122857775645 L428.11486446666436 468.56627550587706 L444.6713025493665 476.091929179898 L480.81765347639305 457.5545710822413 L497.34151806873683 464.30070531603843 L514.5034947959459 477.36827991730496 L537.6162569189091 514.3486993139288 L549.9068468643742 591.164886473232 L541.016767941116 603.6109969657508 L463.7528159137361 620.2757709324234 L454.83804976200304 624.7331540083433 L466.75909189261233 647.2506780328156 L508.42339219066446 697.8430426806102 L568.4216858087154 751.8415069366189 L625.4114771532215 820.8291490905649 L692.1467703012496 879.6197644828727 L657.6709972070915 891.1116888475743 L656.1545871292651 932.0547609478889 L622.6678136631136 936.6211391478283 L619.8791296804984 947.7758750782891 L608.8783720101532 955.1097135250617 L600.8071734040499 945.020715267246 L596.3557019284593 904.9574719865315 L586.0670868903384 900.5480655415996 L570.9517757286875 859.736725405169 L535.0202159972639 822.3080173515893 L524.3974927899586 802.0282730467242 L498.23047562334466 763.7841710340319 L467.09714294323135 748.9587745196567 L413.24043755409434 702.5821671012909 L388.555096942369 694.353720230738 L397.03466596030523 665.5231855696429 L412.71656320262196 645.564407261132 L407.48012249821386 635.0915258523424 L371.94923141811387 532.9402139968151 Z" stroke="orange" stroke-width="0.5" fill="none" />
  <path d="M313.0417366471505 519.7595049137258 L294.34975866571733 514.0081270732798 L289.5058102092918 514.6136206303463 L236.96487387546483 509.3595269969529 L208.40716128077474 496.5085563293823 L180.27965093303067 524.6360666770731 L159.7141719187789 521.2084868413689 L50.249999999962824 393.9230769230771 L162.78582808126885 515.6376670047911 L178.22034906693318 518.2100871690996 L207.092838719376 489.33759751678997 L238.53512612454608 503.48662684920976 L276.35219013646406 507.2683332503856 L261.22022900679553 470.95162653882676 L287.6733597331338 468.7471989782675 L297.24993141407197 507.05348570231325 L315.05550890265965 512.5321249295454 L372.3808544483376 526.8634613159516 L386.14127904907036 490.16899571427723 L428.04729669960295 466.8878747973014 L444.6319538239152 474.42635530839476 L480.7464802147621 455.905318161862 L496.1909399214193 462.21076794130437 L498.91252484535187 455.71809802438895 L498.2989435166729 445.07317543527085 L491.86369719834033 425.75225901326985 L494.41403396038197 415.5838195371307 L503.8512793118599 407.71944841086355 L513.2348699227407 401.4637213368409 L530.455651941466 399.8981956987955 L543.8390418238725 404.91696690472463 L539.2466337082169 460.02586429152655 L537.0236661008931 501.15076502662987 L552.8008896628478 599.7584122890996 L571.3984051548238 639.2781327095086 L672.8369148483893 577.943219871526 L577.4588362856292 644.7078748657085 L618.4499246405295 693.0188004270408 L641.2771487141811 727.2596365370651 L598.8281603158185 677.7358167390732 L588.5940300255044 682.1218725777431 L579.3947951037381 675.9890492965302 L568.5089213759653 677.5441741148101 L554.9310731812795 656.4230769230782 L544.0541723081793 656.4230769230782 L532.1169496279765 604.1977276971243 L474.92674858951034 616.3658555776473 L376.3902668838881 665.6340964306848 L428.266112746698 637.377887641357 L419.1193033979346 641.6387214926476 L404.8635874044493 632.1349108304529 L370.79884712746036 534.19878253375 Z" stroke="blue" stroke-width="0.5" fill="none" />
  <path d="M426.31610708681933 462.70183173398686 L417.75154860850705 279.99125086243674 L413.23008058569144 177.50464234613997 L448.1640338081405 124.3442787466995 L470.7119885016908 109.31230895108371 L485.48693483304817 90.10487871998077 L496.7302110413385 69.22450861899006 L552.9474800238177 108.72853547148713 L575.1325956740772 99.85448921138595 L602.9398975585565 106.39738377245169 L600.0792709602365 112.11863696917158 L591.2927572652649 110.36133423021988 L578.2338998808001 104.55739761489485 L550.6973163647899 116.15174856911307 L535.9418792528459 135.333816814611 L441.5485605579761 259.6932684284446 L422.25946379716106 302.7227919716833 L426.8054521679687 457.28639657625286 L377.3785851520728 446.80190963347616 L380.2500000000464 489.8731323586756 L380.2500000000464 475.6312808554395 L377.3368835891233 481.457513677299 L370.7352813738396 488.05911589278253 L364.2500000001547 492.9230769230728 L359.0399175830328 492.9230769230728 L349.8615242284586 490.3006788217755 L343.03120671047793 520.3540759007839 L367.51214005306565 527.0306940851175 L382.50897826316077 487.03912552484167 Z" stroke="lightgrey" stroke-width="0.5" fill="none" />
  <path d="M544.0394093331236 404.8398018456754 L558.9079863071333 408.71984882498526 L557.448535194851 426.51335885090384 L557.2487402893245 462.5164008133551 L542.0992829917282 462.83287448987335 L540.4201811300169 493.8962589299998 L555.8831945040765 590.5400925179658 L544.9626017196607 605.8289224160494 L459.1962567029384 624.327545851002 L417.4383924898706 645.9264411337593 L401.10987727324243 635.0407643228826 L364.68111853089624 530.3080829383442 L381.2982113347374 485.99583546155435 L426.1458144259933 461.0805004109218 L444.51390764777443 469.42963369359194 L480.5329604290165 450.95755940063077 L495.00608403654667 456.86644555085843 L515.9521903630804 472.81535466433525 L536.4784928895716 457.11877037936983 L540.7641443693478 405.69095262381376 L568.0764665959259 287.3375563091483 L633.9697116252552 291.9347594507269 L666.7499999999649 300.92307692308066 L632.1587347924407 294.59967767211583 L635.2381987108657 253.02691477147238 L630.7142107117159 231.91497077531528 L654.47751854947 126.46529224470828 L606.3968397338471 112.32391612246073 L570.7162733556714 289.24005774749725 Z" stroke="red" stroke-width="0.5" fill="none" />
  <path d="M545.8288186659388 403.7565267683283 L560.5059726140382 407.58662072690504 L558.9481944311103 426.57892645146615 L558.740610433972 463.98556275848193 L543.5219805052327 464.30348145816794 L541.9266357825592 493.81735883138526 L561.1534136718177 613.98472064053 L571.4046457332245 635.7685887709528 L748.0107445451978 528.9835057684364 L579.1509800536687 647.1853409126747 L665.0648566739648 763.6787329402026 L687.6469480703662 817.8757522918698 L714.6291125707194 891.3272000980464 L716.5751407701038 895.2192564966685 L711.7499999999666 900.044397266606 L705.9114987469428 894.2058960135422 L684.8302115904659 818.9155847403493 L662.4334903504092 765.1634537640082 L599.6482708787454 679.0162921633523 L588.4380600508621 683.8206682324376 L579.0395902072021 677.5550216700108 L567.7678427515787 679.1652713065341 L554.1121463622289 657.9230769230879 L542.858344616377 657.9230769230879 L530.9838992559435 605.9723784712044 L474.86246756207606 617.9131086188304 L417.3421009263478 647.6650223959555 L399.85864056284015 636.0093821536925 L363.08630495263117 530.2889172741818 L380.0874444061009 484.95254539841363 L426.0782466589319 459.40209970234605 L444.4745589223231 467.7640598220754 L480.4617871673855 449.3083064802381 L495.75684307122003 455.55275974745274 L515.9502347436273 470.9285323829191 L535.038915612347 456.3313058361571 L539.2782887383873 405.4588283260306 L578.4570578955339 235.68416197841316 L605.9851969269658 110.5713519335414 L572.1825467097119 289.5570385791866 Z" stroke="purple" stroke-width="0.5" fill="none" />
  <path d="M354.92226299133733 455.4515863706164 L423.7062103586453 453.95628316698503 L419.2646309985548 302.9425849208576 L415.6429573180276 298.1136866804788 L368.0666471825589 309.6473376224139 L366.57793097582214 318.5796348632606 L341.42082530465245 326.4412303854878 L282.70783762401663 321.80599451596885 L287.2475061580104 170.48371005234247 L284.25000000005696 129.92307692307952 L290.25249384197593 170.36244379381435 L285.75000000010675 320.4455718603081 L285.75000000010675 428.56223973609644 L331.3750619670941 433.28207373269237 L314.78365860465374 511.7141623550457 L339.0866468986786 517.7899094285918 L354.7385239566836 456.9214986478596 Z" stroke="yellow" stroke-width="0.5" fill="none" />
  <path d="M538.3722568143412 598.8361753206804 L547.9732581128616 590.9420186974244 L573.4115333156353 639.5607340259367 L662.8107109369097 580.9131162742907 L579.8063439552692 645.9885399880314 L617.3962666370159 690.014091455635 L665.5204157673467 761.4483753211563 L688.5388774862378 814.2554345587237 L719.1247842767723 894.3185435103394 L723.4488437049436 902.9666623665753 L765.2878552756448 937.3344218711009 L822.5173249600459 1000.5880462592718 L855.5331701627722 1072.6226176103125 L882.2688049732363 1105.2995046008339 L999.1779071513207 1183.238906052939 L1105.9109994354799 1280.9523003976929 L1123.9823529417947 1309.5652767826602 L1143.5538169016722 1335.1587296532296 L1173.031603222796 1403.4230769230826 L1166.7551100343585 1403.4230769230826 L1137.9470102681921 1335.1933669501002 L1115.4645306154976 1306.715559390199 L1105.020021825922 1284.334469126842 L1001.8233305540036 1191.6070074042582 L917.9071412429352 1134.6638789432159 L880.2894550979802 1109.083852364565 L857.5036983185669 1086.2980955851651 L822.967665922647 1012.7213309152759 L775.1764596608979 952.9823230883292 L707.0009255114229 896.9268838986563 L710.1563901176178 887.4604900798454 L684.84541692996 821.9497359472448 L678.8727090731328 805.5247893410232 L651.9651147022643 753.2044669533076 L611.5574383873223 696.3344039913563 L559.264986362038 632.62176129365 L547.1810502692165 605.9177543725734 Z" stroke="black" stroke-width="0.5" fill="none" />
  <path d="M734.2210047450237 178.8728377456892 L737.2385743440191 231.68030572499038 L746.2947594450497 264.88631776306204 L736.9353700017456 307.00357025863696 L657.0414812426151 301.79309925259395 L623.7639371782677 294.230021056132 L573.4535944331043 290.7199971436756 L547.6182279989672 402.67325169092794 L562.1039589211563 406.45339262881146 L560.4478536677959 426.64449405201515 L560.2324805786196 465.4547247036221 L544.9446780187372 465.7740884264892 L543.8166961589275 486.64175283335646 L560.2811187115009 589.5443937877529 L546.7293696607811 608.5168424586993 L465.8197168063083 625.9679440547948 L417.14951779972864 651.1421849202545 L395.28857919947313 636.5682258535153 L358.3018642180491 530.2314202819612 L376.4551436206176 481.82267520881817 L425.87554335860034 454.3668975765523 L444.3565127461824 462.7673382072859 L480.24826738163995 444.36054771900695 L498.8615087505366 451.959703721385 L497.3950496905388 455.4581191256999 L496.8128870330446 445.35827394744246 L490.3023943967355 425.8114411034584 L492.8519036634782 415.6463009300968 L474.9472932503096 397.7416905169016 L464.19499739492665 367.0208452156818 L473.30998295720406 324.4842459242057 L482.7344505577713 300.92307692308066 L494.4161256380397 300.92307692308066 L503.34125662494955 225.05946353558608 L534.9354351597668 203.9966778455747 L537.9313109617101 192.0131746375751 L572.6077531186746 167.89043226765648 L593.3635031898632 130.53008213917064 L580.617199470268 133.0793428831243 L570.6476006416494 119.78654444513052 L572.1916796166227 112.06614957013119 L568.665163410742 103.24985905540302 L579.8429779106584 101.38688997207032 L605.6409131184637 108.97451797437378 L697.615970676182 131.59133540656876 Z" stroke="black" stroke-width="0.5" fill="none" />
</svg>
