<svg width="1049.9999999998977" height="1849.9999999999961" xmlns="http://www.w3.org/2000/svg" xmlns:xlink="http://www.w3.org/1999/xlink" >
  <g transform="translate(524.9999999999488 924.9999999999981) rotate(30) scale(10000 -10000) translate(-106.8125 6.592499999999999)">
    <path d="M106.76 -6.5 L106.865 -6.5 L106.865 -6.685 L106.76 -6.685 Z" fill="none" stroke="black" stroke-width="0.0005" transform="translate(106.8125 -6.592499999999999) rotate(30) translate(-106.8125 6.592499999999999)" />
    <path d="M106.79729549548222 -6.592888106619425 L106.79839737675165 -6.593388961741896 L106.80080925511588 -6.592152049805307 L106.80185605060231 -6.592579420946439 L106.80297511649319 -6.593431506766463 L106.8044955418973 -6.595864187413028 L106.80530522822882 -6.600924726984997 L106.80475889226469 -6.60168959733476 L106.79963342719711 -6.602795089800317 L106.79893626832539 -6.603143669236175 L106.79978363639641 -6.604744253370326 L106.80257244640634 -6.608130665525248 L106.80657238952698 -6.611730614333806 L106.81037204923844 -6.616330202405584 L106.81469655901003 -6.620139889585327 L106.81249736657357 -6.620872953730816 L106.81239681957096 -6.623587722800827 L106.81018059378877 -6.623889935407492 L106.80998763765602 -6.624661759938502 L106.80928725821175 -6.625128679568002 L106.8092 -6.625041421356244 L106.8092 -6.625030699953182 L106.80997645091462 -6.625321869046161 L106.81025884469253 -6.626027853490924 L106.80953432169777 -6.625907099658466 L106.80944142135623 -6.626 L106.80978571650581 -6.626344295149575 L106.81033690507762 -6.627777385436309 L106.80858701443081 -6.6280861896681 L106.80847769681024 -6.628742095391611 L106.80772283721831 -6.62841858413793 L106.80732451121735 -6.628816910138889 L106.80312719407557 -6.62717893271771 L106.80132604011855 -6.623476560694931 L106.8003933002783 -6.623062009654821 L106.80049268429435 -6.622068169494341 L106.7989 -6.6214 L106.80070731570565 -6.621931830505659 L106.80059337599585 -6.623071227603733 L106.79916119308157 -6.623622067186144 L106.79857408319872 -6.62274140236187 L106.79787069636252 -6.623243821530581 L106.79670542110395 -6.621337007471088 L106.7963970505398 -6.619795154650361 L106.79703012893617 -6.6176848933291454 L106.79918550927285 -6.618095441964703 L106.7997315258351 -6.617822433683583 L106.80132822475369 -6.615427385305687 L106.8032596479146 -6.6141719602510864 L106.80203268252079 -6.612378703137037 L106.79994490476477 -6.611384523253219 L106.79634968125181 -6.608288636339274 L106.79477683656475 -6.607764354776924 L106.79530948886536 -6.605953336954857 L106.79638221877342 -6.604588044344596 L106.79600767074996 -6.603838948297687 L106.79362330771394 -6.596983904569126 L106.78967314970328 -6.595996365066462 L106.78839110574813 -6.595601890003338 L106.78753694187003 -6.5957086604881 L106.78645489397793 -6.593111745547017 L106.78769665999644 -6.593008265045474 L106.78759596137805 -6.5901887037305755 L106.7907208353989 -6.59051196656032 L106.78961778862016 -6.5957263695143995 L106.79142788822996 -6.59617889441685 L106.79232116673207 -6.592705033575341 L106.794 -6.592593111357478 L106.794 -6.593223606797746 L106.79372802679774 -6.59376755320226 L106.79460610858331 -6.59438221045215 Z" stroke="blue" stroke-width="0.0001" fill="none" />
    <path d="M106.7896462994065 -6.596092730132905 L106.78838221149626 -6.595703780006676 L106.78804914527775 -6.5957454132839874 L106.78457382912917 -6.595397881669129 L106.78262190537603 -6.59451951598021 L106.78073432169776 -6.5964070996584665 L106.77949527668831 -6.596200592156889 L106.77927495029147 -6.596216329756664 L106.77206192871604 -6.587824130704658 L106.77169968212988 -6.585970752741585 L106.77102152037209 -6.584950570097282 L106.76727417765039 -6.580388975269536 L106.76354893635033 -6.5806202519076695 L106.75325296874794 -6.576316619825648 L106.75123348477135 -6.5735830296593765 L106.755373 -6.571011 L106.75152051522866 -6.573634970340624 L106.75338103125205 -6.576153380174352 L106.76358306364966 -6.58041774809233 L106.76736382234961 -6.580183024730464 L106.77118247962791 -6.5848314299027155 L106.77188831787012 -6.585893247258414 L106.77224807128395 -6.587733869295343 L106.77936104970854 -6.596009670243336 L106.77950472331169 -6.595999407843111 L106.78066567830223 -6.596192900341534 L106.78257809462397 -6.594280484019791 L106.78462617087082 -6.595202118330871 L106.78733021793208 -6.595472523036997 L106.78630978795586 -6.5930234910940335 L106.7878518246497 -6.592894988036212 L106.78848333104713 -6.595421013625977 L106.7897268502967 -6.595803634933538 L106.79363769514828 -6.596781346146429 L106.79457346973183 -6.5942859472569655 L106.79729099096444 -6.592776213238853 L106.79839475350329 -6.593277923483788 L106.80080451023176 -6.592042099610611 L106.80190610120458 -6.592491841892864 L106.8030502329864 -6.593363013532948 L106.80459108379459 -6.595828374826056 L106.80541045645762 -6.60094945397001 L106.8048177845294 -6.601779194669511 L106.79966685439425 -6.602890179600623 L106.7990725366508 -6.603187338472351 L106.79986727279284 -6.604688506740649 L106.80264489281271 -6.608061331050502 L106.80664477905391 -6.611661228667569 L106.81044409847688 -6.6162604048111655 L106.81489311802008 -6.620179779170653 L106.81259473314714 -6.620945907461633 L106.81249363914195 -6.623675445601654 L106.81026118757754 -6.623979870814983 L106.81007527531203 -6.624723519877014 L106.80934189146734 -6.625212442440132 L106.80880381156027 -6.624539842556278 L106.80850704679523 -6.621868959670897 L106.80782113912602 -6.6215749992412345 L106.80681345171524 -6.618854243232139 L106.80441801439981 -6.616358996028567 L106.80370983285266 -6.6150070130749095 L106.80196536504155 -6.612457406274063 L106.79988980952955 -6.611469046506438 L106.7962993625036 -6.608377272678547 L106.79465367312949 -6.607828709553844 L106.79521897773068 -6.605906673909771 L106.79626443754684 -6.604576088689203 L106.79584120889243 -6.603729631380364 L106.77004143231558 -6.5842141511302765 L106.79483495879899 -6.597389894981024 Z" stroke="orange" stroke-width="0.0001" fill="none" />
    <path d="M106.78961944910981 -6.596189095199376 L106.78837331724438 -6.595805670010013 L106.78805038734728 -6.595846036247151 L106.78454765825836 -6.595495763338258 L106.78264381075205 -6.59463903196042 L106.78076864339553 -6.596514199316933 L106.77949055337662 -6.59630118431378 L106.77923190058294 -6.596319659513328 L106.7719688574321 -6.587869261409315 L106.77156528008497 -6.585804421076529 L106.76734875885292 -6.580484537528774 L106.76353187270067 -6.5807215038153375 L106.75318893749589 -6.576398239651296 L106.75108996954268 -6.573557059318746 L106.755373 -6.571011 L106.75166403045733 -6.573660940681255 L106.7534450625041 -6.576071760348703 L106.76360012729933 -6.580316496184662 L106.7674086446992 -6.580080049460929 L106.7712629592559 -6.584771859805524 L106.77198263574024 -6.585854494516798 L106.7723411425679 -6.5876887385906855 L106.77940409941706 -6.595906340486671 L106.77950944662338 -6.59589881568622 L106.78063135660446 -6.596085800683068 L106.78255618924796 -6.5941609680395805 L106.78465234174163 -6.595104236661742 L106.78717347934243 -6.59535635042182 L106.78616468193378 -6.59293523664105 L106.7879282239822 -6.592788274803679 L106.78856666209427 -6.595342027251949 L106.78975370059351 -6.5957072698670975 L106.79357539029655 -6.596662692292858 L106.7944927519366 -6.59421639458608 L106.79728648644664 -6.592664319858281 L106.79839213025492 -6.5931668852256875 L106.80079976534765 -6.591932149415919 L106.80182939599476 -6.592352512734548 L106.80201083498969 -6.5919196680734204 L106.80196992956778 -6.591210006567479 L106.80154091314655 -6.589921945472679 L106.80171093559736 -6.589244049507603 L106.80234008528745 -6.588719758099185 L106.80296565799485 -6.588302709627584 L106.80411371012943 -6.588198341251714 L106.80500593612159 -6.588532925998776 L106.80469977558054 -6.59220685249123 L106.80455157774006 -6.5949485125402365 L106.80560339264419 -6.601522355691068 L106.80684322701032 -6.604157003719095 L106.81360579432322 -6.600068009529896 L106.80724725575237 -6.604518986529508 L106.80997999497603 -6.607739714900264 L106.81150180991428 -6.610022437307599 L106.80867187735439 -6.606720849321066 L106.8079896020017 -6.607013253043644 L106.80737631967358 -6.60660439815823 L106.8066505947584 -6.606708073146115 L106.80574540487875 -6.6053 L106.80502027815388 -6.6053 L106.80422446330853 -6.601818310051603 L106.8004117832393 -6.602629518576971 L106.79384268445892 -6.6059140679671735 L106.79730107418311 -6.604030320714552 L106.79669128689319 -6.604314376304638 L106.79587874502313 -6.6037726817246005 L106.7935858831005 -6.597180703697048 Z" stroke="blue" stroke-width="0.0001" fill="none" />
    <path d="M106.80277657494287 -6.611411323592184 L106.80374602213959 -6.610334260521959 L106.80112135247738 -6.60854936701199 L106.80119329958156 -6.6081387420759565 L106.80046927310244 -6.608161088572226 L106.79891438661558 -6.606916768037106 L106.79726786127355 -6.604156109697084 L106.79670193706697 -6.604419732663823 L106.79658490317422 -6.604653800449314 L106.79549051113464 -6.606046663045143 L106.79502316343525 -6.607635645223077 L106.7964503187482 -6.6081113636607265 L106.80005509523522 -6.61121547674678 L106.8021673174792 -6.612221296862963 L106.80348585311226 -6.614148387403581 L106.8045819856002 -6.6162410039714326 L106.8069866661256 -6.618745879518734 L106.80930000000001 -6.625054971903484 L106.80930000000001 -6.62496139990637 L106.81005290182921 -6.625243738092322 L106.81041768938503 -6.626155706981847 L106.80956864339554 -6.626014199316933 L106.80958284271247 -6.626 L106.80987143301162 -6.626288590299149 L106.81033779660808 -6.627501135649937 L106.81005237969792 -6.629070928655869 L106.81056720990081 -6.630092905028778 L106.81252137977528 -6.6322499229580325 L106.8135359639948 -6.636533722996098 L106.81355443567865 -6.636547576758979 L106.8149289594576 -6.638380940115825 L106.81558674544527 -6.63876719204778 L106.8155742399847 -6.639731074470215 L106.81675668608408 -6.639791885983897 L106.8196777920274 -6.644720434695707 L106.8268866120911 -6.650519720051213 L106.828859299332 -6.650674360825127 L106.83099974207028 -6.656643695031435 L106.83151305416835 -6.656939591881357 L106.83135736380467 -6.657791309753282 L106.8336652463084 -6.659886201836309 L106.83664260490723 -6.660218137085501 L1385355392679.3735 -2336656876254.5747 L106.83652139509279 -6.6604058629145 L106.83357875369161 -6.660077798163693 L106.83114063619533 -6.6578646902467185 L106.83129094583164 -6.657042408118642 L106.83083625792972 -6.6567803049685645 L106.82871470066802 -6.650863639174874 L106.8268093879089 -6.650714279948786 L106.8195242079726 -6.644853565304293 L106.81663931391593 -6.639986114016103 L106.8153717600153 -6.639920925529785 L106.81538525455474 -6.638880807952219 L106.81479304054238 -6.638533059884175 L106.81341156432136 -6.636690423241021 L106.8133580360052 -6.636650277003903 L106.81233862022474 -6.632346077041967 L106.8104007900992 -6.630207094971224 L106.80984362030209 -6.629101071344131 L106.81009659447408 -6.627709713398151 L106.8096142834942 -6.626455704850426 L106.80915857864376 -6.626 L106.80946567830223 -6.625692900341534 L106.80994115530748 -6.6257721465090755 L106.80982354908538 -6.625478130953839 L106.809 -6.625169300046817 L106.809 -6.624817755369251 L106.80689899902404 -6.619087752707561 L106.80433602879961 -6.616417992057104 L106.8036239797404 -6.615058625671332 L106.80188894346361 -6.6125228034206485 L106.80237578097778 -6.61145119314892 Z" stroke="blue" stroke-width="0.0001" fill="none" />
    <path d="M106.85389395949188 -6.5902278461441774 L106.85224932325148 -6.587565448285967 L106.85290936272932 -6.586839866426415 L106.84844520125353 -6.5854517852095675 L106.84367018022161 -6.58695666432392 L106.84131146975274 -6.58886734035109 L106.8364974002192 -6.589094918176851 L106.83562704026826 -6.590061650163886 L106.81862916564836 -6.589436640347636 L106.81860396861855 -6.590345671654081 L106.81680761598287 -6.590893448321995 L106.81665280316261 -6.590037773628594 L106.816739476393 -6.590848285458576 L106.8160750327861 -6.590957940367555 L106.81563334943183 -6.5915715541550375 L106.81445063003682 -6.5919685727360955 L106.8085874195288 -6.591763537123153 L106.80819306032151 -6.591359219350038 L106.8057413653151 -6.591371963066584 L106.80580551986313 -6.591362798131153 L106.80580045800964 -6.592274944129676 L106.80479510569853 -6.592295946039899 L106.80465200805023 -6.594943252533663 L106.80559842317598 -6.600858347069649 L106.80487667679411 -6.601868792004271 L106.79895562773785 -6.6031458810164025 L106.7965920650411 -6.604368413445763 L106.79579532924244 -6.603837256246666 L106.79338103728436 -6.5968961668671655 L106.79441203414135 -6.5941468419152125 L106.79728198192886 -6.592552426477709 L106.79838950700656 -6.593055846967579 L106.80079502046351 -6.591822199221226 L106.80165030439785 -6.592171382682321 L106.80306458525213 -6.593248252839197 L106.80456219115645 -6.592103024794711 L106.80560367937805 -6.592008344047294 L106.80568404210061 -6.591269948588673 L106.80573374010747 -6.591222000675446 L106.80827693967848 -6.5911587806499625 L106.8086745804712 -6.5915664628768456 L106.81442136996318 -6.591767427263904 L106.81550865056818 -6.591402445844962 L106.8159609672139 -6.5907740596324444 L106.81652052360701 -6.590681714541424 L106.81586719683739 -6.5845722263714075 L106.81696438401713 -6.590636551678005 L106.81840803138145 -6.590196328345921 L106.81843483435165 -6.5892293596523634 L106.83554095973173 -6.589858349836113 L106.83640459978078 -6.58889908182315 L106.84123653024726 -6.58867065964891 L106.84357381977838 -6.586777335676079 L106.84844479874647 -6.585242214790431 L106.85326863727067 -6.586742133573584 L106.85249867674851 -6.587588551714032 L106.85401804050811 -6.590048153855822 L106.85997022069424 -6.591200443760693 L106.865159 -6.589352 L106.85998777930575 -6.591407556239307 Z" stroke="pink" stroke-width="0.0001" fill="none" />
    <path d="M106.81372707679263 -6.600557769072874 L106.8172 -6.5982 L106.81379265736243 -6.600756706530656 L106.81309298982166 -6.605454474304427 L106.81011415132072 -6.607760671853533 L106.81099993019882 -6.609089340170672 L106.79970398126072 -6.6028713866267665 L106.79658564560354 -6.604484318863239 L106.79571191346173 -6.6039018307687085 L106.79327471637914 -6.596894889156241 L106.79433131634612 -6.594077289244327 L106.79727747741107 -6.592440533097134 L106.79838688375821 -6.5929448087094755 L106.8007902755794 -6.591712249026533 L106.80170035500015 -6.592083803628759 L106.80297546541992 -6.593054705803955 L106.80495886201234 -6.596228140351823 L106.8057036514048 -6.600883074054662 L106.80501688710504 -6.6018445440743205 L106.80676252796825 -6.604088939469876 L106.81611158864635 -6.598436019059859 L106.80739451150473 -6.604537973059011 L106.80999354088361 -6.6076011148269895 L106.81290701017835 -6.605345525695574 L106.81359552802053 -6.60072262018383 L106.81255802149215 -6.5990271625639085 L106.81264197850786 -6.598972837436092 Z" stroke="yellow" stroke-width="0.0001" fill="none" />
    <path d="M106.79717107380579 -6.592385250320727 L106.79660010324056 -6.58020454492929 L106.79629867203904 -6.573372104361537 L106.79862760225387 -6.5698280801215745 L106.80013079923344 -6.568825948801867 L106.80111579565553 -6.567545453453127 L106.80186534740275 -6.566153428779727 L106.80561316533492 -6.568787030569894 L106.80709217304494 -6.568195427485887 L106.80894599317057 -6.568631620456625 L106.80875528473068 -6.569013037336406 L106.80816951715101 -6.568895883820476 L106.80729892665872 -6.5685089547127875 L106.80546315442432 -6.569281911443069 L106.80447945861685 -6.570560715992769 L106.79818657070386 -6.5788513461003575 L106.79690063091981 -6.58171998100324 L106.7972036968112 -6.592024221310211 L106.79390857234347 -6.591325255514026 L106.7941 -6.594196670362373 L106.7941 -6.5932472135954905 L106.79390579223927 -6.593635629116948 L106.79346568542492 -6.594075735931313 L106.79303333333334 -6.594399999999999 L106.79268599450553 -6.594399999999999 L106.79207410161523 -6.594225173459913 L106.79161874711403 -6.59622873326518 L106.79325080933687 -6.596673841144136 L106.79425059855087 -6.594007736573451 Z" stroke="lightgrey" stroke-width="0.0001" fill="none" />
    <path d="M106.80501929395554 -6.588527781661506 L106.80601053242047 -6.588786451460127 L106.80591323567965 -6.589972685461855 L106.80589991601929 -6.5923728882593515 L106.80488995219945 -6.592393986504453 L106.80477801207533 -6.594464878800461 L106.8058088796336 -6.600907801039659 L106.80508084011464 -6.601927056366198 L106.7993630837802 -6.603160297928528 L106.79657922616599 -6.604600224280712 L106.79562849768105 -6.6039664052907625 L106.7931170029702 -6.596745857997073 L106.79416988075565 -6.593938183902565 L106.79715972096173 -6.592277161565856 L106.79838426050985 -6.592833770451367 L106.80078553069526 -6.591602298831837 L106.80175040560243 -6.591996224575185 L106.80314681269087 -6.59305948518275 L106.8045152328593 -6.592013046230419 L106.80480094295795 -6.588584525046715 L106.80662176443973 -6.580694298625738 L106.81101464744168 -6.581000778835176 L106.8132 -6.5816 L106.81089391565283 -6.581178440049936 L106.81109921324739 -6.578406922523226 L106.81079761404744 -6.576999459590149 L106.81238183456996 -6.569969481021442 L106.80917645598225 -6.569026722613292 L106.80679775155704 -6.580821132054961 Z" stroke="red" stroke-width="0.0001" fill="none" />
    <path d="M106.80513858791106 -6.588455563323016 L106.80611706484093 -6.588710902920255 L106.80601321296207 -6.589977056635226 L106.80599937402893 -6.592470832389027 L106.80498479870035 -6.592492026969006 L106.8048784423855 -6.594459618793887 L106.80616022757812 -6.60247077624783 L106.80684364304888 -6.603923034123191 L106.81861738296968 -6.59680402858969 L106.80736006533691 -6.6046841509326395 L106.8130876571116 -6.612450377067808 L106.81459312987135 -6.6160635116912525 L106.81639194083805 -6.620960274878331 L106.81652167605134 -6.621219745304906 L106.8162 -6.621541421356235 L106.81581076658313 -6.621152187939364 L106.81440534743936 -6.6161328338544845 L106.81291223269002 -6.612549358456062 L106.80872655139191 -6.606806214349351 L106.80797920400339 -6.60712650608729 L106.80735263934714 -6.606708796316462 L106.80660118951677 -6.60681614629223 L106.80569080975748 -6.6054 L106.80494055630776 -6.6054 L106.80414892661706 -6.601936620103208 L106.80040749783747 -6.6027326687797165 L106.79657280672842 -6.6047161296981916 L106.79554508190037 -6.604030979812829 L106.79301068206499 -6.596744580286108 L106.7940891629604 -6.593868631231689 L106.79715521644393 -6.592165268185284 L106.79838163726149 -6.592722732193266 L106.80078078581116 -6.591492348637144 L106.80180045620475 -6.591908645521625 L106.80314668231624 -6.592933697030656 L106.80441926104082 -6.591960548594205 L106.80470188591589 -6.58856905009353 L106.8073138038597 -6.577250739003689 L106.80914901312846 -6.568909885000697 L106.80689550311398 -6.580842264110407 Z" stroke="purple" stroke-width="0.0001" fill="none" />
    <path d="M106.78968787321875 -6.595948507125008 L106.79302485665937 -6.59642198124292 L106.79400844516516 -6.593799078560813 L106.79715071192615 -6.5920533748047125 L106.79837901401312 -6.592611693935159 L106.80077604092703 -6.591382398442448 L106.80185050680706 -6.591821066468064 L106.80275081379382 -6.592506583579568 L106.80532664023008 -6.5966279058775585 L106.80599684635196 -6.600816694139298 L106.80513973237935 -6.602016653700957 L106.79937389644476 -6.603260265373121 L106.79925560639897 -6.603319410396011 L106.79995090918925 -6.6046327601109756 L106.80271733921906 -6.60799199657575 L106.80671716858087 -6.611591843001379 L106.81051614771532 -6.61619060721675 L106.81616150960039 -6.621163902210751 L106.81592054652478 -6.620991785728167 L106.81616774671429 -6.620929985680789 L106.8143495366578 -6.615980413860372 L106.81773968875378 -6.616404182872367 L106.81867196491498 -6.617129286553309 L106.8195 -6.6184 L106.81852803508502 -6.6172707134466915 L106.81766031124623 -6.616595817127633 L106.81476212437438 -6.616233543768652 L106.81648388167613 -6.62092054975677 L106.81664335210266 -6.621239490609813 L106.8162 -6.62168284271247 L106.81534016676973 -6.6208230094822 L106.8146845493412 -6.620354711318953 L106.8126920997207 -6.621018861192448 L106.81259045871292 -6.62376316840248 L106.81034178136632 -6.624069806222474 L106.81016291296805 -6.624785279815516 L106.80932107769513 -6.625346503330793 L106.80870762312054 -6.624579685112554 L106.80841409359046 -6.621937919341793 L106.80774227825205 -6.621649998482475 L106.80681397741769 -6.619143586229706 L106.80425404319942 -6.6164769880856715 L106.80353812662817 -6.615110238267836 L106.80171832402843 -6.612450526775914 L106.79983471429429 -6.611553569759658 L106.7962490437554 -6.608465909017814 L106.79453050969424 -6.607893064330767 L106.79512846659605 -6.605860010864627 L106.79614665632026 -6.6045641330338 L106.79443149274562 -6.6011338058844995 L106.79304535097971 -6.597148648307488 Z" stroke="silver" stroke-width="0.0001" fill="none" />
    <path d="M106.815 -6.6175 L106.81306233537038 -6.612925096666296 L106.80869268244368 -6.606929526371535 L106.80796880600509 -6.607239759130934 L106.80732895902072 -6.606813194474693 L106.80655178427516 -6.606924219438346 L106.80563621463622 -6.6055 L106.80486083446164 -6.6055 L106.80402974241744 -6.601863972306694 L106.80001502878356 -6.602776407223486 L106.80029161136612 -6.6043437085245795 L106.80186992135965 -6.605527441019738 L106.80358025746494 -6.607640209149793 L106.80492939532867 -6.609612026027561 L106.8046396085637 -6.609901812792532 L106.8120287252206 -6.617685015671127 L106.81227895500373 -6.617601605743416 L106.81331665419052 -6.617497835824737 L106.81514127094405 -6.61831891336383 L106.81522860751649 -6.618610035271921 L106.8126361515979 -6.612128895475443 L106.8105 -6.6087 L106.81303575966955 -6.612372409651051 L106.81492571063274 -6.611477169721114 L106.81689679975025 -6.61374392220625 L106.81724581655652 -6.613307651198409 L106.81793432169776 -6.6131929003415335 L106.81823286747164 -6.613491446115401 L106.81876695230494 -6.613384629148744 L106.81886695230493 -6.613684629148744 L106.81917483915156 -6.613623051779419 L106.8186796664675 -6.611840430116858 L106.81969090450595 -6.611435934901483 L1441474662775.4346 -11171428635717.18 L106.81988363081135 -6.611366713807544 L106.82037693149536 -6.611202280246208 L106.8211 -6.6112 L106.82042306850465 -6.611397719753792 L106.81991537085125 -6.611566952304924 L106.82019113546961 -6.612945775396744 L106.8207 -6.6135 L106.82000886453038 -6.613054224603258 L106.81972551876756 -6.611637495789117 L106.81892033353249 -6.611959569883143 L106.81942516084844 -6.613776948220581 L106.81873304769506 -6.613915370851257 L106.81863304769507 -6.613615370851257 L106.81816713252837 -6.613708553884598 L106.81786567830223 -6.613407099658466 L106.81735418344348 -6.613492348801592 L106.81690320024975 -6.61405607779375 L106.81487428936725 -6.611722830278886 L106.81312775727737 -6.612550134953046 Z" stroke="brown" stroke-width="0.0001" fill="none" />
    <path d="M106.79241148419942 -6.591901900629836 L106.79699708069057 -6.5918022137495935 L106.7967009753999 -6.581734633866518 L106.79645894380272 -6.581411925070294 L106.79331725761816 -6.582128129540155 L106.79318633371753 -6.582777789804611 L106.79151138835364 -6.583301210230827 L106.78759718917493 -6.582992194506192 L106.78789983374386 -6.572904042208617 L106.7877 -6.5702 L106.78810016625613 -6.572895957791382 L106.7878 -6.582901499662482 L106.7878 -6.590109277520868 L106.7908416707978 -6.590423933120641 L106.78973557724031 -6.595652739028798 L106.79135577645991 -6.596057788833701 L106.79239923493044 -6.591999894781652 Z" stroke="yellow" stroke-width="0.0001" fill="none" />
    <path d="M106.81777937750756 -6.616308365744738 L106.81874392982994 -6.617058573106591 L106.81962764400447 -6.6182368586726295 L106.82031422072558 -6.617944091995324 L106.82806344720056 -6.624864664357842 L106.82901 -6.627059 L106.82786846371054 -6.624920753904183 L106.82961862254778 -6.622010629816579 L106.83373286612695 -6.618479420755315 L106.83707137772794 -6.6130060921413 L106.838754 -6.605049 L106.83726062227205 -6.6130799078587 L106.83388713387305 -6.618610579244684 L106.82977337745221 -6.62214137018342 L106.82800545928443 -6.625081024079693 L106.82027577927443 -6.618177908004676 L106.81937235599554 -6.618563141327371 L106.81845607017007 -6.617341426893411 L106.81762062249244 -6.616691634255263 L106.8146864963808 -6.616324868491308 L106.815 -6.6175 L106.81505669656264 -6.617956071750336 L106.81298963924658 -6.612995134191779 L106.80865881349544 -6.607052838393714 L106.80795840800678 -6.607353012174573 L106.8073052786943 -6.606917592632921 L106.80650237903352 -6.607032292584461 L106.80558161951494 -6.6056 L106.80478111261552 -6.6056 L106.80397556822307 -6.602075743283007 L106.80044147957419 -6.602827677038088 L106.79656638729087 -6.604832035115669 L106.7953238269235 -6.60400366153743 L106.79279804025457 -6.5967420248642386 L106.79392772736993 -6.593729525889926 L106.79714620740836 -6.591941481424137 L106.79837639076477 -6.592500655677055 L106.80077129604291 -6.5912724482477545 L106.80190055740933 -6.59173348741449 L106.80282593028703 -6.592438090346051 L106.80542218212737 -6.596592093290585 L106.80610207458076 -6.600841421124311 L106.80526971434105 -6.6020067254599075 L106.80672505593648 -6.603877878939745 L106.82112317729279 -6.595172038119653 L106.80760674511967 -6.604633540640858 L106.81013998492803 -6.607619144700713 L106.80165287010526 -6.594888472466679 L106.81317739762126 -6.612405754291016 L106.81463997518956 -6.6159159404549905 Z" stroke="orange" stroke-width="0.0001" fill="none" />
    <path d="M106.8126872782839 -6.623850891203307 L106.81042237515507 -6.624159741629969 L106.81025055062405 -6.6248470397540276 L106.8093002639229 -6.625480564221447 L106.80861143468081 -6.624619527668832 L106.8083211403857 -6.622006879012695 L106.80766341737807 -6.621724997723709 L106.80672742913293 -6.619197829461845 L106.80417205759923 -6.616535984114239 L106.8026380133331 -6.613607354151631 L106.80094715362524 -6.611984713567441 L106.79554973513423 -6.614006101683036 L106.79336838946357 -6.6074173816126 L106.79275790349195 -6.605266652111956 L106.79210932965856 -6.605280717568583 L106.79219476221121 -6.606641942907446 L106.79182040425573 -6.607261649307607 L106.78778250342347 -6.606799585559753 L106.78757995178601 -6.606297123210491 L106.78650867961052 -6.603902107136043 L106.7829498923956 -6.601010144820194 L106.78298307308523 -6.601020957004691 L106.77943942087288 -6.601218052348775 L106.77923361674836 -6.596475073423775 L106.77187578614814 -6.587914392113974 L106.77146103586148 -6.585792387184636 L106.77094104074409 -6.585010140194478 L106.76730766916909 -6.580587281060734 L106.763514809051 -6.580822755723007 L106.75312490624381 -6.576479859476937 L106.750946454314 -6.573531088978127 L106.755373 -6.571011 L106.751807545686 -6.573686911021873 L106.75350909375618 -6.5759901405230625 L106.76361719094899 -6.580215244276992 L106.76745346704881 -6.579977074191393 L106.77134343888382 -6.584712289708244 L106.77207695361038 -6.585815741775212 L106.77243421385185 -6.587643607886028 L106.77940238325165 -6.595750926576224 L106.77963057912712 -6.6010099476512245 L106.78297892691478 -6.60092104299531 L106.7830121076044 -6.600931855179807 L106.78667132038949 -6.603775892863957 L106.78776404821399 -6.606218876789509 L106.78792349657652 -6.606614414440247 L106.79171559574428 -6.607048350692392 L106.79199123778878 -6.606592057092554 L106.79189667034143 -6.605085282431418 L106.79290809650806 -6.605063347888046 L106.79354382627824 -6.607303010770935 L106.79583471029756 -6.607800751588504 L106.79650063749641 -6.608022727321453 L106.80011019047046 -6.611130953493562 L106.80557912594713 -6.613735208482461 L106.80139605056215 -6.612138303707488 L106.80370800382494 -6.614356979317037 L106.8046639712004 -6.616182007942895 L106.80706256660955 -6.6186805448274235 L106.80919758590024 -6.618433779261649 L106.81032939485753 -6.616241431272007 L106.8127794839646 -6.621361337824602 Z" stroke="pink" stroke-width="0.0001" fill="none" />
    <path d="M106.7549154299928 -6.569129841081834 L106.75173790144865 -6.565887075849295 L106.74942954179642 -6.5610431399588505 L106.74914159033813 -6.55965705103962 L106.75038481078526 -6.556826103274435 L106.75022104574134 -6.556265229212073 L106.74817064965748 -6.556073161702501 L106.74810674237858 -6.555604841174385 L106.74509338472862 -6.555348043718195 L106.74502544432761 -6.552763172769153 L106.74533287635764 -6.552066599199466 L106.74579080877878 -6.550504540829534 L106.74624233343091 -6.5501841685708175 L106.74659229642633 -6.549039358114562 L106.74655324893659 -6.548207555774976 L106.73461423062255 -6.543929142587539 L106.72870268185316 -6.543636016039936 L106.72868421308966 -6.5450985662157395 L106.73093236144533 -6.545202357037037 L106.73262203697 -6.547586080209975 L106.73189591472402 -6.550949172717619 L106.74557548173172 -6.552012237289153 L106.74522655567239 -6.552802827230845 L106.74528861527139 -6.555163956281805 L106.74828325762141 -6.555419158825615 L106.74834735034253 -6.555888838297499 L106.75037495425866 -6.556078770787927 L106.75059718921473 -6.556839896725565 L106.74935040966187 -6.55967894896038 L106.7496204582036 -6.560978860041149 L106.75190409855136 -6.565770924150705 L106.7550585700072 -6.568990158918171 L106.75633962889216 -6.570308365326733 L106.75375664752016 -6.572538978959834 L106.75195106091466 -6.573712881362504 L106.75357312500823 -6.575908520697414 L106.76363425459867 -6.5801139923693235 L106.76749828939842 -6.579874098921858 L106.77143880124994 -6.584670836187588 L106.77434910892676 -6.583681099538222 L106.77706979477955 -6.583828672232822 L106.77798111996084 -6.582884799723639 L106.77703624441178 -6.581841030464275 L106.77732877809754 -6.58114113678619 L106.78484957809435 -6.587832952209533 L106.7861008813886 -6.590143358612036 L106.78614070370001 -6.590182790508626 L106.7878289248851 -6.589310875154476 L106.78787977623732 -6.593292654290992 L106.78756135715925 -6.592628961513767 L106.7864505806682 -6.593170135069268 L106.78592701137259 -6.591336087378273 L106.78505276236412 -6.591027150305338 L106.7853892666011 -6.5903717204109045 L106.78588033701882 -6.590156107055451 L106.78469042190564 -6.5879590477904655 L106.77740522190246 -6.58147686321381 L106.77726975558822 -6.581800969535724 L106.77825488003917 -6.5828892002763615 L106.77715020522044 -6.5840333277671785 L106.77437689107323 -6.583882900461779 L106.7708663546828 -6.585076762730104 L106.76726284681948 -6.580690256330269 L106.76349774540132 -6.580924007630676 L106.75306087499176 -6.576561479302585 L106.75080293908535 -6.573505118637496 L106.75698935247985 -6.569483021040167 L106.75604837110782 -6.570295634673267 Z" stroke="brown" stroke-width="0.0001" fill="none" />
    <path d="M106.79485504662956 -6.588688669343054 L106.79455516104719 -6.5907388871079355 L106.79335025446552 -6.5907128242367845 L106.79331206009725 -6.590924675666147 L106.7969938014063 -6.590853963605152 L106.7967000602668 -6.581703482046937 L106.79638480994626 -6.5733152131677475 L106.79880573452834 -6.56985230820422 L106.79893491422717 -6.56916935816858 L106.8018046157323 -6.565221647054555 L106.80186564072248 -6.562010206946709 L106.79710026498906 -6.562992697992983 L106.77842330377703 -6.556127804515448 L106.77631081588403 -6.554137132358706 L106.7698582269456 -6.537326176779216 L106.76769642501901 -6.533923358887378 L106.75945 -6.520573 L106.767865574981 -6.53381664111264 L106.7700377730544 -6.537235823220785 L106.77648118411598 -6.554022867641295 L106.77853069622296 -6.555954195484552 L106.79711573501093 -6.5627853020070175 L106.80193672164603 -6.56179134550324 L106.802644 -6.561578 L106.80206678676812 -6.561951796360708 L106.80200338426769 -6.565288352945444 L106.79912308577283 -6.56925064183142 L106.79899426547166 -6.56993169179578 L106.79658719005374 -6.573374786832252 L106.79691209841705 -6.582020039620276 L106.77635578368964 -6.554109709398864 L106.77643896910462 -6.554054433301967 L106.79714613955456 -6.588758507025481 Z" stroke="lightgrey" stroke-width="0.0001" fill="none" />
    <path d="M106.78754246789086 -6.560017290151566 L106.79714030493786 -6.588858375620808 L106.79494109325914 -6.588791338686107 L106.79464132209438 -6.590840774215871 L106.79343350893105 -6.59081464847357 L106.7934321201945 -6.590822351332292 L106.79689060281261 -6.590755927210305 L106.79660012053358 -6.581706964093863 L106.79628361989252 -6.573285426335497 L106.7987114690567 -6.569812616408442 L106.79884082845433 -6.569128716337187 L106.8017052314646 -6.565188294109151 L106.80176328144495 -6.562133413893425 L106.79730647466873 -6.563052286401607 L106.78735469697469 -6.56009563633459 L106.78825217605304 -6.558200260938339 L106.78808721181673 -6.553682625889022 L106.78751136523749 -6.548742677772983 L106.78629508285586 -6.546857728300026 L106.78566043898239 -6.546988120620735 L106.78390798894888 -6.54306320344269 L106.78345523567909 -6.541947908211315 L106.7826456302212 -6.541425845246026 L106.78240548404371 -6.537889794539389 L106.78272680974729 -6.535784213065634 L106.78249084900848 -6.534280499630128 L106.78924238650167 -6.534366500032784 L106.79018891919819 -6.5334910824912384 L106.79584119814785 -6.533765426501938 L106.7960329876504 -6.531414266071634 L106.79640850918055 -6.531370026548904 L106.7965165660869 -6.53087518651047 L106.800305 -6.530774 L106.79667943391311 -6.53106681348953 L106.79657349081945 -6.531551973451096 L106.7962190123496 -6.531593733928366 L106.79602480185216 -6.533974573498064 L106.79026308080182 -6.533694917508761 L106.78931961349834 -6.534567499967216 L106.78272515099151 -6.534483500369871 L106.7829291902527 -6.535783786934365 L106.78260651595629 -6.5378982054606105 L106.7828383697788 -6.541312154753974 L106.78361676432091 -6.541814091788684 L106.78409201105113 -6.54298479655731 L106.78577756101761 -6.546759879379263 L106.78638891714415 -6.546634271699974 L106.78770463476252 -6.5486733222270175 L106.78828678818326 -6.553667374110979 L106.78845382394697 -6.5582417390616605 L106.78763530302533 -6.55997036366541 L106.79690952533126 -6.562725713598393 L106.80190544329209 -6.561695691006471 L106.802644 -6.561578 L106.80216557353624 -6.562016592721409 L106.80210276853539 -6.565321705890848 L106.79921717154568 -6.569291283662813 L106.79908853094331 -6.569971383591558 L106.79668838010748 -6.573404573664503 L106.79702977302293 -6.582488452035231 L106.78744905745782 -6.560052730251309 Z" stroke="black" stroke-width="0.0001" fill="none" />
    <path d="M106.8088710855388 -6.603903443893225 L106.81547101067245 -6.599189211654907 L106.81765391934466 -6.597790345115616 L106.81799914560325 -6.5993642506567385 L106.81793482974673 -6.599513388874715 L106.81743435232639 -6.594714167897511 L106.81704113185063 -6.593238094081148 L106.81663207171933 -6.590769696916212 L106.81627 -6.587249 L106.81681520609817 -6.5906283378518635 L106.81843331535002 -6.5901863833581436 L106.81840099344012 -6.5892551083289765 L106.82066620963202 -6.58889529059452 L106.82090934074029 -6.588592688567698 L106.82286155882235 -6.583044124850488 L106.82184034420034 -6.5828365529426565 L106.82291762159016 -6.574168134504833 L106.8222192877257 -6.573643152911381 L106.82187162000601 -6.569689066105099 L106.82300073688691 -6.556650621483808 L106.82483011972985 -6.552323542545612 L106.82455824907903 -6.55039218903337 L106.82398835194375 -6.549561089044411 L106.82318962104698 -6.549231470472526 L106.823131 -6.548052 L106.82337237895301 -6.549090529527474 L106.82411964805625 -6.549398910955589 L106.82474975092096 -6.550317810966629 L106.82503588027015 -6.552350457454386 L106.82319726311309 -6.556699378516193 L106.822072379994 -6.569688933894902 L106.8224107122743 -6.5735368470886195 L106.82313037840984 -6.574077865495168 L106.82206165579966 -6.582677447057343 L106.82312644117764 -6.582893875149512 L106.82108665925972 -6.588691311432302 L106.82077379036797 -6.589080709405479 L106.81860700655989 -6.5894248916710225 L106.81863868464997 -6.590337616641857 L106.81684440950907 -6.590827687359013 L106.81723686814937 -6.593195905918852 L106.81763164767361 -6.594677832102489 L106.81813640289572 -6.59951807414301 L106.81896490046199 -6.606687885781506 L106.81786967603254 -6.599707479478157 L106.81752008065534 -6.598113654884385 L106.81892898932755 -6.597210788345094 L106.81852891446121 -6.597496556106761 L106.808242 -6.604458 Z" stroke="grey" stroke-width="0.0001" fill="none" />
    <path d="M106.79558102226932 -6.606093326090229 L106.79506765922176 -6.607838760451905 L106.79327339096979 -6.607448919438941 L106.79268280698388 -6.605368304223911 L106.79221565931711 -6.605378435137166 L106.79229652442241 -6.606666885814934 L106.79189794450207 -6.607326688883098 L106.79249754347877 -6.610929993209775 L106.79271643479767 -6.6148799865553505 L106.79410730777978 -6.6171228955289365 L106.79397078748741 -6.617065413300598 L106.79431193163808 -6.618873389148181 L106.79482108702626 -6.619023631721743 L106.79466873643973 -6.620484909882717 L106.79400704926637 -6.621914591327846 L106.79412621689268 -6.6232054070448045 L106.79328041677844 -6.624881610426548 L106.79173838611293 -6.626220583598961 L106.79007187302129 -6.628300240617134 L106.78891067921047 -6.629937770952889 L106.7885075220346 -6.631884848341084 L106.7870970719408 -6.632810993348925 L106.78630613089076 -6.6341347278179255 L106.78619673936912 -6.6357330594954 L106.78547137685419 -6.636305190422806 L106.7854921334393 -6.638980813083791 L106.78498548817038 -6.640410951688052 L106.787238 -6.64118 L106.78472651182963 -6.640543048311947 L106.7852918665607 -6.638947186916209 L106.7852706231458 -6.636208809577194 L106.78600326063089 -6.6356309405046 L106.78610986910924 -6.634073272182073 L106.7869489280592 -6.632669006651075 L106.78832847796538 -6.631763151658915 L106.78872332078952 -6.62985622904711 L106.7899121269787 -6.628179759382871 L106.79159361388709 -6.626081416401041 L106.79311958322155 -6.624756389573451 L106.79392178310731 -6.623166592955195 L106.79380295073362 -6.621879408672154 L106.79447326356028 -6.620431090117284 L106.79460491297374 -6.619168368278257 L106.79413806836192 -6.619030610851819 L106.79370521251258 -6.6167365866994015 L106.79360669222022 -6.616695104471063 L106.79251956520234 -6.61494201344465 L106.79229845652124 -6.610952006790225 L106.79163805549794 -6.606983311116902 L106.79188947557758 -6.606567114185066 L106.79179034068288 -6.604987564862834 L106.79298319301613 -6.6049616957760895 L106.79362365255649 -6.607218021541874 L106.79586121445108 -6.607704177051006 L106.79655095624462 -6.607934090982186 L106.8001652857057 -6.611046430240342 L106.80204350512099 -6.6119408204381 L106.80230856195557 -6.611357386297841 L106.80272814988575 -6.611315647184368 L106.80359504427916 -6.6103525210439225 L106.80101170495476 -6.608595734023988 L106.8010735991631 -6.608242484151912 L106.80043554620488 -6.60826217714445 L106.79883777323117 -6.6069835360742335 L106.79722823208989 -6.6042848875555 L106.79677578096947 -6.604495651656558 L106.79666980634846 -6.604707600898583 Z" stroke="yellow" stroke-width="0.0001" fill="none" />
    <path d="M106.75629838452689 -6.5701224385360515 L106.75983401735407 -6.5679939894847355 L106.7705748202908 -6.557772757498138 L106.7783354199656 -6.5559712073635215 L106.77015799658393 -6.537984519282858 L106.767781 -6.53387 L106.77006013903102 -6.537084543284111 L106.77174187939971 -6.535948232224185 L106.77295147130057 -6.536248114409256 L106.7764889450885 -6.534495814664683 L106.78470392173571 -6.534208681414624 L106.78920377300334 -6.534266000065569 L106.79015183839638 -6.533389164982478 L106.7957493962957 -6.533660853003875 L106.79593997530081 -6.531324532143265 L106.79632601836109 -6.531279053097809 L106.7964351321738 -6.530779373020942 L106.800305 -6.530774 L106.79676086782621 -6.531162626979058 L106.79665598163892 -6.531642946902192 L106.79631202469919 -6.531683467856735 L106.7961166037043 -6.534079146996125 L106.79030016160362 -6.5337968350175215 L106.78935822699667 -6.534667999934433 L106.78051207826428 -6.534555318585376 L106.77653905491151 -6.534694185335318 L106.77297452869944 -6.536459885590745 L106.77178012060028 -6.5361637677758155 L106.77007400989935 -6.537316545276452 L106.77861858003439 -6.556110792636478 L106.77067317970919 -6.557955242501863 L106.75995598264593 -6.568154010515266 L106.75675800504054 -6.570079191305544 L106.7553305898767 -6.571311879918418 L106.75478771312598 -6.568567961419276 Z" stroke="darkgreen" stroke-width="0.0001" fill="none" />
    <path d="M106.80464148378762 -6.6014608732265065 L106.80528155054085 -6.6009345961182895 L106.80697743555437 -6.604175843806857 L106.81293738072912 -6.600266002623414 L106.80740375626368 -6.60460436420433 L106.80990975110913 -6.607539400968837 L106.81311802771782 -6.612301686559872 L106.81465259183241 -6.615822157175709 L106.81669165228512 -6.621159697772484 L106.81697992291366 -6.621736239029566 L106.8197691903517 -6.624027422996535 L106.82358448833067 -6.628244331289079 L106.82578554467752 -6.633046636045815 L106.82756792033155 -6.635225095178517 L106.83536186047675 -6.640421055275324 L106.84247739996236 -6.646935281564974 L106.84368215686278 -6.648842813323972 L106.84498692112678 -6.650549043515343 L106.8469241468468 -6.655035250445909 L106.83733142492264 -6.661737571180906 L106.74488441684483 -6.555054905566148 L106.86009551253544 -6.59123577445014 L106.8466321756557 -6.655333293389657 L106.84461313401788 -6.650551352668468 L106.84311430204103 -6.6486528321644744 L106.84241800145506 -6.647160759480251 L106.83553822203693 -6.640978928698745 L106.82994380941619 -6.637182720134676 L106.8274359636732 -6.635477385029432 L106.82591691322123 -6.633958334577472 L106.8236145110615 -6.629053216932813 L106.82042843064406 -6.6250706164110165 L106.81588339503409 -6.621333587131705 L106.81609375934117 -6.620702494210451 L106.81440636112866 -6.616335110601611 L106.81400818060487 -6.615240114161196 L106.81221434098015 -6.611752092668682 L106.80952049589249 -6.607960755137885 L106.80603433242413 -6.6037132456247045 L106.80522873668461 -6.601932978496633 Z" stroke="black" stroke-width="0.0001" fill="none" />
    <path d="M106.79714796019712 -6.591826111762153 L106.79670930040875 -6.581912400544981 L106.79641788760544 -6.5815238501405915 L106.79315770510075 -6.582267068000445 L106.79254529112404 -6.577117556288573 L106.79355556937973 -6.5736567519067295 L106.793859 -6.568567 L106.79375443062027 -6.57368924809327 L106.79274870887596 -6.577134443711427 L106.79331817070351 -6.581922790257996 L106.79654105619727 -6.581188074929705 L106.79700315124104 -6.58180420165471 L106.79730739362238 -6.592148442620426 L106.79401714468692 -6.5914505110280555 L106.79419999999999 -6.59419334072432 L106.79419999999999 -6.593270820393265 L106.79398797768079 -6.593694865031689 L106.79353137084995 -6.594151471862542 L106.79306666666668 -6.5945 L106.79267198901107 -6.5945 L106.79214820323045 -6.594350346919825 L106.79173749422806 -6.596157466530364 L106.79280161867374 -6.596447682288276 L106.7938470095747 -6.593659973219049 Z" stroke="black" stroke-width="0.0001" fill="none" />
    <path d="M106.817698066983 -6.573463317388174 L106.8178992382896 -6.5769838152534605 L106.818502983963 -6.579197549389332 L106.81787902466678 -6.58200536622237 L106.81255276541617 -6.581658001488634 L106.81033426247855 -6.581153796275537 L106.80698023962887 -6.580919794681373 L106.8052578818666 -6.588383344984523 L106.80622359726141 -6.588635354380382 L106.80611319024452 -6.5899814278085955 L106.80609883203857 -6.592568776518703 L106.80507964520125 -6.5925900674335605 L106.80503002012554 -6.593508131334056 L106.80620730280958 -6.600866148109308 L106.80534389569988 -6.602074918062883 L106.79980464778708 -6.603269657808781 L106.79655996785331 -6.604947940533145 L106.79524041114279 -6.604068236059471 L106.79264032684561 -6.596592993705072 L106.79376629177945 -6.593590420548173 L106.79702845095902 -6.591778109892858 L106.79837376751641 -6.592389617418947 L106.80076655115877 -6.591162498053062 L106.8020074339167 -6.59166910845322 L106.80190966997937 -6.591902336146841 L106.80187085913553 -6.591229013134957 L106.80143682629311 -6.589925890945358 L106.80160679357756 -6.589248214933801 L106.80041315288335 -6.588054574239588 L106.79969633315966 -6.586006517886173 L106.80030399886381 -6.583170744600075 L106.80093229670385 -6.5816 L106.80171107504253 -6.5816 L106.802306083775 -6.576542425774167 L106.80441236234398 -6.5751382400614995 L106.80461208739744 -6.574339339847633 L106.80692385020791 -6.572731157022972 L106.80830756687932 -6.570240467014406 L106.80745781329802 -6.5704104177306695 L106.80679317337611 -6.5695242311681366 L106.80689611197444 -6.56900953817647 L106.80666101089405 -6.568421785475488 L106.80740619852737 -6.568297587536599 L106.80912606087456 -6.568803429403419 L106.81525773137841 -6.570311217232232 Z" stroke="black" stroke-width="0.0001" fill="none" />
  </g>
</svg>
