<svg width="1500" height="1500" xmlns="http://www.w3.org/2000/svg" xmlns:xlink="http://www.w3.org/1999/xlink" >
  <path d="M428.11486446666436 468.56627550587706 L444.6617696381594 476.087596038439 L482.14796398049486 456.5947749804187 L497.3372917144303 463.3455873065826 L514.5321237515788 477.4140862461549 L537.6162569189091 514.3486993139288 L549.9068468643742 591.164886473232 L541.016767941116 603.6109969657508 L463.7528159137361 620.2757709324234 L454.83804976200304 624.7331540083433 L466.75909189261233 647.2506780328156 L508.42339219066446 697.8430426806102 L568.4216858087154 751.8415069366189 L625.4114771532215 820.8291490905649 L692.1467703012496 879.6197644828727 L657.6709972070915 891.1116888475743 L656.1545871292651 932.0547609478889 L622.6678136631136 936.6211391478283 L619.8791296804984 947.7758750782891 L607.8677463529658 955.7834639633021 L608.2500000001545 956.1657176105973 L608.2500000001545 951.344075518634 L619.5435274381822 955.5791483079076 L625.0153407755477 969.2586816507885 L612.2796509330897 967.136066677081 L612.4926406871367 966.9230769230873 L616.8214951743778 971.2519314103149 L625.8571523289191 994.744640012397 L598.8604329247238 999.5087669660816 L597.0809043072478 1010.1859386715238 L584.9351165490901 1004.9806010609761 L578.9853365204323 1010.9303810897673 L514.5658222675564 985.7910584544946 L487.53120355662816 930.2198977711316 L473.04900834930663 923.7833665678006 L474.5305288306412 908.9681617533894 L-Infinity -Infinity L480.96947116953004 904.8779920927717 L479.05127987519336 924.059905035046 L455.58579244726616 933.0850925072663 L446.9724959618304 920.1651477790593 L436.3708908757502 927.7377228406024 L417.9126331185046 897.5333010557727 L413.16151619398056 873.7777164343117 L423.15386808517985 840.4698767973937 L456.3152781854285 846.786335864118 L463.69577505316784 843.0960874302749 L487.5967426111316 807.244636093236 L515.5394374381217 789.0818844556844 L498.23047562334466 763.7841710340319 L467.09714294323135 748.9587745196567 L413.24043755409434 702.5821671012909 L388.555096942369 694.353720230738 L397.03466596030523 665.5231855696429 L412.71656320262196 645.564407261132 L408.9083592134557 634.5938973163244 L408.8332548050033 634.4158578604929 L371.94923141811387 532.9402139968151 L313.4444910975276 518.3140289166553 L294.4831724438757 512.4797770232158 L280.8582561011974 514.1828915660238 L263.39681933791326 472.275443333585 L282.64979989323535 470.6710282873126 L281.1288413413848 428.08418884037394 L331.3750619670941 433.28207373269237 L314.78365860465374 511.7141623550457 L339.0866468986786 517.7899094285918 L352.38500196179245 466.0740841832987 L380.2500000000464 464.21641764739377 L380.2500000000464 475.6312808554395 L376.59080393240174 482.9496729909953 L387.93325749907126 490.8893904877385 LZ Z" stroke="blue" stroke-width="4" fill="none" />
  <path d="M312.6389821965603 521.2049809106499 L294.21634488777215 515.5364771233437 L296.22435833289273 515.2854754427037 L236.96487387546483 509.3595269969529 L208.40716128077474 496.5085563293823 L180.27965093303067 524.6360666770731 L159.7141719187789 521.2084868413689 L-Infinity -Infinity L162.78582808126885 515.6376670047911 L178.22034906693318 518.2100871690996 L207.092838719376 489.33759751678997 L238.53512612454608 503.48662684920976 L274.65653796248546 507.09876803298505 L259.04363867546465 469.62780974408184 L287.30473949096336 467.2727180094392 L297.24993141407197 507.05348570231325 L315.05550890265965 512.5321249295454 L372.3808544483376 526.8634613159516 L386.95409195490527 488.0014946320331 L427.9797289329679 465.20947408871234 L444.5735392760497 472.75211515384035 L482.04592796075474 453.26647303779424 L498.92458342945645 460.76809769052244 L516.8142475023529 475.4050955684861 L540.4825138375458 513.2743217047839 L553.063693728717 591.906696023605 L542.7835358822364 606.2989170084275 L464.7556318276713 623.128464941771 L458.9260995239641 626.043231093678 L469.2681837851609 645.5782791425622 L510.596784381363 695.7630084380837 L570.593371617818 749.7599369508532 L627.5729543064301 818.7352212581065 L698.0435406023133 880.8164520426252 L660.5919944141903 893.3003007719728 L659.0591742585872 934.686444972683 L625.0856273261007 939.3192013726124 L622.5082593607567 949.6286732334956 L609.5067440205781 958.2963501269346 L599.3643468081444 945.6183536113924 L594.9614038568996 905.9918670499753 L584.884173780793 901.6730541602078 L569.6535514573497 860.5503738872653 L533.7904319942055 823.1929577796458 L529.0449855799295 814.1334691704548 L496.21095124670944 766.1452651451237 L465.44428588603637 751.4944721162318 L411.73087510784967 705.241257279272 L384.86019388493276 696.2843635383884 L394.3193319211957 664.1232942153529 L409.1831264052814 645.2057375990281 L404.7102449966644 636.2599747816209 L369.64846283638053 535.4573510705916 LZ Z" stroke="orange" stroke-width="4" fill="none" />
  <path d="M311.83347329388766 524.0959329042181 L293.94951733145547 518.5931772234585 L296.26162041836324 518.304164337595 L236.17974775113737 512.2959770708511 L209.06432256190044 500.0940357356785 L181.30930186629257 527.8490564310998 L158.17834383753393 523.9938967596312 L-Infinity -Infinity L164.32165616251382 512.8522570865289 L177.19069813367128 514.9970974150729 L206.4356774382503 485.7521181105071 L239.32025224887354 500.55017677531157 L269.9543802727078 503.61358957768704 L254.6904580132292 466.98017615457866 L289.59671946616083 464.0713210334966 L299.7498628279516 504.6838944815122 L315.8610178034138 509.64117293551084 L370.5117088964016 523.3038457087445 L384.5325580976322 485.91491450575154 L427.8445933992714 461.8526726715209 L444.48530891415317 469.41663426920167 L481.9438919412278 449.93817109512986 L496.55391049043374 456.4315126726124 L497.2499999998803 454.8073038174148 L497.2499999998803 445.52307692270904 L489.57709070613475 427.10809461779166 L493.11936000172807 414.7101520838146 L502.9525586257222 406.51581989721944 L512.7197398454797 400.00436575063895 L530.6613038825958 398.3733144745447 L545.4280836478631 403.91085688653334 L540.7432674160617 460.12865166728403 L539.2973322019401 486.87845312917347 L558.8517793260905 609.0937476558465 L572.0468103096721 637.133188495944 L710.4238296953014 553.4633628209672 L579.6676725709204 644.9926728082443 L619.6498492799662 692.1145239298253 L656.3042974263311 747.0961961488663 L598.4063206315682 679.5485565550073 L588.4380600508621 683.8206682324376 L579.0395902072021 677.5550216700108 L567.7678427515787 679.1652713065341 L554.1121463622289 657.9230769230879 L542.858344616377 657.9230769230879 L530.9838992559435 605.9723784712044 L487.10349717921986 615.3086342322055 L302.0305337656026 707.845115939427 L428.9422254932873 638.7176983595675 L418.9886067955939 643.3543660622719 L399.4771748089221 630.3467447380016 L367.34769425486036 537.9744881443946 LZ Z" stroke="blue" stroke-width="4" fill="none" />
  <path d="M509.6722482863214 746.6577846885978 L522.6756641874886 732.2108925819191 L483.92557432144656 705.8590872828961 L484.85398744659847 700.5603392017632 L475.2831930732526 700.8557340898334 L451.3165984675993 681.6761180365847 L427.94583820679577 642.4913678354314 L419.3081120089204 646.5150568376441 L418.79709522696373 647.5370904018239 L402.4653340398032 668.3229682765177 L395.94490305766783 690.492433615437 L416.25956244615736 697.2639867448759 L470.4028570569818 743.8873793265064 L502.2695243766151 759.0619828121279 L522.3255933673698 788.3746990291727 L538.7095680060128 819.6531960665009 L574.8499837677201 857.2994624850437 L611.2500000000409 956.5722340276326 L611.2500000000409 949.2650741141226 L621.8370548763374 953.2352196927606 L629.7806815509688 973.0942863784728 L613.3093018661384 970.3490564310412 L616.7352813743321 966.923076923074 L619.3929903492545 969.5807858979298 L625.8838982423498 986.4571464208248 L621.1013909376106 1012.7609365991284 L628.5062970245292 1027.4602277869358 L657.9413932584544 1059.950765664703 L673.1239198443717 1124.054766806195 L673.1380703597978 1124.065379692791 L693.7037837284521 1151.496280398072 L704.0623633581333 1157.5788383564877 L703.8821995410416 1171.46531102952 L720.9805825225146 1172.3446564400074 L765.0687608221318 1246.7311177943172 L872.6283627328968 1333.2596784594773 L902.7239799600295 1335.6189016768626 L934.9722621085732 1425.5539278662675 L943.1116250505056 1430.2458333638033 L940.7359141399496 1443.2423695213556 L974.3773892521546 1473.779132012367 L1019.298147216503 1478.7871894880996 L41560661774541590 70099706282993610 L1015.6618527837935 1484.4189643580585 L971.7826107480931 1479.5270218338196 L934.2340858601261 1445.443784324818 L936.4483749494923 1433.330320482351 L930.0677378914202 1429.6522259798758 L898.3860200402205 1341.2972521693 L870.311637267136 1339.0964753866606 L760.4612391781274 1250.7250360518472 L717.4594174776416 1178.1714974061751 L697.8078004589605 1177.1608428166512 L698.0176366421631 1160.9873154896654 L689.626216271435 1156.0598734481007 L668.8519296404394 1128.350774153348 L667.7860801556079 1127.5513870399777 L652.458606741817 1062.8353881814355 L623.5137029756288 1030.8859260592417 L614.8386090626445 1013.6652172470372 L618.6478342223722 992.7144788676155 L611.6785048256901 974.5942224358448 L604.007359312746 966.9230769230873 L610.2203490669922 960.7100871690941 L615.4846592247054 961.5874721953664 L614.9564725618717 960.2670055382421 L602.2499999999553 955.5020783275235 L602.2499999999553 949.4557380000288 L572.2199707217612 867.5556581505914 L531.330863988515 824.9628386366645 L526.4693922125474 815.6818470643155 L493.91830390817404 768.107179542705 L503.3784293335941 747.2838713906935 LZ Z" stroke="blue" stroke-width="4" fill="none" />
  <path d="M1276.2287847566254 431.6884612483583 L1250.6196975444084 390.2315255023823 L1259.6958818797077 380.25406971554634 L1195.431037605843 360.2716332100606 L1124.5254066483312 382.61800664058245 L1088.9840925820238 411.40828745578096 L1016.9070065765595 414.81562222859236 L1003.8012080482162 429.3725818396619 L749.6449694507845 420.02728735218693 L749.2790585562403 433.2282265455166 L719.6884794861091 442.25152658295497 L724.4340948790295 468.4812857838037 L721.4842917898778 440.89664068036365 L710.730983583332 442.6712879497539 L704.1854829552108 451.76470157419527 L685.7289011045253 457.96025900597596 L596.9075858641304 454.8541906177237 L591.0168096457369 448.8146574242322 L557.6399527959808 448.98814768375075 L555.7487369818404 458.4846192629242 L554.3858036190841 459.9169167327786 L543.6247970353492 462.4013756518262 L542.3102415065983 486.7206529329569 L558.702695279436 589.1734890125531 L544.5503038231436 608.986837051144 L443.4188321359045 630.7995074150583 L416.01195123291745 644.9754802958971 L396.9747013881175 632.2839803994349 L363.03326648642553 534.7023550569772 L382.1110242405723 483.82833437917697 L427.7094578655749 458.4958712543028 L444.39707855204347 466.081153384603 L481.84185592148765 446.6098691524654 L491.727758725915 451.0036037321517 L517.2104990921866 471.8531185774186 L536.6157346938394 457.01382076442457 L551.3603813415813 455.67339834190017 L553.2612630182854 445.94153458324496 L554.7522032241403 444.50309718645036 L593.5331903542362 442.8014964219316 L599.5224141361177 448.9419632284373 L684.851098895578 451.9258948401837 L700.4445170450424 446.69145227196543 L707.3090164167439 437.1548658964273 L714.915708210313 435.89951316580704 L700.8659051210486 304.5148680623664 L724.3915205138762 434.54462726321566 L743.4009414438236 428.747927300661 L743.8150305494418 413.8088664939741 L1001.2187919517856 423.27357200649044 L1014.1229934234275 408.9405316175719 L1086.7359074180172 405.5078663903864 L1121.6345933516436 377.2381472055762 L1195.4189623941857 353.9845206361057 L1270.4741181202905 377.32208413061335 L1258.1003024556026 390.9246283437693 L1279.9512152433579 426.29769259779437 L1368.1716208272123 443.3763897438656 L-Infinity Infinity L1368.6983791727414 449.58976410230036 LZ Z" stroke="lightpurple" stroke-width="4" fill="none" />
  <path d="M677.3841593840757 586.7444714079382 L666.5396946492308 659.5573060560532 L616.997125698262 697.9128433084079 L600.8496153825149 681.7653329927007 L588.1261201017907 687.2182595416796 L578.3291804145563 680.6869664168922 L566.2856855028053 682.4074656899957 L552.4742927241277 660.923076923081 L540.4666892327725 660.923076923081 L528.7177985120906 609.521680019298 L464.7889042021802 623.1235724256188 L415.8193681060851 648.4526428201963 L394.47222796731296 634.2212160610815 L356.6379694874655 525.4477229311736 L659.4956381844952 559.0985750086495 LZ Z" stroke="yellow" stroke-width="4" fill="none" />
  <path d="M424.53900041955706 456.8253597884262 L416.25309721332826 280.05942472477875 L411.710161171257 177.08620776920577 L447.0780676162889 123.26548057002935 L469.67397700328206 108.20154097874934 L484.2238696667778 89.28668051603171 L496.2104220830099 67.02594031497739 L553.1449600474048 107.03399401982267 L575.0151913480295 98.28590149965271 L605.1297951172074 105.37169062181147 L600.9085419201909 113.81419701528483 L590.835514530923 111.799591537418 L578.2177997618021 106.19171830675378 L551.6446327294489 117.3804202152449 L537.1337585201275 136.24455668704826 L442.8471211149798 260.4634599351761 L423.7689275944234 303.02250701982314 L428.3609043356762 459.1497162294787 L379.00717030382225 448.6807423439141 L383.2499999999328 512.3231877910748 L383.2499999999328 476.33948478824385 L381.9237671780229 478.9919504319305 L371.72056274926035 489.1951548612126 L364.7500000001713 494.42307692308265 L358.8298351660768 494.42307692308265 L350.97304845685073 492.17828072045427 L344.81241342092517 519.285074878548 L363.68100302965445 524.4310538627349 L379.6894903835124 481.7417542528955 LZ Z" stroke="lightgrey" stroke-width="4" fill="none" />
  <path d="M545.8054869102114 403.85763104345364 L560.4101832442154 408.2390399436762 L565.0213948762683 342.3487146935387 L560.0292373166127 463.9224340854995 L546.480378063734 465.1541485630315 L545.3231508112566 486.5628527347552 L561.8595421437789 589.9152985626997 L546.317071764264 611.6747570938073 L455.6425134065023 631.232014778835 L415.6267849794659 651.9298053445486 L391.9697545465084 636.1584517227146 L356.6540121735784 534.6256924005942 L377.2679565264525 479.6551741264408 L424.17676438532226 453.59472531595316 L444.30884819014693 462.74567249996437 L481.7398199019607 443.28156720984094 L493.3150504405148 448.42611411585165 L517.2733887886238 468.0283909462644 L535.2069857791975 454.31446383584296 L539.2782887383873 405.4588283260306 L566.902933191713 285.7520356952013 L634.1894232507883 290.4464419783957 L-Infinity -Infinity L630.5674695845198 295.7762784212002 L633.7263974214835 253.13075262059152 L629.17842142312 231.90686462804183 L652.7050370991105 127.50750756632664 L607.543679467426 114.22475532175662 L572.1825467097119 289.5570385791866 LZ Z" stroke="red" stroke-width="4" fill="none" />
  <path d="M549.3609738203276 401.79218516383156 L563.5703664884772 406.0550029642738 L568.0170944835794 342.5150101624406 L562.9188559750986 466.672112666686 L549.3359590925451 467.9069214741836 L548.336060116128 486.40505253755276 L570.9535586521497 627.7644183878881 L573.3436206195819 632.8433000686016 L785.5976593918967 504.5036487178776 L581.2707891723079 647.5324578719841 L666.3797133476379 762.9343889573124 L689.0438961441703 817.3284276695523 L716.0082251420619 890.7313232746293 L718.4002815399282 895.515436070282 L711.7499999999666 902.1657176101371 L704.5729974942816 894.9887151042922 L683.4104231811722 819.4080925575984 L661.1169807011663 765.9038306056696 L601.8591519614347 684.5965772185923 L587.8141801525061 690.6158508510416 L577.6187706216973 683.8189111638269 L564.8035282544583 685.6496600734572 L550.8364390862397 663.9230769230874 L538.075033849168 663.9230769230874 L526.4516977678113 613.0709815674182 L476.9013717642423 623.6136041213733 L415.4342018526336 655.4069678687811 L389.4672811254907 638.0956873841479 L353.46438501704824 534.5873610722427 L374.84642266917945 477.5685940001593 L424.0416288516258 450.23792389881504 L444.22061782803723 459.41019161532574 L481.63778388222056 439.95326526712324 L494.9023421546883 445.84862449935184 L517.3362784848479 464.20366331509683 L532.3278312251745 452.7395347490846 L536.3065774771059 404.99457972753316 L587.6641157928475 182.4452470262437 L-Infinity Infinity L575.115093419285 290.191000235198 LZ Z" stroke="purple" stroke-width="4" fill="none" />
  <path d="M-Infinity -Infinity L356.9250724940076 516.8148573889496 L372.42488881211955 475.48201387373126 L423.90649331814245 446.881122481597 L444.13238746592754 456.07471073067376 L481.53574786248043 436.6249633244588 L496.4896338695013 443.2711348830652 L504.2226464127708 449.5981451457196 L559.6829499837241 538.3346308589519 L567.4985436944979 587.1820915519008 L548.0838397053844 614.3626771365372 L455.9668933429606 634.2310381166769 L464.418191969429 630.005388803416 L471.77727567770944 643.9058802522954 L512.7701765720616 693.6829741956105 L572.7650574271337 747.6783669651808 L629.7344314609177 816.6412934269805 L736.0952880107874 910.3401432448852 L707.8663957432241 890.1766487680904 L709.2824014284105 889.8226473467939 L681.736099733925 814.8354927342425 L735.4406626134846 821.5485630941475 L749.9089474490717 832.8016735219433 L-Infinity -Infinity L745.59105255112 837.0444803242469 L733.0593373866634 827.297590752025 L694.1137312313828 822.429389982615 L718.7664502847468 889.5395696277151 L722.0505630797902 896.107795217602 L711.7499999997534 906.408358297279 L690.4550030913015 885.1133613884674 L691.7864802357343 886.0644164916451 L663.512991621289 895.4889126964781 L661.9637613879092 937.318128997464 L627.5034409890878 942.0172635973299 L625.1373890412282 951.4814713887152 L608.8823308540725 962.3181768467524 L596.4786936163335 946.8136302997119 L592.1728077139932 908.0606571768633 L582.5183475614892 903.9230313972243 L569.669322530757 869.2306638142554 L528.8712959826114 826.7327194932304 L523.8937988451653 817.2302249582694 L488.79972085295265 765.9388802003228 L463.7914288292677 754.0301697128069 L410.22131266181816 707.9003474574661 L381.16529082728334 698.2150068460255 L391.60399788144673 662.7234028619154 L405.64968960815406 644.847067936911 L349.7583860872311 533.0644608946254 L351.1317306308115 537.0128264576588 LZ Z" stroke="silver" stroke-width="4" fill="none" />
  <path d="M-Infinity -Infinity L665.6200611116958 777.1759769126317 L600.8430835145617 688.2959378840978 L587.5022402032215 694.0134421604037 L576.9083608288383 686.9508559107616 L563.3213710058982 688.8918544569187 L549.1985854483517 666.9230769230803 L535.6833784655635 666.9230769230803 L522.2168717268261 608.0071099413707 L470.70086350700535 619.7152936276959 L474.4983409833736 641.2343326606405 L497.84764079007005 658.7463075156228 L523.6577239494267 690.6293514185189 L544.6318598603739 721.283857749768 L540.4382569113153 725.4774606989199 L649.6117566180715 840.4735470568767 L652.6186501119469 839.471249225545 L668.7496257157477 837.8581516651916 L693.4881283217464 848.9904778379896 L700.6082254945056 872.7241350806978 L652.8345479370046 753.2899411864256 L-Infinity -Infinity L664.822790086177 760.5953664546414 L693.0213189821899 747.2381685564432 L722.1539925075859 780.7407431104727 L726.6244966956492 775.1526128753403 L738.2796509330092 773.2100871690915 L742.7360241492664 777.6664603850955 L751.2585691477369 775.9619513853909 L752.7585691475736 780.4619513853937 L754.4951745463635 780.1146303056304 L747.1399940249768 753.6359804287794 L762.47713517823 747.5011239674755 L43244239880046930 335142859071222660 L768.2589243406568 745.4244911493977 L774.0579448607576 743.4914843093242 L-Infinity Infinity L775.4420551395214 749.354669536839 L769.2111255376943 751.4316460707058 L772.9840640887176 770.296338825822 L-Infinity -Infinity L767.5159359112627 773.5498150203555 L763.5155630264734 753.5479505967821 L754.3600059749878 757.210173417395 L762.0048254536727 784.7315235405248 L748.741430852391 787.3842024607811 L747.2414308525543 782.8842024607783 L740.7639758509532 784.1796934610666 L736.2203490669117 779.6360666770651 L729.8755033045268 780.6935409708358 L722.346007492618 790.1054107356952 L691.4786810177276 754.6079852897257 L667.5827183209293 765.9271255145381 LZ Z" stroke="brown" stroke-width="4" fill="none" />
  <path d="M353.59452598257235 453.980095818156 L422.16242071702936 452.48948941088975 L417.7792619967846 303.46209291865136 L415.0359146360927 299.80429643786647 L369.38329436551953 310.8715983216979 L367.9058619516695 319.7361928033058 L341.59165060906105 327.9593838478843 L281.1656752481895 323.1889121088758 L285.7450123158145 170.54434318161987 L-Infinity -Infinity L291.75498768417185 170.3018106645369 L287.25000000015655 320.46806679751444 L287.25000000015655 425.70140254909666 L335.00012393396617 430.64107054227236 L318.31731720920686 509.5052477869475 L336.92329379732655 514.1567419339774 L354.7270479135278 444.9199203710583 LZ Z" stroke="yellow" stroke-width="4" fill="none" />
  <path d="M736.6313252264689 818.6740492651554 L752.0678948991133 830.6802701215975 L-Infinity -Infinity L743.4321051010784 839.1658837245795 L731.8686747736791 830.1721045810305 L682.0507443124768 823.9448632733802 L663.4391773965831 779.2771026750887 L599.8270150679019 691.9952985495369 L587.1903002541501 697.4110334696991 L576.1979510359794 690.082800657643 L561.8392137571249 692.1340488403803 L547.5607318102504 669.9230769230867 L533.2917230819589 669.9230769230867 L521.2509459479975 617.244676961459 L477.92082386564516 626.4638518726049 L415.2416187260144 658.8841303931334 L382.82963181977436 637.2761391225066 L347.08513070441427 534.5106984155666 L370.00335495505965 473.39543374743647 L423.77135778444597 443.52432106444553 L444.044157104031 452.73922984608845 L481.43371184295347 433.2966613818344 L498.0769255841011 440.6936452667652 L494.05372690877414 437.40193725967583 L686.5368938922956 812.4122453483972 LZ Z" stroke="orange" stroke-width="4" fill="none" />
  <path d="M535.9945136284239 598.8492737182736 L548.4465162256669 588.6109604717514 L573.9730666312681 637.3983911288915 L691.7214218714918 560.1531556272807 L581.9626879102913 646.2040030529679 L618.5925332747644 689.1051059894979 L666.8408315346852 760.7236737192545 L689.9277549743488 813.6877921982342 L720.4995685544446 893.714010099462 L724.6476874097851 902.0102478100365 L766.3257105510723 936.2457668190348 L823.7846499207535 999.7530155959631 L856.8163403259632 1071.822158298119 L883.2876099459952 1104.1759322782527 L1000.1058143021169 1182.0547351822452 L1107.071998871163 1279.981523872273 L1125.214705882769 1308.7074766406624 L1144.8576338027294 1334.3943823821535 L1175.313206445523 1404.9230769230924 L1165.7602200687477 1404.9230769230924 L1136.6440205360818 1335.963656976544 L1114.1790612312263 1307.5080418573148 L1103.790043652211 1285.2458613306017 L1000.8966611090386 1192.7909378860033 L917.0642823833219 1135.9046808935755 L879.3289101963353 1110.2446278064247 L856.2573966369769 1087.1731142472395 L821.6853318450035 1013.5195849074762 L774.1029193218196 954.0415692535629 L705.2518510229788 897.4306908743677 L708.562780235269 887.497903236911 L683.4408338635711 822.4763949807088 L677.4954181471315 806.1265017603134 L650.6802294047986 753.9858569836142 L610.364876773275 697.2457310575674 L557.979972723075 633.4204456630508 L545.9621005378779 606.8624318217861 LZ Z" stroke="black" stroke-width="4" fill="none" />
  <path d="M735.6920094898101 178.32259856828108 L738.727148687488 231.43753452592654 L747.8395188903164 264.84955860303955 L738.1207400035805 308.5840635941504 L647.3329624854784 302.66312158210724 L613.7778743568134 295.03696518921913 L577.6571888656434 292.5169173642559 L552.9164607304438 399.7267392841295 L566.7305497327391 403.8709659848581 L571.0127940906773 342.6813056386567 L565.8084746333714 469.42179124792574 L552.191540121143 470.6596943853756 L552.1161808695041 472.05384054249436 L570.6553905590539 587.923901102034 L549.8506076465048 617.0505971792004 L468.8894336119631 634.5128111866736 L415.0490355993952 662.361292917366 L380.3271583989698 639.2133747839799 L343.8955035480973 534.4723670875215 L367.58182109799975 471.30885362084854 L423.6362222507495 440.16751964718753 L443.9559267419213 449.4037489614631 L481.33167582321335 429.96835943916994 L500.9034097896148 438.6669078686299 L494.24999999999386 454.19153071126965 L494.24999999999386 446.1230769233658 L486.4041814121123 427.29311231250324 L489.9537843656532 414.86950197568297 L473.6445865005834 398.5603041106931 L462.6399947897397 367.1186135079039 L471.86996591399577 324.04541492761155 L481.7189011158973 299.4230769230708 L493.08225127624894 299.4230769230708 L501.93251324976984 224.1958501477568 L533.6208703196377 203.07027876788493 L536.6126219234246 191.10327235207097 L571.4655062366347 166.85778761245757 L590.4770063795439 132.63708735536488 L579.984398940212 134.73560884321256 L569.0452012830605 120.15001196695721 L570.6333592331703 112.20922221646151 L566.5803268215086 102.07664118768037 L579.9359558212558 99.8507030210514 L606.0318262372988 107.52595902578247 L698.4819413520427 130.25959389006505 LZ Z" stroke="black" stroke-width="4" fill="none" />
</svg>
