<svg width="2500" height="1500" xmlns="http://www.w3.org/2000/svg" xmlns:xlink="http://www.w3.org/1999/xlink" >
  <path d="M740.6824322332994 470.2446762144528 L757.2106512748178 477.75750305152116 L793.3888267382372 459.20382400268727 L809.090759034703 465.61439111967064 L825.8767473978423 478.39567842003146 L848.6831284594842 514.8858881185013 L860.8284234323094 590.7939816980321 L852.6333839703426 602.2670369444792 L775.7514079566619 618.8494239278361 L765.2940248809159 624.0781154657092 L778.0045459462315 648.086877477969 L819.8366960952086 698.8830598018068 L879.8358429046971 752.8822919301679 L936.8307385766173 821.8761130068473 L1001.6983851505046 879.0214207029899 L968.7104986035422 890.0173828853285 L967.2022935644975 930.7389189354851 L933.9589068316201 935.2721080354629 L931.0645648403693 946.8494760006129 L920.558873176347 953.8532704431123 L919.2500000001047 952.5443972667367 L919.2500000001047 952.3835762208164 L930.8967637193177 956.7511126154947 L935.1326703879437 967.3408792869396 L924.2648254665653 965.5295718000743 L922.8713203434324 966.9230769230873 L928.0357475872592 972.0875041667008 L936.3035761643346 993.5838584677124 L910.05521646224 998.2159219445762 L908.4154521536902 1008.0545077972467 L897.0925582746503 1003.2018389920314 L891.1176682602218 1009.17672900642 L828.1579111336157 984.6070676887318 L801.1406017783429 929.0714873470416 L787.1495041745646 922.8532217453965 L788.6402644153634 907.945619338195 L764.7500000000917 897.9230769230882 L791.8597355848078 905.9005345079661 L790.1506399377212 922.9914909790724 L768.6678962236471 931.2540847152404 L759.8612479807798 918.044112351126 L749.3104454378852 925.5803998817955 L731.8313165593082 896.9781889894056 L727.2057580969715 873.8503966784947 L736.701934042614 842.1964768602639 L769.0326390927282 848.3547063936323 L777.2228875265341 844.2595821768227 L801.1733713053815 808.3338565083918 L830.1447187190547 789.5024806893789 L811.7402378118754 762.6036239786391 L780.4235714716157 747.6909257213624 L726.4952187772167 701.2526220121871 L702.9025484713003 693.3883985769394 L710.8923329803929 666.2231312459419 L726.9832816012922 645.743742092024 L722.0791796066095 634.2584871197075 L722.0416274024899 634.169467391785 L685.5996157091937 531.6816454599735 L626.3472455491836 516.868552920011 L607.116586222034 510.9514269731517 L594.3041280504957 512.5529842445807 L578.073409669031 473.5992601283432 L596.699899946671 472.0470526051888 L595.1894206707209 429.75363288171513 L642.0625309835515 434.6025753278824 L625.5168293024838 512.8186196390748 L652.6683234494612 519.6064931758324 L666.0675009810291 467.4985805532004 L691.2499999999966 465.8197472852497 L691.2499999999966 475.27717888927714 L687.1704019660996 483.43637495697794 L700.3416287496833 492.6562337053373 Z" stroke="blue" stroke-width="0.5" fill="none" />
  <path d="M625.9444910975276 518.3140289166553 L606.9831724438757 512.4797770232158 L601.9871791663434 513.104276182894 L549.8574369376286 507.89130196001713 L520.5785806405316 494.7158166262276 L492.2648254665063 523.0295718000797 L473.6791503246707 519.9319592764227 L470.3742543720324 520.1680232730397 L362.17893074066865 394.28503749295385 L356.7578406867966 366.54887868450487 L290.3460649037726 282.75873654581596 L234.48404525503008 286.2268555381251 L80.04453121920096 221.67237430780176 L49.75262299794281 180.66899750913228 L110.78206550003245 142.74807692308696 L54.057377002294515 181.44715633703993 L81.9654687807514 219.22377953836428 L234.99595474497426 283.1892983080329 L291.72393509632855 279.66741730036415 L359.5621593132847 365.2572751616499 L364.9710692593544 392.93111635323214 L471.6657456281581 517.0681305731215 L473.8208496753771 516.9141945697506 L491.23517453345755 519.816582046093 L519.9214193596191 491.13033721994475 L550.6425630623824 504.95485188614555 L591.2032689812463 509.0109224780346 L575.8968193379133 472.275443333585 L599.0273697456416 470.3478974662654 L608.4999657070256 508.23828131273376 L627.1527544505773 513.9776009261496 L685.815427224199 528.6432691195151 L699.8520459774937 491.2122857775645 L740.6148644666644 468.56627550587706 L757.1713025493665 476.091929179898 L793.317653476393 457.5545710822413 L809.8415180687368 464.30070531603843 L827.0034947959459 477.36827991730496 L850.1162569189091 514.3486993139288 L862.4068468643742 591.164886473232 L853.516767941116 603.6109969657508 L776.2528159137361 620.2757709324234 L767.338049762003 624.7331540083433 L779.2590918926123 647.2506780328156 L820.9233921906645 697.8430426806102 L880.9216858087154 751.8415069366189 L937.9114771532215 820.8291490905649 L1004.6467703012496 879.6197644828727 L970.1709972070915 891.1116888475743 L968.6545871292651 932.0547609478889 L935.1678136631136 936.6211391478283 L932.3791296804984 947.7758750782891 L921.3783720101532 955.1097135250617 L913.3071734040499 945.020715267246 L908.8557019284593 904.9574719865315 L898.5670868903384 900.5480655415996 L883.4517757286875 859.736725405169 L847.5202159972639 822.3080173515893 L836.8974927899586 802.0282730467242 L810.7304756233447 763.7841710340319 L779.5971429432313 748.9587745196567 L725.7404375540943 702.5821671012909 L701.055096942369 694.353720230738 L709.5346659603052 665.5231855696429 L725.216563202622 645.564407261132 L719.9801224982139 635.0915258523424 L684.4492314181139 532.9402139968151 Z" stroke="orange" stroke-width="0.5" fill="none" />
  <path d="M625.5417366471505 519.7595049137258 L606.8497586657173 514.0081270732798 L602.0058102092918 514.6136206303463 L549.4648738754648 509.3595269969529 L520.9071612807747 496.5085563293823 L492.77965093303067 524.6360666770731 L473.60830064931747 521.4408416297787 L469.7285087441827 521.7179696229988 L360.78286148153893 394.9619980628081 L355.3556813733394 367.19468044594566 L289.6571298074946 284.3043961685352 L234.228090510058 287.74563415314464 L79.08406243842592 222.8966716925272 L47.60024599576684 180.27991809528498 L110.78206550003245 142.74807692308696 L56.209754004470255 181.83623575088717 L82.92593756152655 217.99948215362554 L235.25190948994634 281.6705196930134 L292.4128701926065 278.1217576776316 L360.96431862674194 364.6114734002224 L366.3671385184841 392.2541557833646 L472.3114912560078 515.5181842231491 L473.8916993507303 515.4053122163814 L490.7203490669332 518.2100871690996 L519.592838719376 489.33759751678997 L551.0351261245461 503.48662684920976 L588.8521901364641 507.2683332503856 L573.7202290067955 470.95162653882676 L600.1733597331338 468.7471989782675 L609.749931414072 507.05348570231325 L627.5555089026597 512.5321249295454 L684.8808544483376 526.8634613159516 L698.6412790490704 490.16899571427723 L740.547296699603 466.8878747973014 L757.1319538239152 474.42635530839476 L793.2464802147621 455.905318161862 L808.6909399214193 462.21076794130437 L811.4125248453519 455.71809802438895 L810.7989435166729 445.07317543527085 L804.3636971983403 425.75225901326985 L806.914033960382 415.5838195371307 L816.3512793118599 407.71944841086355 L825.7348699227407 401.4637213368409 L842.955651941466 399.8981956987955 L856.3390418238725 404.91696690472463 L851.7466337082169 460.02586429152655 L849.5236661008931 501.15076502662987 L865.3008896628478 599.7584122890996 L883.8984051548238 639.2781327095086 L985.3369148483893 577.943219871526 L889.9588362856292 644.7078748657085 L930.9499246405295 693.0188004270408 L953.7771487141811 727.2596365370651 L911.3281603158185 677.7358167390732 L901.0940300255044 682.1218725777431 L891.8947951037381 675.9890492965302 L881.0089213759653 677.5441741148101 L867.4310731812795 656.4230769230782 L856.5541723081793 656.4230769230782 L844.6169496279765 604.1977276971243 L787.4267485895103 616.3658555776473 L688.8902668838881 665.6340964306848 L740.766112746698 637.377887641357 L731.6193033979346 641.6387214926476 L717.3635874044493 632.1349108304529 L683.2988471274604 534.19878253375 Z" stroke="blue" stroke-width="0.5" fill="none" />
  <path d="M822.8986241430647 748.0929308058369 L837.4403320939194 731.9369847524613 L798.0702871607548 705.1635821029276 L799.1494937233767 699.0042080624302 L788.2890965365874 699.3394055064715 L764.9657992337211 680.6745974796711 L740.2679191033457 639.2647223793422 L731.7790560045978 643.219066880427 L730.0235476133565 646.7300836627896 L713.6076670197156 667.623022600232 L706.5974515287365 691.4577552692356 L728.004781223035 698.5935318339796 L782.0764285283843 745.1552281247873 L813.7597621880843 760.2425298675206 L833.5377966839985 789.1488879768026 L849.9797840029544 820.5381364945706 L886.0499918839793 858.1112697040915 L920.7500000001545 952.7476554753475 L920.7500000001545 951.344075518634 L932.0435274381822 955.5791483079076 L937.5153407755477 969.2586816507885 L924.7796509330897 967.136066677081 L924.9926406871367 966.9230769230873 L929.3214951743778 971.2519314103149 L936.3169491212631 989.4401116721394 L932.0356954688691 1012.9870067611189 L939.7581485121975 1028.3166523547459 L969.0706966291884 1060.67192129357 L984.2894599219676 1124.9289218645472 L984.5665351798516 1125.1367283077739 L1005.1843918640913 1152.637178660456 L1015.0511816791408 1158.430957639782 L1014.8635997705213 1172.8891939763096 L1032.6002912611898 1173.8013666815327 L1076.4168804111307 1247.729597358693 L1184.5491813665633 1334.718877691283 L1214.1394899799707 1337.0384892999818 L1246.2461310541782 1426.5785023946064 L1253.9458125253589 1431.0169551434337 L1251.6104570701004 1443.7927232223144 L1286.2286946260326 1475.2161044677134 L1330.8890736084322 1480.1951332055928 L20780330888589384 35049853143720196 L1329.0709263918643 1483.0110206405786 L1284.931305374215 1478.090049378473 L1248.3595429299753 1444.893430623859 L1250.614187474639 1432.5591987027074 L1243.793868945815 1428.6276514515503 L1211.9705100202793 1339.877664546194 L1183.3908186334697 1337.637276154868 L1074.1131195891285 1249.7265564874715 L1030.8397087389665 1176.714787164623 L1011.8264002294808 1175.7369598698617 L1012.0288183211557 1160.135196206371 L1003.1456081357959 1154.9189751857034 L982.4234648203856 1127.279425538392 L981.620540078012 1126.677231981625 L966.3293033710829 1062.114232552582 L937.2618514879605 1030.029501491445 L928.9043045313861 1013.4391470850467 L932.6989171111677 992.5687778953417 L925.4642524130219 973.7586496794725 L918.6286796564502 966.9230769230873 L923.2351745335166 962.3165820460875 L930.3673296123094 963.5052745592152 L928.6032362807362 959.0950412306686 L916.2500000000051 954.462577625341 L916.2500000000051 949.1894074618456 L884.7349853606801 863.2393675364922 L846.2904319942055 823.1929577796458 L835.6096961059478 802.8024619930617 L809.5841519541835 764.7651282328093 L816.8867146667935 748.6909741568779 Z" stroke="blue" stroke-width="0.5" fill="none" />
  <path d="M1589.6593923783087 430.34076908574394 L1564.9898487723135 390.4048012125892 L1574.8904409398533 379.52107331931313 L1507.9280188029288 358.6998550665952 L1436.3027033241592 381.2730417818842 L1400.9220462911287 409.93318218943233 L1328.7110032880632 413.34684957585057 L1315.655604024002 427.847829381369 L1060.687484725449 418.47268213762703 L1060.3095292782427 432.108151734296 L1033.3642397430508 440.32480175300685 L1031.0420474392145 427.4896813519889 L1032.3421458949865 439.6473588017245 L1022.3754917915784 441.2921824364056 L1015.7502414775621 450.4963892486445 L998.0094505522885 456.45166796451457 L910.0612929321272 453.3761337703821 L904.1459048227551 447.3113671736571 L867.3704797265458 447.50252292184746 L868.3327979469624 447.36504889038224 L868.2568701446769 461.0472388682283 L853.1765854780105 461.36226752156546 L851.0301207534354 501.0718649280286 L865.2263476397337 589.7982829678192 L854.4001519116762 604.9549569871424 L765.5844160678527 624.1112921691204 L730.1309756164898 642.4492786095268 L716.1123506938338 633.1035286612628 L681.141633243243 532.562715990028 L697.4305121202207 489.1257056512697 L740.4797289329679 465.20947408871234 L757.0926050984639 472.7607814367716 L793.1753069527048 454.25606524146934 L806.0045659678394 459.4938171578964 L827.2187787819973 475.64686951103255 L849.682867346786 458.4684488437472 L865.3051906708242 457.04823763248675 L866.510631509172 445.97230575317707 L867.2561016120994 445.2530870547664 L905.404095177218 444.3047866725201 L911.3687070681209 450.4200200757656 L997.5705494478149 453.43448588164506 L1013.8797585226911 447.95976459751625 L1020.6645082084975 438.533971409749 L1029.0578541052041 437.14879504444616 L1019.2579525608636 345.50647249419455 L1035.7157602569346 436.4713520931638 L1057.3704707218212 429.86800211189484 L1057.7725152747776 415.363471708534 L1314.3643959759997 424.79832446478326 L1327.3189967117105 410.40930427032697 L1399.7979537089122 406.98297165673506 L1434.8572966758156 378.5831120642612 L1507.9219811971002 355.5562987795445 L1580.279559060145 378.0550805268466 L1568.7301512276977 390.7513526335624 L1591.520607621675 427.6453847604088 L1680.8033104135943 444.92973333347436 L1758.6350000001262 417.2030769230804 L1681.0666895863592 448.0364205126917 Z" stroke="lightpurple" stroke-width="0.5" fill="none" />
  <path d="M987.1561518895078 585.2896130161931 L1039.2500000000382 549.9230769230866 L988.1398604364477 588.2736748829196 L977.6448473248678 658.740191489484 L932.9622698108153 693.3331547260722 L946.2489529823159 713.2631794831632 L776.8097189108403 619.9938763245802 L730.0346840531802 644.1878598716697 L714.8611139836447 634.0721464920726 L679.5468196649779 532.5435503258523 L696.2197451917973 488.0824155879824 L740.4121611661196 463.5310733800966 L757.0532563732257 471.0952075652151 L793.1041336910738 452.60681232107675 L806.7553250022996 458.18013135446404 L825.881981298835 472.743663982411 L855.6329301851662 520.345182200421 L866.8047710720117 590.1691877430058 L856.5033065756467 604.5912380378902 L882.6879195237325 638.2571689712233 L1022.9238296953014 553.4633628209672 L892.1676725709204 644.9926728082443 L931.1531132541973 690.9397993279251 L974.8551526752891 657.105962356692 L985.1829203079632 587.7623796805296 L969.6203223823119 562.3305153817103 L970.879677617873 561.5156384644602 Z" stroke="yellow" stroke-width="0.5" fill="none" />
  <path d="M738.8161070868193 462.70183173398686 L730.251548608507 279.99125086243674 L725.7300805856914 177.50464234613997 L760.6640338081405 124.3442787466995 L783.2119885016908 109.31230895108371 L797.9869348330482 90.10487871998077 L809.2302110413385 69.22450861899006 L865.4474800238177 108.72853547148713 L887.6325956740772 99.85448921138595 L915.4398975585565 106.39738377245169 L912.5792709602365 112.11863696917158 L903.7927572652649 110.36133423021988 L890.7338998808001 104.55739761489485 L863.1973163647899 116.15174856911307 L848.4418792528459 135.333816814611 L754.0485605579761 259.6932684284446 L734.7594637971611 302.7227919716833 L739.3054521679687 457.28639657625286 L689.8785851520728 446.80190963347616 L692.7500000000464 489.8731323586756 L692.7500000000464 475.6312808554395 L689.8368835891233 481.457513677299 L683.2352813738396 488.05911589278253 L676.7500000001547 492.9230769230728 L671.5399175830328 492.9230769230728 L662.3615242284586 490.3006788217755 L655.5312067104779 520.3540759007839 L680.0121400530657 527.0306940851175 L695.0089782631608 487.03912552484167 Z" stroke="lightgrey" stroke-width="0.5" fill="none" />
  <path d="M856.5394093331236 404.8398018456754 L871.4079863071333 408.71984882498526 L869.948535194851 426.51335885090384 L869.7487402893245 462.5164008133551 L854.5992829917282 462.83287448987335 L852.9201811300169 493.8962589299998 L868.3831945040765 590.5400925179658 L857.4626017196607 605.8289224160494 L771.6962567029384 624.327545851002 L729.9383924898706 645.9264411337593 L713.6098772732424 635.0407643228826 L677.1811185308962 530.3080829383442 L693.7982113347374 485.99583546155435 L738.6458144259933 461.0805004109218 L757.0139076477744 469.42963369359194 L793.0329604290165 450.95755940063077 L807.5060840365467 456.86644555085843 L828.4521903630804 472.81535466433525 L848.9784928895716 457.11877037936983 L853.2641443693478 405.69095262381376 L880.5764665959259 287.3375563091483 L946.4697116252552 291.9347594507269 L979.2499999999649 300.92307692308066 L944.6587347924407 294.59967767211583 L947.7381987108657 253.02691477147238 L943.2142107117159 231.91497077531528 L966.97751854947 126.46529224470828 L918.8968397338471 112.32391612246073 L883.2162733556714 289.24005774749725 Z" stroke="red" stroke-width="0.5" fill="none" />
  <path d="M858.3288186659388 403.7565267683283 L873.0059726140382 407.58662072690504 L871.4481944311103 426.57892645146615 L871.240610433972 463.98556275848193 L856.0219805052327 464.30348145816794 L854.4266357825592 493.81735883138526 L873.6534136718177 613.98472064053 L883.9046457332245 635.7685887709528 L1060.5107445451977 528.9835057684364 L891.6509800536687 647.1853409126747 L977.5648566739648 763.6787329402026 L1000.1469480703662 817.8757522918698 L1027.1291125707194 891.3272000980464 L1029.0751407701036 895.2192564966685 L1024.2499999999666 900.044397266606 L1018.4114987469428 894.2058960135422 L997.3302115904659 818.9155847403493 L974.9334903504092 765.1634537640082 L912.1482708787454 679.0162921633523 L900.9380600508621 683.8206682324376 L891.5395902072021 677.5550216700108 L880.2678427515787 679.1652713065341 L866.6121463622289 657.9230769230879 L855.358344616377 657.9230769230879 L843.4838992559435 605.9723784712044 L787.3624675620761 617.9131086188304 L729.8421009263478 647.6650223959555 L712.3586405628402 636.0093821536925 L675.5863049526312 530.2889172741818 L692.5874444061009 484.95254539841363 L738.5782466589319 459.40209970234605 L756.9745589223231 467.7640598220754 L792.9617871673855 449.3083064802381 L808.25684307122 455.55275974745274 L828.4502347436273 470.9285323829191 L847.538915612347 456.3313058361571 L851.7782887383873 405.4588283260306 L890.9570578955339 235.68416197841316 L918.4851969269658 110.5713519335414 L884.6825467097119 289.5570385791866 Z" stroke="purple" stroke-width="0.5" fill="none" />
  <path d="M626.5680982813393 516.1506837981975 L676.6228498906202 523.2527955668841 L691.3766774774643 483.90925533527286 L738.5106788922968 457.7236989937703 L756.9352101968718 466.0984859504656 L792.8906139055414 447.65905355980556 L809.0076021058934 454.239073944047 L822.512206907362 464.52183061660196 L861.14960345121 526.3416650864604 L871.202695279436 589.1734890125531 L858.3459856902209 607.172882437441 L771.8584466714873 625.8270575199031 L770.0840959846289 626.7142328632523 L780.51363783878 646.4144785877155 L822.0100882859072 696.8030255593336 L882.0075287131601 750.8007219437627 L938.9922157298258 819.7821851743356 L1023.672644005913 894.3816100843425 L1020.0581978717338 891.799862845588 L1023.76620071432 890.8728621349147 L996.4930498670554 816.6292848286647 L1047.3453313066727 822.9858200085903 L1061.329473724797 833.8623752227223 L1073.7500000001178 852.9230769230865 L1059.1705262753949 835.9837786234546 L1046.1546686934753 825.8603338375823 L1002.6818656157843 820.4262334528576 L1028.5082251420617 890.7313232746293 L1030.900281539928 895.515436070282 L1024.2499999999666 902.1657176101371 L1011.3525015459857 889.2682191560762 L1001.5182401179601 882.2437467073761 L971.6314958106409 892.205994809807 L970.1068806938196 933.3706029602793 L936.3767204948203 937.9701702601938 L933.6936945208407 948.7022741558192 L921.0661654270069 957.1206268849705 L911.8643468081444 945.6183536113924 L907.4614038568996 905.9918670499753 L897.384173780793 901.6730541602078 L883.4596612653911 864.0768703686706 L845.0606479913603 824.0778982081551 L834.3218994225765 803.5766509406249 L807.0248604264663 763.6809785617979 L778.7707144144207 750.226623317951 L724.985656330972 703.9117121902881 L699.2076454136509 695.3190418845899 L708.1769989408571 664.8232398924912 L723.4498448039517 645.3850724300801 L692.5041930438169 583.4937689095441 L675.1908653155425 533.7179516903687 Z" stroke="silver" stroke-width="0.5" fill="none" />
  <path d="M1006.2500000000085 839.423076923078 L977.185030555674 770.7995269175226 L911.6402366552023 680.8659724961051 L900.782090076433 685.5194638870919 L891.1843853108792 679.1209940434782 L879.5267641274052 680.7863684982716 L865.7932195433915 659.4230769230844 L854.1625169245748 659.4230769230844 L841.6961362616604 604.8826615234868 L781.4754317534778 618.569185275366 L785.6241704918432 642.0787047917752 L809.2988203948437 659.8346922191587 L834.9538619741992 691.5262141699839 L855.190929930103 721.1034673364945 L850.8441284556056 725.4502688110584 L961.6808783090391 842.1983119899921 L965.4343250560515 840.9471630743213 L980.9998128577746 839.390614294133 L1008.3690641608456 851.7067773805363 L1009.6791127473637 856.0736060018946 L970.7922739685415 758.8565090547326 L938.7500000001125 707.4230769230792 L976.7863950432343 762.5092216888538 L1005.1356594910743 749.080622739797 L1034.7019962538438 783.0819100168383 L1039.9372483478687 776.5378448992142 L1050.2648254664848 774.8165820460849 L1054.7430120745817 779.2947686541016 L1062.7542845741546 777.6925141542378 L1064.254284573991 782.1925141542406 L1068.872587273404 781.2688536143606 L1061.444997012586 754.5295286759466 L1076.6135675892485 748.4621004453217 L21622119940030296 167571429535659260 L1079.5044621702486 747.4237840362428 L1086.9039724304484 744.9572806162029 L1097.7500000000618 744.9230769230851 L1087.5960275698303 747.8888732299603 L1079.9805627687674 750.4273614969368 L1084.1170320442473 771.1097078742422 L1091.7500000000757 779.4230769230846 L1081.382967955733 772.7364459719486 L1077.1327815133702 751.4855137598418 L1065.0550029873784 756.3166251702278 L1072.6274127266322 783.5773002317945 L1062.2457154259735 785.6536396919342 L1060.745715426137 781.1536396919314 L1053.756987925638 782.5513851920472 L1049.235174533436 778.0295718000716 L1041.5627516523073 779.3083089469619 L1034.7980037463599 787.7642438293295 L1004.3643405088432 752.7655311063717 L978.1663591606105 765.1751012187689 Z" stroke="brown" stroke-width="0.5" fill="none" />
  <path d="M667.4222629913373 455.4515863706164 L736.2062103586453 453.95628316698503 L731.7646309985548 302.9425849208576 L728.1429573180276 298.1136866804788 L680.5666471825589 309.6473376224139 L679.0779309758221 318.5796348632606 L653.9208253046525 326.4412303854878 L595.2078376240166 321.80599451596885 L599.7475061580104 170.48371005234247 L596.750000000057 129.92307692307952 L602.7524938419759 170.36244379381435 L598.2500000001068 320.4455718603081 L598.2500000001068 428.56223973609644 L643.8750619670941 433.28207373269237 L627.2836586046537 511.7141623550457 L651.5866468986786 517.7899094285918 L667.2385239566836 456.9214986478596 Z" stroke="yellow" stroke-width="0.5" fill="none" />
  <path d="M1047.9406626134846 821.5485630941475 L1062.4089474490715 832.8016735219433 L1075.6646600670906 850.4759570125241 L1085.963310883713 846.0844568529401 L1202.201708008488 949.8930422907147 L1216.399999999993 982.8080769230828 L1199.2769556582061 950.7343854858273 L1225.529338216802 907.0825241717648 L1287.242991904307 854.1143882528045 L1337.3206659191083 772.0144590425869 L1362.5599999999595 652.6580769230848 L1340.1593340808658 773.1216948035844 L1289.5570080957698 856.0817655933371 L1227.8506617832363 909.0436296743819 L1201.3318892664415 953.1384381184724 L1085.386689116419 849.5916969932236 L1071.835339933145 855.370196833649 L1058.09105255112 837.0444803242469 L1045.5593373866634 827.297590752025 L1001.5474457120632 821.7961042927 L1006.2500000000085 839.423076923078 L1007.1004484395729 846.2641531781198 L976.0945886987571 771.8500897997702 L911.1322024316593 682.7156528287912 L900.6261201017907 687.2182595416796 L890.8291804145563 680.6869664168922 L878.7856855028053 682.4074656899957 L864.9742927241277 660.923076923081 L852.9666892327725 660.923076923081 L840.8835233460366 608.0592261681848 L787.8721936128841 619.3382324944062 L729.7458093630382 649.4036036581117 L709.0398159096623 635.5996080227053 L672.3966777963142 530.2505859461236 L690.165910549041 482.86596527197224 L738.4431111254486 456.0452982851413 L756.8958614716337 464.43291207890906 L792.8194406436972 446.0098006393996 L809.7583611399273 452.9253881404281 L823.6389543054656 463.4944321138488 L862.582731910635 525.8044762818613 L872.7811187115009 589.5443937877529 L860.2957151158108 607.023958821695 L882.1258390472764 635.0912610192537 L1098.0976593918967 504.5036487178776 L895.3511767951028 646.4261865359531 L933.3497739204688 691.2102474337821 L806.0430515789108 500.2501639232702 L978.910964318942 763.0093912883249 L1000.8496278435075 815.6621837479404 Z" stroke="orange" stroke-width="0.5" fill="none" />
  <path d="M971.5591742585872 934.686444972683 L937.5856273261007 939.3192013726124 L935.0082593607567 949.6286732334956 L920.7539588436475 959.1315402447863 L910.421520212239 946.2159919555655 L906.0671057855529 907.0262621135125 L896.2012606710346 902.7980427787228 L882.1614369940534 864.8905188507537 L843.830863988515 824.9628386366645 L820.8201999964615 781.0333891975428 L795.457304378715 756.6937804347006 L714.4960270134959 787.0146021686229 L681.775841953538 688.1838011120831 L672.6185523792338 655.92285860242 L662.8899448784153 656.1338404518244 L664.1714331681925 676.5522205347738 L658.5560638360022 685.8478165371882 L597.9875513521193 678.9168603193805 L594.9492767902598 671.3799250804507 L578.880194157847 635.4546839637252 L525.4983859341422 592.0752492259871 L525.996096278547 592.2374319934429 L472.8413130931841 595.1938621547124 L469.75425122539605 524.0491782797128 L359.386792222196 395.63895863268897 L353.95352206009534 367.8404822073598 L288.96819471121654 285.8500557912545 L233.9721357650859 289.2644127681907 L78.12359365722443 224.12096907713266 L45.44786899337794 179.89083868142444 L110.78206550003245 142.74807692308696 L58.362131006859386 182.22531516474777 L83.88640634272804 216.7751847690201 L235.50786423491843 280.1517410779673 L293.1018052888845 276.5760980549124 L362.366477939986 363.96567163879496 L367.76320777782695 391.577195213497 L472.28574877479446 513.1869755664485 L475.7086869067706 592.0722916914499 L525.9339037217359 590.7387218527325 L526.4316140661407 590.9009046201884 L581.3198058423552 633.561469882433 L597.7107232098433 670.2062287657127 L600.1024486479167 676.1392935267872 L656.9839361642238 682.6483373089662 L661.1185668317177 675.8039333113895 L659.7000551214904 653.2023133943475 L674.8714476209017 652.8732952437697 L684.4073941736184 686.4682384871099 L718.7706544633699 693.9343507506488 L728.7595624461574 697.2639867448759 L782.9028570569818 743.8873793265064 L864.9368892070441 782.9512041599937 L802.1907584322463 758.9976325354073 L836.8700573740995 792.2777666786394 L851.2095680060128 819.6531960665009 L887.1884991432211 857.131249334435 L919.2137885035834 853.4297658478239 L936.1909228630338 820.5445460031877 L972.9422594691073 897.3431442921174 Z" stroke="pink" stroke-width="0.5" fill="none" />
  <path d="M850.8722568143412 598.8361753206804 L860.4732581128616 590.9420186974244 L885.9115333156353 639.5607340259367 L975.3107109369097 580.9131162742907 L892.3063439552692 645.9885399880314 L929.8962666370159 690.014091455635 L978.0204157673467 761.4483753211563 L1001.0388774862378 814.2554345587237 L1031.6247842767723 894.3185435103394 L1035.9488437049436 902.9666623665753 L1077.7878552756447 937.3344218711009 L1135.017324960046 1000.5880462592718 L1168.0331701627722 1072.6226176103125 L1194.7688049732365 1105.2995046008339 L1311.6779071513206 1183.238906052939 L1418.4109994354799 1280.9523003976929 L1436.4823529417947 1309.5652767826602 L1456.0538169016722 1335.1587296532296 L1485.531603222796 1403.4230769230826 L1479.2551100343585 1403.4230769230826 L1450.4470102681921 1335.1933669501002 L1427.9645306154976 1306.715559390199 L1417.520021825922 1284.334469126842 L1314.3233305540036 1191.6070074042582 L1230.4071412429353 1134.6638789432159 L1192.7894550979802 1109.083852364565 L1170.0036983185669 1086.2980955851651 L1135.467665922647 1012.7213309152759 L1087.6764596608978 952.9823230883292 L1019.5009255114229 896.9268838986563 L1022.6563901176178 887.4604900798454 L997.34541692996 821.9497359472448 L991.3727090731328 805.5247893410232 L964.4651147022643 753.2044669533076 L924.0574383873223 696.3344039913563 L871.764986362038 632.62176129365 L859.6810502692165 605.9177543725734 Z" stroke="black" stroke-width="0.5" fill="none" />
  <path d="M1046.7210047450237 178.8728377456892 L1049.738574344019 231.68030572499038 L1058.7947594450497 264.88631776306204 L1049.4353700017455 307.00357025863696 L969.5414812426151 301.79309925259395 L936.2639371782677 294.230021056132 L885.9535944331043 290.7199971436756 L860.1182279989672 402.67325169092794 L874.6039589211563 406.45339262881146 L872.9478536677959 426.64449405201515 L872.7324805786196 465.4547247036221 L857.4446780187372 465.7740884264892 L856.7003018831798 479.5450469339289 L874.3595421437789 589.9152985626997 L861.4084354982054 608.0468478663213 L778.3197168063083 625.9679440547948 L729.6495177997286 651.1421849202545 L707.7885791994731 636.5682258535153 L670.8018642180491 530.2314202819612 L688.9551436206176 481.82267520881817 L738.3755433586003 454.3668975765523 L756.8565127461824 462.7673382072859 L792.74826738164 444.36054771900695 L811.3615087505366 451.959703721385 L809.8950496905388 455.4581191256999 L809.3128870330446 445.35827394744246 L802.8023943967355 425.8114411034584 L805.3519036634782 415.6463009300968 L787.4472932503096 397.7416905169016 L776.6949973949266 367.0208452156818 L785.809982957204 324.4842459242057 L795.2344505577713 300.92307692308066 L806.9161256380397 300.92307692308066 L815.8412566249496 225.05946353558608 L847.4354351597668 203.9966778455747 L850.4313109617101 192.0131746375751 L885.1077531186746 167.89043226765648 L905.8635031898632 130.53008213917064 L893.117199470268 133.0793428831243 L883.1476006416494 119.78654444513052 L884.6916796166227 112.06614957013119 L881.165163410742 103.24985905540302 L892.3429779106584 101.38688997207032 L918.1409131184637 108.97451797437378 L1010.115970676182 131.59133540656876 Z" stroke="black" stroke-width="0.5" fill="none" />
</svg>
